M48
; DRILL file KiCad 10.0.1 date 2026-05-12T02:02:41
; FORMAT={-:-/ absolute / metric / decimal}
; #@! TF.CreationDate,2026-05-12T02:02:41+09:00
; #@! TF.GenerationSoftware,Kicad,Pcbnew,10.0.1
; #@! TF.FileFunction,Plated,1,2,PTH
FMAT,2
METRIC
; #@! TA.AperFunction,Plated,PTH,ViaDrill
T1C0.300
; #@! TA.AperFunction,Plated,PTH,ComponentDrill
T2C0.800
; #@! TA.AperFunction,Plated,PTH,ComponentDrill
T3C1.000
; #@! TA.AperFunction,Plated,PTH,ComponentDrill
T4C1.300
%
G90
G05
T1
X32.0Y-85.075
X33.2Y-90.2
X37.0Y-90.2
X44.768Y-92.55
X53.5Y-77.075
X56.0Y-92.55
X60.6Y-90.3
X66.275Y-90.3
X69.0Y-92.55
X74.15Y-84.9
X75.5Y-92.55
X100.95Y-77.25
T2
X23.0Y-99.55
X23.0Y-104.55
X29.5Y-99.55
X29.5Y-104.55
X35.0Y-100.55
X39.19Y-77.265
X39.19Y-79.805
X39.19Y-82.345
X39.19Y-84.885
X40.0Y-100.55
X44.0Y-100.55
X46.81Y-77.265
X46.81Y-79.805
X46.81Y-82.345
X46.81Y-84.885
X49.0Y-100.55
X56.0Y-103.6
X56.0Y-108.6
X60.5Y-103.6
X60.5Y-108.6
X65.0Y-100.6
X68.8Y-96.45
X70.0Y-100.6
X73.8Y-96.45
X83.69Y-77.265
X83.69Y-79.805
X83.69Y-82.345
X83.69Y-84.885
X91.31Y-77.265
X91.31Y-79.805
X91.31Y-82.345
X91.31Y-84.885
T3
X36.5Y-105.9
X36.5Y-108.4
X39.0Y-105.9
X39.0Y-108.4
X41.5Y-105.9
X41.5Y-108.4
X66.5Y-106.1
X66.5Y-108.6
X69.0Y-106.1
X69.0Y-108.6
X71.5Y-106.1
X71.5Y-108.6
X80.0Y-100.05
X80.0Y-110.05
X88.0Y-100.05
X88.0Y-110.05
X94.0Y-98.55
X95.6Y-106.0
X95.6Y-108.5
X98.1Y-106.0
X98.1Y-108.5
X100.6Y-106.0
X100.6Y-108.5
X104.0Y-98.55
X109.5Y-93.55
X109.5Y-103.55
T4
X22.92Y-77.575
X28.0Y-77.575
X54.915Y-69.748
X59.995Y-69.748
X65.075Y-69.748
X82.67Y-68.825
X87.75Y-68.825
X92.83Y-68.825
M30
