%TF.GenerationSoftware,KiCad,Pcbnew,10.0.1*%
%TF.CreationDate,2026-05-12T02:02:38+09:00*%
%TF.ProjectId,AudioCase,41756469-6f43-4617-9365-2e6b69636164,rev?*%
%TF.SameCoordinates,Original*%
%TF.FileFunction,Copper,L2,Bot*%
%TF.FilePolarity,Positive*%
%FSLAX46Y46*%
G04 Gerber Fmt 4.6, Leading zero omitted, Abs format (unit mm)*
G04 Created by KiCad (PCBNEW 10.0.1) date 2026-05-12 02:02:38*
%MOMM*%
%LPD*%
G01*
G04 APERTURE LIST*
G04 Aperture macros list*
%AMRoundRect*
0 Rectangle with rounded corners*
0 $1 Rounding radius*
0 $2 $3 $4 $5 $6 $7 $8 $9 X,Y pos of 4 corners*
0 Add a 4 corners polygon primitive as box body*
4,1,4,$2,$3,$4,$5,$6,$7,$8,$9,$2,$3,0*
0 Add four circle primitives for the rounded corners*
1,1,$1+$1,$2,$3*
1,1,$1+$1,$4,$5*
1,1,$1+$1,$6,$7*
1,1,$1+$1,$8,$9*
0 Add four rect primitives between the rounded corners*
20,1,$1+$1,$2,$3,$4,$5,0*
20,1,$1+$1,$4,$5,$6,$7,0*
20,1,$1+$1,$6,$7,$8,$9,0*
20,1,$1+$1,$8,$9,$2,$3,0*%
G04 Aperture macros list end*
%TA.AperFunction,ComponentPad*%
%ADD10C,1.600000*%
%TD*%
%TA.AperFunction,ComponentPad*%
%ADD11RoundRect,0.450000X-0.450000X0.450000X-0.450000X-0.450000X0.450000X-0.450000X0.450000X0.450000X0*%
%TD*%
%TA.AperFunction,ComponentPad*%
%ADD12C,1.800000*%
%TD*%
%TA.AperFunction,ComponentPad*%
%ADD13RoundRect,0.250000X-0.550000X-0.550000X0.550000X-0.550000X0.550000X0.550000X-0.550000X0.550000X0*%
%TD*%
%TA.AperFunction,ComponentPad*%
%ADD14RoundRect,0.250000X-1.050000X-1.050000X1.050000X-1.050000X1.050000X1.050000X-1.050000X1.050000X0*%
%TD*%
%TA.AperFunction,ComponentPad*%
%ADD15C,2.600000*%
%TD*%
%TA.AperFunction,ComponentPad*%
%ADD16C,2.000000*%
%TD*%
%TA.AperFunction,SMDPad,CuDef*%
%ADD17RoundRect,0.237500X-0.237500X0.250000X-0.237500X-0.250000X0.237500X-0.250000X0.237500X0.250000X0*%
%TD*%
%TA.AperFunction,SMDPad,CuDef*%
%ADD18RoundRect,0.237500X0.237500X-0.250000X0.237500X0.250000X-0.237500X0.250000X-0.237500X-0.250000X0*%
%TD*%
%TA.AperFunction,ViaPad*%
%ADD19C,0.600000*%
%TD*%
%TA.AperFunction,Conductor*%
%ADD20C,1.000000*%
%TD*%
%TA.AperFunction,Conductor*%
%ADD21C,0.500000*%
%TD*%
G04 APERTURE END LIST*
D10*
%TO.P,C9,1*%
%TO.N,Net-(C6-Pad2)*%
X56000000Y-103600000D03*
%TO.P,C9,2*%
%TO.N,Net-(C9-Pad2)*%
X56000000Y-108600000D03*
%TD*%
D11*
%TO.P,RV3,1,1_1*%
%TO.N,Net-(C7-Pad1)*%
X95600000Y-108500000D03*
D12*
%TO.P,RV3,2,2_2*%
%TO.N,Net-(C10-Pad1)*%
X98100000Y-108500000D03*
%TO.P,RV3,3,3_3*%
%TO.N,Net-(C10-Pad2)*%
X100600000Y-108500000D03*
%TO.P,RV3,4,4_4*%
%TO.N,Net-(C16-Pad2)*%
X95600000Y-106000000D03*
%TO.P,RV3,5,5_5*%
%TO.N,Net-(C13-Pad2)*%
X98100000Y-106000000D03*
%TO.P,RV3,6,6_6*%
%TO.N,Net-(C13-Pad1)*%
X100600000Y-106000000D03*
%TD*%
D13*
%TO.P,U3,1*%
%TO.N,/Rotary_R_IN*%
X83690000Y-77265000D03*
D10*
%TO.P,U3,2,-_2*%
%TO.N,GND*%
X83690000Y-79805000D03*
%TO.P,U3,3,+_3*%
%TO.N,Net-(U3A-+)*%
X83690000Y-82345000D03*
%TO.P,U3,4,V-_4*%
%TO.N,/Rotary_V-_IN*%
X83690000Y-84885000D03*
%TO.P,U3,5,+_5*%
%TO.N,Net-(U3B-+)*%
X91310000Y-84885000D03*
%TO.P,U3,6,-_6*%
%TO.N,GND*%
X91310000Y-82345000D03*
%TO.P,U3,7*%
%TO.N,/Rotary_L_IN*%
X91310000Y-79805000D03*
%TO.P,U3,8,V+_8*%
%TO.N,/Rotary_V+_IN*%
X91310000Y-77265000D03*
%TD*%
D13*
%TO.P,U2,1*%
%TO.N,Net-(R14-Pad1)*%
X39190000Y-77265000D03*
D10*
%TO.P,U2,2,-_2*%
%TO.N,/EQModule/R BAX OUT*%
X39190000Y-79805000D03*
%TO.P,U2,3,+_3*%
%TO.N,GND*%
X39190000Y-82345000D03*
%TO.P,U2,4,V-_4*%
%TO.N,/Rotary_V-_IN*%
X39190000Y-84885000D03*
%TO.P,U2,5,+_5*%
%TO.N,GND*%
X46810000Y-84885000D03*
%TO.P,U2,6,-_6*%
%TO.N,/EQModule/L BAX OUT*%
X46810000Y-82345000D03*
%TO.P,U2,7*%
%TO.N,Net-(R15-Pad1)*%
X46810000Y-79805000D03*
%TO.P,U2,8,V+_8*%
%TO.N,/Rotary_V+_IN*%
X46810000Y-77265000D03*
%TD*%
D14*
%TO.P,J7,1,Pin_1_1*%
%TO.N,/Rotary_V+_IN*%
X54915000Y-69747500D03*
D15*
%TO.P,J7,2,Pin_2_2*%
%TO.N,GND*%
X59995000Y-69747500D03*
%TO.P,J7,3,Pin_3_3*%
%TO.N,/Rotary_V-_IN*%
X65075000Y-69747500D03*
%TD*%
D16*
%TO.P,C10,1*%
%TO.N,Net-(C10-Pad1)*%
X80000000Y-100050000D03*
%TO.P,C10,2*%
%TO.N,Net-(C10-Pad2)*%
X80000000Y-110050000D03*
%TD*%
%TO.P,C13,1*%
%TO.N,Net-(C13-Pad1)*%
X109500000Y-93550000D03*
%TO.P,C13,2*%
%TO.N,Net-(C13-Pad2)*%
X109500000Y-103550000D03*
%TD*%
D10*
%TO.P,C17,1*%
%TO.N,Net-(C14-Pad2)*%
X40000000Y-100550000D03*
%TO.P,C17,2*%
%TO.N,Net-(C17-Pad2)*%
X35000000Y-100550000D03*
%TD*%
D11*
%TO.P,RV1,1,1_1*%
%TO.N,Net-(C8-Pad1)*%
X36500000Y-108400000D03*
D12*
%TO.P,RV1,2,2_2*%
%TO.N,Net-(C11-Pad1)*%
X39000000Y-108400000D03*
%TO.P,RV1,3,3_3*%
%TO.N,Net-(C11-Pad2)*%
X41500000Y-108400000D03*
%TO.P,RV1,4,4_4*%
%TO.N,Net-(C17-Pad2)*%
X36500000Y-105900000D03*
%TO.P,RV1,5,5_5*%
%TO.N,Net-(C14-Pad2)*%
X39000000Y-105900000D03*
%TO.P,RV1,6,6_6*%
%TO.N,Net-(C14-Pad1)*%
X41500000Y-105900000D03*
%TD*%
D16*
%TO.P,C16,1*%
%TO.N,Net-(C13-Pad2)*%
X104000000Y-98550000D03*
%TO.P,C16,2*%
%TO.N,Net-(C16-Pad2)*%
X94000000Y-98550000D03*
%TD*%
D10*
%TO.P,C8,1*%
%TO.N,Net-(C8-Pad1)*%
X29500000Y-99550000D03*
%TO.P,C8,2*%
%TO.N,Net-(C11-Pad1)*%
X29500000Y-104550000D03*
%TD*%
%TO.P,C15,1*%
%TO.N,Net-(C12-Pad2)*%
X70000000Y-100600000D03*
%TO.P,C15,2*%
%TO.N,Net-(C15-Pad2)*%
X65000000Y-100600000D03*
%TD*%
D11*
%TO.P,RV2,1,1_1*%
%TO.N,Net-(C6-Pad1)*%
X66500000Y-108600000D03*
D12*
%TO.P,RV2,2,2_2*%
%TO.N,Net-(C6-Pad2)*%
X69000000Y-108600000D03*
%TO.P,RV2,3,3_3*%
%TO.N,Net-(C9-Pad2)*%
X71500000Y-108600000D03*
%TO.P,RV2,4,4_4*%
%TO.N,Net-(C15-Pad2)*%
X66500000Y-106100000D03*
%TO.P,RV2,5,5_5*%
%TO.N,Net-(C12-Pad2)*%
X69000000Y-106100000D03*
%TO.P,RV2,6,6_6*%
%TO.N,Net-(C12-Pad1)*%
X71500000Y-106100000D03*
%TD*%
D10*
%TO.P,C12,1*%
%TO.N,Net-(C12-Pad1)*%
X73800000Y-96450000D03*
%TO.P,C12,2*%
%TO.N,Net-(C12-Pad2)*%
X68800000Y-96450000D03*
%TD*%
%TO.P,C11,1*%
%TO.N,Net-(C11-Pad1)*%
X23000000Y-99550000D03*
%TO.P,C11,2*%
%TO.N,Net-(C11-Pad2)*%
X23000000Y-104550000D03*
%TD*%
D14*
%TO.P,J6,1,Pin_1_1*%
%TO.N,/EQModule/R_IN*%
X22920000Y-77575000D03*
D15*
%TO.P,J6,2,Pin_2_2*%
%TO.N,/EQModule/L_IN*%
X28000000Y-77575000D03*
%TD*%
D10*
%TO.P,C6,1*%
%TO.N,Net-(C6-Pad1)*%
X60500000Y-103600000D03*
%TO.P,C6,2*%
%TO.N,Net-(C6-Pad2)*%
X60500000Y-108600000D03*
%TD*%
D14*
%TO.P,J8,1,Pin_1_1*%
%TO.N,/Rotary_L_IN*%
X82670000Y-68825000D03*
D15*
%TO.P,J8,2,Pin_2_2*%
%TO.N,GND*%
X87750000Y-68825000D03*
%TO.P,J8,3,Pin_3_3*%
%TO.N,/Rotary_R_IN*%
X92830000Y-68825000D03*
%TD*%
D10*
%TO.P,C14,1*%
%TO.N,Net-(C14-Pad1)*%
X49000000Y-100550000D03*
%TO.P,C14,2*%
%TO.N,Net-(C14-Pad2)*%
X44000000Y-100550000D03*
%TD*%
D16*
%TO.P,C7,1*%
%TO.N,Net-(C7-Pad1)*%
X88000000Y-100050000D03*
%TO.P,C7,2*%
%TO.N,Net-(C10-Pad1)*%
X88000000Y-110050000D03*
%TD*%
D17*
%TO.P,R4,1*%
%TO.N,/EQModule/R_IN*%
X29500000Y-93587500D03*
%TO.P,R4,2*%
%TO.N,Net-(C8-Pad1)*%
X29500000Y-95412500D03*
%TD*%
%TO.P,R3,1*%
%TO.N,/EQModule/R_IN*%
X88000000Y-93637500D03*
%TO.P,R3,2*%
%TO.N,Net-(C7-Pad1)*%
X88000000Y-95462500D03*
%TD*%
%TO.P,R2,1*%
%TO.N,/EQModule/R_IN*%
X60500000Y-97037500D03*
%TO.P,R2,2*%
%TO.N,Net-(C6-Pad1)*%
X60500000Y-98862500D03*
%TD*%
D18*
%TO.P,R8,1*%
%TO.N,Net-(C15-Pad2)*%
X65000000Y-96212500D03*
%TO.P,R8,2*%
%TO.N,/EQModule/L_IN*%
X65000000Y-94387500D03*
%TD*%
%TO.P,R9,1*%
%TO.N,Net-(C16-Pad2)*%
X94000000Y-93962500D03*
%TO.P,R9,2*%
%TO.N,/EQModule/L_IN*%
X94000000Y-92137500D03*
%TD*%
%TO.P,R10,1*%
%TO.N,Net-(C17-Pad2)*%
X35000000Y-95612500D03*
%TO.P,R10,2*%
%TO.N,/EQModule/L_IN*%
X35000000Y-93787500D03*
%TD*%
D19*
%TO.N,GND*%
X74150000Y-84900000D03*
X53500000Y-77075000D03*
X32000000Y-85075000D03*
X100950000Y-77250000D03*
%TO.N,/EQModule/R BAX OUT*%
X69000000Y-92550000D03*
X44767767Y-92550000D03*
X56000000Y-92550000D03*
X75500000Y-92550000D03*
%TO.N,/EQModule/R_IN*%
X66275000Y-90300000D03*
X60600000Y-90300000D03*
X37000000Y-90200000D03*
X33200000Y-90200000D03*
%TD*%
%TO.N,/Rotary_V-_IN*%
D20*
X82485000Y-84885000D02*
X83690000Y-84885000D01*
X67347500Y-69747500D02*
X82485000Y-84885000D01*
X65075000Y-69747500D02*
X67347500Y-69747500D01*
%TO.N,Net-(C6-Pad2)*%
D21*
X60500000Y-108100000D02*
X60500000Y-108600000D01*
X56000000Y-103600000D02*
X60500000Y-108100000D01*
%TO.N,/Rotary_V+_IN*%
D20*
X88870000Y-74825000D02*
X91310000Y-77265000D01*
X54327500Y-69747500D02*
X46810000Y-77265000D01*
X54915000Y-69747500D02*
X54327500Y-69747500D01*
X58087500Y-66575000D02*
X71250000Y-66575000D01*
X54915000Y-69747500D02*
X58087500Y-66575000D01*
X79500000Y-74825000D02*
X88870000Y-74825000D01*
X71250000Y-66575000D02*
X79500000Y-74825000D01*
%TO.N,Net-(C7-Pad1)*%
D21*
X88000000Y-95462500D02*
X88000000Y-100050000D01*
%TO.N,Net-(C16-Pad2)*%
X94000000Y-93962500D02*
X94000000Y-98550000D01*
%TO.N,/Rotary_V-_IN*%
D20*
X40690000Y-86385000D02*
X39190000Y-84885000D01*
X65075000Y-69747500D02*
X48437500Y-86385000D01*
X48437500Y-86385000D02*
X40690000Y-86385000D01*
%TO.N,/EQModule/R BAX OUT*%
D21*
X44767767Y-92550000D02*
X56000000Y-92550000D01*
X75500000Y-92550000D02*
X69000000Y-92550000D01*
%TO.N,Net-(C17-Pad2)*%
X35000000Y-95612500D02*
X35000000Y-100550000D01*
%TO.N,Net-(C8-Pad1)*%
X29500000Y-95412500D02*
X29500000Y-99550000D01*
%TO.N,Net-(C15-Pad2)*%
X65000000Y-96212500D02*
X65000000Y-100600000D01*
%TO.N,Net-(C6-Pad1)*%
X60500000Y-98862500D02*
X60500000Y-103600000D01*
%TO.N,/EQModule/R_IN*%
X66275000Y-90300000D02*
X87950000Y-90300000D01*
X87950000Y-90300000D02*
X88000000Y-90350000D01*
X60500000Y-90200000D02*
X37000000Y-90200000D01*
X33200000Y-90200000D02*
X29812500Y-93587500D01*
X60500000Y-97037500D02*
X60500000Y-90400000D01*
X88000000Y-93637500D02*
X88000000Y-90350000D01*
X28762500Y-93587500D02*
X22920000Y-87745000D01*
X60600000Y-90300000D02*
X60500000Y-90200000D01*
X29812500Y-93587500D02*
X29500000Y-93587500D01*
X29500000Y-93587500D02*
X28762500Y-93587500D01*
X22920000Y-87745000D02*
X22920000Y-77575000D01*
X60500000Y-90400000D02*
X60600000Y-90300000D01*
%TO.N,/EQModule/L_IN*%
X35000000Y-93787500D02*
X35000000Y-89075000D01*
X29500000Y-79075000D02*
X28000000Y-77575000D01*
X29800000Y-89075000D02*
X35000000Y-89075000D01*
X65000000Y-91075000D02*
X65000000Y-89075000D01*
X29500000Y-88775000D02*
X29800000Y-89075000D01*
X65000000Y-94387500D02*
X65000000Y-90050000D01*
X65000000Y-89075000D02*
X94000000Y-89075000D01*
X94000000Y-92137500D02*
X94000000Y-89075000D01*
X29500000Y-79075000D02*
X29500000Y-88775000D01*
X35000000Y-89075000D02*
X65000000Y-89075000D01*
%TD*%
%TA.AperFunction,Conductor*%
%TO.N,GND*%
G36*
X70851257Y-67595185D02*
G01*
X70871899Y-67611819D01*
X78719735Y-75459655D01*
X78719764Y-75459686D01*
X78862214Y-75602136D01*
X78862218Y-75602139D01*
X79026079Y-75711628D01*
X79026092Y-75711635D01*
X79154833Y-75764961D01*
X79203212Y-75785000D01*
X79208164Y-75787051D01*
X79299943Y-75805307D01*
X79325322Y-75810355D01*
X79401456Y-75825500D01*
X79401459Y-75825500D01*
X79401460Y-75825500D01*
X79598540Y-75825500D01*
X82715276Y-75825500D01*
X82782315Y-75845185D01*
X82828070Y-75897989D01*
X82838014Y-75967147D01*
X82808989Y-76030703D01*
X82780373Y-76055038D01*
X82772685Y-76059781D01*
X82671342Y-76122289D01*
X82547289Y-76246342D01*
X82455187Y-76395663D01*
X82455186Y-76395666D01*
X82400001Y-76562203D01*
X82400001Y-76562204D01*
X82400000Y-76562204D01*
X82389500Y-76664983D01*
X82389500Y-77865001D01*
X82389501Y-77865018D01*
X82400000Y-77967796D01*
X82400001Y-77967799D01*
X82447856Y-78112213D01*
X82455186Y-78134334D01*
X82547288Y-78283656D01*
X82671344Y-78407712D01*
X82820666Y-78499814D01*
X82903152Y-78527147D01*
X82960597Y-78566920D01*
X82987420Y-78631436D01*
X82975105Y-78700212D01*
X82965143Y-78711975D01*
X82964077Y-78725524D01*
X83643554Y-79405000D01*
X83637339Y-79405000D01*
X83535606Y-79432259D01*
X83444394Y-79484920D01*
X83369920Y-79559394D01*
X83317259Y-79650606D01*
X83290000Y-79752339D01*
X83290000Y-79758553D01*
X82610524Y-79079077D01*
X82610523Y-79079077D01*
X82578143Y-79123644D01*
X82485244Y-79305968D01*
X82422009Y-79500582D01*
X82390000Y-79702682D01*
X82390000Y-79907317D01*
X82422009Y-80109417D01*
X82485244Y-80304031D01*
X82578141Y-80486350D01*
X82578147Y-80486359D01*
X82610523Y-80530921D01*
X82610524Y-80530922D01*
X83290000Y-79851446D01*
X83290000Y-79857661D01*
X83317259Y-79959394D01*
X83369920Y-80050606D01*
X83444394Y-80125080D01*
X83535606Y-80177741D01*
X83637339Y-80205000D01*
X83643553Y-80205000D01*
X82964076Y-80884474D01*
X83008652Y-80916861D01*
X83101628Y-80964234D01*
X83152425Y-81012208D01*
X83169220Y-81080029D01*
X83146683Y-81146164D01*
X83101630Y-81185203D01*
X83008388Y-81232713D01*
X82842786Y-81353028D01*
X82698028Y-81497786D01*
X82577715Y-81663386D01*
X82484781Y-81845776D01*
X82421522Y-82040465D01*
X82389500Y-82242648D01*
X82389500Y-82447351D01*
X82421522Y-82649534D01*
X82484781Y-82844223D01*
X82548691Y-82969653D01*
X82577585Y-83026359D01*
X82577715Y-83026613D01*
X82698028Y-83192213D01*
X82842786Y-83336971D01*
X82963226Y-83424474D01*
X83008390Y-83457287D01*
X83099840Y-83503883D01*
X83101080Y-83504515D01*
X83107744Y-83510809D01*
X83116415Y-83513782D01*
X83132743Y-83534419D01*
X83151876Y-83552490D01*
X83154079Y-83561387D01*
X83159767Y-83568576D01*
X83162345Y-83594769D01*
X83168671Y-83620311D01*
X83165714Y-83628986D01*
X83166613Y-83638109D01*
X83154623Y-83661534D01*
X83146134Y-83686446D01*
X83138111Y-83693795D01*
X83134779Y-83700306D01*
X83114310Y-83715599D01*
X83107100Y-83722205D01*
X83104135Y-83723927D01*
X83008390Y-83772713D01*
X82961095Y-83807073D01*
X82955638Y-83810246D01*
X82927595Y-83817136D01*
X82900400Y-83826839D01*
X82894083Y-83825370D01*
X82887787Y-83826917D01*
X82860477Y-83817554D01*
X82832347Y-83811013D01*
X82824909Y-83805361D01*
X82821693Y-83804259D01*
X82819032Y-83800896D01*
X82805642Y-83790722D01*
X68128979Y-69114059D01*
X68128959Y-69114037D01*
X67985285Y-68970363D01*
X67985281Y-68970360D01*
X67821420Y-68860871D01*
X67821411Y-68860866D01*
X67699882Y-68810527D01*
X67699879Y-68810526D01*
X67692665Y-68807538D01*
X67639336Y-68785449D01*
X67529011Y-68763504D01*
X67524733Y-68762653D01*
X67524722Y-68762650D01*
X67446043Y-68747000D01*
X67446041Y-68747000D01*
X66637919Y-68747000D01*
X66570880Y-68727315D01*
X66539543Y-68698486D01*
X66512908Y-68663775D01*
X66431592Y-68557801D01*
X66431587Y-68557795D01*
X66264704Y-68390912D01*
X66264697Y-68390906D01*
X66077454Y-68247230D01*
X66077453Y-68247229D01*
X66077450Y-68247227D01*
X65995614Y-68199979D01*
X65873056Y-68129219D01*
X65873045Y-68129214D01*
X65654993Y-68038894D01*
X65427010Y-67977806D01*
X65193020Y-67947001D01*
X65193017Y-67947000D01*
X65193011Y-67947000D01*
X64956989Y-67947000D01*
X64956983Y-67947000D01*
X64956979Y-67947001D01*
X64722989Y-67977806D01*
X64495006Y-68038894D01*
X64276954Y-68129214D01*
X64276943Y-68129219D01*
X64072545Y-68247230D01*
X63885302Y-68390906D01*
X63885295Y-68390912D01*
X63718412Y-68557795D01*
X63718406Y-68557802D01*
X63574730Y-68745045D01*
X63574727Y-68745049D01*
X63574727Y-68745050D01*
X63573601Y-68747000D01*
X63456719Y-68949443D01*
X63456714Y-68949454D01*
X63366394Y-69167506D01*
X63305306Y-69395489D01*
X63274501Y-69629479D01*
X63274500Y-69629495D01*
X63274500Y-69865504D01*
X63274501Y-69865521D01*
X63297646Y-70041324D01*
X63286880Y-70110359D01*
X63262388Y-70145190D01*
X48321165Y-85086414D01*
X48259842Y-85119899D01*
X48190150Y-85114915D01*
X48134217Y-85073043D01*
X48109800Y-85007579D01*
X48109867Y-84988993D01*
X48110000Y-84987304D01*
X48110000Y-84782682D01*
X48077990Y-84580582D01*
X48014755Y-84385968D01*
X47921859Y-84203650D01*
X47889474Y-84159077D01*
X47889474Y-84159076D01*
X47210000Y-84838551D01*
X47210000Y-84832339D01*
X47182741Y-84730606D01*
X47130080Y-84639394D01*
X47055606Y-84564920D01*
X46964394Y-84512259D01*
X46862661Y-84485000D01*
X46856446Y-84485000D01*
X47535922Y-83805524D01*
X47535921Y-83805523D01*
X47491359Y-83773147D01*
X47491350Y-83773141D01*
X47398369Y-83725765D01*
X47347573Y-83677790D01*
X47330778Y-83609969D01*
X47353315Y-83543835D01*
X47398370Y-83504795D01*
X47399471Y-83504234D01*
X47491610Y-83457287D01*
X47541144Y-83421298D01*
X47657213Y-83336971D01*
X47657215Y-83336968D01*
X47657219Y-83336966D01*
X47801966Y-83192219D01*
X47801968Y-83192215D01*
X47801971Y-83192213D01*
X47854732Y-83119590D01*
X47922287Y-83026610D01*
X48015220Y-82844219D01*
X48078477Y-82649534D01*
X48110500Y-82447352D01*
X48110500Y-82242648D01*
X48102257Y-82190606D01*
X48078477Y-82040465D01*
X48047458Y-81945000D01*
X48015220Y-81845781D01*
X48015218Y-81845778D01*
X48015218Y-81845776D01*
X47922419Y-81663650D01*
X47922287Y-81663390D01*
X47890092Y-81619077D01*
X47801971Y-81497786D01*
X47657213Y-81353028D01*
X47491614Y-81232715D01*
X47485006Y-81229348D01*
X47398917Y-81185483D01*
X47348123Y-81137511D01*
X47331328Y-81069690D01*
X47353865Y-81003555D01*
X47398917Y-80964516D01*
X47491610Y-80917287D01*
X47536774Y-80884474D01*
X47657213Y-80796971D01*
X47657215Y-80796968D01*
X47657219Y-80796966D01*
X47801966Y-80652219D01*
X47801968Y-80652215D01*
X47801971Y-80652213D01*
X47854732Y-80579590D01*
X47922287Y-80486610D01*
X48015220Y-80304219D01*
X48078477Y-80109534D01*
X48110500Y-79907352D01*
X48110500Y-79702648D01*
X48102257Y-79650606D01*
X48078477Y-79500465D01*
X48041514Y-79386705D01*
X48015220Y-79305781D01*
X48015218Y-79305778D01*
X48015218Y-79305776D01*
X47981503Y-79239607D01*
X47922287Y-79123390D01*
X47890092Y-79079077D01*
X47801971Y-78957786D01*
X47657213Y-78813028D01*
X47491614Y-78692715D01*
X47485006Y-78689348D01*
X47398917Y-78645483D01*
X47348123Y-78597511D01*
X47331328Y-78529690D01*
X47353865Y-78463555D01*
X47398917Y-78424516D01*
X47491610Y-78377287D01*
X47620482Y-78283657D01*
X47657213Y-78256971D01*
X47657215Y-78256968D01*
X47657219Y-78256966D01*
X47801966Y-78112219D01*
X47801968Y-78112215D01*
X47801971Y-78112213D01*
X47906892Y-77967799D01*
X47922287Y-77946610D01*
X48015220Y-77764219D01*
X48078477Y-77569534D01*
X48101925Y-77421483D01*
X48131854Y-77358350D01*
X48136699Y-77353219D01*
X53905601Y-71584318D01*
X53966924Y-71550833D01*
X53993282Y-71547999D01*
X56015002Y-71547999D01*
X56015008Y-71547999D01*
X56117797Y-71537499D01*
X56284334Y-71482314D01*
X56433656Y-71390212D01*
X56557712Y-71266156D01*
X56649814Y-71116834D01*
X56704999Y-70950297D01*
X56715500Y-70847509D01*
X56715499Y-69629514D01*
X58195000Y-69629514D01*
X58195000Y-69865485D01*
X58225799Y-70099414D01*
X58286870Y-70327337D01*
X58377160Y-70545319D01*
X58377165Y-70545328D01*
X58495144Y-70749671D01*
X58495145Y-70749672D01*
X58557721Y-70831223D01*
X59393958Y-69994987D01*
X59418978Y-70055390D01*
X59490112Y-70161851D01*
X59580649Y-70252388D01*
X59687110Y-70323522D01*
X59747511Y-70348541D01*
X58911275Y-71184777D01*
X58992827Y-71247354D01*
X58992828Y-71247355D01*
X59197171Y-71365334D01*
X59197180Y-71365339D01*
X59415163Y-71455629D01*
X59415161Y-71455629D01*
X59643085Y-71516700D01*
X59877014Y-71547499D01*
X59877029Y-71547500D01*
X60112971Y-71547500D01*
X60112985Y-71547499D01*
X60346914Y-71516700D01*
X60574837Y-71455629D01*
X60792819Y-71365339D01*
X60792828Y-71365334D01*
X60997181Y-71247350D01*
X61078723Y-71184779D01*
X61078723Y-71184776D01*
X60242487Y-70348541D01*
X60302890Y-70323522D01*
X60409351Y-70252388D01*
X60499888Y-70161851D01*
X60571022Y-70055390D01*
X60596041Y-69994987D01*
X61432276Y-70831223D01*
X61432279Y-70831223D01*
X61494850Y-70749681D01*
X61612834Y-70545328D01*
X61612839Y-70545319D01*
X61703129Y-70327337D01*
X61764200Y-70099414D01*
X61794999Y-69865485D01*
X61795000Y-69865471D01*
X61795000Y-69629528D01*
X61794999Y-69629514D01*
X61764200Y-69395585D01*
X61703129Y-69167662D01*
X61612839Y-68949680D01*
X61612834Y-68949671D01*
X61494855Y-68745328D01*
X61494854Y-68745327D01*
X61432277Y-68663775D01*
X60596041Y-69500011D01*
X60571022Y-69439610D01*
X60499888Y-69333149D01*
X60409351Y-69242612D01*
X60302890Y-69171478D01*
X60242488Y-69146458D01*
X61078723Y-68310221D01*
X60997172Y-68247645D01*
X60997171Y-68247644D01*
X60792828Y-68129665D01*
X60792819Y-68129660D01*
X60574836Y-68039370D01*
X60574838Y-68039370D01*
X60346914Y-67978299D01*
X60112985Y-67947500D01*
X59877014Y-67947500D01*
X59643085Y-67978299D01*
X59415162Y-68039370D01*
X59197180Y-68129660D01*
X59197171Y-68129665D01*
X58992828Y-68247644D01*
X58992818Y-68247650D01*
X58911275Y-68310220D01*
X58911275Y-68310221D01*
X59747512Y-69146458D01*
X59687110Y-69171478D01*
X59580649Y-69242612D01*
X59490112Y-69333149D01*
X59418978Y-69439610D01*
X59393958Y-69500011D01*
X58557721Y-68663775D01*
X58557720Y-68663775D01*
X58495150Y-68745318D01*
X58495144Y-68745328D01*
X58377165Y-68949671D01*
X58377160Y-68949680D01*
X58286870Y-69167662D01*
X58225799Y-69395585D01*
X58195000Y-69629514D01*
X56715499Y-69629514D01*
X56715499Y-69413281D01*
X56735184Y-69346243D01*
X56751813Y-69325606D01*
X58465602Y-67611819D01*
X58526925Y-67578334D01*
X58553283Y-67575500D01*
X70784218Y-67575500D01*
X70851257Y-67595185D01*
G37*
%TD.AperFunction*%
%TA.AperFunction,Conductor*%
G36*
X106077406Y-63077108D02*
G01*
X106144444Y-63096797D01*
X106190195Y-63149605D01*
X106201397Y-63201108D01*
X106201397Y-69725000D01*
X112575500Y-69725000D01*
X112642539Y-69744685D01*
X112688294Y-69797489D01*
X112699500Y-69849000D01*
X112699500Y-107526000D01*
X112679815Y-107593039D01*
X112627011Y-107638794D01*
X112575500Y-107650000D01*
X106200000Y-107650000D01*
X106200000Y-114809711D01*
X106221804Y-114849642D01*
X106216820Y-114919334D01*
X106174948Y-114975267D01*
X106109484Y-114999684D01*
X106100638Y-115000000D01*
X24599362Y-115000000D01*
X24532323Y-114980315D01*
X24486568Y-114927511D01*
X24476624Y-114858353D01*
X24500000Y-114807166D01*
X24500000Y-113334108D01*
X33299500Y-113334108D01*
X33299500Y-113465892D01*
X33316554Y-113529539D01*
X33333608Y-113593187D01*
X33366554Y-113650250D01*
X33399500Y-113707314D01*
X33492686Y-113800500D01*
X33606814Y-113866392D01*
X33734108Y-113900500D01*
X33734110Y-113900500D01*
X44265890Y-113900500D01*
X44265892Y-113900500D01*
X44393186Y-113866392D01*
X44507314Y-113800500D01*
X44600500Y-113707314D01*
X44666392Y-113593186D01*
X44682222Y-113534108D01*
X63299500Y-113534108D01*
X63299500Y-113665892D01*
X63316554Y-113729539D01*
X63333608Y-113793187D01*
X63341766Y-113807316D01*
X63399500Y-113907314D01*
X63492686Y-114000500D01*
X63606814Y-114066392D01*
X63734108Y-114100500D01*
X63734110Y-114100500D01*
X74265890Y-114100500D01*
X74265892Y-114100500D01*
X74393186Y-114066392D01*
X74507314Y-114000500D01*
X74600500Y-113907314D01*
X74666392Y-113793186D01*
X74700500Y-113665892D01*
X74700500Y-113534108D01*
X74673705Y-113434108D01*
X92399500Y-113434108D01*
X92399500Y-113565891D01*
X92433608Y-113693187D01*
X92441766Y-113707316D01*
X92499500Y-113807314D01*
X92592686Y-113900500D01*
X92706814Y-113966392D01*
X92834108Y-114000500D01*
X92834110Y-114000500D01*
X103365890Y-114000500D01*
X103365892Y-114000500D01*
X103493186Y-113966392D01*
X103607314Y-113900500D01*
X103700500Y-113807314D01*
X103766392Y-113693186D01*
X103800500Y-113565892D01*
X103800500Y-113434108D01*
X103766392Y-113306814D01*
X103700500Y-113192686D01*
X103607314Y-113099500D01*
X103550250Y-113066554D01*
X103493187Y-113033608D01*
X103429539Y-113016554D01*
X103365892Y-112999500D01*
X92834108Y-112999500D01*
X92706812Y-113033608D01*
X92592686Y-113099500D01*
X92592683Y-113099502D01*
X92499502Y-113192683D01*
X92499500Y-113192686D01*
X92433608Y-113306812D01*
X92399500Y-113434108D01*
X74673705Y-113434108D01*
X74666392Y-113406814D01*
X74600500Y-113292686D01*
X74507314Y-113199500D01*
X74450250Y-113166554D01*
X74393187Y-113133608D01*
X74329539Y-113116554D01*
X74265892Y-113099500D01*
X63734108Y-113099500D01*
X63606812Y-113133608D01*
X63492686Y-113199500D01*
X63492683Y-113199502D01*
X63399502Y-113292683D01*
X63399500Y-113292686D01*
X63333608Y-113406812D01*
X63317778Y-113465892D01*
X63299500Y-113534108D01*
X44682222Y-113534108D01*
X44700500Y-113465892D01*
X44700500Y-113334108D01*
X44666392Y-113206814D01*
X44600500Y-113092686D01*
X44507314Y-112999500D01*
X44450250Y-112966554D01*
X44393187Y-112933608D01*
X44329539Y-112916554D01*
X44265892Y-112899500D01*
X33734108Y-112899500D01*
X33606812Y-112933608D01*
X33492686Y-112999500D01*
X33492683Y-112999502D01*
X33399502Y-113092683D01*
X33399500Y-113092686D01*
X33333608Y-113206812D01*
X33310600Y-113292683D01*
X33299500Y-113334108D01*
X24500000Y-113334108D01*
X24500000Y-107650000D01*
X18122816Y-107650000D01*
X18055777Y-107630315D01*
X18010022Y-107577511D01*
X17998816Y-107525991D01*
X17999035Y-104447648D01*
X21699500Y-104447648D01*
X21699500Y-104652351D01*
X21731522Y-104854534D01*
X21794781Y-105049223D01*
X21887715Y-105231613D01*
X22008028Y-105397213D01*
X22152786Y-105541971D01*
X22307749Y-105654556D01*
X22318390Y-105662287D01*
X22434607Y-105721503D01*
X22500776Y-105755218D01*
X22500778Y-105755218D01*
X22500781Y-105755220D01*
X22605137Y-105789127D01*
X22695465Y-105818477D01*
X22796557Y-105834488D01*
X22897648Y-105850500D01*
X22897649Y-105850500D01*
X23102351Y-105850500D01*
X23102352Y-105850500D01*
X23304534Y-105818477D01*
X23499219Y-105755220D01*
X23681610Y-105662287D01*
X23805816Y-105572047D01*
X23847213Y-105541971D01*
X23847215Y-105541968D01*
X23847219Y-105541966D01*
X23991966Y-105397219D01*
X23991968Y-105397215D01*
X23991971Y-105397213D01*
X24051144Y-105315767D01*
X24112287Y-105231610D01*
X24205220Y-105049219D01*
X24268477Y-104854534D01*
X24300500Y-104652352D01*
X24300500Y-104447648D01*
X28199500Y-104447648D01*
X28199500Y-104652351D01*
X28231522Y-104854534D01*
X28294781Y-105049223D01*
X28387715Y-105231613D01*
X28508028Y-105397213D01*
X28652786Y-105541971D01*
X28807749Y-105654556D01*
X28818390Y-105662287D01*
X28934607Y-105721503D01*
X29000776Y-105755218D01*
X29000778Y-105755218D01*
X29000781Y-105755220D01*
X29105137Y-105789127D01*
X29195465Y-105818477D01*
X29296557Y-105834488D01*
X29397648Y-105850500D01*
X29397649Y-105850500D01*
X29602351Y-105850500D01*
X29602352Y-105850500D01*
X29804534Y-105818477D01*
X29892860Y-105789778D01*
X35099500Y-105789778D01*
X35099500Y-106010222D01*
X35116742Y-106119086D01*
X35133985Y-106227952D01*
X35202103Y-106437603D01*
X35202104Y-106437606D01*
X35302187Y-106634025D01*
X35431752Y-106812358D01*
X35431756Y-106812363D01*
X35567360Y-106947967D01*
X35600845Y-107009290D01*
X35595861Y-107078982D01*
X35553989Y-107134915D01*
X35537097Y-107145554D01*
X35524249Y-107152265D01*
X35374428Y-107274428D01*
X35252265Y-107424250D01*
X35162762Y-107595594D01*
X35109582Y-107781451D01*
X35099500Y-107894863D01*
X35099500Y-108905136D01*
X35109582Y-109018548D01*
X35162762Y-109204405D01*
X35219152Y-109312358D01*
X35252266Y-109375751D01*
X35282121Y-109412365D01*
X35374428Y-109525571D01*
X35435966Y-109575748D01*
X35524249Y-109647734D01*
X35695594Y-109737237D01*
X35881448Y-109790417D01*
X35994862Y-109800500D01*
X35994870Y-109800500D01*
X37005130Y-109800500D01*
X37005138Y-109800500D01*
X37118552Y-109790417D01*
X37304406Y-109737237D01*
X37475751Y-109647734D01*
X37625571Y-109525571D01*
X37747734Y-109375751D01*
X37754442Y-109362910D01*
X37802928Y-109312602D01*
X37870915Y-109296494D01*
X37936819Y-109319700D01*
X37952032Y-109332639D01*
X38087636Y-109468243D01*
X38087641Y-109468247D01*
X38158461Y-109519700D01*
X38265978Y-109597815D01*
X38363949Y-109647734D01*
X38462393Y-109697895D01*
X38462396Y-109697896D01*
X38547573Y-109725571D01*
X38672049Y-109766015D01*
X38889778Y-109800500D01*
X38889779Y-109800500D01*
X39110221Y-109800500D01*
X39110222Y-109800500D01*
X39327951Y-109766015D01*
X39537606Y-109697895D01*
X39734022Y-109597815D01*
X39912365Y-109468242D01*
X40068242Y-109312365D01*
X40149682Y-109200270D01*
X40205011Y-109157606D01*
X40274624Y-109151627D01*
X40336420Y-109184232D01*
X40350313Y-109200265D01*
X40431753Y-109312358D01*
X40431758Y-109312365D01*
X40587636Y-109468243D01*
X40587641Y-109468247D01*
X40658461Y-109519700D01*
X40765978Y-109597815D01*
X40863949Y-109647734D01*
X40962393Y-109697895D01*
X40962396Y-109697896D01*
X41047573Y-109725571D01*
X41172049Y-109766015D01*
X41389778Y-109800500D01*
X41389779Y-109800500D01*
X41610221Y-109800500D01*
X41610222Y-109800500D01*
X41827951Y-109766015D01*
X42037606Y-109697895D01*
X42234022Y-109597815D01*
X42412365Y-109468242D01*
X42568242Y-109312365D01*
X42697815Y-109134022D01*
X42797895Y-108937606D01*
X42866015Y-108727951D01*
X42900500Y-108510222D01*
X42900500Y-108497648D01*
X54699500Y-108497648D01*
X54699500Y-108702351D01*
X54731522Y-108904534D01*
X54794781Y-109099223D01*
X54855581Y-109218548D01*
X54875482Y-109257606D01*
X54887715Y-109281613D01*
X55008028Y-109447213D01*
X55152786Y-109591971D01*
X55298467Y-109697812D01*
X55318390Y-109712287D01*
X55387959Y-109747734D01*
X55500776Y-109805218D01*
X55500778Y-109805218D01*
X55500781Y-109805220D01*
X55599319Y-109837237D01*
X55695465Y-109868477D01*
X55796557Y-109884488D01*
X55897648Y-109900500D01*
X55897649Y-109900500D01*
X56102351Y-109900500D01*
X56102352Y-109900500D01*
X56304534Y-109868477D01*
X56499219Y-109805220D01*
X56681610Y-109712287D01*
X56774590Y-109644732D01*
X56847213Y-109591971D01*
X56847215Y-109591968D01*
X56847219Y-109591966D01*
X56991966Y-109447219D01*
X56991968Y-109447215D01*
X56991971Y-109447213D01*
X57044732Y-109374590D01*
X57112287Y-109281610D01*
X57205220Y-109099219D01*
X57268477Y-108904534D01*
X57300500Y-108702352D01*
X57300500Y-108497648D01*
X57268477Y-108295465D01*
X57205218Y-108100776D01*
X57144418Y-107981451D01*
X57112287Y-107918390D01*
X57095193Y-107894862D01*
X56991971Y-107752786D01*
X56847213Y-107608028D01*
X56681613Y-107487715D01*
X56681612Y-107487714D01*
X56681610Y-107487713D01*
X56615423Y-107453989D01*
X56499223Y-107394781D01*
X56304534Y-107331522D01*
X56119304Y-107302185D01*
X56102352Y-107299500D01*
X55897648Y-107299500D01*
X55880696Y-107302185D01*
X55695465Y-107331522D01*
X55500776Y-107394781D01*
X55318386Y-107487715D01*
X55152786Y-107608028D01*
X55008028Y-107752786D01*
X54887715Y-107918386D01*
X54794781Y-108100776D01*
X54731522Y-108295465D01*
X54699500Y-108497648D01*
X42900500Y-108497648D01*
X42900500Y-108289778D01*
X42866015Y-108072049D01*
X42808445Y-107894863D01*
X42797896Y-107862396D01*
X42797895Y-107862393D01*
X42756652Y-107781451D01*
X42697815Y-107665978D01*
X42676828Y-107637092D01*
X42568247Y-107487641D01*
X42568243Y-107487636D01*
X42412365Y-107331758D01*
X42412040Y-107331522D01*
X42300270Y-107250317D01*
X42257606Y-107194989D01*
X42251627Y-107125376D01*
X42284232Y-107063580D01*
X42300265Y-107049686D01*
X42412365Y-106968242D01*
X42568242Y-106812365D01*
X42697815Y-106634022D01*
X42797895Y-106437606D01*
X42866015Y-106227951D01*
X42900500Y-106010222D01*
X42900500Y-105789778D01*
X42866015Y-105572049D01*
X42799845Y-105368395D01*
X42797896Y-105362396D01*
X42797895Y-105362393D01*
X42763237Y-105294375D01*
X42697815Y-105165978D01*
X42612988Y-105049223D01*
X42568247Y-104987641D01*
X42568243Y-104987636D01*
X42412363Y-104831756D01*
X42412358Y-104831752D01*
X42234025Y-104702187D01*
X42234024Y-104702186D01*
X42234022Y-104702185D01*
X42171096Y-104670122D01*
X42037606Y-104602104D01*
X42037603Y-104602103D01*
X41827952Y-104533985D01*
X41719086Y-104516742D01*
X41610222Y-104499500D01*
X41389778Y-104499500D01*
X41317201Y-104510995D01*
X41172047Y-104533985D01*
X40962396Y-104602103D01*
X40962393Y-104602104D01*
X40765974Y-104702187D01*
X40587641Y-104831752D01*
X40587636Y-104831756D01*
X40431756Y-104987636D01*
X40431752Y-104987641D01*
X40350318Y-105099727D01*
X40294989Y-105142393D01*
X40225375Y-105148372D01*
X40163580Y-105115767D01*
X40149682Y-105099727D01*
X40068247Y-104987641D01*
X40068243Y-104987636D01*
X39912363Y-104831756D01*
X39912358Y-104831752D01*
X39734025Y-104702187D01*
X39734024Y-104702186D01*
X39734022Y-104702185D01*
X39671096Y-104670122D01*
X39537606Y-104602104D01*
X39537603Y-104602103D01*
X39327952Y-104533985D01*
X39219086Y-104516742D01*
X39110222Y-104499500D01*
X38889778Y-104499500D01*
X38817201Y-104510995D01*
X38672047Y-104533985D01*
X38462396Y-104602103D01*
X38462393Y-104602104D01*
X38265974Y-104702187D01*
X38087641Y-104831752D01*
X38087636Y-104831756D01*
X37931756Y-104987636D01*
X37931752Y-104987641D01*
X37850318Y-105099727D01*
X37794989Y-105142393D01*
X37725375Y-105148372D01*
X37663580Y-105115767D01*
X37649682Y-105099727D01*
X37568247Y-104987641D01*
X37568243Y-104987636D01*
X37412363Y-104831756D01*
X37412358Y-104831752D01*
X37234025Y-104702187D01*
X37234024Y-104702186D01*
X37234022Y-104702185D01*
X37171096Y-104670122D01*
X37037606Y-104602104D01*
X37037603Y-104602103D01*
X36827952Y-104533985D01*
X36719086Y-104516742D01*
X36610222Y-104499500D01*
X36389778Y-104499500D01*
X36317201Y-104510995D01*
X36172047Y-104533985D01*
X35962396Y-104602103D01*
X35962393Y-104602104D01*
X35765974Y-104702187D01*
X35587641Y-104831752D01*
X35587636Y-104831756D01*
X35431756Y-104987636D01*
X35431752Y-104987641D01*
X35302187Y-105165974D01*
X35202104Y-105362393D01*
X35202103Y-105362396D01*
X35133985Y-105572047D01*
X35117771Y-105674420D01*
X35099500Y-105789778D01*
X29892860Y-105789778D01*
X29999219Y-105755220D01*
X30181610Y-105662287D01*
X30231144Y-105626298D01*
X30347213Y-105541971D01*
X30347215Y-105541968D01*
X30347219Y-105541966D01*
X30491966Y-105397219D01*
X30491968Y-105397215D01*
X30491971Y-105397213D01*
X30551144Y-105315767D01*
X30612287Y-105231610D01*
X30705220Y-105049219D01*
X30768477Y-104854534D01*
X30800500Y-104652352D01*
X30800500Y-104447648D01*
X30768477Y-104245466D01*
X30705220Y-104050781D01*
X30705218Y-104050778D01*
X30705218Y-104050776D01*
X30630703Y-103904534D01*
X30612287Y-103868390D01*
X30565347Y-103803782D01*
X30491971Y-103702786D01*
X30347213Y-103558028D01*
X30264105Y-103497648D01*
X54699500Y-103497648D01*
X54699500Y-103702351D01*
X54731522Y-103904534D01*
X54794781Y-104099223D01*
X54887715Y-104281613D01*
X55008028Y-104447213D01*
X55152786Y-104591971D01*
X55293927Y-104694514D01*
X55318390Y-104712287D01*
X55434607Y-104771503D01*
X55500776Y-104805218D01*
X55500778Y-104805218D01*
X55500781Y-104805220D01*
X55582457Y-104831758D01*
X55695465Y-104868477D01*
X55779564Y-104881797D01*
X55897648Y-104900500D01*
X55897649Y-104900500D01*
X56102350Y-104900500D01*
X56102352Y-104900500D01*
X56158026Y-104891681D01*
X56227318Y-104900635D01*
X56265105Y-104926473D01*
X59279895Y-107941263D01*
X59313380Y-108002586D01*
X59308396Y-108072278D01*
X59302700Y-108085237D01*
X59294778Y-108100784D01*
X59231523Y-108295461D01*
X59231523Y-108295464D01*
X59199500Y-108497648D01*
X59199500Y-108702351D01*
X59231522Y-108904534D01*
X59294781Y-109099223D01*
X59355581Y-109218548D01*
X59375482Y-109257606D01*
X59387715Y-109281613D01*
X59508028Y-109447213D01*
X59652786Y-109591971D01*
X59798467Y-109697812D01*
X59818390Y-109712287D01*
X59887959Y-109747734D01*
X60000776Y-109805218D01*
X60000778Y-109805218D01*
X60000781Y-109805220D01*
X60099319Y-109837237D01*
X60195465Y-109868477D01*
X60296557Y-109884488D01*
X60397648Y-109900500D01*
X60397649Y-109900500D01*
X60602351Y-109900500D01*
X60602352Y-109900500D01*
X60804534Y-109868477D01*
X60999219Y-109805220D01*
X61181610Y-109712287D01*
X61274590Y-109644732D01*
X61347213Y-109591971D01*
X61347215Y-109591968D01*
X61347219Y-109591966D01*
X61491966Y-109447219D01*
X61491968Y-109447215D01*
X61491971Y-109447213D01*
X61544732Y-109374590D01*
X61612287Y-109281610D01*
X61705220Y-109099219D01*
X61768477Y-108904534D01*
X61800500Y-108702352D01*
X61800500Y-108497648D01*
X61768477Y-108295465D01*
X61705218Y-108100776D01*
X61644418Y-107981451D01*
X61612287Y-107918390D01*
X61595193Y-107894862D01*
X61491971Y-107752786D01*
X61347213Y-107608028D01*
X61181613Y-107487715D01*
X61181612Y-107487714D01*
X61181610Y-107487713D01*
X60999219Y-107394780D01*
X60889705Y-107359197D01*
X60815599Y-107335118D01*
X60766236Y-107304868D01*
X59451146Y-105989778D01*
X65099500Y-105989778D01*
X65099500Y-106210221D01*
X65133985Y-106427952D01*
X65202103Y-106637603D01*
X65202104Y-106637606D01*
X65225862Y-106684232D01*
X65284988Y-106800272D01*
X65302187Y-106834025D01*
X65431752Y-107012358D01*
X65431756Y-107012363D01*
X65567360Y-107147967D01*
X65600845Y-107209290D01*
X65595861Y-107278982D01*
X65553989Y-107334915D01*
X65537097Y-107345554D01*
X65524249Y-107352265D01*
X65374428Y-107474428D01*
X65252265Y-107624250D01*
X65162762Y-107795594D01*
X65109582Y-107981451D01*
X65099500Y-108094863D01*
X65099500Y-109105136D01*
X65109582Y-109218548D01*
X65162762Y-109404405D01*
X65219152Y-109512358D01*
X65252266Y-109575751D01*
X65265488Y-109591966D01*
X65374428Y-109725571D01*
X65424028Y-109766014D01*
X65524249Y-109847734D01*
X65695594Y-109937237D01*
X65881448Y-109990417D01*
X65994862Y-110000500D01*
X65994870Y-110000500D01*
X67005130Y-110000500D01*
X67005138Y-110000500D01*
X67118552Y-109990417D01*
X67304406Y-109937237D01*
X67475751Y-109847734D01*
X67625571Y-109725571D01*
X67747734Y-109575751D01*
X67751656Y-109568243D01*
X67754442Y-109562910D01*
X67802928Y-109512602D01*
X67870915Y-109496494D01*
X67936819Y-109519700D01*
X67952032Y-109532639D01*
X68087636Y-109668243D01*
X68087641Y-109668247D01*
X68148258Y-109712287D01*
X68265978Y-109797815D01*
X68363949Y-109847734D01*
X68462393Y-109897895D01*
X68462396Y-109897896D01*
X68567058Y-109931902D01*
X68672049Y-109966015D01*
X68889778Y-110000500D01*
X68889779Y-110000500D01*
X69110221Y-110000500D01*
X69110222Y-110000500D01*
X69327951Y-109966015D01*
X69537606Y-109897895D01*
X69734022Y-109797815D01*
X69912365Y-109668242D01*
X70068242Y-109512365D01*
X70149682Y-109400270D01*
X70205011Y-109357606D01*
X70274624Y-109351627D01*
X70336420Y-109384232D01*
X70350313Y-109400265D01*
X70405155Y-109475749D01*
X70431758Y-109512365D01*
X70587636Y-109668243D01*
X70587641Y-109668247D01*
X70648258Y-109712287D01*
X70765978Y-109797815D01*
X70863949Y-109847734D01*
X70962393Y-109897895D01*
X70962396Y-109897896D01*
X71067058Y-109931902D01*
X71172049Y-109966015D01*
X71389778Y-110000500D01*
X71389779Y-110000500D01*
X71610221Y-110000500D01*
X71610222Y-110000500D01*
X71827951Y-109966015D01*
X71932942Y-109931902D01*
X78499500Y-109931902D01*
X78499500Y-110168097D01*
X78536446Y-110401368D01*
X78609433Y-110625996D01*
X78716657Y-110836433D01*
X78855483Y-111027510D01*
X79022490Y-111194517D01*
X79213567Y-111333343D01*
X79312991Y-111384002D01*
X79424003Y-111440566D01*
X79424005Y-111440566D01*
X79424008Y-111440568D01*
X79544412Y-111479689D01*
X79648631Y-111513553D01*
X79881903Y-111550500D01*
X79881908Y-111550500D01*
X80118097Y-111550500D01*
X80351368Y-111513553D01*
X80575992Y-111440568D01*
X80786433Y-111333343D01*
X80977510Y-111194517D01*
X81144517Y-111027510D01*
X81283343Y-110836433D01*
X81390568Y-110625992D01*
X81463553Y-110401368D01*
X81500500Y-110168097D01*
X81500500Y-109931902D01*
X86499500Y-109931902D01*
X86499500Y-110168097D01*
X86536446Y-110401368D01*
X86609433Y-110625996D01*
X86716657Y-110836433D01*
X86855483Y-111027510D01*
X87022490Y-111194517D01*
X87213567Y-111333343D01*
X87312991Y-111384002D01*
X87424003Y-111440566D01*
X87424005Y-111440566D01*
X87424008Y-111440568D01*
X87544412Y-111479689D01*
X87648631Y-111513553D01*
X87881903Y-111550500D01*
X87881908Y-111550500D01*
X88118097Y-111550500D01*
X88351368Y-111513553D01*
X88575992Y-111440568D01*
X88786433Y-111333343D01*
X88977510Y-111194517D01*
X89144517Y-111027510D01*
X89283343Y-110836433D01*
X89390568Y-110625992D01*
X89463553Y-110401368D01*
X89500500Y-110168097D01*
X89500500Y-109931902D01*
X89463553Y-109698631D01*
X89403030Y-109512363D01*
X89390568Y-109474008D01*
X89390566Y-109474005D01*
X89390566Y-109474003D01*
X89319243Y-109334025D01*
X89283343Y-109263567D01*
X89144517Y-109072490D01*
X88977510Y-108905483D01*
X88786433Y-108766657D01*
X88575996Y-108659433D01*
X88351368Y-108586446D01*
X88118097Y-108549500D01*
X88118092Y-108549500D01*
X87881908Y-108549500D01*
X87881903Y-108549500D01*
X87648631Y-108586446D01*
X87424003Y-108659433D01*
X87213566Y-108766657D01*
X87129203Y-108827951D01*
X87022490Y-108905483D01*
X87022488Y-108905485D01*
X87022487Y-108905485D01*
X86855485Y-109072487D01*
X86855485Y-109072488D01*
X86855483Y-109072490D01*
X86808173Y-109137606D01*
X86716657Y-109263566D01*
X86609433Y-109474003D01*
X86536446Y-109698631D01*
X86499500Y-109931902D01*
X81500500Y-109931902D01*
X81463553Y-109698631D01*
X81403030Y-109512363D01*
X81390568Y-109474008D01*
X81390566Y-109474005D01*
X81390566Y-109474003D01*
X81319243Y-109334025D01*
X81283343Y-109263567D01*
X81144517Y-109072490D01*
X80977510Y-108905483D01*
X80786433Y-108766657D01*
X80575996Y-108659433D01*
X80351368Y-108586446D01*
X80118097Y-108549500D01*
X80118092Y-108549500D01*
X79881908Y-108549500D01*
X79881903Y-108549500D01*
X79648631Y-108586446D01*
X79424003Y-108659433D01*
X79213566Y-108766657D01*
X79129203Y-108827951D01*
X79022490Y-108905483D01*
X79022488Y-108905485D01*
X79022487Y-108905485D01*
X78855485Y-109072487D01*
X78855485Y-109072488D01*
X78855483Y-109072490D01*
X78808173Y-109137606D01*
X78716657Y-109263566D01*
X78609433Y-109474003D01*
X78536446Y-109698631D01*
X78499500Y-109931902D01*
X71932942Y-109931902D01*
X72037606Y-109897895D01*
X72052282Y-109890417D01*
X72197251Y-109816551D01*
X72197251Y-109816550D01*
X72234022Y-109797815D01*
X72412365Y-109668242D01*
X72568242Y-109512365D01*
X72697815Y-109334022D01*
X72797895Y-109137606D01*
X72799060Y-109134022D01*
X72810366Y-109099223D01*
X72866015Y-108927951D01*
X72900500Y-108710222D01*
X72900500Y-108489778D01*
X72866015Y-108272049D01*
X72831955Y-108167221D01*
X72797896Y-108062396D01*
X72797895Y-108062393D01*
X72756652Y-107981451D01*
X72697815Y-107865978D01*
X72649681Y-107799727D01*
X72568247Y-107687641D01*
X72568243Y-107687636D01*
X72412365Y-107531758D01*
X72402030Y-107524249D01*
X72300270Y-107450317D01*
X72257606Y-107394989D01*
X72251627Y-107325376D01*
X72284232Y-107263580D01*
X72300265Y-107249686D01*
X72412365Y-107168242D01*
X72568242Y-107012365D01*
X72697815Y-106834022D01*
X72797895Y-106637606D01*
X72799060Y-106634022D01*
X72830387Y-106537603D01*
X72866015Y-106427951D01*
X72900500Y-106210222D01*
X72900500Y-105989778D01*
X72884662Y-105889778D01*
X94199500Y-105889778D01*
X94199500Y-106110222D01*
X94216742Y-106219086D01*
X94233985Y-106327952D01*
X94302103Y-106537603D01*
X94302104Y-106537606D01*
X94353058Y-106637606D01*
X94384988Y-106700272D01*
X94402187Y-106734025D01*
X94531752Y-106912358D01*
X94531756Y-106912363D01*
X94667360Y-107047967D01*
X94700845Y-107109290D01*
X94695861Y-107178982D01*
X94653989Y-107234915D01*
X94637097Y-107245554D01*
X94624249Y-107252265D01*
X94474428Y-107374428D01*
X94352265Y-107524250D01*
X94262762Y-107695594D01*
X94209582Y-107881451D01*
X94199500Y-107994863D01*
X94199500Y-109005136D01*
X94209582Y-109118548D01*
X94262762Y-109304405D01*
X94319152Y-109412358D01*
X94352266Y-109475751D01*
X94382121Y-109512365D01*
X94474428Y-109625571D01*
X94549339Y-109686652D01*
X94624249Y-109747734D01*
X94795594Y-109837237D01*
X94981448Y-109890417D01*
X95094862Y-109900500D01*
X95094870Y-109900500D01*
X96105130Y-109900500D01*
X96105138Y-109900500D01*
X96218552Y-109890417D01*
X96404406Y-109837237D01*
X96575751Y-109747734D01*
X96725571Y-109625571D01*
X96847734Y-109475751D01*
X96847736Y-109475748D01*
X96854442Y-109462910D01*
X96902928Y-109412602D01*
X96970915Y-109396494D01*
X97036819Y-109419700D01*
X97052032Y-109432639D01*
X97187636Y-109568243D01*
X97187641Y-109568247D01*
X97266542Y-109625571D01*
X97365978Y-109697815D01*
X97463949Y-109747734D01*
X97562393Y-109797895D01*
X97562396Y-109797896D01*
X97584938Y-109805220D01*
X97772049Y-109866015D01*
X97989778Y-109900500D01*
X97989779Y-109900500D01*
X98210221Y-109900500D01*
X98210222Y-109900500D01*
X98427951Y-109866015D01*
X98637606Y-109797895D01*
X98834022Y-109697815D01*
X99012365Y-109568242D01*
X99168242Y-109412365D01*
X99249682Y-109300270D01*
X99305011Y-109257606D01*
X99374624Y-109251627D01*
X99436420Y-109284232D01*
X99450313Y-109300265D01*
X99531753Y-109412358D01*
X99531758Y-109412365D01*
X99687636Y-109568243D01*
X99687641Y-109568247D01*
X99766542Y-109625571D01*
X99865978Y-109697815D01*
X99963949Y-109747734D01*
X100062393Y-109797895D01*
X100062396Y-109797896D01*
X100084938Y-109805220D01*
X100272049Y-109866015D01*
X100489778Y-109900500D01*
X100489779Y-109900500D01*
X100710221Y-109900500D01*
X100710222Y-109900500D01*
X100927951Y-109866015D01*
X101137606Y-109797895D01*
X101334022Y-109697815D01*
X101512365Y-109568242D01*
X101668242Y-109412365D01*
X101797815Y-109234022D01*
X101897895Y-109037606D01*
X101966015Y-108827951D01*
X102000500Y-108610222D01*
X102000500Y-108389778D01*
X101966015Y-108172049D01*
X101908445Y-107994863D01*
X101897896Y-107962396D01*
X101897895Y-107962393D01*
X101856652Y-107881451D01*
X101797815Y-107765978D01*
X101758218Y-107711477D01*
X101668247Y-107587641D01*
X101668243Y-107587636D01*
X101512365Y-107431758D01*
X101471661Y-107402185D01*
X101400270Y-107350317D01*
X101357606Y-107294989D01*
X101351627Y-107225376D01*
X101384232Y-107163580D01*
X101400265Y-107149686D01*
X101512365Y-107068242D01*
X101668242Y-106912365D01*
X101797815Y-106734022D01*
X101897895Y-106537606D01*
X101966015Y-106327951D01*
X102000500Y-106110222D01*
X102000500Y-105889778D01*
X101966015Y-105672049D01*
X101897895Y-105462394D01*
X101897895Y-105462393D01*
X101863237Y-105394375D01*
X101797815Y-105265978D01*
X101725161Y-105165978D01*
X101668247Y-105087641D01*
X101668243Y-105087636D01*
X101512363Y-104931756D01*
X101512358Y-104931752D01*
X101334025Y-104802187D01*
X101334024Y-104802186D01*
X101334022Y-104802185D01*
X101271096Y-104770122D01*
X101137606Y-104702104D01*
X101137603Y-104702103D01*
X100927952Y-104633985D01*
X100819086Y-104616742D01*
X100710222Y-104599500D01*
X100489778Y-104599500D01*
X100417201Y-104610995D01*
X100272047Y-104633985D01*
X100062396Y-104702103D01*
X100062393Y-104702104D01*
X99865974Y-104802187D01*
X99687641Y-104931752D01*
X99687636Y-104931756D01*
X99531756Y-105087636D01*
X99531752Y-105087641D01*
X99450318Y-105199727D01*
X99394989Y-105242393D01*
X99325375Y-105248372D01*
X99263580Y-105215767D01*
X99249682Y-105199727D01*
X99168247Y-105087641D01*
X99168243Y-105087636D01*
X99012363Y-104931756D01*
X99012358Y-104931752D01*
X98834025Y-104802187D01*
X98834024Y-104802186D01*
X98834022Y-104802185D01*
X98771096Y-104770122D01*
X98637606Y-104702104D01*
X98637603Y-104702103D01*
X98427952Y-104633985D01*
X98319086Y-104616742D01*
X98210222Y-104599500D01*
X97989778Y-104599500D01*
X97917201Y-104610995D01*
X97772047Y-104633985D01*
X97562396Y-104702103D01*
X97562393Y-104702104D01*
X97365974Y-104802187D01*
X97187641Y-104931752D01*
X97187636Y-104931756D01*
X97031756Y-105087636D01*
X97031752Y-105087641D01*
X96950318Y-105199727D01*
X96894989Y-105242393D01*
X96825375Y-105248372D01*
X96763580Y-105215767D01*
X96749682Y-105199727D01*
X96668247Y-105087641D01*
X96668243Y-105087636D01*
X96512363Y-104931756D01*
X96512358Y-104931752D01*
X96334025Y-104802187D01*
X96334024Y-104802186D01*
X96334022Y-104802185D01*
X96271096Y-104770122D01*
X96137606Y-104702104D01*
X96137603Y-104702103D01*
X95927952Y-104633985D01*
X95819086Y-104616742D01*
X95710222Y-104599500D01*
X95489778Y-104599500D01*
X95417201Y-104610995D01*
X95272047Y-104633985D01*
X95062396Y-104702103D01*
X95062393Y-104702104D01*
X94865974Y-104802187D01*
X94687641Y-104931752D01*
X94687636Y-104931756D01*
X94531756Y-105087636D01*
X94531752Y-105087641D01*
X94402187Y-105265974D01*
X94302104Y-105462393D01*
X94302103Y-105462396D01*
X94233985Y-105672047D01*
X94215338Y-105789778D01*
X94199500Y-105889778D01*
X72884662Y-105889778D01*
X72866015Y-105772049D01*
X72801032Y-105572049D01*
X72797896Y-105562396D01*
X72797895Y-105562393D01*
X72763237Y-105494375D01*
X72697815Y-105365978D01*
X72649681Y-105299727D01*
X72568247Y-105187641D01*
X72568243Y-105187636D01*
X72412363Y-105031756D01*
X72412358Y-105031752D01*
X72234025Y-104902187D01*
X72234024Y-104902186D01*
X72234022Y-104902185D01*
X72140503Y-104854534D01*
X72037606Y-104802104D01*
X72037603Y-104802103D01*
X71827952Y-104733985D01*
X71719086Y-104716742D01*
X71610222Y-104699500D01*
X71389778Y-104699500D01*
X71317201Y-104710995D01*
X71172047Y-104733985D01*
X70962396Y-104802103D01*
X70962393Y-104802104D01*
X70765974Y-104902187D01*
X70587641Y-105031752D01*
X70587636Y-105031756D01*
X70431756Y-105187636D01*
X70431752Y-105187641D01*
X70350318Y-105299727D01*
X70294989Y-105342393D01*
X70225375Y-105348372D01*
X70163580Y-105315767D01*
X70149682Y-105299727D01*
X70068247Y-105187641D01*
X70068243Y-105187636D01*
X69912363Y-105031756D01*
X69912358Y-105031752D01*
X69734025Y-104902187D01*
X69734024Y-104902186D01*
X69734022Y-104902185D01*
X69640503Y-104854534D01*
X69537606Y-104802104D01*
X69537603Y-104802103D01*
X69327952Y-104733985D01*
X69219086Y-104716742D01*
X69110222Y-104699500D01*
X68889778Y-104699500D01*
X68817201Y-104710995D01*
X68672047Y-104733985D01*
X68462396Y-104802103D01*
X68462393Y-104802104D01*
X68265974Y-104902187D01*
X68087641Y-105031752D01*
X68087636Y-105031756D01*
X67931756Y-105187636D01*
X67931752Y-105187641D01*
X67850318Y-105299727D01*
X67794989Y-105342393D01*
X67725375Y-105348372D01*
X67663580Y-105315767D01*
X67649682Y-105299727D01*
X67568247Y-105187641D01*
X67568243Y-105187636D01*
X67412363Y-105031756D01*
X67412358Y-105031752D01*
X67234025Y-104902187D01*
X67234024Y-104902186D01*
X67234022Y-104902185D01*
X67140503Y-104854534D01*
X67037606Y-104802104D01*
X67037603Y-104802103D01*
X66827952Y-104733985D01*
X66719086Y-104716742D01*
X66610222Y-104699500D01*
X66389778Y-104699500D01*
X66317201Y-104710995D01*
X66172047Y-104733985D01*
X65962396Y-104802103D01*
X65962393Y-104802104D01*
X65765974Y-104902187D01*
X65587641Y-105031752D01*
X65587636Y-105031756D01*
X65431756Y-105187636D01*
X65431752Y-105187641D01*
X65302187Y-105365974D01*
X65202104Y-105562393D01*
X65202103Y-105562396D01*
X65133985Y-105772047D01*
X65099500Y-105989778D01*
X59451146Y-105989778D01*
X57326473Y-103865105D01*
X57292988Y-103803782D01*
X57291681Y-103758027D01*
X57300500Y-103702352D01*
X57300500Y-103497648D01*
X57268477Y-103295466D01*
X57263946Y-103281522D01*
X57205218Y-103100776D01*
X57171503Y-103034607D01*
X57112287Y-102918390D01*
X57104556Y-102907749D01*
X56991971Y-102752786D01*
X56847213Y-102608028D01*
X56681613Y-102487715D01*
X56681612Y-102487714D01*
X56681610Y-102487713D01*
X56624653Y-102458691D01*
X56499223Y-102394781D01*
X56304534Y-102331522D01*
X56129995Y-102303878D01*
X56102352Y-102299500D01*
X55897648Y-102299500D01*
X55873329Y-102303351D01*
X55695465Y-102331522D01*
X55500776Y-102394781D01*
X55318386Y-102487715D01*
X55152786Y-102608028D01*
X55008028Y-102752786D01*
X54887715Y-102918386D01*
X54794781Y-103100776D01*
X54731522Y-103295465D01*
X54699500Y-103497648D01*
X30264105Y-103497648D01*
X30181613Y-103437715D01*
X30181612Y-103437714D01*
X30181610Y-103437713D01*
X30124653Y-103408691D01*
X29999223Y-103344781D01*
X29804534Y-103281522D01*
X29629995Y-103253878D01*
X29602352Y-103249500D01*
X29397648Y-103249500D01*
X29373329Y-103253351D01*
X29195465Y-103281522D01*
X29000776Y-103344781D01*
X28818386Y-103437715D01*
X28652786Y-103558028D01*
X28508028Y-103702786D01*
X28387715Y-103868386D01*
X28294781Y-104050776D01*
X28231522Y-104245465D01*
X28199500Y-104447648D01*
X24300500Y-104447648D01*
X24268477Y-104245466D01*
X24205220Y-104050781D01*
X24205218Y-104050778D01*
X24205218Y-104050776D01*
X24130703Y-103904534D01*
X24112287Y-103868390D01*
X24065347Y-103803782D01*
X23991971Y-103702786D01*
X23847213Y-103558028D01*
X23681613Y-103437715D01*
X23681612Y-103437714D01*
X23681610Y-103437713D01*
X23624653Y-103408691D01*
X23499223Y-103344781D01*
X23304534Y-103281522D01*
X23129995Y-103253878D01*
X23102352Y-103249500D01*
X22897648Y-103249500D01*
X22873329Y-103253351D01*
X22695465Y-103281522D01*
X22500776Y-103344781D01*
X22318386Y-103437715D01*
X22152786Y-103558028D01*
X22008028Y-103702786D01*
X21887715Y-103868386D01*
X21794781Y-104050776D01*
X21731522Y-104245465D01*
X21699500Y-104447648D01*
X17999035Y-104447648D01*
X17999035Y-104442767D01*
X17999389Y-99447648D01*
X21699500Y-99447648D01*
X21699500Y-99652351D01*
X21731522Y-99854534D01*
X21794781Y-100049223D01*
X21887715Y-100231613D01*
X22008028Y-100397213D01*
X22152786Y-100541971D01*
X22307749Y-100654556D01*
X22318390Y-100662287D01*
X22397022Y-100702352D01*
X22500776Y-100755218D01*
X22500778Y-100755218D01*
X22500781Y-100755220D01*
X22605137Y-100789127D01*
X22695465Y-100818477D01*
X22796557Y-100834488D01*
X22897648Y-100850500D01*
X22897649Y-100850500D01*
X23102351Y-100850500D01*
X23102352Y-100850500D01*
X23304534Y-100818477D01*
X23499219Y-100755220D01*
X23681610Y-100662287D01*
X23774590Y-100594732D01*
X23847213Y-100541971D01*
X23847215Y-100541968D01*
X23847219Y-100541966D01*
X23991966Y-100397219D01*
X23991968Y-100397215D01*
X23991971Y-100397213D01*
X24065894Y-100295465D01*
X24112287Y-100231610D01*
X24205220Y-100049219D01*
X24268477Y-99854534D01*
X24300500Y-99652352D01*
X24300500Y-99447648D01*
X24297153Y-99426515D01*
X24268477Y-99245465D01*
X24229659Y-99125996D01*
X24205220Y-99050781D01*
X24205218Y-99050778D01*
X24205218Y-99050776D01*
X24171503Y-98984607D01*
X24112287Y-98868390D01*
X24104556Y-98857749D01*
X23991971Y-98702786D01*
X23847213Y-98558028D01*
X23681613Y-98437715D01*
X23681612Y-98437714D01*
X23681610Y-98437713D01*
X23624653Y-98408691D01*
X23499223Y-98344781D01*
X23304534Y-98281522D01*
X23129995Y-98253878D01*
X23102352Y-98249500D01*
X22897648Y-98249500D01*
X22873329Y-98253351D01*
X22695465Y-98281522D01*
X22500776Y-98344781D01*
X22318386Y-98437715D01*
X22152786Y-98558028D01*
X22008028Y-98702786D01*
X21887715Y-98868386D01*
X21794781Y-99050776D01*
X21731522Y-99245465D01*
X21699500Y-99447648D01*
X17999389Y-99447648D01*
X17999389Y-99442767D01*
X18000509Y-83661534D01*
X18001019Y-76474983D01*
X21119500Y-76474983D01*
X21119500Y-78675001D01*
X21119501Y-78675018D01*
X21130000Y-78777796D01*
X21130001Y-78777799D01*
X21155945Y-78856092D01*
X21185186Y-78944334D01*
X21277288Y-79093656D01*
X21401344Y-79217712D01*
X21550666Y-79309814D01*
X21717203Y-79364999D01*
X21819991Y-79375500D01*
X22045500Y-79375499D01*
X22112539Y-79395183D01*
X22158294Y-79447987D01*
X22169500Y-79499499D01*
X22169500Y-87818918D01*
X22169500Y-87818920D01*
X22169499Y-87818920D01*
X22198340Y-87963907D01*
X22198343Y-87963917D01*
X22254913Y-88100490D01*
X22254914Y-88100491D01*
X22254916Y-88100495D01*
X22261210Y-88109914D01*
X22261211Y-88109917D01*
X22337046Y-88223414D01*
X22337052Y-88223421D01*
X28284084Y-94170452D01*
X28284086Y-94170454D01*
X28321300Y-94195318D01*
X28330576Y-94201516D01*
X28407005Y-94252584D01*
X28463580Y-94276018D01*
X28543588Y-94309159D01*
X28633981Y-94327139D01*
X28688582Y-94338000D01*
X28688583Y-94338000D01*
X28690051Y-94338292D01*
X28715721Y-94351721D01*
X28751960Y-94370677D01*
X28753538Y-94372228D01*
X28793629Y-94412319D01*
X28827114Y-94473642D01*
X28822130Y-94543334D01*
X28793629Y-94587681D01*
X28679661Y-94701648D01*
X28589093Y-94848481D01*
X28589091Y-94848486D01*
X28572523Y-94898486D01*
X28534826Y-95012247D01*
X28534826Y-95012248D01*
X28534825Y-95012248D01*
X28524500Y-95113315D01*
X28524500Y-95711669D01*
X28524501Y-95711687D01*
X28534825Y-95812752D01*
X28589092Y-95976515D01*
X28589093Y-95976518D01*
X28679661Y-96123351D01*
X28713181Y-96156871D01*
X28746666Y-96218194D01*
X28749500Y-96244552D01*
X28749500Y-98424582D01*
X28729815Y-98491621D01*
X28698385Y-98524900D01*
X28652787Y-98558028D01*
X28652782Y-98558032D01*
X28508028Y-98702786D01*
X28387715Y-98868386D01*
X28294781Y-99050776D01*
X28231522Y-99245465D01*
X28199500Y-99447648D01*
X28199500Y-99652351D01*
X28231522Y-99854534D01*
X28294781Y-100049223D01*
X28387715Y-100231613D01*
X28508028Y-100397213D01*
X28652786Y-100541971D01*
X28807749Y-100654556D01*
X28818390Y-100662287D01*
X28897022Y-100702352D01*
X29000776Y-100755218D01*
X29000778Y-100755218D01*
X29000781Y-100755220D01*
X29105137Y-100789127D01*
X29195465Y-100818477D01*
X29296557Y-100834488D01*
X29397648Y-100850500D01*
X29397649Y-100850500D01*
X29602351Y-100850500D01*
X29602352Y-100850500D01*
X29804534Y-100818477D01*
X29999219Y-100755220D01*
X30181610Y-100662287D01*
X30274590Y-100594732D01*
X30347213Y-100541971D01*
X30347215Y-100541968D01*
X30347219Y-100541966D01*
X30491966Y-100397219D01*
X30491968Y-100397215D01*
X30491971Y-100397213D01*
X30565894Y-100295465D01*
X30612287Y-100231610D01*
X30705220Y-100049219D01*
X30768477Y-99854534D01*
X30800500Y-99652352D01*
X30800500Y-99447648D01*
X30797153Y-99426515D01*
X30768477Y-99245465D01*
X30729659Y-99125996D01*
X30705220Y-99050781D01*
X30705218Y-99050778D01*
X30705218Y-99050776D01*
X30671503Y-98984607D01*
X30612287Y-98868390D01*
X30604556Y-98857749D01*
X30491971Y-98702786D01*
X30347217Y-98558032D01*
X30347212Y-98558028D01*
X30301615Y-98524900D01*
X30258949Y-98469571D01*
X30250500Y-98424582D01*
X30250500Y-96244552D01*
X30270185Y-96177513D01*
X30286819Y-96156871D01*
X30298225Y-96145465D01*
X30320340Y-96123350D01*
X30410908Y-95976516D01*
X30465174Y-95812753D01*
X30475500Y-95711677D01*
X30475499Y-95113324D01*
X30473969Y-95098350D01*
X30465174Y-95012247D01*
X30445050Y-94951518D01*
X30410908Y-94848484D01*
X30320340Y-94701650D01*
X30206371Y-94587681D01*
X30172886Y-94526358D01*
X30177870Y-94456666D01*
X30206371Y-94412319D01*
X30255939Y-94362751D01*
X30320340Y-94298350D01*
X30410908Y-94151516D01*
X30451746Y-94028272D01*
X30481769Y-93979597D01*
X33515295Y-90946070D01*
X33555519Y-90919193D01*
X33579179Y-90909394D01*
X33710289Y-90821789D01*
X33821789Y-90710289D01*
X33909394Y-90579179D01*
X33969737Y-90433497D01*
X34000500Y-90278842D01*
X34000500Y-90121158D01*
X34000500Y-90121155D01*
X33971167Y-89973692D01*
X33977394Y-89904100D01*
X34020257Y-89848923D01*
X34086146Y-89825678D01*
X34092784Y-89825500D01*
X34125500Y-89825500D01*
X34192539Y-89845185D01*
X34238294Y-89897989D01*
X34249500Y-89949500D01*
X34249500Y-92955448D01*
X34229815Y-93022487D01*
X34213181Y-93043129D01*
X34179661Y-93076648D01*
X34089093Y-93223481D01*
X34089091Y-93223486D01*
X34063571Y-93300500D01*
X34034826Y-93387247D01*
X34034826Y-93387248D01*
X34034825Y-93387248D01*
X34024500Y-93488315D01*
X34024500Y-94086669D01*
X34024501Y-94086687D01*
X34034825Y-94187752D01*
X34071109Y-94297249D01*
X34088043Y-94348351D01*
X34089092Y-94351515D01*
X34089093Y-94351518D01*
X34101867Y-94372228D01*
X34162383Y-94470340D01*
X34179661Y-94498351D01*
X34293629Y-94612319D01*
X34327114Y-94673642D01*
X34322130Y-94743334D01*
X34293629Y-94787681D01*
X34179661Y-94901648D01*
X34089093Y-95048481D01*
X34089091Y-95048486D01*
X34067610Y-95113312D01*
X34034826Y-95212247D01*
X34034826Y-95212248D01*
X34034825Y-95212248D01*
X34024500Y-95313315D01*
X34024500Y-95911669D01*
X34024501Y-95911687D01*
X34034825Y-96012752D01*
X34039387Y-96026518D01*
X34088043Y-96173351D01*
X34089092Y-96176515D01*
X34089093Y-96176518D01*
X34106937Y-96205448D01*
X34161897Y-96294552D01*
X34179661Y-96323351D01*
X34213181Y-96356871D01*
X34246666Y-96418194D01*
X34249500Y-96444552D01*
X34249500Y-99424582D01*
X34229815Y-99491621D01*
X34198385Y-99524900D01*
X34152787Y-99558028D01*
X34152782Y-99558032D01*
X34008028Y-99702786D01*
X33887715Y-99868386D01*
X33794781Y-100050776D01*
X33731522Y-100245465D01*
X33699500Y-100447648D01*
X33699500Y-100652351D01*
X33731522Y-100854534D01*
X33794781Y-101049223D01*
X33887715Y-101231613D01*
X34008028Y-101397213D01*
X34152786Y-101541971D01*
X34307749Y-101654556D01*
X34318390Y-101662287D01*
X34434607Y-101721503D01*
X34500776Y-101755218D01*
X34500778Y-101755218D01*
X34500781Y-101755220D01*
X34605137Y-101789127D01*
X34695465Y-101818477D01*
X34796557Y-101834488D01*
X34897648Y-101850500D01*
X34897649Y-101850500D01*
X35102351Y-101850500D01*
X35102352Y-101850500D01*
X35304534Y-101818477D01*
X35499219Y-101755220D01*
X35681610Y-101662287D01*
X35774590Y-101594732D01*
X35847213Y-101541971D01*
X35847215Y-101541968D01*
X35847219Y-101541966D01*
X35991966Y-101397219D01*
X35991968Y-101397215D01*
X35991971Y-101397213D01*
X36075960Y-101281610D01*
X36112287Y-101231610D01*
X36205220Y-101049219D01*
X36268477Y-100854534D01*
X36300500Y-100652352D01*
X36300500Y-100447648D01*
X38699500Y-100447648D01*
X38699500Y-100652351D01*
X38731522Y-100854534D01*
X38794781Y-101049223D01*
X38887715Y-101231613D01*
X39008028Y-101397213D01*
X39152786Y-101541971D01*
X39307749Y-101654556D01*
X39318390Y-101662287D01*
X39434607Y-101721503D01*
X39500776Y-101755218D01*
X39500778Y-101755218D01*
X39500781Y-101755220D01*
X39605137Y-101789127D01*
X39695465Y-101818477D01*
X39796557Y-101834488D01*
X39897648Y-101850500D01*
X39897649Y-101850500D01*
X40102351Y-101850500D01*
X40102352Y-101850500D01*
X40304534Y-101818477D01*
X40499219Y-101755220D01*
X40681610Y-101662287D01*
X40774590Y-101594732D01*
X40847213Y-101541971D01*
X40847215Y-101541968D01*
X40847219Y-101541966D01*
X40991966Y-101397219D01*
X40991968Y-101397215D01*
X40991971Y-101397213D01*
X41075960Y-101281610D01*
X41112287Y-101231610D01*
X41205220Y-101049219D01*
X41268477Y-100854534D01*
X41300500Y-100652352D01*
X41300500Y-100447648D01*
X42699500Y-100447648D01*
X42699500Y-100652351D01*
X42731522Y-100854534D01*
X42794781Y-101049223D01*
X42887715Y-101231613D01*
X43008028Y-101397213D01*
X43152786Y-101541971D01*
X43307749Y-101654556D01*
X43318390Y-101662287D01*
X43434607Y-101721503D01*
X43500776Y-101755218D01*
X43500778Y-101755218D01*
X43500781Y-101755220D01*
X43605137Y-101789127D01*
X43695465Y-101818477D01*
X43796557Y-101834488D01*
X43897648Y-101850500D01*
X43897649Y-101850500D01*
X44102351Y-101850500D01*
X44102352Y-101850500D01*
X44304534Y-101818477D01*
X44499219Y-101755220D01*
X44681610Y-101662287D01*
X44774590Y-101594732D01*
X44847213Y-101541971D01*
X44847215Y-101541968D01*
X44847219Y-101541966D01*
X44991966Y-101397219D01*
X44991968Y-101397215D01*
X44991971Y-101397213D01*
X45075960Y-101281610D01*
X45112287Y-101231610D01*
X45205220Y-101049219D01*
X45268477Y-100854534D01*
X45300500Y-100652352D01*
X45300500Y-100447648D01*
X47699500Y-100447648D01*
X47699500Y-100652351D01*
X47731522Y-100854534D01*
X47794781Y-101049223D01*
X47887715Y-101231613D01*
X48008028Y-101397213D01*
X48152786Y-101541971D01*
X48307749Y-101654556D01*
X48318390Y-101662287D01*
X48434607Y-101721503D01*
X48500776Y-101755218D01*
X48500778Y-101755218D01*
X48500781Y-101755220D01*
X48605137Y-101789127D01*
X48695465Y-101818477D01*
X48796557Y-101834488D01*
X48897648Y-101850500D01*
X48897649Y-101850500D01*
X49102351Y-101850500D01*
X49102352Y-101850500D01*
X49304534Y-101818477D01*
X49499219Y-101755220D01*
X49681610Y-101662287D01*
X49774590Y-101594732D01*
X49847213Y-101541971D01*
X49847215Y-101541968D01*
X49847219Y-101541966D01*
X49991966Y-101397219D01*
X49991968Y-101397215D01*
X49991971Y-101397213D01*
X50075960Y-101281610D01*
X50112287Y-101231610D01*
X50205220Y-101049219D01*
X50268477Y-100854534D01*
X50300500Y-100652352D01*
X50300500Y-100447648D01*
X50268477Y-100245466D01*
X50205220Y-100050781D01*
X50205218Y-100050778D01*
X50205218Y-100050776D01*
X50170852Y-99983331D01*
X50112287Y-99868390D01*
X50086824Y-99833343D01*
X49991971Y-99702786D01*
X49847213Y-99558028D01*
X49681613Y-99437715D01*
X49681612Y-99437714D01*
X49681610Y-99437713D01*
X49624653Y-99408691D01*
X49499223Y-99344781D01*
X49304534Y-99281522D01*
X49129995Y-99253878D01*
X49102352Y-99249500D01*
X48897648Y-99249500D01*
X48873329Y-99253351D01*
X48695465Y-99281522D01*
X48500776Y-99344781D01*
X48318386Y-99437715D01*
X48152786Y-99558028D01*
X48008028Y-99702786D01*
X47887715Y-99868386D01*
X47794781Y-100050776D01*
X47731522Y-100245465D01*
X47699500Y-100447648D01*
X45300500Y-100447648D01*
X45268477Y-100245466D01*
X45205220Y-100050781D01*
X45205218Y-100050778D01*
X45205218Y-100050776D01*
X45170852Y-99983331D01*
X45112287Y-99868390D01*
X45086824Y-99833343D01*
X44991971Y-99702786D01*
X44847213Y-99558028D01*
X44681613Y-99437715D01*
X44681612Y-99437714D01*
X44681610Y-99437713D01*
X44624653Y-99408691D01*
X44499223Y-99344781D01*
X44304534Y-99281522D01*
X44129995Y-99253878D01*
X44102352Y-99249500D01*
X43897648Y-99249500D01*
X43873329Y-99253351D01*
X43695465Y-99281522D01*
X43500776Y-99344781D01*
X43318386Y-99437715D01*
X43152786Y-99558028D01*
X43008028Y-99702786D01*
X42887715Y-99868386D01*
X42794781Y-100050776D01*
X42731522Y-100245465D01*
X42699500Y-100447648D01*
X41300500Y-100447648D01*
X41268477Y-100245466D01*
X41205220Y-100050781D01*
X41205218Y-100050778D01*
X41205218Y-100050776D01*
X41170852Y-99983331D01*
X41112287Y-99868390D01*
X41086824Y-99833343D01*
X40991971Y-99702786D01*
X40847213Y-99558028D01*
X40681613Y-99437715D01*
X40681612Y-99437714D01*
X40681610Y-99437713D01*
X40624653Y-99408691D01*
X40499223Y-99344781D01*
X40304534Y-99281522D01*
X40129995Y-99253878D01*
X40102352Y-99249500D01*
X39897648Y-99249500D01*
X39873329Y-99253351D01*
X39695465Y-99281522D01*
X39500776Y-99344781D01*
X39318386Y-99437715D01*
X39152786Y-99558028D01*
X39008028Y-99702786D01*
X38887715Y-99868386D01*
X38794781Y-100050776D01*
X38731522Y-100245465D01*
X38699500Y-100447648D01*
X36300500Y-100447648D01*
X36268477Y-100245466D01*
X36205220Y-100050781D01*
X36205218Y-100050778D01*
X36205218Y-100050776D01*
X36170852Y-99983331D01*
X36112287Y-99868390D01*
X36086824Y-99833343D01*
X35991971Y-99702786D01*
X35847217Y-99558032D01*
X35847212Y-99558028D01*
X35801615Y-99524900D01*
X35758949Y-99469571D01*
X35750500Y-99424582D01*
X35750500Y-96444552D01*
X35770185Y-96377513D01*
X35786819Y-96356871D01*
X35800914Y-96342776D01*
X35820340Y-96323350D01*
X35910908Y-96176516D01*
X35965174Y-96012753D01*
X35975500Y-95911677D01*
X35975499Y-95313324D01*
X35971445Y-95273642D01*
X35965174Y-95212247D01*
X35954993Y-95181523D01*
X35910908Y-95048484D01*
X35820340Y-94901650D01*
X35706371Y-94787681D01*
X35672886Y-94726358D01*
X35677870Y-94656666D01*
X35706371Y-94612319D01*
X35742332Y-94576358D01*
X35820340Y-94498350D01*
X35910908Y-94351516D01*
X35965174Y-94187753D01*
X35975500Y-94086677D01*
X35975499Y-93488324D01*
X35965174Y-93387247D01*
X35910908Y-93223484D01*
X35820340Y-93076650D01*
X35786819Y-93043129D01*
X35753334Y-92981806D01*
X35750500Y-92955448D01*
X35750500Y-92471153D01*
X43967267Y-92471153D01*
X43967267Y-92628846D01*
X43998028Y-92783489D01*
X43998031Y-92783501D01*
X44058369Y-92929172D01*
X44058376Y-92929185D01*
X44145977Y-93060288D01*
X44145980Y-93060292D01*
X44257474Y-93171786D01*
X44257478Y-93171789D01*
X44388581Y-93259390D01*
X44388594Y-93259397D01*
X44487827Y-93300500D01*
X44534270Y-93319737D01*
X44627708Y-93338323D01*
X44688920Y-93350499D01*
X44688923Y-93350500D01*
X44688925Y-93350500D01*
X44846611Y-93350500D01*
X44846612Y-93350499D01*
X44922919Y-93335320D01*
X45001255Y-93319739D01*
X45001256Y-93319738D01*
X45001264Y-93319737D01*
X45024922Y-93309937D01*
X45072371Y-93300500D01*
X55695396Y-93300500D01*
X55742844Y-93309937D01*
X55766503Y-93319737D01*
X55766508Y-93319738D01*
X55766511Y-93319739D01*
X55921153Y-93350499D01*
X55921156Y-93350500D01*
X55921158Y-93350500D01*
X56078844Y-93350500D01*
X56078845Y-93350499D01*
X56233497Y-93319737D01*
X56379179Y-93259394D01*
X56510289Y-93171789D01*
X56621789Y-93060289D01*
X56709394Y-92929179D01*
X56769737Y-92783497D01*
X56800500Y-92628842D01*
X56800500Y-92471158D01*
X56800500Y-92471155D01*
X56800499Y-92471153D01*
X56769738Y-92316510D01*
X56769737Y-92316503D01*
X56749090Y-92266657D01*
X56709397Y-92170827D01*
X56709390Y-92170814D01*
X56621789Y-92039711D01*
X56621786Y-92039707D01*
X56510292Y-91928213D01*
X56510288Y-91928210D01*
X56379185Y-91840609D01*
X56379172Y-91840602D01*
X56233501Y-91780264D01*
X56233489Y-91780261D01*
X56078845Y-91749500D01*
X56078842Y-91749500D01*
X55921158Y-91749500D01*
X55921155Y-91749500D01*
X55766511Y-91780260D01*
X55766506Y-91780262D01*
X55766504Y-91780262D01*
X55766503Y-91780263D01*
X55742844Y-91790062D01*
X55695396Y-91799500D01*
X45072371Y-91799500D01*
X45024922Y-91790062D01*
X45001264Y-91780263D01*
X45001260Y-91780262D01*
X45001255Y-91780260D01*
X44846612Y-91749500D01*
X44846609Y-91749500D01*
X44688925Y-91749500D01*
X44688922Y-91749500D01*
X44534277Y-91780261D01*
X44534265Y-91780264D01*
X44388594Y-91840602D01*
X44388581Y-91840609D01*
X44257478Y-91928210D01*
X44257474Y-91928213D01*
X44145980Y-92039707D01*
X44145977Y-92039711D01*
X44058376Y-92170814D01*
X44058369Y-92170827D01*
X43998031Y-92316498D01*
X43998028Y-92316510D01*
X43967267Y-92471153D01*
X35750500Y-92471153D01*
X35750500Y-89949500D01*
X35770185Y-89882461D01*
X35822989Y-89836706D01*
X35874500Y-89825500D01*
X36107216Y-89825500D01*
X36174255Y-89845185D01*
X36220010Y-89897989D01*
X36229954Y-89967147D01*
X36228833Y-89973692D01*
X36199500Y-90121155D01*
X36199500Y-90278846D01*
X36230261Y-90433489D01*
X36230264Y-90433501D01*
X36290602Y-90579172D01*
X36290609Y-90579185D01*
X36378210Y-90710288D01*
X36378213Y-90710292D01*
X36489707Y-90821786D01*
X36489711Y-90821789D01*
X36620814Y-90909390D01*
X36620827Y-90909397D01*
X36720060Y-90950500D01*
X36766503Y-90969737D01*
X36921153Y-91000499D01*
X36921156Y-91000500D01*
X36921158Y-91000500D01*
X37078844Y-91000500D01*
X37078845Y-91000499D01*
X37155152Y-90985320D01*
X37233488Y-90969739D01*
X37233489Y-90969738D01*
X37233497Y-90969737D01*
X37257155Y-90959937D01*
X37304604Y-90950500D01*
X59625500Y-90950500D01*
X59692539Y-90970185D01*
X59738294Y-91022989D01*
X59749500Y-91074500D01*
X59749500Y-96205448D01*
X59729815Y-96272487D01*
X59713181Y-96293129D01*
X59679661Y-96326648D01*
X59589093Y-96473481D01*
X59589091Y-96473486D01*
X59576438Y-96511671D01*
X59534826Y-96637247D01*
X59534826Y-96637248D01*
X59534825Y-96637248D01*
X59524500Y-96738315D01*
X59524500Y-97336669D01*
X59524501Y-97336687D01*
X59534825Y-97437752D01*
X59589092Y-97601515D01*
X59589093Y-97601518D01*
X59679661Y-97748351D01*
X59793629Y-97862319D01*
X59827114Y-97923642D01*
X59822130Y-97993334D01*
X59793629Y-98037681D01*
X59679661Y-98151648D01*
X59589093Y-98298481D01*
X59589091Y-98298486D01*
X59561719Y-98381088D01*
X59534826Y-98462247D01*
X59534826Y-98462248D01*
X59534825Y-98462248D01*
X59524500Y-98563315D01*
X59524500Y-99161669D01*
X59524501Y-99161687D01*
X59534825Y-99262752D01*
X59589092Y-99426515D01*
X59589093Y-99426518D01*
X59599116Y-99442767D01*
X59670209Y-99558028D01*
X59679661Y-99573351D01*
X59713181Y-99606871D01*
X59746666Y-99668194D01*
X59749500Y-99694552D01*
X59749500Y-102474582D01*
X59729815Y-102541621D01*
X59698385Y-102574900D01*
X59652787Y-102608028D01*
X59652782Y-102608032D01*
X59508028Y-102752786D01*
X59387715Y-102918386D01*
X59294781Y-103100776D01*
X59231522Y-103295465D01*
X59199500Y-103497648D01*
X59199500Y-103702351D01*
X59231522Y-103904534D01*
X59294781Y-104099223D01*
X59387715Y-104281613D01*
X59508028Y-104447213D01*
X59652786Y-104591971D01*
X59793927Y-104694514D01*
X59818390Y-104712287D01*
X59934607Y-104771503D01*
X60000776Y-104805218D01*
X60000778Y-104805218D01*
X60000781Y-104805220D01*
X60082457Y-104831758D01*
X60195465Y-104868477D01*
X60279564Y-104881797D01*
X60397648Y-104900500D01*
X60397649Y-104900500D01*
X60602351Y-104900500D01*
X60602352Y-104900500D01*
X60804534Y-104868477D01*
X60999219Y-104805220D01*
X61181610Y-104712287D01*
X61274590Y-104644732D01*
X61347213Y-104591971D01*
X61347215Y-104591968D01*
X61347219Y-104591966D01*
X61491966Y-104447219D01*
X61491968Y-104447215D01*
X61491971Y-104447213D01*
X61572456Y-104336433D01*
X61612287Y-104281610D01*
X61705220Y-104099219D01*
X61768477Y-103904534D01*
X61800500Y-103702352D01*
X61800500Y-103497648D01*
X61790087Y-103431902D01*
X107999500Y-103431902D01*
X107999500Y-103668097D01*
X108036446Y-103901368D01*
X108109433Y-104125996D01*
X108170307Y-104245466D01*
X108216657Y-104336433D01*
X108355483Y-104527510D01*
X108522490Y-104694517D01*
X108713567Y-104833343D01*
X108808663Y-104881797D01*
X108924003Y-104940566D01*
X108924005Y-104940566D01*
X108924008Y-104940568D01*
X109044412Y-104979689D01*
X109148631Y-105013553D01*
X109381903Y-105050500D01*
X109381908Y-105050500D01*
X109618097Y-105050500D01*
X109851368Y-105013553D01*
X110075992Y-104940568D01*
X110286433Y-104833343D01*
X110477510Y-104694517D01*
X110644517Y-104527510D01*
X110783343Y-104336433D01*
X110890568Y-104125992D01*
X110963553Y-103901368D01*
X110968777Y-103868386D01*
X111000500Y-103668097D01*
X111000500Y-103431902D01*
X110963553Y-103198631D01*
X110890566Y-102974003D01*
X110783342Y-102763566D01*
X110775506Y-102752781D01*
X110644517Y-102572490D01*
X110477510Y-102405483D01*
X110286433Y-102266657D01*
X110075996Y-102159433D01*
X109851368Y-102086446D01*
X109618097Y-102049500D01*
X109618092Y-102049500D01*
X109381908Y-102049500D01*
X109381903Y-102049500D01*
X109148631Y-102086446D01*
X108924003Y-102159433D01*
X108713566Y-102266657D01*
X108624288Y-102331522D01*
X108522490Y-102405483D01*
X108522488Y-102405485D01*
X108522487Y-102405485D01*
X108355485Y-102572487D01*
X108355485Y-102572488D01*
X108355483Y-102572490D01*
X108329663Y-102608028D01*
X108216657Y-102763566D01*
X108109433Y-102974003D01*
X108036446Y-103198631D01*
X107999500Y-103431902D01*
X61790087Y-103431902D01*
X61768477Y-103295466D01*
X61705220Y-103100781D01*
X61705218Y-103100778D01*
X61705218Y-103100776D01*
X61671503Y-103034607D01*
X61612287Y-102918390D01*
X61604556Y-102907749D01*
X61491971Y-102752786D01*
X61347217Y-102608032D01*
X61347212Y-102608028D01*
X61301615Y-102574900D01*
X61258949Y-102519571D01*
X61250500Y-102474582D01*
X61250500Y-99694552D01*
X61270185Y-99627513D01*
X61286819Y-99606871D01*
X61320340Y-99573350D01*
X61410908Y-99426516D01*
X61465174Y-99262753D01*
X61475500Y-99161677D01*
X61475499Y-98563324D01*
X61474958Y-98558032D01*
X61465174Y-98462247D01*
X61457044Y-98437713D01*
X61410908Y-98298484D01*
X61320340Y-98151650D01*
X61206371Y-98037681D01*
X61172886Y-97976358D01*
X61177870Y-97906666D01*
X61206371Y-97862319D01*
X61320340Y-97748350D01*
X61410908Y-97601516D01*
X61465174Y-97437753D01*
X61475500Y-97336677D01*
X61475499Y-96738324D01*
X61465174Y-96637247D01*
X61410908Y-96473484D01*
X61320340Y-96326650D01*
X61286819Y-96293129D01*
X61253334Y-96231806D01*
X61250500Y-96205448D01*
X61250500Y-90804935D01*
X61270185Y-90737896D01*
X61271366Y-90736090D01*
X61309394Y-90679179D01*
X61369737Y-90533497D01*
X61400500Y-90378842D01*
X61400500Y-90221158D01*
X61400500Y-90221155D01*
X61400499Y-90221153D01*
X61382584Y-90131088D01*
X61369737Y-90066503D01*
X61357592Y-90037181D01*
X61340929Y-89996952D01*
X61333460Y-89927482D01*
X61364736Y-89865003D01*
X61424825Y-89829352D01*
X61455490Y-89825500D01*
X64125500Y-89825500D01*
X64192539Y-89845185D01*
X64238294Y-89897989D01*
X64249500Y-89949500D01*
X64249500Y-93555448D01*
X64229815Y-93622487D01*
X64213181Y-93643129D01*
X64179661Y-93676648D01*
X64089093Y-93823481D01*
X64089092Y-93823484D01*
X64034826Y-93987247D01*
X64034826Y-93987248D01*
X64034825Y-93987248D01*
X64024500Y-94088315D01*
X64024500Y-94686669D01*
X64024501Y-94686687D01*
X64034825Y-94787752D01*
X64049933Y-94833343D01*
X64089092Y-94951516D01*
X64157391Y-95062247D01*
X64179661Y-95098351D01*
X64293629Y-95212319D01*
X64327114Y-95273642D01*
X64322130Y-95343334D01*
X64293629Y-95387681D01*
X64179661Y-95501648D01*
X64089093Y-95648481D01*
X64089092Y-95648484D01*
X64034826Y-95812247D01*
X64034826Y-95812248D01*
X64034825Y-95812248D01*
X64024500Y-95913315D01*
X64024500Y-96511669D01*
X64024501Y-96511687D01*
X64034825Y-96612752D01*
X64089092Y-96776515D01*
X64089093Y-96776518D01*
X64179661Y-96923351D01*
X64213181Y-96956871D01*
X64246666Y-97018194D01*
X64249500Y-97044552D01*
X64249500Y-99474582D01*
X64229815Y-99541621D01*
X64198385Y-99574900D01*
X64152787Y-99608028D01*
X64152782Y-99608032D01*
X64008028Y-99752786D01*
X63887715Y-99918386D01*
X63794781Y-100100776D01*
X63731522Y-100295465D01*
X63699500Y-100497648D01*
X63699500Y-100702351D01*
X63731522Y-100904534D01*
X63794781Y-101099223D01*
X63887715Y-101281613D01*
X64008028Y-101447213D01*
X64152786Y-101591971D01*
X64249566Y-101662284D01*
X64318390Y-101712287D01*
X64402647Y-101755218D01*
X64500776Y-101805218D01*
X64500778Y-101805218D01*
X64500781Y-101805220D01*
X64605137Y-101839127D01*
X64695465Y-101868477D01*
X64796557Y-101884488D01*
X64897648Y-101900500D01*
X64897649Y-101900500D01*
X65102351Y-101900500D01*
X65102352Y-101900500D01*
X65304534Y-101868477D01*
X65499219Y-101805220D01*
X65681610Y-101712287D01*
X65774590Y-101644732D01*
X65847213Y-101591971D01*
X65847215Y-101591968D01*
X65847219Y-101591966D01*
X65991966Y-101447219D01*
X65991968Y-101447215D01*
X65991971Y-101447213D01*
X66074701Y-101333343D01*
X66112287Y-101281610D01*
X66205220Y-101099219D01*
X66268477Y-100904534D01*
X66300500Y-100702352D01*
X66300500Y-100497648D01*
X68699500Y-100497648D01*
X68699500Y-100702351D01*
X68731522Y-100904534D01*
X68794781Y-101099223D01*
X68887715Y-101281613D01*
X69008028Y-101447213D01*
X69152786Y-101591971D01*
X69249566Y-101662284D01*
X69318390Y-101712287D01*
X69402647Y-101755218D01*
X69500776Y-101805218D01*
X69500778Y-101805218D01*
X69500781Y-101805220D01*
X69605137Y-101839127D01*
X69695465Y-101868477D01*
X69796557Y-101884488D01*
X69897648Y-101900500D01*
X69897649Y-101900500D01*
X70102351Y-101900500D01*
X70102352Y-101900500D01*
X70304534Y-101868477D01*
X70499219Y-101805220D01*
X70681610Y-101712287D01*
X70774590Y-101644732D01*
X70847213Y-101591971D01*
X70847215Y-101591968D01*
X70847219Y-101591966D01*
X70991966Y-101447219D01*
X70991968Y-101447215D01*
X70991971Y-101447213D01*
X71074701Y-101333343D01*
X71112287Y-101281610D01*
X71205220Y-101099219D01*
X71268477Y-100904534D01*
X71300500Y-100702352D01*
X71300500Y-100497648D01*
X71292581Y-100447648D01*
X71268477Y-100295465D01*
X71205218Y-100100776D01*
X71145376Y-99983331D01*
X71123586Y-99940566D01*
X71119172Y-99931902D01*
X78499500Y-99931902D01*
X78499500Y-100168097D01*
X78536446Y-100401368D01*
X78609433Y-100625996D01*
X78648339Y-100702352D01*
X78716657Y-100836433D01*
X78855483Y-101027510D01*
X79022490Y-101194517D01*
X79213567Y-101333343D01*
X79312991Y-101384002D01*
X79424003Y-101440566D01*
X79424005Y-101440566D01*
X79424008Y-101440568D01*
X79544412Y-101479689D01*
X79648631Y-101513553D01*
X79881903Y-101550500D01*
X79881908Y-101550500D01*
X80118097Y-101550500D01*
X80351368Y-101513553D01*
X80575992Y-101440568D01*
X80786433Y-101333343D01*
X80977510Y-101194517D01*
X81144517Y-101027510D01*
X81283343Y-100836433D01*
X81390568Y-100625992D01*
X81463553Y-100401368D01*
X81480326Y-100295466D01*
X81500500Y-100168097D01*
X81500500Y-99931902D01*
X81463553Y-99698631D01*
X81412537Y-99541621D01*
X81390568Y-99474008D01*
X81390566Y-99474005D01*
X81390566Y-99474003D01*
X81334002Y-99362991D01*
X81283343Y-99263567D01*
X81144517Y-99072490D01*
X80977510Y-98905483D01*
X80786433Y-98766657D01*
X80742765Y-98744407D01*
X80575996Y-98659433D01*
X80351368Y-98586446D01*
X80118097Y-98549500D01*
X80118092Y-98549500D01*
X79881908Y-98549500D01*
X79881903Y-98549500D01*
X79648631Y-98586446D01*
X79424003Y-98659433D01*
X79213566Y-98766657D01*
X79104550Y-98845862D01*
X79022490Y-98905483D01*
X79022488Y-98905485D01*
X79022487Y-98905485D01*
X78855485Y-99072487D01*
X78855485Y-99072488D01*
X78855483Y-99072490D01*
X78795862Y-99154550D01*
X78716657Y-99263566D01*
X78609433Y-99474003D01*
X78536446Y-99698631D01*
X78499500Y-99931902D01*
X71119172Y-99931902D01*
X71112287Y-99918390D01*
X71112285Y-99918387D01*
X71112284Y-99918385D01*
X70991971Y-99752786D01*
X70847213Y-99608028D01*
X70681613Y-99487715D01*
X70681612Y-99487714D01*
X70681610Y-99487713D01*
X70583480Y-99437713D01*
X70499223Y-99394781D01*
X70304534Y-99331522D01*
X70129995Y-99303878D01*
X70102352Y-99299500D01*
X69897648Y-99299500D01*
X69873329Y-99303351D01*
X69695465Y-99331522D01*
X69500776Y-99394781D01*
X69318386Y-99487715D01*
X69152786Y-99608028D01*
X69008028Y-99752786D01*
X68887715Y-99918386D01*
X68794781Y-100100776D01*
X68731522Y-100295465D01*
X68699500Y-100497648D01*
X66300500Y-100497648D01*
X66292581Y-100447648D01*
X66268477Y-100295465D01*
X66205218Y-100100776D01*
X66145376Y-99983331D01*
X66112287Y-99918390D01*
X66104556Y-99907749D01*
X65991971Y-99752786D01*
X65847217Y-99608032D01*
X65847212Y-99608028D01*
X65801615Y-99574900D01*
X65758949Y-99519571D01*
X65750500Y-99474582D01*
X65750500Y-97044552D01*
X65770185Y-96977513D01*
X65786819Y-96956871D01*
X65794471Y-96949219D01*
X65820340Y-96923350D01*
X65910908Y-96776516D01*
X65965174Y-96612753D01*
X65975500Y-96511677D01*
X65975499Y-96347648D01*
X67499500Y-96347648D01*
X67499500Y-96552351D01*
X67531522Y-96754534D01*
X67594781Y-96949223D01*
X67687715Y-97131613D01*
X67808028Y-97297213D01*
X67952786Y-97441971D01*
X68107749Y-97554556D01*
X68118390Y-97562287D01*
X68234607Y-97621503D01*
X68300776Y-97655218D01*
X68300778Y-97655218D01*
X68300781Y-97655220D01*
X68405137Y-97689127D01*
X68495465Y-97718477D01*
X68596557Y-97734488D01*
X68697648Y-97750500D01*
X68697649Y-97750500D01*
X68902351Y-97750500D01*
X68902352Y-97750500D01*
X69104534Y-97718477D01*
X69299219Y-97655220D01*
X69481610Y-97562287D01*
X69574590Y-97494732D01*
X69647213Y-97441971D01*
X69647215Y-97441968D01*
X69647219Y-97441966D01*
X69791966Y-97297219D01*
X69791968Y-97297215D01*
X69791971Y-97297213D01*
X69879042Y-97177368D01*
X69912287Y-97131610D01*
X70005220Y-96949219D01*
X70068477Y-96754534D01*
X70100500Y-96552352D01*
X70100500Y-96347648D01*
X72499500Y-96347648D01*
X72499500Y-96552351D01*
X72531522Y-96754534D01*
X72594781Y-96949223D01*
X72687715Y-97131613D01*
X72808028Y-97297213D01*
X72952786Y-97441971D01*
X73107749Y-97554556D01*
X73118390Y-97562287D01*
X73234607Y-97621503D01*
X73300776Y-97655218D01*
X73300778Y-97655218D01*
X73300781Y-97655220D01*
X73405137Y-97689127D01*
X73495465Y-97718477D01*
X73596557Y-97734488D01*
X73697648Y-97750500D01*
X73697649Y-97750500D01*
X73902351Y-97750500D01*
X73902352Y-97750500D01*
X74104534Y-97718477D01*
X74299219Y-97655220D01*
X74481610Y-97562287D01*
X74574590Y-97494732D01*
X74647213Y-97441971D01*
X74647215Y-97441968D01*
X74647219Y-97441966D01*
X74791966Y-97297219D01*
X74791968Y-97297215D01*
X74791971Y-97297213D01*
X74879042Y-97177368D01*
X74912287Y-97131610D01*
X75005220Y-96949219D01*
X75068477Y-96754534D01*
X75100500Y-96552352D01*
X75100500Y-96347648D01*
X75091865Y-96293129D01*
X75068477Y-96145465D01*
X75025356Y-96012753D01*
X75005220Y-95950781D01*
X75005218Y-95950778D01*
X75005218Y-95950776D01*
X74934891Y-95812753D01*
X74912287Y-95768390D01*
X74904556Y-95757749D01*
X74791971Y-95602786D01*
X74647213Y-95458028D01*
X74481613Y-95337715D01*
X74481612Y-95337714D01*
X74481610Y-95337713D01*
X74407594Y-95300000D01*
X74299223Y-95244781D01*
X74104534Y-95181522D01*
X73929995Y-95153878D01*
X73902352Y-95149500D01*
X73697648Y-95149500D01*
X73673329Y-95153351D01*
X73495465Y-95181522D01*
X73300776Y-95244781D01*
X73118386Y-95337715D01*
X72952786Y-95458028D01*
X72808028Y-95602786D01*
X72687715Y-95768386D01*
X72594781Y-95950776D01*
X72531522Y-96145465D01*
X72499500Y-96347648D01*
X70100500Y-96347648D01*
X70091865Y-96293129D01*
X70068477Y-96145465D01*
X70025356Y-96012753D01*
X70005220Y-95950781D01*
X70005218Y-95950778D01*
X70005218Y-95950776D01*
X69934891Y-95812753D01*
X69912287Y-95768390D01*
X69904556Y-95757749D01*
X69791971Y-95602786D01*
X69647213Y-95458028D01*
X69481613Y-95337715D01*
X69481612Y-95337714D01*
X69481610Y-95337713D01*
X69407594Y-95300000D01*
X69299223Y-95244781D01*
X69104534Y-95181522D01*
X68929995Y-95153878D01*
X68902352Y-95149500D01*
X68697648Y-95149500D01*
X68673329Y-95153351D01*
X68495465Y-95181522D01*
X68300776Y-95244781D01*
X68118386Y-95337715D01*
X67952786Y-95458028D01*
X67808028Y-95602786D01*
X67687715Y-95768386D01*
X67594781Y-95950776D01*
X67531522Y-96145465D01*
X67499500Y-96347648D01*
X65975499Y-96347648D01*
X65975499Y-96206871D01*
X65975499Y-95913330D01*
X65975498Y-95913312D01*
X65965174Y-95812247D01*
X65948419Y-95761684D01*
X65910908Y-95648484D01*
X65820340Y-95501650D01*
X65706371Y-95387681D01*
X65672886Y-95326358D01*
X65677870Y-95256666D01*
X65706371Y-95212319D01*
X65755378Y-95163312D01*
X65820340Y-95098350D01*
X65910908Y-94951516D01*
X65965174Y-94787753D01*
X65975500Y-94686677D01*
X65975499Y-94088324D01*
X65975331Y-94086684D01*
X65965174Y-93987247D01*
X65948419Y-93936684D01*
X65910908Y-93823484D01*
X65820340Y-93676650D01*
X65786819Y-93643129D01*
X65753334Y-93581806D01*
X65750500Y-93555448D01*
X65750500Y-92471153D01*
X68199500Y-92471153D01*
X68199500Y-92628846D01*
X68230261Y-92783489D01*
X68230264Y-92783501D01*
X68290602Y-92929172D01*
X68290609Y-92929185D01*
X68378210Y-93060288D01*
X68378213Y-93060292D01*
X68489707Y-93171786D01*
X68489711Y-93171789D01*
X68620814Y-93259390D01*
X68620827Y-93259397D01*
X68720060Y-93300500D01*
X68766503Y-93319737D01*
X68859941Y-93338323D01*
X68921153Y-93350499D01*
X68921156Y-93350500D01*
X68921158Y-93350500D01*
X69078844Y-93350500D01*
X69078845Y-93350499D01*
X69155152Y-93335320D01*
X69233488Y-93319739D01*
X69233489Y-93319738D01*
X69233497Y-93319737D01*
X69257155Y-93309937D01*
X69304604Y-93300500D01*
X75195396Y-93300500D01*
X75242844Y-93309937D01*
X75266503Y-93319737D01*
X75266508Y-93319738D01*
X75266511Y-93319739D01*
X75421153Y-93350499D01*
X75421156Y-93350500D01*
X75421158Y-93350500D01*
X75578844Y-93350500D01*
X75578845Y-93350499D01*
X75733497Y-93319737D01*
X75879179Y-93259394D01*
X76010289Y-93171789D01*
X76121789Y-93060289D01*
X76209394Y-92929179D01*
X76269737Y-92783497D01*
X76300500Y-92628842D01*
X76300500Y-92471158D01*
X76300500Y-92471155D01*
X76300499Y-92471153D01*
X76269738Y-92316510D01*
X76269737Y-92316503D01*
X76249090Y-92266657D01*
X76209397Y-92170827D01*
X76209390Y-92170814D01*
X76121789Y-92039711D01*
X76121786Y-92039707D01*
X76010292Y-91928213D01*
X76010288Y-91928210D01*
X75879185Y-91840609D01*
X75879172Y-91840602D01*
X75733501Y-91780264D01*
X75733489Y-91780261D01*
X75578845Y-91749500D01*
X75578842Y-91749500D01*
X75421158Y-91749500D01*
X75421155Y-91749500D01*
X75266511Y-91780260D01*
X75266506Y-91780262D01*
X75266504Y-91780262D01*
X75266503Y-91780263D01*
X75242844Y-91790062D01*
X75195396Y-91799500D01*
X69304604Y-91799500D01*
X69257155Y-91790062D01*
X69233497Y-91780263D01*
X69233493Y-91780262D01*
X69233488Y-91780260D01*
X69078845Y-91749500D01*
X69078842Y-91749500D01*
X68921158Y-91749500D01*
X68921155Y-91749500D01*
X68766510Y-91780261D01*
X68766498Y-91780264D01*
X68620827Y-91840602D01*
X68620814Y-91840609D01*
X68489711Y-91928210D01*
X68489707Y-91928213D01*
X68378213Y-92039707D01*
X68378210Y-92039711D01*
X68290609Y-92170814D01*
X68290602Y-92170827D01*
X68230264Y-92316498D01*
X68230261Y-92316510D01*
X68199500Y-92471153D01*
X65750500Y-92471153D01*
X65750500Y-91134779D01*
X65770185Y-91067740D01*
X65822989Y-91021985D01*
X65892147Y-91012041D01*
X65921952Y-91020218D01*
X65928642Y-91022989D01*
X66041503Y-91069737D01*
X66196153Y-91100499D01*
X66196156Y-91100500D01*
X66196158Y-91100500D01*
X66353844Y-91100500D01*
X66353845Y-91100499D01*
X66430152Y-91085320D01*
X66508488Y-91069739D01*
X66508489Y-91069738D01*
X66508497Y-91069737D01*
X66532155Y-91059937D01*
X66579604Y-91050500D01*
X87125500Y-91050500D01*
X87192539Y-91070185D01*
X87238294Y-91122989D01*
X87249500Y-91174500D01*
X87249500Y-92805448D01*
X87229815Y-92872487D01*
X87213181Y-92893129D01*
X87179661Y-92926648D01*
X87089093Y-93073481D01*
X87089091Y-93073486D01*
X87088043Y-93076650D01*
X87034826Y-93237247D01*
X87034826Y-93237248D01*
X87034825Y-93237248D01*
X87024500Y-93338315D01*
X87024500Y-93936669D01*
X87024501Y-93936687D01*
X87034825Y-94037752D01*
X87064066Y-94125992D01*
X87089092Y-94201516D01*
X87179660Y-94348350D01*
X87179661Y-94348351D01*
X87293629Y-94462319D01*
X87327114Y-94523642D01*
X87322130Y-94593334D01*
X87293629Y-94637681D01*
X87179661Y-94751648D01*
X87089093Y-94898481D01*
X87089091Y-94898486D01*
X87071520Y-94951513D01*
X87034826Y-95062247D01*
X87034826Y-95062248D01*
X87034825Y-95062248D01*
X87024500Y-95163315D01*
X87024500Y-95761669D01*
X87024501Y-95761687D01*
X87034825Y-95862752D01*
X87063994Y-95950776D01*
X87089092Y-96026516D01*
X87162460Y-96145465D01*
X87179661Y-96173351D01*
X87213181Y-96206871D01*
X87246666Y-96268194D01*
X87249500Y-96294552D01*
X87249500Y-98677368D01*
X87229815Y-98744407D01*
X87198386Y-98777686D01*
X87022488Y-98905484D01*
X86855485Y-99072487D01*
X86855485Y-99072488D01*
X86855483Y-99072490D01*
X86795862Y-99154550D01*
X86716657Y-99263566D01*
X86609433Y-99474003D01*
X86536446Y-99698631D01*
X86499500Y-99931902D01*
X86499500Y-100168097D01*
X86536446Y-100401368D01*
X86609433Y-100625996D01*
X86648339Y-100702352D01*
X86716657Y-100836433D01*
X86855483Y-101027510D01*
X87022490Y-101194517D01*
X87213567Y-101333343D01*
X87312991Y-101384002D01*
X87424003Y-101440566D01*
X87424005Y-101440566D01*
X87424008Y-101440568D01*
X87544412Y-101479689D01*
X87648631Y-101513553D01*
X87881903Y-101550500D01*
X87881908Y-101550500D01*
X88118097Y-101550500D01*
X88351368Y-101513553D01*
X88575992Y-101440568D01*
X88786433Y-101333343D01*
X88977510Y-101194517D01*
X89144517Y-101027510D01*
X89283343Y-100836433D01*
X89390568Y-100625992D01*
X89463553Y-100401368D01*
X89480326Y-100295466D01*
X89500500Y-100168097D01*
X89500500Y-99931902D01*
X89463553Y-99698631D01*
X89412537Y-99541621D01*
X89390568Y-99474008D01*
X89390566Y-99474005D01*
X89390566Y-99474003D01*
X89334002Y-99362991D01*
X89283343Y-99263567D01*
X89144517Y-99072490D01*
X88977510Y-98905483D01*
X88926451Y-98868386D01*
X88801614Y-98777686D01*
X88758949Y-98722355D01*
X88750500Y-98677368D01*
X88750500Y-96294552D01*
X88770185Y-96227513D01*
X88786819Y-96206871D01*
X88800500Y-96193190D01*
X88820340Y-96173350D01*
X88910908Y-96026516D01*
X88965174Y-95862753D01*
X88975500Y-95761677D01*
X88975499Y-95163324D01*
X88970391Y-95113323D01*
X88965174Y-95062247D01*
X88948606Y-95012248D01*
X88910908Y-94898484D01*
X88820340Y-94751650D01*
X88706371Y-94637681D01*
X88672886Y-94576358D01*
X88677870Y-94506666D01*
X88706371Y-94462319D01*
X88756371Y-94412319D01*
X88820340Y-94348350D01*
X88910908Y-94201516D01*
X88965174Y-94037753D01*
X88975500Y-93936677D01*
X88975499Y-93338324D01*
X88973600Y-93319738D01*
X88965174Y-93237247D01*
X88943482Y-93171786D01*
X88910908Y-93073484D01*
X88820340Y-92926650D01*
X88786819Y-92893129D01*
X88753334Y-92831806D01*
X88750500Y-92805448D01*
X88750500Y-90276081D01*
X88750499Y-90276080D01*
X88739575Y-90221158D01*
X88721659Y-90131088D01*
X88667408Y-90000117D01*
X88663313Y-89988669D01*
X88662348Y-89985487D01*
X88661729Y-89915620D01*
X88698982Y-89856510D01*
X88762278Y-89826923D01*
X88781011Y-89825500D01*
X93125500Y-89825500D01*
X93192539Y-89845185D01*
X93238294Y-89897989D01*
X93249500Y-89949500D01*
X93249500Y-91305448D01*
X93229815Y-91372487D01*
X93213181Y-91393129D01*
X93179661Y-91426648D01*
X93089093Y-91573481D01*
X93089092Y-91573484D01*
X93034826Y-91737247D01*
X93034826Y-91737248D01*
X93034825Y-91737248D01*
X93024500Y-91838315D01*
X93024500Y-92436669D01*
X93024501Y-92436687D01*
X93034825Y-92537752D01*
X93089092Y-92701515D01*
X93089093Y-92701518D01*
X93179661Y-92848351D01*
X93293629Y-92962319D01*
X93327114Y-93023642D01*
X93322130Y-93093334D01*
X93293629Y-93137681D01*
X93179661Y-93251648D01*
X93089093Y-93398481D01*
X93089092Y-93398484D01*
X93034826Y-93562247D01*
X93034826Y-93562248D01*
X93034825Y-93562248D01*
X93024500Y-93663315D01*
X93024500Y-94261669D01*
X93024501Y-94261687D01*
X93034825Y-94362752D01*
X93065946Y-94456666D01*
X93082514Y-94506666D01*
X93089092Y-94526515D01*
X93089093Y-94526518D01*
X93123395Y-94582129D01*
X93169369Y-94656666D01*
X93179661Y-94673351D01*
X93213181Y-94706871D01*
X93246666Y-94768194D01*
X93249500Y-94794552D01*
X93249500Y-97177368D01*
X93229815Y-97244407D01*
X93198386Y-97277686D01*
X93022488Y-97405484D01*
X92855485Y-97572487D01*
X92855485Y-97572488D01*
X92855483Y-97572490D01*
X92834393Y-97601518D01*
X92716657Y-97763566D01*
X92609433Y-97974003D01*
X92536446Y-98198631D01*
X92499500Y-98431902D01*
X92499500Y-98668097D01*
X92536446Y-98901368D01*
X92609433Y-99125996D01*
X92679115Y-99262753D01*
X92716657Y-99336433D01*
X92855483Y-99527510D01*
X93022490Y-99694517D01*
X93213567Y-99833343D01*
X93255157Y-99854534D01*
X93424003Y-99940566D01*
X93424005Y-99940566D01*
X93424008Y-99940568D01*
X93544412Y-99979689D01*
X93648631Y-100013553D01*
X93881903Y-100050500D01*
X93881908Y-100050500D01*
X94118097Y-100050500D01*
X94351368Y-100013553D01*
X94444381Y-99983331D01*
X94575992Y-99940568D01*
X94786433Y-99833343D01*
X94977510Y-99694517D01*
X95144517Y-99527510D01*
X95283343Y-99336433D01*
X95390568Y-99125992D01*
X95463553Y-98901368D01*
X95468777Y-98868386D01*
X95500500Y-98668097D01*
X95500500Y-98431902D01*
X102499500Y-98431902D01*
X102499500Y-98668097D01*
X102536446Y-98901368D01*
X102609433Y-99125996D01*
X102679115Y-99262753D01*
X102716657Y-99336433D01*
X102855483Y-99527510D01*
X103022490Y-99694517D01*
X103213567Y-99833343D01*
X103255157Y-99854534D01*
X103424003Y-99940566D01*
X103424005Y-99940566D01*
X103424008Y-99940568D01*
X103544412Y-99979689D01*
X103648631Y-100013553D01*
X103881903Y-100050500D01*
X103881908Y-100050500D01*
X104118097Y-100050500D01*
X104351368Y-100013553D01*
X104444381Y-99983331D01*
X104575992Y-99940568D01*
X104786433Y-99833343D01*
X104977510Y-99694517D01*
X105144517Y-99527510D01*
X105283343Y-99336433D01*
X105390568Y-99125992D01*
X105463553Y-98901368D01*
X105468777Y-98868386D01*
X105500500Y-98668097D01*
X105500500Y-98431902D01*
X105463553Y-98198631D01*
X105396847Y-97993334D01*
X105390568Y-97974008D01*
X105390566Y-97974005D01*
X105390566Y-97974003D01*
X105283342Y-97763566D01*
X105250583Y-97718477D01*
X105144517Y-97572490D01*
X104977510Y-97405483D01*
X104786433Y-97266657D01*
X104742765Y-97244407D01*
X104575996Y-97159433D01*
X104351368Y-97086446D01*
X104118097Y-97049500D01*
X104118092Y-97049500D01*
X103881908Y-97049500D01*
X103881903Y-97049500D01*
X103648631Y-97086446D01*
X103424003Y-97159433D01*
X103213566Y-97266657D01*
X103171510Y-97297213D01*
X103022490Y-97405483D01*
X103022488Y-97405485D01*
X103022487Y-97405485D01*
X102855485Y-97572487D01*
X102855485Y-97572488D01*
X102855483Y-97572490D01*
X102834393Y-97601518D01*
X102716657Y-97763566D01*
X102609433Y-97974003D01*
X102536446Y-98198631D01*
X102499500Y-98431902D01*
X95500500Y-98431902D01*
X95463553Y-98198631D01*
X95396847Y-97993334D01*
X95390568Y-97974008D01*
X95390566Y-97974005D01*
X95390566Y-97974003D01*
X95283342Y-97763566D01*
X95250583Y-97718477D01*
X95144517Y-97572490D01*
X94977510Y-97405483D01*
X94882796Y-97336669D01*
X94801614Y-97277686D01*
X94758949Y-97222355D01*
X94750500Y-97177368D01*
X94750500Y-94794552D01*
X94770185Y-94727513D01*
X94786819Y-94706871D01*
X94799176Y-94694514D01*
X94820340Y-94673350D01*
X94910908Y-94526516D01*
X94965174Y-94362753D01*
X94975500Y-94261677D01*
X94975499Y-93663324D01*
X94965174Y-93562247D01*
X94921982Y-93431902D01*
X107999500Y-93431902D01*
X107999500Y-93668097D01*
X108036446Y-93901368D01*
X108109433Y-94125996D01*
X108197253Y-94298350D01*
X108216657Y-94336433D01*
X108355483Y-94527510D01*
X108522490Y-94694517D01*
X108713567Y-94833343D01*
X108743287Y-94848486D01*
X108924003Y-94940566D01*
X108924005Y-94940566D01*
X108924008Y-94940568D01*
X108957709Y-94951518D01*
X109148631Y-95013553D01*
X109381903Y-95050500D01*
X109381908Y-95050500D01*
X109618097Y-95050500D01*
X109851368Y-95013553D01*
X109855387Y-95012247D01*
X110075992Y-94940568D01*
X110286433Y-94833343D01*
X110477510Y-94694517D01*
X110644517Y-94527510D01*
X110783343Y-94336433D01*
X110890568Y-94125992D01*
X110963553Y-93901368D01*
X110999145Y-93676650D01*
X111000500Y-93668097D01*
X111000500Y-93431902D01*
X110963553Y-93198631D01*
X110929339Y-93093334D01*
X110890568Y-92974008D01*
X110890566Y-92974005D01*
X110890566Y-92974003D01*
X110804682Y-92805448D01*
X110783343Y-92763567D01*
X110644517Y-92572490D01*
X110477510Y-92405483D01*
X110286433Y-92266657D01*
X110075996Y-92159433D01*
X109851368Y-92086446D01*
X109618097Y-92049500D01*
X109618092Y-92049500D01*
X109381908Y-92049500D01*
X109381903Y-92049500D01*
X109148631Y-92086446D01*
X108924003Y-92159433D01*
X108713566Y-92266657D01*
X108644967Y-92316498D01*
X108522490Y-92405483D01*
X108522488Y-92405485D01*
X108522487Y-92405485D01*
X108355485Y-92572487D01*
X108355485Y-92572488D01*
X108355483Y-92572490D01*
X108328357Y-92609826D01*
X108216657Y-92763566D01*
X108109433Y-92974003D01*
X108036446Y-93198631D01*
X107999500Y-93431902D01*
X94921982Y-93431902D01*
X94910908Y-93398484D01*
X94820340Y-93251650D01*
X94706371Y-93137681D01*
X94672886Y-93076358D01*
X94677870Y-93006666D01*
X94706371Y-92962319D01*
X94742042Y-92926648D01*
X94820340Y-92848350D01*
X94910908Y-92701516D01*
X94965174Y-92537753D01*
X94975500Y-92436677D01*
X94975499Y-91838324D01*
X94965174Y-91737247D01*
X94910908Y-91573484D01*
X94820340Y-91426650D01*
X94786819Y-91393129D01*
X94753334Y-91331806D01*
X94750500Y-91305448D01*
X94750500Y-89001079D01*
X94721659Y-88856092D01*
X94721658Y-88856091D01*
X94721658Y-88856087D01*
X94718689Y-88848918D01*
X94665087Y-88719511D01*
X94665080Y-88719498D01*
X94582951Y-88596584D01*
X94582948Y-88596580D01*
X94478419Y-88492051D01*
X94478415Y-88492048D01*
X94355501Y-88409919D01*
X94355488Y-88409912D01*
X94218917Y-88353343D01*
X94218907Y-88353340D01*
X94073920Y-88324500D01*
X94073918Y-88324500D01*
X65073918Y-88324500D01*
X35073918Y-88324500D01*
X30374500Y-88324500D01*
X30307461Y-88304815D01*
X30261706Y-88252011D01*
X30250500Y-88200500D01*
X30250500Y-79001079D01*
X30221659Y-78856092D01*
X30221658Y-78856091D01*
X30221658Y-78856087D01*
X30203824Y-78813032D01*
X30165087Y-78719511D01*
X30165080Y-78719498D01*
X30082952Y-78596585D01*
X30041366Y-78554999D01*
X29978416Y-78492049D01*
X29863651Y-78377284D01*
X29745018Y-78258650D01*
X29711533Y-78197327D01*
X29712923Y-78138878D01*
X29769693Y-77927014D01*
X29800500Y-77693011D01*
X29800500Y-77456989D01*
X29769693Y-77222986D01*
X29708606Y-76995007D01*
X29618284Y-76776951D01*
X29553639Y-76664983D01*
X37889500Y-76664983D01*
X37889500Y-77865001D01*
X37889501Y-77865018D01*
X37900000Y-77967796D01*
X37900001Y-77967799D01*
X37947856Y-78112213D01*
X37955186Y-78134334D01*
X38047288Y-78283656D01*
X38171344Y-78407712D01*
X38320666Y-78499814D01*
X38402570Y-78526954D01*
X38460015Y-78566727D01*
X38486838Y-78631243D01*
X38474523Y-78700018D01*
X38436451Y-78744978D01*
X38342787Y-78813028D01*
X38342782Y-78813032D01*
X38198028Y-78957786D01*
X38077715Y-79123386D01*
X37984781Y-79305776D01*
X37921522Y-79500465D01*
X37889500Y-79702648D01*
X37889500Y-79907351D01*
X37921522Y-80109534D01*
X37984781Y-80304223D01*
X38048691Y-80429653D01*
X38077585Y-80486359D01*
X38077715Y-80486613D01*
X38198028Y-80652213D01*
X38342786Y-80796971D01*
X38508385Y-80917284D01*
X38508387Y-80917285D01*
X38508390Y-80917287D01*
X38600529Y-80964234D01*
X38601630Y-80964795D01*
X38652426Y-81012770D01*
X38669221Y-81080591D01*
X38646684Y-81146725D01*
X38601630Y-81185765D01*
X38508644Y-81233143D01*
X38464077Y-81265523D01*
X38464077Y-81265524D01*
X39143554Y-81945000D01*
X39137339Y-81945000D01*
X39035606Y-81972259D01*
X38944394Y-82024920D01*
X38869920Y-82099394D01*
X38817259Y-82190606D01*
X38790000Y-82292339D01*
X38790000Y-82298553D01*
X38110524Y-81619077D01*
X38110523Y-81619077D01*
X38078143Y-81663644D01*
X37985244Y-81845968D01*
X37922009Y-82040582D01*
X37890000Y-82242682D01*
X37890000Y-82447317D01*
X37922009Y-82649417D01*
X37985244Y-82844031D01*
X38078141Y-83026350D01*
X38078147Y-83026359D01*
X38110523Y-83070921D01*
X38110524Y-83070922D01*
X38790000Y-82391446D01*
X38790000Y-82397661D01*
X38817259Y-82499394D01*
X38869920Y-82590606D01*
X38944394Y-82665080D01*
X39035606Y-82717741D01*
X39137339Y-82745000D01*
X39143553Y-82745000D01*
X38464076Y-83424474D01*
X38508652Y-83456861D01*
X38601628Y-83504234D01*
X38652425Y-83552208D01*
X38669220Y-83620029D01*
X38646683Y-83686164D01*
X38601630Y-83725203D01*
X38508388Y-83772713D01*
X38342786Y-83893028D01*
X38198028Y-84037786D01*
X38077715Y-84203386D01*
X37984781Y-84385776D01*
X37921522Y-84580465D01*
X37891771Y-84768308D01*
X37889500Y-84782648D01*
X37889500Y-84987352D01*
X37892704Y-85007579D01*
X37921522Y-85189534D01*
X37984781Y-85384223D01*
X38048691Y-85509653D01*
X38055381Y-85522782D01*
X38077715Y-85566613D01*
X38198028Y-85732213D01*
X38342786Y-85876971D01*
X38497749Y-85989556D01*
X38508390Y-85997287D01*
X38624607Y-86056503D01*
X38690776Y-86090218D01*
X38690778Y-86090218D01*
X38690781Y-86090220D01*
X38795137Y-86124127D01*
X38885465Y-86153477D01*
X38962966Y-86165751D01*
X39033513Y-86176925D01*
X39096648Y-86206854D01*
X39101796Y-86211716D01*
X39912860Y-87022781D01*
X39912861Y-87022782D01*
X40052218Y-87162139D01*
X40216086Y-87271632D01*
X40322745Y-87315811D01*
X40398164Y-87347051D01*
X40591454Y-87385499D01*
X40591457Y-87385500D01*
X40591459Y-87385500D01*
X48536042Y-87385500D01*
X48567066Y-87379328D01*
X48632688Y-87366275D01*
X48729336Y-87347051D01*
X48782665Y-87324961D01*
X48911414Y-87271632D01*
X49075282Y-87162139D01*
X49214639Y-87022782D01*
X49214640Y-87022779D01*
X49221706Y-87015714D01*
X49221709Y-87015710D01*
X64677309Y-71560109D01*
X64738630Y-71526626D01*
X64781170Y-71524853D01*
X64942106Y-71546040D01*
X64956973Y-71547998D01*
X64956989Y-71548000D01*
X64956996Y-71548000D01*
X65193004Y-71548000D01*
X65193011Y-71548000D01*
X65427014Y-71517193D01*
X65654993Y-71456106D01*
X65873049Y-71365784D01*
X66077450Y-71247773D01*
X66264699Y-71104092D01*
X66431592Y-70937199D01*
X66539543Y-70796513D01*
X66542621Y-70794265D01*
X66544206Y-70790797D01*
X66570620Y-70773821D01*
X66595971Y-70755311D01*
X66600708Y-70754485D01*
X66602984Y-70753023D01*
X66637919Y-70748000D01*
X66881718Y-70748000D01*
X66948757Y-70767685D01*
X66969399Y-70784319D01*
X81704735Y-85519655D01*
X81704764Y-85519686D01*
X81847214Y-85662136D01*
X81847218Y-85662139D01*
X82011079Y-85771628D01*
X82011092Y-85771635D01*
X82139833Y-85824961D01*
X82182744Y-85842735D01*
X82193164Y-85847051D01*
X82289812Y-85866275D01*
X82338135Y-85875887D01*
X82386458Y-85885500D01*
X82386459Y-85885500D01*
X82386460Y-85885500D01*
X82583540Y-85885500D01*
X82814238Y-85885500D01*
X82881277Y-85905185D01*
X82887119Y-85909179D01*
X83008390Y-85997287D01*
X83124607Y-86056503D01*
X83190776Y-86090218D01*
X83190778Y-86090218D01*
X83190781Y-86090220D01*
X83295137Y-86124127D01*
X83385465Y-86153477D01*
X83486557Y-86169488D01*
X83587648Y-86185500D01*
X83587649Y-86185500D01*
X83792351Y-86185500D01*
X83792352Y-86185500D01*
X83994534Y-86153477D01*
X84189219Y-86090220D01*
X84371610Y-85997287D01*
X84498379Y-85905185D01*
X84537213Y-85876971D01*
X84537215Y-85876968D01*
X84537219Y-85876966D01*
X84681966Y-85732219D01*
X84681968Y-85732215D01*
X84681971Y-85732213D01*
X84734732Y-85659590D01*
X84802287Y-85566610D01*
X84895220Y-85384219D01*
X84958477Y-85189534D01*
X84990500Y-84987352D01*
X84990500Y-84782648D01*
X84981926Y-84728513D01*
X84958477Y-84580465D01*
X84927458Y-84485000D01*
X84895220Y-84385781D01*
X84895218Y-84385778D01*
X84895218Y-84385776D01*
X84802419Y-84203650D01*
X84802287Y-84203390D01*
X84770092Y-84159077D01*
X84681971Y-84037786D01*
X84537213Y-83893028D01*
X84371614Y-83772715D01*
X84365006Y-83769348D01*
X84278917Y-83725483D01*
X84228123Y-83677511D01*
X84211328Y-83609690D01*
X84233865Y-83543555D01*
X84278917Y-83504516D01*
X84371610Y-83457287D01*
X84416774Y-83424474D01*
X84537213Y-83336971D01*
X84537215Y-83336968D01*
X84537219Y-83336966D01*
X84681966Y-83192219D01*
X84681968Y-83192215D01*
X84681971Y-83192213D01*
X84734732Y-83119590D01*
X84802287Y-83026610D01*
X84895220Y-82844219D01*
X84958477Y-82649534D01*
X84990500Y-82447352D01*
X84990500Y-82242648D01*
X84982257Y-82190606D01*
X84958477Y-82040465D01*
X84927458Y-81945000D01*
X84895220Y-81845781D01*
X84895218Y-81845778D01*
X84895218Y-81845776D01*
X84802419Y-81663650D01*
X84802287Y-81663390D01*
X84770092Y-81619077D01*
X84681971Y-81497786D01*
X84537213Y-81353028D01*
X84371611Y-81232713D01*
X84278369Y-81185203D01*
X84227574Y-81137229D01*
X84210779Y-81069407D01*
X84233317Y-81003273D01*
X84278371Y-80964234D01*
X84371346Y-80916861D01*
X84371347Y-80916861D01*
X84415921Y-80884474D01*
X83736447Y-80205000D01*
X83742661Y-80205000D01*
X83844394Y-80177741D01*
X83935606Y-80125080D01*
X84010080Y-80050606D01*
X84062741Y-79959394D01*
X84090000Y-79857661D01*
X84090000Y-79851447D01*
X84769474Y-80530921D01*
X84801859Y-80486349D01*
X84894755Y-80304031D01*
X84957990Y-80109417D01*
X84990000Y-79907317D01*
X84990000Y-79702682D01*
X84957990Y-79500582D01*
X84894755Y-79305968D01*
X84801859Y-79123650D01*
X84769474Y-79079077D01*
X84769474Y-79079076D01*
X84090000Y-79758551D01*
X84090000Y-79752339D01*
X84062741Y-79650606D01*
X84010080Y-79559394D01*
X83935606Y-79484920D01*
X83844394Y-79432259D01*
X83742661Y-79405000D01*
X83736446Y-79405000D01*
X84415922Y-78725524D01*
X84414570Y-78708349D01*
X84400299Y-78689842D01*
X84394320Y-78620229D01*
X84426925Y-78558433D01*
X84476845Y-78527148D01*
X84559334Y-78499814D01*
X84708656Y-78407712D01*
X84832712Y-78283656D01*
X84924814Y-78134334D01*
X84979999Y-77967797D01*
X84990500Y-77865009D01*
X84990499Y-76664992D01*
X84979999Y-76562203D01*
X84924814Y-76395666D01*
X84832712Y-76246344D01*
X84708656Y-76122288D01*
X84599626Y-76055038D01*
X84552903Y-76003091D01*
X84541680Y-75934128D01*
X84569524Y-75870046D01*
X84627592Y-75831190D01*
X84664724Y-75825500D01*
X88404218Y-75825500D01*
X88471257Y-75845185D01*
X88491899Y-75861819D01*
X89983281Y-77353201D01*
X90016766Y-77414524D01*
X90018073Y-77421483D01*
X90041523Y-77569535D01*
X90104781Y-77764223D01*
X90156135Y-77865009D01*
X90187728Y-77927014D01*
X90197715Y-77946613D01*
X90318028Y-78112213D01*
X90462786Y-78256971D01*
X90617749Y-78369556D01*
X90628390Y-78377287D01*
X90719840Y-78423883D01*
X90721080Y-78424515D01*
X90771876Y-78472490D01*
X90788671Y-78540311D01*
X90766134Y-78606446D01*
X90721080Y-78645485D01*
X90628386Y-78692715D01*
X90462786Y-78813028D01*
X90318028Y-78957786D01*
X90197715Y-79123386D01*
X90104781Y-79305776D01*
X90041522Y-79500465D01*
X90009500Y-79702648D01*
X90009500Y-79907351D01*
X90041522Y-80109534D01*
X90104781Y-80304223D01*
X90168691Y-80429653D01*
X90197585Y-80486359D01*
X90197715Y-80486613D01*
X90318028Y-80652213D01*
X90462786Y-80796971D01*
X90628385Y-80917284D01*
X90628387Y-80917285D01*
X90628390Y-80917287D01*
X90720529Y-80964234D01*
X90721630Y-80964795D01*
X90772426Y-81012770D01*
X90789221Y-81080591D01*
X90766684Y-81146725D01*
X90721630Y-81185765D01*
X90628644Y-81233143D01*
X90584077Y-81265523D01*
X90584077Y-81265524D01*
X91263554Y-81945000D01*
X91257339Y-81945000D01*
X91155606Y-81972259D01*
X91064394Y-82024920D01*
X90989920Y-82099394D01*
X90937259Y-82190606D01*
X90910000Y-82292339D01*
X90910000Y-82298553D01*
X90230524Y-81619077D01*
X90230523Y-81619077D01*
X90198143Y-81663644D01*
X90105244Y-81845968D01*
X90042009Y-82040582D01*
X90010000Y-82242682D01*
X90010000Y-82447317D01*
X90042009Y-82649417D01*
X90105244Y-82844031D01*
X90198141Y-83026350D01*
X90198147Y-83026359D01*
X90230523Y-83070921D01*
X90230524Y-83070922D01*
X90910000Y-82391446D01*
X90910000Y-82397661D01*
X90937259Y-82499394D01*
X90989920Y-82590606D01*
X91064394Y-82665080D01*
X91155606Y-82717741D01*
X91257339Y-82745000D01*
X91263553Y-82745000D01*
X90584076Y-83424474D01*
X90628652Y-83456861D01*
X90721628Y-83504234D01*
X90772425Y-83552208D01*
X90789220Y-83620029D01*
X90766683Y-83686164D01*
X90721630Y-83725203D01*
X90628388Y-83772713D01*
X90462786Y-83893028D01*
X90318028Y-84037786D01*
X90197715Y-84203386D01*
X90104781Y-84385776D01*
X90041522Y-84580465D01*
X90011771Y-84768308D01*
X90009500Y-84782648D01*
X90009500Y-84987352D01*
X90012704Y-85007579D01*
X90041522Y-85189534D01*
X90104781Y-85384223D01*
X90168691Y-85509653D01*
X90175381Y-85522782D01*
X90197715Y-85566613D01*
X90318028Y-85732213D01*
X90462786Y-85876971D01*
X90617749Y-85989556D01*
X90628390Y-85997287D01*
X90744607Y-86056503D01*
X90810776Y-86090218D01*
X90810778Y-86090218D01*
X90810781Y-86090220D01*
X90915137Y-86124127D01*
X91005465Y-86153477D01*
X91106557Y-86169488D01*
X91207648Y-86185500D01*
X91207649Y-86185500D01*
X91412351Y-86185500D01*
X91412352Y-86185500D01*
X91614534Y-86153477D01*
X91809219Y-86090220D01*
X91991610Y-85997287D01*
X92118379Y-85905185D01*
X92157213Y-85876971D01*
X92157215Y-85876968D01*
X92157219Y-85876966D01*
X92301966Y-85732219D01*
X92301968Y-85732215D01*
X92301971Y-85732213D01*
X92354732Y-85659590D01*
X92422287Y-85566610D01*
X92515220Y-85384219D01*
X92578477Y-85189534D01*
X92610500Y-84987352D01*
X92610500Y-84782648D01*
X92601926Y-84728513D01*
X92578477Y-84580465D01*
X92547458Y-84485000D01*
X92515220Y-84385781D01*
X92515218Y-84385778D01*
X92515218Y-84385776D01*
X92422419Y-84203650D01*
X92422287Y-84203390D01*
X92390092Y-84159077D01*
X92301971Y-84037786D01*
X92157213Y-83893028D01*
X91991611Y-83772713D01*
X91898369Y-83725203D01*
X91847574Y-83677229D01*
X91830779Y-83609407D01*
X91853317Y-83543273D01*
X91898371Y-83504234D01*
X91991346Y-83456861D01*
X91991347Y-83456861D01*
X92035921Y-83424474D01*
X91356447Y-82745000D01*
X91362661Y-82745000D01*
X91464394Y-82717741D01*
X91555606Y-82665080D01*
X91630080Y-82590606D01*
X91682741Y-82499394D01*
X91710000Y-82397661D01*
X91710000Y-82391447D01*
X92389474Y-83070921D01*
X92421859Y-83026349D01*
X92514755Y-82844031D01*
X92577990Y-82649417D01*
X92610000Y-82447317D01*
X92610000Y-82242682D01*
X92577990Y-82040582D01*
X92514755Y-81845968D01*
X92421859Y-81663650D01*
X92389474Y-81619077D01*
X92389474Y-81619076D01*
X91710000Y-82298551D01*
X91710000Y-82292339D01*
X91682741Y-82190606D01*
X91630080Y-82099394D01*
X91555606Y-82024920D01*
X91464394Y-81972259D01*
X91362661Y-81945000D01*
X91356446Y-81945000D01*
X92035922Y-81265524D01*
X92035921Y-81265523D01*
X91991359Y-81233147D01*
X91991350Y-81233141D01*
X91898369Y-81185765D01*
X91847573Y-81137790D01*
X91830778Y-81069969D01*
X91853315Y-81003835D01*
X91898370Y-80964795D01*
X91899471Y-80964234D01*
X91991610Y-80917287D01*
X92041144Y-80881298D01*
X92157213Y-80796971D01*
X92157215Y-80796968D01*
X92157219Y-80796966D01*
X92301966Y-80652219D01*
X92301968Y-80652215D01*
X92301971Y-80652213D01*
X92354732Y-80579590D01*
X92422287Y-80486610D01*
X92515220Y-80304219D01*
X92578477Y-80109534D01*
X92610500Y-79907352D01*
X92610500Y-79702648D01*
X92602257Y-79650606D01*
X92578477Y-79500465D01*
X92541514Y-79386705D01*
X92515220Y-79305781D01*
X92515218Y-79305778D01*
X92515218Y-79305776D01*
X92481503Y-79239607D01*
X92422287Y-79123390D01*
X92390092Y-79079077D01*
X92301971Y-78957786D01*
X92157213Y-78813028D01*
X91991614Y-78692715D01*
X91985006Y-78689348D01*
X91898917Y-78645483D01*
X91848123Y-78597511D01*
X91831328Y-78529690D01*
X91853865Y-78463555D01*
X91898917Y-78424516D01*
X91991610Y-78377287D01*
X92120482Y-78283657D01*
X92157213Y-78256971D01*
X92157215Y-78256968D01*
X92157219Y-78256966D01*
X92301966Y-78112219D01*
X92301968Y-78112215D01*
X92301971Y-78112213D01*
X92406892Y-77967799D01*
X92422287Y-77946610D01*
X92515220Y-77764219D01*
X92578477Y-77569534D01*
X92610500Y-77367352D01*
X92610500Y-77162648D01*
X92578477Y-76960466D01*
X92515220Y-76765781D01*
X92515218Y-76765778D01*
X92515218Y-76765776D01*
X92463865Y-76664991D01*
X92422287Y-76583390D01*
X92406892Y-76562200D01*
X92301971Y-76417786D01*
X92157213Y-76273028D01*
X91991613Y-76152715D01*
X91991612Y-76152714D01*
X91991610Y-76152713D01*
X91931898Y-76122288D01*
X91809223Y-76059781D01*
X91614535Y-75996523D01*
X91466483Y-75973073D01*
X91403349Y-75943143D01*
X91398201Y-75938281D01*
X89651479Y-74191559D01*
X89651459Y-74191537D01*
X89507785Y-74047863D01*
X89507781Y-74047860D01*
X89343920Y-73938371D01*
X89343911Y-73938366D01*
X89271315Y-73908296D01*
X89215165Y-73885038D01*
X89161836Y-73862949D01*
X89161832Y-73862948D01*
X89161828Y-73862946D01*
X89065188Y-73843724D01*
X88968544Y-73824500D01*
X88968541Y-73824500D01*
X79965782Y-73824500D01*
X79898743Y-73804815D01*
X79878101Y-73788181D01*
X73814903Y-67724983D01*
X80869500Y-67724983D01*
X80869500Y-69925001D01*
X80869501Y-69925018D01*
X80880000Y-70027796D01*
X80880001Y-70027799D01*
X80904276Y-70101054D01*
X80935186Y-70194334D01*
X81027288Y-70343656D01*
X81151344Y-70467712D01*
X81300666Y-70559814D01*
X81467203Y-70614999D01*
X81569991Y-70625500D01*
X83770008Y-70625499D01*
X83872797Y-70614999D01*
X84039334Y-70559814D01*
X84188656Y-70467712D01*
X84312712Y-70343656D01*
X84404814Y-70194334D01*
X84459999Y-70027797D01*
X84470500Y-69925009D01*
X84470499Y-68707014D01*
X85950000Y-68707014D01*
X85950000Y-68942985D01*
X85980799Y-69176914D01*
X86041870Y-69404837D01*
X86132160Y-69622819D01*
X86132165Y-69622828D01*
X86250144Y-69827171D01*
X86250145Y-69827172D01*
X86312721Y-69908723D01*
X87148958Y-69072487D01*
X87173978Y-69132890D01*
X87245112Y-69239351D01*
X87335649Y-69329888D01*
X87442110Y-69401022D01*
X87502511Y-69426041D01*
X86666275Y-70262277D01*
X86747827Y-70324854D01*
X86747828Y-70324855D01*
X86952171Y-70442834D01*
X86952180Y-70442839D01*
X87170163Y-70533129D01*
X87170161Y-70533129D01*
X87398085Y-70594200D01*
X87632014Y-70624999D01*
X87632029Y-70625000D01*
X87867971Y-70625000D01*
X87867985Y-70624999D01*
X88101914Y-70594200D01*
X88329837Y-70533129D01*
X88547819Y-70442839D01*
X88547828Y-70442834D01*
X88752181Y-70324850D01*
X88833723Y-70262279D01*
X88833723Y-70262276D01*
X87997487Y-69426041D01*
X88057890Y-69401022D01*
X88164351Y-69329888D01*
X88254888Y-69239351D01*
X88326022Y-69132890D01*
X88351041Y-69072487D01*
X89187276Y-69908723D01*
X89187279Y-69908723D01*
X89249850Y-69827181D01*
X89367834Y-69622828D01*
X89367839Y-69622819D01*
X89458129Y-69404837D01*
X89519200Y-69176914D01*
X89549999Y-68942985D01*
X89550000Y-68942971D01*
X89550000Y-68707021D01*
X89549997Y-68706995D01*
X91029500Y-68706995D01*
X91029500Y-68943004D01*
X91029501Y-68943020D01*
X91060306Y-69177010D01*
X91121394Y-69404993D01*
X91211714Y-69623045D01*
X91211719Y-69623056D01*
X91246606Y-69683481D01*
X91329727Y-69827450D01*
X91329729Y-69827453D01*
X91329730Y-69827454D01*
X91473406Y-70014697D01*
X91473412Y-70014704D01*
X91640295Y-70181587D01*
X91640302Y-70181593D01*
X91750306Y-70266001D01*
X91827550Y-70325273D01*
X91952651Y-70397500D01*
X92031943Y-70443280D01*
X92031948Y-70443282D01*
X92031951Y-70443284D01*
X92250007Y-70533606D01*
X92477986Y-70594693D01*
X92711989Y-70625500D01*
X92711996Y-70625500D01*
X92948004Y-70625500D01*
X92948011Y-70625500D01*
X93182014Y-70594693D01*
X93409993Y-70533606D01*
X93628049Y-70443284D01*
X93832450Y-70325273D01*
X94019699Y-70181592D01*
X94186592Y-70014699D01*
X94330273Y-69827450D01*
X94448284Y-69623049D01*
X94538606Y-69404993D01*
X94599693Y-69177014D01*
X94630500Y-68943011D01*
X94630500Y-68706989D01*
X94599693Y-68472986D01*
X94538606Y-68245007D01*
X94448284Y-68026951D01*
X94448282Y-68026948D01*
X94448280Y-68026943D01*
X94381155Y-67910681D01*
X94330273Y-67822550D01*
X94186592Y-67635301D01*
X94186587Y-67635295D01*
X94019704Y-67468412D01*
X94019697Y-67468406D01*
X93832454Y-67324730D01*
X93832453Y-67324729D01*
X93832450Y-67324727D01*
X93750957Y-67277677D01*
X93628056Y-67206719D01*
X93628045Y-67206714D01*
X93409993Y-67116394D01*
X93182010Y-67055306D01*
X92948020Y-67024501D01*
X92948017Y-67024500D01*
X92948011Y-67024500D01*
X92711989Y-67024500D01*
X92711983Y-67024500D01*
X92711979Y-67024501D01*
X92477989Y-67055306D01*
X92250006Y-67116394D01*
X92031954Y-67206714D01*
X92031943Y-67206719D01*
X91827545Y-67324730D01*
X91640302Y-67468406D01*
X91640295Y-67468412D01*
X91473412Y-67635295D01*
X91473406Y-67635302D01*
X91329730Y-67822545D01*
X91329727Y-67822549D01*
X91329727Y-67822550D01*
X91322014Y-67835909D01*
X91211719Y-68026943D01*
X91211714Y-68026954D01*
X91121394Y-68245006D01*
X91060306Y-68472989D01*
X91029501Y-68706979D01*
X91029500Y-68706995D01*
X89549997Y-68706995D01*
X89519200Y-68473085D01*
X89458129Y-68245162D01*
X89367839Y-68027180D01*
X89367834Y-68027171D01*
X89249855Y-67822828D01*
X89249854Y-67822827D01*
X89187277Y-67741275D01*
X88351041Y-68577511D01*
X88326022Y-68517110D01*
X88254888Y-68410649D01*
X88164351Y-68320112D01*
X88057890Y-68248978D01*
X87997488Y-68223958D01*
X88833723Y-67387721D01*
X88752172Y-67325145D01*
X88752171Y-67325144D01*
X88547828Y-67207165D01*
X88547819Y-67207160D01*
X88329836Y-67116870D01*
X88329838Y-67116870D01*
X88101914Y-67055799D01*
X87867985Y-67025000D01*
X87632014Y-67025000D01*
X87398085Y-67055799D01*
X87170162Y-67116870D01*
X86952180Y-67207160D01*
X86952171Y-67207165D01*
X86747828Y-67325144D01*
X86747818Y-67325150D01*
X86666275Y-67387720D01*
X86666275Y-67387721D01*
X87502512Y-68223958D01*
X87442110Y-68248978D01*
X87335649Y-68320112D01*
X87245112Y-68410649D01*
X87173978Y-68517110D01*
X87148958Y-68577511D01*
X86312721Y-67741275D01*
X86312720Y-67741275D01*
X86250150Y-67822818D01*
X86250144Y-67822828D01*
X86132165Y-68027171D01*
X86132160Y-68027180D01*
X86041870Y-68245162D01*
X85980799Y-68473085D01*
X85950000Y-68707014D01*
X84470499Y-68707014D01*
X84470499Y-67724992D01*
X84459999Y-67622203D01*
X84404814Y-67455666D01*
X84312712Y-67306344D01*
X84188656Y-67182288D01*
X84039334Y-67090186D01*
X83872797Y-67035001D01*
X83872795Y-67035000D01*
X83770010Y-67024500D01*
X81569998Y-67024500D01*
X81569981Y-67024501D01*
X81467203Y-67035000D01*
X81467200Y-67035001D01*
X81300668Y-67090185D01*
X81300663Y-67090187D01*
X81151342Y-67182289D01*
X81027289Y-67306342D01*
X80935187Y-67455663D01*
X80935185Y-67455668D01*
X80928886Y-67474678D01*
X80880001Y-67622203D01*
X80880001Y-67622204D01*
X80880000Y-67622204D01*
X80869500Y-67724983D01*
X73814903Y-67724983D01*
X72031479Y-65941559D01*
X72031459Y-65941537D01*
X71887785Y-65797863D01*
X71887781Y-65797860D01*
X71723920Y-65688371D01*
X71723911Y-65688366D01*
X71651315Y-65658296D01*
X71595165Y-65635038D01*
X71541836Y-65612949D01*
X71541832Y-65612948D01*
X71541828Y-65612946D01*
X71445188Y-65593724D01*
X71348544Y-65574500D01*
X71348541Y-65574500D01*
X58192175Y-65574500D01*
X58192155Y-65574499D01*
X58186041Y-65574499D01*
X57988960Y-65574499D01*
X57988957Y-65574499D01*
X57795672Y-65612946D01*
X57795664Y-65612948D01*
X57613588Y-65688366D01*
X57613579Y-65688371D01*
X57449719Y-65797859D01*
X57449715Y-65797862D01*
X55336897Y-67910681D01*
X55275574Y-67944166D01*
X55249216Y-67947000D01*
X53814998Y-67947000D01*
X53814981Y-67947001D01*
X53712203Y-67957500D01*
X53712200Y-67957501D01*
X53545668Y-68012685D01*
X53545663Y-68012687D01*
X53396342Y-68104789D01*
X53272289Y-68228842D01*
X53180187Y-68378163D01*
X53180185Y-68378168D01*
X53175962Y-68390912D01*
X53125001Y-68544703D01*
X53125001Y-68544704D01*
X53125000Y-68544704D01*
X53114500Y-68647483D01*
X53114500Y-69494216D01*
X53094815Y-69561255D01*
X53078181Y-69581897D01*
X46721797Y-75938281D01*
X46660474Y-75971766D01*
X46653515Y-75973073D01*
X46505468Y-75996522D01*
X46310778Y-76059781D01*
X46128386Y-76152715D01*
X45962786Y-76273028D01*
X45818028Y-76417786D01*
X45697715Y-76583386D01*
X45604781Y-76765776D01*
X45541522Y-76960465D01*
X45509500Y-77162648D01*
X45509500Y-77367351D01*
X45541522Y-77569534D01*
X45604781Y-77764223D01*
X45656135Y-77865009D01*
X45687728Y-77927014D01*
X45697715Y-77946613D01*
X45818028Y-78112213D01*
X45962786Y-78256971D01*
X46117749Y-78369556D01*
X46128390Y-78377287D01*
X46219840Y-78423883D01*
X46221080Y-78424515D01*
X46271876Y-78472490D01*
X46288671Y-78540311D01*
X46266134Y-78606446D01*
X46221080Y-78645485D01*
X46128386Y-78692715D01*
X45962786Y-78813028D01*
X45818028Y-78957786D01*
X45697715Y-79123386D01*
X45604781Y-79305776D01*
X45541522Y-79500465D01*
X45509500Y-79702648D01*
X45509500Y-79907351D01*
X45541522Y-80109534D01*
X45604781Y-80304223D01*
X45668691Y-80429653D01*
X45697585Y-80486359D01*
X45697715Y-80486613D01*
X45818028Y-80652213D01*
X45962786Y-80796971D01*
X46083226Y-80884474D01*
X46128390Y-80917287D01*
X46219840Y-80963883D01*
X46221080Y-80964515D01*
X46271876Y-81012490D01*
X46288671Y-81080311D01*
X46266134Y-81146446D01*
X46221080Y-81185485D01*
X46128386Y-81232715D01*
X45962786Y-81353028D01*
X45818028Y-81497786D01*
X45697715Y-81663386D01*
X45604781Y-81845776D01*
X45541522Y-82040465D01*
X45509500Y-82242648D01*
X45509500Y-82447351D01*
X45541522Y-82649534D01*
X45604781Y-82844223D01*
X45668691Y-82969653D01*
X45697585Y-83026359D01*
X45697715Y-83026613D01*
X45818028Y-83192213D01*
X45962786Y-83336971D01*
X46128385Y-83457284D01*
X46128387Y-83457285D01*
X46128390Y-83457287D01*
X46220529Y-83504234D01*
X46221630Y-83504795D01*
X46272426Y-83552770D01*
X46289221Y-83620591D01*
X46266684Y-83686725D01*
X46221630Y-83725765D01*
X46128644Y-83773143D01*
X46084077Y-83805523D01*
X46084077Y-83805524D01*
X46763554Y-84485000D01*
X46757339Y-84485000D01*
X46655606Y-84512259D01*
X46564394Y-84564920D01*
X46489920Y-84639394D01*
X46437259Y-84730606D01*
X46410000Y-84832339D01*
X46410000Y-84838553D01*
X45730524Y-84159077D01*
X45730523Y-84159077D01*
X45698143Y-84203644D01*
X45605244Y-84385968D01*
X45542009Y-84580582D01*
X45510000Y-84782682D01*
X45510000Y-84987317D01*
X45542010Y-85189418D01*
X45542011Y-85189425D01*
X45552655Y-85222183D01*
X45554650Y-85292024D01*
X45518569Y-85351857D01*
X45455868Y-85382684D01*
X45434724Y-85384500D01*
X41155783Y-85384500D01*
X41088744Y-85364815D01*
X41068102Y-85348181D01*
X40516717Y-84796797D01*
X40483232Y-84735474D01*
X40481925Y-84728513D01*
X40458477Y-84580466D01*
X40458477Y-84580465D01*
X40427458Y-84485000D01*
X40395220Y-84385781D01*
X40395218Y-84385778D01*
X40395218Y-84385776D01*
X40302419Y-84203650D01*
X40302287Y-84203390D01*
X40270092Y-84159077D01*
X40181971Y-84037786D01*
X40037213Y-83893028D01*
X39871611Y-83772713D01*
X39778369Y-83725203D01*
X39727574Y-83677229D01*
X39710779Y-83609407D01*
X39733317Y-83543273D01*
X39778371Y-83504234D01*
X39871346Y-83456861D01*
X39871347Y-83456861D01*
X39915921Y-83424474D01*
X39236447Y-82745000D01*
X39242661Y-82745000D01*
X39344394Y-82717741D01*
X39435606Y-82665080D01*
X39510080Y-82590606D01*
X39562741Y-82499394D01*
X39590000Y-82397661D01*
X39590000Y-82391447D01*
X40269474Y-83070921D01*
X40301859Y-83026349D01*
X40394755Y-82844031D01*
X40457990Y-82649417D01*
X40490000Y-82447317D01*
X40490000Y-82242682D01*
X40457990Y-82040582D01*
X40394755Y-81845968D01*
X40301859Y-81663650D01*
X40269474Y-81619077D01*
X40269474Y-81619076D01*
X39590000Y-82298551D01*
X39590000Y-82292339D01*
X39562741Y-82190606D01*
X39510080Y-82099394D01*
X39435606Y-82024920D01*
X39344394Y-81972259D01*
X39242661Y-81945000D01*
X39236446Y-81945000D01*
X39915922Y-81265524D01*
X39915921Y-81265523D01*
X39871359Y-81233147D01*
X39871350Y-81233141D01*
X39778369Y-81185765D01*
X39727573Y-81137790D01*
X39710778Y-81069969D01*
X39733315Y-81003835D01*
X39778370Y-80964795D01*
X39779471Y-80964234D01*
X39871610Y-80917287D01*
X39921144Y-80881298D01*
X40037213Y-80796971D01*
X40037215Y-80796968D01*
X40037219Y-80796966D01*
X40181966Y-80652219D01*
X40181968Y-80652215D01*
X40181971Y-80652213D01*
X40234732Y-80579590D01*
X40302287Y-80486610D01*
X40395220Y-80304219D01*
X40458477Y-80109534D01*
X40490500Y-79907352D01*
X40490500Y-79702648D01*
X40482257Y-79650606D01*
X40458477Y-79500465D01*
X40421514Y-79386705D01*
X40395220Y-79305781D01*
X40395218Y-79305778D01*
X40395218Y-79305776D01*
X40361503Y-79239607D01*
X40302287Y-79123390D01*
X40270092Y-79079077D01*
X40181971Y-78957786D01*
X40037219Y-78813034D01*
X40037211Y-78813028D01*
X39943547Y-78744978D01*
X39900882Y-78689649D01*
X39894903Y-78620036D01*
X39927508Y-78558240D01*
X39977426Y-78526955D01*
X40059334Y-78499814D01*
X40208656Y-78407712D01*
X40332712Y-78283656D01*
X40424814Y-78134334D01*
X40479999Y-77967797D01*
X40490500Y-77865009D01*
X40490499Y-76664992D01*
X40479999Y-76562203D01*
X40424814Y-76395666D01*
X40332712Y-76246344D01*
X40208656Y-76122288D01*
X40099627Y-76055039D01*
X40059336Y-76030187D01*
X40059331Y-76030185D01*
X40057862Y-76029698D01*
X39892797Y-75975001D01*
X39892795Y-75975000D01*
X39790010Y-75964500D01*
X38589998Y-75964500D01*
X38589981Y-75964501D01*
X38487203Y-75975000D01*
X38487200Y-75975001D01*
X38320668Y-76030185D01*
X38320663Y-76030187D01*
X38171342Y-76122289D01*
X38047289Y-76246342D01*
X37955187Y-76395663D01*
X37955186Y-76395666D01*
X37900001Y-76562203D01*
X37900001Y-76562204D01*
X37900000Y-76562204D01*
X37889500Y-76664983D01*
X29553639Y-76664983D01*
X29500273Y-76572550D01*
X29364547Y-76395668D01*
X29356593Y-76385302D01*
X29356587Y-76385295D01*
X29189704Y-76218412D01*
X29189697Y-76218406D01*
X29002454Y-76074730D01*
X29002453Y-76074729D01*
X29002450Y-76074727D01*
X28878373Y-76003091D01*
X28798056Y-75956719D01*
X28798045Y-75956714D01*
X28579993Y-75866394D01*
X28352010Y-75805306D01*
X28118020Y-75774501D01*
X28118017Y-75774500D01*
X28118011Y-75774500D01*
X27881989Y-75774500D01*
X27881983Y-75774500D01*
X27881979Y-75774501D01*
X27647989Y-75805306D01*
X27420006Y-75866394D01*
X27201954Y-75956714D01*
X27201943Y-75956719D01*
X26997545Y-76074730D01*
X26810302Y-76218406D01*
X26810295Y-76218412D01*
X26643412Y-76385295D01*
X26643406Y-76385302D01*
X26499730Y-76572545D01*
X26381719Y-76776943D01*
X26381714Y-76776954D01*
X26291394Y-76995006D01*
X26230306Y-77222989D01*
X26199501Y-77456979D01*
X26199500Y-77456995D01*
X26199500Y-77693004D01*
X26199501Y-77693020D01*
X26230306Y-77927010D01*
X26291394Y-78154993D01*
X26381714Y-78373045D01*
X26381719Y-78373056D01*
X26439128Y-78472490D01*
X26499727Y-78577450D01*
X26499729Y-78577453D01*
X26499730Y-78577454D01*
X26643406Y-78764697D01*
X26643412Y-78764704D01*
X26810295Y-78931587D01*
X26810302Y-78931593D01*
X26826909Y-78944336D01*
X26997550Y-79075273D01*
X27128918Y-79151118D01*
X27201943Y-79193280D01*
X27201948Y-79193282D01*
X27201951Y-79193284D01*
X27420007Y-79283606D01*
X27647986Y-79344693D01*
X27881989Y-79375500D01*
X27881996Y-79375500D01*
X28118004Y-79375500D01*
X28118011Y-79375500D01*
X28352014Y-79344693D01*
X28563877Y-79287924D01*
X28575874Y-79288209D01*
X28587120Y-79284015D01*
X28610156Y-79289025D01*
X28633724Y-79289587D01*
X28645371Y-79296686D01*
X28655393Y-79298866D01*
X28683648Y-79320016D01*
X28713180Y-79349547D01*
X28746666Y-79410870D01*
X28749500Y-79437230D01*
X28749500Y-88848918D01*
X28749500Y-88848920D01*
X28749499Y-88848920D01*
X28778340Y-88993907D01*
X28778343Y-88993917D01*
X28834913Y-89130490D01*
X28834914Y-89130491D01*
X28834916Y-89130495D01*
X28847225Y-89148916D01*
X28847226Y-89148918D01*
X28917051Y-89253420D01*
X28917052Y-89253421D01*
X29321584Y-89657952D01*
X29321586Y-89657954D01*
X29351058Y-89677645D01*
X29395270Y-89707186D01*
X29444505Y-89740084D01*
X29444506Y-89740084D01*
X29444507Y-89740085D01*
X29444509Y-89740086D01*
X29581082Y-89796656D01*
X29581087Y-89796658D01*
X29581091Y-89796658D01*
X29581092Y-89796659D01*
X29726079Y-89825500D01*
X29726082Y-89825500D01*
X29726083Y-89825500D01*
X29873917Y-89825500D01*
X32213770Y-89825500D01*
X32280809Y-89845185D01*
X32326564Y-89897989D01*
X32336508Y-89967147D01*
X32307483Y-90030703D01*
X32301451Y-90037181D01*
X29775450Y-92563181D01*
X29714127Y-92596666D01*
X29687769Y-92599500D01*
X29213330Y-92599500D01*
X29213312Y-92599501D01*
X29112247Y-92609825D01*
X29112241Y-92609827D01*
X28985013Y-92651986D01*
X28915185Y-92654388D01*
X28858329Y-92621961D01*
X23706819Y-87470451D01*
X23673334Y-87409128D01*
X23670500Y-87382770D01*
X23670500Y-79499499D01*
X23690185Y-79432460D01*
X23742989Y-79386705D01*
X23794500Y-79375499D01*
X24020002Y-79375499D01*
X24020008Y-79375499D01*
X24122797Y-79364999D01*
X24289334Y-79309814D01*
X24438656Y-79217712D01*
X24562712Y-79093656D01*
X24654814Y-78944334D01*
X24709999Y-78777797D01*
X24720500Y-78675009D01*
X24720499Y-76474992D01*
X24709999Y-76372203D01*
X24654814Y-76205666D01*
X24562712Y-76056344D01*
X24438656Y-75932288D01*
X24289334Y-75840186D01*
X24122797Y-75785001D01*
X24122795Y-75785000D01*
X24020010Y-75774500D01*
X21819998Y-75774500D01*
X21819981Y-75774501D01*
X21717203Y-75785000D01*
X21717200Y-75785001D01*
X21550668Y-75840185D01*
X21550663Y-75840187D01*
X21401342Y-75932289D01*
X21277289Y-76056342D01*
X21185187Y-76205663D01*
X21185185Y-76205668D01*
X21162864Y-76273028D01*
X21130001Y-76372203D01*
X21130001Y-76372204D01*
X21130000Y-76372204D01*
X21119500Y-76474983D01*
X18001019Y-76474983D01*
X18001493Y-69788990D01*
X18021182Y-69721953D01*
X18073990Y-69676202D01*
X18125493Y-69665000D01*
X24372913Y-69665000D01*
X24372913Y-63195315D01*
X24392598Y-63128276D01*
X24445402Y-63082521D01*
X24496916Y-63071316D01*
X106077406Y-63077108D01*
G37*
%TD.AperFunction*%
%TD*%
M02*
