%TF.GenerationSoftware,KiCad,Pcbnew,10.0.1*%
%TF.CreationDate,2026-05-12T02:02:38+09:00*%
%TF.ProjectId,AudioCase,41756469-6f43-4617-9365-2e6b69636164,rev?*%
%TF.SameCoordinates,Original*%
%TF.FileFunction,Legend,Bot*%
%TF.FilePolarity,Positive*%
%FSLAX46Y46*%
G04 Gerber Fmt 4.6, Leading zero omitted, Abs format (unit mm)*
G04 Created by KiCad (PCBNEW 10.0.1) date 2026-05-12 02:02:38*
%MOMM*%
%LPD*%
G01*
G04 APERTURE LIST*
%ADD10C,0.150000*%
%ADD11C,0.120000*%
G04 APERTURE END LIST*
D10*
X28524819Y-94333333D02*
X28048628Y-94000000D01*
X28524819Y-93761905D02*
X27524819Y-93761905D01*
X27524819Y-93761905D02*
X27524819Y-94142857D01*
X27524819Y-94142857D02*
X27572438Y-94238095D01*
X27572438Y-94238095D02*
X27620057Y-94285714D01*
X27620057Y-94285714D02*
X27715295Y-94333333D01*
X27715295Y-94333333D02*
X27858152Y-94333333D01*
X27858152Y-94333333D02*
X27953390Y-94285714D01*
X27953390Y-94285714D02*
X28001009Y-94238095D01*
X28001009Y-94238095D02*
X28048628Y-94142857D01*
X28048628Y-94142857D02*
X28048628Y-93761905D01*
X27858152Y-95190476D02*
X28524819Y-95190476D01*
X27477200Y-94952381D02*
X28191485Y-94714286D01*
X28191485Y-94714286D02*
X28191485Y-95333333D01*
X89954819Y-94383333D02*
X89478628Y-94050000D01*
X89954819Y-93811905D02*
X88954819Y-93811905D01*
X88954819Y-93811905D02*
X88954819Y-94192857D01*
X88954819Y-94192857D02*
X89002438Y-94288095D01*
X89002438Y-94288095D02*
X89050057Y-94335714D01*
X89050057Y-94335714D02*
X89145295Y-94383333D01*
X89145295Y-94383333D02*
X89288152Y-94383333D01*
X89288152Y-94383333D02*
X89383390Y-94335714D01*
X89383390Y-94335714D02*
X89431009Y-94288095D01*
X89431009Y-94288095D02*
X89478628Y-94192857D01*
X89478628Y-94192857D02*
X89478628Y-93811905D01*
X88954819Y-94716667D02*
X88954819Y-95335714D01*
X88954819Y-95335714D02*
X89335771Y-95002381D01*
X89335771Y-95002381D02*
X89335771Y-95145238D01*
X89335771Y-95145238D02*
X89383390Y-95240476D01*
X89383390Y-95240476D02*
X89431009Y-95288095D01*
X89431009Y-95288095D02*
X89526247Y-95335714D01*
X89526247Y-95335714D02*
X89764342Y-95335714D01*
X89764342Y-95335714D02*
X89859580Y-95288095D01*
X89859580Y-95288095D02*
X89907200Y-95240476D01*
X89907200Y-95240476D02*
X89954819Y-95145238D01*
X89954819Y-95145238D02*
X89954819Y-94859524D01*
X89954819Y-94859524D02*
X89907200Y-94764286D01*
X89907200Y-94764286D02*
X89859580Y-94716667D01*
X59454819Y-97670833D02*
X58978628Y-97337500D01*
X59454819Y-97099405D02*
X58454819Y-97099405D01*
X58454819Y-97099405D02*
X58454819Y-97480357D01*
X58454819Y-97480357D02*
X58502438Y-97575595D01*
X58502438Y-97575595D02*
X58550057Y-97623214D01*
X58550057Y-97623214D02*
X58645295Y-97670833D01*
X58645295Y-97670833D02*
X58788152Y-97670833D01*
X58788152Y-97670833D02*
X58883390Y-97623214D01*
X58883390Y-97623214D02*
X58931009Y-97575595D01*
X58931009Y-97575595D02*
X58978628Y-97480357D01*
X58978628Y-97480357D02*
X58978628Y-97099405D01*
X58550057Y-98051786D02*
X58502438Y-98099405D01*
X58502438Y-98099405D02*
X58454819Y-98194643D01*
X58454819Y-98194643D02*
X58454819Y-98432738D01*
X58454819Y-98432738D02*
X58502438Y-98527976D01*
X58502438Y-98527976D02*
X58550057Y-98575595D01*
X58550057Y-98575595D02*
X58645295Y-98623214D01*
X58645295Y-98623214D02*
X58740533Y-98623214D01*
X58740533Y-98623214D02*
X58883390Y-98575595D01*
X58883390Y-98575595D02*
X59454819Y-98004167D01*
X59454819Y-98004167D02*
X59454819Y-98623214D01*
X66884819Y-95133333D02*
X66408628Y-94800000D01*
X66884819Y-94561905D02*
X65884819Y-94561905D01*
X65884819Y-94561905D02*
X65884819Y-94942857D01*
X65884819Y-94942857D02*
X65932438Y-95038095D01*
X65932438Y-95038095D02*
X65980057Y-95085714D01*
X65980057Y-95085714D02*
X66075295Y-95133333D01*
X66075295Y-95133333D02*
X66218152Y-95133333D01*
X66218152Y-95133333D02*
X66313390Y-95085714D01*
X66313390Y-95085714D02*
X66361009Y-95038095D01*
X66361009Y-95038095D02*
X66408628Y-94942857D01*
X66408628Y-94942857D02*
X66408628Y-94561905D01*
X66313390Y-95704762D02*
X66265771Y-95609524D01*
X66265771Y-95609524D02*
X66218152Y-95561905D01*
X66218152Y-95561905D02*
X66122914Y-95514286D01*
X66122914Y-95514286D02*
X66075295Y-95514286D01*
X66075295Y-95514286D02*
X65980057Y-95561905D01*
X65980057Y-95561905D02*
X65932438Y-95609524D01*
X65932438Y-95609524D02*
X65884819Y-95704762D01*
X65884819Y-95704762D02*
X65884819Y-95895238D01*
X65884819Y-95895238D02*
X65932438Y-95990476D01*
X65932438Y-95990476D02*
X65980057Y-96038095D01*
X65980057Y-96038095D02*
X66075295Y-96085714D01*
X66075295Y-96085714D02*
X66122914Y-96085714D01*
X66122914Y-96085714D02*
X66218152Y-96038095D01*
X66218152Y-96038095D02*
X66265771Y-95990476D01*
X66265771Y-95990476D02*
X66313390Y-95895238D01*
X66313390Y-95895238D02*
X66313390Y-95704762D01*
X66313390Y-95704762D02*
X66361009Y-95609524D01*
X66361009Y-95609524D02*
X66408628Y-95561905D01*
X66408628Y-95561905D02*
X66503866Y-95514286D01*
X66503866Y-95514286D02*
X66694342Y-95514286D01*
X66694342Y-95514286D02*
X66789580Y-95561905D01*
X66789580Y-95561905D02*
X66837200Y-95609524D01*
X66837200Y-95609524D02*
X66884819Y-95704762D01*
X66884819Y-95704762D02*
X66884819Y-95895238D01*
X66884819Y-95895238D02*
X66837200Y-95990476D01*
X66837200Y-95990476D02*
X66789580Y-96038095D01*
X66789580Y-96038095D02*
X66694342Y-96085714D01*
X66694342Y-96085714D02*
X66503866Y-96085714D01*
X66503866Y-96085714D02*
X66408628Y-96038095D01*
X66408628Y-96038095D02*
X66361009Y-95990476D01*
X66361009Y-95990476D02*
X66313390Y-95895238D01*
X95884819Y-92883333D02*
X95408628Y-92550000D01*
X95884819Y-92311905D02*
X94884819Y-92311905D01*
X94884819Y-92311905D02*
X94884819Y-92692857D01*
X94884819Y-92692857D02*
X94932438Y-92788095D01*
X94932438Y-92788095D02*
X94980057Y-92835714D01*
X94980057Y-92835714D02*
X95075295Y-92883333D01*
X95075295Y-92883333D02*
X95218152Y-92883333D01*
X95218152Y-92883333D02*
X95313390Y-92835714D01*
X95313390Y-92835714D02*
X95361009Y-92788095D01*
X95361009Y-92788095D02*
X95408628Y-92692857D01*
X95408628Y-92692857D02*
X95408628Y-92311905D01*
X95884819Y-93359524D02*
X95884819Y-93550000D01*
X95884819Y-93550000D02*
X95837200Y-93645238D01*
X95837200Y-93645238D02*
X95789580Y-93692857D01*
X95789580Y-93692857D02*
X95646723Y-93788095D01*
X95646723Y-93788095D02*
X95456247Y-93835714D01*
X95456247Y-93835714D02*
X95075295Y-93835714D01*
X95075295Y-93835714D02*
X94980057Y-93788095D01*
X94980057Y-93788095D02*
X94932438Y-93740476D01*
X94932438Y-93740476D02*
X94884819Y-93645238D01*
X94884819Y-93645238D02*
X94884819Y-93454762D01*
X94884819Y-93454762D02*
X94932438Y-93359524D01*
X94932438Y-93359524D02*
X94980057Y-93311905D01*
X94980057Y-93311905D02*
X95075295Y-93264286D01*
X95075295Y-93264286D02*
X95313390Y-93264286D01*
X95313390Y-93264286D02*
X95408628Y-93311905D01*
X95408628Y-93311905D02*
X95456247Y-93359524D01*
X95456247Y-93359524D02*
X95503866Y-93454762D01*
X95503866Y-93454762D02*
X95503866Y-93645238D01*
X95503866Y-93645238D02*
X95456247Y-93740476D01*
X95456247Y-93740476D02*
X95408628Y-93788095D01*
X95408628Y-93788095D02*
X95313390Y-93835714D01*
X33654819Y-93957142D02*
X33178628Y-93623809D01*
X33654819Y-93385714D02*
X32654819Y-93385714D01*
X32654819Y-93385714D02*
X32654819Y-93766666D01*
X32654819Y-93766666D02*
X32702438Y-93861904D01*
X32702438Y-93861904D02*
X32750057Y-93909523D01*
X32750057Y-93909523D02*
X32845295Y-93957142D01*
X32845295Y-93957142D02*
X32988152Y-93957142D01*
X32988152Y-93957142D02*
X33083390Y-93909523D01*
X33083390Y-93909523D02*
X33131009Y-93861904D01*
X33131009Y-93861904D02*
X33178628Y-93766666D01*
X33178628Y-93766666D02*
X33178628Y-93385714D01*
X33654819Y-94909523D02*
X33654819Y-94338095D01*
X33654819Y-94623809D02*
X32654819Y-94623809D01*
X32654819Y-94623809D02*
X32797676Y-94528571D01*
X32797676Y-94528571D02*
X32892914Y-94433333D01*
X32892914Y-94433333D02*
X32940533Y-94338095D01*
X32654819Y-95528571D02*
X32654819Y-95623809D01*
X32654819Y-95623809D02*
X32702438Y-95719047D01*
X32702438Y-95719047D02*
X32750057Y-95766666D01*
X32750057Y-95766666D02*
X32845295Y-95814285D01*
X32845295Y-95814285D02*
X33035771Y-95861904D01*
X33035771Y-95861904D02*
X33273866Y-95861904D01*
X33273866Y-95861904D02*
X33464342Y-95814285D01*
X33464342Y-95814285D02*
X33559580Y-95766666D01*
X33559580Y-95766666D02*
X33607200Y-95719047D01*
X33607200Y-95719047D02*
X33654819Y-95623809D01*
X33654819Y-95623809D02*
X33654819Y-95528571D01*
X33654819Y-95528571D02*
X33607200Y-95433333D01*
X33607200Y-95433333D02*
X33559580Y-95385714D01*
X33559580Y-95385714D02*
X33464342Y-95338095D01*
X33464342Y-95338095D02*
X33273866Y-95290476D01*
X33273866Y-95290476D02*
X33035771Y-95290476D01*
X33035771Y-95290476D02*
X32845295Y-95338095D01*
X32845295Y-95338095D02*
X32750057Y-95385714D01*
X32750057Y-95385714D02*
X32702438Y-95433333D01*
X32702438Y-95433333D02*
X32654819Y-95528571D01*
%TO.C,R4*%
D11*
X28977500Y-94245276D02*
X28977500Y-94754724D01*
X30022500Y-94245276D02*
X30022500Y-94754724D01*
%TO.C,R3*%
X87477500Y-94295276D02*
X87477500Y-94804724D01*
X88522500Y-94295276D02*
X88522500Y-94804724D01*
%TO.C,R2*%
X59977500Y-97695276D02*
X59977500Y-98204724D01*
X61022500Y-97695276D02*
X61022500Y-98204724D01*
%TO.C,R8*%
X64477500Y-95554724D02*
X64477500Y-95045276D01*
X65522500Y-95554724D02*
X65522500Y-95045276D01*
%TO.C,R9*%
X93477500Y-93304724D02*
X93477500Y-92795276D01*
X94522500Y-93304724D02*
X94522500Y-92795276D01*
%TO.C,R10*%
X34477500Y-94954724D02*
X34477500Y-94445276D01*
X35522500Y-94954724D02*
X35522500Y-94445276D01*
%TD*%
M02*
