%TF.GenerationSoftware,KiCad,Pcbnew,10.0.1*%
%TF.CreationDate,2026-05-12T02:02:38+09:00*%
%TF.ProjectId,AudioCase,41756469-6f43-4617-9365-2e6b69636164,rev?*%
%TF.SameCoordinates,Original*%
%TF.FileFunction,Legend,Top*%
%TF.FilePolarity,Positive*%
%FSLAX46Y46*%
G04 Gerber Fmt 4.6, Leading zero omitted, Abs format (unit mm)*
G04 Created by KiCad (PCBNEW 10.0.1) date 2026-05-12 02:02:38*
%MOMM*%
%LPD*%
G01*
G04 APERTURE LIST*
%ADD10C,0.300000*%
%ADD11C,0.150000*%
%ADD12C,0.120000*%
G04 APERTURE END LIST*
D10*
X18911653Y-76125828D02*
X18411653Y-75411542D01*
X18054510Y-76125828D02*
X18054510Y-74625828D01*
X18054510Y-74625828D02*
X18625939Y-74625828D01*
X18625939Y-74625828D02*
X18768796Y-74697257D01*
X18768796Y-74697257D02*
X18840225Y-74768685D01*
X18840225Y-74768685D02*
X18911653Y-74911542D01*
X18911653Y-74911542D02*
X18911653Y-75125828D01*
X18911653Y-75125828D02*
X18840225Y-75268685D01*
X18840225Y-75268685D02*
X18768796Y-75340114D01*
X18768796Y-75340114D02*
X18625939Y-75411542D01*
X18625939Y-75411542D02*
X18054510Y-75411542D01*
X32768796Y-74875828D02*
X32054510Y-74875828D01*
X32054510Y-74875828D02*
X32054510Y-73375828D01*
X47840225Y-67875828D02*
X48340225Y-69375828D01*
X48340225Y-69375828D02*
X48840225Y-67875828D01*
X49340224Y-68804400D02*
X50483082Y-68804400D01*
X49911653Y-69375828D02*
X49911653Y-68232971D01*
X69840225Y-68375828D02*
X70340225Y-69875828D01*
X70340225Y-69875828D02*
X70840225Y-68375828D01*
X71340224Y-69304400D02*
X72483082Y-69304400D01*
X79098796Y-65625828D02*
X78384510Y-65625828D01*
X78384510Y-65625828D02*
X78384510Y-64125828D01*
X97741653Y-65625828D02*
X97241653Y-64911542D01*
X96884510Y-65625828D02*
X96884510Y-64125828D01*
X96884510Y-64125828D02*
X97455939Y-64125828D01*
X97455939Y-64125828D02*
X97598796Y-64197257D01*
X97598796Y-64197257D02*
X97670225Y-64268685D01*
X97670225Y-64268685D02*
X97741653Y-64411542D01*
X97741653Y-64411542D02*
X97741653Y-64625828D01*
X97741653Y-64625828D02*
X97670225Y-64768685D01*
X97670225Y-64768685D02*
X97598796Y-64840114D01*
X97598796Y-64840114D02*
X97455939Y-64911542D01*
X97455939Y-64911542D02*
X96884510Y-64911542D01*
D11*
X56359580Y-106266666D02*
X56407200Y-106314285D01*
X56407200Y-106314285D02*
X56454819Y-106457142D01*
X56454819Y-106457142D02*
X56454819Y-106552380D01*
X56454819Y-106552380D02*
X56407200Y-106695237D01*
X56407200Y-106695237D02*
X56311961Y-106790475D01*
X56311961Y-106790475D02*
X56216723Y-106838094D01*
X56216723Y-106838094D02*
X56026247Y-106885713D01*
X56026247Y-106885713D02*
X55883390Y-106885713D01*
X55883390Y-106885713D02*
X55692914Y-106838094D01*
X55692914Y-106838094D02*
X55597676Y-106790475D01*
X55597676Y-106790475D02*
X55502438Y-106695237D01*
X55502438Y-106695237D02*
X55454819Y-106552380D01*
X55454819Y-106552380D02*
X55454819Y-106457142D01*
X55454819Y-106457142D02*
X55502438Y-106314285D01*
X55502438Y-106314285D02*
X55550057Y-106266666D01*
X56454819Y-105790475D02*
X56454819Y-105599999D01*
X56454819Y-105599999D02*
X56407200Y-105504761D01*
X56407200Y-105504761D02*
X56359580Y-105457142D01*
X56359580Y-105457142D02*
X56216723Y-105361904D01*
X56216723Y-105361904D02*
X56026247Y-105314285D01*
X56026247Y-105314285D02*
X55645295Y-105314285D01*
X55645295Y-105314285D02*
X55550057Y-105361904D01*
X55550057Y-105361904D02*
X55502438Y-105409523D01*
X55502438Y-105409523D02*
X55454819Y-105504761D01*
X55454819Y-105504761D02*
X55454819Y-105695237D01*
X55454819Y-105695237D02*
X55502438Y-105790475D01*
X55502438Y-105790475D02*
X55550057Y-105838094D01*
X55550057Y-105838094D02*
X55645295Y-105885713D01*
X55645295Y-105885713D02*
X55883390Y-105885713D01*
X55883390Y-105885713D02*
X55978628Y-105838094D01*
X55978628Y-105838094D02*
X56026247Y-105790475D01*
X56026247Y-105790475D02*
X56073866Y-105695237D01*
X56073866Y-105695237D02*
X56073866Y-105504761D01*
X56073866Y-105504761D02*
X56026247Y-105409523D01*
X56026247Y-105409523D02*
X55978628Y-105361904D01*
X55978628Y-105361904D02*
X55883390Y-105314285D01*
X50857142Y-78934580D02*
X50809523Y-78982200D01*
X50809523Y-78982200D02*
X50666666Y-79029819D01*
X50666666Y-79029819D02*
X50571428Y-79029819D01*
X50571428Y-79029819D02*
X50428571Y-78982200D01*
X50428571Y-78982200D02*
X50333333Y-78886961D01*
X50333333Y-78886961D02*
X50285714Y-78791723D01*
X50285714Y-78791723D02*
X50238095Y-78601247D01*
X50238095Y-78601247D02*
X50238095Y-78458390D01*
X50238095Y-78458390D02*
X50285714Y-78267914D01*
X50285714Y-78267914D02*
X50333333Y-78172676D01*
X50333333Y-78172676D02*
X50428571Y-78077438D01*
X50428571Y-78077438D02*
X50571428Y-78029819D01*
X50571428Y-78029819D02*
X50666666Y-78029819D01*
X50666666Y-78029819D02*
X50809523Y-78077438D01*
X50809523Y-78077438D02*
X50857142Y-78125057D01*
X51809523Y-79029819D02*
X51238095Y-79029819D01*
X51523809Y-79029819D02*
X51523809Y-78029819D01*
X51523809Y-78029819D02*
X51428571Y-78172676D01*
X51428571Y-78172676D02*
X51333333Y-78267914D01*
X51333333Y-78267914D02*
X51238095Y-78315533D01*
X52380952Y-78458390D02*
X52285714Y-78410771D01*
X52285714Y-78410771D02*
X52238095Y-78363152D01*
X52238095Y-78363152D02*
X52190476Y-78267914D01*
X52190476Y-78267914D02*
X52190476Y-78220295D01*
X52190476Y-78220295D02*
X52238095Y-78125057D01*
X52238095Y-78125057D02*
X52285714Y-78077438D01*
X52285714Y-78077438D02*
X52380952Y-78029819D01*
X52380952Y-78029819D02*
X52571428Y-78029819D01*
X52571428Y-78029819D02*
X52666666Y-78077438D01*
X52666666Y-78077438D02*
X52714285Y-78125057D01*
X52714285Y-78125057D02*
X52761904Y-78220295D01*
X52761904Y-78220295D02*
X52761904Y-78267914D01*
X52761904Y-78267914D02*
X52714285Y-78363152D01*
X52714285Y-78363152D02*
X52666666Y-78410771D01*
X52666666Y-78410771D02*
X52571428Y-78458390D01*
X52571428Y-78458390D02*
X52380952Y-78458390D01*
X52380952Y-78458390D02*
X52285714Y-78506009D01*
X52285714Y-78506009D02*
X52238095Y-78553628D01*
X52238095Y-78553628D02*
X52190476Y-78648866D01*
X52190476Y-78648866D02*
X52190476Y-78839342D01*
X52190476Y-78839342D02*
X52238095Y-78934580D01*
X52238095Y-78934580D02*
X52285714Y-78982200D01*
X52285714Y-78982200D02*
X52380952Y-79029819D01*
X52380952Y-79029819D02*
X52571428Y-79029819D01*
X52571428Y-79029819D02*
X52666666Y-78982200D01*
X52666666Y-78982200D02*
X52714285Y-78934580D01*
X52714285Y-78934580D02*
X52761904Y-78839342D01*
X52761904Y-78839342D02*
X52761904Y-78648866D01*
X52761904Y-78648866D02*
X52714285Y-78553628D01*
X52714285Y-78553628D02*
X52666666Y-78506009D01*
X52666666Y-78506009D02*
X52571428Y-78458390D01*
X99454761Y-112354819D02*
X99121428Y-111878628D01*
X98883333Y-112354819D02*
X98883333Y-111354819D01*
X98883333Y-111354819D02*
X99264285Y-111354819D01*
X99264285Y-111354819D02*
X99359523Y-111402438D01*
X99359523Y-111402438D02*
X99407142Y-111450057D01*
X99407142Y-111450057D02*
X99454761Y-111545295D01*
X99454761Y-111545295D02*
X99454761Y-111688152D01*
X99454761Y-111688152D02*
X99407142Y-111783390D01*
X99407142Y-111783390D02*
X99359523Y-111831009D01*
X99359523Y-111831009D02*
X99264285Y-111878628D01*
X99264285Y-111878628D02*
X98883333Y-111878628D01*
X99740476Y-111354819D02*
X100073809Y-112354819D01*
X100073809Y-112354819D02*
X100407142Y-111354819D01*
X100645238Y-111354819D02*
X101264285Y-111354819D01*
X101264285Y-111354819D02*
X100930952Y-111735771D01*
X100930952Y-111735771D02*
X101073809Y-111735771D01*
X101073809Y-111735771D02*
X101169047Y-111783390D01*
X101169047Y-111783390D02*
X101216666Y-111831009D01*
X101216666Y-111831009D02*
X101264285Y-111926247D01*
X101264285Y-111926247D02*
X101264285Y-112164342D01*
X101264285Y-112164342D02*
X101216666Y-112259580D01*
X101216666Y-112259580D02*
X101169047Y-112307200D01*
X101169047Y-112307200D02*
X101073809Y-112354819D01*
X101073809Y-112354819D02*
X100788095Y-112354819D01*
X100788095Y-112354819D02*
X100692857Y-112307200D01*
X100692857Y-112307200D02*
X100645238Y-112259580D01*
X77807142Y-86759580D02*
X77759523Y-86807200D01*
X77759523Y-86807200D02*
X77616666Y-86854819D01*
X77616666Y-86854819D02*
X77521428Y-86854819D01*
X77521428Y-86854819D02*
X77378571Y-86807200D01*
X77378571Y-86807200D02*
X77283333Y-86711961D01*
X77283333Y-86711961D02*
X77235714Y-86616723D01*
X77235714Y-86616723D02*
X77188095Y-86426247D01*
X77188095Y-86426247D02*
X77188095Y-86283390D01*
X77188095Y-86283390D02*
X77235714Y-86092914D01*
X77235714Y-86092914D02*
X77283333Y-85997676D01*
X77283333Y-85997676D02*
X77378571Y-85902438D01*
X77378571Y-85902438D02*
X77521428Y-85854819D01*
X77521428Y-85854819D02*
X77616666Y-85854819D01*
X77616666Y-85854819D02*
X77759523Y-85902438D01*
X77759523Y-85902438D02*
X77807142Y-85950057D01*
X78188095Y-85950057D02*
X78235714Y-85902438D01*
X78235714Y-85902438D02*
X78330952Y-85854819D01*
X78330952Y-85854819D02*
X78569047Y-85854819D01*
X78569047Y-85854819D02*
X78664285Y-85902438D01*
X78664285Y-85902438D02*
X78711904Y-85950057D01*
X78711904Y-85950057D02*
X78759523Y-86045295D01*
X78759523Y-86045295D02*
X78759523Y-86140533D01*
X78759523Y-86140533D02*
X78711904Y-86283390D01*
X78711904Y-86283390D02*
X78140476Y-86854819D01*
X78140476Y-86854819D02*
X78759523Y-86854819D01*
X79711904Y-86854819D02*
X79140476Y-86854819D01*
X79426190Y-86854819D02*
X79426190Y-85854819D01*
X79426190Y-85854819D02*
X79330952Y-85997676D01*
X79330952Y-85997676D02*
X79235714Y-86092914D01*
X79235714Y-86092914D02*
X79140476Y-86140533D01*
X65357142Y-82459819D02*
X65023809Y-81983628D01*
X64785714Y-82459819D02*
X64785714Y-81459819D01*
X64785714Y-81459819D02*
X65166666Y-81459819D01*
X65166666Y-81459819D02*
X65261904Y-81507438D01*
X65261904Y-81507438D02*
X65309523Y-81555057D01*
X65309523Y-81555057D02*
X65357142Y-81650295D01*
X65357142Y-81650295D02*
X65357142Y-81793152D01*
X65357142Y-81793152D02*
X65309523Y-81888390D01*
X65309523Y-81888390D02*
X65261904Y-81936009D01*
X65261904Y-81936009D02*
X65166666Y-81983628D01*
X65166666Y-81983628D02*
X64785714Y-81983628D01*
X66309523Y-82459819D02*
X65738095Y-82459819D01*
X66023809Y-82459819D02*
X66023809Y-81459819D01*
X66023809Y-81459819D02*
X65928571Y-81602676D01*
X65928571Y-81602676D02*
X65833333Y-81697914D01*
X65833333Y-81697914D02*
X65738095Y-81745533D01*
X66642857Y-81459819D02*
X67309523Y-81459819D01*
X67309523Y-81459819D02*
X66880952Y-82459819D01*
X78807142Y-76204819D02*
X78473809Y-75728628D01*
X78235714Y-76204819D02*
X78235714Y-75204819D01*
X78235714Y-75204819D02*
X78616666Y-75204819D01*
X78616666Y-75204819D02*
X78711904Y-75252438D01*
X78711904Y-75252438D02*
X78759523Y-75300057D01*
X78759523Y-75300057D02*
X78807142Y-75395295D01*
X78807142Y-75395295D02*
X78807142Y-75538152D01*
X78807142Y-75538152D02*
X78759523Y-75633390D01*
X78759523Y-75633390D02*
X78711904Y-75681009D01*
X78711904Y-75681009D02*
X78616666Y-75728628D01*
X78616666Y-75728628D02*
X78235714Y-75728628D01*
X79759523Y-76204819D02*
X79188095Y-76204819D01*
X79473809Y-76204819D02*
X79473809Y-75204819D01*
X79473809Y-75204819D02*
X79378571Y-75347676D01*
X79378571Y-75347676D02*
X79283333Y-75442914D01*
X79283333Y-75442914D02*
X79188095Y-75490533D01*
X80330952Y-75633390D02*
X80235714Y-75585771D01*
X80235714Y-75585771D02*
X80188095Y-75538152D01*
X80188095Y-75538152D02*
X80140476Y-75442914D01*
X80140476Y-75442914D02*
X80140476Y-75395295D01*
X80140476Y-75395295D02*
X80188095Y-75300057D01*
X80188095Y-75300057D02*
X80235714Y-75252438D01*
X80235714Y-75252438D02*
X80330952Y-75204819D01*
X80330952Y-75204819D02*
X80521428Y-75204819D01*
X80521428Y-75204819D02*
X80616666Y-75252438D01*
X80616666Y-75252438D02*
X80664285Y-75300057D01*
X80664285Y-75300057D02*
X80711904Y-75395295D01*
X80711904Y-75395295D02*
X80711904Y-75442914D01*
X80711904Y-75442914D02*
X80664285Y-75538152D01*
X80664285Y-75538152D02*
X80616666Y-75585771D01*
X80616666Y-75585771D02*
X80521428Y-75633390D01*
X80521428Y-75633390D02*
X80330952Y-75633390D01*
X80330952Y-75633390D02*
X80235714Y-75681009D01*
X80235714Y-75681009D02*
X80188095Y-75728628D01*
X80188095Y-75728628D02*
X80140476Y-75823866D01*
X80140476Y-75823866D02*
X80140476Y-76014342D01*
X80140476Y-76014342D02*
X80188095Y-76109580D01*
X80188095Y-76109580D02*
X80235714Y-76157200D01*
X80235714Y-76157200D02*
X80330952Y-76204819D01*
X80330952Y-76204819D02*
X80521428Y-76204819D01*
X80521428Y-76204819D02*
X80616666Y-76157200D01*
X80616666Y-76157200D02*
X80664285Y-76109580D01*
X80664285Y-76109580D02*
X80711904Y-76014342D01*
X80711904Y-76014342D02*
X80711904Y-75823866D01*
X80711904Y-75823866D02*
X80664285Y-75728628D01*
X80664285Y-75728628D02*
X80616666Y-75681009D01*
X80616666Y-75681009D02*
X80521428Y-75633390D01*
X86738095Y-80029819D02*
X86738095Y-80839342D01*
X86738095Y-80839342D02*
X86785714Y-80934580D01*
X86785714Y-80934580D02*
X86833333Y-80982200D01*
X86833333Y-80982200D02*
X86928571Y-81029819D01*
X86928571Y-81029819D02*
X87119047Y-81029819D01*
X87119047Y-81029819D02*
X87214285Y-80982200D01*
X87214285Y-80982200D02*
X87261904Y-80934580D01*
X87261904Y-80934580D02*
X87309523Y-80839342D01*
X87309523Y-80839342D02*
X87309523Y-80029819D01*
X87690476Y-80029819D02*
X88309523Y-80029819D01*
X88309523Y-80029819D02*
X87976190Y-80410771D01*
X87976190Y-80410771D02*
X88119047Y-80410771D01*
X88119047Y-80410771D02*
X88214285Y-80458390D01*
X88214285Y-80458390D02*
X88261904Y-80506009D01*
X88261904Y-80506009D02*
X88309523Y-80601247D01*
X88309523Y-80601247D02*
X88309523Y-80839342D01*
X88309523Y-80839342D02*
X88261904Y-80934580D01*
X88261904Y-80934580D02*
X88214285Y-80982200D01*
X88214285Y-80982200D02*
X88119047Y-81029819D01*
X88119047Y-81029819D02*
X87833333Y-81029819D01*
X87833333Y-81029819D02*
X87738095Y-80982200D01*
X87738095Y-80982200D02*
X87690476Y-80934580D01*
X50357142Y-84529819D02*
X50023809Y-84053628D01*
X49785714Y-84529819D02*
X49785714Y-83529819D01*
X49785714Y-83529819D02*
X50166666Y-83529819D01*
X50166666Y-83529819D02*
X50261904Y-83577438D01*
X50261904Y-83577438D02*
X50309523Y-83625057D01*
X50309523Y-83625057D02*
X50357142Y-83720295D01*
X50357142Y-83720295D02*
X50357142Y-83863152D01*
X50357142Y-83863152D02*
X50309523Y-83958390D01*
X50309523Y-83958390D02*
X50261904Y-84006009D01*
X50261904Y-84006009D02*
X50166666Y-84053628D01*
X50166666Y-84053628D02*
X49785714Y-84053628D01*
X51309523Y-84529819D02*
X50738095Y-84529819D01*
X51023809Y-84529819D02*
X51023809Y-83529819D01*
X51023809Y-83529819D02*
X50928571Y-83672676D01*
X50928571Y-83672676D02*
X50833333Y-83767914D01*
X50833333Y-83767914D02*
X50738095Y-83815533D01*
X52214285Y-83529819D02*
X51738095Y-83529819D01*
X51738095Y-83529819D02*
X51690476Y-84006009D01*
X51690476Y-84006009D02*
X51738095Y-83958390D01*
X51738095Y-83958390D02*
X51833333Y-83910771D01*
X51833333Y-83910771D02*
X52071428Y-83910771D01*
X52071428Y-83910771D02*
X52166666Y-83958390D01*
X52166666Y-83958390D02*
X52214285Y-84006009D01*
X52214285Y-84006009D02*
X52261904Y-84101247D01*
X52261904Y-84101247D02*
X52261904Y-84339342D01*
X52261904Y-84339342D02*
X52214285Y-84434580D01*
X52214285Y-84434580D02*
X52166666Y-84482200D01*
X52166666Y-84482200D02*
X52071428Y-84529819D01*
X52071428Y-84529819D02*
X51833333Y-84529819D01*
X51833333Y-84529819D02*
X51738095Y-84482200D01*
X51738095Y-84482200D02*
X51690476Y-84434580D01*
X79024819Y-94716666D02*
X78548628Y-95049999D01*
X79024819Y-95288094D02*
X78024819Y-95288094D01*
X78024819Y-95288094D02*
X78024819Y-94907142D01*
X78024819Y-94907142D02*
X78072438Y-94811904D01*
X78072438Y-94811904D02*
X78120057Y-94764285D01*
X78120057Y-94764285D02*
X78215295Y-94716666D01*
X78215295Y-94716666D02*
X78358152Y-94716666D01*
X78358152Y-94716666D02*
X78453390Y-94764285D01*
X78453390Y-94764285D02*
X78501009Y-94811904D01*
X78501009Y-94811904D02*
X78548628Y-94907142D01*
X78548628Y-94907142D02*
X78548628Y-95288094D01*
X78024819Y-93859523D02*
X78024819Y-94049999D01*
X78024819Y-94049999D02*
X78072438Y-94145237D01*
X78072438Y-94145237D02*
X78120057Y-94192856D01*
X78120057Y-94192856D02*
X78262914Y-94288094D01*
X78262914Y-94288094D02*
X78453390Y-94335713D01*
X78453390Y-94335713D02*
X78834342Y-94335713D01*
X78834342Y-94335713D02*
X78929580Y-94288094D01*
X78929580Y-94288094D02*
X78977200Y-94240475D01*
X78977200Y-94240475D02*
X79024819Y-94145237D01*
X79024819Y-94145237D02*
X79024819Y-93954761D01*
X79024819Y-93954761D02*
X78977200Y-93859523D01*
X78977200Y-93859523D02*
X78929580Y-93811904D01*
X78929580Y-93811904D02*
X78834342Y-93764285D01*
X78834342Y-93764285D02*
X78596247Y-93764285D01*
X78596247Y-93764285D02*
X78501009Y-93811904D01*
X78501009Y-93811904D02*
X78453390Y-93859523D01*
X78453390Y-93859523D02*
X78405771Y-93954761D01*
X78405771Y-93954761D02*
X78405771Y-94145237D01*
X78405771Y-94145237D02*
X78453390Y-94240475D01*
X78453390Y-94240475D02*
X78501009Y-94288094D01*
X78501009Y-94288094D02*
X78596247Y-94335713D01*
X21974819Y-94566666D02*
X21498628Y-94899999D01*
X21974819Y-95138094D02*
X20974819Y-95138094D01*
X20974819Y-95138094D02*
X20974819Y-94757142D01*
X20974819Y-94757142D02*
X21022438Y-94661904D01*
X21022438Y-94661904D02*
X21070057Y-94614285D01*
X21070057Y-94614285D02*
X21165295Y-94566666D01*
X21165295Y-94566666D02*
X21308152Y-94566666D01*
X21308152Y-94566666D02*
X21403390Y-94614285D01*
X21403390Y-94614285D02*
X21451009Y-94661904D01*
X21451009Y-94661904D02*
X21498628Y-94757142D01*
X21498628Y-94757142D02*
X21498628Y-95138094D01*
X20974819Y-94233332D02*
X20974819Y-93566666D01*
X20974819Y-93566666D02*
X21974819Y-93995237D01*
X96884819Y-82717857D02*
X96408628Y-83051190D01*
X96884819Y-83289285D02*
X95884819Y-83289285D01*
X95884819Y-83289285D02*
X95884819Y-82908333D01*
X95884819Y-82908333D02*
X95932438Y-82813095D01*
X95932438Y-82813095D02*
X95980057Y-82765476D01*
X95980057Y-82765476D02*
X96075295Y-82717857D01*
X96075295Y-82717857D02*
X96218152Y-82717857D01*
X96218152Y-82717857D02*
X96313390Y-82765476D01*
X96313390Y-82765476D02*
X96361009Y-82813095D01*
X96361009Y-82813095D02*
X96408628Y-82908333D01*
X96408628Y-82908333D02*
X96408628Y-83289285D01*
X96884819Y-81765476D02*
X96884819Y-82336904D01*
X96884819Y-82051190D02*
X95884819Y-82051190D01*
X95884819Y-82051190D02*
X96027676Y-82146428D01*
X96027676Y-82146428D02*
X96122914Y-82241666D01*
X96122914Y-82241666D02*
X96170533Y-82336904D01*
X96884819Y-81289285D02*
X96884819Y-81098809D01*
X96884819Y-81098809D02*
X96837200Y-81003571D01*
X96837200Y-81003571D02*
X96789580Y-80955952D01*
X96789580Y-80955952D02*
X96646723Y-80860714D01*
X96646723Y-80860714D02*
X96456247Y-80813095D01*
X96456247Y-80813095D02*
X96075295Y-80813095D01*
X96075295Y-80813095D02*
X95980057Y-80860714D01*
X95980057Y-80860714D02*
X95932438Y-80908333D01*
X95932438Y-80908333D02*
X95884819Y-81003571D01*
X95884819Y-81003571D02*
X95884819Y-81194047D01*
X95884819Y-81194047D02*
X95932438Y-81289285D01*
X95932438Y-81289285D02*
X95980057Y-81336904D01*
X95980057Y-81336904D02*
X96075295Y-81384523D01*
X96075295Y-81384523D02*
X96313390Y-81384523D01*
X96313390Y-81384523D02*
X96408628Y-81336904D01*
X96408628Y-81336904D02*
X96456247Y-81289285D01*
X96456247Y-81289285D02*
X96503866Y-81194047D01*
X96503866Y-81194047D02*
X96503866Y-81003571D01*
X96503866Y-81003571D02*
X96456247Y-80908333D01*
X96456247Y-80908333D02*
X96408628Y-80860714D01*
X96408628Y-80860714D02*
X96313390Y-80813095D01*
X42178095Y-84469819D02*
X42178095Y-85279342D01*
X42178095Y-85279342D02*
X42225714Y-85374580D01*
X42225714Y-85374580D02*
X42273333Y-85422200D01*
X42273333Y-85422200D02*
X42368571Y-85469819D01*
X42368571Y-85469819D02*
X42559047Y-85469819D01*
X42559047Y-85469819D02*
X42654285Y-85422200D01*
X42654285Y-85422200D02*
X42701904Y-85374580D01*
X42701904Y-85374580D02*
X42749523Y-85279342D01*
X42749523Y-85279342D02*
X42749523Y-84469819D01*
X43178095Y-84565057D02*
X43225714Y-84517438D01*
X43225714Y-84517438D02*
X43320952Y-84469819D01*
X43320952Y-84469819D02*
X43559047Y-84469819D01*
X43559047Y-84469819D02*
X43654285Y-84517438D01*
X43654285Y-84517438D02*
X43701904Y-84565057D01*
X43701904Y-84565057D02*
X43749523Y-84660295D01*
X43749523Y-84660295D02*
X43749523Y-84755533D01*
X43749523Y-84755533D02*
X43701904Y-84898390D01*
X43701904Y-84898390D02*
X43130476Y-85469819D01*
X43130476Y-85469819D02*
X43749523Y-85469819D01*
X72024819Y-91792857D02*
X71548628Y-92126190D01*
X72024819Y-92364285D02*
X71024819Y-92364285D01*
X71024819Y-92364285D02*
X71024819Y-91983333D01*
X71024819Y-91983333D02*
X71072438Y-91888095D01*
X71072438Y-91888095D02*
X71120057Y-91840476D01*
X71120057Y-91840476D02*
X71215295Y-91792857D01*
X71215295Y-91792857D02*
X71358152Y-91792857D01*
X71358152Y-91792857D02*
X71453390Y-91840476D01*
X71453390Y-91840476D02*
X71501009Y-91888095D01*
X71501009Y-91888095D02*
X71548628Y-91983333D01*
X71548628Y-91983333D02*
X71548628Y-92364285D01*
X72024819Y-90840476D02*
X72024819Y-91411904D01*
X72024819Y-91126190D02*
X71024819Y-91126190D01*
X71024819Y-91126190D02*
X71167676Y-91221428D01*
X71167676Y-91221428D02*
X71262914Y-91316666D01*
X71262914Y-91316666D02*
X71310533Y-91411904D01*
X72024819Y-89888095D02*
X72024819Y-90459523D01*
X72024819Y-90173809D02*
X71024819Y-90173809D01*
X71024819Y-90173809D02*
X71167676Y-90269047D01*
X71167676Y-90269047D02*
X71262914Y-90364285D01*
X71262914Y-90364285D02*
X71310533Y-90459523D01*
X65357142Y-78959819D02*
X65023809Y-78483628D01*
X64785714Y-78959819D02*
X64785714Y-77959819D01*
X64785714Y-77959819D02*
X65166666Y-77959819D01*
X65166666Y-77959819D02*
X65261904Y-78007438D01*
X65261904Y-78007438D02*
X65309523Y-78055057D01*
X65309523Y-78055057D02*
X65357142Y-78150295D01*
X65357142Y-78150295D02*
X65357142Y-78293152D01*
X65357142Y-78293152D02*
X65309523Y-78388390D01*
X65309523Y-78388390D02*
X65261904Y-78436009D01*
X65261904Y-78436009D02*
X65166666Y-78483628D01*
X65166666Y-78483628D02*
X64785714Y-78483628D01*
X66309523Y-78959819D02*
X65738095Y-78959819D01*
X66023809Y-78959819D02*
X66023809Y-77959819D01*
X66023809Y-77959819D02*
X65928571Y-78102676D01*
X65928571Y-78102676D02*
X65833333Y-78197914D01*
X65833333Y-78197914D02*
X65738095Y-78245533D01*
X67166666Y-77959819D02*
X66976190Y-77959819D01*
X66976190Y-77959819D02*
X66880952Y-78007438D01*
X66880952Y-78007438D02*
X66833333Y-78055057D01*
X66833333Y-78055057D02*
X66738095Y-78197914D01*
X66738095Y-78197914D02*
X66690476Y-78388390D01*
X66690476Y-78388390D02*
X66690476Y-78769342D01*
X66690476Y-78769342D02*
X66738095Y-78864580D01*
X66738095Y-78864580D02*
X66785714Y-78912200D01*
X66785714Y-78912200D02*
X66880952Y-78959819D01*
X66880952Y-78959819D02*
X67071428Y-78959819D01*
X67071428Y-78959819D02*
X67166666Y-78912200D01*
X67166666Y-78912200D02*
X67214285Y-78864580D01*
X67214285Y-78864580D02*
X67261904Y-78769342D01*
X67261904Y-78769342D02*
X67261904Y-78531247D01*
X67261904Y-78531247D02*
X67214285Y-78436009D01*
X67214285Y-78436009D02*
X67166666Y-78388390D01*
X67166666Y-78388390D02*
X67071428Y-78340771D01*
X67071428Y-78340771D02*
X66880952Y-78340771D01*
X66880952Y-78340771D02*
X66785714Y-78388390D01*
X66785714Y-78388390D02*
X66738095Y-78436009D01*
X66738095Y-78436009D02*
X66690476Y-78531247D01*
X59666666Y-65529819D02*
X59666666Y-66244104D01*
X59666666Y-66244104D02*
X59619047Y-66386961D01*
X59619047Y-66386961D02*
X59523809Y-66482200D01*
X59523809Y-66482200D02*
X59380952Y-66529819D01*
X59380952Y-66529819D02*
X59285714Y-66529819D01*
X60047619Y-65529819D02*
X60714285Y-65529819D01*
X60714285Y-65529819D02*
X60285714Y-66529819D01*
X80359580Y-105692857D02*
X80407200Y-105740476D01*
X80407200Y-105740476D02*
X80454819Y-105883333D01*
X80454819Y-105883333D02*
X80454819Y-105978571D01*
X80454819Y-105978571D02*
X80407200Y-106121428D01*
X80407200Y-106121428D02*
X80311961Y-106216666D01*
X80311961Y-106216666D02*
X80216723Y-106264285D01*
X80216723Y-106264285D02*
X80026247Y-106311904D01*
X80026247Y-106311904D02*
X79883390Y-106311904D01*
X79883390Y-106311904D02*
X79692914Y-106264285D01*
X79692914Y-106264285D02*
X79597676Y-106216666D01*
X79597676Y-106216666D02*
X79502438Y-106121428D01*
X79502438Y-106121428D02*
X79454819Y-105978571D01*
X79454819Y-105978571D02*
X79454819Y-105883333D01*
X79454819Y-105883333D02*
X79502438Y-105740476D01*
X79502438Y-105740476D02*
X79550057Y-105692857D01*
X80454819Y-104740476D02*
X80454819Y-105311904D01*
X80454819Y-105026190D02*
X79454819Y-105026190D01*
X79454819Y-105026190D02*
X79597676Y-105121428D01*
X79597676Y-105121428D02*
X79692914Y-105216666D01*
X79692914Y-105216666D02*
X79740533Y-105311904D01*
X79454819Y-104121428D02*
X79454819Y-104026190D01*
X79454819Y-104026190D02*
X79502438Y-103930952D01*
X79502438Y-103930952D02*
X79550057Y-103883333D01*
X79550057Y-103883333D02*
X79645295Y-103835714D01*
X79645295Y-103835714D02*
X79835771Y-103788095D01*
X79835771Y-103788095D02*
X80073866Y-103788095D01*
X80073866Y-103788095D02*
X80264342Y-103835714D01*
X80264342Y-103835714D02*
X80359580Y-103883333D01*
X80359580Y-103883333D02*
X80407200Y-103930952D01*
X80407200Y-103930952D02*
X80454819Y-104026190D01*
X80454819Y-104026190D02*
X80454819Y-104121428D01*
X80454819Y-104121428D02*
X80407200Y-104216666D01*
X80407200Y-104216666D02*
X80359580Y-104264285D01*
X80359580Y-104264285D02*
X80264342Y-104311904D01*
X80264342Y-104311904D02*
X80073866Y-104359523D01*
X80073866Y-104359523D02*
X79835771Y-104359523D01*
X79835771Y-104359523D02*
X79645295Y-104311904D01*
X79645295Y-104311904D02*
X79550057Y-104264285D01*
X79550057Y-104264285D02*
X79502438Y-104216666D01*
X79502438Y-104216666D02*
X79454819Y-104121428D01*
X109859580Y-99192857D02*
X109907200Y-99240476D01*
X109907200Y-99240476D02*
X109954819Y-99383333D01*
X109954819Y-99383333D02*
X109954819Y-99478571D01*
X109954819Y-99478571D02*
X109907200Y-99621428D01*
X109907200Y-99621428D02*
X109811961Y-99716666D01*
X109811961Y-99716666D02*
X109716723Y-99764285D01*
X109716723Y-99764285D02*
X109526247Y-99811904D01*
X109526247Y-99811904D02*
X109383390Y-99811904D01*
X109383390Y-99811904D02*
X109192914Y-99764285D01*
X109192914Y-99764285D02*
X109097676Y-99716666D01*
X109097676Y-99716666D02*
X109002438Y-99621428D01*
X109002438Y-99621428D02*
X108954819Y-99478571D01*
X108954819Y-99478571D02*
X108954819Y-99383333D01*
X108954819Y-99383333D02*
X109002438Y-99240476D01*
X109002438Y-99240476D02*
X109050057Y-99192857D01*
X109954819Y-98240476D02*
X109954819Y-98811904D01*
X109954819Y-98526190D02*
X108954819Y-98526190D01*
X108954819Y-98526190D02*
X109097676Y-98621428D01*
X109097676Y-98621428D02*
X109192914Y-98716666D01*
X109192914Y-98716666D02*
X109240533Y-98811904D01*
X108954819Y-97907142D02*
X108954819Y-97288095D01*
X108954819Y-97288095D02*
X109335771Y-97621428D01*
X109335771Y-97621428D02*
X109335771Y-97478571D01*
X109335771Y-97478571D02*
X109383390Y-97383333D01*
X109383390Y-97383333D02*
X109431009Y-97335714D01*
X109431009Y-97335714D02*
X109526247Y-97288095D01*
X109526247Y-97288095D02*
X109764342Y-97288095D01*
X109764342Y-97288095D02*
X109859580Y-97335714D01*
X109859580Y-97335714D02*
X109907200Y-97383333D01*
X109907200Y-97383333D02*
X109954819Y-97478571D01*
X109954819Y-97478571D02*
X109954819Y-97764285D01*
X109954819Y-97764285D02*
X109907200Y-97859523D01*
X109907200Y-97859523D02*
X109859580Y-97907142D01*
X36857142Y-99409580D02*
X36809523Y-99457200D01*
X36809523Y-99457200D02*
X36666666Y-99504819D01*
X36666666Y-99504819D02*
X36571428Y-99504819D01*
X36571428Y-99504819D02*
X36428571Y-99457200D01*
X36428571Y-99457200D02*
X36333333Y-99361961D01*
X36333333Y-99361961D02*
X36285714Y-99266723D01*
X36285714Y-99266723D02*
X36238095Y-99076247D01*
X36238095Y-99076247D02*
X36238095Y-98933390D01*
X36238095Y-98933390D02*
X36285714Y-98742914D01*
X36285714Y-98742914D02*
X36333333Y-98647676D01*
X36333333Y-98647676D02*
X36428571Y-98552438D01*
X36428571Y-98552438D02*
X36571428Y-98504819D01*
X36571428Y-98504819D02*
X36666666Y-98504819D01*
X36666666Y-98504819D02*
X36809523Y-98552438D01*
X36809523Y-98552438D02*
X36857142Y-98600057D01*
X37809523Y-99504819D02*
X37238095Y-99504819D01*
X37523809Y-99504819D02*
X37523809Y-98504819D01*
X37523809Y-98504819D02*
X37428571Y-98647676D01*
X37428571Y-98647676D02*
X37333333Y-98742914D01*
X37333333Y-98742914D02*
X37238095Y-98790533D01*
X38142857Y-98504819D02*
X38809523Y-98504819D01*
X38809523Y-98504819D02*
X38380952Y-99504819D01*
X41304761Y-112454819D02*
X40971428Y-111978628D01*
X40733333Y-112454819D02*
X40733333Y-111454819D01*
X40733333Y-111454819D02*
X41114285Y-111454819D01*
X41114285Y-111454819D02*
X41209523Y-111502438D01*
X41209523Y-111502438D02*
X41257142Y-111550057D01*
X41257142Y-111550057D02*
X41304761Y-111645295D01*
X41304761Y-111645295D02*
X41304761Y-111788152D01*
X41304761Y-111788152D02*
X41257142Y-111883390D01*
X41257142Y-111883390D02*
X41209523Y-111931009D01*
X41209523Y-111931009D02*
X41114285Y-111978628D01*
X41114285Y-111978628D02*
X40733333Y-111978628D01*
X41590476Y-111454819D02*
X41923809Y-112454819D01*
X41923809Y-112454819D02*
X42257142Y-111454819D01*
X43114285Y-112454819D02*
X42542857Y-112454819D01*
X42828571Y-112454819D02*
X42828571Y-111454819D01*
X42828571Y-111454819D02*
X42733333Y-111597676D01*
X42733333Y-111597676D02*
X42638095Y-111692914D01*
X42638095Y-111692914D02*
X42542857Y-111740533D01*
X34034642Y-83537080D02*
X33987023Y-83584700D01*
X33987023Y-83584700D02*
X33844166Y-83632319D01*
X33844166Y-83632319D02*
X33748928Y-83632319D01*
X33748928Y-83632319D02*
X33606071Y-83584700D01*
X33606071Y-83584700D02*
X33510833Y-83489461D01*
X33510833Y-83489461D02*
X33463214Y-83394223D01*
X33463214Y-83394223D02*
X33415595Y-83203747D01*
X33415595Y-83203747D02*
X33415595Y-83060890D01*
X33415595Y-83060890D02*
X33463214Y-82870414D01*
X33463214Y-82870414D02*
X33510833Y-82775176D01*
X33510833Y-82775176D02*
X33606071Y-82679938D01*
X33606071Y-82679938D02*
X33748928Y-82632319D01*
X33748928Y-82632319D02*
X33844166Y-82632319D01*
X33844166Y-82632319D02*
X33987023Y-82679938D01*
X33987023Y-82679938D02*
X34034642Y-82727557D01*
X34987023Y-83632319D02*
X34415595Y-83632319D01*
X34701309Y-83632319D02*
X34701309Y-82632319D01*
X34701309Y-82632319D02*
X34606071Y-82775176D01*
X34606071Y-82775176D02*
X34510833Y-82870414D01*
X34510833Y-82870414D02*
X34415595Y-82918033D01*
X35463214Y-83632319D02*
X35653690Y-83632319D01*
X35653690Y-83632319D02*
X35748928Y-83584700D01*
X35748928Y-83584700D02*
X35796547Y-83537080D01*
X35796547Y-83537080D02*
X35891785Y-83394223D01*
X35891785Y-83394223D02*
X35939404Y-83203747D01*
X35939404Y-83203747D02*
X35939404Y-82822795D01*
X35939404Y-82822795D02*
X35891785Y-82727557D01*
X35891785Y-82727557D02*
X35844166Y-82679938D01*
X35844166Y-82679938D02*
X35748928Y-82632319D01*
X35748928Y-82632319D02*
X35558452Y-82632319D01*
X35558452Y-82632319D02*
X35463214Y-82679938D01*
X35463214Y-82679938D02*
X35415595Y-82727557D01*
X35415595Y-82727557D02*
X35367976Y-82822795D01*
X35367976Y-82822795D02*
X35367976Y-83060890D01*
X35367976Y-83060890D02*
X35415595Y-83156128D01*
X35415595Y-83156128D02*
X35463214Y-83203747D01*
X35463214Y-83203747D02*
X35558452Y-83251366D01*
X35558452Y-83251366D02*
X35748928Y-83251366D01*
X35748928Y-83251366D02*
X35844166Y-83203747D01*
X35844166Y-83203747D02*
X35891785Y-83156128D01*
X35891785Y-83156128D02*
X35939404Y-83060890D01*
X95557142Y-76179580D02*
X95509523Y-76227200D01*
X95509523Y-76227200D02*
X95366666Y-76274819D01*
X95366666Y-76274819D02*
X95271428Y-76274819D01*
X95271428Y-76274819D02*
X95128571Y-76227200D01*
X95128571Y-76227200D02*
X95033333Y-76131961D01*
X95033333Y-76131961D02*
X94985714Y-76036723D01*
X94985714Y-76036723D02*
X94938095Y-75846247D01*
X94938095Y-75846247D02*
X94938095Y-75703390D01*
X94938095Y-75703390D02*
X94985714Y-75512914D01*
X94985714Y-75512914D02*
X95033333Y-75417676D01*
X95033333Y-75417676D02*
X95128571Y-75322438D01*
X95128571Y-75322438D02*
X95271428Y-75274819D01*
X95271428Y-75274819D02*
X95366666Y-75274819D01*
X95366666Y-75274819D02*
X95509523Y-75322438D01*
X95509523Y-75322438D02*
X95557142Y-75370057D01*
X95938095Y-75370057D02*
X95985714Y-75322438D01*
X95985714Y-75322438D02*
X96080952Y-75274819D01*
X96080952Y-75274819D02*
X96319047Y-75274819D01*
X96319047Y-75274819D02*
X96414285Y-75322438D01*
X96414285Y-75322438D02*
X96461904Y-75370057D01*
X96461904Y-75370057D02*
X96509523Y-75465295D01*
X96509523Y-75465295D02*
X96509523Y-75560533D01*
X96509523Y-75560533D02*
X96461904Y-75703390D01*
X96461904Y-75703390D02*
X95890476Y-76274819D01*
X95890476Y-76274819D02*
X96509523Y-76274819D01*
X97128571Y-75274819D02*
X97223809Y-75274819D01*
X97223809Y-75274819D02*
X97319047Y-75322438D01*
X97319047Y-75322438D02*
X97366666Y-75370057D01*
X97366666Y-75370057D02*
X97414285Y-75465295D01*
X97414285Y-75465295D02*
X97461904Y-75655771D01*
X97461904Y-75655771D02*
X97461904Y-75893866D01*
X97461904Y-75893866D02*
X97414285Y-76084342D01*
X97414285Y-76084342D02*
X97366666Y-76179580D01*
X97366666Y-76179580D02*
X97319047Y-76227200D01*
X97319047Y-76227200D02*
X97223809Y-76274819D01*
X97223809Y-76274819D02*
X97128571Y-76274819D01*
X97128571Y-76274819D02*
X97033333Y-76227200D01*
X97033333Y-76227200D02*
X96985714Y-76179580D01*
X96985714Y-76179580D02*
X96938095Y-76084342D01*
X96938095Y-76084342D02*
X96890476Y-75893866D01*
X96890476Y-75893866D02*
X96890476Y-75655771D01*
X96890476Y-75655771D02*
X96938095Y-75465295D01*
X96938095Y-75465295D02*
X96985714Y-75370057D01*
X96985714Y-75370057D02*
X97033333Y-75322438D01*
X97033333Y-75322438D02*
X97128571Y-75274819D01*
X98357142Y-98859580D02*
X98309523Y-98907200D01*
X98309523Y-98907200D02*
X98166666Y-98954819D01*
X98166666Y-98954819D02*
X98071428Y-98954819D01*
X98071428Y-98954819D02*
X97928571Y-98907200D01*
X97928571Y-98907200D02*
X97833333Y-98811961D01*
X97833333Y-98811961D02*
X97785714Y-98716723D01*
X97785714Y-98716723D02*
X97738095Y-98526247D01*
X97738095Y-98526247D02*
X97738095Y-98383390D01*
X97738095Y-98383390D02*
X97785714Y-98192914D01*
X97785714Y-98192914D02*
X97833333Y-98097676D01*
X97833333Y-98097676D02*
X97928571Y-98002438D01*
X97928571Y-98002438D02*
X98071428Y-97954819D01*
X98071428Y-97954819D02*
X98166666Y-97954819D01*
X98166666Y-97954819D02*
X98309523Y-98002438D01*
X98309523Y-98002438D02*
X98357142Y-98050057D01*
X99309523Y-98954819D02*
X98738095Y-98954819D01*
X99023809Y-98954819D02*
X99023809Y-97954819D01*
X99023809Y-97954819D02*
X98928571Y-98097676D01*
X98928571Y-98097676D02*
X98833333Y-98192914D01*
X98833333Y-98192914D02*
X98738095Y-98240533D01*
X100166666Y-97954819D02*
X99976190Y-97954819D01*
X99976190Y-97954819D02*
X99880952Y-98002438D01*
X99880952Y-98002438D02*
X99833333Y-98050057D01*
X99833333Y-98050057D02*
X99738095Y-98192914D01*
X99738095Y-98192914D02*
X99690476Y-98383390D01*
X99690476Y-98383390D02*
X99690476Y-98764342D01*
X99690476Y-98764342D02*
X99738095Y-98859580D01*
X99738095Y-98859580D02*
X99785714Y-98907200D01*
X99785714Y-98907200D02*
X99880952Y-98954819D01*
X99880952Y-98954819D02*
X100071428Y-98954819D01*
X100071428Y-98954819D02*
X100166666Y-98907200D01*
X100166666Y-98907200D02*
X100214285Y-98859580D01*
X100214285Y-98859580D02*
X100261904Y-98764342D01*
X100261904Y-98764342D02*
X100261904Y-98526247D01*
X100261904Y-98526247D02*
X100214285Y-98431009D01*
X100214285Y-98431009D02*
X100166666Y-98383390D01*
X100166666Y-98383390D02*
X100071428Y-98335771D01*
X100071428Y-98335771D02*
X99880952Y-98335771D01*
X99880952Y-98335771D02*
X99785714Y-98383390D01*
X99785714Y-98383390D02*
X99738095Y-98431009D01*
X99738095Y-98431009D02*
X99690476Y-98526247D01*
X57854819Y-98354166D02*
X57378628Y-98687499D01*
X57854819Y-98925594D02*
X56854819Y-98925594D01*
X56854819Y-98925594D02*
X56854819Y-98544642D01*
X56854819Y-98544642D02*
X56902438Y-98449404D01*
X56902438Y-98449404D02*
X56950057Y-98401785D01*
X56950057Y-98401785D02*
X57045295Y-98354166D01*
X57045295Y-98354166D02*
X57188152Y-98354166D01*
X57188152Y-98354166D02*
X57283390Y-98401785D01*
X57283390Y-98401785D02*
X57331009Y-98449404D01*
X57331009Y-98449404D02*
X57378628Y-98544642D01*
X57378628Y-98544642D02*
X57378628Y-98925594D01*
X56854819Y-97449404D02*
X56854819Y-97925594D01*
X56854819Y-97925594D02*
X57331009Y-97973213D01*
X57331009Y-97973213D02*
X57283390Y-97925594D01*
X57283390Y-97925594D02*
X57235771Y-97830356D01*
X57235771Y-97830356D02*
X57235771Y-97592261D01*
X57235771Y-97592261D02*
X57283390Y-97497023D01*
X57283390Y-97497023D02*
X57331009Y-97449404D01*
X57331009Y-97449404D02*
X57426247Y-97401785D01*
X57426247Y-97401785D02*
X57664342Y-97401785D01*
X57664342Y-97401785D02*
X57759580Y-97449404D01*
X57759580Y-97449404D02*
X57807200Y-97497023D01*
X57807200Y-97497023D02*
X57854819Y-97592261D01*
X57854819Y-97592261D02*
X57854819Y-97830356D01*
X57854819Y-97830356D02*
X57807200Y-97925594D01*
X57807200Y-97925594D02*
X57759580Y-97973213D01*
X108574819Y-89142857D02*
X108098628Y-89476190D01*
X108574819Y-89714285D02*
X107574819Y-89714285D01*
X107574819Y-89714285D02*
X107574819Y-89333333D01*
X107574819Y-89333333D02*
X107622438Y-89238095D01*
X107622438Y-89238095D02*
X107670057Y-89190476D01*
X107670057Y-89190476D02*
X107765295Y-89142857D01*
X107765295Y-89142857D02*
X107908152Y-89142857D01*
X107908152Y-89142857D02*
X108003390Y-89190476D01*
X108003390Y-89190476D02*
X108051009Y-89238095D01*
X108051009Y-89238095D02*
X108098628Y-89333333D01*
X108098628Y-89333333D02*
X108098628Y-89714285D01*
X108574819Y-88190476D02*
X108574819Y-88761904D01*
X108574819Y-88476190D02*
X107574819Y-88476190D01*
X107574819Y-88476190D02*
X107717676Y-88571428D01*
X107717676Y-88571428D02*
X107812914Y-88666666D01*
X107812914Y-88666666D02*
X107860533Y-88761904D01*
X107670057Y-87809523D02*
X107622438Y-87761904D01*
X107622438Y-87761904D02*
X107574819Y-87666666D01*
X107574819Y-87666666D02*
X107574819Y-87428571D01*
X107574819Y-87428571D02*
X107622438Y-87333333D01*
X107622438Y-87333333D02*
X107670057Y-87285714D01*
X107670057Y-87285714D02*
X107765295Y-87238095D01*
X107765295Y-87238095D02*
X107860533Y-87238095D01*
X107860533Y-87238095D02*
X108003390Y-87285714D01*
X108003390Y-87285714D02*
X108574819Y-87857142D01*
X108574819Y-87857142D02*
X108574819Y-87238095D01*
X48024819Y-95192857D02*
X47548628Y-95526190D01*
X48024819Y-95764285D02*
X47024819Y-95764285D01*
X47024819Y-95764285D02*
X47024819Y-95383333D01*
X47024819Y-95383333D02*
X47072438Y-95288095D01*
X47072438Y-95288095D02*
X47120057Y-95240476D01*
X47120057Y-95240476D02*
X47215295Y-95192857D01*
X47215295Y-95192857D02*
X47358152Y-95192857D01*
X47358152Y-95192857D02*
X47453390Y-95240476D01*
X47453390Y-95240476D02*
X47501009Y-95288095D01*
X47501009Y-95288095D02*
X47548628Y-95383333D01*
X47548628Y-95383333D02*
X47548628Y-95764285D01*
X48024819Y-94240476D02*
X48024819Y-94811904D01*
X48024819Y-94526190D02*
X47024819Y-94526190D01*
X47024819Y-94526190D02*
X47167676Y-94621428D01*
X47167676Y-94621428D02*
X47262914Y-94716666D01*
X47262914Y-94716666D02*
X47310533Y-94811904D01*
X47024819Y-93907142D02*
X47024819Y-93288095D01*
X47024819Y-93288095D02*
X47405771Y-93621428D01*
X47405771Y-93621428D02*
X47405771Y-93478571D01*
X47405771Y-93478571D02*
X47453390Y-93383333D01*
X47453390Y-93383333D02*
X47501009Y-93335714D01*
X47501009Y-93335714D02*
X47596247Y-93288095D01*
X47596247Y-93288095D02*
X47834342Y-93288095D01*
X47834342Y-93288095D02*
X47929580Y-93335714D01*
X47929580Y-93335714D02*
X47977200Y-93383333D01*
X47977200Y-93383333D02*
X48024819Y-93478571D01*
X48024819Y-93478571D02*
X48024819Y-93764285D01*
X48024819Y-93764285D02*
X47977200Y-93859523D01*
X47977200Y-93859523D02*
X47929580Y-93907142D01*
X29859580Y-102216666D02*
X29907200Y-102264285D01*
X29907200Y-102264285D02*
X29954819Y-102407142D01*
X29954819Y-102407142D02*
X29954819Y-102502380D01*
X29954819Y-102502380D02*
X29907200Y-102645237D01*
X29907200Y-102645237D02*
X29811961Y-102740475D01*
X29811961Y-102740475D02*
X29716723Y-102788094D01*
X29716723Y-102788094D02*
X29526247Y-102835713D01*
X29526247Y-102835713D02*
X29383390Y-102835713D01*
X29383390Y-102835713D02*
X29192914Y-102788094D01*
X29192914Y-102788094D02*
X29097676Y-102740475D01*
X29097676Y-102740475D02*
X29002438Y-102645237D01*
X29002438Y-102645237D02*
X28954819Y-102502380D01*
X28954819Y-102502380D02*
X28954819Y-102407142D01*
X28954819Y-102407142D02*
X29002438Y-102264285D01*
X29002438Y-102264285D02*
X29050057Y-102216666D01*
X29383390Y-101645237D02*
X29335771Y-101740475D01*
X29335771Y-101740475D02*
X29288152Y-101788094D01*
X29288152Y-101788094D02*
X29192914Y-101835713D01*
X29192914Y-101835713D02*
X29145295Y-101835713D01*
X29145295Y-101835713D02*
X29050057Y-101788094D01*
X29050057Y-101788094D02*
X29002438Y-101740475D01*
X29002438Y-101740475D02*
X28954819Y-101645237D01*
X28954819Y-101645237D02*
X28954819Y-101454761D01*
X28954819Y-101454761D02*
X29002438Y-101359523D01*
X29002438Y-101359523D02*
X29050057Y-101311904D01*
X29050057Y-101311904D02*
X29145295Y-101264285D01*
X29145295Y-101264285D02*
X29192914Y-101264285D01*
X29192914Y-101264285D02*
X29288152Y-101311904D01*
X29288152Y-101311904D02*
X29335771Y-101359523D01*
X29335771Y-101359523D02*
X29383390Y-101454761D01*
X29383390Y-101454761D02*
X29383390Y-101645237D01*
X29383390Y-101645237D02*
X29431009Y-101740475D01*
X29431009Y-101740475D02*
X29478628Y-101788094D01*
X29478628Y-101788094D02*
X29573866Y-101835713D01*
X29573866Y-101835713D02*
X29764342Y-101835713D01*
X29764342Y-101835713D02*
X29859580Y-101788094D01*
X29859580Y-101788094D02*
X29907200Y-101740475D01*
X29907200Y-101740475D02*
X29954819Y-101645237D01*
X29954819Y-101645237D02*
X29954819Y-101454761D01*
X29954819Y-101454761D02*
X29907200Y-101359523D01*
X29907200Y-101359523D02*
X29859580Y-101311904D01*
X29859580Y-101311904D02*
X29764342Y-101264285D01*
X29764342Y-101264285D02*
X29573866Y-101264285D01*
X29573866Y-101264285D02*
X29478628Y-101311904D01*
X29478628Y-101311904D02*
X29431009Y-101359523D01*
X29431009Y-101359523D02*
X29383390Y-101454761D01*
X33954819Y-78717857D02*
X33478628Y-79051190D01*
X33954819Y-79289285D02*
X32954819Y-79289285D01*
X32954819Y-79289285D02*
X32954819Y-78908333D01*
X32954819Y-78908333D02*
X33002438Y-78813095D01*
X33002438Y-78813095D02*
X33050057Y-78765476D01*
X33050057Y-78765476D02*
X33145295Y-78717857D01*
X33145295Y-78717857D02*
X33288152Y-78717857D01*
X33288152Y-78717857D02*
X33383390Y-78765476D01*
X33383390Y-78765476D02*
X33431009Y-78813095D01*
X33431009Y-78813095D02*
X33478628Y-78908333D01*
X33478628Y-78908333D02*
X33478628Y-79289285D01*
X33954819Y-77765476D02*
X33954819Y-78336904D01*
X33954819Y-78051190D02*
X32954819Y-78051190D01*
X32954819Y-78051190D02*
X33097676Y-78146428D01*
X33097676Y-78146428D02*
X33192914Y-78241666D01*
X33192914Y-78241666D02*
X33240533Y-78336904D01*
X33288152Y-76908333D02*
X33954819Y-76908333D01*
X32907200Y-77146428D02*
X33621485Y-77384523D01*
X33621485Y-77384523D02*
X33621485Y-76765476D01*
X66857142Y-100959580D02*
X66809523Y-101007200D01*
X66809523Y-101007200D02*
X66666666Y-101054819D01*
X66666666Y-101054819D02*
X66571428Y-101054819D01*
X66571428Y-101054819D02*
X66428571Y-101007200D01*
X66428571Y-101007200D02*
X66333333Y-100911961D01*
X66333333Y-100911961D02*
X66285714Y-100816723D01*
X66285714Y-100816723D02*
X66238095Y-100626247D01*
X66238095Y-100626247D02*
X66238095Y-100483390D01*
X66238095Y-100483390D02*
X66285714Y-100292914D01*
X66285714Y-100292914D02*
X66333333Y-100197676D01*
X66333333Y-100197676D02*
X66428571Y-100102438D01*
X66428571Y-100102438D02*
X66571428Y-100054819D01*
X66571428Y-100054819D02*
X66666666Y-100054819D01*
X66666666Y-100054819D02*
X66809523Y-100102438D01*
X66809523Y-100102438D02*
X66857142Y-100150057D01*
X67809523Y-101054819D02*
X67238095Y-101054819D01*
X67523809Y-101054819D02*
X67523809Y-100054819D01*
X67523809Y-100054819D02*
X67428571Y-100197676D01*
X67428571Y-100197676D02*
X67333333Y-100292914D01*
X67333333Y-100292914D02*
X67238095Y-100340533D01*
X68714285Y-100054819D02*
X68238095Y-100054819D01*
X68238095Y-100054819D02*
X68190476Y-100531009D01*
X68190476Y-100531009D02*
X68238095Y-100483390D01*
X68238095Y-100483390D02*
X68333333Y-100435771D01*
X68333333Y-100435771D02*
X68571428Y-100435771D01*
X68571428Y-100435771D02*
X68666666Y-100483390D01*
X68666666Y-100483390D02*
X68714285Y-100531009D01*
X68714285Y-100531009D02*
X68761904Y-100626247D01*
X68761904Y-100626247D02*
X68761904Y-100864342D01*
X68761904Y-100864342D02*
X68714285Y-100959580D01*
X68714285Y-100959580D02*
X68666666Y-101007200D01*
X68666666Y-101007200D02*
X68571428Y-101054819D01*
X68571428Y-101054819D02*
X68333333Y-101054819D01*
X68333333Y-101054819D02*
X68238095Y-101007200D01*
X68238095Y-101007200D02*
X68190476Y-100959580D01*
X70904761Y-112604819D02*
X70571428Y-112128628D01*
X70333333Y-112604819D02*
X70333333Y-111604819D01*
X70333333Y-111604819D02*
X70714285Y-111604819D01*
X70714285Y-111604819D02*
X70809523Y-111652438D01*
X70809523Y-111652438D02*
X70857142Y-111700057D01*
X70857142Y-111700057D02*
X70904761Y-111795295D01*
X70904761Y-111795295D02*
X70904761Y-111938152D01*
X70904761Y-111938152D02*
X70857142Y-112033390D01*
X70857142Y-112033390D02*
X70809523Y-112081009D01*
X70809523Y-112081009D02*
X70714285Y-112128628D01*
X70714285Y-112128628D02*
X70333333Y-112128628D01*
X71190476Y-111604819D02*
X71523809Y-112604819D01*
X71523809Y-112604819D02*
X71857142Y-111604819D01*
X72142857Y-111700057D02*
X72190476Y-111652438D01*
X72190476Y-111652438D02*
X72285714Y-111604819D01*
X72285714Y-111604819D02*
X72523809Y-111604819D01*
X72523809Y-111604819D02*
X72619047Y-111652438D01*
X72619047Y-111652438D02*
X72666666Y-111700057D01*
X72666666Y-111700057D02*
X72714285Y-111795295D01*
X72714285Y-111795295D02*
X72714285Y-111890533D01*
X72714285Y-111890533D02*
X72666666Y-112033390D01*
X72666666Y-112033390D02*
X72095238Y-112604819D01*
X72095238Y-112604819D02*
X72714285Y-112604819D01*
X70657142Y-96809580D02*
X70609523Y-96857200D01*
X70609523Y-96857200D02*
X70466666Y-96904819D01*
X70466666Y-96904819D02*
X70371428Y-96904819D01*
X70371428Y-96904819D02*
X70228571Y-96857200D01*
X70228571Y-96857200D02*
X70133333Y-96761961D01*
X70133333Y-96761961D02*
X70085714Y-96666723D01*
X70085714Y-96666723D02*
X70038095Y-96476247D01*
X70038095Y-96476247D02*
X70038095Y-96333390D01*
X70038095Y-96333390D02*
X70085714Y-96142914D01*
X70085714Y-96142914D02*
X70133333Y-96047676D01*
X70133333Y-96047676D02*
X70228571Y-95952438D01*
X70228571Y-95952438D02*
X70371428Y-95904819D01*
X70371428Y-95904819D02*
X70466666Y-95904819D01*
X70466666Y-95904819D02*
X70609523Y-95952438D01*
X70609523Y-95952438D02*
X70657142Y-96000057D01*
X71609523Y-96904819D02*
X71038095Y-96904819D01*
X71323809Y-96904819D02*
X71323809Y-95904819D01*
X71323809Y-95904819D02*
X71228571Y-96047676D01*
X71228571Y-96047676D02*
X71133333Y-96142914D01*
X71133333Y-96142914D02*
X71038095Y-96190533D01*
X71990476Y-96000057D02*
X72038095Y-95952438D01*
X72038095Y-95952438D02*
X72133333Y-95904819D01*
X72133333Y-95904819D02*
X72371428Y-95904819D01*
X72371428Y-95904819D02*
X72466666Y-95952438D01*
X72466666Y-95952438D02*
X72514285Y-96000057D01*
X72514285Y-96000057D02*
X72561904Y-96095295D01*
X72561904Y-96095295D02*
X72561904Y-96190533D01*
X72561904Y-96190533D02*
X72514285Y-96333390D01*
X72514285Y-96333390D02*
X71942857Y-96904819D01*
X71942857Y-96904819D02*
X72561904Y-96904819D01*
X21959580Y-102692857D02*
X22007200Y-102740476D01*
X22007200Y-102740476D02*
X22054819Y-102883333D01*
X22054819Y-102883333D02*
X22054819Y-102978571D01*
X22054819Y-102978571D02*
X22007200Y-103121428D01*
X22007200Y-103121428D02*
X21911961Y-103216666D01*
X21911961Y-103216666D02*
X21816723Y-103264285D01*
X21816723Y-103264285D02*
X21626247Y-103311904D01*
X21626247Y-103311904D02*
X21483390Y-103311904D01*
X21483390Y-103311904D02*
X21292914Y-103264285D01*
X21292914Y-103264285D02*
X21197676Y-103216666D01*
X21197676Y-103216666D02*
X21102438Y-103121428D01*
X21102438Y-103121428D02*
X21054819Y-102978571D01*
X21054819Y-102978571D02*
X21054819Y-102883333D01*
X21054819Y-102883333D02*
X21102438Y-102740476D01*
X21102438Y-102740476D02*
X21150057Y-102692857D01*
X22054819Y-101740476D02*
X22054819Y-102311904D01*
X22054819Y-102026190D02*
X21054819Y-102026190D01*
X21054819Y-102026190D02*
X21197676Y-102121428D01*
X21197676Y-102121428D02*
X21292914Y-102216666D01*
X21292914Y-102216666D02*
X21340533Y-102311904D01*
X22054819Y-100788095D02*
X22054819Y-101359523D01*
X22054819Y-101073809D02*
X21054819Y-101073809D01*
X21054819Y-101073809D02*
X21197676Y-101169047D01*
X21197676Y-101169047D02*
X21292914Y-101264285D01*
X21292914Y-101264285D02*
X21340533Y-101359523D01*
X25126666Y-70709819D02*
X25126666Y-71424104D01*
X25126666Y-71424104D02*
X25079047Y-71566961D01*
X25079047Y-71566961D02*
X24983809Y-71662200D01*
X24983809Y-71662200D02*
X24840952Y-71709819D01*
X24840952Y-71709819D02*
X24745714Y-71709819D01*
X26031428Y-70709819D02*
X25840952Y-70709819D01*
X25840952Y-70709819D02*
X25745714Y-70757438D01*
X25745714Y-70757438D02*
X25698095Y-70805057D01*
X25698095Y-70805057D02*
X25602857Y-70947914D01*
X25602857Y-70947914D02*
X25555238Y-71138390D01*
X25555238Y-71138390D02*
X25555238Y-71519342D01*
X25555238Y-71519342D02*
X25602857Y-71614580D01*
X25602857Y-71614580D02*
X25650476Y-71662200D01*
X25650476Y-71662200D02*
X25745714Y-71709819D01*
X25745714Y-71709819D02*
X25936190Y-71709819D01*
X25936190Y-71709819D02*
X26031428Y-71662200D01*
X26031428Y-71662200D02*
X26079047Y-71614580D01*
X26079047Y-71614580D02*
X26126666Y-71519342D01*
X26126666Y-71519342D02*
X26126666Y-71281247D01*
X26126666Y-71281247D02*
X26079047Y-71186009D01*
X26079047Y-71186009D02*
X26031428Y-71138390D01*
X26031428Y-71138390D02*
X25936190Y-71090771D01*
X25936190Y-71090771D02*
X25745714Y-71090771D01*
X25745714Y-71090771D02*
X25650476Y-71138390D01*
X25650476Y-71138390D02*
X25602857Y-71186009D01*
X25602857Y-71186009D02*
X25555238Y-71281247D01*
X60859580Y-106266666D02*
X60907200Y-106314285D01*
X60907200Y-106314285D02*
X60954819Y-106457142D01*
X60954819Y-106457142D02*
X60954819Y-106552380D01*
X60954819Y-106552380D02*
X60907200Y-106695237D01*
X60907200Y-106695237D02*
X60811961Y-106790475D01*
X60811961Y-106790475D02*
X60716723Y-106838094D01*
X60716723Y-106838094D02*
X60526247Y-106885713D01*
X60526247Y-106885713D02*
X60383390Y-106885713D01*
X60383390Y-106885713D02*
X60192914Y-106838094D01*
X60192914Y-106838094D02*
X60097676Y-106790475D01*
X60097676Y-106790475D02*
X60002438Y-106695237D01*
X60002438Y-106695237D02*
X59954819Y-106552380D01*
X59954819Y-106552380D02*
X59954819Y-106457142D01*
X59954819Y-106457142D02*
X60002438Y-106314285D01*
X60002438Y-106314285D02*
X60050057Y-106266666D01*
X59954819Y-105409523D02*
X59954819Y-105599999D01*
X59954819Y-105599999D02*
X60002438Y-105695237D01*
X60002438Y-105695237D02*
X60050057Y-105742856D01*
X60050057Y-105742856D02*
X60192914Y-105838094D01*
X60192914Y-105838094D02*
X60383390Y-105885713D01*
X60383390Y-105885713D02*
X60764342Y-105885713D01*
X60764342Y-105885713D02*
X60859580Y-105838094D01*
X60859580Y-105838094D02*
X60907200Y-105790475D01*
X60907200Y-105790475D02*
X60954819Y-105695237D01*
X60954819Y-105695237D02*
X60954819Y-105504761D01*
X60954819Y-105504761D02*
X60907200Y-105409523D01*
X60907200Y-105409523D02*
X60859580Y-105361904D01*
X60859580Y-105361904D02*
X60764342Y-105314285D01*
X60764342Y-105314285D02*
X60526247Y-105314285D01*
X60526247Y-105314285D02*
X60431009Y-105361904D01*
X60431009Y-105361904D02*
X60383390Y-105409523D01*
X60383390Y-105409523D02*
X60335771Y-105504761D01*
X60335771Y-105504761D02*
X60335771Y-105695237D01*
X60335771Y-105695237D02*
X60383390Y-105790475D01*
X60383390Y-105790475D02*
X60431009Y-105838094D01*
X60431009Y-105838094D02*
X60526247Y-105885713D01*
X87616666Y-64479819D02*
X87616666Y-65194104D01*
X87616666Y-65194104D02*
X87569047Y-65336961D01*
X87569047Y-65336961D02*
X87473809Y-65432200D01*
X87473809Y-65432200D02*
X87330952Y-65479819D01*
X87330952Y-65479819D02*
X87235714Y-65479819D01*
X88235714Y-64908390D02*
X88140476Y-64860771D01*
X88140476Y-64860771D02*
X88092857Y-64813152D01*
X88092857Y-64813152D02*
X88045238Y-64717914D01*
X88045238Y-64717914D02*
X88045238Y-64670295D01*
X88045238Y-64670295D02*
X88092857Y-64575057D01*
X88092857Y-64575057D02*
X88140476Y-64527438D01*
X88140476Y-64527438D02*
X88235714Y-64479819D01*
X88235714Y-64479819D02*
X88426190Y-64479819D01*
X88426190Y-64479819D02*
X88521428Y-64527438D01*
X88521428Y-64527438D02*
X88569047Y-64575057D01*
X88569047Y-64575057D02*
X88616666Y-64670295D01*
X88616666Y-64670295D02*
X88616666Y-64717914D01*
X88616666Y-64717914D02*
X88569047Y-64813152D01*
X88569047Y-64813152D02*
X88521428Y-64860771D01*
X88521428Y-64860771D02*
X88426190Y-64908390D01*
X88426190Y-64908390D02*
X88235714Y-64908390D01*
X88235714Y-64908390D02*
X88140476Y-64956009D01*
X88140476Y-64956009D02*
X88092857Y-65003628D01*
X88092857Y-65003628D02*
X88045238Y-65098866D01*
X88045238Y-65098866D02*
X88045238Y-65289342D01*
X88045238Y-65289342D02*
X88092857Y-65384580D01*
X88092857Y-65384580D02*
X88140476Y-65432200D01*
X88140476Y-65432200D02*
X88235714Y-65479819D01*
X88235714Y-65479819D02*
X88426190Y-65479819D01*
X88426190Y-65479819D02*
X88521428Y-65432200D01*
X88521428Y-65432200D02*
X88569047Y-65384580D01*
X88569047Y-65384580D02*
X88616666Y-65289342D01*
X88616666Y-65289342D02*
X88616666Y-65098866D01*
X88616666Y-65098866D02*
X88569047Y-65003628D01*
X88569047Y-65003628D02*
X88521428Y-64956009D01*
X88521428Y-64956009D02*
X88426190Y-64908390D01*
X45757142Y-99409580D02*
X45709523Y-99457200D01*
X45709523Y-99457200D02*
X45566666Y-99504819D01*
X45566666Y-99504819D02*
X45471428Y-99504819D01*
X45471428Y-99504819D02*
X45328571Y-99457200D01*
X45328571Y-99457200D02*
X45233333Y-99361961D01*
X45233333Y-99361961D02*
X45185714Y-99266723D01*
X45185714Y-99266723D02*
X45138095Y-99076247D01*
X45138095Y-99076247D02*
X45138095Y-98933390D01*
X45138095Y-98933390D02*
X45185714Y-98742914D01*
X45185714Y-98742914D02*
X45233333Y-98647676D01*
X45233333Y-98647676D02*
X45328571Y-98552438D01*
X45328571Y-98552438D02*
X45471428Y-98504819D01*
X45471428Y-98504819D02*
X45566666Y-98504819D01*
X45566666Y-98504819D02*
X45709523Y-98552438D01*
X45709523Y-98552438D02*
X45757142Y-98600057D01*
X46709523Y-99504819D02*
X46138095Y-99504819D01*
X46423809Y-99504819D02*
X46423809Y-98504819D01*
X46423809Y-98504819D02*
X46328571Y-98647676D01*
X46328571Y-98647676D02*
X46233333Y-98742914D01*
X46233333Y-98742914D02*
X46138095Y-98790533D01*
X47566666Y-98838152D02*
X47566666Y-99504819D01*
X47328571Y-98457200D02*
X47090476Y-99171485D01*
X47090476Y-99171485D02*
X47709523Y-99171485D01*
X88359580Y-105716666D02*
X88407200Y-105764285D01*
X88407200Y-105764285D02*
X88454819Y-105907142D01*
X88454819Y-105907142D02*
X88454819Y-106002380D01*
X88454819Y-106002380D02*
X88407200Y-106145237D01*
X88407200Y-106145237D02*
X88311961Y-106240475D01*
X88311961Y-106240475D02*
X88216723Y-106288094D01*
X88216723Y-106288094D02*
X88026247Y-106335713D01*
X88026247Y-106335713D02*
X87883390Y-106335713D01*
X87883390Y-106335713D02*
X87692914Y-106288094D01*
X87692914Y-106288094D02*
X87597676Y-106240475D01*
X87597676Y-106240475D02*
X87502438Y-106145237D01*
X87502438Y-106145237D02*
X87454819Y-106002380D01*
X87454819Y-106002380D02*
X87454819Y-105907142D01*
X87454819Y-105907142D02*
X87502438Y-105764285D01*
X87502438Y-105764285D02*
X87550057Y-105716666D01*
X87454819Y-105383332D02*
X87454819Y-104716666D01*
X87454819Y-104716666D02*
X88454819Y-105145237D01*
%TO.C,C9*%
D12*
X54630000Y-102380000D02*
X57370000Y-102380000D01*
X54630000Y-109820000D02*
X54630000Y-102380000D01*
X57370000Y-102380000D02*
X57370000Y-109820000D01*
X57370000Y-109820000D02*
X54630000Y-109820000D01*
%TO.C,C18*%
X50832776Y-76552500D02*
X51342224Y-76552500D01*
X50832776Y-77597500D02*
X51342224Y-77597500D01*
%TO.C,RV3*%
X93230000Y-103829000D02*
X93230000Y-113620000D01*
X94480000Y-113620000D02*
X94480000Y-120620000D01*
X94980000Y-120620000D02*
X94980000Y-133600000D01*
X101220000Y-120620000D02*
X101220000Y-133600000D01*
X101220000Y-133600000D02*
X95000000Y-133600000D01*
X101720000Y-113620000D02*
X101720000Y-120620000D01*
X101720000Y-120620000D02*
X94480000Y-120620000D01*
X102970000Y-103829000D02*
X93230000Y-103829000D01*
X102970000Y-103829000D02*
X102970000Y-113620000D01*
X102970000Y-113620000D02*
X93230000Y-113620000D01*
%TO.C,C21*%
X78195276Y-84377500D02*
X78704724Y-84377500D01*
X78195276Y-85422500D02*
X78704724Y-85422500D01*
%TO.C,R17*%
X66254724Y-80052500D02*
X65745276Y-80052500D01*
X66254724Y-81097500D02*
X65745276Y-81097500D01*
%TO.C,R18*%
X79427500Y-77995276D02*
X79427500Y-78504724D01*
X80472500Y-77995276D02*
X80472500Y-78504724D01*
%TO.C,U3*%
X84850000Y-75935000D02*
X84850000Y-86215000D01*
X84850000Y-86215000D02*
X90150000Y-86215000D01*
X86500000Y-75935000D02*
X84850000Y-75935000D01*
X90150000Y-75935000D02*
X88500000Y-75935000D01*
X90150000Y-86215000D02*
X90150000Y-75935000D01*
X82360000Y-75875000D02*
X92640000Y-75875000D01*
X92640000Y-86275000D01*
X82360000Y-86275000D01*
X82360000Y-75875000D01*
X88500000Y-75935000D02*
G75*
G02*
X86500000Y-75935000I-1000000J0D01*
G01*
%TO.C,R15*%
X49977500Y-81320276D02*
X49977500Y-81829724D01*
X51022500Y-81320276D02*
X51022500Y-81829724D01*
%TO.C,R6*%
X79477500Y-94804724D02*
X79477500Y-94295276D01*
X80522500Y-94804724D02*
X80522500Y-94295276D01*
%TO.C,R7*%
X22427500Y-94654724D02*
X22427500Y-94145276D01*
X23472500Y-94654724D02*
X23472500Y-94145276D01*
%TO.C,R19*%
X94477500Y-81820276D02*
X94477500Y-82329724D01*
X95522500Y-81820276D02*
X95522500Y-82329724D01*
%TO.C,U2*%
X40350000Y-75935000D02*
X40350000Y-86215000D01*
X40350000Y-86215000D02*
X45650000Y-86215000D01*
X42000000Y-75935000D02*
X40350000Y-75935000D01*
X45650000Y-75935000D02*
X44000000Y-75935000D01*
X45650000Y-86215000D02*
X45650000Y-75935000D01*
X37860000Y-75875000D02*
X48140000Y-75875000D01*
X48140000Y-86275000D01*
X37860000Y-86275000D01*
X37860000Y-75875000D01*
X44000000Y-75935000D02*
G75*
G02*
X42000000Y-75935000I-1000000J0D01*
G01*
%TO.C,R11*%
X72477500Y-91404724D02*
X72477500Y-90895276D01*
X73522500Y-91404724D02*
X73522500Y-90895276D01*
%TO.C,R16*%
X66254724Y-76552500D02*
X65745276Y-76552500D01*
X66254724Y-77597500D02*
X65745276Y-77597500D01*
%TO.C,J7*%
X52255000Y-64427500D02*
X67735000Y-64427500D01*
X52255000Y-67447500D02*
X67735000Y-67447500D01*
X52255000Y-72347500D02*
X67735000Y-72347500D01*
X52255000Y-73847500D02*
X67735000Y-73847500D01*
X52255000Y-74467500D02*
X52255000Y-64427500D01*
X54615000Y-74467500D02*
X52255000Y-74467500D01*
X67735000Y-64427500D02*
X67735000Y-74467500D01*
X67735000Y-74467500D02*
X55215000Y-74467500D01*
X55355000Y-75077500D02*
X54475000Y-75077500D01*
X54915000Y-74467500D01*
X55355000Y-75077500D01*
G36*
X55355000Y-75077500D02*
G01*
X54475000Y-75077500D01*
X54915000Y-74467500D01*
X55355000Y-75077500D01*
G37*
%TO.C,C10*%
X76880000Y-98430000D02*
X83120000Y-98430000D01*
X76880000Y-111670000D02*
X76880000Y-98430000D01*
X83120000Y-98430000D02*
X83120000Y-111670000D01*
X83120000Y-111670000D02*
X76880000Y-111670000D01*
%TO.C,C13*%
X106380000Y-91930000D02*
X112620000Y-91930000D01*
X106380000Y-105170000D02*
X106380000Y-91930000D01*
X112620000Y-91930000D02*
X112620000Y-105170000D01*
X112620000Y-105170000D02*
X106380000Y-105170000D01*
%TO.C,C17*%
X33780000Y-98180000D02*
X41220000Y-98180000D01*
X33780000Y-102920000D02*
X33780000Y-98180000D01*
X41220000Y-98180000D02*
X41220000Y-102920000D01*
X41220000Y-102920000D02*
X33780000Y-102920000D01*
%TO.C,RV1*%
X34130000Y-103729000D02*
X34130000Y-113520000D01*
X35380000Y-113520000D02*
X35380000Y-120520000D01*
X35880000Y-120520000D02*
X35880000Y-133500000D01*
X42120000Y-120520000D02*
X42120000Y-133500000D01*
X42120000Y-133500000D02*
X35900000Y-133500000D01*
X42620000Y-113520000D02*
X42620000Y-120520000D01*
X42620000Y-120520000D02*
X35380000Y-120520000D01*
X43870000Y-103729000D02*
X34130000Y-103729000D01*
X43870000Y-103729000D02*
X43870000Y-113520000D01*
X43870000Y-113520000D02*
X34130000Y-113520000D01*
%TO.C,C19*%
X34332776Y-84552500D02*
X34842224Y-84552500D01*
X34332776Y-85597500D02*
X34842224Y-85597500D01*
%TO.C,C20*%
X95945276Y-76727500D02*
X96454724Y-76727500D01*
X95945276Y-77772500D02*
X96454724Y-77772500D01*
%TO.C,C16*%
X92380000Y-95430000D02*
X105620000Y-95430000D01*
X92380000Y-101670000D02*
X92380000Y-95430000D01*
X105620000Y-95430000D02*
X105620000Y-101670000D01*
X105620000Y-101670000D02*
X92380000Y-101670000D01*
%TO.C,R5*%
X55477500Y-98454724D02*
X55477500Y-97945276D01*
X56522500Y-98454724D02*
X56522500Y-97945276D01*
%TO.C,R12*%
X109027500Y-88754724D02*
X109027500Y-88245276D01*
X110072500Y-88754724D02*
X110072500Y-88245276D01*
%TO.C,R13*%
X48477500Y-94804724D02*
X48477500Y-94295276D01*
X49522500Y-94804724D02*
X49522500Y-94295276D01*
%TO.C,C8*%
X27130000Y-98330000D02*
X31870000Y-98330000D01*
X27130000Y-105770000D02*
X27130000Y-98330000D01*
X31870000Y-98330000D02*
X31870000Y-105770000D01*
X31870000Y-105770000D02*
X27130000Y-105770000D01*
%TO.C,R14*%
X34977500Y-77820276D02*
X34977500Y-78329724D01*
X36022500Y-77820276D02*
X36022500Y-78329724D01*
%TO.C,C15*%
X63780000Y-99230000D02*
X71220000Y-99230000D01*
X63780000Y-101970000D02*
X63780000Y-99230000D01*
X71220000Y-99230000D02*
X71220000Y-101970000D01*
X71220000Y-101970000D02*
X63780000Y-101970000D01*
%TO.C,RV2*%
X64130000Y-103929000D02*
X64130000Y-113720000D01*
X65380000Y-113720000D02*
X65380000Y-120720000D01*
X65880000Y-120720000D02*
X65880000Y-133700000D01*
X72120000Y-120720000D02*
X72120000Y-133700000D01*
X72120000Y-133700000D02*
X65900000Y-133700000D01*
X72620000Y-113720000D02*
X72620000Y-120720000D01*
X72620000Y-120720000D02*
X65380000Y-120720000D01*
X73870000Y-103929000D02*
X64130000Y-103929000D01*
X73870000Y-103929000D02*
X73870000Y-113720000D01*
X73870000Y-113720000D02*
X64130000Y-113720000D01*
%TO.C,C12*%
X67580000Y-95080000D02*
X75020000Y-95080000D01*
X67580000Y-97820000D02*
X67580000Y-95080000D01*
X75020000Y-95080000D02*
X75020000Y-97820000D01*
X75020000Y-97820000D02*
X67580000Y-97820000D01*
%TO.C,C11*%
X20630000Y-98330000D02*
X25370000Y-98330000D01*
X20630000Y-105770000D02*
X20630000Y-98330000D01*
X25370000Y-98330000D02*
X25370000Y-105770000D01*
X25370000Y-105770000D02*
X20630000Y-105770000D01*
%TO.C,J6*%
X20260000Y-72255000D02*
X30660000Y-72255000D01*
X20260000Y-75275000D02*
X30660000Y-75275000D01*
X20260000Y-80175000D02*
X30660000Y-80175000D01*
X20260000Y-81675000D02*
X30660000Y-81675000D01*
X20260000Y-82295000D02*
X20260000Y-72255000D01*
X22620000Y-82295000D02*
X20260000Y-82295000D01*
X30660000Y-72255000D02*
X30660000Y-82295000D01*
X30660000Y-82295000D02*
X23220000Y-82295000D01*
X23360000Y-82905000D02*
X22480000Y-82905000D01*
X22920000Y-82295000D01*
X23360000Y-82905000D01*
G36*
X23360000Y-82905000D02*
G01*
X22480000Y-82905000D01*
X22920000Y-82295000D01*
X23360000Y-82905000D01*
G37*
%TO.C,C6*%
X59130000Y-102380000D02*
X61870000Y-102380000D01*
X59130000Y-109820000D02*
X59130000Y-102380000D01*
X61870000Y-102380000D02*
X61870000Y-109820000D01*
X61870000Y-109820000D02*
X59130000Y-109820000D01*
%TO.C,J8*%
X80010000Y-63505000D02*
X95490000Y-63505000D01*
X80010000Y-66525000D02*
X95490000Y-66525000D01*
X80010000Y-71425000D02*
X95490000Y-71425000D01*
X80010000Y-72925000D02*
X95490000Y-72925000D01*
X80010000Y-73545000D02*
X80010000Y-63505000D01*
X82370000Y-73545000D02*
X80010000Y-73545000D01*
X95490000Y-63505000D02*
X95490000Y-73545000D01*
X95490000Y-73545000D02*
X82970000Y-73545000D01*
X83110000Y-74155000D02*
X82230000Y-74155000D01*
X82670000Y-73545000D01*
X83110000Y-74155000D01*
G36*
X83110000Y-74155000D02*
G01*
X82230000Y-74155000D01*
X82670000Y-73545000D01*
X83110000Y-74155000D01*
G37*
%TO.C,C14*%
X42780000Y-98180000D02*
X50220000Y-98180000D01*
X42780000Y-102920000D02*
X42780000Y-98180000D01*
X50220000Y-98180000D02*
X50220000Y-102920000D01*
X50220000Y-102920000D02*
X42780000Y-102920000D01*
%TO.C,C7*%
X84880000Y-98430000D02*
X91120000Y-98430000D01*
X84880000Y-111670000D02*
X84880000Y-98430000D01*
X91120000Y-98430000D02*
X91120000Y-111670000D01*
X91120000Y-111670000D02*
X84880000Y-111670000D01*
%TD*%
M02*
