%TF.GenerationSoftware,KiCad,Pcbnew,10.0.1*%
%TF.CreationDate,2026-05-12T01:25:28+09:00*%
%TF.ProjectId,AudioCase,41756469-6f43-4617-9365-2e6b69636164,rev?*%
%TF.SameCoordinates,Original*%
%TF.FileFunction,Legend,Bot*%
%TF.FilePolarity,Positive*%
%FSLAX46Y46*%
G04 Gerber Fmt 4.6, Leading zero omitted, Abs format (unit mm)*
G04 Created by KiCad (PCBNEW 10.0.1) date 2026-05-12 01:25:28*
%MOMM*%
%LPD*%
G01*
G04 APERTURE LIST*
%ADD10C,0.150000*%
%ADD11C,0.120000*%
G04 APERTURE END LIST*
D10*
X140734819Y-83830399D02*
X140258628Y-83497066D01*
X140734819Y-83258971D02*
X139734819Y-83258971D01*
X139734819Y-83258971D02*
X139734819Y-83639923D01*
X139734819Y-83639923D02*
X139782438Y-83735161D01*
X139782438Y-83735161D02*
X139830057Y-83782780D01*
X139830057Y-83782780D02*
X139925295Y-83830399D01*
X139925295Y-83830399D02*
X140068152Y-83830399D01*
X140068152Y-83830399D02*
X140163390Y-83782780D01*
X140163390Y-83782780D02*
X140211009Y-83735161D01*
X140211009Y-83735161D02*
X140258628Y-83639923D01*
X140258628Y-83639923D02*
X140258628Y-83258971D01*
X139830057Y-84211352D02*
X139782438Y-84258971D01*
X139782438Y-84258971D02*
X139734819Y-84354209D01*
X139734819Y-84354209D02*
X139734819Y-84592304D01*
X139734819Y-84592304D02*
X139782438Y-84687542D01*
X139782438Y-84687542D02*
X139830057Y-84735161D01*
X139830057Y-84735161D02*
X139925295Y-84782780D01*
X139925295Y-84782780D02*
X140020533Y-84782780D01*
X140020533Y-84782780D02*
X140163390Y-84735161D01*
X140163390Y-84735161D02*
X140734819Y-84163733D01*
X140734819Y-84163733D02*
X140734819Y-84782780D01*
X139734819Y-85687542D02*
X139734819Y-85211352D01*
X139734819Y-85211352D02*
X140211009Y-85163733D01*
X140211009Y-85163733D02*
X140163390Y-85211352D01*
X140163390Y-85211352D02*
X140115771Y-85306590D01*
X140115771Y-85306590D02*
X140115771Y-85544685D01*
X140115771Y-85544685D02*
X140163390Y-85639923D01*
X140163390Y-85639923D02*
X140211009Y-85687542D01*
X140211009Y-85687542D02*
X140306247Y-85735161D01*
X140306247Y-85735161D02*
X140544342Y-85735161D01*
X140544342Y-85735161D02*
X140639580Y-85687542D01*
X140639580Y-85687542D02*
X140687200Y-85639923D01*
X140687200Y-85639923D02*
X140734819Y-85544685D01*
X140734819Y-85544685D02*
X140734819Y-85306590D01*
X140734819Y-85306590D02*
X140687200Y-85211352D01*
X140687200Y-85211352D02*
X140639580Y-85163733D01*
X131047857Y-84428076D02*
X131381190Y-83951885D01*
X131619285Y-84428076D02*
X131619285Y-83428076D01*
X131619285Y-83428076D02*
X131238333Y-83428076D01*
X131238333Y-83428076D02*
X131143095Y-83475695D01*
X131143095Y-83475695D02*
X131095476Y-83523314D01*
X131095476Y-83523314D02*
X131047857Y-83618552D01*
X131047857Y-83618552D02*
X131047857Y-83761409D01*
X131047857Y-83761409D02*
X131095476Y-83856647D01*
X131095476Y-83856647D02*
X131143095Y-83904266D01*
X131143095Y-83904266D02*
X131238333Y-83951885D01*
X131238333Y-83951885D02*
X131619285Y-83951885D01*
X130666904Y-83523314D02*
X130619285Y-83475695D01*
X130619285Y-83475695D02*
X130524047Y-83428076D01*
X130524047Y-83428076D02*
X130285952Y-83428076D01*
X130285952Y-83428076D02*
X130190714Y-83475695D01*
X130190714Y-83475695D02*
X130143095Y-83523314D01*
X130143095Y-83523314D02*
X130095476Y-83618552D01*
X130095476Y-83618552D02*
X130095476Y-83713790D01*
X130095476Y-83713790D02*
X130143095Y-83856647D01*
X130143095Y-83856647D02*
X130714523Y-84428076D01*
X130714523Y-84428076D02*
X130095476Y-84428076D01*
X129238333Y-83761409D02*
X129238333Y-84428076D01*
X129476428Y-83380457D02*
X129714523Y-84094742D01*
X129714523Y-84094742D02*
X129095476Y-84094742D01*
X142984819Y-80230399D02*
X142508628Y-79897066D01*
X142984819Y-79658971D02*
X141984819Y-79658971D01*
X141984819Y-79658971D02*
X141984819Y-80039923D01*
X141984819Y-80039923D02*
X142032438Y-80135161D01*
X142032438Y-80135161D02*
X142080057Y-80182780D01*
X142080057Y-80182780D02*
X142175295Y-80230399D01*
X142175295Y-80230399D02*
X142318152Y-80230399D01*
X142318152Y-80230399D02*
X142413390Y-80182780D01*
X142413390Y-80182780D02*
X142461009Y-80135161D01*
X142461009Y-80135161D02*
X142508628Y-80039923D01*
X142508628Y-80039923D02*
X142508628Y-79658971D01*
X142080057Y-80611352D02*
X142032438Y-80658971D01*
X142032438Y-80658971D02*
X141984819Y-80754209D01*
X141984819Y-80754209D02*
X141984819Y-80992304D01*
X141984819Y-80992304D02*
X142032438Y-81087542D01*
X142032438Y-81087542D02*
X142080057Y-81135161D01*
X142080057Y-81135161D02*
X142175295Y-81182780D01*
X142175295Y-81182780D02*
X142270533Y-81182780D01*
X142270533Y-81182780D02*
X142413390Y-81135161D01*
X142413390Y-81135161D02*
X142984819Y-80563733D01*
X142984819Y-80563733D02*
X142984819Y-81182780D01*
X141984819Y-82039923D02*
X141984819Y-81849447D01*
X141984819Y-81849447D02*
X142032438Y-81754209D01*
X142032438Y-81754209D02*
X142080057Y-81706590D01*
X142080057Y-81706590D02*
X142222914Y-81611352D01*
X142222914Y-81611352D02*
X142413390Y-81563733D01*
X142413390Y-81563733D02*
X142794342Y-81563733D01*
X142794342Y-81563733D02*
X142889580Y-81611352D01*
X142889580Y-81611352D02*
X142937200Y-81658971D01*
X142937200Y-81658971D02*
X142984819Y-81754209D01*
X142984819Y-81754209D02*
X142984819Y-81944685D01*
X142984819Y-81944685D02*
X142937200Y-82039923D01*
X142937200Y-82039923D02*
X142889580Y-82087542D01*
X142889580Y-82087542D02*
X142794342Y-82135161D01*
X142794342Y-82135161D02*
X142556247Y-82135161D01*
X142556247Y-82135161D02*
X142461009Y-82087542D01*
X142461009Y-82087542D02*
X142413390Y-82039923D01*
X142413390Y-82039923D02*
X142365771Y-81944685D01*
X142365771Y-81944685D02*
X142365771Y-81754209D01*
X142365771Y-81754209D02*
X142413390Y-81658971D01*
X142413390Y-81658971D02*
X142461009Y-81611352D01*
X142461009Y-81611352D02*
X142556247Y-81563733D01*
X151122857Y-79878076D02*
X151456190Y-79401885D01*
X151694285Y-79878076D02*
X151694285Y-78878076D01*
X151694285Y-78878076D02*
X151313333Y-78878076D01*
X151313333Y-78878076D02*
X151218095Y-78925695D01*
X151218095Y-78925695D02*
X151170476Y-78973314D01*
X151170476Y-78973314D02*
X151122857Y-79068552D01*
X151122857Y-79068552D02*
X151122857Y-79211409D01*
X151122857Y-79211409D02*
X151170476Y-79306647D01*
X151170476Y-79306647D02*
X151218095Y-79354266D01*
X151218095Y-79354266D02*
X151313333Y-79401885D01*
X151313333Y-79401885D02*
X151694285Y-79401885D01*
X150741904Y-78973314D02*
X150694285Y-78925695D01*
X150694285Y-78925695D02*
X150599047Y-78878076D01*
X150599047Y-78878076D02*
X150360952Y-78878076D01*
X150360952Y-78878076D02*
X150265714Y-78925695D01*
X150265714Y-78925695D02*
X150218095Y-78973314D01*
X150218095Y-78973314D02*
X150170476Y-79068552D01*
X150170476Y-79068552D02*
X150170476Y-79163790D01*
X150170476Y-79163790D02*
X150218095Y-79306647D01*
X150218095Y-79306647D02*
X150789523Y-79878076D01*
X150789523Y-79878076D02*
X150170476Y-79878076D01*
X149694285Y-79878076D02*
X149503809Y-79878076D01*
X149503809Y-79878076D02*
X149408571Y-79830457D01*
X149408571Y-79830457D02*
X149360952Y-79782837D01*
X149360952Y-79782837D02*
X149265714Y-79639980D01*
X149265714Y-79639980D02*
X149218095Y-79449504D01*
X149218095Y-79449504D02*
X149218095Y-79068552D01*
X149218095Y-79068552D02*
X149265714Y-78973314D01*
X149265714Y-78973314D02*
X149313333Y-78925695D01*
X149313333Y-78925695D02*
X149408571Y-78878076D01*
X149408571Y-78878076D02*
X149599047Y-78878076D01*
X149599047Y-78878076D02*
X149694285Y-78925695D01*
X149694285Y-78925695D02*
X149741904Y-78973314D01*
X149741904Y-78973314D02*
X149789523Y-79068552D01*
X149789523Y-79068552D02*
X149789523Y-79306647D01*
X149789523Y-79306647D02*
X149741904Y-79401885D01*
X149741904Y-79401885D02*
X149694285Y-79449504D01*
X149694285Y-79449504D02*
X149599047Y-79497123D01*
X149599047Y-79497123D02*
X149408571Y-79497123D01*
X149408571Y-79497123D02*
X149313333Y-79449504D01*
X149313333Y-79449504D02*
X149265714Y-79401885D01*
X149265714Y-79401885D02*
X149218095Y-79306647D01*
X135772857Y-89357837D02*
X135820476Y-89405457D01*
X135820476Y-89405457D02*
X135963333Y-89453076D01*
X135963333Y-89453076D02*
X136058571Y-89453076D01*
X136058571Y-89453076D02*
X136201428Y-89405457D01*
X136201428Y-89405457D02*
X136296666Y-89310218D01*
X136296666Y-89310218D02*
X136344285Y-89214980D01*
X136344285Y-89214980D02*
X136391904Y-89024504D01*
X136391904Y-89024504D02*
X136391904Y-88881647D01*
X136391904Y-88881647D02*
X136344285Y-88691171D01*
X136344285Y-88691171D02*
X136296666Y-88595933D01*
X136296666Y-88595933D02*
X136201428Y-88500695D01*
X136201428Y-88500695D02*
X136058571Y-88453076D01*
X136058571Y-88453076D02*
X135963333Y-88453076D01*
X135963333Y-88453076D02*
X135820476Y-88500695D01*
X135820476Y-88500695D02*
X135772857Y-88548314D01*
X135391904Y-88548314D02*
X135344285Y-88500695D01*
X135344285Y-88500695D02*
X135249047Y-88453076D01*
X135249047Y-88453076D02*
X135010952Y-88453076D01*
X135010952Y-88453076D02*
X134915714Y-88500695D01*
X134915714Y-88500695D02*
X134868095Y-88548314D01*
X134868095Y-88548314D02*
X134820476Y-88643552D01*
X134820476Y-88643552D02*
X134820476Y-88738790D01*
X134820476Y-88738790D02*
X134868095Y-88881647D01*
X134868095Y-88881647D02*
X135439523Y-89453076D01*
X135439523Y-89453076D02*
X134820476Y-89453076D01*
X134487142Y-88453076D02*
X133868095Y-88453076D01*
X133868095Y-88453076D02*
X134201428Y-88834028D01*
X134201428Y-88834028D02*
X134058571Y-88834028D01*
X134058571Y-88834028D02*
X133963333Y-88881647D01*
X133963333Y-88881647D02*
X133915714Y-88929266D01*
X133915714Y-88929266D02*
X133868095Y-89024504D01*
X133868095Y-89024504D02*
X133868095Y-89262599D01*
X133868095Y-89262599D02*
X133915714Y-89357837D01*
X133915714Y-89357837D02*
X133963333Y-89405457D01*
X133963333Y-89405457D02*
X134058571Y-89453076D01*
X134058571Y-89453076D02*
X134344285Y-89453076D01*
X134344285Y-89453076D02*
X134439523Y-89405457D01*
X134439523Y-89405457D02*
X134487142Y-89357837D01*
X140382857Y-77622837D02*
X140430476Y-77670457D01*
X140430476Y-77670457D02*
X140573333Y-77718076D01*
X140573333Y-77718076D02*
X140668571Y-77718076D01*
X140668571Y-77718076D02*
X140811428Y-77670457D01*
X140811428Y-77670457D02*
X140906666Y-77575218D01*
X140906666Y-77575218D02*
X140954285Y-77479980D01*
X140954285Y-77479980D02*
X141001904Y-77289504D01*
X141001904Y-77289504D02*
X141001904Y-77146647D01*
X141001904Y-77146647D02*
X140954285Y-76956171D01*
X140954285Y-76956171D02*
X140906666Y-76860933D01*
X140906666Y-76860933D02*
X140811428Y-76765695D01*
X140811428Y-76765695D02*
X140668571Y-76718076D01*
X140668571Y-76718076D02*
X140573333Y-76718076D01*
X140573333Y-76718076D02*
X140430476Y-76765695D01*
X140430476Y-76765695D02*
X140382857Y-76813314D01*
X140001904Y-76813314D02*
X139954285Y-76765695D01*
X139954285Y-76765695D02*
X139859047Y-76718076D01*
X139859047Y-76718076D02*
X139620952Y-76718076D01*
X139620952Y-76718076D02*
X139525714Y-76765695D01*
X139525714Y-76765695D02*
X139478095Y-76813314D01*
X139478095Y-76813314D02*
X139430476Y-76908552D01*
X139430476Y-76908552D02*
X139430476Y-77003790D01*
X139430476Y-77003790D02*
X139478095Y-77146647D01*
X139478095Y-77146647D02*
X140049523Y-77718076D01*
X140049523Y-77718076D02*
X139430476Y-77718076D01*
X139049523Y-76813314D02*
X139001904Y-76765695D01*
X139001904Y-76765695D02*
X138906666Y-76718076D01*
X138906666Y-76718076D02*
X138668571Y-76718076D01*
X138668571Y-76718076D02*
X138573333Y-76765695D01*
X138573333Y-76765695D02*
X138525714Y-76813314D01*
X138525714Y-76813314D02*
X138478095Y-76908552D01*
X138478095Y-76908552D02*
X138478095Y-77003790D01*
X138478095Y-77003790D02*
X138525714Y-77146647D01*
X138525714Y-77146647D02*
X139097142Y-77718076D01*
X139097142Y-77718076D02*
X138478095Y-77718076D01*
X144072857Y-91728076D02*
X144406190Y-91251885D01*
X144644285Y-91728076D02*
X144644285Y-90728076D01*
X144644285Y-90728076D02*
X144263333Y-90728076D01*
X144263333Y-90728076D02*
X144168095Y-90775695D01*
X144168095Y-90775695D02*
X144120476Y-90823314D01*
X144120476Y-90823314D02*
X144072857Y-90918552D01*
X144072857Y-90918552D02*
X144072857Y-91061409D01*
X144072857Y-91061409D02*
X144120476Y-91156647D01*
X144120476Y-91156647D02*
X144168095Y-91204266D01*
X144168095Y-91204266D02*
X144263333Y-91251885D01*
X144263333Y-91251885D02*
X144644285Y-91251885D01*
X143691904Y-90823314D02*
X143644285Y-90775695D01*
X143644285Y-90775695D02*
X143549047Y-90728076D01*
X143549047Y-90728076D02*
X143310952Y-90728076D01*
X143310952Y-90728076D02*
X143215714Y-90775695D01*
X143215714Y-90775695D02*
X143168095Y-90823314D01*
X143168095Y-90823314D02*
X143120476Y-90918552D01*
X143120476Y-90918552D02*
X143120476Y-91013790D01*
X143120476Y-91013790D02*
X143168095Y-91156647D01*
X143168095Y-91156647D02*
X143739523Y-91728076D01*
X143739523Y-91728076D02*
X143120476Y-91728076D01*
X142787142Y-90728076D02*
X142168095Y-90728076D01*
X142168095Y-90728076D02*
X142501428Y-91109028D01*
X142501428Y-91109028D02*
X142358571Y-91109028D01*
X142358571Y-91109028D02*
X142263333Y-91156647D01*
X142263333Y-91156647D02*
X142215714Y-91204266D01*
X142215714Y-91204266D02*
X142168095Y-91299504D01*
X142168095Y-91299504D02*
X142168095Y-91537599D01*
X142168095Y-91537599D02*
X142215714Y-91632837D01*
X142215714Y-91632837D02*
X142263333Y-91680457D01*
X142263333Y-91680457D02*
X142358571Y-91728076D01*
X142358571Y-91728076D02*
X142644285Y-91728076D01*
X142644285Y-91728076D02*
X142739523Y-91680457D01*
X142739523Y-91680457D02*
X142787142Y-91632837D01*
X149372857Y-87053076D02*
X149706190Y-86576885D01*
X149944285Y-87053076D02*
X149944285Y-86053076D01*
X149944285Y-86053076D02*
X149563333Y-86053076D01*
X149563333Y-86053076D02*
X149468095Y-86100695D01*
X149468095Y-86100695D02*
X149420476Y-86148314D01*
X149420476Y-86148314D02*
X149372857Y-86243552D01*
X149372857Y-86243552D02*
X149372857Y-86386409D01*
X149372857Y-86386409D02*
X149420476Y-86481647D01*
X149420476Y-86481647D02*
X149468095Y-86529266D01*
X149468095Y-86529266D02*
X149563333Y-86576885D01*
X149563333Y-86576885D02*
X149944285Y-86576885D01*
X148991904Y-86148314D02*
X148944285Y-86100695D01*
X148944285Y-86100695D02*
X148849047Y-86053076D01*
X148849047Y-86053076D02*
X148610952Y-86053076D01*
X148610952Y-86053076D02*
X148515714Y-86100695D01*
X148515714Y-86100695D02*
X148468095Y-86148314D01*
X148468095Y-86148314D02*
X148420476Y-86243552D01*
X148420476Y-86243552D02*
X148420476Y-86338790D01*
X148420476Y-86338790D02*
X148468095Y-86481647D01*
X148468095Y-86481647D02*
X149039523Y-87053076D01*
X149039523Y-87053076D02*
X148420476Y-87053076D01*
X148087142Y-86053076D02*
X147420476Y-86053076D01*
X147420476Y-86053076D02*
X147849047Y-87053076D01*
X120972857Y-102428076D02*
X121306190Y-101951885D01*
X121544285Y-102428076D02*
X121544285Y-101428076D01*
X121544285Y-101428076D02*
X121163333Y-101428076D01*
X121163333Y-101428076D02*
X121068095Y-101475695D01*
X121068095Y-101475695D02*
X121020476Y-101523314D01*
X121020476Y-101523314D02*
X120972857Y-101618552D01*
X120972857Y-101618552D02*
X120972857Y-101761409D01*
X120972857Y-101761409D02*
X121020476Y-101856647D01*
X121020476Y-101856647D02*
X121068095Y-101904266D01*
X121068095Y-101904266D02*
X121163333Y-101951885D01*
X121163333Y-101951885D02*
X121544285Y-101951885D01*
X120591904Y-101523314D02*
X120544285Y-101475695D01*
X120544285Y-101475695D02*
X120449047Y-101428076D01*
X120449047Y-101428076D02*
X120210952Y-101428076D01*
X120210952Y-101428076D02*
X120115714Y-101475695D01*
X120115714Y-101475695D02*
X120068095Y-101523314D01*
X120068095Y-101523314D02*
X120020476Y-101618552D01*
X120020476Y-101618552D02*
X120020476Y-101713790D01*
X120020476Y-101713790D02*
X120068095Y-101856647D01*
X120068095Y-101856647D02*
X120639523Y-102428076D01*
X120639523Y-102428076D02*
X120020476Y-102428076D01*
X119068095Y-102428076D02*
X119639523Y-102428076D01*
X119353809Y-102428076D02*
X119353809Y-101428076D01*
X119353809Y-101428076D02*
X119449047Y-101570933D01*
X119449047Y-101570933D02*
X119544285Y-101666171D01*
X119544285Y-101666171D02*
X119639523Y-101713790D01*
X117422857Y-82678076D02*
X117756190Y-82201885D01*
X117994285Y-82678076D02*
X117994285Y-81678076D01*
X117994285Y-81678076D02*
X117613333Y-81678076D01*
X117613333Y-81678076D02*
X117518095Y-81725695D01*
X117518095Y-81725695D02*
X117470476Y-81773314D01*
X117470476Y-81773314D02*
X117422857Y-81868552D01*
X117422857Y-81868552D02*
X117422857Y-82011409D01*
X117422857Y-82011409D02*
X117470476Y-82106647D01*
X117470476Y-82106647D02*
X117518095Y-82154266D01*
X117518095Y-82154266D02*
X117613333Y-82201885D01*
X117613333Y-82201885D02*
X117994285Y-82201885D01*
X117041904Y-81773314D02*
X116994285Y-81725695D01*
X116994285Y-81725695D02*
X116899047Y-81678076D01*
X116899047Y-81678076D02*
X116660952Y-81678076D01*
X116660952Y-81678076D02*
X116565714Y-81725695D01*
X116565714Y-81725695D02*
X116518095Y-81773314D01*
X116518095Y-81773314D02*
X116470476Y-81868552D01*
X116470476Y-81868552D02*
X116470476Y-81963790D01*
X116470476Y-81963790D02*
X116518095Y-82106647D01*
X116518095Y-82106647D02*
X117089523Y-82678076D01*
X117089523Y-82678076D02*
X116470476Y-82678076D01*
X115851428Y-81678076D02*
X115756190Y-81678076D01*
X115756190Y-81678076D02*
X115660952Y-81725695D01*
X115660952Y-81725695D02*
X115613333Y-81773314D01*
X115613333Y-81773314D02*
X115565714Y-81868552D01*
X115565714Y-81868552D02*
X115518095Y-82059028D01*
X115518095Y-82059028D02*
X115518095Y-82297123D01*
X115518095Y-82297123D02*
X115565714Y-82487599D01*
X115565714Y-82487599D02*
X115613333Y-82582837D01*
X115613333Y-82582837D02*
X115660952Y-82630457D01*
X115660952Y-82630457D02*
X115756190Y-82678076D01*
X115756190Y-82678076D02*
X115851428Y-82678076D01*
X115851428Y-82678076D02*
X115946666Y-82630457D01*
X115946666Y-82630457D02*
X115994285Y-82582837D01*
X115994285Y-82582837D02*
X116041904Y-82487599D01*
X116041904Y-82487599D02*
X116089523Y-82297123D01*
X116089523Y-82297123D02*
X116089523Y-82059028D01*
X116089523Y-82059028D02*
X116041904Y-81868552D01*
X116041904Y-81868552D02*
X115994285Y-81773314D01*
X115994285Y-81773314D02*
X115946666Y-81725695D01*
X115946666Y-81725695D02*
X115851428Y-81678076D01*
X131110357Y-82378076D02*
X131443690Y-81901885D01*
X131681785Y-82378076D02*
X131681785Y-81378076D01*
X131681785Y-81378076D02*
X131300833Y-81378076D01*
X131300833Y-81378076D02*
X131205595Y-81425695D01*
X131205595Y-81425695D02*
X131157976Y-81473314D01*
X131157976Y-81473314D02*
X131110357Y-81568552D01*
X131110357Y-81568552D02*
X131110357Y-81711409D01*
X131110357Y-81711409D02*
X131157976Y-81806647D01*
X131157976Y-81806647D02*
X131205595Y-81854266D01*
X131205595Y-81854266D02*
X131300833Y-81901885D01*
X131300833Y-81901885D02*
X131681785Y-81901885D01*
X130729404Y-81473314D02*
X130681785Y-81425695D01*
X130681785Y-81425695D02*
X130586547Y-81378076D01*
X130586547Y-81378076D02*
X130348452Y-81378076D01*
X130348452Y-81378076D02*
X130253214Y-81425695D01*
X130253214Y-81425695D02*
X130205595Y-81473314D01*
X130205595Y-81473314D02*
X130157976Y-81568552D01*
X130157976Y-81568552D02*
X130157976Y-81663790D01*
X130157976Y-81663790D02*
X130205595Y-81806647D01*
X130205595Y-81806647D02*
X130777023Y-82378076D01*
X130777023Y-82378076D02*
X130157976Y-82378076D01*
X129777023Y-81473314D02*
X129729404Y-81425695D01*
X129729404Y-81425695D02*
X129634166Y-81378076D01*
X129634166Y-81378076D02*
X129396071Y-81378076D01*
X129396071Y-81378076D02*
X129300833Y-81425695D01*
X129300833Y-81425695D02*
X129253214Y-81473314D01*
X129253214Y-81473314D02*
X129205595Y-81568552D01*
X129205595Y-81568552D02*
X129205595Y-81663790D01*
X129205595Y-81663790D02*
X129253214Y-81806647D01*
X129253214Y-81806647D02*
X129824642Y-82378076D01*
X129824642Y-82378076D02*
X129205595Y-82378076D01*
X131310357Y-75528076D02*
X131643690Y-75051885D01*
X131881785Y-75528076D02*
X131881785Y-74528076D01*
X131881785Y-74528076D02*
X131500833Y-74528076D01*
X131500833Y-74528076D02*
X131405595Y-74575695D01*
X131405595Y-74575695D02*
X131357976Y-74623314D01*
X131357976Y-74623314D02*
X131310357Y-74718552D01*
X131310357Y-74718552D02*
X131310357Y-74861409D01*
X131310357Y-74861409D02*
X131357976Y-74956647D01*
X131357976Y-74956647D02*
X131405595Y-75004266D01*
X131405595Y-75004266D02*
X131500833Y-75051885D01*
X131500833Y-75051885D02*
X131881785Y-75051885D01*
X130929404Y-74623314D02*
X130881785Y-74575695D01*
X130881785Y-74575695D02*
X130786547Y-74528076D01*
X130786547Y-74528076D02*
X130548452Y-74528076D01*
X130548452Y-74528076D02*
X130453214Y-74575695D01*
X130453214Y-74575695D02*
X130405595Y-74623314D01*
X130405595Y-74623314D02*
X130357976Y-74718552D01*
X130357976Y-74718552D02*
X130357976Y-74813790D01*
X130357976Y-74813790D02*
X130405595Y-74956647D01*
X130405595Y-74956647D02*
X130977023Y-75528076D01*
X130977023Y-75528076D02*
X130357976Y-75528076D01*
X129786547Y-74956647D02*
X129881785Y-74909028D01*
X129881785Y-74909028D02*
X129929404Y-74861409D01*
X129929404Y-74861409D02*
X129977023Y-74766171D01*
X129977023Y-74766171D02*
X129977023Y-74718552D01*
X129977023Y-74718552D02*
X129929404Y-74623314D01*
X129929404Y-74623314D02*
X129881785Y-74575695D01*
X129881785Y-74575695D02*
X129786547Y-74528076D01*
X129786547Y-74528076D02*
X129596071Y-74528076D01*
X129596071Y-74528076D02*
X129500833Y-74575695D01*
X129500833Y-74575695D02*
X129453214Y-74623314D01*
X129453214Y-74623314D02*
X129405595Y-74718552D01*
X129405595Y-74718552D02*
X129405595Y-74766171D01*
X129405595Y-74766171D02*
X129453214Y-74861409D01*
X129453214Y-74861409D02*
X129500833Y-74909028D01*
X129500833Y-74909028D02*
X129596071Y-74956647D01*
X129596071Y-74956647D02*
X129786547Y-74956647D01*
X129786547Y-74956647D02*
X129881785Y-75004266D01*
X129881785Y-75004266D02*
X129929404Y-75051885D01*
X129929404Y-75051885D02*
X129977023Y-75147123D01*
X129977023Y-75147123D02*
X129977023Y-75337599D01*
X129977023Y-75337599D02*
X129929404Y-75432837D01*
X129929404Y-75432837D02*
X129881785Y-75480457D01*
X129881785Y-75480457D02*
X129786547Y-75528076D01*
X129786547Y-75528076D02*
X129596071Y-75528076D01*
X129596071Y-75528076D02*
X129500833Y-75480457D01*
X129500833Y-75480457D02*
X129453214Y-75432837D01*
X129453214Y-75432837D02*
X129405595Y-75337599D01*
X129405595Y-75337599D02*
X129405595Y-75147123D01*
X129405595Y-75147123D02*
X129453214Y-75051885D01*
X129453214Y-75051885D02*
X129500833Y-75004266D01*
X129500833Y-75004266D02*
X129596071Y-74956647D01*
%TO.C,R25*%
D11*
X141507500Y-84218533D02*
X141507500Y-84727981D01*
X142552500Y-84218533D02*
X142552500Y-84727981D01*
%TO.C,R24*%
X134197224Y-84500757D02*
X133687776Y-84500757D01*
X134197224Y-85545757D02*
X133687776Y-85545757D01*
%TO.C,R26*%
X140257500Y-81157981D02*
X140257500Y-80648533D01*
X141302500Y-81157981D02*
X141302500Y-80648533D01*
%TO.C,R29*%
X150225276Y-80350757D02*
X150734724Y-80350757D01*
X150225276Y-81395757D02*
X150734724Y-81395757D01*
%TO.C,C23*%
X134222224Y-86725757D02*
X133712776Y-86725757D01*
X134222224Y-87770757D02*
X133712776Y-87770757D01*
%TO.C,C22*%
X142785276Y-76740757D02*
X143294724Y-76740757D01*
X142785276Y-77785757D02*
X143294724Y-77785757D01*
%TO.C,R23*%
X139875276Y-90750757D02*
X140384724Y-90750757D01*
X139875276Y-91795757D02*
X140384724Y-91795757D01*
%TO.C,R27*%
X149057500Y-84140481D02*
X149057500Y-83631033D01*
X150102500Y-84140481D02*
X150102500Y-83631033D01*
%TO.C,R21*%
X121507500Y-99118533D02*
X121507500Y-99627981D01*
X122552500Y-99118533D02*
X122552500Y-99627981D01*
%TO.C,R20*%
X116562776Y-83150757D02*
X117072224Y-83150757D01*
X116562776Y-84195757D02*
X117072224Y-84195757D01*
%TO.C,R22*%
X133612776Y-81850757D02*
X134122224Y-81850757D01*
X133612776Y-82895757D02*
X134122224Y-82895757D01*
%TO.C,R28*%
X133575276Y-74550757D02*
X134084724Y-74550757D01*
X133575276Y-75595757D02*
X134084724Y-75595757D01*
%TD*%
M02*
