%TF.GenerationSoftware,KiCad,Pcbnew,10.0.1*%
%TF.CreationDate,2026-05-12T01:25:28+09:00*%
%TF.ProjectId,AudioCase,41756469-6f43-4617-9365-2e6b69636164,rev?*%
%TF.SameCoordinates,Original*%
%TF.FileFunction,Copper,L1,Top*%
%TF.FilePolarity,Positive*%
%FSLAX46Y46*%
G04 Gerber Fmt 4.6, Leading zero omitted, Abs format (unit mm)*
G04 Created by KiCad (PCBNEW 10.0.1) date 2026-05-12 01:25:28*
%MOMM*%
%LPD*%
G01*
G04 APERTURE LIST*
G04 Aperture macros list*
%AMRoundRect*
0 Rectangle with rounded corners*
0 $1 Rounding radius*
0 $2 $3 $4 $5 $6 $7 $8 $9 X,Y pos of 4 corners*
0 Add a 4 corners polygon primitive as box body*
4,1,4,$2,$3,$4,$5,$6,$7,$8,$9,$2,$3,0*
0 Add four circle primitives for the rounded corners*
1,1,$1+$1,$2,$3*
1,1,$1+$1,$4,$5*
1,1,$1+$1,$6,$7*
1,1,$1+$1,$8,$9*
0 Add four rect primitives between the rounded corners*
20,1,$1+$1,$2,$3,$4,$5,0*
20,1,$1+$1,$4,$5,$6,$7,0*
20,1,$1+$1,$6,$7,$8,$9,0*
20,1,$1+$1,$8,$9,$2,$3,0*%
G04 Aperture macros list end*
%TA.AperFunction,ComponentPad*%
%ADD10RoundRect,0.250001X-0.949999X0.949999X-0.949999X-0.949999X0.949999X-0.949999X0.949999X0.949999X0*%
%TD*%
%TA.AperFunction,ComponentPad*%
%ADD11C,2.400000*%
%TD*%
%TA.AperFunction,ComponentPad*%
%ADD12C,1.600000*%
%TD*%
%TA.AperFunction,ComponentPad*%
%ADD13RoundRect,0.250000X0.550000X0.550000X-0.550000X0.550000X-0.550000X-0.550000X0.550000X-0.550000X0*%
%TD*%
%TA.AperFunction,ComponentPad*%
%ADD14RoundRect,0.250000X1.050000X1.050000X-1.050000X1.050000X-1.050000X-1.050000X1.050000X-1.050000X0*%
%TD*%
%TA.AperFunction,ComponentPad*%
%ADD15C,2.600000*%
%TD*%
%TA.AperFunction,ComponentPad*%
%ADD16RoundRect,0.250000X-1.050000X1.050000X-1.050000X-1.050000X1.050000X-1.050000X1.050000X1.050000X0*%
%TD*%
%TA.AperFunction,ComponentPad*%
%ADD17RoundRect,0.250000X-1.050000X-1.050000X1.050000X-1.050000X1.050000X1.050000X-1.050000X1.050000X0*%
%TD*%
%TA.AperFunction,ComponentPad*%
%ADD18RoundRect,0.250000X-0.550000X-0.550000X0.550000X-0.550000X0.550000X0.550000X-0.550000X0.550000X0*%
%TD*%
%TA.AperFunction,ViaPad*%
%ADD19C,0.600000*%
%TD*%
%TA.AperFunction,Conductor*%
%ADD20C,0.500000*%
%TD*%
%TA.AperFunction,Conductor*%
%ADD21C,1.000000*%
%TD*%
G04 APERTURE END LIST*
D10*
%TO.P,C29,1*%
%TO.N,Net-(C29-Pad1)*%
X156930000Y-83173257D03*
D11*
%TO.P,C29,2*%
%TO.N,/AmpModule/L_OUT*%
X156930000Y-90673257D03*
%TD*%
D12*
%TO.P,C24,1*%
%TO.N,Net-(AMP1A-+)*%
X132130000Y-90473257D03*
%TO.P,C24,2*%
%TO.N,/Rotary_R_OUT*%
X127130000Y-90473257D03*
%TD*%
D13*
%TO.P,C25,1*%
%TO.N,Net-(AMP1A-+)*%
X130730000Y-85873257D03*
D12*
%TO.P,C25,2*%
%TO.N,/Rotary_R_OUT*%
X128730000Y-85873257D03*
%TD*%
D14*
%TO.P,J9,1,Pin_1_1*%
%TO.N,/Rotary_V+_OUT*%
X147195103Y-70873257D03*
D15*
%TO.P,J9,2,Pin_2_2*%
%TO.N,GND*%
X142115103Y-70873257D03*
%TO.P,J9,3,Pin_3_3*%
%TO.N,/Rotary_V-_OUT*%
X137035103Y-70873257D03*
%TD*%
D13*
%TO.P,C27,1*%
%TO.N,Net-(AMP1B-+)*%
X130530000Y-100073257D03*
D12*
%TO.P,C27,2*%
%TO.N,/Rotary_L_OUT*%
X128530000Y-100073257D03*
%TD*%
D10*
%TO.P,C28,1*%
%TO.N,Net-(C28-Pad1)*%
X124280000Y-71623257D03*
D11*
%TO.P,C28,2*%
%TO.N,/AmpModule/R_OUT*%
X124280000Y-79123257D03*
%TD*%
D16*
%TO.P,J10,1,Pin_1_1*%
%TO.N,/Rotary_R_OUT*%
X119207500Y-87978257D03*
D15*
%TO.P,J10,2,Pin_2_2*%
%TO.N,/Rotary_L_OUT*%
X119207500Y-93058257D03*
%TD*%
D17*
%TO.P,J11,1,Pin_1_1*%
%TO.N,/AmpModule/L_OUT*%
X139430000Y-98373257D03*
D15*
%TO.P,J11,2,Pin_2_2*%
%TO.N,/AmpModule/R_OUT*%
X144510000Y-98373257D03*
%TD*%
D18*
%TO.P,AMP1,1*%
%TO.N,Net-(AMP1-Pad1)*%
X138070000Y-80413257D03*
D12*
%TO.P,AMP1,2,-_2*%
%TO.N,Net-(AMP1A--)*%
X138070000Y-82953257D03*
%TO.P,AMP1,3,+_3*%
%TO.N,Net-(AMP1A-+)*%
X138070000Y-85493257D03*
%TO.P,AMP1,4,V-_4*%
%TO.N,/Rotary_V-_OUT*%
X138070000Y-88033257D03*
%TO.P,AMP1,5,+_5*%
%TO.N,Net-(AMP1B-+)*%
X145690000Y-88033257D03*
%TO.P,AMP1,6,-_6*%
%TO.N,Net-(AMP1B--)*%
X145690000Y-85493257D03*
%TO.P,AMP1,7*%
%TO.N,Net-(AMP1-Pad7)*%
X145690000Y-82953257D03*
%TO.P,AMP1,8,V+_8*%
%TO.N,/Rotary_V+_OUT*%
X145690000Y-80413257D03*
%TD*%
%TO.P,C26,1*%
%TO.N,Net-(AMP1B-+)*%
X132130000Y-95523257D03*
%TO.P,C26,2*%
%TO.N,/Rotary_L_OUT*%
X127130000Y-95523257D03*
%TD*%
D19*
%TO.N,/AmpModule/R_OUT*%
X134930000Y-93523257D03*
%TD*%
%TO.N,Net-(AMP1A-+)*%
D20*
X130730000Y-89073257D02*
X132130000Y-90473257D01*
X136450000Y-83873257D02*
X138070000Y-85493257D01*
X130730000Y-87873257D02*
X130730000Y-89073257D01*
X130730000Y-84923257D02*
X131780000Y-83873257D01*
X131780000Y-83873257D02*
X136450000Y-83873257D01*
X130730000Y-85873257D02*
X130730000Y-84923257D01*
X130730000Y-85873257D02*
X130730000Y-87873257D01*
%TO.N,/Rotary_R_OUT*%
X124985000Y-88328257D02*
X127130000Y-90473257D01*
X124985000Y-87978257D02*
X124985000Y-88328257D01*
X127090000Y-85873257D02*
X128730000Y-85873257D01*
X124985000Y-87978257D02*
X127090000Y-85873257D01*
X124985000Y-87978257D02*
X119207500Y-87978257D01*
%TO.N,/Rotary_V+_OUT*%
D21*
X145690000Y-78763257D02*
X145690000Y-80413257D01*
X147195103Y-77258154D02*
X145690000Y-78763257D01*
X147195103Y-70873257D02*
X147195103Y-77258154D01*
X147195103Y-70873257D02*
X147230000Y-70908154D01*
%TO.N,/Rotary_V-_OUT*%
X140180000Y-74018154D02*
X140180000Y-85923257D01*
X140180000Y-85923257D02*
X138070000Y-88033257D01*
X137035103Y-70873257D02*
X140180000Y-74018154D01*
%TO.N,Net-(AMP1B-+)*%
D20*
X132130000Y-98473257D02*
X130430000Y-100173257D01*
X132130000Y-95523257D02*
X132130000Y-94273257D01*
X144040000Y-88033257D02*
X145690000Y-88033257D01*
X141850000Y-90223257D02*
X144040000Y-88033257D01*
X132130000Y-94273257D02*
X136180000Y-90223257D01*
X132130000Y-95473257D02*
X132130000Y-98473257D01*
X136180000Y-90223257D02*
X141850000Y-90223257D01*
%TO.N,/Rotary_L_OUT*%
X127130000Y-98873257D02*
X128430000Y-100173257D01*
X127130000Y-95473257D02*
X127130000Y-98873257D01*
X121672500Y-95523257D02*
X127130000Y-95523257D01*
X119207500Y-93058257D02*
X121672500Y-95523257D01*
%TO.N,/AmpModule/R_OUT*%
X144510000Y-98303257D02*
X144510000Y-98373257D01*
X139730000Y-93523257D02*
X144510000Y-98303257D01*
X134930000Y-93523257D02*
X139730000Y-93523257D01*
%TD*%
M02*
