%TF.GenerationSoftware,KiCad,Pcbnew,10.0.1*%
%TF.CreationDate,2026-06-05T02:16:13+09:00*%
%TF.ProjectId,AudioCase_2_rv_panel,41756469-6f43-4617-9365-5f325f72765f,rev?*%
%TF.SameCoordinates,Original*%
%TF.FileFunction,Drillmap*%
%TF.FilePolarity,Positive*%
%FSLAX45Y45*%
G04 Gerber Fmt 4.5, Leading zero omitted, Abs format (unit mm)*
G04 Created by KiCad (PCBNEW 10.0.1) date 2026-06-05 02:16:13*
%MOMM*%
%LPD*%
G01*
G04 APERTURE LIST*
%ADD10C,0.100000*%
%ADD11C,0.200000*%
%ADD12C,0.130000*%
%ADD13C,0.320000*%
G04 APERTURE END LIST*
D10*
X10883500Y-2000000D02*
X18816500Y-2000000D01*
X10883500Y-7662975D02*
X10883500Y-2000000D01*
X18816500Y-2000000D02*
X18816500Y-7662975D01*
X18816500Y-7662975D02*
X10883500Y-7662975D01*
D11*
D10*
X11389000Y-5197500D02*
X11419000Y-5227500D01*
X11419000Y-5197500D02*
X11389000Y-5227500D01*
X13038081Y-5842500D02*
X13068081Y-5872500D01*
X13068081Y-5842500D02*
X13038081Y-5872500D01*
X13448000Y-4750000D02*
X13478000Y-4780000D01*
X13478000Y-4750000D02*
X13448000Y-4780000D01*
X13448081Y-4940000D02*
X13478081Y-4970000D01*
X13478081Y-4940000D02*
X13448081Y-4970000D01*
X13699750Y-4916750D02*
X13729750Y-4946750D01*
X13729750Y-4916750D02*
X13699750Y-4946750D01*
X13819250Y-4797250D02*
X13849250Y-4827250D01*
X13849250Y-4797250D02*
X13819250Y-4827250D01*
X14094000Y-5112500D02*
X14124000Y-5142500D01*
X14124000Y-5112500D02*
X14094000Y-5142500D01*
X14720000Y-4693000D02*
X14750000Y-4723000D01*
X14750000Y-4693000D02*
X14720000Y-4723000D01*
X14867000Y-4840000D02*
X14897000Y-4870000D01*
X14897000Y-4840000D02*
X14867000Y-4870000D01*
X15241500Y-4840000D02*
X15271500Y-4870000D01*
X15271500Y-4840000D02*
X15241500Y-4870000D01*
X15244000Y-5020000D02*
X15274000Y-5050000D01*
X15274000Y-5020000D02*
X15244000Y-5050000D01*
X15380000Y-2894000D02*
X15410000Y-2924000D01*
X15410000Y-2894000D02*
X15380000Y-2924000D01*
X15681500Y-5825000D02*
X15711500Y-5855000D01*
X15711500Y-5825000D02*
X15681500Y-5855000D01*
X16251500Y-5210000D02*
X16281500Y-5240000D01*
X16281500Y-5210000D02*
X16251500Y-5240000D01*
X16371000Y-4705000D02*
X16401000Y-4735000D01*
X16401000Y-4705000D02*
X16371000Y-4735000D01*
X16371500Y-5052500D02*
X16401500Y-5082500D01*
X16401500Y-5052500D02*
X16371500Y-5082500D01*
X17836500Y-4715000D02*
X17866500Y-4745000D01*
X17866500Y-4715000D02*
X17836500Y-4745000D01*
X17836998Y-4957998D02*
X17866998Y-4987998D01*
X17866998Y-4957998D02*
X17836998Y-4987998D01*
X17927750Y-3003750D02*
X17957750Y-3033750D01*
X17957750Y-3003750D02*
X17927750Y-3033750D01*
X18146000Y-3548500D02*
X18176000Y-3578500D01*
X18176000Y-3548500D02*
X18146000Y-3578500D01*
X18351250Y-4224250D02*
X18381250Y-4254250D01*
X18381250Y-4224250D02*
X18351250Y-4254250D01*
X11438081Y-6065000D02*
G75*
G02*
X11358081Y-6065000I-40000J0D01*
G01*
X11358081Y-6065000D02*
G75*
G02*
X11438081Y-6065000I40000J0D01*
G01*
X11438081Y-6565000D02*
G75*
G02*
X11358081Y-6565000I-40000J0D01*
G01*
X11358081Y-6565000D02*
G75*
G02*
X11438081Y-6565000I40000J0D01*
G01*
X11950581Y-6127500D02*
G75*
G02*
X11870581Y-6127500I-40000J0D01*
G01*
X11870581Y-6127500D02*
G75*
G02*
X11950581Y-6127500I40000J0D01*
G01*
X12450581Y-6127500D02*
G75*
G02*
X12370581Y-6127500I-40000J0D01*
G01*
X12370581Y-6127500D02*
G75*
G02*
X12450581Y-6127500I40000J0D01*
G01*
X12813081Y-6122500D02*
G75*
G02*
X12733081Y-6122500I-40000J0D01*
G01*
X12733081Y-6122500D02*
G75*
G02*
X12813081Y-6122500I40000J0D01*
G01*
X13093081Y-6482500D02*
G75*
G02*
X13013081Y-6482500I-40000J0D01*
G01*
X13013081Y-6482500D02*
G75*
G02*
X13093081Y-6482500I40000J0D01*
G01*
X13093081Y-6982500D02*
G75*
G02*
X13013081Y-6982500I-40000J0D01*
G01*
X13013081Y-6982500D02*
G75*
G02*
X13093081Y-6982500I40000J0D01*
G01*
X13313081Y-6122500D02*
G75*
G02*
X13233081Y-6122500I-40000J0D01*
G01*
X13233081Y-6122500D02*
G75*
G02*
X13313081Y-6122500I40000J0D01*
G01*
X14149000Y-5902500D02*
G75*
G02*
X14069000Y-5902500I-40000J0D01*
G01*
X14069000Y-5902500D02*
G75*
G02*
X14149000Y-5902500I40000J0D01*
G01*
X14149000Y-6402500D02*
G75*
G02*
X14069000Y-6402500I-40000J0D01*
G01*
X14069000Y-6402500D02*
G75*
G02*
X14149000Y-6402500I40000J0D01*
G01*
X14230500Y-3599000D02*
G75*
G02*
X14150500Y-3599000I-40000J0D01*
G01*
X14150500Y-3599000D02*
G75*
G02*
X14230500Y-3599000I40000J0D01*
G01*
X14230500Y-3853000D02*
G75*
G02*
X14150500Y-3853000I-40000J0D01*
G01*
X14150500Y-3853000D02*
G75*
G02*
X14230500Y-3853000I40000J0D01*
G01*
X14230500Y-4107000D02*
G75*
G02*
X14150500Y-4107000I-40000J0D01*
G01*
X14150500Y-4107000D02*
G75*
G02*
X14230500Y-4107000I40000J0D01*
G01*
X14230500Y-4361000D02*
G75*
G02*
X14150500Y-4361000I-40000J0D01*
G01*
X14150500Y-4361000D02*
G75*
G02*
X14230500Y-4361000I40000J0D01*
G01*
X14629000Y-6270000D02*
G75*
G02*
X14549000Y-6270000I-40000J0D01*
G01*
X14549000Y-6270000D02*
G75*
G02*
X14629000Y-6270000I40000J0D01*
G01*
X14992500Y-3599000D02*
G75*
G02*
X14912500Y-3599000I-40000J0D01*
G01*
X14912500Y-3599000D02*
G75*
G02*
X14992500Y-3599000I40000J0D01*
G01*
X14992500Y-3853000D02*
G75*
G02*
X14912500Y-3853000I-40000J0D01*
G01*
X14912500Y-3853000D02*
G75*
G02*
X14992500Y-3853000I40000J0D01*
G01*
X14992500Y-4107000D02*
G75*
G02*
X14912500Y-4107000I-40000J0D01*
G01*
X14912500Y-4107000D02*
G75*
G02*
X14992500Y-4107000I40000J0D01*
G01*
X14992500Y-4361000D02*
G75*
G02*
X14912500Y-4361000I-40000J0D01*
G01*
X14912500Y-4361000D02*
G75*
G02*
X14992500Y-4361000I40000J0D01*
G01*
X15129000Y-6270000D02*
G75*
G02*
X15049000Y-6270000I-40000J0D01*
G01*
X15049000Y-6270000D02*
G75*
G02*
X15129000Y-6270000I40000J0D01*
G01*
X15484000Y-6057500D02*
G75*
G02*
X15404000Y-6057500I-40000J0D01*
G01*
X15404000Y-6057500D02*
G75*
G02*
X15484000Y-6057500I40000J0D01*
G01*
X15734000Y-6495000D02*
G75*
G02*
X15654000Y-6495000I-40000J0D01*
G01*
X15654000Y-6495000D02*
G75*
G02*
X15734000Y-6495000I40000J0D01*
G01*
X15734000Y-6995000D02*
G75*
G02*
X15654000Y-6995000I-40000J0D01*
G01*
X15654000Y-6995000D02*
G75*
G02*
X15734000Y-6995000I40000J0D01*
G01*
X15984000Y-6057500D02*
G75*
G02*
X15904000Y-6057500I-40000J0D01*
G01*
X15904000Y-6057500D02*
G75*
G02*
X15984000Y-6057500I40000J0D01*
G01*
X16624498Y-6030000D02*
G75*
G02*
X16544498Y-6030000I-40000J0D01*
G01*
X16544498Y-6030000D02*
G75*
G02*
X16624498Y-6030000I40000J0D01*
G01*
X16624498Y-6530000D02*
G75*
G02*
X16544498Y-6530000I-40000J0D01*
G01*
X16544498Y-6530000D02*
G75*
G02*
X16624498Y-6530000I40000J0D01*
G01*
X17037000Y-3563500D02*
G75*
G02*
X16957000Y-3563500I-40000J0D01*
G01*
X16957000Y-3563500D02*
G75*
G02*
X17037000Y-3563500I40000J0D01*
G01*
X17037000Y-3817500D02*
G75*
G02*
X16957000Y-3817500I-40000J0D01*
G01*
X16957000Y-3817500D02*
G75*
G02*
X17037000Y-3817500I40000J0D01*
G01*
X17037000Y-4071500D02*
G75*
G02*
X16957000Y-4071500I-40000J0D01*
G01*
X16957000Y-4071500D02*
G75*
G02*
X17037000Y-4071500I40000J0D01*
G01*
X17037000Y-4325500D02*
G75*
G02*
X16957000Y-4325500I-40000J0D01*
G01*
X16957000Y-4325500D02*
G75*
G02*
X17037000Y-4325500I40000J0D01*
G01*
X17206998Y-5790000D02*
G75*
G02*
X17126998Y-5790000I-40000J0D01*
G01*
X17126998Y-5790000D02*
G75*
G02*
X17206998Y-5790000I40000J0D01*
G01*
X17206998Y-6290000D02*
G75*
G02*
X17126998Y-6290000I-40000J0D01*
G01*
X17126998Y-6290000D02*
G75*
G02*
X17206998Y-6290000I40000J0D01*
G01*
X17765748Y-5790000D02*
G75*
G02*
X17685748Y-5790000I-40000J0D01*
G01*
X17685748Y-5790000D02*
G75*
G02*
X17765748Y-5790000I40000J0D01*
G01*
X17765748Y-6290000D02*
G75*
G02*
X17685748Y-6290000I-40000J0D01*
G01*
X17685748Y-6290000D02*
G75*
G02*
X17765748Y-6290000I40000J0D01*
G01*
X17799000Y-3563500D02*
G75*
G02*
X17719000Y-3563500I-40000J0D01*
G01*
X17719000Y-3563500D02*
G75*
G02*
X17799000Y-3563500I40000J0D01*
G01*
X17799000Y-3817500D02*
G75*
G02*
X17719000Y-3817500I-40000J0D01*
G01*
X17719000Y-3817500D02*
G75*
G02*
X17799000Y-3817500I40000J0D01*
G01*
X17799000Y-4071500D02*
G75*
G02*
X17719000Y-4071500I-40000J0D01*
G01*
X17719000Y-4071500D02*
G75*
G02*
X17799000Y-4071500I40000J0D01*
G01*
X17799000Y-4325500D02*
G75*
G02*
X17719000Y-4325500I-40000J0D01*
G01*
X17719000Y-4325500D02*
G75*
G02*
X17799000Y-4325500I40000J0D01*
G01*
X18324498Y-5790000D02*
G75*
G02*
X18244498Y-5790000I-40000J0D01*
G01*
X18244498Y-5790000D02*
G75*
G02*
X18324498Y-5790000I40000J0D01*
G01*
X18324498Y-6290000D02*
G75*
G02*
X18244498Y-6290000I-40000J0D01*
G01*
X18244498Y-6290000D02*
G75*
G02*
X18324498Y-6290000I40000J0D01*
G01*
X12020581Y-6700000D02*
X12020581Y-6800000D01*
X11970581Y-6750000D02*
X12070581Y-6750000D01*
X12020581Y-6950000D02*
X12020581Y-7050000D01*
X11970581Y-7000000D02*
X12070581Y-7000000D01*
X12270581Y-6700000D02*
X12270581Y-6800000D01*
X12220581Y-6750000D02*
X12320581Y-6750000D01*
X12270581Y-6950000D02*
X12270581Y-7050000D01*
X12220581Y-7000000D02*
X12320581Y-7000000D01*
X12520581Y-6700000D02*
X12520581Y-6800000D01*
X12470581Y-6750000D02*
X12570581Y-6750000D01*
X12520581Y-6950000D02*
X12520581Y-7050000D01*
X12470581Y-7000000D02*
X12570581Y-7000000D01*
X14584000Y-6700000D02*
X14584000Y-6800000D01*
X14534000Y-6750000D02*
X14634000Y-6750000D01*
X14584000Y-6950000D02*
X14584000Y-7050000D01*
X14534000Y-7000000D02*
X14634000Y-7000000D01*
X14834000Y-6700000D02*
X14834000Y-6800000D01*
X14784000Y-6750000D02*
X14884000Y-6750000D01*
X14834000Y-6950000D02*
X14834000Y-7050000D01*
X14784000Y-7000000D02*
X14884000Y-7000000D01*
X15084000Y-6700000D02*
X15084000Y-6800000D01*
X15034000Y-6750000D02*
X15134000Y-6750000D01*
X15084000Y-6950000D02*
X15084000Y-7050000D01*
X15034000Y-7000000D02*
X15134000Y-7000000D01*
X17134498Y-6700000D02*
X17134498Y-6800000D01*
X17084498Y-6750000D02*
X17184498Y-6750000D01*
X17134498Y-6950000D02*
X17134498Y-7050000D01*
X17084498Y-7000000D02*
X17184498Y-7000000D01*
X17384498Y-6700000D02*
X17384498Y-6800000D01*
X17334498Y-6750000D02*
X17434498Y-6750000D01*
X17384498Y-6950000D02*
X17384498Y-7050000D01*
X17334498Y-7000000D02*
X17434498Y-7000000D01*
X17634498Y-6700000D02*
X17634498Y-6800000D01*
X17584498Y-6750000D02*
X17684498Y-6750000D01*
X17634498Y-6950000D02*
X17634498Y-7050000D01*
X17584498Y-7000000D02*
X17684498Y-7000000D01*
D12*
X12213962Y-2703962D02*
X12213962Y-2612038D01*
X12122038Y-2612038D01*
X12122038Y-2703962D01*
X12213962Y-2703962D01*
X12721962Y-2703962D02*
X12721962Y-2612038D01*
X12630038Y-2612038D01*
X12630038Y-2703962D01*
X12721962Y-2703962D01*
X13798962Y-2690962D02*
X13798962Y-2599038D01*
X13707038Y-2599038D01*
X13707038Y-2690962D01*
X13798962Y-2690962D01*
X14306962Y-2690962D02*
X14306962Y-2599038D01*
X14215038Y-2599038D01*
X14215038Y-2690962D01*
X14306962Y-2690962D01*
X14814962Y-2690962D02*
X14814962Y-2599038D01*
X14723038Y-2599038D01*
X14723038Y-2690962D01*
X14814962Y-2690962D01*
X16281962Y-2665962D02*
X16281962Y-2574038D01*
X16190038Y-2574038D01*
X16190038Y-2665962D01*
X16281962Y-2665962D01*
X16789962Y-2665962D02*
X16789962Y-2574038D01*
X16698038Y-2574038D01*
X16698038Y-2665962D01*
X16789962Y-2665962D01*
X17297962Y-2665962D02*
X17297962Y-2574038D01*
X17206038Y-2574038D01*
X17206038Y-2665962D01*
X17297962Y-2665962D01*
D13*
X11204603Y-2502000D02*
X11364603Y-2342000D01*
X11204603Y-2182000D01*
X11044603Y-2342000D01*
X11204603Y-2502000D01*
X11206000Y-7470475D02*
X11366000Y-7310475D01*
X11206000Y-7150475D01*
X11046000Y-7310475D01*
X11206000Y-7470475D01*
X18445000Y-2505475D02*
X18605000Y-2345475D01*
X18445000Y-2185475D01*
X18285000Y-2345475D01*
X18445000Y-2505475D01*
X18447027Y-7476028D02*
X18607027Y-7316028D01*
X18447027Y-7156028D01*
X18287027Y-7316028D01*
X18447027Y-7476028D01*
D11*
X11139277Y-7979459D02*
X11139277Y-7779459D01*
X11139277Y-7779459D02*
X11186896Y-7779459D01*
X11186896Y-7779459D02*
X11215467Y-7788982D01*
X11215467Y-7788982D02*
X11234515Y-7808030D01*
X11234515Y-7808030D02*
X11244039Y-7827078D01*
X11244039Y-7827078D02*
X11253562Y-7865173D01*
X11253562Y-7865173D02*
X11253562Y-7893744D01*
X11253562Y-7893744D02*
X11244039Y-7931839D01*
X11244039Y-7931839D02*
X11234515Y-7950887D01*
X11234515Y-7950887D02*
X11215467Y-7969935D01*
X11215467Y-7969935D02*
X11186896Y-7979459D01*
X11186896Y-7979459D02*
X11139277Y-7979459D01*
X11339277Y-7979459D02*
X11339277Y-7846125D01*
X11339277Y-7884220D02*
X11348801Y-7865173D01*
X11348801Y-7865173D02*
X11358324Y-7855649D01*
X11358324Y-7855649D02*
X11377372Y-7846125D01*
X11377372Y-7846125D02*
X11396420Y-7846125D01*
X11463086Y-7979459D02*
X11463086Y-7846125D01*
X11463086Y-7779459D02*
X11453562Y-7788982D01*
X11453562Y-7788982D02*
X11463086Y-7798506D01*
X11463086Y-7798506D02*
X11472610Y-7788982D01*
X11472610Y-7788982D02*
X11463086Y-7779459D01*
X11463086Y-7779459D02*
X11463086Y-7798506D01*
X11586896Y-7979459D02*
X11567848Y-7969935D01*
X11567848Y-7969935D02*
X11558324Y-7950887D01*
X11558324Y-7950887D02*
X11558324Y-7779459D01*
X11691658Y-7979459D02*
X11672610Y-7969935D01*
X11672610Y-7969935D02*
X11663086Y-7950887D01*
X11663086Y-7950887D02*
X11663086Y-7779459D01*
X11920229Y-7979459D02*
X11920229Y-7779459D01*
X11920229Y-7779459D02*
X11986896Y-7922316D01*
X11986896Y-7922316D02*
X12053562Y-7779459D01*
X12053562Y-7779459D02*
X12053562Y-7979459D01*
X12234515Y-7979459D02*
X12234515Y-7874697D01*
X12234515Y-7874697D02*
X12224991Y-7855649D01*
X12224991Y-7855649D02*
X12205943Y-7846125D01*
X12205943Y-7846125D02*
X12167848Y-7846125D01*
X12167848Y-7846125D02*
X12148801Y-7855649D01*
X12234515Y-7969935D02*
X12215467Y-7979459D01*
X12215467Y-7979459D02*
X12167848Y-7979459D01*
X12167848Y-7979459D02*
X12148801Y-7969935D01*
X12148801Y-7969935D02*
X12139277Y-7950887D01*
X12139277Y-7950887D02*
X12139277Y-7931839D01*
X12139277Y-7931839D02*
X12148801Y-7912792D01*
X12148801Y-7912792D02*
X12167848Y-7903268D01*
X12167848Y-7903268D02*
X12215467Y-7903268D01*
X12215467Y-7903268D02*
X12234515Y-7893744D01*
X12329753Y-7846125D02*
X12329753Y-8046125D01*
X12329753Y-7855649D02*
X12348801Y-7846125D01*
X12348801Y-7846125D02*
X12386896Y-7846125D01*
X12386896Y-7846125D02*
X12405943Y-7855649D01*
X12405943Y-7855649D02*
X12415467Y-7865173D01*
X12415467Y-7865173D02*
X12424991Y-7884220D01*
X12424991Y-7884220D02*
X12424991Y-7941363D01*
X12424991Y-7941363D02*
X12415467Y-7960411D01*
X12415467Y-7960411D02*
X12405943Y-7969935D01*
X12405943Y-7969935D02*
X12386896Y-7979459D01*
X12386896Y-7979459D02*
X12348801Y-7979459D01*
X12348801Y-7979459D02*
X12329753Y-7969935D01*
X12510705Y-7960411D02*
X12520229Y-7969935D01*
X12520229Y-7969935D02*
X12510705Y-7979459D01*
X12510705Y-7979459D02*
X12501182Y-7969935D01*
X12501182Y-7969935D02*
X12510705Y-7960411D01*
X12510705Y-7960411D02*
X12510705Y-7979459D01*
X12510705Y-7855649D02*
X12520229Y-7865173D01*
X12520229Y-7865173D02*
X12510705Y-7874697D01*
X12510705Y-7874697D02*
X12501182Y-7865173D01*
X12501182Y-7865173D02*
X12510705Y-7855649D01*
X12510705Y-7855649D02*
X12510705Y-7874697D01*
D10*
X10848500Y-8292975D02*
X10878500Y-8322975D01*
X10878500Y-8292975D02*
X10848500Y-8322975D01*
D11*
X11177372Y-8199459D02*
X11196420Y-8199459D01*
X11196420Y-8199459D02*
X11215467Y-8208982D01*
X11215467Y-8208982D02*
X11224991Y-8218506D01*
X11224991Y-8218506D02*
X11234515Y-8237554D01*
X11234515Y-8237554D02*
X11244039Y-8275649D01*
X11244039Y-8275649D02*
X11244039Y-8323268D01*
X11244039Y-8323268D02*
X11234515Y-8361363D01*
X11234515Y-8361363D02*
X11224991Y-8380411D01*
X11224991Y-8380411D02*
X11215467Y-8389935D01*
X11215467Y-8389935D02*
X11196420Y-8399459D01*
X11196420Y-8399459D02*
X11177372Y-8399459D01*
X11177372Y-8399459D02*
X11158324Y-8389935D01*
X11158324Y-8389935D02*
X11148801Y-8380411D01*
X11148801Y-8380411D02*
X11139277Y-8361363D01*
X11139277Y-8361363D02*
X11129753Y-8323268D01*
X11129753Y-8323268D02*
X11129753Y-8275649D01*
X11129753Y-8275649D02*
X11139277Y-8237554D01*
X11139277Y-8237554D02*
X11148801Y-8218506D01*
X11148801Y-8218506D02*
X11158324Y-8208982D01*
X11158324Y-8208982D02*
X11177372Y-8199459D01*
X11329753Y-8380411D02*
X11339277Y-8389935D01*
X11339277Y-8389935D02*
X11329753Y-8399459D01*
X11329753Y-8399459D02*
X11320229Y-8389935D01*
X11320229Y-8389935D02*
X11329753Y-8380411D01*
X11329753Y-8380411D02*
X11329753Y-8399459D01*
X11405943Y-8199459D02*
X11529753Y-8199459D01*
X11529753Y-8199459D02*
X11463086Y-8275649D01*
X11463086Y-8275649D02*
X11491658Y-8275649D01*
X11491658Y-8275649D02*
X11510705Y-8285173D01*
X11510705Y-8285173D02*
X11520229Y-8294697D01*
X11520229Y-8294697D02*
X11529753Y-8313744D01*
X11529753Y-8313744D02*
X11529753Y-8361363D01*
X11529753Y-8361363D02*
X11520229Y-8380411D01*
X11520229Y-8380411D02*
X11510705Y-8389935D01*
X11510705Y-8389935D02*
X11491658Y-8399459D01*
X11491658Y-8399459D02*
X11434515Y-8399459D01*
X11434515Y-8399459D02*
X11415467Y-8389935D01*
X11415467Y-8389935D02*
X11405943Y-8380411D01*
X11653562Y-8199459D02*
X11672610Y-8199459D01*
X11672610Y-8199459D02*
X11691658Y-8208982D01*
X11691658Y-8208982D02*
X11701182Y-8218506D01*
X11701182Y-8218506D02*
X11710705Y-8237554D01*
X11710705Y-8237554D02*
X11720229Y-8275649D01*
X11720229Y-8275649D02*
X11720229Y-8323268D01*
X11720229Y-8323268D02*
X11710705Y-8361363D01*
X11710705Y-8361363D02*
X11701182Y-8380411D01*
X11701182Y-8380411D02*
X11691658Y-8389935D01*
X11691658Y-8389935D02*
X11672610Y-8399459D01*
X11672610Y-8399459D02*
X11653562Y-8399459D01*
X11653562Y-8399459D02*
X11634515Y-8389935D01*
X11634515Y-8389935D02*
X11624991Y-8380411D01*
X11624991Y-8380411D02*
X11615467Y-8361363D01*
X11615467Y-8361363D02*
X11605943Y-8323268D01*
X11605943Y-8323268D02*
X11605943Y-8275649D01*
X11605943Y-8275649D02*
X11615467Y-8237554D01*
X11615467Y-8237554D02*
X11624991Y-8218506D01*
X11624991Y-8218506D02*
X11634515Y-8208982D01*
X11634515Y-8208982D02*
X11653562Y-8199459D01*
X11844039Y-8199459D02*
X11863086Y-8199459D01*
X11863086Y-8199459D02*
X11882134Y-8208982D01*
X11882134Y-8208982D02*
X11891658Y-8218506D01*
X11891658Y-8218506D02*
X11901182Y-8237554D01*
X11901182Y-8237554D02*
X11910705Y-8275649D01*
X11910705Y-8275649D02*
X11910705Y-8323268D01*
X11910705Y-8323268D02*
X11901182Y-8361363D01*
X11901182Y-8361363D02*
X11891658Y-8380411D01*
X11891658Y-8380411D02*
X11882134Y-8389935D01*
X11882134Y-8389935D02*
X11863086Y-8399459D01*
X11863086Y-8399459D02*
X11844039Y-8399459D01*
X11844039Y-8399459D02*
X11824991Y-8389935D01*
X11824991Y-8389935D02*
X11815467Y-8380411D01*
X11815467Y-8380411D02*
X11805943Y-8361363D01*
X11805943Y-8361363D02*
X11796420Y-8323268D01*
X11796420Y-8323268D02*
X11796420Y-8275649D01*
X11796420Y-8275649D02*
X11805943Y-8237554D01*
X11805943Y-8237554D02*
X11815467Y-8218506D01*
X11815467Y-8218506D02*
X11824991Y-8208982D01*
X11824991Y-8208982D02*
X11844039Y-8199459D01*
X11996420Y-8399459D02*
X11996420Y-8266125D01*
X11996420Y-8285173D02*
X12005943Y-8275649D01*
X12005943Y-8275649D02*
X12024991Y-8266125D01*
X12024991Y-8266125D02*
X12053563Y-8266125D01*
X12053563Y-8266125D02*
X12072610Y-8275649D01*
X12072610Y-8275649D02*
X12082134Y-8294697D01*
X12082134Y-8294697D02*
X12082134Y-8399459D01*
X12082134Y-8294697D02*
X12091658Y-8275649D01*
X12091658Y-8275649D02*
X12110705Y-8266125D01*
X12110705Y-8266125D02*
X12139277Y-8266125D01*
X12139277Y-8266125D02*
X12158324Y-8275649D01*
X12158324Y-8275649D02*
X12167848Y-8294697D01*
X12167848Y-8294697D02*
X12167848Y-8399459D01*
X12263086Y-8399459D02*
X12263086Y-8266125D01*
X12263086Y-8285173D02*
X12272610Y-8275649D01*
X12272610Y-8275649D02*
X12291658Y-8266125D01*
X12291658Y-8266125D02*
X12320229Y-8266125D01*
X12320229Y-8266125D02*
X12339277Y-8275649D01*
X12339277Y-8275649D02*
X12348801Y-8294697D01*
X12348801Y-8294697D02*
X12348801Y-8399459D01*
X12348801Y-8294697D02*
X12358324Y-8275649D01*
X12358324Y-8275649D02*
X12377372Y-8266125D01*
X12377372Y-8266125D02*
X12405943Y-8266125D01*
X12405943Y-8266125D02*
X12424991Y-8275649D01*
X12424991Y-8275649D02*
X12434515Y-8294697D01*
X12434515Y-8294697D02*
X12434515Y-8399459D01*
X12824991Y-8189935D02*
X12653563Y-8447078D01*
X13082134Y-8199459D02*
X13101182Y-8199459D01*
X13101182Y-8199459D02*
X13120229Y-8208982D01*
X13120229Y-8208982D02*
X13129753Y-8218506D01*
X13129753Y-8218506D02*
X13139277Y-8237554D01*
X13139277Y-8237554D02*
X13148801Y-8275649D01*
X13148801Y-8275649D02*
X13148801Y-8323268D01*
X13148801Y-8323268D02*
X13139277Y-8361363D01*
X13139277Y-8361363D02*
X13129753Y-8380411D01*
X13129753Y-8380411D02*
X13120229Y-8389935D01*
X13120229Y-8389935D02*
X13101182Y-8399459D01*
X13101182Y-8399459D02*
X13082134Y-8399459D01*
X13082134Y-8399459D02*
X13063086Y-8389935D01*
X13063086Y-8389935D02*
X13053563Y-8380411D01*
X13053563Y-8380411D02*
X13044039Y-8361363D01*
X13044039Y-8361363D02*
X13034515Y-8323268D01*
X13034515Y-8323268D02*
X13034515Y-8275649D01*
X13034515Y-8275649D02*
X13044039Y-8237554D01*
X13044039Y-8237554D02*
X13053563Y-8218506D01*
X13053563Y-8218506D02*
X13063086Y-8208982D01*
X13063086Y-8208982D02*
X13082134Y-8199459D01*
X13234515Y-8380411D02*
X13244039Y-8389935D01*
X13244039Y-8389935D02*
X13234515Y-8399459D01*
X13234515Y-8399459D02*
X13224991Y-8389935D01*
X13224991Y-8389935D02*
X13234515Y-8380411D01*
X13234515Y-8380411D02*
X13234515Y-8399459D01*
X13367848Y-8199459D02*
X13386896Y-8199459D01*
X13386896Y-8199459D02*
X13405944Y-8208982D01*
X13405944Y-8208982D02*
X13415467Y-8218506D01*
X13415467Y-8218506D02*
X13424991Y-8237554D01*
X13424991Y-8237554D02*
X13434515Y-8275649D01*
X13434515Y-8275649D02*
X13434515Y-8323268D01*
X13434515Y-8323268D02*
X13424991Y-8361363D01*
X13424991Y-8361363D02*
X13415467Y-8380411D01*
X13415467Y-8380411D02*
X13405944Y-8389935D01*
X13405944Y-8389935D02*
X13386896Y-8399459D01*
X13386896Y-8399459D02*
X13367848Y-8399459D01*
X13367848Y-8399459D02*
X13348801Y-8389935D01*
X13348801Y-8389935D02*
X13339277Y-8380411D01*
X13339277Y-8380411D02*
X13329753Y-8361363D01*
X13329753Y-8361363D02*
X13320229Y-8323268D01*
X13320229Y-8323268D02*
X13320229Y-8275649D01*
X13320229Y-8275649D02*
X13329753Y-8237554D01*
X13329753Y-8237554D02*
X13339277Y-8218506D01*
X13339277Y-8218506D02*
X13348801Y-8208982D01*
X13348801Y-8208982D02*
X13367848Y-8199459D01*
X13624991Y-8399459D02*
X13510706Y-8399459D01*
X13567848Y-8399459D02*
X13567848Y-8199459D01*
X13567848Y-8199459D02*
X13548801Y-8228030D01*
X13548801Y-8228030D02*
X13529753Y-8247078D01*
X13529753Y-8247078D02*
X13510706Y-8256601D01*
X13815467Y-8399459D02*
X13701182Y-8399459D01*
X13758325Y-8399459D02*
X13758325Y-8199459D01*
X13758325Y-8199459D02*
X13739277Y-8228030D01*
X13739277Y-8228030D02*
X13720229Y-8247078D01*
X13720229Y-8247078D02*
X13701182Y-8256601D01*
X13929753Y-8285173D02*
X13910706Y-8275649D01*
X13910706Y-8275649D02*
X13901182Y-8266125D01*
X13901182Y-8266125D02*
X13891658Y-8247078D01*
X13891658Y-8247078D02*
X13891658Y-8237554D01*
X13891658Y-8237554D02*
X13901182Y-8218506D01*
X13901182Y-8218506D02*
X13910706Y-8208982D01*
X13910706Y-8208982D02*
X13929753Y-8199459D01*
X13929753Y-8199459D02*
X13967848Y-8199459D01*
X13967848Y-8199459D02*
X13986896Y-8208982D01*
X13986896Y-8208982D02*
X13996420Y-8218506D01*
X13996420Y-8218506D02*
X14005944Y-8237554D01*
X14005944Y-8237554D02*
X14005944Y-8247078D01*
X14005944Y-8247078D02*
X13996420Y-8266125D01*
X13996420Y-8266125D02*
X13986896Y-8275649D01*
X13986896Y-8275649D02*
X13967848Y-8285173D01*
X13967848Y-8285173D02*
X13929753Y-8285173D01*
X13929753Y-8285173D02*
X13910706Y-8294697D01*
X13910706Y-8294697D02*
X13901182Y-8304220D01*
X13901182Y-8304220D02*
X13891658Y-8323268D01*
X13891658Y-8323268D02*
X13891658Y-8361363D01*
X13891658Y-8361363D02*
X13901182Y-8380411D01*
X13901182Y-8380411D02*
X13910706Y-8389935D01*
X13910706Y-8389935D02*
X13929753Y-8399459D01*
X13929753Y-8399459D02*
X13967848Y-8399459D01*
X13967848Y-8399459D02*
X13986896Y-8389935D01*
X13986896Y-8389935D02*
X13996420Y-8380411D01*
X13996420Y-8380411D02*
X14005944Y-8361363D01*
X14005944Y-8361363D02*
X14005944Y-8323268D01*
X14005944Y-8323268D02*
X13996420Y-8304220D01*
X13996420Y-8304220D02*
X13986896Y-8294697D01*
X13986896Y-8294697D02*
X13967848Y-8285173D01*
X14082134Y-8199459D02*
X14082134Y-8237554D01*
X14158325Y-8199459D02*
X14158325Y-8237554D01*
X14453563Y-8475649D02*
X14444039Y-8466125D01*
X14444039Y-8466125D02*
X14424991Y-8437554D01*
X14424991Y-8437554D02*
X14415468Y-8418506D01*
X14415468Y-8418506D02*
X14405944Y-8389935D01*
X14405944Y-8389935D02*
X14396420Y-8342316D01*
X14396420Y-8342316D02*
X14396420Y-8304220D01*
X14396420Y-8304220D02*
X14405944Y-8256601D01*
X14405944Y-8256601D02*
X14415468Y-8228030D01*
X14415468Y-8228030D02*
X14424991Y-8208982D01*
X14424991Y-8208982D02*
X14444039Y-8180411D01*
X14444039Y-8180411D02*
X14453563Y-8170887D01*
X14520229Y-8218506D02*
X14529753Y-8208982D01*
X14529753Y-8208982D02*
X14548801Y-8199459D01*
X14548801Y-8199459D02*
X14596420Y-8199459D01*
X14596420Y-8199459D02*
X14615468Y-8208982D01*
X14615468Y-8208982D02*
X14624991Y-8218506D01*
X14624991Y-8218506D02*
X14634515Y-8237554D01*
X14634515Y-8237554D02*
X14634515Y-8256601D01*
X14634515Y-8256601D02*
X14624991Y-8285173D01*
X14624991Y-8285173D02*
X14510706Y-8399459D01*
X14510706Y-8399459D02*
X14634515Y-8399459D01*
X14824991Y-8399459D02*
X14710706Y-8399459D01*
X14767848Y-8399459D02*
X14767848Y-8199459D01*
X14767848Y-8199459D02*
X14748801Y-8228030D01*
X14748801Y-8228030D02*
X14729753Y-8247078D01*
X14729753Y-8247078D02*
X14710706Y-8256601D01*
X15063087Y-8399459D02*
X15063087Y-8199459D01*
X15148801Y-8399459D02*
X15148801Y-8294697D01*
X15148801Y-8294697D02*
X15139277Y-8275649D01*
X15139277Y-8275649D02*
X15120230Y-8266125D01*
X15120230Y-8266125D02*
X15091658Y-8266125D01*
X15091658Y-8266125D02*
X15072610Y-8275649D01*
X15072610Y-8275649D02*
X15063087Y-8285173D01*
X15272610Y-8399459D02*
X15253563Y-8389935D01*
X15253563Y-8389935D02*
X15244039Y-8380411D01*
X15244039Y-8380411D02*
X15234515Y-8361363D01*
X15234515Y-8361363D02*
X15234515Y-8304220D01*
X15234515Y-8304220D02*
X15244039Y-8285173D01*
X15244039Y-8285173D02*
X15253563Y-8275649D01*
X15253563Y-8275649D02*
X15272610Y-8266125D01*
X15272610Y-8266125D02*
X15301182Y-8266125D01*
X15301182Y-8266125D02*
X15320230Y-8275649D01*
X15320230Y-8275649D02*
X15329753Y-8285173D01*
X15329753Y-8285173D02*
X15339277Y-8304220D01*
X15339277Y-8304220D02*
X15339277Y-8361363D01*
X15339277Y-8361363D02*
X15329753Y-8380411D01*
X15329753Y-8380411D02*
X15320230Y-8389935D01*
X15320230Y-8389935D02*
X15301182Y-8399459D01*
X15301182Y-8399459D02*
X15272610Y-8399459D01*
X15453563Y-8399459D02*
X15434515Y-8389935D01*
X15434515Y-8389935D02*
X15424991Y-8370887D01*
X15424991Y-8370887D02*
X15424991Y-8199459D01*
X15605944Y-8389935D02*
X15586896Y-8399459D01*
X15586896Y-8399459D02*
X15548801Y-8399459D01*
X15548801Y-8399459D02*
X15529753Y-8389935D01*
X15529753Y-8389935D02*
X15520230Y-8370887D01*
X15520230Y-8370887D02*
X15520230Y-8294697D01*
X15520230Y-8294697D02*
X15529753Y-8275649D01*
X15529753Y-8275649D02*
X15548801Y-8266125D01*
X15548801Y-8266125D02*
X15586896Y-8266125D01*
X15586896Y-8266125D02*
X15605944Y-8275649D01*
X15605944Y-8275649D02*
X15615468Y-8294697D01*
X15615468Y-8294697D02*
X15615468Y-8313744D01*
X15615468Y-8313744D02*
X15520230Y-8332792D01*
X15691658Y-8389935D02*
X15710706Y-8399459D01*
X15710706Y-8399459D02*
X15748801Y-8399459D01*
X15748801Y-8399459D02*
X15767849Y-8389935D01*
X15767849Y-8389935D02*
X15777372Y-8370887D01*
X15777372Y-8370887D02*
X15777372Y-8361363D01*
X15777372Y-8361363D02*
X15767849Y-8342316D01*
X15767849Y-8342316D02*
X15748801Y-8332792D01*
X15748801Y-8332792D02*
X15720230Y-8332792D01*
X15720230Y-8332792D02*
X15701182Y-8323268D01*
X15701182Y-8323268D02*
X15691658Y-8304220D01*
X15691658Y-8304220D02*
X15691658Y-8294697D01*
X15691658Y-8294697D02*
X15701182Y-8275649D01*
X15701182Y-8275649D02*
X15720230Y-8266125D01*
X15720230Y-8266125D02*
X15748801Y-8266125D01*
X15748801Y-8266125D02*
X15767849Y-8275649D01*
X15844039Y-8475649D02*
X15853563Y-8466125D01*
X15853563Y-8466125D02*
X15872611Y-8437554D01*
X15872611Y-8437554D02*
X15882134Y-8418506D01*
X15882134Y-8418506D02*
X15891658Y-8389935D01*
X15891658Y-8389935D02*
X15901182Y-8342316D01*
X15901182Y-8342316D02*
X15901182Y-8304220D01*
X15901182Y-8304220D02*
X15891658Y-8256601D01*
X15891658Y-8256601D02*
X15882134Y-8228030D01*
X15882134Y-8228030D02*
X15872611Y-8208982D01*
X15872611Y-8208982D02*
X15853563Y-8180411D01*
X15853563Y-8180411D02*
X15844039Y-8170887D01*
D10*
X10878500Y-8571975D02*
G75*
G02*
X10798500Y-8571975I-40000J0D01*
G01*
X10798500Y-8571975D02*
G75*
G02*
X10878500Y-8571975I40000J0D01*
G01*
D11*
X11177372Y-8463459D02*
X11196420Y-8463459D01*
X11196420Y-8463459D02*
X11215467Y-8472982D01*
X11215467Y-8472982D02*
X11224991Y-8482506D01*
X11224991Y-8482506D02*
X11234515Y-8501554D01*
X11234515Y-8501554D02*
X11244039Y-8539649D01*
X11244039Y-8539649D02*
X11244039Y-8587268D01*
X11244039Y-8587268D02*
X11234515Y-8625363D01*
X11234515Y-8625363D02*
X11224991Y-8644411D01*
X11224991Y-8644411D02*
X11215467Y-8653935D01*
X11215467Y-8653935D02*
X11196420Y-8663459D01*
X11196420Y-8663459D02*
X11177372Y-8663459D01*
X11177372Y-8663459D02*
X11158324Y-8653935D01*
X11158324Y-8653935D02*
X11148801Y-8644411D01*
X11148801Y-8644411D02*
X11139277Y-8625363D01*
X11139277Y-8625363D02*
X11129753Y-8587268D01*
X11129753Y-8587268D02*
X11129753Y-8539649D01*
X11129753Y-8539649D02*
X11139277Y-8501554D01*
X11139277Y-8501554D02*
X11148801Y-8482506D01*
X11148801Y-8482506D02*
X11158324Y-8472982D01*
X11158324Y-8472982D02*
X11177372Y-8463459D01*
X11329753Y-8644411D02*
X11339277Y-8653935D01*
X11339277Y-8653935D02*
X11329753Y-8663459D01*
X11329753Y-8663459D02*
X11320229Y-8653935D01*
X11320229Y-8653935D02*
X11329753Y-8644411D01*
X11329753Y-8644411D02*
X11329753Y-8663459D01*
X11453562Y-8549173D02*
X11434515Y-8539649D01*
X11434515Y-8539649D02*
X11424991Y-8530125D01*
X11424991Y-8530125D02*
X11415467Y-8511078D01*
X11415467Y-8511078D02*
X11415467Y-8501554D01*
X11415467Y-8501554D02*
X11424991Y-8482506D01*
X11424991Y-8482506D02*
X11434515Y-8472982D01*
X11434515Y-8472982D02*
X11453562Y-8463459D01*
X11453562Y-8463459D02*
X11491658Y-8463459D01*
X11491658Y-8463459D02*
X11510705Y-8472982D01*
X11510705Y-8472982D02*
X11520229Y-8482506D01*
X11520229Y-8482506D02*
X11529753Y-8501554D01*
X11529753Y-8501554D02*
X11529753Y-8511078D01*
X11529753Y-8511078D02*
X11520229Y-8530125D01*
X11520229Y-8530125D02*
X11510705Y-8539649D01*
X11510705Y-8539649D02*
X11491658Y-8549173D01*
X11491658Y-8549173D02*
X11453562Y-8549173D01*
X11453562Y-8549173D02*
X11434515Y-8558697D01*
X11434515Y-8558697D02*
X11424991Y-8568221D01*
X11424991Y-8568221D02*
X11415467Y-8587268D01*
X11415467Y-8587268D02*
X11415467Y-8625363D01*
X11415467Y-8625363D02*
X11424991Y-8644411D01*
X11424991Y-8644411D02*
X11434515Y-8653935D01*
X11434515Y-8653935D02*
X11453562Y-8663459D01*
X11453562Y-8663459D02*
X11491658Y-8663459D01*
X11491658Y-8663459D02*
X11510705Y-8653935D01*
X11510705Y-8653935D02*
X11520229Y-8644411D01*
X11520229Y-8644411D02*
X11529753Y-8625363D01*
X11529753Y-8625363D02*
X11529753Y-8587268D01*
X11529753Y-8587268D02*
X11520229Y-8568221D01*
X11520229Y-8568221D02*
X11510705Y-8558697D01*
X11510705Y-8558697D02*
X11491658Y-8549173D01*
X11653562Y-8463459D02*
X11672610Y-8463459D01*
X11672610Y-8463459D02*
X11691658Y-8472982D01*
X11691658Y-8472982D02*
X11701182Y-8482506D01*
X11701182Y-8482506D02*
X11710705Y-8501554D01*
X11710705Y-8501554D02*
X11720229Y-8539649D01*
X11720229Y-8539649D02*
X11720229Y-8587268D01*
X11720229Y-8587268D02*
X11710705Y-8625363D01*
X11710705Y-8625363D02*
X11701182Y-8644411D01*
X11701182Y-8644411D02*
X11691658Y-8653935D01*
X11691658Y-8653935D02*
X11672610Y-8663459D01*
X11672610Y-8663459D02*
X11653562Y-8663459D01*
X11653562Y-8663459D02*
X11634515Y-8653935D01*
X11634515Y-8653935D02*
X11624991Y-8644411D01*
X11624991Y-8644411D02*
X11615467Y-8625363D01*
X11615467Y-8625363D02*
X11605943Y-8587268D01*
X11605943Y-8587268D02*
X11605943Y-8539649D01*
X11605943Y-8539649D02*
X11615467Y-8501554D01*
X11615467Y-8501554D02*
X11624991Y-8482506D01*
X11624991Y-8482506D02*
X11634515Y-8472982D01*
X11634515Y-8472982D02*
X11653562Y-8463459D01*
X11844039Y-8463459D02*
X11863086Y-8463459D01*
X11863086Y-8463459D02*
X11882134Y-8472982D01*
X11882134Y-8472982D02*
X11891658Y-8482506D01*
X11891658Y-8482506D02*
X11901182Y-8501554D01*
X11901182Y-8501554D02*
X11910705Y-8539649D01*
X11910705Y-8539649D02*
X11910705Y-8587268D01*
X11910705Y-8587268D02*
X11901182Y-8625363D01*
X11901182Y-8625363D02*
X11891658Y-8644411D01*
X11891658Y-8644411D02*
X11882134Y-8653935D01*
X11882134Y-8653935D02*
X11863086Y-8663459D01*
X11863086Y-8663459D02*
X11844039Y-8663459D01*
X11844039Y-8663459D02*
X11824991Y-8653935D01*
X11824991Y-8653935D02*
X11815467Y-8644411D01*
X11815467Y-8644411D02*
X11805943Y-8625363D01*
X11805943Y-8625363D02*
X11796420Y-8587268D01*
X11796420Y-8587268D02*
X11796420Y-8539649D01*
X11796420Y-8539649D02*
X11805943Y-8501554D01*
X11805943Y-8501554D02*
X11815467Y-8482506D01*
X11815467Y-8482506D02*
X11824991Y-8472982D01*
X11824991Y-8472982D02*
X11844039Y-8463459D01*
X11996420Y-8663459D02*
X11996420Y-8530125D01*
X11996420Y-8549173D02*
X12005943Y-8539649D01*
X12005943Y-8539649D02*
X12024991Y-8530125D01*
X12024991Y-8530125D02*
X12053563Y-8530125D01*
X12053563Y-8530125D02*
X12072610Y-8539649D01*
X12072610Y-8539649D02*
X12082134Y-8558697D01*
X12082134Y-8558697D02*
X12082134Y-8663459D01*
X12082134Y-8558697D02*
X12091658Y-8539649D01*
X12091658Y-8539649D02*
X12110705Y-8530125D01*
X12110705Y-8530125D02*
X12139277Y-8530125D01*
X12139277Y-8530125D02*
X12158324Y-8539649D01*
X12158324Y-8539649D02*
X12167848Y-8558697D01*
X12167848Y-8558697D02*
X12167848Y-8663459D01*
X12263086Y-8663459D02*
X12263086Y-8530125D01*
X12263086Y-8549173D02*
X12272610Y-8539649D01*
X12272610Y-8539649D02*
X12291658Y-8530125D01*
X12291658Y-8530125D02*
X12320229Y-8530125D01*
X12320229Y-8530125D02*
X12339277Y-8539649D01*
X12339277Y-8539649D02*
X12348801Y-8558697D01*
X12348801Y-8558697D02*
X12348801Y-8663459D01*
X12348801Y-8558697D02*
X12358324Y-8539649D01*
X12358324Y-8539649D02*
X12377372Y-8530125D01*
X12377372Y-8530125D02*
X12405943Y-8530125D01*
X12405943Y-8530125D02*
X12424991Y-8539649D01*
X12424991Y-8539649D02*
X12434515Y-8558697D01*
X12434515Y-8558697D02*
X12434515Y-8663459D01*
X12824991Y-8453935D02*
X12653563Y-8711078D01*
X13082134Y-8463459D02*
X13101182Y-8463459D01*
X13101182Y-8463459D02*
X13120229Y-8472982D01*
X13120229Y-8472982D02*
X13129753Y-8482506D01*
X13129753Y-8482506D02*
X13139277Y-8501554D01*
X13139277Y-8501554D02*
X13148801Y-8539649D01*
X13148801Y-8539649D02*
X13148801Y-8587268D01*
X13148801Y-8587268D02*
X13139277Y-8625363D01*
X13139277Y-8625363D02*
X13129753Y-8644411D01*
X13129753Y-8644411D02*
X13120229Y-8653935D01*
X13120229Y-8653935D02*
X13101182Y-8663459D01*
X13101182Y-8663459D02*
X13082134Y-8663459D01*
X13082134Y-8663459D02*
X13063086Y-8653935D01*
X13063086Y-8653935D02*
X13053563Y-8644411D01*
X13053563Y-8644411D02*
X13044039Y-8625363D01*
X13044039Y-8625363D02*
X13034515Y-8587268D01*
X13034515Y-8587268D02*
X13034515Y-8539649D01*
X13034515Y-8539649D02*
X13044039Y-8501554D01*
X13044039Y-8501554D02*
X13053563Y-8482506D01*
X13053563Y-8482506D02*
X13063086Y-8472982D01*
X13063086Y-8472982D02*
X13082134Y-8463459D01*
X13234515Y-8644411D02*
X13244039Y-8653935D01*
X13244039Y-8653935D02*
X13234515Y-8663459D01*
X13234515Y-8663459D02*
X13224991Y-8653935D01*
X13224991Y-8653935D02*
X13234515Y-8644411D01*
X13234515Y-8644411D02*
X13234515Y-8663459D01*
X13367848Y-8463459D02*
X13386896Y-8463459D01*
X13386896Y-8463459D02*
X13405944Y-8472982D01*
X13405944Y-8472982D02*
X13415467Y-8482506D01*
X13415467Y-8482506D02*
X13424991Y-8501554D01*
X13424991Y-8501554D02*
X13434515Y-8539649D01*
X13434515Y-8539649D02*
X13434515Y-8587268D01*
X13434515Y-8587268D02*
X13424991Y-8625363D01*
X13424991Y-8625363D02*
X13415467Y-8644411D01*
X13415467Y-8644411D02*
X13405944Y-8653935D01*
X13405944Y-8653935D02*
X13386896Y-8663459D01*
X13386896Y-8663459D02*
X13367848Y-8663459D01*
X13367848Y-8663459D02*
X13348801Y-8653935D01*
X13348801Y-8653935D02*
X13339277Y-8644411D01*
X13339277Y-8644411D02*
X13329753Y-8625363D01*
X13329753Y-8625363D02*
X13320229Y-8587268D01*
X13320229Y-8587268D02*
X13320229Y-8539649D01*
X13320229Y-8539649D02*
X13329753Y-8501554D01*
X13329753Y-8501554D02*
X13339277Y-8482506D01*
X13339277Y-8482506D02*
X13348801Y-8472982D01*
X13348801Y-8472982D02*
X13367848Y-8463459D01*
X13501182Y-8463459D02*
X13624991Y-8463459D01*
X13624991Y-8463459D02*
X13558325Y-8539649D01*
X13558325Y-8539649D02*
X13586896Y-8539649D01*
X13586896Y-8539649D02*
X13605944Y-8549173D01*
X13605944Y-8549173D02*
X13615467Y-8558697D01*
X13615467Y-8558697D02*
X13624991Y-8577744D01*
X13624991Y-8577744D02*
X13624991Y-8625363D01*
X13624991Y-8625363D02*
X13615467Y-8644411D01*
X13615467Y-8644411D02*
X13605944Y-8653935D01*
X13605944Y-8653935D02*
X13586896Y-8663459D01*
X13586896Y-8663459D02*
X13529753Y-8663459D01*
X13529753Y-8663459D02*
X13510706Y-8653935D01*
X13510706Y-8653935D02*
X13501182Y-8644411D01*
X13815467Y-8663459D02*
X13701182Y-8663459D01*
X13758325Y-8663459D02*
X13758325Y-8463459D01*
X13758325Y-8463459D02*
X13739277Y-8492030D01*
X13739277Y-8492030D02*
X13720229Y-8511078D01*
X13720229Y-8511078D02*
X13701182Y-8520601D01*
X13996420Y-8463459D02*
X13901182Y-8463459D01*
X13901182Y-8463459D02*
X13891658Y-8558697D01*
X13891658Y-8558697D02*
X13901182Y-8549173D01*
X13901182Y-8549173D02*
X13920229Y-8539649D01*
X13920229Y-8539649D02*
X13967848Y-8539649D01*
X13967848Y-8539649D02*
X13986896Y-8549173D01*
X13986896Y-8549173D02*
X13996420Y-8558697D01*
X13996420Y-8558697D02*
X14005944Y-8577744D01*
X14005944Y-8577744D02*
X14005944Y-8625363D01*
X14005944Y-8625363D02*
X13996420Y-8644411D01*
X13996420Y-8644411D02*
X13986896Y-8653935D01*
X13986896Y-8653935D02*
X13967848Y-8663459D01*
X13967848Y-8663459D02*
X13920229Y-8663459D01*
X13920229Y-8663459D02*
X13901182Y-8653935D01*
X13901182Y-8653935D02*
X13891658Y-8644411D01*
X14082134Y-8463459D02*
X14082134Y-8501554D01*
X14158325Y-8463459D02*
X14158325Y-8501554D01*
X14453563Y-8739649D02*
X14444039Y-8730125D01*
X14444039Y-8730125D02*
X14424991Y-8701554D01*
X14424991Y-8701554D02*
X14415468Y-8682506D01*
X14415468Y-8682506D02*
X14405944Y-8653935D01*
X14405944Y-8653935D02*
X14396420Y-8606316D01*
X14396420Y-8606316D02*
X14396420Y-8568221D01*
X14396420Y-8568221D02*
X14405944Y-8520601D01*
X14405944Y-8520601D02*
X14415468Y-8492030D01*
X14415468Y-8492030D02*
X14424991Y-8472982D01*
X14424991Y-8472982D02*
X14444039Y-8444411D01*
X14444039Y-8444411D02*
X14453563Y-8434887D01*
X14615468Y-8530125D02*
X14615468Y-8663459D01*
X14567848Y-8453935D02*
X14520229Y-8596792D01*
X14520229Y-8596792D02*
X14644039Y-8596792D01*
X14758325Y-8463459D02*
X14777372Y-8463459D01*
X14777372Y-8463459D02*
X14796420Y-8472982D01*
X14796420Y-8472982D02*
X14805944Y-8482506D01*
X14805944Y-8482506D02*
X14815468Y-8501554D01*
X14815468Y-8501554D02*
X14824991Y-8539649D01*
X14824991Y-8539649D02*
X14824991Y-8587268D01*
X14824991Y-8587268D02*
X14815468Y-8625363D01*
X14815468Y-8625363D02*
X14805944Y-8644411D01*
X14805944Y-8644411D02*
X14796420Y-8653935D01*
X14796420Y-8653935D02*
X14777372Y-8663459D01*
X14777372Y-8663459D02*
X14758325Y-8663459D01*
X14758325Y-8663459D02*
X14739277Y-8653935D01*
X14739277Y-8653935D02*
X14729753Y-8644411D01*
X14729753Y-8644411D02*
X14720229Y-8625363D01*
X14720229Y-8625363D02*
X14710706Y-8587268D01*
X14710706Y-8587268D02*
X14710706Y-8539649D01*
X14710706Y-8539649D02*
X14720229Y-8501554D01*
X14720229Y-8501554D02*
X14729753Y-8482506D01*
X14729753Y-8482506D02*
X14739277Y-8472982D01*
X14739277Y-8472982D02*
X14758325Y-8463459D01*
X15063087Y-8663459D02*
X15063087Y-8463459D01*
X15148801Y-8663459D02*
X15148801Y-8558697D01*
X15148801Y-8558697D02*
X15139277Y-8539649D01*
X15139277Y-8539649D02*
X15120230Y-8530125D01*
X15120230Y-8530125D02*
X15091658Y-8530125D01*
X15091658Y-8530125D02*
X15072610Y-8539649D01*
X15072610Y-8539649D02*
X15063087Y-8549173D01*
X15272610Y-8663459D02*
X15253563Y-8653935D01*
X15253563Y-8653935D02*
X15244039Y-8644411D01*
X15244039Y-8644411D02*
X15234515Y-8625363D01*
X15234515Y-8625363D02*
X15234515Y-8568221D01*
X15234515Y-8568221D02*
X15244039Y-8549173D01*
X15244039Y-8549173D02*
X15253563Y-8539649D01*
X15253563Y-8539649D02*
X15272610Y-8530125D01*
X15272610Y-8530125D02*
X15301182Y-8530125D01*
X15301182Y-8530125D02*
X15320230Y-8539649D01*
X15320230Y-8539649D02*
X15329753Y-8549173D01*
X15329753Y-8549173D02*
X15339277Y-8568221D01*
X15339277Y-8568221D02*
X15339277Y-8625363D01*
X15339277Y-8625363D02*
X15329753Y-8644411D01*
X15329753Y-8644411D02*
X15320230Y-8653935D01*
X15320230Y-8653935D02*
X15301182Y-8663459D01*
X15301182Y-8663459D02*
X15272610Y-8663459D01*
X15453563Y-8663459D02*
X15434515Y-8653935D01*
X15434515Y-8653935D02*
X15424991Y-8634887D01*
X15424991Y-8634887D02*
X15424991Y-8463459D01*
X15605944Y-8653935D02*
X15586896Y-8663459D01*
X15586896Y-8663459D02*
X15548801Y-8663459D01*
X15548801Y-8663459D02*
X15529753Y-8653935D01*
X15529753Y-8653935D02*
X15520230Y-8634887D01*
X15520230Y-8634887D02*
X15520230Y-8558697D01*
X15520230Y-8558697D02*
X15529753Y-8539649D01*
X15529753Y-8539649D02*
X15548801Y-8530125D01*
X15548801Y-8530125D02*
X15586896Y-8530125D01*
X15586896Y-8530125D02*
X15605944Y-8539649D01*
X15605944Y-8539649D02*
X15615468Y-8558697D01*
X15615468Y-8558697D02*
X15615468Y-8577744D01*
X15615468Y-8577744D02*
X15520230Y-8596792D01*
X15691658Y-8653935D02*
X15710706Y-8663459D01*
X15710706Y-8663459D02*
X15748801Y-8663459D01*
X15748801Y-8663459D02*
X15767849Y-8653935D01*
X15767849Y-8653935D02*
X15777372Y-8634887D01*
X15777372Y-8634887D02*
X15777372Y-8625363D01*
X15777372Y-8625363D02*
X15767849Y-8606316D01*
X15767849Y-8606316D02*
X15748801Y-8596792D01*
X15748801Y-8596792D02*
X15720230Y-8596792D01*
X15720230Y-8596792D02*
X15701182Y-8587268D01*
X15701182Y-8587268D02*
X15691658Y-8568221D01*
X15691658Y-8568221D02*
X15691658Y-8558697D01*
X15691658Y-8558697D02*
X15701182Y-8539649D01*
X15701182Y-8539649D02*
X15720230Y-8530125D01*
X15720230Y-8530125D02*
X15748801Y-8530125D01*
X15748801Y-8530125D02*
X15767849Y-8539649D01*
X15844039Y-8739649D02*
X15853563Y-8730125D01*
X15853563Y-8730125D02*
X15872611Y-8701554D01*
X15872611Y-8701554D02*
X15882134Y-8682506D01*
X15882134Y-8682506D02*
X15891658Y-8653935D01*
X15891658Y-8653935D02*
X15901182Y-8606316D01*
X15901182Y-8606316D02*
X15901182Y-8568221D01*
X15901182Y-8568221D02*
X15891658Y-8520601D01*
X15891658Y-8520601D02*
X15882134Y-8492030D01*
X15882134Y-8492030D02*
X15872611Y-8472982D01*
X15872611Y-8472982D02*
X15853563Y-8444411D01*
X15853563Y-8444411D02*
X15844039Y-8434887D01*
D10*
X10828500Y-8785975D02*
X10828500Y-8885975D01*
X10778500Y-8835975D02*
X10878500Y-8835975D01*
D11*
X11244039Y-8927459D02*
X11129753Y-8927459D01*
X11186896Y-8927459D02*
X11186896Y-8727459D01*
X11186896Y-8727459D02*
X11167848Y-8756030D01*
X11167848Y-8756030D02*
X11148801Y-8775078D01*
X11148801Y-8775078D02*
X11129753Y-8784601D01*
X11329753Y-8908411D02*
X11339277Y-8917935D01*
X11339277Y-8917935D02*
X11329753Y-8927459D01*
X11329753Y-8927459D02*
X11320229Y-8917935D01*
X11320229Y-8917935D02*
X11329753Y-8908411D01*
X11329753Y-8908411D02*
X11329753Y-8927459D01*
X11463086Y-8727459D02*
X11482134Y-8727459D01*
X11482134Y-8727459D02*
X11501182Y-8736982D01*
X11501182Y-8736982D02*
X11510705Y-8746506D01*
X11510705Y-8746506D02*
X11520229Y-8765554D01*
X11520229Y-8765554D02*
X11529753Y-8803649D01*
X11529753Y-8803649D02*
X11529753Y-8851268D01*
X11529753Y-8851268D02*
X11520229Y-8889363D01*
X11520229Y-8889363D02*
X11510705Y-8908411D01*
X11510705Y-8908411D02*
X11501182Y-8917935D01*
X11501182Y-8917935D02*
X11482134Y-8927459D01*
X11482134Y-8927459D02*
X11463086Y-8927459D01*
X11463086Y-8927459D02*
X11444039Y-8917935D01*
X11444039Y-8917935D02*
X11434515Y-8908411D01*
X11434515Y-8908411D02*
X11424991Y-8889363D01*
X11424991Y-8889363D02*
X11415467Y-8851268D01*
X11415467Y-8851268D02*
X11415467Y-8803649D01*
X11415467Y-8803649D02*
X11424991Y-8765554D01*
X11424991Y-8765554D02*
X11434515Y-8746506D01*
X11434515Y-8746506D02*
X11444039Y-8736982D01*
X11444039Y-8736982D02*
X11463086Y-8727459D01*
X11653562Y-8727459D02*
X11672610Y-8727459D01*
X11672610Y-8727459D02*
X11691658Y-8736982D01*
X11691658Y-8736982D02*
X11701182Y-8746506D01*
X11701182Y-8746506D02*
X11710705Y-8765554D01*
X11710705Y-8765554D02*
X11720229Y-8803649D01*
X11720229Y-8803649D02*
X11720229Y-8851268D01*
X11720229Y-8851268D02*
X11710705Y-8889363D01*
X11710705Y-8889363D02*
X11701182Y-8908411D01*
X11701182Y-8908411D02*
X11691658Y-8917935D01*
X11691658Y-8917935D02*
X11672610Y-8927459D01*
X11672610Y-8927459D02*
X11653562Y-8927459D01*
X11653562Y-8927459D02*
X11634515Y-8917935D01*
X11634515Y-8917935D02*
X11624991Y-8908411D01*
X11624991Y-8908411D02*
X11615467Y-8889363D01*
X11615467Y-8889363D02*
X11605943Y-8851268D01*
X11605943Y-8851268D02*
X11605943Y-8803649D01*
X11605943Y-8803649D02*
X11615467Y-8765554D01*
X11615467Y-8765554D02*
X11624991Y-8746506D01*
X11624991Y-8746506D02*
X11634515Y-8736982D01*
X11634515Y-8736982D02*
X11653562Y-8727459D01*
X11844039Y-8727459D02*
X11863086Y-8727459D01*
X11863086Y-8727459D02*
X11882134Y-8736982D01*
X11882134Y-8736982D02*
X11891658Y-8746506D01*
X11891658Y-8746506D02*
X11901182Y-8765554D01*
X11901182Y-8765554D02*
X11910705Y-8803649D01*
X11910705Y-8803649D02*
X11910705Y-8851268D01*
X11910705Y-8851268D02*
X11901182Y-8889363D01*
X11901182Y-8889363D02*
X11891658Y-8908411D01*
X11891658Y-8908411D02*
X11882134Y-8917935D01*
X11882134Y-8917935D02*
X11863086Y-8927459D01*
X11863086Y-8927459D02*
X11844039Y-8927459D01*
X11844039Y-8927459D02*
X11824991Y-8917935D01*
X11824991Y-8917935D02*
X11815467Y-8908411D01*
X11815467Y-8908411D02*
X11805943Y-8889363D01*
X11805943Y-8889363D02*
X11796420Y-8851268D01*
X11796420Y-8851268D02*
X11796420Y-8803649D01*
X11796420Y-8803649D02*
X11805943Y-8765554D01*
X11805943Y-8765554D02*
X11815467Y-8746506D01*
X11815467Y-8746506D02*
X11824991Y-8736982D01*
X11824991Y-8736982D02*
X11844039Y-8727459D01*
X11996420Y-8927459D02*
X11996420Y-8794125D01*
X11996420Y-8813173D02*
X12005943Y-8803649D01*
X12005943Y-8803649D02*
X12024991Y-8794125D01*
X12024991Y-8794125D02*
X12053563Y-8794125D01*
X12053563Y-8794125D02*
X12072610Y-8803649D01*
X12072610Y-8803649D02*
X12082134Y-8822697D01*
X12082134Y-8822697D02*
X12082134Y-8927459D01*
X12082134Y-8822697D02*
X12091658Y-8803649D01*
X12091658Y-8803649D02*
X12110705Y-8794125D01*
X12110705Y-8794125D02*
X12139277Y-8794125D01*
X12139277Y-8794125D02*
X12158324Y-8803649D01*
X12158324Y-8803649D02*
X12167848Y-8822697D01*
X12167848Y-8822697D02*
X12167848Y-8927459D01*
X12263086Y-8927459D02*
X12263086Y-8794125D01*
X12263086Y-8813173D02*
X12272610Y-8803649D01*
X12272610Y-8803649D02*
X12291658Y-8794125D01*
X12291658Y-8794125D02*
X12320229Y-8794125D01*
X12320229Y-8794125D02*
X12339277Y-8803649D01*
X12339277Y-8803649D02*
X12348801Y-8822697D01*
X12348801Y-8822697D02*
X12348801Y-8927459D01*
X12348801Y-8822697D02*
X12358324Y-8803649D01*
X12358324Y-8803649D02*
X12377372Y-8794125D01*
X12377372Y-8794125D02*
X12405943Y-8794125D01*
X12405943Y-8794125D02*
X12424991Y-8803649D01*
X12424991Y-8803649D02*
X12434515Y-8822697D01*
X12434515Y-8822697D02*
X12434515Y-8927459D01*
X12824991Y-8717935D02*
X12653563Y-8975078D01*
X13082134Y-8727459D02*
X13101182Y-8727459D01*
X13101182Y-8727459D02*
X13120229Y-8736982D01*
X13120229Y-8736982D02*
X13129753Y-8746506D01*
X13129753Y-8746506D02*
X13139277Y-8765554D01*
X13139277Y-8765554D02*
X13148801Y-8803649D01*
X13148801Y-8803649D02*
X13148801Y-8851268D01*
X13148801Y-8851268D02*
X13139277Y-8889363D01*
X13139277Y-8889363D02*
X13129753Y-8908411D01*
X13129753Y-8908411D02*
X13120229Y-8917935D01*
X13120229Y-8917935D02*
X13101182Y-8927459D01*
X13101182Y-8927459D02*
X13082134Y-8927459D01*
X13082134Y-8927459D02*
X13063086Y-8917935D01*
X13063086Y-8917935D02*
X13053563Y-8908411D01*
X13053563Y-8908411D02*
X13044039Y-8889363D01*
X13044039Y-8889363D02*
X13034515Y-8851268D01*
X13034515Y-8851268D02*
X13034515Y-8803649D01*
X13034515Y-8803649D02*
X13044039Y-8765554D01*
X13044039Y-8765554D02*
X13053563Y-8746506D01*
X13053563Y-8746506D02*
X13063086Y-8736982D01*
X13063086Y-8736982D02*
X13082134Y-8727459D01*
X13234515Y-8908411D02*
X13244039Y-8917935D01*
X13244039Y-8917935D02*
X13234515Y-8927459D01*
X13234515Y-8927459D02*
X13224991Y-8917935D01*
X13224991Y-8917935D02*
X13234515Y-8908411D01*
X13234515Y-8908411D02*
X13234515Y-8927459D01*
X13367848Y-8727459D02*
X13386896Y-8727459D01*
X13386896Y-8727459D02*
X13405944Y-8736982D01*
X13405944Y-8736982D02*
X13415467Y-8746506D01*
X13415467Y-8746506D02*
X13424991Y-8765554D01*
X13424991Y-8765554D02*
X13434515Y-8803649D01*
X13434515Y-8803649D02*
X13434515Y-8851268D01*
X13434515Y-8851268D02*
X13424991Y-8889363D01*
X13424991Y-8889363D02*
X13415467Y-8908411D01*
X13415467Y-8908411D02*
X13405944Y-8917935D01*
X13405944Y-8917935D02*
X13386896Y-8927459D01*
X13386896Y-8927459D02*
X13367848Y-8927459D01*
X13367848Y-8927459D02*
X13348801Y-8917935D01*
X13348801Y-8917935D02*
X13339277Y-8908411D01*
X13339277Y-8908411D02*
X13329753Y-8889363D01*
X13329753Y-8889363D02*
X13320229Y-8851268D01*
X13320229Y-8851268D02*
X13320229Y-8803649D01*
X13320229Y-8803649D02*
X13329753Y-8765554D01*
X13329753Y-8765554D02*
X13339277Y-8746506D01*
X13339277Y-8746506D02*
X13348801Y-8736982D01*
X13348801Y-8736982D02*
X13367848Y-8727459D01*
X13501182Y-8727459D02*
X13624991Y-8727459D01*
X13624991Y-8727459D02*
X13558325Y-8803649D01*
X13558325Y-8803649D02*
X13586896Y-8803649D01*
X13586896Y-8803649D02*
X13605944Y-8813173D01*
X13605944Y-8813173D02*
X13615467Y-8822697D01*
X13615467Y-8822697D02*
X13624991Y-8841744D01*
X13624991Y-8841744D02*
X13624991Y-8889363D01*
X13624991Y-8889363D02*
X13615467Y-8908411D01*
X13615467Y-8908411D02*
X13605944Y-8917935D01*
X13605944Y-8917935D02*
X13586896Y-8927459D01*
X13586896Y-8927459D02*
X13529753Y-8927459D01*
X13529753Y-8927459D02*
X13510706Y-8917935D01*
X13510706Y-8917935D02*
X13501182Y-8908411D01*
X13720229Y-8927459D02*
X13758325Y-8927459D01*
X13758325Y-8927459D02*
X13777372Y-8917935D01*
X13777372Y-8917935D02*
X13786896Y-8908411D01*
X13786896Y-8908411D02*
X13805944Y-8879840D01*
X13805944Y-8879840D02*
X13815467Y-8841744D01*
X13815467Y-8841744D02*
X13815467Y-8765554D01*
X13815467Y-8765554D02*
X13805944Y-8746506D01*
X13805944Y-8746506D02*
X13796420Y-8736982D01*
X13796420Y-8736982D02*
X13777372Y-8727459D01*
X13777372Y-8727459D02*
X13739277Y-8727459D01*
X13739277Y-8727459D02*
X13720229Y-8736982D01*
X13720229Y-8736982D02*
X13710706Y-8746506D01*
X13710706Y-8746506D02*
X13701182Y-8765554D01*
X13701182Y-8765554D02*
X13701182Y-8813173D01*
X13701182Y-8813173D02*
X13710706Y-8832221D01*
X13710706Y-8832221D02*
X13720229Y-8841744D01*
X13720229Y-8841744D02*
X13739277Y-8851268D01*
X13739277Y-8851268D02*
X13777372Y-8851268D01*
X13777372Y-8851268D02*
X13796420Y-8841744D01*
X13796420Y-8841744D02*
X13805944Y-8832221D01*
X13805944Y-8832221D02*
X13815467Y-8813173D01*
X13986896Y-8794125D02*
X13986896Y-8927459D01*
X13939277Y-8717935D02*
X13891658Y-8860792D01*
X13891658Y-8860792D02*
X14015467Y-8860792D01*
X14082134Y-8727459D02*
X14082134Y-8765554D01*
X14158325Y-8727459D02*
X14158325Y-8765554D01*
X14453563Y-9003649D02*
X14444039Y-8994125D01*
X14444039Y-8994125D02*
X14424991Y-8965554D01*
X14424991Y-8965554D02*
X14415468Y-8946506D01*
X14415468Y-8946506D02*
X14405944Y-8917935D01*
X14405944Y-8917935D02*
X14396420Y-8870316D01*
X14396420Y-8870316D02*
X14396420Y-8832221D01*
X14396420Y-8832221D02*
X14405944Y-8784601D01*
X14405944Y-8784601D02*
X14415468Y-8756030D01*
X14415468Y-8756030D02*
X14424991Y-8736982D01*
X14424991Y-8736982D02*
X14444039Y-8708411D01*
X14444039Y-8708411D02*
X14453563Y-8698887D01*
X14634515Y-8927459D02*
X14520229Y-8927459D01*
X14577372Y-8927459D02*
X14577372Y-8727459D01*
X14577372Y-8727459D02*
X14558325Y-8756030D01*
X14558325Y-8756030D02*
X14539277Y-8775078D01*
X14539277Y-8775078D02*
X14520229Y-8784601D01*
X14748801Y-8813173D02*
X14729753Y-8803649D01*
X14729753Y-8803649D02*
X14720229Y-8794125D01*
X14720229Y-8794125D02*
X14710706Y-8775078D01*
X14710706Y-8775078D02*
X14710706Y-8765554D01*
X14710706Y-8765554D02*
X14720229Y-8746506D01*
X14720229Y-8746506D02*
X14729753Y-8736982D01*
X14729753Y-8736982D02*
X14748801Y-8727459D01*
X14748801Y-8727459D02*
X14786896Y-8727459D01*
X14786896Y-8727459D02*
X14805944Y-8736982D01*
X14805944Y-8736982D02*
X14815468Y-8746506D01*
X14815468Y-8746506D02*
X14824991Y-8765554D01*
X14824991Y-8765554D02*
X14824991Y-8775078D01*
X14824991Y-8775078D02*
X14815468Y-8794125D01*
X14815468Y-8794125D02*
X14805944Y-8803649D01*
X14805944Y-8803649D02*
X14786896Y-8813173D01*
X14786896Y-8813173D02*
X14748801Y-8813173D01*
X14748801Y-8813173D02*
X14729753Y-8822697D01*
X14729753Y-8822697D02*
X14720229Y-8832221D01*
X14720229Y-8832221D02*
X14710706Y-8851268D01*
X14710706Y-8851268D02*
X14710706Y-8889363D01*
X14710706Y-8889363D02*
X14720229Y-8908411D01*
X14720229Y-8908411D02*
X14729753Y-8917935D01*
X14729753Y-8917935D02*
X14748801Y-8927459D01*
X14748801Y-8927459D02*
X14786896Y-8927459D01*
X14786896Y-8927459D02*
X14805944Y-8917935D01*
X14805944Y-8917935D02*
X14815468Y-8908411D01*
X14815468Y-8908411D02*
X14824991Y-8889363D01*
X14824991Y-8889363D02*
X14824991Y-8851268D01*
X14824991Y-8851268D02*
X14815468Y-8832221D01*
X14815468Y-8832221D02*
X14805944Y-8822697D01*
X14805944Y-8822697D02*
X14786896Y-8813173D01*
X15063087Y-8927459D02*
X15063087Y-8727459D01*
X15148801Y-8927459D02*
X15148801Y-8822697D01*
X15148801Y-8822697D02*
X15139277Y-8803649D01*
X15139277Y-8803649D02*
X15120230Y-8794125D01*
X15120230Y-8794125D02*
X15091658Y-8794125D01*
X15091658Y-8794125D02*
X15072610Y-8803649D01*
X15072610Y-8803649D02*
X15063087Y-8813173D01*
X15272610Y-8927459D02*
X15253563Y-8917935D01*
X15253563Y-8917935D02*
X15244039Y-8908411D01*
X15244039Y-8908411D02*
X15234515Y-8889363D01*
X15234515Y-8889363D02*
X15234515Y-8832221D01*
X15234515Y-8832221D02*
X15244039Y-8813173D01*
X15244039Y-8813173D02*
X15253563Y-8803649D01*
X15253563Y-8803649D02*
X15272610Y-8794125D01*
X15272610Y-8794125D02*
X15301182Y-8794125D01*
X15301182Y-8794125D02*
X15320230Y-8803649D01*
X15320230Y-8803649D02*
X15329753Y-8813173D01*
X15329753Y-8813173D02*
X15339277Y-8832221D01*
X15339277Y-8832221D02*
X15339277Y-8889363D01*
X15339277Y-8889363D02*
X15329753Y-8908411D01*
X15329753Y-8908411D02*
X15320230Y-8917935D01*
X15320230Y-8917935D02*
X15301182Y-8927459D01*
X15301182Y-8927459D02*
X15272610Y-8927459D01*
X15453563Y-8927459D02*
X15434515Y-8917935D01*
X15434515Y-8917935D02*
X15424991Y-8898887D01*
X15424991Y-8898887D02*
X15424991Y-8727459D01*
X15605944Y-8917935D02*
X15586896Y-8927459D01*
X15586896Y-8927459D02*
X15548801Y-8927459D01*
X15548801Y-8927459D02*
X15529753Y-8917935D01*
X15529753Y-8917935D02*
X15520230Y-8898887D01*
X15520230Y-8898887D02*
X15520230Y-8822697D01*
X15520230Y-8822697D02*
X15529753Y-8803649D01*
X15529753Y-8803649D02*
X15548801Y-8794125D01*
X15548801Y-8794125D02*
X15586896Y-8794125D01*
X15586896Y-8794125D02*
X15605944Y-8803649D01*
X15605944Y-8803649D02*
X15615468Y-8822697D01*
X15615468Y-8822697D02*
X15615468Y-8841744D01*
X15615468Y-8841744D02*
X15520230Y-8860792D01*
X15691658Y-8917935D02*
X15710706Y-8927459D01*
X15710706Y-8927459D02*
X15748801Y-8927459D01*
X15748801Y-8927459D02*
X15767849Y-8917935D01*
X15767849Y-8917935D02*
X15777372Y-8898887D01*
X15777372Y-8898887D02*
X15777372Y-8889363D01*
X15777372Y-8889363D02*
X15767849Y-8870316D01*
X15767849Y-8870316D02*
X15748801Y-8860792D01*
X15748801Y-8860792D02*
X15720230Y-8860792D01*
X15720230Y-8860792D02*
X15701182Y-8851268D01*
X15701182Y-8851268D02*
X15691658Y-8832221D01*
X15691658Y-8832221D02*
X15691658Y-8822697D01*
X15691658Y-8822697D02*
X15701182Y-8803649D01*
X15701182Y-8803649D02*
X15720230Y-8794125D01*
X15720230Y-8794125D02*
X15748801Y-8794125D01*
X15748801Y-8794125D02*
X15767849Y-8803649D01*
X15844039Y-9003649D02*
X15853563Y-8994125D01*
X15853563Y-8994125D02*
X15872611Y-8965554D01*
X15872611Y-8965554D02*
X15882134Y-8946506D01*
X15882134Y-8946506D02*
X15891658Y-8917935D01*
X15891658Y-8917935D02*
X15901182Y-8870316D01*
X15901182Y-8870316D02*
X15901182Y-8832221D01*
X15901182Y-8832221D02*
X15891658Y-8784601D01*
X15891658Y-8784601D02*
X15882134Y-8756030D01*
X15882134Y-8756030D02*
X15872611Y-8736982D01*
X15872611Y-8736982D02*
X15853563Y-8708411D01*
X15853563Y-8708411D02*
X15844039Y-8698887D01*
D12*
X10859462Y-9145937D02*
X10859462Y-9054012D01*
X10767538Y-9054012D01*
X10767538Y-9145937D01*
X10859462Y-9145937D01*
D11*
X11244039Y-9191459D02*
X11129753Y-9191459D01*
X11186896Y-9191459D02*
X11186896Y-8991459D01*
X11186896Y-8991459D02*
X11167848Y-9020030D01*
X11167848Y-9020030D02*
X11148801Y-9039078D01*
X11148801Y-9039078D02*
X11129753Y-9048601D01*
X11329753Y-9172411D02*
X11339277Y-9181935D01*
X11339277Y-9181935D02*
X11329753Y-9191459D01*
X11329753Y-9191459D02*
X11320229Y-9181935D01*
X11320229Y-9181935D02*
X11329753Y-9172411D01*
X11329753Y-9172411D02*
X11329753Y-9191459D01*
X11405943Y-8991459D02*
X11529753Y-8991459D01*
X11529753Y-8991459D02*
X11463086Y-9067649D01*
X11463086Y-9067649D02*
X11491658Y-9067649D01*
X11491658Y-9067649D02*
X11510705Y-9077173D01*
X11510705Y-9077173D02*
X11520229Y-9086697D01*
X11520229Y-9086697D02*
X11529753Y-9105744D01*
X11529753Y-9105744D02*
X11529753Y-9153363D01*
X11529753Y-9153363D02*
X11520229Y-9172411D01*
X11520229Y-9172411D02*
X11510705Y-9181935D01*
X11510705Y-9181935D02*
X11491658Y-9191459D01*
X11491658Y-9191459D02*
X11434515Y-9191459D01*
X11434515Y-9191459D02*
X11415467Y-9181935D01*
X11415467Y-9181935D02*
X11405943Y-9172411D01*
X11653562Y-8991459D02*
X11672610Y-8991459D01*
X11672610Y-8991459D02*
X11691658Y-9000982D01*
X11691658Y-9000982D02*
X11701182Y-9010506D01*
X11701182Y-9010506D02*
X11710705Y-9029554D01*
X11710705Y-9029554D02*
X11720229Y-9067649D01*
X11720229Y-9067649D02*
X11720229Y-9115268D01*
X11720229Y-9115268D02*
X11710705Y-9153363D01*
X11710705Y-9153363D02*
X11701182Y-9172411D01*
X11701182Y-9172411D02*
X11691658Y-9181935D01*
X11691658Y-9181935D02*
X11672610Y-9191459D01*
X11672610Y-9191459D02*
X11653562Y-9191459D01*
X11653562Y-9191459D02*
X11634515Y-9181935D01*
X11634515Y-9181935D02*
X11624991Y-9172411D01*
X11624991Y-9172411D02*
X11615467Y-9153363D01*
X11615467Y-9153363D02*
X11605943Y-9115268D01*
X11605943Y-9115268D02*
X11605943Y-9067649D01*
X11605943Y-9067649D02*
X11615467Y-9029554D01*
X11615467Y-9029554D02*
X11624991Y-9010506D01*
X11624991Y-9010506D02*
X11634515Y-9000982D01*
X11634515Y-9000982D02*
X11653562Y-8991459D01*
X11844039Y-8991459D02*
X11863086Y-8991459D01*
X11863086Y-8991459D02*
X11882134Y-9000982D01*
X11882134Y-9000982D02*
X11891658Y-9010506D01*
X11891658Y-9010506D02*
X11901182Y-9029554D01*
X11901182Y-9029554D02*
X11910705Y-9067649D01*
X11910705Y-9067649D02*
X11910705Y-9115268D01*
X11910705Y-9115268D02*
X11901182Y-9153363D01*
X11901182Y-9153363D02*
X11891658Y-9172411D01*
X11891658Y-9172411D02*
X11882134Y-9181935D01*
X11882134Y-9181935D02*
X11863086Y-9191459D01*
X11863086Y-9191459D02*
X11844039Y-9191459D01*
X11844039Y-9191459D02*
X11824991Y-9181935D01*
X11824991Y-9181935D02*
X11815467Y-9172411D01*
X11815467Y-9172411D02*
X11805943Y-9153363D01*
X11805943Y-9153363D02*
X11796420Y-9115268D01*
X11796420Y-9115268D02*
X11796420Y-9067649D01*
X11796420Y-9067649D02*
X11805943Y-9029554D01*
X11805943Y-9029554D02*
X11815467Y-9010506D01*
X11815467Y-9010506D02*
X11824991Y-9000982D01*
X11824991Y-9000982D02*
X11844039Y-8991459D01*
X11996420Y-9191459D02*
X11996420Y-9058125D01*
X11996420Y-9077173D02*
X12005943Y-9067649D01*
X12005943Y-9067649D02*
X12024991Y-9058125D01*
X12024991Y-9058125D02*
X12053563Y-9058125D01*
X12053563Y-9058125D02*
X12072610Y-9067649D01*
X12072610Y-9067649D02*
X12082134Y-9086697D01*
X12082134Y-9086697D02*
X12082134Y-9191459D01*
X12082134Y-9086697D02*
X12091658Y-9067649D01*
X12091658Y-9067649D02*
X12110705Y-9058125D01*
X12110705Y-9058125D02*
X12139277Y-9058125D01*
X12139277Y-9058125D02*
X12158324Y-9067649D01*
X12158324Y-9067649D02*
X12167848Y-9086697D01*
X12167848Y-9086697D02*
X12167848Y-9191459D01*
X12263086Y-9191459D02*
X12263086Y-9058125D01*
X12263086Y-9077173D02*
X12272610Y-9067649D01*
X12272610Y-9067649D02*
X12291658Y-9058125D01*
X12291658Y-9058125D02*
X12320229Y-9058125D01*
X12320229Y-9058125D02*
X12339277Y-9067649D01*
X12339277Y-9067649D02*
X12348801Y-9086697D01*
X12348801Y-9086697D02*
X12348801Y-9191459D01*
X12348801Y-9086697D02*
X12358324Y-9067649D01*
X12358324Y-9067649D02*
X12377372Y-9058125D01*
X12377372Y-9058125D02*
X12405943Y-9058125D01*
X12405943Y-9058125D02*
X12424991Y-9067649D01*
X12424991Y-9067649D02*
X12434515Y-9086697D01*
X12434515Y-9086697D02*
X12434515Y-9191459D01*
X12824991Y-8981935D02*
X12653563Y-9239078D01*
X13082134Y-8991459D02*
X13101182Y-8991459D01*
X13101182Y-8991459D02*
X13120229Y-9000982D01*
X13120229Y-9000982D02*
X13129753Y-9010506D01*
X13129753Y-9010506D02*
X13139277Y-9029554D01*
X13139277Y-9029554D02*
X13148801Y-9067649D01*
X13148801Y-9067649D02*
X13148801Y-9115268D01*
X13148801Y-9115268D02*
X13139277Y-9153363D01*
X13139277Y-9153363D02*
X13129753Y-9172411D01*
X13129753Y-9172411D02*
X13120229Y-9181935D01*
X13120229Y-9181935D02*
X13101182Y-9191459D01*
X13101182Y-9191459D02*
X13082134Y-9191459D01*
X13082134Y-9191459D02*
X13063086Y-9181935D01*
X13063086Y-9181935D02*
X13053563Y-9172411D01*
X13053563Y-9172411D02*
X13044039Y-9153363D01*
X13044039Y-9153363D02*
X13034515Y-9115268D01*
X13034515Y-9115268D02*
X13034515Y-9067649D01*
X13034515Y-9067649D02*
X13044039Y-9029554D01*
X13044039Y-9029554D02*
X13053563Y-9010506D01*
X13053563Y-9010506D02*
X13063086Y-9000982D01*
X13063086Y-9000982D02*
X13082134Y-8991459D01*
X13234515Y-9172411D02*
X13244039Y-9181935D01*
X13244039Y-9181935D02*
X13234515Y-9191459D01*
X13234515Y-9191459D02*
X13224991Y-9181935D01*
X13224991Y-9181935D02*
X13234515Y-9172411D01*
X13234515Y-9172411D02*
X13234515Y-9191459D01*
X13367848Y-8991459D02*
X13386896Y-8991459D01*
X13386896Y-8991459D02*
X13405944Y-9000982D01*
X13405944Y-9000982D02*
X13415467Y-9010506D01*
X13415467Y-9010506D02*
X13424991Y-9029554D01*
X13424991Y-9029554D02*
X13434515Y-9067649D01*
X13434515Y-9067649D02*
X13434515Y-9115268D01*
X13434515Y-9115268D02*
X13424991Y-9153363D01*
X13424991Y-9153363D02*
X13415467Y-9172411D01*
X13415467Y-9172411D02*
X13405944Y-9181935D01*
X13405944Y-9181935D02*
X13386896Y-9191459D01*
X13386896Y-9191459D02*
X13367848Y-9191459D01*
X13367848Y-9191459D02*
X13348801Y-9181935D01*
X13348801Y-9181935D02*
X13339277Y-9172411D01*
X13339277Y-9172411D02*
X13329753Y-9153363D01*
X13329753Y-9153363D02*
X13320229Y-9115268D01*
X13320229Y-9115268D02*
X13320229Y-9067649D01*
X13320229Y-9067649D02*
X13329753Y-9029554D01*
X13329753Y-9029554D02*
X13339277Y-9010506D01*
X13339277Y-9010506D02*
X13348801Y-9000982D01*
X13348801Y-9000982D02*
X13367848Y-8991459D01*
X13615467Y-8991459D02*
X13520229Y-8991459D01*
X13520229Y-8991459D02*
X13510706Y-9086697D01*
X13510706Y-9086697D02*
X13520229Y-9077173D01*
X13520229Y-9077173D02*
X13539277Y-9067649D01*
X13539277Y-9067649D02*
X13586896Y-9067649D01*
X13586896Y-9067649D02*
X13605944Y-9077173D01*
X13605944Y-9077173D02*
X13615467Y-9086697D01*
X13615467Y-9086697D02*
X13624991Y-9105744D01*
X13624991Y-9105744D02*
X13624991Y-9153363D01*
X13624991Y-9153363D02*
X13615467Y-9172411D01*
X13615467Y-9172411D02*
X13605944Y-9181935D01*
X13605944Y-9181935D02*
X13586896Y-9191459D01*
X13586896Y-9191459D02*
X13539277Y-9191459D01*
X13539277Y-9191459D02*
X13520229Y-9181935D01*
X13520229Y-9181935D02*
X13510706Y-9172411D01*
X13815467Y-9191459D02*
X13701182Y-9191459D01*
X13758325Y-9191459D02*
X13758325Y-8991459D01*
X13758325Y-8991459D02*
X13739277Y-9020030D01*
X13739277Y-9020030D02*
X13720229Y-9039078D01*
X13720229Y-9039078D02*
X13701182Y-9048601D01*
X13891658Y-9010506D02*
X13901182Y-9000982D01*
X13901182Y-9000982D02*
X13920229Y-8991459D01*
X13920229Y-8991459D02*
X13967848Y-8991459D01*
X13967848Y-8991459D02*
X13986896Y-9000982D01*
X13986896Y-9000982D02*
X13996420Y-9010506D01*
X13996420Y-9010506D02*
X14005944Y-9029554D01*
X14005944Y-9029554D02*
X14005944Y-9048601D01*
X14005944Y-9048601D02*
X13996420Y-9077173D01*
X13996420Y-9077173D02*
X13882134Y-9191459D01*
X13882134Y-9191459D02*
X14005944Y-9191459D01*
X14082134Y-8991459D02*
X14082134Y-9029554D01*
X14158325Y-8991459D02*
X14158325Y-9029554D01*
X14453563Y-9267649D02*
X14444039Y-9258125D01*
X14444039Y-9258125D02*
X14424991Y-9229554D01*
X14424991Y-9229554D02*
X14415468Y-9210506D01*
X14415468Y-9210506D02*
X14405944Y-9181935D01*
X14405944Y-9181935D02*
X14396420Y-9134316D01*
X14396420Y-9134316D02*
X14396420Y-9096221D01*
X14396420Y-9096221D02*
X14405944Y-9048601D01*
X14405944Y-9048601D02*
X14415468Y-9020030D01*
X14415468Y-9020030D02*
X14424991Y-9000982D01*
X14424991Y-9000982D02*
X14444039Y-8972411D01*
X14444039Y-8972411D02*
X14453563Y-8962887D01*
X14558325Y-9077173D02*
X14539277Y-9067649D01*
X14539277Y-9067649D02*
X14529753Y-9058125D01*
X14529753Y-9058125D02*
X14520229Y-9039078D01*
X14520229Y-9039078D02*
X14520229Y-9029554D01*
X14520229Y-9029554D02*
X14529753Y-9010506D01*
X14529753Y-9010506D02*
X14539277Y-9000982D01*
X14539277Y-9000982D02*
X14558325Y-8991459D01*
X14558325Y-8991459D02*
X14596420Y-8991459D01*
X14596420Y-8991459D02*
X14615468Y-9000982D01*
X14615468Y-9000982D02*
X14624991Y-9010506D01*
X14624991Y-9010506D02*
X14634515Y-9029554D01*
X14634515Y-9029554D02*
X14634515Y-9039078D01*
X14634515Y-9039078D02*
X14624991Y-9058125D01*
X14624991Y-9058125D02*
X14615468Y-9067649D01*
X14615468Y-9067649D02*
X14596420Y-9077173D01*
X14596420Y-9077173D02*
X14558325Y-9077173D01*
X14558325Y-9077173D02*
X14539277Y-9086697D01*
X14539277Y-9086697D02*
X14529753Y-9096221D01*
X14529753Y-9096221D02*
X14520229Y-9115268D01*
X14520229Y-9115268D02*
X14520229Y-9153363D01*
X14520229Y-9153363D02*
X14529753Y-9172411D01*
X14529753Y-9172411D02*
X14539277Y-9181935D01*
X14539277Y-9181935D02*
X14558325Y-9191459D01*
X14558325Y-9191459D02*
X14596420Y-9191459D01*
X14596420Y-9191459D02*
X14615468Y-9181935D01*
X14615468Y-9181935D02*
X14624991Y-9172411D01*
X14624991Y-9172411D02*
X14634515Y-9153363D01*
X14634515Y-9153363D02*
X14634515Y-9115268D01*
X14634515Y-9115268D02*
X14624991Y-9096221D01*
X14624991Y-9096221D02*
X14615468Y-9086697D01*
X14615468Y-9086697D02*
X14596420Y-9077173D01*
X14872610Y-9191459D02*
X14872610Y-8991459D01*
X14958325Y-9191459D02*
X14958325Y-9086697D01*
X14958325Y-9086697D02*
X14948801Y-9067649D01*
X14948801Y-9067649D02*
X14929753Y-9058125D01*
X14929753Y-9058125D02*
X14901182Y-9058125D01*
X14901182Y-9058125D02*
X14882134Y-9067649D01*
X14882134Y-9067649D02*
X14872610Y-9077173D01*
X15082134Y-9191459D02*
X15063087Y-9181935D01*
X15063087Y-9181935D02*
X15053563Y-9172411D01*
X15053563Y-9172411D02*
X15044039Y-9153363D01*
X15044039Y-9153363D02*
X15044039Y-9096221D01*
X15044039Y-9096221D02*
X15053563Y-9077173D01*
X15053563Y-9077173D02*
X15063087Y-9067649D01*
X15063087Y-9067649D02*
X15082134Y-9058125D01*
X15082134Y-9058125D02*
X15110706Y-9058125D01*
X15110706Y-9058125D02*
X15129753Y-9067649D01*
X15129753Y-9067649D02*
X15139277Y-9077173D01*
X15139277Y-9077173D02*
X15148801Y-9096221D01*
X15148801Y-9096221D02*
X15148801Y-9153363D01*
X15148801Y-9153363D02*
X15139277Y-9172411D01*
X15139277Y-9172411D02*
X15129753Y-9181935D01*
X15129753Y-9181935D02*
X15110706Y-9191459D01*
X15110706Y-9191459D02*
X15082134Y-9191459D01*
X15263087Y-9191459D02*
X15244039Y-9181935D01*
X15244039Y-9181935D02*
X15234515Y-9162887D01*
X15234515Y-9162887D02*
X15234515Y-8991459D01*
X15415468Y-9181935D02*
X15396420Y-9191459D01*
X15396420Y-9191459D02*
X15358325Y-9191459D01*
X15358325Y-9191459D02*
X15339277Y-9181935D01*
X15339277Y-9181935D02*
X15329753Y-9162887D01*
X15329753Y-9162887D02*
X15329753Y-9086697D01*
X15329753Y-9086697D02*
X15339277Y-9067649D01*
X15339277Y-9067649D02*
X15358325Y-9058125D01*
X15358325Y-9058125D02*
X15396420Y-9058125D01*
X15396420Y-9058125D02*
X15415468Y-9067649D01*
X15415468Y-9067649D02*
X15424991Y-9086697D01*
X15424991Y-9086697D02*
X15424991Y-9105744D01*
X15424991Y-9105744D02*
X15329753Y-9124792D01*
X15501182Y-9181935D02*
X15520230Y-9191459D01*
X15520230Y-9191459D02*
X15558325Y-9191459D01*
X15558325Y-9191459D02*
X15577372Y-9181935D01*
X15577372Y-9181935D02*
X15586896Y-9162887D01*
X15586896Y-9162887D02*
X15586896Y-9153363D01*
X15586896Y-9153363D02*
X15577372Y-9134316D01*
X15577372Y-9134316D02*
X15558325Y-9124792D01*
X15558325Y-9124792D02*
X15529753Y-9124792D01*
X15529753Y-9124792D02*
X15510706Y-9115268D01*
X15510706Y-9115268D02*
X15501182Y-9096221D01*
X15501182Y-9096221D02*
X15501182Y-9086697D01*
X15501182Y-9086697D02*
X15510706Y-9067649D01*
X15510706Y-9067649D02*
X15529753Y-9058125D01*
X15529753Y-9058125D02*
X15558325Y-9058125D01*
X15558325Y-9058125D02*
X15577372Y-9067649D01*
X15653563Y-9267649D02*
X15663087Y-9258125D01*
X15663087Y-9258125D02*
X15682134Y-9229554D01*
X15682134Y-9229554D02*
X15691658Y-9210506D01*
X15691658Y-9210506D02*
X15701182Y-9181935D01*
X15701182Y-9181935D02*
X15710706Y-9134316D01*
X15710706Y-9134316D02*
X15710706Y-9096221D01*
X15710706Y-9096221D02*
X15701182Y-9048601D01*
X15701182Y-9048601D02*
X15691658Y-9020030D01*
X15691658Y-9020030D02*
X15682134Y-9000982D01*
X15682134Y-9000982D02*
X15663087Y-8972411D01*
X15663087Y-8972411D02*
X15653563Y-8962887D01*
X10778500Y-9463975D02*
X10878500Y-9363975D01*
X10778500Y-9263975D01*
X10678500Y-9363975D01*
X10778500Y-9463975D01*
X11120229Y-9255459D02*
X11244039Y-9255459D01*
X11244039Y-9255459D02*
X11177372Y-9331649D01*
X11177372Y-9331649D02*
X11205943Y-9331649D01*
X11205943Y-9331649D02*
X11224991Y-9341173D01*
X11224991Y-9341173D02*
X11234515Y-9350697D01*
X11234515Y-9350697D02*
X11244039Y-9369744D01*
X11244039Y-9369744D02*
X11244039Y-9417363D01*
X11244039Y-9417363D02*
X11234515Y-9436411D01*
X11234515Y-9436411D02*
X11224991Y-9445935D01*
X11224991Y-9445935D02*
X11205943Y-9455459D01*
X11205943Y-9455459D02*
X11148801Y-9455459D01*
X11148801Y-9455459D02*
X11129753Y-9445935D01*
X11129753Y-9445935D02*
X11120229Y-9436411D01*
X11329753Y-9436411D02*
X11339277Y-9445935D01*
X11339277Y-9445935D02*
X11329753Y-9455459D01*
X11329753Y-9455459D02*
X11320229Y-9445935D01*
X11320229Y-9445935D02*
X11329753Y-9436411D01*
X11329753Y-9436411D02*
X11329753Y-9455459D01*
X11415467Y-9274506D02*
X11424991Y-9264982D01*
X11424991Y-9264982D02*
X11444039Y-9255459D01*
X11444039Y-9255459D02*
X11491658Y-9255459D01*
X11491658Y-9255459D02*
X11510705Y-9264982D01*
X11510705Y-9264982D02*
X11520229Y-9274506D01*
X11520229Y-9274506D02*
X11529753Y-9293554D01*
X11529753Y-9293554D02*
X11529753Y-9312601D01*
X11529753Y-9312601D02*
X11520229Y-9341173D01*
X11520229Y-9341173D02*
X11405943Y-9455459D01*
X11405943Y-9455459D02*
X11529753Y-9455459D01*
X11653562Y-9255459D02*
X11672610Y-9255459D01*
X11672610Y-9255459D02*
X11691658Y-9264982D01*
X11691658Y-9264982D02*
X11701182Y-9274506D01*
X11701182Y-9274506D02*
X11710705Y-9293554D01*
X11710705Y-9293554D02*
X11720229Y-9331649D01*
X11720229Y-9331649D02*
X11720229Y-9379268D01*
X11720229Y-9379268D02*
X11710705Y-9417363D01*
X11710705Y-9417363D02*
X11701182Y-9436411D01*
X11701182Y-9436411D02*
X11691658Y-9445935D01*
X11691658Y-9445935D02*
X11672610Y-9455459D01*
X11672610Y-9455459D02*
X11653562Y-9455459D01*
X11653562Y-9455459D02*
X11634515Y-9445935D01*
X11634515Y-9445935D02*
X11624991Y-9436411D01*
X11624991Y-9436411D02*
X11615467Y-9417363D01*
X11615467Y-9417363D02*
X11605943Y-9379268D01*
X11605943Y-9379268D02*
X11605943Y-9331649D01*
X11605943Y-9331649D02*
X11615467Y-9293554D01*
X11615467Y-9293554D02*
X11624991Y-9274506D01*
X11624991Y-9274506D02*
X11634515Y-9264982D01*
X11634515Y-9264982D02*
X11653562Y-9255459D01*
X11844039Y-9255459D02*
X11863086Y-9255459D01*
X11863086Y-9255459D02*
X11882134Y-9264982D01*
X11882134Y-9264982D02*
X11891658Y-9274506D01*
X11891658Y-9274506D02*
X11901182Y-9293554D01*
X11901182Y-9293554D02*
X11910705Y-9331649D01*
X11910705Y-9331649D02*
X11910705Y-9379268D01*
X11910705Y-9379268D02*
X11901182Y-9417363D01*
X11901182Y-9417363D02*
X11891658Y-9436411D01*
X11891658Y-9436411D02*
X11882134Y-9445935D01*
X11882134Y-9445935D02*
X11863086Y-9455459D01*
X11863086Y-9455459D02*
X11844039Y-9455459D01*
X11844039Y-9455459D02*
X11824991Y-9445935D01*
X11824991Y-9445935D02*
X11815467Y-9436411D01*
X11815467Y-9436411D02*
X11805943Y-9417363D01*
X11805943Y-9417363D02*
X11796420Y-9379268D01*
X11796420Y-9379268D02*
X11796420Y-9331649D01*
X11796420Y-9331649D02*
X11805943Y-9293554D01*
X11805943Y-9293554D02*
X11815467Y-9274506D01*
X11815467Y-9274506D02*
X11824991Y-9264982D01*
X11824991Y-9264982D02*
X11844039Y-9255459D01*
X11996420Y-9455459D02*
X11996420Y-9322125D01*
X11996420Y-9341173D02*
X12005943Y-9331649D01*
X12005943Y-9331649D02*
X12024991Y-9322125D01*
X12024991Y-9322125D02*
X12053563Y-9322125D01*
X12053563Y-9322125D02*
X12072610Y-9331649D01*
X12072610Y-9331649D02*
X12082134Y-9350697D01*
X12082134Y-9350697D02*
X12082134Y-9455459D01*
X12082134Y-9350697D02*
X12091658Y-9331649D01*
X12091658Y-9331649D02*
X12110705Y-9322125D01*
X12110705Y-9322125D02*
X12139277Y-9322125D01*
X12139277Y-9322125D02*
X12158324Y-9331649D01*
X12158324Y-9331649D02*
X12167848Y-9350697D01*
X12167848Y-9350697D02*
X12167848Y-9455459D01*
X12263086Y-9455459D02*
X12263086Y-9322125D01*
X12263086Y-9341173D02*
X12272610Y-9331649D01*
X12272610Y-9331649D02*
X12291658Y-9322125D01*
X12291658Y-9322125D02*
X12320229Y-9322125D01*
X12320229Y-9322125D02*
X12339277Y-9331649D01*
X12339277Y-9331649D02*
X12348801Y-9350697D01*
X12348801Y-9350697D02*
X12348801Y-9455459D01*
X12348801Y-9350697D02*
X12358324Y-9331649D01*
X12358324Y-9331649D02*
X12377372Y-9322125D01*
X12377372Y-9322125D02*
X12405943Y-9322125D01*
X12405943Y-9322125D02*
X12424991Y-9331649D01*
X12424991Y-9331649D02*
X12434515Y-9350697D01*
X12434515Y-9350697D02*
X12434515Y-9455459D01*
X12824991Y-9245935D02*
X12653563Y-9503078D01*
X13082134Y-9255459D02*
X13101182Y-9255459D01*
X13101182Y-9255459D02*
X13120229Y-9264982D01*
X13120229Y-9264982D02*
X13129753Y-9274506D01*
X13129753Y-9274506D02*
X13139277Y-9293554D01*
X13139277Y-9293554D02*
X13148801Y-9331649D01*
X13148801Y-9331649D02*
X13148801Y-9379268D01*
X13148801Y-9379268D02*
X13139277Y-9417363D01*
X13139277Y-9417363D02*
X13129753Y-9436411D01*
X13129753Y-9436411D02*
X13120229Y-9445935D01*
X13120229Y-9445935D02*
X13101182Y-9455459D01*
X13101182Y-9455459D02*
X13082134Y-9455459D01*
X13082134Y-9455459D02*
X13063086Y-9445935D01*
X13063086Y-9445935D02*
X13053563Y-9436411D01*
X13053563Y-9436411D02*
X13044039Y-9417363D01*
X13044039Y-9417363D02*
X13034515Y-9379268D01*
X13034515Y-9379268D02*
X13034515Y-9331649D01*
X13034515Y-9331649D02*
X13044039Y-9293554D01*
X13044039Y-9293554D02*
X13053563Y-9274506D01*
X13053563Y-9274506D02*
X13063086Y-9264982D01*
X13063086Y-9264982D02*
X13082134Y-9255459D01*
X13234515Y-9436411D02*
X13244039Y-9445935D01*
X13244039Y-9445935D02*
X13234515Y-9455459D01*
X13234515Y-9455459D02*
X13224991Y-9445935D01*
X13224991Y-9445935D02*
X13234515Y-9436411D01*
X13234515Y-9436411D02*
X13234515Y-9455459D01*
X13434515Y-9455459D02*
X13320229Y-9455459D01*
X13377372Y-9455459D02*
X13377372Y-9255459D01*
X13377372Y-9255459D02*
X13358325Y-9284030D01*
X13358325Y-9284030D02*
X13339277Y-9303078D01*
X13339277Y-9303078D02*
X13320229Y-9312601D01*
X13510706Y-9274506D02*
X13520229Y-9264982D01*
X13520229Y-9264982D02*
X13539277Y-9255459D01*
X13539277Y-9255459D02*
X13586896Y-9255459D01*
X13586896Y-9255459D02*
X13605944Y-9264982D01*
X13605944Y-9264982D02*
X13615467Y-9274506D01*
X13615467Y-9274506D02*
X13624991Y-9293554D01*
X13624991Y-9293554D02*
X13624991Y-9312601D01*
X13624991Y-9312601D02*
X13615467Y-9341173D01*
X13615467Y-9341173D02*
X13501182Y-9455459D01*
X13501182Y-9455459D02*
X13624991Y-9455459D01*
X13796420Y-9255459D02*
X13758325Y-9255459D01*
X13758325Y-9255459D02*
X13739277Y-9264982D01*
X13739277Y-9264982D02*
X13729753Y-9274506D01*
X13729753Y-9274506D02*
X13710706Y-9303078D01*
X13710706Y-9303078D02*
X13701182Y-9341173D01*
X13701182Y-9341173D02*
X13701182Y-9417363D01*
X13701182Y-9417363D02*
X13710706Y-9436411D01*
X13710706Y-9436411D02*
X13720229Y-9445935D01*
X13720229Y-9445935D02*
X13739277Y-9455459D01*
X13739277Y-9455459D02*
X13777372Y-9455459D01*
X13777372Y-9455459D02*
X13796420Y-9445935D01*
X13796420Y-9445935D02*
X13805944Y-9436411D01*
X13805944Y-9436411D02*
X13815467Y-9417363D01*
X13815467Y-9417363D02*
X13815467Y-9369744D01*
X13815467Y-9369744D02*
X13805944Y-9350697D01*
X13805944Y-9350697D02*
X13796420Y-9341173D01*
X13796420Y-9341173D02*
X13777372Y-9331649D01*
X13777372Y-9331649D02*
X13739277Y-9331649D01*
X13739277Y-9331649D02*
X13720229Y-9341173D01*
X13720229Y-9341173D02*
X13710706Y-9350697D01*
X13710706Y-9350697D02*
X13701182Y-9369744D01*
X13939277Y-9255459D02*
X13958325Y-9255459D01*
X13958325Y-9255459D02*
X13977372Y-9264982D01*
X13977372Y-9264982D02*
X13986896Y-9274506D01*
X13986896Y-9274506D02*
X13996420Y-9293554D01*
X13996420Y-9293554D02*
X14005944Y-9331649D01*
X14005944Y-9331649D02*
X14005944Y-9379268D01*
X14005944Y-9379268D02*
X13996420Y-9417363D01*
X13996420Y-9417363D02*
X13986896Y-9436411D01*
X13986896Y-9436411D02*
X13977372Y-9445935D01*
X13977372Y-9445935D02*
X13958325Y-9455459D01*
X13958325Y-9455459D02*
X13939277Y-9455459D01*
X13939277Y-9455459D02*
X13920229Y-9445935D01*
X13920229Y-9445935D02*
X13910706Y-9436411D01*
X13910706Y-9436411D02*
X13901182Y-9417363D01*
X13901182Y-9417363D02*
X13891658Y-9379268D01*
X13891658Y-9379268D02*
X13891658Y-9331649D01*
X13891658Y-9331649D02*
X13901182Y-9293554D01*
X13901182Y-9293554D02*
X13910706Y-9274506D01*
X13910706Y-9274506D02*
X13920229Y-9264982D01*
X13920229Y-9264982D02*
X13939277Y-9255459D01*
X14082134Y-9255459D02*
X14082134Y-9293554D01*
X14158325Y-9255459D02*
X14158325Y-9293554D01*
X14453563Y-9531649D02*
X14444039Y-9522125D01*
X14444039Y-9522125D02*
X14424991Y-9493554D01*
X14424991Y-9493554D02*
X14415468Y-9474506D01*
X14415468Y-9474506D02*
X14405944Y-9445935D01*
X14405944Y-9445935D02*
X14396420Y-9398316D01*
X14396420Y-9398316D02*
X14396420Y-9360221D01*
X14396420Y-9360221D02*
X14405944Y-9312601D01*
X14405944Y-9312601D02*
X14415468Y-9284030D01*
X14415468Y-9284030D02*
X14424991Y-9264982D01*
X14424991Y-9264982D02*
X14444039Y-9236411D01*
X14444039Y-9236411D02*
X14453563Y-9226887D01*
X14615468Y-9322125D02*
X14615468Y-9455459D01*
X14567848Y-9245935D02*
X14520229Y-9388792D01*
X14520229Y-9388792D02*
X14644039Y-9388792D01*
X14872610Y-9455459D02*
X14872610Y-9255459D01*
X14958325Y-9455459D02*
X14958325Y-9350697D01*
X14958325Y-9350697D02*
X14948801Y-9331649D01*
X14948801Y-9331649D02*
X14929753Y-9322125D01*
X14929753Y-9322125D02*
X14901182Y-9322125D01*
X14901182Y-9322125D02*
X14882134Y-9331649D01*
X14882134Y-9331649D02*
X14872610Y-9341173D01*
X15082134Y-9455459D02*
X15063087Y-9445935D01*
X15063087Y-9445935D02*
X15053563Y-9436411D01*
X15053563Y-9436411D02*
X15044039Y-9417363D01*
X15044039Y-9417363D02*
X15044039Y-9360221D01*
X15044039Y-9360221D02*
X15053563Y-9341173D01*
X15053563Y-9341173D02*
X15063087Y-9331649D01*
X15063087Y-9331649D02*
X15082134Y-9322125D01*
X15082134Y-9322125D02*
X15110706Y-9322125D01*
X15110706Y-9322125D02*
X15129753Y-9331649D01*
X15129753Y-9331649D02*
X15139277Y-9341173D01*
X15139277Y-9341173D02*
X15148801Y-9360221D01*
X15148801Y-9360221D02*
X15148801Y-9417363D01*
X15148801Y-9417363D02*
X15139277Y-9436411D01*
X15139277Y-9436411D02*
X15129753Y-9445935D01*
X15129753Y-9445935D02*
X15110706Y-9455459D01*
X15110706Y-9455459D02*
X15082134Y-9455459D01*
X15263087Y-9455459D02*
X15244039Y-9445935D01*
X15244039Y-9445935D02*
X15234515Y-9426887D01*
X15234515Y-9426887D02*
X15234515Y-9255459D01*
X15415468Y-9445935D02*
X15396420Y-9455459D01*
X15396420Y-9455459D02*
X15358325Y-9455459D01*
X15358325Y-9455459D02*
X15339277Y-9445935D01*
X15339277Y-9445935D02*
X15329753Y-9426887D01*
X15329753Y-9426887D02*
X15329753Y-9350697D01*
X15329753Y-9350697D02*
X15339277Y-9331649D01*
X15339277Y-9331649D02*
X15358325Y-9322125D01*
X15358325Y-9322125D02*
X15396420Y-9322125D01*
X15396420Y-9322125D02*
X15415468Y-9331649D01*
X15415468Y-9331649D02*
X15424991Y-9350697D01*
X15424991Y-9350697D02*
X15424991Y-9369744D01*
X15424991Y-9369744D02*
X15329753Y-9388792D01*
X15501182Y-9445935D02*
X15520230Y-9455459D01*
X15520230Y-9455459D02*
X15558325Y-9455459D01*
X15558325Y-9455459D02*
X15577372Y-9445935D01*
X15577372Y-9445935D02*
X15586896Y-9426887D01*
X15586896Y-9426887D02*
X15586896Y-9417363D01*
X15586896Y-9417363D02*
X15577372Y-9398316D01*
X15577372Y-9398316D02*
X15558325Y-9388792D01*
X15558325Y-9388792D02*
X15529753Y-9388792D01*
X15529753Y-9388792D02*
X15510706Y-9379268D01*
X15510706Y-9379268D02*
X15501182Y-9360221D01*
X15501182Y-9360221D02*
X15501182Y-9350697D01*
X15501182Y-9350697D02*
X15510706Y-9331649D01*
X15510706Y-9331649D02*
X15529753Y-9322125D01*
X15529753Y-9322125D02*
X15558325Y-9322125D01*
X15558325Y-9322125D02*
X15577372Y-9331649D01*
X15653563Y-9531649D02*
X15663087Y-9522125D01*
X15663087Y-9522125D02*
X15682134Y-9493554D01*
X15682134Y-9493554D02*
X15691658Y-9474506D01*
X15691658Y-9474506D02*
X15701182Y-9445935D01*
X15701182Y-9445935D02*
X15710706Y-9398316D01*
X15710706Y-9398316D02*
X15710706Y-9360221D01*
X15710706Y-9360221D02*
X15701182Y-9312601D01*
X15701182Y-9312601D02*
X15691658Y-9284030D01*
X15691658Y-9284030D02*
X15682134Y-9264982D01*
X15682134Y-9264982D02*
X15663087Y-9236411D01*
X15663087Y-9236411D02*
X15653563Y-9226887D01*
X16015468Y-9531649D02*
X16005944Y-9522125D01*
X16005944Y-9522125D02*
X15986896Y-9493554D01*
X15986896Y-9493554D02*
X15977372Y-9474506D01*
X15977372Y-9474506D02*
X15967849Y-9445935D01*
X15967849Y-9445935D02*
X15958325Y-9398316D01*
X15958325Y-9398316D02*
X15958325Y-9360221D01*
X15958325Y-9360221D02*
X15967849Y-9312601D01*
X15967849Y-9312601D02*
X15977372Y-9284030D01*
X15977372Y-9284030D02*
X15986896Y-9264982D01*
X15986896Y-9264982D02*
X16005944Y-9236411D01*
X16005944Y-9236411D02*
X16015468Y-9226887D01*
X16091658Y-9322125D02*
X16091658Y-9455459D01*
X16091658Y-9341173D02*
X16101182Y-9331649D01*
X16101182Y-9331649D02*
X16120230Y-9322125D01*
X16120230Y-9322125D02*
X16148801Y-9322125D01*
X16148801Y-9322125D02*
X16167849Y-9331649D01*
X16167849Y-9331649D02*
X16177372Y-9350697D01*
X16177372Y-9350697D02*
X16177372Y-9455459D01*
X16301182Y-9455459D02*
X16282134Y-9445935D01*
X16282134Y-9445935D02*
X16272611Y-9436411D01*
X16272611Y-9436411D02*
X16263087Y-9417363D01*
X16263087Y-9417363D02*
X16263087Y-9360221D01*
X16263087Y-9360221D02*
X16272611Y-9341173D01*
X16272611Y-9341173D02*
X16282134Y-9331649D01*
X16282134Y-9331649D02*
X16301182Y-9322125D01*
X16301182Y-9322125D02*
X16329753Y-9322125D01*
X16329753Y-9322125D02*
X16348801Y-9331649D01*
X16348801Y-9331649D02*
X16358325Y-9341173D01*
X16358325Y-9341173D02*
X16367849Y-9360221D01*
X16367849Y-9360221D02*
X16367849Y-9417363D01*
X16367849Y-9417363D02*
X16358325Y-9436411D01*
X16358325Y-9436411D02*
X16348801Y-9445935D01*
X16348801Y-9445935D02*
X16329753Y-9455459D01*
X16329753Y-9455459D02*
X16301182Y-9455459D01*
X16424992Y-9322125D02*
X16501182Y-9322125D01*
X16453563Y-9255459D02*
X16453563Y-9426887D01*
X16453563Y-9426887D02*
X16463087Y-9445935D01*
X16463087Y-9445935D02*
X16482134Y-9455459D01*
X16482134Y-9455459D02*
X16501182Y-9455459D01*
X16720230Y-9322125D02*
X16720230Y-9522125D01*
X16720230Y-9331649D02*
X16739277Y-9322125D01*
X16739277Y-9322125D02*
X16777373Y-9322125D01*
X16777373Y-9322125D02*
X16796420Y-9331649D01*
X16796420Y-9331649D02*
X16805944Y-9341173D01*
X16805944Y-9341173D02*
X16815468Y-9360221D01*
X16815468Y-9360221D02*
X16815468Y-9417363D01*
X16815468Y-9417363D02*
X16805944Y-9436411D01*
X16805944Y-9436411D02*
X16796420Y-9445935D01*
X16796420Y-9445935D02*
X16777373Y-9455459D01*
X16777373Y-9455459D02*
X16739277Y-9455459D01*
X16739277Y-9455459D02*
X16720230Y-9445935D01*
X16929754Y-9455459D02*
X16910706Y-9445935D01*
X16910706Y-9445935D02*
X16901182Y-9426887D01*
X16901182Y-9426887D02*
X16901182Y-9255459D01*
X17091658Y-9455459D02*
X17091658Y-9350697D01*
X17091658Y-9350697D02*
X17082135Y-9331649D01*
X17082135Y-9331649D02*
X17063087Y-9322125D01*
X17063087Y-9322125D02*
X17024992Y-9322125D01*
X17024992Y-9322125D02*
X17005944Y-9331649D01*
X17091658Y-9445935D02*
X17072611Y-9455459D01*
X17072611Y-9455459D02*
X17024992Y-9455459D01*
X17024992Y-9455459D02*
X17005944Y-9445935D01*
X17005944Y-9445935D02*
X16996420Y-9426887D01*
X16996420Y-9426887D02*
X16996420Y-9407840D01*
X16996420Y-9407840D02*
X17005944Y-9388792D01*
X17005944Y-9388792D02*
X17024992Y-9379268D01*
X17024992Y-9379268D02*
X17072611Y-9379268D01*
X17072611Y-9379268D02*
X17091658Y-9369744D01*
X17158325Y-9322125D02*
X17234515Y-9322125D01*
X17186896Y-9255459D02*
X17186896Y-9426887D01*
X17186896Y-9426887D02*
X17196420Y-9445935D01*
X17196420Y-9445935D02*
X17215468Y-9455459D01*
X17215468Y-9455459D02*
X17234515Y-9455459D01*
X17377373Y-9445935D02*
X17358325Y-9455459D01*
X17358325Y-9455459D02*
X17320230Y-9455459D01*
X17320230Y-9455459D02*
X17301182Y-9445935D01*
X17301182Y-9445935D02*
X17291658Y-9426887D01*
X17291658Y-9426887D02*
X17291658Y-9350697D01*
X17291658Y-9350697D02*
X17301182Y-9331649D01*
X17301182Y-9331649D02*
X17320230Y-9322125D01*
X17320230Y-9322125D02*
X17358325Y-9322125D01*
X17358325Y-9322125D02*
X17377373Y-9331649D01*
X17377373Y-9331649D02*
X17386896Y-9350697D01*
X17386896Y-9350697D02*
X17386896Y-9369744D01*
X17386896Y-9369744D02*
X17291658Y-9388792D01*
X17558325Y-9455459D02*
X17558325Y-9255459D01*
X17558325Y-9445935D02*
X17539277Y-9455459D01*
X17539277Y-9455459D02*
X17501182Y-9455459D01*
X17501182Y-9455459D02*
X17482135Y-9445935D01*
X17482135Y-9445935D02*
X17472611Y-9436411D01*
X17472611Y-9436411D02*
X17463087Y-9417363D01*
X17463087Y-9417363D02*
X17463087Y-9360221D01*
X17463087Y-9360221D02*
X17472611Y-9341173D01*
X17472611Y-9341173D02*
X17482135Y-9331649D01*
X17482135Y-9331649D02*
X17501182Y-9322125D01*
X17501182Y-9322125D02*
X17539277Y-9322125D01*
X17539277Y-9322125D02*
X17558325Y-9331649D01*
X17634516Y-9531649D02*
X17644039Y-9522125D01*
X17644039Y-9522125D02*
X17663087Y-9493554D01*
X17663087Y-9493554D02*
X17672611Y-9474506D01*
X17672611Y-9474506D02*
X17682135Y-9445935D01*
X17682135Y-9445935D02*
X17691658Y-9398316D01*
X17691658Y-9398316D02*
X17691658Y-9360221D01*
X17691658Y-9360221D02*
X17682135Y-9312601D01*
X17682135Y-9312601D02*
X17672611Y-9284030D01*
X17672611Y-9284030D02*
X17663087Y-9264982D01*
X17663087Y-9264982D02*
X17644039Y-9236411D01*
X17644039Y-9236411D02*
X17634516Y-9226887D01*
M02*
