%TF.GenerationSoftware,KiCad,Pcbnew,10.0.1*%
%TF.CreationDate,2026-06-05T16:19:37+09:00*%
%TF.ProjectId,AudioCase_2_rv_panel,41756469-6f43-4617-9365-5f325f72765f,rev?*%
%TF.SameCoordinates,Original*%
%TF.FileFunction,Legend,Top*%
%TF.FilePolarity,Positive*%
%FSLAX46Y46*%
G04 Gerber Fmt 4.6, Leading zero omitted, Abs format (unit mm)*
G04 Created by KiCad (PCBNEW 10.0.1) date 2026-06-05 16:19:37*
%MOMM*%
%LPD*%
G01*
G04 APERTURE LIST*
G04 Aperture macros list*
%AMRoundRect*
0 Rectangle with rounded corners*
0 $1 Rounding radius*
0 $2 $3 $4 $5 $6 $7 $8 $9 X,Y pos of 4 corners*
0 Add a 4 corners polygon primitive as box body*
4,1,4,$2,$3,$4,$5,$6,$7,$8,$9,$2,$3,0*
0 Add four circle primitives for the rounded corners*
1,1,$1+$1,$2,$3*
1,1,$1+$1,$4,$5*
1,1,$1+$1,$6,$7*
1,1,$1+$1,$8,$9*
0 Add four rect primitives between the rounded corners*
20,1,$1+$1,$2,$3,$4,$5,0*
20,1,$1+$1,$4,$5,$6,$7,0*
20,1,$1+$1,$6,$7,$8,$9,0*
20,1,$1+$1,$8,$9,$2,$3,0*%
G04 Aperture macros list end*
%ADD10C,0.300000*%
%ADD11C,0.150000*%
%ADD12C,0.120000*%
%ADD13RoundRect,0.250000X-0.625000X0.400000X-0.625000X-0.400000X0.625000X-0.400000X0.625000X0.400000X0*%
%ADD14C,1.600000*%
%ADD15RoundRect,0.250000X0.412500X0.650000X-0.412500X0.650000X-0.412500X-0.650000X0.412500X-0.650000X0*%
%ADD16RoundRect,0.450000X-0.450000X0.450000X-0.450000X-0.450000X0.450000X-0.450000X0.450000X0.450000X0*%
%ADD17C,1.800000*%
%ADD18RoundRect,0.250000X0.625000X-0.400000X0.625000X0.400000X-0.625000X0.400000X-0.625000X-0.400000X0*%
%ADD19RoundRect,0.250000X0.650000X-0.412500X0.650000X0.412500X-0.650000X0.412500X-0.650000X-0.412500X0*%
%ADD20RoundRect,0.250000X-0.550000X-0.550000X0.550000X-0.550000X0.550000X0.550000X-0.550000X0.550000X0*%
%ADD21C,3.200000*%
%ADD22RoundRect,0.250000X1.050000X1.050000X-1.050000X1.050000X-1.050000X-1.050000X1.050000X-1.050000X0*%
%ADD23C,2.600000*%
%ADD24RoundRect,0.250000X0.400000X0.625000X-0.400000X0.625000X-0.400000X-0.625000X0.400000X-0.625000X0*%
G04 APERTURE END LIST*
D10*
X131251653Y-23825828D02*
X130751653Y-23111542D01*
X130394510Y-23825828D02*
X130394510Y-22325828D01*
X130394510Y-22325828D02*
X130965939Y-22325828D01*
X130965939Y-22325828D02*
X131108796Y-22397257D01*
X131108796Y-22397257D02*
X131180225Y-22468685D01*
X131180225Y-22468685D02*
X131251653Y-22611542D01*
X131251653Y-22611542D02*
X131251653Y-22825828D01*
X131251653Y-22825828D02*
X131180225Y-22968685D01*
X131180225Y-22968685D02*
X131108796Y-23040114D01*
X131108796Y-23040114D02*
X130965939Y-23111542D01*
X130965939Y-23111542D02*
X130394510Y-23111542D01*
X132744510Y-26004400D02*
X133887368Y-26004400D01*
X158701653Y-27125828D02*
X158201653Y-26411542D01*
X157844510Y-27125828D02*
X157844510Y-25625828D01*
X157844510Y-25625828D02*
X158415939Y-25625828D01*
X158415939Y-25625828D02*
X158558796Y-25697257D01*
X158558796Y-25697257D02*
X158630225Y-25768685D01*
X158630225Y-25768685D02*
X158701653Y-25911542D01*
X158701653Y-25911542D02*
X158701653Y-26125828D01*
X158701653Y-26125828D02*
X158630225Y-26268685D01*
X158630225Y-26268685D02*
X158558796Y-26340114D01*
X158558796Y-26340114D02*
X158415939Y-26411542D01*
X158415939Y-26411542D02*
X157844510Y-26411542D01*
X117449774Y-23825828D02*
X116735488Y-23825828D01*
X116735488Y-23825828D02*
X116735488Y-22325828D01*
X177449774Y-26975828D02*
X176735488Y-26975828D01*
X176735488Y-26975828D02*
X176735488Y-25475828D01*
X152360600Y-25679510D02*
X152360600Y-26822368D01*
X151789171Y-26250939D02*
X152932028Y-26250939D01*
D11*
X112735630Y-55791666D02*
X112259439Y-56124999D01*
X112735630Y-56363094D02*
X111735630Y-56363094D01*
X111735630Y-56363094D02*
X111735630Y-55982142D01*
X111735630Y-55982142D02*
X111783249Y-55886904D01*
X111783249Y-55886904D02*
X111830868Y-55839285D01*
X111830868Y-55839285D02*
X111926106Y-55791666D01*
X111926106Y-55791666D02*
X112068963Y-55791666D01*
X112068963Y-55791666D02*
X112164201Y-55839285D01*
X112164201Y-55839285D02*
X112211820Y-55886904D01*
X112211820Y-55886904D02*
X112259439Y-55982142D01*
X112259439Y-55982142D02*
X112259439Y-56363094D01*
X112735630Y-54839285D02*
X112735630Y-55410713D01*
X112735630Y-55124999D02*
X111735630Y-55124999D01*
X111735630Y-55124999D02*
X111878487Y-55220237D01*
X111878487Y-55220237D02*
X111973725Y-55315475D01*
X111973725Y-55315475D02*
X112021344Y-55410713D01*
X183329560Y-61042857D02*
X183377180Y-61090476D01*
X183377180Y-61090476D02*
X183424799Y-61233333D01*
X183424799Y-61233333D02*
X183424799Y-61328571D01*
X183424799Y-61328571D02*
X183377180Y-61471428D01*
X183377180Y-61471428D02*
X183281941Y-61566666D01*
X183281941Y-61566666D02*
X183186703Y-61614285D01*
X183186703Y-61614285D02*
X182996227Y-61661904D01*
X182996227Y-61661904D02*
X182853370Y-61661904D01*
X182853370Y-61661904D02*
X182662894Y-61614285D01*
X182662894Y-61614285D02*
X182567656Y-61566666D01*
X182567656Y-61566666D02*
X182472418Y-61471428D01*
X182472418Y-61471428D02*
X182424799Y-61328571D01*
X182424799Y-61328571D02*
X182424799Y-61233333D01*
X182424799Y-61233333D02*
X182472418Y-61090476D01*
X182472418Y-61090476D02*
X182520037Y-61042857D01*
X183424799Y-60090476D02*
X183424799Y-60661904D01*
X183424799Y-60376190D02*
X182424799Y-60376190D01*
X182424799Y-60376190D02*
X182567656Y-60471428D01*
X182567656Y-60471428D02*
X182662894Y-60566666D01*
X182662894Y-60566666D02*
X182710513Y-60661904D01*
X182758132Y-59233333D02*
X183424799Y-59233333D01*
X182377180Y-59471428D02*
X183091465Y-59709523D01*
X183091465Y-59709523D02*
X183091465Y-59090476D01*
X181582142Y-47249580D02*
X181534523Y-47297200D01*
X181534523Y-47297200D02*
X181391666Y-47344819D01*
X181391666Y-47344819D02*
X181296428Y-47344819D01*
X181296428Y-47344819D02*
X181153571Y-47297200D01*
X181153571Y-47297200D02*
X181058333Y-47201961D01*
X181058333Y-47201961D02*
X181010714Y-47106723D01*
X181010714Y-47106723D02*
X180963095Y-46916247D01*
X180963095Y-46916247D02*
X180963095Y-46773390D01*
X180963095Y-46773390D02*
X181010714Y-46582914D01*
X181010714Y-46582914D02*
X181058333Y-46487676D01*
X181058333Y-46487676D02*
X181153571Y-46392438D01*
X181153571Y-46392438D02*
X181296428Y-46344819D01*
X181296428Y-46344819D02*
X181391666Y-46344819D01*
X181391666Y-46344819D02*
X181534523Y-46392438D01*
X181534523Y-46392438D02*
X181582142Y-46440057D01*
X181963095Y-46440057D02*
X182010714Y-46392438D01*
X182010714Y-46392438D02*
X182105952Y-46344819D01*
X182105952Y-46344819D02*
X182344047Y-46344819D01*
X182344047Y-46344819D02*
X182439285Y-46392438D01*
X182439285Y-46392438D02*
X182486904Y-46440057D01*
X182486904Y-46440057D02*
X182534523Y-46535295D01*
X182534523Y-46535295D02*
X182534523Y-46630533D01*
X182534523Y-46630533D02*
X182486904Y-46773390D01*
X182486904Y-46773390D02*
X181915476Y-47344819D01*
X181915476Y-47344819D02*
X182534523Y-47344819D01*
X183486904Y-47344819D02*
X182915476Y-47344819D01*
X183201190Y-47344819D02*
X183201190Y-46344819D01*
X183201190Y-46344819D02*
X183105952Y-46487676D01*
X183105952Y-46487676D02*
X183010714Y-46582914D01*
X183010714Y-46582914D02*
X182915476Y-46630533D01*
X147919761Y-74204819D02*
X147586428Y-73728628D01*
X147348333Y-74204819D02*
X147348333Y-73204819D01*
X147348333Y-73204819D02*
X147729285Y-73204819D01*
X147729285Y-73204819D02*
X147824523Y-73252438D01*
X147824523Y-73252438D02*
X147872142Y-73300057D01*
X147872142Y-73300057D02*
X147919761Y-73395295D01*
X147919761Y-73395295D02*
X147919761Y-73538152D01*
X147919761Y-73538152D02*
X147872142Y-73633390D01*
X147872142Y-73633390D02*
X147824523Y-73681009D01*
X147824523Y-73681009D02*
X147729285Y-73728628D01*
X147729285Y-73728628D02*
X147348333Y-73728628D01*
X148205476Y-73204819D02*
X148538809Y-74204819D01*
X148538809Y-74204819D02*
X148872142Y-73204819D01*
X149157857Y-73300057D02*
X149205476Y-73252438D01*
X149205476Y-73252438D02*
X149300714Y-73204819D01*
X149300714Y-73204819D02*
X149538809Y-73204819D01*
X149538809Y-73204819D02*
X149634047Y-73252438D01*
X149634047Y-73252438D02*
X149681666Y-73300057D01*
X149681666Y-73300057D02*
X149729285Y-73395295D01*
X149729285Y-73395295D02*
X149729285Y-73490533D01*
X149729285Y-73490533D02*
X149681666Y-73633390D01*
X149681666Y-73633390D02*
X149110238Y-74204819D01*
X149110238Y-74204819D02*
X149729285Y-74204819D01*
X184074819Y-39767857D02*
X183598628Y-40101190D01*
X184074819Y-40339285D02*
X183074819Y-40339285D01*
X183074819Y-40339285D02*
X183074819Y-39958333D01*
X183074819Y-39958333D02*
X183122438Y-39863095D01*
X183122438Y-39863095D02*
X183170057Y-39815476D01*
X183170057Y-39815476D02*
X183265295Y-39767857D01*
X183265295Y-39767857D02*
X183408152Y-39767857D01*
X183408152Y-39767857D02*
X183503390Y-39815476D01*
X183503390Y-39815476D02*
X183551009Y-39863095D01*
X183551009Y-39863095D02*
X183598628Y-39958333D01*
X183598628Y-39958333D02*
X183598628Y-40339285D01*
X184074819Y-38815476D02*
X184074819Y-39386904D01*
X184074819Y-39101190D02*
X183074819Y-39101190D01*
X183074819Y-39101190D02*
X183217676Y-39196428D01*
X183217676Y-39196428D02*
X183312914Y-39291666D01*
X183312914Y-39291666D02*
X183360533Y-39386904D01*
X183503390Y-38244047D02*
X183455771Y-38339285D01*
X183455771Y-38339285D02*
X183408152Y-38386904D01*
X183408152Y-38386904D02*
X183312914Y-38434523D01*
X183312914Y-38434523D02*
X183265295Y-38434523D01*
X183265295Y-38434523D02*
X183170057Y-38386904D01*
X183170057Y-38386904D02*
X183122438Y-38339285D01*
X183122438Y-38339285D02*
X183074819Y-38244047D01*
X183074819Y-38244047D02*
X183074819Y-38053571D01*
X183074819Y-38053571D02*
X183122438Y-37958333D01*
X183122438Y-37958333D02*
X183170057Y-37910714D01*
X183170057Y-37910714D02*
X183265295Y-37863095D01*
X183265295Y-37863095D02*
X183312914Y-37863095D01*
X183312914Y-37863095D02*
X183408152Y-37910714D01*
X183408152Y-37910714D02*
X183455771Y-37958333D01*
X183455771Y-37958333D02*
X183503390Y-38053571D01*
X183503390Y-38053571D02*
X183503390Y-38244047D01*
X183503390Y-38244047D02*
X183551009Y-38339285D01*
X183551009Y-38339285D02*
X183598628Y-38386904D01*
X183598628Y-38386904D02*
X183693866Y-38434523D01*
X183693866Y-38434523D02*
X183884342Y-38434523D01*
X183884342Y-38434523D02*
X183979580Y-38386904D01*
X183979580Y-38386904D02*
X184027200Y-38339285D01*
X184027200Y-38339285D02*
X184074819Y-38244047D01*
X184074819Y-38244047D02*
X184074819Y-38053571D01*
X184074819Y-38053571D02*
X184027200Y-37958333D01*
X184027200Y-37958333D02*
X183979580Y-37910714D01*
X183979580Y-37910714D02*
X183884342Y-37863095D01*
X183884342Y-37863095D02*
X183693866Y-37863095D01*
X183693866Y-37863095D02*
X183598628Y-37910714D01*
X183598628Y-37910714D02*
X183551009Y-37958333D01*
X183551009Y-37958333D02*
X183503390Y-38053571D01*
X154414819Y-55091666D02*
X153938628Y-55424999D01*
X154414819Y-55663094D02*
X153414819Y-55663094D01*
X153414819Y-55663094D02*
X153414819Y-55282142D01*
X153414819Y-55282142D02*
X153462438Y-55186904D01*
X153462438Y-55186904D02*
X153510057Y-55139285D01*
X153510057Y-55139285D02*
X153605295Y-55091666D01*
X153605295Y-55091666D02*
X153748152Y-55091666D01*
X153748152Y-55091666D02*
X153843390Y-55139285D01*
X153843390Y-55139285D02*
X153891009Y-55186904D01*
X153891009Y-55186904D02*
X153938628Y-55282142D01*
X153938628Y-55282142D02*
X153938628Y-55663094D01*
X153414819Y-54234523D02*
X153414819Y-54424999D01*
X153414819Y-54424999D02*
X153462438Y-54520237D01*
X153462438Y-54520237D02*
X153510057Y-54567856D01*
X153510057Y-54567856D02*
X153652914Y-54663094D01*
X153652914Y-54663094D02*
X153843390Y-54710713D01*
X153843390Y-54710713D02*
X154224342Y-54710713D01*
X154224342Y-54710713D02*
X154319580Y-54663094D01*
X154319580Y-54663094D02*
X154367200Y-54615475D01*
X154367200Y-54615475D02*
X154414819Y-54520237D01*
X154414819Y-54520237D02*
X154414819Y-54329761D01*
X154414819Y-54329761D02*
X154367200Y-54234523D01*
X154367200Y-54234523D02*
X154319580Y-54186904D01*
X154319580Y-54186904D02*
X154224342Y-54139285D01*
X154224342Y-54139285D02*
X153986247Y-54139285D01*
X153986247Y-54139285D02*
X153891009Y-54186904D01*
X153891009Y-54186904D02*
X153843390Y-54234523D01*
X153843390Y-54234523D02*
X153795771Y-54329761D01*
X153795771Y-54329761D02*
X153795771Y-54520237D01*
X153795771Y-54520237D02*
X153843390Y-54615475D01*
X153843390Y-54615475D02*
X153891009Y-54663094D01*
X153891009Y-54663094D02*
X153986247Y-54710713D01*
X164499799Y-54166666D02*
X164023608Y-54499999D01*
X164499799Y-54738094D02*
X163499799Y-54738094D01*
X163499799Y-54738094D02*
X163499799Y-54357142D01*
X163499799Y-54357142D02*
X163547418Y-54261904D01*
X163547418Y-54261904D02*
X163595037Y-54214285D01*
X163595037Y-54214285D02*
X163690275Y-54166666D01*
X163690275Y-54166666D02*
X163833132Y-54166666D01*
X163833132Y-54166666D02*
X163928370Y-54214285D01*
X163928370Y-54214285D02*
X163975989Y-54261904D01*
X163975989Y-54261904D02*
X164023608Y-54357142D01*
X164023608Y-54357142D02*
X164023608Y-54738094D01*
X163833132Y-53309523D02*
X164499799Y-53309523D01*
X163452180Y-53547618D02*
X164166465Y-53785713D01*
X164166465Y-53785713D02*
X164166465Y-53166666D01*
X117755630Y-55941666D02*
X117279439Y-56274999D01*
X117755630Y-56513094D02*
X116755630Y-56513094D01*
X116755630Y-56513094D02*
X116755630Y-56132142D01*
X116755630Y-56132142D02*
X116803249Y-56036904D01*
X116803249Y-56036904D02*
X116850868Y-55989285D01*
X116850868Y-55989285D02*
X116946106Y-55941666D01*
X116946106Y-55941666D02*
X117088963Y-55941666D01*
X117088963Y-55941666D02*
X117184201Y-55989285D01*
X117184201Y-55989285D02*
X117231820Y-56036904D01*
X117231820Y-56036904D02*
X117279439Y-56132142D01*
X117279439Y-56132142D02*
X117279439Y-56513094D01*
X116755630Y-55036904D02*
X116755630Y-55513094D01*
X116755630Y-55513094D02*
X117231820Y-55560713D01*
X117231820Y-55560713D02*
X117184201Y-55513094D01*
X117184201Y-55513094D02*
X117136582Y-55417856D01*
X117136582Y-55417856D02*
X117136582Y-55179761D01*
X117136582Y-55179761D02*
X117184201Y-55084523D01*
X117184201Y-55084523D02*
X117231820Y-55036904D01*
X117231820Y-55036904D02*
X117327058Y-54989285D01*
X117327058Y-54989285D02*
X117565153Y-54989285D01*
X117565153Y-54989285D02*
X117660391Y-55036904D01*
X117660391Y-55036904D02*
X117708011Y-55084523D01*
X117708011Y-55084523D02*
X117755630Y-55179761D01*
X117755630Y-55179761D02*
X117755630Y-55417856D01*
X117755630Y-55417856D02*
X117708011Y-55513094D01*
X117708011Y-55513094D02*
X117660391Y-55560713D01*
X152584580Y-33272857D02*
X152632200Y-33320476D01*
X152632200Y-33320476D02*
X152679819Y-33463333D01*
X152679819Y-33463333D02*
X152679819Y-33558571D01*
X152679819Y-33558571D02*
X152632200Y-33701428D01*
X152632200Y-33701428D02*
X152536961Y-33796666D01*
X152536961Y-33796666D02*
X152441723Y-33844285D01*
X152441723Y-33844285D02*
X152251247Y-33891904D01*
X152251247Y-33891904D02*
X152108390Y-33891904D01*
X152108390Y-33891904D02*
X151917914Y-33844285D01*
X151917914Y-33844285D02*
X151822676Y-33796666D01*
X151822676Y-33796666D02*
X151727438Y-33701428D01*
X151727438Y-33701428D02*
X151679819Y-33558571D01*
X151679819Y-33558571D02*
X151679819Y-33463333D01*
X151679819Y-33463333D02*
X151727438Y-33320476D01*
X151727438Y-33320476D02*
X151775057Y-33272857D01*
X152679819Y-32320476D02*
X152679819Y-32891904D01*
X152679819Y-32606190D02*
X151679819Y-32606190D01*
X151679819Y-32606190D02*
X151822676Y-32701428D01*
X151822676Y-32701428D02*
X151917914Y-32796666D01*
X151917914Y-32796666D02*
X151965533Y-32891904D01*
X152108390Y-31749047D02*
X152060771Y-31844285D01*
X152060771Y-31844285D02*
X152013152Y-31891904D01*
X152013152Y-31891904D02*
X151917914Y-31939523D01*
X151917914Y-31939523D02*
X151870295Y-31939523D01*
X151870295Y-31939523D02*
X151775057Y-31891904D01*
X151775057Y-31891904D02*
X151727438Y-31844285D01*
X151727438Y-31844285D02*
X151679819Y-31749047D01*
X151679819Y-31749047D02*
X151679819Y-31558571D01*
X151679819Y-31558571D02*
X151727438Y-31463333D01*
X151727438Y-31463333D02*
X151775057Y-31415714D01*
X151775057Y-31415714D02*
X151870295Y-31368095D01*
X151870295Y-31368095D02*
X151917914Y-31368095D01*
X151917914Y-31368095D02*
X152013152Y-31415714D01*
X152013152Y-31415714D02*
X152060771Y-31463333D01*
X152060771Y-31463333D02*
X152108390Y-31558571D01*
X152108390Y-31558571D02*
X152108390Y-31749047D01*
X152108390Y-31749047D02*
X152156009Y-31844285D01*
X152156009Y-31844285D02*
X152203628Y-31891904D01*
X152203628Y-31891904D02*
X152298866Y-31939523D01*
X152298866Y-31939523D02*
X152489342Y-31939523D01*
X152489342Y-31939523D02*
X152584580Y-31891904D01*
X152584580Y-31891904D02*
X152632200Y-31844285D01*
X152632200Y-31844285D02*
X152679819Y-31749047D01*
X152679819Y-31749047D02*
X152679819Y-31558571D01*
X152679819Y-31558571D02*
X152632200Y-31463333D01*
X152632200Y-31463333D02*
X152584580Y-31415714D01*
X152584580Y-31415714D02*
X152489342Y-31368095D01*
X152489342Y-31368095D02*
X152298866Y-31368095D01*
X152298866Y-31368095D02*
X152203628Y-31415714D01*
X152203628Y-31415714D02*
X152156009Y-31463333D01*
X152156009Y-31463333D02*
X152108390Y-31558571D01*
X170394799Y-53316666D02*
X169918608Y-53649999D01*
X170394799Y-53888094D02*
X169394799Y-53888094D01*
X169394799Y-53888094D02*
X169394799Y-53507142D01*
X169394799Y-53507142D02*
X169442418Y-53411904D01*
X169442418Y-53411904D02*
X169490037Y-53364285D01*
X169490037Y-53364285D02*
X169585275Y-53316666D01*
X169585275Y-53316666D02*
X169728132Y-53316666D01*
X169728132Y-53316666D02*
X169823370Y-53364285D01*
X169823370Y-53364285D02*
X169870989Y-53411904D01*
X169870989Y-53411904D02*
X169918608Y-53507142D01*
X169918608Y-53507142D02*
X169918608Y-53888094D01*
X170394799Y-52840475D02*
X170394799Y-52649999D01*
X170394799Y-52649999D02*
X170347180Y-52554761D01*
X170347180Y-52554761D02*
X170299560Y-52507142D01*
X170299560Y-52507142D02*
X170156703Y-52411904D01*
X170156703Y-52411904D02*
X169966227Y-52364285D01*
X169966227Y-52364285D02*
X169585275Y-52364285D01*
X169585275Y-52364285D02*
X169490037Y-52411904D01*
X169490037Y-52411904D02*
X169442418Y-52459523D01*
X169442418Y-52459523D02*
X169394799Y-52554761D01*
X169394799Y-52554761D02*
X169394799Y-52745237D01*
X169394799Y-52745237D02*
X169442418Y-52840475D01*
X169442418Y-52840475D02*
X169490037Y-52888094D01*
X169490037Y-52888094D02*
X169585275Y-52935713D01*
X169585275Y-52935713D02*
X169823370Y-52935713D01*
X169823370Y-52935713D02*
X169918608Y-52888094D01*
X169918608Y-52888094D02*
X169966227Y-52840475D01*
X169966227Y-52840475D02*
X170013846Y-52745237D01*
X170013846Y-52745237D02*
X170013846Y-52554761D01*
X170013846Y-52554761D02*
X169966227Y-52459523D01*
X169966227Y-52459523D02*
X169918608Y-52411904D01*
X169918608Y-52411904D02*
X169823370Y-52364285D01*
X173274741Y-73829819D02*
X172941408Y-73353628D01*
X172703313Y-73829819D02*
X172703313Y-72829819D01*
X172703313Y-72829819D02*
X173084265Y-72829819D01*
X173084265Y-72829819D02*
X173179503Y-72877438D01*
X173179503Y-72877438D02*
X173227122Y-72925057D01*
X173227122Y-72925057D02*
X173274741Y-73020295D01*
X173274741Y-73020295D02*
X173274741Y-73163152D01*
X173274741Y-73163152D02*
X173227122Y-73258390D01*
X173227122Y-73258390D02*
X173179503Y-73306009D01*
X173179503Y-73306009D02*
X173084265Y-73353628D01*
X173084265Y-73353628D02*
X172703313Y-73353628D01*
X173560456Y-72829819D02*
X173893789Y-73829819D01*
X173893789Y-73829819D02*
X174227122Y-72829819D01*
X174465218Y-72829819D02*
X175084265Y-72829819D01*
X175084265Y-72829819D02*
X174750932Y-73210771D01*
X174750932Y-73210771D02*
X174893789Y-73210771D01*
X174893789Y-73210771D02*
X174989027Y-73258390D01*
X174989027Y-73258390D02*
X175036646Y-73306009D01*
X175036646Y-73306009D02*
X175084265Y-73401247D01*
X175084265Y-73401247D02*
X175084265Y-73639342D01*
X175084265Y-73639342D02*
X175036646Y-73734580D01*
X175036646Y-73734580D02*
X174989027Y-73782200D01*
X174989027Y-73782200D02*
X174893789Y-73829819D01*
X174893789Y-73829819D02*
X174608075Y-73829819D01*
X174608075Y-73829819D02*
X174512837Y-73782200D01*
X174512837Y-73782200D02*
X174465218Y-73734580D01*
X122410572Y-73629819D02*
X122077239Y-73153628D01*
X121839144Y-73629819D02*
X121839144Y-72629819D01*
X121839144Y-72629819D02*
X122220096Y-72629819D01*
X122220096Y-72629819D02*
X122315334Y-72677438D01*
X122315334Y-72677438D02*
X122362953Y-72725057D01*
X122362953Y-72725057D02*
X122410572Y-72820295D01*
X122410572Y-72820295D02*
X122410572Y-72963152D01*
X122410572Y-72963152D02*
X122362953Y-73058390D01*
X122362953Y-73058390D02*
X122315334Y-73106009D01*
X122315334Y-73106009D02*
X122220096Y-73153628D01*
X122220096Y-73153628D02*
X121839144Y-73153628D01*
X122696287Y-72629819D02*
X123029620Y-73629819D01*
X123029620Y-73629819D02*
X123362953Y-72629819D01*
X124220096Y-73629819D02*
X123648668Y-73629819D01*
X123934382Y-73629819D02*
X123934382Y-72629819D01*
X123934382Y-72629819D02*
X123839144Y-72772676D01*
X123839144Y-72772676D02*
X123743906Y-72867914D01*
X123743906Y-72867914D02*
X123648668Y-72915533D01*
X133305630Y-55842857D02*
X132829439Y-56176190D01*
X133305630Y-56414285D02*
X132305630Y-56414285D01*
X132305630Y-56414285D02*
X132305630Y-56033333D01*
X132305630Y-56033333D02*
X132353249Y-55938095D01*
X132353249Y-55938095D02*
X132400868Y-55890476D01*
X132400868Y-55890476D02*
X132496106Y-55842857D01*
X132496106Y-55842857D02*
X132638963Y-55842857D01*
X132638963Y-55842857D02*
X132734201Y-55890476D01*
X132734201Y-55890476D02*
X132781820Y-55938095D01*
X132781820Y-55938095D02*
X132829439Y-56033333D01*
X132829439Y-56033333D02*
X132829439Y-56414285D01*
X133305630Y-54890476D02*
X133305630Y-55461904D01*
X133305630Y-55176190D02*
X132305630Y-55176190D01*
X132305630Y-55176190D02*
X132448487Y-55271428D01*
X132448487Y-55271428D02*
X132543725Y-55366666D01*
X132543725Y-55366666D02*
X132591344Y-55461904D01*
X132305630Y-54271428D02*
X132305630Y-54176190D01*
X132305630Y-54176190D02*
X132353249Y-54080952D01*
X132353249Y-54080952D02*
X132400868Y-54033333D01*
X132400868Y-54033333D02*
X132496106Y-53985714D01*
X132496106Y-53985714D02*
X132686582Y-53938095D01*
X132686582Y-53938095D02*
X132924677Y-53938095D01*
X132924677Y-53938095D02*
X133115153Y-53985714D01*
X133115153Y-53985714D02*
X133210391Y-54033333D01*
X133210391Y-54033333D02*
X133258011Y-54080952D01*
X133258011Y-54080952D02*
X133305630Y-54176190D01*
X133305630Y-54176190D02*
X133305630Y-54271428D01*
X133305630Y-54271428D02*
X133258011Y-54366666D01*
X133258011Y-54366666D02*
X133210391Y-54414285D01*
X133210391Y-54414285D02*
X133115153Y-54461904D01*
X133115153Y-54461904D02*
X132924677Y-54509523D01*
X132924677Y-54509523D02*
X132686582Y-54509523D01*
X132686582Y-54509523D02*
X132496106Y-54461904D01*
X132496106Y-54461904D02*
X132400868Y-54414285D01*
X132400868Y-54414285D02*
X132353249Y-54366666D01*
X132353249Y-54366666D02*
X132305630Y-54271428D01*
X129305630Y-55341666D02*
X128829439Y-55674999D01*
X129305630Y-55913094D02*
X128305630Y-55913094D01*
X128305630Y-55913094D02*
X128305630Y-55532142D01*
X128305630Y-55532142D02*
X128353249Y-55436904D01*
X128353249Y-55436904D02*
X128400868Y-55389285D01*
X128400868Y-55389285D02*
X128496106Y-55341666D01*
X128496106Y-55341666D02*
X128638963Y-55341666D01*
X128638963Y-55341666D02*
X128734201Y-55389285D01*
X128734201Y-55389285D02*
X128781820Y-55436904D01*
X128781820Y-55436904D02*
X128829439Y-55532142D01*
X128829439Y-55532142D02*
X128829439Y-55913094D01*
X128305630Y-55008332D02*
X128305630Y-54389285D01*
X128305630Y-54389285D02*
X128686582Y-54722618D01*
X128686582Y-54722618D02*
X128686582Y-54579761D01*
X128686582Y-54579761D02*
X128734201Y-54484523D01*
X128734201Y-54484523D02*
X128781820Y-54436904D01*
X128781820Y-54436904D02*
X128877058Y-54389285D01*
X128877058Y-54389285D02*
X129115153Y-54389285D01*
X129115153Y-54389285D02*
X129210391Y-54436904D01*
X129210391Y-54436904D02*
X129258011Y-54484523D01*
X129258011Y-54484523D02*
X129305630Y-54579761D01*
X129305630Y-54579761D02*
X129305630Y-54865475D01*
X129305630Y-54865475D02*
X129258011Y-54960713D01*
X129258011Y-54960713D02*
X129210391Y-55008332D01*
X158164819Y-55617857D02*
X157688628Y-55951190D01*
X158164819Y-56189285D02*
X157164819Y-56189285D01*
X157164819Y-56189285D02*
X157164819Y-55808333D01*
X157164819Y-55808333D02*
X157212438Y-55713095D01*
X157212438Y-55713095D02*
X157260057Y-55665476D01*
X157260057Y-55665476D02*
X157355295Y-55617857D01*
X157355295Y-55617857D02*
X157498152Y-55617857D01*
X157498152Y-55617857D02*
X157593390Y-55665476D01*
X157593390Y-55665476D02*
X157641009Y-55713095D01*
X157641009Y-55713095D02*
X157688628Y-55808333D01*
X157688628Y-55808333D02*
X157688628Y-56189285D01*
X158164819Y-54665476D02*
X158164819Y-55236904D01*
X158164819Y-54951190D02*
X157164819Y-54951190D01*
X157164819Y-54951190D02*
X157307676Y-55046428D01*
X157307676Y-55046428D02*
X157402914Y-55141666D01*
X157402914Y-55141666D02*
X157450533Y-55236904D01*
X158164819Y-53713095D02*
X158164819Y-54284523D01*
X158164819Y-53998809D02*
X157164819Y-53998809D01*
X157164819Y-53998809D02*
X157307676Y-54094047D01*
X157307676Y-54094047D02*
X157402914Y-54189285D01*
X157402914Y-54189285D02*
X157450533Y-54284523D01*
X173143095Y-32759819D02*
X173143095Y-33569342D01*
X173143095Y-33569342D02*
X173190714Y-33664580D01*
X173190714Y-33664580D02*
X173238333Y-33712200D01*
X173238333Y-33712200D02*
X173333571Y-33759819D01*
X173333571Y-33759819D02*
X173524047Y-33759819D01*
X173524047Y-33759819D02*
X173619285Y-33712200D01*
X173619285Y-33712200D02*
X173666904Y-33664580D01*
X173666904Y-33664580D02*
X173714523Y-33569342D01*
X173714523Y-33569342D02*
X173714523Y-32759819D01*
X174095476Y-32759819D02*
X174714523Y-32759819D01*
X174714523Y-32759819D02*
X174381190Y-33140771D01*
X174381190Y-33140771D02*
X174524047Y-33140771D01*
X174524047Y-33140771D02*
X174619285Y-33188390D01*
X174619285Y-33188390D02*
X174666904Y-33236009D01*
X174666904Y-33236009D02*
X174714523Y-33331247D01*
X174714523Y-33331247D02*
X174714523Y-33569342D01*
X174714523Y-33569342D02*
X174666904Y-33664580D01*
X174666904Y-33664580D02*
X174619285Y-33712200D01*
X174619285Y-33712200D02*
X174524047Y-33759819D01*
X174524047Y-33759819D02*
X174238333Y-33759819D01*
X174238333Y-33759819D02*
X174143095Y-33712200D01*
X174143095Y-33712200D02*
X174095476Y-33664580D01*
X145078095Y-33114819D02*
X145078095Y-33924342D01*
X145078095Y-33924342D02*
X145125714Y-34019580D01*
X145125714Y-34019580D02*
X145173333Y-34067200D01*
X145173333Y-34067200D02*
X145268571Y-34114819D01*
X145268571Y-34114819D02*
X145459047Y-34114819D01*
X145459047Y-34114819D02*
X145554285Y-34067200D01*
X145554285Y-34067200D02*
X145601904Y-34019580D01*
X145601904Y-34019580D02*
X145649523Y-33924342D01*
X145649523Y-33924342D02*
X145649523Y-33114819D01*
X146078095Y-33210057D02*
X146125714Y-33162438D01*
X146125714Y-33162438D02*
X146220952Y-33114819D01*
X146220952Y-33114819D02*
X146459047Y-33114819D01*
X146459047Y-33114819D02*
X146554285Y-33162438D01*
X146554285Y-33162438D02*
X146601904Y-33210057D01*
X146601904Y-33210057D02*
X146649523Y-33305295D01*
X146649523Y-33305295D02*
X146649523Y-33400533D01*
X146649523Y-33400533D02*
X146601904Y-33543390D01*
X146601904Y-33543390D02*
X146030476Y-34114819D01*
X146030476Y-34114819D02*
X146649523Y-34114819D01*
X144664819Y-54791666D02*
X144188628Y-55124999D01*
X144664819Y-55363094D02*
X143664819Y-55363094D01*
X143664819Y-55363094D02*
X143664819Y-54982142D01*
X143664819Y-54982142D02*
X143712438Y-54886904D01*
X143712438Y-54886904D02*
X143760057Y-54839285D01*
X143760057Y-54839285D02*
X143855295Y-54791666D01*
X143855295Y-54791666D02*
X143998152Y-54791666D01*
X143998152Y-54791666D02*
X144093390Y-54839285D01*
X144093390Y-54839285D02*
X144141009Y-54886904D01*
X144141009Y-54886904D02*
X144188628Y-54982142D01*
X144188628Y-54982142D02*
X144188628Y-55363094D01*
X143664819Y-54458332D02*
X143664819Y-53791666D01*
X143664819Y-53791666D02*
X144664819Y-54220237D01*
X177742060Y-61042857D02*
X177789680Y-61090476D01*
X177789680Y-61090476D02*
X177837299Y-61233333D01*
X177837299Y-61233333D02*
X177837299Y-61328571D01*
X177837299Y-61328571D02*
X177789680Y-61471428D01*
X177789680Y-61471428D02*
X177694441Y-61566666D01*
X177694441Y-61566666D02*
X177599203Y-61614285D01*
X177599203Y-61614285D02*
X177408727Y-61661904D01*
X177408727Y-61661904D02*
X177265870Y-61661904D01*
X177265870Y-61661904D02*
X177075394Y-61614285D01*
X177075394Y-61614285D02*
X176980156Y-61566666D01*
X176980156Y-61566666D02*
X176884918Y-61471428D01*
X176884918Y-61471428D02*
X176837299Y-61328571D01*
X176837299Y-61328571D02*
X176837299Y-61233333D01*
X176837299Y-61233333D02*
X176884918Y-61090476D01*
X176884918Y-61090476D02*
X176932537Y-61042857D01*
X177837299Y-60090476D02*
X177837299Y-60661904D01*
X177837299Y-60376190D02*
X176837299Y-60376190D01*
X176837299Y-60376190D02*
X176980156Y-60471428D01*
X176980156Y-60471428D02*
X177075394Y-60566666D01*
X177075394Y-60566666D02*
X177123013Y-60661904D01*
X176837299Y-59233333D02*
X176837299Y-59423809D01*
X176837299Y-59423809D02*
X176884918Y-59519047D01*
X176884918Y-59519047D02*
X176932537Y-59566666D01*
X176932537Y-59566666D02*
X177075394Y-59661904D01*
X177075394Y-59661904D02*
X177265870Y-59709523D01*
X177265870Y-59709523D02*
X177646822Y-59709523D01*
X177646822Y-59709523D02*
X177742060Y-59661904D01*
X177742060Y-59661904D02*
X177789680Y-59614285D01*
X177789680Y-59614285D02*
X177837299Y-59519047D01*
X177837299Y-59519047D02*
X177837299Y-59328571D01*
X177837299Y-59328571D02*
X177789680Y-59233333D01*
X177789680Y-59233333D02*
X177742060Y-59185714D01*
X177742060Y-59185714D02*
X177646822Y-59138095D01*
X177646822Y-59138095D02*
X177408727Y-59138095D01*
X177408727Y-59138095D02*
X177313489Y-59185714D01*
X177313489Y-59185714D02*
X177265870Y-59233333D01*
X177265870Y-59233333D02*
X177218251Y-59328571D01*
X177218251Y-59328571D02*
X177218251Y-59519047D01*
X177218251Y-59519047D02*
X177265870Y-59614285D01*
X177265870Y-59614285D02*
X177313489Y-59661904D01*
X177313489Y-59661904D02*
X177408727Y-59709523D01*
X156274819Y-40767857D02*
X155798628Y-41101190D01*
X156274819Y-41339285D02*
X155274819Y-41339285D01*
X155274819Y-41339285D02*
X155274819Y-40958333D01*
X155274819Y-40958333D02*
X155322438Y-40863095D01*
X155322438Y-40863095D02*
X155370057Y-40815476D01*
X155370057Y-40815476D02*
X155465295Y-40767857D01*
X155465295Y-40767857D02*
X155608152Y-40767857D01*
X155608152Y-40767857D02*
X155703390Y-40815476D01*
X155703390Y-40815476D02*
X155751009Y-40863095D01*
X155751009Y-40863095D02*
X155798628Y-40958333D01*
X155798628Y-40958333D02*
X155798628Y-41339285D01*
X156274819Y-39815476D02*
X156274819Y-40386904D01*
X156274819Y-40101190D02*
X155274819Y-40101190D01*
X155274819Y-40101190D02*
X155417676Y-40196428D01*
X155417676Y-40196428D02*
X155512914Y-40291666D01*
X155512914Y-40291666D02*
X155560533Y-40386904D01*
X155608152Y-38958333D02*
X156274819Y-38958333D01*
X155227200Y-39196428D02*
X155941485Y-39434523D01*
X155941485Y-39434523D02*
X155941485Y-38815476D01*
X129712953Y-61584580D02*
X129665334Y-61632200D01*
X129665334Y-61632200D02*
X129522477Y-61679819D01*
X129522477Y-61679819D02*
X129427239Y-61679819D01*
X129427239Y-61679819D02*
X129284382Y-61632200D01*
X129284382Y-61632200D02*
X129189144Y-61536961D01*
X129189144Y-61536961D02*
X129141525Y-61441723D01*
X129141525Y-61441723D02*
X129093906Y-61251247D01*
X129093906Y-61251247D02*
X129093906Y-61108390D01*
X129093906Y-61108390D02*
X129141525Y-60917914D01*
X129141525Y-60917914D02*
X129189144Y-60822676D01*
X129189144Y-60822676D02*
X129284382Y-60727438D01*
X129284382Y-60727438D02*
X129427239Y-60679819D01*
X129427239Y-60679819D02*
X129522477Y-60679819D01*
X129522477Y-60679819D02*
X129665334Y-60727438D01*
X129665334Y-60727438D02*
X129712953Y-60775057D01*
X130665334Y-61679819D02*
X130093906Y-61679819D01*
X130379620Y-61679819D02*
X130379620Y-60679819D01*
X130379620Y-60679819D02*
X130284382Y-60822676D01*
X130284382Y-60822676D02*
X130189144Y-60917914D01*
X130189144Y-60917914D02*
X130093906Y-60965533D01*
X131617715Y-61679819D02*
X131046287Y-61679819D01*
X131332001Y-61679819D02*
X131332001Y-60679819D01*
X131332001Y-60679819D02*
X131236763Y-60822676D01*
X131236763Y-60822676D02*
X131141525Y-60917914D01*
X131141525Y-60917914D02*
X131046287Y-60965533D01*
X181594799Y-53216666D02*
X181118608Y-53549999D01*
X181594799Y-53788094D02*
X180594799Y-53788094D01*
X180594799Y-53788094D02*
X180594799Y-53407142D01*
X180594799Y-53407142D02*
X180642418Y-53311904D01*
X180642418Y-53311904D02*
X180690037Y-53264285D01*
X180690037Y-53264285D02*
X180785275Y-53216666D01*
X180785275Y-53216666D02*
X180928132Y-53216666D01*
X180928132Y-53216666D02*
X181023370Y-53264285D01*
X181023370Y-53264285D02*
X181070989Y-53311904D01*
X181070989Y-53311904D02*
X181118608Y-53407142D01*
X181118608Y-53407142D02*
X181118608Y-53788094D01*
X181023370Y-52645237D02*
X180975751Y-52740475D01*
X180975751Y-52740475D02*
X180928132Y-52788094D01*
X180928132Y-52788094D02*
X180832894Y-52835713D01*
X180832894Y-52835713D02*
X180785275Y-52835713D01*
X180785275Y-52835713D02*
X180690037Y-52788094D01*
X180690037Y-52788094D02*
X180642418Y-52740475D01*
X180642418Y-52740475D02*
X180594799Y-52645237D01*
X180594799Y-52645237D02*
X180594799Y-52454761D01*
X180594799Y-52454761D02*
X180642418Y-52359523D01*
X180642418Y-52359523D02*
X180690037Y-52311904D01*
X180690037Y-52311904D02*
X180785275Y-52264285D01*
X180785275Y-52264285D02*
X180832894Y-52264285D01*
X180832894Y-52264285D02*
X180928132Y-52311904D01*
X180928132Y-52311904D02*
X180975751Y-52359523D01*
X180975751Y-52359523D02*
X181023370Y-52454761D01*
X181023370Y-52454761D02*
X181023370Y-52645237D01*
X181023370Y-52645237D02*
X181070989Y-52740475D01*
X181070989Y-52740475D02*
X181118608Y-52788094D01*
X181118608Y-52788094D02*
X181213846Y-52835713D01*
X181213846Y-52835713D02*
X181404322Y-52835713D01*
X181404322Y-52835713D02*
X181499560Y-52788094D01*
X181499560Y-52788094D02*
X181547180Y-52740475D01*
X181547180Y-52740475D02*
X181594799Y-52645237D01*
X181594799Y-52645237D02*
X181594799Y-52454761D01*
X181594799Y-52454761D02*
X181547180Y-52359523D01*
X181547180Y-52359523D02*
X181499560Y-52311904D01*
X181499560Y-52311904D02*
X181404322Y-52264285D01*
X181404322Y-52264285D02*
X181213846Y-52264285D01*
X181213846Y-52264285D02*
X181118608Y-52311904D01*
X181118608Y-52311904D02*
X181070989Y-52359523D01*
X181070989Y-52359523D02*
X181023370Y-52454761D01*
X147872142Y-63059580D02*
X147824523Y-63107200D01*
X147824523Y-63107200D02*
X147681666Y-63154819D01*
X147681666Y-63154819D02*
X147586428Y-63154819D01*
X147586428Y-63154819D02*
X147443571Y-63107200D01*
X147443571Y-63107200D02*
X147348333Y-63011961D01*
X147348333Y-63011961D02*
X147300714Y-62916723D01*
X147300714Y-62916723D02*
X147253095Y-62726247D01*
X147253095Y-62726247D02*
X147253095Y-62583390D01*
X147253095Y-62583390D02*
X147300714Y-62392914D01*
X147300714Y-62392914D02*
X147348333Y-62297676D01*
X147348333Y-62297676D02*
X147443571Y-62202438D01*
X147443571Y-62202438D02*
X147586428Y-62154819D01*
X147586428Y-62154819D02*
X147681666Y-62154819D01*
X147681666Y-62154819D02*
X147824523Y-62202438D01*
X147824523Y-62202438D02*
X147872142Y-62250057D01*
X148824523Y-63154819D02*
X148253095Y-63154819D01*
X148538809Y-63154819D02*
X148538809Y-62154819D01*
X148538809Y-62154819D02*
X148443571Y-62297676D01*
X148443571Y-62297676D02*
X148348333Y-62392914D01*
X148348333Y-62392914D02*
X148253095Y-62440533D01*
X149729285Y-62154819D02*
X149253095Y-62154819D01*
X149253095Y-62154819D02*
X149205476Y-62631009D01*
X149205476Y-62631009D02*
X149253095Y-62583390D01*
X149253095Y-62583390D02*
X149348333Y-62535771D01*
X149348333Y-62535771D02*
X149586428Y-62535771D01*
X149586428Y-62535771D02*
X149681666Y-62583390D01*
X149681666Y-62583390D02*
X149729285Y-62631009D01*
X149729285Y-62631009D02*
X149776904Y-62726247D01*
X149776904Y-62726247D02*
X149776904Y-62964342D01*
X149776904Y-62964342D02*
X149729285Y-63059580D01*
X149729285Y-63059580D02*
X149681666Y-63107200D01*
X149681666Y-63107200D02*
X149586428Y-63154819D01*
X149586428Y-63154819D02*
X149348333Y-63154819D01*
X149348333Y-63154819D02*
X149253095Y-63107200D01*
X149253095Y-63107200D02*
X149205476Y-63059580D01*
X177269799Y-53767857D02*
X176793608Y-54101190D01*
X177269799Y-54339285D02*
X176269799Y-54339285D01*
X176269799Y-54339285D02*
X176269799Y-53958333D01*
X176269799Y-53958333D02*
X176317418Y-53863095D01*
X176317418Y-53863095D02*
X176365037Y-53815476D01*
X176365037Y-53815476D02*
X176460275Y-53767857D01*
X176460275Y-53767857D02*
X176603132Y-53767857D01*
X176603132Y-53767857D02*
X176698370Y-53815476D01*
X176698370Y-53815476D02*
X176745989Y-53863095D01*
X176745989Y-53863095D02*
X176793608Y-53958333D01*
X176793608Y-53958333D02*
X176793608Y-54339285D01*
X177269799Y-52815476D02*
X177269799Y-53386904D01*
X177269799Y-53101190D02*
X176269799Y-53101190D01*
X176269799Y-53101190D02*
X176412656Y-53196428D01*
X176412656Y-53196428D02*
X176507894Y-53291666D01*
X176507894Y-53291666D02*
X176555513Y-53386904D01*
X176365037Y-52434523D02*
X176317418Y-52386904D01*
X176317418Y-52386904D02*
X176269799Y-52291666D01*
X176269799Y-52291666D02*
X176269799Y-52053571D01*
X176269799Y-52053571D02*
X176317418Y-51958333D01*
X176317418Y-51958333D02*
X176365037Y-51910714D01*
X176365037Y-51910714D02*
X176460275Y-51863095D01*
X176460275Y-51863095D02*
X176555513Y-51863095D01*
X176555513Y-51863095D02*
X176698370Y-51910714D01*
X176698370Y-51910714D02*
X177269799Y-52482142D01*
X177269799Y-52482142D02*
X177269799Y-51863095D01*
X167311666Y-29729819D02*
X167311666Y-30444104D01*
X167311666Y-30444104D02*
X167264047Y-30586961D01*
X167264047Y-30586961D02*
X167168809Y-30682200D01*
X167168809Y-30682200D02*
X167025952Y-30729819D01*
X167025952Y-30729819D02*
X166930714Y-30729819D01*
X167930714Y-30158390D02*
X167835476Y-30110771D01*
X167835476Y-30110771D02*
X167787857Y-30063152D01*
X167787857Y-30063152D02*
X167740238Y-29967914D01*
X167740238Y-29967914D02*
X167740238Y-29920295D01*
X167740238Y-29920295D02*
X167787857Y-29825057D01*
X167787857Y-29825057D02*
X167835476Y-29777438D01*
X167835476Y-29777438D02*
X167930714Y-29729819D01*
X167930714Y-29729819D02*
X168121190Y-29729819D01*
X168121190Y-29729819D02*
X168216428Y-29777438D01*
X168216428Y-29777438D02*
X168264047Y-29825057D01*
X168264047Y-29825057D02*
X168311666Y-29920295D01*
X168311666Y-29920295D02*
X168311666Y-29967914D01*
X168311666Y-29967914D02*
X168264047Y-30063152D01*
X168264047Y-30063152D02*
X168216428Y-30110771D01*
X168216428Y-30110771D02*
X168121190Y-30158390D01*
X168121190Y-30158390D02*
X167930714Y-30158390D01*
X167930714Y-30158390D02*
X167835476Y-30206009D01*
X167835476Y-30206009D02*
X167787857Y-30253628D01*
X167787857Y-30253628D02*
X167740238Y-30348866D01*
X167740238Y-30348866D02*
X167740238Y-30539342D01*
X167740238Y-30539342D02*
X167787857Y-30634580D01*
X167787857Y-30634580D02*
X167835476Y-30682200D01*
X167835476Y-30682200D02*
X167930714Y-30729819D01*
X167930714Y-30729819D02*
X168121190Y-30729819D01*
X168121190Y-30729819D02*
X168216428Y-30682200D01*
X168216428Y-30682200D02*
X168264047Y-30634580D01*
X168264047Y-30634580D02*
X168311666Y-30539342D01*
X168311666Y-30539342D02*
X168311666Y-30348866D01*
X168311666Y-30348866D02*
X168264047Y-30253628D01*
X168264047Y-30253628D02*
X168216428Y-30206009D01*
X168216428Y-30206009D02*
X168121190Y-30158390D01*
X164492381Y-20874104D02*
X164968571Y-20874104D01*
X164397143Y-21159819D02*
X164730476Y-20159819D01*
X164730476Y-20159819D02*
X165063809Y-21159819D01*
X165397143Y-20159819D02*
X165397143Y-20969342D01*
X165397143Y-20969342D02*
X165444762Y-21064580D01*
X165444762Y-21064580D02*
X165492381Y-21112200D01*
X165492381Y-21112200D02*
X165587619Y-21159819D01*
X165587619Y-21159819D02*
X165778095Y-21159819D01*
X165778095Y-21159819D02*
X165873333Y-21112200D01*
X165873333Y-21112200D02*
X165920952Y-21064580D01*
X165920952Y-21064580D02*
X165968571Y-20969342D01*
X165968571Y-20969342D02*
X165968571Y-20159819D01*
X166349524Y-20159819D02*
X167016190Y-21159819D01*
X167016190Y-20159819D02*
X166349524Y-21159819D01*
X167159048Y-21255057D02*
X167920952Y-21255057D01*
X168349524Y-20159819D02*
X168540000Y-20159819D01*
X168540000Y-20159819D02*
X168635238Y-20207438D01*
X168635238Y-20207438D02*
X168730476Y-20302676D01*
X168730476Y-20302676D02*
X168778095Y-20493152D01*
X168778095Y-20493152D02*
X168778095Y-20826485D01*
X168778095Y-20826485D02*
X168730476Y-21016961D01*
X168730476Y-21016961D02*
X168635238Y-21112200D01*
X168635238Y-21112200D02*
X168540000Y-21159819D01*
X168540000Y-21159819D02*
X168349524Y-21159819D01*
X168349524Y-21159819D02*
X168254286Y-21112200D01*
X168254286Y-21112200D02*
X168159048Y-21016961D01*
X168159048Y-21016961D02*
X168111429Y-20826485D01*
X168111429Y-20826485D02*
X168111429Y-20493152D01*
X168111429Y-20493152D02*
X168159048Y-20302676D01*
X168159048Y-20302676D02*
X168254286Y-20207438D01*
X168254286Y-20207438D02*
X168349524Y-20159819D01*
X169206667Y-20159819D02*
X169206667Y-20969342D01*
X169206667Y-20969342D02*
X169254286Y-21064580D01*
X169254286Y-21064580D02*
X169301905Y-21112200D01*
X169301905Y-21112200D02*
X169397143Y-21159819D01*
X169397143Y-21159819D02*
X169587619Y-21159819D01*
X169587619Y-21159819D02*
X169682857Y-21112200D01*
X169682857Y-21112200D02*
X169730476Y-21064580D01*
X169730476Y-21064580D02*
X169778095Y-20969342D01*
X169778095Y-20969342D02*
X169778095Y-20159819D01*
X170111429Y-20159819D02*
X170682857Y-20159819D01*
X170397143Y-21159819D02*
X170397143Y-20159819D01*
X166329560Y-62966666D02*
X166377180Y-63014285D01*
X166377180Y-63014285D02*
X166424799Y-63157142D01*
X166424799Y-63157142D02*
X166424799Y-63252380D01*
X166424799Y-63252380D02*
X166377180Y-63395237D01*
X166377180Y-63395237D02*
X166281941Y-63490475D01*
X166281941Y-63490475D02*
X166186703Y-63538094D01*
X166186703Y-63538094D02*
X165996227Y-63585713D01*
X165996227Y-63585713D02*
X165853370Y-63585713D01*
X165853370Y-63585713D02*
X165662894Y-63538094D01*
X165662894Y-63538094D02*
X165567656Y-63490475D01*
X165567656Y-63490475D02*
X165472418Y-63395237D01*
X165472418Y-63395237D02*
X165424799Y-63252380D01*
X165424799Y-63252380D02*
X165424799Y-63157142D01*
X165424799Y-63157142D02*
X165472418Y-63014285D01*
X165472418Y-63014285D02*
X165520037Y-62966666D01*
X166424799Y-62490475D02*
X166424799Y-62299999D01*
X166424799Y-62299999D02*
X166377180Y-62204761D01*
X166377180Y-62204761D02*
X166329560Y-62157142D01*
X166329560Y-62157142D02*
X166186703Y-62061904D01*
X166186703Y-62061904D02*
X165996227Y-62014285D01*
X165996227Y-62014285D02*
X165615275Y-62014285D01*
X165615275Y-62014285D02*
X165520037Y-62061904D01*
X165520037Y-62061904D02*
X165472418Y-62109523D01*
X165472418Y-62109523D02*
X165424799Y-62204761D01*
X165424799Y-62204761D02*
X165424799Y-62395237D01*
X165424799Y-62395237D02*
X165472418Y-62490475D01*
X165472418Y-62490475D02*
X165520037Y-62538094D01*
X165520037Y-62538094D02*
X165615275Y-62585713D01*
X165615275Y-62585713D02*
X165853370Y-62585713D01*
X165853370Y-62585713D02*
X165948608Y-62538094D01*
X165948608Y-62538094D02*
X165996227Y-62490475D01*
X165996227Y-62490475D02*
X166043846Y-62395237D01*
X166043846Y-62395237D02*
X166043846Y-62204761D01*
X166043846Y-62204761D02*
X165996227Y-62109523D01*
X165996227Y-62109523D02*
X165948608Y-62061904D01*
X165948608Y-62061904D02*
X165853370Y-62014285D01*
X157424580Y-68092857D02*
X157472200Y-68140476D01*
X157472200Y-68140476D02*
X157519819Y-68283333D01*
X157519819Y-68283333D02*
X157519819Y-68378571D01*
X157519819Y-68378571D02*
X157472200Y-68521428D01*
X157472200Y-68521428D02*
X157376961Y-68616666D01*
X157376961Y-68616666D02*
X157281723Y-68664285D01*
X157281723Y-68664285D02*
X157091247Y-68711904D01*
X157091247Y-68711904D02*
X156948390Y-68711904D01*
X156948390Y-68711904D02*
X156757914Y-68664285D01*
X156757914Y-68664285D02*
X156662676Y-68616666D01*
X156662676Y-68616666D02*
X156567438Y-68521428D01*
X156567438Y-68521428D02*
X156519819Y-68378571D01*
X156519819Y-68378571D02*
X156519819Y-68283333D01*
X156519819Y-68283333D02*
X156567438Y-68140476D01*
X156567438Y-68140476D02*
X156615057Y-68092857D01*
X157519819Y-67140476D02*
X157519819Y-67711904D01*
X157519819Y-67426190D02*
X156519819Y-67426190D01*
X156519819Y-67426190D02*
X156662676Y-67521428D01*
X156662676Y-67521428D02*
X156757914Y-67616666D01*
X156757914Y-67616666D02*
X156805533Y-67711904D01*
X156519819Y-66521428D02*
X156519819Y-66426190D01*
X156519819Y-66426190D02*
X156567438Y-66330952D01*
X156567438Y-66330952D02*
X156615057Y-66283333D01*
X156615057Y-66283333D02*
X156710295Y-66235714D01*
X156710295Y-66235714D02*
X156900771Y-66188095D01*
X156900771Y-66188095D02*
X157138866Y-66188095D01*
X157138866Y-66188095D02*
X157329342Y-66235714D01*
X157329342Y-66235714D02*
X157424580Y-66283333D01*
X157424580Y-66283333D02*
X157472200Y-66330952D01*
X157472200Y-66330952D02*
X157519819Y-66426190D01*
X157519819Y-66426190D02*
X157519819Y-66521428D01*
X157519819Y-66521428D02*
X157472200Y-66616666D01*
X157472200Y-66616666D02*
X157424580Y-66664285D01*
X157424580Y-66664285D02*
X157329342Y-66711904D01*
X157329342Y-66711904D02*
X157138866Y-66759523D01*
X157138866Y-66759523D02*
X156900771Y-66759523D01*
X156900771Y-66759523D02*
X156710295Y-66711904D01*
X156710295Y-66711904D02*
X156615057Y-66664285D01*
X156615057Y-66664285D02*
X156567438Y-66616666D01*
X156567438Y-66616666D02*
X156519819Y-66521428D01*
X134015391Y-67491666D02*
X134063011Y-67539285D01*
X134063011Y-67539285D02*
X134110630Y-67682142D01*
X134110630Y-67682142D02*
X134110630Y-67777380D01*
X134110630Y-67777380D02*
X134063011Y-67920237D01*
X134063011Y-67920237D02*
X133967772Y-68015475D01*
X133967772Y-68015475D02*
X133872534Y-68063094D01*
X133872534Y-68063094D02*
X133682058Y-68110713D01*
X133682058Y-68110713D02*
X133539201Y-68110713D01*
X133539201Y-68110713D02*
X133348725Y-68063094D01*
X133348725Y-68063094D02*
X133253487Y-68015475D01*
X133253487Y-68015475D02*
X133158249Y-67920237D01*
X133158249Y-67920237D02*
X133110630Y-67777380D01*
X133110630Y-67777380D02*
X133110630Y-67682142D01*
X133110630Y-67682142D02*
X133158249Y-67539285D01*
X133158249Y-67539285D02*
X133205868Y-67491666D01*
X133539201Y-66920237D02*
X133491582Y-67015475D01*
X133491582Y-67015475D02*
X133443963Y-67063094D01*
X133443963Y-67063094D02*
X133348725Y-67110713D01*
X133348725Y-67110713D02*
X133301106Y-67110713D01*
X133301106Y-67110713D02*
X133205868Y-67063094D01*
X133205868Y-67063094D02*
X133158249Y-67015475D01*
X133158249Y-67015475D02*
X133110630Y-66920237D01*
X133110630Y-66920237D02*
X133110630Y-66729761D01*
X133110630Y-66729761D02*
X133158249Y-66634523D01*
X133158249Y-66634523D02*
X133205868Y-66586904D01*
X133205868Y-66586904D02*
X133301106Y-66539285D01*
X133301106Y-66539285D02*
X133348725Y-66539285D01*
X133348725Y-66539285D02*
X133443963Y-66586904D01*
X133443963Y-66586904D02*
X133491582Y-66634523D01*
X133491582Y-66634523D02*
X133539201Y-66729761D01*
X133539201Y-66729761D02*
X133539201Y-66920237D01*
X133539201Y-66920237D02*
X133586820Y-67015475D01*
X133586820Y-67015475D02*
X133634439Y-67063094D01*
X133634439Y-67063094D02*
X133729677Y-67110713D01*
X133729677Y-67110713D02*
X133920153Y-67110713D01*
X133920153Y-67110713D02*
X134015391Y-67063094D01*
X134015391Y-67063094D02*
X134063011Y-67015475D01*
X134063011Y-67015475D02*
X134110630Y-66920237D01*
X134110630Y-66920237D02*
X134110630Y-66729761D01*
X134110630Y-66729761D02*
X134063011Y-66634523D01*
X134063011Y-66634523D02*
X134015391Y-66586904D01*
X134015391Y-66586904D02*
X133920153Y-66539285D01*
X133920153Y-66539285D02*
X133729677Y-66539285D01*
X133729677Y-66539285D02*
X133634439Y-66586904D01*
X133634439Y-66586904D02*
X133586820Y-66634523D01*
X133586820Y-66634523D02*
X133539201Y-66729761D01*
X136344819Y-37817857D02*
X135868628Y-38151190D01*
X136344819Y-38389285D02*
X135344819Y-38389285D01*
X135344819Y-38389285D02*
X135344819Y-38008333D01*
X135344819Y-38008333D02*
X135392438Y-37913095D01*
X135392438Y-37913095D02*
X135440057Y-37865476D01*
X135440057Y-37865476D02*
X135535295Y-37817857D01*
X135535295Y-37817857D02*
X135678152Y-37817857D01*
X135678152Y-37817857D02*
X135773390Y-37865476D01*
X135773390Y-37865476D02*
X135821009Y-37913095D01*
X135821009Y-37913095D02*
X135868628Y-38008333D01*
X135868628Y-38008333D02*
X135868628Y-38389285D01*
X136344819Y-36865476D02*
X136344819Y-37436904D01*
X136344819Y-37151190D02*
X135344819Y-37151190D01*
X135344819Y-37151190D02*
X135487676Y-37246428D01*
X135487676Y-37246428D02*
X135582914Y-37341666D01*
X135582914Y-37341666D02*
X135630533Y-37436904D01*
X135344819Y-36532142D02*
X135344819Y-35913095D01*
X135344819Y-35913095D02*
X135725771Y-36246428D01*
X135725771Y-36246428D02*
X135725771Y-36103571D01*
X135725771Y-36103571D02*
X135773390Y-36008333D01*
X135773390Y-36008333D02*
X135821009Y-35960714D01*
X135821009Y-35960714D02*
X135916247Y-35913095D01*
X135916247Y-35913095D02*
X136154342Y-35913095D01*
X136154342Y-35913095D02*
X136249580Y-35960714D01*
X136249580Y-35960714D02*
X136297200Y-36008333D01*
X136297200Y-36008333D02*
X136344819Y-36103571D01*
X136344819Y-36103571D02*
X136344819Y-36389285D01*
X136344819Y-36389285D02*
X136297200Y-36484523D01*
X136297200Y-36484523D02*
X136249580Y-36532142D01*
X139719819Y-54741666D02*
X139243628Y-55074999D01*
X139719819Y-55313094D02*
X138719819Y-55313094D01*
X138719819Y-55313094D02*
X138719819Y-54932142D01*
X138719819Y-54932142D02*
X138767438Y-54836904D01*
X138767438Y-54836904D02*
X138815057Y-54789285D01*
X138815057Y-54789285D02*
X138910295Y-54741666D01*
X138910295Y-54741666D02*
X139053152Y-54741666D01*
X139053152Y-54741666D02*
X139148390Y-54789285D01*
X139148390Y-54789285D02*
X139196009Y-54836904D01*
X139196009Y-54836904D02*
X139243628Y-54932142D01*
X139243628Y-54932142D02*
X139243628Y-55313094D01*
X138815057Y-54360713D02*
X138767438Y-54313094D01*
X138767438Y-54313094D02*
X138719819Y-54217856D01*
X138719819Y-54217856D02*
X138719819Y-53979761D01*
X138719819Y-53979761D02*
X138767438Y-53884523D01*
X138767438Y-53884523D02*
X138815057Y-53836904D01*
X138815057Y-53836904D02*
X138910295Y-53789285D01*
X138910295Y-53789285D02*
X139005533Y-53789285D01*
X139005533Y-53789285D02*
X139148390Y-53836904D01*
X139148390Y-53836904D02*
X139719819Y-54408332D01*
X139719819Y-54408332D02*
X139719819Y-53789285D01*
X172154560Y-61042857D02*
X172202180Y-61090476D01*
X172202180Y-61090476D02*
X172249799Y-61233333D01*
X172249799Y-61233333D02*
X172249799Y-61328571D01*
X172249799Y-61328571D02*
X172202180Y-61471428D01*
X172202180Y-61471428D02*
X172106941Y-61566666D01*
X172106941Y-61566666D02*
X172011703Y-61614285D01*
X172011703Y-61614285D02*
X171821227Y-61661904D01*
X171821227Y-61661904D02*
X171678370Y-61661904D01*
X171678370Y-61661904D02*
X171487894Y-61614285D01*
X171487894Y-61614285D02*
X171392656Y-61566666D01*
X171392656Y-61566666D02*
X171297418Y-61471428D01*
X171297418Y-61471428D02*
X171249799Y-61328571D01*
X171249799Y-61328571D02*
X171249799Y-61233333D01*
X171249799Y-61233333D02*
X171297418Y-61090476D01*
X171297418Y-61090476D02*
X171345037Y-61042857D01*
X172249799Y-60090476D02*
X172249799Y-60661904D01*
X172249799Y-60376190D02*
X171249799Y-60376190D01*
X171249799Y-60376190D02*
X171392656Y-60471428D01*
X171392656Y-60471428D02*
X171487894Y-60566666D01*
X171487894Y-60566666D02*
X171535513Y-60661904D01*
X171249799Y-59757142D02*
X171249799Y-59090476D01*
X171249799Y-59090476D02*
X172249799Y-59519047D01*
X156422142Y-60934580D02*
X156374523Y-60982200D01*
X156374523Y-60982200D02*
X156231666Y-61029819D01*
X156231666Y-61029819D02*
X156136428Y-61029819D01*
X156136428Y-61029819D02*
X155993571Y-60982200D01*
X155993571Y-60982200D02*
X155898333Y-60886961D01*
X155898333Y-60886961D02*
X155850714Y-60791723D01*
X155850714Y-60791723D02*
X155803095Y-60601247D01*
X155803095Y-60601247D02*
X155803095Y-60458390D01*
X155803095Y-60458390D02*
X155850714Y-60267914D01*
X155850714Y-60267914D02*
X155898333Y-60172676D01*
X155898333Y-60172676D02*
X155993571Y-60077438D01*
X155993571Y-60077438D02*
X156136428Y-60029819D01*
X156136428Y-60029819D02*
X156231666Y-60029819D01*
X156231666Y-60029819D02*
X156374523Y-60077438D01*
X156374523Y-60077438D02*
X156422142Y-60125057D01*
X157374523Y-61029819D02*
X156803095Y-61029819D01*
X157088809Y-61029819D02*
X157088809Y-60029819D01*
X157088809Y-60029819D02*
X156993571Y-60172676D01*
X156993571Y-60172676D02*
X156898333Y-60267914D01*
X156898333Y-60267914D02*
X156803095Y-60315533D01*
X157707857Y-60029819D02*
X158326904Y-60029819D01*
X158326904Y-60029819D02*
X157993571Y-60410771D01*
X157993571Y-60410771D02*
X158136428Y-60410771D01*
X158136428Y-60410771D02*
X158231666Y-60458390D01*
X158231666Y-60458390D02*
X158279285Y-60506009D01*
X158279285Y-60506009D02*
X158326904Y-60601247D01*
X158326904Y-60601247D02*
X158326904Y-60839342D01*
X158326904Y-60839342D02*
X158279285Y-60934580D01*
X158279285Y-60934580D02*
X158231666Y-60982200D01*
X158231666Y-60982200D02*
X158136428Y-61029819D01*
X158136428Y-61029819D02*
X157850714Y-61029819D01*
X157850714Y-61029819D02*
X157755476Y-60982200D01*
X157755476Y-60982200D02*
X157707857Y-60934580D01*
X123456666Y-30554819D02*
X123456666Y-31269104D01*
X123456666Y-31269104D02*
X123409047Y-31411961D01*
X123409047Y-31411961D02*
X123313809Y-31507200D01*
X123313809Y-31507200D02*
X123170952Y-31554819D01*
X123170952Y-31554819D02*
X123075714Y-31554819D01*
X124361428Y-30554819D02*
X124170952Y-30554819D01*
X124170952Y-30554819D02*
X124075714Y-30602438D01*
X124075714Y-30602438D02*
X124028095Y-30650057D01*
X124028095Y-30650057D02*
X123932857Y-30792914D01*
X123932857Y-30792914D02*
X123885238Y-30983390D01*
X123885238Y-30983390D02*
X123885238Y-31364342D01*
X123885238Y-31364342D02*
X123932857Y-31459580D01*
X123932857Y-31459580D02*
X123980476Y-31507200D01*
X123980476Y-31507200D02*
X124075714Y-31554819D01*
X124075714Y-31554819D02*
X124266190Y-31554819D01*
X124266190Y-31554819D02*
X124361428Y-31507200D01*
X124361428Y-31507200D02*
X124409047Y-31459580D01*
X124409047Y-31459580D02*
X124456666Y-31364342D01*
X124456666Y-31364342D02*
X124456666Y-31126247D01*
X124456666Y-31126247D02*
X124409047Y-31031009D01*
X124409047Y-31031009D02*
X124361428Y-30983390D01*
X124361428Y-30983390D02*
X124266190Y-30935771D01*
X124266190Y-30935771D02*
X124075714Y-30935771D01*
X124075714Y-30935771D02*
X123980476Y-30983390D01*
X123980476Y-30983390D02*
X123932857Y-31031009D01*
X123932857Y-31031009D02*
X123885238Y-31126247D01*
X121609048Y-21194104D02*
X122085238Y-21194104D01*
X121513810Y-21479819D02*
X121847143Y-20479819D01*
X121847143Y-20479819D02*
X122180476Y-21479819D01*
X122513810Y-20479819D02*
X122513810Y-21289342D01*
X122513810Y-21289342D02*
X122561429Y-21384580D01*
X122561429Y-21384580D02*
X122609048Y-21432200D01*
X122609048Y-21432200D02*
X122704286Y-21479819D01*
X122704286Y-21479819D02*
X122894762Y-21479819D01*
X122894762Y-21479819D02*
X122990000Y-21432200D01*
X122990000Y-21432200D02*
X123037619Y-21384580D01*
X123037619Y-21384580D02*
X123085238Y-21289342D01*
X123085238Y-21289342D02*
X123085238Y-20479819D01*
X123466191Y-20479819D02*
X124132857Y-21479819D01*
X124132857Y-20479819D02*
X123466191Y-21479819D01*
X124275715Y-21575057D02*
X125037619Y-21575057D01*
X125275715Y-21479819D02*
X125275715Y-20479819D01*
X125751905Y-21479819D02*
X125751905Y-20479819D01*
X125751905Y-20479819D02*
X126323333Y-21479819D01*
X126323333Y-21479819D02*
X126323333Y-20479819D01*
X160572142Y-38459819D02*
X160238809Y-37983628D01*
X160000714Y-38459819D02*
X160000714Y-37459819D01*
X160000714Y-37459819D02*
X160381666Y-37459819D01*
X160381666Y-37459819D02*
X160476904Y-37507438D01*
X160476904Y-37507438D02*
X160524523Y-37555057D01*
X160524523Y-37555057D02*
X160572142Y-37650295D01*
X160572142Y-37650295D02*
X160572142Y-37793152D01*
X160572142Y-37793152D02*
X160524523Y-37888390D01*
X160524523Y-37888390D02*
X160476904Y-37936009D01*
X160476904Y-37936009D02*
X160381666Y-37983628D01*
X160381666Y-37983628D02*
X160000714Y-37983628D01*
X161524523Y-38459819D02*
X160953095Y-38459819D01*
X161238809Y-38459819D02*
X161238809Y-37459819D01*
X161238809Y-37459819D02*
X161143571Y-37602676D01*
X161143571Y-37602676D02*
X161048333Y-37697914D01*
X161048333Y-37697914D02*
X160953095Y-37745533D01*
X162429285Y-37459819D02*
X161953095Y-37459819D01*
X161953095Y-37459819D02*
X161905476Y-37936009D01*
X161905476Y-37936009D02*
X161953095Y-37888390D01*
X161953095Y-37888390D02*
X162048333Y-37840771D01*
X162048333Y-37840771D02*
X162286428Y-37840771D01*
X162286428Y-37840771D02*
X162381666Y-37888390D01*
X162381666Y-37888390D02*
X162429285Y-37936009D01*
X162429285Y-37936009D02*
X162476904Y-38031247D01*
X162476904Y-38031247D02*
X162476904Y-38269342D01*
X162476904Y-38269342D02*
X162429285Y-38364580D01*
X162429285Y-38364580D02*
X162381666Y-38412200D01*
X162381666Y-38412200D02*
X162286428Y-38459819D01*
X162286428Y-38459819D02*
X162048333Y-38459819D01*
X162048333Y-38459819D02*
X161953095Y-38412200D01*
X161953095Y-38412200D02*
X161905476Y-38364580D01*
X180184580Y-32392857D02*
X180232200Y-32440476D01*
X180232200Y-32440476D02*
X180279819Y-32583333D01*
X180279819Y-32583333D02*
X180279819Y-32678571D01*
X180279819Y-32678571D02*
X180232200Y-32821428D01*
X180232200Y-32821428D02*
X180136961Y-32916666D01*
X180136961Y-32916666D02*
X180041723Y-32964285D01*
X180041723Y-32964285D02*
X179851247Y-33011904D01*
X179851247Y-33011904D02*
X179708390Y-33011904D01*
X179708390Y-33011904D02*
X179517914Y-32964285D01*
X179517914Y-32964285D02*
X179422676Y-32916666D01*
X179422676Y-32916666D02*
X179327438Y-32821428D01*
X179327438Y-32821428D02*
X179279819Y-32678571D01*
X179279819Y-32678571D02*
X179279819Y-32583333D01*
X179279819Y-32583333D02*
X179327438Y-32440476D01*
X179327438Y-32440476D02*
X179375057Y-32392857D01*
X179375057Y-32011904D02*
X179327438Y-31964285D01*
X179327438Y-31964285D02*
X179279819Y-31869047D01*
X179279819Y-31869047D02*
X179279819Y-31630952D01*
X179279819Y-31630952D02*
X179327438Y-31535714D01*
X179327438Y-31535714D02*
X179375057Y-31488095D01*
X179375057Y-31488095D02*
X179470295Y-31440476D01*
X179470295Y-31440476D02*
X179565533Y-31440476D01*
X179565533Y-31440476D02*
X179708390Y-31488095D01*
X179708390Y-31488095D02*
X180279819Y-32059523D01*
X180279819Y-32059523D02*
X180279819Y-31440476D01*
X179279819Y-30821428D02*
X179279819Y-30726190D01*
X179279819Y-30726190D02*
X179327438Y-30630952D01*
X179327438Y-30630952D02*
X179375057Y-30583333D01*
X179375057Y-30583333D02*
X179470295Y-30535714D01*
X179470295Y-30535714D02*
X179660771Y-30488095D01*
X179660771Y-30488095D02*
X179898866Y-30488095D01*
X179898866Y-30488095D02*
X180089342Y-30535714D01*
X180089342Y-30535714D02*
X180184580Y-30583333D01*
X180184580Y-30583333D02*
X180232200Y-30630952D01*
X180232200Y-30630952D02*
X180279819Y-30726190D01*
X180279819Y-30726190D02*
X180279819Y-30821428D01*
X180279819Y-30821428D02*
X180232200Y-30916666D01*
X180232200Y-30916666D02*
X180184580Y-30964285D01*
X180184580Y-30964285D02*
X180089342Y-31011904D01*
X180089342Y-31011904D02*
X179898866Y-31059523D01*
X179898866Y-31059523D02*
X179660771Y-31059523D01*
X179660771Y-31059523D02*
X179470295Y-31011904D01*
X179470295Y-31011904D02*
X179375057Y-30964285D01*
X179375057Y-30964285D02*
X179327438Y-30916666D01*
X179327438Y-30916666D02*
X179279819Y-30821428D01*
X142256666Y-29829819D02*
X142256666Y-30544104D01*
X142256666Y-30544104D02*
X142209047Y-30686961D01*
X142209047Y-30686961D02*
X142113809Y-30782200D01*
X142113809Y-30782200D02*
X141970952Y-30829819D01*
X141970952Y-30829819D02*
X141875714Y-30829819D01*
X142637619Y-29829819D02*
X143304285Y-29829819D01*
X143304285Y-29829819D02*
X142875714Y-30829819D01*
X141258810Y-20184819D02*
X141592143Y-21184819D01*
X141592143Y-21184819D02*
X141925476Y-20184819D01*
X142020715Y-21280057D02*
X142782619Y-21280057D01*
X143020715Y-21184819D02*
X143020715Y-20184819D01*
X143496905Y-21184819D02*
X143496905Y-20184819D01*
X143496905Y-20184819D02*
X144068333Y-21184819D01*
X144068333Y-21184819D02*
X144068333Y-20184819D01*
X141574580Y-61691666D02*
X141622200Y-61739285D01*
X141622200Y-61739285D02*
X141669819Y-61882142D01*
X141669819Y-61882142D02*
X141669819Y-61977380D01*
X141669819Y-61977380D02*
X141622200Y-62120237D01*
X141622200Y-62120237D02*
X141526961Y-62215475D01*
X141526961Y-62215475D02*
X141431723Y-62263094D01*
X141431723Y-62263094D02*
X141241247Y-62310713D01*
X141241247Y-62310713D02*
X141098390Y-62310713D01*
X141098390Y-62310713D02*
X140907914Y-62263094D01*
X140907914Y-62263094D02*
X140812676Y-62215475D01*
X140812676Y-62215475D02*
X140717438Y-62120237D01*
X140717438Y-62120237D02*
X140669819Y-61977380D01*
X140669819Y-61977380D02*
X140669819Y-61882142D01*
X140669819Y-61882142D02*
X140717438Y-61739285D01*
X140717438Y-61739285D02*
X140765057Y-61691666D01*
X140669819Y-61358332D02*
X140669819Y-60691666D01*
X140669819Y-60691666D02*
X141669819Y-61120237D01*
X121087953Y-61634580D02*
X121040334Y-61682200D01*
X121040334Y-61682200D02*
X120897477Y-61729819D01*
X120897477Y-61729819D02*
X120802239Y-61729819D01*
X120802239Y-61729819D02*
X120659382Y-61682200D01*
X120659382Y-61682200D02*
X120564144Y-61586961D01*
X120564144Y-61586961D02*
X120516525Y-61491723D01*
X120516525Y-61491723D02*
X120468906Y-61301247D01*
X120468906Y-61301247D02*
X120468906Y-61158390D01*
X120468906Y-61158390D02*
X120516525Y-60967914D01*
X120516525Y-60967914D02*
X120564144Y-60872676D01*
X120564144Y-60872676D02*
X120659382Y-60777438D01*
X120659382Y-60777438D02*
X120802239Y-60729819D01*
X120802239Y-60729819D02*
X120897477Y-60729819D01*
X120897477Y-60729819D02*
X121040334Y-60777438D01*
X121040334Y-60777438D02*
X121087953Y-60825057D01*
X122040334Y-61729819D02*
X121468906Y-61729819D01*
X121754620Y-61729819D02*
X121754620Y-60729819D01*
X121754620Y-60729819D02*
X121659382Y-60872676D01*
X121659382Y-60872676D02*
X121564144Y-60967914D01*
X121564144Y-60967914D02*
X121468906Y-61015533D01*
X122421287Y-60825057D02*
X122468906Y-60777438D01*
X122468906Y-60777438D02*
X122564144Y-60729819D01*
X122564144Y-60729819D02*
X122802239Y-60729819D01*
X122802239Y-60729819D02*
X122897477Y-60777438D01*
X122897477Y-60777438D02*
X122945096Y-60825057D01*
X122945096Y-60825057D02*
X122992715Y-60920295D01*
X122992715Y-60920295D02*
X122992715Y-61015533D01*
X122992715Y-61015533D02*
X122945096Y-61158390D01*
X122945096Y-61158390D02*
X122373668Y-61729819D01*
X122373668Y-61729819D02*
X122992715Y-61729819D01*
X114465391Y-63316666D02*
X114513011Y-63364285D01*
X114513011Y-63364285D02*
X114560630Y-63507142D01*
X114560630Y-63507142D02*
X114560630Y-63602380D01*
X114560630Y-63602380D02*
X114513011Y-63745237D01*
X114513011Y-63745237D02*
X114417772Y-63840475D01*
X114417772Y-63840475D02*
X114322534Y-63888094D01*
X114322534Y-63888094D02*
X114132058Y-63935713D01*
X114132058Y-63935713D02*
X113989201Y-63935713D01*
X113989201Y-63935713D02*
X113798725Y-63888094D01*
X113798725Y-63888094D02*
X113703487Y-63840475D01*
X113703487Y-63840475D02*
X113608249Y-63745237D01*
X113608249Y-63745237D02*
X113560630Y-63602380D01*
X113560630Y-63602380D02*
X113560630Y-63507142D01*
X113560630Y-63507142D02*
X113608249Y-63364285D01*
X113608249Y-63364285D02*
X113655868Y-63316666D01*
X113560630Y-62459523D02*
X113560630Y-62649999D01*
X113560630Y-62649999D02*
X113608249Y-62745237D01*
X113608249Y-62745237D02*
X113655868Y-62792856D01*
X113655868Y-62792856D02*
X113798725Y-62888094D01*
X113798725Y-62888094D02*
X113989201Y-62935713D01*
X113989201Y-62935713D02*
X114370153Y-62935713D01*
X114370153Y-62935713D02*
X114465391Y-62888094D01*
X114465391Y-62888094D02*
X114513011Y-62840475D01*
X114513011Y-62840475D02*
X114560630Y-62745237D01*
X114560630Y-62745237D02*
X114560630Y-62554761D01*
X114560630Y-62554761D02*
X114513011Y-62459523D01*
X114513011Y-62459523D02*
X114465391Y-62411904D01*
X114465391Y-62411904D02*
X114370153Y-62364285D01*
X114370153Y-62364285D02*
X114132058Y-62364285D01*
X114132058Y-62364285D02*
X114036820Y-62411904D01*
X114036820Y-62411904D02*
X113989201Y-62459523D01*
X113989201Y-62459523D02*
X113941582Y-62554761D01*
X113941582Y-62554761D02*
X113941582Y-62745237D01*
X113941582Y-62745237D02*
X113989201Y-62840475D01*
X113989201Y-62840475D02*
X114036820Y-62888094D01*
X114036820Y-62888094D02*
X114132058Y-62935713D01*
X160647142Y-43384819D02*
X160313809Y-42908628D01*
X160075714Y-43384819D02*
X160075714Y-42384819D01*
X160075714Y-42384819D02*
X160456666Y-42384819D01*
X160456666Y-42384819D02*
X160551904Y-42432438D01*
X160551904Y-42432438D02*
X160599523Y-42480057D01*
X160599523Y-42480057D02*
X160647142Y-42575295D01*
X160647142Y-42575295D02*
X160647142Y-42718152D01*
X160647142Y-42718152D02*
X160599523Y-42813390D01*
X160599523Y-42813390D02*
X160551904Y-42861009D01*
X160551904Y-42861009D02*
X160456666Y-42908628D01*
X160456666Y-42908628D02*
X160075714Y-42908628D01*
X161599523Y-43384819D02*
X161028095Y-43384819D01*
X161313809Y-43384819D02*
X161313809Y-42384819D01*
X161313809Y-42384819D02*
X161218571Y-42527676D01*
X161218571Y-42527676D02*
X161123333Y-42622914D01*
X161123333Y-42622914D02*
X161028095Y-42670533D01*
X162456666Y-42384819D02*
X162266190Y-42384819D01*
X162266190Y-42384819D02*
X162170952Y-42432438D01*
X162170952Y-42432438D02*
X162123333Y-42480057D01*
X162123333Y-42480057D02*
X162028095Y-42622914D01*
X162028095Y-42622914D02*
X161980476Y-42813390D01*
X161980476Y-42813390D02*
X161980476Y-43194342D01*
X161980476Y-43194342D02*
X162028095Y-43289580D01*
X162028095Y-43289580D02*
X162075714Y-43337200D01*
X162075714Y-43337200D02*
X162170952Y-43384819D01*
X162170952Y-43384819D02*
X162361428Y-43384819D01*
X162361428Y-43384819D02*
X162456666Y-43337200D01*
X162456666Y-43337200D02*
X162504285Y-43289580D01*
X162504285Y-43289580D02*
X162551904Y-43194342D01*
X162551904Y-43194342D02*
X162551904Y-42956247D01*
X162551904Y-42956247D02*
X162504285Y-42861009D01*
X162504285Y-42861009D02*
X162456666Y-42813390D01*
X162456666Y-42813390D02*
X162361428Y-42765771D01*
X162361428Y-42765771D02*
X162170952Y-42765771D01*
X162170952Y-42765771D02*
X162075714Y-42813390D01*
X162075714Y-42813390D02*
X162028095Y-42861009D01*
X162028095Y-42861009D02*
X161980476Y-42956247D01*
%TO.C,R1*%
D12*
X113195811Y-54972936D02*
X113195811Y-56427064D01*
X115015811Y-54972936D02*
X115015811Y-56427064D01*
%TO.C,C14*%
X180599980Y-56680000D02*
X185339980Y-56680000D01*
X180599980Y-64120000D02*
X180599980Y-56680000D01*
X185339980Y-56680000D02*
X185339980Y-64120000D01*
X185339980Y-64120000D02*
X180599980Y-64120000D01*
%TO.C,C21*%
X182936252Y-44130000D02*
X181513748Y-44130000D01*
X182936252Y-45950000D02*
X181513748Y-45950000D01*
%TO.C,RV2*%
X143595000Y-65329000D02*
X143595000Y-75120000D01*
X144845000Y-75120000D02*
X144845000Y-82120000D01*
X145345000Y-82120000D02*
X145345000Y-95100000D01*
X151585000Y-82120000D02*
X151585000Y-95100000D01*
X151585000Y-95100000D02*
X145365000Y-95100000D01*
X152085000Y-75120000D02*
X152085000Y-82120000D01*
X152085000Y-82120000D02*
X144845000Y-82120000D01*
X153335000Y-65329000D02*
X143595000Y-65329000D01*
X153335000Y-65329000D02*
X153335000Y-75120000D01*
X153335000Y-75120000D02*
X143595000Y-75120000D01*
%TO.C,R18*%
X180880000Y-38397936D02*
X180880000Y-39852064D01*
X182700000Y-38397936D02*
X182700000Y-39852064D01*
%TO.C,R6*%
X154880000Y-55652064D02*
X154880000Y-54197936D01*
X156700000Y-55652064D02*
X156700000Y-54197936D01*
%TO.C,R4*%
X165059980Y-53097936D02*
X165059980Y-54552064D01*
X166879980Y-53097936D02*
X166879980Y-54552064D01*
%TO.C,R5*%
X118220811Y-56502064D02*
X118220811Y-55047936D01*
X120040811Y-56502064D02*
X120040811Y-55047936D01*
%TO.C,C18*%
X153165000Y-33341252D02*
X153165000Y-31918748D01*
X154985000Y-33341252D02*
X154985000Y-31918748D01*
%TO.C,R9*%
X170859980Y-53877064D02*
X170859980Y-52422936D01*
X172679980Y-53877064D02*
X172679980Y-52422936D01*
%TO.C,RV3*%
X169099980Y-65329000D02*
X169099980Y-75120000D01*
X170349980Y-75120000D02*
X170349980Y-82120000D01*
X170849980Y-82120000D02*
X170849980Y-95100000D01*
X177089980Y-82120000D02*
X177089980Y-95100000D01*
X177089980Y-95100000D02*
X170869980Y-95100000D01*
X177589980Y-75120000D02*
X177589980Y-82120000D01*
X177589980Y-82120000D02*
X170349980Y-82120000D01*
X178839980Y-65329000D02*
X169099980Y-65329000D01*
X178839980Y-65329000D02*
X178839980Y-75120000D01*
X178839980Y-75120000D02*
X169099980Y-75120000D01*
%TO.C,RV1*%
X117960811Y-65329000D02*
X117960811Y-75120000D01*
X119210811Y-75120000D02*
X119210811Y-82120000D01*
X119710811Y-82120000D02*
X119710811Y-95100000D01*
X125950811Y-82120000D02*
X125950811Y-95100000D01*
X125950811Y-95100000D02*
X119730811Y-95100000D01*
X126450811Y-75120000D02*
X126450811Y-82120000D01*
X126450811Y-82120000D02*
X119210811Y-82120000D01*
X127700811Y-65329000D02*
X117960811Y-65329000D01*
X127700811Y-65329000D02*
X127700811Y-75120000D01*
X127700811Y-75120000D02*
X117960811Y-75120000D01*
%TO.C,R10*%
X133770811Y-55927064D02*
X133770811Y-54472936D01*
X135590811Y-55927064D02*
X135590811Y-54472936D01*
%TO.C,R3*%
X129770811Y-55902064D02*
X129770811Y-54447936D01*
X131590811Y-55902064D02*
X131590811Y-54447936D01*
%TO.C,R11*%
X158630000Y-55702064D02*
X158630000Y-54247936D01*
X160450000Y-55702064D02*
X160450000Y-54247936D01*
%TO.C,U3*%
X171255000Y-34305000D02*
X171255000Y-44585000D01*
X171255000Y-44585000D02*
X176555000Y-44585000D01*
X172905000Y-34305000D02*
X171255000Y-34305000D01*
X176555000Y-34305000D02*
X174905000Y-34305000D01*
X176555000Y-44585000D02*
X176555000Y-34305000D01*
X168765000Y-34245000D02*
X179045000Y-34245000D01*
X179045000Y-44645000D01*
X168765000Y-44645000D01*
X168765000Y-34245000D01*
X174905000Y-34305000D02*
G75*
G02*
X172905000Y-34305000I-1000000J0D01*
G01*
%TO.C,U2*%
X143190000Y-34660000D02*
X143190000Y-44940000D01*
X143190000Y-44940000D02*
X148490000Y-44940000D01*
X144840000Y-34660000D02*
X143190000Y-34660000D01*
X148490000Y-34660000D02*
X146840000Y-34660000D01*
X148490000Y-44940000D02*
X148490000Y-34660000D01*
X140700000Y-34600000D02*
X150980000Y-34600000D01*
X150980000Y-45000000D01*
X140700000Y-45000000D01*
X140700000Y-34600000D01*
X146840000Y-34660000D02*
G75*
G02*
X144840000Y-34660000I-1000000J0D01*
G01*
%TO.C,R7*%
X145130000Y-55352064D02*
X145130000Y-53897936D01*
X146950000Y-55352064D02*
X146950000Y-53897936D01*
%TO.C,C16*%
X175012480Y-56680000D02*
X179752480Y-56680000D01*
X175012480Y-64120000D02*
X175012480Y-56680000D01*
X179752480Y-56680000D02*
X179752480Y-64120000D01*
X179752480Y-64120000D02*
X175012480Y-64120000D01*
%TO.C,R14*%
X153080000Y-39397936D02*
X153080000Y-40852064D01*
X154900000Y-39397936D02*
X154900000Y-40852064D01*
%TO.C,C11*%
X126635811Y-59355000D02*
X134075811Y-59355000D01*
X126635811Y-63095000D02*
X126635811Y-59355000D01*
X134075811Y-59355000D02*
X134075811Y-63095000D01*
X134075811Y-63095000D02*
X126635811Y-63095000D01*
%TO.C,R8*%
X182059980Y-53777064D02*
X182059980Y-52322936D01*
X183879980Y-53777064D02*
X183879980Y-52322936D01*
%TO.C,C15*%
X144795000Y-61080000D02*
X152235000Y-61080000D01*
X144795000Y-64320000D02*
X144795000Y-61080000D01*
X152235000Y-61080000D02*
X152235000Y-64320000D01*
X152235000Y-64320000D02*
X144795000Y-64320000D01*
%TO.C,R12*%
X177734980Y-53852064D02*
X177734980Y-52397936D01*
X179554980Y-53852064D02*
X179554980Y-52397936D01*
%TO.C,J8*%
X159800000Y-21705000D02*
X172320000Y-21705000D01*
X159800000Y-31745000D02*
X159800000Y-21705000D01*
X172920000Y-21705000D02*
X175280000Y-21705000D01*
X175280000Y-21705000D02*
X175280000Y-31745000D01*
X175280000Y-22325000D02*
X159800000Y-22325000D01*
X175280000Y-23825000D02*
X159800000Y-23825000D01*
X175280000Y-28725000D02*
X159800000Y-28725000D01*
X175280000Y-31745000D02*
X159800000Y-31745000D01*
X172620000Y-21705000D02*
X172180000Y-21095000D01*
X173060000Y-21095000D01*
X172620000Y-21705000D01*
G36*
X172620000Y-21705000D02*
G01*
X172180000Y-21095000D01*
X173060000Y-21095000D01*
X172620000Y-21705000D01*
G37*
%TO.C,C9*%
X163599980Y-59080000D02*
X168339980Y-59080000D01*
X163599980Y-66520000D02*
X163599980Y-59080000D01*
X168339980Y-59080000D02*
X168339980Y-66520000D01*
X168339980Y-66520000D02*
X163599980Y-66520000D01*
%TO.C,C10*%
X155445000Y-63730000D02*
X158685000Y-63730000D01*
X155445000Y-71170000D02*
X155445000Y-63730000D01*
X158685000Y-63730000D02*
X158685000Y-71170000D01*
X158685000Y-71170000D02*
X155445000Y-71170000D01*
%TO.C,C8*%
X128785811Y-63605000D02*
X132525811Y-63605000D01*
X128785811Y-71045000D02*
X128785811Y-63605000D01*
X132525811Y-63605000D02*
X132525811Y-71045000D01*
X132525811Y-71045000D02*
X128785811Y-71045000D01*
%TO.C,R13*%
X137555000Y-36322936D02*
X137555000Y-37777064D01*
X139375000Y-36322936D02*
X139375000Y-37777064D01*
%TO.C,R2*%
X140355000Y-53947936D02*
X140355000Y-55402064D01*
X142175000Y-53947936D02*
X142175000Y-55402064D01*
%TO.C,C17*%
X169424980Y-56680000D02*
X174164980Y-56680000D01*
X169424980Y-64120000D02*
X169424980Y-56680000D01*
X174164980Y-56680000D02*
X174164980Y-64120000D01*
X174164980Y-64120000D02*
X169424980Y-64120000D01*
%TO.C,C13*%
X153345000Y-58955000D02*
X160785000Y-58955000D01*
X153345000Y-62195000D02*
X153345000Y-58955000D01*
X160785000Y-58955000D02*
X160785000Y-62195000D01*
X160785000Y-62195000D02*
X153345000Y-62195000D01*
%TO.C,J6*%
X118750000Y-22555000D02*
X126190000Y-22555000D01*
X118750000Y-32595000D02*
X118750000Y-22555000D01*
X126790000Y-22555000D02*
X129150000Y-22555000D01*
X129150000Y-22555000D02*
X129150000Y-32595000D01*
X129150000Y-23175000D02*
X118750000Y-23175000D01*
X129150000Y-24675000D02*
X118750000Y-24675000D01*
X129150000Y-29575000D02*
X118750000Y-29575000D01*
X129150000Y-32595000D02*
X118750000Y-32595000D01*
X126490000Y-22555000D02*
X126050000Y-21945000D01*
X126930000Y-21945000D01*
X126490000Y-22555000D01*
G36*
X126490000Y-22555000D02*
G01*
X126050000Y-21945000D01*
X126930000Y-21945000D01*
X126490000Y-22555000D01*
G37*
%TO.C,R15*%
X161942064Y-35265000D02*
X160487936Y-35265000D01*
X161942064Y-37085000D02*
X160487936Y-37085000D01*
%TO.C,C20*%
X180765000Y-32461252D02*
X180765000Y-31038748D01*
X182585000Y-32461252D02*
X182585000Y-31038748D01*
%TO.C,J7*%
X134995000Y-21730000D02*
X147515000Y-21730000D01*
X134995000Y-31770000D02*
X134995000Y-21730000D01*
X148115000Y-21730000D02*
X150475000Y-21730000D01*
X150475000Y-21730000D02*
X150475000Y-31770000D01*
X150475000Y-22350000D02*
X134995000Y-22350000D01*
X150475000Y-23850000D02*
X134995000Y-23850000D01*
X150475000Y-28750000D02*
X134995000Y-28750000D01*
X150475000Y-31770000D02*
X134995000Y-31770000D01*
X147815000Y-21730000D02*
X147375000Y-21120000D01*
X148255000Y-21120000D01*
X147815000Y-21730000D01*
G36*
X147815000Y-21730000D02*
G01*
X147375000Y-21120000D01*
X148255000Y-21120000D01*
X147815000Y-21730000D01*
G37*
%TO.C,C7*%
X139595000Y-57805000D02*
X142835000Y-57805000D01*
X139595000Y-65245000D02*
X139595000Y-57805000D01*
X142835000Y-57805000D02*
X142835000Y-65245000D01*
X142835000Y-65245000D02*
X139595000Y-65245000D01*
%TO.C,C12*%
X118010811Y-59405000D02*
X125450811Y-59405000D01*
X118010811Y-63145000D02*
X118010811Y-59405000D01*
X125450811Y-59405000D02*
X125450811Y-63145000D01*
X125450811Y-63145000D02*
X118010811Y-63145000D01*
%TO.C,C6*%
X112235811Y-59430000D02*
X115975811Y-59430000D01*
X112235811Y-66870000D02*
X112235811Y-59430000D01*
X115975811Y-59430000D02*
X115975811Y-66870000D01*
X115975811Y-66870000D02*
X112235811Y-66870000D01*
%TO.C,R16*%
X162017064Y-40190000D02*
X160562936Y-40190000D01*
X162017064Y-42010000D02*
X160562936Y-42010000D01*
%TD*%
%LPC*%
D13*
%TO.C,R1*%
X114105811Y-54150000D03*
X114105811Y-57250000D03*
%TD*%
D14*
%TO.C,C14*%
X182969980Y-57900000D03*
X182969980Y-62900000D03*
%TD*%
D15*
%TO.C,C21*%
X183787500Y-45040000D03*
X180662500Y-45040000D03*
%TD*%
D16*
%TO.C,RV2*%
X145965000Y-70000000D03*
D17*
X148465000Y-70000000D03*
X150965000Y-70000000D03*
X145965000Y-67500000D03*
X148465000Y-67500000D03*
X150965000Y-67500000D03*
%TD*%
D13*
%TO.C,R18*%
X181790000Y-37575000D03*
X181790000Y-40675000D03*
%TD*%
D18*
%TO.C,R6*%
X155790000Y-56475000D03*
X155790000Y-53375000D03*
%TD*%
D13*
%TO.C,R4*%
X165969980Y-52275000D03*
X165969980Y-55375000D03*
%TD*%
D18*
%TO.C,R5*%
X119130811Y-57325000D03*
X119130811Y-54225000D03*
%TD*%
D19*
%TO.C,C18*%
X154075000Y-34192500D03*
X154075000Y-31067500D03*
%TD*%
D18*
%TO.C,R9*%
X171769980Y-54700000D03*
X171769980Y-51600000D03*
%TD*%
D16*
%TO.C,RV3*%
X171469980Y-70000000D03*
D17*
X173969980Y-70000000D03*
X176469980Y-70000000D03*
X171469980Y-67500000D03*
X173969980Y-67500000D03*
X176469980Y-67500000D03*
%TD*%
D16*
%TO.C,RV1*%
X120330811Y-70000000D03*
D17*
X122830811Y-70000000D03*
X125330811Y-70000000D03*
X120330811Y-67500000D03*
X122830811Y-67500000D03*
X125330811Y-67500000D03*
%TD*%
D18*
%TO.C,R10*%
X134680811Y-56750000D03*
X134680811Y-53650000D03*
%TD*%
%TO.C,R3*%
X130680811Y-56725000D03*
X130680811Y-53625000D03*
%TD*%
%TO.C,R11*%
X159540000Y-56525000D03*
X159540000Y-53425000D03*
%TD*%
D20*
%TO.C,U3*%
X170095000Y-35635000D03*
D14*
X170095000Y-38175000D03*
X170095000Y-40715000D03*
X170095000Y-43255000D03*
X177715000Y-43255000D03*
X177715000Y-40715000D03*
X177715000Y-38175000D03*
X177715000Y-35635000D03*
%TD*%
D20*
%TO.C,U2*%
X142030000Y-35990000D03*
D14*
X142030000Y-38530000D03*
X142030000Y-41070000D03*
X142030000Y-43610000D03*
X149650000Y-43610000D03*
X149650000Y-41070000D03*
X149650000Y-38530000D03*
X149650000Y-35990000D03*
%TD*%
D18*
%TO.C,R7*%
X146040000Y-56175000D03*
X146040000Y-53075000D03*
%TD*%
D14*
%TO.C,C16*%
X177382480Y-62900000D03*
X177382480Y-57900000D03*
%TD*%
D13*
%TO.C,R14*%
X153990000Y-38575000D03*
X153990000Y-41675000D03*
%TD*%
D14*
%TO.C,C11*%
X132855811Y-61225000D03*
X127855811Y-61225000D03*
%TD*%
D18*
%TO.C,R8*%
X182969980Y-54600000D03*
X182969980Y-51500000D03*
%TD*%
D14*
%TO.C,C15*%
X151015000Y-62700000D03*
X146015000Y-62700000D03*
%TD*%
D18*
%TO.C,R12*%
X178644980Y-54675000D03*
X178644980Y-51575000D03*
%TD*%
D21*
%TO.C,H8*%
X112447569Y-73104748D03*
%TD*%
D22*
%TO.C,J8*%
X172620000Y-26425000D03*
D23*
X167540000Y-26425000D03*
X162460000Y-26425000D03*
%TD*%
D14*
%TO.C,C9*%
X165969980Y-60300000D03*
X165969980Y-65300000D03*
%TD*%
%TO.C,C10*%
X157065000Y-64950000D03*
X157065000Y-69950000D03*
%TD*%
%TO.C,C8*%
X130655811Y-64825000D03*
X130655811Y-69825000D03*
%TD*%
D13*
%TO.C,R13*%
X138465000Y-35500000D03*
X138465000Y-38600000D03*
%TD*%
%TO.C,R2*%
X141265000Y-53125000D03*
X141265000Y-56225000D03*
%TD*%
D21*
%TO.C,H7*%
X184595268Y-73160276D03*
%TD*%
D14*
%TO.C,C17*%
X171794980Y-62900000D03*
X171794980Y-57900000D03*
%TD*%
%TO.C,C13*%
X159565000Y-60575000D03*
X154565000Y-60575000D03*
%TD*%
D21*
%TO.C,H5*%
X112413566Y-23475000D03*
%TD*%
D22*
%TO.C,J6*%
X126490000Y-27275000D03*
D23*
X121410000Y-27275000D03*
%TD*%
D24*
%TO.C,R15*%
X162765000Y-36175000D03*
X159665000Y-36175000D03*
%TD*%
D19*
%TO.C,C20*%
X181675000Y-33312500D03*
X181675000Y-30187500D03*
%TD*%
D22*
%TO.C,J7*%
X147815000Y-26450000D03*
D23*
X142735000Y-26450000D03*
X137655000Y-26450000D03*
%TD*%
D21*
%TO.C,H6*%
X184575000Y-23454748D03*
%TD*%
D14*
%TO.C,C7*%
X141215000Y-59025000D03*
X141215000Y-64025000D03*
%TD*%
%TO.C,C12*%
X124230811Y-61275000D03*
X119230811Y-61275000D03*
%TD*%
%TO.C,C6*%
X114105811Y-60650000D03*
X114105811Y-65650000D03*
%TD*%
D24*
%TO.C,R16*%
X162840000Y-41100000D03*
X159740000Y-41100000D03*
%TD*%
%LPD*%
M02*
