M48
; DRILL file KiCad 10.0.1 date 2026-07-08T01:24:15
; FORMAT={-:-/ absolute / metric / decimal}
; #@! TF.CreationDate,2026-07-08T01:24:15+09:00
; #@! TF.GenerationSoftware,Kicad,Pcbnew,10.0.1
; #@! TF.FileFunction,MixedPlating,1,2
FMAT,2
METRIC
; #@! TA.AperFunction,Plated,PTH,ViaDrill
T1C0.300
; #@! TA.AperFunction,Plated,PTH,ComponentDrill
T2C0.800
; #@! TA.AperFunction,Plated,PTH,ComponentDrill
T3C1.000
; #@! TA.AperFunction,Plated,PTH,ComponentDrill
T4C1.300
; #@! TA.AperFunction,NonPlated,NPTH,ComponentDrill
T5C3.200
%
G90
G05
T1
X110.05Y-57.5
X112.05Y-45.062
X112.15Y-31.8
X116.6Y-65.2
X121.85Y-58.7
X122.3Y-34.25
X122.75Y-43.462
X123.25Y-36.887
X127.05Y-53.45
X127.05Y-56.8
X128.95Y-27.55
X131.55Y-49.45
X133.2Y-30.4
X133.85Y-40.462
X133.9Y-65.35
X134.0Y-50.625
X135.3Y-49.3
X138.15Y-45.15
X139.05Y-69.95
X139.15Y-57.85
X141.15Y-36.15
X143.7Y-65.35
X144.95Y-31.35
X146.3Y-36.212
X146.3Y-43.9
X147.85Y-53.1
X149.075Y-59.175
X149.45Y-49.5
X151.1Y-53.1
X153.45Y-33.5
X154.3Y-49.5
X154.7Y-51.45
X157.6Y-37.65
X157.6Y-47.15
X157.7Y-42.35
X159.7Y-64.825
X160.6Y-33.7
X164.0Y-53.5
X166.7Y-49.5
X168.85Y-45.637
X169.0Y-41.4
X169.95Y-31.0
X174.55Y-43.375
X176.85Y-47.25
X178.713Y-39.312
X178.8Y-35.35
X182.35Y-43.65
T2
X112.15Y-36.45
X114.15Y-36.45
X116.6Y-62.7
X116.6Y-67.7
X118.95Y-39.962
X118.95Y-42.502
X118.95Y-45.042
X118.95Y-47.582
X119.1Y-58.8
X124.1Y-58.8
X126.57Y-39.962
X126.57Y-42.502
X126.57Y-45.042
X126.57Y-47.582
X130.25Y-58.7
X130.75Y-34.562
X130.75Y-36.562
X133.95Y-62.75
X133.95Y-67.75
X135.25Y-58.7
X142.49Y-39.352
X142.49Y-41.892
X142.49Y-44.432
X142.49Y-46.972
X143.75Y-62.65
X143.75Y-67.65
X146.65Y-59.15
X150.11Y-39.352
X150.11Y-41.892
X150.11Y-44.432
X150.11Y-46.972
X151.65Y-59.15
X157.55Y-58.95
X159.75Y-62.45
X159.75Y-67.45
X162.55Y-58.95
X164.99Y-39.302
X164.99Y-41.843
X164.99Y-44.383
X164.99Y-46.922
X168.45Y-62.6
X168.45Y-67.6
X172.61Y-39.302
X172.61Y-41.843
X172.61Y-44.383
X172.61Y-46.922
X174.305Y-54.175
X174.305Y-59.175
X179.75Y-54.15
X179.75Y-59.15
X184.9Y-54.15
X184.9Y-59.15
T3
X122.841Y-63.775
X122.841Y-66.275
X125.341Y-63.775
X125.341Y-66.275
X127.841Y-63.775
X127.841Y-66.275
X148.475Y-63.775
X148.475Y-66.275
X150.975Y-63.775
X150.975Y-66.275
X153.475Y-63.775
X153.475Y-66.275
X173.98Y-63.775
X173.98Y-66.275
X176.48Y-63.775
X176.48Y-66.275
X178.98Y-63.775
X178.98Y-66.275
T4
X119.52Y-27.95
X124.6Y-27.95
X140.065Y-26.688
X145.145Y-26.688
X150.225Y-26.688
X164.87Y-26.662
X169.95Y-26.662
X175.03Y-26.662
T5
X110.35Y-23.761
X110.45Y-69.4
X186.75Y-23.45
X186.75Y-69.461
M30
