%TF.GenerationSoftware,KiCad,Pcbnew,10.0.1*%
%TF.CreationDate,2026-06-05T02:16:12+09:00*%
%TF.ProjectId,AudioCase_2_rv_panel,41756469-6f43-4617-9365-5f325f72765f,rev?*%
%TF.SameCoordinates,Original*%
%TF.FileFunction,Copper,L2,Bot*%
%TF.FilePolarity,Positive*%
%FSLAX46Y46*%
G04 Gerber Fmt 4.6, Leading zero omitted, Abs format (unit mm)*
G04 Created by KiCad (PCBNEW 10.0.1) date 2026-06-05 02:16:12*
%MOMM*%
%LPD*%
G01*
G04 APERTURE LIST*
G04 Aperture macros list*
%AMRoundRect*
0 Rectangle with rounded corners*
0 $1 Rounding radius*
0 $2 $3 $4 $5 $6 $7 $8 $9 X,Y pos of 4 corners*
0 Add a 4 corners polygon primitive as box body*
4,1,4,$2,$3,$4,$5,$6,$7,$8,$9,$2,$3,0*
0 Add four circle primitives for the rounded corners*
1,1,$1+$1,$2,$3*
1,1,$1+$1,$4,$5*
1,1,$1+$1,$6,$7*
1,1,$1+$1,$8,$9*
0 Add four rect primitives between the rounded corners*
20,1,$1+$1,$2,$3,$4,$5,0*
20,1,$1+$1,$4,$5,$6,$7,0*
20,1,$1+$1,$6,$7,$8,$9,0*
20,1,$1+$1,$8,$9,$2,$3,0*%
G04 Aperture macros list end*
%TA.AperFunction,ComponentPad*%
%ADD10C,1.600000*%
%TD*%
%TA.AperFunction,ComponentPad*%
%ADD11RoundRect,0.450000X-0.450000X0.450000X-0.450000X-0.450000X0.450000X-0.450000X0.450000X0.450000X0*%
%TD*%
%TA.AperFunction,ComponentPad*%
%ADD12C,1.800000*%
%TD*%
%TA.AperFunction,ComponentPad*%
%ADD13RoundRect,0.250000X-0.550000X-0.550000X0.550000X-0.550000X0.550000X0.550000X-0.550000X0.550000X0*%
%TD*%
%TA.AperFunction,ComponentPad*%
%ADD14RoundRect,0.250000X1.050000X1.050000X-1.050000X1.050000X-1.050000X-1.050000X1.050000X-1.050000X0*%
%TD*%
%TA.AperFunction,ComponentPad*%
%ADD15C,2.600000*%
%TD*%
%TA.AperFunction,SMDPad,CuDef*%
%ADD16RoundRect,0.250000X-0.625000X0.400000X-0.625000X-0.400000X0.625000X-0.400000X0.625000X0.400000X0*%
%TD*%
%TA.AperFunction,SMDPad,CuDef*%
%ADD17RoundRect,0.250000X-0.650000X0.412500X-0.650000X-0.412500X0.650000X-0.412500X0.650000X0.412500X0*%
%TD*%
%TA.AperFunction,ViaPad*%
%ADD18C,0.600000*%
%TD*%
%TA.AperFunction,Conductor*%
%ADD19C,0.500000*%
%TD*%
%TA.AperFunction,Conductor*%
%ADD20C,1.000000*%
%TD*%
G04 APERTURE END LIST*
D10*
%TO.P,C17,1*%
%TO.N,Net-(C16-Pad2)*%
X171669980Y-62900000D03*
%TO.P,C17,2*%
%TO.N,Net-(C17-Pad2)*%
X171669980Y-57900000D03*
%TD*%
D11*
%TO.P,RV1,1,1_1*%
%TO.N,Net-(C6-Pad1)*%
X120205811Y-70000000D03*
D12*
%TO.P,RV1,2,2_2*%
%TO.N,Net-(C6-Pad2)*%
X122705811Y-70000000D03*
%TO.P,RV1,3,3_3*%
%TO.N,Net-(C8-Pad2)*%
X125205811Y-70000000D03*
%TO.P,RV1,4,4_4*%
%TO.N,Net-(C12-Pad2)*%
X120205811Y-67500000D03*
%TO.P,RV1,5,5_5*%
%TO.N,Net-(C11-Pad2)*%
X122705811Y-67500000D03*
%TO.P,RV1,6,6_6*%
%TO.N,Net-(C11-Pad1)*%
X125205811Y-67500000D03*
%TD*%
D10*
%TO.P,C11,1*%
%TO.N,Net-(C11-Pad1)*%
X132730811Y-61225000D03*
%TO.P,C11,2*%
%TO.N,Net-(C11-Pad2)*%
X127730811Y-61225000D03*
%TD*%
%TO.P,C15,1*%
%TO.N,Net-(C13-Pad2)*%
X150890000Y-62700000D03*
%TO.P,C15,2*%
%TO.N,Net-(C15-Pad2)*%
X145890000Y-62700000D03*
%TD*%
%TO.P,C13,1*%
%TO.N,Net-(C13-Pad1)*%
X159440000Y-60575000D03*
%TO.P,C13,2*%
%TO.N,Net-(C13-Pad2)*%
X154440000Y-60575000D03*
%TD*%
D13*
%TO.P,U2,1*%
%TO.N,Net-(R13-Pad1)*%
X141905000Y-35990000D03*
D10*
%TO.P,U2,2,-_2*%
%TO.N,/EQModule/R_BAX_SUM*%
X141905000Y-38530000D03*
%TO.P,U2,3,+_3*%
%TO.N,GND*%
X141905000Y-41070000D03*
%TO.P,U2,4,V-_4*%
%TO.N,/Controll/AMP_V-_IN*%
X141905000Y-43610000D03*
%TO.P,U2,5,+_5*%
%TO.N,GND*%
X149525000Y-43610000D03*
%TO.P,U2,6,-_6*%
%TO.N,/EQModule/L_BAX_SUM*%
X149525000Y-41070000D03*
%TO.P,U2,7*%
%TO.N,Net-(R14-Pad1)*%
X149525000Y-38530000D03*
%TO.P,U2,8,V+_8*%
%TO.N,/Controll/AMP_V+_IN*%
X149525000Y-35990000D03*
%TD*%
D11*
%TO.P,RV2,1,1_1*%
%TO.N,Net-(C7-Pad1)*%
X145840000Y-70000000D03*
D12*
%TO.P,RV2,2,2_2*%
%TO.N,Net-(C10-Pad1)*%
X148340000Y-70000000D03*
%TO.P,RV2,3,3_3*%
%TO.N,Net-(C10-Pad2)*%
X150840000Y-70000000D03*
%TO.P,RV2,4,4_4*%
%TO.N,Net-(C15-Pad2)*%
X145840000Y-67500000D03*
%TO.P,RV2,5,5_5*%
%TO.N,Net-(C13-Pad2)*%
X148340000Y-67500000D03*
%TO.P,RV2,6,6_6*%
%TO.N,Net-(C13-Pad1)*%
X150840000Y-67500000D03*
%TD*%
D14*
%TO.P,J6,1,Pin_1_1*%
%TO.N,/EQModule/R_IN*%
X126760000Y-26580000D03*
D15*
%TO.P,J6,2,Pin_2_2*%
%TO.N,/EQModule/L_IN*%
X121680000Y-26580000D03*
%TD*%
D14*
%TO.P,J7,1,Pin_1_1*%
%TO.N,/Controll/AMP_V+_IN*%
X147690000Y-26450000D03*
D15*
%TO.P,J7,2,Pin_2_2*%
%TO.N,GND*%
X142610000Y-26450000D03*
%TO.P,J7,3,Pin_3_3*%
%TO.N,/Controll/AMP_V-_IN*%
X137530000Y-26450000D03*
%TD*%
D10*
%TO.P,C14,1*%
%TO.N,Net-(C14-Pad1)*%
X182844980Y-57900000D03*
%TO.P,C14,2*%
%TO.N,Net-(C14-Pad2)*%
X182844980Y-62900000D03*
%TD*%
%TO.P,C12,1*%
%TO.N,Net-(C11-Pad2)*%
X124105811Y-61275000D03*
%TO.P,C12,2*%
%TO.N,Net-(C12-Pad2)*%
X119105811Y-61275000D03*
%TD*%
%TO.P,C16,1*%
%TO.N,Net-(C16-Pad1)*%
X177257480Y-62900000D03*
%TO.P,C16,2*%
%TO.N,Net-(C16-Pad2)*%
X177257480Y-57900000D03*
%TD*%
%TO.P,C9,1*%
%TO.N,Net-(C9-Pad1)*%
X165844980Y-60300000D03*
%TO.P,C9,2*%
%TO.N,Net-(C14-Pad1)*%
X165844980Y-65300000D03*
%TD*%
%TO.P,C7,1*%
%TO.N,Net-(C7-Pad1)*%
X141090000Y-59025000D03*
%TO.P,C7,2*%
%TO.N,Net-(C10-Pad1)*%
X141090000Y-64025000D03*
%TD*%
D13*
%TO.P,U3,1*%
%TO.N,/Controll/R_IN*%
X169970000Y-35635000D03*
D10*
%TO.P,U3,2,-_2*%
%TO.N,Net-(U3A--)*%
X169970000Y-38175000D03*
%TO.P,U3,3,+_3*%
%TO.N,GND*%
X169970000Y-40715000D03*
%TO.P,U3,4,V-_4*%
%TO.N,/Controll/AMP_V-_IN*%
X169970000Y-43255000D03*
%TO.P,U3,5,+_5*%
%TO.N,GND*%
X177590000Y-43255000D03*
%TO.P,U3,6,-_6*%
%TO.N,Net-(U3B--)*%
X177590000Y-40715000D03*
%TO.P,U3,7*%
%TO.N,/Controll/L_IN*%
X177590000Y-38175000D03*
%TO.P,U3,8,V+_8*%
%TO.N,/Controll/AMP_V+_IN*%
X177590000Y-35635000D03*
%TD*%
D11*
%TO.P,RV3,1,1_1*%
%TO.N,Net-(C9-Pad1)*%
X171344980Y-70000000D03*
D12*
%TO.P,RV3,2,2_2*%
%TO.N,Net-(C14-Pad1)*%
X173844980Y-70000000D03*
%TO.P,RV3,3,3_3*%
%TO.N,Net-(C14-Pad2)*%
X176344980Y-70000000D03*
%TO.P,RV3,4,4_4*%
%TO.N,Net-(C17-Pad2)*%
X171344980Y-67500000D03*
%TO.P,RV3,5,5_5*%
%TO.N,Net-(C16-Pad2)*%
X173844980Y-67500000D03*
%TO.P,RV3,6,6_6*%
%TO.N,Net-(C16-Pad1)*%
X176344980Y-67500000D03*
%TD*%
D10*
%TO.P,C8,1*%
%TO.N,Net-(C6-Pad2)*%
X130530811Y-64825000D03*
%TO.P,C8,2*%
%TO.N,Net-(C8-Pad2)*%
X130530811Y-69825000D03*
%TD*%
%TO.P,C6,1*%
%TO.N,Net-(C6-Pad1)*%
X113980811Y-60650000D03*
%TO.P,C6,2*%
%TO.N,Net-(C6-Pad2)*%
X113980811Y-65650000D03*
%TD*%
D14*
%TO.P,J8,1,Pin_1_1*%
%TO.N,/Controll/L_IN*%
X172520000Y-26200000D03*
D15*
%TO.P,J8,2,Pin_2_2*%
%TO.N,GND*%
X167440000Y-26200000D03*
%TO.P,J8,3,Pin_3_3*%
%TO.N,/Controll/R_IN*%
X162360000Y-26200000D03*
%TD*%
D10*
%TO.P,C10,1*%
%TO.N,Net-(C10-Pad1)*%
X156940000Y-64950000D03*
%TO.P,C10,2*%
%TO.N,Net-(C10-Pad2)*%
X156940000Y-69950000D03*
%TD*%
D16*
%TO.P,R17,1*%
%TO.N,/Controll/R_IN*%
X173890000Y-36600000D03*
%TO.P,R17,2*%
%TO.N,Net-(U3A--)*%
X173890000Y-39700000D03*
%TD*%
D17*
%TO.P,C19,1*%
%TO.N,GND*%
X145640000Y-38697500D03*
%TO.P,C19,2*%
%TO.N,/Controll/AMP_V-_IN*%
X145640000Y-41822500D03*
%TD*%
D18*
%TO.N,Net-(C6-Pad2)*%
X130530811Y-58575000D03*
%TO.N,/EQModule/R_BAX_SUM*%
X152590000Y-50350000D03*
X152565000Y-48550000D03*
X134630000Y-47650000D03*
X134630811Y-49550000D03*
X147350000Y-47080000D03*
X148820000Y-48550000D03*
%TO.N,/EQModule/L_BAX_SUM*%
X163865000Y-50675000D03*
X178519980Y-49729980D03*
X178515000Y-47300000D03*
X138342500Y-48122500D03*
X163860000Y-47200000D03*
X137147500Y-49317500D03*
%TO.N,GND*%
X179427500Y-30187500D03*
X153950000Y-29090000D03*
X183662500Y-42392500D03*
%TO.N,/Controll/AMP_V+_IN*%
X181610000Y-35635000D03*
%TO.N,Net-(C10-Pad1)*%
X156965000Y-58400000D03*
%TO.N,/EQModule/R_IN*%
X141090000Y-51275000D03*
X114040000Y-52125000D03*
X162665000Y-52250000D03*
%TD*%
%TO.N,Net-(C6-Pad2)*%
D19*
X124055811Y-71350000D02*
X125765000Y-71350000D01*
X125765000Y-71350000D02*
X130530811Y-66584189D01*
X130530811Y-64825000D02*
X130530811Y-58575000D01*
X122705811Y-70000000D02*
X124055811Y-71350000D01*
X130530811Y-66584189D02*
X130530811Y-64825000D01*
%TO.N,/EQModule/R_BAX_SUM*%
X134630811Y-49550000D02*
X134630811Y-47650811D01*
X152590000Y-48575000D02*
X152565000Y-48550000D01*
X134630811Y-47650811D02*
X134630000Y-47650000D01*
X147350000Y-47080000D02*
X148820000Y-48550000D01*
X152590000Y-50350000D02*
X152590000Y-48575000D01*
%TO.N,/EQModule/L_BAX_SUM*%
X163860000Y-47200000D02*
X163860000Y-47595000D01*
X138342500Y-48122500D02*
X137147500Y-49317500D01*
X178515000Y-49725000D02*
X178515000Y-47300000D01*
X163865000Y-47600000D02*
X163865000Y-50675000D01*
X178519980Y-49729980D02*
X178515000Y-49725000D01*
X163860000Y-47595000D02*
X163865000Y-47600000D01*
%TO.N,/Controll/AMP_V-_IN*%
D20*
X143405000Y-45110000D02*
X168115000Y-45110000D01*
X135815000Y-39925000D02*
X139500000Y-43610000D01*
X141905000Y-43610000D02*
X143405000Y-45110000D01*
X137530000Y-26450000D02*
X135815000Y-28165000D01*
X145640000Y-41822500D02*
X143692500Y-41822500D01*
X135815000Y-28165000D02*
X135815000Y-39925000D01*
X168115000Y-45110000D02*
X169970000Y-43255000D01*
X139500000Y-43610000D02*
X141905000Y-43610000D01*
X143692500Y-41822500D02*
X141905000Y-43610000D01*
%TO.N,/Controll/AMP_V+_IN*%
X147690000Y-34155000D02*
X149525000Y-35990000D01*
X176090000Y-34135000D02*
X177590000Y-35635000D01*
X147690000Y-26450000D02*
X147690000Y-34155000D01*
X181610000Y-35635000D02*
X177590000Y-35635000D01*
X151380000Y-34135000D02*
X176090000Y-34135000D01*
X149525000Y-35990000D02*
X151380000Y-34135000D01*
%TO.N,Net-(C10-Pad1)*%
D19*
X156940000Y-58425000D02*
X156965000Y-58400000D01*
X156940000Y-65809189D02*
X156940000Y-64950000D01*
X151399189Y-71350000D02*
X156940000Y-65809189D01*
X149690000Y-71350000D02*
X151399189Y-71350000D01*
X156940000Y-64950000D02*
X156940000Y-58425000D01*
X148340000Y-70000000D02*
X149690000Y-71350000D01*
%TO.N,/EQModule/R_IN*%
X126760000Y-26580000D02*
X122590000Y-30750000D01*
X122590000Y-30750000D02*
X122590000Y-50625000D01*
X122590000Y-50625000D02*
X123715000Y-51750000D01*
X122565000Y-43600000D02*
X122590000Y-43600000D01*
X141090000Y-51275000D02*
X161690000Y-51275000D01*
X114040000Y-52125000D02*
X122565000Y-43600000D01*
X140615000Y-51750000D02*
X141090000Y-51275000D01*
X123715000Y-51750000D02*
X140615000Y-51750000D01*
X161690000Y-51275000D02*
X162665000Y-52250000D01*
X162665000Y-52250000D02*
X162690000Y-52275000D01*
%TO.N,Net-(C14-Pad1)*%
X176904169Y-71350000D02*
X179969980Y-68284189D01*
X175194980Y-71350000D02*
X176904169Y-71350000D01*
X179969980Y-60850000D02*
X182844980Y-57975000D01*
X179969980Y-68284189D02*
X179969980Y-60850000D01*
X173844980Y-70000000D02*
X175194980Y-71350000D01*
%TO.N,/Controll/R_IN*%
X170935000Y-36600000D02*
X169970000Y-35635000D01*
X173890000Y-36600000D02*
X170935000Y-36600000D01*
%TO.N,Net-(U3A--)*%
X173890000Y-39700000D02*
X171495000Y-39700000D01*
X171495000Y-39700000D02*
X169970000Y-38175000D01*
%TD*%
%TA.AperFunction,Conductor*%
%TO.N,GND*%
G36*
X168612539Y-35155185D02*
G01*
X168658294Y-35207989D01*
X168669500Y-35259500D01*
X168669500Y-36235001D01*
X168669501Y-36235019D01*
X168680000Y-36337796D01*
X168680001Y-36337799D01*
X168727856Y-36482213D01*
X168735186Y-36504334D01*
X168827288Y-36653656D01*
X168951344Y-36777712D01*
X169100666Y-36869814D01*
X169182570Y-36896954D01*
X169240015Y-36936727D01*
X169266838Y-37001243D01*
X169254523Y-37070018D01*
X169216451Y-37114978D01*
X169122787Y-37183028D01*
X169122782Y-37183032D01*
X168978028Y-37327786D01*
X168857715Y-37493386D01*
X168764781Y-37675776D01*
X168701522Y-37870465D01*
X168669500Y-38072648D01*
X168669500Y-38277351D01*
X168701522Y-38479534D01*
X168764781Y-38674223D01*
X168828691Y-38799653D01*
X168846468Y-38834541D01*
X168857715Y-38856613D01*
X168978028Y-39022213D01*
X169122786Y-39166971D01*
X169288385Y-39287284D01*
X169288387Y-39287285D01*
X169288390Y-39287287D01*
X169381080Y-39334515D01*
X169381630Y-39334795D01*
X169432426Y-39382770D01*
X169449221Y-39450591D01*
X169426684Y-39516725D01*
X169381630Y-39555765D01*
X169288644Y-39603143D01*
X169244077Y-39635523D01*
X169244077Y-39635524D01*
X169923554Y-40315000D01*
X169917339Y-40315000D01*
X169815606Y-40342259D01*
X169724394Y-40394920D01*
X169649920Y-40469394D01*
X169597259Y-40560606D01*
X169570000Y-40662339D01*
X169570000Y-40668553D01*
X168890524Y-39989077D01*
X168890523Y-39989077D01*
X168858143Y-40033644D01*
X168765244Y-40215968D01*
X168702009Y-40410582D01*
X168670000Y-40612682D01*
X168670000Y-40817317D01*
X168702009Y-41019417D01*
X168765244Y-41214031D01*
X168858141Y-41396350D01*
X168858147Y-41396359D01*
X168890523Y-41440921D01*
X168890524Y-41440922D01*
X169570000Y-40761446D01*
X169570000Y-40767661D01*
X169597259Y-40869394D01*
X169649920Y-40960606D01*
X169724394Y-41035080D01*
X169815606Y-41087741D01*
X169917339Y-41115000D01*
X169923553Y-41115000D01*
X169244076Y-41794474D01*
X169288652Y-41826861D01*
X169381628Y-41874234D01*
X169432425Y-41922208D01*
X169449220Y-41990029D01*
X169426683Y-42056164D01*
X169381630Y-42095203D01*
X169288388Y-42142713D01*
X169122786Y-42263028D01*
X168978028Y-42407786D01*
X168857715Y-42573386D01*
X168764781Y-42755778D01*
X168701522Y-42950468D01*
X168678073Y-43098515D01*
X168648143Y-43161649D01*
X168643281Y-43166797D01*
X167736899Y-44073181D01*
X167675576Y-44106666D01*
X167649218Y-44109500D01*
X150900276Y-44109500D01*
X150833237Y-44089815D01*
X150787482Y-44037011D01*
X150777538Y-43967853D01*
X150782345Y-43947183D01*
X150792988Y-43914425D01*
X150792989Y-43914418D01*
X150825000Y-43712317D01*
X150825000Y-43507682D01*
X150792990Y-43305582D01*
X150729755Y-43110968D01*
X150636859Y-42928650D01*
X150604474Y-42884077D01*
X150604474Y-42884076D01*
X149925000Y-43563551D01*
X149925000Y-43557339D01*
X149897741Y-43455606D01*
X149845080Y-43364394D01*
X149770606Y-43289920D01*
X149679394Y-43237259D01*
X149577661Y-43210000D01*
X149571446Y-43210000D01*
X150250922Y-42530524D01*
X150250921Y-42530523D01*
X150206359Y-42498147D01*
X150206350Y-42498141D01*
X150113369Y-42450765D01*
X150062573Y-42402790D01*
X150045778Y-42334969D01*
X150068315Y-42268835D01*
X150113370Y-42229795D01*
X150114471Y-42229234D01*
X150206610Y-42182287D01*
X150261079Y-42142713D01*
X150372213Y-42061971D01*
X150372215Y-42061968D01*
X150372219Y-42061966D01*
X150516966Y-41917219D01*
X150516968Y-41917215D01*
X150516971Y-41917213D01*
X150582305Y-41827287D01*
X150637287Y-41751610D01*
X150730220Y-41569219D01*
X150793477Y-41374534D01*
X150825500Y-41172352D01*
X150825500Y-40967648D01*
X150793477Y-40765466D01*
X150793476Y-40765462D01*
X150793476Y-40765461D01*
X150754704Y-40646134D01*
X150736439Y-40589921D01*
X150730220Y-40570781D01*
X150730218Y-40570778D01*
X150730218Y-40570776D01*
X150696503Y-40504607D01*
X150637287Y-40388390D01*
X150605092Y-40344077D01*
X150516971Y-40222786D01*
X150372213Y-40078028D01*
X150206614Y-39957715D01*
X150200006Y-39954348D01*
X150113917Y-39910483D01*
X150063123Y-39862511D01*
X150046328Y-39794690D01*
X150068865Y-39728555D01*
X150113917Y-39689516D01*
X150206610Y-39642287D01*
X150261077Y-39602715D01*
X150372213Y-39521971D01*
X150372215Y-39521968D01*
X150372219Y-39521966D01*
X150516966Y-39377219D01*
X150516968Y-39377215D01*
X150516971Y-39377213D01*
X150600170Y-39262697D01*
X150637287Y-39211610D01*
X150730220Y-39029219D01*
X150793477Y-38834534D01*
X150825500Y-38632352D01*
X150825500Y-38427648D01*
X150797563Y-38251262D01*
X150793477Y-38225465D01*
X150730218Y-38030776D01*
X150648535Y-37870466D01*
X150637287Y-37848390D01*
X150614230Y-37816654D01*
X150516971Y-37682786D01*
X150372213Y-37538028D01*
X150206614Y-37417715D01*
X150166714Y-37397385D01*
X150113917Y-37370483D01*
X150063123Y-37322511D01*
X150046328Y-37254690D01*
X150068865Y-37188555D01*
X150113917Y-37149516D01*
X150206610Y-37102287D01*
X150261077Y-37062715D01*
X150372213Y-36981971D01*
X150372215Y-36981968D01*
X150372219Y-36981966D01*
X150516966Y-36837219D01*
X150516968Y-36837215D01*
X150516971Y-36837213D01*
X150621892Y-36692799D01*
X150637287Y-36671610D01*
X150730220Y-36489219D01*
X150793477Y-36294534D01*
X150816925Y-36146483D01*
X150846854Y-36083350D01*
X150851699Y-36078219D01*
X151758101Y-35171819D01*
X151819424Y-35138334D01*
X151845782Y-35135500D01*
X168545500Y-35135500D01*
X168612539Y-35155185D01*
G37*
%TD.AperFunction*%
%TA.AperFunction,Conductor*%
G36*
X180843039Y-20520185D02*
G01*
X180888794Y-20572989D01*
X180900000Y-20624500D01*
X180900000Y-27004748D01*
X187540500Y-27004748D01*
X187607539Y-27024433D01*
X187653294Y-27077237D01*
X187664500Y-27128748D01*
X187664500Y-69480748D01*
X187644815Y-69547787D01*
X187592011Y-69593542D01*
X187540500Y-69604748D01*
X180920268Y-69604748D01*
X180920268Y-75978881D01*
X180900583Y-76045920D01*
X180847779Y-76091675D01*
X180796275Y-76102881D01*
X115704007Y-76106637D01*
X115636967Y-76086956D01*
X115591209Y-76034155D01*
X115580000Y-75982637D01*
X115580000Y-69604748D01*
X109459500Y-69604748D01*
X109392461Y-69585063D01*
X109346706Y-69532259D01*
X109335500Y-69480748D01*
X109335500Y-67389778D01*
X118805311Y-67389778D01*
X118805311Y-67610221D01*
X118839796Y-67827952D01*
X118907914Y-68037603D01*
X118907915Y-68037606D01*
X119007998Y-68234025D01*
X119137563Y-68412358D01*
X119137567Y-68412363D01*
X119273171Y-68547967D01*
X119306656Y-68609290D01*
X119301672Y-68678982D01*
X119259800Y-68734915D01*
X119242908Y-68745554D01*
X119230060Y-68752265D01*
X119080239Y-68874428D01*
X118958076Y-69024250D01*
X118868573Y-69195594D01*
X118815393Y-69381451D01*
X118805311Y-69494863D01*
X118805311Y-70505136D01*
X118815393Y-70618548D01*
X118868573Y-70804405D01*
X118937985Y-70937287D01*
X118958077Y-70975751D01*
X119002489Y-71030218D01*
X119080239Y-71125571D01*
X119116601Y-71155220D01*
X119230060Y-71247734D01*
X119401405Y-71337237D01*
X119587259Y-71390417D01*
X119700673Y-71400500D01*
X119700681Y-71400500D01*
X120710941Y-71400500D01*
X120710949Y-71400500D01*
X120824363Y-71390417D01*
X121010217Y-71337237D01*
X121181562Y-71247734D01*
X121331382Y-71125571D01*
X121453545Y-70975751D01*
X121460253Y-70962910D01*
X121508739Y-70912602D01*
X121576726Y-70896494D01*
X121642630Y-70919700D01*
X121657843Y-70932639D01*
X121793447Y-71068243D01*
X121793452Y-71068247D01*
X121949003Y-71181260D01*
X121971789Y-71197815D01*
X122069760Y-71247734D01*
X122168204Y-71297895D01*
X122168207Y-71297896D01*
X122273032Y-71331955D01*
X122377860Y-71366015D01*
X122595589Y-71400500D01*
X122595590Y-71400500D01*
X122816031Y-71400500D01*
X122816033Y-71400500D01*
X122951242Y-71379084D01*
X123020533Y-71388038D01*
X123058319Y-71413876D01*
X123577391Y-71932948D01*
X123577395Y-71932951D01*
X123700309Y-72015080D01*
X123700322Y-72015087D01*
X123836893Y-72071656D01*
X123836898Y-72071658D01*
X123836902Y-72071658D01*
X123836903Y-72071659D01*
X123981890Y-72100500D01*
X123981893Y-72100500D01*
X125838920Y-72100500D01*
X125936462Y-72081096D01*
X125983913Y-72071658D01*
X126120495Y-72015084D01*
X126169729Y-71982186D01*
X126243416Y-71932952D01*
X129328774Y-68847592D01*
X129390097Y-68814108D01*
X129459789Y-68819092D01*
X129515722Y-68860964D01*
X129540139Y-68926428D01*
X129525287Y-68994701D01*
X129516774Y-69008159D01*
X129418523Y-69143390D01*
X129325592Y-69325776D01*
X129262333Y-69520465D01*
X129230311Y-69722648D01*
X129230311Y-69927351D01*
X129262333Y-70129534D01*
X129325592Y-70324223D01*
X129418526Y-70506613D01*
X129538839Y-70672213D01*
X129683597Y-70816971D01*
X129824994Y-70919700D01*
X129849201Y-70937287D01*
X129924687Y-70975749D01*
X130031587Y-71030218D01*
X130031589Y-71030218D01*
X130031592Y-71030220D01*
X130130275Y-71062284D01*
X130226276Y-71093477D01*
X130327368Y-71109488D01*
X130428459Y-71125500D01*
X130428460Y-71125500D01*
X130633162Y-71125500D01*
X130633163Y-71125500D01*
X130835345Y-71093477D01*
X131030030Y-71030220D01*
X131212421Y-70937287D01*
X131305401Y-70869732D01*
X131378024Y-70816971D01*
X131378026Y-70816968D01*
X131378030Y-70816966D01*
X131522777Y-70672219D01*
X131522779Y-70672215D01*
X131522782Y-70672213D01*
X131575543Y-70599590D01*
X131643098Y-70506610D01*
X131736031Y-70324219D01*
X131799288Y-70129534D01*
X131831311Y-69927352D01*
X131831311Y-69722648D01*
X131799288Y-69520466D01*
X131736031Y-69325781D01*
X131736029Y-69325778D01*
X131736029Y-69325776D01*
X131696589Y-69248372D01*
X131643098Y-69143390D01*
X131612188Y-69100845D01*
X131522782Y-68977786D01*
X131378024Y-68833028D01*
X131212424Y-68712715D01*
X131212423Y-68712714D01*
X131212421Y-68712713D01*
X131146220Y-68678982D01*
X131030034Y-68619781D01*
X130835345Y-68556522D01*
X130660806Y-68528878D01*
X130633163Y-68524500D01*
X130428459Y-68524500D01*
X130404140Y-68528351D01*
X130226276Y-68556522D01*
X130031587Y-68619781D01*
X129849198Y-68712714D01*
X129713968Y-68810963D01*
X129648162Y-68834442D01*
X129580108Y-68818616D01*
X129531414Y-68768510D01*
X129517539Y-68700031D01*
X129542889Y-68634923D01*
X129553393Y-68622973D01*
X130786589Y-67389778D01*
X144439500Y-67389778D01*
X144439500Y-67610221D01*
X144473985Y-67827952D01*
X144542103Y-68037603D01*
X144542104Y-68037606D01*
X144642187Y-68234025D01*
X144771752Y-68412358D01*
X144771756Y-68412363D01*
X144907360Y-68547967D01*
X144940845Y-68609290D01*
X144935861Y-68678982D01*
X144893989Y-68734915D01*
X144877097Y-68745554D01*
X144864249Y-68752265D01*
X144714428Y-68874428D01*
X144592265Y-69024250D01*
X144502762Y-69195594D01*
X144449582Y-69381451D01*
X144439500Y-69494863D01*
X144439500Y-70505136D01*
X144449582Y-70618548D01*
X144502762Y-70804405D01*
X144572174Y-70937287D01*
X144592266Y-70975751D01*
X144636678Y-71030218D01*
X144714428Y-71125571D01*
X144750790Y-71155220D01*
X144864249Y-71247734D01*
X145035594Y-71337237D01*
X145221448Y-71390417D01*
X145334862Y-71400500D01*
X145334870Y-71400500D01*
X146345130Y-71400500D01*
X146345138Y-71400500D01*
X146458552Y-71390417D01*
X146644406Y-71337237D01*
X146815751Y-71247734D01*
X146965571Y-71125571D01*
X147087734Y-70975751D01*
X147094442Y-70962910D01*
X147142928Y-70912602D01*
X147210915Y-70896494D01*
X147276819Y-70919700D01*
X147292032Y-70932639D01*
X147427636Y-71068243D01*
X147427641Y-71068247D01*
X147583192Y-71181260D01*
X147605978Y-71197815D01*
X147703949Y-71247734D01*
X147802393Y-71297895D01*
X147802396Y-71297896D01*
X147907221Y-71331955D01*
X148012049Y-71366015D01*
X148229778Y-71400500D01*
X148229779Y-71400500D01*
X148450220Y-71400500D01*
X148450222Y-71400500D01*
X148585431Y-71379084D01*
X148654722Y-71388038D01*
X148692508Y-71413876D01*
X149211580Y-71932948D01*
X149211584Y-71932951D01*
X149334498Y-72015080D01*
X149334511Y-72015087D01*
X149471082Y-72071656D01*
X149471087Y-72071658D01*
X149471091Y-72071658D01*
X149471092Y-72071659D01*
X149616079Y-72100500D01*
X149616082Y-72100500D01*
X151473109Y-72100500D01*
X151570651Y-72081096D01*
X151618102Y-72071658D01*
X151754684Y-72015084D01*
X151803918Y-71982186D01*
X151877605Y-71932952D01*
X153962909Y-69847648D01*
X155639500Y-69847648D01*
X155639500Y-70052351D01*
X155671522Y-70254534D01*
X155734781Y-70449223D01*
X155827715Y-70631613D01*
X155948028Y-70797213D01*
X156092786Y-70941971D01*
X156214250Y-71030218D01*
X156258390Y-71062287D01*
X156374607Y-71121503D01*
X156440776Y-71155218D01*
X156440778Y-71155218D01*
X156440781Y-71155220D01*
X156545137Y-71189127D01*
X156635465Y-71218477D01*
X156736557Y-71234488D01*
X156837648Y-71250500D01*
X156837649Y-71250500D01*
X157042351Y-71250500D01*
X157042352Y-71250500D01*
X157244534Y-71218477D01*
X157439219Y-71155220D01*
X157621610Y-71062287D01*
X157740718Y-70975751D01*
X157787213Y-70941971D01*
X157787215Y-70941968D01*
X157787219Y-70941966D01*
X157931966Y-70797219D01*
X157931968Y-70797215D01*
X157931971Y-70797213D01*
X158022787Y-70672213D01*
X158052287Y-70631610D01*
X158145220Y-70449219D01*
X158208477Y-70254534D01*
X158240500Y-70052352D01*
X158240500Y-69847648D01*
X158208477Y-69645466D01*
X158145220Y-69450781D01*
X158145218Y-69450778D01*
X158145218Y-69450776D01*
X158081529Y-69325781D01*
X158052287Y-69268390D01*
X158033399Y-69242393D01*
X157931971Y-69102786D01*
X157787213Y-68958028D01*
X157621613Y-68837715D01*
X157621612Y-68837714D01*
X157621610Y-68837713D01*
X157564653Y-68808691D01*
X157439223Y-68744781D01*
X157244534Y-68681522D01*
X157069995Y-68653878D01*
X157042352Y-68649500D01*
X156837648Y-68649500D01*
X156813329Y-68653351D01*
X156635465Y-68681522D01*
X156440776Y-68744781D01*
X156258386Y-68837715D01*
X156092786Y-68958028D01*
X155948028Y-69102786D01*
X155827715Y-69268386D01*
X155734781Y-69450776D01*
X155671522Y-69645465D01*
X155639500Y-69847648D01*
X153962909Y-69847648D01*
X155262591Y-68547966D01*
X156420780Y-67389778D01*
X169944480Y-67389778D01*
X169944480Y-67610221D01*
X169978965Y-67827952D01*
X170047083Y-68037603D01*
X170047084Y-68037606D01*
X170147167Y-68234025D01*
X170276732Y-68412358D01*
X170276736Y-68412363D01*
X170412340Y-68547967D01*
X170445825Y-68609290D01*
X170440841Y-68678982D01*
X170398969Y-68734915D01*
X170382077Y-68745554D01*
X170369229Y-68752265D01*
X170219408Y-68874428D01*
X170097245Y-69024250D01*
X170007742Y-69195594D01*
X169954562Y-69381451D01*
X169944480Y-69494863D01*
X169944480Y-70505136D01*
X169954562Y-70618548D01*
X170007742Y-70804405D01*
X170077154Y-70937287D01*
X170097246Y-70975751D01*
X170141658Y-71030218D01*
X170219408Y-71125571D01*
X170255770Y-71155220D01*
X170369229Y-71247734D01*
X170540574Y-71337237D01*
X170726428Y-71390417D01*
X170839842Y-71400500D01*
X170839850Y-71400500D01*
X171850110Y-71400500D01*
X171850118Y-71400500D01*
X171963532Y-71390417D01*
X172149386Y-71337237D01*
X172320731Y-71247734D01*
X172470551Y-71125571D01*
X172592714Y-70975751D01*
X172599422Y-70962910D01*
X172647908Y-70912602D01*
X172715895Y-70896494D01*
X172781799Y-70919700D01*
X172797012Y-70932639D01*
X172932616Y-71068243D01*
X172932621Y-71068247D01*
X173088172Y-71181260D01*
X173110958Y-71197815D01*
X173208929Y-71247734D01*
X173307373Y-71297895D01*
X173307376Y-71297896D01*
X173412201Y-71331955D01*
X173517029Y-71366015D01*
X173734758Y-71400500D01*
X173734759Y-71400500D01*
X173955200Y-71400500D01*
X173955202Y-71400500D01*
X174090411Y-71379084D01*
X174159702Y-71388038D01*
X174197488Y-71413876D01*
X174716560Y-71932948D01*
X174716564Y-71932951D01*
X174839478Y-72015080D01*
X174839491Y-72015087D01*
X174976062Y-72071656D01*
X174976067Y-72071658D01*
X174976071Y-72071658D01*
X174976072Y-72071659D01*
X175121059Y-72100500D01*
X175121062Y-72100500D01*
X176978089Y-72100500D01*
X177075631Y-72081096D01*
X177123082Y-72071658D01*
X177259664Y-72015084D01*
X177308898Y-71982186D01*
X177382585Y-71932952D01*
X180552931Y-68762605D01*
X180635064Y-68639684D01*
X180643309Y-68619780D01*
X180664656Y-68568242D01*
X180691638Y-68503102D01*
X180692156Y-68500500D01*
X180720480Y-68358107D01*
X180720480Y-62797648D01*
X181544480Y-62797648D01*
X181544480Y-63002351D01*
X181576502Y-63204534D01*
X181639761Y-63399223D01*
X181732695Y-63581613D01*
X181853008Y-63747213D01*
X181997766Y-63891971D01*
X182115883Y-63977786D01*
X182163370Y-64012287D01*
X182279587Y-64071503D01*
X182345756Y-64105218D01*
X182345758Y-64105218D01*
X182345761Y-64105220D01*
X182450117Y-64139127D01*
X182540445Y-64168477D01*
X182641537Y-64184488D01*
X182742628Y-64200500D01*
X182742629Y-64200500D01*
X182947331Y-64200500D01*
X182947332Y-64200500D01*
X183149514Y-64168477D01*
X183344199Y-64105220D01*
X183526590Y-64012287D01*
X183649969Y-63922648D01*
X183692193Y-63891971D01*
X183692195Y-63891968D01*
X183692199Y-63891966D01*
X183836946Y-63747219D01*
X183836948Y-63747215D01*
X183836951Y-63747213D01*
X183889712Y-63674590D01*
X183957267Y-63581610D01*
X184050200Y-63399219D01*
X184113457Y-63204534D01*
X184145480Y-63002352D01*
X184145480Y-62797648D01*
X184113457Y-62595466D01*
X184050200Y-62400781D01*
X184050198Y-62400778D01*
X184050198Y-62400776D01*
X183982020Y-62266971D01*
X183957267Y-62218390D01*
X183944470Y-62200776D01*
X183836951Y-62052786D01*
X183692193Y-61908028D01*
X183526593Y-61787715D01*
X183526592Y-61787714D01*
X183526590Y-61787713D01*
X183462988Y-61755306D01*
X183344203Y-61694781D01*
X183149514Y-61631522D01*
X182974975Y-61603878D01*
X182947332Y-61599500D01*
X182742628Y-61599500D01*
X182718309Y-61603351D01*
X182540445Y-61631522D01*
X182345756Y-61694781D01*
X182163366Y-61787715D01*
X181997766Y-61908028D01*
X181853008Y-62052786D01*
X181732695Y-62218386D01*
X181639761Y-62400776D01*
X181576502Y-62595465D01*
X181544480Y-62797648D01*
X180720480Y-62797648D01*
X180720480Y-61212229D01*
X180740165Y-61145190D01*
X180756794Y-61124553D01*
X182644934Y-59236412D01*
X182706255Y-59202929D01*
X182737756Y-59200789D01*
X182737756Y-59200500D01*
X182742024Y-59200500D01*
X182742348Y-59200478D01*
X182742627Y-59200500D01*
X182742628Y-59200500D01*
X182947331Y-59200500D01*
X182947332Y-59200500D01*
X183149514Y-59168477D01*
X183344199Y-59105220D01*
X183526590Y-59012287D01*
X183649969Y-58922648D01*
X183692193Y-58891971D01*
X183692195Y-58891968D01*
X183692199Y-58891966D01*
X183836946Y-58747219D01*
X183836948Y-58747215D01*
X183836951Y-58747213D01*
X183940619Y-58604524D01*
X183957267Y-58581610D01*
X184050200Y-58399219D01*
X184113457Y-58204534D01*
X184145480Y-58002352D01*
X184145480Y-57797648D01*
X184118969Y-57630264D01*
X184113457Y-57595465D01*
X184050198Y-57400776D01*
X184016483Y-57334607D01*
X183957267Y-57218390D01*
X183949536Y-57207749D01*
X183836951Y-57052786D01*
X183692193Y-56908028D01*
X183526593Y-56787715D01*
X183526592Y-56787714D01*
X183526590Y-56787713D01*
X183469633Y-56758691D01*
X183344203Y-56694781D01*
X183149514Y-56631522D01*
X182974975Y-56603878D01*
X182947332Y-56599500D01*
X182742628Y-56599500D01*
X182718309Y-56603351D01*
X182540445Y-56631522D01*
X182345756Y-56694781D01*
X182163366Y-56787715D01*
X181997766Y-56908028D01*
X181853008Y-57052786D01*
X181732695Y-57218386D01*
X181639761Y-57400776D01*
X181576502Y-57595465D01*
X181544480Y-57797648D01*
X181544480Y-58002357D01*
X181563552Y-58122771D01*
X181554598Y-58192064D01*
X181528760Y-58229850D01*
X179387028Y-60371583D01*
X179382887Y-60377781D01*
X179350010Y-60426987D01*
X179304899Y-60494499D01*
X179304892Y-60494511D01*
X179248323Y-60631082D01*
X179248320Y-60631092D01*
X179219480Y-60776079D01*
X179219480Y-67921958D01*
X179199795Y-67988997D01*
X179183161Y-68009639D01*
X177793102Y-69399697D01*
X177731779Y-69433182D01*
X177662087Y-69428198D01*
X177606154Y-69386326D01*
X177594940Y-69368318D01*
X177542795Y-69265978D01*
X177542793Y-69265975D01*
X177542792Y-69265973D01*
X177413227Y-69087641D01*
X177413223Y-69087636D01*
X177257345Y-68931758D01*
X177250009Y-68926428D01*
X177145250Y-68850317D01*
X177102586Y-68794989D01*
X177096607Y-68725376D01*
X177129212Y-68663580D01*
X177145245Y-68649686D01*
X177257345Y-68568242D01*
X177413222Y-68412365D01*
X177542795Y-68234022D01*
X177642875Y-68037606D01*
X177710995Y-67827951D01*
X177745480Y-67610222D01*
X177745480Y-67389778D01*
X177710995Y-67172049D01*
X177642875Y-66962394D01*
X177642875Y-66962393D01*
X177599023Y-66876331D01*
X177542795Y-66765978D01*
X177464422Y-66658106D01*
X177413227Y-66587641D01*
X177413223Y-66587636D01*
X177257343Y-66431756D01*
X177257338Y-66431752D01*
X177079005Y-66302187D01*
X177079004Y-66302186D01*
X177079002Y-66302185D01*
X177016076Y-66270122D01*
X176882586Y-66202104D01*
X176882583Y-66202103D01*
X176672932Y-66133985D01*
X176564066Y-66116742D01*
X176455202Y-66099500D01*
X176234758Y-66099500D01*
X176162181Y-66110995D01*
X176017027Y-66133985D01*
X175807376Y-66202103D01*
X175807373Y-66202104D01*
X175610954Y-66302187D01*
X175432621Y-66431752D01*
X175432616Y-66431756D01*
X175276736Y-66587636D01*
X175276732Y-66587641D01*
X175195298Y-66699727D01*
X175139969Y-66742393D01*
X175070355Y-66748372D01*
X175008560Y-66715767D01*
X174994662Y-66699727D01*
X174913227Y-66587641D01*
X174913223Y-66587636D01*
X174757343Y-66431756D01*
X174757338Y-66431752D01*
X174579005Y-66302187D01*
X174579004Y-66302186D01*
X174579002Y-66302185D01*
X174516076Y-66270122D01*
X174382586Y-66202104D01*
X174382583Y-66202103D01*
X174172932Y-66133985D01*
X174064066Y-66116742D01*
X173955202Y-66099500D01*
X173734758Y-66099500D01*
X173662181Y-66110995D01*
X173517027Y-66133985D01*
X173307376Y-66202103D01*
X173307373Y-66202104D01*
X173110954Y-66302187D01*
X172932621Y-66431752D01*
X172932616Y-66431756D01*
X172776736Y-66587636D01*
X172776732Y-66587641D01*
X172695298Y-66699727D01*
X172639969Y-66742393D01*
X172570355Y-66748372D01*
X172508560Y-66715767D01*
X172494662Y-66699727D01*
X172413227Y-66587641D01*
X172413223Y-66587636D01*
X172257343Y-66431756D01*
X172257338Y-66431752D01*
X172079005Y-66302187D01*
X172079004Y-66302186D01*
X172079002Y-66302185D01*
X172016076Y-66270122D01*
X171882586Y-66202104D01*
X171882583Y-66202103D01*
X171672932Y-66133985D01*
X171564066Y-66116742D01*
X171455202Y-66099500D01*
X171234758Y-66099500D01*
X171162181Y-66110995D01*
X171017027Y-66133985D01*
X170807376Y-66202103D01*
X170807373Y-66202104D01*
X170610954Y-66302187D01*
X170432621Y-66431752D01*
X170432616Y-66431756D01*
X170276736Y-66587636D01*
X170276732Y-66587641D01*
X170147167Y-66765974D01*
X170047084Y-66962393D01*
X170047083Y-66962396D01*
X169978965Y-67172047D01*
X169944480Y-67389778D01*
X156420780Y-67389778D01*
X156513333Y-67297225D01*
X157522947Y-66287610D01*
X157522948Y-66287609D01*
X157522952Y-66287605D01*
X157580080Y-66202105D01*
X157605084Y-66164684D01*
X157646789Y-66063995D01*
X157648545Y-66060426D01*
X157665838Y-66041585D01*
X157686935Y-66014825D01*
X157787219Y-65941966D01*
X157931966Y-65797219D01*
X157931968Y-65797215D01*
X157931971Y-65797213D01*
X157984732Y-65724590D01*
X158052287Y-65631610D01*
X158145220Y-65449219D01*
X158208477Y-65254534D01*
X158217487Y-65197648D01*
X164544480Y-65197648D01*
X164544480Y-65402351D01*
X164576502Y-65604534D01*
X164639761Y-65799223D01*
X164732695Y-65981613D01*
X164853008Y-66147213D01*
X164997766Y-66291971D01*
X165152729Y-66404556D01*
X165163370Y-66412287D01*
X165279587Y-66471503D01*
X165345756Y-66505218D01*
X165345758Y-66505218D01*
X165345761Y-66505220D01*
X165450117Y-66539127D01*
X165540445Y-66568477D01*
X165641537Y-66584488D01*
X165742628Y-66600500D01*
X165742629Y-66600500D01*
X165947331Y-66600500D01*
X165947332Y-66600500D01*
X166149514Y-66568477D01*
X166344199Y-66505220D01*
X166526590Y-66412287D01*
X166637633Y-66331610D01*
X166692193Y-66291971D01*
X166692195Y-66291968D01*
X166692199Y-66291966D01*
X166836946Y-66147219D01*
X166836948Y-66147215D01*
X166836951Y-66147213D01*
X166933135Y-66014825D01*
X166957267Y-65981610D01*
X167050200Y-65799219D01*
X167113457Y-65604534D01*
X167145480Y-65402352D01*
X167145480Y-65197648D01*
X167113457Y-64995466D01*
X167104659Y-64968390D01*
X167084107Y-64905137D01*
X167050200Y-64800781D01*
X167050198Y-64800778D01*
X167050198Y-64800776D01*
X167002217Y-64706610D01*
X166957267Y-64618390D01*
X166898654Y-64537715D01*
X166836951Y-64452786D01*
X166692193Y-64308028D01*
X166526593Y-64187715D01*
X166526592Y-64187714D01*
X166526590Y-64187713D01*
X166469633Y-64158691D01*
X166344203Y-64094781D01*
X166149514Y-64031522D01*
X165974975Y-64003878D01*
X165947332Y-63999500D01*
X165742628Y-63999500D01*
X165718309Y-64003351D01*
X165540445Y-64031522D01*
X165345756Y-64094781D01*
X165163366Y-64187715D01*
X164997766Y-64308028D01*
X164853008Y-64452786D01*
X164732695Y-64618386D01*
X164639761Y-64800776D01*
X164576502Y-64995465D01*
X164544480Y-65197648D01*
X158217487Y-65197648D01*
X158240500Y-65052352D01*
X158240500Y-64847648D01*
X158218162Y-64706613D01*
X158208477Y-64645465D01*
X158145871Y-64452786D01*
X158145220Y-64450781D01*
X158145218Y-64450778D01*
X158145218Y-64450776D01*
X158109931Y-64381522D01*
X158052287Y-64268390D01*
X158044556Y-64257749D01*
X157931971Y-64102786D01*
X157787217Y-63958032D01*
X157787212Y-63958028D01*
X157741615Y-63924900D01*
X157698949Y-63869571D01*
X157690500Y-63824582D01*
X157690500Y-62797648D01*
X170369480Y-62797648D01*
X170369480Y-63002351D01*
X170401502Y-63204534D01*
X170464761Y-63399223D01*
X170557695Y-63581613D01*
X170678008Y-63747213D01*
X170822766Y-63891971D01*
X170940883Y-63977786D01*
X170988370Y-64012287D01*
X171104587Y-64071503D01*
X171170756Y-64105218D01*
X171170758Y-64105218D01*
X171170761Y-64105220D01*
X171275117Y-64139127D01*
X171365445Y-64168477D01*
X171466537Y-64184488D01*
X171567628Y-64200500D01*
X171567629Y-64200500D01*
X171772331Y-64200500D01*
X171772332Y-64200500D01*
X171974514Y-64168477D01*
X172169199Y-64105220D01*
X172351590Y-64012287D01*
X172474969Y-63922648D01*
X172517193Y-63891971D01*
X172517195Y-63891968D01*
X172517199Y-63891966D01*
X172661946Y-63747219D01*
X172661948Y-63747215D01*
X172661951Y-63747213D01*
X172714712Y-63674590D01*
X172782267Y-63581610D01*
X172875200Y-63399219D01*
X172938457Y-63204534D01*
X172970480Y-63002352D01*
X172970480Y-62797648D01*
X175956980Y-62797648D01*
X175956980Y-63002351D01*
X175989002Y-63204534D01*
X176052261Y-63399223D01*
X176145195Y-63581613D01*
X176265508Y-63747213D01*
X176410266Y-63891971D01*
X176528383Y-63977786D01*
X176575870Y-64012287D01*
X176692087Y-64071503D01*
X176758256Y-64105218D01*
X176758258Y-64105218D01*
X176758261Y-64105220D01*
X176862617Y-64139127D01*
X176952945Y-64168477D01*
X177054037Y-64184488D01*
X177155128Y-64200500D01*
X177155129Y-64200500D01*
X177359831Y-64200500D01*
X177359832Y-64200500D01*
X177562014Y-64168477D01*
X177756699Y-64105220D01*
X177939090Y-64012287D01*
X178062469Y-63922648D01*
X178104693Y-63891971D01*
X178104695Y-63891968D01*
X178104699Y-63891966D01*
X178249446Y-63747219D01*
X178249448Y-63747215D01*
X178249451Y-63747213D01*
X178302212Y-63674590D01*
X178369767Y-63581610D01*
X178462700Y-63399219D01*
X178525957Y-63204534D01*
X178557980Y-63002352D01*
X178557980Y-62797648D01*
X178525957Y-62595466D01*
X178462700Y-62400781D01*
X178462698Y-62400778D01*
X178462698Y-62400776D01*
X178394520Y-62266971D01*
X178369767Y-62218390D01*
X178356970Y-62200776D01*
X178249451Y-62052786D01*
X178104693Y-61908028D01*
X177939093Y-61787715D01*
X177939092Y-61787714D01*
X177939090Y-61787713D01*
X177875488Y-61755306D01*
X177756703Y-61694781D01*
X177562014Y-61631522D01*
X177387475Y-61603878D01*
X177359832Y-61599500D01*
X177155128Y-61599500D01*
X177130809Y-61603351D01*
X176952945Y-61631522D01*
X176758256Y-61694781D01*
X176575866Y-61787715D01*
X176410266Y-61908028D01*
X176265508Y-62052786D01*
X176145195Y-62218386D01*
X176052261Y-62400776D01*
X175989002Y-62595465D01*
X175956980Y-62797648D01*
X172970480Y-62797648D01*
X172938457Y-62595466D01*
X172875200Y-62400781D01*
X172875198Y-62400778D01*
X172875198Y-62400776D01*
X172807020Y-62266971D01*
X172782267Y-62218390D01*
X172769470Y-62200776D01*
X172661951Y-62052786D01*
X172517193Y-61908028D01*
X172351593Y-61787715D01*
X172351592Y-61787714D01*
X172351590Y-61787713D01*
X172287988Y-61755306D01*
X172169203Y-61694781D01*
X171974514Y-61631522D01*
X171799975Y-61603878D01*
X171772332Y-61599500D01*
X171567628Y-61599500D01*
X171543309Y-61603351D01*
X171365445Y-61631522D01*
X171170756Y-61694781D01*
X170988366Y-61787715D01*
X170822766Y-61908028D01*
X170678008Y-62052786D01*
X170557695Y-62218386D01*
X170464761Y-62400776D01*
X170401502Y-62595465D01*
X170369480Y-62797648D01*
X157690500Y-62797648D01*
X157690500Y-60472648D01*
X158139500Y-60472648D01*
X158139500Y-60677351D01*
X158171522Y-60879534D01*
X158234781Y-61074223D01*
X158327715Y-61256613D01*
X158448028Y-61422213D01*
X158592786Y-61566971D01*
X158723025Y-61661593D01*
X158758390Y-61687287D01*
X158874607Y-61746503D01*
X158940776Y-61780218D01*
X158940778Y-61780218D01*
X158940781Y-61780220D01*
X159045137Y-61814127D01*
X159135465Y-61843477D01*
X159209607Y-61855220D01*
X159337648Y-61875500D01*
X159337649Y-61875500D01*
X159542351Y-61875500D01*
X159542352Y-61875500D01*
X159744534Y-61843477D01*
X159939219Y-61780220D01*
X160121610Y-61687287D01*
X160241063Y-61600500D01*
X160287213Y-61566971D01*
X160287215Y-61566968D01*
X160287219Y-61566966D01*
X160431966Y-61422219D01*
X160431968Y-61422215D01*
X160431971Y-61422213D01*
X160484732Y-61349590D01*
X160552287Y-61256610D01*
X160645220Y-61074219D01*
X160708477Y-60879534D01*
X160740500Y-60677352D01*
X160740500Y-60472648D01*
X160708477Y-60270466D01*
X160708476Y-60270462D01*
X160708476Y-60270461D01*
X160695685Y-60231094D01*
X160684817Y-60197648D01*
X164544480Y-60197648D01*
X164544480Y-60402351D01*
X164576502Y-60604534D01*
X164639761Y-60799223D01*
X164703671Y-60924653D01*
X164727014Y-60970465D01*
X164732695Y-60981613D01*
X164853008Y-61147213D01*
X164997766Y-61291971D01*
X165145770Y-61399500D01*
X165163370Y-61412287D01*
X165279587Y-61471503D01*
X165345756Y-61505218D01*
X165345758Y-61505218D01*
X165345761Y-61505220D01*
X165420592Y-61529534D01*
X165540445Y-61568477D01*
X165610256Y-61579534D01*
X165742628Y-61600500D01*
X165742629Y-61600500D01*
X165947331Y-61600500D01*
X165947332Y-61600500D01*
X166149514Y-61568477D01*
X166344199Y-61505220D01*
X166526590Y-61412287D01*
X166643494Y-61327352D01*
X166692193Y-61291971D01*
X166692195Y-61291968D01*
X166692199Y-61291966D01*
X166836946Y-61147219D01*
X166836948Y-61147215D01*
X166836951Y-61147213D01*
X166889983Y-61074219D01*
X166957267Y-60981610D01*
X167050200Y-60799219D01*
X167113457Y-60604534D01*
X167145480Y-60402352D01*
X167145480Y-60197648D01*
X167113457Y-59995466D01*
X167104659Y-59968390D01*
X167080289Y-59893386D01*
X167050200Y-59800781D01*
X167050198Y-59800778D01*
X167050198Y-59800776D01*
X167002217Y-59706610D01*
X166957267Y-59618390D01*
X166898654Y-59537715D01*
X166836951Y-59452786D01*
X166692193Y-59308028D01*
X166526593Y-59187715D01*
X166526592Y-59187714D01*
X166526590Y-59187713D01*
X166469633Y-59158691D01*
X166344203Y-59094781D01*
X166149514Y-59031522D01*
X165974975Y-59003878D01*
X165947332Y-58999500D01*
X165742628Y-58999500D01*
X165718309Y-59003351D01*
X165540445Y-59031522D01*
X165345756Y-59094781D01*
X165163366Y-59187715D01*
X164997766Y-59308028D01*
X164853008Y-59452786D01*
X164732695Y-59618386D01*
X164639761Y-59800776D01*
X164576502Y-59995465D01*
X164544480Y-60197648D01*
X160684817Y-60197648D01*
X160662201Y-60128045D01*
X160645220Y-60075781D01*
X160645218Y-60075778D01*
X160645218Y-60075776D01*
X160604297Y-59995465D01*
X160552287Y-59893390D01*
X160544556Y-59882749D01*
X160431971Y-59727786D01*
X160287213Y-59583028D01*
X160121613Y-59462715D01*
X160121612Y-59462714D01*
X160121610Y-59462713D01*
X160064653Y-59433691D01*
X159939223Y-59369781D01*
X159744534Y-59306522D01*
X159569995Y-59278878D01*
X159542352Y-59274500D01*
X159337648Y-59274500D01*
X159313329Y-59278351D01*
X159135465Y-59306522D01*
X158940776Y-59369781D01*
X158758386Y-59462715D01*
X158592786Y-59583028D01*
X158448028Y-59727786D01*
X158327715Y-59893386D01*
X158234781Y-60075776D01*
X158171522Y-60270465D01*
X158139500Y-60472648D01*
X157690500Y-60472648D01*
X157690500Y-58764960D01*
X157699939Y-58717508D01*
X157734735Y-58633501D01*
X157734737Y-58633497D01*
X157765500Y-58478842D01*
X157765500Y-58321158D01*
X157765500Y-58321155D01*
X157765499Y-58321153D01*
X157734737Y-58166503D01*
X157679453Y-58033034D01*
X157674397Y-58020827D01*
X157674390Y-58020814D01*
X157586789Y-57889711D01*
X157586786Y-57889707D01*
X157494727Y-57797648D01*
X170369480Y-57797648D01*
X170369480Y-58002351D01*
X170401502Y-58204534D01*
X170464761Y-58399223D01*
X170557695Y-58581613D01*
X170678008Y-58747213D01*
X170822766Y-58891971D01*
X170970770Y-58999500D01*
X170988370Y-59012287D01*
X171104587Y-59071503D01*
X171170756Y-59105218D01*
X171170758Y-59105218D01*
X171170761Y-59105220D01*
X171275117Y-59139127D01*
X171365445Y-59168477D01*
X171466537Y-59184488D01*
X171567628Y-59200500D01*
X171567629Y-59200500D01*
X171772331Y-59200500D01*
X171772332Y-59200500D01*
X171974514Y-59168477D01*
X172169199Y-59105220D01*
X172351590Y-59012287D01*
X172474969Y-58922648D01*
X172517193Y-58891971D01*
X172517195Y-58891968D01*
X172517199Y-58891966D01*
X172661946Y-58747219D01*
X172661948Y-58747215D01*
X172661951Y-58747213D01*
X172765619Y-58604524D01*
X172782267Y-58581610D01*
X172875200Y-58399219D01*
X172938457Y-58204534D01*
X172970480Y-58002352D01*
X172970480Y-57797648D01*
X175956980Y-57797648D01*
X175956980Y-58002351D01*
X175989002Y-58204534D01*
X176052261Y-58399223D01*
X176145195Y-58581613D01*
X176265508Y-58747213D01*
X176410266Y-58891971D01*
X176558270Y-58999500D01*
X176575870Y-59012287D01*
X176692087Y-59071503D01*
X176758256Y-59105218D01*
X176758258Y-59105218D01*
X176758261Y-59105220D01*
X176862617Y-59139127D01*
X176952945Y-59168477D01*
X177054037Y-59184488D01*
X177155128Y-59200500D01*
X177155129Y-59200500D01*
X177359831Y-59200500D01*
X177359832Y-59200500D01*
X177562014Y-59168477D01*
X177756699Y-59105220D01*
X177939090Y-59012287D01*
X178062469Y-58922648D01*
X178104693Y-58891971D01*
X178104695Y-58891968D01*
X178104699Y-58891966D01*
X178249446Y-58747219D01*
X178249448Y-58747215D01*
X178249451Y-58747213D01*
X178353119Y-58604524D01*
X178369767Y-58581610D01*
X178462700Y-58399219D01*
X178525957Y-58204534D01*
X178557980Y-58002352D01*
X178557980Y-57797648D01*
X178531469Y-57630264D01*
X178525957Y-57595465D01*
X178462698Y-57400776D01*
X178428983Y-57334607D01*
X178369767Y-57218390D01*
X178362036Y-57207749D01*
X178249451Y-57052786D01*
X178104693Y-56908028D01*
X177939093Y-56787715D01*
X177939092Y-56787714D01*
X177939090Y-56787713D01*
X177882133Y-56758691D01*
X177756703Y-56694781D01*
X177562014Y-56631522D01*
X177387475Y-56603878D01*
X177359832Y-56599500D01*
X177155128Y-56599500D01*
X177130809Y-56603351D01*
X176952945Y-56631522D01*
X176758256Y-56694781D01*
X176575866Y-56787715D01*
X176410266Y-56908028D01*
X176265508Y-57052786D01*
X176145195Y-57218386D01*
X176052261Y-57400776D01*
X175989002Y-57595465D01*
X175956980Y-57797648D01*
X172970480Y-57797648D01*
X172943969Y-57630264D01*
X172938457Y-57595465D01*
X172875198Y-57400776D01*
X172841483Y-57334607D01*
X172782267Y-57218390D01*
X172774536Y-57207749D01*
X172661951Y-57052786D01*
X172517193Y-56908028D01*
X172351593Y-56787715D01*
X172351592Y-56787714D01*
X172351590Y-56787713D01*
X172294633Y-56758691D01*
X172169203Y-56694781D01*
X171974514Y-56631522D01*
X171799975Y-56603878D01*
X171772332Y-56599500D01*
X171567628Y-56599500D01*
X171543309Y-56603351D01*
X171365445Y-56631522D01*
X171170756Y-56694781D01*
X170988366Y-56787715D01*
X170822766Y-56908028D01*
X170678008Y-57052786D01*
X170557695Y-57218386D01*
X170464761Y-57400776D01*
X170401502Y-57595465D01*
X170369480Y-57797648D01*
X157494727Y-57797648D01*
X157475292Y-57778213D01*
X157475288Y-57778210D01*
X157344185Y-57690609D01*
X157344172Y-57690602D01*
X157198501Y-57630264D01*
X157198489Y-57630261D01*
X157043845Y-57599500D01*
X157043842Y-57599500D01*
X156886158Y-57599500D01*
X156886155Y-57599500D01*
X156731510Y-57630261D01*
X156731498Y-57630264D01*
X156585827Y-57690602D01*
X156585814Y-57690609D01*
X156454711Y-57778210D01*
X156454707Y-57778213D01*
X156343213Y-57889707D01*
X156343210Y-57889711D01*
X156255609Y-58020814D01*
X156255602Y-58020827D01*
X156195264Y-58166498D01*
X156195261Y-58166510D01*
X156164500Y-58321153D01*
X156164500Y-58321158D01*
X156164500Y-58478842D01*
X156164500Y-58478844D01*
X156164499Y-58478844D01*
X156187117Y-58592543D01*
X156189500Y-58616735D01*
X156189500Y-63824582D01*
X156169815Y-63891621D01*
X156138385Y-63924900D01*
X156092787Y-63958028D01*
X156092782Y-63958032D01*
X155948028Y-64102786D01*
X155827715Y-64268386D01*
X155734781Y-64450776D01*
X155671522Y-64645465D01*
X155639500Y-64847648D01*
X155639500Y-65052351D01*
X155671522Y-65254534D01*
X155734781Y-65449223D01*
X155784932Y-65547648D01*
X155827713Y-65631610D01*
X155861616Y-65678274D01*
X155885096Y-65744079D01*
X155869271Y-65812133D01*
X155848979Y-65838840D01*
X152288122Y-69399697D01*
X152226799Y-69433182D01*
X152157107Y-69428198D01*
X152101174Y-69386326D01*
X152089960Y-69368318D01*
X152037815Y-69265978D01*
X152037813Y-69265975D01*
X152037812Y-69265973D01*
X151908247Y-69087641D01*
X151908243Y-69087636D01*
X151752365Y-68931758D01*
X151745029Y-68926428D01*
X151640270Y-68850317D01*
X151597606Y-68794989D01*
X151591627Y-68725376D01*
X151624232Y-68663580D01*
X151640265Y-68649686D01*
X151752365Y-68568242D01*
X151908242Y-68412365D01*
X152037815Y-68234022D01*
X152137895Y-68037606D01*
X152206015Y-67827951D01*
X152240500Y-67610222D01*
X152240500Y-67389778D01*
X152206015Y-67172049D01*
X152137895Y-66962394D01*
X152137895Y-66962393D01*
X152094043Y-66876331D01*
X152037815Y-66765978D01*
X151959442Y-66658106D01*
X151908247Y-66587641D01*
X151908243Y-66587636D01*
X151752363Y-66431756D01*
X151752358Y-66431752D01*
X151574025Y-66302187D01*
X151574024Y-66302186D01*
X151574022Y-66302185D01*
X151511096Y-66270122D01*
X151377606Y-66202104D01*
X151377603Y-66202103D01*
X151167952Y-66133985D01*
X151059086Y-66116742D01*
X150950222Y-66099500D01*
X150729778Y-66099500D01*
X150657201Y-66110995D01*
X150512047Y-66133985D01*
X150302396Y-66202103D01*
X150302393Y-66202104D01*
X150105974Y-66302187D01*
X149927641Y-66431752D01*
X149927636Y-66431756D01*
X149771756Y-66587636D01*
X149771752Y-66587641D01*
X149690318Y-66699727D01*
X149634989Y-66742393D01*
X149565375Y-66748372D01*
X149503580Y-66715767D01*
X149489682Y-66699727D01*
X149408247Y-66587641D01*
X149408243Y-66587636D01*
X149252363Y-66431756D01*
X149252358Y-66431752D01*
X149074025Y-66302187D01*
X149074024Y-66302186D01*
X149074022Y-66302185D01*
X149011096Y-66270122D01*
X148877606Y-66202104D01*
X148877603Y-66202103D01*
X148667952Y-66133985D01*
X148559086Y-66116742D01*
X148450222Y-66099500D01*
X148229778Y-66099500D01*
X148157201Y-66110995D01*
X148012047Y-66133985D01*
X147802396Y-66202103D01*
X147802393Y-66202104D01*
X147605974Y-66302187D01*
X147427641Y-66431752D01*
X147427636Y-66431756D01*
X147271756Y-66587636D01*
X147271752Y-66587641D01*
X147190318Y-66699727D01*
X147134989Y-66742393D01*
X147065375Y-66748372D01*
X147003580Y-66715767D01*
X146989682Y-66699727D01*
X146908247Y-66587641D01*
X146908243Y-66587636D01*
X146752363Y-66431756D01*
X146752358Y-66431752D01*
X146574025Y-66302187D01*
X146574024Y-66302186D01*
X146574022Y-66302185D01*
X146511096Y-66270122D01*
X146377606Y-66202104D01*
X146377603Y-66202103D01*
X146167952Y-66133985D01*
X146059086Y-66116742D01*
X145950222Y-66099500D01*
X145729778Y-66099500D01*
X145657201Y-66110995D01*
X145512047Y-66133985D01*
X145302396Y-66202103D01*
X145302393Y-66202104D01*
X145105974Y-66302187D01*
X144927641Y-66431752D01*
X144927636Y-66431756D01*
X144771756Y-66587636D01*
X144771752Y-66587641D01*
X144642187Y-66765974D01*
X144542104Y-66962393D01*
X144542103Y-66962396D01*
X144473985Y-67172047D01*
X144439500Y-67389778D01*
X130786589Y-67389778D01*
X131113763Y-67062604D01*
X131141016Y-67021816D01*
X131195895Y-66939684D01*
X131219329Y-66883109D01*
X131252470Y-66803101D01*
X131281311Y-66658106D01*
X131281311Y-66510271D01*
X131281311Y-65950416D01*
X131300996Y-65883377D01*
X131332424Y-65850099D01*
X131378030Y-65816966D01*
X131522777Y-65672219D01*
X131522779Y-65672215D01*
X131522782Y-65672213D01*
X131613282Y-65547648D01*
X131643098Y-65506610D01*
X131736031Y-65324219D01*
X131799288Y-65129534D01*
X131831311Y-64927352D01*
X131831311Y-64722648D01*
X131799883Y-64524223D01*
X131799288Y-64520465D01*
X131754142Y-64381522D01*
X131736031Y-64325781D01*
X131736029Y-64325778D01*
X131736029Y-64325776D01*
X131643098Y-64143390D01*
X131532135Y-63990661D01*
X131532134Y-63990660D01*
X131522778Y-63977782D01*
X131467644Y-63922648D01*
X139789500Y-63922648D01*
X139789500Y-64127351D01*
X139821522Y-64329534D01*
X139884781Y-64524223D01*
X139977715Y-64706613D01*
X140098028Y-64872213D01*
X140242786Y-65016971D01*
X140397719Y-65129534D01*
X140408390Y-65137287D01*
X140524607Y-65196503D01*
X140590776Y-65230218D01*
X140590778Y-65230218D01*
X140590781Y-65230220D01*
X140665612Y-65254534D01*
X140785465Y-65293477D01*
X140886557Y-65309488D01*
X140987648Y-65325500D01*
X140987649Y-65325500D01*
X141192351Y-65325500D01*
X141192352Y-65325500D01*
X141394534Y-65293477D01*
X141589219Y-65230220D01*
X141771610Y-65137287D01*
X141888514Y-65052352D01*
X141937213Y-65016971D01*
X141937215Y-65016968D01*
X141937219Y-65016966D01*
X142081966Y-64872219D01*
X142081968Y-64872215D01*
X142081971Y-64872213D01*
X142134732Y-64799590D01*
X142202287Y-64706610D01*
X142295220Y-64524219D01*
X142358477Y-64329534D01*
X142390500Y-64127352D01*
X142390500Y-63922648D01*
X142365787Y-63766621D01*
X142358477Y-63720465D01*
X142313360Y-63581610D01*
X142295220Y-63525781D01*
X142295218Y-63525778D01*
X142295218Y-63525776D01*
X142230733Y-63399219D01*
X142202287Y-63343390D01*
X142194556Y-63332749D01*
X142081971Y-63177786D01*
X141937213Y-63033028D01*
X141771613Y-62912715D01*
X141771612Y-62912714D01*
X141771610Y-62912713D01*
X141714653Y-62883691D01*
X141589223Y-62819781D01*
X141394534Y-62756522D01*
X141219995Y-62728878D01*
X141192352Y-62724500D01*
X140987648Y-62724500D01*
X140963329Y-62728351D01*
X140785465Y-62756522D01*
X140590776Y-62819781D01*
X140408386Y-62912715D01*
X140242786Y-63033028D01*
X140098028Y-63177786D01*
X139977715Y-63343386D01*
X139884781Y-63525776D01*
X139821522Y-63720465D01*
X139789500Y-63922648D01*
X131467644Y-63922648D01*
X131378028Y-63833032D01*
X131378023Y-63833028D01*
X131332426Y-63799900D01*
X131289760Y-63744571D01*
X131281311Y-63699582D01*
X131281311Y-62597648D01*
X144589500Y-62597648D01*
X144589500Y-62802351D01*
X144621522Y-63004534D01*
X144684781Y-63199223D01*
X144777715Y-63381613D01*
X144898028Y-63547213D01*
X145042786Y-63691971D01*
X145191341Y-63799900D01*
X145208390Y-63812287D01*
X145320816Y-63869571D01*
X145390776Y-63905218D01*
X145390778Y-63905218D01*
X145390781Y-63905220D01*
X145444419Y-63922648D01*
X145585465Y-63968477D01*
X145686557Y-63984488D01*
X145787648Y-64000500D01*
X145787649Y-64000500D01*
X145992351Y-64000500D01*
X145992352Y-64000500D01*
X146194534Y-63968477D01*
X146389219Y-63905220D01*
X146571610Y-63812287D01*
X146697992Y-63720466D01*
X146737213Y-63691971D01*
X146737215Y-63691968D01*
X146737219Y-63691966D01*
X146881966Y-63547219D01*
X146881968Y-63547215D01*
X146881971Y-63547213D01*
X146934732Y-63474590D01*
X147002287Y-63381610D01*
X147095220Y-63199219D01*
X147158477Y-63004534D01*
X147190500Y-62802352D01*
X147190500Y-62597648D01*
X149589500Y-62597648D01*
X149589500Y-62802351D01*
X149621522Y-63004534D01*
X149684781Y-63199223D01*
X149777715Y-63381613D01*
X149898028Y-63547213D01*
X150042786Y-63691971D01*
X150191341Y-63799900D01*
X150208390Y-63812287D01*
X150320816Y-63869571D01*
X150390776Y-63905218D01*
X150390778Y-63905218D01*
X150390781Y-63905220D01*
X150444419Y-63922648D01*
X150585465Y-63968477D01*
X150686557Y-63984488D01*
X150787648Y-64000500D01*
X150787649Y-64000500D01*
X150992351Y-64000500D01*
X150992352Y-64000500D01*
X151194534Y-63968477D01*
X151389219Y-63905220D01*
X151571610Y-63812287D01*
X151697992Y-63720466D01*
X151737213Y-63691971D01*
X151737215Y-63691968D01*
X151737219Y-63691966D01*
X151881966Y-63547219D01*
X151881968Y-63547215D01*
X151881971Y-63547213D01*
X151934732Y-63474590D01*
X152002287Y-63381610D01*
X152095220Y-63199219D01*
X152158477Y-63004534D01*
X152190500Y-62802352D01*
X152190500Y-62597648D01*
X152158477Y-62395466D01*
X152155819Y-62387287D01*
X152116725Y-62266966D01*
X152095220Y-62200781D01*
X152095218Y-62200778D01*
X152095218Y-62200776D01*
X152061503Y-62134607D01*
X152002287Y-62018390D01*
X151957402Y-61956610D01*
X151881971Y-61852786D01*
X151737213Y-61708028D01*
X151571613Y-61587715D01*
X151571612Y-61587714D01*
X151571610Y-61587713D01*
X151514653Y-61558691D01*
X151389223Y-61494781D01*
X151194534Y-61431522D01*
X151019995Y-61403878D01*
X150992352Y-61399500D01*
X150787648Y-61399500D01*
X150763329Y-61403351D01*
X150585465Y-61431522D01*
X150390776Y-61494781D01*
X150208386Y-61587715D01*
X150042786Y-61708028D01*
X149898028Y-61852786D01*
X149777715Y-62018386D01*
X149684781Y-62200776D01*
X149621522Y-62395465D01*
X149589500Y-62597648D01*
X147190500Y-62597648D01*
X147158477Y-62395466D01*
X147155819Y-62387287D01*
X147116725Y-62266966D01*
X147095220Y-62200781D01*
X147095218Y-62200778D01*
X147095218Y-62200776D01*
X147061503Y-62134607D01*
X147002287Y-62018390D01*
X146957402Y-61956610D01*
X146881971Y-61852786D01*
X146737213Y-61708028D01*
X146571613Y-61587715D01*
X146571612Y-61587714D01*
X146571610Y-61587713D01*
X146514653Y-61558691D01*
X146389223Y-61494781D01*
X146194534Y-61431522D01*
X146019995Y-61403878D01*
X145992352Y-61399500D01*
X145787648Y-61399500D01*
X145763329Y-61403351D01*
X145585465Y-61431522D01*
X145390776Y-61494781D01*
X145208386Y-61587715D01*
X145042786Y-61708028D01*
X144898028Y-61852786D01*
X144777715Y-62018386D01*
X144684781Y-62200776D01*
X144621522Y-62395465D01*
X144589500Y-62597648D01*
X131281311Y-62597648D01*
X131281311Y-61755306D01*
X131300996Y-61688267D01*
X131353800Y-61642512D01*
X131422958Y-61632568D01*
X131486514Y-61661593D01*
X131523240Y-61716985D01*
X131525591Y-61724219D01*
X131592339Y-61855220D01*
X131618526Y-61906613D01*
X131738839Y-62072213D01*
X131883597Y-62216971D01*
X132038560Y-62329556D01*
X132049201Y-62337287D01*
X132163382Y-62395465D01*
X132231587Y-62430218D01*
X132231589Y-62430218D01*
X132231592Y-62430220D01*
X132335948Y-62464127D01*
X132426276Y-62493477D01*
X132527368Y-62509488D01*
X132628459Y-62525500D01*
X132628460Y-62525500D01*
X132833162Y-62525500D01*
X132833163Y-62525500D01*
X133035345Y-62493477D01*
X133230030Y-62430220D01*
X133412421Y-62337287D01*
X133505401Y-62269732D01*
X133578024Y-62216971D01*
X133578026Y-62216968D01*
X133578030Y-62216966D01*
X133722777Y-62072219D01*
X133722779Y-62072215D01*
X133722782Y-62072213D01*
X133811210Y-61950500D01*
X133843098Y-61906610D01*
X133936031Y-61724219D01*
X133999288Y-61529534D01*
X134031311Y-61327352D01*
X134031311Y-61122648D01*
X134023641Y-61074223D01*
X133999288Y-60920465D01*
X133936029Y-60725776D01*
X133868572Y-60593386D01*
X133843098Y-60543390D01*
X133842866Y-60543071D01*
X133841116Y-60540661D01*
X133791702Y-60472648D01*
X153139500Y-60472648D01*
X153139500Y-60677351D01*
X153171522Y-60879534D01*
X153234781Y-61074223D01*
X153327715Y-61256613D01*
X153448028Y-61422213D01*
X153592786Y-61566971D01*
X153723025Y-61661593D01*
X153758390Y-61687287D01*
X153874607Y-61746503D01*
X153940776Y-61780218D01*
X153940778Y-61780218D01*
X153940781Y-61780220D01*
X154045137Y-61814127D01*
X154135465Y-61843477D01*
X154209607Y-61855220D01*
X154337648Y-61875500D01*
X154337649Y-61875500D01*
X154542351Y-61875500D01*
X154542352Y-61875500D01*
X154744534Y-61843477D01*
X154939219Y-61780220D01*
X155121610Y-61687287D01*
X155241063Y-61600500D01*
X155287213Y-61566971D01*
X155287215Y-61566968D01*
X155287219Y-61566966D01*
X155431966Y-61422219D01*
X155431968Y-61422215D01*
X155431971Y-61422213D01*
X155484732Y-61349590D01*
X155552287Y-61256610D01*
X155645220Y-61074219D01*
X155708477Y-60879534D01*
X155740500Y-60677352D01*
X155740500Y-60472648D01*
X155708477Y-60270466D01*
X155708476Y-60270464D01*
X155669587Y-60150776D01*
X155645220Y-60075781D01*
X155645218Y-60075778D01*
X155645218Y-60075776D01*
X155604297Y-59995465D01*
X155552287Y-59893390D01*
X155544556Y-59882749D01*
X155431971Y-59727786D01*
X155287213Y-59583028D01*
X155121613Y-59462715D01*
X155121612Y-59462714D01*
X155121610Y-59462713D01*
X155064653Y-59433691D01*
X154939223Y-59369781D01*
X154744534Y-59306522D01*
X154569995Y-59278878D01*
X154542352Y-59274500D01*
X154337648Y-59274500D01*
X154313329Y-59278351D01*
X154135465Y-59306522D01*
X153940776Y-59369781D01*
X153758386Y-59462715D01*
X153592786Y-59583028D01*
X153448028Y-59727786D01*
X153327715Y-59893386D01*
X153234781Y-60075776D01*
X153171522Y-60270465D01*
X153139500Y-60472648D01*
X133791702Y-60472648D01*
X133722782Y-60377786D01*
X133578024Y-60233028D01*
X133412424Y-60112715D01*
X133412423Y-60112714D01*
X133412421Y-60112713D01*
X133339928Y-60075776D01*
X133230034Y-60019781D01*
X133035345Y-59956522D01*
X132860806Y-59928878D01*
X132833163Y-59924500D01*
X132628459Y-59924500D01*
X132604140Y-59928351D01*
X132426276Y-59956522D01*
X132231587Y-60019781D01*
X132049197Y-60112715D01*
X131883597Y-60233028D01*
X131738839Y-60377786D01*
X131618526Y-60543386D01*
X131525592Y-60725777D01*
X131523242Y-60733012D01*
X131483803Y-60790687D01*
X131419445Y-60817885D01*
X131350598Y-60805970D01*
X131299123Y-60758725D01*
X131281311Y-60694693D01*
X131281311Y-58922648D01*
X139789500Y-58922648D01*
X139789500Y-59127351D01*
X139821522Y-59329534D01*
X139884781Y-59524223D01*
X139977715Y-59706613D01*
X140098028Y-59872213D01*
X140242786Y-60016971D01*
X140374569Y-60112715D01*
X140408390Y-60137287D01*
X140524607Y-60196503D01*
X140590776Y-60230218D01*
X140590778Y-60230218D01*
X140590781Y-60230220D01*
X140695137Y-60264127D01*
X140785465Y-60293477D01*
X140886557Y-60309488D01*
X140987648Y-60325500D01*
X140987649Y-60325500D01*
X141192351Y-60325500D01*
X141192352Y-60325500D01*
X141394534Y-60293477D01*
X141589219Y-60230220D01*
X141771610Y-60137287D01*
X141864590Y-60069732D01*
X141937213Y-60016971D01*
X141937215Y-60016968D01*
X141937219Y-60016966D01*
X142081966Y-59872219D01*
X142081968Y-59872215D01*
X142081971Y-59872213D01*
X142134732Y-59799590D01*
X142202287Y-59706610D01*
X142295220Y-59524219D01*
X142358477Y-59329534D01*
X142390500Y-59127352D01*
X142390500Y-58922648D01*
X142379776Y-58854939D01*
X142358477Y-58720465D01*
X142295218Y-58525776D01*
X142230733Y-58399219D01*
X142202287Y-58343390D01*
X142186135Y-58321158D01*
X142081971Y-58177786D01*
X141937213Y-58033028D01*
X141771613Y-57912715D01*
X141771612Y-57912714D01*
X141771610Y-57912713D01*
X141714653Y-57883691D01*
X141589223Y-57819781D01*
X141394534Y-57756522D01*
X141219995Y-57728878D01*
X141192352Y-57724500D01*
X140987648Y-57724500D01*
X140963329Y-57728351D01*
X140785465Y-57756522D01*
X140590776Y-57819781D01*
X140408386Y-57912715D01*
X140242786Y-58033028D01*
X140098028Y-58177786D01*
X139977715Y-58343386D01*
X139884781Y-58525776D01*
X139821522Y-58720465D01*
X139789500Y-58922648D01*
X131281311Y-58922648D01*
X131281311Y-58879604D01*
X131290750Y-58832151D01*
X131300548Y-58808497D01*
X131331311Y-58653842D01*
X131331311Y-58496158D01*
X131331311Y-58496155D01*
X131331310Y-58496153D01*
X131312029Y-58399223D01*
X131300548Y-58341503D01*
X131292119Y-58321153D01*
X131240208Y-58195827D01*
X131240201Y-58195814D01*
X131152600Y-58064711D01*
X131152597Y-58064707D01*
X131041103Y-57953213D01*
X131041099Y-57953210D01*
X130909996Y-57865609D01*
X130909983Y-57865602D01*
X130764312Y-57805264D01*
X130764300Y-57805261D01*
X130609656Y-57774500D01*
X130609653Y-57774500D01*
X130451969Y-57774500D01*
X130451966Y-57774500D01*
X130297321Y-57805261D01*
X130297309Y-57805264D01*
X130151638Y-57865602D01*
X130151625Y-57865609D01*
X130020522Y-57953210D01*
X130020518Y-57953213D01*
X129909024Y-58064707D01*
X129909021Y-58064711D01*
X129821420Y-58195814D01*
X129821413Y-58195827D01*
X129761075Y-58341498D01*
X129761072Y-58341510D01*
X129730311Y-58496153D01*
X129730311Y-58653846D01*
X129761072Y-58808489D01*
X129761074Y-58808497D01*
X129770872Y-58832151D01*
X129780311Y-58879604D01*
X129780311Y-63699582D01*
X129760626Y-63766621D01*
X129729196Y-63799900D01*
X129683598Y-63833028D01*
X129683593Y-63833032D01*
X129538839Y-63977786D01*
X129418526Y-64143386D01*
X129325592Y-64325776D01*
X129262333Y-64520465D01*
X129230311Y-64722648D01*
X129230311Y-64927351D01*
X129262333Y-65129534D01*
X129325592Y-65324223D01*
X129418526Y-65506613D01*
X129538839Y-65672213D01*
X129538845Y-65672219D01*
X129683592Y-65816966D01*
X129729195Y-65850098D01*
X129771861Y-65905425D01*
X129780311Y-65950416D01*
X129780311Y-66221958D01*
X129760626Y-66288997D01*
X129743992Y-66309639D01*
X126653933Y-69399697D01*
X126592610Y-69433182D01*
X126522918Y-69428198D01*
X126466985Y-69386326D01*
X126455771Y-69368318D01*
X126403626Y-69265978D01*
X126403624Y-69265975D01*
X126403623Y-69265973D01*
X126274058Y-69087641D01*
X126274054Y-69087636D01*
X126118176Y-68931758D01*
X126110840Y-68926428D01*
X126006081Y-68850317D01*
X125963417Y-68794989D01*
X125957438Y-68725376D01*
X125990043Y-68663580D01*
X126006076Y-68649686D01*
X126118176Y-68568242D01*
X126274053Y-68412365D01*
X126403626Y-68234022D01*
X126503706Y-68037606D01*
X126571826Y-67827951D01*
X126606311Y-67610222D01*
X126606311Y-67389778D01*
X126571826Y-67172049D01*
X126503706Y-66962394D01*
X126503706Y-66962393D01*
X126459854Y-66876331D01*
X126403626Y-66765978D01*
X126325253Y-66658106D01*
X126274058Y-66587641D01*
X126274054Y-66587636D01*
X126118174Y-66431756D01*
X126118169Y-66431752D01*
X125939836Y-66302187D01*
X125939835Y-66302186D01*
X125939833Y-66302185D01*
X125876907Y-66270122D01*
X125743417Y-66202104D01*
X125743414Y-66202103D01*
X125533763Y-66133985D01*
X125424897Y-66116742D01*
X125316033Y-66099500D01*
X125095589Y-66099500D01*
X125023012Y-66110995D01*
X124877858Y-66133985D01*
X124668207Y-66202103D01*
X124668204Y-66202104D01*
X124471785Y-66302187D01*
X124293452Y-66431752D01*
X124293447Y-66431756D01*
X124137567Y-66587636D01*
X124137563Y-66587641D01*
X124056129Y-66699727D01*
X124000800Y-66742393D01*
X123931186Y-66748372D01*
X123869391Y-66715767D01*
X123855493Y-66699727D01*
X123774058Y-66587641D01*
X123774054Y-66587636D01*
X123618174Y-66431756D01*
X123618169Y-66431752D01*
X123439836Y-66302187D01*
X123439835Y-66302186D01*
X123439833Y-66302185D01*
X123376907Y-66270122D01*
X123243417Y-66202104D01*
X123243414Y-66202103D01*
X123033763Y-66133985D01*
X122924897Y-66116742D01*
X122816033Y-66099500D01*
X122595589Y-66099500D01*
X122523012Y-66110995D01*
X122377858Y-66133985D01*
X122168207Y-66202103D01*
X122168204Y-66202104D01*
X121971785Y-66302187D01*
X121793452Y-66431752D01*
X121793447Y-66431756D01*
X121637567Y-66587636D01*
X121637563Y-66587641D01*
X121556129Y-66699727D01*
X121500800Y-66742393D01*
X121431186Y-66748372D01*
X121369391Y-66715767D01*
X121355493Y-66699727D01*
X121274058Y-66587641D01*
X121274054Y-66587636D01*
X121118174Y-66431756D01*
X121118169Y-66431752D01*
X120939836Y-66302187D01*
X120939835Y-66302186D01*
X120939833Y-66302185D01*
X120876907Y-66270122D01*
X120743417Y-66202104D01*
X120743414Y-66202103D01*
X120533763Y-66133985D01*
X120424897Y-66116742D01*
X120316033Y-66099500D01*
X120095589Y-66099500D01*
X120023012Y-66110995D01*
X119877858Y-66133985D01*
X119668207Y-66202103D01*
X119668204Y-66202104D01*
X119471785Y-66302187D01*
X119293452Y-66431752D01*
X119293447Y-66431756D01*
X119137567Y-66587636D01*
X119137563Y-66587641D01*
X119007998Y-66765974D01*
X118907915Y-66962393D01*
X118907914Y-66962396D01*
X118839796Y-67172047D01*
X118805311Y-67389778D01*
X109335500Y-67389778D01*
X109335500Y-65547648D01*
X112680311Y-65547648D01*
X112680311Y-65752351D01*
X112712333Y-65954534D01*
X112775592Y-66149223D01*
X112868526Y-66331613D01*
X112988839Y-66497213D01*
X113133597Y-66641971D01*
X113235171Y-66715767D01*
X113299201Y-66762287D01*
X113379303Y-66803101D01*
X113481587Y-66855218D01*
X113481589Y-66855218D01*
X113481592Y-66855220D01*
X113546565Y-66876331D01*
X113676276Y-66918477D01*
X113777368Y-66934488D01*
X113878459Y-66950500D01*
X113878460Y-66950500D01*
X114083162Y-66950500D01*
X114083163Y-66950500D01*
X114285345Y-66918477D01*
X114480030Y-66855220D01*
X114662421Y-66762287D01*
X114805814Y-66658107D01*
X114828024Y-66641971D01*
X114828026Y-66641968D01*
X114828030Y-66641966D01*
X114972777Y-66497219D01*
X114972779Y-66497215D01*
X114972782Y-66497213D01*
X115034485Y-66412284D01*
X115093098Y-66331610D01*
X115186031Y-66149219D01*
X115249288Y-65954534D01*
X115281311Y-65752352D01*
X115281311Y-65547648D01*
X115249288Y-65345466D01*
X115242384Y-65324219D01*
X115186029Y-65150776D01*
X115117851Y-65016971D01*
X115093098Y-64968390D01*
X115085367Y-64957749D01*
X114972782Y-64802786D01*
X114828024Y-64658028D01*
X114662424Y-64537715D01*
X114662423Y-64537714D01*
X114662421Y-64537713D01*
X114605464Y-64508691D01*
X114480034Y-64444781D01*
X114285345Y-64381522D01*
X114110806Y-64353878D01*
X114083163Y-64349500D01*
X113878459Y-64349500D01*
X113854140Y-64353351D01*
X113676276Y-64381522D01*
X113481587Y-64444781D01*
X113299197Y-64537715D01*
X113133597Y-64658028D01*
X112988839Y-64802786D01*
X112868526Y-64968386D01*
X112775592Y-65150776D01*
X112712333Y-65345465D01*
X112680311Y-65547648D01*
X109335500Y-65547648D01*
X109335500Y-60547648D01*
X112680311Y-60547648D01*
X112680311Y-60752352D01*
X112684021Y-60775776D01*
X112712333Y-60954534D01*
X112775592Y-61149223D01*
X112830311Y-61256613D01*
X112866354Y-61327352D01*
X112868526Y-61331613D01*
X112988839Y-61497213D01*
X113133597Y-61641971D01*
X113288560Y-61754556D01*
X113299201Y-61762287D01*
X113415418Y-61821503D01*
X113481587Y-61855218D01*
X113481589Y-61855218D01*
X113481592Y-61855220D01*
X113585948Y-61889127D01*
X113676276Y-61918477D01*
X113777368Y-61934488D01*
X113878459Y-61950500D01*
X113878460Y-61950500D01*
X114083162Y-61950500D01*
X114083163Y-61950500D01*
X114285345Y-61918477D01*
X114480030Y-61855220D01*
X114662421Y-61762287D01*
X114764302Y-61688267D01*
X114828024Y-61641971D01*
X114828026Y-61641968D01*
X114828030Y-61641966D01*
X114972777Y-61497219D01*
X114972779Y-61497215D01*
X114972782Y-61497213D01*
X115043773Y-61399500D01*
X115093098Y-61331610D01*
X115174093Y-61172648D01*
X117805311Y-61172648D01*
X117805311Y-61377351D01*
X117837333Y-61579534D01*
X117900592Y-61774223D01*
X117993526Y-61956613D01*
X118113839Y-62122213D01*
X118258597Y-62266971D01*
X118355377Y-62337284D01*
X118424201Y-62387287D01*
X118508458Y-62430218D01*
X118606587Y-62480218D01*
X118606589Y-62480218D01*
X118606592Y-62480220D01*
X118710948Y-62514127D01*
X118801276Y-62543477D01*
X118902368Y-62559488D01*
X119003459Y-62575500D01*
X119003460Y-62575500D01*
X119208162Y-62575500D01*
X119208163Y-62575500D01*
X119410345Y-62543477D01*
X119605030Y-62480220D01*
X119787421Y-62387287D01*
X119880401Y-62319732D01*
X119953024Y-62266971D01*
X119953026Y-62266968D01*
X119953030Y-62266966D01*
X120097777Y-62122219D01*
X120097779Y-62122215D01*
X120097782Y-62122213D01*
X120150543Y-62049590D01*
X120218098Y-61956610D01*
X120311031Y-61774219D01*
X120374288Y-61579534D01*
X120406311Y-61377352D01*
X120406311Y-61172648D01*
X122805311Y-61172648D01*
X122805311Y-61377351D01*
X122837333Y-61579534D01*
X122900592Y-61774223D01*
X122993526Y-61956613D01*
X123113839Y-62122213D01*
X123258597Y-62266971D01*
X123355377Y-62337284D01*
X123424201Y-62387287D01*
X123508458Y-62430218D01*
X123606587Y-62480218D01*
X123606589Y-62480218D01*
X123606592Y-62480220D01*
X123710948Y-62514127D01*
X123801276Y-62543477D01*
X123902368Y-62559488D01*
X124003459Y-62575500D01*
X124003460Y-62575500D01*
X124208162Y-62575500D01*
X124208163Y-62575500D01*
X124410345Y-62543477D01*
X124605030Y-62480220D01*
X124787421Y-62387287D01*
X124880401Y-62319732D01*
X124953024Y-62266971D01*
X124953026Y-62266968D01*
X124953030Y-62266966D01*
X125097777Y-62122219D01*
X125097779Y-62122215D01*
X125097782Y-62122213D01*
X125150543Y-62049590D01*
X125218098Y-61956610D01*
X125311031Y-61774219D01*
X125374288Y-61579534D01*
X125406311Y-61377352D01*
X125406311Y-61172648D01*
X125398392Y-61122648D01*
X126430311Y-61122648D01*
X126430311Y-61327352D01*
X126430986Y-61331613D01*
X126462333Y-61529534D01*
X126525592Y-61724223D01*
X126618526Y-61906613D01*
X126738839Y-62072213D01*
X126883597Y-62216971D01*
X127038560Y-62329556D01*
X127049201Y-62337287D01*
X127163382Y-62395465D01*
X127231587Y-62430218D01*
X127231589Y-62430218D01*
X127231592Y-62430220D01*
X127335948Y-62464127D01*
X127426276Y-62493477D01*
X127527368Y-62509488D01*
X127628459Y-62525500D01*
X127628460Y-62525500D01*
X127833162Y-62525500D01*
X127833163Y-62525500D01*
X128035345Y-62493477D01*
X128230030Y-62430220D01*
X128412421Y-62337287D01*
X128505401Y-62269732D01*
X128578024Y-62216971D01*
X128578026Y-62216968D01*
X128578030Y-62216966D01*
X128722777Y-62072219D01*
X128722779Y-62072215D01*
X128722782Y-62072213D01*
X128811210Y-61950500D01*
X128843098Y-61906610D01*
X128936031Y-61724219D01*
X128999288Y-61529534D01*
X129031311Y-61327352D01*
X129031311Y-61122648D01*
X129023641Y-61074223D01*
X128999288Y-60920465D01*
X128936029Y-60725776D01*
X128868572Y-60593386D01*
X128843098Y-60543390D01*
X128807586Y-60494511D01*
X128722782Y-60377786D01*
X128578024Y-60233028D01*
X128412424Y-60112715D01*
X128412423Y-60112714D01*
X128412421Y-60112713D01*
X128339928Y-60075776D01*
X128230034Y-60019781D01*
X128035345Y-59956522D01*
X127860806Y-59928878D01*
X127833163Y-59924500D01*
X127628459Y-59924500D01*
X127604140Y-59928351D01*
X127426276Y-59956522D01*
X127231587Y-60019781D01*
X127049197Y-60112715D01*
X126883597Y-60233028D01*
X126738839Y-60377786D01*
X126618526Y-60543386D01*
X126525592Y-60725776D01*
X126462333Y-60920465D01*
X126437981Y-61074223D01*
X126430311Y-61122648D01*
X125398392Y-61122648D01*
X125374288Y-60970466D01*
X125311031Y-60775781D01*
X125311029Y-60775778D01*
X125311029Y-60775776D01*
X125277314Y-60709607D01*
X125218098Y-60593390D01*
X125184865Y-60547648D01*
X125097782Y-60427786D01*
X124953024Y-60283028D01*
X124787424Y-60162715D01*
X124787423Y-60162714D01*
X124787421Y-60162713D01*
X124689291Y-60112713D01*
X124605034Y-60069781D01*
X124410345Y-60006522D01*
X124235806Y-59978878D01*
X124208163Y-59974500D01*
X124003459Y-59974500D01*
X123979140Y-59978351D01*
X123801276Y-60006522D01*
X123606587Y-60069781D01*
X123424197Y-60162715D01*
X123258597Y-60283028D01*
X123113839Y-60427786D01*
X122993526Y-60593386D01*
X122900592Y-60775776D01*
X122837333Y-60970465D01*
X122805311Y-61172648D01*
X120406311Y-61172648D01*
X120374288Y-60970466D01*
X120369111Y-60954534D01*
X120320840Y-60805970D01*
X120311031Y-60775781D01*
X120311029Y-60775778D01*
X120311029Y-60775776D01*
X120277314Y-60709607D01*
X120218098Y-60593390D01*
X120184865Y-60547648D01*
X120097782Y-60427786D01*
X119953024Y-60283028D01*
X119787424Y-60162715D01*
X119787423Y-60162714D01*
X119787421Y-60162713D01*
X119689291Y-60112713D01*
X119605034Y-60069781D01*
X119410345Y-60006522D01*
X119235806Y-59978878D01*
X119208163Y-59974500D01*
X119003459Y-59974500D01*
X118979140Y-59978351D01*
X118801276Y-60006522D01*
X118606587Y-60069781D01*
X118424197Y-60162715D01*
X118258597Y-60283028D01*
X118113839Y-60427786D01*
X117993526Y-60593386D01*
X117900592Y-60775776D01*
X117837333Y-60970465D01*
X117805311Y-61172648D01*
X115174093Y-61172648D01*
X115186031Y-61149219D01*
X115194047Y-61124548D01*
X115249287Y-60954538D01*
X115249287Y-60954537D01*
X115249288Y-60954534D01*
X115281311Y-60752352D01*
X115281311Y-60547648D01*
X115269432Y-60472648D01*
X115249288Y-60345465D01*
X115201259Y-60197648D01*
X115186031Y-60150781D01*
X115186029Y-60150778D01*
X115186029Y-60150776D01*
X115152314Y-60084607D01*
X115093098Y-59968390D01*
X115084475Y-59956522D01*
X114972782Y-59802786D01*
X114828024Y-59658028D01*
X114662424Y-59537715D01*
X114662423Y-59537714D01*
X114662421Y-59537713D01*
X114605464Y-59508691D01*
X114480034Y-59444781D01*
X114285345Y-59381522D01*
X114110806Y-59353878D01*
X114083163Y-59349500D01*
X113878459Y-59349500D01*
X113854140Y-59353351D01*
X113676276Y-59381522D01*
X113481587Y-59444781D01*
X113299197Y-59537715D01*
X113133597Y-59658028D01*
X112988839Y-59802786D01*
X112868526Y-59968386D01*
X112775592Y-60150776D01*
X112712333Y-60345465D01*
X112692190Y-60472648D01*
X112680311Y-60547648D01*
X109335500Y-60547648D01*
X109335500Y-52046153D01*
X113239500Y-52046153D01*
X113239500Y-52203846D01*
X113270261Y-52358489D01*
X113270264Y-52358501D01*
X113330602Y-52504172D01*
X113330609Y-52504185D01*
X113418210Y-52635288D01*
X113418213Y-52635292D01*
X113529707Y-52746786D01*
X113529711Y-52746789D01*
X113660814Y-52834390D01*
X113660827Y-52834397D01*
X113751101Y-52871789D01*
X113806503Y-52894737D01*
X113961153Y-52925499D01*
X113961156Y-52925500D01*
X113961158Y-52925500D01*
X114118844Y-52925500D01*
X114118845Y-52925499D01*
X114273497Y-52894737D01*
X114419179Y-52834394D01*
X114550289Y-52746789D01*
X114661789Y-52635289D01*
X114749394Y-52504179D01*
X114759191Y-52480524D01*
X114786069Y-52440297D01*
X121627819Y-45598548D01*
X121689142Y-45565063D01*
X121758834Y-45570047D01*
X121814767Y-45611919D01*
X121839184Y-45677383D01*
X121839500Y-45686229D01*
X121839500Y-50698918D01*
X121839500Y-50698920D01*
X121839499Y-50698920D01*
X121868340Y-50843907D01*
X121868342Y-50843913D01*
X121924915Y-50980493D01*
X121926668Y-50983116D01*
X121926672Y-50983128D01*
X121926675Y-50983127D01*
X122007051Y-51103420D01*
X122007052Y-51103421D01*
X123132049Y-52228416D01*
X123232475Y-52328842D01*
X123236585Y-52332952D01*
X123359498Y-52415080D01*
X123359511Y-52415087D01*
X123496082Y-52471656D01*
X123496087Y-52471658D01*
X123496091Y-52471658D01*
X123496092Y-52471659D01*
X123641079Y-52500500D01*
X123641082Y-52500500D01*
X140688920Y-52500500D01*
X140789327Y-52480527D01*
X140833913Y-52471658D01*
X140970495Y-52415084D01*
X141055184Y-52358497D01*
X141093416Y-52332952D01*
X141364549Y-52061817D01*
X141425870Y-52028334D01*
X141452229Y-52025500D01*
X161327770Y-52025500D01*
X161394809Y-52045185D01*
X161415451Y-52061819D01*
X161918927Y-52565295D01*
X161945806Y-52605521D01*
X161955606Y-52629179D01*
X161955607Y-52629181D01*
X162043207Y-52760284D01*
X162043213Y-52760292D01*
X162154707Y-52871786D01*
X162154711Y-52871789D01*
X162285814Y-52959390D01*
X162285827Y-52959397D01*
X162431498Y-53019735D01*
X162431503Y-53019737D01*
X162586153Y-53050499D01*
X162586156Y-53050500D01*
X162586158Y-53050500D01*
X162743844Y-53050500D01*
X162743845Y-53050499D01*
X162898497Y-53019737D01*
X163044179Y-52959394D01*
X163175289Y-52871789D01*
X163286789Y-52760289D01*
X163374394Y-52629179D01*
X163434737Y-52483497D01*
X163465500Y-52328842D01*
X163465500Y-52171158D01*
X163465500Y-52171155D01*
X163465499Y-52171153D01*
X163443751Y-52061819D01*
X163434737Y-52016503D01*
X163382959Y-51891498D01*
X163374397Y-51870827D01*
X163374390Y-51870814D01*
X163286789Y-51739711D01*
X163286786Y-51739707D01*
X163175292Y-51628213D01*
X163175284Y-51628207D01*
X163044181Y-51540607D01*
X163044179Y-51540606D01*
X163020521Y-51530806D01*
X162980295Y-51503927D01*
X162168421Y-50692052D01*
X162168414Y-50692046D01*
X162094729Y-50642812D01*
X162094729Y-50642813D01*
X162045491Y-50609913D01*
X161908917Y-50553343D01*
X161908907Y-50553340D01*
X161763920Y-50524500D01*
X161763918Y-50524500D01*
X153514500Y-50524500D01*
X153447461Y-50504815D01*
X153401706Y-50452011D01*
X153390500Y-50400500D01*
X153390500Y-50271155D01*
X153390499Y-50271153D01*
X153359739Y-50116511D01*
X153359738Y-50116508D01*
X153359737Y-50116503D01*
X153349937Y-50092844D01*
X153340500Y-50045396D01*
X153340500Y-48766735D01*
X153342883Y-48742543D01*
X153365500Y-48628844D01*
X153365500Y-48471155D01*
X153365499Y-48471153D01*
X153334737Y-48316503D01*
X153287037Y-48201344D01*
X153274397Y-48170827D01*
X153274390Y-48170814D01*
X153186789Y-48039711D01*
X153186786Y-48039707D01*
X153075292Y-47928213D01*
X153075288Y-47928210D01*
X152944185Y-47840609D01*
X152944172Y-47840602D01*
X152798501Y-47780264D01*
X152798489Y-47780261D01*
X152643845Y-47749500D01*
X152643842Y-47749500D01*
X152486158Y-47749500D01*
X152486155Y-47749500D01*
X152331510Y-47780261D01*
X152331498Y-47780264D01*
X152185827Y-47840602D01*
X152185814Y-47840609D01*
X152054711Y-47928210D01*
X152054707Y-47928213D01*
X151943213Y-48039707D01*
X151943210Y-48039711D01*
X151855609Y-48170814D01*
X151855602Y-48170827D01*
X151795264Y-48316498D01*
X151795261Y-48316510D01*
X151764500Y-48471153D01*
X151764500Y-48628846D01*
X151795261Y-48783489D01*
X151795264Y-48783501D01*
X151830061Y-48867508D01*
X151839500Y-48914960D01*
X151839500Y-50045396D01*
X151830062Y-50092844D01*
X151820263Y-50116503D01*
X151820262Y-50116506D01*
X151820260Y-50116511D01*
X151789500Y-50271153D01*
X151789500Y-50400500D01*
X151769815Y-50467539D01*
X151717011Y-50513294D01*
X151665500Y-50524500D01*
X141394604Y-50524500D01*
X141347155Y-50515062D01*
X141323497Y-50505263D01*
X141323493Y-50505262D01*
X141323488Y-50505260D01*
X141168845Y-50474500D01*
X141168842Y-50474500D01*
X141011158Y-50474500D01*
X141011155Y-50474500D01*
X140856510Y-50505261D01*
X140856498Y-50505264D01*
X140710827Y-50565602D01*
X140710814Y-50565609D01*
X140579711Y-50653210D01*
X140579707Y-50653213D01*
X140468213Y-50764707D01*
X140468210Y-50764711D01*
X140380609Y-50895814D01*
X140380603Y-50895826D01*
X140370806Y-50919478D01*
X140366181Y-50926400D01*
X140365087Y-50931434D01*
X140343940Y-50959692D01*
X140340461Y-50963170D01*
X140279146Y-50996662D01*
X140252770Y-50999500D01*
X124077229Y-50999500D01*
X124010190Y-50979815D01*
X123989548Y-50963181D01*
X123376819Y-50350451D01*
X123343334Y-50289128D01*
X123340500Y-50262770D01*
X123340500Y-47571153D01*
X133829500Y-47571153D01*
X133829500Y-47728846D01*
X133860261Y-47883489D01*
X133860263Y-47883497D01*
X133870872Y-47909109D01*
X133880311Y-47956562D01*
X133880311Y-49245396D01*
X133870873Y-49292844D01*
X133861074Y-49316503D01*
X133861073Y-49316506D01*
X133861071Y-49316511D01*
X133830311Y-49471153D01*
X133830311Y-49628846D01*
X133861072Y-49783489D01*
X133861075Y-49783501D01*
X133921413Y-49929172D01*
X133921420Y-49929185D01*
X134009021Y-50060288D01*
X134009024Y-50060292D01*
X134120518Y-50171786D01*
X134120522Y-50171789D01*
X134251625Y-50259390D01*
X134251638Y-50259397D01*
X134383782Y-50314132D01*
X134397314Y-50319737D01*
X134551723Y-50350451D01*
X134551964Y-50350499D01*
X134551967Y-50350500D01*
X134551969Y-50350500D01*
X134709655Y-50350500D01*
X134709656Y-50350499D01*
X134864308Y-50319737D01*
X135009990Y-50259394D01*
X135141100Y-50171789D01*
X135252600Y-50060289D01*
X135340205Y-49929179D01*
X135400548Y-49783497D01*
X135431311Y-49628842D01*
X135431311Y-49471158D01*
X135431311Y-49471155D01*
X135431310Y-49471153D01*
X135400550Y-49316511D01*
X135400549Y-49316508D01*
X135400548Y-49316503D01*
X135390748Y-49292844D01*
X135389122Y-49284670D01*
X135386334Y-49280331D01*
X135381311Y-49245396D01*
X135381311Y-49238653D01*
X136347000Y-49238653D01*
X136347000Y-49396346D01*
X136377761Y-49550989D01*
X136377764Y-49551001D01*
X136438102Y-49696672D01*
X136438109Y-49696685D01*
X136525710Y-49827788D01*
X136525713Y-49827792D01*
X136637207Y-49939286D01*
X136637211Y-49939289D01*
X136768314Y-50026890D01*
X136768327Y-50026897D01*
X136913998Y-50087235D01*
X136914003Y-50087237D01*
X137024212Y-50109159D01*
X137068653Y-50117999D01*
X137068656Y-50118000D01*
X137068658Y-50118000D01*
X137226344Y-50118000D01*
X137226345Y-50117999D01*
X137380997Y-50087237D01*
X137526679Y-50026894D01*
X137657789Y-49939289D01*
X137769289Y-49827789D01*
X137856894Y-49696679D01*
X137866691Y-49673024D01*
X137893569Y-49632797D01*
X138657797Y-48868569D01*
X138698022Y-48841692D01*
X138721679Y-48831894D01*
X138852789Y-48744289D01*
X138964289Y-48632789D01*
X139051894Y-48501679D01*
X139112237Y-48355997D01*
X139143000Y-48201342D01*
X139143000Y-48043658D01*
X139143000Y-48043655D01*
X139142999Y-48043653D01*
X139112238Y-47889010D01*
X139112237Y-47889003D01*
X139092192Y-47840609D01*
X139051897Y-47743327D01*
X139051890Y-47743314D01*
X138964289Y-47612211D01*
X138964286Y-47612207D01*
X138852792Y-47500713D01*
X138852788Y-47500710D01*
X138721685Y-47413109D01*
X138721672Y-47413102D01*
X138576001Y-47352764D01*
X138575989Y-47352761D01*
X138421345Y-47322000D01*
X138421342Y-47322000D01*
X138263658Y-47322000D01*
X138263655Y-47322000D01*
X138109010Y-47352761D01*
X138108998Y-47352764D01*
X137963327Y-47413102D01*
X137963314Y-47413109D01*
X137832211Y-47500710D01*
X137832207Y-47500713D01*
X137720713Y-47612207D01*
X137720707Y-47612215D01*
X137633107Y-47743318D01*
X137633106Y-47743319D01*
X137623305Y-47766980D01*
X137596427Y-47807203D01*
X136832203Y-48571427D01*
X136791980Y-48598305D01*
X136768319Y-48608106D01*
X136768318Y-48608107D01*
X136637215Y-48695707D01*
X136637207Y-48695713D01*
X136525713Y-48807207D01*
X136525710Y-48807211D01*
X136438109Y-48938314D01*
X136438102Y-48938327D01*
X136377764Y-49083998D01*
X136377761Y-49084010D01*
X136347000Y-49238653D01*
X135381311Y-49238653D01*
X135381311Y-47952646D01*
X135390750Y-47905193D01*
X135397458Y-47888998D01*
X135399737Y-47883497D01*
X135430500Y-47728842D01*
X135430500Y-47571158D01*
X135430500Y-47571155D01*
X135430499Y-47571153D01*
X135416650Y-47501531D01*
X135399737Y-47416503D01*
X135384138Y-47378844D01*
X135339397Y-47270827D01*
X135339390Y-47270814D01*
X135251789Y-47139711D01*
X135251786Y-47139707D01*
X135140292Y-47028213D01*
X135140288Y-47028210D01*
X135009185Y-46940609D01*
X135009172Y-46940602D01*
X134863501Y-46880264D01*
X134863489Y-46880261D01*
X134708845Y-46849500D01*
X134708842Y-46849500D01*
X134551158Y-46849500D01*
X134551155Y-46849500D01*
X134396510Y-46880261D01*
X134396498Y-46880264D01*
X134250827Y-46940602D01*
X134250814Y-46940609D01*
X134119711Y-47028210D01*
X134119707Y-47028213D01*
X134008213Y-47139707D01*
X134008210Y-47139711D01*
X133920609Y-47270814D01*
X133920602Y-47270827D01*
X133860264Y-47416498D01*
X133860261Y-47416510D01*
X133829500Y-47571153D01*
X123340500Y-47571153D01*
X123340500Y-40023543D01*
X134814499Y-40023543D01*
X134852947Y-40216829D01*
X134852950Y-40216839D01*
X134928364Y-40398907D01*
X134928371Y-40398920D01*
X135037860Y-40562781D01*
X135037863Y-40562785D01*
X135181537Y-40706459D01*
X135181559Y-40706479D01*
X138719735Y-44244655D01*
X138719764Y-44244686D01*
X138862214Y-44387136D01*
X138862218Y-44387139D01*
X139026079Y-44496628D01*
X139026092Y-44496635D01*
X139154833Y-44549961D01*
X139166999Y-44555000D01*
X139208164Y-44572051D01*
X139304812Y-44591275D01*
X139353135Y-44600887D01*
X139401458Y-44610500D01*
X139401459Y-44610500D01*
X139401460Y-44610500D01*
X139598540Y-44610500D01*
X141029238Y-44610500D01*
X141096277Y-44630185D01*
X141102119Y-44634179D01*
X141223390Y-44722287D01*
X141339607Y-44781503D01*
X141405776Y-44815218D01*
X141405778Y-44815218D01*
X141405781Y-44815220D01*
X141510137Y-44849127D01*
X141600465Y-44878477D01*
X141677966Y-44890751D01*
X141748513Y-44901925D01*
X141811648Y-44931854D01*
X141816796Y-44936716D01*
X142627860Y-45747781D01*
X142627861Y-45747782D01*
X142767218Y-45887139D01*
X142931086Y-45996632D01*
X143037745Y-46040811D01*
X143113164Y-46072051D01*
X143306454Y-46110499D01*
X143306457Y-46110500D01*
X146975383Y-46110500D01*
X147042422Y-46130185D01*
X147088177Y-46182989D01*
X147098121Y-46252147D01*
X147069096Y-46315703D01*
X147022835Y-46349061D01*
X146970827Y-46370602D01*
X146970814Y-46370609D01*
X146839711Y-46458210D01*
X146839707Y-46458213D01*
X146728213Y-46569707D01*
X146728210Y-46569711D01*
X146640609Y-46700814D01*
X146640602Y-46700827D01*
X146580264Y-46846498D01*
X146580261Y-46846510D01*
X146549500Y-47001153D01*
X146549500Y-47158846D01*
X146580261Y-47313489D01*
X146580264Y-47313501D01*
X146640602Y-47459172D01*
X146640609Y-47459185D01*
X146728210Y-47590288D01*
X146728213Y-47590292D01*
X146839710Y-47701789D01*
X146957157Y-47780264D01*
X146970821Y-47789394D01*
X146994475Y-47799191D01*
X147034703Y-47826071D01*
X148073927Y-48865295D01*
X148100807Y-48905523D01*
X148110604Y-48929175D01*
X148110609Y-48929185D01*
X148198210Y-49060288D01*
X148198213Y-49060292D01*
X148309707Y-49171786D01*
X148309711Y-49171789D01*
X148440814Y-49259390D01*
X148440827Y-49259397D01*
X148586498Y-49319735D01*
X148586503Y-49319737D01*
X148741153Y-49350499D01*
X148741156Y-49350500D01*
X148741158Y-49350500D01*
X148898844Y-49350500D01*
X148898845Y-49350499D01*
X149053497Y-49319737D01*
X149199179Y-49259394D01*
X149330289Y-49171789D01*
X149441789Y-49060289D01*
X149529394Y-48929179D01*
X149589737Y-48783497D01*
X149620500Y-48628842D01*
X149620500Y-48471158D01*
X149620500Y-48471155D01*
X149620499Y-48471153D01*
X149589737Y-48316503D01*
X149542037Y-48201344D01*
X149529397Y-48170827D01*
X149529390Y-48170814D01*
X149441789Y-48039711D01*
X149441786Y-48039707D01*
X149330292Y-47928213D01*
X149330288Y-47928210D01*
X149199185Y-47840609D01*
X149199175Y-47840604D01*
X149175523Y-47830807D01*
X149135295Y-47803927D01*
X148452521Y-47121153D01*
X163059500Y-47121153D01*
X163059500Y-47278846D01*
X163086884Y-47416510D01*
X163090263Y-47433497D01*
X163098783Y-47454067D01*
X163100061Y-47457151D01*
X163101416Y-47463547D01*
X163103575Y-47466731D01*
X163107768Y-47493537D01*
X163109462Y-47501531D01*
X163109500Y-47503063D01*
X163109500Y-47668918D01*
X163114197Y-47692534D01*
X163114462Y-47703194D01*
X163114268Y-47703918D01*
X163114500Y-47706267D01*
X163114500Y-50370396D01*
X163105062Y-50417844D01*
X163096147Y-50439370D01*
X163095262Y-50441506D01*
X163095260Y-50441511D01*
X163064500Y-50596153D01*
X163064500Y-50753846D01*
X163095261Y-50908489D01*
X163095264Y-50908501D01*
X163155602Y-51054172D01*
X163155609Y-51054185D01*
X163243210Y-51185288D01*
X163243213Y-51185292D01*
X163354707Y-51296786D01*
X163354711Y-51296789D01*
X163485814Y-51384390D01*
X163485827Y-51384397D01*
X163561176Y-51415607D01*
X163631503Y-51444737D01*
X163786153Y-51475499D01*
X163786156Y-51475500D01*
X163786158Y-51475500D01*
X163943844Y-51475500D01*
X163943845Y-51475499D01*
X164098497Y-51444737D01*
X164244179Y-51384394D01*
X164375289Y-51296789D01*
X164486789Y-51185289D01*
X164574394Y-51054179D01*
X164634737Y-50908497D01*
X164665500Y-50753842D01*
X164665500Y-50596158D01*
X164665500Y-50596155D01*
X164665499Y-50596153D01*
X164634739Y-50441511D01*
X164634738Y-50441508D01*
X164634737Y-50441503D01*
X164624937Y-50417844D01*
X164615500Y-50370396D01*
X164615500Y-47526085D01*
X164615500Y-47526082D01*
X164615017Y-47523655D01*
X164615133Y-47522357D01*
X164614903Y-47520019D01*
X164615346Y-47519975D01*
X164621237Y-47454067D01*
X164622026Y-47452112D01*
X164629737Y-47433497D01*
X164660500Y-47278842D01*
X164660500Y-47221153D01*
X177714500Y-47221153D01*
X177714500Y-47378846D01*
X177745261Y-47533489D01*
X177745263Y-47533497D01*
X177755061Y-47557151D01*
X177764500Y-47604604D01*
X177764500Y-49437399D01*
X177755062Y-49484847D01*
X177750243Y-49496483D01*
X177750242Y-49496486D01*
X177750240Y-49496491D01*
X177719480Y-49651133D01*
X177719480Y-49808826D01*
X177750241Y-49963469D01*
X177750244Y-49963481D01*
X177810582Y-50109152D01*
X177810589Y-50109165D01*
X177898190Y-50240268D01*
X177898193Y-50240272D01*
X178009687Y-50351766D01*
X178009691Y-50351769D01*
X178140794Y-50439370D01*
X178140807Y-50439377D01*
X178225603Y-50474500D01*
X178286483Y-50499717D01*
X178411075Y-50524500D01*
X178441133Y-50530479D01*
X178441136Y-50530480D01*
X178441138Y-50530480D01*
X178598824Y-50530480D01*
X178598825Y-50530479D01*
X178753477Y-50499717D01*
X178899159Y-50439374D01*
X179030269Y-50351769D01*
X179141769Y-50240269D01*
X179229374Y-50109159D01*
X179289717Y-49963477D01*
X179320480Y-49808822D01*
X179320480Y-49651138D01*
X179320480Y-49651135D01*
X179320479Y-49651133D01*
X179289719Y-49496491D01*
X179289718Y-49496490D01*
X179289717Y-49496483D01*
X179274937Y-49460800D01*
X179265500Y-49413353D01*
X179265500Y-47604604D01*
X179274939Y-47557151D01*
X179284737Y-47533497D01*
X179315500Y-47378842D01*
X179315500Y-47221158D01*
X179315500Y-47221155D01*
X179315499Y-47221153D01*
X179299298Y-47139707D01*
X179284737Y-47066503D01*
X179268876Y-47028210D01*
X179224397Y-46920827D01*
X179224390Y-46920814D01*
X179136789Y-46789711D01*
X179136786Y-46789707D01*
X179025292Y-46678213D01*
X179025288Y-46678210D01*
X178894185Y-46590609D01*
X178894172Y-46590602D01*
X178748501Y-46530264D01*
X178748489Y-46530261D01*
X178593845Y-46499500D01*
X178593842Y-46499500D01*
X178436158Y-46499500D01*
X178436155Y-46499500D01*
X178281510Y-46530261D01*
X178281498Y-46530264D01*
X178135827Y-46590602D01*
X178135814Y-46590609D01*
X178004711Y-46678210D01*
X178004707Y-46678213D01*
X177893213Y-46789707D01*
X177893210Y-46789711D01*
X177805609Y-46920814D01*
X177805602Y-46920827D01*
X177745264Y-47066498D01*
X177745261Y-47066510D01*
X177714500Y-47221153D01*
X164660500Y-47221153D01*
X164660500Y-47121158D01*
X164660500Y-47121155D01*
X164660499Y-47121153D01*
X164642012Y-47028213D01*
X164629737Y-46966503D01*
X164629735Y-46966498D01*
X164569397Y-46820827D01*
X164569390Y-46820814D01*
X164481789Y-46689711D01*
X164481786Y-46689707D01*
X164370292Y-46578213D01*
X164370288Y-46578210D01*
X164239185Y-46490609D01*
X164239172Y-46490602D01*
X164093501Y-46430264D01*
X164093489Y-46430261D01*
X163938845Y-46399500D01*
X163938842Y-46399500D01*
X163781158Y-46399500D01*
X163781155Y-46399500D01*
X163626510Y-46430261D01*
X163626498Y-46430264D01*
X163480827Y-46490602D01*
X163480814Y-46490609D01*
X163349711Y-46578210D01*
X163349707Y-46578213D01*
X163238213Y-46689707D01*
X163238210Y-46689711D01*
X163150609Y-46820814D01*
X163150602Y-46820827D01*
X163090264Y-46966498D01*
X163090261Y-46966510D01*
X163059500Y-47121153D01*
X148452521Y-47121153D01*
X148096071Y-46764703D01*
X148069191Y-46724475D01*
X148059394Y-46700821D01*
X148044288Y-46678213D01*
X147971789Y-46569710D01*
X147860292Y-46458213D01*
X147860288Y-46458210D01*
X147729185Y-46370609D01*
X147729172Y-46370602D01*
X147677165Y-46349061D01*
X147622761Y-46305221D01*
X147600696Y-46238927D01*
X147617975Y-46171227D01*
X147669112Y-46123616D01*
X147724617Y-46110500D01*
X168213542Y-46110500D01*
X168244566Y-46104328D01*
X168310188Y-46091275D01*
X168406836Y-46072051D01*
X168460165Y-46049961D01*
X168588914Y-45996632D01*
X168752782Y-45887139D01*
X168892139Y-45747782D01*
X168892140Y-45747779D01*
X168899206Y-45740714D01*
X168899209Y-45740710D01*
X170058203Y-44581715D01*
X170119524Y-44548232D01*
X170126473Y-44546927D01*
X170274534Y-44523477D01*
X170469219Y-44460220D01*
X170651610Y-44367287D01*
X170744590Y-44299732D01*
X170817213Y-44246971D01*
X170817215Y-44246968D01*
X170817219Y-44246966D01*
X170961966Y-44102219D01*
X170961968Y-44102215D01*
X170961971Y-44102213D01*
X171048771Y-43982741D01*
X171082287Y-43936610D01*
X171175220Y-43754219D01*
X171238477Y-43559534D01*
X171270500Y-43357352D01*
X171270500Y-43152648D01*
X171261926Y-43098515D01*
X171238477Y-42950465D01*
X171198591Y-42827710D01*
X171175220Y-42755781D01*
X171175218Y-42755778D01*
X171175218Y-42755776D01*
X171141503Y-42689607D01*
X171082287Y-42573390D01*
X171068440Y-42554331D01*
X170961971Y-42407786D01*
X170817213Y-42263028D01*
X170651611Y-42142713D01*
X170558369Y-42095203D01*
X170507574Y-42047229D01*
X170490779Y-41979407D01*
X170513317Y-41913273D01*
X170558371Y-41874234D01*
X170651346Y-41826861D01*
X170651347Y-41826861D01*
X170695921Y-41794474D01*
X170016447Y-41115000D01*
X170022661Y-41115000D01*
X170124394Y-41087741D01*
X170215606Y-41035080D01*
X170290080Y-40960606D01*
X170342741Y-40869394D01*
X170370000Y-40767661D01*
X170370000Y-40761446D01*
X171049474Y-41440921D01*
X171081859Y-41396349D01*
X171174755Y-41214031D01*
X171237990Y-41019417D01*
X171270000Y-40817317D01*
X171270000Y-40612685D01*
X171266394Y-40589921D01*
X171275348Y-40520628D01*
X171320343Y-40467175D01*
X171387094Y-40446534D01*
X171413063Y-40448905D01*
X171421080Y-40450500D01*
X171421082Y-40450500D01*
X171421083Y-40450500D01*
X171568918Y-40450500D01*
X172530202Y-40450500D01*
X172597241Y-40470185D01*
X172635739Y-40509401D01*
X172672288Y-40568656D01*
X172796344Y-40692712D01*
X172945666Y-40784814D01*
X173112203Y-40839999D01*
X173214991Y-40850500D01*
X174565008Y-40850499D01*
X174667797Y-40839999D01*
X174834334Y-40784814D01*
X174983656Y-40692712D01*
X175107712Y-40568656D01*
X175199814Y-40419334D01*
X175254999Y-40252797D01*
X175265500Y-40150009D01*
X175265499Y-39249992D01*
X175254999Y-39147203D01*
X175199814Y-38980666D01*
X175107712Y-38831344D01*
X174983656Y-38707288D01*
X174834334Y-38615186D01*
X174667797Y-38560001D01*
X174667795Y-38560000D01*
X174565010Y-38549500D01*
X173214998Y-38549500D01*
X173214981Y-38549501D01*
X173112203Y-38560000D01*
X173112200Y-38560001D01*
X172945668Y-38615185D01*
X172945663Y-38615187D01*
X172796342Y-38707289D01*
X172672289Y-38831342D01*
X172635741Y-38890597D01*
X172583793Y-38937321D01*
X172530202Y-38949500D01*
X171857229Y-38949500D01*
X171790190Y-38929815D01*
X171769548Y-38913181D01*
X171296473Y-38440106D01*
X171262988Y-38378783D01*
X171261681Y-38333028D01*
X171270500Y-38277352D01*
X171270500Y-38072648D01*
X171238477Y-37870466D01*
X171220992Y-37816654D01*
X171175218Y-37675776D01*
X171101346Y-37530795D01*
X171088450Y-37462126D01*
X171114726Y-37397385D01*
X171171833Y-37357128D01*
X171211831Y-37350500D01*
X172530202Y-37350500D01*
X172597241Y-37370185D01*
X172635739Y-37409401D01*
X172672288Y-37468656D01*
X172796344Y-37592712D01*
X172945666Y-37684814D01*
X173112203Y-37739999D01*
X173214991Y-37750500D01*
X174565008Y-37750499D01*
X174667797Y-37739999D01*
X174834334Y-37684814D01*
X174983656Y-37592712D01*
X175107712Y-37468656D01*
X175199814Y-37319334D01*
X175254999Y-37152797D01*
X175265500Y-37050009D01*
X175265499Y-36149992D01*
X175261303Y-36108920D01*
X175254999Y-36047203D01*
X175254998Y-36047200D01*
X175215114Y-35926839D01*
X175199814Y-35880666D01*
X175107712Y-35731344D01*
X174983656Y-35607288D01*
X174868823Y-35536459D01*
X174834336Y-35515187D01*
X174834331Y-35515185D01*
X174832862Y-35514698D01*
X174667797Y-35460001D01*
X174667795Y-35460000D01*
X174565010Y-35449500D01*
X173214998Y-35449500D01*
X173214981Y-35449501D01*
X173112203Y-35460000D01*
X173112200Y-35460001D01*
X172945668Y-35515185D01*
X172945663Y-35515187D01*
X172796342Y-35607289D01*
X172672289Y-35731342D01*
X172659738Y-35751691D01*
X172639487Y-35784524D01*
X172635741Y-35790597D01*
X172583793Y-35837321D01*
X172530202Y-35849500D01*
X171394500Y-35849500D01*
X171327461Y-35829815D01*
X171281706Y-35777011D01*
X171270500Y-35725500D01*
X171270499Y-35259500D01*
X171290183Y-35192461D01*
X171342987Y-35146706D01*
X171394499Y-35135500D01*
X175624218Y-35135500D01*
X175691257Y-35155185D01*
X175711899Y-35171819D01*
X176263281Y-35723201D01*
X176296766Y-35784524D01*
X176298073Y-35791483D01*
X176321523Y-35939535D01*
X176384781Y-36134223D01*
X176436140Y-36235019D01*
X176455381Y-36272782D01*
X176477715Y-36316613D01*
X176598028Y-36482213D01*
X176742786Y-36626971D01*
X176897749Y-36739556D01*
X176908390Y-36747287D01*
X176999840Y-36793883D01*
X177001080Y-36794515D01*
X177051876Y-36842490D01*
X177068671Y-36910311D01*
X177046134Y-36976446D01*
X177001080Y-37015485D01*
X176908386Y-37062715D01*
X176742786Y-37183028D01*
X176598028Y-37327786D01*
X176477715Y-37493386D01*
X176384781Y-37675776D01*
X176321522Y-37870465D01*
X176289500Y-38072648D01*
X176289500Y-38277351D01*
X176321522Y-38479534D01*
X176384781Y-38674223D01*
X176448691Y-38799653D01*
X176466468Y-38834541D01*
X176477715Y-38856613D01*
X176598028Y-39022213D01*
X176742786Y-39166971D01*
X176874535Y-39262690D01*
X176908390Y-39287287D01*
X176999840Y-39333883D01*
X177001080Y-39334515D01*
X177051876Y-39382490D01*
X177068671Y-39450311D01*
X177046134Y-39516446D01*
X177001080Y-39555485D01*
X176908386Y-39602715D01*
X176742786Y-39723028D01*
X176598028Y-39867786D01*
X176477715Y-40033386D01*
X176384781Y-40215776D01*
X176321522Y-40410465D01*
X176289500Y-40612648D01*
X176289500Y-40817351D01*
X176321522Y-41019534D01*
X176384781Y-41214223D01*
X176406681Y-41257203D01*
X176477585Y-41396359D01*
X176477715Y-41396613D01*
X176598028Y-41562213D01*
X176742786Y-41706971D01*
X176908385Y-41827284D01*
X176908387Y-41827285D01*
X176908390Y-41827287D01*
X177000529Y-41874234D01*
X177001630Y-41874795D01*
X177052426Y-41922770D01*
X177069221Y-41990591D01*
X177046684Y-42056725D01*
X177001630Y-42095765D01*
X176908644Y-42143143D01*
X176864077Y-42175523D01*
X176864077Y-42175524D01*
X177543554Y-42855000D01*
X177537339Y-42855000D01*
X177435606Y-42882259D01*
X177344394Y-42934920D01*
X177269920Y-43009394D01*
X177217259Y-43100606D01*
X177190000Y-43202339D01*
X177190000Y-43208553D01*
X176510524Y-42529077D01*
X176510523Y-42529077D01*
X176478143Y-42573644D01*
X176385244Y-42755968D01*
X176322009Y-42950582D01*
X176290000Y-43152682D01*
X176290000Y-43357317D01*
X176322009Y-43559417D01*
X176385244Y-43754031D01*
X176478141Y-43936350D01*
X176478147Y-43936359D01*
X176510523Y-43980921D01*
X176510524Y-43980922D01*
X177190000Y-43301446D01*
X177190000Y-43307661D01*
X177217259Y-43409394D01*
X177269920Y-43500606D01*
X177344394Y-43575080D01*
X177435606Y-43627741D01*
X177537339Y-43655000D01*
X177543553Y-43655000D01*
X176864076Y-44334474D01*
X176908650Y-44366859D01*
X177090968Y-44459755D01*
X177285582Y-44522990D01*
X177487683Y-44555000D01*
X177692317Y-44555000D01*
X177894417Y-44522990D01*
X178089031Y-44459755D01*
X178271349Y-44366859D01*
X178315921Y-44334474D01*
X177636447Y-43655000D01*
X177642661Y-43655000D01*
X177744394Y-43627741D01*
X177835606Y-43575080D01*
X177910080Y-43500606D01*
X177962741Y-43409394D01*
X177990000Y-43307661D01*
X177990000Y-43301447D01*
X178669474Y-43980921D01*
X178701859Y-43936349D01*
X178794755Y-43754031D01*
X178857990Y-43559417D01*
X178890000Y-43357317D01*
X178890000Y-43152682D01*
X178857990Y-42950582D01*
X178794755Y-42755968D01*
X178701859Y-42573650D01*
X178669474Y-42529077D01*
X178669474Y-42529076D01*
X177990000Y-43208551D01*
X177990000Y-43202339D01*
X177962741Y-43100606D01*
X177910080Y-43009394D01*
X177835606Y-42934920D01*
X177744394Y-42882259D01*
X177642661Y-42855000D01*
X177636446Y-42855000D01*
X178315922Y-42175524D01*
X178315921Y-42175523D01*
X178271359Y-42143147D01*
X178271350Y-42143141D01*
X178178369Y-42095765D01*
X178127573Y-42047790D01*
X178110778Y-41979969D01*
X178133315Y-41913835D01*
X178178370Y-41874795D01*
X178179471Y-41874234D01*
X178271610Y-41827287D01*
X178321144Y-41791298D01*
X178437213Y-41706971D01*
X178437215Y-41706968D01*
X178437219Y-41706966D01*
X178581966Y-41562219D01*
X178581968Y-41562215D01*
X178581971Y-41562213D01*
X178668771Y-41442741D01*
X178702287Y-41396610D01*
X178795220Y-41214219D01*
X178858477Y-41019534D01*
X178890500Y-40817352D01*
X178890500Y-40612648D01*
X178867936Y-40470185D01*
X178858477Y-40410465D01*
X178807247Y-40252797D01*
X178795220Y-40215781D01*
X178795218Y-40215778D01*
X178795218Y-40215776D01*
X178725031Y-40078028D01*
X178702287Y-40033390D01*
X178694556Y-40022749D01*
X178581971Y-39867786D01*
X178437213Y-39723028D01*
X178271614Y-39602715D01*
X178223785Y-39578345D01*
X178178917Y-39555483D01*
X178128123Y-39507511D01*
X178111328Y-39439690D01*
X178133865Y-39373555D01*
X178178917Y-39334516D01*
X178271610Y-39287287D01*
X178305465Y-39262690D01*
X178437213Y-39166971D01*
X178437215Y-39166968D01*
X178437219Y-39166966D01*
X178581966Y-39022219D01*
X178581968Y-39022215D01*
X178581971Y-39022213D01*
X178636252Y-38947500D01*
X178702287Y-38856610D01*
X178795220Y-38674219D01*
X178858477Y-38479534D01*
X178890500Y-38277352D01*
X178890500Y-38072648D01*
X178858477Y-37870466D01*
X178840992Y-37816654D01*
X178795218Y-37675776D01*
X178728835Y-37545494D01*
X178702287Y-37493390D01*
X178679573Y-37462126D01*
X178581971Y-37327786D01*
X178437213Y-37183028D01*
X178271614Y-37062715D01*
X178246677Y-37050009D01*
X178178917Y-37015483D01*
X178128123Y-36967511D01*
X178111328Y-36899690D01*
X178133865Y-36833555D01*
X178178917Y-36794516D01*
X178271610Y-36747287D01*
X178392877Y-36659181D01*
X178458683Y-36635702D01*
X178465762Y-36635500D01*
X181708543Y-36635500D01*
X181838582Y-36609632D01*
X181901835Y-36597051D01*
X182083914Y-36521632D01*
X182247782Y-36412139D01*
X182387139Y-36272782D01*
X182496632Y-36108914D01*
X182572051Y-35926835D01*
X182591350Y-35829815D01*
X182610500Y-35733543D01*
X182610500Y-35536456D01*
X182572052Y-35343170D01*
X182572051Y-35343169D01*
X182572051Y-35343165D01*
X182572049Y-35343160D01*
X182496635Y-35161092D01*
X182496628Y-35161079D01*
X182387139Y-34997218D01*
X182387136Y-34997214D01*
X182247785Y-34857863D01*
X182247781Y-34857860D01*
X182083920Y-34748371D01*
X182083907Y-34748364D01*
X181901839Y-34672950D01*
X181901829Y-34672947D01*
X181708543Y-34634500D01*
X181708541Y-34634500D01*
X178465762Y-34634500D01*
X178398723Y-34614815D01*
X178392877Y-34610818D01*
X178271613Y-34522715D01*
X178271612Y-34522714D01*
X178271610Y-34522713D01*
X178202301Y-34487398D01*
X178089223Y-34429781D01*
X177894535Y-34366523D01*
X177746483Y-34343073D01*
X177683349Y-34313143D01*
X177678201Y-34308281D01*
X176874209Y-33504289D01*
X176874206Y-33504285D01*
X176874206Y-33504286D01*
X176867139Y-33497219D01*
X176867139Y-33497218D01*
X176727782Y-33357861D01*
X176727781Y-33357860D01*
X176727780Y-33357859D01*
X176563920Y-33248371D01*
X176563907Y-33248364D01*
X176437242Y-33195898D01*
X176437234Y-33195895D01*
X176430120Y-33192949D01*
X176381836Y-33172949D01*
X176285188Y-33153724D01*
X176280801Y-33152851D01*
X176280796Y-33152850D01*
X176188544Y-33134500D01*
X176188541Y-33134500D01*
X151281459Y-33134500D01*
X151281455Y-33134500D01*
X151189203Y-33152850D01*
X151189195Y-33152852D01*
X151184812Y-33153724D01*
X151088164Y-33172949D01*
X151039880Y-33192949D01*
X151032767Y-33195895D01*
X151032757Y-33195898D01*
X150906092Y-33248364D01*
X150906079Y-33248371D01*
X150742219Y-33357859D01*
X150672540Y-33427538D01*
X150602861Y-33497218D01*
X150602858Y-33497221D01*
X149612680Y-34487398D01*
X149551357Y-34520883D01*
X149481665Y-34515899D01*
X149437318Y-34487398D01*
X148726819Y-33776899D01*
X148693334Y-33715576D01*
X148690500Y-33689218D01*
X148690500Y-28372642D01*
X148710185Y-28305603D01*
X148762989Y-28259848D01*
X148801897Y-28249284D01*
X148892797Y-28239999D01*
X149059334Y-28184814D01*
X149208656Y-28092712D01*
X149332712Y-27968656D01*
X149424814Y-27819334D01*
X149479999Y-27652797D01*
X149490500Y-27550009D01*
X149490499Y-26081995D01*
X160559500Y-26081995D01*
X160559500Y-26318004D01*
X160559501Y-26318020D01*
X160590293Y-26551914D01*
X160590307Y-26552014D01*
X160650330Y-26776022D01*
X160651394Y-26779993D01*
X160741714Y-26998045D01*
X160741719Y-26998056D01*
X160787435Y-27077237D01*
X160859727Y-27202450D01*
X160859729Y-27202453D01*
X160859730Y-27202454D01*
X161003406Y-27389697D01*
X161003412Y-27389704D01*
X161170295Y-27556587D01*
X161170302Y-27556593D01*
X161278606Y-27639697D01*
X161357550Y-27700273D01*
X161477796Y-27769697D01*
X161561943Y-27818280D01*
X161561948Y-27818282D01*
X161561951Y-27818284D01*
X161780007Y-27908606D01*
X162007986Y-27969693D01*
X162241989Y-28000500D01*
X162241996Y-28000500D01*
X162478004Y-28000500D01*
X162478011Y-28000500D01*
X162712014Y-27969693D01*
X162939993Y-27908606D01*
X163158049Y-27818284D01*
X163362450Y-27700273D01*
X163549699Y-27556592D01*
X163572568Y-27533723D01*
X163604648Y-27501644D01*
X163716587Y-27389704D01*
X163716592Y-27389699D01*
X163860273Y-27202450D01*
X163978284Y-26998049D01*
X164068606Y-26779993D01*
X164129693Y-26552014D01*
X164160500Y-26318011D01*
X164160500Y-26082014D01*
X165640000Y-26082014D01*
X165640000Y-26317985D01*
X165670799Y-26551914D01*
X165731870Y-26779837D01*
X165822160Y-26997819D01*
X165822165Y-26997828D01*
X165940144Y-27202171D01*
X165940145Y-27202172D01*
X166002721Y-27283723D01*
X166838958Y-26447487D01*
X166863978Y-26507890D01*
X166935112Y-26614351D01*
X167025649Y-26704888D01*
X167132110Y-26776022D01*
X167192511Y-26801041D01*
X166356275Y-27637277D01*
X166437827Y-27699854D01*
X166437828Y-27699855D01*
X166642171Y-27817834D01*
X166642180Y-27817839D01*
X166860163Y-27908129D01*
X166860161Y-27908129D01*
X167088085Y-27969200D01*
X167322014Y-27999999D01*
X167322029Y-28000000D01*
X167557971Y-28000000D01*
X167557985Y-27999999D01*
X167791914Y-27969200D01*
X168019837Y-27908129D01*
X168237819Y-27817839D01*
X168237828Y-27817834D01*
X168442181Y-27699850D01*
X168523723Y-27637279D01*
X168523723Y-27637276D01*
X167687487Y-26801041D01*
X167747890Y-26776022D01*
X167854351Y-26704888D01*
X167944888Y-26614351D01*
X168016022Y-26507890D01*
X168041041Y-26447488D01*
X168877276Y-27283723D01*
X168877279Y-27283723D01*
X168939850Y-27202181D01*
X169057834Y-26997828D01*
X169057839Y-26997819D01*
X169148129Y-26779837D01*
X169209200Y-26551914D01*
X169239999Y-26317985D01*
X169240000Y-26317971D01*
X169240000Y-26082028D01*
X169239999Y-26082014D01*
X169209200Y-25848085D01*
X169148129Y-25620162D01*
X169057839Y-25402180D01*
X169057834Y-25402171D01*
X168939855Y-25197828D01*
X168939848Y-25197817D01*
X168920286Y-25172324D01*
X168920283Y-25172321D01*
X168877277Y-25116275D01*
X168041041Y-25952511D01*
X168016022Y-25892110D01*
X167944888Y-25785649D01*
X167854351Y-25695112D01*
X167747890Y-25623978D01*
X167687488Y-25598958D01*
X168186462Y-25099983D01*
X170719500Y-25099983D01*
X170719500Y-27300001D01*
X170719501Y-27300018D01*
X170730000Y-27402796D01*
X170730001Y-27402799D01*
X170771230Y-27527218D01*
X170785186Y-27569334D01*
X170877288Y-27718656D01*
X171001344Y-27842712D01*
X171150666Y-27934814D01*
X171317203Y-27989999D01*
X171419991Y-28000500D01*
X173620008Y-28000499D01*
X173722797Y-27989999D01*
X173889334Y-27934814D01*
X174038656Y-27842712D01*
X174162712Y-27718656D01*
X174254814Y-27569334D01*
X174309999Y-27402797D01*
X174320500Y-27300009D01*
X174320499Y-25099992D01*
X174319826Y-25093408D01*
X174309999Y-24997203D01*
X174309998Y-24997200D01*
X174288175Y-24931342D01*
X174254814Y-24830666D01*
X174162712Y-24681344D01*
X174038656Y-24557288D01*
X173889334Y-24465186D01*
X173722797Y-24410001D01*
X173722795Y-24410000D01*
X173620010Y-24399500D01*
X171419998Y-24399500D01*
X171419981Y-24399501D01*
X171317203Y-24410000D01*
X171317200Y-24410001D01*
X171150668Y-24465185D01*
X171150663Y-24465187D01*
X171001342Y-24557289D01*
X170877289Y-24681342D01*
X170785187Y-24830663D01*
X170785185Y-24830668D01*
X170780374Y-24845187D01*
X170730001Y-24997203D01*
X170730001Y-24997204D01*
X170730000Y-24997204D01*
X170719500Y-25099983D01*
X168186462Y-25099983D01*
X168523723Y-24762721D01*
X168442172Y-24700145D01*
X168442171Y-24700144D01*
X168237828Y-24582165D01*
X168237819Y-24582160D01*
X168019836Y-24491870D01*
X168019838Y-24491870D01*
X167791914Y-24430799D01*
X167557985Y-24400000D01*
X167322014Y-24400000D01*
X167088085Y-24430799D01*
X166860162Y-24491870D01*
X166642180Y-24582160D01*
X166642171Y-24582165D01*
X166437828Y-24700144D01*
X166437818Y-24700150D01*
X166356275Y-24762720D01*
X166356275Y-24762721D01*
X167192512Y-25598958D01*
X167132110Y-25623978D01*
X167025649Y-25695112D01*
X166935112Y-25785649D01*
X166863978Y-25892110D01*
X166838958Y-25952511D01*
X166002721Y-25116275D01*
X166002720Y-25116275D01*
X165940150Y-25197818D01*
X165940144Y-25197828D01*
X165822165Y-25402171D01*
X165822160Y-25402180D01*
X165731870Y-25620162D01*
X165670799Y-25848085D01*
X165640000Y-26082014D01*
X164160500Y-26082014D01*
X164160500Y-26081989D01*
X164129693Y-25847986D01*
X164068606Y-25620007D01*
X163978284Y-25401951D01*
X163978282Y-25401948D01*
X163978280Y-25401943D01*
X163936118Y-25328918D01*
X163860273Y-25197550D01*
X163780361Y-25093406D01*
X163716593Y-25010302D01*
X163716587Y-25010295D01*
X163549704Y-24843412D01*
X163549697Y-24843406D01*
X163362454Y-24699730D01*
X163362453Y-24699729D01*
X163362450Y-24699727D01*
X163275454Y-24649500D01*
X163158056Y-24581719D01*
X163158045Y-24581714D01*
X162939993Y-24491394D01*
X162712010Y-24430306D01*
X162478020Y-24399501D01*
X162478017Y-24399500D01*
X162478011Y-24399500D01*
X162241989Y-24399500D01*
X162241983Y-24399500D01*
X162241979Y-24399501D01*
X162007989Y-24430306D01*
X161780006Y-24491394D01*
X161561954Y-24581714D01*
X161561943Y-24581719D01*
X161357545Y-24699730D01*
X161170302Y-24843406D01*
X161170295Y-24843412D01*
X161003412Y-25010295D01*
X161003406Y-25010302D01*
X160859730Y-25197545D01*
X160859727Y-25197549D01*
X160859727Y-25197550D01*
X160852156Y-25210663D01*
X160741719Y-25401943D01*
X160741714Y-25401954D01*
X160651394Y-25620006D01*
X160590306Y-25847989D01*
X160559501Y-26081979D01*
X160559500Y-26081995D01*
X149490499Y-26081995D01*
X149490499Y-25349992D01*
X149479999Y-25247203D01*
X149424814Y-25080666D01*
X149332712Y-24931344D01*
X149208656Y-24807288D01*
X149059334Y-24715186D01*
X148892797Y-24660001D01*
X148892795Y-24660000D01*
X148790010Y-24649500D01*
X146589998Y-24649500D01*
X146589981Y-24649501D01*
X146487203Y-24660000D01*
X146487200Y-24660001D01*
X146320668Y-24715185D01*
X146320663Y-24715187D01*
X146171342Y-24807289D01*
X146047289Y-24931342D01*
X145955187Y-25080663D01*
X145955185Y-25080668D01*
X145948785Y-25099983D01*
X145900001Y-25247203D01*
X145900001Y-25247204D01*
X145900000Y-25247204D01*
X145889500Y-25349983D01*
X145889500Y-27550001D01*
X145889501Y-27550018D01*
X145900000Y-27652796D01*
X145900001Y-27652799D01*
X145955185Y-27819331D01*
X145955187Y-27819336D01*
X145988386Y-27873160D01*
X146047288Y-27968656D01*
X146171344Y-28092712D01*
X146320666Y-28184814D01*
X146487203Y-28239999D01*
X146578103Y-28249285D01*
X146642794Y-28275681D01*
X146682945Y-28332861D01*
X146689500Y-28372643D01*
X146689500Y-34253544D01*
X146724555Y-34429777D01*
X146724556Y-34429780D01*
X146727949Y-34446835D01*
X146727950Y-34446839D01*
X146803364Y-34628907D01*
X146803371Y-34628920D01*
X146912860Y-34792781D01*
X146912863Y-34792785D01*
X147056537Y-34936459D01*
X147056559Y-34936479D01*
X148198281Y-36078201D01*
X148231766Y-36139524D01*
X148233073Y-36146483D01*
X148256523Y-36294535D01*
X148319781Y-36489223D01*
X148371135Y-36590009D01*
X148403565Y-36653657D01*
X148412715Y-36671613D01*
X148533028Y-36837213D01*
X148677786Y-36981971D01*
X148788923Y-37062715D01*
X148843390Y-37102287D01*
X148934840Y-37148883D01*
X148936080Y-37149515D01*
X148986876Y-37197490D01*
X149003671Y-37265311D01*
X148981134Y-37331446D01*
X148936080Y-37370485D01*
X148843386Y-37417715D01*
X148677786Y-37538028D01*
X148533028Y-37682786D01*
X148412715Y-37848386D01*
X148319781Y-38030776D01*
X148256522Y-38225465D01*
X148224500Y-38427648D01*
X148224500Y-38632351D01*
X148256522Y-38834534D01*
X148319781Y-39029223D01*
X148412715Y-39211613D01*
X148533028Y-39377213D01*
X148677786Y-39521971D01*
X148788923Y-39602715D01*
X148843390Y-39642287D01*
X148934840Y-39688883D01*
X148936080Y-39689515D01*
X148986876Y-39737490D01*
X149003671Y-39805311D01*
X148981134Y-39871446D01*
X148936080Y-39910485D01*
X148843386Y-39957715D01*
X148677786Y-40078028D01*
X148533028Y-40222786D01*
X148412715Y-40388386D01*
X148319781Y-40570776D01*
X148256522Y-40765465D01*
X148224500Y-40967648D01*
X148224500Y-41172351D01*
X148256522Y-41374534D01*
X148319781Y-41569223D01*
X148383691Y-41694653D01*
X148412585Y-41751359D01*
X148412715Y-41751613D01*
X148533028Y-41917213D01*
X148677786Y-42061971D01*
X148843385Y-42182284D01*
X148843387Y-42182285D01*
X148843390Y-42182287D01*
X148935529Y-42229234D01*
X148936630Y-42229795D01*
X148987426Y-42277770D01*
X149004221Y-42345591D01*
X148981684Y-42411725D01*
X148936630Y-42450765D01*
X148843644Y-42498143D01*
X148799077Y-42530523D01*
X148799077Y-42530524D01*
X149478554Y-43210000D01*
X149472339Y-43210000D01*
X149370606Y-43237259D01*
X149279394Y-43289920D01*
X149204920Y-43364394D01*
X149152259Y-43455606D01*
X149125000Y-43557339D01*
X149125000Y-43563553D01*
X148445524Y-42884077D01*
X148445523Y-42884077D01*
X148413143Y-42928644D01*
X148320244Y-43110968D01*
X148257009Y-43305582D01*
X148225000Y-43507682D01*
X148225000Y-43712317D01*
X148257010Y-43914418D01*
X148257011Y-43914425D01*
X148267655Y-43947183D01*
X148269650Y-44017024D01*
X148233569Y-44076857D01*
X148170868Y-44107684D01*
X148149724Y-44109500D01*
X143870783Y-44109500D01*
X143803744Y-44089815D01*
X143783102Y-44073181D01*
X143407601Y-43697680D01*
X143374116Y-43636357D01*
X143379100Y-43566665D01*
X143407601Y-43522318D01*
X143520526Y-43409394D01*
X144070602Y-42859319D01*
X144131925Y-42825834D01*
X144158283Y-42823000D01*
X144478539Y-42823000D01*
X144543633Y-42841460D01*
X144670666Y-42919814D01*
X144837203Y-42974999D01*
X144939991Y-42985500D01*
X146340008Y-42985499D01*
X146442797Y-42974999D01*
X146609334Y-42919814D01*
X146758656Y-42827712D01*
X146882712Y-42703656D01*
X146974814Y-42554334D01*
X147029999Y-42387797D01*
X147040500Y-42285009D01*
X147040499Y-41359992D01*
X147029999Y-41257203D01*
X146974814Y-41090666D01*
X146882712Y-40941344D01*
X146758656Y-40817288D01*
X146665888Y-40760069D01*
X146609336Y-40725187D01*
X146609331Y-40725185D01*
X146582958Y-40716446D01*
X146442797Y-40670001D01*
X146442795Y-40670000D01*
X146340010Y-40659500D01*
X144939998Y-40659500D01*
X144939981Y-40659501D01*
X144837203Y-40670000D01*
X144837200Y-40670001D01*
X144670668Y-40725185D01*
X144670663Y-40725187D01*
X144605369Y-40765461D01*
X144543633Y-40803539D01*
X144478539Y-40822000D01*
X143593957Y-40822000D01*
X143507937Y-40839111D01*
X143503473Y-40839999D01*
X143400664Y-40860449D01*
X143347334Y-40882538D01*
X143340280Y-40885459D01*
X143332922Y-40887494D01*
X143307555Y-40887090D01*
X143276897Y-40890372D01*
X143269132Y-40886480D01*
X143263062Y-40886384D01*
X143245118Y-40874445D01*
X143214433Y-40859067D01*
X143209503Y-40850750D01*
X143204891Y-40847681D01*
X143197004Y-40829659D01*
X143178810Y-40798960D01*
X143176499Y-40787746D01*
X143172989Y-40765579D01*
X143172988Y-40765578D01*
X143109755Y-40570968D01*
X143016859Y-40388650D01*
X142984474Y-40344077D01*
X142984474Y-40344076D01*
X142305000Y-41023553D01*
X142305000Y-41017339D01*
X142277741Y-40915606D01*
X142225080Y-40824394D01*
X142150606Y-40749920D01*
X142059394Y-40697259D01*
X141957661Y-40670000D01*
X141951446Y-40670000D01*
X142630922Y-39990524D01*
X142630921Y-39990523D01*
X142586359Y-39958147D01*
X142586350Y-39958141D01*
X142493369Y-39910765D01*
X142442573Y-39862790D01*
X142425778Y-39794969D01*
X142448315Y-39728835D01*
X142493370Y-39689795D01*
X142493920Y-39689515D01*
X142586610Y-39642287D01*
X142641079Y-39602713D01*
X142752213Y-39521971D01*
X142752215Y-39521968D01*
X142752219Y-39521966D01*
X142896966Y-39377219D01*
X142896968Y-39377215D01*
X142896971Y-39377213D01*
X142980170Y-39262697D01*
X143017287Y-39211610D01*
X143043591Y-39159986D01*
X144240001Y-39159986D01*
X144250494Y-39262697D01*
X144305641Y-39429119D01*
X144305643Y-39429124D01*
X144397684Y-39578345D01*
X144521654Y-39702315D01*
X144670875Y-39794356D01*
X144670880Y-39794358D01*
X144837302Y-39849505D01*
X144837309Y-39849506D01*
X144940019Y-39859999D01*
X145389999Y-39859999D01*
X145890000Y-39859999D01*
X146339972Y-39859999D01*
X146339986Y-39859998D01*
X146442697Y-39849505D01*
X146609119Y-39794358D01*
X146609124Y-39794356D01*
X146758345Y-39702315D01*
X146882315Y-39578345D01*
X146974356Y-39429124D01*
X146974358Y-39429119D01*
X147029505Y-39262697D01*
X147029506Y-39262690D01*
X147039999Y-39159986D01*
X147040000Y-39159973D01*
X147040000Y-38947500D01*
X145890000Y-38947500D01*
X145890000Y-39859999D01*
X145389999Y-39859999D01*
X145390000Y-39859998D01*
X145390000Y-38947500D01*
X144240001Y-38947500D01*
X144240001Y-39159986D01*
X143043591Y-39159986D01*
X143110220Y-39029219D01*
X143166304Y-38856613D01*
X143173475Y-38834541D01*
X143173475Y-38834539D01*
X143173477Y-38834534D01*
X143205500Y-38632352D01*
X143205500Y-38427648D01*
X143174989Y-38235013D01*
X144240000Y-38235013D01*
X144240000Y-38447500D01*
X145390000Y-38447500D01*
X145890000Y-38447500D01*
X147039999Y-38447500D01*
X147039999Y-38235028D01*
X147039998Y-38235013D01*
X147029505Y-38132302D01*
X146974358Y-37965880D01*
X146974356Y-37965875D01*
X146882315Y-37816654D01*
X146758345Y-37692684D01*
X146609124Y-37600643D01*
X146609119Y-37600641D01*
X146442697Y-37545494D01*
X146442690Y-37545493D01*
X146339986Y-37535000D01*
X145890000Y-37535000D01*
X145890000Y-38447500D01*
X145390000Y-38447500D01*
X145390000Y-37535000D01*
X144940028Y-37535000D01*
X144940012Y-37535001D01*
X144837302Y-37545494D01*
X144670880Y-37600641D01*
X144670875Y-37600643D01*
X144521654Y-37692684D01*
X144397684Y-37816654D01*
X144305643Y-37965875D01*
X144305641Y-37965880D01*
X144250494Y-38132302D01*
X144250493Y-38132309D01*
X144240000Y-38235013D01*
X143174989Y-38235013D01*
X143173477Y-38225466D01*
X143110220Y-38030781D01*
X143110218Y-38030778D01*
X143110218Y-38030776D01*
X143028535Y-37870466D01*
X143017287Y-37848390D01*
X142994230Y-37816654D01*
X142896971Y-37682786D01*
X142752219Y-37538034D01*
X142690771Y-37493390D01*
X142658547Y-37469978D01*
X142615882Y-37414649D01*
X142609903Y-37345036D01*
X142642508Y-37283240D01*
X142692426Y-37251955D01*
X142774334Y-37224814D01*
X142923656Y-37132712D01*
X143047712Y-37008656D01*
X143139814Y-36859334D01*
X143194999Y-36692797D01*
X143205500Y-36590009D01*
X143205499Y-35389992D01*
X143194999Y-35287203D01*
X143139814Y-35120666D01*
X143047712Y-34971344D01*
X142923656Y-34847288D01*
X142774334Y-34755186D01*
X142607797Y-34700001D01*
X142607795Y-34700000D01*
X142505010Y-34689500D01*
X141304998Y-34689500D01*
X141304981Y-34689501D01*
X141202203Y-34700000D01*
X141202200Y-34700001D01*
X141035668Y-34755185D01*
X141035663Y-34755187D01*
X140886342Y-34847289D01*
X140762289Y-34971342D01*
X140670187Y-35120663D01*
X140670185Y-35120668D01*
X140646395Y-35192461D01*
X140615001Y-35287203D01*
X140615001Y-35287204D01*
X140615000Y-35287204D01*
X140604500Y-35389983D01*
X140604500Y-36590001D01*
X140604501Y-36590018D01*
X140615000Y-36692796D01*
X140615001Y-36692799D01*
X140633056Y-36747284D01*
X140670186Y-36859334D01*
X140762288Y-37008656D01*
X140886344Y-37132712D01*
X141035666Y-37224814D01*
X141117570Y-37251954D01*
X141175015Y-37291727D01*
X141201838Y-37356243D01*
X141189523Y-37425018D01*
X141151451Y-37469978D01*
X141057787Y-37538028D01*
X141057782Y-37538032D01*
X140913028Y-37682786D01*
X140792715Y-37848386D01*
X140699781Y-38030776D01*
X140636522Y-38225465D01*
X140604500Y-38427648D01*
X140604500Y-38632351D01*
X140636522Y-38834534D01*
X140699781Y-39029223D01*
X140792715Y-39211613D01*
X140913028Y-39377213D01*
X141057786Y-39521971D01*
X141223385Y-39642284D01*
X141223387Y-39642285D01*
X141223390Y-39642287D01*
X141316080Y-39689515D01*
X141316630Y-39689795D01*
X141367426Y-39737770D01*
X141384221Y-39805591D01*
X141361684Y-39871725D01*
X141316630Y-39910765D01*
X141223644Y-39958143D01*
X141179077Y-39990523D01*
X141179077Y-39990524D01*
X141858554Y-40670000D01*
X141852339Y-40670000D01*
X141750606Y-40697259D01*
X141659394Y-40749920D01*
X141584920Y-40824394D01*
X141532259Y-40915606D01*
X141505000Y-41017339D01*
X141505000Y-41023553D01*
X140825524Y-40344077D01*
X140825523Y-40344077D01*
X140793143Y-40388644D01*
X140700244Y-40570968D01*
X140637009Y-40765582D01*
X140605000Y-40967682D01*
X140605000Y-41172317D01*
X140637009Y-41374417D01*
X140700244Y-41569031D01*
X140793141Y-41751350D01*
X140793147Y-41751359D01*
X140825523Y-41795921D01*
X140825524Y-41795922D01*
X141505000Y-41116446D01*
X141505000Y-41122661D01*
X141532259Y-41224394D01*
X141584920Y-41315606D01*
X141659394Y-41390080D01*
X141750606Y-41442741D01*
X141852339Y-41470000D01*
X141858553Y-41470000D01*
X141179076Y-42149474D01*
X141223652Y-42181861D01*
X141316628Y-42229234D01*
X141367425Y-42277208D01*
X141384220Y-42345029D01*
X141361683Y-42411164D01*
X141316630Y-42450203D01*
X141223388Y-42497713D01*
X141102123Y-42585818D01*
X141036317Y-42609298D01*
X141029238Y-42609500D01*
X139965782Y-42609500D01*
X139898743Y-42589815D01*
X139878101Y-42573181D01*
X136851819Y-39546899D01*
X136818334Y-39485576D01*
X136815500Y-39459218D01*
X136815500Y-28630782D01*
X136835185Y-28563743D01*
X136851819Y-28543101D01*
X136978102Y-28416818D01*
X137132310Y-28262609D01*
X137193631Y-28229126D01*
X137236170Y-28227353D01*
X137399681Y-28248879D01*
X137411973Y-28250498D01*
X137411989Y-28250500D01*
X137411996Y-28250500D01*
X137648004Y-28250500D01*
X137648011Y-28250500D01*
X137882014Y-28219693D01*
X138109993Y-28158606D01*
X138328049Y-28068284D01*
X138532450Y-27950273D01*
X138719699Y-27806592D01*
X138743496Y-27782795D01*
X138774648Y-27751644D01*
X138886587Y-27639704D01*
X138886592Y-27639699D01*
X139030273Y-27452450D01*
X139148284Y-27248049D01*
X139238606Y-27029993D01*
X139299693Y-26802014D01*
X139330500Y-26568011D01*
X139330500Y-26332014D01*
X140810000Y-26332014D01*
X140810000Y-26567985D01*
X140840799Y-26801914D01*
X140901870Y-27029837D01*
X140992160Y-27247819D01*
X140992165Y-27247828D01*
X141110144Y-27452171D01*
X141110145Y-27452172D01*
X141172721Y-27533723D01*
X142008958Y-26697487D01*
X142033978Y-26757890D01*
X142105112Y-26864351D01*
X142195649Y-26954888D01*
X142302110Y-27026022D01*
X142362511Y-27051041D01*
X141526275Y-27887277D01*
X141607827Y-27949854D01*
X141607828Y-27949855D01*
X141812171Y-28067834D01*
X141812180Y-28067839D01*
X142030163Y-28158129D01*
X142030161Y-28158129D01*
X142258085Y-28219200D01*
X142492014Y-28249999D01*
X142492029Y-28250000D01*
X142727971Y-28250000D01*
X142727985Y-28249999D01*
X142961914Y-28219200D01*
X143189837Y-28158129D01*
X143407819Y-28067839D01*
X143407828Y-28067834D01*
X143612181Y-27949850D01*
X143693723Y-27887279D01*
X143693723Y-27887276D01*
X142857487Y-27051041D01*
X142917890Y-27026022D01*
X143024351Y-26954888D01*
X143114888Y-26864351D01*
X143186022Y-26757890D01*
X143211041Y-26697488D01*
X144047276Y-27533723D01*
X144047279Y-27533723D01*
X144109850Y-27452181D01*
X144227834Y-27247828D01*
X144227839Y-27247819D01*
X144318129Y-27029837D01*
X144379200Y-26801914D01*
X144409999Y-26567985D01*
X144410000Y-26567971D01*
X144410000Y-26332028D01*
X144409999Y-26332014D01*
X144379200Y-26098085D01*
X144318129Y-25870162D01*
X144227839Y-25652180D01*
X144227834Y-25652171D01*
X144109855Y-25447828D01*
X144109848Y-25447817D01*
X144090286Y-25422324D01*
X144090283Y-25422321D01*
X144047277Y-25366275D01*
X143211041Y-26202511D01*
X143186022Y-26142110D01*
X143114888Y-26035649D01*
X143024351Y-25945112D01*
X142917890Y-25873978D01*
X142857488Y-25848958D01*
X143693723Y-25012721D01*
X143612172Y-24950145D01*
X143612171Y-24950144D01*
X143407828Y-24832165D01*
X143407819Y-24832160D01*
X143189836Y-24741870D01*
X143189838Y-24741870D01*
X142961914Y-24680799D01*
X142727985Y-24650000D01*
X142492014Y-24650000D01*
X142258085Y-24680799D01*
X142030162Y-24741870D01*
X141812180Y-24832160D01*
X141812171Y-24832165D01*
X141607828Y-24950144D01*
X141607818Y-24950150D01*
X141526275Y-25012720D01*
X141526275Y-25012721D01*
X142362512Y-25848958D01*
X142302110Y-25873978D01*
X142195649Y-25945112D01*
X142105112Y-26035649D01*
X142033978Y-26142110D01*
X142008958Y-26202512D01*
X141172721Y-25366275D01*
X141172720Y-25366275D01*
X141110150Y-25447818D01*
X141110144Y-25447828D01*
X140992165Y-25652171D01*
X140992160Y-25652180D01*
X140901870Y-25870162D01*
X140840799Y-26098085D01*
X140810000Y-26332014D01*
X139330500Y-26332014D01*
X139330500Y-26331989D01*
X139299693Y-26097986D01*
X139238606Y-25870007D01*
X139148284Y-25651951D01*
X139148282Y-25651948D01*
X139148280Y-25651943D01*
X139103844Y-25574979D01*
X139030273Y-25447550D01*
X138886592Y-25260301D01*
X138886587Y-25260295D01*
X138719704Y-25093412D01*
X138719697Y-25093406D01*
X138532454Y-24949730D01*
X138532453Y-24949729D01*
X138532450Y-24949727D01*
X138450957Y-24902677D01*
X138328056Y-24831719D01*
X138328045Y-24831714D01*
X138109993Y-24741394D01*
X137885884Y-24681344D01*
X137882014Y-24680307D01*
X137882013Y-24680306D01*
X137882010Y-24680306D01*
X137648020Y-24649501D01*
X137648017Y-24649500D01*
X137648011Y-24649500D01*
X137411989Y-24649500D01*
X137411983Y-24649500D01*
X137411979Y-24649501D01*
X137177989Y-24680306D01*
X136950006Y-24741394D01*
X136731954Y-24831714D01*
X136731943Y-24831719D01*
X136527545Y-24949730D01*
X136340302Y-25093406D01*
X136340295Y-25093412D01*
X136173412Y-25260295D01*
X136173406Y-25260302D01*
X136029730Y-25447545D01*
X136029727Y-25447549D01*
X136029727Y-25447550D01*
X136022014Y-25460909D01*
X135911719Y-25651943D01*
X135911714Y-25651954D01*
X135821394Y-25870006D01*
X135760306Y-26097989D01*
X135729501Y-26331979D01*
X135729500Y-26331995D01*
X135729500Y-26568004D01*
X135729501Y-26568021D01*
X135752645Y-26743824D01*
X135741879Y-26812860D01*
X135717387Y-26847690D01*
X135297310Y-27267769D01*
X135177220Y-27387859D01*
X135177218Y-27387861D01*
X135112908Y-27452171D01*
X135037859Y-27527219D01*
X134928371Y-27691079D01*
X134928364Y-27691092D01*
X134852950Y-27873160D01*
X134852947Y-27873170D01*
X134814500Y-28066456D01*
X134814500Y-28066459D01*
X134814500Y-40023541D01*
X134814500Y-40023543D01*
X134814499Y-40023543D01*
X123340500Y-40023543D01*
X123340500Y-31112228D01*
X123360185Y-31045189D01*
X123376814Y-31024552D01*
X125984548Y-28416817D01*
X126045871Y-28383333D01*
X126072229Y-28380499D01*
X127860002Y-28380499D01*
X127860008Y-28380499D01*
X127962797Y-28369999D01*
X128129334Y-28314814D01*
X128278656Y-28222712D01*
X128402712Y-28098656D01*
X128494814Y-27949334D01*
X128549999Y-27782797D01*
X128560500Y-27680009D01*
X128560499Y-25479992D01*
X128549999Y-25377203D01*
X128494814Y-25210666D01*
X128402712Y-25061344D01*
X128278656Y-24937288D01*
X128129334Y-24845186D01*
X127962797Y-24790001D01*
X127962795Y-24790000D01*
X127860010Y-24779500D01*
X125659998Y-24779500D01*
X125659981Y-24779501D01*
X125557203Y-24790000D01*
X125557200Y-24790001D01*
X125390668Y-24845185D01*
X125390663Y-24845187D01*
X125241342Y-24937289D01*
X125117289Y-25061342D01*
X125025187Y-25210663D01*
X125025185Y-25210668D01*
X125008738Y-25260302D01*
X124970001Y-25377203D01*
X124970001Y-25377204D01*
X124970000Y-25377204D01*
X124959500Y-25479983D01*
X124959500Y-27267769D01*
X124939815Y-27334808D01*
X124923181Y-27355450D01*
X122007050Y-30271580D01*
X122007044Y-30271588D01*
X121957812Y-30345268D01*
X121957813Y-30345269D01*
X121924921Y-30394496D01*
X121924914Y-30394508D01*
X121868342Y-30531086D01*
X121868340Y-30531092D01*
X121839500Y-30676079D01*
X121839500Y-43212769D01*
X121819815Y-43279808D01*
X121803181Y-43300450D01*
X113724703Y-51378927D01*
X113684480Y-51405805D01*
X113660819Y-51415606D01*
X113660818Y-51415607D01*
X113529715Y-51503207D01*
X113529707Y-51503213D01*
X113418213Y-51614707D01*
X113418210Y-51614711D01*
X113330609Y-51745814D01*
X113330602Y-51745827D01*
X113270264Y-51891498D01*
X113270261Y-51891510D01*
X113239500Y-52046153D01*
X109335500Y-52046153D01*
X109335500Y-27094000D01*
X109355185Y-27026961D01*
X109407989Y-26981206D01*
X109459500Y-26970000D01*
X115571029Y-26970000D01*
X115571029Y-26461995D01*
X119879500Y-26461995D01*
X119879500Y-26698004D01*
X119879501Y-26698020D01*
X119899509Y-26850000D01*
X119910307Y-26932014D01*
X119948626Y-27075021D01*
X119971394Y-27159993D01*
X120061714Y-27378045D01*
X120061719Y-27378056D01*
X120132677Y-27500957D01*
X120179727Y-27582450D01*
X120179729Y-27582453D01*
X120179730Y-27582454D01*
X120323406Y-27769697D01*
X120323412Y-27769704D01*
X120490295Y-27936587D01*
X120490302Y-27936593D01*
X120533439Y-27969693D01*
X120677550Y-28080273D01*
X120808918Y-28156118D01*
X120881943Y-28198280D01*
X120881948Y-28198282D01*
X120881951Y-28198284D01*
X121100007Y-28288606D01*
X121327986Y-28349693D01*
X121561989Y-28380500D01*
X121561996Y-28380500D01*
X121798004Y-28380500D01*
X121798011Y-28380500D01*
X122032014Y-28349693D01*
X122259993Y-28288606D01*
X122478049Y-28198284D01*
X122682450Y-28080273D01*
X122869699Y-27936592D01*
X123036592Y-27769699D01*
X123180273Y-27582450D01*
X123298284Y-27378049D01*
X123388606Y-27159993D01*
X123449693Y-26932014D01*
X123480500Y-26698011D01*
X123480500Y-26461989D01*
X123449693Y-26227986D01*
X123388606Y-26000007D01*
X123298284Y-25781951D01*
X123298282Y-25781948D01*
X123298280Y-25781943D01*
X123248147Y-25695112D01*
X123180273Y-25577550D01*
X123045534Y-25401954D01*
X123036593Y-25390302D01*
X123036587Y-25390295D01*
X122869704Y-25223412D01*
X122869697Y-25223406D01*
X122682454Y-25079730D01*
X122682453Y-25079729D01*
X122682450Y-25079727D01*
X122600957Y-25032677D01*
X122478056Y-24961719D01*
X122478045Y-24961714D01*
X122259993Y-24871394D01*
X122108002Y-24830668D01*
X122032014Y-24810307D01*
X122032013Y-24810306D01*
X122032010Y-24810306D01*
X121798020Y-24779501D01*
X121798017Y-24779500D01*
X121798011Y-24779500D01*
X121561989Y-24779500D01*
X121561983Y-24779500D01*
X121561979Y-24779501D01*
X121327989Y-24810306D01*
X121100006Y-24871394D01*
X120881954Y-24961714D01*
X120881943Y-24961719D01*
X120677545Y-25079730D01*
X120490302Y-25223406D01*
X120490295Y-25223412D01*
X120323412Y-25390295D01*
X120323406Y-25390302D01*
X120179730Y-25577545D01*
X120061719Y-25781943D01*
X120061714Y-25781954D01*
X119971394Y-26000006D01*
X119910306Y-26227989D01*
X119879501Y-26461979D01*
X119879500Y-26461995D01*
X115571029Y-26461995D01*
X115571029Y-20624500D01*
X115590714Y-20557461D01*
X115643518Y-20511706D01*
X115695029Y-20500500D01*
X180776000Y-20500500D01*
X180843039Y-20520185D01*
G37*
%TD.AperFunction*%
%TD*%
M02*
