%TF.GenerationSoftware,KiCad,Pcbnew,10.0.1*%
%TF.CreationDate,2026-07-08T01:24:15+09:00*%
%TF.ProjectId,AudioCase_2_rv_panel,41756469-6f43-4617-9365-5f325f72765f,rev?*%
%TF.SameCoordinates,Original*%
%TF.FileFunction,Soldermask,Bot*%
%TF.FilePolarity,Negative*%
%FSLAX46Y46*%
G04 Gerber Fmt 4.6, Leading zero omitted, Abs format (unit mm)*
G04 Created by KiCad (PCBNEW 10.0.1) date 2026-07-08 01:24:15*
%MOMM*%
%LPD*%
G01*
G04 APERTURE LIST*
G04 Aperture macros list*
%AMRoundRect*
0 Rectangle with rounded corners*
0 $1 Rounding radius*
0 $2 $3 $4 $5 $6 $7 $8 $9 X,Y pos of 4 corners*
0 Add a 4 corners polygon primitive as box body*
4,1,4,$2,$3,$4,$5,$6,$7,$8,$9,$2,$3,0*
0 Add four circle primitives for the rounded corners*
1,1,$1+$1,$2,$3*
1,1,$1+$1,$4,$5*
1,1,$1+$1,$6,$7*
1,1,$1+$1,$8,$9*
0 Add four rect primitives between the rounded corners*
20,1,$1+$1,$2,$3,$4,$5,0*
20,1,$1+$1,$4,$5,$6,$7,0*
20,1,$1+$1,$6,$7,$8,$9,0*
20,1,$1+$1,$8,$9,$2,$3,0*%
G04 Aperture macros list end*
%ADD10C,1.600000*%
%ADD11RoundRect,0.250000X1.050000X1.050000X-1.050000X1.050000X-1.050000X-1.050000X1.050000X-1.050000X0*%
%ADD12C,2.600000*%
%ADD13C,3.200000*%
%ADD14RoundRect,0.250000X0.550000X0.550000X-0.550000X0.550000X-0.550000X-0.550000X0.550000X-0.550000X0*%
%ADD15RoundRect,0.250000X-0.550000X-0.550000X0.550000X-0.550000X0.550000X0.550000X-0.550000X0.550000X0*%
%ADD16RoundRect,0.450000X-0.450000X0.450000X-0.450000X-0.450000X0.450000X-0.450000X0.450000X0.450000X0*%
%ADD17C,1.800000*%
%ADD18RoundRect,0.250000X0.550000X-0.550000X0.550000X0.550000X-0.550000X0.550000X-0.550000X-0.550000X0*%
%ADD19RoundRect,0.250000X-0.400000X-0.625000X0.400000X-0.625000X0.400000X0.625000X-0.400000X0.625000X0*%
%ADD20RoundRect,0.250000X-0.625000X0.400000X-0.625000X-0.400000X0.625000X-0.400000X0.625000X0.400000X0*%
%ADD21RoundRect,0.250000X0.650000X-0.412500X0.650000X0.412500X-0.650000X0.412500X-0.650000X-0.412500X0*%
%ADD22RoundRect,0.250000X-0.650000X0.412500X-0.650000X-0.412500X0.650000X-0.412500X0.650000X0.412500X0*%
%ADD23RoundRect,0.250000X0.625000X-0.400000X0.625000X0.400000X-0.625000X0.400000X-0.625000X-0.400000X0*%
%ADD24RoundRect,0.250000X0.412500X0.650000X-0.412500X0.650000X-0.412500X-0.650000X0.412500X-0.650000X0*%
%ADD25RoundRect,0.250000X0.400000X0.625000X-0.400000X0.625000X-0.400000X-0.625000X0.400000X-0.625000X0*%
G04 APERTURE END LIST*
D10*
%TO.C,C9*%
X168450000Y-62600000D03*
X168450000Y-67600000D03*
%TD*%
%TO.C,C14*%
X184900000Y-54150000D03*
X184900000Y-59150000D03*
%TD*%
D11*
%TO.C,J6*%
X124600000Y-27950000D03*
D12*
X119520000Y-27950000D03*
%TD*%
D11*
%TO.C,J8*%
X175030000Y-26662500D03*
D12*
X169950000Y-26662500D03*
X164870000Y-26662500D03*
%TD*%
D13*
%TO.C,H8*%
X110450000Y-69400000D03*
%TD*%
D14*
%TO.C,C21*%
X114150000Y-36450000D03*
D10*
X112150000Y-36450000D03*
%TD*%
D13*
%TO.C,H5*%
X110350000Y-23761205D03*
%TD*%
D10*
%TO.C,C10*%
X124100000Y-58800000D03*
X119100000Y-58800000D03*
%TD*%
D15*
%TO.C,U3*%
X142490000Y-39352500D03*
D10*
X142490000Y-41892500D03*
X142490000Y-44432500D03*
X142490000Y-46972500D03*
X150110000Y-46972500D03*
X150110000Y-44432500D03*
X150110000Y-41892500D03*
X150110000Y-39352500D03*
%TD*%
D16*
%TO.C,RV3*%
X173979980Y-66275000D03*
D17*
X176479980Y-66275000D03*
X178979980Y-66275000D03*
X173979980Y-63775000D03*
X176479980Y-63775000D03*
X178979980Y-63775000D03*
%TD*%
D13*
%TO.C,H6*%
X186750000Y-23450000D03*
%TD*%
D10*
%TO.C,C11*%
X159750000Y-62450000D03*
X159750000Y-67450000D03*
%TD*%
D18*
%TO.C,C19*%
X130750000Y-36562500D03*
D10*
X130750000Y-34562500D03*
%TD*%
%TO.C,C12*%
X151650000Y-59150000D03*
X146650000Y-59150000D03*
%TD*%
%TO.C,C17*%
X179750000Y-54150000D03*
X179750000Y-59150000D03*
%TD*%
D15*
%TO.C,U2*%
X118950000Y-39962500D03*
D10*
X118950000Y-42502500D03*
X118950000Y-45042500D03*
X118950000Y-47582500D03*
X126570000Y-47582500D03*
X126570000Y-45042500D03*
X126570000Y-42502500D03*
X126570000Y-39962500D03*
%TD*%
%TO.C,C13*%
X135250000Y-58700000D03*
X130250000Y-58700000D03*
%TD*%
D16*
%TO.C,RV2*%
X148475000Y-66275000D03*
D17*
X150975000Y-66275000D03*
X153475000Y-66275000D03*
X148475000Y-63775000D03*
X150975000Y-63775000D03*
X153475000Y-63775000D03*
%TD*%
D15*
%TO.C,U4*%
X164990000Y-39302500D03*
D10*
X164990000Y-41842500D03*
X164990000Y-44382500D03*
X164990000Y-46922500D03*
X172610000Y-46922500D03*
X172610000Y-44382500D03*
X172610000Y-41842500D03*
X172610000Y-39302500D03*
%TD*%
%TO.C,C16*%
X157550000Y-58950000D03*
X162550000Y-58950000D03*
%TD*%
%TO.C,C7*%
X143750000Y-62650000D03*
X143750000Y-67650000D03*
%TD*%
%TO.C,C15*%
X174304980Y-59175000D03*
X174304980Y-54175000D03*
%TD*%
D13*
%TO.C,H7*%
X186750000Y-69460552D03*
%TD*%
D16*
%TO.C,RV1*%
X122840811Y-66275000D03*
D17*
X125340811Y-66275000D03*
X127840811Y-66275000D03*
X122840811Y-63775000D03*
X125340811Y-63775000D03*
X127840811Y-63775000D03*
%TD*%
D11*
%TO.C,J7*%
X150225000Y-26687500D03*
D12*
X145145000Y-26687500D03*
X140065000Y-26687500D03*
%TD*%
D10*
%TO.C,C6*%
X116600000Y-62700000D03*
X116600000Y-67700000D03*
%TD*%
%TO.C,C8*%
X133950000Y-62750000D03*
X133950000Y-67750000D03*
%TD*%
D19*
%TO.C,R13*%
X117400000Y-36362500D03*
X120500000Y-36362500D03*
%TD*%
D20*
%TO.C,R23*%
X161150000Y-39062500D03*
X161150000Y-42162500D03*
%TD*%
D21*
%TO.C,C26*%
X123250000Y-40012500D03*
X123250000Y-36887500D03*
%TD*%
D22*
%TO.C,C23*%
X146300000Y-43900000D03*
X146300000Y-47025000D03*
%TD*%
D20*
%TO.C,R24*%
X176200000Y-41875000D03*
X176200000Y-44975000D03*
%TD*%
%TO.C,R20*%
X153300000Y-40450000D03*
X153300000Y-43550000D03*
%TD*%
D23*
%TO.C,R3*%
X127050000Y-59900000D03*
X127050000Y-56800000D03*
%TD*%
D19*
%TO.C,R15*%
X130750000Y-40462500D03*
X133850000Y-40462500D03*
%TD*%
D24*
%TO.C,C20*%
X115150000Y-41512500D03*
X112025000Y-41512500D03*
%TD*%
D21*
%TO.C,C18*%
X134850000Y-37487500D03*
X134850000Y-34362500D03*
%TD*%
D23*
%TO.C,R4*%
X154700000Y-58800000D03*
X154700000Y-55700000D03*
%TD*%
D22*
%TO.C,C27*%
X122750000Y-43462500D03*
X122750000Y-46587500D03*
%TD*%
D21*
%TO.C,C22*%
X146300000Y-39337500D03*
X146300000Y-36212500D03*
%TD*%
D20*
%TO.C,R1*%
X116050000Y-56950000D03*
X116050000Y-60050000D03*
%TD*%
D25*
%TO.C,R16*%
X115150000Y-45062500D03*
X112050000Y-45062500D03*
%TD*%
%TO.C,R12*%
X175050000Y-51450000D03*
X171950000Y-51450000D03*
%TD*%
D20*
%TO.C,R2*%
X143700000Y-56650000D03*
X143700000Y-59750000D03*
%TD*%
D22*
%TO.C,C25*%
X168850000Y-45637500D03*
X168850000Y-48762500D03*
%TD*%
D20*
%TO.C,R5*%
X168500000Y-56750000D03*
X168500000Y-59850000D03*
%TD*%
M02*
