%TF.GenerationSoftware,KiCad,Pcbnew,10.0.1*%
%TF.CreationDate,2026-06-17T20:16:30+09:00*%
%TF.ProjectId,AudioCase_2_rv_panel,41756469-6f43-4617-9365-5f325f72765f,rev?*%
%TF.SameCoordinates,Original*%
%TF.FileFunction,Legend,Bot*%
%TF.FilePolarity,Positive*%
%FSLAX46Y46*%
G04 Gerber Fmt 4.6, Leading zero omitted, Abs format (unit mm)*
G04 Created by KiCad (PCBNEW 10.0.1) date 2026-06-17 20:16:30*
%MOMM*%
%LPD*%
G01*
G04 APERTURE LIST*
G04 Aperture macros list*
%AMRoundRect*
0 Rectangle with rounded corners*
0 $1 Rounding radius*
0 $2 $3 $4 $5 $6 $7 $8 $9 X,Y pos of 4 corners*
0 Add a 4 corners polygon primitive as box body*
4,1,4,$2,$3,$4,$5,$6,$7,$8,$9,$2,$3,0*
0 Add four circle primitives for the rounded corners*
1,1,$1+$1,$2,$3*
1,1,$1+$1,$4,$5*
1,1,$1+$1,$6,$7*
1,1,$1+$1,$8,$9*
0 Add four rect primitives between the rounded corners*
20,1,$1+$1,$2,$3,$4,$5,0*
20,1,$1+$1,$4,$5,$6,$7,0*
20,1,$1+$1,$6,$7,$8,$9,0*
20,1,$1+$1,$8,$9,$2,$3,0*%
G04 Aperture macros list end*
%ADD10C,0.150000*%
%ADD11C,0.120000*%
%ADD12C,3.200000*%
%ADD13C,1.600000*%
%ADD14RoundRect,0.250000X1.050000X1.050000X-1.050000X1.050000X-1.050000X-1.050000X1.050000X-1.050000X0*%
%ADD15C,2.600000*%
%ADD16RoundRect,0.250000X-0.550000X-0.550000X0.550000X-0.550000X0.550000X0.550000X-0.550000X0.550000X0*%
%ADD17RoundRect,0.450000X-0.450000X0.450000X-0.450000X-0.450000X0.450000X-0.450000X0.450000X0.450000X0*%
%ADD18C,1.800000*%
%ADD19RoundRect,0.250000X0.550000X0.550000X-0.550000X0.550000X-0.550000X-0.550000X0.550000X-0.550000X0*%
%ADD20RoundRect,0.250000X0.550000X-0.550000X0.550000X0.550000X-0.550000X0.550000X-0.550000X-0.550000X0*%
%ADD21RoundRect,0.250000X-0.625000X0.400000X-0.625000X-0.400000X0.625000X-0.400000X0.625000X0.400000X0*%
%ADD22RoundRect,0.250000X0.400000X0.625000X-0.400000X0.625000X-0.400000X-0.625000X0.400000X-0.625000X0*%
%ADD23RoundRect,0.250000X-0.650000X0.412500X-0.650000X-0.412500X0.650000X-0.412500X0.650000X0.412500X0*%
%ADD24RoundRect,0.250000X0.625000X-0.400000X0.625000X0.400000X-0.625000X0.400000X-0.625000X-0.400000X0*%
%ADD25RoundRect,0.250000X0.650000X-0.412500X0.650000X0.412500X-0.650000X0.412500X-0.650000X-0.412500X0*%
%ADD26RoundRect,0.250000X-0.400000X-0.625000X0.400000X-0.625000X0.400000X0.625000X-0.400000X0.625000X0*%
%ADD27RoundRect,0.250000X0.412500X0.650000X-0.412500X0.650000X-0.412500X-0.650000X0.412500X-0.650000X0*%
G04 APERTURE END LIST*
D10*
X146154819Y-57933333D02*
X145678628Y-57600000D01*
X146154819Y-57361905D02*
X145154819Y-57361905D01*
X145154819Y-57361905D02*
X145154819Y-57742857D01*
X145154819Y-57742857D02*
X145202438Y-57838095D01*
X145202438Y-57838095D02*
X145250057Y-57885714D01*
X145250057Y-57885714D02*
X145345295Y-57933333D01*
X145345295Y-57933333D02*
X145488152Y-57933333D01*
X145488152Y-57933333D02*
X145583390Y-57885714D01*
X145583390Y-57885714D02*
X145631009Y-57838095D01*
X145631009Y-57838095D02*
X145678628Y-57742857D01*
X145678628Y-57742857D02*
X145678628Y-57361905D01*
X145250057Y-58314286D02*
X145202438Y-58361905D01*
X145202438Y-58361905D02*
X145154819Y-58457143D01*
X145154819Y-58457143D02*
X145154819Y-58695238D01*
X145154819Y-58695238D02*
X145202438Y-58790476D01*
X145202438Y-58790476D02*
X145250057Y-58838095D01*
X145250057Y-58838095D02*
X145345295Y-58885714D01*
X145345295Y-58885714D02*
X145440533Y-58885714D01*
X145440533Y-58885714D02*
X145583390Y-58838095D01*
X145583390Y-58838095D02*
X146154819Y-58266667D01*
X146154819Y-58266667D02*
X146154819Y-58885714D01*
X114242857Y-43687319D02*
X114576190Y-43211128D01*
X114814285Y-43687319D02*
X114814285Y-42687319D01*
X114814285Y-42687319D02*
X114433333Y-42687319D01*
X114433333Y-42687319D02*
X114338095Y-42734938D01*
X114338095Y-42734938D02*
X114290476Y-42782557D01*
X114290476Y-42782557D02*
X114242857Y-42877795D01*
X114242857Y-42877795D02*
X114242857Y-43020652D01*
X114242857Y-43020652D02*
X114290476Y-43115890D01*
X114290476Y-43115890D02*
X114338095Y-43163509D01*
X114338095Y-43163509D02*
X114433333Y-43211128D01*
X114433333Y-43211128D02*
X114814285Y-43211128D01*
X113290476Y-43687319D02*
X113861904Y-43687319D01*
X113576190Y-43687319D02*
X113576190Y-42687319D01*
X113576190Y-42687319D02*
X113671428Y-42830176D01*
X113671428Y-42830176D02*
X113766666Y-42925414D01*
X113766666Y-42925414D02*
X113861904Y-42973033D01*
X112433333Y-42687319D02*
X112623809Y-42687319D01*
X112623809Y-42687319D02*
X112719047Y-42734938D01*
X112719047Y-42734938D02*
X112766666Y-42782557D01*
X112766666Y-42782557D02*
X112861904Y-42925414D01*
X112861904Y-42925414D02*
X112909523Y-43115890D01*
X112909523Y-43115890D02*
X112909523Y-43496842D01*
X112909523Y-43496842D02*
X112861904Y-43592080D01*
X112861904Y-43592080D02*
X112814285Y-43639700D01*
X112814285Y-43639700D02*
X112719047Y-43687319D01*
X112719047Y-43687319D02*
X112528571Y-43687319D01*
X112528571Y-43687319D02*
X112433333Y-43639700D01*
X112433333Y-43639700D02*
X112385714Y-43592080D01*
X112385714Y-43592080D02*
X112338095Y-43496842D01*
X112338095Y-43496842D02*
X112338095Y-43258747D01*
X112338095Y-43258747D02*
X112385714Y-43163509D01*
X112385714Y-43163509D02*
X112433333Y-43115890D01*
X112433333Y-43115890D02*
X112528571Y-43068271D01*
X112528571Y-43068271D02*
X112719047Y-43068271D01*
X112719047Y-43068271D02*
X112814285Y-43115890D01*
X112814285Y-43115890D02*
X112861904Y-43163509D01*
X112861904Y-43163509D02*
X112909523Y-43258747D01*
X144559580Y-45269642D02*
X144607200Y-45222023D01*
X144607200Y-45222023D02*
X144654819Y-45079166D01*
X144654819Y-45079166D02*
X144654819Y-44983928D01*
X144654819Y-44983928D02*
X144607200Y-44841071D01*
X144607200Y-44841071D02*
X144511961Y-44745833D01*
X144511961Y-44745833D02*
X144416723Y-44698214D01*
X144416723Y-44698214D02*
X144226247Y-44650595D01*
X144226247Y-44650595D02*
X144083390Y-44650595D01*
X144083390Y-44650595D02*
X143892914Y-44698214D01*
X143892914Y-44698214D02*
X143797676Y-44745833D01*
X143797676Y-44745833D02*
X143702438Y-44841071D01*
X143702438Y-44841071D02*
X143654819Y-44983928D01*
X143654819Y-44983928D02*
X143654819Y-45079166D01*
X143654819Y-45079166D02*
X143702438Y-45222023D01*
X143702438Y-45222023D02*
X143750057Y-45269642D01*
X143750057Y-45650595D02*
X143702438Y-45698214D01*
X143702438Y-45698214D02*
X143654819Y-45793452D01*
X143654819Y-45793452D02*
X143654819Y-46031547D01*
X143654819Y-46031547D02*
X143702438Y-46126785D01*
X143702438Y-46126785D02*
X143750057Y-46174404D01*
X143750057Y-46174404D02*
X143845295Y-46222023D01*
X143845295Y-46222023D02*
X143940533Y-46222023D01*
X143940533Y-46222023D02*
X144083390Y-46174404D01*
X144083390Y-46174404D02*
X144654819Y-45602976D01*
X144654819Y-45602976D02*
X144654819Y-46222023D01*
X143654819Y-46555357D02*
X143654819Y-47174404D01*
X143654819Y-47174404D02*
X144035771Y-46841071D01*
X144035771Y-46841071D02*
X144035771Y-46983928D01*
X144035771Y-46983928D02*
X144083390Y-47079166D01*
X144083390Y-47079166D02*
X144131009Y-47126785D01*
X144131009Y-47126785D02*
X144226247Y-47174404D01*
X144226247Y-47174404D02*
X144464342Y-47174404D01*
X144464342Y-47174404D02*
X144559580Y-47126785D01*
X144559580Y-47126785D02*
X144607200Y-47079166D01*
X144607200Y-47079166D02*
X144654819Y-46983928D01*
X144654819Y-46983928D02*
X144654819Y-46698214D01*
X144654819Y-46698214D02*
X144607200Y-46602976D01*
X144607200Y-46602976D02*
X144559580Y-46555357D01*
X178704819Y-42419642D02*
X178228628Y-42086309D01*
X178704819Y-41848214D02*
X177704819Y-41848214D01*
X177704819Y-41848214D02*
X177704819Y-42229166D01*
X177704819Y-42229166D02*
X177752438Y-42324404D01*
X177752438Y-42324404D02*
X177800057Y-42372023D01*
X177800057Y-42372023D02*
X177895295Y-42419642D01*
X177895295Y-42419642D02*
X178038152Y-42419642D01*
X178038152Y-42419642D02*
X178133390Y-42372023D01*
X178133390Y-42372023D02*
X178181009Y-42324404D01*
X178181009Y-42324404D02*
X178228628Y-42229166D01*
X178228628Y-42229166D02*
X178228628Y-41848214D01*
X177800057Y-42800595D02*
X177752438Y-42848214D01*
X177752438Y-42848214D02*
X177704819Y-42943452D01*
X177704819Y-42943452D02*
X177704819Y-43181547D01*
X177704819Y-43181547D02*
X177752438Y-43276785D01*
X177752438Y-43276785D02*
X177800057Y-43324404D01*
X177800057Y-43324404D02*
X177895295Y-43372023D01*
X177895295Y-43372023D02*
X177990533Y-43372023D01*
X177990533Y-43372023D02*
X178133390Y-43324404D01*
X178133390Y-43324404D02*
X178704819Y-42752976D01*
X178704819Y-42752976D02*
X178704819Y-43372023D01*
X178038152Y-44229166D02*
X178704819Y-44229166D01*
X177657200Y-43991071D02*
X178371485Y-43752976D01*
X178371485Y-43752976D02*
X178371485Y-44372023D01*
X125554819Y-58133333D02*
X125078628Y-57800000D01*
X125554819Y-57561905D02*
X124554819Y-57561905D01*
X124554819Y-57561905D02*
X124554819Y-57942857D01*
X124554819Y-57942857D02*
X124602438Y-58038095D01*
X124602438Y-58038095D02*
X124650057Y-58085714D01*
X124650057Y-58085714D02*
X124745295Y-58133333D01*
X124745295Y-58133333D02*
X124888152Y-58133333D01*
X124888152Y-58133333D02*
X124983390Y-58085714D01*
X124983390Y-58085714D02*
X125031009Y-58038095D01*
X125031009Y-58038095D02*
X125078628Y-57942857D01*
X125078628Y-57942857D02*
X125078628Y-57561905D01*
X124554819Y-58466667D02*
X124554819Y-59085714D01*
X124554819Y-59085714D02*
X124935771Y-58752381D01*
X124935771Y-58752381D02*
X124935771Y-58895238D01*
X124935771Y-58895238D02*
X124983390Y-58990476D01*
X124983390Y-58990476D02*
X125031009Y-59038095D01*
X125031009Y-59038095D02*
X125126247Y-59085714D01*
X125126247Y-59085714D02*
X125364342Y-59085714D01*
X125364342Y-59085714D02*
X125459580Y-59038095D01*
X125459580Y-59038095D02*
X125507200Y-58990476D01*
X125507200Y-58990476D02*
X125554819Y-58895238D01*
X125554819Y-58895238D02*
X125554819Y-58609524D01*
X125554819Y-58609524D02*
X125507200Y-58514286D01*
X125507200Y-58514286D02*
X125459580Y-58466667D01*
X153054819Y-56283333D02*
X152578628Y-55950000D01*
X153054819Y-55711905D02*
X152054819Y-55711905D01*
X152054819Y-55711905D02*
X152054819Y-56092857D01*
X152054819Y-56092857D02*
X152102438Y-56188095D01*
X152102438Y-56188095D02*
X152150057Y-56235714D01*
X152150057Y-56235714D02*
X152245295Y-56283333D01*
X152245295Y-56283333D02*
X152388152Y-56283333D01*
X152388152Y-56283333D02*
X152483390Y-56235714D01*
X152483390Y-56235714D02*
X152531009Y-56188095D01*
X152531009Y-56188095D02*
X152578628Y-56092857D01*
X152578628Y-56092857D02*
X152578628Y-55711905D01*
X152388152Y-57140476D02*
X153054819Y-57140476D01*
X152007200Y-56902381D02*
X152721485Y-56664286D01*
X152721485Y-56664286D02*
X152721485Y-57283333D01*
X125459580Y-37807142D02*
X125507200Y-37759523D01*
X125507200Y-37759523D02*
X125554819Y-37616666D01*
X125554819Y-37616666D02*
X125554819Y-37521428D01*
X125554819Y-37521428D02*
X125507200Y-37378571D01*
X125507200Y-37378571D02*
X125411961Y-37283333D01*
X125411961Y-37283333D02*
X125316723Y-37235714D01*
X125316723Y-37235714D02*
X125126247Y-37188095D01*
X125126247Y-37188095D02*
X124983390Y-37188095D01*
X124983390Y-37188095D02*
X124792914Y-37235714D01*
X124792914Y-37235714D02*
X124697676Y-37283333D01*
X124697676Y-37283333D02*
X124602438Y-37378571D01*
X124602438Y-37378571D02*
X124554819Y-37521428D01*
X124554819Y-37521428D02*
X124554819Y-37616666D01*
X124554819Y-37616666D02*
X124602438Y-37759523D01*
X124602438Y-37759523D02*
X124650057Y-37807142D01*
X124650057Y-38188095D02*
X124602438Y-38235714D01*
X124602438Y-38235714D02*
X124554819Y-38330952D01*
X124554819Y-38330952D02*
X124554819Y-38569047D01*
X124554819Y-38569047D02*
X124602438Y-38664285D01*
X124602438Y-38664285D02*
X124650057Y-38711904D01*
X124650057Y-38711904D02*
X124745295Y-38759523D01*
X124745295Y-38759523D02*
X124840533Y-38759523D01*
X124840533Y-38759523D02*
X124983390Y-38711904D01*
X124983390Y-38711904D02*
X125554819Y-38140476D01*
X125554819Y-38140476D02*
X125554819Y-38759523D01*
X124554819Y-39616666D02*
X124554819Y-39426190D01*
X124554819Y-39426190D02*
X124602438Y-39330952D01*
X124602438Y-39330952D02*
X124650057Y-39283333D01*
X124650057Y-39283333D02*
X124792914Y-39188095D01*
X124792914Y-39188095D02*
X124983390Y-39140476D01*
X124983390Y-39140476D02*
X125364342Y-39140476D01*
X125364342Y-39140476D02*
X125459580Y-39188095D01*
X125459580Y-39188095D02*
X125507200Y-39235714D01*
X125507200Y-39235714D02*
X125554819Y-39330952D01*
X125554819Y-39330952D02*
X125554819Y-39521428D01*
X125554819Y-39521428D02*
X125507200Y-39616666D01*
X125507200Y-39616666D02*
X125459580Y-39664285D01*
X125459580Y-39664285D02*
X125364342Y-39711904D01*
X125364342Y-39711904D02*
X125126247Y-39711904D01*
X125126247Y-39711904D02*
X125031009Y-39664285D01*
X125031009Y-39664285D02*
X124983390Y-39616666D01*
X124983390Y-39616666D02*
X124935771Y-39521428D01*
X124935771Y-39521428D02*
X124935771Y-39330952D01*
X124935771Y-39330952D02*
X124983390Y-39235714D01*
X124983390Y-39235714D02*
X125031009Y-39188095D01*
X125031009Y-39188095D02*
X125126247Y-39140476D01*
X167124819Y-58133333D02*
X166648628Y-57800000D01*
X167124819Y-57561905D02*
X166124819Y-57561905D01*
X166124819Y-57561905D02*
X166124819Y-57942857D01*
X166124819Y-57942857D02*
X166172438Y-58038095D01*
X166172438Y-58038095D02*
X166220057Y-58085714D01*
X166220057Y-58085714D02*
X166315295Y-58133333D01*
X166315295Y-58133333D02*
X166458152Y-58133333D01*
X166458152Y-58133333D02*
X166553390Y-58085714D01*
X166553390Y-58085714D02*
X166601009Y-58038095D01*
X166601009Y-58038095D02*
X166648628Y-57942857D01*
X166648628Y-57942857D02*
X166648628Y-57561905D01*
X166124819Y-59038095D02*
X166124819Y-58561905D01*
X166124819Y-58561905D02*
X166601009Y-58514286D01*
X166601009Y-58514286D02*
X166553390Y-58561905D01*
X166553390Y-58561905D02*
X166505771Y-58657143D01*
X166505771Y-58657143D02*
X166505771Y-58895238D01*
X166505771Y-58895238D02*
X166553390Y-58990476D01*
X166553390Y-58990476D02*
X166601009Y-59038095D01*
X166601009Y-59038095D02*
X166696247Y-59085714D01*
X166696247Y-59085714D02*
X166934342Y-59085714D01*
X166934342Y-59085714D02*
X167029580Y-59038095D01*
X167029580Y-59038095D02*
X167077200Y-58990476D01*
X167077200Y-58990476D02*
X167124819Y-58895238D01*
X167124819Y-58895238D02*
X167124819Y-58657143D01*
X167124819Y-58657143D02*
X167077200Y-58561905D01*
X167077200Y-58561905D02*
X167029580Y-58514286D01*
X136892857Y-41067319D02*
X137226190Y-40591128D01*
X137464285Y-41067319D02*
X137464285Y-40067319D01*
X137464285Y-40067319D02*
X137083333Y-40067319D01*
X137083333Y-40067319D02*
X136988095Y-40114938D01*
X136988095Y-40114938D02*
X136940476Y-40162557D01*
X136940476Y-40162557D02*
X136892857Y-40257795D01*
X136892857Y-40257795D02*
X136892857Y-40400652D01*
X136892857Y-40400652D02*
X136940476Y-40495890D01*
X136940476Y-40495890D02*
X136988095Y-40543509D01*
X136988095Y-40543509D02*
X137083333Y-40591128D01*
X137083333Y-40591128D02*
X137464285Y-40591128D01*
X135940476Y-41067319D02*
X136511904Y-41067319D01*
X136226190Y-41067319D02*
X136226190Y-40067319D01*
X136226190Y-40067319D02*
X136321428Y-40210176D01*
X136321428Y-40210176D02*
X136416666Y-40305414D01*
X136416666Y-40305414D02*
X136511904Y-40353033D01*
X135035714Y-40067319D02*
X135511904Y-40067319D01*
X135511904Y-40067319D02*
X135559523Y-40543509D01*
X135559523Y-40543509D02*
X135511904Y-40495890D01*
X135511904Y-40495890D02*
X135416666Y-40448271D01*
X135416666Y-40448271D02*
X135178571Y-40448271D01*
X135178571Y-40448271D02*
X135083333Y-40495890D01*
X135083333Y-40495890D02*
X135035714Y-40543509D01*
X135035714Y-40543509D02*
X134988095Y-40638747D01*
X134988095Y-40638747D02*
X134988095Y-40876842D01*
X134988095Y-40876842D02*
X135035714Y-40972080D01*
X135035714Y-40972080D02*
X135083333Y-41019700D01*
X135083333Y-41019700D02*
X135178571Y-41067319D01*
X135178571Y-41067319D02*
X135416666Y-41067319D01*
X135416666Y-41067319D02*
X135511904Y-41019700D01*
X135511904Y-41019700D02*
X135559523Y-40972080D01*
X121259580Y-44382142D02*
X121307200Y-44334523D01*
X121307200Y-44334523D02*
X121354819Y-44191666D01*
X121354819Y-44191666D02*
X121354819Y-44096428D01*
X121354819Y-44096428D02*
X121307200Y-43953571D01*
X121307200Y-43953571D02*
X121211961Y-43858333D01*
X121211961Y-43858333D02*
X121116723Y-43810714D01*
X121116723Y-43810714D02*
X120926247Y-43763095D01*
X120926247Y-43763095D02*
X120783390Y-43763095D01*
X120783390Y-43763095D02*
X120592914Y-43810714D01*
X120592914Y-43810714D02*
X120497676Y-43858333D01*
X120497676Y-43858333D02*
X120402438Y-43953571D01*
X120402438Y-43953571D02*
X120354819Y-44096428D01*
X120354819Y-44096428D02*
X120354819Y-44191666D01*
X120354819Y-44191666D02*
X120402438Y-44334523D01*
X120402438Y-44334523D02*
X120450057Y-44382142D01*
X120450057Y-44763095D02*
X120402438Y-44810714D01*
X120402438Y-44810714D02*
X120354819Y-44905952D01*
X120354819Y-44905952D02*
X120354819Y-45144047D01*
X120354819Y-45144047D02*
X120402438Y-45239285D01*
X120402438Y-45239285D02*
X120450057Y-45286904D01*
X120450057Y-45286904D02*
X120545295Y-45334523D01*
X120545295Y-45334523D02*
X120640533Y-45334523D01*
X120640533Y-45334523D02*
X120783390Y-45286904D01*
X120783390Y-45286904D02*
X121354819Y-44715476D01*
X121354819Y-44715476D02*
X121354819Y-45334523D01*
X120354819Y-45667857D02*
X120354819Y-46334523D01*
X120354819Y-46334523D02*
X121354819Y-45905952D01*
X156254819Y-41357142D02*
X155778628Y-41023809D01*
X156254819Y-40785714D02*
X155254819Y-40785714D01*
X155254819Y-40785714D02*
X155254819Y-41166666D01*
X155254819Y-41166666D02*
X155302438Y-41261904D01*
X155302438Y-41261904D02*
X155350057Y-41309523D01*
X155350057Y-41309523D02*
X155445295Y-41357142D01*
X155445295Y-41357142D02*
X155588152Y-41357142D01*
X155588152Y-41357142D02*
X155683390Y-41309523D01*
X155683390Y-41309523D02*
X155731009Y-41261904D01*
X155731009Y-41261904D02*
X155778628Y-41166666D01*
X155778628Y-41166666D02*
X155778628Y-40785714D01*
X155350057Y-41738095D02*
X155302438Y-41785714D01*
X155302438Y-41785714D02*
X155254819Y-41880952D01*
X155254819Y-41880952D02*
X155254819Y-42119047D01*
X155254819Y-42119047D02*
X155302438Y-42214285D01*
X155302438Y-42214285D02*
X155350057Y-42261904D01*
X155350057Y-42261904D02*
X155445295Y-42309523D01*
X155445295Y-42309523D02*
X155540533Y-42309523D01*
X155540533Y-42309523D02*
X155683390Y-42261904D01*
X155683390Y-42261904D02*
X156254819Y-41690476D01*
X156254819Y-41690476D02*
X156254819Y-42309523D01*
X155254819Y-42928571D02*
X155254819Y-43023809D01*
X155254819Y-43023809D02*
X155302438Y-43119047D01*
X155302438Y-43119047D02*
X155350057Y-43166666D01*
X155350057Y-43166666D02*
X155445295Y-43214285D01*
X155445295Y-43214285D02*
X155635771Y-43261904D01*
X155635771Y-43261904D02*
X155873866Y-43261904D01*
X155873866Y-43261904D02*
X156064342Y-43214285D01*
X156064342Y-43214285D02*
X156159580Y-43166666D01*
X156159580Y-43166666D02*
X156207200Y-43119047D01*
X156207200Y-43119047D02*
X156254819Y-43023809D01*
X156254819Y-43023809D02*
X156254819Y-42928571D01*
X156254819Y-42928571D02*
X156207200Y-42833333D01*
X156207200Y-42833333D02*
X156159580Y-42785714D01*
X156159580Y-42785714D02*
X156064342Y-42738095D01*
X156064342Y-42738095D02*
X155873866Y-42690476D01*
X155873866Y-42690476D02*
X155635771Y-42690476D01*
X155635771Y-42690476D02*
X155445295Y-42738095D01*
X155445295Y-42738095D02*
X155350057Y-42785714D01*
X155350057Y-42785714D02*
X155302438Y-42833333D01*
X155302438Y-42833333D02*
X155254819Y-42928571D01*
X167359580Y-46557142D02*
X167407200Y-46509523D01*
X167407200Y-46509523D02*
X167454819Y-46366666D01*
X167454819Y-46366666D02*
X167454819Y-46271428D01*
X167454819Y-46271428D02*
X167407200Y-46128571D01*
X167407200Y-46128571D02*
X167311961Y-46033333D01*
X167311961Y-46033333D02*
X167216723Y-45985714D01*
X167216723Y-45985714D02*
X167026247Y-45938095D01*
X167026247Y-45938095D02*
X166883390Y-45938095D01*
X166883390Y-45938095D02*
X166692914Y-45985714D01*
X166692914Y-45985714D02*
X166597676Y-46033333D01*
X166597676Y-46033333D02*
X166502438Y-46128571D01*
X166502438Y-46128571D02*
X166454819Y-46271428D01*
X166454819Y-46271428D02*
X166454819Y-46366666D01*
X166454819Y-46366666D02*
X166502438Y-46509523D01*
X166502438Y-46509523D02*
X166550057Y-46557142D01*
X166550057Y-46938095D02*
X166502438Y-46985714D01*
X166502438Y-46985714D02*
X166454819Y-47080952D01*
X166454819Y-47080952D02*
X166454819Y-47319047D01*
X166454819Y-47319047D02*
X166502438Y-47414285D01*
X166502438Y-47414285D02*
X166550057Y-47461904D01*
X166550057Y-47461904D02*
X166645295Y-47509523D01*
X166645295Y-47509523D02*
X166740533Y-47509523D01*
X166740533Y-47509523D02*
X166883390Y-47461904D01*
X166883390Y-47461904D02*
X167454819Y-46890476D01*
X167454819Y-46890476D02*
X167454819Y-47509523D01*
X166454819Y-48414285D02*
X166454819Y-47938095D01*
X166454819Y-47938095D02*
X166931009Y-47890476D01*
X166931009Y-47890476D02*
X166883390Y-47938095D01*
X166883390Y-47938095D02*
X166835771Y-48033333D01*
X166835771Y-48033333D02*
X166835771Y-48271428D01*
X166835771Y-48271428D02*
X166883390Y-48366666D01*
X166883390Y-48366666D02*
X166931009Y-48414285D01*
X166931009Y-48414285D02*
X167026247Y-48461904D01*
X167026247Y-48461904D02*
X167264342Y-48461904D01*
X167264342Y-48461904D02*
X167359580Y-48414285D01*
X167359580Y-48414285D02*
X167407200Y-48366666D01*
X167407200Y-48366666D02*
X167454819Y-48271428D01*
X167454819Y-48271428D02*
X167454819Y-48033333D01*
X167454819Y-48033333D02*
X167407200Y-47938095D01*
X167407200Y-47938095D02*
X167359580Y-47890476D01*
X110284580Y-40919642D02*
X110332200Y-40872023D01*
X110332200Y-40872023D02*
X110379819Y-40729166D01*
X110379819Y-40729166D02*
X110379819Y-40633928D01*
X110379819Y-40633928D02*
X110332200Y-40491071D01*
X110332200Y-40491071D02*
X110236961Y-40395833D01*
X110236961Y-40395833D02*
X110141723Y-40348214D01*
X110141723Y-40348214D02*
X109951247Y-40300595D01*
X109951247Y-40300595D02*
X109808390Y-40300595D01*
X109808390Y-40300595D02*
X109617914Y-40348214D01*
X109617914Y-40348214D02*
X109522676Y-40395833D01*
X109522676Y-40395833D02*
X109427438Y-40491071D01*
X109427438Y-40491071D02*
X109379819Y-40633928D01*
X109379819Y-40633928D02*
X109379819Y-40729166D01*
X109379819Y-40729166D02*
X109427438Y-40872023D01*
X109427438Y-40872023D02*
X109475057Y-40919642D01*
X109475057Y-41300595D02*
X109427438Y-41348214D01*
X109427438Y-41348214D02*
X109379819Y-41443452D01*
X109379819Y-41443452D02*
X109379819Y-41681547D01*
X109379819Y-41681547D02*
X109427438Y-41776785D01*
X109427438Y-41776785D02*
X109475057Y-41824404D01*
X109475057Y-41824404D02*
X109570295Y-41872023D01*
X109570295Y-41872023D02*
X109665533Y-41872023D01*
X109665533Y-41872023D02*
X109808390Y-41824404D01*
X109808390Y-41824404D02*
X110379819Y-41252976D01*
X110379819Y-41252976D02*
X110379819Y-41872023D01*
X109379819Y-42491071D02*
X109379819Y-42586309D01*
X109379819Y-42586309D02*
X109427438Y-42681547D01*
X109427438Y-42681547D02*
X109475057Y-42729166D01*
X109475057Y-42729166D02*
X109570295Y-42776785D01*
X109570295Y-42776785D02*
X109760771Y-42824404D01*
X109760771Y-42824404D02*
X109998866Y-42824404D01*
X109998866Y-42824404D02*
X110189342Y-42776785D01*
X110189342Y-42776785D02*
X110284580Y-42729166D01*
X110284580Y-42729166D02*
X110332200Y-42681547D01*
X110332200Y-42681547D02*
X110379819Y-42586309D01*
X110379819Y-42586309D02*
X110379819Y-42491071D01*
X110379819Y-42491071D02*
X110332200Y-42395833D01*
X110332200Y-42395833D02*
X110284580Y-42348214D01*
X110284580Y-42348214D02*
X110189342Y-42300595D01*
X110189342Y-42300595D02*
X109998866Y-42252976D01*
X109998866Y-42252976D02*
X109760771Y-42252976D01*
X109760771Y-42252976D02*
X109570295Y-42300595D01*
X109570295Y-42300595D02*
X109475057Y-42348214D01*
X109475057Y-42348214D02*
X109427438Y-42395833D01*
X109427438Y-42395833D02*
X109379819Y-42491071D01*
X137059580Y-35282142D02*
X137107200Y-35234523D01*
X137107200Y-35234523D02*
X137154819Y-35091666D01*
X137154819Y-35091666D02*
X137154819Y-34996428D01*
X137154819Y-34996428D02*
X137107200Y-34853571D01*
X137107200Y-34853571D02*
X137011961Y-34758333D01*
X137011961Y-34758333D02*
X136916723Y-34710714D01*
X136916723Y-34710714D02*
X136726247Y-34663095D01*
X136726247Y-34663095D02*
X136583390Y-34663095D01*
X136583390Y-34663095D02*
X136392914Y-34710714D01*
X136392914Y-34710714D02*
X136297676Y-34758333D01*
X136297676Y-34758333D02*
X136202438Y-34853571D01*
X136202438Y-34853571D02*
X136154819Y-34996428D01*
X136154819Y-34996428D02*
X136154819Y-35091666D01*
X136154819Y-35091666D02*
X136202438Y-35234523D01*
X136202438Y-35234523D02*
X136250057Y-35282142D01*
X137154819Y-36234523D02*
X137154819Y-35663095D01*
X137154819Y-35948809D02*
X136154819Y-35948809D01*
X136154819Y-35948809D02*
X136297676Y-35853571D01*
X136297676Y-35853571D02*
X136392914Y-35758333D01*
X136392914Y-35758333D02*
X136440533Y-35663095D01*
X136583390Y-36805952D02*
X136535771Y-36710714D01*
X136535771Y-36710714D02*
X136488152Y-36663095D01*
X136488152Y-36663095D02*
X136392914Y-36615476D01*
X136392914Y-36615476D02*
X136345295Y-36615476D01*
X136345295Y-36615476D02*
X136250057Y-36663095D01*
X136250057Y-36663095D02*
X136202438Y-36710714D01*
X136202438Y-36710714D02*
X136154819Y-36805952D01*
X136154819Y-36805952D02*
X136154819Y-36996428D01*
X136154819Y-36996428D02*
X136202438Y-37091666D01*
X136202438Y-37091666D02*
X136250057Y-37139285D01*
X136250057Y-37139285D02*
X136345295Y-37186904D01*
X136345295Y-37186904D02*
X136392914Y-37186904D01*
X136392914Y-37186904D02*
X136488152Y-37139285D01*
X136488152Y-37139285D02*
X136535771Y-37091666D01*
X136535771Y-37091666D02*
X136583390Y-36996428D01*
X136583390Y-36996428D02*
X136583390Y-36805952D01*
X136583390Y-36805952D02*
X136631009Y-36710714D01*
X136631009Y-36710714D02*
X136678628Y-36663095D01*
X136678628Y-36663095D02*
X136773866Y-36615476D01*
X136773866Y-36615476D02*
X136964342Y-36615476D01*
X136964342Y-36615476D02*
X137059580Y-36663095D01*
X137059580Y-36663095D02*
X137107200Y-36710714D01*
X137107200Y-36710714D02*
X137154819Y-36805952D01*
X137154819Y-36805952D02*
X137154819Y-36996428D01*
X137154819Y-36996428D02*
X137107200Y-37091666D01*
X137107200Y-37091666D02*
X137059580Y-37139285D01*
X137059580Y-37139285D02*
X136964342Y-37186904D01*
X136964342Y-37186904D02*
X136773866Y-37186904D01*
X136773866Y-37186904D02*
X136678628Y-37139285D01*
X136678628Y-37139285D02*
X136631009Y-37091666D01*
X136631009Y-37091666D02*
X136583390Y-36996428D01*
X149059580Y-38282142D02*
X149107200Y-38234523D01*
X149107200Y-38234523D02*
X149154819Y-38091666D01*
X149154819Y-38091666D02*
X149154819Y-37996428D01*
X149154819Y-37996428D02*
X149107200Y-37853571D01*
X149107200Y-37853571D02*
X149011961Y-37758333D01*
X149011961Y-37758333D02*
X148916723Y-37710714D01*
X148916723Y-37710714D02*
X148726247Y-37663095D01*
X148726247Y-37663095D02*
X148583390Y-37663095D01*
X148583390Y-37663095D02*
X148392914Y-37710714D01*
X148392914Y-37710714D02*
X148297676Y-37758333D01*
X148297676Y-37758333D02*
X148202438Y-37853571D01*
X148202438Y-37853571D02*
X148154819Y-37996428D01*
X148154819Y-37996428D02*
X148154819Y-38091666D01*
X148154819Y-38091666D02*
X148202438Y-38234523D01*
X148202438Y-38234523D02*
X148250057Y-38282142D01*
X148250057Y-38663095D02*
X148202438Y-38710714D01*
X148202438Y-38710714D02*
X148154819Y-38805952D01*
X148154819Y-38805952D02*
X148154819Y-39044047D01*
X148154819Y-39044047D02*
X148202438Y-39139285D01*
X148202438Y-39139285D02*
X148250057Y-39186904D01*
X148250057Y-39186904D02*
X148345295Y-39234523D01*
X148345295Y-39234523D02*
X148440533Y-39234523D01*
X148440533Y-39234523D02*
X148583390Y-39186904D01*
X148583390Y-39186904D02*
X149154819Y-38615476D01*
X149154819Y-38615476D02*
X149154819Y-39234523D01*
X148250057Y-39615476D02*
X148202438Y-39663095D01*
X148202438Y-39663095D02*
X148154819Y-39758333D01*
X148154819Y-39758333D02*
X148154819Y-39996428D01*
X148154819Y-39996428D02*
X148202438Y-40091666D01*
X148202438Y-40091666D02*
X148250057Y-40139285D01*
X148250057Y-40139285D02*
X148345295Y-40186904D01*
X148345295Y-40186904D02*
X148440533Y-40186904D01*
X148440533Y-40186904D02*
X148583390Y-40139285D01*
X148583390Y-40139285D02*
X149154819Y-39567857D01*
X149154819Y-39567857D02*
X149154819Y-40186904D01*
X174142857Y-53854819D02*
X174476190Y-53378628D01*
X174714285Y-53854819D02*
X174714285Y-52854819D01*
X174714285Y-52854819D02*
X174333333Y-52854819D01*
X174333333Y-52854819D02*
X174238095Y-52902438D01*
X174238095Y-52902438D02*
X174190476Y-52950057D01*
X174190476Y-52950057D02*
X174142857Y-53045295D01*
X174142857Y-53045295D02*
X174142857Y-53188152D01*
X174142857Y-53188152D02*
X174190476Y-53283390D01*
X174190476Y-53283390D02*
X174238095Y-53331009D01*
X174238095Y-53331009D02*
X174333333Y-53378628D01*
X174333333Y-53378628D02*
X174714285Y-53378628D01*
X173190476Y-53854819D02*
X173761904Y-53854819D01*
X173476190Y-53854819D02*
X173476190Y-52854819D01*
X173476190Y-52854819D02*
X173571428Y-52997676D01*
X173571428Y-52997676D02*
X173666666Y-53092914D01*
X173666666Y-53092914D02*
X173761904Y-53140533D01*
X172809523Y-52950057D02*
X172761904Y-52902438D01*
X172761904Y-52902438D02*
X172666666Y-52854819D01*
X172666666Y-52854819D02*
X172428571Y-52854819D01*
X172428571Y-52854819D02*
X172333333Y-52902438D01*
X172333333Y-52902438D02*
X172285714Y-52950057D01*
X172285714Y-52950057D02*
X172238095Y-53045295D01*
X172238095Y-53045295D02*
X172238095Y-53140533D01*
X172238095Y-53140533D02*
X172285714Y-53283390D01*
X172285714Y-53283390D02*
X172857142Y-53854819D01*
X172857142Y-53854819D02*
X172238095Y-53854819D01*
X119742857Y-34967319D02*
X120076190Y-34491128D01*
X120314285Y-34967319D02*
X120314285Y-33967319D01*
X120314285Y-33967319D02*
X119933333Y-33967319D01*
X119933333Y-33967319D02*
X119838095Y-34014938D01*
X119838095Y-34014938D02*
X119790476Y-34062557D01*
X119790476Y-34062557D02*
X119742857Y-34157795D01*
X119742857Y-34157795D02*
X119742857Y-34300652D01*
X119742857Y-34300652D02*
X119790476Y-34395890D01*
X119790476Y-34395890D02*
X119838095Y-34443509D01*
X119838095Y-34443509D02*
X119933333Y-34491128D01*
X119933333Y-34491128D02*
X120314285Y-34491128D01*
X118790476Y-34967319D02*
X119361904Y-34967319D01*
X119076190Y-34967319D02*
X119076190Y-33967319D01*
X119076190Y-33967319D02*
X119171428Y-34110176D01*
X119171428Y-34110176D02*
X119266666Y-34205414D01*
X119266666Y-34205414D02*
X119361904Y-34253033D01*
X118457142Y-33967319D02*
X117838095Y-33967319D01*
X117838095Y-33967319D02*
X118171428Y-34348271D01*
X118171428Y-34348271D02*
X118028571Y-34348271D01*
X118028571Y-34348271D02*
X117933333Y-34395890D01*
X117933333Y-34395890D02*
X117885714Y-34443509D01*
X117885714Y-34443509D02*
X117838095Y-34538747D01*
X117838095Y-34538747D02*
X117838095Y-34776842D01*
X117838095Y-34776842D02*
X117885714Y-34872080D01*
X117885714Y-34872080D02*
X117933333Y-34919700D01*
X117933333Y-34919700D02*
X118028571Y-34967319D01*
X118028571Y-34967319D02*
X118314285Y-34967319D01*
X118314285Y-34967319D02*
X118409523Y-34919700D01*
X118409523Y-34919700D02*
X118457142Y-34872080D01*
X159654819Y-39944642D02*
X159178628Y-39611309D01*
X159654819Y-39373214D02*
X158654819Y-39373214D01*
X158654819Y-39373214D02*
X158654819Y-39754166D01*
X158654819Y-39754166D02*
X158702438Y-39849404D01*
X158702438Y-39849404D02*
X158750057Y-39897023D01*
X158750057Y-39897023D02*
X158845295Y-39944642D01*
X158845295Y-39944642D02*
X158988152Y-39944642D01*
X158988152Y-39944642D02*
X159083390Y-39897023D01*
X159083390Y-39897023D02*
X159131009Y-39849404D01*
X159131009Y-39849404D02*
X159178628Y-39754166D01*
X159178628Y-39754166D02*
X159178628Y-39373214D01*
X158750057Y-40325595D02*
X158702438Y-40373214D01*
X158702438Y-40373214D02*
X158654819Y-40468452D01*
X158654819Y-40468452D02*
X158654819Y-40706547D01*
X158654819Y-40706547D02*
X158702438Y-40801785D01*
X158702438Y-40801785D02*
X158750057Y-40849404D01*
X158750057Y-40849404D02*
X158845295Y-40897023D01*
X158845295Y-40897023D02*
X158940533Y-40897023D01*
X158940533Y-40897023D02*
X159083390Y-40849404D01*
X159083390Y-40849404D02*
X159654819Y-40277976D01*
X159654819Y-40277976D02*
X159654819Y-40897023D01*
X158654819Y-41230357D02*
X158654819Y-41849404D01*
X158654819Y-41849404D02*
X159035771Y-41516071D01*
X159035771Y-41516071D02*
X159035771Y-41658928D01*
X159035771Y-41658928D02*
X159083390Y-41754166D01*
X159083390Y-41754166D02*
X159131009Y-41801785D01*
X159131009Y-41801785D02*
X159226247Y-41849404D01*
X159226247Y-41849404D02*
X159464342Y-41849404D01*
X159464342Y-41849404D02*
X159559580Y-41801785D01*
X159559580Y-41801785D02*
X159607200Y-41754166D01*
X159607200Y-41754166D02*
X159654819Y-41658928D01*
X159654819Y-41658928D02*
X159654819Y-41373214D01*
X159654819Y-41373214D02*
X159607200Y-41277976D01*
X159607200Y-41277976D02*
X159559580Y-41230357D01*
X118329819Y-58258333D02*
X117853628Y-57925000D01*
X118329819Y-57686905D02*
X117329819Y-57686905D01*
X117329819Y-57686905D02*
X117329819Y-58067857D01*
X117329819Y-58067857D02*
X117377438Y-58163095D01*
X117377438Y-58163095D02*
X117425057Y-58210714D01*
X117425057Y-58210714D02*
X117520295Y-58258333D01*
X117520295Y-58258333D02*
X117663152Y-58258333D01*
X117663152Y-58258333D02*
X117758390Y-58210714D01*
X117758390Y-58210714D02*
X117806009Y-58163095D01*
X117806009Y-58163095D02*
X117853628Y-58067857D01*
X117853628Y-58067857D02*
X117853628Y-57686905D01*
X118329819Y-59210714D02*
X118329819Y-58639286D01*
X118329819Y-58925000D02*
X117329819Y-58925000D01*
X117329819Y-58925000D02*
X117472676Y-58829762D01*
X117472676Y-58829762D02*
X117567914Y-58734524D01*
X117567914Y-58734524D02*
X117615533Y-58639286D01*
%TO.C,R2*%
D11*
X142790000Y-57472936D02*
X142790000Y-58927064D01*
X144610000Y-57472936D02*
X144610000Y-58927064D01*
%TO.C,R16*%
X114327064Y-44152500D02*
X112872936Y-44152500D01*
X114327064Y-45972500D02*
X112872936Y-45972500D01*
%TO.C,C23*%
X145390000Y-44751248D02*
X145390000Y-46173752D01*
X147210000Y-44751248D02*
X147210000Y-46173752D01*
%TO.C,R24*%
X175290000Y-42335436D02*
X175290000Y-43789564D01*
X177110000Y-42335436D02*
X177110000Y-43789564D01*
%TO.C,R3*%
X126140000Y-59077064D02*
X126140000Y-57622936D01*
X127960000Y-59077064D02*
X127960000Y-57622936D01*
%TO.C,R4*%
X153790000Y-57977064D02*
X153790000Y-56522936D01*
X155610000Y-57977064D02*
X155610000Y-56522936D01*
%TO.C,C26*%
X122340000Y-39161252D02*
X122340000Y-37738748D01*
X124160000Y-39161252D02*
X124160000Y-37738748D01*
%TO.C,R5*%
X167590000Y-57572936D02*
X167590000Y-59027064D01*
X169410000Y-57572936D02*
X169410000Y-59027064D01*
%TO.C,R15*%
X131572936Y-39552500D02*
X133027064Y-39552500D01*
X131572936Y-41372500D02*
X133027064Y-41372500D01*
%TO.C,C27*%
X121840000Y-44313748D02*
X121840000Y-45736252D01*
X123660000Y-44313748D02*
X123660000Y-45736252D01*
%TO.C,R20*%
X152390000Y-41272936D02*
X152390000Y-42727064D01*
X154210000Y-41272936D02*
X154210000Y-42727064D01*
%TO.C,C25*%
X167940000Y-46488748D02*
X167940000Y-47911252D01*
X169760000Y-46488748D02*
X169760000Y-47911252D01*
%TO.C,C20*%
X114298752Y-40602500D02*
X112876248Y-40602500D01*
X114298752Y-42422500D02*
X112876248Y-42422500D01*
%TO.C,C18*%
X133940000Y-36636252D02*
X133940000Y-35213748D01*
X135760000Y-36636252D02*
X135760000Y-35213748D01*
%TO.C,C22*%
X145390000Y-38486252D02*
X145390000Y-37063748D01*
X147210000Y-38486252D02*
X147210000Y-37063748D01*
%TO.C,R12*%
X174227064Y-50540000D02*
X172772936Y-50540000D01*
X174227064Y-52360000D02*
X172772936Y-52360000D01*
%TO.C,R13*%
X118222936Y-35452500D02*
X119677064Y-35452500D01*
X118222936Y-37272500D02*
X119677064Y-37272500D01*
%TO.C,R23*%
X160240000Y-39885436D02*
X160240000Y-41339564D01*
X162060000Y-39885436D02*
X162060000Y-41339564D01*
%TO.C,R1*%
X115140000Y-57772936D02*
X115140000Y-59227064D01*
X116960000Y-57772936D02*
X116960000Y-59227064D01*
%TD*%
%LPC*%
D12*
%TO.C,H6*%
X186750000Y-23450000D03*
%TD*%
%TO.C,H5*%
X110350000Y-23761205D03*
%TD*%
D13*
%TO.C,C8*%
X133950000Y-62750000D03*
X133950000Y-67750000D03*
%TD*%
%TO.C,C16*%
X157550000Y-58950000D03*
X162550000Y-58950000D03*
%TD*%
D14*
%TO.C,J8*%
X175030000Y-26662500D03*
D15*
X169950000Y-26662500D03*
X164870000Y-26662500D03*
%TD*%
D14*
%TO.C,J6*%
X124600000Y-27950000D03*
D15*
X119520000Y-27950000D03*
%TD*%
D14*
%TO.C,J7*%
X150225000Y-26687500D03*
D15*
X145145000Y-26687500D03*
X140065000Y-26687500D03*
%TD*%
D12*
%TO.C,H8*%
X110450000Y-69400000D03*
%TD*%
D16*
%TO.C,U3*%
X142490000Y-39352500D03*
D13*
X142490000Y-41892500D03*
X142490000Y-44432500D03*
X142490000Y-46972500D03*
X150110000Y-46972500D03*
X150110000Y-44432500D03*
X150110000Y-41892500D03*
X150110000Y-39352500D03*
%TD*%
%TO.C,C13*%
X135250000Y-58700000D03*
X130250000Y-58700000D03*
%TD*%
%TO.C,C17*%
X179750000Y-54150000D03*
X179750000Y-59150000D03*
%TD*%
%TO.C,C12*%
X151650000Y-59150000D03*
X146650000Y-59150000D03*
%TD*%
%TO.C,C7*%
X143750000Y-62650000D03*
X143750000Y-67650000D03*
%TD*%
D17*
%TO.C,RV1*%
X122840811Y-66275000D03*
D18*
X125340811Y-66275000D03*
X127840811Y-66275000D03*
X122840811Y-63775000D03*
X125340811Y-63775000D03*
X127840811Y-63775000D03*
%TD*%
D19*
%TO.C,C21*%
X114150000Y-36450000D03*
D13*
X112150000Y-36450000D03*
%TD*%
D17*
%TO.C,RV3*%
X173979980Y-66275000D03*
D18*
X176479980Y-66275000D03*
X178979980Y-66275000D03*
X173979980Y-63775000D03*
X176479980Y-63775000D03*
X178979980Y-63775000D03*
%TD*%
D17*
%TO.C,RV2*%
X148475000Y-66275000D03*
D18*
X150975000Y-66275000D03*
X153475000Y-66275000D03*
X148475000Y-63775000D03*
X150975000Y-63775000D03*
X153475000Y-63775000D03*
%TD*%
D16*
%TO.C,U4*%
X164990000Y-39302500D03*
D13*
X164990000Y-41842500D03*
X164990000Y-44382500D03*
X164990000Y-46922500D03*
X172610000Y-46922500D03*
X172610000Y-44382500D03*
X172610000Y-41842500D03*
X172610000Y-39302500D03*
%TD*%
D20*
%TO.C,C19*%
X130750000Y-36562500D03*
D13*
X130750000Y-34562500D03*
%TD*%
%TO.C,C14*%
X184900000Y-54150000D03*
X184900000Y-59150000D03*
%TD*%
D16*
%TO.C,U2*%
X118950000Y-39962500D03*
D13*
X118950000Y-42502500D03*
X118950000Y-45042500D03*
X118950000Y-47582500D03*
X126570000Y-47582500D03*
X126570000Y-45042500D03*
X126570000Y-42502500D03*
X126570000Y-39962500D03*
%TD*%
%TO.C,C10*%
X124100000Y-58800000D03*
X119100000Y-58800000D03*
%TD*%
%TO.C,C6*%
X116600000Y-62700000D03*
X116600000Y-67700000D03*
%TD*%
%TO.C,C11*%
X159750000Y-62450000D03*
X159750000Y-67450000D03*
%TD*%
D12*
%TO.C,H7*%
X186750000Y-69460552D03*
%TD*%
D13*
%TO.C,C15*%
X174304980Y-59175000D03*
X174304980Y-54175000D03*
%TD*%
%TO.C,C9*%
X168450000Y-62600000D03*
X168450000Y-67600000D03*
%TD*%
D21*
%TO.C,R2*%
X143700000Y-56650000D03*
X143700000Y-59750000D03*
%TD*%
D22*
%TO.C,R16*%
X115150000Y-45062500D03*
X112050000Y-45062500D03*
%TD*%
D23*
%TO.C,C23*%
X146300000Y-43900000D03*
X146300000Y-47025000D03*
%TD*%
D21*
%TO.C,R24*%
X176200000Y-41512500D03*
X176200000Y-44612500D03*
%TD*%
D24*
%TO.C,R3*%
X127050000Y-59900000D03*
X127050000Y-56800000D03*
%TD*%
%TO.C,R4*%
X154700000Y-58800000D03*
X154700000Y-55700000D03*
%TD*%
D25*
%TO.C,C26*%
X123250000Y-40012500D03*
X123250000Y-36887500D03*
%TD*%
D21*
%TO.C,R5*%
X168500000Y-56750000D03*
X168500000Y-59850000D03*
%TD*%
D26*
%TO.C,R15*%
X130750000Y-40462500D03*
X133850000Y-40462500D03*
%TD*%
D23*
%TO.C,C27*%
X122750000Y-43462500D03*
X122750000Y-46587500D03*
%TD*%
D21*
%TO.C,R20*%
X153300000Y-40450000D03*
X153300000Y-43550000D03*
%TD*%
D23*
%TO.C,C25*%
X168850000Y-45637500D03*
X168850000Y-48762500D03*
%TD*%
D27*
%TO.C,C20*%
X115150000Y-41512500D03*
X112025000Y-41512500D03*
%TD*%
D25*
%TO.C,C18*%
X134850000Y-37487500D03*
X134850000Y-34362500D03*
%TD*%
%TO.C,C22*%
X146300000Y-39337500D03*
X146300000Y-36212500D03*
%TD*%
D22*
%TO.C,R12*%
X175050000Y-51450000D03*
X171950000Y-51450000D03*
%TD*%
D26*
%TO.C,R13*%
X117400000Y-36362500D03*
X120500000Y-36362500D03*
%TD*%
D21*
%TO.C,R23*%
X161150000Y-39062500D03*
X161150000Y-42162500D03*
%TD*%
%TO.C,R1*%
X116050000Y-56950000D03*
X116050000Y-60050000D03*
%TD*%
%LPD*%
M02*
