M48
; DRILL file KiCad 10.0.1 date 2026-06-05T16:19:38
; FORMAT={-:-/ absolute / metric / decimal}
; #@! TF.CreationDate,2026-06-05T16:19:38+09:00
; #@! TF.GenerationSoftware,Kicad,Pcbnew,10.0.1
; #@! TF.FileFunction,MixedPlating,1,2
FMAT,2
METRIC
; #@! TA.AperFunction,Plated,PTH,ViaDrill
T1C0.300
; #@! TA.AperFunction,Plated,PTH,ComponentDrill
T2C0.800
; #@! TA.AperFunction,Plated,PTH,ComponentDrill
T3C1.000
; #@! TA.AperFunction,Plated,PTH,ComponentDrill
T4C1.300
; #@! TA.AperFunction,NonPlated,NPTH,ComponentDrill
T5C3.200
%
G90
G05
T1
X114.165Y-52.125
X130.656Y-58.575
X134.755Y-47.65
X134.756Y-49.55
X137.273Y-49.317
X138.468Y-48.122
X141.215Y-51.275
X147.475Y-47.08
X148.945Y-48.55
X152.69Y-48.55
X152.715Y-50.35
X154.075Y-29.09
X157.09Y-58.4
X162.79Y-52.25
X163.985Y-47.2
X163.99Y-50.675
X178.64Y-47.3
X178.645Y-49.73
X179.552Y-30.188
X181.735Y-35.635
X183.787Y-42.392
T2
X114.106Y-60.65
X114.106Y-65.65
X119.231Y-61.275
X124.231Y-61.275
X127.856Y-61.225
X130.656Y-64.825
X130.656Y-69.825
X132.856Y-61.225
X141.215Y-59.025
X141.215Y-64.025
X142.03Y-35.99
X142.03Y-38.53
X142.03Y-41.07
X142.03Y-43.61
X146.015Y-62.7
X149.65Y-35.99
X149.65Y-38.53
X149.65Y-41.07
X149.65Y-43.61
X151.015Y-62.7
X154.565Y-60.575
X157.065Y-64.95
X157.065Y-69.95
X159.565Y-60.575
X165.97Y-60.3
X165.97Y-65.3
X170.095Y-35.635
X170.095Y-38.175
X170.095Y-40.715
X170.095Y-43.255
X171.795Y-57.9
X171.795Y-62.9
X177.382Y-57.9
X177.382Y-62.9
X177.715Y-35.635
X177.715Y-38.175
X177.715Y-40.715
X177.715Y-43.255
X182.97Y-57.9
X182.97Y-62.9
T3
X120.331Y-67.5
X120.331Y-70.0
X122.831Y-67.5
X122.831Y-70.0
X125.331Y-67.5
X125.331Y-70.0
X145.965Y-67.5
X145.965Y-70.0
X148.465Y-67.5
X148.465Y-70.0
X150.965Y-67.5
X150.965Y-70.0
X171.47Y-67.5
X171.47Y-70.0
X173.97Y-67.5
X173.97Y-70.0
X176.47Y-67.5
X176.47Y-70.0
T4
X121.41Y-27.275
X126.49Y-27.275
X137.655Y-26.45
X142.735Y-26.45
X147.815Y-26.45
X162.46Y-26.425
X167.54Y-26.425
X172.62Y-26.425
T5
X112.414Y-23.475
X112.448Y-73.105
X184.575Y-23.455
X184.595Y-73.16
M30
