%TF.GenerationSoftware,KiCad,Pcbnew,10.0.1*%
%TF.CreationDate,2026-07-08T01:24:15+09:00*%
%TF.ProjectId,AudioCase_2_rv_panel,41756469-6f43-4617-9365-5f325f72765f,rev?*%
%TF.SameCoordinates,Original*%
%TF.FileFunction,Soldermask,Top*%
%TF.FilePolarity,Negative*%
%FSLAX46Y46*%
G04 Gerber Fmt 4.6, Leading zero omitted, Abs format (unit mm)*
G04 Created by KiCad (PCBNEW 10.0.1) date 2026-07-08 01:24:15*
%MOMM*%
%LPD*%
G01*
G04 APERTURE LIST*
G04 Aperture macros list*
%AMRoundRect*
0 Rectangle with rounded corners*
0 $1 Rounding radius*
0 $2 $3 $4 $5 $6 $7 $8 $9 X,Y pos of 4 corners*
0 Add a 4 corners polygon primitive as box body*
4,1,4,$2,$3,$4,$5,$6,$7,$8,$9,$2,$3,0*
0 Add four circle primitives for the rounded corners*
1,1,$1+$1,$2,$3*
1,1,$1+$1,$4,$5*
1,1,$1+$1,$6,$7*
1,1,$1+$1,$8,$9*
0 Add four rect primitives between the rounded corners*
20,1,$1+$1,$2,$3,$4,$5,0*
20,1,$1+$1,$4,$5,$6,$7,0*
20,1,$1+$1,$6,$7,$8,$9,0*
20,1,$1+$1,$8,$9,$2,$3,0*%
G04 Aperture macros list end*
%ADD10C,1.600000*%
%ADD11RoundRect,0.250000X1.050000X1.050000X-1.050000X1.050000X-1.050000X-1.050000X1.050000X-1.050000X0*%
%ADD12C,2.600000*%
%ADD13RoundRect,0.250000X-0.400000X-0.625000X0.400000X-0.625000X0.400000X0.625000X-0.400000X0.625000X0*%
%ADD14RoundRect,0.250000X0.400000X0.625000X-0.400000X0.625000X-0.400000X-0.625000X0.400000X-0.625000X0*%
%ADD15C,3.200000*%
%ADD16RoundRect,0.250000X0.550000X0.550000X-0.550000X0.550000X-0.550000X-0.550000X0.550000X-0.550000X0*%
%ADD17RoundRect,0.250000X-0.550000X-0.550000X0.550000X-0.550000X0.550000X0.550000X-0.550000X0.550000X0*%
%ADD18RoundRect,0.250000X-0.625000X0.400000X-0.625000X-0.400000X0.625000X-0.400000X0.625000X0.400000X0*%
%ADD19RoundRect,0.450000X-0.450000X0.450000X-0.450000X-0.450000X0.450000X-0.450000X0.450000X0.450000X0*%
%ADD20C,1.800000*%
%ADD21RoundRect,0.250000X-0.412500X-0.650000X0.412500X-0.650000X0.412500X0.650000X-0.412500X0.650000X0*%
%ADD22RoundRect,0.250000X0.550000X-0.550000X0.550000X0.550000X-0.550000X0.550000X-0.550000X-0.550000X0*%
%ADD23RoundRect,0.250000X0.625000X-0.400000X0.625000X0.400000X-0.625000X0.400000X-0.625000X-0.400000X0*%
G04 APERTURE END LIST*
D10*
%TO.C,C9*%
X168450000Y-62600000D03*
X168450000Y-67600000D03*
%TD*%
%TO.C,C14*%
X184900000Y-54150000D03*
X184900000Y-59150000D03*
%TD*%
D11*
%TO.C,J6*%
X124600000Y-27950000D03*
D12*
X119520000Y-27950000D03*
%TD*%
D11*
%TO.C,J8*%
X175030000Y-26662500D03*
D12*
X169950000Y-26662500D03*
X164870000Y-26662500D03*
%TD*%
D13*
%TO.C,R6*%
X119750000Y-54400000D03*
X122850000Y-54400000D03*
%TD*%
%TO.C,R7*%
X146700000Y-55800000D03*
X149800000Y-55800000D03*
%TD*%
D14*
%TO.C,R17*%
X117000000Y-51650000D03*
X113900000Y-51650000D03*
%TD*%
D15*
%TO.C,H8*%
X110450000Y-69400000D03*
%TD*%
D16*
%TO.C,C21*%
X114150000Y-36450000D03*
D10*
X112150000Y-36450000D03*
%TD*%
D15*
%TO.C,H5*%
X110350000Y-23761205D03*
%TD*%
D10*
%TO.C,C10*%
X124100000Y-58800000D03*
X119100000Y-58800000D03*
%TD*%
D14*
%TO.C,R10*%
X184850000Y-50600000D03*
X181750000Y-50600000D03*
%TD*%
D17*
%TO.C,U3*%
X142490000Y-39352500D03*
D10*
X142490000Y-41892500D03*
X142490000Y-44432500D03*
X142490000Y-46972500D03*
X150110000Y-46972500D03*
X150110000Y-44432500D03*
X150110000Y-41892500D03*
X150110000Y-39352500D03*
%TD*%
D18*
%TO.C,R14*%
X130350000Y-43912500D03*
X130350000Y-47012500D03*
%TD*%
D14*
%TO.C,R21*%
X159200000Y-40612500D03*
X156100000Y-40612500D03*
%TD*%
D19*
%TO.C,RV3*%
X173979980Y-66275000D03*
D20*
X176479980Y-66275000D03*
X178979980Y-66275000D03*
X173979980Y-63775000D03*
X176479980Y-63775000D03*
X178979980Y-63775000D03*
%TD*%
D15*
%TO.C,H6*%
X186750000Y-23450000D03*
%TD*%
D21*
%TO.C,C24*%
X175587500Y-39312500D03*
X178712500Y-39312500D03*
%TD*%
D10*
%TO.C,C11*%
X159750000Y-62450000D03*
X159750000Y-67450000D03*
%TD*%
D13*
%TO.C,R8*%
X130300000Y-54350000D03*
X133400000Y-54350000D03*
%TD*%
D22*
%TO.C,C19*%
X130750000Y-36562500D03*
D10*
X130750000Y-34562500D03*
%TD*%
%TO.C,C12*%
X151650000Y-59150000D03*
X146650000Y-59150000D03*
%TD*%
%TO.C,C17*%
X179750000Y-54150000D03*
X179750000Y-59150000D03*
%TD*%
D14*
%TO.C,R11*%
X169900000Y-54000000D03*
X166800000Y-54000000D03*
%TD*%
%TO.C,R22*%
X159200000Y-44112500D03*
X156100000Y-44112500D03*
%TD*%
D17*
%TO.C,U2*%
X118950000Y-39962500D03*
D10*
X118950000Y-42502500D03*
X118950000Y-45042500D03*
X118950000Y-47582500D03*
X126570000Y-47582500D03*
X126570000Y-45042500D03*
X126570000Y-42502500D03*
X126570000Y-39962500D03*
%TD*%
%TO.C,C13*%
X135250000Y-58700000D03*
X130250000Y-58700000D03*
%TD*%
D23*
%TO.C,R18*%
X135300000Y-46962500D03*
X135300000Y-43862500D03*
%TD*%
D19*
%TO.C,RV2*%
X148475000Y-66275000D03*
D20*
X150975000Y-66275000D03*
X153475000Y-66275000D03*
X148475000Y-63775000D03*
X150975000Y-63775000D03*
X153475000Y-63775000D03*
%TD*%
D17*
%TO.C,U4*%
X164990000Y-39302500D03*
D10*
X164990000Y-41842500D03*
X164990000Y-44382500D03*
X164990000Y-46922500D03*
X172610000Y-46922500D03*
X172610000Y-44382500D03*
X172610000Y-41842500D03*
X172610000Y-39302500D03*
%TD*%
%TO.C,C16*%
X157550000Y-58950000D03*
X162550000Y-58950000D03*
%TD*%
%TO.C,C7*%
X143750000Y-62650000D03*
X143750000Y-67650000D03*
%TD*%
D18*
%TO.C,R19*%
X139000000Y-38500000D03*
X139000000Y-41600000D03*
%TD*%
D10*
%TO.C,C15*%
X174304980Y-59175000D03*
X174304980Y-54175000D03*
%TD*%
D15*
%TO.C,H7*%
X186750000Y-69460552D03*
%TD*%
D19*
%TO.C,RV1*%
X122840811Y-66275000D03*
D20*
X125340811Y-66275000D03*
X127840811Y-66275000D03*
X122840811Y-63775000D03*
X125340811Y-63775000D03*
X127840811Y-63775000D03*
%TD*%
D13*
%TO.C,R9*%
X157550000Y-55500000D03*
X160650000Y-55500000D03*
%TD*%
D11*
%TO.C,J7*%
X150225000Y-26687500D03*
D12*
X145145000Y-26687500D03*
X140065000Y-26687500D03*
%TD*%
D10*
%TO.C,C6*%
X116600000Y-62700000D03*
X116600000Y-67700000D03*
%TD*%
%TO.C,C8*%
X133950000Y-62750000D03*
X133950000Y-67750000D03*
%TD*%
M02*
