%TF.GenerationSoftware,KiCad,Pcbnew,10.0.1*%
%TF.CreationDate,2026-06-05T16:19:37+09:00*%
%TF.ProjectId,AudioCase_2_rv_panel,41756469-6f43-4617-9365-5f325f72765f,rev?*%
%TF.SameCoordinates,Original*%
%TF.FileFunction,Soldermask,Top*%
%TF.FilePolarity,Negative*%
%FSLAX46Y46*%
G04 Gerber Fmt 4.6, Leading zero omitted, Abs format (unit mm)*
G04 Created by KiCad (PCBNEW 10.0.1) date 2026-06-05 16:19:37*
%MOMM*%
%LPD*%
G01*
G04 APERTURE LIST*
G04 Aperture macros list*
%AMRoundRect*
0 Rectangle with rounded corners*
0 $1 Rounding radius*
0 $2 $3 $4 $5 $6 $7 $8 $9 X,Y pos of 4 corners*
0 Add a 4 corners polygon primitive as box body*
4,1,4,$2,$3,$4,$5,$6,$7,$8,$9,$2,$3,0*
0 Add four circle primitives for the rounded corners*
1,1,$1+$1,$2,$3*
1,1,$1+$1,$4,$5*
1,1,$1+$1,$6,$7*
1,1,$1+$1,$8,$9*
0 Add four rect primitives between the rounded corners*
20,1,$1+$1,$2,$3,$4,$5,0*
20,1,$1+$1,$4,$5,$6,$7,0*
20,1,$1+$1,$6,$7,$8,$9,0*
20,1,$1+$1,$8,$9,$2,$3,0*%
G04 Aperture macros list end*
%ADD10RoundRect,0.250000X-0.625000X0.400000X-0.625000X-0.400000X0.625000X-0.400000X0.625000X0.400000X0*%
%ADD11C,1.600000*%
%ADD12RoundRect,0.250000X0.412500X0.650000X-0.412500X0.650000X-0.412500X-0.650000X0.412500X-0.650000X0*%
%ADD13RoundRect,0.450000X-0.450000X0.450000X-0.450000X-0.450000X0.450000X-0.450000X0.450000X0.450000X0*%
%ADD14C,1.800000*%
%ADD15RoundRect,0.250000X0.625000X-0.400000X0.625000X0.400000X-0.625000X0.400000X-0.625000X-0.400000X0*%
%ADD16RoundRect,0.250000X0.650000X-0.412500X0.650000X0.412500X-0.650000X0.412500X-0.650000X-0.412500X0*%
%ADD17RoundRect,0.250000X-0.550000X-0.550000X0.550000X-0.550000X0.550000X0.550000X-0.550000X0.550000X0*%
%ADD18C,3.200000*%
%ADD19RoundRect,0.250000X1.050000X1.050000X-1.050000X1.050000X-1.050000X-1.050000X1.050000X-1.050000X0*%
%ADD20C,2.600000*%
%ADD21RoundRect,0.250000X0.400000X0.625000X-0.400000X0.625000X-0.400000X-0.625000X0.400000X-0.625000X0*%
G04 APERTURE END LIST*
D10*
%TO.C,R1*%
X114105811Y-54150000D03*
X114105811Y-57250000D03*
%TD*%
D11*
%TO.C,C14*%
X182969980Y-57900000D03*
X182969980Y-62900000D03*
%TD*%
D12*
%TO.C,C21*%
X183787500Y-45040000D03*
X180662500Y-45040000D03*
%TD*%
D13*
%TO.C,RV2*%
X145965000Y-70000000D03*
D14*
X148465000Y-70000000D03*
X150965000Y-70000000D03*
X145965000Y-67500000D03*
X148465000Y-67500000D03*
X150965000Y-67500000D03*
%TD*%
D10*
%TO.C,R18*%
X181790000Y-37575000D03*
X181790000Y-40675000D03*
%TD*%
D15*
%TO.C,R6*%
X155790000Y-56475000D03*
X155790000Y-53375000D03*
%TD*%
D10*
%TO.C,R4*%
X165969980Y-52275000D03*
X165969980Y-55375000D03*
%TD*%
D15*
%TO.C,R5*%
X119130811Y-57325000D03*
X119130811Y-54225000D03*
%TD*%
D16*
%TO.C,C18*%
X154075000Y-34192500D03*
X154075000Y-31067500D03*
%TD*%
D15*
%TO.C,R9*%
X171769980Y-54700000D03*
X171769980Y-51600000D03*
%TD*%
D13*
%TO.C,RV3*%
X171469980Y-70000000D03*
D14*
X173969980Y-70000000D03*
X176469980Y-70000000D03*
X171469980Y-67500000D03*
X173969980Y-67500000D03*
X176469980Y-67500000D03*
%TD*%
D13*
%TO.C,RV1*%
X120330811Y-70000000D03*
D14*
X122830811Y-70000000D03*
X125330811Y-70000000D03*
X120330811Y-67500000D03*
X122830811Y-67500000D03*
X125330811Y-67500000D03*
%TD*%
D15*
%TO.C,R10*%
X134680811Y-56750000D03*
X134680811Y-53650000D03*
%TD*%
%TO.C,R3*%
X130680811Y-56725000D03*
X130680811Y-53625000D03*
%TD*%
%TO.C,R11*%
X159540000Y-56525000D03*
X159540000Y-53425000D03*
%TD*%
D17*
%TO.C,U3*%
X170095000Y-35635000D03*
D11*
X170095000Y-38175000D03*
X170095000Y-40715000D03*
X170095000Y-43255000D03*
X177715000Y-43255000D03*
X177715000Y-40715000D03*
X177715000Y-38175000D03*
X177715000Y-35635000D03*
%TD*%
D17*
%TO.C,U2*%
X142030000Y-35990000D03*
D11*
X142030000Y-38530000D03*
X142030000Y-41070000D03*
X142030000Y-43610000D03*
X149650000Y-43610000D03*
X149650000Y-41070000D03*
X149650000Y-38530000D03*
X149650000Y-35990000D03*
%TD*%
D15*
%TO.C,R7*%
X146040000Y-56175000D03*
X146040000Y-53075000D03*
%TD*%
D11*
%TO.C,C16*%
X177382480Y-62900000D03*
X177382480Y-57900000D03*
%TD*%
D10*
%TO.C,R14*%
X153990000Y-38575000D03*
X153990000Y-41675000D03*
%TD*%
D11*
%TO.C,C11*%
X132855811Y-61225000D03*
X127855811Y-61225000D03*
%TD*%
D15*
%TO.C,R8*%
X182969980Y-54600000D03*
X182969980Y-51500000D03*
%TD*%
D11*
%TO.C,C15*%
X151015000Y-62700000D03*
X146015000Y-62700000D03*
%TD*%
D15*
%TO.C,R12*%
X178644980Y-54675000D03*
X178644980Y-51575000D03*
%TD*%
D18*
%TO.C,H8*%
X112447569Y-73104748D03*
%TD*%
D19*
%TO.C,J8*%
X172620000Y-26425000D03*
D20*
X167540000Y-26425000D03*
X162460000Y-26425000D03*
%TD*%
D11*
%TO.C,C9*%
X165969980Y-60300000D03*
X165969980Y-65300000D03*
%TD*%
%TO.C,C10*%
X157065000Y-64950000D03*
X157065000Y-69950000D03*
%TD*%
%TO.C,C8*%
X130655811Y-64825000D03*
X130655811Y-69825000D03*
%TD*%
D10*
%TO.C,R13*%
X138465000Y-35500000D03*
X138465000Y-38600000D03*
%TD*%
%TO.C,R2*%
X141265000Y-53125000D03*
X141265000Y-56225000D03*
%TD*%
D18*
%TO.C,H7*%
X184595268Y-73160276D03*
%TD*%
D11*
%TO.C,C17*%
X171794980Y-62900000D03*
X171794980Y-57900000D03*
%TD*%
%TO.C,C13*%
X159565000Y-60575000D03*
X154565000Y-60575000D03*
%TD*%
D18*
%TO.C,H5*%
X112413566Y-23475000D03*
%TD*%
D19*
%TO.C,J6*%
X126490000Y-27275000D03*
D20*
X121410000Y-27275000D03*
%TD*%
D21*
%TO.C,R15*%
X162765000Y-36175000D03*
X159665000Y-36175000D03*
%TD*%
D16*
%TO.C,C20*%
X181675000Y-33312500D03*
X181675000Y-30187500D03*
%TD*%
D19*
%TO.C,J7*%
X147815000Y-26450000D03*
D20*
X142735000Y-26450000D03*
X137655000Y-26450000D03*
%TD*%
D18*
%TO.C,H6*%
X184575000Y-23454748D03*
%TD*%
D11*
%TO.C,C7*%
X141215000Y-59025000D03*
X141215000Y-64025000D03*
%TD*%
%TO.C,C12*%
X124230811Y-61275000D03*
X119230811Y-61275000D03*
%TD*%
%TO.C,C6*%
X114105811Y-60650000D03*
X114105811Y-65650000D03*
%TD*%
D21*
%TO.C,R16*%
X162840000Y-41100000D03*
X159740000Y-41100000D03*
%TD*%
M02*
