%TF.GenerationSoftware,KiCad,Pcbnew,10.0.1*%
%TF.CreationDate,2026-06-05T02:22:01+09:00*%
%TF.ProjectId,AudioCase_2_rv_panel,41756469-6f43-4617-9365-5f325f72765f,rev?*%
%TF.SameCoordinates,Original*%
%TF.FileFunction,Legend,Bot*%
%TF.FilePolarity,Positive*%
%FSLAX46Y46*%
G04 Gerber Fmt 4.6, Leading zero omitted, Abs format (unit mm)*
G04 Created by KiCad (PCBNEW 10.0.1) date 2026-06-05 02:22:01*
%MOMM*%
%LPD*%
G01*
G04 APERTURE LIST*
G04 Aperture macros list*
%AMRoundRect*
0 Rectangle with rounded corners*
0 $1 Rounding radius*
0 $2 $3 $4 $5 $6 $7 $8 $9 X,Y pos of 4 corners*
0 Add a 4 corners polygon primitive as box body*
4,1,4,$2,$3,$4,$5,$6,$7,$8,$9,$2,$3,0*
0 Add four circle primitives for the rounded corners*
1,1,$1+$1,$2,$3*
1,1,$1+$1,$4,$5*
1,1,$1+$1,$6,$7*
1,1,$1+$1,$8,$9*
0 Add four rect primitives between the rounded corners*
20,1,$1+$1,$2,$3,$4,$5,0*
20,1,$1+$1,$4,$5,$6,$7,0*
20,1,$1+$1,$6,$7,$8,$9,0*
20,1,$1+$1,$8,$9,$2,$3,0*%
G04 Aperture macros list end*
%ADD10C,0.150000*%
%ADD11C,0.120000*%
%ADD12C,1.600000*%
%ADD13RoundRect,0.250000X1.050000X1.050000X-1.050000X1.050000X-1.050000X-1.050000X1.050000X-1.050000X0*%
%ADD14C,2.600000*%
%ADD15C,3.200000*%
%ADD16RoundRect,0.450000X-0.450000X0.450000X-0.450000X-0.450000X0.450000X-0.450000X0.450000X0.450000X0*%
%ADD17C,1.800000*%
%ADD18RoundRect,0.250000X-0.550000X-0.550000X0.550000X-0.550000X0.550000X0.550000X-0.550000X0.550000X0*%
%ADD19RoundRect,0.250000X-0.650000X0.412500X-0.650000X-0.412500X0.650000X-0.412500X0.650000X0.412500X0*%
%ADD20RoundRect,0.250000X-0.625000X0.400000X-0.625000X-0.400000X0.625000X-0.400000X0.625000X0.400000X0*%
G04 APERTURE END LIST*
D10*
X144149580Y-39617142D02*
X144197200Y-39569523D01*
X144197200Y-39569523D02*
X144244819Y-39426666D01*
X144244819Y-39426666D02*
X144244819Y-39331428D01*
X144244819Y-39331428D02*
X144197200Y-39188571D01*
X144197200Y-39188571D02*
X144101961Y-39093333D01*
X144101961Y-39093333D02*
X144006723Y-39045714D01*
X144006723Y-39045714D02*
X143816247Y-38998095D01*
X143816247Y-38998095D02*
X143673390Y-38998095D01*
X143673390Y-38998095D02*
X143482914Y-39045714D01*
X143482914Y-39045714D02*
X143387676Y-39093333D01*
X143387676Y-39093333D02*
X143292438Y-39188571D01*
X143292438Y-39188571D02*
X143244819Y-39331428D01*
X143244819Y-39331428D02*
X143244819Y-39426666D01*
X143244819Y-39426666D02*
X143292438Y-39569523D01*
X143292438Y-39569523D02*
X143340057Y-39617142D01*
X144244819Y-40569523D02*
X144244819Y-39998095D01*
X144244819Y-40283809D02*
X143244819Y-40283809D01*
X143244819Y-40283809D02*
X143387676Y-40188571D01*
X143387676Y-40188571D02*
X143482914Y-40093333D01*
X143482914Y-40093333D02*
X143530533Y-39998095D01*
X144244819Y-41045714D02*
X144244819Y-41236190D01*
X144244819Y-41236190D02*
X144197200Y-41331428D01*
X144197200Y-41331428D02*
X144149580Y-41379047D01*
X144149580Y-41379047D02*
X144006723Y-41474285D01*
X144006723Y-41474285D02*
X143816247Y-41521904D01*
X143816247Y-41521904D02*
X143435295Y-41521904D01*
X143435295Y-41521904D02*
X143340057Y-41474285D01*
X143340057Y-41474285D02*
X143292438Y-41426666D01*
X143292438Y-41426666D02*
X143244819Y-41331428D01*
X143244819Y-41331428D02*
X143244819Y-41140952D01*
X143244819Y-41140952D02*
X143292438Y-41045714D01*
X143292438Y-41045714D02*
X143340057Y-40998095D01*
X143340057Y-40998095D02*
X143435295Y-40950476D01*
X143435295Y-40950476D02*
X143673390Y-40950476D01*
X143673390Y-40950476D02*
X143768628Y-40998095D01*
X143768628Y-40998095D02*
X143816247Y-41045714D01*
X143816247Y-41045714D02*
X143863866Y-41140952D01*
X143863866Y-41140952D02*
X143863866Y-41331428D01*
X143863866Y-41331428D02*
X143816247Y-41426666D01*
X143816247Y-41426666D02*
X143768628Y-41474285D01*
X143768628Y-41474285D02*
X143673390Y-41521904D01*
X172514819Y-37507142D02*
X172038628Y-37173809D01*
X172514819Y-36935714D02*
X171514819Y-36935714D01*
X171514819Y-36935714D02*
X171514819Y-37316666D01*
X171514819Y-37316666D02*
X171562438Y-37411904D01*
X171562438Y-37411904D02*
X171610057Y-37459523D01*
X171610057Y-37459523D02*
X171705295Y-37507142D01*
X171705295Y-37507142D02*
X171848152Y-37507142D01*
X171848152Y-37507142D02*
X171943390Y-37459523D01*
X171943390Y-37459523D02*
X171991009Y-37411904D01*
X171991009Y-37411904D02*
X172038628Y-37316666D01*
X172038628Y-37316666D02*
X172038628Y-36935714D01*
X172514819Y-38459523D02*
X172514819Y-37888095D01*
X172514819Y-38173809D02*
X171514819Y-38173809D01*
X171514819Y-38173809D02*
X171657676Y-38078571D01*
X171657676Y-38078571D02*
X171752914Y-37983333D01*
X171752914Y-37983333D02*
X171800533Y-37888095D01*
X171514819Y-38792857D02*
X171514819Y-39459523D01*
X171514819Y-39459523D02*
X172514819Y-39030952D01*
%TO.C,C19*%
D11*
X144730000Y-39548748D02*
X144730000Y-40971252D01*
X146550000Y-39548748D02*
X146550000Y-40971252D01*
%TO.C,R17*%
X172980000Y-37422936D02*
X172980000Y-38877064D01*
X174800000Y-37422936D02*
X174800000Y-38877064D01*
%TD*%
%LPC*%
D12*
%TO.C,C17*%
X171669980Y-62900000D03*
X171669980Y-57900000D03*
%TD*%
%TO.C,C6*%
X113980811Y-60650000D03*
X113980811Y-65650000D03*
%TD*%
%TO.C,C10*%
X156940000Y-64950000D03*
X156940000Y-69950000D03*
%TD*%
D13*
%TO.C,J7*%
X147690000Y-26450000D03*
D14*
X142610000Y-26450000D03*
X137530000Y-26450000D03*
%TD*%
D15*
%TO.C,H6*%
X184450000Y-23454748D03*
%TD*%
D12*
%TO.C,C12*%
X124105811Y-61275000D03*
X119105811Y-61275000D03*
%TD*%
%TO.C,C7*%
X141090000Y-59025000D03*
X141090000Y-64025000D03*
%TD*%
D16*
%TO.C,RV3*%
X171344980Y-70000000D03*
D17*
X173844980Y-70000000D03*
X176344980Y-70000000D03*
X171344980Y-67500000D03*
X173844980Y-67500000D03*
X176344980Y-67500000D03*
%TD*%
D12*
%TO.C,C14*%
X182844980Y-57900000D03*
X182844980Y-62900000D03*
%TD*%
%TO.C,C9*%
X165844980Y-60300000D03*
X165844980Y-65300000D03*
%TD*%
D15*
%TO.C,H8*%
X112060000Y-73104748D03*
%TD*%
%TO.C,H7*%
X184470268Y-73160276D03*
%TD*%
%TO.C,H5*%
X112046029Y-23420000D03*
%TD*%
D13*
%TO.C,J6*%
X126760000Y-26580000D03*
D14*
X121680000Y-26580000D03*
%TD*%
D13*
%TO.C,J8*%
X172520000Y-26200000D03*
D14*
X167440000Y-26200000D03*
X162360000Y-26200000D03*
%TD*%
D18*
%TO.C,U3*%
X169970000Y-35635000D03*
D12*
X169970000Y-38175000D03*
X169970000Y-40715000D03*
X169970000Y-43255000D03*
X177590000Y-43255000D03*
X177590000Y-40715000D03*
X177590000Y-38175000D03*
X177590000Y-35635000D03*
%TD*%
%TO.C,C16*%
X177257480Y-62900000D03*
X177257480Y-57900000D03*
%TD*%
%TO.C,C11*%
X132730811Y-61225000D03*
X127730811Y-61225000D03*
%TD*%
D16*
%TO.C,RV1*%
X120205811Y-70000000D03*
D17*
X122705811Y-70000000D03*
X125205811Y-70000000D03*
X120205811Y-67500000D03*
X122705811Y-67500000D03*
X125205811Y-67500000D03*
%TD*%
D12*
%TO.C,C13*%
X159440000Y-60575000D03*
X154440000Y-60575000D03*
%TD*%
D16*
%TO.C,RV2*%
X145840000Y-70000000D03*
D17*
X148340000Y-70000000D03*
X150840000Y-70000000D03*
X145840000Y-67500000D03*
X148340000Y-67500000D03*
X150840000Y-67500000D03*
%TD*%
D12*
%TO.C,C15*%
X150890000Y-62700000D03*
X145890000Y-62700000D03*
%TD*%
D18*
%TO.C,U2*%
X141905000Y-35990000D03*
D12*
X141905000Y-38530000D03*
X141905000Y-41070000D03*
X141905000Y-43610000D03*
X149525000Y-43610000D03*
X149525000Y-41070000D03*
X149525000Y-38530000D03*
X149525000Y-35990000D03*
%TD*%
%TO.C,C8*%
X130530811Y-64825000D03*
X130530811Y-69825000D03*
%TD*%
D19*
%TO.C,C19*%
X145640000Y-38697500D03*
X145640000Y-41822500D03*
%TD*%
D20*
%TO.C,R17*%
X173890000Y-36600000D03*
X173890000Y-39700000D03*
%TD*%
%LPD*%
M02*
