M48
; DRILL file KiCad 10.0.1 date 2026-06-05T02:16:13
; FORMAT={-:-/ absolute / metric / decimal}
; #@! TF.CreationDate,2026-06-05T02:16:13+09:00
; #@! TF.GenerationSoftware,Kicad,Pcbnew,10.0.1
; #@! TF.FileFunction,MixedPlating,1,2
FMAT,2
METRIC
; #@! TA.AperFunction,Plated,PTH,ViaDrill
T1C0.300
; #@! TA.AperFunction,Plated,PTH,ComponentDrill
T2C0.800
; #@! TA.AperFunction,Plated,PTH,ComponentDrill
T3C1.000
; #@! TA.AperFunction,Plated,PTH,ComponentDrill
T4C1.300
; #@! TA.AperFunction,NonPlated,NPTH,ComponentDrill
T5C3.200
%
G90
G05
T1
X114.04Y-52.125
X130.531Y-58.575
X134.63Y-47.65
X134.631Y-49.55
X137.148Y-49.317
X138.343Y-48.122
X141.09Y-51.275
X147.35Y-47.08
X148.82Y-48.55
X152.565Y-48.55
X152.59Y-50.35
X153.95Y-29.09
X156.965Y-58.4
X162.665Y-52.25
X163.86Y-47.2
X163.865Y-50.675
X178.515Y-47.3
X178.52Y-49.73
X179.427Y-30.188
X181.61Y-35.635
X183.662Y-42.392
T2
X113.981Y-60.65
X113.981Y-65.65
X119.106Y-61.275
X124.106Y-61.275
X127.731Y-61.225
X130.531Y-64.825
X130.531Y-69.825
X132.731Y-61.225
X141.09Y-59.025
X141.09Y-64.025
X141.905Y-35.99
X141.905Y-38.53
X141.905Y-41.07
X141.905Y-43.61
X145.89Y-62.7
X149.525Y-35.99
X149.525Y-38.53
X149.525Y-41.07
X149.525Y-43.61
X150.89Y-62.7
X154.44Y-60.575
X156.94Y-64.95
X156.94Y-69.95
X159.44Y-60.575
X165.845Y-60.3
X165.845Y-65.3
X169.97Y-35.635
X169.97Y-38.175
X169.97Y-40.715
X169.97Y-43.255
X171.67Y-57.9
X171.67Y-62.9
X177.257Y-57.9
X177.257Y-62.9
X177.59Y-35.635
X177.59Y-38.175
X177.59Y-40.715
X177.59Y-43.255
X182.845Y-57.9
X182.845Y-62.9
T3
X120.206Y-67.5
X120.206Y-70.0
X122.706Y-67.5
X122.706Y-70.0
X125.206Y-67.5
X125.206Y-70.0
X145.84Y-67.5
X145.84Y-70.0
X148.34Y-67.5
X148.34Y-70.0
X150.84Y-67.5
X150.84Y-70.0
X171.345Y-67.5
X171.345Y-70.0
X173.845Y-67.5
X173.845Y-70.0
X176.345Y-67.5
X176.345Y-70.0
T4
X121.68Y-26.58
X126.76Y-26.58
X137.53Y-26.45
X142.61Y-26.45
X147.69Y-26.45
X162.36Y-26.2
X167.44Y-26.2
X172.52Y-26.2
T5
X112.046Y-23.42
X112.06Y-73.105
X184.45Y-23.455
X184.47Y-73.16
M30
