M48
; DRILL file KiCad 10.0.1 date 2026-06-17T20:16:29
; FORMAT={-:-/ absolute / metric / decimal}
; #@! TF.CreationDate,2026-06-17T20:16:29+09:00
; #@! TF.GenerationSoftware,Kicad,Pcbnew,10.0.1
; #@! TF.FileFunction,MixedPlating,1,2
FMAT,2
METRIC
; #@! TA.AperFunction,Plated,PTH,ViaDrill
T1C0.300
; #@! TA.AperFunction,Plated,PTH,ComponentDrill
T2C0.800
; #@! TA.AperFunction,Plated,PTH,ComponentDrill
T3C0.900
; #@! TA.AperFunction,Plated,PTH,ComponentDrill
T4C1.000
; #@! TA.AperFunction,Plated,PTH,ComponentDrill
T5C1.200
; #@! TA.AperFunction,Plated,PTH,ComponentDrill
T6C1.300
; #@! TA.AperFunction,NonPlated,NPTH,ComponentDrill
T7C1.850
; #@! TA.AperFunction,NonPlated,NPTH,ComponentDrill
T8C2.200
; #@! TA.AperFunction,NonPlated,NPTH,ComponentDrill
T9C3.200
%
G90
G05
T1
X82.275Y-52.125
X83.925Y-62.625
X89.125Y-50.3
X89.525Y-39.975
X91.125Y-66.6
X92.575Y-74.275
X93.825Y-49.8
X93.875Y-35.625
X105.575Y-95.775
X107.325Y-34.925
X107.325Y-46.925
X107.825Y-62.6
X109.375Y-34.65
X109.375Y-43.0
X111.425Y-32.775
X111.425Y-48.625
X112.275Y-74.325
X113.775Y-31.275
X117.095Y-65.73
X118.925Y-83.025
X121.725Y-51.775
X122.6Y-105.8
X122.625Y-108.7
X124.025Y-31.625
X125.225Y-50.0
X125.875Y-65.475
X127.825Y-47.4
X128.075Y-33.025
X128.275Y-111.925
X128.575Y-39.275
X128.875Y-60.975
X132.2Y-51.175
X133.165Y-33.015
X136.975Y-31.725
X139.725Y-92.325
X143.875Y-42.9
X144.875Y-66.575
X145.375Y-50.975
X147.675Y-48.575
X148.975Y-32.175
X149.575Y-50.975
X150.175Y-115.875
X150.775Y-48.6
X150.775Y-61.775
X151.825Y-76.05
X152.125Y-34.65
X156.725Y-92.375
X158.125Y-34.65
X158.925Y-30.925
X163.925Y-66.7
X166.325Y-30.35
X167.225Y-33.225
X168.625Y-65.3
X168.725Y-92.925
X170.925Y-42.3
X172.766Y-37.791
X174.325Y-33.225
X177.425Y-112.975
X184.125Y-33.275
X184.225Y-103.925
X186.475Y-68.775
X187.925Y-78.725
X188.125Y-30.4
X189.425Y-52.2
X190.575Y-42.725
X194.725Y-47.8
X205.9Y-50.325
X209.385Y-64.41
X209.385Y-67.475
X209.385Y-69.9
X210.925Y-41.275
T2
X105.045Y-71.05
X105.045Y-78.67
X107.585Y-71.05
X107.585Y-78.67
X110.125Y-71.05
X110.125Y-78.67
X112.665Y-71.05
X112.665Y-78.67
X115.205Y-71.05
X115.205Y-78.67
X117.745Y-71.05
X117.745Y-78.67
X120.285Y-71.05
X120.285Y-78.67
X122.825Y-71.05
X122.825Y-78.67
X125.365Y-71.05
X125.365Y-78.67
X131.585Y-70.99
X131.585Y-78.61
X134.125Y-70.99
X134.125Y-78.61
X136.665Y-70.99
X136.665Y-78.61
X139.205Y-70.99
X139.205Y-78.61
X141.745Y-70.99
X141.745Y-78.61
X144.285Y-70.99
X144.285Y-78.61
X146.825Y-70.99
X146.825Y-78.61
X149.365Y-70.99
X149.365Y-78.61
X151.905Y-70.99
X151.905Y-78.61
X157.385Y-71.105
X157.385Y-78.725
X159.925Y-71.105
X159.925Y-78.725
X162.465Y-71.105
X162.465Y-78.725
X165.005Y-71.105
X165.005Y-78.725
X167.545Y-71.105
X167.545Y-78.725
X170.085Y-71.105
X170.085Y-78.725
X172.625Y-71.105
X172.625Y-78.725
X175.165Y-71.105
X175.165Y-78.725
X177.705Y-71.105
X177.705Y-78.725
X206.875Y-53.775
X206.925Y-60.625
X208.325Y-85.525
X209.275Y-93.175
X209.375Y-53.775
X209.425Y-60.625
X211.775Y-93.175
X211.825Y-85.525
T3
X206.795Y-73.075
X209.335Y-73.075
X211.875Y-73.075
T4
X93.665Y-55.05
X93.665Y-62.67
X93.75Y-39.05
X93.75Y-46.67
X96.205Y-55.05
X96.205Y-62.67
X96.29Y-39.05
X96.29Y-46.67
X98.745Y-55.05
X98.745Y-62.67
X98.83Y-39.05
X98.83Y-46.67
X101.285Y-55.05
X101.285Y-62.67
X101.37Y-39.05
X101.37Y-46.67
X103.825Y-55.05
X103.825Y-62.67
X103.91Y-39.05
X103.91Y-46.67
X114.165Y-55.18
X114.165Y-62.8
X114.325Y-39.05
X114.325Y-46.67
X116.705Y-55.18
X116.705Y-62.8
X116.865Y-39.05
X116.865Y-46.67
X119.245Y-55.18
X119.245Y-62.8
X119.405Y-39.05
X119.405Y-46.67
X121.785Y-55.18
X121.785Y-62.8
X121.945Y-39.05
X121.945Y-46.67
X124.325Y-55.18
X124.325Y-62.8
X124.485Y-39.05
X124.485Y-46.67
X126.945Y-84.91
X126.945Y-102.69
X129.485Y-84.91
X129.485Y-102.69
X132.025Y-84.91
X132.025Y-102.69
X134.565Y-84.91
X134.565Y-102.69
X134.75Y-55.005
X134.75Y-62.625
X134.825Y-39.05
X134.825Y-46.67
X137.105Y-84.91
X137.105Y-102.69
X137.29Y-55.005
X137.29Y-62.625
X137.365Y-39.05
X137.365Y-46.67
X137.705Y-111.825
X139.645Y-84.91
X139.645Y-102.69
X139.83Y-55.005
X139.83Y-62.625
X139.905Y-39.05
X139.905Y-46.67
X140.245Y-111.825
X142.185Y-84.91
X142.185Y-102.69
X142.37Y-55.005
X142.37Y-62.625
X142.445Y-39.05
X142.445Y-46.67
X142.785Y-111.825
X144.725Y-84.91
X144.725Y-102.69
X144.91Y-55.005
X144.91Y-62.625
X144.985Y-39.05
X144.985Y-46.67
X145.325Y-111.825
X147.265Y-84.91
X147.265Y-102.69
X149.805Y-84.91
X149.805Y-102.69
X152.345Y-84.91
X152.345Y-102.69
X154.885Y-84.91
X154.885Y-102.69
X155.205Y-111.8
X155.285Y-39.02
X155.285Y-46.64
X155.355Y-55.0
X155.355Y-62.62
X157.425Y-84.91
X157.425Y-102.69
X157.745Y-111.8
X157.825Y-39.02
X157.825Y-46.64
X157.895Y-55.0
X157.895Y-62.62
X159.965Y-84.91
X159.965Y-102.69
X160.285Y-111.8
X160.365Y-39.02
X160.365Y-46.64
X160.435Y-55.0
X160.435Y-62.62
X162.505Y-84.91
X162.505Y-102.69
X162.825Y-111.8
X162.905Y-39.02
X162.905Y-46.64
X162.975Y-55.0
X162.975Y-62.62
X165.045Y-84.91
X165.045Y-102.69
X165.365Y-111.8
X165.445Y-39.02
X165.445Y-46.64
X165.515Y-55.0
X165.515Y-62.62
X167.585Y-84.91
X167.585Y-102.69
X170.125Y-84.91
X170.125Y-102.69
X172.665Y-84.91
X172.665Y-102.69
X175.205Y-84.91
X175.205Y-102.69
X175.75Y-39.05
X175.75Y-46.67
X175.75Y-55.005
X175.75Y-62.625
X178.29Y-39.05
X178.29Y-46.67
X178.29Y-55.005
X178.29Y-62.625
X180.83Y-39.05
X180.83Y-46.67
X180.83Y-55.005
X180.83Y-62.625
X183.37Y-39.05
X183.37Y-46.67
X183.37Y-55.005
X183.37Y-62.625
X185.91Y-39.05
X185.91Y-46.67
X185.91Y-55.005
X185.91Y-62.625
X206.625Y-103.55
X206.625Y-106.15
T5
X217.439Y-82.466
X217.439Y-95.166
T6
X77.521Y-26.827
X80.325Y-56.55
X80.325Y-61.63
X82.601Y-26.827
X90.162Y-26.827
X95.242Y-26.827
X102.803Y-26.827
X107.883Y-26.827
X115.444Y-26.827
X120.524Y-26.827
X128.085Y-26.827
X133.165Y-26.827
X140.726Y-26.827
X145.806Y-26.827
X153.367Y-26.827
X158.447Y-26.827
X166.02Y-26.85
X171.1Y-26.85
X178.649Y-26.827
X183.729Y-26.827
X191.29Y-26.827
X196.37Y-26.827
X203.931Y-26.827
X209.011Y-26.827
X214.539Y-100.986
X214.539Y-106.066
T7
X172.045Y-91.375
X172.045Y-96.225
T8
X175.075Y-91.075
X175.075Y-96.525
T9
X70.525Y-23.5
X70.525Y-114.7
X226.525Y-23.5
X226.525Y-114.7
M30
