%TF.GenerationSoftware,KiCad,Pcbnew,10.0.1*%
%TF.CreationDate,2026-06-05T02:22:00+09:00*%
%TF.ProjectId,AudioCase_1_main,41756469-6f43-4617-9365-5f315f6d6169,rev?*%
%TF.SameCoordinates,Original*%
%TF.FileFunction,Copper,L1,Top*%
%TF.FilePolarity,Positive*%
%FSLAX46Y46*%
G04 Gerber Fmt 4.6, Leading zero omitted, Abs format (unit mm)*
G04 Created by KiCad (PCBNEW 10.0.1) date 2026-06-05 02:22:00*
%MOMM*%
%LPD*%
G01*
G04 APERTURE LIST*
G04 Aperture macros list*
%AMRoundRect*
0 Rectangle with rounded corners*
0 $1 Rounding radius*
0 $2 $3 $4 $5 $6 $7 $8 $9 X,Y pos of 4 corners*
0 Add a 4 corners polygon primitive as box body*
4,1,4,$2,$3,$4,$5,$6,$7,$8,$9,$2,$3,0*
0 Add four circle primitives for the rounded corners*
1,1,$1+$1,$2,$3*
1,1,$1+$1,$4,$5*
1,1,$1+$1,$6,$7*
1,1,$1+$1,$8,$9*
0 Add four rect primitives between the rounded corners*
20,1,$1+$1,$2,$3,$4,$5,0*
20,1,$1+$1,$4,$5,$6,$7,0*
20,1,$1+$1,$6,$7,$8,$9,0*
20,1,$1+$1,$8,$9,$2,$3,0*%
%AMFreePoly0*
4,1,37,0.800000,0.796148,0.878414,0.796148,1.032228,0.765552,1.177117,0.705537,1.307515,0.618408,1.418408,0.507515,1.505537,0.377117,1.565552,0.232228,1.596148,0.078414,1.596148,-0.078414,1.565552,-0.232228,1.505537,-0.377117,1.418408,-0.507515,1.307515,-0.618408,1.177117,-0.705537,1.032228,-0.765552,0.878414,-0.796148,0.800000,-0.796148,0.800000,-0.800000,-1.400000,-0.800000,
-1.403843,-0.796157,-1.439018,-0.796157,-1.511114,-0.766294,-1.566294,-0.711114,-1.596157,-0.639018,-1.596157,-0.603843,-1.600000,-0.600000,-1.600000,0.600000,-1.596157,0.603843,-1.596157,0.639018,-1.566294,0.711114,-1.511114,0.766294,-1.439018,0.796157,-1.403843,0.796157,-1.400000,0.800000,0.800000,0.800000,0.800000,0.796148,0.800000,0.796148,$1*%
%AMFreePoly1*
4,1,37,1.403843,0.796157,1.439018,0.796157,1.511114,0.766294,1.566294,0.711114,1.596157,0.639018,1.596157,0.603843,1.600000,0.600000,1.600000,-0.600000,1.596157,-0.603843,1.596157,-0.639018,1.566294,-0.711114,1.511114,-0.766294,1.439018,-0.796157,1.403843,-0.796157,1.400000,-0.800000,-0.800000,-0.800000,-0.800000,-0.796148,-0.878414,-0.796148,-1.032228,-0.765552,-1.177117,-0.705537,
-1.307515,-0.618408,-1.418408,-0.507515,-1.505537,-0.377117,-1.565552,-0.232228,-1.596148,-0.078414,-1.596148,0.078414,-1.565552,0.232228,-1.505537,0.377117,-1.418408,0.507515,-1.307515,0.618408,-1.177117,0.705537,-1.032228,0.765552,-0.878414,0.796148,-0.800000,0.796148,-0.800000,0.800000,1.400000,0.800000,1.403843,0.796157,1.403843,0.796157,$1*%
%AMFreePoly2*
4,1,37,0.603843,0.796157,0.639018,0.796157,0.711114,0.766294,0.766294,0.711114,0.796157,0.639018,0.796157,0.603843,0.800000,0.600000,0.800000,-0.600000,0.796157,-0.603843,0.796157,-0.639018,0.766294,-0.711114,0.711114,-0.766294,0.639018,-0.796157,0.603843,-0.796157,0.600000,-0.800000,0.000000,-0.800000,0.000000,-0.796148,-0.078414,-0.796148,-0.232228,-0.765552,-0.377117,-0.705537,
-0.507515,-0.618408,-0.618408,-0.507515,-0.705537,-0.377117,-0.765552,-0.232228,-0.796148,-0.078414,-0.796148,0.078414,-0.765552,0.232228,-0.705537,0.377117,-0.618408,0.507515,-0.507515,0.618408,-0.377117,0.705537,-0.232228,0.765552,-0.078414,0.796148,0.000000,0.796148,0.000000,0.800000,0.600000,0.800000,0.603843,0.796157,0.603843,0.796157,$1*%
%AMFreePoly3*
4,1,37,0.000000,0.796148,0.078414,0.796148,0.232228,0.765552,0.377117,0.705537,0.507515,0.618408,0.618408,0.507515,0.705537,0.377117,0.765552,0.232228,0.796148,0.078414,0.796148,-0.078414,0.765552,-0.232228,0.705537,-0.377117,0.618408,-0.507515,0.507515,-0.618408,0.377117,-0.705537,0.232228,-0.765552,0.078414,-0.796148,0.000000,-0.796148,0.000000,-0.800000,-0.600000,-0.800000,
-0.603843,-0.796157,-0.639018,-0.796157,-0.711114,-0.766294,-0.766294,-0.711114,-0.796157,-0.639018,-0.796157,-0.603843,-0.800000,-0.600000,-0.800000,0.600000,-0.796157,0.603843,-0.796157,0.639018,-0.766294,0.711114,-0.711114,0.766294,-0.639018,0.796157,-0.603843,0.796157,-0.600000,0.800000,0.000000,0.800000,0.000000,0.796148,0.000000,0.796148,$1*%
G04 Aperture macros list end*
%TA.AperFunction,EtchedComponent*%
%ADD10C,0.000000*%
%TD*%
%TA.AperFunction,ComponentPad*%
%ADD11O,1.600000X2.300000*%
%TD*%
%TA.AperFunction,ComponentPad*%
%ADD12R,1.600000X1.600000*%
%TD*%
%TA.AperFunction,ComponentPad*%
%ADD13O,1.600000X1.600000*%
%TD*%
%TA.AperFunction,ComponentPad*%
%ADD14RoundRect,0.250000X1.050000X1.050000X-1.050000X1.050000X-1.050000X-1.050000X1.050000X-1.050000X0*%
%TD*%
%TA.AperFunction,ComponentPad*%
%ADD15C,2.600000*%
%TD*%
%TA.AperFunction,ComponentPad*%
%ADD16R,1.700000X1.700000*%
%TD*%
%TA.AperFunction,ComponentPad*%
%ADD17C,1.700000*%
%TD*%
%TA.AperFunction,ComponentPad*%
%ADD18C,1.300000*%
%TD*%
%TA.AperFunction,ComponentPad*%
%ADD19C,2.400000*%
%TD*%
%TA.AperFunction,ComponentPad*%
%ADD20RoundRect,0.250000X1.050000X-1.050000X1.050000X1.050000X-1.050000X1.050000X-1.050000X-1.050000X0*%
%TD*%
%TA.AperFunction,SMDPad,CuDef*%
%ADD21FreePoly0,270.000000*%
%TD*%
%TA.AperFunction,ComponentPad*%
%ADD22RoundRect,0.200000X-0.600000X0.600000X-0.600000X-0.600000X0.600000X-0.600000X0.600000X0.600000X0*%
%TD*%
%TA.AperFunction,SMDPad,CuDef*%
%ADD23RoundRect,0.800000X-0.000010X0.800000X-0.000010X-0.800000X0.000010X-0.800000X0.000010X0.800000X0*%
%TD*%
%TA.AperFunction,ComponentPad*%
%ADD24C,1.600000*%
%TD*%
%TA.AperFunction,SMDPad,CuDef*%
%ADD25FreePoly1,270.000000*%
%TD*%
%TA.AperFunction,ComponentPad*%
%ADD26FreePoly2,270.000000*%
%TD*%
%TA.AperFunction,ComponentPad*%
%ADD27FreePoly3,270.000000*%
%TD*%
%TA.AperFunction,ComponentPad*%
%ADD28RoundRect,0.250000X-1.050000X1.050000X-1.050000X-1.050000X1.050000X-1.050000X1.050000X1.050000X0*%
%TD*%
%TA.AperFunction,ComponentPad*%
%ADD29R,2.000000X2.000000*%
%TD*%
%TA.AperFunction,ComponentPad*%
%ADD30C,2.000000*%
%TD*%
%TA.AperFunction,ComponentPad*%
%ADD31RoundRect,0.250000X0.550000X0.550000X-0.550000X0.550000X-0.550000X-0.550000X0.550000X-0.550000X0*%
%TD*%
%TA.AperFunction,ViaPad*%
%ADD32C,0.600000*%
%TD*%
%TA.AperFunction,Conductor*%
%ADD33C,1.000000*%
%TD*%
%TA.AperFunction,Conductor*%
%ADD34C,0.500000*%
%TD*%
G04 APERTURE END LIST*
D10*
%TA.AperFunction,EtchedComponent*%
%TO.C,NT1*%
G36*
X207275000Y-106150000D02*
G01*
X205975000Y-106150000D01*
X205975000Y-103550000D01*
X207275000Y-103550000D01*
X207275000Y-106150000D01*
G37*
%TD.AperFunction*%
%TD*%
D11*
%TO.P,K9,1*%
%TO.N,/Controll/5V_+*%
X114325000Y-46670000D03*
%TO.P,K9,2*%
%TO.N,unconnected-(K9-Pad2)*%
X116865000Y-46670000D03*
%TO.P,K9,3*%
%TO.N,/Controll/R_IN*%
X119405000Y-46670000D03*
%TO.P,K9,4*%
%TO.N,/Controll/R_OUT*%
X121945000Y-46670000D03*
%TO.P,K9,5*%
%TO.N,/Controll/AUDIO_SET_RELAY_4*%
X124485000Y-46670000D03*
%TO.P,K9,6*%
%TO.N,/Controll/AUDIO_RESET_RELAY_4*%
X124485000Y-39050000D03*
%TO.P,K9,7*%
%TO.N,/Controll/L_OUT*%
X121945000Y-39050000D03*
%TO.P,K9,8*%
%TO.N,/Controll/L_IN*%
X119405000Y-39050000D03*
%TO.P,K9,9*%
%TO.N,unconnected-(K9-Pad9)*%
X116865000Y-39050000D03*
%TO.P,K9,10*%
%TO.N,/Controll/5V_+*%
X114325000Y-39050000D03*
%TD*%
D12*
%TO.P,U7,1,I1_1*%
%TO.N,/Controll/AUDIO_RESET_GPIO_5*%
X105045000Y-78670000D03*
D13*
%TO.P,U7,2,I2_2*%
%TO.N,/Controll/AUDIO_SET_GPIO_5*%
X107585000Y-78670000D03*
%TO.P,U7,3,I3_3*%
%TO.N,/Controll/PWR_RESET_GPIO_5*%
X110125000Y-78670000D03*
%TO.P,U7,4,I4_4*%
%TO.N,/Controll/PWR_SET_GPIO_5*%
X112665000Y-78670000D03*
%TO.P,U7,5,I5_5*%
%TO.N,/Controll/CTRL_GND*%
X115205000Y-78670000D03*
%TO.P,U7,6,I6_6*%
X117745000Y-78670000D03*
%TO.P,U7,7,I7_7*%
X120285000Y-78670000D03*
%TO.P,U7,8,I8_8*%
X122825000Y-78670000D03*
%TO.P,U7,9,GND_9*%
X125365000Y-78670000D03*
%TO.P,U7,10,COM_10*%
%TO.N,/Controll/5V_+*%
X125365000Y-71050000D03*
%TO.P,U7,11,O8_11*%
%TO.N,unconnected-(U7-O8-Pad11)*%
X122825000Y-71050000D03*
%TO.P,U7,12,O7_12*%
%TO.N,unconnected-(U7-O7-Pad12)*%
X120285000Y-71050000D03*
%TO.P,U7,13,O6_13*%
%TO.N,unconnected-(U7-O6-Pad13)*%
X117745000Y-71050000D03*
%TO.P,U7,14,O5_14*%
%TO.N,unconnected-(U7-O5-Pad14)*%
X115205000Y-71050000D03*
%TO.P,U7,15,O4_15*%
%TO.N,/Controll/PWR_SET_RELAY_5*%
X112665000Y-71050000D03*
%TO.P,U7,16,O3_16*%
%TO.N,/Controll/PWR_RESET_RELAY_5*%
X110125000Y-71050000D03*
%TO.P,U7,17,O2_17*%
%TO.N,/Controll/AUDIO_SET_RELAY_5*%
X107585000Y-71050000D03*
%TO.P,U7,18,O1_18*%
%TO.N,/Controll/AUDIO_RESET_RELAY_5*%
X105045000Y-71050000D03*
%TD*%
D11*
%TO.P,K7,1*%
%TO.N,/Controll/5V_+*%
X93665000Y-62670000D03*
%TO.P,K7,2*%
%TO.N,unconnected-(K7-Pad2)*%
X96205000Y-62670000D03*
%TO.P,K7,3*%
%TO.N,/Controll/AMP_V-_IN*%
X98745000Y-62670000D03*
%TO.P,K7,4*%
%TO.N,/Controll/AMP_V-_OUT*%
X101285000Y-62670000D03*
%TO.P,K7,5*%
%TO.N,/Controll/PWR_SET_RELAY_5*%
X103825000Y-62670000D03*
%TO.P,K7,6*%
%TO.N,/Controll/PWR_RESET_RELAY_5*%
X103825000Y-55050000D03*
%TO.P,K7,7*%
%TO.N,/Controll/AMP_V+_OUT*%
X101285000Y-55050000D03*
%TO.P,K7,8*%
%TO.N,/Controll/AMP_V+_IN*%
X98745000Y-55050000D03*
%TO.P,K7,9*%
%TO.N,unconnected-(K7-Pad9)*%
X96205000Y-55050000D03*
%TO.P,K7,10*%
%TO.N,/Controll/5V_+*%
X93665000Y-55050000D03*
%TD*%
D14*
%TO.P,J26,1,Pin_1_1*%
%TO.N,/Controll/L_OUT*%
X95242000Y-26827500D03*
D15*
%TO.P,J26,2,Pin_2_2*%
%TO.N,/Controll/R_OUT*%
X90162000Y-26827500D03*
%TD*%
D11*
%TO.P,K1,1*%
%TO.N,/Controll/5V_+*%
X155355000Y-62620000D03*
%TO.P,K1,2*%
%TO.N,unconnected-(K1-Pad2)*%
X157895000Y-62620000D03*
%TO.P,K1,3*%
%TO.N,/Controll/AMP_V-_IN*%
X160435000Y-62620000D03*
%TO.P,K1,4*%
%TO.N,/Controll/AMP_V-_OUT*%
X162975000Y-62620000D03*
%TO.P,K1,5*%
%TO.N,/Controll/PWR_SET_RELAY_1*%
X165515000Y-62620000D03*
%TO.P,K1,6*%
%TO.N,/Controll/PWR_RESET_RELAY_1*%
X165515000Y-55000000D03*
%TO.P,K1,7*%
%TO.N,/Controll/AMP_V+_OUT*%
X162975000Y-55000000D03*
%TO.P,K1,8*%
%TO.N,/Controll/AMP_V+_IN*%
X160435000Y-55000000D03*
%TO.P,K1,9*%
%TO.N,unconnected-(K1-Pad9)*%
X157895000Y-55000000D03*
%TO.P,K1,10*%
%TO.N,/Controll/5V_+*%
X155355000Y-55000000D03*
%TD*%
%TO.P,K3,1*%
%TO.N,/Controll/5V_+*%
X175750000Y-62625000D03*
%TO.P,K3,2*%
%TO.N,unconnected-(K3-Pad2)*%
X178290000Y-62625000D03*
%TO.P,K3,3*%
%TO.N,/Controll/AMP_V-_IN*%
X180830000Y-62625000D03*
%TO.P,K3,4*%
%TO.N,/Controll/AMP_V-_OUT*%
X183370000Y-62625000D03*
%TO.P,K3,5*%
%TO.N,/Controll/PWR_SET_RELAY_2*%
X185910000Y-62625000D03*
%TO.P,K3,6*%
%TO.N,/Controll/PWR_RESET_RELAY_2*%
X185910000Y-55005000D03*
%TO.P,K3,7*%
%TO.N,/Controll/AMP_V+_OUT*%
X183370000Y-55005000D03*
%TO.P,K3,8*%
%TO.N,/Controll/AMP_V+_IN*%
X180830000Y-55005000D03*
%TO.P,K3,9*%
%TO.N,unconnected-(K3-Pad9)*%
X178290000Y-55005000D03*
%TO.P,K3,10*%
%TO.N,/Controll/5V_+*%
X175750000Y-55005000D03*
%TD*%
D16*
%TO.P,J13,1,Pin_1_1*%
%TO.N,/Controll/ENC_A*%
X155205000Y-111800000D03*
D17*
%TO.P,J13,2,Pin_2_2*%
%TO.N,/Controll/ENC_B*%
X157745000Y-111800000D03*
%TO.P,J13,3,Pin_3_3*%
%TO.N,/Controll/ENC_SW*%
X160285000Y-111800000D03*
%TO.P,J13,4,Pin_4_4*%
%TO.N,/Controll/3V3*%
X162825000Y-111800000D03*
%TO.P,J13,5,Pin_5_5*%
%TO.N,/Controll/CTRL_GND*%
X165365000Y-111800000D03*
%TD*%
D18*
%TO.P,NT1,1,1_1*%
%TO.N,/Controll/PD_GND_IN*%
X206625000Y-106150000D03*
%TO.P,NT1,2,2_2*%
%TO.N,/Controll/CTRL_GND*%
X206625000Y-103550000D03*
%TD*%
D14*
%TO.P,J12,1,Pin_1_1*%
%TO.N,/Controll/AMP_V+_OUT*%
X183729000Y-26827500D03*
D15*
%TO.P,J12,2,Pin_2_2*%
%TO.N,/Controll/AMP_V-_OUT*%
X178649000Y-26827500D03*
%TD*%
D14*
%TO.P,J23,1,Pin_1_1*%
%TO.N,/Controll/AMP_V+_OUT*%
X82601000Y-26827500D03*
D15*
%TO.P,J23,2,Pin_2_2*%
%TO.N,/Controll/AMP_V-_OUT*%
X77521000Y-26827500D03*
%TD*%
D19*
%TO.P,F2,1*%
%TO.N,/Controll/+15_IN*%
X217438750Y-95166250D03*
%TO.P,F2,2*%
%TO.N,Net-(U4-VIN)*%
X217438750Y-82466250D03*
%TD*%
D14*
%TO.P,J16,1,Pin_1_1*%
%TO.N,/Controll/R_IN*%
X158447000Y-26827500D03*
D15*
%TO.P,J16,2,Pin_2_2*%
%TO.N,/Controll/L_IN*%
X153367000Y-26827500D03*
%TD*%
D11*
%TO.P,K6,1*%
%TO.N,/Controll/5V_+*%
X114165000Y-62800000D03*
%TO.P,K6,2*%
%TO.N,unconnected-(K6-Pad2)*%
X116705000Y-62800000D03*
%TO.P,K6,3*%
%TO.N,/Controll/AMP_V-_IN*%
X119245000Y-62800000D03*
%TO.P,K6,4*%
%TO.N,/Controll/AMP_V-_OUT*%
X121785000Y-62800000D03*
%TO.P,K6,5*%
%TO.N,/Controll/PWR_SET_RELAY_4*%
X124325000Y-62800000D03*
%TO.P,K6,6*%
%TO.N,/Controll/PWR_RESET_RELAY_4*%
X124325000Y-55180000D03*
%TO.P,K6,7*%
%TO.N,/Controll/AMP_V+_OUT*%
X121785000Y-55180000D03*
%TO.P,K6,8*%
%TO.N,/Controll/AMP_V+_IN*%
X119245000Y-55180000D03*
%TO.P,K6,9*%
%TO.N,unconnected-(K6-Pad9)*%
X116705000Y-55180000D03*
%TO.P,K6,10*%
%TO.N,/Controll/5V_+*%
X114165000Y-55180000D03*
%TD*%
D20*
%TO.P,J15,1,Pin_1_1*%
%TO.N,/Controll/PD_GND_IN*%
X214538750Y-106066250D03*
D15*
%TO.P,J15,2,Pin_2_2*%
%TO.N,/Controll/+15_IN*%
X214538750Y-100986250D03*
%TD*%
D21*
%TO.P,A1,1,GPIO0_1*%
%TO.N,/Controll/AUDIO_SET_GPIO_1*%
X175205000Y-84110000D03*
D22*
X175205000Y-84910000D03*
D23*
%TO.P,A1,2,GPIO1_2*%
%TO.N,/Controll/AUDIO_RESET_GPIO_1*%
X172665000Y-84110000D03*
D24*
X172665000Y-84910000D03*
D25*
%TO.P,A1,3,GND_3*%
%TO.N,/Controll/CTRL_GND*%
X170125000Y-84110000D03*
D26*
X170125000Y-84910000D03*
D23*
%TO.P,A1,4,GPIO2_4*%
%TO.N,/Controll/PWR_SET_GPIO_1*%
X167585000Y-84110000D03*
D24*
X167585000Y-84910000D03*
D23*
%TO.P,A1,5,GPIO3_5*%
%TO.N,/Controll/PWR_RESET_GPIO_1*%
X165045000Y-84110000D03*
D24*
X165045000Y-84910000D03*
D23*
%TO.P,A1,6,GPIO4_6*%
%TO.N,/Controll/AUDIO_SET_GPIO_2*%
X162505000Y-84110000D03*
D24*
X162505000Y-84910000D03*
D23*
%TO.P,A1,7,GPIO5_7*%
%TO.N,/Controll/AUDIO_RESET_GPIO_2*%
X159965000Y-84110000D03*
D24*
X159965000Y-84910000D03*
D25*
%TO.P,A1,8,GND_8*%
%TO.N,/Controll/CTRL_GND*%
X157425000Y-84110000D03*
D26*
X157425000Y-84910000D03*
D23*
%TO.P,A1,9,GPIO6_9*%
%TO.N,/Controll/PWR_SET_GPIO_2*%
X154885000Y-84110000D03*
D24*
X154885000Y-84910000D03*
D23*
%TO.P,A1,10,GPIO7_10*%
%TO.N,/Controll/PWR_RESET_GPIO_2*%
X152345000Y-84110000D03*
D24*
X152345000Y-84910000D03*
D23*
%TO.P,A1,11,GPIO8_11*%
%TO.N,/Controll/AUDIO_SET_GPIO_3*%
X149805000Y-84110000D03*
D24*
X149805000Y-84910000D03*
D23*
%TO.P,A1,12,GPIO9_12*%
%TO.N,/Controll/AUDIO_RESET_GPIO_3*%
X147265000Y-84110000D03*
D24*
X147265000Y-84910000D03*
D25*
%TO.P,A1,13,GND_13*%
%TO.N,/Controll/CTRL_GND*%
X144725000Y-84110000D03*
D26*
X144725000Y-84910000D03*
D23*
%TO.P,A1,14,GPIO10_14*%
%TO.N,/Controll/PWR_SET_GPIO_3*%
X142185000Y-84110000D03*
D24*
X142185000Y-84910000D03*
D23*
%TO.P,A1,15,GPIO11_15*%
%TO.N,/Controll/PWR_RESET_GPIO_3*%
X139645000Y-84110000D03*
D24*
X139645000Y-84910000D03*
D23*
%TO.P,A1,16,GPIO12_16*%
%TO.N,/Controll/AUDIO_SET_GPIO_4*%
X137105000Y-84110000D03*
D24*
X137105000Y-84910000D03*
D23*
%TO.P,A1,17,GPIO13_17*%
%TO.N,/Controll/AUDIO_RESET_GPIO_4*%
X134565000Y-84110000D03*
D24*
X134565000Y-84910000D03*
D25*
%TO.P,A1,18,GND_18*%
%TO.N,/Controll/CTRL_GND*%
X132025000Y-84110000D03*
D26*
X132025000Y-84910000D03*
D23*
%TO.P,A1,19,GPIO14_19*%
%TO.N,/Controll/PWR_SET_GPIO_4*%
X129485000Y-84110000D03*
D24*
X129485000Y-84910000D03*
D23*
%TO.P,A1,20,GPIO15_20*%
%TO.N,/Controll/PWR_RESET_GPIO_4*%
X126945000Y-84110000D03*
D24*
X126945000Y-84910000D03*
%TO.P,A1,21,GPIO16_21*%
%TO.N,/Controll/PWR_RESET_GPIO_5*%
X126945000Y-102690000D03*
D23*
X126945000Y-103490000D03*
D24*
%TO.P,A1,22,GPIO17_22*%
%TO.N,/Controll/PWR_SET_GPIO_5*%
X129485000Y-102690000D03*
D23*
X129485000Y-103490000D03*
D27*
%TO.P,A1,23,GND_23*%
%TO.N,/Controll/CTRL_GND*%
X132025000Y-102690000D03*
D21*
X132025000Y-103490000D03*
D24*
%TO.P,A1,24,GPIO18_24*%
%TO.N,/Controll/AUDIO_RESET_GPIO_5*%
X134565000Y-102690000D03*
D23*
X134565000Y-103490000D03*
D24*
%TO.P,A1,25,GPIO19_25*%
%TO.N,/Controll/AUDIO_SET_GPIO_5*%
X137105000Y-102690000D03*
D23*
X137105000Y-103490000D03*
D24*
%TO.P,A1,26,GPIO20_26*%
%TO.N,/Controll/SDA*%
X139645000Y-102690000D03*
D23*
X139645000Y-103490000D03*
D24*
%TO.P,A1,27,GPIO21_27*%
%TO.N,/Controll/SCL*%
X142185000Y-102690000D03*
D23*
X142185000Y-103490000D03*
D27*
%TO.P,A1,28,GND_28*%
%TO.N,/Controll/CTRL_GND*%
X144725000Y-102690000D03*
D21*
X144725000Y-103490000D03*
D24*
%TO.P,A1,29,GPIO22_29*%
%TO.N,/Controll/ENC_A*%
X147265000Y-102690000D03*
D23*
X147265000Y-103490000D03*
D24*
%TO.P,A1,30,RUN_30*%
%TO.N,unconnected-(A1-RUN-Pad30)_1*%
X149805000Y-102690000D03*
D23*
%TO.N,unconnected-(A1-RUN-Pad30)*%
X149805000Y-103490000D03*
D24*
%TO.P,A1,31,GPIO26_ADC0_31*%
%TO.N,/Controll/ENC_B*%
X152345000Y-102690000D03*
D23*
X152345000Y-103490000D03*
D24*
%TO.P,A1,32,GPIO27_ADC1_32*%
%TO.N,/Controll/ENC_SW*%
X154885000Y-102690000D03*
D23*
X154885000Y-103490000D03*
D27*
%TO.P,A1,33,AGND_33*%
%TO.N,unconnected-(A1-AGND-Pad33)_1*%
X157425000Y-102690000D03*
D21*
%TO.N,unconnected-(A1-AGND-Pad33)*%
X157425000Y-103490000D03*
D24*
%TO.P,A1,34,GPIO28_ADC2_34*%
%TO.N,unconnected-(A1-GPIO28_ADC2-Pad34)*%
X159965000Y-102690000D03*
D23*
%TO.N,unconnected-(A1-GPIO28_ADC2-Pad34)_1*%
X159965000Y-103490000D03*
D24*
%TO.P,A1,35,ADC_VREF_35*%
%TO.N,unconnected-(A1-ADC_VREF-Pad35)*%
X162505000Y-102690000D03*
D23*
%TO.N,unconnected-(A1-ADC_VREF-Pad35)_1*%
X162505000Y-103490000D03*
D24*
%TO.P,A1,36,3V3_36*%
%TO.N,/Controll/3V3*%
X165045000Y-102690000D03*
D23*
X165045000Y-103490000D03*
D24*
%TO.P,A1,37,3V3_EN_37*%
%TO.N,unconnected-(A1-3V3_EN-Pad37)*%
X167585000Y-102690000D03*
D23*
%TO.N,unconnected-(A1-3V3_EN-Pad37)_1*%
X167585000Y-103490000D03*
D27*
%TO.P,A1,38,GND_38*%
%TO.N,/Controll/CTRL_GND*%
X170125000Y-102690000D03*
D21*
X170125000Y-103490000D03*
D24*
%TO.P,A1,39,VSYS_39*%
%TO.N,/Controll/5V_+*%
X172665000Y-102690000D03*
D23*
X172665000Y-103490000D03*
D24*
%TO.P,A1,40,VBUS_40*%
%TO.N,unconnected-(A1-VBUS-Pad40)_1*%
X175205000Y-102690000D03*
D23*
%TO.N,unconnected-(A1-VBUS-Pad40)*%
X175205000Y-103490000D03*
%TD*%
D28*
%TO.P,J14,1,Pin_1_1*%
%TO.N,/Controll/AMP_V+_IN*%
X80325000Y-56550000D03*
D15*
%TO.P,J14,2,Pin_2_2*%
%TO.N,/Controll/AMP_V-_IN*%
X80325000Y-61630000D03*
%TD*%
D12*
%TO.P,U5,1,I1_1*%
%TO.N,/Controll/PWR_RESET_GPIO_2*%
X157415000Y-78670000D03*
D13*
%TO.P,U5,2,I2_2*%
%TO.N,/Controll/PWR_SET_GPIO_2*%
X159955000Y-78670000D03*
%TO.P,U5,3,I3_3*%
%TO.N,/Controll/AUDIO_RESET_GPIO_2*%
X162495000Y-78670000D03*
%TO.P,U5,4,I4_4*%
%TO.N,/Controll/AUDIO_SET_GPIO_2*%
X165035000Y-78670000D03*
%TO.P,U5,5,I5_5*%
%TO.N,/Controll/PWR_RESET_GPIO_1*%
X167575000Y-78670000D03*
%TO.P,U5,6,I6_6*%
%TO.N,/Controll/PWR_SET_GPIO_1*%
X170115000Y-78670000D03*
%TO.P,U5,7,I7_7*%
%TO.N,/Controll/AUDIO_RESET_GPIO_1*%
X172655000Y-78670000D03*
%TO.P,U5,8,I8_8*%
%TO.N,/Controll/AUDIO_SET_GPIO_1*%
X175195000Y-78670000D03*
%TO.P,U5,9,GND_9*%
%TO.N,/Controll/CTRL_GND*%
X177735000Y-78670000D03*
%TO.P,U5,10,COM_10*%
%TO.N,/Controll/5V_+*%
X177735000Y-71050000D03*
%TO.P,U5,11,O8_11*%
%TO.N,/Controll/PWR_SET_RELAY_2*%
X175195000Y-71050000D03*
%TO.P,U5,12,O7_12*%
%TO.N,/Controll/PWR_RESET_RELAY_2*%
X172655000Y-71050000D03*
%TO.P,U5,13,O6_13*%
%TO.N,/Controll/AUDIO_SET_RELAY_2*%
X170115000Y-71050000D03*
%TO.P,U5,14,O5_14*%
%TO.N,/Controll/AUDIO_RESET_RELAY_2*%
X167575000Y-71050000D03*
%TO.P,U5,15,O4_15*%
%TO.N,/Controll/PWR_SET_RELAY_1*%
X165035000Y-71050000D03*
%TO.P,U5,16,O3_16*%
%TO.N,/Controll/PWR_RESET_RELAY_1*%
X162495000Y-71050000D03*
%TO.P,U5,17,O2_17*%
%TO.N,/Controll/AUDIO_SET_RELAY_1*%
X159955000Y-71050000D03*
%TO.P,U5,18,O1_18*%
%TO.N,/Controll/AUDIO_RESET_RELAY_1*%
X157415000Y-71050000D03*
%TD*%
D14*
%TO.P,J21,1,Pin_1_1*%
%TO.N,/Controll/AMP_V+_OUT*%
X133165000Y-26827500D03*
D15*
%TO.P,J21,2,Pin_2_2*%
%TO.N,/Controll/AMP_V-_OUT*%
X128085000Y-26827500D03*
%TD*%
D11*
%TO.P,K10,1*%
%TO.N,/Controll/5V_+*%
X93750000Y-46670000D03*
%TO.P,K10,2*%
%TO.N,unconnected-(K10-Pad2)*%
X96290000Y-46670000D03*
%TO.P,K10,3*%
%TO.N,/Controll/R_IN*%
X98830000Y-46670000D03*
%TO.P,K10,4*%
%TO.N,/Controll/R_OUT*%
X101370000Y-46670000D03*
%TO.P,K10,5*%
%TO.N,/Controll/AUDIO_SET_RELAY_5*%
X103910000Y-46670000D03*
%TO.P,K10,6*%
%TO.N,/Controll/AUDIO_RESET_RELAY_5*%
X103910000Y-39050000D03*
%TO.P,K10,7*%
%TO.N,/Controll/L_OUT*%
X101370000Y-39050000D03*
%TO.P,K10,8*%
%TO.N,/Controll/L_IN*%
X98830000Y-39050000D03*
%TO.P,K10,9*%
%TO.N,unconnected-(K10-Pad9)*%
X96290000Y-39050000D03*
%TO.P,K10,10*%
%TO.N,/Controll/5V_+*%
X93750000Y-39050000D03*
%TD*%
D29*
%TO.P,U4,1,VIN_1*%
%TO.N,Net-(U4-VIN)*%
X211925000Y-72800000D03*
D30*
%TO.P,U4,2,GND_2*%
%TO.N,/Controll/CTRL_GND*%
X209385000Y-72800000D03*
%TO.P,U4,3,VOUT_3*%
%TO.N,/Controll/5V_+*%
X206845000Y-72800000D03*
%TD*%
D31*
%TO.P,C32,1*%
%TO.N,/Controll/5V_+*%
X206825000Y-55000000D03*
D24*
%TO.P,C32,2*%
%TO.N,/Controll/CTRL_GND*%
X204325000Y-55000000D03*
%TD*%
D16*
%TO.P,J17,1,Pin_1_1*%
%TO.N,/Controll/CTRL_GND*%
X145325000Y-111825000D03*
D17*
%TO.P,J17,2,Pin_2_2*%
%TO.N,/Controll/3V3*%
X142785000Y-111825000D03*
%TO.P,J17,3,Pin_3_3*%
%TO.N,/Controll/SCL*%
X140245000Y-111825000D03*
%TO.P,J17,4,Pin_4_4*%
%TO.N,/Controll/SDA*%
X137705000Y-111825000D03*
%TD*%
D14*
%TO.P,J18,1,Pin_1_1*%
%TO.N,/Controll/L_OUT*%
X171100000Y-26850000D03*
D15*
%TO.P,J18,2,Pin_2_2*%
%TO.N,/Controll/R_OUT*%
X166020000Y-26850000D03*
%TD*%
D11*
%TO.P,K8,1*%
%TO.N,/Controll/5V_+*%
X134825000Y-46670000D03*
%TO.P,K8,2*%
%TO.N,unconnected-(K8-Pad2)*%
X137365000Y-46670000D03*
%TO.P,K8,3*%
%TO.N,/Controll/R_IN*%
X139905000Y-46670000D03*
%TO.P,K8,4*%
%TO.N,/Controll/R_OUT*%
X142445000Y-46670000D03*
%TO.P,K8,5*%
%TO.N,/Controll/AUDIO_SET_RELAY_3*%
X144985000Y-46670000D03*
%TO.P,K8,6*%
%TO.N,/Controll/AUDIO_RESET_RELAY_3*%
X144985000Y-39050000D03*
%TO.P,K8,7*%
%TO.N,/Controll/L_OUT*%
X142445000Y-39050000D03*
%TO.P,K8,8*%
%TO.N,/Controll/L_IN*%
X139905000Y-39050000D03*
%TO.P,K8,9*%
%TO.N,unconnected-(K8-Pad9)*%
X137365000Y-39050000D03*
%TO.P,K8,10*%
%TO.N,/Controll/5V_+*%
X134825000Y-39050000D03*
%TD*%
D14*
%TO.P,J22,1,Pin_1_1*%
%TO.N,/Controll/AMP_V+_OUT*%
X107883000Y-26827500D03*
D15*
%TO.P,J22,2,Pin_2_2*%
%TO.N,/Controll/AMP_V-_OUT*%
X102803000Y-26827500D03*
%TD*%
D24*
%TO.P,C31,1*%
%TO.N,Net-(U4-VIN)*%
X211738750Y-93616250D03*
%TO.P,C31,2*%
%TO.N,/Controll/CTRL_GND*%
X209238750Y-93616250D03*
%TD*%
D11*
%TO.P,K5,1*%
%TO.N,/Controll/5V_+*%
X134750000Y-62625000D03*
%TO.P,K5,2*%
%TO.N,unconnected-(K5-Pad2)*%
X137290000Y-62625000D03*
%TO.P,K5,3*%
%TO.N,/Controll/AMP_V-_IN*%
X139830000Y-62625000D03*
%TO.P,K5,4*%
%TO.N,/Controll/AMP_V-_OUT*%
X142370000Y-62625000D03*
%TO.P,K5,5*%
%TO.N,/Controll/PWR_SET_RELAY_3*%
X144910000Y-62625000D03*
%TO.P,K5,6*%
%TO.N,/Controll/PWR_RESET_RELAY_3*%
X144910000Y-55005000D03*
%TO.P,K5,7*%
%TO.N,/Controll/AMP_V+_OUT*%
X142370000Y-55005000D03*
%TO.P,K5,8*%
%TO.N,/Controll/AMP_V+_IN*%
X139830000Y-55005000D03*
%TO.P,K5,9*%
%TO.N,unconnected-(K5-Pad9)*%
X137290000Y-55005000D03*
%TO.P,K5,10*%
%TO.N,/Controll/5V_+*%
X134750000Y-55005000D03*
%TD*%
D24*
%TO.P,C33,1*%
%TO.N,/Controll/5V_+*%
X206850000Y-62175000D03*
%TO.P,C33,2*%
%TO.N,/Controll/CTRL_GND*%
X204350000Y-62175000D03*
%TD*%
D14*
%TO.P,J25,1,Pin_1_1*%
%TO.N,/Controll/L_OUT*%
X120524000Y-26827500D03*
D15*
%TO.P,J25,2,Pin_2_2*%
%TO.N,/Controll/R_OUT*%
X115444000Y-26827500D03*
%TD*%
D31*
%TO.P,C30,1*%
%TO.N,Net-(U4-VIN)*%
X212188750Y-84566250D03*
D24*
%TO.P,C30,2*%
%TO.N,/Controll/CTRL_GND*%
X208688750Y-84566250D03*
%TD*%
D14*
%TO.P,J20,1,Pin_1_1*%
%TO.N,/Controll/L_OUT*%
X196370000Y-26827500D03*
D15*
%TO.P,J20,2,Pin_2_2*%
%TO.N,/Controll/R_OUT*%
X191290000Y-26827500D03*
%TD*%
D14*
%TO.P,J19,1,Pin_1_1*%
%TO.N,/Controll/AMP_V+_OUT*%
X209011000Y-26827500D03*
D15*
%TO.P,J19,2,Pin_2_2*%
%TO.N,/Controll/AMP_V-_OUT*%
X203931000Y-26827500D03*
%TD*%
D14*
%TO.P,J24,1,Pin_1_1*%
%TO.N,/Controll/L_OUT*%
X145806000Y-26827500D03*
D15*
%TO.P,J24,2,Pin_2_2*%
%TO.N,/Controll/R_OUT*%
X140726000Y-26827500D03*
%TD*%
D11*
%TO.P,K2,1*%
%TO.N,/Controll/5V_+*%
X155285000Y-46640000D03*
%TO.P,K2,2*%
%TO.N,unconnected-(K2-Pad2)*%
X157825000Y-46640000D03*
%TO.P,K2,3*%
%TO.N,/Controll/R_IN*%
X160365000Y-46640000D03*
%TO.P,K2,4*%
%TO.N,/Controll/R_OUT*%
X162905000Y-46640000D03*
%TO.P,K2,5*%
%TO.N,/Controll/AUDIO_SET_RELAY_1*%
X165445000Y-46640000D03*
%TO.P,K2,6*%
%TO.N,/Controll/AUDIO_RESET_RELAY_1*%
X165445000Y-39020000D03*
%TO.P,K2,7*%
%TO.N,/Controll/L_OUT*%
X162905000Y-39020000D03*
%TO.P,K2,8*%
%TO.N,/Controll/L_IN*%
X160365000Y-39020000D03*
%TO.P,K2,9*%
%TO.N,unconnected-(K2-Pad9)*%
X157825000Y-39020000D03*
%TO.P,K2,10*%
%TO.N,/Controll/5V_+*%
X155285000Y-39020000D03*
%TD*%
%TO.P,K4,1*%
%TO.N,/Controll/5V_+*%
X175750000Y-46670000D03*
%TO.P,K4,2*%
%TO.N,unconnected-(K4-Pad2)*%
X178290000Y-46670000D03*
%TO.P,K4,3*%
%TO.N,/Controll/R_IN*%
X180830000Y-46670000D03*
%TO.P,K4,4*%
%TO.N,/Controll/R_OUT*%
X183370000Y-46670000D03*
%TO.P,K4,5*%
%TO.N,/Controll/AUDIO_SET_RELAY_2*%
X185910000Y-46670000D03*
%TO.P,K4,6*%
%TO.N,/Controll/AUDIO_RESET_RELAY_2*%
X185910000Y-39050000D03*
%TO.P,K4,7*%
%TO.N,/Controll/L_OUT*%
X183370000Y-39050000D03*
%TO.P,K4,8*%
%TO.N,/Controll/L_IN*%
X180830000Y-39050000D03*
%TO.P,K4,9*%
%TO.N,unconnected-(K4-Pad9)*%
X178290000Y-39050000D03*
%TO.P,K4,10*%
%TO.N,/Controll/5V_+*%
X175750000Y-39050000D03*
%TD*%
D12*
%TO.P,U6,1,I1_1*%
%TO.N,/Controll/PWR_RESET_GPIO_4*%
X131585000Y-78610000D03*
D13*
%TO.P,U6,2,I2_2*%
%TO.N,/Controll/PWR_SET_GPIO_4*%
X134125000Y-78610000D03*
%TO.P,U6,3,I3_3*%
%TO.N,/Controll/AUDIO_RESET_GPIO_4*%
X136665000Y-78610000D03*
%TO.P,U6,4,I4_4*%
%TO.N,/Controll/AUDIO_SET_GPIO_4*%
X139205000Y-78610000D03*
%TO.P,U6,5,I5_5*%
%TO.N,/Controll/PWR_RESET_GPIO_3*%
X141745000Y-78610000D03*
%TO.P,U6,6,I6_6*%
%TO.N,/Controll/PWR_SET_GPIO_3*%
X144285000Y-78610000D03*
%TO.P,U6,7,I7_7*%
%TO.N,/Controll/AUDIO_RESET_GPIO_3*%
X146825000Y-78610000D03*
%TO.P,U6,8,I8_8*%
%TO.N,/Controll/AUDIO_SET_GPIO_3*%
X149365000Y-78610000D03*
%TO.P,U6,9,GND_9*%
%TO.N,/Controll/CTRL_GND*%
X151905000Y-78610000D03*
%TO.P,U6,10,COM_10*%
%TO.N,/Controll/5V_+*%
X151905000Y-70990000D03*
%TO.P,U6,11,O8_11*%
%TO.N,/Controll/AUDIO_SET_RELAY_3*%
X149365000Y-70990000D03*
%TO.P,U6,12,O7_12*%
%TO.N,/Controll/AUDIO_RESET_RELAY_3*%
X146825000Y-70990000D03*
%TO.P,U6,13,O6_13*%
%TO.N,/Controll/PWR_SET_RELAY_3*%
X144285000Y-70990000D03*
%TO.P,U6,14,O5_14*%
%TO.N,/Controll/PWR_RESET_RELAY_3*%
X141745000Y-70990000D03*
%TO.P,U6,15,O4_15*%
%TO.N,/Controll/AUDIO_SET_RELAY_4*%
X139205000Y-70990000D03*
%TO.P,U6,16,O3_16*%
%TO.N,/Controll/AUDIO_RESET_RELAY_4*%
X136665000Y-70990000D03*
%TO.P,U6,17,O2_17*%
%TO.N,/Controll/PWR_SET_RELAY_4*%
X134125000Y-70990000D03*
%TO.P,U6,18,O1_18*%
%TO.N,/Controll/PWR_RESET_RELAY_4*%
X131585000Y-70990000D03*
%TD*%
D32*
%TO.N,/Controll/5V_+*%
X107825000Y-62600000D03*
X125875000Y-65475000D03*
X93825000Y-49800000D03*
X117095000Y-65730000D03*
X205900000Y-50325000D03*
%TO.N,/Controll/R_IN*%
X109375000Y-34650000D03*
X143875000Y-42900000D03*
X158125000Y-34650000D03*
X109375000Y-43000000D03*
X152125000Y-34650000D03*
%TO.N,/Controll/AUDIO_RESET_RELAY_4*%
X127825000Y-47400000D03*
X125225000Y-50000000D03*
%TO.N,/Controll/L_OUT*%
X188125000Y-30400000D03*
X166325000Y-30350000D03*
%TO.N,/Controll/AUDIO_SET_GPIO_5*%
X122625000Y-108700000D03*
X122600000Y-105800000D03*
%TO.N,/Controll/CTRL_GND*%
X209385000Y-67475000D03*
X209385000Y-69900000D03*
X209385000Y-64410000D03*
%TO.N,/Controll/AMP_V-_OUT*%
X128075000Y-33025000D03*
X145375000Y-50975000D03*
X107325000Y-34925000D03*
X144875000Y-66575000D03*
X107325000Y-46925000D03*
X170925000Y-42300000D03*
X150775000Y-61775000D03*
X163925000Y-66700000D03*
X149575000Y-50975000D03*
X91125000Y-66600000D03*
X128875000Y-60975000D03*
X128575000Y-39275000D03*
X168625000Y-65300000D03*
%TO.N,/Controll/AMP_V+_OUT*%
X172765750Y-37790750D03*
X111425000Y-32775000D03*
X194725000Y-47800000D03*
X111425000Y-48625000D03*
X133165000Y-33015000D03*
X132200000Y-51175000D03*
X118325000Y-51775000D03*
X189425000Y-52200000D03*
X89125000Y-50300000D03*
%TO.N,/Controll/AUDIO_RESET_RELAY_3*%
X147675000Y-48575000D03*
X150775000Y-48600000D03*
%TD*%
%TO.N,/Controll/5V_+*%
D33*
X152825000Y-76050000D02*
X130365000Y-76050000D01*
X104825000Y-59600000D02*
X94225000Y-59600000D01*
X177735000Y-74710000D02*
X179075000Y-76050000D01*
X130365000Y-76050000D02*
X125365000Y-71050000D01*
X177735000Y-64610000D02*
X175750000Y-62625000D01*
X206825000Y-51250000D02*
X205900000Y-50325000D01*
X123715000Y-69400000D02*
X123715000Y-67635000D01*
X206745000Y-72900000D02*
X206845000Y-72800000D01*
X93665000Y-49960000D02*
X93665000Y-55050000D01*
X206845000Y-62180000D02*
X206850000Y-62175000D01*
X199325000Y-76800000D02*
X198575000Y-76050000D01*
X172625000Y-106150000D02*
X172625000Y-102730000D01*
X206825000Y-55000000D02*
X206825000Y-51250000D01*
X179075000Y-76050000D02*
X152825000Y-76050000D01*
X198575000Y-76050000D02*
X179075000Y-76050000D01*
X199325000Y-76800000D02*
X199325000Y-103200000D01*
X199325000Y-62500000D02*
X206825000Y-55000000D01*
X206850000Y-55025000D02*
X206825000Y-55000000D01*
X172625000Y-102730000D02*
X172665000Y-102690000D01*
X206945000Y-62270000D02*
X206850000Y-62175000D01*
X199325000Y-103200000D02*
X193875000Y-108650000D01*
X177735000Y-71050000D02*
X177735000Y-64610000D01*
X93665000Y-60160000D02*
X93665000Y-62670000D01*
X175125000Y-108650000D02*
X172625000Y-106150000D01*
X117095000Y-65730000D02*
X114165000Y-62800000D01*
X155355000Y-62620000D02*
X155355000Y-55000000D01*
X120765000Y-69400000D02*
X123715000Y-69400000D01*
X123715000Y-67635000D02*
X125875000Y-65475000D01*
X117095000Y-65730000D02*
X120765000Y-69400000D01*
X93665000Y-60160000D02*
X93665000Y-55050000D01*
X177735000Y-71050000D02*
X177735000Y-74710000D01*
X206845000Y-72800000D02*
X206845000Y-62180000D01*
X193875000Y-108650000D02*
X175125000Y-108650000D01*
X93825000Y-49800000D02*
X93665000Y-49960000D01*
X94225000Y-59600000D02*
X93665000Y-60160000D01*
X151905000Y-70990000D02*
X151905000Y-75130000D01*
X206850000Y-62175000D02*
X206850000Y-55025000D01*
X199325000Y-76800000D02*
X199325000Y-62500000D01*
X206825000Y-55000000D02*
X206775000Y-54950000D01*
X107825000Y-62600000D02*
X104825000Y-59600000D01*
X114165000Y-62800000D02*
X114165000Y-55180000D01*
X123715000Y-69400000D02*
X125365000Y-71050000D01*
X151905000Y-75130000D02*
X152825000Y-76050000D01*
%TO.N,/Controll/R_IN*%
D34*
X182430000Y-45070000D02*
X180830000Y-46670000D01*
X152125000Y-34650000D02*
X109375000Y-34650000D01*
X187160000Y-41778503D02*
X183868503Y-45070000D01*
X143875000Y-42900000D02*
X140225000Y-42900000D01*
X167475000Y-34650000D02*
X183627767Y-34650000D01*
X139905000Y-43220000D02*
X139905000Y-46670000D01*
X109375000Y-43000000D02*
X115735000Y-43000000D01*
X158447000Y-26827500D02*
X166269500Y-34650000D01*
X187160000Y-38182233D02*
X187160000Y-41778503D01*
X166269500Y-34650000D02*
X167475000Y-34650000D01*
X183868503Y-45070000D02*
X182430000Y-45070000D01*
X140225000Y-42900000D02*
X139905000Y-43220000D01*
X102500000Y-43000000D02*
X98830000Y-46670000D01*
X183627767Y-34650000D02*
X187160000Y-38182233D01*
X115735000Y-43000000D02*
X119405000Y-46670000D01*
X109375000Y-43000000D02*
X102500000Y-43000000D01*
X166269500Y-34650000D02*
X158125000Y-34650000D01*
%TO.N,/Controll/AUDIO_SET_RELAY_4*%
D33*
X132050000Y-64150000D02*
X132050000Y-54235000D01*
X132050000Y-54235000D02*
X124485000Y-46670000D01*
X139205000Y-70990000D02*
X138890000Y-70990000D01*
X138890000Y-70990000D02*
X132050000Y-64150000D01*
%TO.N,/Controll/AUDIO_RESET_RELAY_4*%
X127825000Y-42390000D02*
X124485000Y-39050000D01*
X127825000Y-47400000D02*
X127825000Y-42390000D01*
X130850000Y-65450000D02*
X130850000Y-55625000D01*
X136390000Y-70990000D02*
X130850000Y-65450000D01*
X130850000Y-55625000D02*
X125225000Y-50000000D01*
X136665000Y-70990000D02*
X136390000Y-70990000D01*
%TO.N,/Controll/L_OUT*%
D34*
X171025000Y-30350000D02*
X166325000Y-30350000D01*
X192925000Y-30300000D02*
X192925000Y-30272500D01*
X171025000Y-26890500D02*
X171088000Y-26827500D01*
X188125000Y-30400000D02*
X188225000Y-30300000D01*
X188225000Y-30300000D02*
X192925000Y-30300000D01*
X192925000Y-30272500D02*
X196370000Y-26827500D01*
X166325000Y-30350000D02*
X166275000Y-30350000D01*
X171025000Y-30350000D02*
X171025000Y-26890500D01*
%TO.N,/Controll/L_IN*%
X120025000Y-37450000D02*
X120025000Y-38430000D01*
X153367000Y-26827500D02*
X153367000Y-36650000D01*
X141225000Y-36650000D02*
X140425000Y-37450000D01*
X153367000Y-36625000D02*
X158200000Y-36625000D01*
X158825000Y-37250000D02*
X160109250Y-35965750D01*
X140425000Y-37450000D02*
X120025000Y-37450000D01*
X139905000Y-39050000D02*
X139905000Y-37970000D01*
X120025000Y-38430000D02*
X119405000Y-39050000D01*
X160365000Y-38790000D02*
X160365000Y-39020000D01*
X153367000Y-26827500D02*
X153367000Y-36625000D01*
X153367000Y-36650000D02*
X141225000Y-36650000D01*
X177745750Y-35965750D02*
X180830000Y-39050000D01*
X158200000Y-36625000D02*
X158825000Y-37250000D01*
X158825000Y-37250000D02*
X160365000Y-38790000D01*
X160109250Y-35965750D02*
X177745750Y-35965750D01*
X120025000Y-37450000D02*
X100430000Y-37450000D01*
X100430000Y-37450000D02*
X98830000Y-39050000D01*
X139905000Y-37970000D02*
X140425000Y-37450000D01*
%TO.N,/Controll/AUDIO_RESET_GPIO_5*%
D33*
X105045000Y-90370000D02*
X105045000Y-78670000D01*
X134565000Y-102690000D02*
X134565000Y-103878394D01*
X134565000Y-103878394D02*
X131143394Y-107300000D01*
X121975000Y-107300000D02*
X105045000Y-90370000D01*
X131143394Y-107300000D02*
X121975000Y-107300000D01*
%TO.N,/Controll/AUDIO_SET_GPIO_5*%
X122775000Y-108550000D02*
X135325000Y-108550000D01*
X137105000Y-106770000D02*
X137105000Y-102690000D01*
X122625000Y-108700000D02*
X122775000Y-108550000D01*
X135325000Y-108550000D02*
X137105000Y-106770000D01*
X122600000Y-105800000D02*
X122600000Y-105475000D01*
X122600000Y-105475000D02*
X107585000Y-90460000D01*
X107585000Y-90460000D02*
X107585000Y-78670000D01*
%TO.N,/Controll/PWR_RESET_GPIO_5*%
X110150000Y-89425000D02*
X110150000Y-79775000D01*
X110125000Y-79750000D02*
X110125000Y-78670000D01*
X110150000Y-79775000D02*
X110125000Y-79750000D01*
X123415000Y-102690000D02*
X110150000Y-89425000D01*
X126945000Y-102690000D02*
X123415000Y-102690000D01*
%TO.N,/Controll/PWR_SET_GPIO_5*%
X129485000Y-102690000D02*
X129465000Y-102690000D01*
X123480000Y-100025000D02*
X112665000Y-89210000D01*
X126800000Y-100025000D02*
X123480000Y-100025000D01*
X112665000Y-89210000D02*
X112665000Y-78670000D01*
X129465000Y-102690000D02*
X126800000Y-100025000D01*
%TO.N,/Controll/CTRL_GND*%
X208688750Y-84566250D02*
X208688750Y-73496250D01*
X209385000Y-67475000D02*
X209385000Y-64410000D01*
X209238750Y-85116250D02*
X208688750Y-84566250D01*
X209385000Y-69900000D02*
X209385000Y-67475000D01*
X209385000Y-72800000D02*
X209385000Y-69900000D01*
X206625000Y-103550000D02*
X206588750Y-103513750D01*
X209238750Y-93616250D02*
X209238750Y-85116250D01*
X206588750Y-103513750D02*
X206588750Y-96266250D01*
X208688750Y-73496250D02*
X209385000Y-72800000D01*
X206588750Y-96266250D02*
X209238750Y-93616250D01*
%TO.N,/Controll/PWR_RESET_RELAY_5*%
X110125000Y-71050000D02*
X110125000Y-61350000D01*
X110125000Y-61350000D02*
X103825000Y-55050000D01*
%TO.N,/Controll/AUDIO_SET_RELAY_5*%
X92165000Y-48520000D02*
X102060000Y-48520000D01*
X102060000Y-48520000D02*
X103910000Y-46670000D01*
X92165000Y-63641320D02*
X92165000Y-48520000D01*
X107585000Y-71050000D02*
X101055000Y-64520000D01*
X93043680Y-64520000D02*
X92165000Y-63641320D01*
X101055000Y-64520000D02*
X93043680Y-64520000D01*
%TO.N,/Controll/AUDIO_RESET_RELAY_5*%
X97048680Y-40900000D02*
X102060000Y-40900000D01*
X102060000Y-40900000D02*
X103910000Y-39050000D01*
X90525000Y-47423680D02*
X97048680Y-40900000D01*
X105045000Y-71050000D02*
X97876624Y-71050000D01*
X90525000Y-63698376D02*
X90525000Y-47423680D01*
X97876624Y-71050000D02*
X90525000Y-63698376D01*
%TO.N,/Controll/AMP_V-_OUT*%
X170925000Y-42300000D02*
X169125000Y-44100000D01*
X144225000Y-49825000D02*
X145375000Y-50975000D01*
X77521000Y-41196000D02*
X88825000Y-52500000D01*
X88825000Y-52500000D02*
X88825000Y-64300000D01*
X113730000Y-53330000D02*
X124946320Y-53330000D01*
X133325000Y-44025000D02*
X133325000Y-48375000D01*
X168625000Y-50300000D02*
X168625000Y-65300000D01*
X149550000Y-50950000D02*
X149550000Y-53350000D01*
X128075000Y-32195000D02*
X128075000Y-33025000D01*
X203931000Y-42132680D02*
X183438680Y-62625000D01*
X128085000Y-26827500D02*
X128085000Y-32185000D01*
X128875000Y-57258680D02*
X128875000Y-60975000D01*
X163925000Y-66700000D02*
X163925000Y-63570000D01*
X149550000Y-53350000D02*
X150775000Y-54575000D01*
X169125000Y-49800000D02*
X168625000Y-50300000D01*
X128575000Y-39275000D02*
X133325000Y-44025000D01*
X142370000Y-64070000D02*
X144875000Y-66575000D01*
X163925000Y-63570000D02*
X162975000Y-62620000D01*
X128085000Y-32185000D02*
X128075000Y-32195000D01*
X150775000Y-54575000D02*
X150775000Y-61775000D01*
X107325000Y-46925000D02*
X113730000Y-53330000D01*
X88825000Y-64300000D02*
X91125000Y-66600000D01*
X183438680Y-62625000D02*
X183370000Y-62625000D01*
X133325000Y-48375000D02*
X134775000Y-49825000D01*
X203931000Y-26827500D02*
X203931000Y-42132680D01*
X169125000Y-44100000D02*
X169125000Y-49800000D01*
X102803000Y-26827500D02*
X107325000Y-31349500D01*
X142370000Y-62625000D02*
X142370000Y-64070000D01*
X134775000Y-49825000D02*
X144225000Y-49825000D01*
X124946320Y-53330000D02*
X128875000Y-57258680D01*
X77521000Y-26827500D02*
X77521000Y-41196000D01*
X107325000Y-31349500D02*
X107325000Y-34925000D01*
%TO.N,/Controll/AMP_V+_OUT*%
X190325000Y-52200000D02*
X189425000Y-52200000D01*
X167425000Y-43131500D02*
X167425000Y-47900000D01*
X82601000Y-26827500D02*
X82601000Y-43776000D01*
X133165000Y-26827500D02*
X133165000Y-33015000D01*
X163025000Y-52300000D02*
X163025000Y-54950000D01*
X172765750Y-37790750D02*
X167425000Y-43131500D01*
X111425000Y-48625000D02*
X112075000Y-49275000D01*
X163025000Y-54950000D02*
X162975000Y-55000000D01*
X112075000Y-49275000D02*
X115825000Y-49275000D01*
X110650000Y-32775000D02*
X111425000Y-32775000D01*
X132200000Y-51175000D02*
X138540000Y-51175000D01*
X133165000Y-33015000D02*
X133175000Y-33025000D01*
X115825000Y-49275000D02*
X118325000Y-51775000D01*
X82601000Y-43776000D02*
X89125000Y-50300000D01*
X107883000Y-26827500D02*
X107883000Y-30008000D01*
X107883000Y-30008000D02*
X110650000Y-32775000D01*
X138540000Y-51175000D02*
X142370000Y-55005000D01*
X194725000Y-47800000D02*
X190325000Y-52200000D01*
X167425000Y-47900000D02*
X163025000Y-52300000D01*
%TO.N,/Controll/PWR_RESET_RELAY_1*%
X167015000Y-56500000D02*
X167015000Y-66530000D01*
X165515000Y-55000000D02*
X167015000Y-56500000D01*
X167015000Y-66530000D02*
X162495000Y-71050000D01*
%TO.N,/Controll/PWR_RESET_RELAY_2*%
X182115000Y-58800000D02*
X174425000Y-58800000D01*
X172655000Y-60570000D02*
X172655000Y-71050000D01*
X185910000Y-55005000D02*
X182115000Y-58800000D01*
X174425000Y-58800000D02*
X172655000Y-60570000D01*
%TO.N,/Controll/3V3*%
X142785000Y-111240000D02*
X148230000Y-105795000D01*
X163121320Y-105795000D02*
X165045000Y-103871320D01*
X142785000Y-111800000D02*
X142785000Y-111240000D01*
X148230000Y-105795000D02*
X163121320Y-105795000D01*
X165045000Y-109580000D02*
X162825000Y-111800000D01*
X165045000Y-102690000D02*
X165045000Y-109580000D01*
X165045000Y-103871320D02*
X165045000Y-102690000D01*
%TO.N,/Controll/PD_GND_IN*%
X214488750Y-106016250D02*
X214538750Y-106066250D01*
X206625000Y-106150000D02*
X206758750Y-106016250D01*
X206758750Y-106016250D02*
X209800000Y-106016250D01*
X209800000Y-106016250D02*
X214488750Y-106016250D01*
%TO.N,/Controll/+15_IN*%
X217511250Y-98013750D02*
X217511250Y-95238750D01*
X214538750Y-100986250D02*
X217511250Y-98013750D01*
X217511250Y-95238750D02*
X217438750Y-95166250D01*
%TO.N,Net-(U4-VIN)*%
X211738750Y-93616250D02*
X211738750Y-85016250D01*
X217438750Y-87916250D02*
X211738750Y-93616250D01*
X217438750Y-82466250D02*
X217438750Y-87916250D01*
X211738750Y-85016250D02*
X212188750Y-84566250D01*
X212188750Y-84566250D02*
X212188750Y-73063750D01*
X212188750Y-73063750D02*
X211925000Y-72800000D01*
%TO.N,/Controll/PWR_RESET_RELAY_4*%
X124325000Y-55180000D02*
X127575000Y-58430000D01*
X127575000Y-58430000D02*
X127575000Y-66980000D01*
X127575000Y-66980000D02*
X131585000Y-70990000D01*
%TO.N,/Controll/AUDIO_SET_GPIO_1*%
X175205000Y-78680000D02*
X175195000Y-78670000D01*
X175205000Y-84910000D02*
X175205000Y-78680000D01*
%TO.N,/Controll/AUDIO_RESET_GPIO_1*%
X172665000Y-84910000D02*
X172665000Y-78680000D01*
X172665000Y-78680000D02*
X172655000Y-78670000D01*
%TO.N,/Controll/PWR_SET_GPIO_1*%
X167585000Y-84910000D02*
X167585000Y-81200000D01*
X167585000Y-81200000D02*
X170115000Y-78670000D01*
%TO.N,/Controll/PWR_RESET_GPIO_1*%
X165045000Y-84910000D02*
X165045000Y-81200000D01*
X165045000Y-81200000D02*
X167575000Y-78670000D01*
%TO.N,/Controll/AUDIO_SET_GPIO_2*%
X162505000Y-81200000D02*
X165035000Y-78670000D01*
X162505000Y-84910000D02*
X162505000Y-81200000D01*
%TO.N,/Controll/AUDIO_RESET_GPIO_2*%
X162495000Y-78958426D02*
X162495000Y-78670000D01*
X159965000Y-81488426D02*
X162495000Y-78958426D01*
X159965000Y-84910000D02*
X159965000Y-81488426D01*
%TO.N,/Controll/PWR_SET_GPIO_2*%
X158436606Y-80170000D02*
X159586370Y-80170000D01*
X159955000Y-79801370D02*
X159955000Y-78670000D01*
X159586370Y-80170000D02*
X159955000Y-79801370D01*
X154885000Y-84910000D02*
X154885000Y-83721606D01*
X154885000Y-83721606D02*
X158436606Y-80170000D01*
%TO.N,/Controll/PWR_RESET_GPIO_2*%
X152345000Y-84910000D02*
X152345000Y-83728680D01*
X152345000Y-83728680D02*
X157403680Y-78670000D01*
X157403680Y-78670000D02*
X157415000Y-78670000D01*
%TO.N,/Controll/AUDIO_SET_GPIO_3*%
X149365000Y-78610000D02*
X149365000Y-84470000D01*
X149365000Y-84470000D02*
X149805000Y-84910000D01*
%TO.N,/Controll/AUDIO_RESET_GPIO_3*%
X146825000Y-84470000D02*
X147265000Y-84910000D01*
X146825000Y-78610000D02*
X146825000Y-84470000D01*
%TO.N,/Controll/PWR_SET_GPIO_3*%
X142185000Y-80710000D02*
X142185000Y-84910000D01*
X144285000Y-78610000D02*
X142185000Y-80710000D01*
%TO.N,/Controll/PWR_RESET_GPIO_3*%
X141745000Y-78610000D02*
X139645000Y-80710000D01*
X139645000Y-80710000D02*
X139645000Y-84910000D01*
%TO.N,/Controll/AUDIO_SET_GPIO_4*%
X137105000Y-80710000D02*
X137105000Y-84910000D01*
X139205000Y-78610000D02*
X137105000Y-80710000D01*
%TO.N,/Controll/AUDIO_RESET_GPIO_4*%
X134565000Y-80710000D02*
X134565000Y-84910000D01*
X134565000Y-80710000D02*
X136665000Y-78610000D01*
%TO.N,/Controll/PWR_SET_GPIO_4*%
X134125000Y-79070000D02*
X129485000Y-83710000D01*
X129485000Y-83710000D02*
X129485000Y-84910000D01*
X134125000Y-78610000D02*
X134125000Y-79070000D01*
%TO.N,/Controll/PWR_RESET_GPIO_4*%
X126945000Y-84910000D02*
X126945000Y-83250000D01*
X126945000Y-83250000D02*
X131585000Y-78610000D01*
%TO.N,/Controll/SDA*%
X139645000Y-102690000D02*
X139645000Y-109860000D01*
X139645000Y-109860000D02*
X137705000Y-111800000D01*
%TO.N,/Controll/SCL*%
X142185000Y-102690000D02*
X142185000Y-109860000D01*
X142185000Y-109860000D02*
X140245000Y-111800000D01*
%TO.N,/Controll/AUDIO_SET_RELAY_2*%
X171225000Y-69940000D02*
X171225000Y-55000000D01*
X174225000Y-52000000D02*
X185425000Y-52000000D01*
X170115000Y-71050000D02*
X171225000Y-69940000D01*
X185910000Y-51515000D02*
X185910000Y-46670000D01*
X171225000Y-55000000D02*
X174225000Y-52000000D01*
X185425000Y-52000000D02*
X185910000Y-51515000D01*
%TO.N,/Controll/AUDIO_RESET_RELAY_2*%
X167575000Y-71050000D02*
X169925000Y-68700000D01*
X184595000Y-43000000D02*
X185910000Y-41685000D01*
X185910000Y-41685000D02*
X185910000Y-39050000D01*
X169925000Y-53000000D02*
X171225000Y-51700000D01*
X169925000Y-68700000D02*
X169925000Y-53000000D01*
X171225000Y-51700000D02*
X171225000Y-46000000D01*
X174225000Y-43000000D02*
X184595000Y-43000000D01*
X171225000Y-46000000D02*
X174225000Y-43000000D01*
%TO.N,/Controll/AUDIO_SET_RELAY_1*%
X153855000Y-54028680D02*
X159393680Y-48490000D01*
X163595000Y-48490000D02*
X165445000Y-46640000D01*
X153855000Y-64950000D02*
X153855000Y-54028680D01*
X159393680Y-48490000D02*
X163595000Y-48490000D01*
X159955000Y-71050000D02*
X153855000Y-64950000D01*
%TO.N,/Controll/AUDIO_RESET_RELAY_1*%
X165445000Y-41780000D02*
X165445000Y-39020000D01*
X157415000Y-71050000D02*
X152655000Y-66290000D01*
X156653680Y-42800000D02*
X164425000Y-42800000D01*
X164425000Y-42800000D02*
X165445000Y-41780000D01*
X152655000Y-46798680D02*
X156653680Y-42800000D01*
X152655000Y-66290000D02*
X152655000Y-46798680D01*
%TO.N,/Controll/AUDIO_SET_RELAY_3*%
X148175000Y-69800000D02*
X148175000Y-50425000D01*
X148877944Y-48077944D02*
X148875000Y-48077944D01*
X148875000Y-48077944D02*
X147467056Y-46670000D01*
X149575000Y-49025000D02*
X149575000Y-48775000D01*
X149575000Y-48775000D02*
X148877944Y-48077944D01*
X147467056Y-46670000D02*
X144985000Y-46670000D01*
X148175000Y-50425000D02*
X149575000Y-49025000D01*
X149365000Y-70990000D02*
X148175000Y-69800000D01*
%TO.N,/Controll/AUDIO_RESET_RELAY_3*%
X146825000Y-49425000D02*
X147675000Y-48575000D01*
X150775000Y-44840000D02*
X144985000Y-39050000D01*
X146825000Y-70990000D02*
X146825000Y-49425000D01*
X150775000Y-48600000D02*
X150775000Y-44840000D01*
%TO.N,/Controll/PWR_RESET_RELAY_3*%
X141700000Y-67875000D02*
X137528680Y-67875000D01*
X144875000Y-57675000D02*
X144875000Y-55040000D01*
X141745000Y-70990000D02*
X141745000Y-67920000D01*
X144875000Y-55040000D02*
X144910000Y-55005000D01*
X133250000Y-57675000D02*
X144875000Y-57675000D01*
X141745000Y-67920000D02*
X141700000Y-67875000D01*
X133250000Y-63596320D02*
X133250000Y-57675000D01*
X137528680Y-67875000D02*
X133250000Y-63596320D01*
%TD*%
M02*
