%TF.GenerationSoftware,KiCad,Pcbnew,10.0.1*%
%TF.CreationDate,2026-06-17T20:16:28+09:00*%
%TF.ProjectId,AudioCase_1_main,41756469-6f43-4617-9365-5f315f6d6169,rev?*%
%TF.SameCoordinates,Original*%
%TF.FileFunction,Legend,Top*%
%TF.FilePolarity,Positive*%
%FSLAX46Y46*%
G04 Gerber Fmt 4.6, Leading zero omitted, Abs format (unit mm)*
G04 Created by KiCad (PCBNEW 10.0.1) date 2026-06-17 20:16:28*
%MOMM*%
%LPD*%
G01*
G04 APERTURE LIST*
G04 Aperture macros list*
%AMRoundRect*
0 Rectangle with rounded corners*
0 $1 Rounding radius*
0 $2 $3 $4 $5 $6 $7 $8 $9 X,Y pos of 4 corners*
0 Add a 4 corners polygon primitive as box body*
4,1,4,$2,$3,$4,$5,$6,$7,$8,$9,$2,$3,0*
0 Add four circle primitives for the rounded corners*
1,1,$1+$1,$2,$3*
1,1,$1+$1,$4,$5*
1,1,$1+$1,$6,$7*
1,1,$1+$1,$8,$9*
0 Add four rect primitives between the rounded corners*
20,1,$1+$1,$2,$3,$4,$5,0*
20,1,$1+$1,$4,$5,$6,$7,0*
20,1,$1+$1,$6,$7,$8,$9,0*
20,1,$1+$1,$8,$9,$2,$3,0*%
%AMFreePoly0*
4,1,37,0.800000,0.796148,0.878414,0.796148,1.032228,0.765552,1.177117,0.705537,1.307515,0.618408,1.418408,0.507515,1.505537,0.377117,1.565552,0.232228,1.596148,0.078414,1.596148,-0.078414,1.565552,-0.232228,1.505537,-0.377117,1.418408,-0.507515,1.307515,-0.618408,1.177117,-0.705537,1.032228,-0.765552,0.878414,-0.796148,0.800000,-0.796148,0.800000,-0.800000,-1.400000,-0.800000,
-1.403843,-0.796157,-1.439018,-0.796157,-1.511114,-0.766294,-1.566294,-0.711114,-1.596157,-0.639018,-1.596157,-0.603843,-1.600000,-0.600000,-1.600000,0.600000,-1.596157,0.603843,-1.596157,0.639018,-1.566294,0.711114,-1.511114,0.766294,-1.439018,0.796157,-1.403843,0.796157,-1.400000,0.800000,0.800000,0.800000,0.800000,0.796148,0.800000,0.796148,$1*%
%AMFreePoly1*
4,1,37,1.403843,0.796157,1.439018,0.796157,1.511114,0.766294,1.566294,0.711114,1.596157,0.639018,1.596157,0.603843,1.600000,0.600000,1.600000,-0.600000,1.596157,-0.603843,1.596157,-0.639018,1.566294,-0.711114,1.511114,-0.766294,1.439018,-0.796157,1.403843,-0.796157,1.400000,-0.800000,-0.800000,-0.800000,-0.800000,-0.796148,-0.878414,-0.796148,-1.032228,-0.765552,-1.177117,-0.705537,
-1.307515,-0.618408,-1.418408,-0.507515,-1.505537,-0.377117,-1.565552,-0.232228,-1.596148,-0.078414,-1.596148,0.078414,-1.565552,0.232228,-1.505537,0.377117,-1.418408,0.507515,-1.307515,0.618408,-1.177117,0.705537,-1.032228,0.765552,-0.878414,0.796148,-0.800000,0.796148,-0.800000,0.800000,1.400000,0.800000,1.403843,0.796157,1.403843,0.796157,$1*%
%AMFreePoly2*
4,1,37,0.603843,0.796157,0.639018,0.796157,0.711114,0.766294,0.766294,0.711114,0.796157,0.639018,0.796157,0.603843,0.800000,0.600000,0.800000,-0.600000,0.796157,-0.603843,0.796157,-0.639018,0.766294,-0.711114,0.711114,-0.766294,0.639018,-0.796157,0.603843,-0.796157,0.600000,-0.800000,0.000000,-0.800000,0.000000,-0.796148,-0.078414,-0.796148,-0.232228,-0.765552,-0.377117,-0.705537,
-0.507515,-0.618408,-0.618408,-0.507515,-0.705537,-0.377117,-0.765552,-0.232228,-0.796148,-0.078414,-0.796148,0.078414,-0.765552,0.232228,-0.705537,0.377117,-0.618408,0.507515,-0.507515,0.618408,-0.377117,0.705537,-0.232228,0.765552,-0.078414,0.796148,0.000000,0.796148,0.000000,0.800000,0.600000,0.800000,0.603843,0.796157,0.603843,0.796157,$1*%
%AMFreePoly3*
4,1,37,0.000000,0.796148,0.078414,0.796148,0.232228,0.765552,0.377117,0.705537,0.507515,0.618408,0.618408,0.507515,0.705537,0.377117,0.765552,0.232228,0.796148,0.078414,0.796148,-0.078414,0.765552,-0.232228,0.705537,-0.377117,0.618408,-0.507515,0.507515,-0.618408,0.377117,-0.705537,0.232228,-0.765552,0.078414,-0.796148,0.000000,-0.796148,0.000000,-0.800000,-0.600000,-0.800000,
-0.603843,-0.796157,-0.639018,-0.796157,-0.711114,-0.766294,-0.766294,-0.711114,-0.796157,-0.639018,-0.796157,-0.603843,-0.800000,-0.600000,-0.800000,0.600000,-0.796157,0.603843,-0.796157,0.639018,-0.766294,0.711114,-0.711114,0.766294,-0.639018,0.796157,-0.603843,0.796157,-0.600000,0.800000,0.000000,0.800000,0.000000,0.796148,0.000000,0.796148,$1*%
G04 Aperture macros list end*
%ADD10C,0.300000*%
%ADD11C,0.150000*%
%ADD12C,0.120000*%
%ADD13C,0.100000*%
%ADD14C,2.400000*%
%ADD15RoundRect,0.250000X1.050000X1.050000X-1.050000X1.050000X-1.050000X-1.050000X1.050000X-1.050000X0*%
%ADD16C,2.600000*%
%ADD17R,1.700000X1.700000*%
%ADD18C,1.700000*%
%ADD19RoundRect,0.250000X1.050000X-1.050000X1.050000X1.050000X-1.050000X1.050000X-1.050000X-1.050000X0*%
%ADD20O,1.600000X2.300000*%
%ADD21R,2.000000X2.000000*%
%ADD22C,2.000000*%
%ADD23C,1.600000*%
%ADD24C,3.200000*%
%ADD25RoundRect,0.250000X0.550000X0.550000X-0.550000X0.550000X-0.550000X-0.550000X0.550000X-0.550000X0*%
%ADD26RoundRect,0.250000X-1.050000X1.050000X-1.050000X-1.050000X1.050000X-1.050000X1.050000X1.050000X0*%
%ADD27RoundRect,0.250000X-0.550000X-0.550000X0.550000X-0.550000X0.550000X0.550000X-0.550000X0.550000X0*%
%ADD28C,2.200000*%
%ADD29C,1.850000*%
%ADD30FreePoly0,270.000000*%
%ADD31RoundRect,0.200000X-0.600000X0.600000X-0.600000X-0.600000X0.600000X-0.600000X0.600000X0.600000X0*%
%ADD32RoundRect,0.800000X-0.000010X0.800000X-0.000010X-0.800000X0.000010X-0.800000X0.000010X0.800000X0*%
%ADD33FreePoly1,270.000000*%
%ADD34FreePoly2,270.000000*%
%ADD35FreePoly3,270.000000*%
%ADD36R,1.600000X1.600000*%
%ADD37O,1.600000X1.600000*%
%ADD38RoundRect,0.250000X0.412500X0.650000X-0.412500X0.650000X-0.412500X-0.650000X0.412500X-0.650000X0*%
G04 APERTURE END LIST*
D10*
X97343796Y-34425828D02*
X96629510Y-34425828D01*
X96629510Y-34425828D02*
X96629510Y-32925828D01*
X122893796Y-34425828D02*
X122179510Y-34425828D01*
X122179510Y-34425828D02*
X122179510Y-32925828D01*
X148143796Y-34375828D02*
X147429510Y-34375828D01*
X147429510Y-34375828D02*
X147429510Y-32875828D01*
X160386653Y-34575828D02*
X159886653Y-33861542D01*
X159529510Y-34575828D02*
X159529510Y-33075828D01*
X159529510Y-33075828D02*
X160100939Y-33075828D01*
X160100939Y-33075828D02*
X160243796Y-33147257D01*
X160243796Y-33147257D02*
X160315225Y-33218685D01*
X160315225Y-33218685D02*
X160386653Y-33361542D01*
X160386653Y-33361542D02*
X160386653Y-33575828D01*
X160386653Y-33575828D02*
X160315225Y-33718685D01*
X160315225Y-33718685D02*
X160243796Y-33790114D01*
X160243796Y-33790114D02*
X160100939Y-33861542D01*
X160100939Y-33861542D02*
X159529510Y-33861542D01*
X173443796Y-34425828D02*
X172729510Y-34425828D01*
X172729510Y-34425828D02*
X172729510Y-32925828D01*
X198893796Y-34425828D02*
X198179510Y-34425828D01*
X198179510Y-34425828D02*
X198179510Y-32925828D01*
X74320489Y-52654400D02*
X73177632Y-52654400D01*
X73749060Y-53225828D02*
X73749060Y-52082971D01*
X221470489Y-99254400D02*
X220327632Y-99254400D01*
X220899060Y-99825828D02*
X220899060Y-98682971D01*
X88491917Y-34575828D02*
X87991917Y-33861542D01*
X87634774Y-34575828D02*
X87634774Y-33075828D01*
X87634774Y-33075828D02*
X88206203Y-33075828D01*
X88206203Y-33075828D02*
X88349060Y-33147257D01*
X88349060Y-33147257D02*
X88420489Y-33218685D01*
X88420489Y-33218685D02*
X88491917Y-33361542D01*
X88491917Y-33361542D02*
X88491917Y-33575828D01*
X88491917Y-33575828D02*
X88420489Y-33718685D01*
X88420489Y-33718685D02*
X88349060Y-33790114D01*
X88349060Y-33790114D02*
X88206203Y-33861542D01*
X88206203Y-33861542D02*
X87634774Y-33861542D01*
X114041917Y-34575828D02*
X113541917Y-33861542D01*
X113184774Y-34575828D02*
X113184774Y-33075828D01*
X113184774Y-33075828D02*
X113756203Y-33075828D01*
X113756203Y-33075828D02*
X113899060Y-33147257D01*
X113899060Y-33147257D02*
X113970489Y-33218685D01*
X113970489Y-33218685D02*
X114041917Y-33361542D01*
X114041917Y-33361542D02*
X114041917Y-33575828D01*
X114041917Y-33575828D02*
X113970489Y-33718685D01*
X113970489Y-33718685D02*
X113899060Y-33790114D01*
X113899060Y-33790114D02*
X113756203Y-33861542D01*
X113756203Y-33861542D02*
X113184774Y-33861542D01*
X139291917Y-34525828D02*
X138791917Y-33811542D01*
X138434774Y-34525828D02*
X138434774Y-33025828D01*
X138434774Y-33025828D02*
X139006203Y-33025828D01*
X139006203Y-33025828D02*
X139149060Y-33097257D01*
X139149060Y-33097257D02*
X139220489Y-33168685D01*
X139220489Y-33168685D02*
X139291917Y-33311542D01*
X139291917Y-33311542D02*
X139291917Y-33525828D01*
X139291917Y-33525828D02*
X139220489Y-33668685D01*
X139220489Y-33668685D02*
X139149060Y-33740114D01*
X139149060Y-33740114D02*
X139006203Y-33811542D01*
X139006203Y-33811542D02*
X138434774Y-33811542D01*
X151534774Y-34425828D02*
X150820488Y-34425828D01*
X150820488Y-34425828D02*
X150820488Y-32925828D01*
X164591917Y-34575828D02*
X164091917Y-33861542D01*
X163734774Y-34575828D02*
X163734774Y-33075828D01*
X163734774Y-33075828D02*
X164306203Y-33075828D01*
X164306203Y-33075828D02*
X164449060Y-33147257D01*
X164449060Y-33147257D02*
X164520489Y-33218685D01*
X164520489Y-33218685D02*
X164591917Y-33361542D01*
X164591917Y-33361542D02*
X164591917Y-33575828D01*
X164591917Y-33575828D02*
X164520489Y-33718685D01*
X164520489Y-33718685D02*
X164449060Y-33790114D01*
X164449060Y-33790114D02*
X164306203Y-33861542D01*
X164306203Y-33861542D02*
X163734774Y-33861542D01*
X190041917Y-34575828D02*
X189541917Y-33861542D01*
X189184774Y-34575828D02*
X189184774Y-33075828D01*
X189184774Y-33075828D02*
X189756203Y-33075828D01*
X189756203Y-33075828D02*
X189899060Y-33147257D01*
X189899060Y-33147257D02*
X189970489Y-33218685D01*
X189970489Y-33218685D02*
X190041917Y-33361542D01*
X190041917Y-33361542D02*
X190041917Y-33575828D01*
X190041917Y-33575828D02*
X189970489Y-33718685D01*
X189970489Y-33718685D02*
X189899060Y-33790114D01*
X189899060Y-33790114D02*
X189756203Y-33861542D01*
X189756203Y-33861542D02*
X189184774Y-33861542D01*
X84554400Y-32829510D02*
X84554400Y-33972368D01*
X85125828Y-33400939D02*
X83982971Y-33400939D01*
X109854400Y-33029510D02*
X109854400Y-34172368D01*
X110425828Y-33600939D02*
X109282971Y-33600939D01*
X135254400Y-32879510D02*
X135254400Y-34022368D01*
X135825828Y-33450939D02*
X134682971Y-33450939D01*
X186004400Y-33179510D02*
X186004400Y-34322368D01*
X186575828Y-33750939D02*
X185432971Y-33750939D01*
X211254400Y-33079510D02*
X211254400Y-34222368D01*
X211825828Y-33650939D02*
X210682971Y-33650939D01*
X220904400Y-107629510D02*
X220904400Y-108772368D01*
X74779510Y-33395600D02*
X75922368Y-33395600D01*
X100079510Y-33595600D02*
X101222368Y-33595600D01*
X125479510Y-33445600D02*
X126622368Y-33445600D01*
X175929510Y-33395600D02*
X177072368Y-33395600D01*
X201479510Y-33645600D02*
X202622368Y-33645600D01*
X73845600Y-65120489D02*
X73845600Y-63977632D01*
D11*
X214449759Y-89149583D02*
X214449759Y-89482916D01*
X214973569Y-89482916D02*
X213973569Y-89482916D01*
X213973569Y-89482916D02*
X213973569Y-89006726D01*
X214068807Y-88673392D02*
X214021188Y-88625773D01*
X214021188Y-88625773D02*
X213973569Y-88530535D01*
X213973569Y-88530535D02*
X213973569Y-88292440D01*
X213973569Y-88292440D02*
X214021188Y-88197202D01*
X214021188Y-88197202D02*
X214068807Y-88149583D01*
X214068807Y-88149583D02*
X214164045Y-88101964D01*
X214164045Y-88101964D02*
X214259283Y-88101964D01*
X214259283Y-88101964D02*
X214402140Y-88149583D01*
X214402140Y-88149583D02*
X214973569Y-88721011D01*
X214973569Y-88721011D02*
X214973569Y-88101964D01*
X155097476Y-32602319D02*
X155097476Y-33316604D01*
X155097476Y-33316604D02*
X155049857Y-33459461D01*
X155049857Y-33459461D02*
X154954619Y-33554700D01*
X154954619Y-33554700D02*
X154811762Y-33602319D01*
X154811762Y-33602319D02*
X154716524Y-33602319D01*
X156097476Y-33602319D02*
X155526048Y-33602319D01*
X155811762Y-33602319D02*
X155811762Y-32602319D01*
X155811762Y-32602319D02*
X155716524Y-32745176D01*
X155716524Y-32745176D02*
X155621286Y-32840414D01*
X155621286Y-32840414D02*
X155526048Y-32888033D01*
X156954619Y-32602319D02*
X156764143Y-32602319D01*
X156764143Y-32602319D02*
X156668905Y-32649938D01*
X156668905Y-32649938D02*
X156621286Y-32697557D01*
X156621286Y-32697557D02*
X156526048Y-32840414D01*
X156526048Y-32840414D02*
X156478429Y-33030890D01*
X156478429Y-33030890D02*
X156478429Y-33411842D01*
X156478429Y-33411842D02*
X156526048Y-33507080D01*
X156526048Y-33507080D02*
X156573667Y-33554700D01*
X156573667Y-33554700D02*
X156668905Y-33602319D01*
X156668905Y-33602319D02*
X156859381Y-33602319D01*
X156859381Y-33602319D02*
X156954619Y-33554700D01*
X156954619Y-33554700D02*
X157002238Y-33507080D01*
X157002238Y-33507080D02*
X157049857Y-33411842D01*
X157049857Y-33411842D02*
X157049857Y-33173747D01*
X157049857Y-33173747D02*
X157002238Y-33078509D01*
X157002238Y-33078509D02*
X156954619Y-33030890D01*
X156954619Y-33030890D02*
X156859381Y-32983271D01*
X156859381Y-32983271D02*
X156668905Y-32983271D01*
X156668905Y-32983271D02*
X156573667Y-33030890D01*
X156573667Y-33030890D02*
X156526048Y-33078509D01*
X156526048Y-33078509D02*
X156478429Y-33173747D01*
X152733334Y-20919104D02*
X153209524Y-20919104D01*
X152638096Y-21204819D02*
X152971429Y-20204819D01*
X152971429Y-20204819D02*
X153304762Y-21204819D01*
X153638096Y-20204819D02*
X153638096Y-21014342D01*
X153638096Y-21014342D02*
X153685715Y-21109580D01*
X153685715Y-21109580D02*
X153733334Y-21157200D01*
X153733334Y-21157200D02*
X153828572Y-21204819D01*
X153828572Y-21204819D02*
X154019048Y-21204819D01*
X154019048Y-21204819D02*
X154114286Y-21157200D01*
X154114286Y-21157200D02*
X154161905Y-21109580D01*
X154161905Y-21109580D02*
X154209524Y-21014342D01*
X154209524Y-21014342D02*
X154209524Y-20204819D01*
X154685715Y-21204819D02*
X154685715Y-20204819D01*
X154685715Y-20204819D02*
X154923810Y-20204819D01*
X154923810Y-20204819D02*
X155066667Y-20252438D01*
X155066667Y-20252438D02*
X155161905Y-20347676D01*
X155161905Y-20347676D02*
X155209524Y-20442914D01*
X155209524Y-20442914D02*
X155257143Y-20633390D01*
X155257143Y-20633390D02*
X155257143Y-20776247D01*
X155257143Y-20776247D02*
X155209524Y-20966723D01*
X155209524Y-20966723D02*
X155161905Y-21061961D01*
X155161905Y-21061961D02*
X155066667Y-21157200D01*
X155066667Y-21157200D02*
X154923810Y-21204819D01*
X154923810Y-21204819D02*
X154685715Y-21204819D01*
X155685715Y-21204819D02*
X155685715Y-20204819D01*
X156352381Y-20204819D02*
X156542857Y-20204819D01*
X156542857Y-20204819D02*
X156638095Y-20252438D01*
X156638095Y-20252438D02*
X156733333Y-20347676D01*
X156733333Y-20347676D02*
X156780952Y-20538152D01*
X156780952Y-20538152D02*
X156780952Y-20871485D01*
X156780952Y-20871485D02*
X156733333Y-21061961D01*
X156733333Y-21061961D02*
X156638095Y-21157200D01*
X156638095Y-21157200D02*
X156542857Y-21204819D01*
X156542857Y-21204819D02*
X156352381Y-21204819D01*
X156352381Y-21204819D02*
X156257143Y-21157200D01*
X156257143Y-21157200D02*
X156161905Y-21061961D01*
X156161905Y-21061961D02*
X156114286Y-20871485D01*
X156114286Y-20871485D02*
X156114286Y-20538152D01*
X156114286Y-20538152D02*
X156161905Y-20347676D01*
X156161905Y-20347676D02*
X156257143Y-20252438D01*
X156257143Y-20252438D02*
X156352381Y-20204819D01*
X156971429Y-21300057D02*
X157733333Y-21300057D01*
X157971429Y-21204819D02*
X157971429Y-20204819D01*
X158447619Y-21204819D02*
X158447619Y-20204819D01*
X158447619Y-20204819D02*
X159019047Y-21204819D01*
X159019047Y-21204819D02*
X159019047Y-20204819D01*
X152279819Y-112609523D02*
X152994104Y-112609523D01*
X152994104Y-112609523D02*
X153136961Y-112657142D01*
X153136961Y-112657142D02*
X153232200Y-112752380D01*
X153232200Y-112752380D02*
X153279819Y-112895237D01*
X153279819Y-112895237D02*
X153279819Y-112990475D01*
X153279819Y-111609523D02*
X153279819Y-112180951D01*
X153279819Y-111895237D02*
X152279819Y-111895237D01*
X152279819Y-111895237D02*
X152422676Y-111990475D01*
X152422676Y-111990475D02*
X152517914Y-112085713D01*
X152517914Y-112085713D02*
X152565533Y-112180951D01*
X152279819Y-111276189D02*
X152279819Y-110657142D01*
X152279819Y-110657142D02*
X152660771Y-110990475D01*
X152660771Y-110990475D02*
X152660771Y-110847618D01*
X152660771Y-110847618D02*
X152708390Y-110752380D01*
X152708390Y-110752380D02*
X152756009Y-110704761D01*
X152756009Y-110704761D02*
X152851247Y-110657142D01*
X152851247Y-110657142D02*
X153089342Y-110657142D01*
X153089342Y-110657142D02*
X153184580Y-110704761D01*
X153184580Y-110704761D02*
X153232200Y-110752380D01*
X153232200Y-110752380D02*
X153279819Y-110847618D01*
X153279819Y-110847618D02*
X153279819Y-111133332D01*
X153279819Y-111133332D02*
X153232200Y-111228570D01*
X153232200Y-111228570D02*
X153184580Y-111276189D01*
X207673569Y-104335773D02*
X208387854Y-104335773D01*
X208387854Y-104335773D02*
X208530711Y-104383392D01*
X208530711Y-104383392D02*
X208625950Y-104478630D01*
X208625950Y-104478630D02*
X208673569Y-104621487D01*
X208673569Y-104621487D02*
X208673569Y-104716725D01*
X208673569Y-103335773D02*
X208673569Y-103907201D01*
X208673569Y-103621487D02*
X207673569Y-103621487D01*
X207673569Y-103621487D02*
X207816426Y-103716725D01*
X207816426Y-103716725D02*
X207911664Y-103811963D01*
X207911664Y-103811963D02*
X207959283Y-103907201D01*
X207673569Y-102431011D02*
X207673569Y-102907201D01*
X207673569Y-102907201D02*
X208149759Y-102954820D01*
X208149759Y-102954820D02*
X208102140Y-102907201D01*
X208102140Y-102907201D02*
X208054521Y-102811963D01*
X208054521Y-102811963D02*
X208054521Y-102573868D01*
X208054521Y-102573868D02*
X208102140Y-102478630D01*
X208102140Y-102478630D02*
X208149759Y-102431011D01*
X208149759Y-102431011D02*
X208244997Y-102383392D01*
X208244997Y-102383392D02*
X208483092Y-102383392D01*
X208483092Y-102383392D02*
X208578330Y-102431011D01*
X208578330Y-102431011D02*
X208625950Y-102478630D01*
X208625950Y-102478630D02*
X208673569Y-102573868D01*
X208673569Y-102573868D02*
X208673569Y-102811963D01*
X208673569Y-102811963D02*
X208625950Y-102907201D01*
X208625950Y-102907201D02*
X208578330Y-102954820D01*
X220713569Y-105431011D02*
X219713569Y-105431011D01*
X219713569Y-105431011D02*
X219713569Y-105050059D01*
X219713569Y-105050059D02*
X219761188Y-104954821D01*
X219761188Y-104954821D02*
X219808807Y-104907202D01*
X219808807Y-104907202D02*
X219904045Y-104859583D01*
X219904045Y-104859583D02*
X220046902Y-104859583D01*
X220046902Y-104859583D02*
X220142140Y-104907202D01*
X220142140Y-104907202D02*
X220189759Y-104954821D01*
X220189759Y-104954821D02*
X220237378Y-105050059D01*
X220237378Y-105050059D02*
X220237378Y-105431011D01*
X220713569Y-104431011D02*
X219713569Y-104431011D01*
X219713569Y-104431011D02*
X219713569Y-104192916D01*
X219713569Y-104192916D02*
X219761188Y-104050059D01*
X219761188Y-104050059D02*
X219856426Y-103954821D01*
X219856426Y-103954821D02*
X219951664Y-103907202D01*
X219951664Y-103907202D02*
X220142140Y-103859583D01*
X220142140Y-103859583D02*
X220284997Y-103859583D01*
X220284997Y-103859583D02*
X220475473Y-103907202D01*
X220475473Y-103907202D02*
X220570711Y-103954821D01*
X220570711Y-103954821D02*
X220665950Y-104050059D01*
X220665950Y-104050059D02*
X220713569Y-104192916D01*
X220713569Y-104192916D02*
X220713569Y-104431011D01*
X220808807Y-103669107D02*
X220808807Y-102907202D01*
X220713569Y-102669106D02*
X219713569Y-102669106D01*
X220713569Y-102192916D02*
X219713569Y-102192916D01*
X219713569Y-102192916D02*
X220713569Y-101621488D01*
X220713569Y-101621488D02*
X219713569Y-101621488D01*
X152329819Y-41513094D02*
X151329819Y-41513094D01*
X152329819Y-40941666D02*
X151758390Y-41370237D01*
X151329819Y-40941666D02*
X151901247Y-41513094D01*
X151425057Y-40560713D02*
X151377438Y-40513094D01*
X151377438Y-40513094D02*
X151329819Y-40417856D01*
X151329819Y-40417856D02*
X151329819Y-40179761D01*
X151329819Y-40179761D02*
X151377438Y-40084523D01*
X151377438Y-40084523D02*
X151425057Y-40036904D01*
X151425057Y-40036904D02*
X151520295Y-39989285D01*
X151520295Y-39989285D02*
X151615533Y-39989285D01*
X151615533Y-39989285D02*
X151758390Y-40036904D01*
X151758390Y-40036904D02*
X152329819Y-40608332D01*
X152329819Y-40608332D02*
X152329819Y-39989285D01*
X147159819Y-112634523D02*
X147874104Y-112634523D01*
X147874104Y-112634523D02*
X148016961Y-112682142D01*
X148016961Y-112682142D02*
X148112200Y-112777380D01*
X148112200Y-112777380D02*
X148159819Y-112920237D01*
X148159819Y-112920237D02*
X148159819Y-113015475D01*
X148159819Y-111634523D02*
X148159819Y-112205951D01*
X148159819Y-111920237D02*
X147159819Y-111920237D01*
X147159819Y-111920237D02*
X147302676Y-112015475D01*
X147302676Y-112015475D02*
X147397914Y-112110713D01*
X147397914Y-112110713D02*
X147445533Y-112205951D01*
X147159819Y-111301189D02*
X147159819Y-110634523D01*
X147159819Y-110634523D02*
X148159819Y-111063094D01*
X104533476Y-32602319D02*
X104533476Y-33316604D01*
X104533476Y-33316604D02*
X104485857Y-33459461D01*
X104485857Y-33459461D02*
X104390619Y-33554700D01*
X104390619Y-33554700D02*
X104247762Y-33602319D01*
X104247762Y-33602319D02*
X104152524Y-33602319D01*
X104962048Y-32697557D02*
X105009667Y-32649938D01*
X105009667Y-32649938D02*
X105104905Y-32602319D01*
X105104905Y-32602319D02*
X105343000Y-32602319D01*
X105343000Y-32602319D02*
X105438238Y-32649938D01*
X105438238Y-32649938D02*
X105485857Y-32697557D01*
X105485857Y-32697557D02*
X105533476Y-32792795D01*
X105533476Y-32792795D02*
X105533476Y-32888033D01*
X105533476Y-32888033D02*
X105485857Y-33030890D01*
X105485857Y-33030890D02*
X104914429Y-33602319D01*
X104914429Y-33602319D02*
X105533476Y-33602319D01*
X105914429Y-32697557D02*
X105962048Y-32649938D01*
X105962048Y-32649938D02*
X106057286Y-32602319D01*
X106057286Y-32602319D02*
X106295381Y-32602319D01*
X106295381Y-32602319D02*
X106390619Y-32649938D01*
X106390619Y-32649938D02*
X106438238Y-32697557D01*
X106438238Y-32697557D02*
X106485857Y-32792795D01*
X106485857Y-32792795D02*
X106485857Y-32888033D01*
X106485857Y-32888033D02*
X106438238Y-33030890D01*
X106438238Y-33030890D02*
X105866810Y-33602319D01*
X105866810Y-33602319D02*
X106485857Y-33602319D01*
X101604905Y-20919104D02*
X102081095Y-20919104D01*
X101509667Y-21204819D02*
X101843000Y-20204819D01*
X101843000Y-20204819D02*
X102176333Y-21204819D01*
X102509667Y-21204819D02*
X102509667Y-20204819D01*
X102509667Y-20204819D02*
X102843000Y-20919104D01*
X102843000Y-20919104D02*
X103176333Y-20204819D01*
X103176333Y-20204819D02*
X103176333Y-21204819D01*
X103652524Y-21204819D02*
X103652524Y-20204819D01*
X103652524Y-20204819D02*
X104033476Y-20204819D01*
X104033476Y-20204819D02*
X104128714Y-20252438D01*
X104128714Y-20252438D02*
X104176333Y-20300057D01*
X104176333Y-20300057D02*
X104223952Y-20395295D01*
X104223952Y-20395295D02*
X104223952Y-20538152D01*
X104223952Y-20538152D02*
X104176333Y-20633390D01*
X104176333Y-20633390D02*
X104128714Y-20681009D01*
X104128714Y-20681009D02*
X104033476Y-20728628D01*
X104033476Y-20728628D02*
X103652524Y-20728628D01*
X105081095Y-20538152D02*
X105081095Y-21204819D01*
X104843000Y-20157200D02*
X104604905Y-20871485D01*
X104604905Y-20871485D02*
X105223952Y-20871485D01*
X105366810Y-21300057D02*
X106128714Y-21300057D01*
X106366810Y-21204819D02*
X106366810Y-20204819D01*
X106366810Y-20204819D02*
X106747762Y-20204819D01*
X106747762Y-20204819D02*
X106843000Y-20252438D01*
X106843000Y-20252438D02*
X106890619Y-20300057D01*
X106890619Y-20300057D02*
X106938238Y-20395295D01*
X106938238Y-20395295D02*
X106938238Y-20538152D01*
X106938238Y-20538152D02*
X106890619Y-20633390D01*
X106890619Y-20633390D02*
X106843000Y-20681009D01*
X106843000Y-20681009D02*
X106747762Y-20728628D01*
X106747762Y-20728628D02*
X106366810Y-20728628D01*
X107271572Y-20204819D02*
X107509667Y-21204819D01*
X107509667Y-21204819D02*
X107700143Y-20490533D01*
X107700143Y-20490533D02*
X107890619Y-21204819D01*
X107890619Y-21204819D02*
X108128715Y-20204819D01*
X109081095Y-21204819D02*
X108747762Y-20728628D01*
X108509667Y-21204819D02*
X108509667Y-20204819D01*
X108509667Y-20204819D02*
X108890619Y-20204819D01*
X108890619Y-20204819D02*
X108985857Y-20252438D01*
X108985857Y-20252438D02*
X109033476Y-20300057D01*
X109033476Y-20300057D02*
X109081095Y-20395295D01*
X109081095Y-20395295D02*
X109081095Y-20538152D01*
X109081095Y-20538152D02*
X109033476Y-20633390D01*
X109033476Y-20633390D02*
X108985857Y-20681009D01*
X108985857Y-20681009D02*
X108890619Y-20728628D01*
X108890619Y-20728628D02*
X108509667Y-20728628D01*
X215013095Y-66979819D02*
X215013095Y-67789342D01*
X215013095Y-67789342D02*
X215060714Y-67884580D01*
X215060714Y-67884580D02*
X215108333Y-67932200D01*
X215108333Y-67932200D02*
X215203571Y-67979819D01*
X215203571Y-67979819D02*
X215394047Y-67979819D01*
X215394047Y-67979819D02*
X215489285Y-67932200D01*
X215489285Y-67932200D02*
X215536904Y-67884580D01*
X215536904Y-67884580D02*
X215584523Y-67789342D01*
X215584523Y-67789342D02*
X215584523Y-66979819D01*
X216536904Y-66979819D02*
X216060714Y-66979819D01*
X216060714Y-66979819D02*
X216013095Y-67456009D01*
X216013095Y-67456009D02*
X216060714Y-67408390D01*
X216060714Y-67408390D02*
X216155952Y-67360771D01*
X216155952Y-67360771D02*
X216394047Y-67360771D01*
X216394047Y-67360771D02*
X216489285Y-67408390D01*
X216489285Y-67408390D02*
X216536904Y-67456009D01*
X216536904Y-67456009D02*
X216584523Y-67551247D01*
X216584523Y-67551247D02*
X216584523Y-67789342D01*
X216584523Y-67789342D02*
X216536904Y-67884580D01*
X216536904Y-67884580D02*
X216489285Y-67932200D01*
X216489285Y-67932200D02*
X216394047Y-67979819D01*
X216394047Y-67979819D02*
X216155952Y-67979819D01*
X216155952Y-67979819D02*
X216060714Y-67932200D01*
X216060714Y-67932200D02*
X216013095Y-67884580D01*
X79251476Y-32602319D02*
X79251476Y-33316604D01*
X79251476Y-33316604D02*
X79203857Y-33459461D01*
X79203857Y-33459461D02*
X79108619Y-33554700D01*
X79108619Y-33554700D02*
X78965762Y-33602319D01*
X78965762Y-33602319D02*
X78870524Y-33602319D01*
X79680048Y-32697557D02*
X79727667Y-32649938D01*
X79727667Y-32649938D02*
X79822905Y-32602319D01*
X79822905Y-32602319D02*
X80061000Y-32602319D01*
X80061000Y-32602319D02*
X80156238Y-32649938D01*
X80156238Y-32649938D02*
X80203857Y-32697557D01*
X80203857Y-32697557D02*
X80251476Y-32792795D01*
X80251476Y-32792795D02*
X80251476Y-32888033D01*
X80251476Y-32888033D02*
X80203857Y-33030890D01*
X80203857Y-33030890D02*
X79632429Y-33602319D01*
X79632429Y-33602319D02*
X80251476Y-33602319D01*
X80584810Y-32602319D02*
X81203857Y-32602319D01*
X81203857Y-32602319D02*
X80870524Y-32983271D01*
X80870524Y-32983271D02*
X81013381Y-32983271D01*
X81013381Y-32983271D02*
X81108619Y-33030890D01*
X81108619Y-33030890D02*
X81156238Y-33078509D01*
X81156238Y-33078509D02*
X81203857Y-33173747D01*
X81203857Y-33173747D02*
X81203857Y-33411842D01*
X81203857Y-33411842D02*
X81156238Y-33507080D01*
X81156238Y-33507080D02*
X81108619Y-33554700D01*
X81108619Y-33554700D02*
X81013381Y-33602319D01*
X81013381Y-33602319D02*
X80727667Y-33602319D01*
X80727667Y-33602319D02*
X80632429Y-33554700D01*
X80632429Y-33554700D02*
X80584810Y-33507080D01*
X76322905Y-20919104D02*
X76799095Y-20919104D01*
X76227667Y-21204819D02*
X76561000Y-20204819D01*
X76561000Y-20204819D02*
X76894333Y-21204819D01*
X77227667Y-21204819D02*
X77227667Y-20204819D01*
X77227667Y-20204819D02*
X77561000Y-20919104D01*
X77561000Y-20919104D02*
X77894333Y-20204819D01*
X77894333Y-20204819D02*
X77894333Y-21204819D01*
X78370524Y-21204819D02*
X78370524Y-20204819D01*
X78370524Y-20204819D02*
X78751476Y-20204819D01*
X78751476Y-20204819D02*
X78846714Y-20252438D01*
X78846714Y-20252438D02*
X78894333Y-20300057D01*
X78894333Y-20300057D02*
X78941952Y-20395295D01*
X78941952Y-20395295D02*
X78941952Y-20538152D01*
X78941952Y-20538152D02*
X78894333Y-20633390D01*
X78894333Y-20633390D02*
X78846714Y-20681009D01*
X78846714Y-20681009D02*
X78751476Y-20728628D01*
X78751476Y-20728628D02*
X78370524Y-20728628D01*
X79846714Y-20204819D02*
X79370524Y-20204819D01*
X79370524Y-20204819D02*
X79322905Y-20681009D01*
X79322905Y-20681009D02*
X79370524Y-20633390D01*
X79370524Y-20633390D02*
X79465762Y-20585771D01*
X79465762Y-20585771D02*
X79703857Y-20585771D01*
X79703857Y-20585771D02*
X79799095Y-20633390D01*
X79799095Y-20633390D02*
X79846714Y-20681009D01*
X79846714Y-20681009D02*
X79894333Y-20776247D01*
X79894333Y-20776247D02*
X79894333Y-21014342D01*
X79894333Y-21014342D02*
X79846714Y-21109580D01*
X79846714Y-21109580D02*
X79799095Y-21157200D01*
X79799095Y-21157200D02*
X79703857Y-21204819D01*
X79703857Y-21204819D02*
X79465762Y-21204819D01*
X79465762Y-21204819D02*
X79370524Y-21157200D01*
X79370524Y-21157200D02*
X79322905Y-21109580D01*
X80084810Y-21300057D02*
X80846714Y-21300057D01*
X81084810Y-21204819D02*
X81084810Y-20204819D01*
X81084810Y-20204819D02*
X81465762Y-20204819D01*
X81465762Y-20204819D02*
X81561000Y-20252438D01*
X81561000Y-20252438D02*
X81608619Y-20300057D01*
X81608619Y-20300057D02*
X81656238Y-20395295D01*
X81656238Y-20395295D02*
X81656238Y-20538152D01*
X81656238Y-20538152D02*
X81608619Y-20633390D01*
X81608619Y-20633390D02*
X81561000Y-20681009D01*
X81561000Y-20681009D02*
X81465762Y-20728628D01*
X81465762Y-20728628D02*
X81084810Y-20728628D01*
X81989572Y-20204819D02*
X82227667Y-21204819D01*
X82227667Y-21204819D02*
X82418143Y-20490533D01*
X82418143Y-20490533D02*
X82608619Y-21204819D01*
X82608619Y-21204819D02*
X82846715Y-20204819D01*
X83799095Y-21204819D02*
X83465762Y-20728628D01*
X83227667Y-21204819D02*
X83227667Y-20204819D01*
X83227667Y-20204819D02*
X83608619Y-20204819D01*
X83608619Y-20204819D02*
X83703857Y-20252438D01*
X83703857Y-20252438D02*
X83751476Y-20300057D01*
X83751476Y-20300057D02*
X83799095Y-20395295D01*
X83799095Y-20395295D02*
X83799095Y-20538152D01*
X83799095Y-20538152D02*
X83751476Y-20633390D01*
X83751476Y-20633390D02*
X83703857Y-20681009D01*
X83703857Y-20681009D02*
X83608619Y-20728628D01*
X83608619Y-20728628D02*
X83227667Y-20728628D01*
X209882142Y-96034580D02*
X209834523Y-96082200D01*
X209834523Y-96082200D02*
X209691666Y-96129819D01*
X209691666Y-96129819D02*
X209596428Y-96129819D01*
X209596428Y-96129819D02*
X209453571Y-96082200D01*
X209453571Y-96082200D02*
X209358333Y-95986961D01*
X209358333Y-95986961D02*
X209310714Y-95891723D01*
X209310714Y-95891723D02*
X209263095Y-95701247D01*
X209263095Y-95701247D02*
X209263095Y-95558390D01*
X209263095Y-95558390D02*
X209310714Y-95367914D01*
X209310714Y-95367914D02*
X209358333Y-95272676D01*
X209358333Y-95272676D02*
X209453571Y-95177438D01*
X209453571Y-95177438D02*
X209596428Y-95129819D01*
X209596428Y-95129819D02*
X209691666Y-95129819D01*
X209691666Y-95129819D02*
X209834523Y-95177438D01*
X209834523Y-95177438D02*
X209882142Y-95225057D01*
X210215476Y-95129819D02*
X210834523Y-95129819D01*
X210834523Y-95129819D02*
X210501190Y-95510771D01*
X210501190Y-95510771D02*
X210644047Y-95510771D01*
X210644047Y-95510771D02*
X210739285Y-95558390D01*
X210739285Y-95558390D02*
X210786904Y-95606009D01*
X210786904Y-95606009D02*
X210834523Y-95701247D01*
X210834523Y-95701247D02*
X210834523Y-95939342D01*
X210834523Y-95939342D02*
X210786904Y-96034580D01*
X210786904Y-96034580D02*
X210739285Y-96082200D01*
X210739285Y-96082200D02*
X210644047Y-96129819D01*
X210644047Y-96129819D02*
X210358333Y-96129819D01*
X210358333Y-96129819D02*
X210263095Y-96082200D01*
X210263095Y-96082200D02*
X210215476Y-96034580D01*
X211167857Y-95129819D02*
X211834523Y-95129819D01*
X211834523Y-95129819D02*
X211405952Y-96129819D01*
X193020476Y-32602319D02*
X193020476Y-33316604D01*
X193020476Y-33316604D02*
X192972857Y-33459461D01*
X192972857Y-33459461D02*
X192877619Y-33554700D01*
X192877619Y-33554700D02*
X192734762Y-33602319D01*
X192734762Y-33602319D02*
X192639524Y-33602319D01*
X193449048Y-32697557D02*
X193496667Y-32649938D01*
X193496667Y-32649938D02*
X193591905Y-32602319D01*
X193591905Y-32602319D02*
X193830000Y-32602319D01*
X193830000Y-32602319D02*
X193925238Y-32649938D01*
X193925238Y-32649938D02*
X193972857Y-32697557D01*
X193972857Y-32697557D02*
X194020476Y-32792795D01*
X194020476Y-32792795D02*
X194020476Y-32888033D01*
X194020476Y-32888033D02*
X193972857Y-33030890D01*
X193972857Y-33030890D02*
X193401429Y-33602319D01*
X193401429Y-33602319D02*
X194020476Y-33602319D01*
X194639524Y-32602319D02*
X194734762Y-32602319D01*
X194734762Y-32602319D02*
X194830000Y-32649938D01*
X194830000Y-32649938D02*
X194877619Y-32697557D01*
X194877619Y-32697557D02*
X194925238Y-32792795D01*
X194925238Y-32792795D02*
X194972857Y-32983271D01*
X194972857Y-32983271D02*
X194972857Y-33221366D01*
X194972857Y-33221366D02*
X194925238Y-33411842D01*
X194925238Y-33411842D02*
X194877619Y-33507080D01*
X194877619Y-33507080D02*
X194830000Y-33554700D01*
X194830000Y-33554700D02*
X194734762Y-33602319D01*
X194734762Y-33602319D02*
X194639524Y-33602319D01*
X194639524Y-33602319D02*
X194544286Y-33554700D01*
X194544286Y-33554700D02*
X194496667Y-33507080D01*
X194496667Y-33507080D02*
X194449048Y-33411842D01*
X194449048Y-33411842D02*
X194401429Y-33221366D01*
X194401429Y-33221366D02*
X194401429Y-32983271D01*
X194401429Y-32983271D02*
X194449048Y-32792795D01*
X194449048Y-32792795D02*
X194496667Y-32697557D01*
X194496667Y-32697557D02*
X194544286Y-32649938D01*
X194544286Y-32649938D02*
X194639524Y-32602319D01*
X190778571Y-20919104D02*
X191254761Y-20919104D01*
X190683333Y-21204819D02*
X191016666Y-20204819D01*
X191016666Y-20204819D02*
X191349999Y-21204819D01*
X191683333Y-21204819D02*
X191683333Y-20204819D01*
X191683333Y-20204819D02*
X192016666Y-20919104D01*
X192016666Y-20919104D02*
X192349999Y-20204819D01*
X192349999Y-20204819D02*
X192349999Y-21204819D01*
X192826190Y-21204819D02*
X192826190Y-20204819D01*
X192826190Y-20204819D02*
X193207142Y-20204819D01*
X193207142Y-20204819D02*
X193302380Y-20252438D01*
X193302380Y-20252438D02*
X193349999Y-20300057D01*
X193349999Y-20300057D02*
X193397618Y-20395295D01*
X193397618Y-20395295D02*
X193397618Y-20538152D01*
X193397618Y-20538152D02*
X193349999Y-20633390D01*
X193349999Y-20633390D02*
X193302380Y-20681009D01*
X193302380Y-20681009D02*
X193207142Y-20728628D01*
X193207142Y-20728628D02*
X192826190Y-20728628D01*
X193778571Y-20300057D02*
X193826190Y-20252438D01*
X193826190Y-20252438D02*
X193921428Y-20204819D01*
X193921428Y-20204819D02*
X194159523Y-20204819D01*
X194159523Y-20204819D02*
X194254761Y-20252438D01*
X194254761Y-20252438D02*
X194302380Y-20300057D01*
X194302380Y-20300057D02*
X194349999Y-20395295D01*
X194349999Y-20395295D02*
X194349999Y-20490533D01*
X194349999Y-20490533D02*
X194302380Y-20633390D01*
X194302380Y-20633390D02*
X193730952Y-21204819D01*
X193730952Y-21204819D02*
X194349999Y-21204819D01*
X194540476Y-21300057D02*
X195302380Y-21300057D01*
X196016666Y-21204819D02*
X195540476Y-21204819D01*
X195540476Y-21204819D02*
X195540476Y-20204819D01*
X196921428Y-21204819D02*
X196588095Y-20728628D01*
X196350000Y-21204819D02*
X196350000Y-20204819D01*
X196350000Y-20204819D02*
X196730952Y-20204819D01*
X196730952Y-20204819D02*
X196826190Y-20252438D01*
X196826190Y-20252438D02*
X196873809Y-20300057D01*
X196873809Y-20300057D02*
X196921428Y-20395295D01*
X196921428Y-20395295D02*
X196921428Y-20538152D01*
X196921428Y-20538152D02*
X196873809Y-20633390D01*
X196873809Y-20633390D02*
X196826190Y-20681009D01*
X196826190Y-20681009D02*
X196730952Y-20728628D01*
X196730952Y-20728628D02*
X196350000Y-20728628D01*
X129815476Y-32602319D02*
X129815476Y-33316604D01*
X129815476Y-33316604D02*
X129767857Y-33459461D01*
X129767857Y-33459461D02*
X129672619Y-33554700D01*
X129672619Y-33554700D02*
X129529762Y-33602319D01*
X129529762Y-33602319D02*
X129434524Y-33602319D01*
X130244048Y-32697557D02*
X130291667Y-32649938D01*
X130291667Y-32649938D02*
X130386905Y-32602319D01*
X130386905Y-32602319D02*
X130625000Y-32602319D01*
X130625000Y-32602319D02*
X130720238Y-32649938D01*
X130720238Y-32649938D02*
X130767857Y-32697557D01*
X130767857Y-32697557D02*
X130815476Y-32792795D01*
X130815476Y-32792795D02*
X130815476Y-32888033D01*
X130815476Y-32888033D02*
X130767857Y-33030890D01*
X130767857Y-33030890D02*
X130196429Y-33602319D01*
X130196429Y-33602319D02*
X130815476Y-33602319D01*
X131767857Y-33602319D02*
X131196429Y-33602319D01*
X131482143Y-33602319D02*
X131482143Y-32602319D01*
X131482143Y-32602319D02*
X131386905Y-32745176D01*
X131386905Y-32745176D02*
X131291667Y-32840414D01*
X131291667Y-32840414D02*
X131196429Y-32888033D01*
X126886905Y-20919104D02*
X127363095Y-20919104D01*
X126791667Y-21204819D02*
X127125000Y-20204819D01*
X127125000Y-20204819D02*
X127458333Y-21204819D01*
X127791667Y-21204819D02*
X127791667Y-20204819D01*
X127791667Y-20204819D02*
X128125000Y-20919104D01*
X128125000Y-20919104D02*
X128458333Y-20204819D01*
X128458333Y-20204819D02*
X128458333Y-21204819D01*
X128934524Y-21204819D02*
X128934524Y-20204819D01*
X128934524Y-20204819D02*
X129315476Y-20204819D01*
X129315476Y-20204819D02*
X129410714Y-20252438D01*
X129410714Y-20252438D02*
X129458333Y-20300057D01*
X129458333Y-20300057D02*
X129505952Y-20395295D01*
X129505952Y-20395295D02*
X129505952Y-20538152D01*
X129505952Y-20538152D02*
X129458333Y-20633390D01*
X129458333Y-20633390D02*
X129410714Y-20681009D01*
X129410714Y-20681009D02*
X129315476Y-20728628D01*
X129315476Y-20728628D02*
X128934524Y-20728628D01*
X129839286Y-20204819D02*
X130458333Y-20204819D01*
X130458333Y-20204819D02*
X130125000Y-20585771D01*
X130125000Y-20585771D02*
X130267857Y-20585771D01*
X130267857Y-20585771D02*
X130363095Y-20633390D01*
X130363095Y-20633390D02*
X130410714Y-20681009D01*
X130410714Y-20681009D02*
X130458333Y-20776247D01*
X130458333Y-20776247D02*
X130458333Y-21014342D01*
X130458333Y-21014342D02*
X130410714Y-21109580D01*
X130410714Y-21109580D02*
X130363095Y-21157200D01*
X130363095Y-21157200D02*
X130267857Y-21204819D01*
X130267857Y-21204819D02*
X129982143Y-21204819D01*
X129982143Y-21204819D02*
X129886905Y-21157200D01*
X129886905Y-21157200D02*
X129839286Y-21109580D01*
X130648810Y-21300057D02*
X131410714Y-21300057D01*
X131648810Y-21204819D02*
X131648810Y-20204819D01*
X131648810Y-20204819D02*
X132029762Y-20204819D01*
X132029762Y-20204819D02*
X132125000Y-20252438D01*
X132125000Y-20252438D02*
X132172619Y-20300057D01*
X132172619Y-20300057D02*
X132220238Y-20395295D01*
X132220238Y-20395295D02*
X132220238Y-20538152D01*
X132220238Y-20538152D02*
X132172619Y-20633390D01*
X132172619Y-20633390D02*
X132125000Y-20681009D01*
X132125000Y-20681009D02*
X132029762Y-20728628D01*
X132029762Y-20728628D02*
X131648810Y-20728628D01*
X132553572Y-20204819D02*
X132791667Y-21204819D01*
X132791667Y-21204819D02*
X132982143Y-20490533D01*
X132982143Y-20490533D02*
X133172619Y-21204819D01*
X133172619Y-21204819D02*
X133410715Y-20204819D01*
X134363095Y-21204819D02*
X134029762Y-20728628D01*
X133791667Y-21204819D02*
X133791667Y-20204819D01*
X133791667Y-20204819D02*
X134172619Y-20204819D01*
X134172619Y-20204819D02*
X134267857Y-20252438D01*
X134267857Y-20252438D02*
X134315476Y-20300057D01*
X134315476Y-20300057D02*
X134363095Y-20395295D01*
X134363095Y-20395295D02*
X134363095Y-20538152D01*
X134363095Y-20538152D02*
X134315476Y-20633390D01*
X134315476Y-20633390D02*
X134267857Y-20681009D01*
X134267857Y-20681009D02*
X134172619Y-20728628D01*
X134172619Y-20728628D02*
X133791667Y-20728628D01*
X111444819Y-62903094D02*
X110444819Y-62903094D01*
X111444819Y-62331666D02*
X110873390Y-62760237D01*
X110444819Y-62331666D02*
X111016247Y-62903094D01*
X110444819Y-61474523D02*
X110444819Y-61664999D01*
X110444819Y-61664999D02*
X110492438Y-61760237D01*
X110492438Y-61760237D02*
X110540057Y-61807856D01*
X110540057Y-61807856D02*
X110682914Y-61903094D01*
X110682914Y-61903094D02*
X110873390Y-61950713D01*
X110873390Y-61950713D02*
X111254342Y-61950713D01*
X111254342Y-61950713D02*
X111349580Y-61903094D01*
X111349580Y-61903094D02*
X111397200Y-61855475D01*
X111397200Y-61855475D02*
X111444819Y-61760237D01*
X111444819Y-61760237D02*
X111444819Y-61569761D01*
X111444819Y-61569761D02*
X111397200Y-61474523D01*
X111397200Y-61474523D02*
X111349580Y-61426904D01*
X111349580Y-61426904D02*
X111254342Y-61379285D01*
X111254342Y-61379285D02*
X111016247Y-61379285D01*
X111016247Y-61379285D02*
X110921009Y-61426904D01*
X110921009Y-61426904D02*
X110873390Y-61474523D01*
X110873390Y-61474523D02*
X110825771Y-61569761D01*
X110825771Y-61569761D02*
X110825771Y-61760237D01*
X110825771Y-61760237D02*
X110873390Y-61855475D01*
X110873390Y-61855475D02*
X110921009Y-61903094D01*
X110921009Y-61903094D02*
X111016247Y-61950713D01*
X69286905Y-19804819D02*
X69286905Y-18804819D01*
X69286905Y-19281009D02*
X69858333Y-19281009D01*
X69858333Y-19804819D02*
X69858333Y-18804819D01*
X70858333Y-19804819D02*
X70286905Y-19804819D01*
X70572619Y-19804819D02*
X70572619Y-18804819D01*
X70572619Y-18804819D02*
X70477381Y-18947676D01*
X70477381Y-18947676D02*
X70382143Y-19042914D01*
X70382143Y-19042914D02*
X70286905Y-19090533D01*
X71191667Y-18804819D02*
X71810714Y-18804819D01*
X71810714Y-18804819D02*
X71477381Y-19185771D01*
X71477381Y-19185771D02*
X71620238Y-19185771D01*
X71620238Y-19185771D02*
X71715476Y-19233390D01*
X71715476Y-19233390D02*
X71763095Y-19281009D01*
X71763095Y-19281009D02*
X71810714Y-19376247D01*
X71810714Y-19376247D02*
X71810714Y-19614342D01*
X71810714Y-19614342D02*
X71763095Y-19709580D01*
X71763095Y-19709580D02*
X71715476Y-19757200D01*
X71715476Y-19757200D02*
X71620238Y-19804819D01*
X71620238Y-19804819D02*
X71334524Y-19804819D01*
X71334524Y-19804819D02*
X71239286Y-19757200D01*
X71239286Y-19757200D02*
X71191667Y-19709580D01*
X173029819Y-62728094D02*
X172029819Y-62728094D01*
X173029819Y-62156666D02*
X172458390Y-62585237D01*
X172029819Y-62156666D02*
X172601247Y-62728094D01*
X172029819Y-61823332D02*
X172029819Y-61204285D01*
X172029819Y-61204285D02*
X172410771Y-61537618D01*
X172410771Y-61537618D02*
X172410771Y-61394761D01*
X172410771Y-61394761D02*
X172458390Y-61299523D01*
X172458390Y-61299523D02*
X172506009Y-61251904D01*
X172506009Y-61251904D02*
X172601247Y-61204285D01*
X172601247Y-61204285D02*
X172839342Y-61204285D01*
X172839342Y-61204285D02*
X172934580Y-61251904D01*
X172934580Y-61251904D02*
X172982200Y-61299523D01*
X172982200Y-61299523D02*
X173029819Y-61394761D01*
X173029819Y-61394761D02*
X173029819Y-61680475D01*
X173029819Y-61680475D02*
X172982200Y-61775713D01*
X172982200Y-61775713D02*
X172934580Y-61823332D01*
X205661476Y-32602319D02*
X205661476Y-33316604D01*
X205661476Y-33316604D02*
X205613857Y-33459461D01*
X205613857Y-33459461D02*
X205518619Y-33554700D01*
X205518619Y-33554700D02*
X205375762Y-33602319D01*
X205375762Y-33602319D02*
X205280524Y-33602319D01*
X206661476Y-33602319D02*
X206090048Y-33602319D01*
X206375762Y-33602319D02*
X206375762Y-32602319D01*
X206375762Y-32602319D02*
X206280524Y-32745176D01*
X206280524Y-32745176D02*
X206185286Y-32840414D01*
X206185286Y-32840414D02*
X206090048Y-32888033D01*
X207137667Y-33602319D02*
X207328143Y-33602319D01*
X207328143Y-33602319D02*
X207423381Y-33554700D01*
X207423381Y-33554700D02*
X207471000Y-33507080D01*
X207471000Y-33507080D02*
X207566238Y-33364223D01*
X207566238Y-33364223D02*
X207613857Y-33173747D01*
X207613857Y-33173747D02*
X207613857Y-32792795D01*
X207613857Y-32792795D02*
X207566238Y-32697557D01*
X207566238Y-32697557D02*
X207518619Y-32649938D01*
X207518619Y-32649938D02*
X207423381Y-32602319D01*
X207423381Y-32602319D02*
X207232905Y-32602319D01*
X207232905Y-32602319D02*
X207137667Y-32649938D01*
X207137667Y-32649938D02*
X207090048Y-32697557D01*
X207090048Y-32697557D02*
X207042429Y-32792795D01*
X207042429Y-32792795D02*
X207042429Y-33030890D01*
X207042429Y-33030890D02*
X207090048Y-33126128D01*
X207090048Y-33126128D02*
X207137667Y-33173747D01*
X207137667Y-33173747D02*
X207232905Y-33221366D01*
X207232905Y-33221366D02*
X207423381Y-33221366D01*
X207423381Y-33221366D02*
X207518619Y-33173747D01*
X207518619Y-33173747D02*
X207566238Y-33126128D01*
X207566238Y-33126128D02*
X207613857Y-33030890D01*
X202732905Y-20919104D02*
X203209095Y-20919104D01*
X202637667Y-21204819D02*
X202971000Y-20204819D01*
X202971000Y-20204819D02*
X203304333Y-21204819D01*
X203637667Y-21204819D02*
X203637667Y-20204819D01*
X203637667Y-20204819D02*
X203971000Y-20919104D01*
X203971000Y-20919104D02*
X204304333Y-20204819D01*
X204304333Y-20204819D02*
X204304333Y-21204819D01*
X204780524Y-21204819D02*
X204780524Y-20204819D01*
X204780524Y-20204819D02*
X205161476Y-20204819D01*
X205161476Y-20204819D02*
X205256714Y-20252438D01*
X205256714Y-20252438D02*
X205304333Y-20300057D01*
X205304333Y-20300057D02*
X205351952Y-20395295D01*
X205351952Y-20395295D02*
X205351952Y-20538152D01*
X205351952Y-20538152D02*
X205304333Y-20633390D01*
X205304333Y-20633390D02*
X205256714Y-20681009D01*
X205256714Y-20681009D02*
X205161476Y-20728628D01*
X205161476Y-20728628D02*
X204780524Y-20728628D01*
X205732905Y-20300057D02*
X205780524Y-20252438D01*
X205780524Y-20252438D02*
X205875762Y-20204819D01*
X205875762Y-20204819D02*
X206113857Y-20204819D01*
X206113857Y-20204819D02*
X206209095Y-20252438D01*
X206209095Y-20252438D02*
X206256714Y-20300057D01*
X206256714Y-20300057D02*
X206304333Y-20395295D01*
X206304333Y-20395295D02*
X206304333Y-20490533D01*
X206304333Y-20490533D02*
X206256714Y-20633390D01*
X206256714Y-20633390D02*
X205685286Y-21204819D01*
X205685286Y-21204819D02*
X206304333Y-21204819D01*
X206494810Y-21300057D02*
X207256714Y-21300057D01*
X207494810Y-21204819D02*
X207494810Y-20204819D01*
X207494810Y-20204819D02*
X207875762Y-20204819D01*
X207875762Y-20204819D02*
X207971000Y-20252438D01*
X207971000Y-20252438D02*
X208018619Y-20300057D01*
X208018619Y-20300057D02*
X208066238Y-20395295D01*
X208066238Y-20395295D02*
X208066238Y-20538152D01*
X208066238Y-20538152D02*
X208018619Y-20633390D01*
X208018619Y-20633390D02*
X207971000Y-20681009D01*
X207971000Y-20681009D02*
X207875762Y-20728628D01*
X207875762Y-20728628D02*
X207494810Y-20728628D01*
X208399572Y-20204819D02*
X208637667Y-21204819D01*
X208637667Y-21204819D02*
X208828143Y-20490533D01*
X208828143Y-20490533D02*
X209018619Y-21204819D01*
X209018619Y-21204819D02*
X209256715Y-20204819D01*
X210209095Y-21204819D02*
X209875762Y-20728628D01*
X209637667Y-21204819D02*
X209637667Y-20204819D01*
X209637667Y-20204819D02*
X210018619Y-20204819D01*
X210018619Y-20204819D02*
X210113857Y-20252438D01*
X210113857Y-20252438D02*
X210161476Y-20300057D01*
X210161476Y-20300057D02*
X210209095Y-20395295D01*
X210209095Y-20395295D02*
X210209095Y-20538152D01*
X210209095Y-20538152D02*
X210161476Y-20633390D01*
X210161476Y-20633390D02*
X210113857Y-20681009D01*
X210113857Y-20681009D02*
X210018619Y-20728628D01*
X210018619Y-20728628D02*
X209637667Y-20728628D01*
X152634819Y-62723094D02*
X151634819Y-62723094D01*
X152634819Y-62151666D02*
X152063390Y-62580237D01*
X151634819Y-62151666D02*
X152206247Y-62723094D01*
X152634819Y-61199285D02*
X152634819Y-61770713D01*
X152634819Y-61484999D02*
X151634819Y-61484999D01*
X151634819Y-61484999D02*
X151777676Y-61580237D01*
X151777676Y-61580237D02*
X151872914Y-61675475D01*
X151872914Y-61675475D02*
X151920533Y-61770713D01*
X209432142Y-91134580D02*
X209384523Y-91182200D01*
X209384523Y-91182200D02*
X209241666Y-91229819D01*
X209241666Y-91229819D02*
X209146428Y-91229819D01*
X209146428Y-91229819D02*
X209003571Y-91182200D01*
X209003571Y-91182200D02*
X208908333Y-91086961D01*
X208908333Y-91086961D02*
X208860714Y-90991723D01*
X208860714Y-90991723D02*
X208813095Y-90801247D01*
X208813095Y-90801247D02*
X208813095Y-90658390D01*
X208813095Y-90658390D02*
X208860714Y-90467914D01*
X208860714Y-90467914D02*
X208908333Y-90372676D01*
X208908333Y-90372676D02*
X209003571Y-90277438D01*
X209003571Y-90277438D02*
X209146428Y-90229819D01*
X209146428Y-90229819D02*
X209241666Y-90229819D01*
X209241666Y-90229819D02*
X209384523Y-90277438D01*
X209384523Y-90277438D02*
X209432142Y-90325057D01*
X209765476Y-90229819D02*
X210384523Y-90229819D01*
X210384523Y-90229819D02*
X210051190Y-90610771D01*
X210051190Y-90610771D02*
X210194047Y-90610771D01*
X210194047Y-90610771D02*
X210289285Y-90658390D01*
X210289285Y-90658390D02*
X210336904Y-90706009D01*
X210336904Y-90706009D02*
X210384523Y-90801247D01*
X210384523Y-90801247D02*
X210384523Y-91039342D01*
X210384523Y-91039342D02*
X210336904Y-91134580D01*
X210336904Y-91134580D02*
X210289285Y-91182200D01*
X210289285Y-91182200D02*
X210194047Y-91229819D01*
X210194047Y-91229819D02*
X209908333Y-91229819D01*
X209908333Y-91229819D02*
X209813095Y-91182200D01*
X209813095Y-91182200D02*
X209765476Y-91134580D01*
X211241666Y-90229819D02*
X211051190Y-90229819D01*
X211051190Y-90229819D02*
X210955952Y-90277438D01*
X210955952Y-90277438D02*
X210908333Y-90325057D01*
X210908333Y-90325057D02*
X210813095Y-90467914D01*
X210813095Y-90467914D02*
X210765476Y-90658390D01*
X210765476Y-90658390D02*
X210765476Y-91039342D01*
X210765476Y-91039342D02*
X210813095Y-91134580D01*
X210813095Y-91134580D02*
X210860714Y-91182200D01*
X210860714Y-91182200D02*
X210955952Y-91229819D01*
X210955952Y-91229819D02*
X211146428Y-91229819D01*
X211146428Y-91229819D02*
X211241666Y-91182200D01*
X211241666Y-91182200D02*
X211289285Y-91134580D01*
X211289285Y-91134580D02*
X211336904Y-91039342D01*
X211336904Y-91039342D02*
X211336904Y-90801247D01*
X211336904Y-90801247D02*
X211289285Y-90706009D01*
X211289285Y-90706009D02*
X211241666Y-90658390D01*
X211241666Y-90658390D02*
X211146428Y-90610771D01*
X211146428Y-90610771D02*
X210955952Y-90610771D01*
X210955952Y-90610771D02*
X210860714Y-90658390D01*
X210860714Y-90658390D02*
X210813095Y-90706009D01*
X210813095Y-90706009D02*
X210765476Y-90801247D01*
X207482142Y-51634580D02*
X207434523Y-51682200D01*
X207434523Y-51682200D02*
X207291666Y-51729819D01*
X207291666Y-51729819D02*
X207196428Y-51729819D01*
X207196428Y-51729819D02*
X207053571Y-51682200D01*
X207053571Y-51682200D02*
X206958333Y-51586961D01*
X206958333Y-51586961D02*
X206910714Y-51491723D01*
X206910714Y-51491723D02*
X206863095Y-51301247D01*
X206863095Y-51301247D02*
X206863095Y-51158390D01*
X206863095Y-51158390D02*
X206910714Y-50967914D01*
X206910714Y-50967914D02*
X206958333Y-50872676D01*
X206958333Y-50872676D02*
X207053571Y-50777438D01*
X207053571Y-50777438D02*
X207196428Y-50729819D01*
X207196428Y-50729819D02*
X207291666Y-50729819D01*
X207291666Y-50729819D02*
X207434523Y-50777438D01*
X207434523Y-50777438D02*
X207482142Y-50825057D01*
X208339285Y-51063152D02*
X208339285Y-51729819D01*
X208101190Y-50682200D02*
X207863095Y-51396485D01*
X207863095Y-51396485D02*
X208482142Y-51396485D01*
X209053571Y-50729819D02*
X209148809Y-50729819D01*
X209148809Y-50729819D02*
X209244047Y-50777438D01*
X209244047Y-50777438D02*
X209291666Y-50825057D01*
X209291666Y-50825057D02*
X209339285Y-50920295D01*
X209339285Y-50920295D02*
X209386904Y-51110771D01*
X209386904Y-51110771D02*
X209386904Y-51348866D01*
X209386904Y-51348866D02*
X209339285Y-51539342D01*
X209339285Y-51539342D02*
X209291666Y-51634580D01*
X209291666Y-51634580D02*
X209244047Y-51682200D01*
X209244047Y-51682200D02*
X209148809Y-51729819D01*
X209148809Y-51729819D02*
X209053571Y-51729819D01*
X209053571Y-51729819D02*
X208958333Y-51682200D01*
X208958333Y-51682200D02*
X208910714Y-51634580D01*
X208910714Y-51634580D02*
X208863095Y-51539342D01*
X208863095Y-51539342D02*
X208815476Y-51348866D01*
X208815476Y-51348866D02*
X208815476Y-51110771D01*
X208815476Y-51110771D02*
X208863095Y-50920295D01*
X208863095Y-50920295D02*
X208910714Y-50825057D01*
X208910714Y-50825057D02*
X208958333Y-50777438D01*
X208958333Y-50777438D02*
X209053571Y-50729819D01*
X86099819Y-59899523D02*
X86814104Y-59899523D01*
X86814104Y-59899523D02*
X86956961Y-59947142D01*
X86956961Y-59947142D02*
X87052200Y-60042380D01*
X87052200Y-60042380D02*
X87099819Y-60185237D01*
X87099819Y-60185237D02*
X87099819Y-60280475D01*
X87099819Y-58899523D02*
X87099819Y-59470951D01*
X87099819Y-59185237D02*
X86099819Y-59185237D01*
X86099819Y-59185237D02*
X86242676Y-59280475D01*
X86242676Y-59280475D02*
X86337914Y-59375713D01*
X86337914Y-59375713D02*
X86385533Y-59470951D01*
X86433152Y-58042380D02*
X87099819Y-58042380D01*
X86052200Y-58280475D02*
X86766485Y-58518570D01*
X86766485Y-58518570D02*
X86766485Y-57899523D01*
X74094104Y-62929761D02*
X74094104Y-62453571D01*
X74379819Y-63024999D02*
X73379819Y-62691666D01*
X73379819Y-62691666D02*
X74379819Y-62358333D01*
X74379819Y-62024999D02*
X73379819Y-62024999D01*
X73379819Y-62024999D02*
X74094104Y-61691666D01*
X74094104Y-61691666D02*
X73379819Y-61358333D01*
X73379819Y-61358333D02*
X74379819Y-61358333D01*
X74379819Y-60882142D02*
X73379819Y-60882142D01*
X73379819Y-60882142D02*
X73379819Y-60501190D01*
X73379819Y-60501190D02*
X73427438Y-60405952D01*
X73427438Y-60405952D02*
X73475057Y-60358333D01*
X73475057Y-60358333D02*
X73570295Y-60310714D01*
X73570295Y-60310714D02*
X73713152Y-60310714D01*
X73713152Y-60310714D02*
X73808390Y-60358333D01*
X73808390Y-60358333D02*
X73856009Y-60405952D01*
X73856009Y-60405952D02*
X73903628Y-60501190D01*
X73903628Y-60501190D02*
X73903628Y-60882142D01*
X74475057Y-60120238D02*
X74475057Y-59358333D01*
X74379819Y-59120237D02*
X73379819Y-59120237D01*
X73379819Y-59120237D02*
X73379819Y-58739285D01*
X73379819Y-58739285D02*
X73427438Y-58644047D01*
X73427438Y-58644047D02*
X73475057Y-58596428D01*
X73475057Y-58596428D02*
X73570295Y-58548809D01*
X73570295Y-58548809D02*
X73713152Y-58548809D01*
X73713152Y-58548809D02*
X73808390Y-58596428D01*
X73808390Y-58596428D02*
X73856009Y-58644047D01*
X73856009Y-58644047D02*
X73903628Y-58739285D01*
X73903628Y-58739285D02*
X73903628Y-59120237D01*
X73379819Y-58215475D02*
X74379819Y-57977380D01*
X74379819Y-57977380D02*
X73665533Y-57786904D01*
X73665533Y-57786904D02*
X74379819Y-57596428D01*
X74379819Y-57596428D02*
X73379819Y-57358333D01*
X74379819Y-56405952D02*
X73903628Y-56739285D01*
X74379819Y-56977380D02*
X73379819Y-56977380D01*
X73379819Y-56977380D02*
X73379819Y-56596428D01*
X73379819Y-56596428D02*
X73427438Y-56501190D01*
X73427438Y-56501190D02*
X73475057Y-56453571D01*
X73475057Y-56453571D02*
X73570295Y-56405952D01*
X73570295Y-56405952D02*
X73713152Y-56405952D01*
X73713152Y-56405952D02*
X73808390Y-56453571D01*
X73808390Y-56453571D02*
X73856009Y-56501190D01*
X73856009Y-56501190D02*
X73903628Y-56596428D01*
X73903628Y-56596428D02*
X73903628Y-56977380D01*
X74475057Y-56215476D02*
X74475057Y-55453571D01*
X74379819Y-55215475D02*
X73379819Y-55215475D01*
X74379819Y-54739285D02*
X73379819Y-54739285D01*
X73379819Y-54739285D02*
X74379819Y-54167857D01*
X74379819Y-54167857D02*
X73379819Y-54167857D01*
X132029819Y-62728094D02*
X131029819Y-62728094D01*
X132029819Y-62156666D02*
X131458390Y-62585237D01*
X131029819Y-62156666D02*
X131601247Y-62728094D01*
X131029819Y-61251904D02*
X131029819Y-61728094D01*
X131029819Y-61728094D02*
X131506009Y-61775713D01*
X131506009Y-61775713D02*
X131458390Y-61728094D01*
X131458390Y-61728094D02*
X131410771Y-61632856D01*
X131410771Y-61632856D02*
X131410771Y-61394761D01*
X131410771Y-61394761D02*
X131458390Y-61299523D01*
X131458390Y-61299523D02*
X131506009Y-61251904D01*
X131506009Y-61251904D02*
X131601247Y-61204285D01*
X131601247Y-61204285D02*
X131839342Y-61204285D01*
X131839342Y-61204285D02*
X131934580Y-61251904D01*
X131934580Y-61251904D02*
X131982200Y-61299523D01*
X131982200Y-61299523D02*
X132029819Y-61394761D01*
X132029819Y-61394761D02*
X132029819Y-61632856D01*
X132029819Y-61632856D02*
X131982200Y-61728094D01*
X131982200Y-61728094D02*
X131934580Y-61775713D01*
X90944819Y-62773094D02*
X89944819Y-62773094D01*
X90944819Y-62201666D02*
X90373390Y-62630237D01*
X89944819Y-62201666D02*
X90516247Y-62773094D01*
X89944819Y-61868332D02*
X89944819Y-61201666D01*
X89944819Y-61201666D02*
X90944819Y-61630237D01*
X207532142Y-56584580D02*
X207484523Y-56632200D01*
X207484523Y-56632200D02*
X207341666Y-56679819D01*
X207341666Y-56679819D02*
X207246428Y-56679819D01*
X207246428Y-56679819D02*
X207103571Y-56632200D01*
X207103571Y-56632200D02*
X207008333Y-56536961D01*
X207008333Y-56536961D02*
X206960714Y-56441723D01*
X206960714Y-56441723D02*
X206913095Y-56251247D01*
X206913095Y-56251247D02*
X206913095Y-56108390D01*
X206913095Y-56108390D02*
X206960714Y-55917914D01*
X206960714Y-55917914D02*
X207008333Y-55822676D01*
X207008333Y-55822676D02*
X207103571Y-55727438D01*
X207103571Y-55727438D02*
X207246428Y-55679819D01*
X207246428Y-55679819D02*
X207341666Y-55679819D01*
X207341666Y-55679819D02*
X207484523Y-55727438D01*
X207484523Y-55727438D02*
X207532142Y-55775057D01*
X207865476Y-55679819D02*
X208484523Y-55679819D01*
X208484523Y-55679819D02*
X208151190Y-56060771D01*
X208151190Y-56060771D02*
X208294047Y-56060771D01*
X208294047Y-56060771D02*
X208389285Y-56108390D01*
X208389285Y-56108390D02*
X208436904Y-56156009D01*
X208436904Y-56156009D02*
X208484523Y-56251247D01*
X208484523Y-56251247D02*
X208484523Y-56489342D01*
X208484523Y-56489342D02*
X208436904Y-56584580D01*
X208436904Y-56584580D02*
X208389285Y-56632200D01*
X208389285Y-56632200D02*
X208294047Y-56679819D01*
X208294047Y-56679819D02*
X208008333Y-56679819D01*
X208008333Y-56679819D02*
X207913095Y-56632200D01*
X207913095Y-56632200D02*
X207865476Y-56584580D01*
X208960714Y-56679819D02*
X209151190Y-56679819D01*
X209151190Y-56679819D02*
X209246428Y-56632200D01*
X209246428Y-56632200D02*
X209294047Y-56584580D01*
X209294047Y-56584580D02*
X209389285Y-56441723D01*
X209389285Y-56441723D02*
X209436904Y-56251247D01*
X209436904Y-56251247D02*
X209436904Y-55870295D01*
X209436904Y-55870295D02*
X209389285Y-55775057D01*
X209389285Y-55775057D02*
X209341666Y-55727438D01*
X209341666Y-55727438D02*
X209246428Y-55679819D01*
X209246428Y-55679819D02*
X209055952Y-55679819D01*
X209055952Y-55679819D02*
X208960714Y-55727438D01*
X208960714Y-55727438D02*
X208913095Y-55775057D01*
X208913095Y-55775057D02*
X208865476Y-55870295D01*
X208865476Y-55870295D02*
X208865476Y-56108390D01*
X208865476Y-56108390D02*
X208913095Y-56203628D01*
X208913095Y-56203628D02*
X208960714Y-56251247D01*
X208960714Y-56251247D02*
X209055952Y-56298866D01*
X209055952Y-56298866D02*
X209246428Y-56298866D01*
X209246428Y-56298866D02*
X209341666Y-56251247D01*
X209341666Y-56251247D02*
X209389285Y-56203628D01*
X209389285Y-56203628D02*
X209436904Y-56108390D01*
X225286905Y-19804819D02*
X225286905Y-18804819D01*
X225286905Y-19281009D02*
X225858333Y-19281009D01*
X225858333Y-19804819D02*
X225858333Y-18804819D01*
X226858333Y-19804819D02*
X226286905Y-19804819D01*
X226572619Y-19804819D02*
X226572619Y-18804819D01*
X226572619Y-18804819D02*
X226477381Y-18947676D01*
X226477381Y-18947676D02*
X226382143Y-19042914D01*
X226382143Y-19042914D02*
X226286905Y-19090533D01*
X227715476Y-19138152D02*
X227715476Y-19804819D01*
X227477381Y-18757200D02*
X227239286Y-19471485D01*
X227239286Y-19471485D02*
X227858333Y-19471485D01*
X126140895Y-105836660D02*
X126140895Y-106312850D01*
X125855180Y-105741422D02*
X126855180Y-106074755D01*
X126855180Y-106074755D02*
X125855180Y-106408088D01*
X125855180Y-107265231D02*
X125855180Y-106693803D01*
X125855180Y-106979517D02*
X126855180Y-106979517D01*
X126855180Y-106979517D02*
X126712323Y-106884279D01*
X126712323Y-106884279D02*
X126617085Y-106789041D01*
X126617085Y-106789041D02*
X126569466Y-106693803D01*
X91892476Y-32602319D02*
X91892476Y-33316604D01*
X91892476Y-33316604D02*
X91844857Y-33459461D01*
X91844857Y-33459461D02*
X91749619Y-33554700D01*
X91749619Y-33554700D02*
X91606762Y-33602319D01*
X91606762Y-33602319D02*
X91511524Y-33602319D01*
X92321048Y-32697557D02*
X92368667Y-32649938D01*
X92368667Y-32649938D02*
X92463905Y-32602319D01*
X92463905Y-32602319D02*
X92702000Y-32602319D01*
X92702000Y-32602319D02*
X92797238Y-32649938D01*
X92797238Y-32649938D02*
X92844857Y-32697557D01*
X92844857Y-32697557D02*
X92892476Y-32792795D01*
X92892476Y-32792795D02*
X92892476Y-32888033D01*
X92892476Y-32888033D02*
X92844857Y-33030890D01*
X92844857Y-33030890D02*
X92273429Y-33602319D01*
X92273429Y-33602319D02*
X92892476Y-33602319D01*
X93749619Y-32602319D02*
X93559143Y-32602319D01*
X93559143Y-32602319D02*
X93463905Y-32649938D01*
X93463905Y-32649938D02*
X93416286Y-32697557D01*
X93416286Y-32697557D02*
X93321048Y-32840414D01*
X93321048Y-32840414D02*
X93273429Y-33030890D01*
X93273429Y-33030890D02*
X93273429Y-33411842D01*
X93273429Y-33411842D02*
X93321048Y-33507080D01*
X93321048Y-33507080D02*
X93368667Y-33554700D01*
X93368667Y-33554700D02*
X93463905Y-33602319D01*
X93463905Y-33602319D02*
X93654381Y-33602319D01*
X93654381Y-33602319D02*
X93749619Y-33554700D01*
X93749619Y-33554700D02*
X93797238Y-33507080D01*
X93797238Y-33507080D02*
X93844857Y-33411842D01*
X93844857Y-33411842D02*
X93844857Y-33173747D01*
X93844857Y-33173747D02*
X93797238Y-33078509D01*
X93797238Y-33078509D02*
X93749619Y-33030890D01*
X93749619Y-33030890D02*
X93654381Y-32983271D01*
X93654381Y-32983271D02*
X93463905Y-32983271D01*
X93463905Y-32983271D02*
X93368667Y-33030890D01*
X93368667Y-33030890D02*
X93321048Y-33078509D01*
X93321048Y-33078509D02*
X93273429Y-33173747D01*
X89630571Y-20919104D02*
X90106761Y-20919104D01*
X89535333Y-21204819D02*
X89868666Y-20204819D01*
X89868666Y-20204819D02*
X90201999Y-21204819D01*
X90535333Y-21204819D02*
X90535333Y-20204819D01*
X90535333Y-20204819D02*
X90868666Y-20919104D01*
X90868666Y-20919104D02*
X91201999Y-20204819D01*
X91201999Y-20204819D02*
X91201999Y-21204819D01*
X91678190Y-21204819D02*
X91678190Y-20204819D01*
X91678190Y-20204819D02*
X92059142Y-20204819D01*
X92059142Y-20204819D02*
X92154380Y-20252438D01*
X92154380Y-20252438D02*
X92201999Y-20300057D01*
X92201999Y-20300057D02*
X92249618Y-20395295D01*
X92249618Y-20395295D02*
X92249618Y-20538152D01*
X92249618Y-20538152D02*
X92201999Y-20633390D01*
X92201999Y-20633390D02*
X92154380Y-20681009D01*
X92154380Y-20681009D02*
X92059142Y-20728628D01*
X92059142Y-20728628D02*
X91678190Y-20728628D01*
X93154380Y-20204819D02*
X92678190Y-20204819D01*
X92678190Y-20204819D02*
X92630571Y-20681009D01*
X92630571Y-20681009D02*
X92678190Y-20633390D01*
X92678190Y-20633390D02*
X92773428Y-20585771D01*
X92773428Y-20585771D02*
X93011523Y-20585771D01*
X93011523Y-20585771D02*
X93106761Y-20633390D01*
X93106761Y-20633390D02*
X93154380Y-20681009D01*
X93154380Y-20681009D02*
X93201999Y-20776247D01*
X93201999Y-20776247D02*
X93201999Y-21014342D01*
X93201999Y-21014342D02*
X93154380Y-21109580D01*
X93154380Y-21109580D02*
X93106761Y-21157200D01*
X93106761Y-21157200D02*
X93011523Y-21204819D01*
X93011523Y-21204819D02*
X92773428Y-21204819D01*
X92773428Y-21204819D02*
X92678190Y-21157200D01*
X92678190Y-21157200D02*
X92630571Y-21109580D01*
X93392476Y-21300057D02*
X94154380Y-21300057D01*
X94868666Y-21204819D02*
X94392476Y-21204819D01*
X94392476Y-21204819D02*
X94392476Y-20204819D01*
X95773428Y-21204819D02*
X95440095Y-20728628D01*
X95202000Y-21204819D02*
X95202000Y-20204819D01*
X95202000Y-20204819D02*
X95582952Y-20204819D01*
X95582952Y-20204819D02*
X95678190Y-20252438D01*
X95678190Y-20252438D02*
X95725809Y-20300057D01*
X95725809Y-20300057D02*
X95773428Y-20395295D01*
X95773428Y-20395295D02*
X95773428Y-20538152D01*
X95773428Y-20538152D02*
X95725809Y-20633390D01*
X95725809Y-20633390D02*
X95678190Y-20681009D01*
X95678190Y-20681009D02*
X95582952Y-20728628D01*
X95582952Y-20728628D02*
X95202000Y-20728628D01*
X131779819Y-40163094D02*
X130779819Y-40163094D01*
X131779819Y-39591666D02*
X131208390Y-40020237D01*
X130779819Y-39591666D02*
X131351247Y-40163094D01*
X131208390Y-39020237D02*
X131160771Y-39115475D01*
X131160771Y-39115475D02*
X131113152Y-39163094D01*
X131113152Y-39163094D02*
X131017914Y-39210713D01*
X131017914Y-39210713D02*
X130970295Y-39210713D01*
X130970295Y-39210713D02*
X130875057Y-39163094D01*
X130875057Y-39163094D02*
X130827438Y-39115475D01*
X130827438Y-39115475D02*
X130779819Y-39020237D01*
X130779819Y-39020237D02*
X130779819Y-38829761D01*
X130779819Y-38829761D02*
X130827438Y-38734523D01*
X130827438Y-38734523D02*
X130875057Y-38686904D01*
X130875057Y-38686904D02*
X130970295Y-38639285D01*
X130970295Y-38639285D02*
X131017914Y-38639285D01*
X131017914Y-38639285D02*
X131113152Y-38686904D01*
X131113152Y-38686904D02*
X131160771Y-38734523D01*
X131160771Y-38734523D02*
X131208390Y-38829761D01*
X131208390Y-38829761D02*
X131208390Y-39020237D01*
X131208390Y-39020237D02*
X131256009Y-39115475D01*
X131256009Y-39115475D02*
X131303628Y-39163094D01*
X131303628Y-39163094D02*
X131398866Y-39210713D01*
X131398866Y-39210713D02*
X131589342Y-39210713D01*
X131589342Y-39210713D02*
X131684580Y-39163094D01*
X131684580Y-39163094D02*
X131732200Y-39115475D01*
X131732200Y-39115475D02*
X131779819Y-39020237D01*
X131779819Y-39020237D02*
X131779819Y-38829761D01*
X131779819Y-38829761D02*
X131732200Y-38734523D01*
X131732200Y-38734523D02*
X131684580Y-38686904D01*
X131684580Y-38686904D02*
X131589342Y-38639285D01*
X131589342Y-38639285D02*
X131398866Y-38639285D01*
X131398866Y-38639285D02*
X131303628Y-38686904D01*
X131303628Y-38686904D02*
X131256009Y-38734523D01*
X131256009Y-38734523D02*
X131208390Y-38829761D01*
X102209819Y-75621904D02*
X103019342Y-75621904D01*
X103019342Y-75621904D02*
X103114580Y-75574285D01*
X103114580Y-75574285D02*
X103162200Y-75526666D01*
X103162200Y-75526666D02*
X103209819Y-75431428D01*
X103209819Y-75431428D02*
X103209819Y-75240952D01*
X103209819Y-75240952D02*
X103162200Y-75145714D01*
X103162200Y-75145714D02*
X103114580Y-75098095D01*
X103114580Y-75098095D02*
X103019342Y-75050476D01*
X103019342Y-75050476D02*
X102209819Y-75050476D01*
X102638390Y-74431428D02*
X102590771Y-74526666D01*
X102590771Y-74526666D02*
X102543152Y-74574285D01*
X102543152Y-74574285D02*
X102447914Y-74621904D01*
X102447914Y-74621904D02*
X102400295Y-74621904D01*
X102400295Y-74621904D02*
X102305057Y-74574285D01*
X102305057Y-74574285D02*
X102257438Y-74526666D01*
X102257438Y-74526666D02*
X102209819Y-74431428D01*
X102209819Y-74431428D02*
X102209819Y-74240952D01*
X102209819Y-74240952D02*
X102257438Y-74145714D01*
X102257438Y-74145714D02*
X102305057Y-74098095D01*
X102305057Y-74098095D02*
X102400295Y-74050476D01*
X102400295Y-74050476D02*
X102447914Y-74050476D01*
X102447914Y-74050476D02*
X102543152Y-74098095D01*
X102543152Y-74098095D02*
X102590771Y-74145714D01*
X102590771Y-74145714D02*
X102638390Y-74240952D01*
X102638390Y-74240952D02*
X102638390Y-74431428D01*
X102638390Y-74431428D02*
X102686009Y-74526666D01*
X102686009Y-74526666D02*
X102733628Y-74574285D01*
X102733628Y-74574285D02*
X102828866Y-74621904D01*
X102828866Y-74621904D02*
X103019342Y-74621904D01*
X103019342Y-74621904D02*
X103114580Y-74574285D01*
X103114580Y-74574285D02*
X103162200Y-74526666D01*
X103162200Y-74526666D02*
X103209819Y-74431428D01*
X103209819Y-74431428D02*
X103209819Y-74240952D01*
X103209819Y-74240952D02*
X103162200Y-74145714D01*
X103162200Y-74145714D02*
X103114580Y-74098095D01*
X103114580Y-74098095D02*
X103019342Y-74050476D01*
X103019342Y-74050476D02*
X102828866Y-74050476D01*
X102828866Y-74050476D02*
X102733628Y-74098095D01*
X102733628Y-74098095D02*
X102686009Y-74145714D01*
X102686009Y-74145714D02*
X102638390Y-74240952D01*
X167750476Y-32624819D02*
X167750476Y-33339104D01*
X167750476Y-33339104D02*
X167702857Y-33481961D01*
X167702857Y-33481961D02*
X167607619Y-33577200D01*
X167607619Y-33577200D02*
X167464762Y-33624819D01*
X167464762Y-33624819D02*
X167369524Y-33624819D01*
X168750476Y-33624819D02*
X168179048Y-33624819D01*
X168464762Y-33624819D02*
X168464762Y-32624819D01*
X168464762Y-32624819D02*
X168369524Y-32767676D01*
X168369524Y-32767676D02*
X168274286Y-32862914D01*
X168274286Y-32862914D02*
X168179048Y-32910533D01*
X169321905Y-33053390D02*
X169226667Y-33005771D01*
X169226667Y-33005771D02*
X169179048Y-32958152D01*
X169179048Y-32958152D02*
X169131429Y-32862914D01*
X169131429Y-32862914D02*
X169131429Y-32815295D01*
X169131429Y-32815295D02*
X169179048Y-32720057D01*
X169179048Y-32720057D02*
X169226667Y-32672438D01*
X169226667Y-32672438D02*
X169321905Y-32624819D01*
X169321905Y-32624819D02*
X169512381Y-32624819D01*
X169512381Y-32624819D02*
X169607619Y-32672438D01*
X169607619Y-32672438D02*
X169655238Y-32720057D01*
X169655238Y-32720057D02*
X169702857Y-32815295D01*
X169702857Y-32815295D02*
X169702857Y-32862914D01*
X169702857Y-32862914D02*
X169655238Y-32958152D01*
X169655238Y-32958152D02*
X169607619Y-33005771D01*
X169607619Y-33005771D02*
X169512381Y-33053390D01*
X169512381Y-33053390D02*
X169321905Y-33053390D01*
X169321905Y-33053390D02*
X169226667Y-33101009D01*
X169226667Y-33101009D02*
X169179048Y-33148628D01*
X169179048Y-33148628D02*
X169131429Y-33243866D01*
X169131429Y-33243866D02*
X169131429Y-33434342D01*
X169131429Y-33434342D02*
X169179048Y-33529580D01*
X169179048Y-33529580D02*
X169226667Y-33577200D01*
X169226667Y-33577200D02*
X169321905Y-33624819D01*
X169321905Y-33624819D02*
X169512381Y-33624819D01*
X169512381Y-33624819D02*
X169607619Y-33577200D01*
X169607619Y-33577200D02*
X169655238Y-33529580D01*
X169655238Y-33529580D02*
X169702857Y-33434342D01*
X169702857Y-33434342D02*
X169702857Y-33243866D01*
X169702857Y-33243866D02*
X169655238Y-33148628D01*
X169655238Y-33148628D02*
X169607619Y-33101009D01*
X169607619Y-33101009D02*
X169512381Y-33053390D01*
X165488571Y-20919104D02*
X165964761Y-20919104D01*
X165393333Y-21204819D02*
X165726666Y-20204819D01*
X165726666Y-20204819D02*
X166059999Y-21204819D01*
X166393333Y-21204819D02*
X166393333Y-20204819D01*
X166393333Y-20204819D02*
X166726666Y-20919104D01*
X166726666Y-20919104D02*
X167059999Y-20204819D01*
X167059999Y-20204819D02*
X167059999Y-21204819D01*
X167536190Y-21204819D02*
X167536190Y-20204819D01*
X167536190Y-20204819D02*
X167917142Y-20204819D01*
X167917142Y-20204819D02*
X168012380Y-20252438D01*
X168012380Y-20252438D02*
X168059999Y-20300057D01*
X168059999Y-20300057D02*
X168107618Y-20395295D01*
X168107618Y-20395295D02*
X168107618Y-20538152D01*
X168107618Y-20538152D02*
X168059999Y-20633390D01*
X168059999Y-20633390D02*
X168012380Y-20681009D01*
X168012380Y-20681009D02*
X167917142Y-20728628D01*
X167917142Y-20728628D02*
X167536190Y-20728628D01*
X169059999Y-21204819D02*
X168488571Y-21204819D01*
X168774285Y-21204819D02*
X168774285Y-20204819D01*
X168774285Y-20204819D02*
X168679047Y-20347676D01*
X168679047Y-20347676D02*
X168583809Y-20442914D01*
X168583809Y-20442914D02*
X168488571Y-20490533D01*
X169250476Y-21300057D02*
X170012380Y-21300057D01*
X170726666Y-21204819D02*
X170250476Y-21204819D01*
X170250476Y-21204819D02*
X170250476Y-20204819D01*
X171631428Y-21204819D02*
X171298095Y-20728628D01*
X171060000Y-21204819D02*
X171060000Y-20204819D01*
X171060000Y-20204819D02*
X171440952Y-20204819D01*
X171440952Y-20204819D02*
X171536190Y-20252438D01*
X171536190Y-20252438D02*
X171583809Y-20300057D01*
X171583809Y-20300057D02*
X171631428Y-20395295D01*
X171631428Y-20395295D02*
X171631428Y-20538152D01*
X171631428Y-20538152D02*
X171583809Y-20633390D01*
X171583809Y-20633390D02*
X171536190Y-20681009D01*
X171536190Y-20681009D02*
X171440952Y-20728628D01*
X171440952Y-20728628D02*
X171060000Y-20728628D01*
X173079819Y-42113094D02*
X172079819Y-42113094D01*
X173079819Y-41541666D02*
X172508390Y-41970237D01*
X172079819Y-41541666D02*
X172651247Y-42113094D01*
X172413152Y-40684523D02*
X173079819Y-40684523D01*
X172032200Y-40922618D02*
X172746485Y-41160713D01*
X172746485Y-41160713D02*
X172746485Y-40541666D01*
X181894642Y-73284580D02*
X181847023Y-73332200D01*
X181847023Y-73332200D02*
X181704166Y-73379819D01*
X181704166Y-73379819D02*
X181608928Y-73379819D01*
X181608928Y-73379819D02*
X181466071Y-73332200D01*
X181466071Y-73332200D02*
X181370833Y-73236961D01*
X181370833Y-73236961D02*
X181323214Y-73141723D01*
X181323214Y-73141723D02*
X181275595Y-72951247D01*
X181275595Y-72951247D02*
X181275595Y-72808390D01*
X181275595Y-72808390D02*
X181323214Y-72617914D01*
X181323214Y-72617914D02*
X181370833Y-72522676D01*
X181370833Y-72522676D02*
X181466071Y-72427438D01*
X181466071Y-72427438D02*
X181608928Y-72379819D01*
X181608928Y-72379819D02*
X181704166Y-72379819D01*
X181704166Y-72379819D02*
X181847023Y-72427438D01*
X181847023Y-72427438D02*
X181894642Y-72475057D01*
X182751785Y-72713152D02*
X182751785Y-73379819D01*
X182513690Y-72332200D02*
X182275595Y-73046485D01*
X182275595Y-73046485D02*
X182894642Y-73046485D01*
X183799404Y-73379819D02*
X183227976Y-73379819D01*
X183513690Y-73379819D02*
X183513690Y-72379819D01*
X183513690Y-72379819D02*
X183418452Y-72522676D01*
X183418452Y-72522676D02*
X183323214Y-72617914D01*
X183323214Y-72617914D02*
X183227976Y-72665533D01*
X69286905Y-111004819D02*
X69286905Y-110004819D01*
X69286905Y-110481009D02*
X69858333Y-110481009D01*
X69858333Y-111004819D02*
X69858333Y-110004819D01*
X70858333Y-111004819D02*
X70286905Y-111004819D01*
X70572619Y-111004819D02*
X70572619Y-110004819D01*
X70572619Y-110004819D02*
X70477381Y-110147676D01*
X70477381Y-110147676D02*
X70382143Y-110242914D01*
X70382143Y-110242914D02*
X70286905Y-110290533D01*
X71715476Y-110004819D02*
X71525000Y-110004819D01*
X71525000Y-110004819D02*
X71429762Y-110052438D01*
X71429762Y-110052438D02*
X71382143Y-110100057D01*
X71382143Y-110100057D02*
X71286905Y-110242914D01*
X71286905Y-110242914D02*
X71239286Y-110433390D01*
X71239286Y-110433390D02*
X71239286Y-110814342D01*
X71239286Y-110814342D02*
X71286905Y-110909580D01*
X71286905Y-110909580D02*
X71334524Y-110957200D01*
X71334524Y-110957200D02*
X71429762Y-111004819D01*
X71429762Y-111004819D02*
X71620238Y-111004819D01*
X71620238Y-111004819D02*
X71715476Y-110957200D01*
X71715476Y-110957200D02*
X71763095Y-110909580D01*
X71763095Y-110909580D02*
X71810714Y-110814342D01*
X71810714Y-110814342D02*
X71810714Y-110576247D01*
X71810714Y-110576247D02*
X71763095Y-110481009D01*
X71763095Y-110481009D02*
X71715476Y-110433390D01*
X71715476Y-110433390D02*
X71620238Y-110385771D01*
X71620238Y-110385771D02*
X71429762Y-110385771D01*
X71429762Y-110385771D02*
X71334524Y-110433390D01*
X71334524Y-110433390D02*
X71286905Y-110481009D01*
X71286905Y-110481009D02*
X71239286Y-110576247D01*
X154549819Y-75676904D02*
X155359342Y-75676904D01*
X155359342Y-75676904D02*
X155454580Y-75629285D01*
X155454580Y-75629285D02*
X155502200Y-75581666D01*
X155502200Y-75581666D02*
X155549819Y-75486428D01*
X155549819Y-75486428D02*
X155549819Y-75295952D01*
X155549819Y-75295952D02*
X155502200Y-75200714D01*
X155502200Y-75200714D02*
X155454580Y-75153095D01*
X155454580Y-75153095D02*
X155359342Y-75105476D01*
X155359342Y-75105476D02*
X154549819Y-75105476D01*
X154549819Y-74200714D02*
X154549819Y-74391190D01*
X154549819Y-74391190D02*
X154597438Y-74486428D01*
X154597438Y-74486428D02*
X154645057Y-74534047D01*
X154645057Y-74534047D02*
X154787914Y-74629285D01*
X154787914Y-74629285D02*
X154978390Y-74676904D01*
X154978390Y-74676904D02*
X155359342Y-74676904D01*
X155359342Y-74676904D02*
X155454580Y-74629285D01*
X155454580Y-74629285D02*
X155502200Y-74581666D01*
X155502200Y-74581666D02*
X155549819Y-74486428D01*
X155549819Y-74486428D02*
X155549819Y-74295952D01*
X155549819Y-74295952D02*
X155502200Y-74200714D01*
X155502200Y-74200714D02*
X155454580Y-74153095D01*
X155454580Y-74153095D02*
X155359342Y-74105476D01*
X155359342Y-74105476D02*
X155121247Y-74105476D01*
X155121247Y-74105476D02*
X155026009Y-74153095D01*
X155026009Y-74153095D02*
X154978390Y-74200714D01*
X154978390Y-74200714D02*
X154930771Y-74295952D01*
X154930771Y-74295952D02*
X154930771Y-74486428D01*
X154930771Y-74486428D02*
X154978390Y-74581666D01*
X154978390Y-74581666D02*
X155026009Y-74629285D01*
X155026009Y-74629285D02*
X155121247Y-74676904D01*
X117174476Y-32602319D02*
X117174476Y-33316604D01*
X117174476Y-33316604D02*
X117126857Y-33459461D01*
X117126857Y-33459461D02*
X117031619Y-33554700D01*
X117031619Y-33554700D02*
X116888762Y-33602319D01*
X116888762Y-33602319D02*
X116793524Y-33602319D01*
X117603048Y-32697557D02*
X117650667Y-32649938D01*
X117650667Y-32649938D02*
X117745905Y-32602319D01*
X117745905Y-32602319D02*
X117984000Y-32602319D01*
X117984000Y-32602319D02*
X118079238Y-32649938D01*
X118079238Y-32649938D02*
X118126857Y-32697557D01*
X118126857Y-32697557D02*
X118174476Y-32792795D01*
X118174476Y-32792795D02*
X118174476Y-32888033D01*
X118174476Y-32888033D02*
X118126857Y-33030890D01*
X118126857Y-33030890D02*
X117555429Y-33602319D01*
X117555429Y-33602319D02*
X118174476Y-33602319D01*
X119079238Y-32602319D02*
X118603048Y-32602319D01*
X118603048Y-32602319D02*
X118555429Y-33078509D01*
X118555429Y-33078509D02*
X118603048Y-33030890D01*
X118603048Y-33030890D02*
X118698286Y-32983271D01*
X118698286Y-32983271D02*
X118936381Y-32983271D01*
X118936381Y-32983271D02*
X119031619Y-33030890D01*
X119031619Y-33030890D02*
X119079238Y-33078509D01*
X119079238Y-33078509D02*
X119126857Y-33173747D01*
X119126857Y-33173747D02*
X119126857Y-33411842D01*
X119126857Y-33411842D02*
X119079238Y-33507080D01*
X119079238Y-33507080D02*
X119031619Y-33554700D01*
X119031619Y-33554700D02*
X118936381Y-33602319D01*
X118936381Y-33602319D02*
X118698286Y-33602319D01*
X118698286Y-33602319D02*
X118603048Y-33554700D01*
X118603048Y-33554700D02*
X118555429Y-33507080D01*
X114912571Y-20919104D02*
X115388761Y-20919104D01*
X114817333Y-21204819D02*
X115150666Y-20204819D01*
X115150666Y-20204819D02*
X115483999Y-21204819D01*
X115817333Y-21204819D02*
X115817333Y-20204819D01*
X115817333Y-20204819D02*
X116150666Y-20919104D01*
X116150666Y-20919104D02*
X116483999Y-20204819D01*
X116483999Y-20204819D02*
X116483999Y-21204819D01*
X116960190Y-21204819D02*
X116960190Y-20204819D01*
X116960190Y-20204819D02*
X117341142Y-20204819D01*
X117341142Y-20204819D02*
X117436380Y-20252438D01*
X117436380Y-20252438D02*
X117483999Y-20300057D01*
X117483999Y-20300057D02*
X117531618Y-20395295D01*
X117531618Y-20395295D02*
X117531618Y-20538152D01*
X117531618Y-20538152D02*
X117483999Y-20633390D01*
X117483999Y-20633390D02*
X117436380Y-20681009D01*
X117436380Y-20681009D02*
X117341142Y-20728628D01*
X117341142Y-20728628D02*
X116960190Y-20728628D01*
X118388761Y-20538152D02*
X118388761Y-21204819D01*
X118150666Y-20157200D02*
X117912571Y-20871485D01*
X117912571Y-20871485D02*
X118531618Y-20871485D01*
X118674476Y-21300057D02*
X119436380Y-21300057D01*
X120150666Y-21204819D02*
X119674476Y-21204819D01*
X119674476Y-21204819D02*
X119674476Y-20204819D01*
X121055428Y-21204819D02*
X120722095Y-20728628D01*
X120484000Y-21204819D02*
X120484000Y-20204819D01*
X120484000Y-20204819D02*
X120864952Y-20204819D01*
X120864952Y-20204819D02*
X120960190Y-20252438D01*
X120960190Y-20252438D02*
X121007809Y-20300057D01*
X121007809Y-20300057D02*
X121055428Y-20395295D01*
X121055428Y-20395295D02*
X121055428Y-20538152D01*
X121055428Y-20538152D02*
X121007809Y-20633390D01*
X121007809Y-20633390D02*
X120960190Y-20681009D01*
X120960190Y-20681009D02*
X120864952Y-20728628D01*
X120864952Y-20728628D02*
X120484000Y-20728628D01*
X128749819Y-75561904D02*
X129559342Y-75561904D01*
X129559342Y-75561904D02*
X129654580Y-75514285D01*
X129654580Y-75514285D02*
X129702200Y-75466666D01*
X129702200Y-75466666D02*
X129749819Y-75371428D01*
X129749819Y-75371428D02*
X129749819Y-75180952D01*
X129749819Y-75180952D02*
X129702200Y-75085714D01*
X129702200Y-75085714D02*
X129654580Y-75038095D01*
X129654580Y-75038095D02*
X129559342Y-74990476D01*
X129559342Y-74990476D02*
X128749819Y-74990476D01*
X128749819Y-74609523D02*
X128749819Y-73942857D01*
X128749819Y-73942857D02*
X129749819Y-74371428D01*
X111479819Y-40863094D02*
X110479819Y-40863094D01*
X111479819Y-40291666D02*
X110908390Y-40720237D01*
X110479819Y-40291666D02*
X111051247Y-40863094D01*
X111479819Y-39815475D02*
X111479819Y-39624999D01*
X111479819Y-39624999D02*
X111432200Y-39529761D01*
X111432200Y-39529761D02*
X111384580Y-39482142D01*
X111384580Y-39482142D02*
X111241723Y-39386904D01*
X111241723Y-39386904D02*
X111051247Y-39339285D01*
X111051247Y-39339285D02*
X110670295Y-39339285D01*
X110670295Y-39339285D02*
X110575057Y-39386904D01*
X110575057Y-39386904D02*
X110527438Y-39434523D01*
X110527438Y-39434523D02*
X110479819Y-39529761D01*
X110479819Y-39529761D02*
X110479819Y-39720237D01*
X110479819Y-39720237D02*
X110527438Y-39815475D01*
X110527438Y-39815475D02*
X110575057Y-39863094D01*
X110575057Y-39863094D02*
X110670295Y-39910713D01*
X110670295Y-39910713D02*
X110908390Y-39910713D01*
X110908390Y-39910713D02*
X111003628Y-39863094D01*
X111003628Y-39863094D02*
X111051247Y-39815475D01*
X111051247Y-39815475D02*
X111098866Y-39720237D01*
X111098866Y-39720237D02*
X111098866Y-39529761D01*
X111098866Y-39529761D02*
X111051247Y-39434523D01*
X111051247Y-39434523D02*
X111003628Y-39386904D01*
X111003628Y-39386904D02*
X110908390Y-39339285D01*
X90829819Y-43089285D02*
X89829819Y-43089285D01*
X90829819Y-42517857D02*
X90258390Y-42946428D01*
X89829819Y-42517857D02*
X90401247Y-43089285D01*
X90829819Y-41565476D02*
X90829819Y-42136904D01*
X90829819Y-41851190D02*
X89829819Y-41851190D01*
X89829819Y-41851190D02*
X89972676Y-41946428D01*
X89972676Y-41946428D02*
X90067914Y-42041666D01*
X90067914Y-42041666D02*
X90115533Y-42136904D01*
X89829819Y-40946428D02*
X89829819Y-40851190D01*
X89829819Y-40851190D02*
X89877438Y-40755952D01*
X89877438Y-40755952D02*
X89925057Y-40708333D01*
X89925057Y-40708333D02*
X90020295Y-40660714D01*
X90020295Y-40660714D02*
X90210771Y-40613095D01*
X90210771Y-40613095D02*
X90448866Y-40613095D01*
X90448866Y-40613095D02*
X90639342Y-40660714D01*
X90639342Y-40660714D02*
X90734580Y-40708333D01*
X90734580Y-40708333D02*
X90782200Y-40755952D01*
X90782200Y-40755952D02*
X90829819Y-40851190D01*
X90829819Y-40851190D02*
X90829819Y-40946428D01*
X90829819Y-40946428D02*
X90782200Y-41041666D01*
X90782200Y-41041666D02*
X90734580Y-41089285D01*
X90734580Y-41089285D02*
X90639342Y-41136904D01*
X90639342Y-41136904D02*
X90448866Y-41184523D01*
X90448866Y-41184523D02*
X90210771Y-41184523D01*
X90210771Y-41184523D02*
X90020295Y-41136904D01*
X90020295Y-41136904D02*
X89925057Y-41089285D01*
X89925057Y-41089285D02*
X89877438Y-41041666D01*
X89877438Y-41041666D02*
X89829819Y-40946428D01*
X180379476Y-32602319D02*
X180379476Y-33316604D01*
X180379476Y-33316604D02*
X180331857Y-33459461D01*
X180331857Y-33459461D02*
X180236619Y-33554700D01*
X180236619Y-33554700D02*
X180093762Y-33602319D01*
X180093762Y-33602319D02*
X179998524Y-33602319D01*
X181379476Y-33602319D02*
X180808048Y-33602319D01*
X181093762Y-33602319D02*
X181093762Y-32602319D01*
X181093762Y-32602319D02*
X180998524Y-32745176D01*
X180998524Y-32745176D02*
X180903286Y-32840414D01*
X180903286Y-32840414D02*
X180808048Y-32888033D01*
X181760429Y-32697557D02*
X181808048Y-32649938D01*
X181808048Y-32649938D02*
X181903286Y-32602319D01*
X181903286Y-32602319D02*
X182141381Y-32602319D01*
X182141381Y-32602319D02*
X182236619Y-32649938D01*
X182236619Y-32649938D02*
X182284238Y-32697557D01*
X182284238Y-32697557D02*
X182331857Y-32792795D01*
X182331857Y-32792795D02*
X182331857Y-32888033D01*
X182331857Y-32888033D02*
X182284238Y-33030890D01*
X182284238Y-33030890D02*
X181712810Y-33602319D01*
X181712810Y-33602319D02*
X182331857Y-33602319D01*
X177461905Y-20919104D02*
X177938095Y-20919104D01*
X177366667Y-21204819D02*
X177700000Y-20204819D01*
X177700000Y-20204819D02*
X178033333Y-21204819D01*
X178366667Y-21204819D02*
X178366667Y-20204819D01*
X178366667Y-20204819D02*
X178700000Y-20919104D01*
X178700000Y-20919104D02*
X179033333Y-20204819D01*
X179033333Y-20204819D02*
X179033333Y-21204819D01*
X179509524Y-21204819D02*
X179509524Y-20204819D01*
X179509524Y-20204819D02*
X179890476Y-20204819D01*
X179890476Y-20204819D02*
X179985714Y-20252438D01*
X179985714Y-20252438D02*
X180033333Y-20300057D01*
X180033333Y-20300057D02*
X180080952Y-20395295D01*
X180080952Y-20395295D02*
X180080952Y-20538152D01*
X180080952Y-20538152D02*
X180033333Y-20633390D01*
X180033333Y-20633390D02*
X179985714Y-20681009D01*
X179985714Y-20681009D02*
X179890476Y-20728628D01*
X179890476Y-20728628D02*
X179509524Y-20728628D01*
X181033333Y-21204819D02*
X180461905Y-21204819D01*
X180747619Y-21204819D02*
X180747619Y-20204819D01*
X180747619Y-20204819D02*
X180652381Y-20347676D01*
X180652381Y-20347676D02*
X180557143Y-20442914D01*
X180557143Y-20442914D02*
X180461905Y-20490533D01*
X181223810Y-21300057D02*
X181985714Y-21300057D01*
X182223810Y-21204819D02*
X182223810Y-20204819D01*
X182223810Y-20204819D02*
X182604762Y-20204819D01*
X182604762Y-20204819D02*
X182700000Y-20252438D01*
X182700000Y-20252438D02*
X182747619Y-20300057D01*
X182747619Y-20300057D02*
X182795238Y-20395295D01*
X182795238Y-20395295D02*
X182795238Y-20538152D01*
X182795238Y-20538152D02*
X182747619Y-20633390D01*
X182747619Y-20633390D02*
X182700000Y-20681009D01*
X182700000Y-20681009D02*
X182604762Y-20728628D01*
X182604762Y-20728628D02*
X182223810Y-20728628D01*
X183128572Y-20204819D02*
X183366667Y-21204819D01*
X183366667Y-21204819D02*
X183557143Y-20490533D01*
X183557143Y-20490533D02*
X183747619Y-21204819D01*
X183747619Y-21204819D02*
X183985715Y-20204819D01*
X184938095Y-21204819D02*
X184604762Y-20728628D01*
X184366667Y-21204819D02*
X184366667Y-20204819D01*
X184366667Y-20204819D02*
X184747619Y-20204819D01*
X184747619Y-20204819D02*
X184842857Y-20252438D01*
X184842857Y-20252438D02*
X184890476Y-20300057D01*
X184890476Y-20300057D02*
X184938095Y-20395295D01*
X184938095Y-20395295D02*
X184938095Y-20538152D01*
X184938095Y-20538152D02*
X184890476Y-20633390D01*
X184890476Y-20633390D02*
X184842857Y-20681009D01*
X184842857Y-20681009D02*
X184747619Y-20728628D01*
X184747619Y-20728628D02*
X184366667Y-20728628D01*
X225286905Y-111004819D02*
X225286905Y-110004819D01*
X225286905Y-110481009D02*
X225858333Y-110481009D01*
X225858333Y-111004819D02*
X225858333Y-110004819D01*
X226858333Y-111004819D02*
X226286905Y-111004819D01*
X226572619Y-111004819D02*
X226572619Y-110004819D01*
X226572619Y-110004819D02*
X226477381Y-110147676D01*
X226477381Y-110147676D02*
X226382143Y-110242914D01*
X226382143Y-110242914D02*
X226286905Y-110290533D01*
X227763095Y-110004819D02*
X227286905Y-110004819D01*
X227286905Y-110004819D02*
X227239286Y-110481009D01*
X227239286Y-110481009D02*
X227286905Y-110433390D01*
X227286905Y-110433390D02*
X227382143Y-110385771D01*
X227382143Y-110385771D02*
X227620238Y-110385771D01*
X227620238Y-110385771D02*
X227715476Y-110433390D01*
X227715476Y-110433390D02*
X227763095Y-110481009D01*
X227763095Y-110481009D02*
X227810714Y-110576247D01*
X227810714Y-110576247D02*
X227810714Y-110814342D01*
X227810714Y-110814342D02*
X227763095Y-110909580D01*
X227763095Y-110909580D02*
X227715476Y-110957200D01*
X227715476Y-110957200D02*
X227620238Y-111004819D01*
X227620238Y-111004819D02*
X227382143Y-111004819D01*
X227382143Y-111004819D02*
X227286905Y-110957200D01*
X227286905Y-110957200D02*
X227239286Y-110909580D01*
X142456476Y-32602319D02*
X142456476Y-33316604D01*
X142456476Y-33316604D02*
X142408857Y-33459461D01*
X142408857Y-33459461D02*
X142313619Y-33554700D01*
X142313619Y-33554700D02*
X142170762Y-33602319D01*
X142170762Y-33602319D02*
X142075524Y-33602319D01*
X142885048Y-32697557D02*
X142932667Y-32649938D01*
X142932667Y-32649938D02*
X143027905Y-32602319D01*
X143027905Y-32602319D02*
X143266000Y-32602319D01*
X143266000Y-32602319D02*
X143361238Y-32649938D01*
X143361238Y-32649938D02*
X143408857Y-32697557D01*
X143408857Y-32697557D02*
X143456476Y-32792795D01*
X143456476Y-32792795D02*
X143456476Y-32888033D01*
X143456476Y-32888033D02*
X143408857Y-33030890D01*
X143408857Y-33030890D02*
X142837429Y-33602319D01*
X142837429Y-33602319D02*
X143456476Y-33602319D01*
X144313619Y-32935652D02*
X144313619Y-33602319D01*
X144075524Y-32554700D02*
X143837429Y-33268985D01*
X143837429Y-33268985D02*
X144456476Y-33268985D01*
X140228571Y-20919104D02*
X140704761Y-20919104D01*
X140133333Y-21204819D02*
X140466666Y-20204819D01*
X140466666Y-20204819D02*
X140799999Y-21204819D01*
X141133333Y-21204819D02*
X141133333Y-20204819D01*
X141133333Y-20204819D02*
X141466666Y-20919104D01*
X141466666Y-20919104D02*
X141799999Y-20204819D01*
X141799999Y-20204819D02*
X141799999Y-21204819D01*
X142276190Y-21204819D02*
X142276190Y-20204819D01*
X142276190Y-20204819D02*
X142657142Y-20204819D01*
X142657142Y-20204819D02*
X142752380Y-20252438D01*
X142752380Y-20252438D02*
X142799999Y-20300057D01*
X142799999Y-20300057D02*
X142847618Y-20395295D01*
X142847618Y-20395295D02*
X142847618Y-20538152D01*
X142847618Y-20538152D02*
X142799999Y-20633390D01*
X142799999Y-20633390D02*
X142752380Y-20681009D01*
X142752380Y-20681009D02*
X142657142Y-20728628D01*
X142657142Y-20728628D02*
X142276190Y-20728628D01*
X143180952Y-20204819D02*
X143799999Y-20204819D01*
X143799999Y-20204819D02*
X143466666Y-20585771D01*
X143466666Y-20585771D02*
X143609523Y-20585771D01*
X143609523Y-20585771D02*
X143704761Y-20633390D01*
X143704761Y-20633390D02*
X143752380Y-20681009D01*
X143752380Y-20681009D02*
X143799999Y-20776247D01*
X143799999Y-20776247D02*
X143799999Y-21014342D01*
X143799999Y-21014342D02*
X143752380Y-21109580D01*
X143752380Y-21109580D02*
X143704761Y-21157200D01*
X143704761Y-21157200D02*
X143609523Y-21204819D01*
X143609523Y-21204819D02*
X143323809Y-21204819D01*
X143323809Y-21204819D02*
X143228571Y-21157200D01*
X143228571Y-21157200D02*
X143180952Y-21109580D01*
X143990476Y-21300057D02*
X144752380Y-21300057D01*
X145466666Y-21204819D02*
X144990476Y-21204819D01*
X144990476Y-21204819D02*
X144990476Y-20204819D01*
X146371428Y-21204819D02*
X146038095Y-20728628D01*
X145800000Y-21204819D02*
X145800000Y-20204819D01*
X145800000Y-20204819D02*
X146180952Y-20204819D01*
X146180952Y-20204819D02*
X146276190Y-20252438D01*
X146276190Y-20252438D02*
X146323809Y-20300057D01*
X146323809Y-20300057D02*
X146371428Y-20395295D01*
X146371428Y-20395295D02*
X146371428Y-20538152D01*
X146371428Y-20538152D02*
X146323809Y-20633390D01*
X146323809Y-20633390D02*
X146276190Y-20681009D01*
X146276190Y-20681009D02*
X146180952Y-20728628D01*
X146180952Y-20728628D02*
X145800000Y-20728628D01*
%TO.C,F2*%
D12*
X215518750Y-83746250D02*
X215998750Y-83746250D01*
X215518750Y-93886250D02*
X215518750Y-83746250D01*
X215998750Y-93886250D02*
X215518750Y-93886250D01*
X218878750Y-93886250D02*
X219358750Y-93886250D01*
X219358750Y-83746250D02*
X218878750Y-83746250D01*
X219358750Y-93886250D02*
X219358750Y-83746250D01*
%TO.C,J16*%
X150707000Y-22107500D02*
X158147000Y-22107500D01*
X150707000Y-32147500D02*
X150707000Y-22107500D01*
X158747000Y-22107500D02*
X161107000Y-22107500D01*
X161107000Y-22107500D02*
X161107000Y-32147500D01*
X161107000Y-22727500D02*
X150707000Y-22727500D01*
X161107000Y-24227500D02*
X150707000Y-24227500D01*
X161107000Y-29127500D02*
X150707000Y-29127500D01*
X161107000Y-32147500D02*
X150707000Y-32147500D01*
X158447000Y-22107500D02*
X158007000Y-21497500D01*
X158887000Y-21497500D01*
X158447000Y-22107500D01*
G36*
X158447000Y-22107500D02*
G01*
X158007000Y-21497500D01*
X158887000Y-21497500D01*
X158447000Y-22107500D01*
G37*
%TO.C,J13*%
X153825000Y-113180000D02*
X153825000Y-111800000D01*
X155205000Y-113180000D02*
X153825000Y-113180000D01*
X156475000Y-110420000D02*
X166745000Y-110420000D01*
X156475000Y-113180000D02*
X156475000Y-110420000D01*
X156475000Y-113180000D02*
X166745000Y-113180000D01*
X166745000Y-113180000D02*
X166745000Y-110420000D01*
%TO.C,J15*%
X209218750Y-98326250D02*
X219258750Y-98326250D01*
X209218750Y-108726250D02*
X209218750Y-98326250D01*
X212238750Y-108726250D02*
X212238750Y-98326250D01*
X217138750Y-108726250D02*
X217138750Y-98326250D01*
X218638750Y-108726250D02*
X218638750Y-98326250D01*
X219258750Y-98326250D02*
X219258750Y-105766250D01*
X219258750Y-106366250D02*
X219258750Y-108726250D01*
X219258750Y-108726250D02*
X209218750Y-108726250D01*
X219868750Y-106506250D02*
X219258750Y-106066250D01*
X219868750Y-105626250D01*
X219868750Y-106506250D01*
G36*
X219868750Y-106506250D02*
G01*
X219258750Y-106066250D01*
X219868750Y-105626250D01*
X219868750Y-106506250D01*
G37*
%TO.C,K2*%
X152999000Y-37750000D02*
X167731000Y-37750000D01*
X152999000Y-47910000D02*
X152999000Y-37750000D01*
X155158000Y-41408000D02*
X155793000Y-41408000D01*
X155158000Y-44608000D02*
X155793000Y-44608000D01*
X155285000Y-42043000D02*
X155285000Y-43948000D01*
X155285000Y-42043000D02*
X156301000Y-42043000D01*
X155285000Y-42424000D02*
X156301000Y-43059000D01*
X155285000Y-43948000D02*
X156301000Y-43948000D01*
X155793000Y-41408000D02*
X155793000Y-42043000D01*
X155793000Y-44608000D02*
X155793000Y-43948000D01*
X156301000Y-43948000D02*
X156301000Y-42043000D01*
X167731000Y-37750000D02*
X167731000Y-47910000D01*
X167731000Y-47910000D02*
X152999000Y-47910000D01*
%TO.C,J17*%
X136325000Y-110445000D02*
X136325000Y-113205000D01*
X144055000Y-110445000D02*
X136325000Y-110445000D01*
X144055000Y-110445000D02*
X144055000Y-113205000D01*
X144055000Y-113205000D02*
X136325000Y-113205000D01*
X145325000Y-110445000D02*
X146705000Y-110445000D01*
X146705000Y-110445000D02*
X146705000Y-111825000D01*
%TO.C,J22*%
X100143000Y-22107500D02*
X107583000Y-22107500D01*
X100143000Y-32147500D02*
X100143000Y-22107500D01*
X108183000Y-22107500D02*
X110543000Y-22107500D01*
X110543000Y-22107500D02*
X110543000Y-32147500D01*
X110543000Y-22727500D02*
X100143000Y-22727500D01*
X110543000Y-24227500D02*
X100143000Y-24227500D01*
X110543000Y-29127500D02*
X100143000Y-29127500D01*
X110543000Y-32147500D02*
X100143000Y-32147500D01*
X107883000Y-22107500D02*
X107443000Y-21497500D01*
X108323000Y-21497500D01*
X107883000Y-22107500D01*
G36*
X107883000Y-22107500D02*
G01*
X107443000Y-21497500D01*
X108323000Y-21497500D01*
X107883000Y-22107500D01*
G37*
%TO.C,U5*%
X200375000Y-65075000D02*
X219875000Y-65075000D01*
X200375000Y-76075000D02*
X200375000Y-65075000D01*
X219875000Y-65075000D02*
X219875000Y-76075000D01*
X219875000Y-76075000D02*
X200375000Y-76075000D01*
D13*
X212125000Y-74025000D02*
X212725000Y-74025000D01*
X212725000Y-74625000D01*
X212125000Y-74625000D01*
X212125000Y-74025000D01*
G36*
X212125000Y-74025000D02*
G01*
X212725000Y-74025000D01*
X212725000Y-74625000D01*
X212125000Y-74625000D01*
X212125000Y-74025000D01*
G37*
%TO.C,J23*%
D12*
X74861000Y-22107500D02*
X82301000Y-22107500D01*
X74861000Y-32147500D02*
X74861000Y-22107500D01*
X82901000Y-22107500D02*
X85261000Y-22107500D01*
X85261000Y-22107500D02*
X85261000Y-32147500D01*
X85261000Y-22727500D02*
X74861000Y-22727500D01*
X85261000Y-24227500D02*
X74861000Y-24227500D01*
X85261000Y-29127500D02*
X74861000Y-29127500D01*
X85261000Y-32147500D02*
X74861000Y-32147500D01*
X82601000Y-22107500D02*
X82161000Y-21497500D01*
X83041000Y-21497500D01*
X82601000Y-22107500D01*
G36*
X82601000Y-22107500D02*
G01*
X82161000Y-21497500D01*
X83041000Y-21497500D01*
X82601000Y-22107500D01*
G37*
%TO.C,C37*%
X207905000Y-91805000D02*
X213145000Y-91805000D01*
X207905000Y-94545000D02*
X207905000Y-91805000D01*
X213145000Y-91805000D02*
X213145000Y-94545000D01*
X213145000Y-94545000D02*
X207905000Y-94545000D01*
%TO.C,J20*%
X188630000Y-22107500D02*
X196070000Y-22107500D01*
X188630000Y-32147500D02*
X188630000Y-22107500D01*
X196670000Y-22107500D02*
X199030000Y-22107500D01*
X199030000Y-22107500D02*
X199030000Y-32147500D01*
X199030000Y-22727500D02*
X188630000Y-22727500D01*
X199030000Y-24227500D02*
X188630000Y-24227500D01*
X199030000Y-29127500D02*
X188630000Y-29127500D01*
X199030000Y-32147500D02*
X188630000Y-32147500D01*
X196370000Y-22107500D02*
X195930000Y-21497500D01*
X196810000Y-21497500D01*
X196370000Y-22107500D01*
G36*
X196370000Y-22107500D02*
G01*
X195930000Y-21497500D01*
X196810000Y-21497500D01*
X196370000Y-22107500D01*
G37*
%TO.C,J21*%
X125425000Y-22107500D02*
X132865000Y-22107500D01*
X125425000Y-32147500D02*
X125425000Y-22107500D01*
X133465000Y-22107500D02*
X135825000Y-22107500D01*
X135825000Y-22107500D02*
X135825000Y-32147500D01*
X135825000Y-22727500D02*
X125425000Y-22727500D01*
X135825000Y-24227500D02*
X125425000Y-24227500D01*
X135825000Y-29127500D02*
X125425000Y-29127500D01*
X135825000Y-32147500D02*
X125425000Y-32147500D01*
X133165000Y-22107500D02*
X132725000Y-21497500D01*
X133605000Y-21497500D01*
X133165000Y-22107500D01*
G36*
X133165000Y-22107500D02*
G01*
X132725000Y-21497500D01*
X133605000Y-21497500D01*
X133165000Y-22107500D01*
G37*
%TO.C,K6*%
X111879000Y-53910000D02*
X126611000Y-53910000D01*
X111879000Y-64070000D02*
X111879000Y-53910000D01*
X114038000Y-57568000D02*
X114673000Y-57568000D01*
X114038000Y-60768000D02*
X114673000Y-60768000D01*
X114165000Y-58203000D02*
X114165000Y-60108000D01*
X114165000Y-58203000D02*
X115181000Y-58203000D01*
X114165000Y-58584000D02*
X115181000Y-59219000D01*
X114165000Y-60108000D02*
X115181000Y-60108000D01*
X114673000Y-57568000D02*
X114673000Y-58203000D01*
X114673000Y-60768000D02*
X114673000Y-60108000D01*
X115181000Y-60108000D02*
X115181000Y-58203000D01*
X126611000Y-53910000D02*
X126611000Y-64070000D01*
X126611000Y-64070000D02*
X111879000Y-64070000D01*
%TO.C,K3*%
X173464000Y-53735000D02*
X188196000Y-53735000D01*
X173464000Y-63895000D02*
X173464000Y-53735000D01*
X175623000Y-57393000D02*
X176258000Y-57393000D01*
X175623000Y-60593000D02*
X176258000Y-60593000D01*
X175750000Y-58028000D02*
X175750000Y-59933000D01*
X175750000Y-58028000D02*
X176766000Y-58028000D01*
X175750000Y-58409000D02*
X176766000Y-59044000D01*
X175750000Y-59933000D02*
X176766000Y-59933000D01*
X176258000Y-57393000D02*
X176258000Y-58028000D01*
X176258000Y-60593000D02*
X176258000Y-59933000D01*
X176766000Y-59933000D02*
X176766000Y-58028000D01*
X188196000Y-53735000D02*
X188196000Y-63895000D01*
X188196000Y-63895000D02*
X173464000Y-63895000D01*
%TO.C,J19*%
X201271000Y-22107500D02*
X208711000Y-22107500D01*
X201271000Y-32147500D02*
X201271000Y-22107500D01*
X209311000Y-22107500D02*
X211671000Y-22107500D01*
X211671000Y-22107500D02*
X211671000Y-32147500D01*
X211671000Y-22727500D02*
X201271000Y-22727500D01*
X211671000Y-24227500D02*
X201271000Y-24227500D01*
X211671000Y-29127500D02*
X201271000Y-29127500D01*
X211671000Y-32147500D02*
X201271000Y-32147500D01*
X209011000Y-22107500D02*
X208571000Y-21497500D01*
X209451000Y-21497500D01*
X209011000Y-22107500D01*
G36*
X209011000Y-22107500D02*
G01*
X208571000Y-21497500D01*
X209451000Y-21497500D01*
X209011000Y-22107500D01*
G37*
%TO.C,K1*%
X153069000Y-53730000D02*
X167801000Y-53730000D01*
X153069000Y-63890000D02*
X153069000Y-53730000D01*
X155228000Y-57388000D02*
X155863000Y-57388000D01*
X155228000Y-60588000D02*
X155863000Y-60588000D01*
X155355000Y-58023000D02*
X155355000Y-59928000D01*
X155355000Y-58023000D02*
X156371000Y-58023000D01*
X155355000Y-58404000D02*
X156371000Y-59039000D01*
X155355000Y-59928000D02*
X156371000Y-59928000D01*
X155863000Y-57388000D02*
X155863000Y-58023000D01*
X155863000Y-60588000D02*
X155863000Y-59928000D01*
X156371000Y-59928000D02*
X156371000Y-58023000D01*
X167801000Y-53730000D02*
X167801000Y-63890000D01*
X167801000Y-63890000D02*
X153069000Y-63890000D01*
%TO.C,C36*%
X205995000Y-86058000D02*
X205995000Y-84992000D01*
X206035000Y-86293000D02*
X206035000Y-84757000D01*
X206075000Y-86472000D02*
X206075000Y-84578000D01*
X206115000Y-86622000D02*
X206115000Y-84428000D01*
X206155000Y-86753000D02*
X206155000Y-84297000D01*
X206195000Y-86871000D02*
X206195000Y-84179000D01*
X206235000Y-86978000D02*
X206235000Y-84072000D01*
X206275000Y-87077000D02*
X206275000Y-83973000D01*
X206315000Y-87169000D02*
X206315000Y-83881000D01*
X206355000Y-87256000D02*
X206355000Y-83794000D01*
X206395000Y-87338000D02*
X206395000Y-83712000D01*
X206435000Y-87415000D02*
X206435000Y-83635000D01*
X206475000Y-87489000D02*
X206475000Y-83561000D01*
X206515000Y-87559000D02*
X206515000Y-83491000D01*
X206555000Y-87626000D02*
X206555000Y-83424000D01*
X206595000Y-87690000D02*
X206595000Y-83360000D01*
X206635000Y-87752000D02*
X206635000Y-83298000D01*
X206675000Y-87812000D02*
X206675000Y-83238000D01*
X206715000Y-87869000D02*
X206715000Y-83181000D01*
X206755000Y-87925000D02*
X206755000Y-83125000D01*
X206795000Y-87978000D02*
X206795000Y-83072000D01*
X206835000Y-88030000D02*
X206835000Y-83020000D01*
X206875000Y-88080000D02*
X206875000Y-82970000D01*
X206915000Y-88129000D02*
X206915000Y-82921000D01*
X206955000Y-88176000D02*
X206955000Y-82874000D01*
X206995000Y-88221000D02*
X206995000Y-82829000D01*
X207035000Y-88266000D02*
X207035000Y-82784000D01*
X207075000Y-88309000D02*
X207075000Y-82741000D01*
X207115000Y-88351000D02*
X207115000Y-82699000D01*
X207155000Y-88392000D02*
X207155000Y-82658000D01*
X207195000Y-88431000D02*
X207195000Y-82619000D01*
X207235000Y-88470000D02*
X207235000Y-82580000D01*
X207275000Y-88507000D02*
X207275000Y-82543000D01*
X207315000Y-84485000D02*
X207315000Y-82506000D01*
X207315000Y-88544000D02*
X207315000Y-86565000D01*
X207355000Y-84485000D02*
X207355000Y-82470000D01*
X207355000Y-88580000D02*
X207355000Y-86565000D01*
X207395000Y-84485000D02*
X207395000Y-82436000D01*
X207395000Y-88614000D02*
X207395000Y-86565000D01*
X207435000Y-84485000D02*
X207435000Y-82402000D01*
X207435000Y-88648000D02*
X207435000Y-86565000D01*
X207475000Y-84485000D02*
X207475000Y-82369000D01*
X207475000Y-88681000D02*
X207475000Y-86565000D01*
X207515000Y-84485000D02*
X207515000Y-82337000D01*
X207515000Y-88713000D02*
X207515000Y-86565000D01*
X207555000Y-84485000D02*
X207555000Y-82306000D01*
X207555000Y-88744000D02*
X207555000Y-86565000D01*
X207595000Y-84485000D02*
X207595000Y-82275000D01*
X207595000Y-88775000D02*
X207595000Y-86565000D01*
X207635000Y-84485000D02*
X207635000Y-82245000D01*
X207635000Y-88805000D02*
X207635000Y-86565000D01*
X207675000Y-84485000D02*
X207675000Y-82216000D01*
X207675000Y-88834000D02*
X207675000Y-86565000D01*
X207715000Y-84485000D02*
X207715000Y-82188000D01*
X207715000Y-88862000D02*
X207715000Y-86565000D01*
X207755000Y-84485000D02*
X207755000Y-82160000D01*
X207755000Y-88890000D02*
X207755000Y-86565000D01*
X207795000Y-84485000D02*
X207795000Y-82133000D01*
X207795000Y-88917000D02*
X207795000Y-86565000D01*
X207835000Y-84485000D02*
X207835000Y-82107000D01*
X207835000Y-88943000D02*
X207835000Y-86565000D01*
X207875000Y-84485000D02*
X207875000Y-82082000D01*
X207875000Y-88968000D02*
X207875000Y-86565000D01*
X207915000Y-84485000D02*
X207915000Y-82057000D01*
X207915000Y-88993000D02*
X207915000Y-86565000D01*
X207955000Y-84485000D02*
X207955000Y-82032000D01*
X207955000Y-89018000D02*
X207955000Y-86565000D01*
X207995000Y-84485000D02*
X207995000Y-82009000D01*
X207995000Y-89041000D02*
X207995000Y-86565000D01*
X208035000Y-84485000D02*
X208035000Y-81986000D01*
X208035000Y-89064000D02*
X208035000Y-86565000D01*
X208075000Y-84485000D02*
X208075000Y-81963000D01*
X208075000Y-89087000D02*
X208075000Y-86565000D01*
X208115000Y-84485000D02*
X208115000Y-81941000D01*
X208115000Y-89109000D02*
X208115000Y-86565000D01*
X208155000Y-84485000D02*
X208155000Y-81920000D01*
X208155000Y-89130000D02*
X208155000Y-86565000D01*
X208195000Y-84485000D02*
X208195000Y-81899000D01*
X208195000Y-89151000D02*
X208195000Y-86565000D01*
X208235000Y-84485000D02*
X208235000Y-81879000D01*
X208235000Y-89171000D02*
X208235000Y-86565000D01*
X208275000Y-84485000D02*
X208275000Y-81859000D01*
X208275000Y-89191000D02*
X208275000Y-86565000D01*
X208315000Y-84485000D02*
X208315000Y-81840000D01*
X208315000Y-89210000D02*
X208315000Y-86565000D01*
X208355000Y-84485000D02*
X208355000Y-81821000D01*
X208355000Y-89229000D02*
X208355000Y-86565000D01*
X208395000Y-84485000D02*
X208395000Y-81803000D01*
X208395000Y-89247000D02*
X208395000Y-86565000D01*
X208435000Y-84485000D02*
X208435000Y-81785000D01*
X208435000Y-89265000D02*
X208435000Y-86565000D01*
X208475000Y-84485000D02*
X208475000Y-81768000D01*
X208475000Y-89282000D02*
X208475000Y-86565000D01*
X208515000Y-84485000D02*
X208515000Y-81752000D01*
X208515000Y-89298000D02*
X208515000Y-86565000D01*
X208555000Y-84485000D02*
X208555000Y-81736000D01*
X208555000Y-89314000D02*
X208555000Y-86565000D01*
X208595000Y-84485000D02*
X208595000Y-81720000D01*
X208595000Y-89330000D02*
X208595000Y-86565000D01*
X208635000Y-84485000D02*
X208635000Y-81705000D01*
X208635000Y-89345000D02*
X208635000Y-86565000D01*
X208675000Y-84485000D02*
X208675000Y-81690000D01*
X208675000Y-89360000D02*
X208675000Y-86565000D01*
X208715000Y-84485000D02*
X208715000Y-81676000D01*
X208715000Y-89374000D02*
X208715000Y-86565000D01*
X208755000Y-84485000D02*
X208755000Y-81662000D01*
X208755000Y-89388000D02*
X208755000Y-86565000D01*
X208795000Y-84485000D02*
X208795000Y-81649000D01*
X208795000Y-89401000D02*
X208795000Y-86565000D01*
X208835000Y-84485000D02*
X208835000Y-81636000D01*
X208835000Y-89414000D02*
X208835000Y-86565000D01*
X208875000Y-84485000D02*
X208875000Y-81624000D01*
X208875000Y-89426000D02*
X208875000Y-86565000D01*
X208915000Y-84485000D02*
X208915000Y-81612000D01*
X208915000Y-89438000D02*
X208915000Y-86565000D01*
X208955000Y-84485000D02*
X208955000Y-81600000D01*
X208955000Y-89450000D02*
X208955000Y-86565000D01*
X208995000Y-84485000D02*
X208995000Y-81589000D01*
X208995000Y-89461000D02*
X208995000Y-86565000D01*
X209035000Y-84485000D02*
X209035000Y-81578000D01*
X209035000Y-89472000D02*
X209035000Y-86565000D01*
X209075000Y-84485000D02*
X209075000Y-81568000D01*
X209075000Y-89482000D02*
X209075000Y-86565000D01*
X209115000Y-84485000D02*
X209115000Y-81558000D01*
X209115000Y-89492000D02*
X209115000Y-86565000D01*
X209155000Y-84485000D02*
X209155000Y-81549000D01*
X209155000Y-89501000D02*
X209155000Y-86565000D01*
X209195000Y-84485000D02*
X209195000Y-81540000D01*
X209195000Y-89510000D02*
X209195000Y-86565000D01*
X209235000Y-84485000D02*
X209235000Y-81532000D01*
X209235000Y-89518000D02*
X209235000Y-86565000D01*
X209275000Y-84485000D02*
X209275000Y-81523000D01*
X209275000Y-89527000D02*
X209275000Y-86565000D01*
X209315000Y-84485000D02*
X209315000Y-81516000D01*
X209315000Y-89534000D02*
X209315000Y-86565000D01*
X209355000Y-84485000D02*
X209355000Y-81508000D01*
X209355000Y-89542000D02*
X209355000Y-86565000D01*
X209395000Y-89548000D02*
X209395000Y-81502000D01*
X209435000Y-89555000D02*
X209435000Y-81495000D01*
X209475000Y-89561000D02*
X209475000Y-81489000D01*
X209515000Y-89567000D02*
X209515000Y-81483000D01*
X209555000Y-89572000D02*
X209555000Y-81478000D01*
X209595000Y-89577000D02*
X209595000Y-81473000D01*
X209635000Y-89581000D02*
X209635000Y-81469000D01*
X209675000Y-89586000D02*
X209675000Y-81464000D01*
X209715000Y-89589000D02*
X209715000Y-81461000D01*
X209755000Y-89593000D02*
X209755000Y-81457000D01*
X209795000Y-89595000D02*
X209795000Y-81455000D01*
X209835000Y-89598000D02*
X209835000Y-81452000D01*
X209875000Y-89600000D02*
X209875000Y-81450000D01*
X209915000Y-89602000D02*
X209915000Y-81448000D01*
X209955000Y-89603000D02*
X209955000Y-81447000D01*
X209995000Y-89604000D02*
X209995000Y-81446000D01*
X210035000Y-89605000D02*
X210035000Y-81445000D01*
X210075000Y-89605000D02*
X210075000Y-81445000D01*
X214084698Y-88240000D02*
X214084698Y-87440000D01*
X214484698Y-87840000D02*
X213684698Y-87840000D01*
X214195000Y-85525000D02*
G75*
G02*
X205955000Y-85525000I-4120000J0D01*
G01*
X205955000Y-85525000D02*
G75*
G02*
X214195000Y-85525000I4120000J0D01*
G01*
%TO.C,C40*%
X205505000Y-52405000D02*
X210745000Y-52405000D01*
X205505000Y-55145000D02*
X205505000Y-52405000D01*
X210745000Y-52405000D02*
X210745000Y-55145000D01*
X210745000Y-55145000D02*
X205505000Y-55145000D01*
%TO.C,J14*%
X75605000Y-53890000D02*
X85645000Y-53890000D01*
X75605000Y-56250000D02*
X75605000Y-53890000D01*
X75605000Y-64290000D02*
X75605000Y-56850000D01*
X76225000Y-53890000D02*
X76225000Y-64290000D01*
X77725000Y-53890000D02*
X77725000Y-64290000D01*
X82625000Y-53890000D02*
X82625000Y-64290000D01*
X85645000Y-53890000D02*
X85645000Y-64290000D01*
X85645000Y-64290000D02*
X75605000Y-64290000D01*
X75605000Y-56550000D02*
X74995000Y-56990000D01*
X74995000Y-56110000D01*
X75605000Y-56550000D01*
G36*
X75605000Y-56550000D02*
G01*
X74995000Y-56990000D01*
X74995000Y-56110000D01*
X75605000Y-56550000D01*
G37*
%TO.C,K5*%
X132464000Y-53735000D02*
X147196000Y-53735000D01*
X132464000Y-63895000D02*
X132464000Y-53735000D01*
X134623000Y-57393000D02*
X135258000Y-57393000D01*
X134623000Y-60593000D02*
X135258000Y-60593000D01*
X134750000Y-58028000D02*
X134750000Y-59933000D01*
X134750000Y-58028000D02*
X135766000Y-58028000D01*
X134750000Y-58409000D02*
X135766000Y-59044000D01*
X134750000Y-59933000D02*
X135766000Y-59933000D01*
X135258000Y-57393000D02*
X135258000Y-58028000D01*
X135258000Y-60593000D02*
X135258000Y-59933000D01*
X135766000Y-59933000D02*
X135766000Y-58028000D01*
X147196000Y-53735000D02*
X147196000Y-63895000D01*
X147196000Y-63895000D02*
X132464000Y-63895000D01*
%TO.C,K7*%
X91379000Y-53780000D02*
X106111000Y-53780000D01*
X91379000Y-63940000D02*
X91379000Y-53780000D01*
X93538000Y-57438000D02*
X94173000Y-57438000D01*
X93538000Y-60638000D02*
X94173000Y-60638000D01*
X93665000Y-58073000D02*
X93665000Y-59978000D01*
X93665000Y-58073000D02*
X94681000Y-58073000D01*
X93665000Y-58454000D02*
X94681000Y-59089000D01*
X93665000Y-59978000D02*
X94681000Y-59978000D01*
X94173000Y-57438000D02*
X94173000Y-58073000D01*
X94173000Y-60638000D02*
X94173000Y-59978000D01*
X94681000Y-59978000D02*
X94681000Y-58073000D01*
X106111000Y-53780000D02*
X106111000Y-63940000D01*
X106111000Y-63940000D02*
X91379000Y-63940000D01*
%TO.C,C39*%
X204674759Y-58786000D02*
X205304759Y-58786000D01*
X204989759Y-58471000D02*
X204989759Y-59101000D01*
X208175000Y-57395000D02*
X208175000Y-63855000D01*
X208215000Y-57395000D02*
X208215000Y-63855000D01*
X208255000Y-57396000D02*
X208255000Y-63854000D01*
X208295000Y-57397000D02*
X208295000Y-63853000D01*
X208335000Y-57399000D02*
X208335000Y-63851000D01*
X208375000Y-57401000D02*
X208375000Y-63849000D01*
X208415000Y-57404000D02*
X208415000Y-59585000D01*
X208415000Y-61665000D02*
X208415000Y-63846000D01*
X208455000Y-57407000D02*
X208455000Y-59585000D01*
X208455000Y-61665000D02*
X208455000Y-63843000D01*
X208495000Y-57411000D02*
X208495000Y-59585000D01*
X208495000Y-61665000D02*
X208495000Y-63839000D01*
X208535000Y-57415000D02*
X208535000Y-59585000D01*
X208535000Y-61665000D02*
X208535000Y-63835000D01*
X208575000Y-57420000D02*
X208575000Y-59585000D01*
X208575000Y-61665000D02*
X208575000Y-63830000D01*
X208615000Y-57425000D02*
X208615000Y-59585000D01*
X208615000Y-61665000D02*
X208615000Y-63825000D01*
X208655000Y-57430000D02*
X208655000Y-59585000D01*
X208655000Y-61665000D02*
X208655000Y-63820000D01*
X208695000Y-57437000D02*
X208695000Y-59585000D01*
X208695000Y-61665000D02*
X208695000Y-63813000D01*
X208735000Y-57443000D02*
X208735000Y-59585000D01*
X208735000Y-61665000D02*
X208735000Y-63807000D01*
X208775000Y-57451000D02*
X208775000Y-59585000D01*
X208775000Y-61665000D02*
X208775000Y-63799000D01*
X208815000Y-57458000D02*
X208815000Y-59585000D01*
X208815000Y-61665000D02*
X208815000Y-63792000D01*
X208855000Y-57466000D02*
X208855000Y-59585000D01*
X208855000Y-61665000D02*
X208855000Y-63784000D01*
X208895000Y-57475000D02*
X208895000Y-59585000D01*
X208895000Y-61665000D02*
X208895000Y-63775000D01*
X208935000Y-57485000D02*
X208935000Y-59585000D01*
X208935000Y-61665000D02*
X208935000Y-63765000D01*
X208975000Y-57494000D02*
X208975000Y-59585000D01*
X208975000Y-61665000D02*
X208975000Y-63756000D01*
X209015000Y-57505000D02*
X209015000Y-59585000D01*
X209015000Y-61665000D02*
X209015000Y-63745000D01*
X209055000Y-57516000D02*
X209055000Y-59585000D01*
X209055000Y-61665000D02*
X209055000Y-63734000D01*
X209095000Y-57527000D02*
X209095000Y-59585000D01*
X209095000Y-61665000D02*
X209095000Y-63723000D01*
X209135000Y-57539000D02*
X209135000Y-59585000D01*
X209135000Y-61665000D02*
X209135000Y-63711000D01*
X209175000Y-57552000D02*
X209175000Y-59585000D01*
X209175000Y-61665000D02*
X209175000Y-63698000D01*
X209215000Y-57565000D02*
X209215000Y-59585000D01*
X209215000Y-61665000D02*
X209215000Y-63685000D01*
X209255000Y-57578000D02*
X209255000Y-59585000D01*
X209255000Y-61665000D02*
X209255000Y-63672000D01*
X209295000Y-57593000D02*
X209295000Y-59585000D01*
X209295000Y-61665000D02*
X209295000Y-63657000D01*
X209335000Y-57608000D02*
X209335000Y-59585000D01*
X209335000Y-61665000D02*
X209335000Y-63642000D01*
X209375000Y-57623000D02*
X209375000Y-59585000D01*
X209375000Y-61665000D02*
X209375000Y-63627000D01*
X209415000Y-57639000D02*
X209415000Y-59585000D01*
X209415000Y-61665000D02*
X209415000Y-63611000D01*
X209455000Y-57656000D02*
X209455000Y-59585000D01*
X209455000Y-61665000D02*
X209455000Y-63594000D01*
X209495000Y-57673000D02*
X209495000Y-59585000D01*
X209495000Y-61665000D02*
X209495000Y-63577000D01*
X209535000Y-57691000D02*
X209535000Y-59585000D01*
X209535000Y-61665000D02*
X209535000Y-63559000D01*
X209575000Y-57710000D02*
X209575000Y-59585000D01*
X209575000Y-61665000D02*
X209575000Y-63540000D01*
X209615000Y-57729000D02*
X209615000Y-59585000D01*
X209615000Y-61665000D02*
X209615000Y-63521000D01*
X209655000Y-57749000D02*
X209655000Y-59585000D01*
X209655000Y-61665000D02*
X209655000Y-63501000D01*
X209695000Y-57770000D02*
X209695000Y-59585000D01*
X209695000Y-61665000D02*
X209695000Y-63480000D01*
X209735000Y-57791000D02*
X209735000Y-59585000D01*
X209735000Y-61665000D02*
X209735000Y-63459000D01*
X209775000Y-57813000D02*
X209775000Y-59585000D01*
X209775000Y-61665000D02*
X209775000Y-63437000D01*
X209815000Y-57836000D02*
X209815000Y-59585000D01*
X209815000Y-61665000D02*
X209815000Y-63414000D01*
X209855000Y-57860000D02*
X209855000Y-59585000D01*
X209855000Y-61665000D02*
X209855000Y-63390000D01*
X209895000Y-57884000D02*
X209895000Y-59585000D01*
X209895000Y-61665000D02*
X209895000Y-63366000D01*
X209935000Y-57909000D02*
X209935000Y-59585000D01*
X209935000Y-61665000D02*
X209935000Y-63341000D01*
X209975000Y-57935000D02*
X209975000Y-59585000D01*
X209975000Y-61665000D02*
X209975000Y-63315000D01*
X210015000Y-57962000D02*
X210015000Y-59585000D01*
X210015000Y-61665000D02*
X210015000Y-63288000D01*
X210055000Y-57989000D02*
X210055000Y-59585000D01*
X210055000Y-61665000D02*
X210055000Y-63261000D01*
X210095000Y-58018000D02*
X210095000Y-59585000D01*
X210095000Y-61665000D02*
X210095000Y-63232000D01*
X210135000Y-58048000D02*
X210135000Y-59585000D01*
X210135000Y-61665000D02*
X210135000Y-63202000D01*
X210175000Y-58078000D02*
X210175000Y-59585000D01*
X210175000Y-61665000D02*
X210175000Y-63172000D01*
X210215000Y-58109000D02*
X210215000Y-59585000D01*
X210215000Y-61665000D02*
X210215000Y-63141000D01*
X210255000Y-58142000D02*
X210255000Y-59585000D01*
X210255000Y-61665000D02*
X210255000Y-63108000D01*
X210295000Y-58175000D02*
X210295000Y-59585000D01*
X210295000Y-61665000D02*
X210295000Y-63075000D01*
X210335000Y-58210000D02*
X210335000Y-59585000D01*
X210335000Y-61665000D02*
X210335000Y-63040000D01*
X210375000Y-58246000D02*
X210375000Y-59585000D01*
X210375000Y-61665000D02*
X210375000Y-63004000D01*
X210415000Y-58283000D02*
X210415000Y-59585000D01*
X210415000Y-61665000D02*
X210415000Y-62967000D01*
X210455000Y-58321000D02*
X210455000Y-59585000D01*
X210455000Y-61665000D02*
X210455000Y-62929000D01*
X210495000Y-58361000D02*
X210495000Y-62889000D01*
X210535000Y-58402000D02*
X210535000Y-62848000D01*
X210575000Y-58444000D02*
X210575000Y-62806000D01*
X210615000Y-58488000D02*
X210615000Y-62762000D01*
X210655000Y-58534000D02*
X210655000Y-62716000D01*
X210695000Y-58581000D02*
X210695000Y-62669000D01*
X210735000Y-58630000D02*
X210735000Y-62620000D01*
X210775000Y-58682000D02*
X210775000Y-62568000D01*
X210815000Y-58735000D02*
X210815000Y-62515000D01*
X210855000Y-58791000D02*
X210855000Y-62459000D01*
X210895000Y-58850000D02*
X210895000Y-62400000D01*
X210935000Y-58911000D02*
X210935000Y-62339000D01*
X210975000Y-58976000D02*
X210975000Y-62274000D01*
X211015000Y-59044000D02*
X211015000Y-62206000D01*
X211055000Y-59116000D02*
X211055000Y-62134000D01*
X211095000Y-59193000D02*
X211095000Y-62057000D01*
X211135000Y-59275000D02*
X211135000Y-61975000D01*
X211175000Y-59364000D02*
X211175000Y-61886000D01*
X211215000Y-59460000D02*
X211215000Y-61790000D01*
X211255000Y-59567000D02*
X211255000Y-61683000D01*
X211295000Y-59686000D02*
X211295000Y-61564000D01*
X211335000Y-59824000D02*
X211335000Y-61426000D01*
X211375000Y-59992000D02*
X211375000Y-61258000D01*
X211415000Y-60223000D02*
X211415000Y-61027000D01*
X211445000Y-60625000D02*
G75*
G02*
X204905000Y-60625000I-3270000J0D01*
G01*
X204905000Y-60625000D02*
G75*
G02*
X211445000Y-60625000I3270000J0D01*
G01*
%TO.C,A1*%
X125465000Y-83800000D02*
X125465000Y-87637939D01*
X125465000Y-90200000D02*
X125465000Y-88562061D01*
X125465000Y-97400000D02*
X125465000Y-90200000D01*
X125465000Y-99037939D02*
X125465000Y-97400000D01*
X125465000Y-99962061D02*
X125465000Y-103800000D01*
X125885063Y-83530000D02*
X125528000Y-83530000D01*
X125885063Y-104070000D02*
X125528000Y-104070000D01*
X126378520Y-86290000D02*
X125465000Y-86290000D01*
X126378520Y-101310000D02*
X125465000Y-101310000D01*
X128425000Y-83190000D02*
X128005000Y-83190000D01*
X128425000Y-83530000D02*
X128005000Y-83530000D01*
X128425000Y-104070000D02*
X128005000Y-104070000D01*
X128425000Y-104410000D02*
X128005000Y-104410000D01*
X130965000Y-83190000D02*
X130545000Y-83190000D01*
X130965000Y-83530000D02*
X130545000Y-83530000D01*
X130965000Y-104070000D02*
X130545000Y-104070000D01*
X130965000Y-104410000D02*
X130545000Y-104410000D01*
X133505000Y-83190000D02*
X133085000Y-83190000D01*
X133505000Y-83530000D02*
X133085000Y-83530000D01*
X133505000Y-104070000D02*
X133085000Y-104070000D01*
X133505000Y-104410000D02*
X133085000Y-104410000D01*
X136045000Y-83190000D02*
X135625000Y-83190000D01*
X136045000Y-83530000D02*
X135625000Y-83530000D01*
X136045000Y-104070000D02*
X135625000Y-104070000D01*
X136045000Y-104410000D02*
X135625000Y-104410000D01*
X138585000Y-83190000D02*
X138165000Y-83190000D01*
X138585000Y-83530000D02*
X138165000Y-83530000D01*
X138585000Y-104070000D02*
X138165000Y-104070000D01*
X138585000Y-104410000D02*
X138165000Y-104410000D01*
X141125000Y-83190000D02*
X140705000Y-83190000D01*
X141125000Y-83530000D02*
X140705000Y-83530000D01*
X141125000Y-104070000D02*
X140705000Y-104070000D01*
X141125000Y-104410000D02*
X140705000Y-104410000D01*
X143665000Y-83190000D02*
X143245000Y-83190000D01*
X143665000Y-83530000D02*
X143245000Y-83530000D01*
X143665000Y-104070000D02*
X143245000Y-104070000D01*
X143665000Y-104410000D02*
X143245000Y-104410000D01*
X146205000Y-83190000D02*
X145785000Y-83190000D01*
X146205000Y-83530000D02*
X145785000Y-83530000D01*
X146205000Y-104070000D02*
X145785000Y-104070000D01*
X146205000Y-104410000D02*
X145785000Y-104410000D01*
X148745000Y-83190000D02*
X148325000Y-83190000D01*
X148745000Y-83530000D02*
X148325000Y-83530000D01*
X148745000Y-104070000D02*
X148325000Y-104070000D01*
X148745000Y-104410000D02*
X148325000Y-104410000D01*
X151285000Y-83190000D02*
X150865000Y-83190000D01*
X151285000Y-83530000D02*
X150865000Y-83530000D01*
X151285000Y-104070000D02*
X150865000Y-104070000D01*
X151285000Y-104410000D02*
X150865000Y-104410000D01*
X153825000Y-83190000D02*
X153405000Y-83190000D01*
X153825000Y-83530000D02*
X153405000Y-83530000D01*
X153825000Y-104070000D02*
X153405000Y-104070000D01*
X153825000Y-104410000D02*
X153405000Y-104410000D01*
X156365000Y-83190000D02*
X155945000Y-83190000D01*
X156365000Y-83530000D02*
X155945000Y-83530000D01*
X156365000Y-104070000D02*
X155945000Y-104070000D01*
X156365000Y-104410000D02*
X155945000Y-104410000D01*
X158905000Y-83190000D02*
X158485000Y-83190000D01*
X158905000Y-83530000D02*
X158485000Y-83530000D01*
X158905000Y-104070000D02*
X158485000Y-104070000D01*
X158905000Y-104410000D02*
X158485000Y-104410000D01*
X161445000Y-83190000D02*
X161025000Y-83190000D01*
X161445000Y-83530000D02*
X161025000Y-83530000D01*
X161445000Y-104070000D02*
X161025000Y-104070000D01*
X161445000Y-104410000D02*
X161025000Y-104410000D01*
X163985000Y-83190000D02*
X163565000Y-83190000D01*
X163985000Y-83530000D02*
X163565000Y-83530000D01*
X163985000Y-104070000D02*
X163565000Y-104070000D01*
X163985000Y-104410000D02*
X163565000Y-104410000D01*
X166525000Y-83190000D02*
X166105000Y-83190000D01*
X166525000Y-83530000D02*
X166105000Y-83530000D01*
X166525000Y-104070000D02*
X166105000Y-104070000D01*
X166525000Y-104410000D02*
X166105000Y-104410000D01*
X169065000Y-83190000D02*
X168645000Y-83190000D01*
X169065000Y-83530000D02*
X168645000Y-83530000D01*
X169065000Y-104070000D02*
X168645000Y-104070000D01*
X169065000Y-104410000D02*
X168645000Y-104410000D01*
X171605000Y-83190000D02*
X171185000Y-83190000D01*
X171605000Y-83530000D02*
X171185000Y-83530000D01*
X171605000Y-104070000D02*
X171185000Y-104070000D01*
X171605000Y-104410000D02*
X171185000Y-104410000D01*
X172165000Y-89900000D02*
X172165000Y-90196090D01*
X172165000Y-92553910D02*
X172165000Y-95046090D01*
X172165000Y-97403910D02*
X172165000Y-97700000D01*
X173378520Y-86290000D02*
X128771480Y-86290000D01*
X173378520Y-101310000D02*
X128771480Y-101310000D01*
X173381000Y-89900000D02*
X172165000Y-89900000D01*
X173381000Y-97700000D02*
X172165000Y-97700000D01*
X174145000Y-83190000D02*
X173725000Y-83190000D01*
X174145000Y-83190000D02*
X174145000Y-82710000D01*
X174145000Y-83530000D02*
X173725000Y-83530000D01*
X174145000Y-104070000D02*
X173725000Y-104070000D01*
X174145000Y-104410000D02*
X173725000Y-104410000D01*
X176264937Y-83530000D02*
X176622000Y-83530000D01*
X176264937Y-104070000D02*
X176622000Y-104070000D01*
X176265000Y-83220324D02*
X176265000Y-82710000D01*
X176685000Y-83800000D02*
X176685000Y-86290000D01*
X176685000Y-86290000D02*
X175771480Y-86290000D01*
X176685000Y-86290000D02*
X176685000Y-87637940D01*
X176685000Y-88562061D02*
X176685000Y-89565000D01*
X176685000Y-89565000D02*
X176685000Y-98035000D01*
X176685000Y-89900000D02*
X175769000Y-89900000D01*
X176685000Y-97700000D02*
X175769000Y-97700000D01*
X176685000Y-98035000D02*
X176685000Y-99037939D01*
X176685000Y-99962061D02*
X176685000Y-101310000D01*
X176685000Y-101310000D02*
X175771480Y-101310000D01*
X176685000Y-103800000D02*
X176685000Y-101310000D01*
X125465000Y-83800000D02*
G75*
G02*
X125885063Y-83220324I610002J-1D01*
G01*
X125885063Y-104379676D02*
G75*
G02*
X125464931Y-103800000I189837J579676D01*
G01*
X176265000Y-83220324D02*
G75*
G02*
X176685000Y-83800000I-190051J-579692D01*
G01*
X176685000Y-103800000D02*
G75*
G02*
X176264937Y-104379676I-610000J0D01*
G01*
%TO.C,J26*%
X87502000Y-22107500D02*
X94942000Y-22107500D01*
X87502000Y-32147500D02*
X87502000Y-22107500D01*
X95542000Y-22107500D02*
X97902000Y-22107500D01*
X97902000Y-22107500D02*
X97902000Y-32147500D01*
X97902000Y-22727500D02*
X87502000Y-22727500D01*
X97902000Y-24227500D02*
X87502000Y-24227500D01*
X97902000Y-29127500D02*
X87502000Y-29127500D01*
X97902000Y-32147500D02*
X87502000Y-32147500D01*
X95242000Y-22107500D02*
X94802000Y-21497500D01*
X95682000Y-21497500D01*
X95242000Y-22107500D01*
G36*
X95242000Y-22107500D02*
G01*
X94802000Y-21497500D01*
X95682000Y-21497500D01*
X95242000Y-22107500D01*
G37*
%TO.C,K8*%
X132539000Y-37780000D02*
X147271000Y-37780000D01*
X132539000Y-47940000D02*
X132539000Y-37780000D01*
X134698000Y-41438000D02*
X135333000Y-41438000D01*
X134698000Y-44638000D02*
X135333000Y-44638000D01*
X134825000Y-42073000D02*
X134825000Y-43978000D01*
X134825000Y-42073000D02*
X135841000Y-42073000D01*
X134825000Y-42454000D02*
X135841000Y-43089000D01*
X134825000Y-43978000D02*
X135841000Y-43978000D01*
X135333000Y-41438000D02*
X135333000Y-42073000D01*
X135333000Y-44638000D02*
X135333000Y-43978000D01*
X135841000Y-43978000D02*
X135841000Y-42073000D01*
X147271000Y-37780000D02*
X147271000Y-47940000D01*
X147271000Y-47940000D02*
X132539000Y-47940000D01*
%TO.C,U8*%
X103655000Y-69910000D02*
X126755000Y-69910000D01*
X103655000Y-79810000D02*
X103655000Y-69910000D01*
X103655000Y-79810000D02*
X126755000Y-79810000D01*
X126755000Y-79810000D02*
X126755000Y-69910000D01*
X103655000Y-73590000D02*
G75*
G02*
X103655000Y-76130000I0J-1270000D01*
G01*
%TO.C,J18*%
X163360000Y-22130000D02*
X170800000Y-22130000D01*
X163360000Y-32170000D02*
X163360000Y-22130000D01*
X171400000Y-22130000D02*
X173760000Y-22130000D01*
X173760000Y-22130000D02*
X173760000Y-32170000D01*
X173760000Y-22750000D02*
X163360000Y-22750000D01*
X173760000Y-24250000D02*
X163360000Y-24250000D01*
X173760000Y-29150000D02*
X163360000Y-29150000D01*
X173760000Y-32170000D02*
X163360000Y-32170000D01*
X171100000Y-22130000D02*
X170660000Y-21520000D01*
X171540000Y-21520000D01*
X171100000Y-22130000D01*
G36*
X171100000Y-22130000D02*
G01*
X170660000Y-21520000D01*
X171540000Y-21520000D01*
X171100000Y-22130000D01*
G37*
%TO.C,K4*%
X173464000Y-37780000D02*
X188196000Y-37780000D01*
X173464000Y-47940000D02*
X173464000Y-37780000D01*
X175623000Y-41438000D02*
X176258000Y-41438000D01*
X175623000Y-44638000D02*
X176258000Y-44638000D01*
X175750000Y-42073000D02*
X175750000Y-43978000D01*
X175750000Y-42073000D02*
X176766000Y-42073000D01*
X175750000Y-42454000D02*
X176766000Y-43089000D01*
X175750000Y-43978000D02*
X176766000Y-43978000D01*
X176258000Y-41438000D02*
X176258000Y-42073000D01*
X176258000Y-44638000D02*
X176258000Y-43978000D01*
X176766000Y-43978000D02*
X176766000Y-42073000D01*
X188196000Y-37780000D02*
X188196000Y-47940000D01*
X188196000Y-47940000D02*
X173464000Y-47940000D01*
%TO.C,C41*%
X183248752Y-70165000D02*
X181826248Y-70165000D01*
X183248752Y-71985000D02*
X181826248Y-71985000D01*
%TO.C,U6*%
X155995000Y-69965000D02*
X179095000Y-69965000D01*
X155995000Y-79865000D02*
X155995000Y-69965000D01*
X155995000Y-79865000D02*
X179095000Y-79865000D01*
X179095000Y-79865000D02*
X179095000Y-69965000D01*
X155995000Y-73645000D02*
G75*
G02*
X155995000Y-76185000I0J-1270000D01*
G01*
%TO.C,J25*%
X112784000Y-22107500D02*
X120224000Y-22107500D01*
X112784000Y-32147500D02*
X112784000Y-22107500D01*
X120824000Y-22107500D02*
X123184000Y-22107500D01*
X123184000Y-22107500D02*
X123184000Y-32147500D01*
X123184000Y-22727500D02*
X112784000Y-22727500D01*
X123184000Y-24227500D02*
X112784000Y-24227500D01*
X123184000Y-29127500D02*
X112784000Y-29127500D01*
X123184000Y-32147500D02*
X112784000Y-32147500D01*
X120524000Y-22107500D02*
X120084000Y-21497500D01*
X120964000Y-21497500D01*
X120524000Y-22107500D01*
G36*
X120524000Y-22107500D02*
G01*
X120084000Y-21497500D01*
X120964000Y-21497500D01*
X120524000Y-22107500D01*
G37*
%TO.C,U7*%
X130195000Y-69850000D02*
X153295000Y-69850000D01*
X130195000Y-79750000D02*
X130195000Y-69850000D01*
X130195000Y-79750000D02*
X153295000Y-79750000D01*
X153295000Y-79750000D02*
X153295000Y-69850000D01*
X130195000Y-73530000D02*
G75*
G02*
X130195000Y-76070000I0J-1270000D01*
G01*
%TO.C,K9*%
X112039000Y-37780000D02*
X126771000Y-37780000D01*
X112039000Y-47940000D02*
X112039000Y-37780000D01*
X114198000Y-41438000D02*
X114833000Y-41438000D01*
X114198000Y-44638000D02*
X114833000Y-44638000D01*
X114325000Y-42073000D02*
X114325000Y-43978000D01*
X114325000Y-42073000D02*
X115341000Y-42073000D01*
X114325000Y-42454000D02*
X115341000Y-43089000D01*
X114325000Y-43978000D02*
X115341000Y-43978000D01*
X114833000Y-41438000D02*
X114833000Y-42073000D01*
X114833000Y-44638000D02*
X114833000Y-43978000D01*
X115341000Y-43978000D02*
X115341000Y-42073000D01*
X126771000Y-37780000D02*
X126771000Y-47940000D01*
X126771000Y-47940000D02*
X112039000Y-47940000D01*
%TO.C,K10*%
X91464000Y-37780000D02*
X106196000Y-37780000D01*
X91464000Y-47940000D02*
X91464000Y-37780000D01*
X93623000Y-41438000D02*
X94258000Y-41438000D01*
X93623000Y-44638000D02*
X94258000Y-44638000D01*
X93750000Y-42073000D02*
X93750000Y-43978000D01*
X93750000Y-42073000D02*
X94766000Y-42073000D01*
X93750000Y-42454000D02*
X94766000Y-43089000D01*
X93750000Y-43978000D02*
X94766000Y-43978000D01*
X94258000Y-41438000D02*
X94258000Y-42073000D01*
X94258000Y-44638000D02*
X94258000Y-43978000D01*
X94766000Y-43978000D02*
X94766000Y-42073000D01*
X106196000Y-37780000D02*
X106196000Y-47940000D01*
X106196000Y-47940000D02*
X91464000Y-47940000D01*
%TO.C,J12*%
X175989000Y-22107500D02*
X183429000Y-22107500D01*
X175989000Y-32147500D02*
X175989000Y-22107500D01*
X184029000Y-22107500D02*
X186389000Y-22107500D01*
X186389000Y-22107500D02*
X186389000Y-32147500D01*
X186389000Y-22727500D02*
X175989000Y-22727500D01*
X186389000Y-24227500D02*
X175989000Y-24227500D01*
X186389000Y-29127500D02*
X175989000Y-29127500D01*
X186389000Y-32147500D02*
X175989000Y-32147500D01*
X183729000Y-22107500D02*
X183289000Y-21497500D01*
X184169000Y-21497500D01*
X183729000Y-22107500D01*
G36*
X183729000Y-22107500D02*
G01*
X183289000Y-21497500D01*
X184169000Y-21497500D01*
X183729000Y-22107500D01*
G37*
%TO.C,J24*%
X138066000Y-22107500D02*
X145506000Y-22107500D01*
X138066000Y-32147500D02*
X138066000Y-22107500D01*
X146106000Y-22107500D02*
X148466000Y-22107500D01*
X148466000Y-22107500D02*
X148466000Y-32147500D01*
X148466000Y-22727500D02*
X138066000Y-22727500D01*
X148466000Y-24227500D02*
X138066000Y-24227500D01*
X148466000Y-29127500D02*
X138066000Y-29127500D01*
X148466000Y-32147500D02*
X138066000Y-32147500D01*
X145806000Y-22107500D02*
X145366000Y-21497500D01*
X146246000Y-21497500D01*
X145806000Y-22107500D01*
G36*
X145806000Y-22107500D02*
G01*
X145366000Y-21497500D01*
X146246000Y-21497500D01*
X145806000Y-22107500D01*
G37*
%TD*%
%LPC*%
D14*
%TO.C,F2*%
X217438750Y-95166250D03*
X217438750Y-82466250D03*
%TD*%
D15*
%TO.C,J16*%
X158447000Y-26827500D03*
D16*
X153367000Y-26827500D03*
%TD*%
D17*
%TO.C,J13*%
X155205000Y-111800000D03*
D18*
X157745000Y-111800000D03*
X160285000Y-111800000D03*
X162825000Y-111800000D03*
X165365000Y-111800000D03*
%TD*%
D19*
%TO.C,J15*%
X214538750Y-106066250D03*
D16*
X214538750Y-100986250D03*
%TD*%
D20*
%TO.C,K2*%
X155285000Y-46640000D03*
X157825000Y-46640000D03*
X160365000Y-46640000D03*
X162905000Y-46640000D03*
X165445000Y-46640000D03*
X165445000Y-39020000D03*
X162905000Y-39020000D03*
X160365000Y-39020000D03*
X157825000Y-39020000D03*
X155285000Y-39020000D03*
%TD*%
D17*
%TO.C,J17*%
X145325000Y-111825000D03*
D18*
X142785000Y-111825000D03*
X140245000Y-111825000D03*
X137705000Y-111825000D03*
%TD*%
D15*
%TO.C,J22*%
X107883000Y-26827500D03*
D16*
X102803000Y-26827500D03*
%TD*%
D21*
%TO.C,U5*%
X211875000Y-73075000D03*
D22*
X209335000Y-73075000D03*
X206795000Y-73075000D03*
%TD*%
D15*
%TO.C,J23*%
X82601000Y-26827500D03*
D16*
X77521000Y-26827500D03*
%TD*%
D23*
%TO.C,C37*%
X211775000Y-93175000D03*
X209275000Y-93175000D03*
%TD*%
D15*
%TO.C,J20*%
X196370000Y-26827500D03*
D16*
X191290000Y-26827500D03*
%TD*%
D15*
%TO.C,J21*%
X133165000Y-26827500D03*
D16*
X128085000Y-26827500D03*
%TD*%
D20*
%TO.C,K6*%
X114165000Y-62800000D03*
X116705000Y-62800000D03*
X119245000Y-62800000D03*
X121785000Y-62800000D03*
X124325000Y-62800000D03*
X124325000Y-55180000D03*
X121785000Y-55180000D03*
X119245000Y-55180000D03*
X116705000Y-55180000D03*
X114165000Y-55180000D03*
%TD*%
D24*
%TO.C,H13*%
X70525000Y-23500000D03*
%TD*%
D20*
%TO.C,K3*%
X175750000Y-62625000D03*
X178290000Y-62625000D03*
X180830000Y-62625000D03*
X183370000Y-62625000D03*
X185910000Y-62625000D03*
X185910000Y-55005000D03*
X183370000Y-55005000D03*
X180830000Y-55005000D03*
X178290000Y-55005000D03*
X175750000Y-55005000D03*
%TD*%
D15*
%TO.C,J19*%
X209011000Y-26827500D03*
D16*
X203931000Y-26827500D03*
%TD*%
D20*
%TO.C,K1*%
X155355000Y-62620000D03*
X157895000Y-62620000D03*
X160435000Y-62620000D03*
X162975000Y-62620000D03*
X165515000Y-62620000D03*
X165515000Y-55000000D03*
X162975000Y-55000000D03*
X160435000Y-55000000D03*
X157895000Y-55000000D03*
X155355000Y-55000000D03*
%TD*%
D25*
%TO.C,C36*%
X211825000Y-85525000D03*
D23*
X208325000Y-85525000D03*
%TD*%
%TO.C,C40*%
X206875000Y-53775000D03*
X209375000Y-53775000D03*
%TD*%
D26*
%TO.C,J14*%
X80325000Y-56550000D03*
D16*
X80325000Y-61630000D03*
%TD*%
D20*
%TO.C,K5*%
X134750000Y-62625000D03*
X137290000Y-62625000D03*
X139830000Y-62625000D03*
X142370000Y-62625000D03*
X144910000Y-62625000D03*
X144910000Y-55005000D03*
X142370000Y-55005000D03*
X139830000Y-55005000D03*
X137290000Y-55005000D03*
X134750000Y-55005000D03*
%TD*%
%TO.C,K7*%
X93665000Y-62670000D03*
X96205000Y-62670000D03*
X98745000Y-62670000D03*
X101285000Y-62670000D03*
X103825000Y-62670000D03*
X103825000Y-55050000D03*
X101285000Y-55050000D03*
X98745000Y-55050000D03*
X96205000Y-55050000D03*
X93665000Y-55050000D03*
%TD*%
D27*
%TO.C,C39*%
X206925000Y-60625000D03*
D23*
X209425000Y-60625000D03*
%TD*%
D24*
%TO.C,H14*%
X226525000Y-23500000D03*
%TD*%
D28*
%TO.C,A1*%
X175075000Y-91075000D03*
D29*
X172045000Y-91375000D03*
X172045000Y-96225000D03*
D28*
X175075000Y-96525000D03*
D30*
X175205000Y-84110000D03*
D31*
X175205000Y-84910000D03*
D32*
X172665000Y-84110000D03*
D23*
X172665000Y-84910000D03*
D33*
X170125000Y-84110000D03*
D34*
X170125000Y-84910000D03*
D32*
X167585000Y-84110000D03*
D23*
X167585000Y-84910000D03*
D32*
X165045000Y-84110000D03*
D23*
X165045000Y-84910000D03*
D32*
X162505000Y-84110000D03*
D23*
X162505000Y-84910000D03*
D32*
X159965000Y-84110000D03*
D23*
X159965000Y-84910000D03*
D33*
X157425000Y-84110000D03*
D34*
X157425000Y-84910000D03*
D32*
X154885000Y-84110000D03*
D23*
X154885000Y-84910000D03*
D32*
X152345000Y-84110000D03*
D23*
X152345000Y-84910000D03*
D32*
X149805000Y-84110000D03*
D23*
X149805000Y-84910000D03*
D32*
X147265000Y-84110000D03*
D23*
X147265000Y-84910000D03*
D33*
X144725000Y-84110000D03*
D34*
X144725000Y-84910000D03*
D32*
X142185000Y-84110000D03*
D23*
X142185000Y-84910000D03*
D32*
X139645000Y-84110000D03*
D23*
X139645000Y-84910000D03*
D32*
X137105000Y-84110000D03*
D23*
X137105000Y-84910000D03*
D32*
X134565000Y-84110000D03*
D23*
X134565000Y-84910000D03*
D33*
X132025000Y-84110000D03*
D34*
X132025000Y-84910000D03*
D32*
X129485000Y-84110000D03*
D23*
X129485000Y-84910000D03*
D32*
X126945000Y-84110000D03*
D23*
X126945000Y-84910000D03*
X126945000Y-102690000D03*
D32*
X126945000Y-103490000D03*
D23*
X129485000Y-102690000D03*
D32*
X129485000Y-103490000D03*
D35*
X132025000Y-102690000D03*
D30*
X132025000Y-103490000D03*
D23*
X134565000Y-102690000D03*
D32*
X134565000Y-103490000D03*
D23*
X137105000Y-102690000D03*
D32*
X137105000Y-103490000D03*
D23*
X139645000Y-102690000D03*
D32*
X139645000Y-103490000D03*
D23*
X142185000Y-102690000D03*
D32*
X142185000Y-103490000D03*
D35*
X144725000Y-102690000D03*
D30*
X144725000Y-103490000D03*
D23*
X147265000Y-102690000D03*
D32*
X147265000Y-103490000D03*
D23*
X149805000Y-102690000D03*
D32*
X149805000Y-103490000D03*
D23*
X152345000Y-102690000D03*
D32*
X152345000Y-103490000D03*
D23*
X154885000Y-102690000D03*
D32*
X154885000Y-103490000D03*
D35*
X157425000Y-102690000D03*
D30*
X157425000Y-103490000D03*
D23*
X159965000Y-102690000D03*
D32*
X159965000Y-103490000D03*
D23*
X162505000Y-102690000D03*
D32*
X162505000Y-103490000D03*
D23*
X165045000Y-102690000D03*
D32*
X165045000Y-103490000D03*
D23*
X167585000Y-102690000D03*
D32*
X167585000Y-103490000D03*
D35*
X170125000Y-102690000D03*
D30*
X170125000Y-103490000D03*
D23*
X172665000Y-102690000D03*
D32*
X172665000Y-103490000D03*
D23*
X175205000Y-102690000D03*
D32*
X175205000Y-103490000D03*
%TD*%
D15*
%TO.C,J26*%
X95242000Y-26827500D03*
D16*
X90162000Y-26827500D03*
%TD*%
D20*
%TO.C,K8*%
X134825000Y-46670000D03*
X137365000Y-46670000D03*
X139905000Y-46670000D03*
X142445000Y-46670000D03*
X144985000Y-46670000D03*
X144985000Y-39050000D03*
X142445000Y-39050000D03*
X139905000Y-39050000D03*
X137365000Y-39050000D03*
X134825000Y-39050000D03*
%TD*%
D36*
%TO.C,U8*%
X105045000Y-78670000D03*
D37*
X107585000Y-78670000D03*
X110125000Y-78670000D03*
X112665000Y-78670000D03*
X115205000Y-78670000D03*
X117745000Y-78670000D03*
X120285000Y-78670000D03*
X122825000Y-78670000D03*
X125365000Y-78670000D03*
X125365000Y-71050000D03*
X122825000Y-71050000D03*
X120285000Y-71050000D03*
X117745000Y-71050000D03*
X115205000Y-71050000D03*
X112665000Y-71050000D03*
X110125000Y-71050000D03*
X107585000Y-71050000D03*
X105045000Y-71050000D03*
%TD*%
D15*
%TO.C,J18*%
X171100000Y-26850000D03*
D16*
X166020000Y-26850000D03*
%TD*%
D20*
%TO.C,K4*%
X175750000Y-46670000D03*
X178290000Y-46670000D03*
X180830000Y-46670000D03*
X183370000Y-46670000D03*
X185910000Y-46670000D03*
X185910000Y-39050000D03*
X183370000Y-39050000D03*
X180830000Y-39050000D03*
X178290000Y-39050000D03*
X175750000Y-39050000D03*
%TD*%
D38*
%TO.C,C41*%
X184100000Y-71075000D03*
X180975000Y-71075000D03*
%TD*%
D24*
%TO.C,H16*%
X70525000Y-114700000D03*
%TD*%
D36*
%TO.C,U6*%
X157385000Y-78725000D03*
D37*
X159925000Y-78725000D03*
X162465000Y-78725000D03*
X165005000Y-78725000D03*
X167545000Y-78725000D03*
X170085000Y-78725000D03*
X172625000Y-78725000D03*
X175165000Y-78725000D03*
X177705000Y-78725000D03*
X177705000Y-71105000D03*
X175165000Y-71105000D03*
X172625000Y-71105000D03*
X170085000Y-71105000D03*
X167545000Y-71105000D03*
X165005000Y-71105000D03*
X162465000Y-71105000D03*
X159925000Y-71105000D03*
X157385000Y-71105000D03*
%TD*%
D15*
%TO.C,J25*%
X120524000Y-26827500D03*
D16*
X115444000Y-26827500D03*
%TD*%
D36*
%TO.C,U7*%
X131585000Y-78610000D03*
D37*
X134125000Y-78610000D03*
X136665000Y-78610000D03*
X139205000Y-78610000D03*
X141745000Y-78610000D03*
X144285000Y-78610000D03*
X146825000Y-78610000D03*
X149365000Y-78610000D03*
X151905000Y-78610000D03*
X151905000Y-70990000D03*
X149365000Y-70990000D03*
X146825000Y-70990000D03*
X144285000Y-70990000D03*
X141745000Y-70990000D03*
X139205000Y-70990000D03*
X136665000Y-70990000D03*
X134125000Y-70990000D03*
X131585000Y-70990000D03*
%TD*%
D20*
%TO.C,K9*%
X114325000Y-46670000D03*
X116865000Y-46670000D03*
X119405000Y-46670000D03*
X121945000Y-46670000D03*
X124485000Y-46670000D03*
X124485000Y-39050000D03*
X121945000Y-39050000D03*
X119405000Y-39050000D03*
X116865000Y-39050000D03*
X114325000Y-39050000D03*
%TD*%
%TO.C,K10*%
X93750000Y-46670000D03*
X96290000Y-46670000D03*
X98830000Y-46670000D03*
X101370000Y-46670000D03*
X103910000Y-46670000D03*
X103910000Y-39050000D03*
X101370000Y-39050000D03*
X98830000Y-39050000D03*
X96290000Y-39050000D03*
X93750000Y-39050000D03*
%TD*%
D15*
%TO.C,J12*%
X183729000Y-26827500D03*
D16*
X178649000Y-26827500D03*
%TD*%
D24*
%TO.C,H15*%
X226525000Y-114700000D03*
%TD*%
D15*
%TO.C,J24*%
X145806000Y-26827500D03*
D16*
X140726000Y-26827500D03*
%TD*%
%LPD*%
M02*
