%TF.GenerationSoftware,KiCad,Pcbnew,10.0.1*%
%TF.CreationDate,2026-06-05T16:19:36+09:00*%
%TF.ProjectId,AudioCase_1_main,41756469-6f43-4617-9365-5f315f6d6169,rev?*%
%TF.SameCoordinates,Original*%
%TF.FileFunction,Legend,Bot*%
%TF.FilePolarity,Positive*%
%FSLAX46Y46*%
G04 Gerber Fmt 4.6, Leading zero omitted, Abs format (unit mm)*
G04 Created by KiCad (PCBNEW 10.0.1) date 2026-06-05 16:19:36*
%MOMM*%
%LPD*%
G01*
G04 APERTURE LIST*
G04 Aperture macros list*
%AMRoundRect*
0 Rectangle with rounded corners*
0 $1 Rounding radius*
0 $2 $3 $4 $5 $6 $7 $8 $9 X,Y pos of 4 corners*
0 Add a 4 corners polygon primitive as box body*
4,1,4,$2,$3,$4,$5,$6,$7,$8,$9,$2,$3,0*
0 Add four circle primitives for the rounded corners*
1,1,$1+$1,$2,$3*
1,1,$1+$1,$4,$5*
1,1,$1+$1,$6,$7*
1,1,$1+$1,$8,$9*
0 Add four rect primitives between the rounded corners*
20,1,$1+$1,$2,$3,$4,$5,0*
20,1,$1+$1,$4,$5,$6,$7,0*
20,1,$1+$1,$6,$7,$8,$9,0*
20,1,$1+$1,$8,$9,$2,$3,0*%
%AMFreePoly0*
4,1,37,0.603843,0.796157,0.639018,0.796157,0.711114,0.766294,0.766294,0.711114,0.796157,0.639018,0.796157,0.603843,0.800000,0.600000,0.800000,-0.600000,0.796157,-0.603843,0.796157,-0.639018,0.766294,-0.711114,0.711114,-0.766294,0.639018,-0.796157,0.603843,-0.796157,0.600000,-0.800000,0.000000,-0.800000,0.000000,-0.796148,-0.078414,-0.796148,-0.232228,-0.765552,-0.377117,-0.705537,
-0.507515,-0.618408,-0.618408,-0.507515,-0.705537,-0.377117,-0.765552,-0.232228,-0.796148,-0.078414,-0.796148,0.078414,-0.765552,0.232228,-0.705537,0.377117,-0.618408,0.507515,-0.507515,0.618408,-0.377117,0.705537,-0.232228,0.765552,-0.078414,0.796148,0.000000,0.796148,0.000000,0.800000,0.600000,0.800000,0.603843,0.796157,0.603843,0.796157,$1*%
%AMFreePoly1*
4,1,37,0.000000,0.796148,0.078414,0.796148,0.232228,0.765552,0.377117,0.705537,0.507515,0.618408,0.618408,0.507515,0.705537,0.377117,0.765552,0.232228,0.796148,0.078414,0.796148,-0.078414,0.765552,-0.232228,0.705537,-0.377117,0.618408,-0.507515,0.507515,-0.618408,0.377117,-0.705537,0.232228,-0.765552,0.078414,-0.796148,0.000000,-0.796148,0.000000,-0.800000,-0.600000,-0.800000,
-0.603843,-0.796157,-0.639018,-0.796157,-0.711114,-0.766294,-0.766294,-0.711114,-0.796157,-0.639018,-0.796157,-0.603843,-0.800000,-0.600000,-0.800000,0.600000,-0.796157,0.603843,-0.796157,0.639018,-0.766294,0.711114,-0.711114,0.766294,-0.639018,0.796157,-0.603843,0.796157,-0.600000,0.800000,0.000000,0.800000,0.000000,0.796148,0.000000,0.796148,$1*%
G04 Aperture macros list end*
%ADD10C,0.150000*%
%ADD11C,0.120000*%
%ADD12C,3.200000*%
%ADD13O,1.600000X2.300000*%
%ADD14C,1.600000*%
%ADD15RoundRect,0.250000X1.050000X1.050000X-1.050000X1.050000X-1.050000X-1.050000X1.050000X-1.050000X0*%
%ADD16C,2.600000*%
%ADD17RoundRect,0.250000X0.550000X0.550000X-0.550000X0.550000X-0.550000X-0.550000X0.550000X-0.550000X0*%
%ADD18R,2.000000X2.000000*%
%ADD19C,2.000000*%
%ADD20R,1.600000X1.600000*%
%ADD21O,1.600000X1.600000*%
%ADD22RoundRect,0.250000X1.050000X-1.050000X1.050000X1.050000X-1.050000X1.050000X-1.050000X-1.050000X0*%
%ADD23R,1.700000X1.700000*%
%ADD24C,1.700000*%
%ADD25RoundRect,0.250000X-1.050000X1.050000X-1.050000X-1.050000X1.050000X-1.050000X1.050000X1.050000X0*%
%ADD26C,2.400000*%
%ADD27C,2.200000*%
%ADD28C,1.850000*%
%ADD29RoundRect,0.200000X-0.600000X0.600000X-0.600000X-0.600000X0.600000X-0.600000X0.600000X0.600000X0*%
%ADD30FreePoly0,270.000000*%
%ADD31FreePoly1,270.000000*%
%ADD32RoundRect,0.250000X-0.412500X-0.650000X0.412500X-0.650000X0.412500X0.650000X-0.412500X0.650000X0*%
%ADD33RoundRect,0.250000X0.650000X-0.412500X0.650000X0.412500X-0.650000X0.412500X-0.650000X-0.412500X0*%
G04 APERTURE END LIST*
D10*
X151055357Y-76684580D02*
X151102976Y-76732200D01*
X151102976Y-76732200D02*
X151245833Y-76779819D01*
X151245833Y-76779819D02*
X151341071Y-76779819D01*
X151341071Y-76779819D02*
X151483928Y-76732200D01*
X151483928Y-76732200D02*
X151579166Y-76636961D01*
X151579166Y-76636961D02*
X151626785Y-76541723D01*
X151626785Y-76541723D02*
X151674404Y-76351247D01*
X151674404Y-76351247D02*
X151674404Y-76208390D01*
X151674404Y-76208390D02*
X151626785Y-76017914D01*
X151626785Y-76017914D02*
X151579166Y-75922676D01*
X151579166Y-75922676D02*
X151483928Y-75827438D01*
X151483928Y-75827438D02*
X151341071Y-75779819D01*
X151341071Y-75779819D02*
X151245833Y-75779819D01*
X151245833Y-75779819D02*
X151102976Y-75827438D01*
X151102976Y-75827438D02*
X151055357Y-75875057D01*
X150722023Y-75779819D02*
X150102976Y-75779819D01*
X150102976Y-75779819D02*
X150436309Y-76160771D01*
X150436309Y-76160771D02*
X150293452Y-76160771D01*
X150293452Y-76160771D02*
X150198214Y-76208390D01*
X150198214Y-76208390D02*
X150150595Y-76256009D01*
X150150595Y-76256009D02*
X150102976Y-76351247D01*
X150102976Y-76351247D02*
X150102976Y-76589342D01*
X150102976Y-76589342D02*
X150150595Y-76684580D01*
X150150595Y-76684580D02*
X150198214Y-76732200D01*
X150198214Y-76732200D02*
X150293452Y-76779819D01*
X150293452Y-76779819D02*
X150579166Y-76779819D01*
X150579166Y-76779819D02*
X150674404Y-76732200D01*
X150674404Y-76732200D02*
X150722023Y-76684580D01*
X149245833Y-75779819D02*
X149436309Y-75779819D01*
X149436309Y-75779819D02*
X149531547Y-75827438D01*
X149531547Y-75827438D02*
X149579166Y-75875057D01*
X149579166Y-75875057D02*
X149674404Y-76017914D01*
X149674404Y-76017914D02*
X149722023Y-76208390D01*
X149722023Y-76208390D02*
X149722023Y-76589342D01*
X149722023Y-76589342D02*
X149674404Y-76684580D01*
X149674404Y-76684580D02*
X149626785Y-76732200D01*
X149626785Y-76732200D02*
X149531547Y-76779819D01*
X149531547Y-76779819D02*
X149341071Y-76779819D01*
X149341071Y-76779819D02*
X149245833Y-76732200D01*
X149245833Y-76732200D02*
X149198214Y-76684580D01*
X149198214Y-76684580D02*
X149150595Y-76589342D01*
X149150595Y-76589342D02*
X149150595Y-76351247D01*
X149150595Y-76351247D02*
X149198214Y-76256009D01*
X149198214Y-76256009D02*
X149245833Y-76208390D01*
X149245833Y-76208390D02*
X149341071Y-76160771D01*
X149341071Y-76160771D02*
X149531547Y-76160771D01*
X149531547Y-76160771D02*
X149626785Y-76208390D01*
X149626785Y-76208390D02*
X149674404Y-76256009D01*
X149674404Y-76256009D02*
X149722023Y-76351247D01*
X174934580Y-106844642D02*
X174982200Y-106797023D01*
X174982200Y-106797023D02*
X175029819Y-106654166D01*
X175029819Y-106654166D02*
X175029819Y-106558928D01*
X175029819Y-106558928D02*
X174982200Y-106416071D01*
X174982200Y-106416071D02*
X174886961Y-106320833D01*
X174886961Y-106320833D02*
X174791723Y-106273214D01*
X174791723Y-106273214D02*
X174601247Y-106225595D01*
X174601247Y-106225595D02*
X174458390Y-106225595D01*
X174458390Y-106225595D02*
X174267914Y-106273214D01*
X174267914Y-106273214D02*
X174172676Y-106320833D01*
X174172676Y-106320833D02*
X174077438Y-106416071D01*
X174077438Y-106416071D02*
X174029819Y-106558928D01*
X174029819Y-106558928D02*
X174029819Y-106654166D01*
X174029819Y-106654166D02*
X174077438Y-106797023D01*
X174077438Y-106797023D02*
X174125057Y-106844642D01*
X174029819Y-107177976D02*
X174029819Y-107797023D01*
X174029819Y-107797023D02*
X174410771Y-107463690D01*
X174410771Y-107463690D02*
X174410771Y-107606547D01*
X174410771Y-107606547D02*
X174458390Y-107701785D01*
X174458390Y-107701785D02*
X174506009Y-107749404D01*
X174506009Y-107749404D02*
X174601247Y-107797023D01*
X174601247Y-107797023D02*
X174839342Y-107797023D01*
X174839342Y-107797023D02*
X174934580Y-107749404D01*
X174934580Y-107749404D02*
X174982200Y-107701785D01*
X174982200Y-107701785D02*
X175029819Y-107606547D01*
X175029819Y-107606547D02*
X175029819Y-107320833D01*
X175029819Y-107320833D02*
X174982200Y-107225595D01*
X174982200Y-107225595D02*
X174934580Y-107177976D01*
X174363152Y-108654166D02*
X175029819Y-108654166D01*
X173982200Y-108416071D02*
X174696485Y-108177976D01*
X174696485Y-108177976D02*
X174696485Y-108797023D01*
X124405357Y-76584580D02*
X124452976Y-76632200D01*
X124452976Y-76632200D02*
X124595833Y-76679819D01*
X124595833Y-76679819D02*
X124691071Y-76679819D01*
X124691071Y-76679819D02*
X124833928Y-76632200D01*
X124833928Y-76632200D02*
X124929166Y-76536961D01*
X124929166Y-76536961D02*
X124976785Y-76441723D01*
X124976785Y-76441723D02*
X125024404Y-76251247D01*
X125024404Y-76251247D02*
X125024404Y-76108390D01*
X125024404Y-76108390D02*
X124976785Y-75917914D01*
X124976785Y-75917914D02*
X124929166Y-75822676D01*
X124929166Y-75822676D02*
X124833928Y-75727438D01*
X124833928Y-75727438D02*
X124691071Y-75679819D01*
X124691071Y-75679819D02*
X124595833Y-75679819D01*
X124595833Y-75679819D02*
X124452976Y-75727438D01*
X124452976Y-75727438D02*
X124405357Y-75775057D01*
X124072023Y-75679819D02*
X123452976Y-75679819D01*
X123452976Y-75679819D02*
X123786309Y-76060771D01*
X123786309Y-76060771D02*
X123643452Y-76060771D01*
X123643452Y-76060771D02*
X123548214Y-76108390D01*
X123548214Y-76108390D02*
X123500595Y-76156009D01*
X123500595Y-76156009D02*
X123452976Y-76251247D01*
X123452976Y-76251247D02*
X123452976Y-76489342D01*
X123452976Y-76489342D02*
X123500595Y-76584580D01*
X123500595Y-76584580D02*
X123548214Y-76632200D01*
X123548214Y-76632200D02*
X123643452Y-76679819D01*
X123643452Y-76679819D02*
X123929166Y-76679819D01*
X123929166Y-76679819D02*
X124024404Y-76632200D01*
X124024404Y-76632200D02*
X124072023Y-76584580D01*
X122548214Y-75679819D02*
X123024404Y-75679819D01*
X123024404Y-75679819D02*
X123072023Y-76156009D01*
X123072023Y-76156009D02*
X123024404Y-76108390D01*
X123024404Y-76108390D02*
X122929166Y-76060771D01*
X122929166Y-76060771D02*
X122691071Y-76060771D01*
X122691071Y-76060771D02*
X122595833Y-76108390D01*
X122595833Y-76108390D02*
X122548214Y-76156009D01*
X122548214Y-76156009D02*
X122500595Y-76251247D01*
X122500595Y-76251247D02*
X122500595Y-76489342D01*
X122500595Y-76489342D02*
X122548214Y-76584580D01*
X122548214Y-76584580D02*
X122595833Y-76632200D01*
X122595833Y-76632200D02*
X122691071Y-76679819D01*
X122691071Y-76679819D02*
X122929166Y-76679819D01*
X122929166Y-76679819D02*
X123024404Y-76632200D01*
X123024404Y-76632200D02*
X123072023Y-76584580D01*
X176780357Y-77034580D02*
X176827976Y-77082200D01*
X176827976Y-77082200D02*
X176970833Y-77129819D01*
X176970833Y-77129819D02*
X177066071Y-77129819D01*
X177066071Y-77129819D02*
X177208928Y-77082200D01*
X177208928Y-77082200D02*
X177304166Y-76986961D01*
X177304166Y-76986961D02*
X177351785Y-76891723D01*
X177351785Y-76891723D02*
X177399404Y-76701247D01*
X177399404Y-76701247D02*
X177399404Y-76558390D01*
X177399404Y-76558390D02*
X177351785Y-76367914D01*
X177351785Y-76367914D02*
X177304166Y-76272676D01*
X177304166Y-76272676D02*
X177208928Y-76177438D01*
X177208928Y-76177438D02*
X177066071Y-76129819D01*
X177066071Y-76129819D02*
X176970833Y-76129819D01*
X176970833Y-76129819D02*
X176827976Y-76177438D01*
X176827976Y-76177438D02*
X176780357Y-76225057D01*
X176447023Y-76129819D02*
X175827976Y-76129819D01*
X175827976Y-76129819D02*
X176161309Y-76510771D01*
X176161309Y-76510771D02*
X176018452Y-76510771D01*
X176018452Y-76510771D02*
X175923214Y-76558390D01*
X175923214Y-76558390D02*
X175875595Y-76606009D01*
X175875595Y-76606009D02*
X175827976Y-76701247D01*
X175827976Y-76701247D02*
X175827976Y-76939342D01*
X175827976Y-76939342D02*
X175875595Y-77034580D01*
X175875595Y-77034580D02*
X175923214Y-77082200D01*
X175923214Y-77082200D02*
X176018452Y-77129819D01*
X176018452Y-77129819D02*
X176304166Y-77129819D01*
X176304166Y-77129819D02*
X176399404Y-77082200D01*
X176399404Y-77082200D02*
X176447023Y-77034580D01*
X175494642Y-76129819D02*
X174827976Y-76129819D01*
X174827976Y-76129819D02*
X175256547Y-77129819D01*
%TO.C,C36*%
D11*
X149701248Y-73565000D02*
X151123752Y-73565000D01*
X149701248Y-75385000D02*
X151123752Y-75385000D01*
%TO.C,C34*%
X171815000Y-108198752D02*
X171815000Y-106776248D01*
X173635000Y-108198752D02*
X173635000Y-106776248D01*
%TO.C,C35*%
X123051248Y-73465000D02*
X124473752Y-73465000D01*
X123051248Y-75285000D02*
X124473752Y-75285000D01*
%TO.C,C37*%
X175426248Y-73915000D02*
X176848752Y-73915000D01*
X175426248Y-75735000D02*
X176848752Y-75735000D01*
%TD*%
%LPC*%
D12*
%TO.C,H13*%
X70525000Y-23500000D03*
%TD*%
D13*
%TO.C,K10*%
X93750000Y-46670000D03*
X96290000Y-46670000D03*
X98830000Y-46670000D03*
X101370000Y-46670000D03*
X103910000Y-46670000D03*
X103910000Y-39050000D03*
X101370000Y-39050000D03*
X98830000Y-39050000D03*
X96290000Y-39050000D03*
X93750000Y-39050000D03*
%TD*%
%TO.C,K9*%
X114325000Y-46670000D03*
X116865000Y-46670000D03*
X119405000Y-46670000D03*
X121945000Y-46670000D03*
X124485000Y-46670000D03*
X124485000Y-39050000D03*
X121945000Y-39050000D03*
X119405000Y-39050000D03*
X116865000Y-39050000D03*
X114325000Y-39050000D03*
%TD*%
%TO.C,K3*%
X175750000Y-62625000D03*
X178290000Y-62625000D03*
X180830000Y-62625000D03*
X183370000Y-62625000D03*
X185910000Y-62625000D03*
X185910000Y-55005000D03*
X183370000Y-55005000D03*
X180830000Y-55005000D03*
X178290000Y-55005000D03*
X175750000Y-55005000D03*
%TD*%
D14*
%TO.C,C33*%
X206850000Y-62175000D03*
X204350000Y-62175000D03*
%TD*%
D15*
%TO.C,J12*%
X183729000Y-26827500D03*
D16*
X178649000Y-26827500D03*
%TD*%
D15*
%TO.C,J23*%
X82601000Y-26827500D03*
D16*
X77521000Y-26827500D03*
%TD*%
D15*
%TO.C,J18*%
X171100000Y-26850000D03*
D16*
X166020000Y-26850000D03*
%TD*%
D13*
%TO.C,K7*%
X93665000Y-62670000D03*
X96205000Y-62670000D03*
X98745000Y-62670000D03*
X101285000Y-62670000D03*
X103825000Y-62670000D03*
X103825000Y-55050000D03*
X101285000Y-55050000D03*
X98745000Y-55050000D03*
X96205000Y-55050000D03*
X93665000Y-55050000D03*
%TD*%
D15*
%TO.C,J24*%
X145806000Y-26827500D03*
D16*
X140726000Y-26827500D03*
%TD*%
D13*
%TO.C,K5*%
X134750000Y-62625000D03*
X137290000Y-62625000D03*
X139830000Y-62625000D03*
X142370000Y-62625000D03*
X144910000Y-62625000D03*
X144910000Y-55005000D03*
X142370000Y-55005000D03*
X139830000Y-55005000D03*
X137290000Y-55005000D03*
X134750000Y-55005000D03*
%TD*%
D12*
%TO.C,H16*%
X70525000Y-114700000D03*
%TD*%
D15*
%TO.C,J22*%
X107883000Y-26827500D03*
D16*
X102803000Y-26827500D03*
%TD*%
D14*
%TO.C,C31*%
X211738750Y-93616250D03*
X209238750Y-93616250D03*
%TD*%
D12*
%TO.C,H15*%
X226525000Y-114700000D03*
%TD*%
D13*
%TO.C,K6*%
X114165000Y-62800000D03*
X116705000Y-62800000D03*
X119245000Y-62800000D03*
X121785000Y-62800000D03*
X124325000Y-62800000D03*
X124325000Y-55180000D03*
X121785000Y-55180000D03*
X119245000Y-55180000D03*
X116705000Y-55180000D03*
X114165000Y-55180000D03*
%TD*%
D15*
%TO.C,J25*%
X120524000Y-26827500D03*
D16*
X115444000Y-26827500D03*
%TD*%
D13*
%TO.C,K4*%
X175750000Y-46670000D03*
X178290000Y-46670000D03*
X180830000Y-46670000D03*
X183370000Y-46670000D03*
X185910000Y-46670000D03*
X185910000Y-39050000D03*
X183370000Y-39050000D03*
X180830000Y-39050000D03*
X178290000Y-39050000D03*
X175750000Y-39050000D03*
%TD*%
D15*
%TO.C,J19*%
X209011000Y-26827500D03*
D16*
X203931000Y-26827500D03*
%TD*%
D17*
%TO.C,C30*%
X212188750Y-84566250D03*
D14*
X208688750Y-84566250D03*
%TD*%
D18*
%TO.C,U4*%
X211925000Y-72800000D03*
D19*
X209385000Y-72800000D03*
X206845000Y-72800000D03*
%TD*%
D20*
%TO.C,U7*%
X105045000Y-78670000D03*
D21*
X107585000Y-78670000D03*
X110125000Y-78670000D03*
X112665000Y-78670000D03*
X115205000Y-78670000D03*
X117745000Y-78670000D03*
X120285000Y-78670000D03*
X122825000Y-78670000D03*
X125365000Y-78670000D03*
X125365000Y-71050000D03*
X122825000Y-71050000D03*
X120285000Y-71050000D03*
X117745000Y-71050000D03*
X115205000Y-71050000D03*
X112665000Y-71050000D03*
X110125000Y-71050000D03*
X107585000Y-71050000D03*
X105045000Y-71050000D03*
%TD*%
D22*
%TO.C,J15*%
X214538750Y-106066250D03*
D16*
X214538750Y-100986250D03*
%TD*%
D20*
%TO.C,U5*%
X157415000Y-78670000D03*
D21*
X159955000Y-78670000D03*
X162495000Y-78670000D03*
X165035000Y-78670000D03*
X167575000Y-78670000D03*
X170115000Y-78670000D03*
X172655000Y-78670000D03*
X175195000Y-78670000D03*
X177735000Y-78670000D03*
X177735000Y-71050000D03*
X175195000Y-71050000D03*
X172655000Y-71050000D03*
X170115000Y-71050000D03*
X167575000Y-71050000D03*
X165035000Y-71050000D03*
X162495000Y-71050000D03*
X159955000Y-71050000D03*
X157415000Y-71050000D03*
%TD*%
D13*
%TO.C,K1*%
X155355000Y-62620000D03*
X157895000Y-62620000D03*
X160435000Y-62620000D03*
X162975000Y-62620000D03*
X165515000Y-62620000D03*
X165515000Y-55000000D03*
X162975000Y-55000000D03*
X160435000Y-55000000D03*
X157895000Y-55000000D03*
X155355000Y-55000000D03*
%TD*%
%TO.C,K8*%
X134825000Y-46670000D03*
X137365000Y-46670000D03*
X139905000Y-46670000D03*
X142445000Y-46670000D03*
X144985000Y-46670000D03*
X144985000Y-39050000D03*
X142445000Y-39050000D03*
X139905000Y-39050000D03*
X137365000Y-39050000D03*
X134825000Y-39050000D03*
%TD*%
D23*
%TO.C,J13*%
X155205000Y-111800000D03*
D24*
X157745000Y-111800000D03*
X160285000Y-111800000D03*
X162825000Y-111800000D03*
X165365000Y-111800000D03*
%TD*%
D15*
%TO.C,J26*%
X95242000Y-26827500D03*
D16*
X90162000Y-26827500D03*
%TD*%
D20*
%TO.C,U6*%
X131585000Y-78610000D03*
D21*
X134125000Y-78610000D03*
X136665000Y-78610000D03*
X139205000Y-78610000D03*
X141745000Y-78610000D03*
X144285000Y-78610000D03*
X146825000Y-78610000D03*
X149365000Y-78610000D03*
X151905000Y-78610000D03*
X151905000Y-70990000D03*
X149365000Y-70990000D03*
X146825000Y-70990000D03*
X144285000Y-70990000D03*
X141745000Y-70990000D03*
X139205000Y-70990000D03*
X136665000Y-70990000D03*
X134125000Y-70990000D03*
X131585000Y-70990000D03*
%TD*%
D25*
%TO.C,J14*%
X80325000Y-56550000D03*
D16*
X80325000Y-61630000D03*
%TD*%
D13*
%TO.C,K2*%
X155285000Y-46640000D03*
X157825000Y-46640000D03*
X160365000Y-46640000D03*
X162905000Y-46640000D03*
X165445000Y-46640000D03*
X165445000Y-39020000D03*
X162905000Y-39020000D03*
X160365000Y-39020000D03*
X157825000Y-39020000D03*
X155285000Y-39020000D03*
%TD*%
D23*
%TO.C,J17*%
X145325000Y-111825000D03*
D24*
X142785000Y-111825000D03*
X140245000Y-111825000D03*
X137705000Y-111825000D03*
%TD*%
D15*
%TO.C,J20*%
X196370000Y-26827500D03*
D16*
X191290000Y-26827500D03*
%TD*%
D15*
%TO.C,J21*%
X133165000Y-26827500D03*
D16*
X128085000Y-26827500D03*
%TD*%
D26*
%TO.C,F2*%
X217438750Y-95166250D03*
X217438750Y-82466250D03*
%TD*%
D27*
%TO.C,A1*%
X175075000Y-91075000D03*
D28*
X172045000Y-91375000D03*
X172045000Y-96225000D03*
D27*
X175075000Y-96525000D03*
D29*
X175205000Y-84910000D03*
D14*
X172665000Y-84910000D03*
D30*
X170125000Y-84910000D03*
D14*
X167585000Y-84910000D03*
X165045000Y-84910000D03*
X162505000Y-84910000D03*
X159965000Y-84910000D03*
D30*
X157425000Y-84910000D03*
D14*
X154885000Y-84910000D03*
X152345000Y-84910000D03*
X149805000Y-84910000D03*
X147265000Y-84910000D03*
D30*
X144725000Y-84910000D03*
D14*
X142185000Y-84910000D03*
X139645000Y-84910000D03*
X137105000Y-84910000D03*
X134565000Y-84910000D03*
D30*
X132025000Y-84910000D03*
D14*
X129485000Y-84910000D03*
X126945000Y-84910000D03*
X126945000Y-102690000D03*
X129485000Y-102690000D03*
D31*
X132025000Y-102690000D03*
D14*
X134565000Y-102690000D03*
X137105000Y-102690000D03*
X139645000Y-102690000D03*
X142185000Y-102690000D03*
D31*
X144725000Y-102690000D03*
D14*
X147265000Y-102690000D03*
X149805000Y-102690000D03*
X152345000Y-102690000D03*
X154885000Y-102690000D03*
D31*
X157425000Y-102690000D03*
D14*
X159965000Y-102690000D03*
X162505000Y-102690000D03*
X165045000Y-102690000D03*
X167585000Y-102690000D03*
D31*
X170125000Y-102690000D03*
D14*
X172665000Y-102690000D03*
X175205000Y-102690000D03*
%TD*%
D12*
%TO.C,H14*%
X226525000Y-23500000D03*
%TD*%
D15*
%TO.C,J16*%
X158447000Y-26827500D03*
D16*
X153367000Y-26827500D03*
%TD*%
D17*
%TO.C,C32*%
X206825000Y-55000000D03*
D14*
X204325000Y-55000000D03*
%TD*%
D32*
%TO.C,C36*%
X148850000Y-74475000D03*
X151975000Y-74475000D03*
%TD*%
D33*
%TO.C,C34*%
X172725000Y-109050000D03*
X172725000Y-105925000D03*
%TD*%
D32*
%TO.C,C35*%
X122200000Y-74375000D03*
X125325000Y-74375000D03*
%TD*%
%TO.C,C37*%
X174575000Y-74825000D03*
X177700000Y-74825000D03*
%TD*%
%LPD*%
M02*
