%TF.GenerationSoftware,KiCad,Pcbnew,10.0.1*%
%TF.CreationDate,2026-06-05T02:22:00+09:00*%
%TF.ProjectId,AudioCase_1_main,41756469-6f43-4617-9365-5f315f6d6169,rev?*%
%TF.SameCoordinates,Original*%
%TF.FileFunction,Soldermask,Bot*%
%TF.FilePolarity,Negative*%
%FSLAX46Y46*%
G04 Gerber Fmt 4.6, Leading zero omitted, Abs format (unit mm)*
G04 Created by KiCad (PCBNEW 10.0.1) date 2026-06-05 02:22:00*
%MOMM*%
%LPD*%
G01*
G04 APERTURE LIST*
G04 Aperture macros list*
%AMRoundRect*
0 Rectangle with rounded corners*
0 $1 Rounding radius*
0 $2 $3 $4 $5 $6 $7 $8 $9 X,Y pos of 4 corners*
0 Add a 4 corners polygon primitive as box body*
4,1,4,$2,$3,$4,$5,$6,$7,$8,$9,$2,$3,0*
0 Add four circle primitives for the rounded corners*
1,1,$1+$1,$2,$3*
1,1,$1+$1,$4,$5*
1,1,$1+$1,$6,$7*
1,1,$1+$1,$8,$9*
0 Add four rect primitives between the rounded corners*
20,1,$1+$1,$2,$3,$4,$5,0*
20,1,$1+$1,$4,$5,$6,$7,0*
20,1,$1+$1,$6,$7,$8,$9,0*
20,1,$1+$1,$8,$9,$2,$3,0*%
%AMFreePoly0*
4,1,37,0.603843,0.796157,0.639018,0.796157,0.711114,0.766294,0.766294,0.711114,0.796157,0.639018,0.796157,0.603843,0.800000,0.600000,0.800000,-0.600000,0.796157,-0.603843,0.796157,-0.639018,0.766294,-0.711114,0.711114,-0.766294,0.639018,-0.796157,0.603843,-0.796157,0.600000,-0.800000,0.000000,-0.800000,0.000000,-0.796148,-0.078414,-0.796148,-0.232228,-0.765552,-0.377117,-0.705537,
-0.507515,-0.618408,-0.618408,-0.507515,-0.705537,-0.377117,-0.765552,-0.232228,-0.796148,-0.078414,-0.796148,0.078414,-0.765552,0.232228,-0.705537,0.377117,-0.618408,0.507515,-0.507515,0.618408,-0.377117,0.705537,-0.232228,0.765552,-0.078414,0.796148,0.000000,0.796148,0.000000,0.800000,0.600000,0.800000,0.603843,0.796157,0.603843,0.796157,$1*%
%AMFreePoly1*
4,1,37,0.000000,0.796148,0.078414,0.796148,0.232228,0.765552,0.377117,0.705537,0.507515,0.618408,0.618408,0.507515,0.705537,0.377117,0.765552,0.232228,0.796148,0.078414,0.796148,-0.078414,0.765552,-0.232228,0.705537,-0.377117,0.618408,-0.507515,0.507515,-0.618408,0.377117,-0.705537,0.232228,-0.765552,0.078414,-0.796148,0.000000,-0.796148,0.000000,-0.800000,-0.600000,-0.800000,
-0.603843,-0.796157,-0.639018,-0.796157,-0.711114,-0.766294,-0.766294,-0.711114,-0.796157,-0.639018,-0.796157,-0.603843,-0.800000,-0.600000,-0.800000,0.600000,-0.796157,0.603843,-0.796157,0.639018,-0.766294,0.711114,-0.711114,0.766294,-0.639018,0.796157,-0.603843,0.796157,-0.600000,0.800000,0.000000,0.800000,0.000000,0.796148,0.000000,0.796148,$1*%
G04 Aperture macros list end*
%ADD10O,1.600000X2.300000*%
%ADD11R,1.600000X1.600000*%
%ADD12O,1.600000X1.600000*%
%ADD13RoundRect,0.250000X1.050000X1.050000X-1.050000X1.050000X-1.050000X-1.050000X1.050000X-1.050000X0*%
%ADD14C,2.600000*%
%ADD15R,1.700000X1.700000*%
%ADD16C,1.700000*%
%ADD17C,2.400000*%
%ADD18RoundRect,0.250000X1.050000X-1.050000X1.050000X1.050000X-1.050000X1.050000X-1.050000X-1.050000X0*%
%ADD19C,2.200000*%
%ADD20C,1.850000*%
%ADD21RoundRect,0.200000X-0.600000X0.600000X-0.600000X-0.600000X0.600000X-0.600000X0.600000X0.600000X0*%
%ADD22C,1.600000*%
%ADD23FreePoly0,270.000000*%
%ADD24FreePoly1,270.000000*%
%ADD25RoundRect,0.250000X-1.050000X1.050000X-1.050000X-1.050000X1.050000X-1.050000X1.050000X1.050000X0*%
%ADD26R,2.000000X2.000000*%
%ADD27C,2.000000*%
%ADD28C,3.200000*%
%ADD29RoundRect,0.250000X0.550000X0.550000X-0.550000X0.550000X-0.550000X-0.550000X0.550000X-0.550000X0*%
G04 APERTURE END LIST*
D10*
%TO.C,K9*%
X114325000Y-46670000D03*
X116865000Y-46670000D03*
X119405000Y-46670000D03*
X121945000Y-46670000D03*
X124485000Y-46670000D03*
X124485000Y-39050000D03*
X121945000Y-39050000D03*
X119405000Y-39050000D03*
X116865000Y-39050000D03*
X114325000Y-39050000D03*
%TD*%
D11*
%TO.C,U7*%
X105045000Y-78670000D03*
D12*
X107585000Y-78670000D03*
X110125000Y-78670000D03*
X112665000Y-78670000D03*
X115205000Y-78670000D03*
X117745000Y-78670000D03*
X120285000Y-78670000D03*
X122825000Y-78670000D03*
X125365000Y-78670000D03*
X125365000Y-71050000D03*
X122825000Y-71050000D03*
X120285000Y-71050000D03*
X117745000Y-71050000D03*
X115205000Y-71050000D03*
X112665000Y-71050000D03*
X110125000Y-71050000D03*
X107585000Y-71050000D03*
X105045000Y-71050000D03*
%TD*%
D10*
%TO.C,K7*%
X93665000Y-62670000D03*
X96205000Y-62670000D03*
X98745000Y-62670000D03*
X101285000Y-62670000D03*
X103825000Y-62670000D03*
X103825000Y-55050000D03*
X101285000Y-55050000D03*
X98745000Y-55050000D03*
X96205000Y-55050000D03*
X93665000Y-55050000D03*
%TD*%
D13*
%TO.C,J26*%
X95242000Y-26827500D03*
D14*
X90162000Y-26827500D03*
%TD*%
D10*
%TO.C,K1*%
X155355000Y-62620000D03*
X157895000Y-62620000D03*
X160435000Y-62620000D03*
X162975000Y-62620000D03*
X165515000Y-62620000D03*
X165515000Y-55000000D03*
X162975000Y-55000000D03*
X160435000Y-55000000D03*
X157895000Y-55000000D03*
X155355000Y-55000000D03*
%TD*%
%TO.C,K3*%
X175750000Y-62625000D03*
X178290000Y-62625000D03*
X180830000Y-62625000D03*
X183370000Y-62625000D03*
X185910000Y-62625000D03*
X185910000Y-55005000D03*
X183370000Y-55005000D03*
X180830000Y-55005000D03*
X178290000Y-55005000D03*
X175750000Y-55005000D03*
%TD*%
D15*
%TO.C,J13*%
X155205000Y-111800000D03*
D16*
X157745000Y-111800000D03*
X160285000Y-111800000D03*
X162825000Y-111800000D03*
X165365000Y-111800000D03*
%TD*%
D13*
%TO.C,J12*%
X183729000Y-26827500D03*
D14*
X178649000Y-26827500D03*
%TD*%
D13*
%TO.C,J23*%
X82601000Y-26827500D03*
D14*
X77521000Y-26827500D03*
%TD*%
D17*
%TO.C,F2*%
X217438750Y-95166250D03*
X217438750Y-82466250D03*
%TD*%
D13*
%TO.C,J16*%
X158447000Y-26827500D03*
D14*
X153367000Y-26827500D03*
%TD*%
D10*
%TO.C,K6*%
X114165000Y-62800000D03*
X116705000Y-62800000D03*
X119245000Y-62800000D03*
X121785000Y-62800000D03*
X124325000Y-62800000D03*
X124325000Y-55180000D03*
X121785000Y-55180000D03*
X119245000Y-55180000D03*
X116705000Y-55180000D03*
X114165000Y-55180000D03*
%TD*%
D18*
%TO.C,J15*%
X214538750Y-106066250D03*
D14*
X214538750Y-100986250D03*
%TD*%
D19*
%TO.C,A1*%
X175075000Y-91075000D03*
D20*
X172045000Y-91375000D03*
X172045000Y-96225000D03*
D19*
X175075000Y-96525000D03*
D21*
X175205000Y-84910000D03*
D22*
X172665000Y-84910000D03*
D23*
X170125000Y-84910000D03*
D22*
X167585000Y-84910000D03*
X165045000Y-84910000D03*
X162505000Y-84910000D03*
X159965000Y-84910000D03*
D23*
X157425000Y-84910000D03*
D22*
X154885000Y-84910000D03*
X152345000Y-84910000D03*
X149805000Y-84910000D03*
X147265000Y-84910000D03*
D23*
X144725000Y-84910000D03*
D22*
X142185000Y-84910000D03*
X139645000Y-84910000D03*
X137105000Y-84910000D03*
X134565000Y-84910000D03*
D23*
X132025000Y-84910000D03*
D22*
X129485000Y-84910000D03*
X126945000Y-84910000D03*
X126945000Y-102690000D03*
X129485000Y-102690000D03*
D24*
X132025000Y-102690000D03*
D22*
X134565000Y-102690000D03*
X137105000Y-102690000D03*
X139645000Y-102690000D03*
X142185000Y-102690000D03*
D24*
X144725000Y-102690000D03*
D22*
X147265000Y-102690000D03*
X149805000Y-102690000D03*
X152345000Y-102690000D03*
X154885000Y-102690000D03*
D24*
X157425000Y-102690000D03*
D22*
X159965000Y-102690000D03*
X162505000Y-102690000D03*
X165045000Y-102690000D03*
X167585000Y-102690000D03*
D24*
X170125000Y-102690000D03*
D22*
X172665000Y-102690000D03*
X175205000Y-102690000D03*
%TD*%
D25*
%TO.C,J14*%
X80325000Y-56550000D03*
D14*
X80325000Y-61630000D03*
%TD*%
D11*
%TO.C,U5*%
X157415000Y-78670000D03*
D12*
X159955000Y-78670000D03*
X162495000Y-78670000D03*
X165035000Y-78670000D03*
X167575000Y-78670000D03*
X170115000Y-78670000D03*
X172655000Y-78670000D03*
X175195000Y-78670000D03*
X177735000Y-78670000D03*
X177735000Y-71050000D03*
X175195000Y-71050000D03*
X172655000Y-71050000D03*
X170115000Y-71050000D03*
X167575000Y-71050000D03*
X165035000Y-71050000D03*
X162495000Y-71050000D03*
X159955000Y-71050000D03*
X157415000Y-71050000D03*
%TD*%
D13*
%TO.C,J21*%
X133165000Y-26827500D03*
D14*
X128085000Y-26827500D03*
%TD*%
D10*
%TO.C,K10*%
X93750000Y-46670000D03*
X96290000Y-46670000D03*
X98830000Y-46670000D03*
X101370000Y-46670000D03*
X103910000Y-46670000D03*
X103910000Y-39050000D03*
X101370000Y-39050000D03*
X98830000Y-39050000D03*
X96290000Y-39050000D03*
X93750000Y-39050000D03*
%TD*%
D26*
%TO.C,U4*%
X211925000Y-72800000D03*
D27*
X209385000Y-72800000D03*
X206845000Y-72800000D03*
%TD*%
D28*
%TO.C,H16*%
X70525000Y-114700000D03*
%TD*%
D29*
%TO.C,C32*%
X206825000Y-55000000D03*
D22*
X204325000Y-55000000D03*
%TD*%
D15*
%TO.C,J17*%
X145325000Y-111825000D03*
D16*
X142785000Y-111825000D03*
X140245000Y-111825000D03*
X137705000Y-111825000D03*
%TD*%
D13*
%TO.C,J18*%
X171100000Y-26850000D03*
D14*
X166020000Y-26850000D03*
%TD*%
D10*
%TO.C,K8*%
X134825000Y-46670000D03*
X137365000Y-46670000D03*
X139905000Y-46670000D03*
X142445000Y-46670000D03*
X144985000Y-46670000D03*
X144985000Y-39050000D03*
X142445000Y-39050000D03*
X139905000Y-39050000D03*
X137365000Y-39050000D03*
X134825000Y-39050000D03*
%TD*%
D13*
%TO.C,J22*%
X107883000Y-26827500D03*
D14*
X102803000Y-26827500D03*
%TD*%
D22*
%TO.C,C31*%
X211738750Y-93616250D03*
X209238750Y-93616250D03*
%TD*%
D28*
%TO.C,H13*%
X70525000Y-23500000D03*
%TD*%
%TO.C,H14*%
X226525000Y-23500000D03*
%TD*%
D10*
%TO.C,K5*%
X134750000Y-62625000D03*
X137290000Y-62625000D03*
X139830000Y-62625000D03*
X142370000Y-62625000D03*
X144910000Y-62625000D03*
X144910000Y-55005000D03*
X142370000Y-55005000D03*
X139830000Y-55005000D03*
X137290000Y-55005000D03*
X134750000Y-55005000D03*
%TD*%
D22*
%TO.C,C33*%
X206850000Y-62175000D03*
X204350000Y-62175000D03*
%TD*%
D28*
%TO.C,H15*%
X226525000Y-114700000D03*
%TD*%
D13*
%TO.C,J25*%
X120524000Y-26827500D03*
D14*
X115444000Y-26827500D03*
%TD*%
D29*
%TO.C,C30*%
X212188750Y-84566250D03*
D22*
X208688750Y-84566250D03*
%TD*%
D13*
%TO.C,J20*%
X196370000Y-26827500D03*
D14*
X191290000Y-26827500D03*
%TD*%
D13*
%TO.C,J19*%
X209011000Y-26827500D03*
D14*
X203931000Y-26827500D03*
%TD*%
D13*
%TO.C,J24*%
X145806000Y-26827500D03*
D14*
X140726000Y-26827500D03*
%TD*%
D10*
%TO.C,K2*%
X155285000Y-46640000D03*
X157825000Y-46640000D03*
X160365000Y-46640000D03*
X162905000Y-46640000D03*
X165445000Y-46640000D03*
X165445000Y-39020000D03*
X162905000Y-39020000D03*
X160365000Y-39020000D03*
X157825000Y-39020000D03*
X155285000Y-39020000D03*
%TD*%
%TO.C,K4*%
X175750000Y-46670000D03*
X178290000Y-46670000D03*
X180830000Y-46670000D03*
X183370000Y-46670000D03*
X185910000Y-46670000D03*
X185910000Y-39050000D03*
X183370000Y-39050000D03*
X180830000Y-39050000D03*
X178290000Y-39050000D03*
X175750000Y-39050000D03*
%TD*%
D11*
%TO.C,U6*%
X131585000Y-78610000D03*
D12*
X134125000Y-78610000D03*
X136665000Y-78610000D03*
X139205000Y-78610000D03*
X141745000Y-78610000D03*
X144285000Y-78610000D03*
X146825000Y-78610000D03*
X149365000Y-78610000D03*
X151905000Y-78610000D03*
X151905000Y-70990000D03*
X149365000Y-70990000D03*
X146825000Y-70990000D03*
X144285000Y-70990000D03*
X141745000Y-70990000D03*
X139205000Y-70990000D03*
X136665000Y-70990000D03*
X134125000Y-70990000D03*
X131585000Y-70990000D03*
%TD*%
M02*
