%TF.GenerationSoftware,KiCad,Pcbnew,10.0.1*%
%TF.CreationDate,2026-06-05T16:19:36+09:00*%
%TF.ProjectId,AudioCase_1_main,41756469-6f43-4617-9365-5f315f6d6169,rev?*%
%TF.SameCoordinates,Original*%
%TF.FileFunction,Drillmap*%
%TF.FilePolarity,Positive*%
%FSLAX45Y45*%
G04 Gerber Fmt 4.5, Leading zero omitted, Abs format (unit mm)*
G04 Created by KiCad (PCBNEW 10.0.1) date 2026-06-05 16:19:36*
%MOMM*%
%LPD*%
G01*
G04 APERTURE LIST*
%ADD10C,0.100000*%
%ADD11C,0.200000*%
%ADD12C,0.120000*%
%ADD13C,0.130000*%
%ADD14C,0.185000*%
%ADD15C,0.220000*%
%ADD16C,0.320000*%
G04 APERTURE END LIST*
D10*
X6702500Y-2000000D02*
X22997500Y-2000000D01*
X6702500Y-11820000D02*
X6702500Y-2000000D01*
X22997500Y-2000000D02*
X22997500Y-11820000D01*
X22997500Y-11820000D02*
X6702500Y-11820000D01*
D11*
D10*
X8212500Y-5197500D02*
X8242500Y-5227500D01*
X8242500Y-5197500D02*
X8212500Y-5227500D01*
X8377500Y-6247500D02*
X8407500Y-6277500D01*
X8407500Y-6247500D02*
X8377500Y-6277500D01*
X8897500Y-5015000D02*
X8927500Y-5045000D01*
X8927500Y-5015000D02*
X8897500Y-5045000D01*
X8937500Y-3982500D02*
X8967500Y-4012500D01*
X8967500Y-3982500D02*
X8937500Y-4012500D01*
X9097500Y-6645000D02*
X9127500Y-6675000D01*
X9127500Y-6645000D02*
X9097500Y-6675000D01*
X9242500Y-7412500D02*
X9272500Y-7442500D01*
X9272500Y-7412500D02*
X9242500Y-7442500D01*
X9367500Y-4965000D02*
X9397500Y-4995000D01*
X9397500Y-4965000D02*
X9367500Y-4995000D01*
X9372500Y-3547500D02*
X9402500Y-3577500D01*
X9402500Y-3547500D02*
X9372500Y-3577500D01*
X10542500Y-9562500D02*
X10572500Y-9592500D01*
X10572500Y-9562500D02*
X10542500Y-9592500D01*
X10717500Y-3477500D02*
X10747500Y-3507500D01*
X10747500Y-3477500D02*
X10717500Y-3507500D01*
X10717500Y-4677500D02*
X10747500Y-4707500D01*
X10747500Y-4677500D02*
X10717500Y-4707500D01*
X10767500Y-6245000D02*
X10797500Y-6275000D01*
X10797500Y-6245000D02*
X10767500Y-6275000D01*
X10922500Y-3450000D02*
X10952500Y-3480000D01*
X10952500Y-3450000D02*
X10922500Y-3480000D01*
X10922500Y-4285000D02*
X10952500Y-4315000D01*
X10952500Y-4285000D02*
X10922500Y-4315000D01*
X11127500Y-3262500D02*
X11157500Y-3292500D01*
X11157500Y-3262500D02*
X11127500Y-3292500D01*
X11127500Y-4847500D02*
X11157500Y-4877500D01*
X11157500Y-4847500D02*
X11127500Y-4877500D01*
X11212500Y-7417500D02*
X11242500Y-7447500D01*
X11242500Y-7417500D02*
X11212500Y-7447500D01*
X11362500Y-3112500D02*
X11392500Y-3142500D01*
X11392500Y-3112500D02*
X11362500Y-3142500D01*
X11694500Y-6558000D02*
X11724500Y-6588000D01*
X11724500Y-6558000D02*
X11694500Y-6588000D01*
X11817500Y-5162500D02*
X11847500Y-5192500D01*
X11847500Y-5162500D02*
X11817500Y-5192500D01*
X11877500Y-8287500D02*
X11907500Y-8317500D01*
X11907500Y-8287500D02*
X11877500Y-8317500D01*
X12245000Y-10565000D02*
X12275000Y-10595000D01*
X12275000Y-10565000D02*
X12245000Y-10595000D01*
X12247500Y-10855000D02*
X12277500Y-10885000D01*
X12277500Y-10855000D02*
X12247500Y-10885000D01*
X12387500Y-3147500D02*
X12417500Y-3177500D01*
X12417500Y-3147500D02*
X12387500Y-3177500D01*
X12507500Y-4985000D02*
X12537500Y-5015000D01*
X12537500Y-4985000D02*
X12507500Y-5015000D01*
X12572500Y-6532500D02*
X12602500Y-6562500D01*
X12602500Y-6532500D02*
X12572500Y-6562500D01*
X12767500Y-4725000D02*
X12797500Y-4755000D01*
X12797500Y-4725000D02*
X12767500Y-4755000D01*
X12792500Y-3287500D02*
X12822500Y-3317500D01*
X12822500Y-3287500D02*
X12792500Y-3317500D01*
X12812500Y-11177500D02*
X12842500Y-11207500D01*
X12842500Y-11177500D02*
X12812500Y-11207500D01*
X12842500Y-3912500D02*
X12872500Y-3942500D01*
X12872500Y-3912500D02*
X12842500Y-3942500D01*
X12872500Y-6082500D02*
X12902500Y-6112500D01*
X12902500Y-6082500D02*
X12872500Y-6112500D01*
X13205000Y-5102500D02*
X13235000Y-5132500D01*
X13235000Y-5102500D02*
X13205000Y-5132500D01*
X13301500Y-3286500D02*
X13331500Y-3316500D01*
X13331500Y-3286500D02*
X13301500Y-3316500D01*
X13682500Y-3157500D02*
X13712500Y-3187500D01*
X13712500Y-3157500D02*
X13682500Y-3187500D01*
X13957500Y-9217500D02*
X13987500Y-9247500D01*
X13987500Y-9217500D02*
X13957500Y-9247500D01*
X14372500Y-4275000D02*
X14402500Y-4305000D01*
X14402500Y-4275000D02*
X14372500Y-4305000D01*
X14472500Y-6642500D02*
X14502500Y-6672500D01*
X14502500Y-6642500D02*
X14472500Y-6672500D01*
X14522500Y-5082500D02*
X14552500Y-5112500D01*
X14552500Y-5082500D02*
X14522500Y-5112500D01*
X14752500Y-4842500D02*
X14782500Y-4872500D01*
X14782500Y-4842500D02*
X14752500Y-4872500D01*
X14882500Y-3202500D02*
X14912500Y-3232500D01*
X14912500Y-3202500D02*
X14882500Y-3232500D01*
X14942500Y-5082500D02*
X14972500Y-5112500D01*
X14972500Y-5082500D02*
X14942500Y-5112500D01*
X15002500Y-11572500D02*
X15032500Y-11602500D01*
X15032500Y-11572500D02*
X15002500Y-11602500D01*
X15062500Y-4845000D02*
X15092500Y-4875000D01*
X15092500Y-4845000D02*
X15062500Y-4875000D01*
X15062500Y-6162500D02*
X15092500Y-6192500D01*
X15092500Y-6162500D02*
X15062500Y-6192500D01*
X15197500Y-3450000D02*
X15227500Y-3480000D01*
X15227500Y-3450000D02*
X15197500Y-3480000D01*
X15657500Y-9222500D02*
X15687500Y-9252500D01*
X15687500Y-9222500D02*
X15657500Y-9252500D01*
X15797500Y-3450000D02*
X15827500Y-3480000D01*
X15827500Y-3450000D02*
X15797500Y-3480000D01*
X15877500Y-3077500D02*
X15907500Y-3107500D01*
X15907500Y-3077500D02*
X15877500Y-3107500D01*
X16377500Y-6655000D02*
X16407500Y-6685000D01*
X16407500Y-6655000D02*
X16377500Y-6685000D01*
X16617500Y-3020000D02*
X16647500Y-3050000D01*
X16647500Y-3020000D02*
X16617500Y-3050000D01*
X16707500Y-3307500D02*
X16737500Y-3337500D01*
X16737500Y-3307500D02*
X16707500Y-3337500D01*
X16847500Y-6515000D02*
X16877500Y-6545000D01*
X16877500Y-6515000D02*
X16847500Y-6545000D01*
X16857500Y-9277500D02*
X16887500Y-9307500D01*
X16887500Y-9277500D02*
X16857500Y-9307500D01*
X17077500Y-4215000D02*
X17107500Y-4245000D01*
X17107500Y-4215000D02*
X17077500Y-4245000D01*
X17261575Y-3764075D02*
X17291575Y-3794075D01*
X17291575Y-3764075D02*
X17261575Y-3794075D01*
X17417500Y-3307500D02*
X17447500Y-3337500D01*
X17447500Y-3307500D02*
X17417500Y-3337500D01*
X17727500Y-11282500D02*
X17757500Y-11312500D01*
X17757500Y-11282500D02*
X17727500Y-11312500D01*
X18397500Y-3312500D02*
X18427500Y-3342500D01*
X18427500Y-3312500D02*
X18397500Y-3342500D01*
X18407500Y-10377500D02*
X18437500Y-10407500D01*
X18437500Y-10377500D02*
X18407500Y-10407500D01*
X18632500Y-6862500D02*
X18662500Y-6892500D01*
X18662500Y-6862500D02*
X18632500Y-6892500D01*
X18777500Y-7857500D02*
X18807500Y-7887500D01*
X18807500Y-7857500D02*
X18777500Y-7887500D01*
X18797500Y-3025000D02*
X18827500Y-3055000D01*
X18827500Y-3025000D02*
X18797500Y-3055000D01*
X18927500Y-5205000D02*
X18957500Y-5235000D01*
X18957500Y-5205000D02*
X18927500Y-5235000D01*
X19042500Y-4257500D02*
X19072500Y-4287500D01*
X19072500Y-4257500D02*
X19042500Y-4287500D01*
X19457500Y-4765000D02*
X19487500Y-4795000D01*
X19487500Y-4765000D02*
X19457500Y-4795000D01*
X20575000Y-5017500D02*
X20605000Y-5047500D01*
X20605000Y-5017500D02*
X20575000Y-5047500D01*
X20923500Y-6426000D02*
X20953500Y-6456000D01*
X20953500Y-6426000D02*
X20923500Y-6456000D01*
X20923500Y-6732500D02*
X20953500Y-6762500D01*
X20953500Y-6732500D02*
X20923500Y-6762500D01*
X20923500Y-6975000D02*
X20953500Y-7005000D01*
X20953500Y-6975000D02*
X20923500Y-7005000D01*
X21077500Y-4112500D02*
X21107500Y-4142500D01*
X21107500Y-4112500D02*
X21077500Y-4142500D01*
X10544500Y-7105000D02*
G75*
G02*
X10464500Y-7105000I-40000J0D01*
G01*
X10464500Y-7105000D02*
G75*
G02*
X10544500Y-7105000I40000J0D01*
G01*
X10544500Y-7867000D02*
G75*
G02*
X10464500Y-7867000I-40000J0D01*
G01*
X10464500Y-7867000D02*
G75*
G02*
X10544500Y-7867000I40000J0D01*
G01*
X10798500Y-7105000D02*
G75*
G02*
X10718500Y-7105000I-40000J0D01*
G01*
X10718500Y-7105000D02*
G75*
G02*
X10798500Y-7105000I40000J0D01*
G01*
X10798500Y-7867000D02*
G75*
G02*
X10718500Y-7867000I-40000J0D01*
G01*
X10718500Y-7867000D02*
G75*
G02*
X10798500Y-7867000I40000J0D01*
G01*
X11052500Y-7105000D02*
G75*
G02*
X10972500Y-7105000I-40000J0D01*
G01*
X10972500Y-7105000D02*
G75*
G02*
X11052500Y-7105000I40000J0D01*
G01*
X11052500Y-7867000D02*
G75*
G02*
X10972500Y-7867000I-40000J0D01*
G01*
X10972500Y-7867000D02*
G75*
G02*
X11052500Y-7867000I40000J0D01*
G01*
X11306500Y-7105000D02*
G75*
G02*
X11226500Y-7105000I-40000J0D01*
G01*
X11226500Y-7105000D02*
G75*
G02*
X11306500Y-7105000I40000J0D01*
G01*
X11306500Y-7867000D02*
G75*
G02*
X11226500Y-7867000I-40000J0D01*
G01*
X11226500Y-7867000D02*
G75*
G02*
X11306500Y-7867000I40000J0D01*
G01*
X11560500Y-7105000D02*
G75*
G02*
X11480500Y-7105000I-40000J0D01*
G01*
X11480500Y-7105000D02*
G75*
G02*
X11560500Y-7105000I40000J0D01*
G01*
X11560500Y-7867000D02*
G75*
G02*
X11480500Y-7867000I-40000J0D01*
G01*
X11480500Y-7867000D02*
G75*
G02*
X11560500Y-7867000I40000J0D01*
G01*
X11814500Y-7105000D02*
G75*
G02*
X11734500Y-7105000I-40000J0D01*
G01*
X11734500Y-7105000D02*
G75*
G02*
X11814500Y-7105000I40000J0D01*
G01*
X11814500Y-7867000D02*
G75*
G02*
X11734500Y-7867000I-40000J0D01*
G01*
X11734500Y-7867000D02*
G75*
G02*
X11814500Y-7867000I40000J0D01*
G01*
X12068500Y-7105000D02*
G75*
G02*
X11988500Y-7105000I-40000J0D01*
G01*
X11988500Y-7105000D02*
G75*
G02*
X12068500Y-7105000I40000J0D01*
G01*
X12068500Y-7867000D02*
G75*
G02*
X11988500Y-7867000I-40000J0D01*
G01*
X11988500Y-7867000D02*
G75*
G02*
X12068500Y-7867000I40000J0D01*
G01*
X12322500Y-7105000D02*
G75*
G02*
X12242500Y-7105000I-40000J0D01*
G01*
X12242500Y-7105000D02*
G75*
G02*
X12322500Y-7105000I40000J0D01*
G01*
X12322500Y-7867000D02*
G75*
G02*
X12242500Y-7867000I-40000J0D01*
G01*
X12242500Y-7867000D02*
G75*
G02*
X12322500Y-7867000I40000J0D01*
G01*
X12576500Y-7105000D02*
G75*
G02*
X12496500Y-7105000I-40000J0D01*
G01*
X12496500Y-7105000D02*
G75*
G02*
X12576500Y-7105000I40000J0D01*
G01*
X12576500Y-7867000D02*
G75*
G02*
X12496500Y-7867000I-40000J0D01*
G01*
X12496500Y-7867000D02*
G75*
G02*
X12576500Y-7867000I40000J0D01*
G01*
X13198500Y-7099000D02*
G75*
G02*
X13118500Y-7099000I-40000J0D01*
G01*
X13118500Y-7099000D02*
G75*
G02*
X13198500Y-7099000I40000J0D01*
G01*
X13198500Y-7861000D02*
G75*
G02*
X13118500Y-7861000I-40000J0D01*
G01*
X13118500Y-7861000D02*
G75*
G02*
X13198500Y-7861000I40000J0D01*
G01*
X13452500Y-7099000D02*
G75*
G02*
X13372500Y-7099000I-40000J0D01*
G01*
X13372500Y-7099000D02*
G75*
G02*
X13452500Y-7099000I40000J0D01*
G01*
X13452500Y-7861000D02*
G75*
G02*
X13372500Y-7861000I-40000J0D01*
G01*
X13372500Y-7861000D02*
G75*
G02*
X13452500Y-7861000I40000J0D01*
G01*
X13706500Y-7099000D02*
G75*
G02*
X13626500Y-7099000I-40000J0D01*
G01*
X13626500Y-7099000D02*
G75*
G02*
X13706500Y-7099000I40000J0D01*
G01*
X13706500Y-7861000D02*
G75*
G02*
X13626500Y-7861000I-40000J0D01*
G01*
X13626500Y-7861000D02*
G75*
G02*
X13706500Y-7861000I40000J0D01*
G01*
X13960500Y-7099000D02*
G75*
G02*
X13880500Y-7099000I-40000J0D01*
G01*
X13880500Y-7099000D02*
G75*
G02*
X13960500Y-7099000I40000J0D01*
G01*
X13960500Y-7861000D02*
G75*
G02*
X13880500Y-7861000I-40000J0D01*
G01*
X13880500Y-7861000D02*
G75*
G02*
X13960500Y-7861000I40000J0D01*
G01*
X14214500Y-7099000D02*
G75*
G02*
X14134500Y-7099000I-40000J0D01*
G01*
X14134500Y-7099000D02*
G75*
G02*
X14214500Y-7099000I40000J0D01*
G01*
X14214500Y-7861000D02*
G75*
G02*
X14134500Y-7861000I-40000J0D01*
G01*
X14134500Y-7861000D02*
G75*
G02*
X14214500Y-7861000I40000J0D01*
G01*
X14468500Y-7099000D02*
G75*
G02*
X14388500Y-7099000I-40000J0D01*
G01*
X14388500Y-7099000D02*
G75*
G02*
X14468500Y-7099000I40000J0D01*
G01*
X14468500Y-7861000D02*
G75*
G02*
X14388500Y-7861000I-40000J0D01*
G01*
X14388500Y-7861000D02*
G75*
G02*
X14468500Y-7861000I40000J0D01*
G01*
X14722500Y-7099000D02*
G75*
G02*
X14642500Y-7099000I-40000J0D01*
G01*
X14642500Y-7099000D02*
G75*
G02*
X14722500Y-7099000I40000J0D01*
G01*
X14722500Y-7861000D02*
G75*
G02*
X14642500Y-7861000I-40000J0D01*
G01*
X14642500Y-7861000D02*
G75*
G02*
X14722500Y-7861000I40000J0D01*
G01*
X14976500Y-7099000D02*
G75*
G02*
X14896500Y-7099000I-40000J0D01*
G01*
X14896500Y-7099000D02*
G75*
G02*
X14976500Y-7099000I40000J0D01*
G01*
X14976500Y-7861000D02*
G75*
G02*
X14896500Y-7861000I-40000J0D01*
G01*
X14896500Y-7861000D02*
G75*
G02*
X14976500Y-7861000I40000J0D01*
G01*
X15230500Y-7099000D02*
G75*
G02*
X15150500Y-7099000I-40000J0D01*
G01*
X15150500Y-7099000D02*
G75*
G02*
X15230500Y-7099000I40000J0D01*
G01*
X15230500Y-7861000D02*
G75*
G02*
X15150500Y-7861000I-40000J0D01*
G01*
X15150500Y-7861000D02*
G75*
G02*
X15230500Y-7861000I40000J0D01*
G01*
X15781500Y-7105000D02*
G75*
G02*
X15701500Y-7105000I-40000J0D01*
G01*
X15701500Y-7105000D02*
G75*
G02*
X15781500Y-7105000I40000J0D01*
G01*
X15781500Y-7867000D02*
G75*
G02*
X15701500Y-7867000I-40000J0D01*
G01*
X15701500Y-7867000D02*
G75*
G02*
X15781500Y-7867000I40000J0D01*
G01*
X16035500Y-7105000D02*
G75*
G02*
X15955500Y-7105000I-40000J0D01*
G01*
X15955500Y-7105000D02*
G75*
G02*
X16035500Y-7105000I40000J0D01*
G01*
X16035500Y-7867000D02*
G75*
G02*
X15955500Y-7867000I-40000J0D01*
G01*
X15955500Y-7867000D02*
G75*
G02*
X16035500Y-7867000I40000J0D01*
G01*
X16289500Y-7105000D02*
G75*
G02*
X16209500Y-7105000I-40000J0D01*
G01*
X16209500Y-7105000D02*
G75*
G02*
X16289500Y-7105000I40000J0D01*
G01*
X16289500Y-7867000D02*
G75*
G02*
X16209500Y-7867000I-40000J0D01*
G01*
X16209500Y-7867000D02*
G75*
G02*
X16289500Y-7867000I40000J0D01*
G01*
X16543500Y-7105000D02*
G75*
G02*
X16463500Y-7105000I-40000J0D01*
G01*
X16463500Y-7105000D02*
G75*
G02*
X16543500Y-7105000I40000J0D01*
G01*
X16543500Y-7867000D02*
G75*
G02*
X16463500Y-7867000I-40000J0D01*
G01*
X16463500Y-7867000D02*
G75*
G02*
X16543500Y-7867000I40000J0D01*
G01*
X16797500Y-7105000D02*
G75*
G02*
X16717500Y-7105000I-40000J0D01*
G01*
X16717500Y-7105000D02*
G75*
G02*
X16797500Y-7105000I40000J0D01*
G01*
X16797500Y-7867000D02*
G75*
G02*
X16717500Y-7867000I-40000J0D01*
G01*
X16717500Y-7867000D02*
G75*
G02*
X16797500Y-7867000I40000J0D01*
G01*
X17051500Y-7105000D02*
G75*
G02*
X16971500Y-7105000I-40000J0D01*
G01*
X16971500Y-7105000D02*
G75*
G02*
X17051500Y-7105000I40000J0D01*
G01*
X17051500Y-7867000D02*
G75*
G02*
X16971500Y-7867000I-40000J0D01*
G01*
X16971500Y-7867000D02*
G75*
G02*
X17051500Y-7867000I40000J0D01*
G01*
X17305500Y-7105000D02*
G75*
G02*
X17225500Y-7105000I-40000J0D01*
G01*
X17225500Y-7105000D02*
G75*
G02*
X17305500Y-7105000I40000J0D01*
G01*
X17305500Y-7867000D02*
G75*
G02*
X17225500Y-7867000I-40000J0D01*
G01*
X17225500Y-7867000D02*
G75*
G02*
X17305500Y-7867000I40000J0D01*
G01*
X17559500Y-7105000D02*
G75*
G02*
X17479500Y-7105000I-40000J0D01*
G01*
X17479500Y-7105000D02*
G75*
G02*
X17559500Y-7105000I40000J0D01*
G01*
X17559500Y-7867000D02*
G75*
G02*
X17479500Y-7867000I-40000J0D01*
G01*
X17479500Y-7867000D02*
G75*
G02*
X17559500Y-7867000I40000J0D01*
G01*
X17813500Y-7105000D02*
G75*
G02*
X17733500Y-7105000I-40000J0D01*
G01*
X17733500Y-7105000D02*
G75*
G02*
X17813500Y-7105000I40000J0D01*
G01*
X17813500Y-7867000D02*
G75*
G02*
X17733500Y-7867000I-40000J0D01*
G01*
X17733500Y-7867000D02*
G75*
G02*
X17813500Y-7867000I40000J0D01*
G01*
X20472500Y-5500000D02*
G75*
G02*
X20392500Y-5500000I-40000J0D01*
G01*
X20392500Y-5500000D02*
G75*
G02*
X20472500Y-5500000I40000J0D01*
G01*
X20475000Y-6217500D02*
G75*
G02*
X20395000Y-6217500I-40000J0D01*
G01*
X20395000Y-6217500D02*
G75*
G02*
X20475000Y-6217500I40000J0D01*
G01*
X20722500Y-5500000D02*
G75*
G02*
X20642500Y-5500000I-40000J0D01*
G01*
X20642500Y-5500000D02*
G75*
G02*
X20722500Y-5500000I40000J0D01*
G01*
X20725000Y-6217500D02*
G75*
G02*
X20645000Y-6217500I-40000J0D01*
G01*
X20645000Y-6217500D02*
G75*
G02*
X20725000Y-6217500I40000J0D01*
G01*
X20908875Y-8456625D02*
G75*
G02*
X20828875Y-8456625I-40000J0D01*
G01*
X20828875Y-8456625D02*
G75*
G02*
X20908875Y-8456625I40000J0D01*
G01*
X20963875Y-9361625D02*
G75*
G02*
X20883875Y-9361625I-40000J0D01*
G01*
X20883875Y-9361625D02*
G75*
G02*
X20963875Y-9361625I40000J0D01*
G01*
X21213875Y-9361625D02*
G75*
G02*
X21133875Y-9361625I-40000J0D01*
G01*
X21133875Y-9361625D02*
G75*
G02*
X21213875Y-9361625I40000J0D01*
G01*
X21258875Y-8456625D02*
G75*
G02*
X21178875Y-8456625I-40000J0D01*
G01*
X21178875Y-8456625D02*
G75*
G02*
X21258875Y-8456625I40000J0D01*
G01*
X20684500Y-7235000D02*
X20684500Y-7325000D01*
X20639500Y-7280000D02*
X20729500Y-7280000D01*
X20938500Y-7235000D02*
X20938500Y-7325000D01*
X20893500Y-7280000D02*
X20983500Y-7280000D01*
X21192500Y-7235000D02*
X21192500Y-7325000D01*
X21147500Y-7280000D02*
X21237500Y-7280000D01*
X9401856Y-5540356D02*
X9401856Y-5469644D01*
X9331144Y-5469644D01*
X9331144Y-5540356D01*
X9401856Y-5540356D01*
X9401856Y-6302356D02*
X9401856Y-6231644D01*
X9331144Y-6231644D01*
X9331144Y-6302356D01*
X9401856Y-6302356D01*
X9410356Y-3940356D02*
X9410356Y-3869644D01*
X9339644Y-3869644D01*
X9339644Y-3940356D01*
X9410356Y-3940356D01*
X9410356Y-4702356D02*
X9410356Y-4631644D01*
X9339644Y-4631644D01*
X9339644Y-4702356D01*
X9410356Y-4702356D01*
X9655856Y-5540356D02*
X9655856Y-5469644D01*
X9585144Y-5469644D01*
X9585144Y-5540356D01*
X9655856Y-5540356D01*
X9655856Y-6302356D02*
X9655856Y-6231644D01*
X9585144Y-6231644D01*
X9585144Y-6302356D01*
X9655856Y-6302356D01*
X9664356Y-3940356D02*
X9664356Y-3869644D01*
X9593644Y-3869644D01*
X9593644Y-3940356D01*
X9664356Y-3940356D01*
X9664356Y-4702356D02*
X9664356Y-4631644D01*
X9593644Y-4631644D01*
X9593644Y-4702356D01*
X9664356Y-4702356D01*
X9909856Y-5540356D02*
X9909856Y-5469644D01*
X9839144Y-5469644D01*
X9839144Y-5540356D01*
X9909856Y-5540356D01*
X9909856Y-6302356D02*
X9909856Y-6231644D01*
X9839144Y-6231644D01*
X9839144Y-6302356D01*
X9909856Y-6302356D01*
X9918356Y-3940356D02*
X9918356Y-3869644D01*
X9847644Y-3869644D01*
X9847644Y-3940356D01*
X9918356Y-3940356D01*
X9918356Y-4702356D02*
X9918356Y-4631644D01*
X9847644Y-4631644D01*
X9847644Y-4702356D01*
X9918356Y-4702356D01*
X10163856Y-5540356D02*
X10163856Y-5469644D01*
X10093144Y-5469644D01*
X10093144Y-5540356D01*
X10163856Y-5540356D01*
X10163856Y-6302356D02*
X10163856Y-6231644D01*
X10093144Y-6231644D01*
X10093144Y-6302356D01*
X10163856Y-6302356D01*
X10172356Y-3940356D02*
X10172356Y-3869644D01*
X10101644Y-3869644D01*
X10101644Y-3940356D01*
X10172356Y-3940356D01*
X10172356Y-4702356D02*
X10172356Y-4631644D01*
X10101644Y-4631644D01*
X10101644Y-4702356D01*
X10172356Y-4702356D01*
X10417856Y-5540356D02*
X10417856Y-5469644D01*
X10347144Y-5469644D01*
X10347144Y-5540356D01*
X10417856Y-5540356D01*
X10417856Y-6302356D02*
X10417856Y-6231644D01*
X10347144Y-6231644D01*
X10347144Y-6302356D01*
X10417856Y-6302356D01*
X10426356Y-3940356D02*
X10426356Y-3869644D01*
X10355644Y-3869644D01*
X10355644Y-3940356D01*
X10426356Y-3940356D01*
X10426356Y-4702356D02*
X10426356Y-4631644D01*
X10355644Y-4631644D01*
X10355644Y-4702356D01*
X10426356Y-4702356D01*
X11451856Y-5553356D02*
X11451856Y-5482644D01*
X11381144Y-5482644D01*
X11381144Y-5553356D01*
X11451856Y-5553356D01*
X11451856Y-6315356D02*
X11451856Y-6244644D01*
X11381144Y-6244644D01*
X11381144Y-6315356D01*
X11451856Y-6315356D01*
X11467856Y-3940356D02*
X11467856Y-3869644D01*
X11397144Y-3869644D01*
X11397144Y-3940356D01*
X11467856Y-3940356D01*
X11467856Y-4702356D02*
X11467856Y-4631644D01*
X11397144Y-4631644D01*
X11397144Y-4702356D01*
X11467856Y-4702356D01*
X11705856Y-5553356D02*
X11705856Y-5482644D01*
X11635144Y-5482644D01*
X11635144Y-5553356D01*
X11705856Y-5553356D01*
X11705856Y-6315356D02*
X11705856Y-6244644D01*
X11635144Y-6244644D01*
X11635144Y-6315356D01*
X11705856Y-6315356D01*
X11721856Y-3940356D02*
X11721856Y-3869644D01*
X11651144Y-3869644D01*
X11651144Y-3940356D01*
X11721856Y-3940356D01*
X11721856Y-4702356D02*
X11721856Y-4631644D01*
X11651144Y-4631644D01*
X11651144Y-4702356D01*
X11721856Y-4702356D01*
X11959856Y-5553356D02*
X11959856Y-5482644D01*
X11889144Y-5482644D01*
X11889144Y-5553356D01*
X11959856Y-5553356D01*
X11959856Y-6315356D02*
X11959856Y-6244644D01*
X11889144Y-6244644D01*
X11889144Y-6315356D01*
X11959856Y-6315356D01*
X11975856Y-3940356D02*
X11975856Y-3869644D01*
X11905144Y-3869644D01*
X11905144Y-3940356D01*
X11975856Y-3940356D01*
X11975856Y-4702356D02*
X11975856Y-4631644D01*
X11905144Y-4631644D01*
X11905144Y-4702356D01*
X11975856Y-4702356D01*
X12213856Y-5553356D02*
X12213856Y-5482644D01*
X12143144Y-5482644D01*
X12143144Y-5553356D01*
X12213856Y-5553356D01*
X12213856Y-6315356D02*
X12213856Y-6244644D01*
X12143144Y-6244644D01*
X12143144Y-6315356D01*
X12213856Y-6315356D01*
X12229856Y-3940356D02*
X12229856Y-3869644D01*
X12159144Y-3869644D01*
X12159144Y-3940356D01*
X12229856Y-3940356D01*
X12229856Y-4702356D02*
X12229856Y-4631644D01*
X12159144Y-4631644D01*
X12159144Y-4702356D01*
X12229856Y-4702356D01*
X12467856Y-5553356D02*
X12467856Y-5482644D01*
X12397144Y-5482644D01*
X12397144Y-5553356D01*
X12467856Y-5553356D01*
X12467856Y-6315356D02*
X12467856Y-6244644D01*
X12397144Y-6244644D01*
X12397144Y-6315356D01*
X12467856Y-6315356D01*
X12483856Y-3940356D02*
X12483856Y-3869644D01*
X12413144Y-3869644D01*
X12413144Y-3940356D01*
X12483856Y-3940356D01*
X12483856Y-4702356D02*
X12483856Y-4631644D01*
X12413144Y-4631644D01*
X12413144Y-4702356D01*
X12483856Y-4702356D01*
X12729856Y-8526356D02*
X12729856Y-8455644D01*
X12659144Y-8455644D01*
X12659144Y-8526356D01*
X12729856Y-8526356D01*
X12729856Y-10304356D02*
X12729856Y-10233644D01*
X12659144Y-10233644D01*
X12659144Y-10304356D01*
X12729856Y-10304356D01*
X12983856Y-8526356D02*
X12983856Y-8455644D01*
X12913144Y-8455644D01*
X12913144Y-8526356D01*
X12983856Y-8526356D01*
X12983856Y-10304356D02*
X12983856Y-10233644D01*
X12913144Y-10233644D01*
X12913144Y-10304356D01*
X12983856Y-10304356D01*
X13237856Y-8526356D02*
X13237856Y-8455644D01*
X13167144Y-8455644D01*
X13167144Y-8526356D01*
X13237856Y-8526356D01*
X13237856Y-10304356D02*
X13237856Y-10233644D01*
X13167144Y-10233644D01*
X13167144Y-10304356D01*
X13237856Y-10304356D01*
X13491856Y-8526356D02*
X13491856Y-8455644D01*
X13421144Y-8455644D01*
X13421144Y-8526356D01*
X13491856Y-8526356D01*
X13491856Y-10304356D02*
X13491856Y-10233644D01*
X13421144Y-10233644D01*
X13421144Y-10304356D01*
X13491856Y-10304356D01*
X13510356Y-5535856D02*
X13510356Y-5465144D01*
X13439644Y-5465144D01*
X13439644Y-5535856D01*
X13510356Y-5535856D01*
X13510356Y-6297856D02*
X13510356Y-6227144D01*
X13439644Y-6227144D01*
X13439644Y-6297856D01*
X13510356Y-6297856D01*
X13517856Y-3940356D02*
X13517856Y-3869644D01*
X13447144Y-3869644D01*
X13447144Y-3940356D01*
X13517856Y-3940356D01*
X13517856Y-4702356D02*
X13517856Y-4631644D01*
X13447144Y-4631644D01*
X13447144Y-4702356D01*
X13517856Y-4702356D01*
X13745856Y-8526356D02*
X13745856Y-8455644D01*
X13675144Y-8455644D01*
X13675144Y-8526356D01*
X13745856Y-8526356D01*
X13745856Y-10304356D02*
X13745856Y-10233644D01*
X13675144Y-10233644D01*
X13675144Y-10304356D01*
X13745856Y-10304356D01*
X13764356Y-5535856D02*
X13764356Y-5465144D01*
X13693644Y-5465144D01*
X13693644Y-5535856D01*
X13764356Y-5535856D01*
X13764356Y-6297856D02*
X13764356Y-6227144D01*
X13693644Y-6227144D01*
X13693644Y-6297856D01*
X13764356Y-6297856D01*
X13771856Y-3940356D02*
X13771856Y-3869644D01*
X13701144Y-3869644D01*
X13701144Y-3940356D01*
X13771856Y-3940356D01*
X13771856Y-4702356D02*
X13771856Y-4631644D01*
X13701144Y-4631644D01*
X13701144Y-4702356D01*
X13771856Y-4702356D01*
X13805856Y-11217856D02*
X13805856Y-11147144D01*
X13735144Y-11147144D01*
X13735144Y-11217856D01*
X13805856Y-11217856D01*
X13999856Y-8526356D02*
X13999856Y-8455644D01*
X13929144Y-8455644D01*
X13929144Y-8526356D01*
X13999856Y-8526356D01*
X13999856Y-10304356D02*
X13999856Y-10233644D01*
X13929144Y-10233644D01*
X13929144Y-10304356D01*
X13999856Y-10304356D01*
X14018356Y-5535856D02*
X14018356Y-5465144D01*
X13947644Y-5465144D01*
X13947644Y-5535856D01*
X14018356Y-5535856D01*
X14018356Y-6297856D02*
X14018356Y-6227144D01*
X13947644Y-6227144D01*
X13947644Y-6297856D01*
X14018356Y-6297856D01*
X14025856Y-3940356D02*
X14025856Y-3869644D01*
X13955144Y-3869644D01*
X13955144Y-3940356D01*
X14025856Y-3940356D01*
X14025856Y-4702356D02*
X14025856Y-4631644D01*
X13955144Y-4631644D01*
X13955144Y-4702356D01*
X14025856Y-4702356D01*
X14059856Y-11217856D02*
X14059856Y-11147144D01*
X13989144Y-11147144D01*
X13989144Y-11217856D01*
X14059856Y-11217856D01*
X14253856Y-8526356D02*
X14253856Y-8455644D01*
X14183144Y-8455644D01*
X14183144Y-8526356D01*
X14253856Y-8526356D01*
X14253856Y-10304356D02*
X14253856Y-10233644D01*
X14183144Y-10233644D01*
X14183144Y-10304356D01*
X14253856Y-10304356D01*
X14272356Y-5535856D02*
X14272356Y-5465144D01*
X14201644Y-5465144D01*
X14201644Y-5535856D01*
X14272356Y-5535856D01*
X14272356Y-6297856D02*
X14272356Y-6227144D01*
X14201644Y-6227144D01*
X14201644Y-6297856D01*
X14272356Y-6297856D01*
X14279856Y-3940356D02*
X14279856Y-3869644D01*
X14209144Y-3869644D01*
X14209144Y-3940356D01*
X14279856Y-3940356D01*
X14279856Y-4702356D02*
X14279856Y-4631644D01*
X14209144Y-4631644D01*
X14209144Y-4702356D01*
X14279856Y-4702356D01*
X14313856Y-11217856D02*
X14313856Y-11147144D01*
X14243144Y-11147144D01*
X14243144Y-11217856D01*
X14313856Y-11217856D01*
X14507856Y-8526356D02*
X14507856Y-8455644D01*
X14437144Y-8455644D01*
X14437144Y-8526356D01*
X14507856Y-8526356D01*
X14507856Y-10304356D02*
X14507856Y-10233644D01*
X14437144Y-10233644D01*
X14437144Y-10304356D01*
X14507856Y-10304356D01*
X14526356Y-5535856D02*
X14526356Y-5465144D01*
X14455644Y-5465144D01*
X14455644Y-5535856D01*
X14526356Y-5535856D01*
X14526356Y-6297856D02*
X14526356Y-6227144D01*
X14455644Y-6227144D01*
X14455644Y-6297856D01*
X14526356Y-6297856D01*
X14533856Y-3940356D02*
X14533856Y-3869644D01*
X14463144Y-3869644D01*
X14463144Y-3940356D01*
X14533856Y-3940356D01*
X14533856Y-4702356D02*
X14533856Y-4631644D01*
X14463144Y-4631644D01*
X14463144Y-4702356D01*
X14533856Y-4702356D01*
X14567856Y-11217856D02*
X14567856Y-11147144D01*
X14497144Y-11147144D01*
X14497144Y-11217856D01*
X14567856Y-11217856D01*
X14761856Y-8526356D02*
X14761856Y-8455644D01*
X14691144Y-8455644D01*
X14691144Y-8526356D01*
X14761856Y-8526356D01*
X14761856Y-10304356D02*
X14761856Y-10233644D01*
X14691144Y-10233644D01*
X14691144Y-10304356D01*
X14761856Y-10304356D01*
X15015856Y-8526356D02*
X15015856Y-8455644D01*
X14945144Y-8455644D01*
X14945144Y-8526356D01*
X15015856Y-8526356D01*
X15015856Y-10304356D02*
X15015856Y-10233644D01*
X14945144Y-10233644D01*
X14945144Y-10304356D01*
X15015856Y-10304356D01*
X15269856Y-8526356D02*
X15269856Y-8455644D01*
X15199144Y-8455644D01*
X15199144Y-8526356D01*
X15269856Y-8526356D01*
X15269856Y-10304356D02*
X15269856Y-10233644D01*
X15199144Y-10233644D01*
X15199144Y-10304356D01*
X15269856Y-10304356D01*
X15523856Y-8526356D02*
X15523856Y-8455644D01*
X15453144Y-8455644D01*
X15453144Y-8526356D01*
X15523856Y-8526356D01*
X15523856Y-10304356D02*
X15523856Y-10233644D01*
X15453144Y-10233644D01*
X15453144Y-10304356D01*
X15523856Y-10304356D01*
X15555856Y-11215356D02*
X15555856Y-11144644D01*
X15485144Y-11144644D01*
X15485144Y-11215356D01*
X15555856Y-11215356D01*
X15563856Y-3937356D02*
X15563856Y-3866644D01*
X15493144Y-3866644D01*
X15493144Y-3937356D01*
X15563856Y-3937356D01*
X15563856Y-4699356D02*
X15563856Y-4628644D01*
X15493144Y-4628644D01*
X15493144Y-4699356D01*
X15563856Y-4699356D01*
X15570856Y-5535356D02*
X15570856Y-5464644D01*
X15500144Y-5464644D01*
X15500144Y-5535356D01*
X15570856Y-5535356D01*
X15570856Y-6297356D02*
X15570856Y-6226644D01*
X15500144Y-6226644D01*
X15500144Y-6297356D01*
X15570856Y-6297356D01*
X15777856Y-8526356D02*
X15777856Y-8455644D01*
X15707144Y-8455644D01*
X15707144Y-8526356D01*
X15777856Y-8526356D01*
X15777856Y-10304356D02*
X15777856Y-10233644D01*
X15707144Y-10233644D01*
X15707144Y-10304356D01*
X15777856Y-10304356D01*
X15809856Y-11215356D02*
X15809856Y-11144644D01*
X15739144Y-11144644D01*
X15739144Y-11215356D01*
X15809856Y-11215356D01*
X15817856Y-3937356D02*
X15817856Y-3866644D01*
X15747144Y-3866644D01*
X15747144Y-3937356D01*
X15817856Y-3937356D01*
X15817856Y-4699356D02*
X15817856Y-4628644D01*
X15747144Y-4628644D01*
X15747144Y-4699356D01*
X15817856Y-4699356D01*
X15824856Y-5535356D02*
X15824856Y-5464644D01*
X15754144Y-5464644D01*
X15754144Y-5535356D01*
X15824856Y-5535356D01*
X15824856Y-6297356D02*
X15824856Y-6226644D01*
X15754144Y-6226644D01*
X15754144Y-6297356D01*
X15824856Y-6297356D01*
X16031856Y-8526356D02*
X16031856Y-8455644D01*
X15961144Y-8455644D01*
X15961144Y-8526356D01*
X16031856Y-8526356D01*
X16031856Y-10304356D02*
X16031856Y-10233644D01*
X15961144Y-10233644D01*
X15961144Y-10304356D01*
X16031856Y-10304356D01*
X16063856Y-11215356D02*
X16063856Y-11144644D01*
X15993144Y-11144644D01*
X15993144Y-11215356D01*
X16063856Y-11215356D01*
X16071856Y-3937356D02*
X16071856Y-3866644D01*
X16001144Y-3866644D01*
X16001144Y-3937356D01*
X16071856Y-3937356D01*
X16071856Y-4699356D02*
X16071856Y-4628644D01*
X16001144Y-4628644D01*
X16001144Y-4699356D01*
X16071856Y-4699356D01*
X16078856Y-5535356D02*
X16078856Y-5464644D01*
X16008144Y-5464644D01*
X16008144Y-5535356D01*
X16078856Y-5535356D01*
X16078856Y-6297356D02*
X16078856Y-6226644D01*
X16008144Y-6226644D01*
X16008144Y-6297356D01*
X16078856Y-6297356D01*
X16285856Y-8526356D02*
X16285856Y-8455644D01*
X16215144Y-8455644D01*
X16215144Y-8526356D01*
X16285856Y-8526356D01*
X16285856Y-10304356D02*
X16285856Y-10233644D01*
X16215144Y-10233644D01*
X16215144Y-10304356D01*
X16285856Y-10304356D01*
X16317856Y-11215356D02*
X16317856Y-11144644D01*
X16247144Y-11144644D01*
X16247144Y-11215356D01*
X16317856Y-11215356D01*
X16325856Y-3937356D02*
X16325856Y-3866644D01*
X16255144Y-3866644D01*
X16255144Y-3937356D01*
X16325856Y-3937356D01*
X16325856Y-4699356D02*
X16325856Y-4628644D01*
X16255144Y-4628644D01*
X16255144Y-4699356D01*
X16325856Y-4699356D01*
X16332856Y-5535356D02*
X16332856Y-5464644D01*
X16262144Y-5464644D01*
X16262144Y-5535356D01*
X16332856Y-5535356D01*
X16332856Y-6297356D02*
X16332856Y-6226644D01*
X16262144Y-6226644D01*
X16262144Y-6297356D01*
X16332856Y-6297356D01*
X16539856Y-8526356D02*
X16539856Y-8455644D01*
X16469144Y-8455644D01*
X16469144Y-8526356D01*
X16539856Y-8526356D01*
X16539856Y-10304356D02*
X16539856Y-10233644D01*
X16469144Y-10233644D01*
X16469144Y-10304356D01*
X16539856Y-10304356D01*
X16571856Y-11215356D02*
X16571856Y-11144644D01*
X16501144Y-11144644D01*
X16501144Y-11215356D01*
X16571856Y-11215356D01*
X16579856Y-3937356D02*
X16579856Y-3866644D01*
X16509144Y-3866644D01*
X16509144Y-3937356D01*
X16579856Y-3937356D01*
X16579856Y-4699356D02*
X16579856Y-4628644D01*
X16509144Y-4628644D01*
X16509144Y-4699356D01*
X16579856Y-4699356D01*
X16586856Y-5535356D02*
X16586856Y-5464644D01*
X16516144Y-5464644D01*
X16516144Y-5535356D01*
X16586856Y-5535356D01*
X16586856Y-6297356D02*
X16586856Y-6226644D01*
X16516144Y-6226644D01*
X16516144Y-6297356D01*
X16586856Y-6297356D01*
X16793856Y-8526356D02*
X16793856Y-8455644D01*
X16723144Y-8455644D01*
X16723144Y-8526356D01*
X16793856Y-8526356D01*
X16793856Y-10304356D02*
X16793856Y-10233644D01*
X16723144Y-10233644D01*
X16723144Y-10304356D01*
X16793856Y-10304356D01*
X17047856Y-8526356D02*
X17047856Y-8455644D01*
X16977144Y-8455644D01*
X16977144Y-8526356D01*
X17047856Y-8526356D01*
X17047856Y-10304356D02*
X17047856Y-10233644D01*
X16977144Y-10233644D01*
X16977144Y-10304356D01*
X17047856Y-10304356D01*
X17301856Y-8526356D02*
X17301856Y-8455644D01*
X17231144Y-8455644D01*
X17231144Y-8526356D01*
X17301856Y-8526356D01*
X17301856Y-10304356D02*
X17301856Y-10233644D01*
X17231144Y-10233644D01*
X17231144Y-10304356D01*
X17301856Y-10304356D01*
X17555856Y-8526356D02*
X17555856Y-8455644D01*
X17485144Y-8455644D01*
X17485144Y-8526356D01*
X17555856Y-8526356D01*
X17555856Y-10304356D02*
X17555856Y-10233644D01*
X17485144Y-10233644D01*
X17485144Y-10304356D01*
X17555856Y-10304356D01*
X17610356Y-3940356D02*
X17610356Y-3869644D01*
X17539644Y-3869644D01*
X17539644Y-3940356D01*
X17610356Y-3940356D01*
X17610356Y-4702356D02*
X17610356Y-4631644D01*
X17539644Y-4631644D01*
X17539644Y-4702356D01*
X17610356Y-4702356D01*
X17610356Y-5535856D02*
X17610356Y-5465144D01*
X17539644Y-5465144D01*
X17539644Y-5535856D01*
X17610356Y-5535856D01*
X17610356Y-6297856D02*
X17610356Y-6227144D01*
X17539644Y-6227144D01*
X17539644Y-6297856D01*
X17610356Y-6297856D01*
X17864356Y-3940356D02*
X17864356Y-3869644D01*
X17793644Y-3869644D01*
X17793644Y-3940356D01*
X17864356Y-3940356D01*
X17864356Y-4702356D02*
X17864356Y-4631644D01*
X17793644Y-4631644D01*
X17793644Y-4702356D01*
X17864356Y-4702356D01*
X17864356Y-5535856D02*
X17864356Y-5465144D01*
X17793644Y-5465144D01*
X17793644Y-5535856D01*
X17864356Y-5535856D01*
X17864356Y-6297856D02*
X17864356Y-6227144D01*
X17793644Y-6227144D01*
X17793644Y-6297856D01*
X17864356Y-6297856D01*
X18118356Y-3940356D02*
X18118356Y-3869644D01*
X18047644Y-3869644D01*
X18047644Y-3940356D01*
X18118356Y-3940356D01*
X18118356Y-4702356D02*
X18118356Y-4631644D01*
X18047644Y-4631644D01*
X18047644Y-4702356D01*
X18118356Y-4702356D01*
X18118356Y-5535856D02*
X18118356Y-5465144D01*
X18047644Y-5465144D01*
X18047644Y-5535856D01*
X18118356Y-5535856D01*
X18118356Y-6297856D02*
X18118356Y-6227144D01*
X18047644Y-6227144D01*
X18047644Y-6297856D01*
X18118356Y-6297856D01*
X18372356Y-3940356D02*
X18372356Y-3869644D01*
X18301644Y-3869644D01*
X18301644Y-3940356D01*
X18372356Y-3940356D01*
X18372356Y-4702356D02*
X18372356Y-4631644D01*
X18301644Y-4631644D01*
X18301644Y-4702356D01*
X18372356Y-4702356D01*
X18372356Y-5535856D02*
X18372356Y-5465144D01*
X18301644Y-5465144D01*
X18301644Y-5535856D01*
X18372356Y-5535856D01*
X18372356Y-6297856D02*
X18372356Y-6227144D01*
X18301644Y-6227144D01*
X18301644Y-6297856D01*
X18372356Y-6297856D01*
X18626356Y-3940356D02*
X18626356Y-3869644D01*
X18555644Y-3869644D01*
X18555644Y-3940356D01*
X18626356Y-3940356D01*
X18626356Y-4702356D02*
X18626356Y-4631644D01*
X18555644Y-4631644D01*
X18555644Y-4702356D01*
X18626356Y-4702356D01*
X18626356Y-5535856D02*
X18626356Y-5465144D01*
X18555644Y-5465144D01*
X18555644Y-5535856D01*
X18626356Y-5535856D01*
X18626356Y-6297856D02*
X18626356Y-6227144D01*
X18555644Y-6227144D01*
X18555644Y-6297856D01*
X18626356Y-6297856D01*
X20697856Y-10390356D02*
X20697856Y-10319644D01*
X20627144Y-10319644D01*
X20627144Y-10390356D01*
X20697856Y-10390356D01*
X20697856Y-10650356D02*
X20697856Y-10579644D01*
X20627144Y-10579644D01*
X20627144Y-10650356D01*
X20697856Y-10650356D01*
D12*
X21743875Y-8306625D02*
X21803875Y-8246625D01*
X21743875Y-8186625D01*
X21683875Y-8246625D01*
X21743875Y-8306625D01*
X21743875Y-9576625D02*
X21803875Y-9516625D01*
X21743875Y-9456625D01*
X21683875Y-9516625D01*
X21743875Y-9576625D01*
D13*
X7687100Y-2617750D02*
X7817100Y-2747750D01*
X7817100Y-2617750D02*
X7687100Y-2747750D01*
X7817100Y-2682750D02*
G75*
G02*
X7687100Y-2682750I-65000J0D01*
G01*
X7687100Y-2682750D02*
G75*
G02*
X7817100Y-2682750I65000J0D01*
G01*
X7967500Y-5590000D02*
X8097500Y-5720000D01*
X8097500Y-5590000D02*
X7967500Y-5720000D01*
X8097500Y-5655000D02*
G75*
G02*
X7967500Y-5655000I-65000J0D01*
G01*
X7967500Y-5655000D02*
G75*
G02*
X8097500Y-5655000I65000J0D01*
G01*
X7967500Y-6098000D02*
X8097500Y-6228000D01*
X8097500Y-6098000D02*
X7967500Y-6228000D01*
X8097500Y-6163000D02*
G75*
G02*
X7967500Y-6163000I-65000J0D01*
G01*
X7967500Y-6163000D02*
G75*
G02*
X8097500Y-6163000I65000J0D01*
G01*
X8195100Y-2617750D02*
X8325100Y-2747750D01*
X8325100Y-2617750D02*
X8195100Y-2747750D01*
X8325100Y-2682750D02*
G75*
G02*
X8195100Y-2682750I-65000J0D01*
G01*
X8195100Y-2682750D02*
G75*
G02*
X8325100Y-2682750I65000J0D01*
G01*
X8951200Y-2617750D02*
X9081200Y-2747750D01*
X9081200Y-2617750D02*
X8951200Y-2747750D01*
X9081200Y-2682750D02*
G75*
G02*
X8951200Y-2682750I-65000J0D01*
G01*
X8951200Y-2682750D02*
G75*
G02*
X9081200Y-2682750I65000J0D01*
G01*
X9459200Y-2617750D02*
X9589200Y-2747750D01*
X9589200Y-2617750D02*
X9459200Y-2747750D01*
X9589200Y-2682750D02*
G75*
G02*
X9459200Y-2682750I-65000J0D01*
G01*
X9459200Y-2682750D02*
G75*
G02*
X9589200Y-2682750I65000J0D01*
G01*
X10215300Y-2617750D02*
X10345300Y-2747750D01*
X10345300Y-2617750D02*
X10215300Y-2747750D01*
X10345300Y-2682750D02*
G75*
G02*
X10215300Y-2682750I-65000J0D01*
G01*
X10215300Y-2682750D02*
G75*
G02*
X10345300Y-2682750I65000J0D01*
G01*
X10723300Y-2617750D02*
X10853300Y-2747750D01*
X10853300Y-2617750D02*
X10723300Y-2747750D01*
X10853300Y-2682750D02*
G75*
G02*
X10723300Y-2682750I-65000J0D01*
G01*
X10723300Y-2682750D02*
G75*
G02*
X10853300Y-2682750I65000J0D01*
G01*
X11479400Y-2617750D02*
X11609400Y-2747750D01*
X11609400Y-2617750D02*
X11479400Y-2747750D01*
X11609400Y-2682750D02*
G75*
G02*
X11479400Y-2682750I-65000J0D01*
G01*
X11479400Y-2682750D02*
G75*
G02*
X11609400Y-2682750I65000J0D01*
G01*
X11987400Y-2617750D02*
X12117400Y-2747750D01*
X12117400Y-2617750D02*
X11987400Y-2747750D01*
X12117400Y-2682750D02*
G75*
G02*
X11987400Y-2682750I-65000J0D01*
G01*
X11987400Y-2682750D02*
G75*
G02*
X12117400Y-2682750I65000J0D01*
G01*
X12743500Y-2617750D02*
X12873500Y-2747750D01*
X12873500Y-2617750D02*
X12743500Y-2747750D01*
X12873500Y-2682750D02*
G75*
G02*
X12743500Y-2682750I-65000J0D01*
G01*
X12743500Y-2682750D02*
G75*
G02*
X12873500Y-2682750I65000J0D01*
G01*
X13251500Y-2617750D02*
X13381500Y-2747750D01*
X13381500Y-2617750D02*
X13251500Y-2747750D01*
X13381500Y-2682750D02*
G75*
G02*
X13251500Y-2682750I-65000J0D01*
G01*
X13251500Y-2682750D02*
G75*
G02*
X13381500Y-2682750I65000J0D01*
G01*
X14007600Y-2617750D02*
X14137600Y-2747750D01*
X14137600Y-2617750D02*
X14007600Y-2747750D01*
X14137600Y-2682750D02*
G75*
G02*
X14007600Y-2682750I-65000J0D01*
G01*
X14007600Y-2682750D02*
G75*
G02*
X14137600Y-2682750I65000J0D01*
G01*
X14515600Y-2617750D02*
X14645600Y-2747750D01*
X14645600Y-2617750D02*
X14515600Y-2747750D01*
X14645600Y-2682750D02*
G75*
G02*
X14515600Y-2682750I-65000J0D01*
G01*
X14515600Y-2682750D02*
G75*
G02*
X14645600Y-2682750I65000J0D01*
G01*
X15271700Y-2617750D02*
X15401700Y-2747750D01*
X15401700Y-2617750D02*
X15271700Y-2747750D01*
X15401700Y-2682750D02*
G75*
G02*
X15271700Y-2682750I-65000J0D01*
G01*
X15271700Y-2682750D02*
G75*
G02*
X15401700Y-2682750I65000J0D01*
G01*
X15779700Y-2617750D02*
X15909700Y-2747750D01*
X15909700Y-2617750D02*
X15779700Y-2747750D01*
X15909700Y-2682750D02*
G75*
G02*
X15779700Y-2682750I-65000J0D01*
G01*
X15779700Y-2682750D02*
G75*
G02*
X15909700Y-2682750I65000J0D01*
G01*
X16537000Y-2620000D02*
X16667000Y-2750000D01*
X16667000Y-2620000D02*
X16537000Y-2750000D01*
X16667000Y-2685000D02*
G75*
G02*
X16537000Y-2685000I-65000J0D01*
G01*
X16537000Y-2685000D02*
G75*
G02*
X16667000Y-2685000I65000J0D01*
G01*
X17045000Y-2620000D02*
X17175000Y-2750000D01*
X17175000Y-2620000D02*
X17045000Y-2750000D01*
X17175000Y-2685000D02*
G75*
G02*
X17045000Y-2685000I-65000J0D01*
G01*
X17045000Y-2685000D02*
G75*
G02*
X17175000Y-2685000I65000J0D01*
G01*
X17799900Y-2617750D02*
X17929900Y-2747750D01*
X17929900Y-2617750D02*
X17799900Y-2747750D01*
X17929900Y-2682750D02*
G75*
G02*
X17799900Y-2682750I-65000J0D01*
G01*
X17799900Y-2682750D02*
G75*
G02*
X17929900Y-2682750I65000J0D01*
G01*
X18307900Y-2617750D02*
X18437900Y-2747750D01*
X18437900Y-2617750D02*
X18307900Y-2747750D01*
X18437900Y-2682750D02*
G75*
G02*
X18307900Y-2682750I-65000J0D01*
G01*
X18307900Y-2682750D02*
G75*
G02*
X18437900Y-2682750I65000J0D01*
G01*
X19064000Y-2617750D02*
X19194000Y-2747750D01*
X19194000Y-2617750D02*
X19064000Y-2747750D01*
X19194000Y-2682750D02*
G75*
G02*
X19064000Y-2682750I-65000J0D01*
G01*
X19064000Y-2682750D02*
G75*
G02*
X19194000Y-2682750I65000J0D01*
G01*
X19572000Y-2617750D02*
X19702000Y-2747750D01*
X19702000Y-2617750D02*
X19572000Y-2747750D01*
X19702000Y-2682750D02*
G75*
G02*
X19572000Y-2682750I-65000J0D01*
G01*
X19572000Y-2682750D02*
G75*
G02*
X19702000Y-2682750I65000J0D01*
G01*
X20328100Y-2617750D02*
X20458100Y-2747750D01*
X20458100Y-2617750D02*
X20328100Y-2747750D01*
X20458100Y-2682750D02*
G75*
G02*
X20328100Y-2682750I-65000J0D01*
G01*
X20328100Y-2682750D02*
G75*
G02*
X20458100Y-2682750I65000J0D01*
G01*
X20836100Y-2617750D02*
X20966100Y-2747750D01*
X20966100Y-2617750D02*
X20836100Y-2747750D01*
X20966100Y-2682750D02*
G75*
G02*
X20836100Y-2682750I-65000J0D01*
G01*
X20836100Y-2682750D02*
G75*
G02*
X20966100Y-2682750I65000J0D01*
G01*
X21388875Y-10033625D02*
X21518875Y-10163625D01*
X21518875Y-10033625D02*
X21388875Y-10163625D01*
X21518875Y-10098625D02*
G75*
G02*
X21388875Y-10098625I-65000J0D01*
G01*
X21388875Y-10098625D02*
G75*
G02*
X21518875Y-10098625I65000J0D01*
G01*
X21388875Y-10541625D02*
X21518875Y-10671625D01*
X21518875Y-10541625D02*
X21388875Y-10671625D01*
X21518875Y-10606625D02*
G75*
G02*
X21388875Y-10606625I-65000J0D01*
G01*
X21388875Y-10606625D02*
G75*
G02*
X21518875Y-10606625I65000J0D01*
G01*
D14*
X17112000Y-9045000D02*
X17297000Y-9230000D01*
X17297000Y-9045000D02*
X17112000Y-9230000D01*
X17204500Y-9045000D02*
X17204500Y-9230000D01*
X17112000Y-9137500D02*
X17297000Y-9137500D01*
X17112000Y-9530000D02*
X17297000Y-9715000D01*
X17297000Y-9530000D02*
X17112000Y-9715000D01*
X17204500Y-9530000D02*
X17204500Y-9715000D01*
X17112000Y-9622500D02*
X17297000Y-9622500D01*
D15*
X17397500Y-8997500D02*
X17617500Y-9217500D01*
X17617500Y-8997500D02*
X17397500Y-9217500D01*
X17585283Y-9185283D02*
X17585283Y-9029718D01*
X17429718Y-9029718D01*
X17429718Y-9185283D01*
X17585283Y-9185283D01*
X17397500Y-9542500D02*
X17617500Y-9762500D01*
X17617500Y-9542500D02*
X17397500Y-9762500D01*
X17585283Y-9730283D02*
X17585283Y-9574718D01*
X17429718Y-9574718D01*
X17429718Y-9730283D01*
X17585283Y-9730283D01*
D16*
X6892500Y-2190000D02*
X7212500Y-2510000D01*
X7212500Y-2190000D02*
X6892500Y-2510000D01*
X7052500Y-2510000D02*
X7212500Y-2350000D01*
X7052500Y-2190000D01*
X6892500Y-2350000D01*
X7052500Y-2510000D01*
X6892500Y-11310000D02*
X7212500Y-11630000D01*
X7212500Y-11310000D02*
X6892500Y-11630000D01*
X7052500Y-11630000D02*
X7212500Y-11470000D01*
X7052500Y-11310000D01*
X6892500Y-11470000D01*
X7052500Y-11630000D01*
X22492500Y-2190000D02*
X22812500Y-2510000D01*
X22812500Y-2190000D02*
X22492500Y-2510000D01*
X22652500Y-2510000D02*
X22812500Y-2350000D01*
X22652500Y-2190000D01*
X22492500Y-2350000D01*
X22652500Y-2510000D01*
X22492500Y-11310000D02*
X22812500Y-11630000D01*
X22812500Y-11310000D02*
X22492500Y-11630000D01*
X22652500Y-11630000D02*
X22812500Y-11470000D01*
X22652500Y-11310000D01*
X22492500Y-11470000D01*
X22652500Y-11630000D01*
D11*
X6958277Y-12136484D02*
X6958277Y-11936484D01*
X6958277Y-11936484D02*
X7005896Y-11936484D01*
X7005896Y-11936484D02*
X7034467Y-11946008D01*
X7034467Y-11946008D02*
X7053515Y-11965055D01*
X7053515Y-11965055D02*
X7063039Y-11984103D01*
X7063039Y-11984103D02*
X7072562Y-12022198D01*
X7072562Y-12022198D02*
X7072562Y-12050769D01*
X7072562Y-12050769D02*
X7063039Y-12088865D01*
X7063039Y-12088865D02*
X7053515Y-12107912D01*
X7053515Y-12107912D02*
X7034467Y-12126960D01*
X7034467Y-12126960D02*
X7005896Y-12136484D01*
X7005896Y-12136484D02*
X6958277Y-12136484D01*
X7158277Y-12136484D02*
X7158277Y-12003150D01*
X7158277Y-12041246D02*
X7167801Y-12022198D01*
X7167801Y-12022198D02*
X7177324Y-12012674D01*
X7177324Y-12012674D02*
X7196372Y-12003150D01*
X7196372Y-12003150D02*
X7215420Y-12003150D01*
X7282086Y-12136484D02*
X7282086Y-12003150D01*
X7282086Y-11936484D02*
X7272562Y-11946008D01*
X7272562Y-11946008D02*
X7282086Y-11955531D01*
X7282086Y-11955531D02*
X7291610Y-11946008D01*
X7291610Y-11946008D02*
X7282086Y-11936484D01*
X7282086Y-11936484D02*
X7282086Y-11955531D01*
X7405896Y-12136484D02*
X7386848Y-12126960D01*
X7386848Y-12126960D02*
X7377324Y-12107912D01*
X7377324Y-12107912D02*
X7377324Y-11936484D01*
X7510658Y-12136484D02*
X7491610Y-12126960D01*
X7491610Y-12126960D02*
X7482086Y-12107912D01*
X7482086Y-12107912D02*
X7482086Y-11936484D01*
X7739229Y-12136484D02*
X7739229Y-11936484D01*
X7739229Y-11936484D02*
X7805896Y-12079341D01*
X7805896Y-12079341D02*
X7872562Y-11936484D01*
X7872562Y-11936484D02*
X7872562Y-12136484D01*
X8053515Y-12136484D02*
X8053515Y-12031722D01*
X8053515Y-12031722D02*
X8043991Y-12012674D01*
X8043991Y-12012674D02*
X8024943Y-12003150D01*
X8024943Y-12003150D02*
X7986848Y-12003150D01*
X7986848Y-12003150D02*
X7967801Y-12012674D01*
X8053515Y-12126960D02*
X8034467Y-12136484D01*
X8034467Y-12136484D02*
X7986848Y-12136484D01*
X7986848Y-12136484D02*
X7967801Y-12126960D01*
X7967801Y-12126960D02*
X7958277Y-12107912D01*
X7958277Y-12107912D02*
X7958277Y-12088865D01*
X7958277Y-12088865D02*
X7967801Y-12069817D01*
X7967801Y-12069817D02*
X7986848Y-12060293D01*
X7986848Y-12060293D02*
X8034467Y-12060293D01*
X8034467Y-12060293D02*
X8053515Y-12050769D01*
X8148753Y-12003150D02*
X8148753Y-12203150D01*
X8148753Y-12012674D02*
X8167801Y-12003150D01*
X8167801Y-12003150D02*
X8205896Y-12003150D01*
X8205896Y-12003150D02*
X8224943Y-12012674D01*
X8224943Y-12012674D02*
X8234467Y-12022198D01*
X8234467Y-12022198D02*
X8243991Y-12041246D01*
X8243991Y-12041246D02*
X8243991Y-12098388D01*
X8243991Y-12098388D02*
X8234467Y-12117436D01*
X8234467Y-12117436D02*
X8224943Y-12126960D01*
X8224943Y-12126960D02*
X8205896Y-12136484D01*
X8205896Y-12136484D02*
X8167801Y-12136484D01*
X8167801Y-12136484D02*
X8148753Y-12126960D01*
X8329705Y-12117436D02*
X8339229Y-12126960D01*
X8339229Y-12126960D02*
X8329705Y-12136484D01*
X8329705Y-12136484D02*
X8320182Y-12126960D01*
X8320182Y-12126960D02*
X8329705Y-12117436D01*
X8329705Y-12117436D02*
X8329705Y-12136484D01*
X8329705Y-12012674D02*
X8339229Y-12022198D01*
X8339229Y-12022198D02*
X8329705Y-12031722D01*
X8329705Y-12031722D02*
X8320182Y-12022198D01*
X8320182Y-12022198D02*
X8329705Y-12012674D01*
X8329705Y-12012674D02*
X8329705Y-12031722D01*
D10*
X6667500Y-12450000D02*
X6697500Y-12480000D01*
X6697500Y-12450000D02*
X6667500Y-12480000D01*
D11*
X6996372Y-12356484D02*
X7015420Y-12356484D01*
X7015420Y-12356484D02*
X7034467Y-12366008D01*
X7034467Y-12366008D02*
X7043991Y-12375531D01*
X7043991Y-12375531D02*
X7053515Y-12394579D01*
X7053515Y-12394579D02*
X7063039Y-12432674D01*
X7063039Y-12432674D02*
X7063039Y-12480293D01*
X7063039Y-12480293D02*
X7053515Y-12518388D01*
X7053515Y-12518388D02*
X7043991Y-12537436D01*
X7043991Y-12537436D02*
X7034467Y-12546960D01*
X7034467Y-12546960D02*
X7015420Y-12556484D01*
X7015420Y-12556484D02*
X6996372Y-12556484D01*
X6996372Y-12556484D02*
X6977324Y-12546960D01*
X6977324Y-12546960D02*
X6967801Y-12537436D01*
X6967801Y-12537436D02*
X6958277Y-12518388D01*
X6958277Y-12518388D02*
X6948753Y-12480293D01*
X6948753Y-12480293D02*
X6948753Y-12432674D01*
X6948753Y-12432674D02*
X6958277Y-12394579D01*
X6958277Y-12394579D02*
X6967801Y-12375531D01*
X6967801Y-12375531D02*
X6977324Y-12366008D01*
X6977324Y-12366008D02*
X6996372Y-12356484D01*
X7148753Y-12537436D02*
X7158277Y-12546960D01*
X7158277Y-12546960D02*
X7148753Y-12556484D01*
X7148753Y-12556484D02*
X7139229Y-12546960D01*
X7139229Y-12546960D02*
X7148753Y-12537436D01*
X7148753Y-12537436D02*
X7148753Y-12556484D01*
X7224943Y-12356484D02*
X7348753Y-12356484D01*
X7348753Y-12356484D02*
X7282086Y-12432674D01*
X7282086Y-12432674D02*
X7310658Y-12432674D01*
X7310658Y-12432674D02*
X7329705Y-12442198D01*
X7329705Y-12442198D02*
X7339229Y-12451722D01*
X7339229Y-12451722D02*
X7348753Y-12470769D01*
X7348753Y-12470769D02*
X7348753Y-12518388D01*
X7348753Y-12518388D02*
X7339229Y-12537436D01*
X7339229Y-12537436D02*
X7329705Y-12546960D01*
X7329705Y-12546960D02*
X7310658Y-12556484D01*
X7310658Y-12556484D02*
X7253515Y-12556484D01*
X7253515Y-12556484D02*
X7234467Y-12546960D01*
X7234467Y-12546960D02*
X7224943Y-12537436D01*
X7472562Y-12356484D02*
X7491610Y-12356484D01*
X7491610Y-12356484D02*
X7510658Y-12366008D01*
X7510658Y-12366008D02*
X7520182Y-12375531D01*
X7520182Y-12375531D02*
X7529705Y-12394579D01*
X7529705Y-12394579D02*
X7539229Y-12432674D01*
X7539229Y-12432674D02*
X7539229Y-12480293D01*
X7539229Y-12480293D02*
X7529705Y-12518388D01*
X7529705Y-12518388D02*
X7520182Y-12537436D01*
X7520182Y-12537436D02*
X7510658Y-12546960D01*
X7510658Y-12546960D02*
X7491610Y-12556484D01*
X7491610Y-12556484D02*
X7472562Y-12556484D01*
X7472562Y-12556484D02*
X7453515Y-12546960D01*
X7453515Y-12546960D02*
X7443991Y-12537436D01*
X7443991Y-12537436D02*
X7434467Y-12518388D01*
X7434467Y-12518388D02*
X7424943Y-12480293D01*
X7424943Y-12480293D02*
X7424943Y-12432674D01*
X7424943Y-12432674D02*
X7434467Y-12394579D01*
X7434467Y-12394579D02*
X7443991Y-12375531D01*
X7443991Y-12375531D02*
X7453515Y-12366008D01*
X7453515Y-12366008D02*
X7472562Y-12356484D01*
X7663039Y-12356484D02*
X7682086Y-12356484D01*
X7682086Y-12356484D02*
X7701134Y-12366008D01*
X7701134Y-12366008D02*
X7710658Y-12375531D01*
X7710658Y-12375531D02*
X7720182Y-12394579D01*
X7720182Y-12394579D02*
X7729705Y-12432674D01*
X7729705Y-12432674D02*
X7729705Y-12480293D01*
X7729705Y-12480293D02*
X7720182Y-12518388D01*
X7720182Y-12518388D02*
X7710658Y-12537436D01*
X7710658Y-12537436D02*
X7701134Y-12546960D01*
X7701134Y-12546960D02*
X7682086Y-12556484D01*
X7682086Y-12556484D02*
X7663039Y-12556484D01*
X7663039Y-12556484D02*
X7643991Y-12546960D01*
X7643991Y-12546960D02*
X7634467Y-12537436D01*
X7634467Y-12537436D02*
X7624943Y-12518388D01*
X7624943Y-12518388D02*
X7615420Y-12480293D01*
X7615420Y-12480293D02*
X7615420Y-12432674D01*
X7615420Y-12432674D02*
X7624943Y-12394579D01*
X7624943Y-12394579D02*
X7634467Y-12375531D01*
X7634467Y-12375531D02*
X7643991Y-12366008D01*
X7643991Y-12366008D02*
X7663039Y-12356484D01*
X7815420Y-12556484D02*
X7815420Y-12423150D01*
X7815420Y-12442198D02*
X7824943Y-12432674D01*
X7824943Y-12432674D02*
X7843991Y-12423150D01*
X7843991Y-12423150D02*
X7872563Y-12423150D01*
X7872563Y-12423150D02*
X7891610Y-12432674D01*
X7891610Y-12432674D02*
X7901134Y-12451722D01*
X7901134Y-12451722D02*
X7901134Y-12556484D01*
X7901134Y-12451722D02*
X7910658Y-12432674D01*
X7910658Y-12432674D02*
X7929705Y-12423150D01*
X7929705Y-12423150D02*
X7958277Y-12423150D01*
X7958277Y-12423150D02*
X7977324Y-12432674D01*
X7977324Y-12432674D02*
X7986848Y-12451722D01*
X7986848Y-12451722D02*
X7986848Y-12556484D01*
X8082086Y-12556484D02*
X8082086Y-12423150D01*
X8082086Y-12442198D02*
X8091610Y-12432674D01*
X8091610Y-12432674D02*
X8110658Y-12423150D01*
X8110658Y-12423150D02*
X8139229Y-12423150D01*
X8139229Y-12423150D02*
X8158277Y-12432674D01*
X8158277Y-12432674D02*
X8167801Y-12451722D01*
X8167801Y-12451722D02*
X8167801Y-12556484D01*
X8167801Y-12451722D02*
X8177324Y-12432674D01*
X8177324Y-12432674D02*
X8196372Y-12423150D01*
X8196372Y-12423150D02*
X8224943Y-12423150D01*
X8224943Y-12423150D02*
X8243991Y-12432674D01*
X8243991Y-12432674D02*
X8253515Y-12451722D01*
X8253515Y-12451722D02*
X8253515Y-12556484D01*
X8643991Y-12346960D02*
X8472563Y-12604103D01*
X8901134Y-12356484D02*
X8920182Y-12356484D01*
X8920182Y-12356484D02*
X8939229Y-12366008D01*
X8939229Y-12366008D02*
X8948753Y-12375531D01*
X8948753Y-12375531D02*
X8958277Y-12394579D01*
X8958277Y-12394579D02*
X8967801Y-12432674D01*
X8967801Y-12432674D02*
X8967801Y-12480293D01*
X8967801Y-12480293D02*
X8958277Y-12518388D01*
X8958277Y-12518388D02*
X8948753Y-12537436D01*
X8948753Y-12537436D02*
X8939229Y-12546960D01*
X8939229Y-12546960D02*
X8920182Y-12556484D01*
X8920182Y-12556484D02*
X8901134Y-12556484D01*
X8901134Y-12556484D02*
X8882087Y-12546960D01*
X8882087Y-12546960D02*
X8872563Y-12537436D01*
X8872563Y-12537436D02*
X8863039Y-12518388D01*
X8863039Y-12518388D02*
X8853515Y-12480293D01*
X8853515Y-12480293D02*
X8853515Y-12432674D01*
X8853515Y-12432674D02*
X8863039Y-12394579D01*
X8863039Y-12394579D02*
X8872563Y-12375531D01*
X8872563Y-12375531D02*
X8882087Y-12366008D01*
X8882087Y-12366008D02*
X8901134Y-12356484D01*
X9053515Y-12537436D02*
X9063039Y-12546960D01*
X9063039Y-12546960D02*
X9053515Y-12556484D01*
X9053515Y-12556484D02*
X9043991Y-12546960D01*
X9043991Y-12546960D02*
X9053515Y-12537436D01*
X9053515Y-12537436D02*
X9053515Y-12556484D01*
X9186848Y-12356484D02*
X9205896Y-12356484D01*
X9205896Y-12356484D02*
X9224944Y-12366008D01*
X9224944Y-12366008D02*
X9234468Y-12375531D01*
X9234468Y-12375531D02*
X9243991Y-12394579D01*
X9243991Y-12394579D02*
X9253515Y-12432674D01*
X9253515Y-12432674D02*
X9253515Y-12480293D01*
X9253515Y-12480293D02*
X9243991Y-12518388D01*
X9243991Y-12518388D02*
X9234468Y-12537436D01*
X9234468Y-12537436D02*
X9224944Y-12546960D01*
X9224944Y-12546960D02*
X9205896Y-12556484D01*
X9205896Y-12556484D02*
X9186848Y-12556484D01*
X9186848Y-12556484D02*
X9167801Y-12546960D01*
X9167801Y-12546960D02*
X9158277Y-12537436D01*
X9158277Y-12537436D02*
X9148753Y-12518388D01*
X9148753Y-12518388D02*
X9139229Y-12480293D01*
X9139229Y-12480293D02*
X9139229Y-12432674D01*
X9139229Y-12432674D02*
X9148753Y-12394579D01*
X9148753Y-12394579D02*
X9158277Y-12375531D01*
X9158277Y-12375531D02*
X9167801Y-12366008D01*
X9167801Y-12366008D02*
X9186848Y-12356484D01*
X9443991Y-12556484D02*
X9329706Y-12556484D01*
X9386848Y-12556484D02*
X9386848Y-12356484D01*
X9386848Y-12356484D02*
X9367801Y-12385055D01*
X9367801Y-12385055D02*
X9348753Y-12404103D01*
X9348753Y-12404103D02*
X9329706Y-12413627D01*
X9634468Y-12556484D02*
X9520182Y-12556484D01*
X9577325Y-12556484D02*
X9577325Y-12356484D01*
X9577325Y-12356484D02*
X9558277Y-12385055D01*
X9558277Y-12385055D02*
X9539229Y-12404103D01*
X9539229Y-12404103D02*
X9520182Y-12413627D01*
X9748753Y-12442198D02*
X9729706Y-12432674D01*
X9729706Y-12432674D02*
X9720182Y-12423150D01*
X9720182Y-12423150D02*
X9710658Y-12404103D01*
X9710658Y-12404103D02*
X9710658Y-12394579D01*
X9710658Y-12394579D02*
X9720182Y-12375531D01*
X9720182Y-12375531D02*
X9729706Y-12366008D01*
X9729706Y-12366008D02*
X9748753Y-12356484D01*
X9748753Y-12356484D02*
X9786849Y-12356484D01*
X9786849Y-12356484D02*
X9805896Y-12366008D01*
X9805896Y-12366008D02*
X9815420Y-12375531D01*
X9815420Y-12375531D02*
X9824944Y-12394579D01*
X9824944Y-12394579D02*
X9824944Y-12404103D01*
X9824944Y-12404103D02*
X9815420Y-12423150D01*
X9815420Y-12423150D02*
X9805896Y-12432674D01*
X9805896Y-12432674D02*
X9786849Y-12442198D01*
X9786849Y-12442198D02*
X9748753Y-12442198D01*
X9748753Y-12442198D02*
X9729706Y-12451722D01*
X9729706Y-12451722D02*
X9720182Y-12461246D01*
X9720182Y-12461246D02*
X9710658Y-12480293D01*
X9710658Y-12480293D02*
X9710658Y-12518388D01*
X9710658Y-12518388D02*
X9720182Y-12537436D01*
X9720182Y-12537436D02*
X9729706Y-12546960D01*
X9729706Y-12546960D02*
X9748753Y-12556484D01*
X9748753Y-12556484D02*
X9786849Y-12556484D01*
X9786849Y-12556484D02*
X9805896Y-12546960D01*
X9805896Y-12546960D02*
X9815420Y-12537436D01*
X9815420Y-12537436D02*
X9824944Y-12518388D01*
X9824944Y-12518388D02*
X9824944Y-12480293D01*
X9824944Y-12480293D02*
X9815420Y-12461246D01*
X9815420Y-12461246D02*
X9805896Y-12451722D01*
X9805896Y-12451722D02*
X9786849Y-12442198D01*
X9901134Y-12356484D02*
X9901134Y-12394579D01*
X9977325Y-12356484D02*
X9977325Y-12394579D01*
X10272563Y-12632674D02*
X10263039Y-12623150D01*
X10263039Y-12623150D02*
X10243991Y-12594579D01*
X10243991Y-12594579D02*
X10234468Y-12575531D01*
X10234468Y-12575531D02*
X10224944Y-12546960D01*
X10224944Y-12546960D02*
X10215420Y-12499341D01*
X10215420Y-12499341D02*
X10215420Y-12461246D01*
X10215420Y-12461246D02*
X10224944Y-12413627D01*
X10224944Y-12413627D02*
X10234468Y-12385055D01*
X10234468Y-12385055D02*
X10243991Y-12366008D01*
X10243991Y-12366008D02*
X10263039Y-12337436D01*
X10263039Y-12337436D02*
X10272563Y-12327912D01*
X10329706Y-12356484D02*
X10463039Y-12356484D01*
X10463039Y-12356484D02*
X10377325Y-12556484D01*
X10577325Y-12356484D02*
X10596372Y-12356484D01*
X10596372Y-12356484D02*
X10615420Y-12366008D01*
X10615420Y-12366008D02*
X10624944Y-12375531D01*
X10624944Y-12375531D02*
X10634468Y-12394579D01*
X10634468Y-12394579D02*
X10643991Y-12432674D01*
X10643991Y-12432674D02*
X10643991Y-12480293D01*
X10643991Y-12480293D02*
X10634468Y-12518388D01*
X10634468Y-12518388D02*
X10624944Y-12537436D01*
X10624944Y-12537436D02*
X10615420Y-12546960D01*
X10615420Y-12546960D02*
X10596372Y-12556484D01*
X10596372Y-12556484D02*
X10577325Y-12556484D01*
X10577325Y-12556484D02*
X10558277Y-12546960D01*
X10558277Y-12546960D02*
X10548753Y-12537436D01*
X10548753Y-12537436D02*
X10539230Y-12518388D01*
X10539230Y-12518388D02*
X10529706Y-12480293D01*
X10529706Y-12480293D02*
X10529706Y-12432674D01*
X10529706Y-12432674D02*
X10539230Y-12394579D01*
X10539230Y-12394579D02*
X10548753Y-12375531D01*
X10548753Y-12375531D02*
X10558277Y-12366008D01*
X10558277Y-12366008D02*
X10577325Y-12356484D01*
X10882087Y-12556484D02*
X10882087Y-12356484D01*
X10967801Y-12556484D02*
X10967801Y-12451722D01*
X10967801Y-12451722D02*
X10958277Y-12432674D01*
X10958277Y-12432674D02*
X10939230Y-12423150D01*
X10939230Y-12423150D02*
X10910658Y-12423150D01*
X10910658Y-12423150D02*
X10891611Y-12432674D01*
X10891611Y-12432674D02*
X10882087Y-12442198D01*
X11091611Y-12556484D02*
X11072563Y-12546960D01*
X11072563Y-12546960D02*
X11063039Y-12537436D01*
X11063039Y-12537436D02*
X11053515Y-12518388D01*
X11053515Y-12518388D02*
X11053515Y-12461246D01*
X11053515Y-12461246D02*
X11063039Y-12442198D01*
X11063039Y-12442198D02*
X11072563Y-12432674D01*
X11072563Y-12432674D02*
X11091611Y-12423150D01*
X11091611Y-12423150D02*
X11120182Y-12423150D01*
X11120182Y-12423150D02*
X11139230Y-12432674D01*
X11139230Y-12432674D02*
X11148753Y-12442198D01*
X11148753Y-12442198D02*
X11158277Y-12461246D01*
X11158277Y-12461246D02*
X11158277Y-12518388D01*
X11158277Y-12518388D02*
X11148753Y-12537436D01*
X11148753Y-12537436D02*
X11139230Y-12546960D01*
X11139230Y-12546960D02*
X11120182Y-12556484D01*
X11120182Y-12556484D02*
X11091611Y-12556484D01*
X11272563Y-12556484D02*
X11253515Y-12546960D01*
X11253515Y-12546960D02*
X11243991Y-12527912D01*
X11243991Y-12527912D02*
X11243991Y-12356484D01*
X11424944Y-12546960D02*
X11405896Y-12556484D01*
X11405896Y-12556484D02*
X11367801Y-12556484D01*
X11367801Y-12556484D02*
X11348753Y-12546960D01*
X11348753Y-12546960D02*
X11339230Y-12527912D01*
X11339230Y-12527912D02*
X11339230Y-12451722D01*
X11339230Y-12451722D02*
X11348753Y-12432674D01*
X11348753Y-12432674D02*
X11367801Y-12423150D01*
X11367801Y-12423150D02*
X11405896Y-12423150D01*
X11405896Y-12423150D02*
X11424944Y-12432674D01*
X11424944Y-12432674D02*
X11434468Y-12451722D01*
X11434468Y-12451722D02*
X11434468Y-12470769D01*
X11434468Y-12470769D02*
X11339230Y-12489817D01*
X11510658Y-12546960D02*
X11529706Y-12556484D01*
X11529706Y-12556484D02*
X11567801Y-12556484D01*
X11567801Y-12556484D02*
X11586849Y-12546960D01*
X11586849Y-12546960D02*
X11596372Y-12527912D01*
X11596372Y-12527912D02*
X11596372Y-12518388D01*
X11596372Y-12518388D02*
X11586849Y-12499341D01*
X11586849Y-12499341D02*
X11567801Y-12489817D01*
X11567801Y-12489817D02*
X11539230Y-12489817D01*
X11539230Y-12489817D02*
X11520182Y-12480293D01*
X11520182Y-12480293D02*
X11510658Y-12461246D01*
X11510658Y-12461246D02*
X11510658Y-12451722D01*
X11510658Y-12451722D02*
X11520182Y-12432674D01*
X11520182Y-12432674D02*
X11539230Y-12423150D01*
X11539230Y-12423150D02*
X11567801Y-12423150D01*
X11567801Y-12423150D02*
X11586849Y-12432674D01*
X11663039Y-12632674D02*
X11672563Y-12623150D01*
X11672563Y-12623150D02*
X11691611Y-12594579D01*
X11691611Y-12594579D02*
X11701134Y-12575531D01*
X11701134Y-12575531D02*
X11710658Y-12546960D01*
X11710658Y-12546960D02*
X11720182Y-12499341D01*
X11720182Y-12499341D02*
X11720182Y-12461246D01*
X11720182Y-12461246D02*
X11710658Y-12413627D01*
X11710658Y-12413627D02*
X11701134Y-12385055D01*
X11701134Y-12385055D02*
X11691611Y-12366008D01*
X11691611Y-12366008D02*
X11672563Y-12337436D01*
X11672563Y-12337436D02*
X11663039Y-12327912D01*
D10*
X6697500Y-12729000D02*
G75*
G02*
X6617500Y-12729000I-40000J0D01*
G01*
X6617500Y-12729000D02*
G75*
G02*
X6697500Y-12729000I40000J0D01*
G01*
D11*
X6996372Y-12620484D02*
X7015420Y-12620484D01*
X7015420Y-12620484D02*
X7034467Y-12630008D01*
X7034467Y-12630008D02*
X7043991Y-12639531D01*
X7043991Y-12639531D02*
X7053515Y-12658579D01*
X7053515Y-12658579D02*
X7063039Y-12696674D01*
X7063039Y-12696674D02*
X7063039Y-12744293D01*
X7063039Y-12744293D02*
X7053515Y-12782388D01*
X7053515Y-12782388D02*
X7043991Y-12801436D01*
X7043991Y-12801436D02*
X7034467Y-12810960D01*
X7034467Y-12810960D02*
X7015420Y-12820484D01*
X7015420Y-12820484D02*
X6996372Y-12820484D01*
X6996372Y-12820484D02*
X6977324Y-12810960D01*
X6977324Y-12810960D02*
X6967801Y-12801436D01*
X6967801Y-12801436D02*
X6958277Y-12782388D01*
X6958277Y-12782388D02*
X6948753Y-12744293D01*
X6948753Y-12744293D02*
X6948753Y-12696674D01*
X6948753Y-12696674D02*
X6958277Y-12658579D01*
X6958277Y-12658579D02*
X6967801Y-12639531D01*
X6967801Y-12639531D02*
X6977324Y-12630008D01*
X6977324Y-12630008D02*
X6996372Y-12620484D01*
X7148753Y-12801436D02*
X7158277Y-12810960D01*
X7158277Y-12810960D02*
X7148753Y-12820484D01*
X7148753Y-12820484D02*
X7139229Y-12810960D01*
X7139229Y-12810960D02*
X7148753Y-12801436D01*
X7148753Y-12801436D02*
X7148753Y-12820484D01*
X7272562Y-12706198D02*
X7253515Y-12696674D01*
X7253515Y-12696674D02*
X7243991Y-12687150D01*
X7243991Y-12687150D02*
X7234467Y-12668103D01*
X7234467Y-12668103D02*
X7234467Y-12658579D01*
X7234467Y-12658579D02*
X7243991Y-12639531D01*
X7243991Y-12639531D02*
X7253515Y-12630008D01*
X7253515Y-12630008D02*
X7272562Y-12620484D01*
X7272562Y-12620484D02*
X7310658Y-12620484D01*
X7310658Y-12620484D02*
X7329705Y-12630008D01*
X7329705Y-12630008D02*
X7339229Y-12639531D01*
X7339229Y-12639531D02*
X7348753Y-12658579D01*
X7348753Y-12658579D02*
X7348753Y-12668103D01*
X7348753Y-12668103D02*
X7339229Y-12687150D01*
X7339229Y-12687150D02*
X7329705Y-12696674D01*
X7329705Y-12696674D02*
X7310658Y-12706198D01*
X7310658Y-12706198D02*
X7272562Y-12706198D01*
X7272562Y-12706198D02*
X7253515Y-12715722D01*
X7253515Y-12715722D02*
X7243991Y-12725246D01*
X7243991Y-12725246D02*
X7234467Y-12744293D01*
X7234467Y-12744293D02*
X7234467Y-12782388D01*
X7234467Y-12782388D02*
X7243991Y-12801436D01*
X7243991Y-12801436D02*
X7253515Y-12810960D01*
X7253515Y-12810960D02*
X7272562Y-12820484D01*
X7272562Y-12820484D02*
X7310658Y-12820484D01*
X7310658Y-12820484D02*
X7329705Y-12810960D01*
X7329705Y-12810960D02*
X7339229Y-12801436D01*
X7339229Y-12801436D02*
X7348753Y-12782388D01*
X7348753Y-12782388D02*
X7348753Y-12744293D01*
X7348753Y-12744293D02*
X7339229Y-12725246D01*
X7339229Y-12725246D02*
X7329705Y-12715722D01*
X7329705Y-12715722D02*
X7310658Y-12706198D01*
X7472562Y-12620484D02*
X7491610Y-12620484D01*
X7491610Y-12620484D02*
X7510658Y-12630008D01*
X7510658Y-12630008D02*
X7520182Y-12639531D01*
X7520182Y-12639531D02*
X7529705Y-12658579D01*
X7529705Y-12658579D02*
X7539229Y-12696674D01*
X7539229Y-12696674D02*
X7539229Y-12744293D01*
X7539229Y-12744293D02*
X7529705Y-12782388D01*
X7529705Y-12782388D02*
X7520182Y-12801436D01*
X7520182Y-12801436D02*
X7510658Y-12810960D01*
X7510658Y-12810960D02*
X7491610Y-12820484D01*
X7491610Y-12820484D02*
X7472562Y-12820484D01*
X7472562Y-12820484D02*
X7453515Y-12810960D01*
X7453515Y-12810960D02*
X7443991Y-12801436D01*
X7443991Y-12801436D02*
X7434467Y-12782388D01*
X7434467Y-12782388D02*
X7424943Y-12744293D01*
X7424943Y-12744293D02*
X7424943Y-12696674D01*
X7424943Y-12696674D02*
X7434467Y-12658579D01*
X7434467Y-12658579D02*
X7443991Y-12639531D01*
X7443991Y-12639531D02*
X7453515Y-12630008D01*
X7453515Y-12630008D02*
X7472562Y-12620484D01*
X7663039Y-12620484D02*
X7682086Y-12620484D01*
X7682086Y-12620484D02*
X7701134Y-12630008D01*
X7701134Y-12630008D02*
X7710658Y-12639531D01*
X7710658Y-12639531D02*
X7720182Y-12658579D01*
X7720182Y-12658579D02*
X7729705Y-12696674D01*
X7729705Y-12696674D02*
X7729705Y-12744293D01*
X7729705Y-12744293D02*
X7720182Y-12782388D01*
X7720182Y-12782388D02*
X7710658Y-12801436D01*
X7710658Y-12801436D02*
X7701134Y-12810960D01*
X7701134Y-12810960D02*
X7682086Y-12820484D01*
X7682086Y-12820484D02*
X7663039Y-12820484D01*
X7663039Y-12820484D02*
X7643991Y-12810960D01*
X7643991Y-12810960D02*
X7634467Y-12801436D01*
X7634467Y-12801436D02*
X7624943Y-12782388D01*
X7624943Y-12782388D02*
X7615420Y-12744293D01*
X7615420Y-12744293D02*
X7615420Y-12696674D01*
X7615420Y-12696674D02*
X7624943Y-12658579D01*
X7624943Y-12658579D02*
X7634467Y-12639531D01*
X7634467Y-12639531D02*
X7643991Y-12630008D01*
X7643991Y-12630008D02*
X7663039Y-12620484D01*
X7815420Y-12820484D02*
X7815420Y-12687150D01*
X7815420Y-12706198D02*
X7824943Y-12696674D01*
X7824943Y-12696674D02*
X7843991Y-12687150D01*
X7843991Y-12687150D02*
X7872563Y-12687150D01*
X7872563Y-12687150D02*
X7891610Y-12696674D01*
X7891610Y-12696674D02*
X7901134Y-12715722D01*
X7901134Y-12715722D02*
X7901134Y-12820484D01*
X7901134Y-12715722D02*
X7910658Y-12696674D01*
X7910658Y-12696674D02*
X7929705Y-12687150D01*
X7929705Y-12687150D02*
X7958277Y-12687150D01*
X7958277Y-12687150D02*
X7977324Y-12696674D01*
X7977324Y-12696674D02*
X7986848Y-12715722D01*
X7986848Y-12715722D02*
X7986848Y-12820484D01*
X8082086Y-12820484D02*
X8082086Y-12687150D01*
X8082086Y-12706198D02*
X8091610Y-12696674D01*
X8091610Y-12696674D02*
X8110658Y-12687150D01*
X8110658Y-12687150D02*
X8139229Y-12687150D01*
X8139229Y-12687150D02*
X8158277Y-12696674D01*
X8158277Y-12696674D02*
X8167801Y-12715722D01*
X8167801Y-12715722D02*
X8167801Y-12820484D01*
X8167801Y-12715722D02*
X8177324Y-12696674D01*
X8177324Y-12696674D02*
X8196372Y-12687150D01*
X8196372Y-12687150D02*
X8224943Y-12687150D01*
X8224943Y-12687150D02*
X8243991Y-12696674D01*
X8243991Y-12696674D02*
X8253515Y-12715722D01*
X8253515Y-12715722D02*
X8253515Y-12820484D01*
X8643991Y-12610960D02*
X8472563Y-12868103D01*
X8901134Y-12620484D02*
X8920182Y-12620484D01*
X8920182Y-12620484D02*
X8939229Y-12630008D01*
X8939229Y-12630008D02*
X8948753Y-12639531D01*
X8948753Y-12639531D02*
X8958277Y-12658579D01*
X8958277Y-12658579D02*
X8967801Y-12696674D01*
X8967801Y-12696674D02*
X8967801Y-12744293D01*
X8967801Y-12744293D02*
X8958277Y-12782388D01*
X8958277Y-12782388D02*
X8948753Y-12801436D01*
X8948753Y-12801436D02*
X8939229Y-12810960D01*
X8939229Y-12810960D02*
X8920182Y-12820484D01*
X8920182Y-12820484D02*
X8901134Y-12820484D01*
X8901134Y-12820484D02*
X8882087Y-12810960D01*
X8882087Y-12810960D02*
X8872563Y-12801436D01*
X8872563Y-12801436D02*
X8863039Y-12782388D01*
X8863039Y-12782388D02*
X8853515Y-12744293D01*
X8853515Y-12744293D02*
X8853515Y-12696674D01*
X8853515Y-12696674D02*
X8863039Y-12658579D01*
X8863039Y-12658579D02*
X8872563Y-12639531D01*
X8872563Y-12639531D02*
X8882087Y-12630008D01*
X8882087Y-12630008D02*
X8901134Y-12620484D01*
X9053515Y-12801436D02*
X9063039Y-12810960D01*
X9063039Y-12810960D02*
X9053515Y-12820484D01*
X9053515Y-12820484D02*
X9043991Y-12810960D01*
X9043991Y-12810960D02*
X9053515Y-12801436D01*
X9053515Y-12801436D02*
X9053515Y-12820484D01*
X9186848Y-12620484D02*
X9205896Y-12620484D01*
X9205896Y-12620484D02*
X9224944Y-12630008D01*
X9224944Y-12630008D02*
X9234468Y-12639531D01*
X9234468Y-12639531D02*
X9243991Y-12658579D01*
X9243991Y-12658579D02*
X9253515Y-12696674D01*
X9253515Y-12696674D02*
X9253515Y-12744293D01*
X9253515Y-12744293D02*
X9243991Y-12782388D01*
X9243991Y-12782388D02*
X9234468Y-12801436D01*
X9234468Y-12801436D02*
X9224944Y-12810960D01*
X9224944Y-12810960D02*
X9205896Y-12820484D01*
X9205896Y-12820484D02*
X9186848Y-12820484D01*
X9186848Y-12820484D02*
X9167801Y-12810960D01*
X9167801Y-12810960D02*
X9158277Y-12801436D01*
X9158277Y-12801436D02*
X9148753Y-12782388D01*
X9148753Y-12782388D02*
X9139229Y-12744293D01*
X9139229Y-12744293D02*
X9139229Y-12696674D01*
X9139229Y-12696674D02*
X9148753Y-12658579D01*
X9148753Y-12658579D02*
X9158277Y-12639531D01*
X9158277Y-12639531D02*
X9167801Y-12630008D01*
X9167801Y-12630008D02*
X9186848Y-12620484D01*
X9320182Y-12620484D02*
X9443991Y-12620484D01*
X9443991Y-12620484D02*
X9377325Y-12696674D01*
X9377325Y-12696674D02*
X9405896Y-12696674D01*
X9405896Y-12696674D02*
X9424944Y-12706198D01*
X9424944Y-12706198D02*
X9434468Y-12715722D01*
X9434468Y-12715722D02*
X9443991Y-12734769D01*
X9443991Y-12734769D02*
X9443991Y-12782388D01*
X9443991Y-12782388D02*
X9434468Y-12801436D01*
X9434468Y-12801436D02*
X9424944Y-12810960D01*
X9424944Y-12810960D02*
X9405896Y-12820484D01*
X9405896Y-12820484D02*
X9348753Y-12820484D01*
X9348753Y-12820484D02*
X9329706Y-12810960D01*
X9329706Y-12810960D02*
X9320182Y-12801436D01*
X9634468Y-12820484D02*
X9520182Y-12820484D01*
X9577325Y-12820484D02*
X9577325Y-12620484D01*
X9577325Y-12620484D02*
X9558277Y-12649055D01*
X9558277Y-12649055D02*
X9539229Y-12668103D01*
X9539229Y-12668103D02*
X9520182Y-12677627D01*
X9815420Y-12620484D02*
X9720182Y-12620484D01*
X9720182Y-12620484D02*
X9710658Y-12715722D01*
X9710658Y-12715722D02*
X9720182Y-12706198D01*
X9720182Y-12706198D02*
X9739229Y-12696674D01*
X9739229Y-12696674D02*
X9786849Y-12696674D01*
X9786849Y-12696674D02*
X9805896Y-12706198D01*
X9805896Y-12706198D02*
X9815420Y-12715722D01*
X9815420Y-12715722D02*
X9824944Y-12734769D01*
X9824944Y-12734769D02*
X9824944Y-12782388D01*
X9824944Y-12782388D02*
X9815420Y-12801436D01*
X9815420Y-12801436D02*
X9805896Y-12810960D01*
X9805896Y-12810960D02*
X9786849Y-12820484D01*
X9786849Y-12820484D02*
X9739229Y-12820484D01*
X9739229Y-12820484D02*
X9720182Y-12810960D01*
X9720182Y-12810960D02*
X9710658Y-12801436D01*
X9901134Y-12620484D02*
X9901134Y-12658579D01*
X9977325Y-12620484D02*
X9977325Y-12658579D01*
X10272563Y-12896674D02*
X10263039Y-12887150D01*
X10263039Y-12887150D02*
X10243991Y-12858579D01*
X10243991Y-12858579D02*
X10234468Y-12839531D01*
X10234468Y-12839531D02*
X10224944Y-12810960D01*
X10224944Y-12810960D02*
X10215420Y-12763341D01*
X10215420Y-12763341D02*
X10215420Y-12725246D01*
X10215420Y-12725246D02*
X10224944Y-12677627D01*
X10224944Y-12677627D02*
X10234468Y-12649055D01*
X10234468Y-12649055D02*
X10243991Y-12630008D01*
X10243991Y-12630008D02*
X10263039Y-12601436D01*
X10263039Y-12601436D02*
X10272563Y-12591912D01*
X10434468Y-12620484D02*
X10396372Y-12620484D01*
X10396372Y-12620484D02*
X10377325Y-12630008D01*
X10377325Y-12630008D02*
X10367801Y-12639531D01*
X10367801Y-12639531D02*
X10348753Y-12668103D01*
X10348753Y-12668103D02*
X10339230Y-12706198D01*
X10339230Y-12706198D02*
X10339230Y-12782388D01*
X10339230Y-12782388D02*
X10348753Y-12801436D01*
X10348753Y-12801436D02*
X10358277Y-12810960D01*
X10358277Y-12810960D02*
X10377325Y-12820484D01*
X10377325Y-12820484D02*
X10415420Y-12820484D01*
X10415420Y-12820484D02*
X10434468Y-12810960D01*
X10434468Y-12810960D02*
X10443991Y-12801436D01*
X10443991Y-12801436D02*
X10453515Y-12782388D01*
X10453515Y-12782388D02*
X10453515Y-12734769D01*
X10453515Y-12734769D02*
X10443991Y-12715722D01*
X10443991Y-12715722D02*
X10434468Y-12706198D01*
X10434468Y-12706198D02*
X10415420Y-12696674D01*
X10415420Y-12696674D02*
X10377325Y-12696674D01*
X10377325Y-12696674D02*
X10358277Y-12706198D01*
X10358277Y-12706198D02*
X10348753Y-12715722D01*
X10348753Y-12715722D02*
X10339230Y-12734769D01*
X10529706Y-12639531D02*
X10539230Y-12630008D01*
X10539230Y-12630008D02*
X10558277Y-12620484D01*
X10558277Y-12620484D02*
X10605896Y-12620484D01*
X10605896Y-12620484D02*
X10624944Y-12630008D01*
X10624944Y-12630008D02*
X10634468Y-12639531D01*
X10634468Y-12639531D02*
X10643991Y-12658579D01*
X10643991Y-12658579D02*
X10643991Y-12677627D01*
X10643991Y-12677627D02*
X10634468Y-12706198D01*
X10634468Y-12706198D02*
X10520182Y-12820484D01*
X10520182Y-12820484D02*
X10643991Y-12820484D01*
X10882087Y-12820484D02*
X10882087Y-12620484D01*
X10967801Y-12820484D02*
X10967801Y-12715722D01*
X10967801Y-12715722D02*
X10958277Y-12696674D01*
X10958277Y-12696674D02*
X10939230Y-12687150D01*
X10939230Y-12687150D02*
X10910658Y-12687150D01*
X10910658Y-12687150D02*
X10891611Y-12696674D01*
X10891611Y-12696674D02*
X10882087Y-12706198D01*
X11091611Y-12820484D02*
X11072563Y-12810960D01*
X11072563Y-12810960D02*
X11063039Y-12801436D01*
X11063039Y-12801436D02*
X11053515Y-12782388D01*
X11053515Y-12782388D02*
X11053515Y-12725246D01*
X11053515Y-12725246D02*
X11063039Y-12706198D01*
X11063039Y-12706198D02*
X11072563Y-12696674D01*
X11072563Y-12696674D02*
X11091611Y-12687150D01*
X11091611Y-12687150D02*
X11120182Y-12687150D01*
X11120182Y-12687150D02*
X11139230Y-12696674D01*
X11139230Y-12696674D02*
X11148753Y-12706198D01*
X11148753Y-12706198D02*
X11158277Y-12725246D01*
X11158277Y-12725246D02*
X11158277Y-12782388D01*
X11158277Y-12782388D02*
X11148753Y-12801436D01*
X11148753Y-12801436D02*
X11139230Y-12810960D01*
X11139230Y-12810960D02*
X11120182Y-12820484D01*
X11120182Y-12820484D02*
X11091611Y-12820484D01*
X11272563Y-12820484D02*
X11253515Y-12810960D01*
X11253515Y-12810960D02*
X11243991Y-12791912D01*
X11243991Y-12791912D02*
X11243991Y-12620484D01*
X11424944Y-12810960D02*
X11405896Y-12820484D01*
X11405896Y-12820484D02*
X11367801Y-12820484D01*
X11367801Y-12820484D02*
X11348753Y-12810960D01*
X11348753Y-12810960D02*
X11339230Y-12791912D01*
X11339230Y-12791912D02*
X11339230Y-12715722D01*
X11339230Y-12715722D02*
X11348753Y-12696674D01*
X11348753Y-12696674D02*
X11367801Y-12687150D01*
X11367801Y-12687150D02*
X11405896Y-12687150D01*
X11405896Y-12687150D02*
X11424944Y-12696674D01*
X11424944Y-12696674D02*
X11434468Y-12715722D01*
X11434468Y-12715722D02*
X11434468Y-12734769D01*
X11434468Y-12734769D02*
X11339230Y-12753817D01*
X11510658Y-12810960D02*
X11529706Y-12820484D01*
X11529706Y-12820484D02*
X11567801Y-12820484D01*
X11567801Y-12820484D02*
X11586849Y-12810960D01*
X11586849Y-12810960D02*
X11596372Y-12791912D01*
X11596372Y-12791912D02*
X11596372Y-12782388D01*
X11596372Y-12782388D02*
X11586849Y-12763341D01*
X11586849Y-12763341D02*
X11567801Y-12753817D01*
X11567801Y-12753817D02*
X11539230Y-12753817D01*
X11539230Y-12753817D02*
X11520182Y-12744293D01*
X11520182Y-12744293D02*
X11510658Y-12725246D01*
X11510658Y-12725246D02*
X11510658Y-12715722D01*
X11510658Y-12715722D02*
X11520182Y-12696674D01*
X11520182Y-12696674D02*
X11539230Y-12687150D01*
X11539230Y-12687150D02*
X11567801Y-12687150D01*
X11567801Y-12687150D02*
X11586849Y-12696674D01*
X11663039Y-12896674D02*
X11672563Y-12887150D01*
X11672563Y-12887150D02*
X11691611Y-12858579D01*
X11691611Y-12858579D02*
X11701134Y-12839531D01*
X11701134Y-12839531D02*
X11710658Y-12810960D01*
X11710658Y-12810960D02*
X11720182Y-12763341D01*
X11720182Y-12763341D02*
X11720182Y-12725246D01*
X11720182Y-12725246D02*
X11710658Y-12677627D01*
X11710658Y-12677627D02*
X11701134Y-12649055D01*
X11701134Y-12649055D02*
X11691611Y-12630008D01*
X11691611Y-12630008D02*
X11672563Y-12601436D01*
X11672563Y-12601436D02*
X11663039Y-12591912D01*
D10*
X6652500Y-12948000D02*
X6652500Y-13038000D01*
X6607500Y-12993000D02*
X6697500Y-12993000D01*
D11*
X6996372Y-12884484D02*
X7015420Y-12884484D01*
X7015420Y-12884484D02*
X7034467Y-12894008D01*
X7034467Y-12894008D02*
X7043991Y-12903531D01*
X7043991Y-12903531D02*
X7053515Y-12922579D01*
X7053515Y-12922579D02*
X7063039Y-12960674D01*
X7063039Y-12960674D02*
X7063039Y-13008293D01*
X7063039Y-13008293D02*
X7053515Y-13046388D01*
X7053515Y-13046388D02*
X7043991Y-13065436D01*
X7043991Y-13065436D02*
X7034467Y-13074960D01*
X7034467Y-13074960D02*
X7015420Y-13084484D01*
X7015420Y-13084484D02*
X6996372Y-13084484D01*
X6996372Y-13084484D02*
X6977324Y-13074960D01*
X6977324Y-13074960D02*
X6967801Y-13065436D01*
X6967801Y-13065436D02*
X6958277Y-13046388D01*
X6958277Y-13046388D02*
X6948753Y-13008293D01*
X6948753Y-13008293D02*
X6948753Y-12960674D01*
X6948753Y-12960674D02*
X6958277Y-12922579D01*
X6958277Y-12922579D02*
X6967801Y-12903531D01*
X6967801Y-12903531D02*
X6977324Y-12894008D01*
X6977324Y-12894008D02*
X6996372Y-12884484D01*
X7148753Y-13065436D02*
X7158277Y-13074960D01*
X7158277Y-13074960D02*
X7148753Y-13084484D01*
X7148753Y-13084484D02*
X7139229Y-13074960D01*
X7139229Y-13074960D02*
X7148753Y-13065436D01*
X7148753Y-13065436D02*
X7148753Y-13084484D01*
X7253515Y-13084484D02*
X7291610Y-13084484D01*
X7291610Y-13084484D02*
X7310658Y-13074960D01*
X7310658Y-13074960D02*
X7320182Y-13065436D01*
X7320182Y-13065436D02*
X7339229Y-13036865D01*
X7339229Y-13036865D02*
X7348753Y-12998769D01*
X7348753Y-12998769D02*
X7348753Y-12922579D01*
X7348753Y-12922579D02*
X7339229Y-12903531D01*
X7339229Y-12903531D02*
X7329705Y-12894008D01*
X7329705Y-12894008D02*
X7310658Y-12884484D01*
X7310658Y-12884484D02*
X7272562Y-12884484D01*
X7272562Y-12884484D02*
X7253515Y-12894008D01*
X7253515Y-12894008D02*
X7243991Y-12903531D01*
X7243991Y-12903531D02*
X7234467Y-12922579D01*
X7234467Y-12922579D02*
X7234467Y-12970198D01*
X7234467Y-12970198D02*
X7243991Y-12989246D01*
X7243991Y-12989246D02*
X7253515Y-12998769D01*
X7253515Y-12998769D02*
X7272562Y-13008293D01*
X7272562Y-13008293D02*
X7310658Y-13008293D01*
X7310658Y-13008293D02*
X7329705Y-12998769D01*
X7329705Y-12998769D02*
X7339229Y-12989246D01*
X7339229Y-12989246D02*
X7348753Y-12970198D01*
X7472562Y-12884484D02*
X7491610Y-12884484D01*
X7491610Y-12884484D02*
X7510658Y-12894008D01*
X7510658Y-12894008D02*
X7520182Y-12903531D01*
X7520182Y-12903531D02*
X7529705Y-12922579D01*
X7529705Y-12922579D02*
X7539229Y-12960674D01*
X7539229Y-12960674D02*
X7539229Y-13008293D01*
X7539229Y-13008293D02*
X7529705Y-13046388D01*
X7529705Y-13046388D02*
X7520182Y-13065436D01*
X7520182Y-13065436D02*
X7510658Y-13074960D01*
X7510658Y-13074960D02*
X7491610Y-13084484D01*
X7491610Y-13084484D02*
X7472562Y-13084484D01*
X7472562Y-13084484D02*
X7453515Y-13074960D01*
X7453515Y-13074960D02*
X7443991Y-13065436D01*
X7443991Y-13065436D02*
X7434467Y-13046388D01*
X7434467Y-13046388D02*
X7424943Y-13008293D01*
X7424943Y-13008293D02*
X7424943Y-12960674D01*
X7424943Y-12960674D02*
X7434467Y-12922579D01*
X7434467Y-12922579D02*
X7443991Y-12903531D01*
X7443991Y-12903531D02*
X7453515Y-12894008D01*
X7453515Y-12894008D02*
X7472562Y-12884484D01*
X7663039Y-12884484D02*
X7682086Y-12884484D01*
X7682086Y-12884484D02*
X7701134Y-12894008D01*
X7701134Y-12894008D02*
X7710658Y-12903531D01*
X7710658Y-12903531D02*
X7720182Y-12922579D01*
X7720182Y-12922579D02*
X7729705Y-12960674D01*
X7729705Y-12960674D02*
X7729705Y-13008293D01*
X7729705Y-13008293D02*
X7720182Y-13046388D01*
X7720182Y-13046388D02*
X7710658Y-13065436D01*
X7710658Y-13065436D02*
X7701134Y-13074960D01*
X7701134Y-13074960D02*
X7682086Y-13084484D01*
X7682086Y-13084484D02*
X7663039Y-13084484D01*
X7663039Y-13084484D02*
X7643991Y-13074960D01*
X7643991Y-13074960D02*
X7634467Y-13065436D01*
X7634467Y-13065436D02*
X7624943Y-13046388D01*
X7624943Y-13046388D02*
X7615420Y-13008293D01*
X7615420Y-13008293D02*
X7615420Y-12960674D01*
X7615420Y-12960674D02*
X7624943Y-12922579D01*
X7624943Y-12922579D02*
X7634467Y-12903531D01*
X7634467Y-12903531D02*
X7643991Y-12894008D01*
X7643991Y-12894008D02*
X7663039Y-12884484D01*
X7815420Y-13084484D02*
X7815420Y-12951150D01*
X7815420Y-12970198D02*
X7824943Y-12960674D01*
X7824943Y-12960674D02*
X7843991Y-12951150D01*
X7843991Y-12951150D02*
X7872563Y-12951150D01*
X7872563Y-12951150D02*
X7891610Y-12960674D01*
X7891610Y-12960674D02*
X7901134Y-12979722D01*
X7901134Y-12979722D02*
X7901134Y-13084484D01*
X7901134Y-12979722D02*
X7910658Y-12960674D01*
X7910658Y-12960674D02*
X7929705Y-12951150D01*
X7929705Y-12951150D02*
X7958277Y-12951150D01*
X7958277Y-12951150D02*
X7977324Y-12960674D01*
X7977324Y-12960674D02*
X7986848Y-12979722D01*
X7986848Y-12979722D02*
X7986848Y-13084484D01*
X8082086Y-13084484D02*
X8082086Y-12951150D01*
X8082086Y-12970198D02*
X8091610Y-12960674D01*
X8091610Y-12960674D02*
X8110658Y-12951150D01*
X8110658Y-12951150D02*
X8139229Y-12951150D01*
X8139229Y-12951150D02*
X8158277Y-12960674D01*
X8158277Y-12960674D02*
X8167801Y-12979722D01*
X8167801Y-12979722D02*
X8167801Y-13084484D01*
X8167801Y-12979722D02*
X8177324Y-12960674D01*
X8177324Y-12960674D02*
X8196372Y-12951150D01*
X8196372Y-12951150D02*
X8224943Y-12951150D01*
X8224943Y-12951150D02*
X8243991Y-12960674D01*
X8243991Y-12960674D02*
X8253515Y-12979722D01*
X8253515Y-12979722D02*
X8253515Y-13084484D01*
X8643991Y-12874960D02*
X8472563Y-13132103D01*
X8901134Y-12884484D02*
X8920182Y-12884484D01*
X8920182Y-12884484D02*
X8939229Y-12894008D01*
X8939229Y-12894008D02*
X8948753Y-12903531D01*
X8948753Y-12903531D02*
X8958277Y-12922579D01*
X8958277Y-12922579D02*
X8967801Y-12960674D01*
X8967801Y-12960674D02*
X8967801Y-13008293D01*
X8967801Y-13008293D02*
X8958277Y-13046388D01*
X8958277Y-13046388D02*
X8948753Y-13065436D01*
X8948753Y-13065436D02*
X8939229Y-13074960D01*
X8939229Y-13074960D02*
X8920182Y-13084484D01*
X8920182Y-13084484D02*
X8901134Y-13084484D01*
X8901134Y-13084484D02*
X8882087Y-13074960D01*
X8882087Y-13074960D02*
X8872563Y-13065436D01*
X8872563Y-13065436D02*
X8863039Y-13046388D01*
X8863039Y-13046388D02*
X8853515Y-13008293D01*
X8853515Y-13008293D02*
X8853515Y-12960674D01*
X8853515Y-12960674D02*
X8863039Y-12922579D01*
X8863039Y-12922579D02*
X8872563Y-12903531D01*
X8872563Y-12903531D02*
X8882087Y-12894008D01*
X8882087Y-12894008D02*
X8901134Y-12884484D01*
X9053515Y-13065436D02*
X9063039Y-13074960D01*
X9063039Y-13074960D02*
X9053515Y-13084484D01*
X9053515Y-13084484D02*
X9043991Y-13074960D01*
X9043991Y-13074960D02*
X9053515Y-13065436D01*
X9053515Y-13065436D02*
X9053515Y-13084484D01*
X9186848Y-12884484D02*
X9205896Y-12884484D01*
X9205896Y-12884484D02*
X9224944Y-12894008D01*
X9224944Y-12894008D02*
X9234468Y-12903531D01*
X9234468Y-12903531D02*
X9243991Y-12922579D01*
X9243991Y-12922579D02*
X9253515Y-12960674D01*
X9253515Y-12960674D02*
X9253515Y-13008293D01*
X9253515Y-13008293D02*
X9243991Y-13046388D01*
X9243991Y-13046388D02*
X9234468Y-13065436D01*
X9234468Y-13065436D02*
X9224944Y-13074960D01*
X9224944Y-13074960D02*
X9205896Y-13084484D01*
X9205896Y-13084484D02*
X9186848Y-13084484D01*
X9186848Y-13084484D02*
X9167801Y-13074960D01*
X9167801Y-13074960D02*
X9158277Y-13065436D01*
X9158277Y-13065436D02*
X9148753Y-13046388D01*
X9148753Y-13046388D02*
X9139229Y-13008293D01*
X9139229Y-13008293D02*
X9139229Y-12960674D01*
X9139229Y-12960674D02*
X9148753Y-12922579D01*
X9148753Y-12922579D02*
X9158277Y-12903531D01*
X9158277Y-12903531D02*
X9167801Y-12894008D01*
X9167801Y-12894008D02*
X9186848Y-12884484D01*
X9320182Y-12884484D02*
X9443991Y-12884484D01*
X9443991Y-12884484D02*
X9377325Y-12960674D01*
X9377325Y-12960674D02*
X9405896Y-12960674D01*
X9405896Y-12960674D02*
X9424944Y-12970198D01*
X9424944Y-12970198D02*
X9434468Y-12979722D01*
X9434468Y-12979722D02*
X9443991Y-12998769D01*
X9443991Y-12998769D02*
X9443991Y-13046388D01*
X9443991Y-13046388D02*
X9434468Y-13065436D01*
X9434468Y-13065436D02*
X9424944Y-13074960D01*
X9424944Y-13074960D02*
X9405896Y-13084484D01*
X9405896Y-13084484D02*
X9348753Y-13084484D01*
X9348753Y-13084484D02*
X9329706Y-13074960D01*
X9329706Y-13074960D02*
X9320182Y-13065436D01*
X9624944Y-12884484D02*
X9529706Y-12884484D01*
X9529706Y-12884484D02*
X9520182Y-12979722D01*
X9520182Y-12979722D02*
X9529706Y-12970198D01*
X9529706Y-12970198D02*
X9548753Y-12960674D01*
X9548753Y-12960674D02*
X9596372Y-12960674D01*
X9596372Y-12960674D02*
X9615420Y-12970198D01*
X9615420Y-12970198D02*
X9624944Y-12979722D01*
X9624944Y-12979722D02*
X9634468Y-12998769D01*
X9634468Y-12998769D02*
X9634468Y-13046388D01*
X9634468Y-13046388D02*
X9624944Y-13065436D01*
X9624944Y-13065436D02*
X9615420Y-13074960D01*
X9615420Y-13074960D02*
X9596372Y-13084484D01*
X9596372Y-13084484D02*
X9548753Y-13084484D01*
X9548753Y-13084484D02*
X9529706Y-13074960D01*
X9529706Y-13074960D02*
X9520182Y-13065436D01*
X9805896Y-12951150D02*
X9805896Y-13084484D01*
X9758277Y-12874960D02*
X9710658Y-13017817D01*
X9710658Y-13017817D02*
X9834468Y-13017817D01*
X9901134Y-12884484D02*
X9901134Y-12922579D01*
X9977325Y-12884484D02*
X9977325Y-12922579D01*
X10272563Y-13160674D02*
X10263039Y-13151150D01*
X10263039Y-13151150D02*
X10243991Y-13122579D01*
X10243991Y-13122579D02*
X10234468Y-13103531D01*
X10234468Y-13103531D02*
X10224944Y-13074960D01*
X10224944Y-13074960D02*
X10215420Y-13027341D01*
X10215420Y-13027341D02*
X10215420Y-12989246D01*
X10215420Y-12989246D02*
X10224944Y-12941627D01*
X10224944Y-12941627D02*
X10234468Y-12913055D01*
X10234468Y-12913055D02*
X10243991Y-12894008D01*
X10243991Y-12894008D02*
X10263039Y-12865436D01*
X10263039Y-12865436D02*
X10272563Y-12855912D01*
X10329706Y-12884484D02*
X10453515Y-12884484D01*
X10453515Y-12884484D02*
X10386849Y-12960674D01*
X10386849Y-12960674D02*
X10415420Y-12960674D01*
X10415420Y-12960674D02*
X10434468Y-12970198D01*
X10434468Y-12970198D02*
X10443991Y-12979722D01*
X10443991Y-12979722D02*
X10453515Y-12998769D01*
X10453515Y-12998769D02*
X10453515Y-13046388D01*
X10453515Y-13046388D02*
X10443991Y-13065436D01*
X10443991Y-13065436D02*
X10434468Y-13074960D01*
X10434468Y-13074960D02*
X10415420Y-13084484D01*
X10415420Y-13084484D02*
X10358277Y-13084484D01*
X10358277Y-13084484D02*
X10339230Y-13074960D01*
X10339230Y-13074960D02*
X10329706Y-13065436D01*
X10691611Y-13084484D02*
X10691611Y-12884484D01*
X10777325Y-13084484D02*
X10777325Y-12979722D01*
X10777325Y-12979722D02*
X10767801Y-12960674D01*
X10767801Y-12960674D02*
X10748753Y-12951150D01*
X10748753Y-12951150D02*
X10720182Y-12951150D01*
X10720182Y-12951150D02*
X10701134Y-12960674D01*
X10701134Y-12960674D02*
X10691611Y-12970198D01*
X10901134Y-13084484D02*
X10882087Y-13074960D01*
X10882087Y-13074960D02*
X10872563Y-13065436D01*
X10872563Y-13065436D02*
X10863039Y-13046388D01*
X10863039Y-13046388D02*
X10863039Y-12989246D01*
X10863039Y-12989246D02*
X10872563Y-12970198D01*
X10872563Y-12970198D02*
X10882087Y-12960674D01*
X10882087Y-12960674D02*
X10901134Y-12951150D01*
X10901134Y-12951150D02*
X10929706Y-12951150D01*
X10929706Y-12951150D02*
X10948753Y-12960674D01*
X10948753Y-12960674D02*
X10958277Y-12970198D01*
X10958277Y-12970198D02*
X10967801Y-12989246D01*
X10967801Y-12989246D02*
X10967801Y-13046388D01*
X10967801Y-13046388D02*
X10958277Y-13065436D01*
X10958277Y-13065436D02*
X10948753Y-13074960D01*
X10948753Y-13074960D02*
X10929706Y-13084484D01*
X10929706Y-13084484D02*
X10901134Y-13084484D01*
X11082087Y-13084484D02*
X11063039Y-13074960D01*
X11063039Y-13074960D02*
X11053515Y-13055912D01*
X11053515Y-13055912D02*
X11053515Y-12884484D01*
X11234468Y-13074960D02*
X11215420Y-13084484D01*
X11215420Y-13084484D02*
X11177325Y-13084484D01*
X11177325Y-13084484D02*
X11158277Y-13074960D01*
X11158277Y-13074960D02*
X11148753Y-13055912D01*
X11148753Y-13055912D02*
X11148753Y-12979722D01*
X11148753Y-12979722D02*
X11158277Y-12960674D01*
X11158277Y-12960674D02*
X11177325Y-12951150D01*
X11177325Y-12951150D02*
X11215420Y-12951150D01*
X11215420Y-12951150D02*
X11234468Y-12960674D01*
X11234468Y-12960674D02*
X11243991Y-12979722D01*
X11243991Y-12979722D02*
X11243991Y-12998769D01*
X11243991Y-12998769D02*
X11148753Y-13017817D01*
X11320182Y-13074960D02*
X11339230Y-13084484D01*
X11339230Y-13084484D02*
X11377325Y-13084484D01*
X11377325Y-13084484D02*
X11396372Y-13074960D01*
X11396372Y-13074960D02*
X11405896Y-13055912D01*
X11405896Y-13055912D02*
X11405896Y-13046388D01*
X11405896Y-13046388D02*
X11396372Y-13027341D01*
X11396372Y-13027341D02*
X11377325Y-13017817D01*
X11377325Y-13017817D02*
X11348753Y-13017817D01*
X11348753Y-13017817D02*
X11329706Y-13008293D01*
X11329706Y-13008293D02*
X11320182Y-12989246D01*
X11320182Y-12989246D02*
X11320182Y-12979722D01*
X11320182Y-12979722D02*
X11329706Y-12960674D01*
X11329706Y-12960674D02*
X11348753Y-12951150D01*
X11348753Y-12951150D02*
X11377325Y-12951150D01*
X11377325Y-12951150D02*
X11396372Y-12960674D01*
X11472563Y-13160674D02*
X11482087Y-13151150D01*
X11482087Y-13151150D02*
X11501134Y-13122579D01*
X11501134Y-13122579D02*
X11510658Y-13103531D01*
X11510658Y-13103531D02*
X11520182Y-13074960D01*
X11520182Y-13074960D02*
X11529706Y-13027341D01*
X11529706Y-13027341D02*
X11529706Y-12989246D01*
X11529706Y-12989246D02*
X11520182Y-12941627D01*
X11520182Y-12941627D02*
X11510658Y-12913055D01*
X11510658Y-12913055D02*
X11501134Y-12894008D01*
X11501134Y-12894008D02*
X11482087Y-12865436D01*
X11482087Y-12865436D02*
X11472563Y-12855912D01*
D10*
X6682856Y-13292356D02*
X6682856Y-13221644D01*
X6612144Y-13221644D01*
X6612144Y-13292356D01*
X6682856Y-13292356D01*
D11*
X7063039Y-13348484D02*
X6948753Y-13348484D01*
X7005896Y-13348484D02*
X7005896Y-13148484D01*
X7005896Y-13148484D02*
X6986848Y-13177055D01*
X6986848Y-13177055D02*
X6967801Y-13196103D01*
X6967801Y-13196103D02*
X6948753Y-13205627D01*
X7148753Y-13329436D02*
X7158277Y-13338960D01*
X7158277Y-13338960D02*
X7148753Y-13348484D01*
X7148753Y-13348484D02*
X7139229Y-13338960D01*
X7139229Y-13338960D02*
X7148753Y-13329436D01*
X7148753Y-13329436D02*
X7148753Y-13348484D01*
X7282086Y-13148484D02*
X7301134Y-13148484D01*
X7301134Y-13148484D02*
X7320182Y-13158008D01*
X7320182Y-13158008D02*
X7329705Y-13167531D01*
X7329705Y-13167531D02*
X7339229Y-13186579D01*
X7339229Y-13186579D02*
X7348753Y-13224674D01*
X7348753Y-13224674D02*
X7348753Y-13272293D01*
X7348753Y-13272293D02*
X7339229Y-13310388D01*
X7339229Y-13310388D02*
X7329705Y-13329436D01*
X7329705Y-13329436D02*
X7320182Y-13338960D01*
X7320182Y-13338960D02*
X7301134Y-13348484D01*
X7301134Y-13348484D02*
X7282086Y-13348484D01*
X7282086Y-13348484D02*
X7263039Y-13338960D01*
X7263039Y-13338960D02*
X7253515Y-13329436D01*
X7253515Y-13329436D02*
X7243991Y-13310388D01*
X7243991Y-13310388D02*
X7234467Y-13272293D01*
X7234467Y-13272293D02*
X7234467Y-13224674D01*
X7234467Y-13224674D02*
X7243991Y-13186579D01*
X7243991Y-13186579D02*
X7253515Y-13167531D01*
X7253515Y-13167531D02*
X7263039Y-13158008D01*
X7263039Y-13158008D02*
X7282086Y-13148484D01*
X7472562Y-13148484D02*
X7491610Y-13148484D01*
X7491610Y-13148484D02*
X7510658Y-13158008D01*
X7510658Y-13158008D02*
X7520182Y-13167531D01*
X7520182Y-13167531D02*
X7529705Y-13186579D01*
X7529705Y-13186579D02*
X7539229Y-13224674D01*
X7539229Y-13224674D02*
X7539229Y-13272293D01*
X7539229Y-13272293D02*
X7529705Y-13310388D01*
X7529705Y-13310388D02*
X7520182Y-13329436D01*
X7520182Y-13329436D02*
X7510658Y-13338960D01*
X7510658Y-13338960D02*
X7491610Y-13348484D01*
X7491610Y-13348484D02*
X7472562Y-13348484D01*
X7472562Y-13348484D02*
X7453515Y-13338960D01*
X7453515Y-13338960D02*
X7443991Y-13329436D01*
X7443991Y-13329436D02*
X7434467Y-13310388D01*
X7434467Y-13310388D02*
X7424943Y-13272293D01*
X7424943Y-13272293D02*
X7424943Y-13224674D01*
X7424943Y-13224674D02*
X7434467Y-13186579D01*
X7434467Y-13186579D02*
X7443991Y-13167531D01*
X7443991Y-13167531D02*
X7453515Y-13158008D01*
X7453515Y-13158008D02*
X7472562Y-13148484D01*
X7663039Y-13148484D02*
X7682086Y-13148484D01*
X7682086Y-13148484D02*
X7701134Y-13158008D01*
X7701134Y-13158008D02*
X7710658Y-13167531D01*
X7710658Y-13167531D02*
X7720182Y-13186579D01*
X7720182Y-13186579D02*
X7729705Y-13224674D01*
X7729705Y-13224674D02*
X7729705Y-13272293D01*
X7729705Y-13272293D02*
X7720182Y-13310388D01*
X7720182Y-13310388D02*
X7710658Y-13329436D01*
X7710658Y-13329436D02*
X7701134Y-13338960D01*
X7701134Y-13338960D02*
X7682086Y-13348484D01*
X7682086Y-13348484D02*
X7663039Y-13348484D01*
X7663039Y-13348484D02*
X7643991Y-13338960D01*
X7643991Y-13338960D02*
X7634467Y-13329436D01*
X7634467Y-13329436D02*
X7624943Y-13310388D01*
X7624943Y-13310388D02*
X7615420Y-13272293D01*
X7615420Y-13272293D02*
X7615420Y-13224674D01*
X7615420Y-13224674D02*
X7624943Y-13186579D01*
X7624943Y-13186579D02*
X7634467Y-13167531D01*
X7634467Y-13167531D02*
X7643991Y-13158008D01*
X7643991Y-13158008D02*
X7663039Y-13148484D01*
X7815420Y-13348484D02*
X7815420Y-13215150D01*
X7815420Y-13234198D02*
X7824943Y-13224674D01*
X7824943Y-13224674D02*
X7843991Y-13215150D01*
X7843991Y-13215150D02*
X7872563Y-13215150D01*
X7872563Y-13215150D02*
X7891610Y-13224674D01*
X7891610Y-13224674D02*
X7901134Y-13243722D01*
X7901134Y-13243722D02*
X7901134Y-13348484D01*
X7901134Y-13243722D02*
X7910658Y-13224674D01*
X7910658Y-13224674D02*
X7929705Y-13215150D01*
X7929705Y-13215150D02*
X7958277Y-13215150D01*
X7958277Y-13215150D02*
X7977324Y-13224674D01*
X7977324Y-13224674D02*
X7986848Y-13243722D01*
X7986848Y-13243722D02*
X7986848Y-13348484D01*
X8082086Y-13348484D02*
X8082086Y-13215150D01*
X8082086Y-13234198D02*
X8091610Y-13224674D01*
X8091610Y-13224674D02*
X8110658Y-13215150D01*
X8110658Y-13215150D02*
X8139229Y-13215150D01*
X8139229Y-13215150D02*
X8158277Y-13224674D01*
X8158277Y-13224674D02*
X8167801Y-13243722D01*
X8167801Y-13243722D02*
X8167801Y-13348484D01*
X8167801Y-13243722D02*
X8177324Y-13224674D01*
X8177324Y-13224674D02*
X8196372Y-13215150D01*
X8196372Y-13215150D02*
X8224943Y-13215150D01*
X8224943Y-13215150D02*
X8243991Y-13224674D01*
X8243991Y-13224674D02*
X8253515Y-13243722D01*
X8253515Y-13243722D02*
X8253515Y-13348484D01*
X8643991Y-13138960D02*
X8472563Y-13396103D01*
X8901134Y-13148484D02*
X8920182Y-13148484D01*
X8920182Y-13148484D02*
X8939229Y-13158008D01*
X8939229Y-13158008D02*
X8948753Y-13167531D01*
X8948753Y-13167531D02*
X8958277Y-13186579D01*
X8958277Y-13186579D02*
X8967801Y-13224674D01*
X8967801Y-13224674D02*
X8967801Y-13272293D01*
X8967801Y-13272293D02*
X8958277Y-13310388D01*
X8958277Y-13310388D02*
X8948753Y-13329436D01*
X8948753Y-13329436D02*
X8939229Y-13338960D01*
X8939229Y-13338960D02*
X8920182Y-13348484D01*
X8920182Y-13348484D02*
X8901134Y-13348484D01*
X8901134Y-13348484D02*
X8882087Y-13338960D01*
X8882087Y-13338960D02*
X8872563Y-13329436D01*
X8872563Y-13329436D02*
X8863039Y-13310388D01*
X8863039Y-13310388D02*
X8853515Y-13272293D01*
X8853515Y-13272293D02*
X8853515Y-13224674D01*
X8853515Y-13224674D02*
X8863039Y-13186579D01*
X8863039Y-13186579D02*
X8872563Y-13167531D01*
X8872563Y-13167531D02*
X8882087Y-13158008D01*
X8882087Y-13158008D02*
X8901134Y-13148484D01*
X9053515Y-13329436D02*
X9063039Y-13338960D01*
X9063039Y-13338960D02*
X9053515Y-13348484D01*
X9053515Y-13348484D02*
X9043991Y-13338960D01*
X9043991Y-13338960D02*
X9053515Y-13329436D01*
X9053515Y-13329436D02*
X9053515Y-13348484D01*
X9186848Y-13148484D02*
X9205896Y-13148484D01*
X9205896Y-13148484D02*
X9224944Y-13158008D01*
X9224944Y-13158008D02*
X9234468Y-13167531D01*
X9234468Y-13167531D02*
X9243991Y-13186579D01*
X9243991Y-13186579D02*
X9253515Y-13224674D01*
X9253515Y-13224674D02*
X9253515Y-13272293D01*
X9253515Y-13272293D02*
X9243991Y-13310388D01*
X9243991Y-13310388D02*
X9234468Y-13329436D01*
X9234468Y-13329436D02*
X9224944Y-13338960D01*
X9224944Y-13338960D02*
X9205896Y-13348484D01*
X9205896Y-13348484D02*
X9186848Y-13348484D01*
X9186848Y-13348484D02*
X9167801Y-13338960D01*
X9167801Y-13338960D02*
X9158277Y-13329436D01*
X9158277Y-13329436D02*
X9148753Y-13310388D01*
X9148753Y-13310388D02*
X9139229Y-13272293D01*
X9139229Y-13272293D02*
X9139229Y-13224674D01*
X9139229Y-13224674D02*
X9148753Y-13186579D01*
X9148753Y-13186579D02*
X9158277Y-13167531D01*
X9158277Y-13167531D02*
X9167801Y-13158008D01*
X9167801Y-13158008D02*
X9186848Y-13148484D01*
X9320182Y-13148484D02*
X9443991Y-13148484D01*
X9443991Y-13148484D02*
X9377325Y-13224674D01*
X9377325Y-13224674D02*
X9405896Y-13224674D01*
X9405896Y-13224674D02*
X9424944Y-13234198D01*
X9424944Y-13234198D02*
X9434468Y-13243722D01*
X9434468Y-13243722D02*
X9443991Y-13262769D01*
X9443991Y-13262769D02*
X9443991Y-13310388D01*
X9443991Y-13310388D02*
X9434468Y-13329436D01*
X9434468Y-13329436D02*
X9424944Y-13338960D01*
X9424944Y-13338960D02*
X9405896Y-13348484D01*
X9405896Y-13348484D02*
X9348753Y-13348484D01*
X9348753Y-13348484D02*
X9329706Y-13338960D01*
X9329706Y-13338960D02*
X9320182Y-13329436D01*
X9539229Y-13348484D02*
X9577325Y-13348484D01*
X9577325Y-13348484D02*
X9596372Y-13338960D01*
X9596372Y-13338960D02*
X9605896Y-13329436D01*
X9605896Y-13329436D02*
X9624944Y-13300865D01*
X9624944Y-13300865D02*
X9634468Y-13262769D01*
X9634468Y-13262769D02*
X9634468Y-13186579D01*
X9634468Y-13186579D02*
X9624944Y-13167531D01*
X9624944Y-13167531D02*
X9615420Y-13158008D01*
X9615420Y-13158008D02*
X9596372Y-13148484D01*
X9596372Y-13148484D02*
X9558277Y-13148484D01*
X9558277Y-13148484D02*
X9539229Y-13158008D01*
X9539229Y-13158008D02*
X9529706Y-13167531D01*
X9529706Y-13167531D02*
X9520182Y-13186579D01*
X9520182Y-13186579D02*
X9520182Y-13234198D01*
X9520182Y-13234198D02*
X9529706Y-13253246D01*
X9529706Y-13253246D02*
X9539229Y-13262769D01*
X9539229Y-13262769D02*
X9558277Y-13272293D01*
X9558277Y-13272293D02*
X9596372Y-13272293D01*
X9596372Y-13272293D02*
X9615420Y-13262769D01*
X9615420Y-13262769D02*
X9624944Y-13253246D01*
X9624944Y-13253246D02*
X9634468Y-13234198D01*
X9805896Y-13215150D02*
X9805896Y-13348484D01*
X9758277Y-13138960D02*
X9710658Y-13281817D01*
X9710658Y-13281817D02*
X9834468Y-13281817D01*
X9901134Y-13148484D02*
X9901134Y-13186579D01*
X9977325Y-13148484D02*
X9977325Y-13186579D01*
X10272563Y-13424674D02*
X10263039Y-13415150D01*
X10263039Y-13415150D02*
X10243991Y-13386579D01*
X10243991Y-13386579D02*
X10234468Y-13367531D01*
X10234468Y-13367531D02*
X10224944Y-13338960D01*
X10224944Y-13338960D02*
X10215420Y-13291341D01*
X10215420Y-13291341D02*
X10215420Y-13253246D01*
X10215420Y-13253246D02*
X10224944Y-13205627D01*
X10224944Y-13205627D02*
X10234468Y-13177055D01*
X10234468Y-13177055D02*
X10243991Y-13158008D01*
X10243991Y-13158008D02*
X10263039Y-13129436D01*
X10263039Y-13129436D02*
X10272563Y-13119912D01*
X10453515Y-13348484D02*
X10339230Y-13348484D01*
X10396372Y-13348484D02*
X10396372Y-13148484D01*
X10396372Y-13148484D02*
X10377325Y-13177055D01*
X10377325Y-13177055D02*
X10358277Y-13196103D01*
X10358277Y-13196103D02*
X10339230Y-13205627D01*
X10634468Y-13148484D02*
X10539230Y-13148484D01*
X10539230Y-13148484D02*
X10529706Y-13243722D01*
X10529706Y-13243722D02*
X10539230Y-13234198D01*
X10539230Y-13234198D02*
X10558277Y-13224674D01*
X10558277Y-13224674D02*
X10605896Y-13224674D01*
X10605896Y-13224674D02*
X10624944Y-13234198D01*
X10624944Y-13234198D02*
X10634468Y-13243722D01*
X10634468Y-13243722D02*
X10643991Y-13262769D01*
X10643991Y-13262769D02*
X10643991Y-13310388D01*
X10643991Y-13310388D02*
X10634468Y-13329436D01*
X10634468Y-13329436D02*
X10624944Y-13338960D01*
X10624944Y-13338960D02*
X10605896Y-13348484D01*
X10605896Y-13348484D02*
X10558277Y-13348484D01*
X10558277Y-13348484D02*
X10539230Y-13338960D01*
X10539230Y-13338960D02*
X10529706Y-13329436D01*
X10834468Y-13348484D02*
X10720182Y-13348484D01*
X10777325Y-13348484D02*
X10777325Y-13148484D01*
X10777325Y-13148484D02*
X10758277Y-13177055D01*
X10758277Y-13177055D02*
X10739230Y-13196103D01*
X10739230Y-13196103D02*
X10720182Y-13205627D01*
X11072563Y-13348484D02*
X11072563Y-13148484D01*
X11158277Y-13348484D02*
X11158277Y-13243722D01*
X11158277Y-13243722D02*
X11148753Y-13224674D01*
X11148753Y-13224674D02*
X11129706Y-13215150D01*
X11129706Y-13215150D02*
X11101134Y-13215150D01*
X11101134Y-13215150D02*
X11082087Y-13224674D01*
X11082087Y-13224674D02*
X11072563Y-13234198D01*
X11282087Y-13348484D02*
X11263039Y-13338960D01*
X11263039Y-13338960D02*
X11253515Y-13329436D01*
X11253515Y-13329436D02*
X11243991Y-13310388D01*
X11243991Y-13310388D02*
X11243991Y-13253246D01*
X11243991Y-13253246D02*
X11253515Y-13234198D01*
X11253515Y-13234198D02*
X11263039Y-13224674D01*
X11263039Y-13224674D02*
X11282087Y-13215150D01*
X11282087Y-13215150D02*
X11310658Y-13215150D01*
X11310658Y-13215150D02*
X11329706Y-13224674D01*
X11329706Y-13224674D02*
X11339230Y-13234198D01*
X11339230Y-13234198D02*
X11348753Y-13253246D01*
X11348753Y-13253246D02*
X11348753Y-13310388D01*
X11348753Y-13310388D02*
X11339230Y-13329436D01*
X11339230Y-13329436D02*
X11329706Y-13338960D01*
X11329706Y-13338960D02*
X11310658Y-13348484D01*
X11310658Y-13348484D02*
X11282087Y-13348484D01*
X11463039Y-13348484D02*
X11443991Y-13338960D01*
X11443991Y-13338960D02*
X11434468Y-13319912D01*
X11434468Y-13319912D02*
X11434468Y-13148484D01*
X11615420Y-13338960D02*
X11596372Y-13348484D01*
X11596372Y-13348484D02*
X11558277Y-13348484D01*
X11558277Y-13348484D02*
X11539230Y-13338960D01*
X11539230Y-13338960D02*
X11529706Y-13319912D01*
X11529706Y-13319912D02*
X11529706Y-13243722D01*
X11529706Y-13243722D02*
X11539230Y-13224674D01*
X11539230Y-13224674D02*
X11558277Y-13215150D01*
X11558277Y-13215150D02*
X11596372Y-13215150D01*
X11596372Y-13215150D02*
X11615420Y-13224674D01*
X11615420Y-13224674D02*
X11624944Y-13243722D01*
X11624944Y-13243722D02*
X11624944Y-13262769D01*
X11624944Y-13262769D02*
X11529706Y-13281817D01*
X11701134Y-13338960D02*
X11720182Y-13348484D01*
X11720182Y-13348484D02*
X11758277Y-13348484D01*
X11758277Y-13348484D02*
X11777325Y-13338960D01*
X11777325Y-13338960D02*
X11786849Y-13319912D01*
X11786849Y-13319912D02*
X11786849Y-13310388D01*
X11786849Y-13310388D02*
X11777325Y-13291341D01*
X11777325Y-13291341D02*
X11758277Y-13281817D01*
X11758277Y-13281817D02*
X11729706Y-13281817D01*
X11729706Y-13281817D02*
X11710658Y-13272293D01*
X11710658Y-13272293D02*
X11701134Y-13253246D01*
X11701134Y-13253246D02*
X11701134Y-13243722D01*
X11701134Y-13243722D02*
X11710658Y-13224674D01*
X11710658Y-13224674D02*
X11729706Y-13215150D01*
X11729706Y-13215150D02*
X11758277Y-13215150D01*
X11758277Y-13215150D02*
X11777325Y-13224674D01*
X11853515Y-13424674D02*
X11863039Y-13415150D01*
X11863039Y-13415150D02*
X11882087Y-13386579D01*
X11882087Y-13386579D02*
X11891611Y-13367531D01*
X11891611Y-13367531D02*
X11901134Y-13338960D01*
X11901134Y-13338960D02*
X11910658Y-13291341D01*
X11910658Y-13291341D02*
X11910658Y-13253246D01*
X11910658Y-13253246D02*
X11901134Y-13205627D01*
X11901134Y-13205627D02*
X11891611Y-13177055D01*
X11891611Y-13177055D02*
X11882087Y-13158008D01*
X11882087Y-13158008D02*
X11863039Y-13129436D01*
X11863039Y-13129436D02*
X11853515Y-13119912D01*
D12*
X6637500Y-13581000D02*
X6697500Y-13521000D01*
X6637500Y-13461000D01*
X6577500Y-13521000D01*
X6637500Y-13581000D01*
D11*
X7063039Y-13612484D02*
X6948753Y-13612484D01*
X7005896Y-13612484D02*
X7005896Y-13412484D01*
X7005896Y-13412484D02*
X6986848Y-13441055D01*
X6986848Y-13441055D02*
X6967801Y-13460103D01*
X6967801Y-13460103D02*
X6948753Y-13469627D01*
X7148753Y-13593436D02*
X7158277Y-13602960D01*
X7158277Y-13602960D02*
X7148753Y-13612484D01*
X7148753Y-13612484D02*
X7139229Y-13602960D01*
X7139229Y-13602960D02*
X7148753Y-13593436D01*
X7148753Y-13593436D02*
X7148753Y-13612484D01*
X7234467Y-13431531D02*
X7243991Y-13422008D01*
X7243991Y-13422008D02*
X7263039Y-13412484D01*
X7263039Y-13412484D02*
X7310658Y-13412484D01*
X7310658Y-13412484D02*
X7329705Y-13422008D01*
X7329705Y-13422008D02*
X7339229Y-13431531D01*
X7339229Y-13431531D02*
X7348753Y-13450579D01*
X7348753Y-13450579D02*
X7348753Y-13469627D01*
X7348753Y-13469627D02*
X7339229Y-13498198D01*
X7339229Y-13498198D02*
X7224943Y-13612484D01*
X7224943Y-13612484D02*
X7348753Y-13612484D01*
X7472562Y-13412484D02*
X7491610Y-13412484D01*
X7491610Y-13412484D02*
X7510658Y-13422008D01*
X7510658Y-13422008D02*
X7520182Y-13431531D01*
X7520182Y-13431531D02*
X7529705Y-13450579D01*
X7529705Y-13450579D02*
X7539229Y-13488674D01*
X7539229Y-13488674D02*
X7539229Y-13536293D01*
X7539229Y-13536293D02*
X7529705Y-13574388D01*
X7529705Y-13574388D02*
X7520182Y-13593436D01*
X7520182Y-13593436D02*
X7510658Y-13602960D01*
X7510658Y-13602960D02*
X7491610Y-13612484D01*
X7491610Y-13612484D02*
X7472562Y-13612484D01*
X7472562Y-13612484D02*
X7453515Y-13602960D01*
X7453515Y-13602960D02*
X7443991Y-13593436D01*
X7443991Y-13593436D02*
X7434467Y-13574388D01*
X7434467Y-13574388D02*
X7424943Y-13536293D01*
X7424943Y-13536293D02*
X7424943Y-13488674D01*
X7424943Y-13488674D02*
X7434467Y-13450579D01*
X7434467Y-13450579D02*
X7443991Y-13431531D01*
X7443991Y-13431531D02*
X7453515Y-13422008D01*
X7453515Y-13422008D02*
X7472562Y-13412484D01*
X7663039Y-13412484D02*
X7682086Y-13412484D01*
X7682086Y-13412484D02*
X7701134Y-13422008D01*
X7701134Y-13422008D02*
X7710658Y-13431531D01*
X7710658Y-13431531D02*
X7720182Y-13450579D01*
X7720182Y-13450579D02*
X7729705Y-13488674D01*
X7729705Y-13488674D02*
X7729705Y-13536293D01*
X7729705Y-13536293D02*
X7720182Y-13574388D01*
X7720182Y-13574388D02*
X7710658Y-13593436D01*
X7710658Y-13593436D02*
X7701134Y-13602960D01*
X7701134Y-13602960D02*
X7682086Y-13612484D01*
X7682086Y-13612484D02*
X7663039Y-13612484D01*
X7663039Y-13612484D02*
X7643991Y-13602960D01*
X7643991Y-13602960D02*
X7634467Y-13593436D01*
X7634467Y-13593436D02*
X7624943Y-13574388D01*
X7624943Y-13574388D02*
X7615420Y-13536293D01*
X7615420Y-13536293D02*
X7615420Y-13488674D01*
X7615420Y-13488674D02*
X7624943Y-13450579D01*
X7624943Y-13450579D02*
X7634467Y-13431531D01*
X7634467Y-13431531D02*
X7643991Y-13422008D01*
X7643991Y-13422008D02*
X7663039Y-13412484D01*
X7815420Y-13612484D02*
X7815420Y-13479150D01*
X7815420Y-13498198D02*
X7824943Y-13488674D01*
X7824943Y-13488674D02*
X7843991Y-13479150D01*
X7843991Y-13479150D02*
X7872563Y-13479150D01*
X7872563Y-13479150D02*
X7891610Y-13488674D01*
X7891610Y-13488674D02*
X7901134Y-13507722D01*
X7901134Y-13507722D02*
X7901134Y-13612484D01*
X7901134Y-13507722D02*
X7910658Y-13488674D01*
X7910658Y-13488674D02*
X7929705Y-13479150D01*
X7929705Y-13479150D02*
X7958277Y-13479150D01*
X7958277Y-13479150D02*
X7977324Y-13488674D01*
X7977324Y-13488674D02*
X7986848Y-13507722D01*
X7986848Y-13507722D02*
X7986848Y-13612484D01*
X8082086Y-13612484D02*
X8082086Y-13479150D01*
X8082086Y-13498198D02*
X8091610Y-13488674D01*
X8091610Y-13488674D02*
X8110658Y-13479150D01*
X8110658Y-13479150D02*
X8139229Y-13479150D01*
X8139229Y-13479150D02*
X8158277Y-13488674D01*
X8158277Y-13488674D02*
X8167801Y-13507722D01*
X8167801Y-13507722D02*
X8167801Y-13612484D01*
X8167801Y-13507722D02*
X8177324Y-13488674D01*
X8177324Y-13488674D02*
X8196372Y-13479150D01*
X8196372Y-13479150D02*
X8224943Y-13479150D01*
X8224943Y-13479150D02*
X8243991Y-13488674D01*
X8243991Y-13488674D02*
X8253515Y-13507722D01*
X8253515Y-13507722D02*
X8253515Y-13612484D01*
X8643991Y-13402960D02*
X8472563Y-13660103D01*
X8901134Y-13412484D02*
X8920182Y-13412484D01*
X8920182Y-13412484D02*
X8939229Y-13422008D01*
X8939229Y-13422008D02*
X8948753Y-13431531D01*
X8948753Y-13431531D02*
X8958277Y-13450579D01*
X8958277Y-13450579D02*
X8967801Y-13488674D01*
X8967801Y-13488674D02*
X8967801Y-13536293D01*
X8967801Y-13536293D02*
X8958277Y-13574388D01*
X8958277Y-13574388D02*
X8948753Y-13593436D01*
X8948753Y-13593436D02*
X8939229Y-13602960D01*
X8939229Y-13602960D02*
X8920182Y-13612484D01*
X8920182Y-13612484D02*
X8901134Y-13612484D01*
X8901134Y-13612484D02*
X8882087Y-13602960D01*
X8882087Y-13602960D02*
X8872563Y-13593436D01*
X8872563Y-13593436D02*
X8863039Y-13574388D01*
X8863039Y-13574388D02*
X8853515Y-13536293D01*
X8853515Y-13536293D02*
X8853515Y-13488674D01*
X8853515Y-13488674D02*
X8863039Y-13450579D01*
X8863039Y-13450579D02*
X8872563Y-13431531D01*
X8872563Y-13431531D02*
X8882087Y-13422008D01*
X8882087Y-13422008D02*
X8901134Y-13412484D01*
X9053515Y-13593436D02*
X9063039Y-13602960D01*
X9063039Y-13602960D02*
X9053515Y-13612484D01*
X9053515Y-13612484D02*
X9043991Y-13602960D01*
X9043991Y-13602960D02*
X9053515Y-13593436D01*
X9053515Y-13593436D02*
X9053515Y-13612484D01*
X9186848Y-13412484D02*
X9205896Y-13412484D01*
X9205896Y-13412484D02*
X9224944Y-13422008D01*
X9224944Y-13422008D02*
X9234468Y-13431531D01*
X9234468Y-13431531D02*
X9243991Y-13450579D01*
X9243991Y-13450579D02*
X9253515Y-13488674D01*
X9253515Y-13488674D02*
X9253515Y-13536293D01*
X9253515Y-13536293D02*
X9243991Y-13574388D01*
X9243991Y-13574388D02*
X9234468Y-13593436D01*
X9234468Y-13593436D02*
X9224944Y-13602960D01*
X9224944Y-13602960D02*
X9205896Y-13612484D01*
X9205896Y-13612484D02*
X9186848Y-13612484D01*
X9186848Y-13612484D02*
X9167801Y-13602960D01*
X9167801Y-13602960D02*
X9158277Y-13593436D01*
X9158277Y-13593436D02*
X9148753Y-13574388D01*
X9148753Y-13574388D02*
X9139229Y-13536293D01*
X9139229Y-13536293D02*
X9139229Y-13488674D01*
X9139229Y-13488674D02*
X9148753Y-13450579D01*
X9148753Y-13450579D02*
X9158277Y-13431531D01*
X9158277Y-13431531D02*
X9167801Y-13422008D01*
X9167801Y-13422008D02*
X9186848Y-13412484D01*
X9424944Y-13479150D02*
X9424944Y-13612484D01*
X9377325Y-13402960D02*
X9329706Y-13545817D01*
X9329706Y-13545817D02*
X9453515Y-13545817D01*
X9510658Y-13412484D02*
X9643991Y-13412484D01*
X9643991Y-13412484D02*
X9558277Y-13612484D01*
X9710658Y-13431531D02*
X9720182Y-13422008D01*
X9720182Y-13422008D02*
X9739229Y-13412484D01*
X9739229Y-13412484D02*
X9786849Y-13412484D01*
X9786849Y-13412484D02*
X9805896Y-13422008D01*
X9805896Y-13422008D02*
X9815420Y-13431531D01*
X9815420Y-13431531D02*
X9824944Y-13450579D01*
X9824944Y-13450579D02*
X9824944Y-13469627D01*
X9824944Y-13469627D02*
X9815420Y-13498198D01*
X9815420Y-13498198D02*
X9701134Y-13612484D01*
X9701134Y-13612484D02*
X9824944Y-13612484D01*
X9901134Y-13412484D02*
X9901134Y-13450579D01*
X9977325Y-13412484D02*
X9977325Y-13450579D01*
X10272563Y-13688674D02*
X10263039Y-13679150D01*
X10263039Y-13679150D02*
X10243991Y-13650579D01*
X10243991Y-13650579D02*
X10234468Y-13631531D01*
X10234468Y-13631531D02*
X10224944Y-13602960D01*
X10224944Y-13602960D02*
X10215420Y-13555341D01*
X10215420Y-13555341D02*
X10215420Y-13517246D01*
X10215420Y-13517246D02*
X10224944Y-13469627D01*
X10224944Y-13469627D02*
X10234468Y-13441055D01*
X10234468Y-13441055D02*
X10243991Y-13422008D01*
X10243991Y-13422008D02*
X10263039Y-13393436D01*
X10263039Y-13393436D02*
X10272563Y-13383912D01*
X10339230Y-13431531D02*
X10348753Y-13422008D01*
X10348753Y-13422008D02*
X10367801Y-13412484D01*
X10367801Y-13412484D02*
X10415420Y-13412484D01*
X10415420Y-13412484D02*
X10434468Y-13422008D01*
X10434468Y-13422008D02*
X10443991Y-13431531D01*
X10443991Y-13431531D02*
X10453515Y-13450579D01*
X10453515Y-13450579D02*
X10453515Y-13469627D01*
X10453515Y-13469627D02*
X10443991Y-13498198D01*
X10443991Y-13498198D02*
X10329706Y-13612484D01*
X10329706Y-13612484D02*
X10453515Y-13612484D01*
X10691611Y-13612484D02*
X10691611Y-13412484D01*
X10777325Y-13612484D02*
X10777325Y-13507722D01*
X10777325Y-13507722D02*
X10767801Y-13488674D01*
X10767801Y-13488674D02*
X10748753Y-13479150D01*
X10748753Y-13479150D02*
X10720182Y-13479150D01*
X10720182Y-13479150D02*
X10701134Y-13488674D01*
X10701134Y-13488674D02*
X10691611Y-13498198D01*
X10901134Y-13612484D02*
X10882087Y-13602960D01*
X10882087Y-13602960D02*
X10872563Y-13593436D01*
X10872563Y-13593436D02*
X10863039Y-13574388D01*
X10863039Y-13574388D02*
X10863039Y-13517246D01*
X10863039Y-13517246D02*
X10872563Y-13498198D01*
X10872563Y-13498198D02*
X10882087Y-13488674D01*
X10882087Y-13488674D02*
X10901134Y-13479150D01*
X10901134Y-13479150D02*
X10929706Y-13479150D01*
X10929706Y-13479150D02*
X10948753Y-13488674D01*
X10948753Y-13488674D02*
X10958277Y-13498198D01*
X10958277Y-13498198D02*
X10967801Y-13517246D01*
X10967801Y-13517246D02*
X10967801Y-13574388D01*
X10967801Y-13574388D02*
X10958277Y-13593436D01*
X10958277Y-13593436D02*
X10948753Y-13602960D01*
X10948753Y-13602960D02*
X10929706Y-13612484D01*
X10929706Y-13612484D02*
X10901134Y-13612484D01*
X11082087Y-13612484D02*
X11063039Y-13602960D01*
X11063039Y-13602960D02*
X11053515Y-13583912D01*
X11053515Y-13583912D02*
X11053515Y-13412484D01*
X11234468Y-13602960D02*
X11215420Y-13612484D01*
X11215420Y-13612484D02*
X11177325Y-13612484D01*
X11177325Y-13612484D02*
X11158277Y-13602960D01*
X11158277Y-13602960D02*
X11148753Y-13583912D01*
X11148753Y-13583912D02*
X11148753Y-13507722D01*
X11148753Y-13507722D02*
X11158277Y-13488674D01*
X11158277Y-13488674D02*
X11177325Y-13479150D01*
X11177325Y-13479150D02*
X11215420Y-13479150D01*
X11215420Y-13479150D02*
X11234468Y-13488674D01*
X11234468Y-13488674D02*
X11243991Y-13507722D01*
X11243991Y-13507722D02*
X11243991Y-13526769D01*
X11243991Y-13526769D02*
X11148753Y-13545817D01*
X11320182Y-13602960D02*
X11339230Y-13612484D01*
X11339230Y-13612484D02*
X11377325Y-13612484D01*
X11377325Y-13612484D02*
X11396372Y-13602960D01*
X11396372Y-13602960D02*
X11405896Y-13583912D01*
X11405896Y-13583912D02*
X11405896Y-13574388D01*
X11405896Y-13574388D02*
X11396372Y-13555341D01*
X11396372Y-13555341D02*
X11377325Y-13545817D01*
X11377325Y-13545817D02*
X11348753Y-13545817D01*
X11348753Y-13545817D02*
X11329706Y-13536293D01*
X11329706Y-13536293D02*
X11320182Y-13517246D01*
X11320182Y-13517246D02*
X11320182Y-13507722D01*
X11320182Y-13507722D02*
X11329706Y-13488674D01*
X11329706Y-13488674D02*
X11348753Y-13479150D01*
X11348753Y-13479150D02*
X11377325Y-13479150D01*
X11377325Y-13479150D02*
X11396372Y-13488674D01*
X11472563Y-13688674D02*
X11482087Y-13679150D01*
X11482087Y-13679150D02*
X11501134Y-13650579D01*
X11501134Y-13650579D02*
X11510658Y-13631531D01*
X11510658Y-13631531D02*
X11520182Y-13602960D01*
X11520182Y-13602960D02*
X11529706Y-13555341D01*
X11529706Y-13555341D02*
X11529706Y-13517246D01*
X11529706Y-13517246D02*
X11520182Y-13469627D01*
X11520182Y-13469627D02*
X11510658Y-13441055D01*
X11510658Y-13441055D02*
X11501134Y-13422008D01*
X11501134Y-13422008D02*
X11482087Y-13393436D01*
X11482087Y-13393436D02*
X11472563Y-13383912D01*
D13*
X6567500Y-13720000D02*
X6697500Y-13850000D01*
X6697500Y-13720000D02*
X6567500Y-13850000D01*
X6697500Y-13785000D02*
G75*
G02*
X6567500Y-13785000I-65000J0D01*
G01*
X6567500Y-13785000D02*
G75*
G02*
X6697500Y-13785000I65000J0D01*
G01*
D11*
X7063039Y-13876484D02*
X6948753Y-13876484D01*
X7005896Y-13876484D02*
X7005896Y-13676484D01*
X7005896Y-13676484D02*
X6986848Y-13705055D01*
X6986848Y-13705055D02*
X6967801Y-13724103D01*
X6967801Y-13724103D02*
X6948753Y-13733627D01*
X7148753Y-13857436D02*
X7158277Y-13866960D01*
X7158277Y-13866960D02*
X7148753Y-13876484D01*
X7148753Y-13876484D02*
X7139229Y-13866960D01*
X7139229Y-13866960D02*
X7148753Y-13857436D01*
X7148753Y-13857436D02*
X7148753Y-13876484D01*
X7224943Y-13676484D02*
X7348753Y-13676484D01*
X7348753Y-13676484D02*
X7282086Y-13752674D01*
X7282086Y-13752674D02*
X7310658Y-13752674D01*
X7310658Y-13752674D02*
X7329705Y-13762198D01*
X7329705Y-13762198D02*
X7339229Y-13771722D01*
X7339229Y-13771722D02*
X7348753Y-13790769D01*
X7348753Y-13790769D02*
X7348753Y-13838388D01*
X7348753Y-13838388D02*
X7339229Y-13857436D01*
X7339229Y-13857436D02*
X7329705Y-13866960D01*
X7329705Y-13866960D02*
X7310658Y-13876484D01*
X7310658Y-13876484D02*
X7253515Y-13876484D01*
X7253515Y-13876484D02*
X7234467Y-13866960D01*
X7234467Y-13866960D02*
X7224943Y-13857436D01*
X7472562Y-13676484D02*
X7491610Y-13676484D01*
X7491610Y-13676484D02*
X7510658Y-13686008D01*
X7510658Y-13686008D02*
X7520182Y-13695531D01*
X7520182Y-13695531D02*
X7529705Y-13714579D01*
X7529705Y-13714579D02*
X7539229Y-13752674D01*
X7539229Y-13752674D02*
X7539229Y-13800293D01*
X7539229Y-13800293D02*
X7529705Y-13838388D01*
X7529705Y-13838388D02*
X7520182Y-13857436D01*
X7520182Y-13857436D02*
X7510658Y-13866960D01*
X7510658Y-13866960D02*
X7491610Y-13876484D01*
X7491610Y-13876484D02*
X7472562Y-13876484D01*
X7472562Y-13876484D02*
X7453515Y-13866960D01*
X7453515Y-13866960D02*
X7443991Y-13857436D01*
X7443991Y-13857436D02*
X7434467Y-13838388D01*
X7434467Y-13838388D02*
X7424943Y-13800293D01*
X7424943Y-13800293D02*
X7424943Y-13752674D01*
X7424943Y-13752674D02*
X7434467Y-13714579D01*
X7434467Y-13714579D02*
X7443991Y-13695531D01*
X7443991Y-13695531D02*
X7453515Y-13686008D01*
X7453515Y-13686008D02*
X7472562Y-13676484D01*
X7663039Y-13676484D02*
X7682086Y-13676484D01*
X7682086Y-13676484D02*
X7701134Y-13686008D01*
X7701134Y-13686008D02*
X7710658Y-13695531D01*
X7710658Y-13695531D02*
X7720182Y-13714579D01*
X7720182Y-13714579D02*
X7729705Y-13752674D01*
X7729705Y-13752674D02*
X7729705Y-13800293D01*
X7729705Y-13800293D02*
X7720182Y-13838388D01*
X7720182Y-13838388D02*
X7710658Y-13857436D01*
X7710658Y-13857436D02*
X7701134Y-13866960D01*
X7701134Y-13866960D02*
X7682086Y-13876484D01*
X7682086Y-13876484D02*
X7663039Y-13876484D01*
X7663039Y-13876484D02*
X7643991Y-13866960D01*
X7643991Y-13866960D02*
X7634467Y-13857436D01*
X7634467Y-13857436D02*
X7624943Y-13838388D01*
X7624943Y-13838388D02*
X7615420Y-13800293D01*
X7615420Y-13800293D02*
X7615420Y-13752674D01*
X7615420Y-13752674D02*
X7624943Y-13714579D01*
X7624943Y-13714579D02*
X7634467Y-13695531D01*
X7634467Y-13695531D02*
X7643991Y-13686008D01*
X7643991Y-13686008D02*
X7663039Y-13676484D01*
X7815420Y-13876484D02*
X7815420Y-13743150D01*
X7815420Y-13762198D02*
X7824943Y-13752674D01*
X7824943Y-13752674D02*
X7843991Y-13743150D01*
X7843991Y-13743150D02*
X7872563Y-13743150D01*
X7872563Y-13743150D02*
X7891610Y-13752674D01*
X7891610Y-13752674D02*
X7901134Y-13771722D01*
X7901134Y-13771722D02*
X7901134Y-13876484D01*
X7901134Y-13771722D02*
X7910658Y-13752674D01*
X7910658Y-13752674D02*
X7929705Y-13743150D01*
X7929705Y-13743150D02*
X7958277Y-13743150D01*
X7958277Y-13743150D02*
X7977324Y-13752674D01*
X7977324Y-13752674D02*
X7986848Y-13771722D01*
X7986848Y-13771722D02*
X7986848Y-13876484D01*
X8082086Y-13876484D02*
X8082086Y-13743150D01*
X8082086Y-13762198D02*
X8091610Y-13752674D01*
X8091610Y-13752674D02*
X8110658Y-13743150D01*
X8110658Y-13743150D02*
X8139229Y-13743150D01*
X8139229Y-13743150D02*
X8158277Y-13752674D01*
X8158277Y-13752674D02*
X8167801Y-13771722D01*
X8167801Y-13771722D02*
X8167801Y-13876484D01*
X8167801Y-13771722D02*
X8177324Y-13752674D01*
X8177324Y-13752674D02*
X8196372Y-13743150D01*
X8196372Y-13743150D02*
X8224943Y-13743150D01*
X8224943Y-13743150D02*
X8243991Y-13752674D01*
X8243991Y-13752674D02*
X8253515Y-13771722D01*
X8253515Y-13771722D02*
X8253515Y-13876484D01*
X8643991Y-13666960D02*
X8472563Y-13924103D01*
X8901134Y-13676484D02*
X8920182Y-13676484D01*
X8920182Y-13676484D02*
X8939229Y-13686008D01*
X8939229Y-13686008D02*
X8948753Y-13695531D01*
X8948753Y-13695531D02*
X8958277Y-13714579D01*
X8958277Y-13714579D02*
X8967801Y-13752674D01*
X8967801Y-13752674D02*
X8967801Y-13800293D01*
X8967801Y-13800293D02*
X8958277Y-13838388D01*
X8958277Y-13838388D02*
X8948753Y-13857436D01*
X8948753Y-13857436D02*
X8939229Y-13866960D01*
X8939229Y-13866960D02*
X8920182Y-13876484D01*
X8920182Y-13876484D02*
X8901134Y-13876484D01*
X8901134Y-13876484D02*
X8882087Y-13866960D01*
X8882087Y-13866960D02*
X8872563Y-13857436D01*
X8872563Y-13857436D02*
X8863039Y-13838388D01*
X8863039Y-13838388D02*
X8853515Y-13800293D01*
X8853515Y-13800293D02*
X8853515Y-13752674D01*
X8853515Y-13752674D02*
X8863039Y-13714579D01*
X8863039Y-13714579D02*
X8872563Y-13695531D01*
X8872563Y-13695531D02*
X8882087Y-13686008D01*
X8882087Y-13686008D02*
X8901134Y-13676484D01*
X9053515Y-13857436D02*
X9063039Y-13866960D01*
X9063039Y-13866960D02*
X9053515Y-13876484D01*
X9053515Y-13876484D02*
X9043991Y-13866960D01*
X9043991Y-13866960D02*
X9053515Y-13857436D01*
X9053515Y-13857436D02*
X9053515Y-13876484D01*
X9186848Y-13676484D02*
X9205896Y-13676484D01*
X9205896Y-13676484D02*
X9224944Y-13686008D01*
X9224944Y-13686008D02*
X9234468Y-13695531D01*
X9234468Y-13695531D02*
X9243991Y-13714579D01*
X9243991Y-13714579D02*
X9253515Y-13752674D01*
X9253515Y-13752674D02*
X9253515Y-13800293D01*
X9253515Y-13800293D02*
X9243991Y-13838388D01*
X9243991Y-13838388D02*
X9234468Y-13857436D01*
X9234468Y-13857436D02*
X9224944Y-13866960D01*
X9224944Y-13866960D02*
X9205896Y-13876484D01*
X9205896Y-13876484D02*
X9186848Y-13876484D01*
X9186848Y-13876484D02*
X9167801Y-13866960D01*
X9167801Y-13866960D02*
X9158277Y-13857436D01*
X9158277Y-13857436D02*
X9148753Y-13838388D01*
X9148753Y-13838388D02*
X9139229Y-13800293D01*
X9139229Y-13800293D02*
X9139229Y-13752674D01*
X9139229Y-13752674D02*
X9148753Y-13714579D01*
X9148753Y-13714579D02*
X9158277Y-13695531D01*
X9158277Y-13695531D02*
X9167801Y-13686008D01*
X9167801Y-13686008D02*
X9186848Y-13676484D01*
X9434468Y-13676484D02*
X9339229Y-13676484D01*
X9339229Y-13676484D02*
X9329706Y-13771722D01*
X9329706Y-13771722D02*
X9339229Y-13762198D01*
X9339229Y-13762198D02*
X9358277Y-13752674D01*
X9358277Y-13752674D02*
X9405896Y-13752674D01*
X9405896Y-13752674D02*
X9424944Y-13762198D01*
X9424944Y-13762198D02*
X9434468Y-13771722D01*
X9434468Y-13771722D02*
X9443991Y-13790769D01*
X9443991Y-13790769D02*
X9443991Y-13838388D01*
X9443991Y-13838388D02*
X9434468Y-13857436D01*
X9434468Y-13857436D02*
X9424944Y-13866960D01*
X9424944Y-13866960D02*
X9405896Y-13876484D01*
X9405896Y-13876484D02*
X9358277Y-13876484D01*
X9358277Y-13876484D02*
X9339229Y-13866960D01*
X9339229Y-13866960D02*
X9329706Y-13857436D01*
X9634468Y-13876484D02*
X9520182Y-13876484D01*
X9577325Y-13876484D02*
X9577325Y-13676484D01*
X9577325Y-13676484D02*
X9558277Y-13705055D01*
X9558277Y-13705055D02*
X9539229Y-13724103D01*
X9539229Y-13724103D02*
X9520182Y-13733627D01*
X9710658Y-13695531D02*
X9720182Y-13686008D01*
X9720182Y-13686008D02*
X9739229Y-13676484D01*
X9739229Y-13676484D02*
X9786849Y-13676484D01*
X9786849Y-13676484D02*
X9805896Y-13686008D01*
X9805896Y-13686008D02*
X9815420Y-13695531D01*
X9815420Y-13695531D02*
X9824944Y-13714579D01*
X9824944Y-13714579D02*
X9824944Y-13733627D01*
X9824944Y-13733627D02*
X9815420Y-13762198D01*
X9815420Y-13762198D02*
X9701134Y-13876484D01*
X9701134Y-13876484D02*
X9824944Y-13876484D01*
X9901134Y-13676484D02*
X9901134Y-13714579D01*
X9977325Y-13676484D02*
X9977325Y-13714579D01*
X10272563Y-13952674D02*
X10263039Y-13943150D01*
X10263039Y-13943150D02*
X10243991Y-13914579D01*
X10243991Y-13914579D02*
X10234468Y-13895531D01*
X10234468Y-13895531D02*
X10224944Y-13866960D01*
X10224944Y-13866960D02*
X10215420Y-13819341D01*
X10215420Y-13819341D02*
X10215420Y-13781246D01*
X10215420Y-13781246D02*
X10224944Y-13733627D01*
X10224944Y-13733627D02*
X10234468Y-13705055D01*
X10234468Y-13705055D02*
X10243991Y-13686008D01*
X10243991Y-13686008D02*
X10263039Y-13657436D01*
X10263039Y-13657436D02*
X10272563Y-13647912D01*
X10339230Y-13695531D02*
X10348753Y-13686008D01*
X10348753Y-13686008D02*
X10367801Y-13676484D01*
X10367801Y-13676484D02*
X10415420Y-13676484D01*
X10415420Y-13676484D02*
X10434468Y-13686008D01*
X10434468Y-13686008D02*
X10443991Y-13695531D01*
X10443991Y-13695531D02*
X10453515Y-13714579D01*
X10453515Y-13714579D02*
X10453515Y-13733627D01*
X10453515Y-13733627D02*
X10443991Y-13762198D01*
X10443991Y-13762198D02*
X10329706Y-13876484D01*
X10329706Y-13876484D02*
X10453515Y-13876484D01*
X10624944Y-13676484D02*
X10586849Y-13676484D01*
X10586849Y-13676484D02*
X10567801Y-13686008D01*
X10567801Y-13686008D02*
X10558277Y-13695531D01*
X10558277Y-13695531D02*
X10539230Y-13724103D01*
X10539230Y-13724103D02*
X10529706Y-13762198D01*
X10529706Y-13762198D02*
X10529706Y-13838388D01*
X10529706Y-13838388D02*
X10539230Y-13857436D01*
X10539230Y-13857436D02*
X10548753Y-13866960D01*
X10548753Y-13866960D02*
X10567801Y-13876484D01*
X10567801Y-13876484D02*
X10605896Y-13876484D01*
X10605896Y-13876484D02*
X10624944Y-13866960D01*
X10624944Y-13866960D02*
X10634468Y-13857436D01*
X10634468Y-13857436D02*
X10643991Y-13838388D01*
X10643991Y-13838388D02*
X10643991Y-13790769D01*
X10643991Y-13790769D02*
X10634468Y-13771722D01*
X10634468Y-13771722D02*
X10624944Y-13762198D01*
X10624944Y-13762198D02*
X10605896Y-13752674D01*
X10605896Y-13752674D02*
X10567801Y-13752674D01*
X10567801Y-13752674D02*
X10548753Y-13762198D01*
X10548753Y-13762198D02*
X10539230Y-13771722D01*
X10539230Y-13771722D02*
X10529706Y-13790769D01*
X10882087Y-13876484D02*
X10882087Y-13676484D01*
X10967801Y-13876484D02*
X10967801Y-13771722D01*
X10967801Y-13771722D02*
X10958277Y-13752674D01*
X10958277Y-13752674D02*
X10939230Y-13743150D01*
X10939230Y-13743150D02*
X10910658Y-13743150D01*
X10910658Y-13743150D02*
X10891611Y-13752674D01*
X10891611Y-13752674D02*
X10882087Y-13762198D01*
X11091611Y-13876484D02*
X11072563Y-13866960D01*
X11072563Y-13866960D02*
X11063039Y-13857436D01*
X11063039Y-13857436D02*
X11053515Y-13838388D01*
X11053515Y-13838388D02*
X11053515Y-13781246D01*
X11053515Y-13781246D02*
X11063039Y-13762198D01*
X11063039Y-13762198D02*
X11072563Y-13752674D01*
X11072563Y-13752674D02*
X11091611Y-13743150D01*
X11091611Y-13743150D02*
X11120182Y-13743150D01*
X11120182Y-13743150D02*
X11139230Y-13752674D01*
X11139230Y-13752674D02*
X11148753Y-13762198D01*
X11148753Y-13762198D02*
X11158277Y-13781246D01*
X11158277Y-13781246D02*
X11158277Y-13838388D01*
X11158277Y-13838388D02*
X11148753Y-13857436D01*
X11148753Y-13857436D02*
X11139230Y-13866960D01*
X11139230Y-13866960D02*
X11120182Y-13876484D01*
X11120182Y-13876484D02*
X11091611Y-13876484D01*
X11272563Y-13876484D02*
X11253515Y-13866960D01*
X11253515Y-13866960D02*
X11243991Y-13847912D01*
X11243991Y-13847912D02*
X11243991Y-13676484D01*
X11424944Y-13866960D02*
X11405896Y-13876484D01*
X11405896Y-13876484D02*
X11367801Y-13876484D01*
X11367801Y-13876484D02*
X11348753Y-13866960D01*
X11348753Y-13866960D02*
X11339230Y-13847912D01*
X11339230Y-13847912D02*
X11339230Y-13771722D01*
X11339230Y-13771722D02*
X11348753Y-13752674D01*
X11348753Y-13752674D02*
X11367801Y-13743150D01*
X11367801Y-13743150D02*
X11405896Y-13743150D01*
X11405896Y-13743150D02*
X11424944Y-13752674D01*
X11424944Y-13752674D02*
X11434468Y-13771722D01*
X11434468Y-13771722D02*
X11434468Y-13790769D01*
X11434468Y-13790769D02*
X11339230Y-13809817D01*
X11510658Y-13866960D02*
X11529706Y-13876484D01*
X11529706Y-13876484D02*
X11567801Y-13876484D01*
X11567801Y-13876484D02*
X11586849Y-13866960D01*
X11586849Y-13866960D02*
X11596372Y-13847912D01*
X11596372Y-13847912D02*
X11596372Y-13838388D01*
X11596372Y-13838388D02*
X11586849Y-13819341D01*
X11586849Y-13819341D02*
X11567801Y-13809817D01*
X11567801Y-13809817D02*
X11539230Y-13809817D01*
X11539230Y-13809817D02*
X11520182Y-13800293D01*
X11520182Y-13800293D02*
X11510658Y-13781246D01*
X11510658Y-13781246D02*
X11510658Y-13771722D01*
X11510658Y-13771722D02*
X11520182Y-13752674D01*
X11520182Y-13752674D02*
X11539230Y-13743150D01*
X11539230Y-13743150D02*
X11567801Y-13743150D01*
X11567801Y-13743150D02*
X11586849Y-13752674D01*
X11663039Y-13952674D02*
X11672563Y-13943150D01*
X11672563Y-13943150D02*
X11691611Y-13914579D01*
X11691611Y-13914579D02*
X11701134Y-13895531D01*
X11701134Y-13895531D02*
X11710658Y-13866960D01*
X11710658Y-13866960D02*
X11720182Y-13819341D01*
X11720182Y-13819341D02*
X11720182Y-13781246D01*
X11720182Y-13781246D02*
X11710658Y-13733627D01*
X11710658Y-13733627D02*
X11701134Y-13705055D01*
X11701134Y-13705055D02*
X11691611Y-13686008D01*
X11691611Y-13686008D02*
X11672563Y-13657436D01*
X11672563Y-13657436D02*
X11663039Y-13647912D01*
D14*
X6512500Y-13956500D02*
X6697500Y-14141500D01*
X6697500Y-13956500D02*
X6512500Y-14141500D01*
X6605000Y-13956500D02*
X6605000Y-14141500D01*
X6512500Y-14049000D02*
X6697500Y-14049000D01*
D11*
X7063039Y-14140484D02*
X6948753Y-14140484D01*
X7005896Y-14140484D02*
X7005896Y-13940484D01*
X7005896Y-13940484D02*
X6986848Y-13969055D01*
X6986848Y-13969055D02*
X6967801Y-13988103D01*
X6967801Y-13988103D02*
X6948753Y-13997627D01*
X7148753Y-14121436D02*
X7158277Y-14130960D01*
X7158277Y-14130960D02*
X7148753Y-14140484D01*
X7148753Y-14140484D02*
X7139229Y-14130960D01*
X7139229Y-14130960D02*
X7148753Y-14121436D01*
X7148753Y-14121436D02*
X7148753Y-14140484D01*
X7272562Y-14026198D02*
X7253515Y-14016674D01*
X7253515Y-14016674D02*
X7243991Y-14007150D01*
X7243991Y-14007150D02*
X7234467Y-13988103D01*
X7234467Y-13988103D02*
X7234467Y-13978579D01*
X7234467Y-13978579D02*
X7243991Y-13959531D01*
X7243991Y-13959531D02*
X7253515Y-13950008D01*
X7253515Y-13950008D02*
X7272562Y-13940484D01*
X7272562Y-13940484D02*
X7310658Y-13940484D01*
X7310658Y-13940484D02*
X7329705Y-13950008D01*
X7329705Y-13950008D02*
X7339229Y-13959531D01*
X7339229Y-13959531D02*
X7348753Y-13978579D01*
X7348753Y-13978579D02*
X7348753Y-13988103D01*
X7348753Y-13988103D02*
X7339229Y-14007150D01*
X7339229Y-14007150D02*
X7329705Y-14016674D01*
X7329705Y-14016674D02*
X7310658Y-14026198D01*
X7310658Y-14026198D02*
X7272562Y-14026198D01*
X7272562Y-14026198D02*
X7253515Y-14035722D01*
X7253515Y-14035722D02*
X7243991Y-14045246D01*
X7243991Y-14045246D02*
X7234467Y-14064293D01*
X7234467Y-14064293D02*
X7234467Y-14102388D01*
X7234467Y-14102388D02*
X7243991Y-14121436D01*
X7243991Y-14121436D02*
X7253515Y-14130960D01*
X7253515Y-14130960D02*
X7272562Y-14140484D01*
X7272562Y-14140484D02*
X7310658Y-14140484D01*
X7310658Y-14140484D02*
X7329705Y-14130960D01*
X7329705Y-14130960D02*
X7339229Y-14121436D01*
X7339229Y-14121436D02*
X7348753Y-14102388D01*
X7348753Y-14102388D02*
X7348753Y-14064293D01*
X7348753Y-14064293D02*
X7339229Y-14045246D01*
X7339229Y-14045246D02*
X7329705Y-14035722D01*
X7329705Y-14035722D02*
X7310658Y-14026198D01*
X7529705Y-13940484D02*
X7434467Y-13940484D01*
X7434467Y-13940484D02*
X7424943Y-14035722D01*
X7424943Y-14035722D02*
X7434467Y-14026198D01*
X7434467Y-14026198D02*
X7453515Y-14016674D01*
X7453515Y-14016674D02*
X7501134Y-14016674D01*
X7501134Y-14016674D02*
X7520182Y-14026198D01*
X7520182Y-14026198D02*
X7529705Y-14035722D01*
X7529705Y-14035722D02*
X7539229Y-14054769D01*
X7539229Y-14054769D02*
X7539229Y-14102388D01*
X7539229Y-14102388D02*
X7529705Y-14121436D01*
X7529705Y-14121436D02*
X7520182Y-14130960D01*
X7520182Y-14130960D02*
X7501134Y-14140484D01*
X7501134Y-14140484D02*
X7453515Y-14140484D01*
X7453515Y-14140484D02*
X7434467Y-14130960D01*
X7434467Y-14130960D02*
X7424943Y-14121436D01*
X7663039Y-13940484D02*
X7682086Y-13940484D01*
X7682086Y-13940484D02*
X7701134Y-13950008D01*
X7701134Y-13950008D02*
X7710658Y-13959531D01*
X7710658Y-13959531D02*
X7720182Y-13978579D01*
X7720182Y-13978579D02*
X7729705Y-14016674D01*
X7729705Y-14016674D02*
X7729705Y-14064293D01*
X7729705Y-14064293D02*
X7720182Y-14102388D01*
X7720182Y-14102388D02*
X7710658Y-14121436D01*
X7710658Y-14121436D02*
X7701134Y-14130960D01*
X7701134Y-14130960D02*
X7682086Y-14140484D01*
X7682086Y-14140484D02*
X7663039Y-14140484D01*
X7663039Y-14140484D02*
X7643991Y-14130960D01*
X7643991Y-14130960D02*
X7634467Y-14121436D01*
X7634467Y-14121436D02*
X7624943Y-14102388D01*
X7624943Y-14102388D02*
X7615420Y-14064293D01*
X7615420Y-14064293D02*
X7615420Y-14016674D01*
X7615420Y-14016674D02*
X7624943Y-13978579D01*
X7624943Y-13978579D02*
X7634467Y-13959531D01*
X7634467Y-13959531D02*
X7643991Y-13950008D01*
X7643991Y-13950008D02*
X7663039Y-13940484D01*
X7815420Y-14140484D02*
X7815420Y-14007150D01*
X7815420Y-14026198D02*
X7824943Y-14016674D01*
X7824943Y-14016674D02*
X7843991Y-14007150D01*
X7843991Y-14007150D02*
X7872563Y-14007150D01*
X7872563Y-14007150D02*
X7891610Y-14016674D01*
X7891610Y-14016674D02*
X7901134Y-14035722D01*
X7901134Y-14035722D02*
X7901134Y-14140484D01*
X7901134Y-14035722D02*
X7910658Y-14016674D01*
X7910658Y-14016674D02*
X7929705Y-14007150D01*
X7929705Y-14007150D02*
X7958277Y-14007150D01*
X7958277Y-14007150D02*
X7977324Y-14016674D01*
X7977324Y-14016674D02*
X7986848Y-14035722D01*
X7986848Y-14035722D02*
X7986848Y-14140484D01*
X8082086Y-14140484D02*
X8082086Y-14007150D01*
X8082086Y-14026198D02*
X8091610Y-14016674D01*
X8091610Y-14016674D02*
X8110658Y-14007150D01*
X8110658Y-14007150D02*
X8139229Y-14007150D01*
X8139229Y-14007150D02*
X8158277Y-14016674D01*
X8158277Y-14016674D02*
X8167801Y-14035722D01*
X8167801Y-14035722D02*
X8167801Y-14140484D01*
X8167801Y-14035722D02*
X8177324Y-14016674D01*
X8177324Y-14016674D02*
X8196372Y-14007150D01*
X8196372Y-14007150D02*
X8224943Y-14007150D01*
X8224943Y-14007150D02*
X8243991Y-14016674D01*
X8243991Y-14016674D02*
X8253515Y-14035722D01*
X8253515Y-14035722D02*
X8253515Y-14140484D01*
X8643991Y-13930960D02*
X8472563Y-14188103D01*
X8901134Y-13940484D02*
X8920182Y-13940484D01*
X8920182Y-13940484D02*
X8939229Y-13950008D01*
X8939229Y-13950008D02*
X8948753Y-13959531D01*
X8948753Y-13959531D02*
X8958277Y-13978579D01*
X8958277Y-13978579D02*
X8967801Y-14016674D01*
X8967801Y-14016674D02*
X8967801Y-14064293D01*
X8967801Y-14064293D02*
X8958277Y-14102388D01*
X8958277Y-14102388D02*
X8948753Y-14121436D01*
X8948753Y-14121436D02*
X8939229Y-14130960D01*
X8939229Y-14130960D02*
X8920182Y-14140484D01*
X8920182Y-14140484D02*
X8901134Y-14140484D01*
X8901134Y-14140484D02*
X8882087Y-14130960D01*
X8882087Y-14130960D02*
X8872563Y-14121436D01*
X8872563Y-14121436D02*
X8863039Y-14102388D01*
X8863039Y-14102388D02*
X8853515Y-14064293D01*
X8853515Y-14064293D02*
X8853515Y-14016674D01*
X8853515Y-14016674D02*
X8863039Y-13978579D01*
X8863039Y-13978579D02*
X8872563Y-13959531D01*
X8872563Y-13959531D02*
X8882087Y-13950008D01*
X8882087Y-13950008D02*
X8901134Y-13940484D01*
X9053515Y-14121436D02*
X9063039Y-14130960D01*
X9063039Y-14130960D02*
X9053515Y-14140484D01*
X9053515Y-14140484D02*
X9043991Y-14130960D01*
X9043991Y-14130960D02*
X9053515Y-14121436D01*
X9053515Y-14121436D02*
X9053515Y-14140484D01*
X9186848Y-13940484D02*
X9205896Y-13940484D01*
X9205896Y-13940484D02*
X9224944Y-13950008D01*
X9224944Y-13950008D02*
X9234468Y-13959531D01*
X9234468Y-13959531D02*
X9243991Y-13978579D01*
X9243991Y-13978579D02*
X9253515Y-14016674D01*
X9253515Y-14016674D02*
X9253515Y-14064293D01*
X9253515Y-14064293D02*
X9243991Y-14102388D01*
X9243991Y-14102388D02*
X9234468Y-14121436D01*
X9234468Y-14121436D02*
X9224944Y-14130960D01*
X9224944Y-14130960D02*
X9205896Y-14140484D01*
X9205896Y-14140484D02*
X9186848Y-14140484D01*
X9186848Y-14140484D02*
X9167801Y-14130960D01*
X9167801Y-14130960D02*
X9158277Y-14121436D01*
X9158277Y-14121436D02*
X9148753Y-14102388D01*
X9148753Y-14102388D02*
X9139229Y-14064293D01*
X9139229Y-14064293D02*
X9139229Y-14016674D01*
X9139229Y-14016674D02*
X9148753Y-13978579D01*
X9148753Y-13978579D02*
X9158277Y-13959531D01*
X9158277Y-13959531D02*
X9167801Y-13950008D01*
X9167801Y-13950008D02*
X9186848Y-13940484D01*
X9320182Y-13940484D02*
X9453515Y-13940484D01*
X9453515Y-13940484D02*
X9367801Y-14140484D01*
X9520182Y-13959531D02*
X9529706Y-13950008D01*
X9529706Y-13950008D02*
X9548753Y-13940484D01*
X9548753Y-13940484D02*
X9596372Y-13940484D01*
X9596372Y-13940484D02*
X9615420Y-13950008D01*
X9615420Y-13950008D02*
X9624944Y-13959531D01*
X9624944Y-13959531D02*
X9634468Y-13978579D01*
X9634468Y-13978579D02*
X9634468Y-13997627D01*
X9634468Y-13997627D02*
X9624944Y-14026198D01*
X9624944Y-14026198D02*
X9510658Y-14140484D01*
X9510658Y-14140484D02*
X9634468Y-14140484D01*
X9748753Y-14026198D02*
X9729706Y-14016674D01*
X9729706Y-14016674D02*
X9720182Y-14007150D01*
X9720182Y-14007150D02*
X9710658Y-13988103D01*
X9710658Y-13988103D02*
X9710658Y-13978579D01*
X9710658Y-13978579D02*
X9720182Y-13959531D01*
X9720182Y-13959531D02*
X9729706Y-13950008D01*
X9729706Y-13950008D02*
X9748753Y-13940484D01*
X9748753Y-13940484D02*
X9786849Y-13940484D01*
X9786849Y-13940484D02*
X9805896Y-13950008D01*
X9805896Y-13950008D02*
X9815420Y-13959531D01*
X9815420Y-13959531D02*
X9824944Y-13978579D01*
X9824944Y-13978579D02*
X9824944Y-13988103D01*
X9824944Y-13988103D02*
X9815420Y-14007150D01*
X9815420Y-14007150D02*
X9805896Y-14016674D01*
X9805896Y-14016674D02*
X9786849Y-14026198D01*
X9786849Y-14026198D02*
X9748753Y-14026198D01*
X9748753Y-14026198D02*
X9729706Y-14035722D01*
X9729706Y-14035722D02*
X9720182Y-14045246D01*
X9720182Y-14045246D02*
X9710658Y-14064293D01*
X9710658Y-14064293D02*
X9710658Y-14102388D01*
X9710658Y-14102388D02*
X9720182Y-14121436D01*
X9720182Y-14121436D02*
X9729706Y-14130960D01*
X9729706Y-14130960D02*
X9748753Y-14140484D01*
X9748753Y-14140484D02*
X9786849Y-14140484D01*
X9786849Y-14140484D02*
X9805896Y-14130960D01*
X9805896Y-14130960D02*
X9815420Y-14121436D01*
X9815420Y-14121436D02*
X9824944Y-14102388D01*
X9824944Y-14102388D02*
X9824944Y-14064293D01*
X9824944Y-14064293D02*
X9815420Y-14045246D01*
X9815420Y-14045246D02*
X9805896Y-14035722D01*
X9805896Y-14035722D02*
X9786849Y-14026198D01*
X9901134Y-13940484D02*
X9901134Y-13978579D01*
X9977325Y-13940484D02*
X9977325Y-13978579D01*
X10272563Y-14216674D02*
X10263039Y-14207150D01*
X10263039Y-14207150D02*
X10243991Y-14178579D01*
X10243991Y-14178579D02*
X10234468Y-14159531D01*
X10234468Y-14159531D02*
X10224944Y-14130960D01*
X10224944Y-14130960D02*
X10215420Y-14083341D01*
X10215420Y-14083341D02*
X10215420Y-14045246D01*
X10215420Y-14045246D02*
X10224944Y-13997627D01*
X10224944Y-13997627D02*
X10234468Y-13969055D01*
X10234468Y-13969055D02*
X10243991Y-13950008D01*
X10243991Y-13950008D02*
X10263039Y-13921436D01*
X10263039Y-13921436D02*
X10272563Y-13911912D01*
X10339230Y-13959531D02*
X10348753Y-13950008D01*
X10348753Y-13950008D02*
X10367801Y-13940484D01*
X10367801Y-13940484D02*
X10415420Y-13940484D01*
X10415420Y-13940484D02*
X10434468Y-13950008D01*
X10434468Y-13950008D02*
X10443991Y-13959531D01*
X10443991Y-13959531D02*
X10453515Y-13978579D01*
X10453515Y-13978579D02*
X10453515Y-13997627D01*
X10453515Y-13997627D02*
X10443991Y-14026198D01*
X10443991Y-14026198D02*
X10329706Y-14140484D01*
X10329706Y-14140484D02*
X10453515Y-14140484D01*
X10691611Y-14140484D02*
X10691611Y-13940484D01*
X10777325Y-14140484D02*
X10777325Y-14035722D01*
X10777325Y-14035722D02*
X10767801Y-14016674D01*
X10767801Y-14016674D02*
X10748753Y-14007150D01*
X10748753Y-14007150D02*
X10720182Y-14007150D01*
X10720182Y-14007150D02*
X10701134Y-14016674D01*
X10701134Y-14016674D02*
X10691611Y-14026198D01*
X10901134Y-14140484D02*
X10882087Y-14130960D01*
X10882087Y-14130960D02*
X10872563Y-14121436D01*
X10872563Y-14121436D02*
X10863039Y-14102388D01*
X10863039Y-14102388D02*
X10863039Y-14045246D01*
X10863039Y-14045246D02*
X10872563Y-14026198D01*
X10872563Y-14026198D02*
X10882087Y-14016674D01*
X10882087Y-14016674D02*
X10901134Y-14007150D01*
X10901134Y-14007150D02*
X10929706Y-14007150D01*
X10929706Y-14007150D02*
X10948753Y-14016674D01*
X10948753Y-14016674D02*
X10958277Y-14026198D01*
X10958277Y-14026198D02*
X10967801Y-14045246D01*
X10967801Y-14045246D02*
X10967801Y-14102388D01*
X10967801Y-14102388D02*
X10958277Y-14121436D01*
X10958277Y-14121436D02*
X10948753Y-14130960D01*
X10948753Y-14130960D02*
X10929706Y-14140484D01*
X10929706Y-14140484D02*
X10901134Y-14140484D01*
X11082087Y-14140484D02*
X11063039Y-14130960D01*
X11063039Y-14130960D02*
X11053515Y-14111912D01*
X11053515Y-14111912D02*
X11053515Y-13940484D01*
X11234468Y-14130960D02*
X11215420Y-14140484D01*
X11215420Y-14140484D02*
X11177325Y-14140484D01*
X11177325Y-14140484D02*
X11158277Y-14130960D01*
X11158277Y-14130960D02*
X11148753Y-14111912D01*
X11148753Y-14111912D02*
X11148753Y-14035722D01*
X11148753Y-14035722D02*
X11158277Y-14016674D01*
X11158277Y-14016674D02*
X11177325Y-14007150D01*
X11177325Y-14007150D02*
X11215420Y-14007150D01*
X11215420Y-14007150D02*
X11234468Y-14016674D01*
X11234468Y-14016674D02*
X11243991Y-14035722D01*
X11243991Y-14035722D02*
X11243991Y-14054769D01*
X11243991Y-14054769D02*
X11148753Y-14073817D01*
X11320182Y-14130960D02*
X11339230Y-14140484D01*
X11339230Y-14140484D02*
X11377325Y-14140484D01*
X11377325Y-14140484D02*
X11396372Y-14130960D01*
X11396372Y-14130960D02*
X11405896Y-14111912D01*
X11405896Y-14111912D02*
X11405896Y-14102388D01*
X11405896Y-14102388D02*
X11396372Y-14083341D01*
X11396372Y-14083341D02*
X11377325Y-14073817D01*
X11377325Y-14073817D02*
X11348753Y-14073817D01*
X11348753Y-14073817D02*
X11329706Y-14064293D01*
X11329706Y-14064293D02*
X11320182Y-14045246D01*
X11320182Y-14045246D02*
X11320182Y-14035722D01*
X11320182Y-14035722D02*
X11329706Y-14016674D01*
X11329706Y-14016674D02*
X11348753Y-14007150D01*
X11348753Y-14007150D02*
X11377325Y-14007150D01*
X11377325Y-14007150D02*
X11396372Y-14016674D01*
X11472563Y-14216674D02*
X11482087Y-14207150D01*
X11482087Y-14207150D02*
X11501134Y-14178579D01*
X11501134Y-14178579D02*
X11510658Y-14159531D01*
X11510658Y-14159531D02*
X11520182Y-14130960D01*
X11520182Y-14130960D02*
X11529706Y-14083341D01*
X11529706Y-14083341D02*
X11529706Y-14045246D01*
X11529706Y-14045246D02*
X11520182Y-13997627D01*
X11520182Y-13997627D02*
X11510658Y-13969055D01*
X11510658Y-13969055D02*
X11501134Y-13950008D01*
X11501134Y-13950008D02*
X11482087Y-13921436D01*
X11482087Y-13921436D02*
X11472563Y-13911912D01*
X11834468Y-14216674D02*
X11824944Y-14207150D01*
X11824944Y-14207150D02*
X11805896Y-14178579D01*
X11805896Y-14178579D02*
X11796372Y-14159531D01*
X11796372Y-14159531D02*
X11786849Y-14130960D01*
X11786849Y-14130960D02*
X11777325Y-14083341D01*
X11777325Y-14083341D02*
X11777325Y-14045246D01*
X11777325Y-14045246D02*
X11786849Y-13997627D01*
X11786849Y-13997627D02*
X11796372Y-13969055D01*
X11796372Y-13969055D02*
X11805896Y-13950008D01*
X11805896Y-13950008D02*
X11824944Y-13921436D01*
X11824944Y-13921436D02*
X11834468Y-13911912D01*
X11910658Y-14007150D02*
X11910658Y-14140484D01*
X11910658Y-14026198D02*
X11920182Y-14016674D01*
X11920182Y-14016674D02*
X11939230Y-14007150D01*
X11939230Y-14007150D02*
X11967801Y-14007150D01*
X11967801Y-14007150D02*
X11986849Y-14016674D01*
X11986849Y-14016674D02*
X11996372Y-14035722D01*
X11996372Y-14035722D02*
X11996372Y-14140484D01*
X12120182Y-14140484D02*
X12101134Y-14130960D01*
X12101134Y-14130960D02*
X12091611Y-14121436D01*
X12091611Y-14121436D02*
X12082087Y-14102388D01*
X12082087Y-14102388D02*
X12082087Y-14045246D01*
X12082087Y-14045246D02*
X12091611Y-14026198D01*
X12091611Y-14026198D02*
X12101134Y-14016674D01*
X12101134Y-14016674D02*
X12120182Y-14007150D01*
X12120182Y-14007150D02*
X12148753Y-14007150D01*
X12148753Y-14007150D02*
X12167801Y-14016674D01*
X12167801Y-14016674D02*
X12177325Y-14026198D01*
X12177325Y-14026198D02*
X12186849Y-14045246D01*
X12186849Y-14045246D02*
X12186849Y-14102388D01*
X12186849Y-14102388D02*
X12177325Y-14121436D01*
X12177325Y-14121436D02*
X12167801Y-14130960D01*
X12167801Y-14130960D02*
X12148753Y-14140484D01*
X12148753Y-14140484D02*
X12120182Y-14140484D01*
X12243992Y-14007150D02*
X12320182Y-14007150D01*
X12272563Y-13940484D02*
X12272563Y-14111912D01*
X12272563Y-14111912D02*
X12282087Y-14130960D01*
X12282087Y-14130960D02*
X12301134Y-14140484D01*
X12301134Y-14140484D02*
X12320182Y-14140484D01*
X12539230Y-14007150D02*
X12539230Y-14207150D01*
X12539230Y-14016674D02*
X12558277Y-14007150D01*
X12558277Y-14007150D02*
X12596373Y-14007150D01*
X12596373Y-14007150D02*
X12615420Y-14016674D01*
X12615420Y-14016674D02*
X12624944Y-14026198D01*
X12624944Y-14026198D02*
X12634468Y-14045246D01*
X12634468Y-14045246D02*
X12634468Y-14102388D01*
X12634468Y-14102388D02*
X12624944Y-14121436D01*
X12624944Y-14121436D02*
X12615420Y-14130960D01*
X12615420Y-14130960D02*
X12596373Y-14140484D01*
X12596373Y-14140484D02*
X12558277Y-14140484D01*
X12558277Y-14140484D02*
X12539230Y-14130960D01*
X12748753Y-14140484D02*
X12729706Y-14130960D01*
X12729706Y-14130960D02*
X12720182Y-14111912D01*
X12720182Y-14111912D02*
X12720182Y-13940484D01*
X12910658Y-14140484D02*
X12910658Y-14035722D01*
X12910658Y-14035722D02*
X12901134Y-14016674D01*
X12901134Y-14016674D02*
X12882087Y-14007150D01*
X12882087Y-14007150D02*
X12843992Y-14007150D01*
X12843992Y-14007150D02*
X12824944Y-14016674D01*
X12910658Y-14130960D02*
X12891611Y-14140484D01*
X12891611Y-14140484D02*
X12843992Y-14140484D01*
X12843992Y-14140484D02*
X12824944Y-14130960D01*
X12824944Y-14130960D02*
X12815420Y-14111912D01*
X12815420Y-14111912D02*
X12815420Y-14092865D01*
X12815420Y-14092865D02*
X12824944Y-14073817D01*
X12824944Y-14073817D02*
X12843992Y-14064293D01*
X12843992Y-14064293D02*
X12891611Y-14064293D01*
X12891611Y-14064293D02*
X12910658Y-14054769D01*
X12977325Y-14007150D02*
X13053515Y-14007150D01*
X13005896Y-13940484D02*
X13005896Y-14111912D01*
X13005896Y-14111912D02*
X13015420Y-14130960D01*
X13015420Y-14130960D02*
X13034468Y-14140484D01*
X13034468Y-14140484D02*
X13053515Y-14140484D01*
X13196373Y-14130960D02*
X13177325Y-14140484D01*
X13177325Y-14140484D02*
X13139230Y-14140484D01*
X13139230Y-14140484D02*
X13120182Y-14130960D01*
X13120182Y-14130960D02*
X13110658Y-14111912D01*
X13110658Y-14111912D02*
X13110658Y-14035722D01*
X13110658Y-14035722D02*
X13120182Y-14016674D01*
X13120182Y-14016674D02*
X13139230Y-14007150D01*
X13139230Y-14007150D02*
X13177325Y-14007150D01*
X13177325Y-14007150D02*
X13196373Y-14016674D01*
X13196373Y-14016674D02*
X13205896Y-14035722D01*
X13205896Y-14035722D02*
X13205896Y-14054769D01*
X13205896Y-14054769D02*
X13110658Y-14073817D01*
X13377325Y-14140484D02*
X13377325Y-13940484D01*
X13377325Y-14130960D02*
X13358277Y-14140484D01*
X13358277Y-14140484D02*
X13320182Y-14140484D01*
X13320182Y-14140484D02*
X13301134Y-14130960D01*
X13301134Y-14130960D02*
X13291611Y-14121436D01*
X13291611Y-14121436D02*
X13282087Y-14102388D01*
X13282087Y-14102388D02*
X13282087Y-14045246D01*
X13282087Y-14045246D02*
X13291611Y-14026198D01*
X13291611Y-14026198D02*
X13301134Y-14016674D01*
X13301134Y-14016674D02*
X13320182Y-14007150D01*
X13320182Y-14007150D02*
X13358277Y-14007150D01*
X13358277Y-14007150D02*
X13377325Y-14016674D01*
X13453515Y-14216674D02*
X13463039Y-14207150D01*
X13463039Y-14207150D02*
X13482087Y-14178579D01*
X13482087Y-14178579D02*
X13491611Y-14159531D01*
X13491611Y-14159531D02*
X13501134Y-14130960D01*
X13501134Y-14130960D02*
X13510658Y-14083341D01*
X13510658Y-14083341D02*
X13510658Y-14045246D01*
X13510658Y-14045246D02*
X13501134Y-13997627D01*
X13501134Y-13997627D02*
X13491611Y-13969055D01*
X13491611Y-13969055D02*
X13482087Y-13950008D01*
X13482087Y-13950008D02*
X13463039Y-13921436D01*
X13463039Y-13921436D02*
X13453515Y-13911912D01*
X6497500Y-14254000D02*
X6697500Y-14454000D01*
X6697500Y-14254000D02*
X6497500Y-14454000D01*
X6668211Y-14424711D02*
X6668211Y-14283289D01*
X6526789Y-14283289D01*
X6526789Y-14424711D01*
X6668211Y-14424711D01*
X6948753Y-14264531D02*
X6958277Y-14255008D01*
X6958277Y-14255008D02*
X6977324Y-14245484D01*
X6977324Y-14245484D02*
X7024943Y-14245484D01*
X7024943Y-14245484D02*
X7043991Y-14255008D01*
X7043991Y-14255008D02*
X7053515Y-14264531D01*
X7053515Y-14264531D02*
X7063039Y-14283579D01*
X7063039Y-14283579D02*
X7063039Y-14302627D01*
X7063039Y-14302627D02*
X7053515Y-14331198D01*
X7053515Y-14331198D02*
X6939229Y-14445484D01*
X6939229Y-14445484D02*
X7063039Y-14445484D01*
X7148753Y-14426436D02*
X7158277Y-14435960D01*
X7158277Y-14435960D02*
X7148753Y-14445484D01*
X7148753Y-14445484D02*
X7139229Y-14435960D01*
X7139229Y-14435960D02*
X7148753Y-14426436D01*
X7148753Y-14426436D02*
X7148753Y-14445484D01*
X7234467Y-14264531D02*
X7243991Y-14255008D01*
X7243991Y-14255008D02*
X7263039Y-14245484D01*
X7263039Y-14245484D02*
X7310658Y-14245484D01*
X7310658Y-14245484D02*
X7329705Y-14255008D01*
X7329705Y-14255008D02*
X7339229Y-14264531D01*
X7339229Y-14264531D02*
X7348753Y-14283579D01*
X7348753Y-14283579D02*
X7348753Y-14302627D01*
X7348753Y-14302627D02*
X7339229Y-14331198D01*
X7339229Y-14331198D02*
X7224943Y-14445484D01*
X7224943Y-14445484D02*
X7348753Y-14445484D01*
X7472562Y-14245484D02*
X7491610Y-14245484D01*
X7491610Y-14245484D02*
X7510658Y-14255008D01*
X7510658Y-14255008D02*
X7520182Y-14264531D01*
X7520182Y-14264531D02*
X7529705Y-14283579D01*
X7529705Y-14283579D02*
X7539229Y-14321674D01*
X7539229Y-14321674D02*
X7539229Y-14369293D01*
X7539229Y-14369293D02*
X7529705Y-14407388D01*
X7529705Y-14407388D02*
X7520182Y-14426436D01*
X7520182Y-14426436D02*
X7510658Y-14435960D01*
X7510658Y-14435960D02*
X7491610Y-14445484D01*
X7491610Y-14445484D02*
X7472562Y-14445484D01*
X7472562Y-14445484D02*
X7453515Y-14435960D01*
X7453515Y-14435960D02*
X7443991Y-14426436D01*
X7443991Y-14426436D02*
X7434467Y-14407388D01*
X7434467Y-14407388D02*
X7424943Y-14369293D01*
X7424943Y-14369293D02*
X7424943Y-14321674D01*
X7424943Y-14321674D02*
X7434467Y-14283579D01*
X7434467Y-14283579D02*
X7443991Y-14264531D01*
X7443991Y-14264531D02*
X7453515Y-14255008D01*
X7453515Y-14255008D02*
X7472562Y-14245484D01*
X7663039Y-14245484D02*
X7682086Y-14245484D01*
X7682086Y-14245484D02*
X7701134Y-14255008D01*
X7701134Y-14255008D02*
X7710658Y-14264531D01*
X7710658Y-14264531D02*
X7720182Y-14283579D01*
X7720182Y-14283579D02*
X7729705Y-14321674D01*
X7729705Y-14321674D02*
X7729705Y-14369293D01*
X7729705Y-14369293D02*
X7720182Y-14407388D01*
X7720182Y-14407388D02*
X7710658Y-14426436D01*
X7710658Y-14426436D02*
X7701134Y-14435960D01*
X7701134Y-14435960D02*
X7682086Y-14445484D01*
X7682086Y-14445484D02*
X7663039Y-14445484D01*
X7663039Y-14445484D02*
X7643991Y-14435960D01*
X7643991Y-14435960D02*
X7634467Y-14426436D01*
X7634467Y-14426436D02*
X7624943Y-14407388D01*
X7624943Y-14407388D02*
X7615420Y-14369293D01*
X7615420Y-14369293D02*
X7615420Y-14321674D01*
X7615420Y-14321674D02*
X7624943Y-14283579D01*
X7624943Y-14283579D02*
X7634467Y-14264531D01*
X7634467Y-14264531D02*
X7643991Y-14255008D01*
X7643991Y-14255008D02*
X7663039Y-14245484D01*
X7815420Y-14445484D02*
X7815420Y-14312150D01*
X7815420Y-14331198D02*
X7824943Y-14321674D01*
X7824943Y-14321674D02*
X7843991Y-14312150D01*
X7843991Y-14312150D02*
X7872563Y-14312150D01*
X7872563Y-14312150D02*
X7891610Y-14321674D01*
X7891610Y-14321674D02*
X7901134Y-14340722D01*
X7901134Y-14340722D02*
X7901134Y-14445484D01*
X7901134Y-14340722D02*
X7910658Y-14321674D01*
X7910658Y-14321674D02*
X7929705Y-14312150D01*
X7929705Y-14312150D02*
X7958277Y-14312150D01*
X7958277Y-14312150D02*
X7977324Y-14321674D01*
X7977324Y-14321674D02*
X7986848Y-14340722D01*
X7986848Y-14340722D02*
X7986848Y-14445484D01*
X8082086Y-14445484D02*
X8082086Y-14312150D01*
X8082086Y-14331198D02*
X8091610Y-14321674D01*
X8091610Y-14321674D02*
X8110658Y-14312150D01*
X8110658Y-14312150D02*
X8139229Y-14312150D01*
X8139229Y-14312150D02*
X8158277Y-14321674D01*
X8158277Y-14321674D02*
X8167801Y-14340722D01*
X8167801Y-14340722D02*
X8167801Y-14445484D01*
X8167801Y-14340722D02*
X8177324Y-14321674D01*
X8177324Y-14321674D02*
X8196372Y-14312150D01*
X8196372Y-14312150D02*
X8224943Y-14312150D01*
X8224943Y-14312150D02*
X8243991Y-14321674D01*
X8243991Y-14321674D02*
X8253515Y-14340722D01*
X8253515Y-14340722D02*
X8253515Y-14445484D01*
X8643991Y-14235960D02*
X8472563Y-14493103D01*
X8901134Y-14245484D02*
X8920182Y-14245484D01*
X8920182Y-14245484D02*
X8939229Y-14255008D01*
X8939229Y-14255008D02*
X8948753Y-14264531D01*
X8948753Y-14264531D02*
X8958277Y-14283579D01*
X8958277Y-14283579D02*
X8967801Y-14321674D01*
X8967801Y-14321674D02*
X8967801Y-14369293D01*
X8967801Y-14369293D02*
X8958277Y-14407388D01*
X8958277Y-14407388D02*
X8948753Y-14426436D01*
X8948753Y-14426436D02*
X8939229Y-14435960D01*
X8939229Y-14435960D02*
X8920182Y-14445484D01*
X8920182Y-14445484D02*
X8901134Y-14445484D01*
X8901134Y-14445484D02*
X8882087Y-14435960D01*
X8882087Y-14435960D02*
X8872563Y-14426436D01*
X8872563Y-14426436D02*
X8863039Y-14407388D01*
X8863039Y-14407388D02*
X8853515Y-14369293D01*
X8853515Y-14369293D02*
X8853515Y-14321674D01*
X8853515Y-14321674D02*
X8863039Y-14283579D01*
X8863039Y-14283579D02*
X8872563Y-14264531D01*
X8872563Y-14264531D02*
X8882087Y-14255008D01*
X8882087Y-14255008D02*
X8901134Y-14245484D01*
X9053515Y-14426436D02*
X9063039Y-14435960D01*
X9063039Y-14435960D02*
X9053515Y-14445484D01*
X9053515Y-14445484D02*
X9043991Y-14435960D01*
X9043991Y-14435960D02*
X9053515Y-14426436D01*
X9053515Y-14426436D02*
X9053515Y-14445484D01*
X9186848Y-14245484D02*
X9205896Y-14245484D01*
X9205896Y-14245484D02*
X9224944Y-14255008D01*
X9224944Y-14255008D02*
X9234468Y-14264531D01*
X9234468Y-14264531D02*
X9243991Y-14283579D01*
X9243991Y-14283579D02*
X9253515Y-14321674D01*
X9253515Y-14321674D02*
X9253515Y-14369293D01*
X9253515Y-14369293D02*
X9243991Y-14407388D01*
X9243991Y-14407388D02*
X9234468Y-14426436D01*
X9234468Y-14426436D02*
X9224944Y-14435960D01*
X9224944Y-14435960D02*
X9205896Y-14445484D01*
X9205896Y-14445484D02*
X9186848Y-14445484D01*
X9186848Y-14445484D02*
X9167801Y-14435960D01*
X9167801Y-14435960D02*
X9158277Y-14426436D01*
X9158277Y-14426436D02*
X9148753Y-14407388D01*
X9148753Y-14407388D02*
X9139229Y-14369293D01*
X9139229Y-14369293D02*
X9139229Y-14321674D01*
X9139229Y-14321674D02*
X9148753Y-14283579D01*
X9148753Y-14283579D02*
X9158277Y-14264531D01*
X9158277Y-14264531D02*
X9167801Y-14255008D01*
X9167801Y-14255008D02*
X9186848Y-14245484D01*
X9367801Y-14331198D02*
X9348753Y-14321674D01*
X9348753Y-14321674D02*
X9339229Y-14312150D01*
X9339229Y-14312150D02*
X9329706Y-14293103D01*
X9329706Y-14293103D02*
X9329706Y-14283579D01*
X9329706Y-14283579D02*
X9339229Y-14264531D01*
X9339229Y-14264531D02*
X9348753Y-14255008D01*
X9348753Y-14255008D02*
X9367801Y-14245484D01*
X9367801Y-14245484D02*
X9405896Y-14245484D01*
X9405896Y-14245484D02*
X9424944Y-14255008D01*
X9424944Y-14255008D02*
X9434468Y-14264531D01*
X9434468Y-14264531D02*
X9443991Y-14283579D01*
X9443991Y-14283579D02*
X9443991Y-14293103D01*
X9443991Y-14293103D02*
X9434468Y-14312150D01*
X9434468Y-14312150D02*
X9424944Y-14321674D01*
X9424944Y-14321674D02*
X9405896Y-14331198D01*
X9405896Y-14331198D02*
X9367801Y-14331198D01*
X9367801Y-14331198D02*
X9348753Y-14340722D01*
X9348753Y-14340722D02*
X9339229Y-14350246D01*
X9339229Y-14350246D02*
X9329706Y-14369293D01*
X9329706Y-14369293D02*
X9329706Y-14407388D01*
X9329706Y-14407388D02*
X9339229Y-14426436D01*
X9339229Y-14426436D02*
X9348753Y-14435960D01*
X9348753Y-14435960D02*
X9367801Y-14445484D01*
X9367801Y-14445484D02*
X9405896Y-14445484D01*
X9405896Y-14445484D02*
X9424944Y-14435960D01*
X9424944Y-14435960D02*
X9434468Y-14426436D01*
X9434468Y-14426436D02*
X9443991Y-14407388D01*
X9443991Y-14407388D02*
X9443991Y-14369293D01*
X9443991Y-14369293D02*
X9434468Y-14350246D01*
X9434468Y-14350246D02*
X9424944Y-14340722D01*
X9424944Y-14340722D02*
X9405896Y-14331198D01*
X9615420Y-14245484D02*
X9577325Y-14245484D01*
X9577325Y-14245484D02*
X9558277Y-14255008D01*
X9558277Y-14255008D02*
X9548753Y-14264531D01*
X9548753Y-14264531D02*
X9529706Y-14293103D01*
X9529706Y-14293103D02*
X9520182Y-14331198D01*
X9520182Y-14331198D02*
X9520182Y-14407388D01*
X9520182Y-14407388D02*
X9529706Y-14426436D01*
X9529706Y-14426436D02*
X9539229Y-14435960D01*
X9539229Y-14435960D02*
X9558277Y-14445484D01*
X9558277Y-14445484D02*
X9596372Y-14445484D01*
X9596372Y-14445484D02*
X9615420Y-14435960D01*
X9615420Y-14435960D02*
X9624944Y-14426436D01*
X9624944Y-14426436D02*
X9634468Y-14407388D01*
X9634468Y-14407388D02*
X9634468Y-14359769D01*
X9634468Y-14359769D02*
X9624944Y-14340722D01*
X9624944Y-14340722D02*
X9615420Y-14331198D01*
X9615420Y-14331198D02*
X9596372Y-14321674D01*
X9596372Y-14321674D02*
X9558277Y-14321674D01*
X9558277Y-14321674D02*
X9539229Y-14331198D01*
X9539229Y-14331198D02*
X9529706Y-14340722D01*
X9529706Y-14340722D02*
X9520182Y-14359769D01*
X9805896Y-14245484D02*
X9767801Y-14245484D01*
X9767801Y-14245484D02*
X9748753Y-14255008D01*
X9748753Y-14255008D02*
X9739229Y-14264531D01*
X9739229Y-14264531D02*
X9720182Y-14293103D01*
X9720182Y-14293103D02*
X9710658Y-14331198D01*
X9710658Y-14331198D02*
X9710658Y-14407388D01*
X9710658Y-14407388D02*
X9720182Y-14426436D01*
X9720182Y-14426436D02*
X9729706Y-14435960D01*
X9729706Y-14435960D02*
X9748753Y-14445484D01*
X9748753Y-14445484D02*
X9786849Y-14445484D01*
X9786849Y-14445484D02*
X9805896Y-14435960D01*
X9805896Y-14435960D02*
X9815420Y-14426436D01*
X9815420Y-14426436D02*
X9824944Y-14407388D01*
X9824944Y-14407388D02*
X9824944Y-14359769D01*
X9824944Y-14359769D02*
X9815420Y-14340722D01*
X9815420Y-14340722D02*
X9805896Y-14331198D01*
X9805896Y-14331198D02*
X9786849Y-14321674D01*
X9786849Y-14321674D02*
X9748753Y-14321674D01*
X9748753Y-14321674D02*
X9729706Y-14331198D01*
X9729706Y-14331198D02*
X9720182Y-14340722D01*
X9720182Y-14340722D02*
X9710658Y-14359769D01*
X9901134Y-14245484D02*
X9901134Y-14283579D01*
X9977325Y-14245484D02*
X9977325Y-14283579D01*
X10272563Y-14521674D02*
X10263039Y-14512150D01*
X10263039Y-14512150D02*
X10243991Y-14483579D01*
X10243991Y-14483579D02*
X10234468Y-14464531D01*
X10234468Y-14464531D02*
X10224944Y-14435960D01*
X10224944Y-14435960D02*
X10215420Y-14388341D01*
X10215420Y-14388341D02*
X10215420Y-14350246D01*
X10215420Y-14350246D02*
X10224944Y-14302627D01*
X10224944Y-14302627D02*
X10234468Y-14274055D01*
X10234468Y-14274055D02*
X10243991Y-14255008D01*
X10243991Y-14255008D02*
X10263039Y-14226436D01*
X10263039Y-14226436D02*
X10272563Y-14216912D01*
X10339230Y-14264531D02*
X10348753Y-14255008D01*
X10348753Y-14255008D02*
X10367801Y-14245484D01*
X10367801Y-14245484D02*
X10415420Y-14245484D01*
X10415420Y-14245484D02*
X10434468Y-14255008D01*
X10434468Y-14255008D02*
X10443991Y-14264531D01*
X10443991Y-14264531D02*
X10453515Y-14283579D01*
X10453515Y-14283579D02*
X10453515Y-14302627D01*
X10453515Y-14302627D02*
X10443991Y-14331198D01*
X10443991Y-14331198D02*
X10329706Y-14445484D01*
X10329706Y-14445484D02*
X10453515Y-14445484D01*
X10691611Y-14445484D02*
X10691611Y-14245484D01*
X10777325Y-14445484D02*
X10777325Y-14340722D01*
X10777325Y-14340722D02*
X10767801Y-14321674D01*
X10767801Y-14321674D02*
X10748753Y-14312150D01*
X10748753Y-14312150D02*
X10720182Y-14312150D01*
X10720182Y-14312150D02*
X10701134Y-14321674D01*
X10701134Y-14321674D02*
X10691611Y-14331198D01*
X10901134Y-14445484D02*
X10882087Y-14435960D01*
X10882087Y-14435960D02*
X10872563Y-14426436D01*
X10872563Y-14426436D02*
X10863039Y-14407388D01*
X10863039Y-14407388D02*
X10863039Y-14350246D01*
X10863039Y-14350246D02*
X10872563Y-14331198D01*
X10872563Y-14331198D02*
X10882087Y-14321674D01*
X10882087Y-14321674D02*
X10901134Y-14312150D01*
X10901134Y-14312150D02*
X10929706Y-14312150D01*
X10929706Y-14312150D02*
X10948753Y-14321674D01*
X10948753Y-14321674D02*
X10958277Y-14331198D01*
X10958277Y-14331198D02*
X10967801Y-14350246D01*
X10967801Y-14350246D02*
X10967801Y-14407388D01*
X10967801Y-14407388D02*
X10958277Y-14426436D01*
X10958277Y-14426436D02*
X10948753Y-14435960D01*
X10948753Y-14435960D02*
X10929706Y-14445484D01*
X10929706Y-14445484D02*
X10901134Y-14445484D01*
X11082087Y-14445484D02*
X11063039Y-14435960D01*
X11063039Y-14435960D02*
X11053515Y-14416912D01*
X11053515Y-14416912D02*
X11053515Y-14245484D01*
X11234468Y-14435960D02*
X11215420Y-14445484D01*
X11215420Y-14445484D02*
X11177325Y-14445484D01*
X11177325Y-14445484D02*
X11158277Y-14435960D01*
X11158277Y-14435960D02*
X11148753Y-14416912D01*
X11148753Y-14416912D02*
X11148753Y-14340722D01*
X11148753Y-14340722D02*
X11158277Y-14321674D01*
X11158277Y-14321674D02*
X11177325Y-14312150D01*
X11177325Y-14312150D02*
X11215420Y-14312150D01*
X11215420Y-14312150D02*
X11234468Y-14321674D01*
X11234468Y-14321674D02*
X11243991Y-14340722D01*
X11243991Y-14340722D02*
X11243991Y-14359769D01*
X11243991Y-14359769D02*
X11148753Y-14378817D01*
X11320182Y-14435960D02*
X11339230Y-14445484D01*
X11339230Y-14445484D02*
X11377325Y-14445484D01*
X11377325Y-14445484D02*
X11396372Y-14435960D01*
X11396372Y-14435960D02*
X11405896Y-14416912D01*
X11405896Y-14416912D02*
X11405896Y-14407388D01*
X11405896Y-14407388D02*
X11396372Y-14388341D01*
X11396372Y-14388341D02*
X11377325Y-14378817D01*
X11377325Y-14378817D02*
X11348753Y-14378817D01*
X11348753Y-14378817D02*
X11329706Y-14369293D01*
X11329706Y-14369293D02*
X11320182Y-14350246D01*
X11320182Y-14350246D02*
X11320182Y-14340722D01*
X11320182Y-14340722D02*
X11329706Y-14321674D01*
X11329706Y-14321674D02*
X11348753Y-14312150D01*
X11348753Y-14312150D02*
X11377325Y-14312150D01*
X11377325Y-14312150D02*
X11396372Y-14321674D01*
X11472563Y-14521674D02*
X11482087Y-14512150D01*
X11482087Y-14512150D02*
X11501134Y-14483579D01*
X11501134Y-14483579D02*
X11510658Y-14464531D01*
X11510658Y-14464531D02*
X11520182Y-14435960D01*
X11520182Y-14435960D02*
X11529706Y-14388341D01*
X11529706Y-14388341D02*
X11529706Y-14350246D01*
X11529706Y-14350246D02*
X11520182Y-14302627D01*
X11520182Y-14302627D02*
X11510658Y-14274055D01*
X11510658Y-14274055D02*
X11501134Y-14255008D01*
X11501134Y-14255008D02*
X11482087Y-14226436D01*
X11482087Y-14226436D02*
X11472563Y-14216912D01*
X11834468Y-14521674D02*
X11824944Y-14512150D01*
X11824944Y-14512150D02*
X11805896Y-14483579D01*
X11805896Y-14483579D02*
X11796372Y-14464531D01*
X11796372Y-14464531D02*
X11786849Y-14435960D01*
X11786849Y-14435960D02*
X11777325Y-14388341D01*
X11777325Y-14388341D02*
X11777325Y-14350246D01*
X11777325Y-14350246D02*
X11786849Y-14302627D01*
X11786849Y-14302627D02*
X11796372Y-14274055D01*
X11796372Y-14274055D02*
X11805896Y-14255008D01*
X11805896Y-14255008D02*
X11824944Y-14226436D01*
X11824944Y-14226436D02*
X11834468Y-14216912D01*
X11910658Y-14312150D02*
X11910658Y-14445484D01*
X11910658Y-14331198D02*
X11920182Y-14321674D01*
X11920182Y-14321674D02*
X11939230Y-14312150D01*
X11939230Y-14312150D02*
X11967801Y-14312150D01*
X11967801Y-14312150D02*
X11986849Y-14321674D01*
X11986849Y-14321674D02*
X11996372Y-14340722D01*
X11996372Y-14340722D02*
X11996372Y-14445484D01*
X12120182Y-14445484D02*
X12101134Y-14435960D01*
X12101134Y-14435960D02*
X12091611Y-14426436D01*
X12091611Y-14426436D02*
X12082087Y-14407388D01*
X12082087Y-14407388D02*
X12082087Y-14350246D01*
X12082087Y-14350246D02*
X12091611Y-14331198D01*
X12091611Y-14331198D02*
X12101134Y-14321674D01*
X12101134Y-14321674D02*
X12120182Y-14312150D01*
X12120182Y-14312150D02*
X12148753Y-14312150D01*
X12148753Y-14312150D02*
X12167801Y-14321674D01*
X12167801Y-14321674D02*
X12177325Y-14331198D01*
X12177325Y-14331198D02*
X12186849Y-14350246D01*
X12186849Y-14350246D02*
X12186849Y-14407388D01*
X12186849Y-14407388D02*
X12177325Y-14426436D01*
X12177325Y-14426436D02*
X12167801Y-14435960D01*
X12167801Y-14435960D02*
X12148753Y-14445484D01*
X12148753Y-14445484D02*
X12120182Y-14445484D01*
X12243992Y-14312150D02*
X12320182Y-14312150D01*
X12272563Y-14245484D02*
X12272563Y-14416912D01*
X12272563Y-14416912D02*
X12282087Y-14435960D01*
X12282087Y-14435960D02*
X12301134Y-14445484D01*
X12301134Y-14445484D02*
X12320182Y-14445484D01*
X12539230Y-14312150D02*
X12539230Y-14512150D01*
X12539230Y-14321674D02*
X12558277Y-14312150D01*
X12558277Y-14312150D02*
X12596373Y-14312150D01*
X12596373Y-14312150D02*
X12615420Y-14321674D01*
X12615420Y-14321674D02*
X12624944Y-14331198D01*
X12624944Y-14331198D02*
X12634468Y-14350246D01*
X12634468Y-14350246D02*
X12634468Y-14407388D01*
X12634468Y-14407388D02*
X12624944Y-14426436D01*
X12624944Y-14426436D02*
X12615420Y-14435960D01*
X12615420Y-14435960D02*
X12596373Y-14445484D01*
X12596373Y-14445484D02*
X12558277Y-14445484D01*
X12558277Y-14445484D02*
X12539230Y-14435960D01*
X12748753Y-14445484D02*
X12729706Y-14435960D01*
X12729706Y-14435960D02*
X12720182Y-14416912D01*
X12720182Y-14416912D02*
X12720182Y-14245484D01*
X12910658Y-14445484D02*
X12910658Y-14340722D01*
X12910658Y-14340722D02*
X12901134Y-14321674D01*
X12901134Y-14321674D02*
X12882087Y-14312150D01*
X12882087Y-14312150D02*
X12843992Y-14312150D01*
X12843992Y-14312150D02*
X12824944Y-14321674D01*
X12910658Y-14435960D02*
X12891611Y-14445484D01*
X12891611Y-14445484D02*
X12843992Y-14445484D01*
X12843992Y-14445484D02*
X12824944Y-14435960D01*
X12824944Y-14435960D02*
X12815420Y-14416912D01*
X12815420Y-14416912D02*
X12815420Y-14397865D01*
X12815420Y-14397865D02*
X12824944Y-14378817D01*
X12824944Y-14378817D02*
X12843992Y-14369293D01*
X12843992Y-14369293D02*
X12891611Y-14369293D01*
X12891611Y-14369293D02*
X12910658Y-14359769D01*
X12977325Y-14312150D02*
X13053515Y-14312150D01*
X13005896Y-14245484D02*
X13005896Y-14416912D01*
X13005896Y-14416912D02*
X13015420Y-14435960D01*
X13015420Y-14435960D02*
X13034468Y-14445484D01*
X13034468Y-14445484D02*
X13053515Y-14445484D01*
X13196373Y-14435960D02*
X13177325Y-14445484D01*
X13177325Y-14445484D02*
X13139230Y-14445484D01*
X13139230Y-14445484D02*
X13120182Y-14435960D01*
X13120182Y-14435960D02*
X13110658Y-14416912D01*
X13110658Y-14416912D02*
X13110658Y-14340722D01*
X13110658Y-14340722D02*
X13120182Y-14321674D01*
X13120182Y-14321674D02*
X13139230Y-14312150D01*
X13139230Y-14312150D02*
X13177325Y-14312150D01*
X13177325Y-14312150D02*
X13196373Y-14321674D01*
X13196373Y-14321674D02*
X13205896Y-14340722D01*
X13205896Y-14340722D02*
X13205896Y-14359769D01*
X13205896Y-14359769D02*
X13110658Y-14378817D01*
X13377325Y-14445484D02*
X13377325Y-14245484D01*
X13377325Y-14435960D02*
X13358277Y-14445484D01*
X13358277Y-14445484D02*
X13320182Y-14445484D01*
X13320182Y-14445484D02*
X13301134Y-14435960D01*
X13301134Y-14435960D02*
X13291611Y-14426436D01*
X13291611Y-14426436D02*
X13282087Y-14407388D01*
X13282087Y-14407388D02*
X13282087Y-14350246D01*
X13282087Y-14350246D02*
X13291611Y-14331198D01*
X13291611Y-14331198D02*
X13301134Y-14321674D01*
X13301134Y-14321674D02*
X13320182Y-14312150D01*
X13320182Y-14312150D02*
X13358277Y-14312150D01*
X13358277Y-14312150D02*
X13377325Y-14321674D01*
X13453515Y-14521674D02*
X13463039Y-14512150D01*
X13463039Y-14512150D02*
X13482087Y-14483579D01*
X13482087Y-14483579D02*
X13491611Y-14464531D01*
X13491611Y-14464531D02*
X13501134Y-14435960D01*
X13501134Y-14435960D02*
X13510658Y-14388341D01*
X13510658Y-14388341D02*
X13510658Y-14350246D01*
X13510658Y-14350246D02*
X13501134Y-14302627D01*
X13501134Y-14302627D02*
X13491611Y-14274055D01*
X13491611Y-14274055D02*
X13482087Y-14255008D01*
X13482087Y-14255008D02*
X13463039Y-14226436D01*
X13463039Y-14226436D02*
X13453515Y-14216912D01*
X6497500Y-14574000D02*
X6697500Y-14774000D01*
X6697500Y-14574000D02*
X6497500Y-14774000D01*
X6597500Y-14774000D02*
X6697500Y-14674000D01*
X6597500Y-14574000D01*
X6497500Y-14674000D01*
X6597500Y-14774000D01*
X6939229Y-14565484D02*
X7063039Y-14565484D01*
X7063039Y-14565484D02*
X6996372Y-14641674D01*
X6996372Y-14641674D02*
X7024943Y-14641674D01*
X7024943Y-14641674D02*
X7043991Y-14651198D01*
X7043991Y-14651198D02*
X7053515Y-14660722D01*
X7053515Y-14660722D02*
X7063039Y-14679769D01*
X7063039Y-14679769D02*
X7063039Y-14727388D01*
X7063039Y-14727388D02*
X7053515Y-14746436D01*
X7053515Y-14746436D02*
X7043991Y-14755960D01*
X7043991Y-14755960D02*
X7024943Y-14765484D01*
X7024943Y-14765484D02*
X6967801Y-14765484D01*
X6967801Y-14765484D02*
X6948753Y-14755960D01*
X6948753Y-14755960D02*
X6939229Y-14746436D01*
X7148753Y-14746436D02*
X7158277Y-14755960D01*
X7158277Y-14755960D02*
X7148753Y-14765484D01*
X7148753Y-14765484D02*
X7139229Y-14755960D01*
X7139229Y-14755960D02*
X7148753Y-14746436D01*
X7148753Y-14746436D02*
X7148753Y-14765484D01*
X7234467Y-14584531D02*
X7243991Y-14575008D01*
X7243991Y-14575008D02*
X7263039Y-14565484D01*
X7263039Y-14565484D02*
X7310658Y-14565484D01*
X7310658Y-14565484D02*
X7329705Y-14575008D01*
X7329705Y-14575008D02*
X7339229Y-14584531D01*
X7339229Y-14584531D02*
X7348753Y-14603579D01*
X7348753Y-14603579D02*
X7348753Y-14622627D01*
X7348753Y-14622627D02*
X7339229Y-14651198D01*
X7339229Y-14651198D02*
X7224943Y-14765484D01*
X7224943Y-14765484D02*
X7348753Y-14765484D01*
X7472562Y-14565484D02*
X7491610Y-14565484D01*
X7491610Y-14565484D02*
X7510658Y-14575008D01*
X7510658Y-14575008D02*
X7520182Y-14584531D01*
X7520182Y-14584531D02*
X7529705Y-14603579D01*
X7529705Y-14603579D02*
X7539229Y-14641674D01*
X7539229Y-14641674D02*
X7539229Y-14689293D01*
X7539229Y-14689293D02*
X7529705Y-14727388D01*
X7529705Y-14727388D02*
X7520182Y-14746436D01*
X7520182Y-14746436D02*
X7510658Y-14755960D01*
X7510658Y-14755960D02*
X7491610Y-14765484D01*
X7491610Y-14765484D02*
X7472562Y-14765484D01*
X7472562Y-14765484D02*
X7453515Y-14755960D01*
X7453515Y-14755960D02*
X7443991Y-14746436D01*
X7443991Y-14746436D02*
X7434467Y-14727388D01*
X7434467Y-14727388D02*
X7424943Y-14689293D01*
X7424943Y-14689293D02*
X7424943Y-14641674D01*
X7424943Y-14641674D02*
X7434467Y-14603579D01*
X7434467Y-14603579D02*
X7443991Y-14584531D01*
X7443991Y-14584531D02*
X7453515Y-14575008D01*
X7453515Y-14575008D02*
X7472562Y-14565484D01*
X7663039Y-14565484D02*
X7682086Y-14565484D01*
X7682086Y-14565484D02*
X7701134Y-14575008D01*
X7701134Y-14575008D02*
X7710658Y-14584531D01*
X7710658Y-14584531D02*
X7720182Y-14603579D01*
X7720182Y-14603579D02*
X7729705Y-14641674D01*
X7729705Y-14641674D02*
X7729705Y-14689293D01*
X7729705Y-14689293D02*
X7720182Y-14727388D01*
X7720182Y-14727388D02*
X7710658Y-14746436D01*
X7710658Y-14746436D02*
X7701134Y-14755960D01*
X7701134Y-14755960D02*
X7682086Y-14765484D01*
X7682086Y-14765484D02*
X7663039Y-14765484D01*
X7663039Y-14765484D02*
X7643991Y-14755960D01*
X7643991Y-14755960D02*
X7634467Y-14746436D01*
X7634467Y-14746436D02*
X7624943Y-14727388D01*
X7624943Y-14727388D02*
X7615420Y-14689293D01*
X7615420Y-14689293D02*
X7615420Y-14641674D01*
X7615420Y-14641674D02*
X7624943Y-14603579D01*
X7624943Y-14603579D02*
X7634467Y-14584531D01*
X7634467Y-14584531D02*
X7643991Y-14575008D01*
X7643991Y-14575008D02*
X7663039Y-14565484D01*
X7815420Y-14765484D02*
X7815420Y-14632150D01*
X7815420Y-14651198D02*
X7824943Y-14641674D01*
X7824943Y-14641674D02*
X7843991Y-14632150D01*
X7843991Y-14632150D02*
X7872563Y-14632150D01*
X7872563Y-14632150D02*
X7891610Y-14641674D01*
X7891610Y-14641674D02*
X7901134Y-14660722D01*
X7901134Y-14660722D02*
X7901134Y-14765484D01*
X7901134Y-14660722D02*
X7910658Y-14641674D01*
X7910658Y-14641674D02*
X7929705Y-14632150D01*
X7929705Y-14632150D02*
X7958277Y-14632150D01*
X7958277Y-14632150D02*
X7977324Y-14641674D01*
X7977324Y-14641674D02*
X7986848Y-14660722D01*
X7986848Y-14660722D02*
X7986848Y-14765484D01*
X8082086Y-14765484D02*
X8082086Y-14632150D01*
X8082086Y-14651198D02*
X8091610Y-14641674D01*
X8091610Y-14641674D02*
X8110658Y-14632150D01*
X8110658Y-14632150D02*
X8139229Y-14632150D01*
X8139229Y-14632150D02*
X8158277Y-14641674D01*
X8158277Y-14641674D02*
X8167801Y-14660722D01*
X8167801Y-14660722D02*
X8167801Y-14765484D01*
X8167801Y-14660722D02*
X8177324Y-14641674D01*
X8177324Y-14641674D02*
X8196372Y-14632150D01*
X8196372Y-14632150D02*
X8224943Y-14632150D01*
X8224943Y-14632150D02*
X8243991Y-14641674D01*
X8243991Y-14641674D02*
X8253515Y-14660722D01*
X8253515Y-14660722D02*
X8253515Y-14765484D01*
X8643991Y-14555960D02*
X8472563Y-14813103D01*
X8901134Y-14565484D02*
X8920182Y-14565484D01*
X8920182Y-14565484D02*
X8939229Y-14575008D01*
X8939229Y-14575008D02*
X8948753Y-14584531D01*
X8948753Y-14584531D02*
X8958277Y-14603579D01*
X8958277Y-14603579D02*
X8967801Y-14641674D01*
X8967801Y-14641674D02*
X8967801Y-14689293D01*
X8967801Y-14689293D02*
X8958277Y-14727388D01*
X8958277Y-14727388D02*
X8948753Y-14746436D01*
X8948753Y-14746436D02*
X8939229Y-14755960D01*
X8939229Y-14755960D02*
X8920182Y-14765484D01*
X8920182Y-14765484D02*
X8901134Y-14765484D01*
X8901134Y-14765484D02*
X8882087Y-14755960D01*
X8882087Y-14755960D02*
X8872563Y-14746436D01*
X8872563Y-14746436D02*
X8863039Y-14727388D01*
X8863039Y-14727388D02*
X8853515Y-14689293D01*
X8853515Y-14689293D02*
X8853515Y-14641674D01*
X8853515Y-14641674D02*
X8863039Y-14603579D01*
X8863039Y-14603579D02*
X8872563Y-14584531D01*
X8872563Y-14584531D02*
X8882087Y-14575008D01*
X8882087Y-14575008D02*
X8901134Y-14565484D01*
X9053515Y-14746436D02*
X9063039Y-14755960D01*
X9063039Y-14755960D02*
X9053515Y-14765484D01*
X9053515Y-14765484D02*
X9043991Y-14755960D01*
X9043991Y-14755960D02*
X9053515Y-14746436D01*
X9053515Y-14746436D02*
X9053515Y-14765484D01*
X9253515Y-14765484D02*
X9139229Y-14765484D01*
X9196372Y-14765484D02*
X9196372Y-14565484D01*
X9196372Y-14565484D02*
X9177325Y-14594055D01*
X9177325Y-14594055D02*
X9158277Y-14613103D01*
X9158277Y-14613103D02*
X9139229Y-14622627D01*
X9329706Y-14584531D02*
X9339229Y-14575008D01*
X9339229Y-14575008D02*
X9358277Y-14565484D01*
X9358277Y-14565484D02*
X9405896Y-14565484D01*
X9405896Y-14565484D02*
X9424944Y-14575008D01*
X9424944Y-14575008D02*
X9434468Y-14584531D01*
X9434468Y-14584531D02*
X9443991Y-14603579D01*
X9443991Y-14603579D02*
X9443991Y-14622627D01*
X9443991Y-14622627D02*
X9434468Y-14651198D01*
X9434468Y-14651198D02*
X9320182Y-14765484D01*
X9320182Y-14765484D02*
X9443991Y-14765484D01*
X9615420Y-14565484D02*
X9577325Y-14565484D01*
X9577325Y-14565484D02*
X9558277Y-14575008D01*
X9558277Y-14575008D02*
X9548753Y-14584531D01*
X9548753Y-14584531D02*
X9529706Y-14613103D01*
X9529706Y-14613103D02*
X9520182Y-14651198D01*
X9520182Y-14651198D02*
X9520182Y-14727388D01*
X9520182Y-14727388D02*
X9529706Y-14746436D01*
X9529706Y-14746436D02*
X9539229Y-14755960D01*
X9539229Y-14755960D02*
X9558277Y-14765484D01*
X9558277Y-14765484D02*
X9596372Y-14765484D01*
X9596372Y-14765484D02*
X9615420Y-14755960D01*
X9615420Y-14755960D02*
X9624944Y-14746436D01*
X9624944Y-14746436D02*
X9634468Y-14727388D01*
X9634468Y-14727388D02*
X9634468Y-14679769D01*
X9634468Y-14679769D02*
X9624944Y-14660722D01*
X9624944Y-14660722D02*
X9615420Y-14651198D01*
X9615420Y-14651198D02*
X9596372Y-14641674D01*
X9596372Y-14641674D02*
X9558277Y-14641674D01*
X9558277Y-14641674D02*
X9539229Y-14651198D01*
X9539229Y-14651198D02*
X9529706Y-14660722D01*
X9529706Y-14660722D02*
X9520182Y-14679769D01*
X9758277Y-14565484D02*
X9777325Y-14565484D01*
X9777325Y-14565484D02*
X9796372Y-14575008D01*
X9796372Y-14575008D02*
X9805896Y-14584531D01*
X9805896Y-14584531D02*
X9815420Y-14603579D01*
X9815420Y-14603579D02*
X9824944Y-14641674D01*
X9824944Y-14641674D02*
X9824944Y-14689293D01*
X9824944Y-14689293D02*
X9815420Y-14727388D01*
X9815420Y-14727388D02*
X9805896Y-14746436D01*
X9805896Y-14746436D02*
X9796372Y-14755960D01*
X9796372Y-14755960D02*
X9777325Y-14765484D01*
X9777325Y-14765484D02*
X9758277Y-14765484D01*
X9758277Y-14765484D02*
X9739229Y-14755960D01*
X9739229Y-14755960D02*
X9729706Y-14746436D01*
X9729706Y-14746436D02*
X9720182Y-14727388D01*
X9720182Y-14727388D02*
X9710658Y-14689293D01*
X9710658Y-14689293D02*
X9710658Y-14641674D01*
X9710658Y-14641674D02*
X9720182Y-14603579D01*
X9720182Y-14603579D02*
X9729706Y-14584531D01*
X9729706Y-14584531D02*
X9739229Y-14575008D01*
X9739229Y-14575008D02*
X9758277Y-14565484D01*
X9901134Y-14565484D02*
X9901134Y-14603579D01*
X9977325Y-14565484D02*
X9977325Y-14603579D01*
X10272563Y-14841674D02*
X10263039Y-14832150D01*
X10263039Y-14832150D02*
X10243991Y-14803579D01*
X10243991Y-14803579D02*
X10234468Y-14784531D01*
X10234468Y-14784531D02*
X10224944Y-14755960D01*
X10224944Y-14755960D02*
X10215420Y-14708341D01*
X10215420Y-14708341D02*
X10215420Y-14670246D01*
X10215420Y-14670246D02*
X10224944Y-14622627D01*
X10224944Y-14622627D02*
X10234468Y-14594055D01*
X10234468Y-14594055D02*
X10243991Y-14575008D01*
X10243991Y-14575008D02*
X10263039Y-14546436D01*
X10263039Y-14546436D02*
X10272563Y-14536912D01*
X10434468Y-14632150D02*
X10434468Y-14765484D01*
X10386849Y-14555960D02*
X10339230Y-14698817D01*
X10339230Y-14698817D02*
X10463039Y-14698817D01*
X10691611Y-14765484D02*
X10691611Y-14565484D01*
X10777325Y-14765484D02*
X10777325Y-14660722D01*
X10777325Y-14660722D02*
X10767801Y-14641674D01*
X10767801Y-14641674D02*
X10748753Y-14632150D01*
X10748753Y-14632150D02*
X10720182Y-14632150D01*
X10720182Y-14632150D02*
X10701134Y-14641674D01*
X10701134Y-14641674D02*
X10691611Y-14651198D01*
X10901134Y-14765484D02*
X10882087Y-14755960D01*
X10882087Y-14755960D02*
X10872563Y-14746436D01*
X10872563Y-14746436D02*
X10863039Y-14727388D01*
X10863039Y-14727388D02*
X10863039Y-14670246D01*
X10863039Y-14670246D02*
X10872563Y-14651198D01*
X10872563Y-14651198D02*
X10882087Y-14641674D01*
X10882087Y-14641674D02*
X10901134Y-14632150D01*
X10901134Y-14632150D02*
X10929706Y-14632150D01*
X10929706Y-14632150D02*
X10948753Y-14641674D01*
X10948753Y-14641674D02*
X10958277Y-14651198D01*
X10958277Y-14651198D02*
X10967801Y-14670246D01*
X10967801Y-14670246D02*
X10967801Y-14727388D01*
X10967801Y-14727388D02*
X10958277Y-14746436D01*
X10958277Y-14746436D02*
X10948753Y-14755960D01*
X10948753Y-14755960D02*
X10929706Y-14765484D01*
X10929706Y-14765484D02*
X10901134Y-14765484D01*
X11082087Y-14765484D02*
X11063039Y-14755960D01*
X11063039Y-14755960D02*
X11053515Y-14736912D01*
X11053515Y-14736912D02*
X11053515Y-14565484D01*
X11234468Y-14755960D02*
X11215420Y-14765484D01*
X11215420Y-14765484D02*
X11177325Y-14765484D01*
X11177325Y-14765484D02*
X11158277Y-14755960D01*
X11158277Y-14755960D02*
X11148753Y-14736912D01*
X11148753Y-14736912D02*
X11148753Y-14660722D01*
X11148753Y-14660722D02*
X11158277Y-14641674D01*
X11158277Y-14641674D02*
X11177325Y-14632150D01*
X11177325Y-14632150D02*
X11215420Y-14632150D01*
X11215420Y-14632150D02*
X11234468Y-14641674D01*
X11234468Y-14641674D02*
X11243991Y-14660722D01*
X11243991Y-14660722D02*
X11243991Y-14679769D01*
X11243991Y-14679769D02*
X11148753Y-14698817D01*
X11320182Y-14755960D02*
X11339230Y-14765484D01*
X11339230Y-14765484D02*
X11377325Y-14765484D01*
X11377325Y-14765484D02*
X11396372Y-14755960D01*
X11396372Y-14755960D02*
X11405896Y-14736912D01*
X11405896Y-14736912D02*
X11405896Y-14727388D01*
X11405896Y-14727388D02*
X11396372Y-14708341D01*
X11396372Y-14708341D02*
X11377325Y-14698817D01*
X11377325Y-14698817D02*
X11348753Y-14698817D01*
X11348753Y-14698817D02*
X11329706Y-14689293D01*
X11329706Y-14689293D02*
X11320182Y-14670246D01*
X11320182Y-14670246D02*
X11320182Y-14660722D01*
X11320182Y-14660722D02*
X11329706Y-14641674D01*
X11329706Y-14641674D02*
X11348753Y-14632150D01*
X11348753Y-14632150D02*
X11377325Y-14632150D01*
X11377325Y-14632150D02*
X11396372Y-14641674D01*
X11472563Y-14841674D02*
X11482087Y-14832150D01*
X11482087Y-14832150D02*
X11501134Y-14803579D01*
X11501134Y-14803579D02*
X11510658Y-14784531D01*
X11510658Y-14784531D02*
X11520182Y-14755960D01*
X11520182Y-14755960D02*
X11529706Y-14708341D01*
X11529706Y-14708341D02*
X11529706Y-14670246D01*
X11529706Y-14670246D02*
X11520182Y-14622627D01*
X11520182Y-14622627D02*
X11510658Y-14594055D01*
X11510658Y-14594055D02*
X11501134Y-14575008D01*
X11501134Y-14575008D02*
X11482087Y-14546436D01*
X11482087Y-14546436D02*
X11472563Y-14536912D01*
X11834468Y-14841674D02*
X11824944Y-14832150D01*
X11824944Y-14832150D02*
X11805896Y-14803579D01*
X11805896Y-14803579D02*
X11796372Y-14784531D01*
X11796372Y-14784531D02*
X11786849Y-14755960D01*
X11786849Y-14755960D02*
X11777325Y-14708341D01*
X11777325Y-14708341D02*
X11777325Y-14670246D01*
X11777325Y-14670246D02*
X11786849Y-14622627D01*
X11786849Y-14622627D02*
X11796372Y-14594055D01*
X11796372Y-14594055D02*
X11805896Y-14575008D01*
X11805896Y-14575008D02*
X11824944Y-14546436D01*
X11824944Y-14546436D02*
X11834468Y-14536912D01*
X11910658Y-14632150D02*
X11910658Y-14765484D01*
X11910658Y-14651198D02*
X11920182Y-14641674D01*
X11920182Y-14641674D02*
X11939230Y-14632150D01*
X11939230Y-14632150D02*
X11967801Y-14632150D01*
X11967801Y-14632150D02*
X11986849Y-14641674D01*
X11986849Y-14641674D02*
X11996372Y-14660722D01*
X11996372Y-14660722D02*
X11996372Y-14765484D01*
X12120182Y-14765484D02*
X12101134Y-14755960D01*
X12101134Y-14755960D02*
X12091611Y-14746436D01*
X12091611Y-14746436D02*
X12082087Y-14727388D01*
X12082087Y-14727388D02*
X12082087Y-14670246D01*
X12082087Y-14670246D02*
X12091611Y-14651198D01*
X12091611Y-14651198D02*
X12101134Y-14641674D01*
X12101134Y-14641674D02*
X12120182Y-14632150D01*
X12120182Y-14632150D02*
X12148753Y-14632150D01*
X12148753Y-14632150D02*
X12167801Y-14641674D01*
X12167801Y-14641674D02*
X12177325Y-14651198D01*
X12177325Y-14651198D02*
X12186849Y-14670246D01*
X12186849Y-14670246D02*
X12186849Y-14727388D01*
X12186849Y-14727388D02*
X12177325Y-14746436D01*
X12177325Y-14746436D02*
X12167801Y-14755960D01*
X12167801Y-14755960D02*
X12148753Y-14765484D01*
X12148753Y-14765484D02*
X12120182Y-14765484D01*
X12243992Y-14632150D02*
X12320182Y-14632150D01*
X12272563Y-14565484D02*
X12272563Y-14736912D01*
X12272563Y-14736912D02*
X12282087Y-14755960D01*
X12282087Y-14755960D02*
X12301134Y-14765484D01*
X12301134Y-14765484D02*
X12320182Y-14765484D01*
X12539230Y-14632150D02*
X12539230Y-14832150D01*
X12539230Y-14641674D02*
X12558277Y-14632150D01*
X12558277Y-14632150D02*
X12596373Y-14632150D01*
X12596373Y-14632150D02*
X12615420Y-14641674D01*
X12615420Y-14641674D02*
X12624944Y-14651198D01*
X12624944Y-14651198D02*
X12634468Y-14670246D01*
X12634468Y-14670246D02*
X12634468Y-14727388D01*
X12634468Y-14727388D02*
X12624944Y-14746436D01*
X12624944Y-14746436D02*
X12615420Y-14755960D01*
X12615420Y-14755960D02*
X12596373Y-14765484D01*
X12596373Y-14765484D02*
X12558277Y-14765484D01*
X12558277Y-14765484D02*
X12539230Y-14755960D01*
X12748753Y-14765484D02*
X12729706Y-14755960D01*
X12729706Y-14755960D02*
X12720182Y-14736912D01*
X12720182Y-14736912D02*
X12720182Y-14565484D01*
X12910658Y-14765484D02*
X12910658Y-14660722D01*
X12910658Y-14660722D02*
X12901134Y-14641674D01*
X12901134Y-14641674D02*
X12882087Y-14632150D01*
X12882087Y-14632150D02*
X12843992Y-14632150D01*
X12843992Y-14632150D02*
X12824944Y-14641674D01*
X12910658Y-14755960D02*
X12891611Y-14765484D01*
X12891611Y-14765484D02*
X12843992Y-14765484D01*
X12843992Y-14765484D02*
X12824944Y-14755960D01*
X12824944Y-14755960D02*
X12815420Y-14736912D01*
X12815420Y-14736912D02*
X12815420Y-14717865D01*
X12815420Y-14717865D02*
X12824944Y-14698817D01*
X12824944Y-14698817D02*
X12843992Y-14689293D01*
X12843992Y-14689293D02*
X12891611Y-14689293D01*
X12891611Y-14689293D02*
X12910658Y-14679769D01*
X12977325Y-14632150D02*
X13053515Y-14632150D01*
X13005896Y-14565484D02*
X13005896Y-14736912D01*
X13005896Y-14736912D02*
X13015420Y-14755960D01*
X13015420Y-14755960D02*
X13034468Y-14765484D01*
X13034468Y-14765484D02*
X13053515Y-14765484D01*
X13196373Y-14755960D02*
X13177325Y-14765484D01*
X13177325Y-14765484D02*
X13139230Y-14765484D01*
X13139230Y-14765484D02*
X13120182Y-14755960D01*
X13120182Y-14755960D02*
X13110658Y-14736912D01*
X13110658Y-14736912D02*
X13110658Y-14660722D01*
X13110658Y-14660722D02*
X13120182Y-14641674D01*
X13120182Y-14641674D02*
X13139230Y-14632150D01*
X13139230Y-14632150D02*
X13177325Y-14632150D01*
X13177325Y-14632150D02*
X13196373Y-14641674D01*
X13196373Y-14641674D02*
X13205896Y-14660722D01*
X13205896Y-14660722D02*
X13205896Y-14679769D01*
X13205896Y-14679769D02*
X13110658Y-14698817D01*
X13377325Y-14765484D02*
X13377325Y-14565484D01*
X13377325Y-14755960D02*
X13358277Y-14765484D01*
X13358277Y-14765484D02*
X13320182Y-14765484D01*
X13320182Y-14765484D02*
X13301134Y-14755960D01*
X13301134Y-14755960D02*
X13291611Y-14746436D01*
X13291611Y-14746436D02*
X13282087Y-14727388D01*
X13282087Y-14727388D02*
X13282087Y-14670246D01*
X13282087Y-14670246D02*
X13291611Y-14651198D01*
X13291611Y-14651198D02*
X13301134Y-14641674D01*
X13301134Y-14641674D02*
X13320182Y-14632150D01*
X13320182Y-14632150D02*
X13358277Y-14632150D01*
X13358277Y-14632150D02*
X13377325Y-14641674D01*
X13453515Y-14841674D02*
X13463039Y-14832150D01*
X13463039Y-14832150D02*
X13482087Y-14803579D01*
X13482087Y-14803579D02*
X13491611Y-14784531D01*
X13491611Y-14784531D02*
X13501134Y-14755960D01*
X13501134Y-14755960D02*
X13510658Y-14708341D01*
X13510658Y-14708341D02*
X13510658Y-14670246D01*
X13510658Y-14670246D02*
X13501134Y-14622627D01*
X13501134Y-14622627D02*
X13491611Y-14594055D01*
X13491611Y-14594055D02*
X13482087Y-14575008D01*
X13482087Y-14575008D02*
X13463039Y-14546436D01*
X13463039Y-14546436D02*
X13453515Y-14536912D01*
M02*
