%TF.GenerationSoftware,KiCad,Pcbnew,10.0.1*%
%TF.CreationDate,2026-05-12T01:23:41+09:00*%
%TF.ProjectId,AudioCase,41756469-6f43-4617-9365-2e6b69636164,rev?*%
%TF.SameCoordinates,Original*%
%TF.FileFunction,Copper,L2,Bot*%
%TF.FilePolarity,Positive*%
%FSLAX46Y46*%
G04 Gerber Fmt 4.6, Leading zero omitted, Abs format (unit mm)*
G04 Created by KiCad (PCBNEW 10.0.1) date 2026-05-12 01:23:41*
%MOMM*%
%LPD*%
G01*
G04 APERTURE LIST*
G04 Aperture macros list*
%AMRoundRect*
0 Rectangle with rounded corners*
0 $1 Rounding radius*
0 $2 $3 $4 $5 $6 $7 $8 $9 X,Y pos of 4 corners*
0 Add a 4 corners polygon primitive as box body*
4,1,4,$2,$3,$4,$5,$6,$7,$8,$9,$2,$3,0*
0 Add four circle primitives for the rounded corners*
1,1,$1+$1,$2,$3*
1,1,$1+$1,$4,$5*
1,1,$1+$1,$6,$7*
1,1,$1+$1,$8,$9*
0 Add four rect primitives between the rounded corners*
20,1,$1+$1,$2,$3,$4,$5,0*
20,1,$1+$1,$4,$5,$6,$7,0*
20,1,$1+$1,$6,$7,$8,$9,0*
20,1,$1+$1,$8,$9,$2,$3,0*%
G04 Aperture macros list end*
%TA.AperFunction,ComponentPad*%
%ADD10RoundRect,0.250000X0.550000X-0.550000X0.550000X0.550000X-0.550000X0.550000X-0.550000X-0.550000X0*%
%TD*%
%TA.AperFunction,ComponentPad*%
%ADD11C,1.600000*%
%TD*%
%TA.AperFunction,ComponentPad*%
%ADD12C,2.400000*%
%TD*%
%TA.AperFunction,ComponentPad*%
%ADD13C,1.850000*%
%TD*%
%TA.AperFunction,ComponentPad*%
%ADD14RoundRect,0.250000X-1.050000X-1.050000X1.050000X-1.050000X1.050000X1.050000X-1.050000X1.050000X0*%
%TD*%
%TA.AperFunction,ComponentPad*%
%ADD15C,2.600000*%
%TD*%
%TA.AperFunction,ComponentPad*%
%ADD16RoundRect,0.250000X0.550000X0.550000X-0.550000X0.550000X-0.550000X-0.550000X0.550000X-0.550000X0*%
%TD*%
%TA.AperFunction,ComponentPad*%
%ADD17RoundRect,0.250000X-1.050000X1.050000X-1.050000X-1.050000X1.050000X-1.050000X1.050000X1.050000X0*%
%TD*%
%TA.AperFunction,ComponentPad*%
%ADD18RoundRect,0.250000X-0.550000X0.550000X-0.550000X-0.550000X0.550000X-0.550000X0.550000X0.550000X0*%
%TD*%
%TA.AperFunction,ViaPad*%
%ADD19C,0.600000*%
%TD*%
%TA.AperFunction,Conductor*%
%ADD20C,1.000000*%
%TD*%
G04 APERTURE END LIST*
D10*
%TO.P,C2,1*%
%TO.N,/Rotary_V+_IN*%
X159968865Y-120614784D03*
D11*
%TO.P,C2,2*%
%TO.N,GND*%
X159968865Y-118614784D03*
%TD*%
D12*
%TO.P,F1,1*%
%TO.N,/PowerModule/+15_IN*%
X135088865Y-108954784D03*
%TO.P,F1,2*%
%TO.N,Net-(U1-+Vin)*%
X147788865Y-108954784D03*
%TD*%
%TO.P,L2,1,1_1*%
%TO.N,Net-(U1--Vout)*%
X137348865Y-134584784D03*
%TO.P,L2,2,2_2*%
%TO.N,/Rotary_V-_IN*%
X154348865Y-134584784D03*
%TD*%
%TO.P,L1,1,1_1*%
%TO.N,/Rotary_V+_IN*%
X154348865Y-121234784D03*
%TO.P,L1,2,2_2*%
%TO.N,Net-(U1-+Vout)*%
X137348865Y-121234784D03*
%TD*%
D13*
%TO.P,U1,1,GND_1*%
%TO.N,/PowerModule/PD_GND_IN*%
X129048865Y-120494784D03*
%TO.P,U1,2,+Vin_2*%
%TO.N,Net-(U1-+Vin)*%
X129048865Y-123034784D03*
%TO.P,U1,3,Remote_On/Off_3*%
%TO.N,unconnected-(U1-Remote_On{slash}Off-Pad3)*%
X129048865Y-125574784D03*
%TO.P,U1,5,NC_5*%
%TO.N,unconnected-(U1-NC-Pad5)*%
X129048865Y-130654784D03*
%TO.P,U1,6,+Vout_6*%
%TO.N,Net-(U1-+Vout)*%
X129048865Y-133194784D03*
%TO.P,U1,7,Common_7*%
%TO.N,GND*%
X129048865Y-135734784D03*
%TO.P,U1,8,-Vout_8*%
%TO.N,Net-(U1--Vout)*%
X129048865Y-138274784D03*
%TD*%
D14*
%TO.P,J4,1,Pin_1_1*%
%TO.N,/PowerModule/PD_GND_IN*%
X124428865Y-111254784D03*
D15*
%TO.P,J4,2,Pin_2_2*%
%TO.N,/PowerModule/+15_IN*%
X129428865Y-111254784D03*
%TD*%
D16*
%TO.P,C3,1*%
%TO.N,GND*%
X160868865Y-137584784D03*
D11*
%TO.P,C3,2*%
%TO.N,/Rotary_V-_IN*%
X158868865Y-137584784D03*
%TD*%
D17*
%TO.P,J5,1,Pin_1_1*%
%TO.N,/Rotary_V+_IN*%
X168926365Y-117309784D03*
D15*
%TO.P,J5,2,Pin_2_2*%
%TO.N,GND*%
X168926365Y-122389784D03*
%TO.P,J5,3,Pin_3_3*%
%TO.N,/Rotary_V-_IN*%
X168926365Y-127469784D03*
%TD*%
D18*
%TO.P,C1,1*%
%TO.N,Net-(U1-+Vin)*%
X155118865Y-108442133D03*
D11*
%TO.P,C1,2*%
%TO.N,/PowerModule/PD_GND_IN*%
X155118865Y-111942133D03*
%TD*%
D19*
%TO.N,GND*%
X162228865Y-125134784D03*
X160450419Y-129439877D03*
%TD*%
%TO.N,/PowerModule/PD_GND_IN*%
D20*
X126428865Y-113254784D02*
X129028865Y-113254784D01*
X129048865Y-113274784D02*
X129028865Y-113254784D01*
X130898865Y-113254784D02*
X153806214Y-113254784D01*
X124428865Y-111254784D02*
X126428865Y-113254784D01*
X129028865Y-113254784D02*
X130898865Y-113254784D01*
X129048865Y-120494784D02*
X129048865Y-113274784D01*
X153806214Y-113254784D02*
X155118865Y-111942133D01*
%TD*%
%TA.AperFunction,Conductor*%
%TO.N,GND*%
G36*
X174592539Y-114784469D02*
G01*
X174638294Y-114837273D01*
X174649500Y-114888784D01*
X174649500Y-133743439D01*
X174629815Y-133810478D01*
X174577011Y-133856233D01*
X174525500Y-133867439D01*
X168118865Y-133867439D01*
X168118865Y-140330784D01*
X168099180Y-140397823D01*
X168046376Y-140443578D01*
X167994865Y-140454784D01*
X127354883Y-140454784D01*
X127287844Y-140435099D01*
X127242089Y-140382295D01*
X127230884Y-140331243D01*
X127225987Y-139007999D01*
X127213460Y-135622634D01*
X127623865Y-135622634D01*
X127623865Y-135846933D01*
X127658954Y-136068473D01*
X127728264Y-136281791D01*
X127728265Y-136281794D01*
X127830098Y-136481650D01*
X127879897Y-136550194D01*
X127879899Y-136550195D01*
X128627139Y-135802955D01*
X128652828Y-135898828D01*
X128708781Y-135995740D01*
X128787909Y-136074868D01*
X128884821Y-136130821D01*
X128980693Y-136156509D01*
X128233452Y-136903748D01*
X128302001Y-136953552D01*
X128501854Y-137055383D01*
X128506355Y-137057247D01*
X128505595Y-137059080D01*
X128556356Y-137093777D01*
X128583565Y-137158131D01*
X128571663Y-137226979D01*
X128524428Y-137278463D01*
X128516672Y-137282771D01*
X128458976Y-137312168D01*
X128358710Y-137385016D01*
X128315651Y-137416301D01*
X128315649Y-137416303D01*
X128315648Y-137416303D01*
X128190384Y-137541567D01*
X128190384Y-137541568D01*
X128190382Y-137541570D01*
X128145661Y-137603122D01*
X128086251Y-137684893D01*
X128005822Y-137842741D01*
X128005821Y-137842744D01*
X127951079Y-138011227D01*
X127923594Y-138184757D01*
X127923365Y-138186205D01*
X127923365Y-138363363D01*
X127928621Y-138396548D01*
X127951079Y-138538340D01*
X128005821Y-138706823D01*
X128005822Y-138706826D01*
X128063050Y-138819140D01*
X128086251Y-138864674D01*
X128190382Y-139007998D01*
X128315651Y-139133267D01*
X128458975Y-139237398D01*
X128536394Y-139276845D01*
X128616822Y-139317826D01*
X128616825Y-139317827D01*
X128701066Y-139345198D01*
X128785310Y-139372570D01*
X128960286Y-139400284D01*
X128960287Y-139400284D01*
X129137443Y-139400284D01*
X129137444Y-139400284D01*
X129312420Y-139372570D01*
X129480907Y-139317826D01*
X129638755Y-139237398D01*
X129782079Y-139133267D01*
X129907348Y-139007998D01*
X130011479Y-138864674D01*
X130091907Y-138706826D01*
X130146651Y-138538339D01*
X130174365Y-138363363D01*
X130174365Y-138186205D01*
X130146651Y-138011229D01*
X130112091Y-137904864D01*
X130091908Y-137842744D01*
X130091907Y-137842741D01*
X130039138Y-137739178D01*
X130011479Y-137684894D01*
X130010341Y-137683327D01*
X157868364Y-137683327D01*
X157906812Y-137876613D01*
X157906815Y-137876623D01*
X157982229Y-138058691D01*
X157982236Y-138058704D01*
X158091725Y-138222565D01*
X158091728Y-138222569D01*
X158231079Y-138361920D01*
X158231083Y-138361923D01*
X158394944Y-138471412D01*
X158394957Y-138471419D01*
X158556521Y-138538340D01*
X158577030Y-138546835D01*
X158577034Y-138546835D01*
X158577035Y-138546836D01*
X158770321Y-138585284D01*
X158770324Y-138585284D01*
X158967408Y-138585284D01*
X159097447Y-138559416D01*
X159160700Y-138546835D01*
X159342779Y-138471416D01*
X159451244Y-138398941D01*
X159517921Y-138378064D01*
X159585301Y-138396548D01*
X159631992Y-138448527D01*
X159632516Y-138449637D01*
X159634504Y-138453901D01*
X159726549Y-138603129D01*
X159850519Y-138727099D01*
X159999740Y-138819140D01*
X159999745Y-138819142D01*
X160166167Y-138874289D01*
X160166174Y-138874290D01*
X160268884Y-138884783D01*
X160618864Y-138884783D01*
X160618865Y-138884782D01*
X160618865Y-137900470D01*
X160623259Y-137904864D01*
X160714471Y-137957525D01*
X160816204Y-137984784D01*
X160921526Y-137984784D01*
X161023259Y-137957525D01*
X161114471Y-137904864D01*
X161118865Y-137900470D01*
X161118865Y-138884783D01*
X161468837Y-138884783D01*
X161468851Y-138884782D01*
X161571562Y-138874289D01*
X161737984Y-138819142D01*
X161737989Y-138819140D01*
X161887210Y-138727099D01*
X162011180Y-138603129D01*
X162103221Y-138453908D01*
X162103223Y-138453903D01*
X162158370Y-138287481D01*
X162158371Y-138287474D01*
X162168864Y-138184770D01*
X162168865Y-138184757D01*
X162168865Y-137834784D01*
X161184551Y-137834784D01*
X161188945Y-137830390D01*
X161241606Y-137739178D01*
X161268865Y-137637445D01*
X161268865Y-137532123D01*
X161241606Y-137430390D01*
X161188945Y-137339178D01*
X161184551Y-137334784D01*
X162168864Y-137334784D01*
X162168864Y-136984812D01*
X162168863Y-136984797D01*
X162158370Y-136882086D01*
X162103223Y-136715664D01*
X162103219Y-136715656D01*
X162011180Y-136566438D01*
X161887210Y-136442468D01*
X161737989Y-136350427D01*
X161737984Y-136350425D01*
X161571562Y-136295278D01*
X161571555Y-136295277D01*
X161468851Y-136284784D01*
X161118865Y-136284784D01*
X161118865Y-137269098D01*
X161114471Y-137264704D01*
X161023259Y-137212043D01*
X160921526Y-137184784D01*
X160816204Y-137184784D01*
X160714471Y-137212043D01*
X160623259Y-137264704D01*
X160618865Y-137269098D01*
X160618865Y-136284784D01*
X160268893Y-136284784D01*
X160268877Y-136284785D01*
X160166167Y-136295278D01*
X159999745Y-136350425D01*
X159999740Y-136350427D01*
X159850519Y-136442468D01*
X159726549Y-136566438D01*
X159634502Y-136715669D01*
X159632514Y-136719934D01*
X159586339Y-136772371D01*
X159519144Y-136791519D01*
X159452264Y-136771299D01*
X159451244Y-136770625D01*
X159342785Y-136698155D01*
X159342772Y-136698148D01*
X159160704Y-136622734D01*
X159160694Y-136622731D01*
X158967408Y-136584284D01*
X158967406Y-136584284D01*
X158770324Y-136584284D01*
X158770322Y-136584284D01*
X158577035Y-136622731D01*
X158577025Y-136622734D01*
X158394957Y-136698148D01*
X158394944Y-136698155D01*
X158231083Y-136807644D01*
X158231079Y-136807647D01*
X158091728Y-136946998D01*
X158091725Y-136947002D01*
X157982236Y-137110863D01*
X157982229Y-137110876D01*
X157906815Y-137292944D01*
X157906812Y-137292954D01*
X157868365Y-137486240D01*
X157868365Y-137486243D01*
X157868365Y-137683325D01*
X157868365Y-137683327D01*
X157868364Y-137683327D01*
X130010341Y-137683327D01*
X129907348Y-137541570D01*
X129782079Y-137416301D01*
X129638755Y-137312170D01*
X129581057Y-137282771D01*
X129530262Y-137234797D01*
X129513467Y-137166976D01*
X129536004Y-137100841D01*
X129590720Y-137057390D01*
X129593308Y-137056446D01*
X129595875Y-137055383D01*
X129795727Y-136953553D01*
X129864275Y-136903748D01*
X129864276Y-136903748D01*
X129117036Y-136156509D01*
X129212909Y-136130821D01*
X129309821Y-136074868D01*
X129388949Y-135995740D01*
X129444902Y-135898828D01*
X129470590Y-135802955D01*
X130217829Y-136550195D01*
X130217829Y-136550194D01*
X130267634Y-136481646D01*
X130369464Y-136281794D01*
X130369465Y-136281791D01*
X130438775Y-136068473D01*
X130473865Y-135846933D01*
X130473865Y-135622634D01*
X130438775Y-135401094D01*
X130369465Y-135187776D01*
X130369464Y-135187773D01*
X130267633Y-134987920D01*
X130217829Y-134919372D01*
X130217829Y-134919371D01*
X129470590Y-135666611D01*
X129444902Y-135570740D01*
X129388949Y-135473828D01*
X129309821Y-135394700D01*
X129212909Y-135338747D01*
X129117037Y-135313058D01*
X129864276Y-134565818D01*
X129864275Y-134565817D01*
X129795731Y-134516017D01*
X129714372Y-134474562D01*
X135948365Y-134474562D01*
X135948365Y-134695005D01*
X135982850Y-134912736D01*
X136050968Y-135122387D01*
X136050969Y-135122390D01*
X136151052Y-135318809D01*
X136280617Y-135497142D01*
X136280621Y-135497147D01*
X136436501Y-135653027D01*
X136436506Y-135653031D01*
X136549031Y-135734784D01*
X136614843Y-135782599D01*
X136741104Y-135846933D01*
X136811258Y-135882679D01*
X136811261Y-135882680D01*
X136860961Y-135898828D01*
X137020914Y-135950799D01*
X137238643Y-135985284D01*
X137238644Y-135985284D01*
X137459086Y-135985284D01*
X137459087Y-135985284D01*
X137676816Y-135950799D01*
X137886471Y-135882679D01*
X138082887Y-135782599D01*
X138261230Y-135653026D01*
X138417107Y-135497149D01*
X138546680Y-135318806D01*
X138646760Y-135122390D01*
X138714880Y-134912735D01*
X138749365Y-134695006D01*
X138749365Y-134474562D01*
X152948365Y-134474562D01*
X152948365Y-134695005D01*
X152982850Y-134912736D01*
X153050968Y-135122387D01*
X153050969Y-135122390D01*
X153151052Y-135318809D01*
X153280617Y-135497142D01*
X153280621Y-135497147D01*
X153436501Y-135653027D01*
X153436506Y-135653031D01*
X153549031Y-135734784D01*
X153614843Y-135782599D01*
X153741104Y-135846933D01*
X153811258Y-135882679D01*
X153811261Y-135882680D01*
X153860961Y-135898828D01*
X154020914Y-135950799D01*
X154238643Y-135985284D01*
X154238644Y-135985284D01*
X154459086Y-135985284D01*
X154459087Y-135985284D01*
X154676816Y-135950799D01*
X154886471Y-135882679D01*
X155082887Y-135782599D01*
X155261230Y-135653026D01*
X155417107Y-135497149D01*
X155546680Y-135318806D01*
X155646760Y-135122390D01*
X155714880Y-134912735D01*
X155749365Y-134695006D01*
X155749365Y-134474562D01*
X155714880Y-134256833D01*
X155680820Y-134152005D01*
X155646761Y-134047180D01*
X155646760Y-134047177D01*
X155586035Y-133928000D01*
X155546680Y-133850762D01*
X155468706Y-133743439D01*
X155417112Y-133672425D01*
X155417108Y-133672420D01*
X155261228Y-133516540D01*
X155261223Y-133516536D01*
X155082890Y-133386971D01*
X155082889Y-133386970D01*
X155082887Y-133386969D01*
X155019961Y-133354906D01*
X154886471Y-133286888D01*
X154886468Y-133286887D01*
X154676817Y-133218769D01*
X154567951Y-133201526D01*
X154459087Y-133184284D01*
X154238643Y-133184284D01*
X154166066Y-133195779D01*
X154020912Y-133218769D01*
X153811261Y-133286887D01*
X153811258Y-133286888D01*
X153614839Y-133386971D01*
X153436506Y-133516536D01*
X153436501Y-133516540D01*
X153280621Y-133672420D01*
X153280617Y-133672425D01*
X153151052Y-133850758D01*
X153050969Y-134047177D01*
X153050968Y-134047180D01*
X152982850Y-134256831D01*
X152948365Y-134474562D01*
X138749365Y-134474562D01*
X138714880Y-134256833D01*
X138680820Y-134152005D01*
X138646761Y-134047180D01*
X138646760Y-134047177D01*
X138586035Y-133928000D01*
X138546680Y-133850762D01*
X138468706Y-133743439D01*
X138417112Y-133672425D01*
X138417108Y-133672420D01*
X138261228Y-133516540D01*
X138261223Y-133516536D01*
X138082890Y-133386971D01*
X138082889Y-133386970D01*
X138082887Y-133386969D01*
X138019961Y-133354906D01*
X137886471Y-133286888D01*
X137886468Y-133286887D01*
X137676817Y-133218769D01*
X137567951Y-133201526D01*
X137459087Y-133184284D01*
X137238643Y-133184284D01*
X137166066Y-133195779D01*
X137020912Y-133218769D01*
X136811261Y-133286887D01*
X136811258Y-133286888D01*
X136614839Y-133386971D01*
X136436506Y-133516536D01*
X136436501Y-133516540D01*
X136280621Y-133672420D01*
X136280617Y-133672425D01*
X136151052Y-133850758D01*
X136050969Y-134047177D01*
X136050968Y-134047180D01*
X135982850Y-134256831D01*
X135948365Y-134474562D01*
X129714372Y-134474562D01*
X129595875Y-134414184D01*
X129591375Y-134412321D01*
X129592130Y-134410497D01*
X129541340Y-134375750D01*
X129514158Y-134311385D01*
X129526089Y-134242542D01*
X129573345Y-134191077D01*
X129581060Y-134186795D01*
X129638751Y-134157400D01*
X129638750Y-134157400D01*
X129638755Y-134157398D01*
X129782079Y-134053267D01*
X129907348Y-133927998D01*
X130011479Y-133784674D01*
X130091907Y-133626826D01*
X130146651Y-133458339D01*
X130174365Y-133283363D01*
X130174365Y-133106205D01*
X130146651Y-132931229D01*
X130091907Y-132762742D01*
X130091907Y-132762741D01*
X130011478Y-132604893D01*
X129907348Y-132461570D01*
X129782079Y-132336301D01*
X129638755Y-132232170D01*
X129480907Y-132151741D01*
X129480904Y-132151740D01*
X129312421Y-132096998D01*
X129224932Y-132083141D01*
X129137444Y-132069284D01*
X128960286Y-132069284D01*
X128901960Y-132078522D01*
X128785308Y-132096998D01*
X128616825Y-132151740D01*
X128616822Y-132151741D01*
X128458974Y-132232170D01*
X128377203Y-132291580D01*
X128315651Y-132336301D01*
X128315649Y-132336303D01*
X128315648Y-132336303D01*
X128190384Y-132461567D01*
X128190384Y-132461568D01*
X128190382Y-132461570D01*
X128145661Y-132523122D01*
X128086251Y-132604893D01*
X128005822Y-132762741D01*
X128005821Y-132762744D01*
X127951079Y-132931227D01*
X127951079Y-132931229D01*
X127923365Y-133106205D01*
X127923365Y-133283363D01*
X127937222Y-133370851D01*
X127951079Y-133458340D01*
X128005821Y-133626823D01*
X128005822Y-133626826D01*
X128086251Y-133784674D01*
X128190382Y-133927998D01*
X128315651Y-134053267D01*
X128423144Y-134131365D01*
X128458976Y-134157399D01*
X128516670Y-134186795D01*
X128567466Y-134234769D01*
X128584262Y-134302590D01*
X128561725Y-134368725D01*
X128507010Y-134412177D01*
X128504418Y-134413123D01*
X128501854Y-134414184D01*
X128302005Y-134516013D01*
X128233453Y-134565818D01*
X128980693Y-135313058D01*
X128884821Y-135338747D01*
X128787909Y-135394700D01*
X128708781Y-135473828D01*
X128652828Y-135570740D01*
X128627139Y-135666612D01*
X127879899Y-134919372D01*
X127830094Y-134987924D01*
X127728265Y-135187773D01*
X127728264Y-135187776D01*
X127658954Y-135401094D01*
X127623865Y-135622634D01*
X127213460Y-135622634D01*
X127194750Y-130566205D01*
X127923365Y-130566205D01*
X127923365Y-130743362D01*
X127951079Y-130918340D01*
X128005821Y-131086823D01*
X128005822Y-131086826D01*
X128086251Y-131244674D01*
X128190382Y-131387998D01*
X128315651Y-131513267D01*
X128458975Y-131617398D01*
X128536394Y-131656845D01*
X128616822Y-131697826D01*
X128616825Y-131697827D01*
X128701066Y-131725198D01*
X128785310Y-131752570D01*
X128960286Y-131780284D01*
X128960287Y-131780284D01*
X129137443Y-131780284D01*
X129137444Y-131780284D01*
X129312420Y-131752570D01*
X129480907Y-131697826D01*
X129638755Y-131617398D01*
X129782079Y-131513267D01*
X129907348Y-131387998D01*
X130011479Y-131244674D01*
X130091907Y-131086826D01*
X130146651Y-130918339D01*
X130174365Y-130743363D01*
X130174365Y-130566205D01*
X130146651Y-130391229D01*
X130091907Y-130222742D01*
X130091907Y-130222741D01*
X130011478Y-130064893D01*
X129907348Y-129921570D01*
X129782079Y-129796301D01*
X129638755Y-129692170D01*
X129480907Y-129611741D01*
X129480904Y-129611740D01*
X129312421Y-129556998D01*
X129224932Y-129543141D01*
X129137444Y-129529284D01*
X128960286Y-129529284D01*
X128901960Y-129538522D01*
X128785308Y-129556998D01*
X128616825Y-129611740D01*
X128616822Y-129611741D01*
X128458974Y-129692170D01*
X128377203Y-129751580D01*
X128315651Y-129796301D01*
X128315649Y-129796303D01*
X128315648Y-129796303D01*
X128190384Y-129921567D01*
X128190384Y-129921568D01*
X128190382Y-129921570D01*
X128145661Y-129983122D01*
X128086251Y-130064893D01*
X128005822Y-130222741D01*
X128005821Y-130222744D01*
X127951079Y-130391227D01*
X127923365Y-130566205D01*
X127194750Y-130566205D01*
X127186245Y-128267765D01*
X127205680Y-128200658D01*
X127258314Y-128154708D01*
X127310228Y-128143311D01*
X133255943Y-128142772D01*
X133255871Y-127351686D01*
X167425865Y-127351686D01*
X167425865Y-127587881D01*
X167462811Y-127821152D01*
X167535798Y-128045780D01*
X167614713Y-128200658D01*
X167643022Y-128256217D01*
X167781848Y-128447294D01*
X167948855Y-128614301D01*
X168139932Y-128753127D01*
X168239356Y-128803786D01*
X168350368Y-128860350D01*
X168350370Y-128860350D01*
X168350373Y-128860352D01*
X168470777Y-128899473D01*
X168574996Y-128933337D01*
X168808268Y-128970284D01*
X168808273Y-128970284D01*
X169044462Y-128970284D01*
X169277733Y-128933337D01*
X169502357Y-128860352D01*
X169712798Y-128753127D01*
X169903875Y-128614301D01*
X170070882Y-128447294D01*
X170209708Y-128256217D01*
X170316933Y-128045776D01*
X170389918Y-127821152D01*
X170426865Y-127587881D01*
X170426865Y-127351686D01*
X170389918Y-127118415D01*
X170316931Y-126893787D01*
X170209707Y-126683350D01*
X170070882Y-126492274D01*
X169903875Y-126325267D01*
X169712798Y-126186441D01*
X169502361Y-126079217D01*
X169277733Y-126006230D01*
X169044462Y-125969284D01*
X169044457Y-125969284D01*
X168808273Y-125969284D01*
X168808268Y-125969284D01*
X168574996Y-126006230D01*
X168350368Y-126079217D01*
X168139931Y-126186441D01*
X168030915Y-126265646D01*
X167948855Y-126325267D01*
X167948853Y-126325269D01*
X167948852Y-126325269D01*
X167781850Y-126492271D01*
X167781850Y-126492272D01*
X167781848Y-126492274D01*
X167722227Y-126574334D01*
X167643022Y-126683350D01*
X167535798Y-126893787D01*
X167462811Y-127118415D01*
X167425865Y-127351686D01*
X133255871Y-127351686D01*
X133255765Y-126186441D01*
X133255547Y-123779120D01*
X133255306Y-121124562D01*
X135948365Y-121124562D01*
X135948365Y-121345005D01*
X135982850Y-121562736D01*
X136050968Y-121772387D01*
X136050969Y-121772390D01*
X136151052Y-121968809D01*
X136280617Y-122147142D01*
X136280621Y-122147147D01*
X136436501Y-122303027D01*
X136436506Y-122303031D01*
X136555911Y-122389783D01*
X136614843Y-122432599D01*
X136743240Y-122498021D01*
X136811258Y-122532679D01*
X136811261Y-122532680D01*
X136916086Y-122566739D01*
X137020914Y-122600799D01*
X137238643Y-122635284D01*
X137238644Y-122635284D01*
X137459086Y-122635284D01*
X137459087Y-122635284D01*
X137676816Y-122600799D01*
X137886471Y-122532679D01*
X138082887Y-122432599D01*
X138261230Y-122303026D01*
X138417107Y-122147149D01*
X138546680Y-121968806D01*
X138646760Y-121772390D01*
X138714880Y-121562735D01*
X138749365Y-121345006D01*
X138749365Y-121124562D01*
X152948365Y-121124562D01*
X152948365Y-121345005D01*
X152982850Y-121562736D01*
X153050968Y-121772387D01*
X153050969Y-121772390D01*
X153151052Y-121968809D01*
X153280617Y-122147142D01*
X153280621Y-122147147D01*
X153436501Y-122303027D01*
X153436506Y-122303031D01*
X153555911Y-122389783D01*
X153614843Y-122432599D01*
X153743240Y-122498021D01*
X153811258Y-122532679D01*
X153811261Y-122532680D01*
X153916086Y-122566739D01*
X154020914Y-122600799D01*
X154238643Y-122635284D01*
X154238644Y-122635284D01*
X154459086Y-122635284D01*
X154459087Y-122635284D01*
X154676816Y-122600799D01*
X154886471Y-122532679D01*
X155082887Y-122432599D01*
X155261230Y-122303026D01*
X155292458Y-122271798D01*
X167126365Y-122271798D01*
X167126365Y-122507769D01*
X167157164Y-122741698D01*
X167218235Y-122969621D01*
X167308525Y-123187603D01*
X167308530Y-123187612D01*
X167426509Y-123391955D01*
X167426510Y-123391956D01*
X167489086Y-123473507D01*
X168325323Y-122637271D01*
X168350343Y-122697674D01*
X168421477Y-122804135D01*
X168512014Y-122894672D01*
X168618475Y-122965806D01*
X168678876Y-122990825D01*
X167842640Y-123827061D01*
X167924192Y-123889638D01*
X167924193Y-123889639D01*
X168128536Y-124007618D01*
X168128545Y-124007623D01*
X168346528Y-124097913D01*
X168346526Y-124097913D01*
X168574450Y-124158984D01*
X168808379Y-124189783D01*
X168808394Y-124189784D01*
X169044336Y-124189784D01*
X169044350Y-124189783D01*
X169278279Y-124158984D01*
X169506202Y-124097913D01*
X169724184Y-124007623D01*
X169724193Y-124007618D01*
X169928546Y-123889634D01*
X170010088Y-123827063D01*
X170010088Y-123827060D01*
X169173852Y-122990825D01*
X169234255Y-122965806D01*
X169340716Y-122894672D01*
X169431253Y-122804135D01*
X169502387Y-122697674D01*
X169527406Y-122637272D01*
X170363641Y-123473507D01*
X170363644Y-123473507D01*
X170426215Y-123391965D01*
X170544199Y-123187612D01*
X170544204Y-123187603D01*
X170634494Y-122969621D01*
X170695565Y-122741698D01*
X170726364Y-122507769D01*
X170726365Y-122507755D01*
X170726365Y-122271812D01*
X170726364Y-122271798D01*
X170695565Y-122037869D01*
X170634494Y-121809946D01*
X170544204Y-121591964D01*
X170544199Y-121591955D01*
X170426220Y-121387612D01*
X170426219Y-121387611D01*
X170363642Y-121306059D01*
X169527406Y-122142295D01*
X169502387Y-122081894D01*
X169431253Y-121975433D01*
X169340716Y-121884896D01*
X169234255Y-121813762D01*
X169173853Y-121788742D01*
X170010088Y-120952505D01*
X169928537Y-120889929D01*
X169928536Y-120889928D01*
X169724193Y-120771949D01*
X169724184Y-120771944D01*
X169506201Y-120681654D01*
X169506203Y-120681654D01*
X169278279Y-120620583D01*
X169044350Y-120589784D01*
X168808379Y-120589784D01*
X168574450Y-120620583D01*
X168346527Y-120681654D01*
X168128545Y-120771944D01*
X168128536Y-120771949D01*
X167924193Y-120889928D01*
X167924183Y-120889934D01*
X167842640Y-120952504D01*
X167842640Y-120952505D01*
X168678877Y-121788742D01*
X168618475Y-121813762D01*
X168512014Y-121884896D01*
X168421477Y-121975433D01*
X168350343Y-122081894D01*
X168325323Y-122142295D01*
X167489086Y-121306059D01*
X167489085Y-121306059D01*
X167426515Y-121387602D01*
X167426509Y-121387612D01*
X167308530Y-121591955D01*
X167308525Y-121591964D01*
X167218235Y-121809946D01*
X167157164Y-122037869D01*
X167126365Y-122271798D01*
X155292458Y-122271798D01*
X155417107Y-122147149D01*
X155546680Y-121968806D01*
X155646760Y-121772390D01*
X155714880Y-121562735D01*
X155749365Y-121345006D01*
X155749365Y-121124562D01*
X155714880Y-120906833D01*
X155646760Y-120697178D01*
X155646760Y-120697177D01*
X155592039Y-120589784D01*
X155546680Y-120500762D01*
X155530125Y-120477976D01*
X155417112Y-120322425D01*
X155417108Y-120322420D01*
X155261228Y-120166540D01*
X155261223Y-120166536D01*
X155180568Y-120107937D01*
X155082890Y-120036971D01*
X155082889Y-120036970D01*
X155082887Y-120036969D01*
X155019961Y-120004906D01*
X154886471Y-119936888D01*
X154886468Y-119936887D01*
X154676817Y-119868769D01*
X154567951Y-119851526D01*
X154459087Y-119834284D01*
X154238643Y-119834284D01*
X154166066Y-119845779D01*
X154020912Y-119868769D01*
X153811261Y-119936887D01*
X153811258Y-119936888D01*
X153614839Y-120036971D01*
X153436506Y-120166536D01*
X153436501Y-120166540D01*
X153280621Y-120322420D01*
X153280617Y-120322425D01*
X153151052Y-120500758D01*
X153050969Y-120697177D01*
X153050968Y-120697180D01*
X152982850Y-120906831D01*
X152948365Y-121124562D01*
X138749365Y-121124562D01*
X138714880Y-120906833D01*
X138646760Y-120697178D01*
X138646760Y-120697177D01*
X138592039Y-120589784D01*
X138546680Y-120500762D01*
X138530125Y-120477976D01*
X138417112Y-120322425D01*
X138417108Y-120322420D01*
X138261228Y-120166540D01*
X138261223Y-120166536D01*
X138082890Y-120036971D01*
X138082889Y-120036970D01*
X138082887Y-120036969D01*
X138019961Y-120004906D01*
X137886471Y-119936888D01*
X137886468Y-119936887D01*
X137676817Y-119868769D01*
X137567951Y-119851526D01*
X137459087Y-119834284D01*
X137238643Y-119834284D01*
X137166066Y-119845779D01*
X137020912Y-119868769D01*
X136811261Y-119936887D01*
X136811258Y-119936888D01*
X136614839Y-120036971D01*
X136436506Y-120166536D01*
X136436501Y-120166540D01*
X136280621Y-120322420D01*
X136280617Y-120322425D01*
X136151052Y-120500758D01*
X136050969Y-120697177D01*
X136050968Y-120697180D01*
X135982850Y-120906831D01*
X135948365Y-121124562D01*
X133255306Y-121124562D01*
X133255306Y-121119701D01*
X133255069Y-118512466D01*
X158668865Y-118512466D01*
X158668865Y-118717101D01*
X158700874Y-118919201D01*
X158764109Y-119113815D01*
X158857006Y-119296134D01*
X158857012Y-119296143D01*
X158889388Y-119340705D01*
X158889389Y-119340706D01*
X159568865Y-118661230D01*
X159568865Y-118667445D01*
X159596124Y-118769178D01*
X159648785Y-118860390D01*
X159723259Y-118934864D01*
X159814471Y-118987525D01*
X159916204Y-119014784D01*
X159922418Y-119014784D01*
X159332485Y-119604715D01*
X159285760Y-119634075D01*
X159205983Y-119661991D01*
X159096715Y-119742634D01*
X159016072Y-119851901D01*
X159016071Y-119851903D01*
X158971218Y-119980082D01*
X158971218Y-119980084D01*
X158968365Y-120010514D01*
X158968365Y-121219053D01*
X158971218Y-121249483D01*
X158971218Y-121249485D01*
X159016071Y-121377664D01*
X159016072Y-121377666D01*
X159096715Y-121486934D01*
X159205983Y-121567577D01*
X159248710Y-121582528D01*
X159334164Y-121612430D01*
X159364595Y-121615284D01*
X159364599Y-121615284D01*
X160573135Y-121615284D01*
X160603564Y-121612430D01*
X160603566Y-121612430D01*
X160667655Y-121590003D01*
X160731747Y-121567577D01*
X160841015Y-121486934D01*
X160921658Y-121377666D01*
X160946714Y-121306059D01*
X160966511Y-121249485D01*
X160966511Y-121249483D01*
X160969365Y-121219053D01*
X160969365Y-120010514D01*
X160966511Y-119980084D01*
X160966511Y-119980082D01*
X160921658Y-119851903D01*
X160921657Y-119851901D01*
X160908655Y-119834284D01*
X160841015Y-119742634D01*
X160731747Y-119661991D01*
X160731745Y-119661990D01*
X160651969Y-119634075D01*
X160605243Y-119604715D01*
X160015313Y-119014784D01*
X160021526Y-119014784D01*
X160123259Y-118987525D01*
X160214471Y-118934864D01*
X160288945Y-118860390D01*
X160341606Y-118769178D01*
X160368865Y-118667445D01*
X160368865Y-118661232D01*
X161048339Y-119340706D01*
X161048339Y-119340705D01*
X161080724Y-119296133D01*
X161173620Y-119113815D01*
X161236855Y-118919201D01*
X161268865Y-118717101D01*
X161268865Y-118512466D01*
X161236855Y-118310366D01*
X161173620Y-118115752D01*
X161080724Y-117933434D01*
X161048339Y-117888861D01*
X161048339Y-117888860D01*
X160368865Y-118568335D01*
X160368865Y-118562123D01*
X160341606Y-118460390D01*
X160288945Y-118369178D01*
X160214471Y-118294704D01*
X160123259Y-118242043D01*
X160021526Y-118214784D01*
X160015311Y-118214784D01*
X160694787Y-117535308D01*
X160694786Y-117535307D01*
X160650224Y-117502931D01*
X160650215Y-117502925D01*
X160467896Y-117410028D01*
X160273282Y-117346793D01*
X160071182Y-117314784D01*
X159866548Y-117314784D01*
X159664447Y-117346793D01*
X159469833Y-117410028D01*
X159287509Y-117502927D01*
X159242942Y-117535307D01*
X159242942Y-117535308D01*
X159922419Y-118214784D01*
X159916204Y-118214784D01*
X159814471Y-118242043D01*
X159723259Y-118294704D01*
X159648785Y-118369178D01*
X159596124Y-118460390D01*
X159568865Y-118562123D01*
X159568865Y-118568337D01*
X158889389Y-117888861D01*
X158889388Y-117888861D01*
X158857008Y-117933428D01*
X158764109Y-118115752D01*
X158700874Y-118310366D01*
X158668865Y-118512466D01*
X133255069Y-118512466D01*
X133255069Y-118507611D01*
X133254985Y-117582578D01*
X133254859Y-116205514D01*
X167425865Y-116205514D01*
X167425865Y-118414053D01*
X167428718Y-118444483D01*
X167428718Y-118444485D01*
X167473571Y-118572664D01*
X167473572Y-118572666D01*
X167554215Y-118681934D01*
X167663483Y-118762577D01*
X167682348Y-118769178D01*
X167791664Y-118807430D01*
X167822095Y-118810284D01*
X167822099Y-118810284D01*
X170030635Y-118810284D01*
X170061064Y-118807430D01*
X170061066Y-118807430D01*
X170125155Y-118785003D01*
X170189247Y-118762577D01*
X170298515Y-118681934D01*
X170379158Y-118572666D01*
X170418445Y-118460390D01*
X170424011Y-118444485D01*
X170424011Y-118444483D01*
X170426865Y-118414053D01*
X170426865Y-116205514D01*
X170424011Y-116175084D01*
X170424011Y-116175082D01*
X170379158Y-116046903D01*
X170379157Y-116046901D01*
X170298515Y-115937634D01*
X170189247Y-115856991D01*
X170189245Y-115856990D01*
X170061065Y-115812137D01*
X170030635Y-115809284D01*
X170030631Y-115809284D01*
X167822099Y-115809284D01*
X167822095Y-115809284D01*
X167791665Y-115812137D01*
X167791663Y-115812137D01*
X167663484Y-115856990D01*
X167663482Y-115856991D01*
X167554215Y-115937634D01*
X167473572Y-116046901D01*
X167473571Y-116046903D01*
X167428718Y-116175082D01*
X167428718Y-116175084D01*
X167425865Y-116205514D01*
X133254859Y-116205514D01*
X133254859Y-116202630D01*
X133254740Y-114888795D01*
X133274418Y-114821754D01*
X133327218Y-114775994D01*
X133378740Y-114764784D01*
X174525500Y-114764784D01*
X174592539Y-114784469D01*
G37*
%TD.AperFunction*%
%TD*%
M02*
