M48
; DRILL file KiCad 10.0.1 date 2026-05-12T01:23:48
; FORMAT={-:-/ absolute / metric / decimal}
; #@! TF.CreationDate,2026-05-12T01:23:48+09:00
; #@! TF.GenerationSoftware,Kicad,Pcbnew,10.0.1
; #@! TF.FileFunction,Plated,1,2,PTH
FMAT,2
METRIC
; #@! TA.AperFunction,Plated,PTH,ViaDrill
T1C0.300
; #@! TA.AperFunction,Plated,PTH,ComponentDrill
T2C0.800
; #@! TA.AperFunction,Plated,PTH,ComponentDrill
T3C0.850
; #@! TA.AperFunction,Plated,PTH,ComponentDrill
T4C1.200
; #@! TA.AperFunction,Plated,PTH,ComponentDrill
T5C1.300
; #@! TA.AperFunction,Plated,PTH,ComponentDrill
T6C1.400
%
G90
G05
T1
X160.45Y-129.44
X162.229Y-125.135
T2
X155.119Y-108.442
X155.119Y-111.942
X158.869Y-137.585
X159.969Y-118.615
X159.969Y-120.615
X160.869Y-137.585
T3
X129.049Y-120.495
X129.049Y-123.035
X129.049Y-125.575
X129.049Y-130.655
X129.049Y-133.195
X129.049Y-135.735
X129.049Y-138.275
T4
X135.089Y-108.955
X147.789Y-108.955
T5
X124.429Y-111.255
X129.429Y-111.255
X168.926Y-117.31
X168.926Y-122.39
X168.926Y-127.47
T6
X137.349Y-121.235
X137.349Y-134.585
X154.349Y-121.235
X154.349Y-134.585
M30
