%TF.GenerationSoftware,KiCad,Pcbnew,10.0.1*%
%TF.CreationDate,2026-05-12T01:23:41+09:00*%
%TF.ProjectId,AudioCase,41756469-6f43-4617-9365-2e6b69636164,rev?*%
%TF.SameCoordinates,Original*%
%TF.FileFunction,Copper,L1,Top*%
%TF.FilePolarity,Positive*%
%FSLAX46Y46*%
G04 Gerber Fmt 4.6, Leading zero omitted, Abs format (unit mm)*
G04 Created by KiCad (PCBNEW 10.0.1) date 2026-05-12 01:23:41*
%MOMM*%
%LPD*%
G01*
G04 APERTURE LIST*
G04 Aperture macros list*
%AMRoundRect*
0 Rectangle with rounded corners*
0 $1 Rounding radius*
0 $2 $3 $4 $5 $6 $7 $8 $9 X,Y pos of 4 corners*
0 Add a 4 corners polygon primitive as box body*
4,1,4,$2,$3,$4,$5,$6,$7,$8,$9,$2,$3,0*
0 Add four circle primitives for the rounded corners*
1,1,$1+$1,$2,$3*
1,1,$1+$1,$4,$5*
1,1,$1+$1,$6,$7*
1,1,$1+$1,$8,$9*
0 Add four rect primitives between the rounded corners*
20,1,$1+$1,$2,$3,$4,$5,0*
20,1,$1+$1,$4,$5,$6,$7,0*
20,1,$1+$1,$6,$7,$8,$9,0*
20,1,$1+$1,$8,$9,$2,$3,0*%
G04 Aperture macros list end*
%TA.AperFunction,SMDPad,CuDef*%
%ADD10RoundRect,0.237500X0.250000X0.237500X-0.250000X0.237500X-0.250000X-0.237500X0.250000X-0.237500X0*%
%TD*%
%TA.AperFunction,ComponentPad*%
%ADD11RoundRect,0.250000X0.550000X-0.550000X0.550000X0.550000X-0.550000X0.550000X-0.550000X-0.550000X0*%
%TD*%
%TA.AperFunction,ComponentPad*%
%ADD12C,1.600000*%
%TD*%
%TA.AperFunction,ComponentPad*%
%ADD13C,2.400000*%
%TD*%
%TA.AperFunction,ComponentPad*%
%ADD14C,1.850000*%
%TD*%
%TA.AperFunction,SMDPad,CuDef*%
%ADD15RoundRect,0.237500X-0.250000X-0.237500X0.250000X-0.237500X0.250000X0.237500X-0.250000X0.237500X0*%
%TD*%
%TA.AperFunction,ComponentPad*%
%ADD16RoundRect,0.250000X-1.050000X-1.050000X1.050000X-1.050000X1.050000X1.050000X-1.050000X1.050000X0*%
%TD*%
%TA.AperFunction,ComponentPad*%
%ADD17C,2.600000*%
%TD*%
%TA.AperFunction,ComponentPad*%
%ADD18RoundRect,0.250000X0.550000X0.550000X-0.550000X0.550000X-0.550000X-0.550000X0.550000X-0.550000X0*%
%TD*%
%TA.AperFunction,ComponentPad*%
%ADD19RoundRect,0.250000X-1.050000X1.050000X-1.050000X-1.050000X1.050000X-1.050000X1.050000X1.050000X0*%
%TD*%
%TA.AperFunction,ComponentPad*%
%ADD20RoundRect,0.250000X-0.550000X0.550000X-0.550000X-0.550000X0.550000X-0.550000X0.550000X0.550000X0*%
%TD*%
%TA.AperFunction,ViaPad*%
%ADD21C,0.600000*%
%TD*%
%TA.AperFunction,Conductor*%
%ADD22C,1.000000*%
%TD*%
G04 APERTURE END LIST*
D10*
%TO.P,C5,1*%
%TO.N,GND*%
X160458865Y-131604784D03*
%TO.P,C5,2*%
%TO.N,/Rotary_V-_IN*%
X158633865Y-131604784D03*
%TD*%
D11*
%TO.P,C2,1*%
%TO.N,/Rotary_V+_IN*%
X159968865Y-120614784D03*
D12*
%TO.P,C2,2*%
%TO.N,GND*%
X159968865Y-118614784D03*
%TD*%
D13*
%TO.P,F1,1*%
%TO.N,/PowerModule/+15_IN*%
X135088865Y-108954784D03*
%TO.P,F1,2*%
%TO.N,Net-(U1-+Vin)*%
X147788865Y-108954784D03*
%TD*%
%TO.P,L2,1,1_1*%
%TO.N,Net-(U1--Vout)*%
X137348865Y-134584784D03*
%TO.P,L2,2,2_2*%
%TO.N,/Rotary_V-_IN*%
X154348865Y-134584784D03*
%TD*%
%TO.P,L1,1,1_1*%
%TO.N,/Rotary_V+_IN*%
X154348865Y-121234784D03*
%TO.P,L1,2,2_2*%
%TO.N,Net-(U1-+Vout)*%
X137348865Y-121234784D03*
%TD*%
D14*
%TO.P,U1,1,GND_1*%
%TO.N,/PowerModule/PD_GND_IN*%
X129048865Y-120494784D03*
%TO.P,U1,2,+Vin_2*%
%TO.N,Net-(U1-+Vin)*%
X129048865Y-123034784D03*
%TO.P,U1,3,Remote_On/Off_3*%
%TO.N,unconnected-(U1-Remote_On{slash}Off-Pad3)*%
X129048865Y-125574784D03*
%TO.P,U1,5,NC_5*%
%TO.N,unconnected-(U1-NC-Pad5)*%
X129048865Y-130654784D03*
%TO.P,U1,6,+Vout_6*%
%TO.N,Net-(U1-+Vout)*%
X129048865Y-133194784D03*
%TO.P,U1,7,Common_7*%
%TO.N,GND*%
X129048865Y-135734784D03*
%TO.P,U1,8,-Vout_8*%
%TO.N,Net-(U1--Vout)*%
X129048865Y-138274784D03*
%TD*%
D15*
%TO.P,C4,1*%
%TO.N,/Rotary_V+_IN*%
X158536365Y-125284784D03*
%TO.P,C4,2*%
%TO.N,GND*%
X160361365Y-125284784D03*
%TD*%
D16*
%TO.P,J4,1,Pin_1_1*%
%TO.N,/PowerModule/PD_GND_IN*%
X124428865Y-111254784D03*
D17*
%TO.P,J4,2,Pin_2_2*%
%TO.N,/PowerModule/+15_IN*%
X129428865Y-111254784D03*
%TD*%
D18*
%TO.P,C3,1*%
%TO.N,GND*%
X160868865Y-137584784D03*
D12*
%TO.P,C3,2*%
%TO.N,/Rotary_V-_IN*%
X158868865Y-137584784D03*
%TD*%
D19*
%TO.P,J5,1,Pin_1_1*%
%TO.N,/Rotary_V+_IN*%
X168926365Y-117309784D03*
D17*
%TO.P,J5,2,Pin_2_2*%
%TO.N,GND*%
X168926365Y-122389784D03*
%TO.P,J5,3,Pin_3_3*%
%TO.N,/Rotary_V-_IN*%
X168926365Y-127469784D03*
%TD*%
D20*
%TO.P,C1,1*%
%TO.N,Net-(U1-+Vin)*%
X155118865Y-108442133D03*
D12*
%TO.P,C1,2*%
%TO.N,/PowerModule/PD_GND_IN*%
X155118865Y-111942133D03*
%TD*%
D21*
%TO.N,GND*%
X162228865Y-125134784D03*
X160450419Y-129439877D03*
%TD*%
%TO.N,/Rotary_V+_IN*%
D22*
X158536365Y-124347284D02*
X160206365Y-122677284D01*
X162031365Y-122677284D02*
X162091365Y-122677284D01*
X157348865Y-120734784D02*
X159848865Y-120734784D01*
X158536365Y-125284784D02*
X158398865Y-125284784D01*
X158536365Y-125284784D02*
X158536365Y-124347284D01*
X158398865Y-125284784D02*
X154348865Y-121234784D01*
X160206365Y-122677284D02*
X162031365Y-122677284D01*
X162091365Y-122677284D02*
X167458865Y-117309784D01*
X156848865Y-121234784D02*
X157348865Y-120734784D01*
X154348865Y-121234784D02*
X156848865Y-121234784D01*
X159968865Y-120614784D02*
X162031365Y-122677284D01*
X167458865Y-117309784D02*
X168926365Y-117309784D01*
X159848865Y-120734784D02*
X159968865Y-120614784D01*
%TO.N,GND*%
X162078865Y-125284784D02*
X162228865Y-125134784D01*
X160458865Y-131604784D02*
X160458865Y-129448323D01*
X160361365Y-125284784D02*
X162078865Y-125284784D01*
X160458865Y-129448323D02*
X160450419Y-129439877D01*
%TO.N,/Rotary_V-_IN*%
X155653865Y-134584784D02*
X158633865Y-131604784D01*
X161403650Y-134374569D02*
X161403650Y-134599569D01*
X161403650Y-134599569D02*
X168533435Y-127469784D01*
X168533435Y-127469784D02*
X168926365Y-127469784D01*
X158868865Y-137584784D02*
X158868865Y-137134354D01*
X154498865Y-134584784D02*
X155653865Y-134584784D01*
X154498865Y-134584784D02*
X155868865Y-134584784D01*
X155868865Y-134584784D02*
X158868865Y-137584784D01*
X158633865Y-131604784D02*
X161403650Y-134374569D01*
X158868865Y-137134354D02*
X161403650Y-134599569D01*
%TO.N,/PowerModule/+15_IN*%
X129428865Y-111254784D02*
X132788865Y-111254784D01*
X132788865Y-111254784D02*
X135088865Y-108954784D01*
%TO.N,Net-(U1-+Vin)*%
X131678865Y-120404784D02*
X129048865Y-123034784D01*
X154606214Y-108954784D02*
X155118865Y-108442133D01*
X137658865Y-112454784D02*
X131678865Y-112454784D01*
X141158865Y-108954784D02*
X137658865Y-112454784D01*
X147788865Y-108954784D02*
X141158865Y-108954784D01*
X147788865Y-108954784D02*
X154606214Y-108954784D01*
X131678865Y-112454784D02*
X131678865Y-120404784D01*
%TO.N,Net-(U1--Vout)*%
X131528865Y-138274784D02*
X129048865Y-138274784D01*
X137498865Y-134584784D02*
X135218865Y-134584784D01*
X135218865Y-134584784D02*
X131528865Y-138274784D01*
%TO.N,Net-(U1-+Vout)*%
X137348865Y-124894784D02*
X129048865Y-133194784D01*
X137348865Y-121234784D02*
X137348865Y-124894784D01*
%TD*%
M02*
