%TF.GenerationSoftware,KiCad,Pcbnew,10.0.1*%
%TF.CreationDate,2026-05-12T01:23:41+09:00*%
%TF.ProjectId,AudioCase,41756469-6f43-4617-9365-2e6b69636164,rev?*%
%TF.SameCoordinates,Original*%
%TF.FileFunction,Legend,Top*%
%TF.FilePolarity,Positive*%
%FSLAX46Y46*%
G04 Gerber Fmt 4.6, Leading zero omitted, Abs format (unit mm)*
G04 Created by KiCad (PCBNEW 10.0.1) date 2026-05-12 01:23:41*
%MOMM*%
%LPD*%
G01*
G04 APERTURE LIST*
%ADD10C,0.300000*%
%ADD11C,0.150000*%
%ADD12C,0.100000*%
%ADD13C,0.120000*%
G04 APERTURE END LIST*
D10*
X123823375Y-104764184D02*
X124966233Y-104764184D01*
X128823375Y-104864184D02*
X129966233Y-104864184D01*
X129394804Y-105435612D02*
X129394804Y-104292755D01*
X143153375Y-113385612D02*
X143153375Y-111885612D01*
X143153375Y-111885612D02*
X143724804Y-111885612D01*
X143724804Y-111885612D02*
X143867661Y-111957041D01*
X143867661Y-111957041D02*
X143939090Y-112028469D01*
X143939090Y-112028469D02*
X144010518Y-112171326D01*
X144010518Y-112171326D02*
X144010518Y-112385612D01*
X144010518Y-112385612D02*
X143939090Y-112528469D01*
X143939090Y-112528469D02*
X143867661Y-112599898D01*
X143867661Y-112599898D02*
X143724804Y-112671326D01*
X143724804Y-112671326D02*
X143153375Y-112671326D01*
X144939090Y-111885612D02*
X145224804Y-111885612D01*
X145224804Y-111885612D02*
X145367661Y-111957041D01*
X145367661Y-111957041D02*
X145510518Y-112099898D01*
X145510518Y-112099898D02*
X145581947Y-112385612D01*
X145581947Y-112385612D02*
X145581947Y-112885612D01*
X145581947Y-112885612D02*
X145510518Y-113171326D01*
X145510518Y-113171326D02*
X145367661Y-113314184D01*
X145367661Y-113314184D02*
X145224804Y-113385612D01*
X145224804Y-113385612D02*
X144939090Y-113385612D01*
X144939090Y-113385612D02*
X144796233Y-113314184D01*
X144796233Y-113314184D02*
X144653375Y-113171326D01*
X144653375Y-113171326D02*
X144581947Y-112885612D01*
X144581947Y-112885612D02*
X144581947Y-112385612D01*
X144581947Y-112385612D02*
X144653375Y-112099898D01*
X144653375Y-112099898D02*
X144796233Y-111957041D01*
X144796233Y-111957041D02*
X144939090Y-111885612D01*
X146081947Y-111885612D02*
X146439090Y-113385612D01*
X146439090Y-113385612D02*
X146724804Y-112314184D01*
X146724804Y-112314184D02*
X147010519Y-113385612D01*
X147010519Y-113385612D02*
X147367662Y-111885612D01*
X147939090Y-112599898D02*
X148439090Y-112599898D01*
X148653376Y-113385612D02*
X147939090Y-113385612D01*
X147939090Y-113385612D02*
X147939090Y-111885612D01*
X147939090Y-111885612D02*
X148653376Y-111885612D01*
X150153376Y-113385612D02*
X149653376Y-112671326D01*
X149296233Y-113385612D02*
X149296233Y-111885612D01*
X149296233Y-111885612D02*
X149867662Y-111885612D01*
X149867662Y-111885612D02*
X150010519Y-111957041D01*
X150010519Y-111957041D02*
X150081948Y-112028469D01*
X150081948Y-112028469D02*
X150153376Y-112171326D01*
X150153376Y-112171326D02*
X150153376Y-112385612D01*
X150153376Y-112385612D02*
X150081948Y-112528469D01*
X150081948Y-112528469D02*
X150010519Y-112599898D01*
X150010519Y-112599898D02*
X149867662Y-112671326D01*
X149867662Y-112671326D02*
X149296233Y-112671326D01*
X171539090Y-131255612D02*
X172039090Y-132755612D01*
X172039090Y-132755612D02*
X172539090Y-131255612D01*
X173039089Y-132184184D02*
X174181947Y-132184184D01*
X171969090Y-111965612D02*
X172469090Y-113465612D01*
X172469090Y-113465612D02*
X172969090Y-111965612D01*
X173469089Y-112894184D02*
X174611947Y-112894184D01*
X174040518Y-113465612D02*
X174040518Y-112322755D01*
D11*
X158592198Y-130264364D02*
X158544579Y-130311984D01*
X158544579Y-130311984D02*
X158401722Y-130359603D01*
X158401722Y-130359603D02*
X158306484Y-130359603D01*
X158306484Y-130359603D02*
X158163627Y-130311984D01*
X158163627Y-130311984D02*
X158068389Y-130216745D01*
X158068389Y-130216745D02*
X158020770Y-130121507D01*
X158020770Y-130121507D02*
X157973151Y-129931031D01*
X157973151Y-129931031D02*
X157973151Y-129788174D01*
X157973151Y-129788174D02*
X158020770Y-129597698D01*
X158020770Y-129597698D02*
X158068389Y-129502460D01*
X158068389Y-129502460D02*
X158163627Y-129407222D01*
X158163627Y-129407222D02*
X158306484Y-129359603D01*
X158306484Y-129359603D02*
X158401722Y-129359603D01*
X158401722Y-129359603D02*
X158544579Y-129407222D01*
X158544579Y-129407222D02*
X158592198Y-129454841D01*
X159496960Y-129359603D02*
X159020770Y-129359603D01*
X159020770Y-129359603D02*
X158973151Y-129835793D01*
X158973151Y-129835793D02*
X159020770Y-129788174D01*
X159020770Y-129788174D02*
X159116008Y-129740555D01*
X159116008Y-129740555D02*
X159354103Y-129740555D01*
X159354103Y-129740555D02*
X159449341Y-129788174D01*
X159449341Y-129788174D02*
X159496960Y-129835793D01*
X159496960Y-129835793D02*
X159544579Y-129931031D01*
X159544579Y-129931031D02*
X159544579Y-130169126D01*
X159544579Y-130169126D02*
X159496960Y-130264364D01*
X159496960Y-130264364D02*
X159449341Y-130311984D01*
X159449341Y-130311984D02*
X159354103Y-130359603D01*
X159354103Y-130359603D02*
X159116008Y-130359603D01*
X159116008Y-130359603D02*
X159020770Y-130311984D01*
X159020770Y-130311984D02*
X158973151Y-130264364D01*
X159782198Y-116124364D02*
X159734579Y-116171984D01*
X159734579Y-116171984D02*
X159591722Y-116219603D01*
X159591722Y-116219603D02*
X159496484Y-116219603D01*
X159496484Y-116219603D02*
X159353627Y-116171984D01*
X159353627Y-116171984D02*
X159258389Y-116076745D01*
X159258389Y-116076745D02*
X159210770Y-115981507D01*
X159210770Y-115981507D02*
X159163151Y-115791031D01*
X159163151Y-115791031D02*
X159163151Y-115648174D01*
X159163151Y-115648174D02*
X159210770Y-115457698D01*
X159210770Y-115457698D02*
X159258389Y-115362460D01*
X159258389Y-115362460D02*
X159353627Y-115267222D01*
X159353627Y-115267222D02*
X159496484Y-115219603D01*
X159496484Y-115219603D02*
X159591722Y-115219603D01*
X159591722Y-115219603D02*
X159734579Y-115267222D01*
X159734579Y-115267222D02*
X159782198Y-115314841D01*
X160163151Y-115314841D02*
X160210770Y-115267222D01*
X160210770Y-115267222D02*
X160306008Y-115219603D01*
X160306008Y-115219603D02*
X160544103Y-115219603D01*
X160544103Y-115219603D02*
X160639341Y-115267222D01*
X160639341Y-115267222D02*
X160686960Y-115314841D01*
X160686960Y-115314841D02*
X160734579Y-115410079D01*
X160734579Y-115410079D02*
X160734579Y-115505317D01*
X160734579Y-115505317D02*
X160686960Y-115648174D01*
X160686960Y-115648174D02*
X160115532Y-116219603D01*
X160115532Y-116219603D02*
X160734579Y-116219603D01*
X138025531Y-105925793D02*
X137692198Y-105925793D01*
X137692198Y-106449603D02*
X137692198Y-105449603D01*
X137692198Y-105449603D02*
X138168388Y-105449603D01*
X139073150Y-106449603D02*
X138501722Y-106449603D01*
X138787436Y-106449603D02*
X138787436Y-105449603D01*
X138787436Y-105449603D02*
X138692198Y-105592460D01*
X138692198Y-105592460D02*
X138596960Y-105687698D01*
X138596960Y-105687698D02*
X138501722Y-105735317D01*
X144366007Y-106469603D02*
X143794579Y-106469603D01*
X144080293Y-106469603D02*
X144080293Y-105469603D01*
X144080293Y-105469603D02*
X143985055Y-105612460D01*
X143985055Y-105612460D02*
X143889817Y-105707698D01*
X143889817Y-105707698D02*
X143794579Y-105755317D01*
X144746960Y-106183888D02*
X145223150Y-106183888D01*
X144651722Y-106469603D02*
X144985055Y-105469603D01*
X144985055Y-105469603D02*
X145318388Y-106469603D01*
X145682198Y-135039603D02*
X145206008Y-135039603D01*
X145206008Y-135039603D02*
X145206008Y-134039603D01*
X145967913Y-134134841D02*
X146015532Y-134087222D01*
X146015532Y-134087222D02*
X146110770Y-134039603D01*
X146110770Y-134039603D02*
X146348865Y-134039603D01*
X146348865Y-134039603D02*
X146444103Y-134087222D01*
X146444103Y-134087222D02*
X146491722Y-134134841D01*
X146491722Y-134134841D02*
X146539341Y-134230079D01*
X146539341Y-134230079D02*
X146539341Y-134325317D01*
X146539341Y-134325317D02*
X146491722Y-134468174D01*
X146491722Y-134468174D02*
X145920294Y-135039603D01*
X145920294Y-135039603D02*
X146539341Y-135039603D01*
X145682198Y-121689603D02*
X145206008Y-121689603D01*
X145206008Y-121689603D02*
X145206008Y-120689603D01*
X146539341Y-121689603D02*
X145967913Y-121689603D01*
X146253627Y-121689603D02*
X146253627Y-120689603D01*
X146253627Y-120689603D02*
X146158389Y-120832460D01*
X146158389Y-120832460D02*
X146063151Y-120927698D01*
X146063151Y-120927698D02*
X145967913Y-120975317D01*
D12*
X124837419Y-129821902D02*
X125646942Y-129821902D01*
X125646942Y-129821902D02*
X125742180Y-129774283D01*
X125742180Y-129774283D02*
X125789800Y-129726664D01*
X125789800Y-129726664D02*
X125837419Y-129631426D01*
X125837419Y-129631426D02*
X125837419Y-129440950D01*
X125837419Y-129440950D02*
X125789800Y-129345712D01*
X125789800Y-129345712D02*
X125742180Y-129298093D01*
X125742180Y-129298093D02*
X125646942Y-129250474D01*
X125646942Y-129250474D02*
X124837419Y-129250474D01*
X125837419Y-128250474D02*
X125837419Y-128821902D01*
X125837419Y-128536188D02*
X124837419Y-128536188D01*
X124837419Y-128536188D02*
X124980276Y-128631426D01*
X124980276Y-128631426D02*
X125075514Y-128726664D01*
X125075514Y-128726664D02*
X125123133Y-128821902D01*
X125111284Y-119667090D02*
X125111284Y-120238518D01*
X125111284Y-119952804D02*
X124111284Y-119952804D01*
X124111284Y-119952804D02*
X124254141Y-120048042D01*
X124254141Y-120048042D02*
X124349379Y-120143280D01*
X124349379Y-120143280D02*
X124396998Y-120238518D01*
D11*
X158424698Y-127334364D02*
X158377079Y-127381984D01*
X158377079Y-127381984D02*
X158234222Y-127429603D01*
X158234222Y-127429603D02*
X158138984Y-127429603D01*
X158138984Y-127429603D02*
X157996127Y-127381984D01*
X157996127Y-127381984D02*
X157900889Y-127286745D01*
X157900889Y-127286745D02*
X157853270Y-127191507D01*
X157853270Y-127191507D02*
X157805651Y-127001031D01*
X157805651Y-127001031D02*
X157805651Y-126858174D01*
X157805651Y-126858174D02*
X157853270Y-126667698D01*
X157853270Y-126667698D02*
X157900889Y-126572460D01*
X157900889Y-126572460D02*
X157996127Y-126477222D01*
X157996127Y-126477222D02*
X158138984Y-126429603D01*
X158138984Y-126429603D02*
X158234222Y-126429603D01*
X158234222Y-126429603D02*
X158377079Y-126477222D01*
X158377079Y-126477222D02*
X158424698Y-126524841D01*
X159281841Y-126762936D02*
X159281841Y-127429603D01*
X159043746Y-126381984D02*
X158805651Y-127096269D01*
X158805651Y-127096269D02*
X159424698Y-127096269D01*
X126595531Y-104389603D02*
X126595531Y-105103888D01*
X126595531Y-105103888D02*
X126547912Y-105246745D01*
X126547912Y-105246745D02*
X126452674Y-105341984D01*
X126452674Y-105341984D02*
X126309817Y-105389603D01*
X126309817Y-105389603D02*
X126214579Y-105389603D01*
X127500293Y-104722936D02*
X127500293Y-105389603D01*
X127262198Y-104341984D02*
X127024103Y-105056269D01*
X127024103Y-105056269D02*
X127643150Y-105056269D01*
X163632198Y-136224364D02*
X163584579Y-136271984D01*
X163584579Y-136271984D02*
X163441722Y-136319603D01*
X163441722Y-136319603D02*
X163346484Y-136319603D01*
X163346484Y-136319603D02*
X163203627Y-136271984D01*
X163203627Y-136271984D02*
X163108389Y-136176745D01*
X163108389Y-136176745D02*
X163060770Y-136081507D01*
X163060770Y-136081507D02*
X163013151Y-135891031D01*
X163013151Y-135891031D02*
X163013151Y-135748174D01*
X163013151Y-135748174D02*
X163060770Y-135557698D01*
X163060770Y-135557698D02*
X163108389Y-135462460D01*
X163108389Y-135462460D02*
X163203627Y-135367222D01*
X163203627Y-135367222D02*
X163346484Y-135319603D01*
X163346484Y-135319603D02*
X163441722Y-135319603D01*
X163441722Y-135319603D02*
X163584579Y-135367222D01*
X163584579Y-135367222D02*
X163632198Y-135414841D01*
X163965532Y-135319603D02*
X164584579Y-135319603D01*
X164584579Y-135319603D02*
X164251246Y-135700555D01*
X164251246Y-135700555D02*
X164394103Y-135700555D01*
X164394103Y-135700555D02*
X164489341Y-135748174D01*
X164489341Y-135748174D02*
X164536960Y-135795793D01*
X164536960Y-135795793D02*
X164584579Y-135891031D01*
X164584579Y-135891031D02*
X164584579Y-136129126D01*
X164584579Y-136129126D02*
X164536960Y-136224364D01*
X164536960Y-136224364D02*
X164489341Y-136271984D01*
X164489341Y-136271984D02*
X164394103Y-136319603D01*
X164394103Y-136319603D02*
X164108389Y-136319603D01*
X164108389Y-136319603D02*
X164013151Y-136271984D01*
X164013151Y-136271984D02*
X163965532Y-136224364D01*
X172103684Y-122878117D02*
X172817969Y-122878117D01*
X172817969Y-122878117D02*
X172960826Y-122925736D01*
X172960826Y-122925736D02*
X173056065Y-123020974D01*
X173056065Y-123020974D02*
X173103684Y-123163831D01*
X173103684Y-123163831D02*
X173103684Y-123259069D01*
X172103684Y-121925736D02*
X172103684Y-122401926D01*
X172103684Y-122401926D02*
X172579874Y-122449545D01*
X172579874Y-122449545D02*
X172532255Y-122401926D01*
X172532255Y-122401926D02*
X172484636Y-122306688D01*
X172484636Y-122306688D02*
X172484636Y-122068593D01*
X172484636Y-122068593D02*
X172532255Y-121973355D01*
X172532255Y-121973355D02*
X172579874Y-121925736D01*
X172579874Y-121925736D02*
X172675112Y-121878117D01*
X172675112Y-121878117D02*
X172913207Y-121878117D01*
X172913207Y-121878117D02*
X173008445Y-121925736D01*
X173008445Y-121925736D02*
X173056065Y-121973355D01*
X173056065Y-121973355D02*
X173103684Y-122068593D01*
X173103684Y-122068593D02*
X173103684Y-122306688D01*
X173103684Y-122306688D02*
X173056065Y-122401926D01*
X173056065Y-122401926D02*
X173008445Y-122449545D01*
X152052198Y-105801713D02*
X152004579Y-105849333D01*
X152004579Y-105849333D02*
X151861722Y-105896952D01*
X151861722Y-105896952D02*
X151766484Y-105896952D01*
X151766484Y-105896952D02*
X151623627Y-105849333D01*
X151623627Y-105849333D02*
X151528389Y-105754094D01*
X151528389Y-105754094D02*
X151480770Y-105658856D01*
X151480770Y-105658856D02*
X151433151Y-105468380D01*
X151433151Y-105468380D02*
X151433151Y-105325523D01*
X151433151Y-105325523D02*
X151480770Y-105135047D01*
X151480770Y-105135047D02*
X151528389Y-105039809D01*
X151528389Y-105039809D02*
X151623627Y-104944571D01*
X151623627Y-104944571D02*
X151766484Y-104896952D01*
X151766484Y-104896952D02*
X151861722Y-104896952D01*
X151861722Y-104896952D02*
X152004579Y-104944571D01*
X152004579Y-104944571D02*
X152052198Y-104992190D01*
X153004579Y-105896952D02*
X152433151Y-105896952D01*
X152718865Y-105896952D02*
X152718865Y-104896952D01*
X152718865Y-104896952D02*
X152623627Y-105039809D01*
X152623627Y-105039809D02*
X152528389Y-105135047D01*
X152528389Y-105135047D02*
X152433151Y-105182666D01*
%TO.C,C5*%
D13*
X159801089Y-131082284D02*
X159291641Y-131082284D01*
X159801089Y-132127284D02*
X159291641Y-132127284D01*
%TO.C,C2*%
X157388865Y-119574784D02*
X158928865Y-119574784D01*
X157388865Y-119614784D02*
X158928865Y-119614784D01*
X157389865Y-119534784D02*
X158928865Y-119534784D01*
X157391865Y-119494784D02*
X158928865Y-119494784D01*
X157393865Y-119454784D02*
X158928865Y-119454784D01*
X157396865Y-119414784D02*
X158928865Y-119414784D01*
X157399865Y-119374784D02*
X158928865Y-119374784D01*
X157403865Y-119334784D02*
X158928865Y-119334784D01*
X157408865Y-119294784D02*
X158928865Y-119294784D01*
X157413865Y-119254784D02*
X158928865Y-119254784D01*
X157419865Y-119214784D02*
X158928865Y-119214784D01*
X157425865Y-119174784D02*
X158928865Y-119174784D01*
X157432865Y-119134784D02*
X158928865Y-119134784D01*
X157440865Y-119094784D02*
X158928865Y-119094784D01*
X157449865Y-119054784D02*
X158928865Y-119054784D01*
X157458865Y-119014784D02*
X158928865Y-119014784D01*
X157467865Y-118974784D02*
X158928865Y-118974784D01*
X157478865Y-118934784D02*
X158928865Y-118934784D01*
X157489865Y-118894784D02*
X158928865Y-118894784D01*
X157501865Y-118854784D02*
X158928865Y-118854784D01*
X157513865Y-118814784D02*
X158928865Y-118814784D01*
X157526865Y-118774784D02*
X158928865Y-118774784D01*
X157540865Y-118734784D02*
X158928865Y-118734784D01*
X157555865Y-118694784D02*
X158928865Y-118694784D01*
X157570865Y-118654784D02*
X158928865Y-118654784D01*
X157586865Y-118614784D02*
X158928865Y-118614784D01*
X157603865Y-118574784D02*
X158928865Y-118574784D01*
X157621865Y-118534784D02*
X158928865Y-118534784D01*
X157639865Y-118494784D02*
X158928865Y-118494784D01*
X157659865Y-118454784D02*
X158928865Y-118454784D01*
X157679865Y-118414784D02*
X158928865Y-118414784D01*
X157700865Y-118374784D02*
X158928865Y-118374784D01*
X157722865Y-118334784D02*
X158928865Y-118334784D01*
X157745865Y-118294784D02*
X158928865Y-118294784D01*
X157769865Y-118254784D02*
X158928865Y-118254784D01*
X157793865Y-118214784D02*
X158928865Y-118214784D01*
X157819865Y-118174784D02*
X158928865Y-118174784D01*
X157846865Y-118134784D02*
X158928865Y-118134784D01*
X157874865Y-118094784D02*
X158928865Y-118094784D01*
X157903865Y-118054784D02*
X158928865Y-118054784D01*
X157933865Y-118014784D02*
X158928865Y-118014784D01*
X157965865Y-117974784D02*
X158928865Y-117974784D01*
X157998865Y-117934784D02*
X158928865Y-117934784D01*
X158032865Y-117894784D02*
X158928865Y-117894784D01*
X158067865Y-117854784D02*
X158928865Y-117854784D01*
X158104865Y-117814784D02*
X158928865Y-117814784D01*
X158143865Y-117774784D02*
X158928865Y-117774784D01*
X158183865Y-117734784D02*
X158928865Y-117734784D01*
X158225865Y-117694784D02*
X158928865Y-117694784D01*
X158243865Y-122169559D02*
X158743865Y-122169559D01*
X158269865Y-117654784D02*
X158928865Y-117654784D01*
X158316865Y-117614784D02*
X158928865Y-117614784D01*
X158364865Y-117574784D02*
X161572865Y-117574784D01*
X158415865Y-117534784D02*
X161521865Y-117534784D01*
X158469865Y-117494784D02*
X161467865Y-117494784D01*
X158493865Y-122419559D02*
X158493865Y-121919559D01*
X158525865Y-117454784D02*
X161411865Y-117454784D01*
X158585865Y-117414784D02*
X161351865Y-117414784D01*
X158649865Y-117374784D02*
X161287865Y-117374784D01*
X158717865Y-117334784D02*
X161219865Y-117334784D01*
X158791865Y-117294784D02*
X161145865Y-117294784D01*
X158870865Y-117254784D02*
X161066865Y-117254784D01*
X158957865Y-117214784D02*
X160979865Y-117214784D01*
X159054865Y-117174784D02*
X160882865Y-117174784D01*
X159163865Y-117134784D02*
X160773865Y-117134784D01*
X159291865Y-117094784D02*
X160645865Y-117094784D01*
X159451865Y-117054784D02*
X160485865Y-117054784D01*
X159685865Y-117014784D02*
X160251865Y-117014784D01*
X161008865Y-117614784D02*
X161620865Y-117614784D01*
X161008865Y-117654784D02*
X161667865Y-117654784D01*
X161008865Y-117694784D02*
X161711865Y-117694784D01*
X161008865Y-117734784D02*
X161753865Y-117734784D01*
X161008865Y-117774784D02*
X161793865Y-117774784D01*
X161008865Y-117814784D02*
X161832865Y-117814784D01*
X161008865Y-117854784D02*
X161869865Y-117854784D01*
X161008865Y-117894784D02*
X161904865Y-117894784D01*
X161008865Y-117934784D02*
X161938865Y-117934784D01*
X161008865Y-117974784D02*
X161971865Y-117974784D01*
X161008865Y-118014784D02*
X162003865Y-118014784D01*
X161008865Y-118054784D02*
X162033865Y-118054784D01*
X161008865Y-118094784D02*
X162062865Y-118094784D01*
X161008865Y-118134784D02*
X162090865Y-118134784D01*
X161008865Y-118174784D02*
X162117865Y-118174784D01*
X161008865Y-118214784D02*
X162143865Y-118214784D01*
X161008865Y-118254784D02*
X162167865Y-118254784D01*
X161008865Y-118294784D02*
X162191865Y-118294784D01*
X161008865Y-118334784D02*
X162214865Y-118334784D01*
X161008865Y-118374784D02*
X162236865Y-118374784D01*
X161008865Y-118414784D02*
X162257865Y-118414784D01*
X161008865Y-118454784D02*
X162277865Y-118454784D01*
X161008865Y-118494784D02*
X162297865Y-118494784D01*
X161008865Y-118534784D02*
X162315865Y-118534784D01*
X161008865Y-118574784D02*
X162333865Y-118574784D01*
X161008865Y-118614784D02*
X162350865Y-118614784D01*
X161008865Y-118654784D02*
X162366865Y-118654784D01*
X161008865Y-118694784D02*
X162381865Y-118694784D01*
X161008865Y-118734784D02*
X162396865Y-118734784D01*
X161008865Y-118774784D02*
X162410865Y-118774784D01*
X161008865Y-118814784D02*
X162423865Y-118814784D01*
X161008865Y-118854784D02*
X162435865Y-118854784D01*
X161008865Y-118894784D02*
X162447865Y-118894784D01*
X161008865Y-118934784D02*
X162458865Y-118934784D01*
X161008865Y-118974784D02*
X162469865Y-118974784D01*
X161008865Y-119014784D02*
X162478865Y-119014784D01*
X161008865Y-119054784D02*
X162487865Y-119054784D01*
X161008865Y-119094784D02*
X162496865Y-119094784D01*
X161008865Y-119134784D02*
X162504865Y-119134784D01*
X161008865Y-119174784D02*
X162511865Y-119174784D01*
X161008865Y-119214784D02*
X162517865Y-119214784D01*
X161008865Y-119254784D02*
X162523865Y-119254784D01*
X161008865Y-119294784D02*
X162528865Y-119294784D01*
X161008865Y-119334784D02*
X162533865Y-119334784D01*
X161008865Y-119374784D02*
X162537865Y-119374784D01*
X161008865Y-119414784D02*
X162540865Y-119414784D01*
X161008865Y-119454784D02*
X162543865Y-119454784D01*
X161008865Y-119494784D02*
X162545865Y-119494784D01*
X161008865Y-119534784D02*
X162547865Y-119534784D01*
X161008865Y-119574784D02*
X162548865Y-119574784D01*
X161008865Y-119614784D02*
X162548865Y-119614784D01*
X162588865Y-119614784D02*
G75*
G02*
X157348865Y-119614784I-2620000J0D01*
G01*
X157348865Y-119614784D02*
G75*
G02*
X162588865Y-119614784I2620000J0D01*
G01*
%TO.C,F1*%
X136368865Y-107034784D02*
X146508865Y-107034784D01*
X136368865Y-107514784D02*
X136368865Y-107034784D01*
X136368865Y-110394784D02*
X136368865Y-110874784D01*
X136368865Y-110874784D02*
X146508865Y-110874784D01*
X146508865Y-107034784D02*
X146508865Y-107514784D01*
X146508865Y-110874784D02*
X146508865Y-110394784D01*
%TO.C,L2*%
X140330744Y-133124784D02*
G75*
G02*
X151366986Y-133124784I5518121J-1459999D01*
G01*
X151366986Y-136044784D02*
G75*
G02*
X140330744Y-136044784I-5518121J1459999D01*
G01*
X148637165Y-134584784D02*
G75*
G02*
X143060565Y-134584784I-2788300J0D01*
G01*
X143060565Y-134584784D02*
G75*
G02*
X148637165Y-134584784I2788300J0D01*
G01*
%TO.C,L1*%
X140330744Y-119774784D02*
G75*
G02*
X151366986Y-119774784I5518121J-1459999D01*
G01*
X151366986Y-122694784D02*
G75*
G02*
X140330744Y-122694784I-5518121J1459999D01*
G01*
X148637165Y-121234784D02*
G75*
G02*
X143060565Y-121234784I-2788300J0D01*
G01*
X143060565Y-121234784D02*
G75*
G02*
X148637165Y-121234784I2788300J0D01*
G01*
%TO.C,U1*%
D12*
X122448865Y-118484784D02*
X131748865Y-118484784D01*
X131748865Y-140284784D01*
X122448865Y-140284784D01*
X122448865Y-118484784D01*
%TO.C,C4*%
D13*
X159194141Y-124762284D02*
X159703589Y-124762284D01*
X159194141Y-125807284D02*
X159703589Y-125807284D01*
%TO.C,J4*%
X121808865Y-105934784D02*
X132048865Y-105934784D01*
X121808865Y-108954784D02*
X132048865Y-108954784D01*
X121808865Y-113854784D02*
X132048865Y-113854784D01*
X121808865Y-115354784D02*
X132048865Y-115354784D01*
X121808865Y-115974784D02*
X121808865Y-105934784D01*
X124128865Y-115974784D02*
X121808865Y-115974784D01*
X132048865Y-105934784D02*
X132048865Y-115974784D01*
X132048865Y-115974784D02*
X124728865Y-115974784D01*
X124868865Y-116584784D02*
X123988865Y-116584784D01*
X124428865Y-115974784D01*
X124868865Y-116584784D01*
G36*
X124868865Y-116584784D02*
G01*
X123988865Y-116584784D01*
X124428865Y-115974784D01*
X124868865Y-116584784D01*
G37*
%TO.C,C3*%
X157268865Y-137867784D02*
X157268865Y-137301784D01*
X157308865Y-138101784D02*
X157308865Y-137067784D01*
X157348865Y-138261784D02*
X157348865Y-136907784D01*
X157388865Y-138389784D02*
X157388865Y-136779784D01*
X157428865Y-138498784D02*
X157428865Y-136670784D01*
X157468865Y-138595784D02*
X157468865Y-136573784D01*
X157508865Y-138682784D02*
X157508865Y-136486784D01*
X157548865Y-138761784D02*
X157548865Y-136407784D01*
X157588865Y-138835784D02*
X157588865Y-136333784D01*
X157628865Y-138903784D02*
X157628865Y-136265784D01*
X157668865Y-138967784D02*
X157668865Y-136201784D01*
X157708865Y-139027784D02*
X157708865Y-136141784D01*
X157748865Y-139083784D02*
X157748865Y-136085784D01*
X157788865Y-139137784D02*
X157788865Y-136031784D01*
X157828865Y-139188784D02*
X157828865Y-135980784D01*
X157868865Y-136544784D02*
X157868865Y-135932784D01*
X157868865Y-139236784D02*
X157868865Y-138624784D01*
X157908865Y-136544784D02*
X157908865Y-135885784D01*
X157908865Y-139283784D02*
X157908865Y-138624784D01*
X157948865Y-136544784D02*
X157948865Y-135841784D01*
X157948865Y-139327784D02*
X157948865Y-138624784D01*
X157988865Y-136544784D02*
X157988865Y-135799784D01*
X157988865Y-139369784D02*
X157988865Y-138624784D01*
X158028865Y-136544784D02*
X158028865Y-135759784D01*
X158028865Y-139409784D02*
X158028865Y-138624784D01*
X158068865Y-136544784D02*
X158068865Y-135720784D01*
X158068865Y-139448784D02*
X158068865Y-138624784D01*
X158108865Y-136544784D02*
X158108865Y-135683784D01*
X158108865Y-139485784D02*
X158108865Y-138624784D01*
X158148865Y-136544784D02*
X158148865Y-135648784D01*
X158148865Y-139520784D02*
X158148865Y-138624784D01*
X158188865Y-136544784D02*
X158188865Y-135614784D01*
X158188865Y-139554784D02*
X158188865Y-138624784D01*
X158228865Y-136544784D02*
X158228865Y-135581784D01*
X158228865Y-139587784D02*
X158228865Y-138624784D01*
X158268865Y-136544784D02*
X158268865Y-135549784D01*
X158268865Y-139619784D02*
X158268865Y-138624784D01*
X158308865Y-136544784D02*
X158308865Y-135519784D01*
X158308865Y-139649784D02*
X158308865Y-138624784D01*
X158348865Y-136544784D02*
X158348865Y-135490784D01*
X158348865Y-139678784D02*
X158348865Y-138624784D01*
X158388865Y-136544784D02*
X158388865Y-135462784D01*
X158388865Y-139706784D02*
X158388865Y-138624784D01*
X158428865Y-136544784D02*
X158428865Y-135435784D01*
X158428865Y-139733784D02*
X158428865Y-138624784D01*
X158468865Y-136544784D02*
X158468865Y-135409784D01*
X158468865Y-139759784D02*
X158468865Y-138624784D01*
X158508865Y-136544784D02*
X158508865Y-135385784D01*
X158508865Y-139783784D02*
X158508865Y-138624784D01*
X158548865Y-136544784D02*
X158548865Y-135361784D01*
X158548865Y-139807784D02*
X158548865Y-138624784D01*
X158588865Y-136544784D02*
X158588865Y-135338784D01*
X158588865Y-139830784D02*
X158588865Y-138624784D01*
X158628865Y-136544784D02*
X158628865Y-135316784D01*
X158628865Y-139852784D02*
X158628865Y-138624784D01*
X158668865Y-136544784D02*
X158668865Y-135295784D01*
X158668865Y-139873784D02*
X158668865Y-138624784D01*
X158708865Y-136544784D02*
X158708865Y-135275784D01*
X158708865Y-139893784D02*
X158708865Y-138624784D01*
X158748865Y-136544784D02*
X158748865Y-135255784D01*
X158748865Y-139913784D02*
X158748865Y-138624784D01*
X158788865Y-136544784D02*
X158788865Y-135237784D01*
X158788865Y-139931784D02*
X158788865Y-138624784D01*
X158828865Y-136544784D02*
X158828865Y-135219784D01*
X158828865Y-139949784D02*
X158828865Y-138624784D01*
X158868865Y-136544784D02*
X158868865Y-135202784D01*
X158868865Y-139966784D02*
X158868865Y-138624784D01*
X158908865Y-136544784D02*
X158908865Y-135186784D01*
X158908865Y-139982784D02*
X158908865Y-138624784D01*
X158948865Y-136544784D02*
X158948865Y-135171784D01*
X158948865Y-139997784D02*
X158948865Y-138624784D01*
X158988865Y-136544784D02*
X158988865Y-135156784D01*
X158988865Y-140012784D02*
X158988865Y-138624784D01*
X159028865Y-136544784D02*
X159028865Y-135142784D01*
X159028865Y-140026784D02*
X159028865Y-138624784D01*
X159068865Y-136544784D02*
X159068865Y-135129784D01*
X159068865Y-140039784D02*
X159068865Y-138624784D01*
X159108865Y-136544784D02*
X159108865Y-135117784D01*
X159108865Y-140051784D02*
X159108865Y-138624784D01*
X159148865Y-136544784D02*
X159148865Y-135105784D01*
X159148865Y-140063784D02*
X159148865Y-138624784D01*
X159188865Y-136544784D02*
X159188865Y-135094784D01*
X159188865Y-140074784D02*
X159188865Y-138624784D01*
X159228865Y-136544784D02*
X159228865Y-135083784D01*
X159228865Y-140085784D02*
X159228865Y-138624784D01*
X159268865Y-136544784D02*
X159268865Y-135074784D01*
X159268865Y-140094784D02*
X159268865Y-138624784D01*
X159308865Y-136544784D02*
X159308865Y-135065784D01*
X159308865Y-140103784D02*
X159308865Y-138624784D01*
X159348865Y-136544784D02*
X159348865Y-135056784D01*
X159348865Y-140112784D02*
X159348865Y-138624784D01*
X159388865Y-136544784D02*
X159388865Y-135048784D01*
X159388865Y-140120784D02*
X159388865Y-138624784D01*
X159428865Y-136544784D02*
X159428865Y-135041784D01*
X159428865Y-140127784D02*
X159428865Y-138624784D01*
X159468865Y-136544784D02*
X159468865Y-135035784D01*
X159468865Y-140133784D02*
X159468865Y-138624784D01*
X159508865Y-136544784D02*
X159508865Y-135029784D01*
X159508865Y-140139784D02*
X159508865Y-138624784D01*
X159548865Y-136544784D02*
X159548865Y-135024784D01*
X159548865Y-140144784D02*
X159548865Y-138624784D01*
X159588865Y-136544784D02*
X159588865Y-135019784D01*
X159588865Y-140149784D02*
X159588865Y-138624784D01*
X159628865Y-136544784D02*
X159628865Y-135015784D01*
X159628865Y-140153784D02*
X159628865Y-138624784D01*
X159668865Y-136544784D02*
X159668865Y-135012784D01*
X159668865Y-140156784D02*
X159668865Y-138624784D01*
X159708865Y-136544784D02*
X159708865Y-135009784D01*
X159708865Y-140159784D02*
X159708865Y-138624784D01*
X159748865Y-136544784D02*
X159748865Y-135007784D01*
X159748865Y-140161784D02*
X159748865Y-138624784D01*
X159788865Y-136544784D02*
X159788865Y-135005784D01*
X159788865Y-140163784D02*
X159788865Y-138624784D01*
X159828865Y-136544784D02*
X159828865Y-135004784D01*
X159828865Y-140164784D02*
X159828865Y-138624784D01*
X159868865Y-136544784D02*
X159868865Y-135004784D01*
X159868865Y-140164784D02*
X159868865Y-138624784D01*
X162423640Y-139309784D02*
X162423640Y-138809784D01*
X162673640Y-139059784D02*
X162173640Y-139059784D01*
X162488865Y-137584784D02*
G75*
G02*
X157248865Y-137584784I-2620000J0D01*
G01*
X157248865Y-137584784D02*
G75*
G02*
X162488865Y-137584784I2620000J0D01*
G01*
%TO.C,J5*%
X164206365Y-114649784D02*
X174246365Y-114649784D01*
X164206365Y-117009784D02*
X164206365Y-114649784D01*
X164206365Y-130129784D02*
X164206365Y-117609784D01*
X164826365Y-114649784D02*
X164826365Y-130129784D01*
X166326365Y-114649784D02*
X166326365Y-130129784D01*
X171226365Y-114649784D02*
X171226365Y-130129784D01*
X174246365Y-114649784D02*
X174246365Y-130129784D01*
X174246365Y-130129784D02*
X164206365Y-130129784D01*
X164206365Y-117309784D02*
X163596365Y-117749784D01*
X163596365Y-116869784D01*
X164206365Y-117309784D01*
G36*
X164206365Y-117309784D02*
G01*
X163596365Y-117749784D01*
X163596365Y-116869784D01*
X164206365Y-117309784D01*
G37*
%TO.C,C1*%
X154078865Y-110912133D02*
X151101865Y-110912133D01*
X154078865Y-110952133D02*
X151109865Y-110952133D01*
X154078865Y-110992133D02*
X151116865Y-110992133D01*
X154078865Y-111032133D02*
X151125865Y-111032133D01*
X154078865Y-111072133D02*
X151133865Y-111072133D01*
X154078865Y-111112133D02*
X151142865Y-111112133D01*
X154078865Y-111152133D02*
X151151865Y-111152133D01*
X154078865Y-111192133D02*
X151161865Y-111192133D01*
X154078865Y-111232133D02*
X151171865Y-111232133D01*
X154078865Y-111272133D02*
X151182865Y-111272133D01*
X154078865Y-111312133D02*
X151193865Y-111312133D01*
X154078865Y-111352133D02*
X151205865Y-111352133D01*
X154078865Y-111392133D02*
X151217865Y-111392133D01*
X154078865Y-111432133D02*
X151229865Y-111432133D01*
X154078865Y-111472133D02*
X151242865Y-111472133D01*
X154078865Y-111512133D02*
X151255865Y-111512133D01*
X154078865Y-111552133D02*
X151269865Y-111552133D01*
X154078865Y-111592133D02*
X151283865Y-111592133D01*
X154078865Y-111632133D02*
X151298865Y-111632133D01*
X154078865Y-111672133D02*
X151313865Y-111672133D01*
X154078865Y-111712133D02*
X151329865Y-111712133D01*
X154078865Y-111752133D02*
X151345865Y-111752133D01*
X154078865Y-111792133D02*
X151361865Y-111792133D01*
X154078865Y-111832133D02*
X151378865Y-111832133D01*
X154078865Y-111872133D02*
X151396865Y-111872133D01*
X154078865Y-111912133D02*
X151414865Y-111912133D01*
X154078865Y-111952133D02*
X151433865Y-111952133D01*
X154078865Y-111992133D02*
X151452865Y-111992133D01*
X154078865Y-112032133D02*
X151472865Y-112032133D01*
X154078865Y-112072133D02*
X151492865Y-112072133D01*
X154078865Y-112112133D02*
X151513865Y-112112133D01*
X154078865Y-112152133D02*
X151534865Y-112152133D01*
X154078865Y-112192133D02*
X151556865Y-112192133D01*
X154078865Y-112232133D02*
X151579865Y-112232133D01*
X154078865Y-112272133D02*
X151602865Y-112272133D01*
X154078865Y-112312133D02*
X151625865Y-112312133D01*
X154078865Y-112352133D02*
X151650865Y-112352133D01*
X154078865Y-112392133D02*
X151675865Y-112392133D01*
X154078865Y-112432133D02*
X151700865Y-112432133D01*
X154078865Y-112472133D02*
X151726865Y-112472133D01*
X154078865Y-112512133D02*
X151753865Y-112512133D01*
X154078865Y-112552133D02*
X151781865Y-112552133D01*
X154078865Y-112592133D02*
X151809865Y-112592133D01*
X154078865Y-112632133D02*
X151838865Y-112632133D01*
X154078865Y-112672133D02*
X151868865Y-112672133D01*
X154078865Y-112712133D02*
X151899865Y-112712133D01*
X154078865Y-112752133D02*
X151930865Y-112752133D01*
X154078865Y-112792133D02*
X151962865Y-112792133D01*
X154078865Y-112832133D02*
X151995865Y-112832133D01*
X154078865Y-112872133D02*
X152029865Y-112872133D01*
X154078865Y-112912133D02*
X152063865Y-112912133D01*
X154078865Y-112952133D02*
X152099865Y-112952133D01*
X155651865Y-114272133D02*
X154585865Y-114272133D01*
X155886865Y-114232133D02*
X154350865Y-114232133D01*
X156065865Y-114192133D02*
X154171865Y-114192133D01*
X156215865Y-114152133D02*
X154021865Y-114152133D01*
X156346865Y-114112133D02*
X153890865Y-114112133D01*
X156464865Y-114072133D02*
X153772865Y-114072133D01*
X156571865Y-114032133D02*
X153665865Y-114032133D01*
X156670865Y-113992133D02*
X153566865Y-113992133D01*
X156762865Y-113952133D02*
X153474865Y-113952133D01*
X156849865Y-113912133D02*
X153387865Y-113912133D01*
X156931865Y-113872133D02*
X153305865Y-113872133D01*
X157008865Y-113832133D02*
X153228865Y-113832133D01*
X157082865Y-113792133D02*
X153154865Y-113792133D01*
X157152865Y-113752133D02*
X153084865Y-113752133D01*
X157219865Y-113712133D02*
X153017865Y-113712133D01*
X157283865Y-113672133D02*
X152953865Y-113672133D01*
X157345865Y-113632133D02*
X152891865Y-113632133D01*
X157405865Y-113592133D02*
X152831865Y-113592133D01*
X157433865Y-105782435D02*
X157433865Y-106582435D01*
X157462865Y-113552133D02*
X152774865Y-113552133D01*
X157518865Y-113512133D02*
X152718865Y-113512133D01*
X157571865Y-113472133D02*
X152665865Y-113472133D01*
X157623865Y-113432133D02*
X152613865Y-113432133D01*
X157673865Y-113392133D02*
X152563865Y-113392133D01*
X157722865Y-113352133D02*
X152514865Y-113352133D01*
X157769865Y-113312133D02*
X152467865Y-113312133D01*
X157814865Y-113272133D02*
X152422865Y-113272133D01*
X157833865Y-106182435D02*
X157033865Y-106182435D01*
X157859865Y-113232133D02*
X152377865Y-113232133D01*
X157902865Y-113192133D02*
X152334865Y-113192133D01*
X157944865Y-113152133D02*
X152292865Y-113152133D01*
X157985865Y-113112133D02*
X152251865Y-113112133D01*
X158024865Y-113072133D02*
X152212865Y-113072133D01*
X158063865Y-113032133D02*
X152173865Y-113032133D01*
X158100865Y-112992133D02*
X152136865Y-112992133D01*
X158137865Y-112952133D02*
X156158865Y-112952133D01*
X158173865Y-112912133D02*
X156158865Y-112912133D01*
X158207865Y-112872133D02*
X156158865Y-112872133D01*
X158241865Y-112832133D02*
X156158865Y-112832133D01*
X158274865Y-112792133D02*
X156158865Y-112792133D01*
X158306865Y-112752133D02*
X156158865Y-112752133D01*
X158337865Y-112712133D02*
X156158865Y-112712133D01*
X158368865Y-112672133D02*
X156158865Y-112672133D01*
X158398865Y-112632133D02*
X156158865Y-112632133D01*
X158427865Y-112592133D02*
X156158865Y-112592133D01*
X158455865Y-112552133D02*
X156158865Y-112552133D01*
X158483865Y-112512133D02*
X156158865Y-112512133D01*
X158510865Y-112472133D02*
X156158865Y-112472133D01*
X158536865Y-112432133D02*
X156158865Y-112432133D01*
X158561865Y-112392133D02*
X156158865Y-112392133D01*
X158586865Y-112352133D02*
X156158865Y-112352133D01*
X158611865Y-112312133D02*
X156158865Y-112312133D01*
X158634865Y-112272133D02*
X156158865Y-112272133D01*
X158657865Y-112232133D02*
X156158865Y-112232133D01*
X158680865Y-112192133D02*
X156158865Y-112192133D01*
X158702865Y-112152133D02*
X156158865Y-112152133D01*
X158723865Y-112112133D02*
X156158865Y-112112133D01*
X158744865Y-112072133D02*
X156158865Y-112072133D01*
X158764865Y-112032133D02*
X156158865Y-112032133D01*
X158784865Y-111992133D02*
X156158865Y-111992133D01*
X158803865Y-111952133D02*
X156158865Y-111952133D01*
X158822865Y-111912133D02*
X156158865Y-111912133D01*
X158840865Y-111872133D02*
X156158865Y-111872133D01*
X158858865Y-111832133D02*
X156158865Y-111832133D01*
X158875865Y-111792133D02*
X156158865Y-111792133D01*
X158891865Y-111752133D02*
X156158865Y-111752133D01*
X158907865Y-111712133D02*
X156158865Y-111712133D01*
X158923865Y-111672133D02*
X156158865Y-111672133D01*
X158938865Y-111632133D02*
X156158865Y-111632133D01*
X158953865Y-111592133D02*
X156158865Y-111592133D01*
X158967865Y-111552133D02*
X156158865Y-111552133D01*
X158981865Y-111512133D02*
X156158865Y-111512133D01*
X158994865Y-111472133D02*
X156158865Y-111472133D01*
X159007865Y-111432133D02*
X156158865Y-111432133D01*
X159019865Y-111392133D02*
X156158865Y-111392133D01*
X159031865Y-111352133D02*
X156158865Y-111352133D01*
X159043865Y-111312133D02*
X156158865Y-111312133D01*
X159054865Y-111272133D02*
X156158865Y-111272133D01*
X159065865Y-111232133D02*
X156158865Y-111232133D01*
X159075865Y-111192133D02*
X156158865Y-111192133D01*
X159085865Y-111152133D02*
X156158865Y-111152133D01*
X159094865Y-111112133D02*
X156158865Y-111112133D01*
X159103865Y-111072133D02*
X156158865Y-111072133D01*
X159111865Y-111032133D02*
X156158865Y-111032133D01*
X159120865Y-110992133D02*
X156158865Y-110992133D01*
X159127865Y-110952133D02*
X156158865Y-110952133D01*
X159135865Y-110912133D02*
X156158865Y-110912133D01*
X159141865Y-110872133D02*
X151095865Y-110872133D01*
X159148865Y-110832133D02*
X151088865Y-110832133D01*
X159154865Y-110792133D02*
X151082865Y-110792133D01*
X159160865Y-110752133D02*
X151076865Y-110752133D01*
X159165865Y-110712133D02*
X151071865Y-110712133D01*
X159170865Y-110672133D02*
X151066865Y-110672133D01*
X159174865Y-110632133D02*
X151062865Y-110632133D01*
X159179865Y-110592133D02*
X151057865Y-110592133D01*
X159182865Y-110552133D02*
X151054865Y-110552133D01*
X159186865Y-110512133D02*
X151050865Y-110512133D01*
X159188865Y-110472133D02*
X151048865Y-110472133D01*
X159191865Y-110432133D02*
X151045865Y-110432133D01*
X159193865Y-110392133D02*
X151043865Y-110392133D01*
X159195865Y-110352133D02*
X151041865Y-110352133D01*
X159196865Y-110312133D02*
X151040865Y-110312133D01*
X159197865Y-110272133D02*
X151039865Y-110272133D01*
X159198865Y-110192133D02*
X151038865Y-110192133D01*
X159198865Y-110232133D02*
X151038865Y-110232133D01*
X159238865Y-110192133D02*
G75*
G02*
X150998865Y-110192133I-4120000J0D01*
G01*
X150998865Y-110192133D02*
G75*
G02*
X159238865Y-110192133I4120000J0D01*
G01*
%TD*%
M02*
