%TF.GenerationSoftware,KiCad,Pcbnew,10.0.1*%
%TF.CreationDate,2026-06-05T02:16:13+09:00*%
%TF.ProjectId,AudioCase_3_power,41756469-6f43-4617-9365-5f335f706f77,rev?*%
%TF.SameCoordinates,Original*%
%TF.FileFunction,Legend,Top*%
%TF.FilePolarity,Positive*%
%FSLAX46Y46*%
G04 Gerber Fmt 4.6, Leading zero omitted, Abs format (unit mm)*
G04 Created by KiCad (PCBNEW 10.0.1) date 2026-06-05 02:16:13*
%MOMM*%
%LPD*%
G01*
G04 APERTURE LIST*
G04 Aperture macros list*
%AMRoundRect*
0 Rectangle with rounded corners*
0 $1 Rounding radius*
0 $2 $3 $4 $5 $6 $7 $8 $9 X,Y pos of 4 corners*
0 Add a 4 corners polygon primitive as box body*
4,1,4,$2,$3,$4,$5,$6,$7,$8,$9,$2,$3,0*
0 Add four circle primitives for the rounded corners*
1,1,$1+$1,$2,$3*
1,1,$1+$1,$4,$5*
1,1,$1+$1,$6,$7*
1,1,$1+$1,$8,$9*
0 Add four rect primitives between the rounded corners*
20,1,$1+$1,$2,$3,$4,$5,0*
20,1,$1+$1,$4,$5,$6,$7,0*
20,1,$1+$1,$6,$7,$8,$9,0*
20,1,$1+$1,$8,$9,$2,$3,0*%
G04 Aperture macros list end*
%ADD10C,0.300000*%
%ADD11C,0.150000*%
%ADD12C,0.100000*%
%ADD13C,0.120000*%
%ADD14C,3.200000*%
%ADD15RoundRect,0.250000X1.050000X1.050000X-1.050000X1.050000X-1.050000X-1.050000X1.050000X-1.050000X0*%
%ADD16C,2.600000*%
%ADD17C,1.850000*%
%ADD18R,2.900000X5.400000*%
%ADD19RoundRect,0.250000X0.550000X-0.550000X0.550000X0.550000X-0.550000X0.550000X-0.550000X-0.550000X0*%
%ADD20C,1.600000*%
%ADD21RoundRect,0.250000X-0.650000X0.412500X-0.650000X-0.412500X0.650000X-0.412500X0.650000X0.412500X0*%
%ADD22C,2.400000*%
%ADD23RoundRect,0.250000X-1.050000X-1.050000X1.050000X-1.050000X1.050000X1.050000X-1.050000X1.050000X0*%
%ADD24RoundRect,0.250000X-0.550000X-0.550000X0.550000X-0.550000X0.550000X0.550000X-0.550000X0.550000X0*%
G04 APERTURE END LIST*
D10*
X129439510Y-20989400D02*
X130582368Y-20989400D01*
X130010939Y-21560828D02*
X130010939Y-20417971D01*
X137439510Y-20989400D02*
X138582368Y-20989400D01*
X152475225Y-62060828D02*
X152975225Y-63560828D01*
X152975225Y-63560828D02*
X153475225Y-62060828D01*
X153975224Y-62989400D02*
X155118082Y-62989400D01*
X154546653Y-63560828D02*
X154546653Y-62417971D01*
X165225225Y-62060828D02*
X165725225Y-63560828D01*
X165725225Y-63560828D02*
X166225225Y-62060828D01*
X166725224Y-62989400D02*
X167868082Y-62989400D01*
X166689510Y-29560828D02*
X166689510Y-28060828D01*
X166689510Y-28060828D02*
X167260939Y-28060828D01*
X167260939Y-28060828D02*
X167403796Y-28132257D01*
X167403796Y-28132257D02*
X167475225Y-28203685D01*
X167475225Y-28203685D02*
X167546653Y-28346542D01*
X167546653Y-28346542D02*
X167546653Y-28560828D01*
X167546653Y-28560828D02*
X167475225Y-28703685D01*
X167475225Y-28703685D02*
X167403796Y-28775114D01*
X167403796Y-28775114D02*
X167260939Y-28846542D01*
X167260939Y-28846542D02*
X166689510Y-28846542D01*
X168475225Y-28060828D02*
X168760939Y-28060828D01*
X168760939Y-28060828D02*
X168903796Y-28132257D01*
X168903796Y-28132257D02*
X169046653Y-28275114D01*
X169046653Y-28275114D02*
X169118082Y-28560828D01*
X169118082Y-28560828D02*
X169118082Y-29060828D01*
X169118082Y-29060828D02*
X169046653Y-29346542D01*
X169046653Y-29346542D02*
X168903796Y-29489400D01*
X168903796Y-29489400D02*
X168760939Y-29560828D01*
X168760939Y-29560828D02*
X168475225Y-29560828D01*
X168475225Y-29560828D02*
X168332368Y-29489400D01*
X168332368Y-29489400D02*
X168189510Y-29346542D01*
X168189510Y-29346542D02*
X168118082Y-29060828D01*
X168118082Y-29060828D02*
X168118082Y-28560828D01*
X168118082Y-28560828D02*
X168189510Y-28275114D01*
X168189510Y-28275114D02*
X168332368Y-28132257D01*
X168332368Y-28132257D02*
X168475225Y-28060828D01*
X169618082Y-28060828D02*
X169975225Y-29560828D01*
X169975225Y-29560828D02*
X170260939Y-28489400D01*
X170260939Y-28489400D02*
X170546654Y-29560828D01*
X170546654Y-29560828D02*
X170903797Y-28060828D01*
X171475225Y-28775114D02*
X171975225Y-28775114D01*
X172189511Y-29560828D02*
X171475225Y-29560828D01*
X171475225Y-29560828D02*
X171475225Y-28060828D01*
X171475225Y-28060828D02*
X172189511Y-28060828D01*
X173689511Y-29560828D02*
X173189511Y-28846542D01*
X172832368Y-29560828D02*
X172832368Y-28060828D01*
X172832368Y-28060828D02*
X173403797Y-28060828D01*
X173403797Y-28060828D02*
X173546654Y-28132257D01*
X173546654Y-28132257D02*
X173618083Y-28203685D01*
X173618083Y-28203685D02*
X173689511Y-28346542D01*
X173689511Y-28346542D02*
X173689511Y-28560828D01*
X173689511Y-28560828D02*
X173618083Y-28703685D01*
X173618083Y-28703685D02*
X173546654Y-28775114D01*
X173546654Y-28775114D02*
X173403797Y-28846542D01*
X173403797Y-28846542D02*
X172832368Y-28846542D01*
D11*
X133551666Y-32784819D02*
X133551666Y-33499104D01*
X133551666Y-33499104D02*
X133504047Y-33641961D01*
X133504047Y-33641961D02*
X133408809Y-33737200D01*
X133408809Y-33737200D02*
X133265952Y-33784819D01*
X133265952Y-33784819D02*
X133170714Y-33784819D01*
X134456428Y-33118152D02*
X134456428Y-33784819D01*
X134218333Y-32737200D02*
X133980238Y-33451485D01*
X133980238Y-33451485D02*
X134599285Y-33451485D01*
D12*
X140716904Y-65322580D02*
X140716904Y-64513057D01*
X140716904Y-64513057D02*
X140669285Y-64417819D01*
X140669285Y-64417819D02*
X140621666Y-64370200D01*
X140621666Y-64370200D02*
X140526428Y-64322580D01*
X140526428Y-64322580D02*
X140335952Y-64322580D01*
X140335952Y-64322580D02*
X140240714Y-64370200D01*
X140240714Y-64370200D02*
X140193095Y-64417819D01*
X140193095Y-64417819D02*
X140145476Y-64513057D01*
X140145476Y-64513057D02*
X140145476Y-65322580D01*
X139145476Y-64322580D02*
X139716904Y-64322580D01*
X139431190Y-64322580D02*
X139431190Y-65322580D01*
X139431190Y-65322580D02*
X139526428Y-65179723D01*
X139526428Y-65179723D02*
X139621666Y-65084485D01*
X139621666Y-65084485D02*
X139716904Y-65036866D01*
X130237306Y-59827580D02*
X130808734Y-59827580D01*
X130523020Y-59827580D02*
X130523020Y-60827580D01*
X130523020Y-60827580D02*
X130618258Y-60684723D01*
X130618258Y-60684723D02*
X130713496Y-60589485D01*
X130713496Y-60589485D02*
X130808734Y-60541866D01*
D11*
X148718333Y-37064819D02*
X148242143Y-37064819D01*
X148242143Y-37064819D02*
X148242143Y-36064819D01*
X149004048Y-36160057D02*
X149051667Y-36112438D01*
X149051667Y-36112438D02*
X149146905Y-36064819D01*
X149146905Y-36064819D02*
X149385000Y-36064819D01*
X149385000Y-36064819D02*
X149480238Y-36112438D01*
X149480238Y-36112438D02*
X149527857Y-36160057D01*
X149527857Y-36160057D02*
X149575476Y-36255295D01*
X149575476Y-36255295D02*
X149575476Y-36350533D01*
X149575476Y-36350533D02*
X149527857Y-36493390D01*
X149527857Y-36493390D02*
X148956429Y-37064819D01*
X148956429Y-37064819D02*
X149575476Y-37064819D01*
X157744580Y-25426666D02*
X157792200Y-25474285D01*
X157792200Y-25474285D02*
X157839819Y-25617142D01*
X157839819Y-25617142D02*
X157839819Y-25712380D01*
X157839819Y-25712380D02*
X157792200Y-25855237D01*
X157792200Y-25855237D02*
X157696961Y-25950475D01*
X157696961Y-25950475D02*
X157601723Y-25998094D01*
X157601723Y-25998094D02*
X157411247Y-26045713D01*
X157411247Y-26045713D02*
X157268390Y-26045713D01*
X157268390Y-26045713D02*
X157077914Y-25998094D01*
X157077914Y-25998094D02*
X156982676Y-25950475D01*
X156982676Y-25950475D02*
X156887438Y-25855237D01*
X156887438Y-25855237D02*
X156839819Y-25712380D01*
X156839819Y-25712380D02*
X156839819Y-25617142D01*
X156839819Y-25617142D02*
X156887438Y-25474285D01*
X156887438Y-25474285D02*
X156935057Y-25426666D01*
X156935057Y-25045713D02*
X156887438Y-24998094D01*
X156887438Y-24998094D02*
X156839819Y-24902856D01*
X156839819Y-24902856D02*
X156839819Y-24664761D01*
X156839819Y-24664761D02*
X156887438Y-24569523D01*
X156887438Y-24569523D02*
X156935057Y-24521904D01*
X156935057Y-24521904D02*
X157030295Y-24474285D01*
X157030295Y-24474285D02*
X157125533Y-24474285D01*
X157125533Y-24474285D02*
X157268390Y-24521904D01*
X157268390Y-24521904D02*
X157839819Y-25093332D01*
X157839819Y-25093332D02*
X157839819Y-24474285D01*
X163344580Y-39676666D02*
X163392200Y-39724285D01*
X163392200Y-39724285D02*
X163439819Y-39867142D01*
X163439819Y-39867142D02*
X163439819Y-39962380D01*
X163439819Y-39962380D02*
X163392200Y-40105237D01*
X163392200Y-40105237D02*
X163296961Y-40200475D01*
X163296961Y-40200475D02*
X163201723Y-40248094D01*
X163201723Y-40248094D02*
X163011247Y-40295713D01*
X163011247Y-40295713D02*
X162868390Y-40295713D01*
X162868390Y-40295713D02*
X162677914Y-40248094D01*
X162677914Y-40248094D02*
X162582676Y-40200475D01*
X162582676Y-40200475D02*
X162487438Y-40105237D01*
X162487438Y-40105237D02*
X162439819Y-39962380D01*
X162439819Y-39962380D02*
X162439819Y-39867142D01*
X162439819Y-39867142D02*
X162487438Y-39724285D01*
X162487438Y-39724285D02*
X162535057Y-39676666D01*
X162439819Y-38771904D02*
X162439819Y-39248094D01*
X162439819Y-39248094D02*
X162916009Y-39295713D01*
X162916009Y-39295713D02*
X162868390Y-39248094D01*
X162868390Y-39248094D02*
X162820771Y-39152856D01*
X162820771Y-39152856D02*
X162820771Y-38914761D01*
X162820771Y-38914761D02*
X162868390Y-38819523D01*
X162868390Y-38819523D02*
X162916009Y-38771904D01*
X162916009Y-38771904D02*
X163011247Y-38724285D01*
X163011247Y-38724285D02*
X163249342Y-38724285D01*
X163249342Y-38724285D02*
X163344580Y-38771904D01*
X163344580Y-38771904D02*
X163392200Y-38819523D01*
X163392200Y-38819523D02*
X163439819Y-38914761D01*
X163439819Y-38914761D02*
X163439819Y-39152856D01*
X163439819Y-39152856D02*
X163392200Y-39248094D01*
X163392200Y-39248094D02*
X163344580Y-39295713D01*
X127986009Y-41093333D02*
X127986009Y-41426666D01*
X128509819Y-41426666D02*
X127509819Y-41426666D01*
X127509819Y-41426666D02*
X127509819Y-40950476D01*
X128509819Y-40045714D02*
X128509819Y-40617142D01*
X128509819Y-40331428D02*
X127509819Y-40331428D01*
X127509819Y-40331428D02*
X127652676Y-40426666D01*
X127652676Y-40426666D02*
X127747914Y-40521904D01*
X127747914Y-40521904D02*
X127795533Y-40617142D01*
X157994580Y-45881778D02*
X158042200Y-45929397D01*
X158042200Y-45929397D02*
X158089819Y-46072254D01*
X158089819Y-46072254D02*
X158089819Y-46167492D01*
X158089819Y-46167492D02*
X158042200Y-46310349D01*
X158042200Y-46310349D02*
X157946961Y-46405587D01*
X157946961Y-46405587D02*
X157851723Y-46453206D01*
X157851723Y-46453206D02*
X157661247Y-46500825D01*
X157661247Y-46500825D02*
X157518390Y-46500825D01*
X157518390Y-46500825D02*
X157327914Y-46453206D01*
X157327914Y-46453206D02*
X157232676Y-46405587D01*
X157232676Y-46405587D02*
X157137438Y-46310349D01*
X157137438Y-46310349D02*
X157089819Y-46167492D01*
X157089819Y-46167492D02*
X157089819Y-46072254D01*
X157089819Y-46072254D02*
X157137438Y-45929397D01*
X157137438Y-45929397D02*
X157185057Y-45881778D01*
X157089819Y-45548444D02*
X157089819Y-44929397D01*
X157089819Y-44929397D02*
X157470771Y-45262730D01*
X157470771Y-45262730D02*
X157470771Y-45119873D01*
X157470771Y-45119873D02*
X157518390Y-45024635D01*
X157518390Y-45024635D02*
X157566009Y-44977016D01*
X157566009Y-44977016D02*
X157661247Y-44929397D01*
X157661247Y-44929397D02*
X157899342Y-44929397D01*
X157899342Y-44929397D02*
X157994580Y-44977016D01*
X157994580Y-44977016D02*
X158042200Y-45024635D01*
X158042200Y-45024635D02*
X158089819Y-45119873D01*
X158089819Y-45119873D02*
X158089819Y-45405587D01*
X158089819Y-45405587D02*
X158042200Y-45500825D01*
X158042200Y-45500825D02*
X157994580Y-45548444D01*
X148718333Y-36864819D02*
X148242143Y-36864819D01*
X148242143Y-36864819D02*
X148242143Y-35864819D01*
X149575476Y-36864819D02*
X149004048Y-36864819D01*
X149289762Y-36864819D02*
X149289762Y-35864819D01*
X149289762Y-35864819D02*
X149194524Y-36007676D01*
X149194524Y-36007676D02*
X149099286Y-36102914D01*
X149099286Y-36102914D02*
X149004048Y-36150533D01*
X159881666Y-49644819D02*
X159881666Y-50359104D01*
X159881666Y-50359104D02*
X159834047Y-50501961D01*
X159834047Y-50501961D02*
X159738809Y-50597200D01*
X159738809Y-50597200D02*
X159595952Y-50644819D01*
X159595952Y-50644819D02*
X159500714Y-50644819D01*
X160834047Y-49644819D02*
X160357857Y-49644819D01*
X160357857Y-49644819D02*
X160310238Y-50121009D01*
X160310238Y-50121009D02*
X160357857Y-50073390D01*
X160357857Y-50073390D02*
X160453095Y-50025771D01*
X160453095Y-50025771D02*
X160691190Y-50025771D01*
X160691190Y-50025771D02*
X160786428Y-50073390D01*
X160786428Y-50073390D02*
X160834047Y-50121009D01*
X160834047Y-50121009D02*
X160881666Y-50216247D01*
X160881666Y-50216247D02*
X160881666Y-50454342D01*
X160881666Y-50454342D02*
X160834047Y-50549580D01*
X160834047Y-50549580D02*
X160786428Y-50597200D01*
X160786428Y-50597200D02*
X160691190Y-50644819D01*
X160691190Y-50644819D02*
X160453095Y-50644819D01*
X160453095Y-50644819D02*
X160357857Y-50597200D01*
X160357857Y-50597200D02*
X160310238Y-50549580D01*
X163344580Y-32676666D02*
X163392200Y-32724285D01*
X163392200Y-32724285D02*
X163439819Y-32867142D01*
X163439819Y-32867142D02*
X163439819Y-32962380D01*
X163439819Y-32962380D02*
X163392200Y-33105237D01*
X163392200Y-33105237D02*
X163296961Y-33200475D01*
X163296961Y-33200475D02*
X163201723Y-33248094D01*
X163201723Y-33248094D02*
X163011247Y-33295713D01*
X163011247Y-33295713D02*
X162868390Y-33295713D01*
X162868390Y-33295713D02*
X162677914Y-33248094D01*
X162677914Y-33248094D02*
X162582676Y-33200475D01*
X162582676Y-33200475D02*
X162487438Y-33105237D01*
X162487438Y-33105237D02*
X162439819Y-32962380D01*
X162439819Y-32962380D02*
X162439819Y-32867142D01*
X162439819Y-32867142D02*
X162487438Y-32724285D01*
X162487438Y-32724285D02*
X162535057Y-32676666D01*
X162773152Y-31819523D02*
X163439819Y-31819523D01*
X162392200Y-32057618D02*
X163106485Y-32295713D01*
X163106485Y-32295713D02*
X163106485Y-31676666D01*
X134468333Y-35369580D02*
X134420714Y-35417200D01*
X134420714Y-35417200D02*
X134277857Y-35464819D01*
X134277857Y-35464819D02*
X134182619Y-35464819D01*
X134182619Y-35464819D02*
X134039762Y-35417200D01*
X134039762Y-35417200D02*
X133944524Y-35321961D01*
X133944524Y-35321961D02*
X133896905Y-35226723D01*
X133896905Y-35226723D02*
X133849286Y-35036247D01*
X133849286Y-35036247D02*
X133849286Y-34893390D01*
X133849286Y-34893390D02*
X133896905Y-34702914D01*
X133896905Y-34702914D02*
X133944524Y-34607676D01*
X133944524Y-34607676D02*
X134039762Y-34512438D01*
X134039762Y-34512438D02*
X134182619Y-34464819D01*
X134182619Y-34464819D02*
X134277857Y-34464819D01*
X134277857Y-34464819D02*
X134420714Y-34512438D01*
X134420714Y-34512438D02*
X134468333Y-34560057D01*
X135420714Y-35464819D02*
X134849286Y-35464819D01*
X135135000Y-35464819D02*
X135135000Y-34464819D01*
X135135000Y-34464819D02*
X135039762Y-34607676D01*
X135039762Y-34607676D02*
X134944524Y-34702914D01*
X134944524Y-34702914D02*
X134849286Y-34750533D01*
%TO.C,J4*%
D13*
X128765000Y-22290000D02*
X136085000Y-22290000D01*
X128765000Y-32330000D02*
X128765000Y-22290000D01*
X136685000Y-22290000D02*
X139005000Y-22290000D01*
X139005000Y-22290000D02*
X139005000Y-32330000D01*
X139005000Y-22910000D02*
X128765000Y-22910000D01*
X139005000Y-24410000D02*
X128765000Y-24410000D01*
X139005000Y-29310000D02*
X128765000Y-29310000D01*
X139005000Y-32330000D02*
X128765000Y-32330000D01*
X136385000Y-22290000D02*
X135945000Y-21680000D01*
X136825000Y-21680000D01*
X136385000Y-22290000D01*
G36*
X136385000Y-22290000D02*
G01*
X135945000Y-21680000D01*
X136825000Y-21680000D01*
X136385000Y-22290000D01*
G37*
%TO.C,U1*%
D12*
X129055000Y-53190000D02*
X150855000Y-53190000D01*
X150855000Y-62490000D01*
X129055000Y-62490000D01*
X129055000Y-53190000D01*
%TO.C,L2*%
D13*
X142585000Y-37710000D02*
X155185000Y-37710000D01*
X142585000Y-40710000D02*
X142585000Y-37710000D01*
X142585000Y-50310000D02*
X142585000Y-47310000D01*
X155185000Y-37710000D02*
X155185000Y-40710000D01*
X155185000Y-47310000D02*
X155185000Y-50310000D01*
X155185000Y-50310000D02*
X142585000Y-50310000D01*
%TO.C,C2*%
X158555000Y-25220000D02*
X160095000Y-25220000D01*
X158555000Y-25260000D02*
X160095000Y-25260000D01*
X158556000Y-25180000D02*
X160095000Y-25180000D01*
X158558000Y-25140000D02*
X160095000Y-25140000D01*
X158560000Y-25100000D02*
X160095000Y-25100000D01*
X158563000Y-25060000D02*
X160095000Y-25060000D01*
X158566000Y-25020000D02*
X160095000Y-25020000D01*
X158570000Y-24980000D02*
X160095000Y-24980000D01*
X158575000Y-24940000D02*
X160095000Y-24940000D01*
X158580000Y-24900000D02*
X160095000Y-24900000D01*
X158586000Y-24860000D02*
X160095000Y-24860000D01*
X158592000Y-24820000D02*
X160095000Y-24820000D01*
X158599000Y-24780000D02*
X160095000Y-24780000D01*
X158607000Y-24740000D02*
X160095000Y-24740000D01*
X158616000Y-24700000D02*
X160095000Y-24700000D01*
X158625000Y-24660000D02*
X160095000Y-24660000D01*
X158634000Y-24620000D02*
X160095000Y-24620000D01*
X158645000Y-24580000D02*
X160095000Y-24580000D01*
X158656000Y-24540000D02*
X160095000Y-24540000D01*
X158668000Y-24500000D02*
X160095000Y-24500000D01*
X158680000Y-24460000D02*
X160095000Y-24460000D01*
X158693000Y-24420000D02*
X160095000Y-24420000D01*
X158707000Y-24380000D02*
X160095000Y-24380000D01*
X158722000Y-24340000D02*
X160095000Y-24340000D01*
X158737000Y-24300000D02*
X160095000Y-24300000D01*
X158753000Y-24260000D02*
X160095000Y-24260000D01*
X158770000Y-24220000D02*
X160095000Y-24220000D01*
X158788000Y-24180000D02*
X160095000Y-24180000D01*
X158806000Y-24140000D02*
X160095000Y-24140000D01*
X158826000Y-24100000D02*
X160095000Y-24100000D01*
X158846000Y-24060000D02*
X160095000Y-24060000D01*
X158867000Y-24020000D02*
X160095000Y-24020000D01*
X158889000Y-23980000D02*
X160095000Y-23980000D01*
X158912000Y-23940000D02*
X160095000Y-23940000D01*
X158936000Y-23900000D02*
X160095000Y-23900000D01*
X158960000Y-23860000D02*
X160095000Y-23860000D01*
X158986000Y-23820000D02*
X160095000Y-23820000D01*
X159013000Y-23780000D02*
X160095000Y-23780000D01*
X159041000Y-23740000D02*
X160095000Y-23740000D01*
X159070000Y-23700000D02*
X160095000Y-23700000D01*
X159100000Y-23660000D02*
X160095000Y-23660000D01*
X159132000Y-23620000D02*
X160095000Y-23620000D01*
X159165000Y-23580000D02*
X160095000Y-23580000D01*
X159199000Y-23540000D02*
X160095000Y-23540000D01*
X159234000Y-23500000D02*
X160095000Y-23500000D01*
X159271000Y-23460000D02*
X160095000Y-23460000D01*
X159310000Y-23420000D02*
X160095000Y-23420000D01*
X159350000Y-23380000D02*
X160095000Y-23380000D01*
X159392000Y-23340000D02*
X160095000Y-23340000D01*
X159410000Y-27814775D02*
X159910000Y-27814775D01*
X159436000Y-23300000D02*
X160095000Y-23300000D01*
X159483000Y-23260000D02*
X160095000Y-23260000D01*
X159531000Y-23220000D02*
X162739000Y-23220000D01*
X159582000Y-23180000D02*
X162688000Y-23180000D01*
X159636000Y-23140000D02*
X162634000Y-23140000D01*
X159660000Y-28064775D02*
X159660000Y-27564775D01*
X159692000Y-23100000D02*
X162578000Y-23100000D01*
X159752000Y-23060000D02*
X162518000Y-23060000D01*
X159816000Y-23020000D02*
X162454000Y-23020000D01*
X159884000Y-22980000D02*
X162386000Y-22980000D01*
X159958000Y-22940000D02*
X162312000Y-22940000D01*
X160037000Y-22900000D02*
X162233000Y-22900000D01*
X160124000Y-22860000D02*
X162146000Y-22860000D01*
X160221000Y-22820000D02*
X162049000Y-22820000D01*
X160330000Y-22780000D02*
X161940000Y-22780000D01*
X160458000Y-22740000D02*
X161812000Y-22740000D01*
X160618000Y-22700000D02*
X161652000Y-22700000D01*
X160852000Y-22660000D02*
X161418000Y-22660000D01*
X162175000Y-23260000D02*
X162787000Y-23260000D01*
X162175000Y-23300000D02*
X162834000Y-23300000D01*
X162175000Y-23340000D02*
X162878000Y-23340000D01*
X162175000Y-23380000D02*
X162920000Y-23380000D01*
X162175000Y-23420000D02*
X162960000Y-23420000D01*
X162175000Y-23460000D02*
X162999000Y-23460000D01*
X162175000Y-23500000D02*
X163036000Y-23500000D01*
X162175000Y-23540000D02*
X163071000Y-23540000D01*
X162175000Y-23580000D02*
X163105000Y-23580000D01*
X162175000Y-23620000D02*
X163138000Y-23620000D01*
X162175000Y-23660000D02*
X163170000Y-23660000D01*
X162175000Y-23700000D02*
X163200000Y-23700000D01*
X162175000Y-23740000D02*
X163229000Y-23740000D01*
X162175000Y-23780000D02*
X163257000Y-23780000D01*
X162175000Y-23820000D02*
X163284000Y-23820000D01*
X162175000Y-23860000D02*
X163310000Y-23860000D01*
X162175000Y-23900000D02*
X163334000Y-23900000D01*
X162175000Y-23940000D02*
X163358000Y-23940000D01*
X162175000Y-23980000D02*
X163381000Y-23980000D01*
X162175000Y-24020000D02*
X163403000Y-24020000D01*
X162175000Y-24060000D02*
X163424000Y-24060000D01*
X162175000Y-24100000D02*
X163444000Y-24100000D01*
X162175000Y-24140000D02*
X163464000Y-24140000D01*
X162175000Y-24180000D02*
X163482000Y-24180000D01*
X162175000Y-24220000D02*
X163500000Y-24220000D01*
X162175000Y-24260000D02*
X163517000Y-24260000D01*
X162175000Y-24300000D02*
X163533000Y-24300000D01*
X162175000Y-24340000D02*
X163548000Y-24340000D01*
X162175000Y-24380000D02*
X163563000Y-24380000D01*
X162175000Y-24420000D02*
X163577000Y-24420000D01*
X162175000Y-24460000D02*
X163590000Y-24460000D01*
X162175000Y-24500000D02*
X163602000Y-24500000D01*
X162175000Y-24540000D02*
X163614000Y-24540000D01*
X162175000Y-24580000D02*
X163625000Y-24580000D01*
X162175000Y-24620000D02*
X163636000Y-24620000D01*
X162175000Y-24660000D02*
X163645000Y-24660000D01*
X162175000Y-24700000D02*
X163654000Y-24700000D01*
X162175000Y-24740000D02*
X163663000Y-24740000D01*
X162175000Y-24780000D02*
X163671000Y-24780000D01*
X162175000Y-24820000D02*
X163678000Y-24820000D01*
X162175000Y-24860000D02*
X163684000Y-24860000D01*
X162175000Y-24900000D02*
X163690000Y-24900000D01*
X162175000Y-24940000D02*
X163695000Y-24940000D01*
X162175000Y-24980000D02*
X163700000Y-24980000D01*
X162175000Y-25020000D02*
X163704000Y-25020000D01*
X162175000Y-25060000D02*
X163707000Y-25060000D01*
X162175000Y-25100000D02*
X163710000Y-25100000D01*
X162175000Y-25140000D02*
X163712000Y-25140000D01*
X162175000Y-25180000D02*
X163714000Y-25180000D01*
X162175000Y-25220000D02*
X163715000Y-25220000D01*
X162175000Y-25260000D02*
X163715000Y-25260000D01*
X163755000Y-25260000D02*
G75*
G02*
X158515000Y-25260000I-2620000J0D01*
G01*
X158515000Y-25260000D02*
G75*
G02*
X163755000Y-25260000I2620000J0D01*
G01*
%TO.C,C5*%
X160225000Y-38798748D02*
X160225000Y-40221252D01*
X162045000Y-38798748D02*
X162045000Y-40221252D01*
%TO.C,F1*%
X123215000Y-35690000D02*
X123215000Y-45830000D01*
X123215000Y-45830000D02*
X123695000Y-45830000D01*
X123695000Y-35690000D02*
X123215000Y-35690000D01*
X126575000Y-35690000D02*
X127055000Y-35690000D01*
X127055000Y-35690000D02*
X127055000Y-45830000D01*
X127055000Y-45830000D02*
X126575000Y-45830000D01*
%TO.C,C3*%
X158805000Y-45675112D02*
X160345000Y-45675112D01*
X158805000Y-45715112D02*
X160345000Y-45715112D01*
X158806000Y-45635112D02*
X160345000Y-45635112D01*
X158808000Y-45595112D02*
X160345000Y-45595112D01*
X158810000Y-45555112D02*
X160345000Y-45555112D01*
X158813000Y-45515112D02*
X160345000Y-45515112D01*
X158816000Y-45475112D02*
X160345000Y-45475112D01*
X158820000Y-45435112D02*
X160345000Y-45435112D01*
X158825000Y-45395112D02*
X160345000Y-45395112D01*
X158830000Y-45355112D02*
X160345000Y-45355112D01*
X158836000Y-45315112D02*
X160345000Y-45315112D01*
X158842000Y-45275112D02*
X160345000Y-45275112D01*
X158849000Y-45235112D02*
X160345000Y-45235112D01*
X158857000Y-45195112D02*
X160345000Y-45195112D01*
X158866000Y-45155112D02*
X160345000Y-45155112D01*
X158875000Y-45115112D02*
X160345000Y-45115112D01*
X158884000Y-45075112D02*
X160345000Y-45075112D01*
X158895000Y-45035112D02*
X160345000Y-45035112D01*
X158906000Y-44995112D02*
X160345000Y-44995112D01*
X158918000Y-44955112D02*
X160345000Y-44955112D01*
X158930000Y-44915112D02*
X160345000Y-44915112D01*
X158943000Y-44875112D02*
X160345000Y-44875112D01*
X158957000Y-44835112D02*
X160345000Y-44835112D01*
X158972000Y-44795112D02*
X160345000Y-44795112D01*
X158987000Y-44755112D02*
X160345000Y-44755112D01*
X159003000Y-44715112D02*
X160345000Y-44715112D01*
X159020000Y-44675112D02*
X160345000Y-44675112D01*
X159038000Y-44635112D02*
X160345000Y-44635112D01*
X159056000Y-44595112D02*
X160345000Y-44595112D01*
X159076000Y-44555112D02*
X160345000Y-44555112D01*
X159096000Y-44515112D02*
X160345000Y-44515112D01*
X159117000Y-44475112D02*
X160345000Y-44475112D01*
X159139000Y-44435112D02*
X160345000Y-44435112D01*
X159162000Y-44395112D02*
X160345000Y-44395112D01*
X159186000Y-44355112D02*
X160345000Y-44355112D01*
X159210000Y-44315112D02*
X160345000Y-44315112D01*
X159236000Y-44275112D02*
X160345000Y-44275112D01*
X159263000Y-44235112D02*
X160345000Y-44235112D01*
X159291000Y-44195112D02*
X160345000Y-44195112D01*
X159320000Y-44155112D02*
X160345000Y-44155112D01*
X159350000Y-44115112D02*
X160345000Y-44115112D01*
X159382000Y-44075112D02*
X160345000Y-44075112D01*
X159415000Y-44035112D02*
X160345000Y-44035112D01*
X159449000Y-43995112D02*
X160345000Y-43995112D01*
X159484000Y-43955112D02*
X160345000Y-43955112D01*
X159521000Y-43915112D02*
X160345000Y-43915112D01*
X159560000Y-43875112D02*
X160345000Y-43875112D01*
X159600000Y-43835112D02*
X160345000Y-43835112D01*
X159642000Y-43795112D02*
X160345000Y-43795112D01*
X159660000Y-48269887D02*
X160160000Y-48269887D01*
X159686000Y-43755112D02*
X160345000Y-43755112D01*
X159733000Y-43715112D02*
X160345000Y-43715112D01*
X159781000Y-43675112D02*
X162989000Y-43675112D01*
X159832000Y-43635112D02*
X162938000Y-43635112D01*
X159886000Y-43595112D02*
X162884000Y-43595112D01*
X159910000Y-48519887D02*
X159910000Y-48019887D01*
X159942000Y-43555112D02*
X162828000Y-43555112D01*
X160002000Y-43515112D02*
X162768000Y-43515112D01*
X160066000Y-43475112D02*
X162704000Y-43475112D01*
X160134000Y-43435112D02*
X162636000Y-43435112D01*
X160208000Y-43395112D02*
X162562000Y-43395112D01*
X160287000Y-43355112D02*
X162483000Y-43355112D01*
X160374000Y-43315112D02*
X162396000Y-43315112D01*
X160471000Y-43275112D02*
X162299000Y-43275112D01*
X160580000Y-43235112D02*
X162190000Y-43235112D01*
X160708000Y-43195112D02*
X162062000Y-43195112D01*
X160868000Y-43155112D02*
X161902000Y-43155112D01*
X161102000Y-43115112D02*
X161668000Y-43115112D01*
X162425000Y-43715112D02*
X163037000Y-43715112D01*
X162425000Y-43755112D02*
X163084000Y-43755112D01*
X162425000Y-43795112D02*
X163128000Y-43795112D01*
X162425000Y-43835112D02*
X163170000Y-43835112D01*
X162425000Y-43875112D02*
X163210000Y-43875112D01*
X162425000Y-43915112D02*
X163249000Y-43915112D01*
X162425000Y-43955112D02*
X163286000Y-43955112D01*
X162425000Y-43995112D02*
X163321000Y-43995112D01*
X162425000Y-44035112D02*
X163355000Y-44035112D01*
X162425000Y-44075112D02*
X163388000Y-44075112D01*
X162425000Y-44115112D02*
X163420000Y-44115112D01*
X162425000Y-44155112D02*
X163450000Y-44155112D01*
X162425000Y-44195112D02*
X163479000Y-44195112D01*
X162425000Y-44235112D02*
X163507000Y-44235112D01*
X162425000Y-44275112D02*
X163534000Y-44275112D01*
X162425000Y-44315112D02*
X163560000Y-44315112D01*
X162425000Y-44355112D02*
X163584000Y-44355112D01*
X162425000Y-44395112D02*
X163608000Y-44395112D01*
X162425000Y-44435112D02*
X163631000Y-44435112D01*
X162425000Y-44475112D02*
X163653000Y-44475112D01*
X162425000Y-44515112D02*
X163674000Y-44515112D01*
X162425000Y-44555112D02*
X163694000Y-44555112D01*
X162425000Y-44595112D02*
X163714000Y-44595112D01*
X162425000Y-44635112D02*
X163732000Y-44635112D01*
X162425000Y-44675112D02*
X163750000Y-44675112D01*
X162425000Y-44715112D02*
X163767000Y-44715112D01*
X162425000Y-44755112D02*
X163783000Y-44755112D01*
X162425000Y-44795112D02*
X163798000Y-44795112D01*
X162425000Y-44835112D02*
X163813000Y-44835112D01*
X162425000Y-44875112D02*
X163827000Y-44875112D01*
X162425000Y-44915112D02*
X163840000Y-44915112D01*
X162425000Y-44955112D02*
X163852000Y-44955112D01*
X162425000Y-44995112D02*
X163864000Y-44995112D01*
X162425000Y-45035112D02*
X163875000Y-45035112D01*
X162425000Y-45075112D02*
X163886000Y-45075112D01*
X162425000Y-45115112D02*
X163895000Y-45115112D01*
X162425000Y-45155112D02*
X163904000Y-45155112D01*
X162425000Y-45195112D02*
X163913000Y-45195112D01*
X162425000Y-45235112D02*
X163921000Y-45235112D01*
X162425000Y-45275112D02*
X163928000Y-45275112D01*
X162425000Y-45315112D02*
X163934000Y-45315112D01*
X162425000Y-45355112D02*
X163940000Y-45355112D01*
X162425000Y-45395112D02*
X163945000Y-45395112D01*
X162425000Y-45435112D02*
X163950000Y-45435112D01*
X162425000Y-45475112D02*
X163954000Y-45475112D01*
X162425000Y-45515112D02*
X163957000Y-45515112D01*
X162425000Y-45555112D02*
X163960000Y-45555112D01*
X162425000Y-45595112D02*
X163962000Y-45595112D01*
X162425000Y-45635112D02*
X163964000Y-45635112D01*
X162425000Y-45675112D02*
X163965000Y-45675112D01*
X162425000Y-45715112D02*
X163965000Y-45715112D01*
X164005000Y-45715112D02*
G75*
G02*
X158765000Y-45715112I-2620000J0D01*
G01*
X158765000Y-45715112D02*
G75*
G02*
X164005000Y-45715112I2620000J0D01*
G01*
%TO.C,L1*%
X142585000Y-22710000D02*
X155185000Y-22710000D01*
X142585000Y-25710000D02*
X142585000Y-22710000D01*
X142585000Y-35310000D02*
X142585000Y-32310000D01*
X155185000Y-22710000D02*
X155185000Y-25710000D01*
X155185000Y-32310000D02*
X155185000Y-35310000D01*
X155185000Y-35310000D02*
X142585000Y-35310000D01*
%TO.C,J5*%
X152475000Y-51190000D02*
X167955000Y-51190000D01*
X152475000Y-54210000D02*
X167955000Y-54210000D01*
X152475000Y-59110000D02*
X167955000Y-59110000D01*
X152475000Y-60610000D02*
X167955000Y-60610000D01*
X152475000Y-61230000D02*
X152475000Y-51190000D01*
X154835000Y-61230000D02*
X152475000Y-61230000D01*
X167955000Y-51190000D02*
X167955000Y-61230000D01*
X167955000Y-61230000D02*
X155435000Y-61230000D01*
X155575000Y-61840000D02*
X154695000Y-61840000D01*
X155135000Y-61230000D01*
X155575000Y-61840000D01*
G36*
X155575000Y-61840000D02*
G01*
X154695000Y-61840000D01*
X155135000Y-61230000D01*
X155575000Y-61840000D01*
G37*
%TO.C,C4*%
X160225000Y-31798748D02*
X160225000Y-33221252D01*
X162045000Y-31798748D02*
X162045000Y-33221252D01*
%TO.C,C1*%
X130225302Y-37945000D02*
X131025302Y-37945000D01*
X130625302Y-37545000D02*
X130625302Y-38345000D01*
X134635000Y-36180000D02*
X134635000Y-44340000D01*
X134675000Y-36180000D02*
X134675000Y-44340000D01*
X134715000Y-36181000D02*
X134715000Y-44339000D01*
X134755000Y-36182000D02*
X134755000Y-44338000D01*
X134795000Y-36183000D02*
X134795000Y-44337000D01*
X134835000Y-36185000D02*
X134835000Y-44335000D01*
X134875000Y-36187000D02*
X134875000Y-44333000D01*
X134915000Y-36190000D02*
X134915000Y-44330000D01*
X134955000Y-36192000D02*
X134955000Y-44328000D01*
X134995000Y-36196000D02*
X134995000Y-44324000D01*
X135035000Y-36199000D02*
X135035000Y-44321000D01*
X135075000Y-36204000D02*
X135075000Y-44316000D01*
X135115000Y-36208000D02*
X135115000Y-44312000D01*
X135155000Y-36213000D02*
X135155000Y-44307000D01*
X135195000Y-36218000D02*
X135195000Y-44302000D01*
X135235000Y-36224000D02*
X135235000Y-44296000D01*
X135275000Y-36230000D02*
X135275000Y-44290000D01*
X135315000Y-36237000D02*
X135315000Y-44283000D01*
X135355000Y-36243000D02*
X135355000Y-39220000D01*
X135355000Y-41300000D02*
X135355000Y-44277000D01*
X135395000Y-36251000D02*
X135395000Y-39220000D01*
X135395000Y-41300000D02*
X135395000Y-44269000D01*
X135435000Y-36258000D02*
X135435000Y-39220000D01*
X135435000Y-41300000D02*
X135435000Y-44262000D01*
X135475000Y-36267000D02*
X135475000Y-39220000D01*
X135475000Y-41300000D02*
X135475000Y-44253000D01*
X135515000Y-36275000D02*
X135515000Y-39220000D01*
X135515000Y-41300000D02*
X135515000Y-44245000D01*
X135555000Y-36284000D02*
X135555000Y-39220000D01*
X135555000Y-41300000D02*
X135555000Y-44236000D01*
X135595000Y-36293000D02*
X135595000Y-39220000D01*
X135595000Y-41300000D02*
X135595000Y-44227000D01*
X135635000Y-36303000D02*
X135635000Y-39220000D01*
X135635000Y-41300000D02*
X135635000Y-44217000D01*
X135675000Y-36313000D02*
X135675000Y-39220000D01*
X135675000Y-41300000D02*
X135675000Y-44207000D01*
X135715000Y-36324000D02*
X135715000Y-39220000D01*
X135715000Y-41300000D02*
X135715000Y-44196000D01*
X135755000Y-36335000D02*
X135755000Y-39220000D01*
X135755000Y-41300000D02*
X135755000Y-44185000D01*
X135795000Y-36347000D02*
X135795000Y-39220000D01*
X135795000Y-41300000D02*
X135795000Y-44173000D01*
X135835000Y-36359000D02*
X135835000Y-39220000D01*
X135835000Y-41300000D02*
X135835000Y-44161000D01*
X135875000Y-36371000D02*
X135875000Y-39220000D01*
X135875000Y-41300000D02*
X135875000Y-44149000D01*
X135915000Y-36384000D02*
X135915000Y-39220000D01*
X135915000Y-41300000D02*
X135915000Y-44136000D01*
X135955000Y-36397000D02*
X135955000Y-39220000D01*
X135955000Y-41300000D02*
X135955000Y-44123000D01*
X135995000Y-36411000D02*
X135995000Y-39220000D01*
X135995000Y-41300000D02*
X135995000Y-44109000D01*
X136035000Y-36425000D02*
X136035000Y-39220000D01*
X136035000Y-41300000D02*
X136035000Y-44095000D01*
X136075000Y-36440000D02*
X136075000Y-39220000D01*
X136075000Y-41300000D02*
X136075000Y-44080000D01*
X136115000Y-36455000D02*
X136115000Y-39220000D01*
X136115000Y-41300000D02*
X136115000Y-44065000D01*
X136155000Y-36471000D02*
X136155000Y-39220000D01*
X136155000Y-41300000D02*
X136155000Y-44049000D01*
X136195000Y-36487000D02*
X136195000Y-39220000D01*
X136195000Y-41300000D02*
X136195000Y-44033000D01*
X136235000Y-36503000D02*
X136235000Y-39220000D01*
X136235000Y-41300000D02*
X136235000Y-44017000D01*
X136275000Y-36520000D02*
X136275000Y-39220000D01*
X136275000Y-41300000D02*
X136275000Y-44000000D01*
X136315000Y-36538000D02*
X136315000Y-39220000D01*
X136315000Y-41300000D02*
X136315000Y-43982000D01*
X136355000Y-36556000D02*
X136355000Y-39220000D01*
X136355000Y-41300000D02*
X136355000Y-43964000D01*
X136395000Y-36575000D02*
X136395000Y-39220000D01*
X136395000Y-41300000D02*
X136395000Y-43945000D01*
X136435000Y-36594000D02*
X136435000Y-39220000D01*
X136435000Y-41300000D02*
X136435000Y-43926000D01*
X136475000Y-36614000D02*
X136475000Y-39220000D01*
X136475000Y-41300000D02*
X136475000Y-43906000D01*
X136515000Y-36634000D02*
X136515000Y-39220000D01*
X136515000Y-41300000D02*
X136515000Y-43886000D01*
X136555000Y-36655000D02*
X136555000Y-39220000D01*
X136555000Y-41300000D02*
X136555000Y-43865000D01*
X136595000Y-36676000D02*
X136595000Y-39220000D01*
X136595000Y-41300000D02*
X136595000Y-43844000D01*
X136635000Y-36698000D02*
X136635000Y-39220000D01*
X136635000Y-41300000D02*
X136635000Y-43822000D01*
X136675000Y-36721000D02*
X136675000Y-39220000D01*
X136675000Y-41300000D02*
X136675000Y-43799000D01*
X136715000Y-36744000D02*
X136715000Y-39220000D01*
X136715000Y-41300000D02*
X136715000Y-43776000D01*
X136755000Y-36767000D02*
X136755000Y-39220000D01*
X136755000Y-41300000D02*
X136755000Y-43753000D01*
X136795000Y-36792000D02*
X136795000Y-39220000D01*
X136795000Y-41300000D02*
X136795000Y-43728000D01*
X136835000Y-36817000D02*
X136835000Y-39220000D01*
X136835000Y-41300000D02*
X136835000Y-43703000D01*
X136875000Y-36842000D02*
X136875000Y-39220000D01*
X136875000Y-41300000D02*
X136875000Y-43678000D01*
X136915000Y-36868000D02*
X136915000Y-39220000D01*
X136915000Y-41300000D02*
X136915000Y-43652000D01*
X136955000Y-36895000D02*
X136955000Y-39220000D01*
X136955000Y-41300000D02*
X136955000Y-43625000D01*
X136995000Y-36923000D02*
X136995000Y-39220000D01*
X136995000Y-41300000D02*
X136995000Y-43597000D01*
X137035000Y-36951000D02*
X137035000Y-39220000D01*
X137035000Y-41300000D02*
X137035000Y-43569000D01*
X137075000Y-36980000D02*
X137075000Y-39220000D01*
X137075000Y-41300000D02*
X137075000Y-43540000D01*
X137115000Y-37010000D02*
X137115000Y-39220000D01*
X137115000Y-41300000D02*
X137115000Y-43510000D01*
X137155000Y-37041000D02*
X137155000Y-39220000D01*
X137155000Y-41300000D02*
X137155000Y-43479000D01*
X137195000Y-37072000D02*
X137195000Y-39220000D01*
X137195000Y-41300000D02*
X137195000Y-43448000D01*
X137235000Y-37104000D02*
X137235000Y-39220000D01*
X137235000Y-41300000D02*
X137235000Y-43416000D01*
X137275000Y-37137000D02*
X137275000Y-39220000D01*
X137275000Y-41300000D02*
X137275000Y-43383000D01*
X137315000Y-37171000D02*
X137315000Y-39220000D01*
X137315000Y-41300000D02*
X137315000Y-43349000D01*
X137355000Y-37205000D02*
X137355000Y-39220000D01*
X137355000Y-41300000D02*
X137355000Y-43315000D01*
X137395000Y-37241000D02*
X137395000Y-39220000D01*
X137395000Y-41300000D02*
X137395000Y-43279000D01*
X137435000Y-37278000D02*
X137435000Y-43242000D01*
X137475000Y-37315000D02*
X137475000Y-43205000D01*
X137515000Y-37354000D02*
X137515000Y-43166000D01*
X137555000Y-37393000D02*
X137555000Y-43127000D01*
X137595000Y-37434000D02*
X137595000Y-43086000D01*
X137635000Y-37476000D02*
X137635000Y-43044000D01*
X137675000Y-37519000D02*
X137675000Y-43001000D01*
X137715000Y-37564000D02*
X137715000Y-42956000D01*
X137755000Y-37609000D02*
X137755000Y-42911000D01*
X137795000Y-37656000D02*
X137795000Y-42864000D01*
X137835000Y-37705000D02*
X137835000Y-42815000D01*
X137875000Y-37755000D02*
X137875000Y-42765000D01*
X137915000Y-37807000D02*
X137915000Y-42713000D01*
X137955000Y-37860000D02*
X137955000Y-42660000D01*
X137995000Y-37916000D02*
X137995000Y-42604000D01*
X138035000Y-37973000D02*
X138035000Y-42547000D01*
X138075000Y-38033000D02*
X138075000Y-42487000D01*
X138115000Y-38095000D02*
X138115000Y-42425000D01*
X138155000Y-38159000D02*
X138155000Y-42361000D01*
X138195000Y-38226000D02*
X138195000Y-42294000D01*
X138235000Y-38296000D02*
X138235000Y-42224000D01*
X138275000Y-38370000D02*
X138275000Y-42150000D01*
X138315000Y-38447000D02*
X138315000Y-42073000D01*
X138355000Y-38529000D02*
X138355000Y-41991000D01*
X138395000Y-38616000D02*
X138395000Y-41904000D01*
X138435000Y-38708000D02*
X138435000Y-41812000D01*
X138475000Y-38807000D02*
X138475000Y-41713000D01*
X138515000Y-38914000D02*
X138515000Y-41606000D01*
X138555000Y-39032000D02*
X138555000Y-41488000D01*
X138595000Y-39163000D02*
X138595000Y-41357000D01*
X138635000Y-39313000D02*
X138635000Y-41207000D01*
X138675000Y-39492000D02*
X138675000Y-41028000D01*
X138715000Y-39727000D02*
X138715000Y-40793000D01*
X138755000Y-40260000D02*
G75*
G02*
X130515000Y-40260000I-4120000J0D01*
G01*
X130515000Y-40260000D02*
G75*
G02*
X138755000Y-40260000I4120000J0D01*
G01*
%TD*%
%LPC*%
D14*
%TO.C,H4*%
X172635000Y-60510000D03*
%TD*%
D15*
%TO.C,J4*%
X136385000Y-27010000D03*
D16*
X131385000Y-27010000D03*
%TD*%
D17*
%TO.C,U1*%
X131065000Y-55890000D03*
X133605000Y-55890000D03*
X136145000Y-55890000D03*
X141225000Y-55890000D03*
X143765000Y-55890000D03*
X146305000Y-55890000D03*
X148845000Y-55890000D03*
%TD*%
D14*
%TO.C,H1*%
X124385000Y-23510000D03*
%TD*%
D18*
%TO.C,L2*%
X143935000Y-44010000D03*
X153835000Y-44010000D03*
%TD*%
D19*
%TO.C,C2*%
X161135000Y-26260000D03*
D20*
X161135000Y-24260000D03*
%TD*%
D21*
%TO.C,C5*%
X161135000Y-37947500D03*
X161135000Y-41072500D03*
%TD*%
D22*
%TO.C,F1*%
X125135000Y-34410000D03*
X125135000Y-47110000D03*
%TD*%
D19*
%TO.C,C3*%
X161385000Y-46715112D03*
D20*
X161385000Y-44715112D03*
%TD*%
D18*
%TO.C,L1*%
X153835000Y-29010000D03*
X143935000Y-29010000D03*
%TD*%
D23*
%TO.C,J5*%
X155135000Y-56510000D03*
D16*
X160215000Y-56510000D03*
X165295000Y-56510000D03*
%TD*%
D21*
%TO.C,C4*%
X161135000Y-30947500D03*
X161135000Y-34072500D03*
%TD*%
D14*
%TO.C,H2*%
X172635000Y-23510000D03*
%TD*%
D24*
%TO.C,C1*%
X132885000Y-40260000D03*
D20*
X136385000Y-40260000D03*
%TD*%
D14*
%TO.C,H3*%
X124385000Y-60510000D03*
%TD*%
%LPD*%
M02*
