%TF.GenerationSoftware,KiCad,Pcbnew,10.0.1*%
%TF.CreationDate,2026-06-05T02:16:13+09:00*%
%TF.ProjectId,AudioCase_3_power,41756469-6f43-4617-9365-5f335f706f77,rev?*%
%TF.SameCoordinates,Original*%
%TF.FileFunction,Copper,L1,Top*%
%TF.FilePolarity,Positive*%
%FSLAX46Y46*%
G04 Gerber Fmt 4.6, Leading zero omitted, Abs format (unit mm)*
G04 Created by KiCad (PCBNEW 10.0.1) date 2026-06-05 02:16:13*
%MOMM*%
%LPD*%
G01*
G04 APERTURE LIST*
G04 Aperture macros list*
%AMRoundRect*
0 Rectangle with rounded corners*
0 $1 Rounding radius*
0 $2 $3 $4 $5 $6 $7 $8 $9 X,Y pos of 4 corners*
0 Add a 4 corners polygon primitive as box body*
4,1,4,$2,$3,$4,$5,$6,$7,$8,$9,$2,$3,0*
0 Add four circle primitives for the rounded corners*
1,1,$1+$1,$2,$3*
1,1,$1+$1,$4,$5*
1,1,$1+$1,$6,$7*
1,1,$1+$1,$8,$9*
0 Add four rect primitives between the rounded corners*
20,1,$1+$1,$2,$3,$4,$5,0*
20,1,$1+$1,$4,$5,$6,$7,0*
20,1,$1+$1,$6,$7,$8,$9,0*
20,1,$1+$1,$8,$9,$2,$3,0*%
G04 Aperture macros list end*
%TA.AperFunction,ComponentPad*%
%ADD10RoundRect,0.250000X1.050000X1.050000X-1.050000X1.050000X-1.050000X-1.050000X1.050000X-1.050000X0*%
%TD*%
%TA.AperFunction,ComponentPad*%
%ADD11C,2.600000*%
%TD*%
%TA.AperFunction,ComponentPad*%
%ADD12C,1.850000*%
%TD*%
%TA.AperFunction,SMDPad,CuDef*%
%ADD13R,2.900000X5.400000*%
%TD*%
%TA.AperFunction,ComponentPad*%
%ADD14RoundRect,0.250000X0.550000X-0.550000X0.550000X0.550000X-0.550000X0.550000X-0.550000X-0.550000X0*%
%TD*%
%TA.AperFunction,ComponentPad*%
%ADD15C,1.600000*%
%TD*%
%TA.AperFunction,SMDPad,CuDef*%
%ADD16RoundRect,0.250000X-0.650000X0.412500X-0.650000X-0.412500X0.650000X-0.412500X0.650000X0.412500X0*%
%TD*%
%TA.AperFunction,ComponentPad*%
%ADD17C,2.400000*%
%TD*%
%TA.AperFunction,ComponentPad*%
%ADD18RoundRect,0.250000X-1.050000X-1.050000X1.050000X-1.050000X1.050000X1.050000X-1.050000X1.050000X0*%
%TD*%
%TA.AperFunction,ComponentPad*%
%ADD19RoundRect,0.250000X-0.550000X-0.550000X0.550000X-0.550000X0.550000X0.550000X-0.550000X0.550000X0*%
%TD*%
%TA.AperFunction,ViaPad*%
%ADD20C,1.000000*%
%TD*%
%TA.AperFunction,ViaPad*%
%ADD21C,0.600000*%
%TD*%
%TA.AperFunction,Conductor*%
%ADD22C,1.000000*%
%TD*%
G04 APERTURE END LIST*
D10*
%TO.P,J4,1,Pin_1_1*%
%TO.N,/Controll/PD_GND_IN*%
X136385000Y-27010000D03*
D11*
%TO.P,J4,2,Pin_2_2*%
%TO.N,/Controll/+15_IN*%
X131385000Y-27010000D03*
%TD*%
D12*
%TO.P,U1,1,GND_1*%
%TO.N,/Controll/PD_GND_IN*%
X131065000Y-55890000D03*
%TO.P,U1,2,+Vin_2*%
%TO.N,Net-(U1-+Vin)*%
X133605000Y-55890000D03*
%TO.P,U1,3,Remote_On/Off_3*%
%TO.N,unconnected-(U1-Remote_On{slash}Off-Pad3)*%
X136145000Y-55890000D03*
%TO.P,U1,5,NC_5*%
%TO.N,unconnected-(U1-NC-Pad5)*%
X141225000Y-55890000D03*
%TO.P,U1,6,+Vout_6*%
%TO.N,Net-(U1-+Vout)*%
X143765000Y-55890000D03*
%TO.P,U1,7,Common_7*%
%TO.N,GND*%
X146305000Y-55890000D03*
%TO.P,U1,8,-Vout_8*%
%TO.N,Net-(U1--Vout)*%
X148845000Y-55890000D03*
%TD*%
D13*
%TO.P,L2,1,1_1*%
%TO.N,Net-(U1--Vout)*%
X143935000Y-44010000D03*
%TO.P,L2,2,2_2*%
%TO.N,/Controll/AMP_V-_IN*%
X153835000Y-44010000D03*
%TD*%
D14*
%TO.P,C2,1*%
%TO.N,/Controll/AMP_V+_IN*%
X161135000Y-26260000D03*
D15*
%TO.P,C2,2*%
%TO.N,GND*%
X161135000Y-24260000D03*
%TD*%
D16*
%TO.P,C5,1*%
%TO.N,GND*%
X161135000Y-37947500D03*
%TO.P,C5,2*%
%TO.N,/Controll/AMP_V-_IN*%
X161135000Y-41072500D03*
%TD*%
D17*
%TO.P,F1,1*%
%TO.N,/Controll/+15_IN*%
X125135000Y-34410000D03*
%TO.P,F1,2*%
%TO.N,Net-(U1-+Vin)*%
X125135000Y-47110000D03*
%TD*%
D14*
%TO.P,C3,1*%
%TO.N,GND*%
X161385000Y-46715112D03*
D15*
%TO.P,C3,2*%
%TO.N,/Controll/AMP_V-_IN*%
X161385000Y-44715112D03*
%TD*%
D13*
%TO.P,L1,1,1_1*%
%TO.N,/Controll/AMP_V+_IN*%
X153835000Y-29010000D03*
%TO.P,L1,2,2_2*%
%TO.N,Net-(U1-+Vout)*%
X143935000Y-29010000D03*
%TD*%
D18*
%TO.P,J5,1,Pin_1_1*%
%TO.N,/Controll/AMP_V+_IN*%
X155135000Y-56510000D03*
D11*
%TO.P,J5,2,Pin_2_2*%
%TO.N,GND*%
X160215000Y-56510000D03*
%TO.P,J5,3,Pin_3_3*%
%TO.N,/Controll/AMP_V-_IN*%
X165295000Y-56510000D03*
%TD*%
D16*
%TO.P,C4,1*%
%TO.N,/Controll/AMP_V+_IN*%
X161135000Y-30947500D03*
%TO.P,C4,2*%
%TO.N,GND*%
X161135000Y-34072500D03*
%TD*%
D19*
%TO.P,C1,1*%
%TO.N,Net-(U1-+Vin)*%
X132885000Y-40260000D03*
D15*
%TO.P,C1,2*%
%TO.N,/Controll/PD_GND_IN*%
X136385000Y-40260000D03*
%TD*%
D20*
%TO.N,GND*%
X161135000Y-36010000D03*
D21*
%TO.N,/Controll/AMP_V+_IN*%
X167385000Y-49010000D03*
X163385000Y-49010000D03*
%TD*%
%TO.N,/Controll/+15_IN*%
D22*
X131385000Y-28160000D02*
X125135000Y-34410000D01*
X131385000Y-27010000D02*
X131385000Y-28160000D01*
%TO.N,Net-(U1-+Vin)*%
X132885000Y-40260000D02*
X133635000Y-41010000D01*
X125135000Y-47110000D02*
X131985000Y-40260000D01*
X133635000Y-41010000D02*
X133635000Y-55860000D01*
X131985000Y-40260000D02*
X132885000Y-40260000D01*
X133635000Y-55860000D02*
X133605000Y-55890000D01*
%TO.N,Net-(U1-+Vout)*%
X143685000Y-29260000D02*
X143935000Y-29010000D01*
X141135000Y-51010000D02*
X141135000Y-29260000D01*
X141135000Y-29260000D02*
X143685000Y-29260000D01*
X143765000Y-55890000D02*
X143795000Y-55860000D01*
X143795000Y-53670000D02*
X141135000Y-51010000D01*
X143795000Y-55860000D02*
X143795000Y-53670000D01*
%TO.N,GND*%
X161135000Y-36010000D02*
X161135000Y-37947500D01*
X161135000Y-34072500D02*
X161135000Y-36010000D01*
%TO.N,Net-(U1--Vout)*%
X148885000Y-51010000D02*
X143935000Y-46060000D01*
X148885000Y-56000000D02*
X148885000Y-51010000D01*
X143935000Y-46060000D02*
X143935000Y-44010000D01*
X148875000Y-56010000D02*
X148885000Y-56000000D01*
%TO.N,/Controll/AMP_V-_IN*%
X157635000Y-44010000D02*
X157635000Y-43010000D01*
X161135000Y-44760000D02*
X160684570Y-44760000D01*
X161072500Y-41010000D02*
X161135000Y-41072500D01*
X161135000Y-41072500D02*
X163017500Y-41072500D01*
X159635000Y-41010000D02*
X161072500Y-41010000D01*
X163885000Y-44760000D02*
X165295000Y-43350000D01*
X157635000Y-44010000D02*
X158385000Y-44760000D01*
X163017500Y-41072500D02*
X165295000Y-43350000D01*
X158385000Y-44760000D02*
X161135000Y-44760000D01*
X161135000Y-44760000D02*
X163885000Y-44760000D01*
X165295000Y-56510000D02*
X165295000Y-43350000D01*
X153835000Y-44010000D02*
X157635000Y-44010000D01*
X157635000Y-43010000D02*
X159635000Y-41010000D01*
%TO.N,/Controll/AMP_V+_IN*%
X158635000Y-29010000D02*
X161135000Y-26510000D01*
X157635000Y-29010000D02*
X159572500Y-30947500D01*
X161135000Y-26510000D02*
X161135000Y-26260000D01*
X157635000Y-29010000D02*
X158635000Y-29010000D01*
X163385000Y-49010000D02*
X155885000Y-56510000D01*
X167385000Y-49010000D02*
X167385000Y-32510000D01*
X153835000Y-29010000D02*
X157635000Y-29010000D01*
X159572500Y-30947500D02*
X161135000Y-30947500D01*
X167385000Y-32510000D02*
X161135000Y-26260000D01*
X155885000Y-56510000D02*
X155135000Y-56510000D01*
%TD*%
M02*
