%TF.GenerationSoftware,KiCad,Pcbnew,10.0.1*%
%TF.CreationDate,2026-06-17T20:16:31+09:00*%
%TF.ProjectId,AudioCase_3_power,41756469-6f43-4617-9365-5f335f706f77,rev?*%
%TF.SameCoordinates,Original*%
%TF.FileFunction,Copper,L1,Top*%
%TF.FilePolarity,Positive*%
%FSLAX46Y46*%
G04 Gerber Fmt 4.6, Leading zero omitted, Abs format (unit mm)*
G04 Created by KiCad (PCBNEW 10.0.1) date 2026-06-17 20:16:31*
%MOMM*%
%LPD*%
G01*
G04 APERTURE LIST*
G04 Aperture macros list*
%AMRoundRect*
0 Rectangle with rounded corners*
0 $1 Rounding radius*
0 $2 $3 $4 $5 $6 $7 $8 $9 X,Y pos of 4 corners*
0 Add a 4 corners polygon primitive as box body*
4,1,4,$2,$3,$4,$5,$6,$7,$8,$9,$2,$3,0*
0 Add four circle primitives for the rounded corners*
1,1,$1+$1,$2,$3*
1,1,$1+$1,$4,$5*
1,1,$1+$1,$6,$7*
1,1,$1+$1,$8,$9*
0 Add four rect primitives between the rounded corners*
20,1,$1+$1,$2,$3,$4,$5,0*
20,1,$1+$1,$4,$5,$6,$7,0*
20,1,$1+$1,$6,$7,$8,$9,0*
20,1,$1+$1,$8,$9,$2,$3,0*%
G04 Aperture macros list end*
%TA.AperFunction,SMDPad,CuDef*%
%ADD10R,2.900000X5.400000*%
%TD*%
%TA.AperFunction,SMDPad,CuDef*%
%ADD11RoundRect,0.250000X-0.650000X0.412500X-0.650000X-0.412500X0.650000X-0.412500X0.650000X0.412500X0*%
%TD*%
%TA.AperFunction,ComponentPad*%
%ADD12RoundRect,0.250000X-1.050000X-1.050000X1.050000X-1.050000X1.050000X1.050000X-1.050000X1.050000X0*%
%TD*%
%TA.AperFunction,ComponentPad*%
%ADD13C,2.600000*%
%TD*%
%TA.AperFunction,ComponentPad*%
%ADD14RoundRect,0.250000X0.550000X-0.550000X0.550000X0.550000X-0.550000X0.550000X-0.550000X-0.550000X0*%
%TD*%
%TA.AperFunction,ComponentPad*%
%ADD15C,1.600000*%
%TD*%
%TA.AperFunction,ComponentPad*%
%ADD16C,2.400000*%
%TD*%
%TA.AperFunction,ComponentPad*%
%ADD17RoundRect,0.250000X1.050000X1.050000X-1.050000X1.050000X-1.050000X-1.050000X1.050000X-1.050000X0*%
%TD*%
%TA.AperFunction,ComponentPad*%
%ADD18RoundRect,0.250000X-0.550000X-0.550000X0.550000X-0.550000X0.550000X0.550000X-0.550000X0.550000X0*%
%TD*%
%TA.AperFunction,ComponentPad*%
%ADD19C,1.850000*%
%TD*%
%TA.AperFunction,ViaPad*%
%ADD20C,0.600000*%
%TD*%
%TA.AperFunction,ViaPad*%
%ADD21C,1.000000*%
%TD*%
%TA.AperFunction,Conductor*%
%ADD22C,1.000000*%
%TD*%
G04 APERTURE END LIST*
D10*
%TO.P,L1,1,1_1*%
%TO.N,/Controll/AMP_V+_IN*%
X153835000Y-29010000D03*
%TO.P,L1,2,2_2*%
%TO.N,Net-(U1-+Vout)*%
X143935000Y-29010000D03*
%TD*%
D11*
%TO.P,C5,1*%
%TO.N,GND*%
X161135000Y-37947500D03*
%TO.P,C5,2*%
%TO.N,/Controll/AMP_V-_IN*%
X161135000Y-41072500D03*
%TD*%
%TO.P,C4,1*%
%TO.N,/Controll/AMP_V+_IN*%
X161135000Y-30947500D03*
%TO.P,C4,2*%
%TO.N,GND*%
X161135000Y-34072500D03*
%TD*%
D12*
%TO.P,J5,1,Pin_1_1*%
%TO.N,/Controll/AMP_V+_IN*%
X155135000Y-56510000D03*
D13*
%TO.P,J5,2,Pin_2_2*%
%TO.N,GND*%
X160215000Y-56510000D03*
%TO.P,J5,3,Pin_3_3*%
%TO.N,/Controll/AMP_V-_IN*%
X165295000Y-56510000D03*
%TD*%
D10*
%TO.P,L2,1,1_1*%
%TO.N,Net-(U1--Vout)*%
X143935000Y-44010000D03*
%TO.P,L2,2,2_2*%
%TO.N,/Controll/AMP_V-_IN*%
X153835000Y-44010000D03*
%TD*%
D14*
%TO.P,C2,1*%
%TO.N,/Controll/AMP_V+_IN*%
X161135000Y-26260000D03*
D15*
%TO.P,C2,2*%
%TO.N,GND*%
X161135000Y-24260000D03*
%TD*%
D16*
%TO.P,F1,1*%
%TO.N,/Controll/+15_IN*%
X125135000Y-34410000D03*
%TO.P,F1,2*%
%TO.N,Net-(U1-+Vin)*%
X125135000Y-47110000D03*
%TD*%
D14*
%TO.P,C3,1*%
%TO.N,GND*%
X161385000Y-46715112D03*
D15*
%TO.P,C3,2*%
%TO.N,/Controll/AMP_V-_IN*%
X161385000Y-44715112D03*
%TD*%
D17*
%TO.P,J4,1,Pin_1_1*%
%TO.N,/Controll/PD_GND_IN*%
X136385000Y-27010000D03*
D13*
%TO.P,J4,2,Pin_2_2*%
%TO.N,/Controll/+15_IN*%
X131385000Y-27010000D03*
%TD*%
D18*
%TO.P,C1,1*%
%TO.N,Net-(U1-+Vin)*%
X132885000Y-40260000D03*
D15*
%TO.P,C1,2*%
%TO.N,/Controll/PD_GND_IN*%
X136385000Y-40260000D03*
%TD*%
D19*
%TO.P,U1,1,GND_1*%
%TO.N,/Controll/PD_GND_IN*%
X131065000Y-55890000D03*
%TO.P,U1,2,+Vin_2*%
%TO.N,Net-(U1-+Vin)*%
X133605000Y-55890000D03*
%TO.P,U1,3,Remote_On/Off_3*%
%TO.N,unconnected-(U1-Remote_On{slash}Off-Pad3)*%
X136145000Y-55890000D03*
%TO.P,U1,5,NC_5*%
%TO.N,unconnected-(U1-NC-Pad5)*%
X141225000Y-55890000D03*
%TO.P,U1,6,+Vout_6*%
%TO.N,Net-(U1-+Vout)*%
X143765000Y-55890000D03*
%TO.P,U1,7,Common_7*%
%TO.N,GND*%
X146305000Y-55890000D03*
%TO.P,U1,8,-Vout_8*%
%TO.N,Net-(U1--Vout)*%
X148845000Y-55890000D03*
%TD*%
D20*
%TO.N,/Controll/AMP_V+_IN*%
X165785000Y-30910000D03*
%TO.N,GND*%
X146085000Y-59710000D03*
X154835000Y-36260000D03*
X164835000Y-36310000D03*
X154285000Y-52960000D03*
D21*
X161135000Y-36010000D03*
D20*
X148785000Y-31760000D03*
X148585000Y-41460000D03*
%TD*%
%TO.N,/Controll/AMP_V+_IN*%
D22*
X157435000Y-29010000D02*
X158385000Y-29010000D01*
X153835000Y-29010000D02*
X157435000Y-29010000D01*
X161135000Y-30947500D02*
X165647500Y-30947500D01*
X157435000Y-29010000D02*
X159372500Y-30947500D01*
X159372500Y-30947500D02*
X161135000Y-30947500D01*
X158385000Y-29010000D02*
X161135000Y-26260000D01*
X165647500Y-30947500D02*
X165685000Y-30910000D01*
X161135000Y-26260000D02*
X161135000Y-30947500D01*
%TO.N,Net-(U1-+Vout)*%
X143795000Y-55860000D02*
X143795000Y-53670000D01*
X143685000Y-29260000D02*
X143935000Y-29010000D01*
X141135000Y-29260000D02*
X143685000Y-29260000D01*
X143795000Y-53670000D02*
X141135000Y-51010000D01*
X143765000Y-55890000D02*
X143795000Y-55860000D01*
X141135000Y-51010000D02*
X141135000Y-29260000D01*
%TO.N,GND*%
X161135000Y-34072500D02*
X161135000Y-36010000D01*
X161135000Y-36010000D02*
X161135000Y-37947500D01*
%TO.N,/Controll/AMP_V-_IN*%
X162516370Y-44715112D02*
X165295000Y-47493742D01*
X161135000Y-44465112D02*
X161385000Y-44715112D01*
X158902612Y-44715112D02*
X161385000Y-44715112D01*
X161135000Y-41072500D02*
X161135000Y-44465112D01*
X153835000Y-44010000D02*
X158197500Y-44010000D01*
X158197500Y-44010000D02*
X161135000Y-41072500D01*
X161385000Y-44715112D02*
X162516370Y-44715112D01*
X158197500Y-44010000D02*
X158902612Y-44715112D01*
X165295000Y-47493742D02*
X165295000Y-56510000D01*
%TO.N,Net-(U1--Vout)*%
X148885000Y-51010000D02*
X143935000Y-46060000D01*
X143935000Y-46060000D02*
X143935000Y-44010000D01*
X148885000Y-56000000D02*
X148885000Y-51010000D01*
X148875000Y-56010000D02*
X148885000Y-56000000D01*
%TO.N,/Controll/+15_IN*%
X125135000Y-33260000D02*
X125135000Y-34410000D01*
X131385000Y-27010000D02*
X125135000Y-33260000D01*
%TO.N,Net-(U1-+Vin)*%
X133635000Y-41010000D02*
X133635000Y-55860000D01*
X131985000Y-40260000D02*
X132885000Y-40260000D01*
X133635000Y-55860000D02*
X133605000Y-55890000D01*
X132885000Y-40260000D02*
X133635000Y-41010000D01*
X125135000Y-47110000D02*
X131985000Y-40260000D01*
%TD*%
%TA.AperFunction,Conductor*%
%TO.N,GND*%
G36*
X142302833Y-47176236D02*
G01*
X142377517Y-47204091D01*
X142377516Y-47204091D01*
X142384444Y-47204835D01*
X142437127Y-47210500D01*
X143619217Y-47210499D01*
X143686256Y-47230184D01*
X143706898Y-47246818D01*
X147848181Y-51388101D01*
X147881666Y-51449424D01*
X147884500Y-51475782D01*
X147884500Y-54783176D01*
X147864815Y-54850215D01*
X147848181Y-54870857D01*
X147757687Y-54961350D01*
X147757683Y-54961355D01*
X147675008Y-55075148D01*
X147619678Y-55117814D01*
X147550065Y-55123793D01*
X147488270Y-55091187D01*
X147474372Y-55075148D01*
X147473965Y-55074588D01*
X147473964Y-55074587D01*
X146726725Y-55821827D01*
X146701037Y-55725956D01*
X146645084Y-55629044D01*
X146565956Y-55549916D01*
X146469044Y-55493963D01*
X146373172Y-55468274D01*
X147120411Y-54721034D01*
X147120410Y-54721032D01*
X147051866Y-54671233D01*
X146852010Y-54569400D01*
X146852007Y-54569399D01*
X146638689Y-54500089D01*
X146417149Y-54465000D01*
X146192851Y-54465000D01*
X145971310Y-54500089D01*
X145757992Y-54569399D01*
X145757989Y-54569400D01*
X145558140Y-54671229D01*
X145489588Y-54721034D01*
X146236828Y-55468274D01*
X146140956Y-55493963D01*
X146044044Y-55549916D01*
X145964916Y-55629044D01*
X145908963Y-55725956D01*
X145883274Y-55821827D01*
X145136034Y-55074588D01*
X145136033Y-55074588D01*
X145135627Y-55075148D01*
X145114867Y-55091155D01*
X145096667Y-55110017D01*
X145087640Y-55112149D01*
X145080296Y-55117813D01*
X145054181Y-55120055D01*
X145028670Y-55126084D01*
X145019923Y-55122998D01*
X145010683Y-55123792D01*
X144987498Y-55111558D01*
X144962780Y-55102838D01*
X144953561Y-55093651D01*
X144948888Y-55091186D01*
X144937383Y-55078331D01*
X144936148Y-55076742D01*
X144852311Y-54961349D01*
X144826331Y-54935369D01*
X144821574Y-54929245D01*
X144811507Y-54903660D01*
X144798334Y-54879534D01*
X144796949Y-54866657D01*
X144795993Y-54864226D01*
X144796444Y-54861957D01*
X144795500Y-54853176D01*
X144795500Y-53571456D01*
X144757052Y-53378170D01*
X144757051Y-53378169D01*
X144757051Y-53378165D01*
X144757049Y-53378160D01*
X144681635Y-53196092D01*
X144681628Y-53196079D01*
X144572139Y-53032218D01*
X144572136Y-53032214D01*
X144429686Y-52889764D01*
X144429655Y-52889735D01*
X142171819Y-50631899D01*
X142138334Y-50570576D01*
X142135500Y-50544218D01*
X142135500Y-47292418D01*
X142155185Y-47225379D01*
X142207989Y-47179624D01*
X142277147Y-47169680D01*
X142302833Y-47176236D01*
G37*
%TD.AperFunction*%
%TA.AperFunction,Conductor*%
G36*
X169078039Y-20520185D02*
G01*
X169123794Y-20572989D01*
X169135000Y-20624500D01*
X169135000Y-61885791D01*
X169115315Y-61952830D01*
X169062511Y-61998585D01*
X169010792Y-62009791D01*
X139508644Y-61960207D01*
X139441637Y-61940410D01*
X139395971Y-61887529D01*
X139384852Y-61836358D01*
X139377639Y-55777805D01*
X139799500Y-55777805D01*
X139799500Y-56002194D01*
X139834599Y-56223805D01*
X139903938Y-56437206D01*
X139973649Y-56574019D01*
X140001159Y-56628011D01*
X140005805Y-56637128D01*
X140137683Y-56818644D01*
X140137687Y-56818649D01*
X140296350Y-56977312D01*
X140296355Y-56977316D01*
X140348069Y-57014888D01*
X140477875Y-57109197D01*
X140605264Y-57174105D01*
X140677793Y-57211061D01*
X140677795Y-57211061D01*
X140677798Y-57211063D01*
X140792184Y-57248229D01*
X140891194Y-57280400D01*
X141112806Y-57315500D01*
X141112811Y-57315500D01*
X141337194Y-57315500D01*
X141558805Y-57280400D01*
X141560313Y-57279910D01*
X141772202Y-57211063D01*
X141972125Y-57109197D01*
X142153651Y-56977311D01*
X142312311Y-56818651D01*
X142394682Y-56705275D01*
X142450011Y-56662611D01*
X142519624Y-56656632D01*
X142581420Y-56689237D01*
X142595313Y-56705271D01*
X142595416Y-56705411D01*
X142677689Y-56818651D01*
X142836350Y-56977312D01*
X142836355Y-56977316D01*
X142888069Y-57014888D01*
X143017875Y-57109197D01*
X143145264Y-57174105D01*
X143217793Y-57211061D01*
X143217795Y-57211061D01*
X143217798Y-57211063D01*
X143332184Y-57248229D01*
X143431194Y-57280400D01*
X143652806Y-57315500D01*
X143652811Y-57315500D01*
X143877194Y-57315500D01*
X144098805Y-57280400D01*
X144100313Y-57279910D01*
X144312202Y-57211063D01*
X144512125Y-57109197D01*
X144693651Y-56977311D01*
X144852311Y-56818651D01*
X144852313Y-56818647D01*
X144852316Y-56818645D01*
X144934991Y-56704852D01*
X144990320Y-56662186D01*
X145059934Y-56656207D01*
X145121729Y-56688812D01*
X145135627Y-56704852D01*
X145136033Y-56705410D01*
X145136034Y-56705411D01*
X145883274Y-55958171D01*
X145908963Y-56054044D01*
X145964916Y-56150956D01*
X146044044Y-56230084D01*
X146140956Y-56286037D01*
X146236828Y-56311725D01*
X145489587Y-57058964D01*
X145558136Y-57108768D01*
X145757989Y-57210599D01*
X145757992Y-57210600D01*
X145971310Y-57279910D01*
X146192851Y-57315000D01*
X146417149Y-57315000D01*
X146638689Y-57279910D01*
X146852007Y-57210600D01*
X146852010Y-57210599D01*
X147051862Y-57108769D01*
X147120410Y-57058964D01*
X147120411Y-57058964D01*
X146373171Y-56311725D01*
X146469044Y-56286037D01*
X146565956Y-56230084D01*
X146645084Y-56150956D01*
X146701037Y-56054044D01*
X146726725Y-55958172D01*
X147473964Y-56705411D01*
X147473965Y-56705410D01*
X147474372Y-56704851D01*
X147529702Y-56662185D01*
X147599315Y-56656206D01*
X147661110Y-56688812D01*
X147675008Y-56704851D01*
X147757683Y-56818644D01*
X147757687Y-56818649D01*
X147916350Y-56977312D01*
X147916355Y-56977316D01*
X147968069Y-57014888D01*
X148097875Y-57109197D01*
X148225264Y-57174105D01*
X148297793Y-57211061D01*
X148297795Y-57211061D01*
X148297798Y-57211063D01*
X148412184Y-57248229D01*
X148511194Y-57280400D01*
X148732806Y-57315500D01*
X148732811Y-57315500D01*
X148957194Y-57315500D01*
X149178805Y-57280400D01*
X149180313Y-57279910D01*
X149392202Y-57211063D01*
X149592125Y-57109197D01*
X149773651Y-56977311D01*
X149932311Y-56818651D01*
X150064197Y-56637125D01*
X150166063Y-56437202D01*
X150235400Y-56223805D01*
X150245825Y-56157986D01*
X150270500Y-56002194D01*
X150270500Y-55777805D01*
X150235400Y-55556194D01*
X150199320Y-55445153D01*
X150193186Y-55426275D01*
X150187892Y-55409983D01*
X153334500Y-55409983D01*
X153334500Y-57610001D01*
X153334501Y-57610018D01*
X153345000Y-57712796D01*
X153345001Y-57712799D01*
X153393885Y-57860319D01*
X153400186Y-57879334D01*
X153492288Y-58028656D01*
X153616344Y-58152712D01*
X153765666Y-58244814D01*
X153932203Y-58299999D01*
X154034991Y-58310500D01*
X156235008Y-58310499D01*
X156337797Y-58299999D01*
X156504334Y-58244814D01*
X156653656Y-58152712D01*
X156777712Y-58028656D01*
X156869814Y-57879334D01*
X156924999Y-57712797D01*
X156935500Y-57610009D01*
X156935499Y-56392014D01*
X158415000Y-56392014D01*
X158415000Y-56627985D01*
X158445799Y-56861914D01*
X158506870Y-57089837D01*
X158597160Y-57307819D01*
X158597165Y-57307828D01*
X158715144Y-57512171D01*
X158715145Y-57512172D01*
X158777721Y-57593723D01*
X159613958Y-56757487D01*
X159638978Y-56817890D01*
X159710112Y-56924351D01*
X159800649Y-57014888D01*
X159907110Y-57086022D01*
X159967511Y-57111041D01*
X159131275Y-57947277D01*
X159212827Y-58009854D01*
X159212828Y-58009855D01*
X159417171Y-58127834D01*
X159417180Y-58127839D01*
X159635163Y-58218129D01*
X159635161Y-58218129D01*
X159863085Y-58279200D01*
X160097014Y-58309999D01*
X160097029Y-58310000D01*
X160332971Y-58310000D01*
X160332985Y-58309999D01*
X160566914Y-58279200D01*
X160794837Y-58218129D01*
X161012819Y-58127839D01*
X161012828Y-58127834D01*
X161217181Y-58009850D01*
X161298723Y-57947279D01*
X161298723Y-57947276D01*
X160462487Y-57111041D01*
X160522890Y-57086022D01*
X160629351Y-57014888D01*
X160719888Y-56924351D01*
X160791022Y-56817890D01*
X160816041Y-56757488D01*
X161652276Y-57593723D01*
X161652279Y-57593723D01*
X161714850Y-57512181D01*
X161832834Y-57307828D01*
X161832839Y-57307819D01*
X161923129Y-57089837D01*
X161984200Y-56861914D01*
X162014999Y-56627985D01*
X162015000Y-56627971D01*
X162015000Y-56392028D01*
X162014999Y-56392014D01*
X161984200Y-56158085D01*
X161923129Y-55930162D01*
X161832839Y-55712180D01*
X161832834Y-55712171D01*
X161714855Y-55507828D01*
X161714854Y-55507827D01*
X161652277Y-55426275D01*
X160816041Y-56262511D01*
X160791022Y-56202110D01*
X160719888Y-56095649D01*
X160629351Y-56005112D01*
X160522890Y-55933978D01*
X160462488Y-55908958D01*
X161298723Y-55072721D01*
X161217172Y-55010145D01*
X161217171Y-55010144D01*
X161012828Y-54892165D01*
X161012819Y-54892160D01*
X160794836Y-54801870D01*
X160794838Y-54801870D01*
X160566914Y-54740799D01*
X160332985Y-54710000D01*
X160097014Y-54710000D01*
X159863085Y-54740799D01*
X159635162Y-54801870D01*
X159417180Y-54892160D01*
X159417171Y-54892165D01*
X159212828Y-55010144D01*
X159212818Y-55010150D01*
X159131275Y-55072720D01*
X159131275Y-55072721D01*
X159967512Y-55908958D01*
X159907110Y-55933978D01*
X159800649Y-56005112D01*
X159710112Y-56095649D01*
X159638978Y-56202110D01*
X159613958Y-56262511D01*
X158777721Y-55426275D01*
X158777720Y-55426275D01*
X158715150Y-55507818D01*
X158715144Y-55507828D01*
X158597165Y-55712171D01*
X158597160Y-55712180D01*
X158506870Y-55930162D01*
X158445799Y-56158085D01*
X158415000Y-56392014D01*
X156935499Y-56392014D01*
X156935499Y-55409992D01*
X156924999Y-55307203D01*
X156869814Y-55140666D01*
X156777712Y-54991344D01*
X156653656Y-54867288D01*
X156548924Y-54802689D01*
X156504336Y-54775187D01*
X156504331Y-54775185D01*
X156502862Y-54774698D01*
X156337797Y-54720001D01*
X156337795Y-54720000D01*
X156235010Y-54709500D01*
X154034998Y-54709500D01*
X154034981Y-54709501D01*
X153932203Y-54720000D01*
X153932200Y-54720001D01*
X153765668Y-54775185D01*
X153765663Y-54775187D01*
X153616342Y-54867289D01*
X153492289Y-54991342D01*
X153400187Y-55140663D01*
X153400185Y-55140668D01*
X153393886Y-55159678D01*
X153345001Y-55307203D01*
X153345001Y-55307204D01*
X153345000Y-55307204D01*
X153334500Y-55409983D01*
X150187892Y-55409983D01*
X150166063Y-55342798D01*
X150166061Y-55342795D01*
X150166061Y-55342793D01*
X150115000Y-55242581D01*
X150064197Y-55142875D01*
X150040324Y-55110017D01*
X149932316Y-54961355D01*
X149932312Y-54961350D01*
X149921819Y-54950857D01*
X149888334Y-54889534D01*
X149885500Y-54863176D01*
X149885500Y-50911456D01*
X149847052Y-50718170D01*
X149847051Y-50718169D01*
X149847051Y-50718165D01*
X149796275Y-50595580D01*
X149771635Y-50536092D01*
X149771628Y-50536079D01*
X149662139Y-50372218D01*
X149662136Y-50372214D01*
X149519686Y-50229764D01*
X149519655Y-50229735D01*
X145921818Y-46631898D01*
X145888333Y-46570575D01*
X145885499Y-46544217D01*
X145885499Y-41262135D01*
X151884500Y-41262135D01*
X151884500Y-46757870D01*
X151884501Y-46757876D01*
X151890908Y-46817483D01*
X151941202Y-46952328D01*
X151941206Y-46952335D01*
X152027452Y-47067544D01*
X152027454Y-47067546D01*
X152142664Y-47153793D01*
X152142671Y-47153797D01*
X152277517Y-47204091D01*
X152277516Y-47204091D01*
X152284444Y-47204835D01*
X152337127Y-47210500D01*
X155332872Y-47210499D01*
X155392483Y-47204091D01*
X155527331Y-47153796D01*
X155642546Y-47067546D01*
X155728796Y-46952331D01*
X155779091Y-46817483D01*
X155785500Y-46757873D01*
X155785500Y-45134500D01*
X155805185Y-45067461D01*
X155857989Y-45021706D01*
X155909500Y-45010500D01*
X157731718Y-45010500D01*
X157798757Y-45030185D01*
X157819399Y-45046819D01*
X158122347Y-45349767D01*
X158122376Y-45349798D01*
X158264826Y-45492248D01*
X158264830Y-45492251D01*
X158428691Y-45601740D01*
X158428704Y-45601747D01*
X158557445Y-45655073D01*
X158600356Y-45672847D01*
X158610776Y-45677163D01*
X158707424Y-45696387D01*
X158755747Y-45705999D01*
X158804070Y-45715612D01*
X158804071Y-45715612D01*
X158804072Y-45715612D01*
X159001152Y-45715612D01*
X160022125Y-45715612D01*
X160089164Y-45735297D01*
X160134919Y-45788101D01*
X160144863Y-45857259D01*
X160139831Y-45878616D01*
X160095494Y-46012414D01*
X160095493Y-46012421D01*
X160085000Y-46115125D01*
X160085000Y-46465112D01*
X161069314Y-46465112D01*
X161064920Y-46469506D01*
X161012259Y-46560718D01*
X160985000Y-46662451D01*
X160985000Y-46767773D01*
X161012259Y-46869506D01*
X161064920Y-46960718D01*
X161069314Y-46965112D01*
X160085001Y-46965112D01*
X160085001Y-47315098D01*
X160095494Y-47417809D01*
X160150641Y-47584231D01*
X160150643Y-47584236D01*
X160242684Y-47733457D01*
X160366654Y-47857427D01*
X160515875Y-47949468D01*
X160515880Y-47949470D01*
X160682302Y-48004617D01*
X160682309Y-48004618D01*
X160785019Y-48015111D01*
X161134999Y-48015111D01*
X161135000Y-48015110D01*
X161135000Y-47030798D01*
X161139394Y-47035192D01*
X161230606Y-47087853D01*
X161332339Y-47115112D01*
X161437661Y-47115112D01*
X161539394Y-47087853D01*
X161630606Y-47035192D01*
X161635000Y-47030798D01*
X161635000Y-48015111D01*
X161984972Y-48015111D01*
X161984986Y-48015110D01*
X162087697Y-48004617D01*
X162254119Y-47949470D01*
X162254124Y-47949468D01*
X162403345Y-47857427D01*
X162527315Y-47733457D01*
X162619356Y-47584236D01*
X162619358Y-47584231D01*
X162674505Y-47417809D01*
X162674506Y-47417802D01*
X162684999Y-47315098D01*
X162685000Y-47315085D01*
X162685000Y-46965112D01*
X161700686Y-46965112D01*
X161705080Y-46960718D01*
X161757741Y-46869506D01*
X161785000Y-46767773D01*
X161785000Y-46662451D01*
X161757741Y-46560718D01*
X161705080Y-46469506D01*
X161700686Y-46465112D01*
X162688701Y-46465112D01*
X162741864Y-46436082D01*
X162811556Y-46441066D01*
X162855905Y-46469567D01*
X164258181Y-47871843D01*
X164291666Y-47933166D01*
X164294500Y-47959524D01*
X164294500Y-54947080D01*
X164274815Y-55014119D01*
X164245986Y-55045456D01*
X164105302Y-55153406D01*
X164105295Y-55153412D01*
X163938412Y-55320295D01*
X163938406Y-55320302D01*
X163794730Y-55507545D01*
X163794727Y-55507549D01*
X163794727Y-55507550D01*
X163787014Y-55520909D01*
X163676719Y-55711943D01*
X163676714Y-55711954D01*
X163586394Y-55930006D01*
X163525306Y-56157989D01*
X163494501Y-56391979D01*
X163494500Y-56391995D01*
X163494500Y-56628004D01*
X163494501Y-56628020D01*
X163525306Y-56862010D01*
X163586394Y-57089993D01*
X163676714Y-57308045D01*
X163676719Y-57308056D01*
X163747677Y-57430957D01*
X163794727Y-57512450D01*
X163794729Y-57512453D01*
X163794730Y-57512454D01*
X163938406Y-57699697D01*
X163938412Y-57699704D01*
X164105295Y-57866587D01*
X164105302Y-57866593D01*
X164215306Y-57951001D01*
X164292550Y-58010273D01*
X164423918Y-58086118D01*
X164496943Y-58128280D01*
X164496948Y-58128282D01*
X164496951Y-58128284D01*
X164715007Y-58218606D01*
X164942986Y-58279693D01*
X165176989Y-58310500D01*
X165176996Y-58310500D01*
X165413004Y-58310500D01*
X165413011Y-58310500D01*
X165647014Y-58279693D01*
X165874993Y-58218606D01*
X166093049Y-58128284D01*
X166297450Y-58010273D01*
X166484699Y-57866592D01*
X166651592Y-57699699D01*
X166795273Y-57512450D01*
X166913284Y-57308049D01*
X167003606Y-57089993D01*
X167064693Y-56862014D01*
X167095500Y-56628011D01*
X167095500Y-56391989D01*
X167064693Y-56157986D01*
X167003606Y-55930007D01*
X166913284Y-55711951D01*
X166913282Y-55711948D01*
X166913280Y-55711943D01*
X166823358Y-55556195D01*
X166795273Y-55507550D01*
X166651592Y-55320301D01*
X166651587Y-55320295D01*
X166484704Y-55153412D01*
X166484697Y-55153406D01*
X166344014Y-55045456D01*
X166302811Y-54989028D01*
X166295500Y-54947080D01*
X166295500Y-47395198D01*
X166265984Y-47246818D01*
X166258760Y-47210499D01*
X166257051Y-47201906D01*
X166201397Y-47067546D01*
X166200856Y-47066241D01*
X166200846Y-47066214D01*
X166181635Y-47019835D01*
X166181634Y-47019834D01*
X166181632Y-47019828D01*
X166081799Y-46870417D01*
X166072139Y-46855959D01*
X165929686Y-46713506D01*
X165929655Y-46713477D01*
X163297849Y-44081671D01*
X163297829Y-44081649D01*
X163154155Y-43937975D01*
X163154151Y-43937972D01*
X162990290Y-43828483D01*
X162990281Y-43828478D01*
X162917685Y-43798408D01*
X162861535Y-43775150D01*
X162808206Y-43753061D01*
X162808202Y-43753060D01*
X162808198Y-43753058D01*
X162711558Y-43733836D01*
X162614914Y-43714612D01*
X162614911Y-43714612D01*
X162260762Y-43714612D01*
X162240309Y-43708606D01*
X162219025Y-43707377D01*
X162197639Y-43696076D01*
X162193723Y-43694927D01*
X162187819Y-43690888D01*
X162186557Y-43689970D01*
X162143923Y-43634616D01*
X162135500Y-43589694D01*
X162135500Y-42219797D01*
X162155185Y-42152758D01*
X162194403Y-42114258D01*
X162253656Y-42077712D01*
X162377712Y-41953656D01*
X162469814Y-41804334D01*
X162524999Y-41637797D01*
X162535500Y-41535009D01*
X162535499Y-40609992D01*
X162524999Y-40507203D01*
X162469814Y-40340666D01*
X162377712Y-40191344D01*
X162253656Y-40067288D01*
X162104334Y-39975186D01*
X161937797Y-39920001D01*
X161937795Y-39920000D01*
X161835010Y-39909500D01*
X160434998Y-39909500D01*
X160434981Y-39909501D01*
X160332203Y-39920000D01*
X160332200Y-39920001D01*
X160165668Y-39975185D01*
X160165663Y-39975187D01*
X160016342Y-40067289D01*
X159892289Y-40191342D01*
X159800187Y-40340663D01*
X159800186Y-40340666D01*
X159745001Y-40507203D01*
X159745001Y-40507204D01*
X159745000Y-40507204D01*
X159734500Y-40609983D01*
X159734500Y-41006716D01*
X159714815Y-41073755D01*
X159698181Y-41094397D01*
X157819399Y-42973181D01*
X157758076Y-43006666D01*
X157731718Y-43009500D01*
X155909499Y-43009500D01*
X155842460Y-42989815D01*
X155796705Y-42937011D01*
X155785499Y-42885500D01*
X155785499Y-41262129D01*
X155785498Y-41262123D01*
X155785497Y-41262116D01*
X155779091Y-41202517D01*
X155728796Y-41067669D01*
X155728795Y-41067668D01*
X155728793Y-41067664D01*
X155642547Y-40952455D01*
X155642544Y-40952452D01*
X155527335Y-40866206D01*
X155527328Y-40866202D01*
X155392482Y-40815908D01*
X155392483Y-40815908D01*
X155332883Y-40809501D01*
X155332881Y-40809500D01*
X155332873Y-40809500D01*
X155332864Y-40809500D01*
X152337129Y-40809500D01*
X152337123Y-40809501D01*
X152277516Y-40815908D01*
X152142671Y-40866202D01*
X152142664Y-40866206D01*
X152027455Y-40952452D01*
X152027452Y-40952455D01*
X151941206Y-41067664D01*
X151941202Y-41067671D01*
X151890908Y-41202517D01*
X151884501Y-41262116D01*
X151884501Y-41262123D01*
X151884500Y-41262135D01*
X145885499Y-41262135D01*
X145885499Y-41262130D01*
X145885498Y-41262122D01*
X145885497Y-41262116D01*
X145879091Y-41202517D01*
X145828796Y-41067669D01*
X145828795Y-41067668D01*
X145828793Y-41067664D01*
X145742547Y-40952455D01*
X145742544Y-40952452D01*
X145627335Y-40866206D01*
X145627328Y-40866202D01*
X145492482Y-40815908D01*
X145492483Y-40815908D01*
X145432883Y-40809501D01*
X145432881Y-40809500D01*
X145432873Y-40809500D01*
X145432864Y-40809500D01*
X142437129Y-40809500D01*
X142437123Y-40809501D01*
X142377514Y-40815909D01*
X142302832Y-40843763D01*
X142233140Y-40848747D01*
X142171817Y-40815261D01*
X142138333Y-40753937D01*
X142135500Y-40727581D01*
X142135500Y-38409986D01*
X159735001Y-38409986D01*
X159745494Y-38512697D01*
X159800641Y-38679119D01*
X159800643Y-38679124D01*
X159892684Y-38828345D01*
X160016654Y-38952315D01*
X160165875Y-39044356D01*
X160165880Y-39044358D01*
X160332302Y-39099505D01*
X160332309Y-39099506D01*
X160435019Y-39109999D01*
X160884999Y-39109999D01*
X161385000Y-39109999D01*
X161834972Y-39109999D01*
X161834986Y-39109998D01*
X161937697Y-39099505D01*
X162104119Y-39044358D01*
X162104124Y-39044356D01*
X162253345Y-38952315D01*
X162377315Y-38828345D01*
X162469356Y-38679124D01*
X162469358Y-38679119D01*
X162524505Y-38512697D01*
X162524506Y-38512690D01*
X162534999Y-38409986D01*
X162535000Y-38409973D01*
X162535000Y-38197500D01*
X161385000Y-38197500D01*
X161385000Y-39109999D01*
X160884999Y-39109999D01*
X160885000Y-39109998D01*
X160885000Y-38197500D01*
X159735001Y-38197500D01*
X159735001Y-38409986D01*
X142135500Y-38409986D01*
X142135500Y-37485013D01*
X159735000Y-37485013D01*
X159735000Y-37697500D01*
X160885000Y-37697500D01*
X161385000Y-37697500D01*
X162534999Y-37697500D01*
X162534999Y-37485028D01*
X162534998Y-37485013D01*
X162524505Y-37382302D01*
X162469358Y-37215880D01*
X162469356Y-37215875D01*
X162377315Y-37066654D01*
X162253345Y-36942684D01*
X162104124Y-36850643D01*
X162104119Y-36850641D01*
X161937697Y-36795494D01*
X161937690Y-36795493D01*
X161834986Y-36785000D01*
X161385000Y-36785000D01*
X161385000Y-37697500D01*
X160885000Y-37697500D01*
X160885000Y-36785000D01*
X160435028Y-36785000D01*
X160435012Y-36785001D01*
X160332302Y-36795494D01*
X160165880Y-36850641D01*
X160165875Y-36850643D01*
X160016654Y-36942684D01*
X159892684Y-37066654D01*
X159800643Y-37215875D01*
X159800641Y-37215880D01*
X159745494Y-37382302D01*
X159745493Y-37382309D01*
X159735000Y-37485013D01*
X142135500Y-37485013D01*
X142135500Y-34534986D01*
X159735001Y-34534986D01*
X159745494Y-34637697D01*
X159800641Y-34804119D01*
X159800643Y-34804124D01*
X159892684Y-34953345D01*
X160016654Y-35077315D01*
X160165875Y-35169356D01*
X160165880Y-35169358D01*
X160332302Y-35224505D01*
X160332309Y-35224506D01*
X160435019Y-35234999D01*
X160884999Y-35234999D01*
X161385000Y-35234999D01*
X161834972Y-35234999D01*
X161834986Y-35234998D01*
X161937697Y-35224505D01*
X162104119Y-35169358D01*
X162104124Y-35169356D01*
X162253345Y-35077315D01*
X162377315Y-34953345D01*
X162469356Y-34804124D01*
X162469358Y-34804119D01*
X162524505Y-34637697D01*
X162524506Y-34637690D01*
X162534999Y-34534986D01*
X162535000Y-34534973D01*
X162535000Y-34322500D01*
X161385000Y-34322500D01*
X161385000Y-35234999D01*
X160884999Y-35234999D01*
X160885000Y-35234998D01*
X160885000Y-34322500D01*
X159735001Y-34322500D01*
X159735001Y-34534986D01*
X142135500Y-34534986D01*
X142135500Y-33610013D01*
X159735000Y-33610013D01*
X159735000Y-33822500D01*
X160885000Y-33822500D01*
X161385000Y-33822500D01*
X162534999Y-33822500D01*
X162534999Y-33610028D01*
X162534998Y-33610013D01*
X162524505Y-33507302D01*
X162469358Y-33340880D01*
X162469356Y-33340875D01*
X162377315Y-33191654D01*
X162253345Y-33067684D01*
X162104124Y-32975643D01*
X162104119Y-32975641D01*
X161937697Y-32920494D01*
X161937690Y-32920493D01*
X161834986Y-32910000D01*
X161385000Y-32910000D01*
X161385000Y-33822500D01*
X160885000Y-33822500D01*
X160885000Y-32910000D01*
X160435028Y-32910000D01*
X160435012Y-32910001D01*
X160332302Y-32920494D01*
X160165880Y-32975641D01*
X160165875Y-32975643D01*
X160016654Y-33067684D01*
X159892684Y-33191654D01*
X159800643Y-33340875D01*
X159800641Y-33340880D01*
X159745494Y-33507302D01*
X159745493Y-33507309D01*
X159735000Y-33610013D01*
X142135500Y-33610013D01*
X142135500Y-32292418D01*
X142155185Y-32225379D01*
X142207989Y-32179624D01*
X142277147Y-32169680D01*
X142302833Y-32176236D01*
X142377517Y-32204091D01*
X142377516Y-32204091D01*
X142384444Y-32204835D01*
X142437127Y-32210500D01*
X145432872Y-32210499D01*
X145492483Y-32204091D01*
X145627331Y-32153796D01*
X145742546Y-32067546D01*
X145828796Y-31952331D01*
X145879091Y-31817483D01*
X145885500Y-31757873D01*
X145885499Y-26262135D01*
X151884500Y-26262135D01*
X151884500Y-31757870D01*
X151884501Y-31757876D01*
X151890908Y-31817483D01*
X151941202Y-31952328D01*
X151941206Y-31952335D01*
X152027452Y-32067544D01*
X152027455Y-32067547D01*
X152142664Y-32153793D01*
X152142671Y-32153797D01*
X152277517Y-32204091D01*
X152277516Y-32204091D01*
X152284444Y-32204835D01*
X152337127Y-32210500D01*
X155332872Y-32210499D01*
X155392483Y-32204091D01*
X155527331Y-32153796D01*
X155642546Y-32067546D01*
X155728796Y-31952331D01*
X155779091Y-31817483D01*
X155785500Y-31757873D01*
X155785500Y-30134500D01*
X155805185Y-30067461D01*
X155857989Y-30021706D01*
X155909500Y-30010500D01*
X156969218Y-30010500D01*
X157036257Y-30030185D01*
X157056898Y-30046818D01*
X158595360Y-31585281D01*
X158595361Y-31585282D01*
X158734718Y-31724639D01*
X158734719Y-31724640D01*
X158898579Y-31834128D01*
X158898592Y-31834135D01*
X159027333Y-31887461D01*
X159070244Y-31905235D01*
X159080664Y-31909551D01*
X159177312Y-31928775D01*
X159225635Y-31938387D01*
X159273958Y-31948000D01*
X159273959Y-31948000D01*
X159273960Y-31948000D01*
X159471040Y-31948000D01*
X159973539Y-31948000D01*
X160038633Y-31966460D01*
X160165666Y-32044814D01*
X160332203Y-32099999D01*
X160434991Y-32110500D01*
X161835008Y-32110499D01*
X161937797Y-32099999D01*
X162104334Y-32044814D01*
X162231366Y-31966460D01*
X162296461Y-31948000D01*
X165746042Y-31948000D01*
X165777066Y-31941828D01*
X165842688Y-31928775D01*
X165939336Y-31909551D01*
X165992665Y-31887461D01*
X166121414Y-31834132D01*
X166285282Y-31724639D01*
X166424639Y-31585282D01*
X166424640Y-31585279D01*
X166431706Y-31578214D01*
X166431708Y-31578210D01*
X166462139Y-31547781D01*
X166571631Y-31383914D01*
X166647051Y-31201836D01*
X166685500Y-31008540D01*
X166685500Y-30811460D01*
X166685500Y-30811457D01*
X166685499Y-30811455D01*
X166647052Y-30618171D01*
X166647051Y-30618164D01*
X166571631Y-30436086D01*
X166571629Y-30436083D01*
X166571627Y-30436079D01*
X166462139Y-30272219D01*
X166462136Y-30272215D01*
X166322784Y-30132863D01*
X166322780Y-30132860D01*
X166158920Y-30023372D01*
X166158910Y-30023367D01*
X165976836Y-29947949D01*
X165976828Y-29947947D01*
X165783543Y-29909500D01*
X165783540Y-29909500D01*
X165586460Y-29909500D01*
X165586458Y-29909500D01*
X165463203Y-29934017D01*
X165409914Y-29944617D01*
X165385724Y-29947000D01*
X162296462Y-29947000D01*
X162279902Y-29942303D01*
X162263734Y-29942603D01*
X162231364Y-29928538D01*
X162194402Y-29905739D01*
X162147678Y-29853790D01*
X162135500Y-29800201D01*
X162135500Y-27472230D01*
X162155185Y-27405191D01*
X162171819Y-27384549D01*
X162277712Y-27278656D01*
X162369814Y-27129334D01*
X162424999Y-26962797D01*
X162435500Y-26860009D01*
X162435499Y-25659992D01*
X162424999Y-25557203D01*
X162369814Y-25390666D01*
X162277712Y-25241344D01*
X162208488Y-25172120D01*
X162175003Y-25110797D01*
X162179987Y-25041105D01*
X162195852Y-25011552D01*
X162246858Y-24941349D01*
X162246863Y-24941341D01*
X162339755Y-24759031D01*
X162402990Y-24564417D01*
X162435000Y-24362317D01*
X162435000Y-24157682D01*
X162402990Y-23955582D01*
X162339755Y-23760968D01*
X162246859Y-23578650D01*
X162214474Y-23534077D01*
X162214474Y-23534076D01*
X161535000Y-24213551D01*
X161535000Y-24207339D01*
X161507741Y-24105606D01*
X161455080Y-24014394D01*
X161380606Y-23939920D01*
X161289394Y-23887259D01*
X161187661Y-23860000D01*
X161181446Y-23860000D01*
X161860922Y-23180524D01*
X161860921Y-23180523D01*
X161816359Y-23148147D01*
X161816350Y-23148141D01*
X161634031Y-23055244D01*
X161439417Y-22992009D01*
X161237317Y-22960000D01*
X161032683Y-22960000D01*
X160830582Y-22992009D01*
X160635968Y-23055244D01*
X160453644Y-23148143D01*
X160409077Y-23180523D01*
X160409077Y-23180524D01*
X161088554Y-23860000D01*
X161082339Y-23860000D01*
X160980606Y-23887259D01*
X160889394Y-23939920D01*
X160814920Y-24014394D01*
X160762259Y-24105606D01*
X160735000Y-24207339D01*
X160735000Y-24213553D01*
X160055524Y-23534077D01*
X160055523Y-23534077D01*
X160023143Y-23578644D01*
X159930244Y-23760968D01*
X159867009Y-23955582D01*
X159835000Y-24157682D01*
X159835000Y-24362317D01*
X159867009Y-24564417D01*
X159930244Y-24759031D01*
X160023142Y-24941352D01*
X160074147Y-25011555D01*
X160097627Y-25077361D01*
X160081802Y-25145415D01*
X160061511Y-25172121D01*
X159992287Y-25241345D01*
X159900187Y-25390663D01*
X159900186Y-25390666D01*
X159845001Y-25557203D01*
X159845001Y-25557204D01*
X159845000Y-25557204D01*
X159834500Y-25659983D01*
X159834500Y-26094216D01*
X159814815Y-26161255D01*
X159798181Y-26181897D01*
X158006899Y-27973181D01*
X157945576Y-28006666D01*
X157919218Y-28009500D01*
X155909499Y-28009500D01*
X155842460Y-27989815D01*
X155796705Y-27937011D01*
X155785499Y-27885500D01*
X155785499Y-26262129D01*
X155785498Y-26262123D01*
X155785497Y-26262116D01*
X155779091Y-26202517D01*
X155771400Y-26181897D01*
X155728797Y-26067671D01*
X155728793Y-26067664D01*
X155642547Y-25952455D01*
X155642544Y-25952452D01*
X155527335Y-25866206D01*
X155527328Y-25866202D01*
X155392482Y-25815908D01*
X155392483Y-25815908D01*
X155332883Y-25809501D01*
X155332881Y-25809500D01*
X155332873Y-25809500D01*
X155332864Y-25809500D01*
X152337129Y-25809500D01*
X152337123Y-25809501D01*
X152277516Y-25815908D01*
X152142671Y-25866202D01*
X152142664Y-25866206D01*
X152027455Y-25952452D01*
X152027452Y-25952455D01*
X151941206Y-26067664D01*
X151941202Y-26067671D01*
X151890908Y-26202517D01*
X151884501Y-26262116D01*
X151884501Y-26262123D01*
X151884500Y-26262135D01*
X145885499Y-26262135D01*
X145885499Y-26262128D01*
X145879091Y-26202517D01*
X145871400Y-26181897D01*
X145828797Y-26067671D01*
X145828793Y-26067664D01*
X145742547Y-25952455D01*
X145742544Y-25952452D01*
X145627335Y-25866206D01*
X145627328Y-25866202D01*
X145492482Y-25815908D01*
X145492483Y-25815908D01*
X145432883Y-25809501D01*
X145432881Y-25809500D01*
X145432873Y-25809500D01*
X145432864Y-25809500D01*
X142437129Y-25809500D01*
X142437123Y-25809501D01*
X142377516Y-25815908D01*
X142242671Y-25866202D01*
X142242664Y-25866206D01*
X142127455Y-25952452D01*
X142127452Y-25952455D01*
X142041206Y-26067664D01*
X142041202Y-26067671D01*
X141990908Y-26202517D01*
X141984501Y-26262116D01*
X141984501Y-26262123D01*
X141984500Y-26262135D01*
X141984500Y-28135500D01*
X141964815Y-28202539D01*
X141912011Y-28248294D01*
X141860500Y-28259500D01*
X141036457Y-28259500D01*
X140843170Y-28297947D01*
X140843160Y-28297950D01*
X140661092Y-28373364D01*
X140661079Y-28373371D01*
X140497218Y-28482860D01*
X140497214Y-28482863D01*
X140357863Y-28622214D01*
X140357860Y-28622218D01*
X140248371Y-28786079D01*
X140248364Y-28786092D01*
X140172950Y-28968160D01*
X140172947Y-28968170D01*
X140134500Y-29161456D01*
X140134500Y-29161459D01*
X140134500Y-51108541D01*
X140134500Y-51108543D01*
X140134499Y-51108543D01*
X140172947Y-51301829D01*
X140172950Y-51301839D01*
X140248364Y-51483907D01*
X140248371Y-51483920D01*
X140357860Y-51647781D01*
X140357863Y-51647785D01*
X140501537Y-51791459D01*
X140501559Y-51791479D01*
X142758181Y-54048101D01*
X142791666Y-54109424D01*
X142794500Y-54135782D01*
X142794500Y-54793176D01*
X142774815Y-54860215D01*
X142758181Y-54880857D01*
X142677687Y-54961350D01*
X142677683Y-54961355D01*
X142595318Y-55074722D01*
X142539988Y-55117388D01*
X142470375Y-55123367D01*
X142408580Y-55090762D01*
X142394682Y-55074722D01*
X142312316Y-54961355D01*
X142312312Y-54961350D01*
X142153649Y-54802687D01*
X142153644Y-54802683D01*
X141972128Y-54670805D01*
X141972127Y-54670804D01*
X141972125Y-54670803D01*
X141909692Y-54638992D01*
X141772206Y-54568938D01*
X141558805Y-54499599D01*
X141337194Y-54464500D01*
X141337189Y-54464500D01*
X141112811Y-54464500D01*
X141112806Y-54464500D01*
X140891194Y-54499599D01*
X140677793Y-54568938D01*
X140477871Y-54670805D01*
X140296355Y-54802683D01*
X140296350Y-54802687D01*
X140137687Y-54961350D01*
X140137683Y-54961355D01*
X140005805Y-55142871D01*
X139903938Y-55342793D01*
X139834599Y-55556194D01*
X139799500Y-55777805D01*
X139377639Y-55777805D01*
X139343712Y-27278657D01*
X139338890Y-23227931D01*
X139335791Y-20624648D01*
X139355396Y-20557585D01*
X139408145Y-20511767D01*
X139459791Y-20500500D01*
X169011000Y-20500500D01*
X169078039Y-20520185D01*
G37*
%TD.AperFunction*%
%TD*%
M02*
