%TF.GenerationSoftware,KiCad,Pcbnew,10.0.1*%
%TF.CreationDate,2026-06-17T20:16:31+09:00*%
%TF.ProjectId,AudioCase_3_power,41756469-6f43-4617-9365-5f335f706f77,rev?*%
%TF.SameCoordinates,Original*%
%TF.FileFunction,Copper,L2,Bot*%
%TF.FilePolarity,Positive*%
%FSLAX46Y46*%
G04 Gerber Fmt 4.6, Leading zero omitted, Abs format (unit mm)*
G04 Created by KiCad (PCBNEW 10.0.1) date 2026-06-17 20:16:31*
%MOMM*%
%LPD*%
G01*
G04 APERTURE LIST*
G04 Aperture macros list*
%AMRoundRect*
0 Rectangle with rounded corners*
0 $1 Rounding radius*
0 $2 $3 $4 $5 $6 $7 $8 $9 X,Y pos of 4 corners*
0 Add a 4 corners polygon primitive as box body*
4,1,4,$2,$3,$4,$5,$6,$7,$8,$9,$2,$3,0*
0 Add four circle primitives for the rounded corners*
1,1,$1+$1,$2,$3*
1,1,$1+$1,$4,$5*
1,1,$1+$1,$6,$7*
1,1,$1+$1,$8,$9*
0 Add four rect primitives between the rounded corners*
20,1,$1+$1,$2,$3,$4,$5,0*
20,1,$1+$1,$4,$5,$6,$7,0*
20,1,$1+$1,$6,$7,$8,$9,0*
20,1,$1+$1,$8,$9,$2,$3,0*%
G04 Aperture macros list end*
%TA.AperFunction,ComponentPad*%
%ADD10RoundRect,0.250000X-1.050000X-1.050000X1.050000X-1.050000X1.050000X1.050000X-1.050000X1.050000X0*%
%TD*%
%TA.AperFunction,ComponentPad*%
%ADD11C,2.600000*%
%TD*%
%TA.AperFunction,ComponentPad*%
%ADD12RoundRect,0.250000X0.550000X-0.550000X0.550000X0.550000X-0.550000X0.550000X-0.550000X-0.550000X0*%
%TD*%
%TA.AperFunction,ComponentPad*%
%ADD13C,1.600000*%
%TD*%
%TA.AperFunction,ComponentPad*%
%ADD14C,2.400000*%
%TD*%
%TA.AperFunction,ComponentPad*%
%ADD15RoundRect,0.250000X1.050000X1.050000X-1.050000X1.050000X-1.050000X-1.050000X1.050000X-1.050000X0*%
%TD*%
%TA.AperFunction,ComponentPad*%
%ADD16RoundRect,0.250000X-0.550000X-0.550000X0.550000X-0.550000X0.550000X0.550000X-0.550000X0.550000X0*%
%TD*%
%TA.AperFunction,ComponentPad*%
%ADD17C,1.850000*%
%TD*%
%TA.AperFunction,ViaPad*%
%ADD18C,0.600000*%
%TD*%
%TA.AperFunction,ViaPad*%
%ADD19C,1.000000*%
%TD*%
%TA.AperFunction,Conductor*%
%ADD20C,1.000000*%
%TD*%
G04 APERTURE END LIST*
D10*
%TO.P,J5,1,Pin_1_1*%
%TO.N,/Controll/AMP_V+_IN*%
X155135000Y-56510000D03*
D11*
%TO.P,J5,2,Pin_2_2*%
%TO.N,GND*%
X160215000Y-56510000D03*
%TO.P,J5,3,Pin_3_3*%
%TO.N,/Controll/AMP_V-_IN*%
X165295000Y-56510000D03*
%TD*%
D12*
%TO.P,C2,1*%
%TO.N,/Controll/AMP_V+_IN*%
X161135000Y-26260000D03*
D13*
%TO.P,C2,2*%
%TO.N,GND*%
X161135000Y-24260000D03*
%TD*%
D14*
%TO.P,F1,1*%
%TO.N,/Controll/+15_IN*%
X125135000Y-34410000D03*
%TO.P,F1,2*%
%TO.N,Net-(U1-+Vin)*%
X125135000Y-47110000D03*
%TD*%
D12*
%TO.P,C3,1*%
%TO.N,GND*%
X161385000Y-46715112D03*
D13*
%TO.P,C3,2*%
%TO.N,/Controll/AMP_V-_IN*%
X161385000Y-44715112D03*
%TD*%
D15*
%TO.P,J4,1,Pin_1_1*%
%TO.N,/Controll/PD_GND_IN*%
X136385000Y-27010000D03*
D11*
%TO.P,J4,2,Pin_2_2*%
%TO.N,/Controll/+15_IN*%
X131385000Y-27010000D03*
%TD*%
D16*
%TO.P,C1,1*%
%TO.N,Net-(U1-+Vin)*%
X132885000Y-40260000D03*
D13*
%TO.P,C1,2*%
%TO.N,/Controll/PD_GND_IN*%
X136385000Y-40260000D03*
%TD*%
D17*
%TO.P,U1,1,GND_1*%
%TO.N,/Controll/PD_GND_IN*%
X131065000Y-55890000D03*
%TO.P,U1,2,+Vin_2*%
%TO.N,Net-(U1-+Vin)*%
X133605000Y-55890000D03*
%TO.P,U1,3,Remote_On/Off_3*%
%TO.N,unconnected-(U1-Remote_On{slash}Off-Pad3)*%
X136145000Y-55890000D03*
%TO.P,U1,5,NC_5*%
%TO.N,unconnected-(U1-NC-Pad5)*%
X141225000Y-55890000D03*
%TO.P,U1,6,+Vout_6*%
%TO.N,Net-(U1-+Vout)*%
X143765000Y-55890000D03*
%TO.P,U1,7,Common_7*%
%TO.N,GND*%
X146305000Y-55890000D03*
%TO.P,U1,8,-Vout_8*%
%TO.N,Net-(U1--Vout)*%
X148845000Y-55890000D03*
%TD*%
D18*
%TO.N,/Controll/AMP_V+_IN*%
X165785000Y-30910000D03*
%TO.N,GND*%
X146085000Y-59710000D03*
X154835000Y-36260000D03*
X164835000Y-36310000D03*
X154285000Y-52960000D03*
D19*
X161135000Y-36010000D03*
D18*
X148785000Y-31760000D03*
X148585000Y-41460000D03*
%TD*%
%TO.N,/Controll/AMP_V+_IN*%
D20*
X165835000Y-36724214D02*
X165835000Y-35895786D01*
X167235000Y-55621572D02*
X167235000Y-48160000D01*
X165785000Y-30910000D02*
X161135000Y-26260000D01*
X165835000Y-35895786D02*
X165785000Y-35845786D01*
X167235000Y-48160000D02*
X165785000Y-46710000D01*
X165785000Y-36774214D02*
X165835000Y-36724214D01*
X165785000Y-35845786D02*
X165785000Y-30910000D01*
X167295000Y-55681572D02*
X167235000Y-55621572D01*
X167295000Y-57338428D02*
X167295000Y-55681572D01*
X167235000Y-57398428D02*
X167295000Y-57338428D01*
X158285000Y-59660000D02*
X167235000Y-59660000D01*
X165785000Y-46710000D02*
X165785000Y-36774214D01*
X167235000Y-59660000D02*
X167235000Y-57398428D01*
X155135000Y-56510000D02*
X155985000Y-56510000D01*
X155135000Y-56510000D02*
X158285000Y-59660000D01*
%TO.N,/Controll/PD_GND_IN*%
X136385000Y-27010000D02*
X136385000Y-40510000D01*
X136385000Y-40260000D02*
X136385000Y-43260000D01*
X136385000Y-43260000D02*
X131065000Y-48580000D01*
X131065000Y-48580000D02*
X131065000Y-55890000D01*
%TD*%
%TA.AperFunction,Conductor*%
%TO.N,GND*%
G36*
X168828039Y-20520185D02*
G01*
X168873794Y-20572989D01*
X168885000Y-20624500D01*
X168885000Y-61886000D01*
X168865315Y-61953039D01*
X168812511Y-61998794D01*
X168761000Y-62010000D01*
X139009000Y-62010000D01*
X138941961Y-61990315D01*
X138896206Y-61937511D01*
X138885000Y-61886000D01*
X138885000Y-55777805D01*
X139799500Y-55777805D01*
X139799500Y-56002194D01*
X139834599Y-56223805D01*
X139903938Y-56437206D01*
X139973649Y-56574019D01*
X140001159Y-56628011D01*
X140005805Y-56637128D01*
X140137683Y-56818644D01*
X140137687Y-56818649D01*
X140296350Y-56977312D01*
X140296355Y-56977316D01*
X140348069Y-57014888D01*
X140477875Y-57109197D01*
X140605264Y-57174105D01*
X140677793Y-57211061D01*
X140677795Y-57211061D01*
X140677798Y-57211063D01*
X140792184Y-57248229D01*
X140891194Y-57280400D01*
X141112806Y-57315500D01*
X141112811Y-57315500D01*
X141337194Y-57315500D01*
X141558805Y-57280400D01*
X141560313Y-57279910D01*
X141772202Y-57211063D01*
X141972125Y-57109197D01*
X142153651Y-56977311D01*
X142312311Y-56818651D01*
X142394682Y-56705275D01*
X142450011Y-56662611D01*
X142519624Y-56656632D01*
X142581420Y-56689237D01*
X142595313Y-56705271D01*
X142665818Y-56802312D01*
X142677689Y-56818651D01*
X142836350Y-56977312D01*
X142836355Y-56977316D01*
X142888069Y-57014888D01*
X143017875Y-57109197D01*
X143145264Y-57174105D01*
X143217793Y-57211061D01*
X143217795Y-57211061D01*
X143217798Y-57211063D01*
X143332184Y-57248229D01*
X143431194Y-57280400D01*
X143652806Y-57315500D01*
X143652811Y-57315500D01*
X143877194Y-57315500D01*
X144098805Y-57280400D01*
X144100313Y-57279910D01*
X144312202Y-57211063D01*
X144512125Y-57109197D01*
X144693651Y-56977311D01*
X144852311Y-56818651D01*
X144852313Y-56818647D01*
X144852316Y-56818645D01*
X144934991Y-56704852D01*
X144990320Y-56662186D01*
X145059934Y-56656207D01*
X145121729Y-56688812D01*
X145135627Y-56704852D01*
X145136033Y-56705410D01*
X145136034Y-56705411D01*
X145883274Y-55958171D01*
X145908963Y-56054044D01*
X145964916Y-56150956D01*
X146044044Y-56230084D01*
X146140956Y-56286037D01*
X146236828Y-56311725D01*
X145489587Y-57058964D01*
X145558136Y-57108768D01*
X145757989Y-57210599D01*
X145757992Y-57210600D01*
X145971310Y-57279910D01*
X146192851Y-57315000D01*
X146417149Y-57315000D01*
X146638689Y-57279910D01*
X146852007Y-57210600D01*
X146852010Y-57210599D01*
X147051862Y-57108769D01*
X147120410Y-57058964D01*
X147120411Y-57058964D01*
X146373171Y-56311725D01*
X146469044Y-56286037D01*
X146565956Y-56230084D01*
X146645084Y-56150956D01*
X146701037Y-56054044D01*
X146726725Y-55958172D01*
X147473964Y-56705411D01*
X147473965Y-56705410D01*
X147474372Y-56704851D01*
X147529702Y-56662185D01*
X147599315Y-56656206D01*
X147661110Y-56688812D01*
X147675008Y-56704851D01*
X147757683Y-56818644D01*
X147757687Y-56818649D01*
X147916350Y-56977312D01*
X147916355Y-56977316D01*
X147968069Y-57014888D01*
X148097875Y-57109197D01*
X148225264Y-57174105D01*
X148297793Y-57211061D01*
X148297795Y-57211061D01*
X148297798Y-57211063D01*
X148412184Y-57248229D01*
X148511194Y-57280400D01*
X148732806Y-57315500D01*
X148732811Y-57315500D01*
X148957194Y-57315500D01*
X149178805Y-57280400D01*
X149180313Y-57279910D01*
X149392202Y-57211063D01*
X149592125Y-57109197D01*
X149773651Y-56977311D01*
X149932311Y-56818651D01*
X150064197Y-56637125D01*
X150166063Y-56437202D01*
X150235400Y-56223805D01*
X150240493Y-56191650D01*
X150270500Y-56002194D01*
X150270500Y-55777805D01*
X150235400Y-55556194D01*
X150199320Y-55445153D01*
X150193186Y-55426275D01*
X150187892Y-55409983D01*
X153334500Y-55409983D01*
X153334500Y-57610001D01*
X153334501Y-57610018D01*
X153345000Y-57712796D01*
X153345001Y-57712799D01*
X153395962Y-57866587D01*
X153400186Y-57879334D01*
X153492288Y-58028656D01*
X153616344Y-58152712D01*
X153765666Y-58244814D01*
X153932203Y-58299999D01*
X154034991Y-58310500D01*
X155469216Y-58310499D01*
X155536255Y-58330184D01*
X155556897Y-58346818D01*
X157507860Y-60297781D01*
X157507861Y-60297782D01*
X157647215Y-60437136D01*
X157647219Y-60437140D01*
X157811079Y-60546628D01*
X157811092Y-60546635D01*
X157993160Y-60622049D01*
X157993165Y-60622051D01*
X157993169Y-60622051D01*
X157993170Y-60622052D01*
X158186456Y-60660500D01*
X158186459Y-60660500D01*
X167333543Y-60660500D01*
X167463582Y-60634632D01*
X167526835Y-60622051D01*
X167708914Y-60546632D01*
X167872782Y-60437139D01*
X168012139Y-60297782D01*
X168121632Y-60133914D01*
X168197051Y-59951835D01*
X168235500Y-59758541D01*
X168235500Y-57706956D01*
X168244939Y-57659503D01*
X168257051Y-57630263D01*
X168295500Y-57436969D01*
X168295500Y-55583031D01*
X168295500Y-55583028D01*
X168257051Y-55389738D01*
X168257050Y-55389735D01*
X168244939Y-55360495D01*
X168235500Y-55313042D01*
X168235500Y-48061458D01*
X168235499Y-48061457D01*
X168229121Y-48029389D01*
X168197052Y-47868165D01*
X168121632Y-47686086D01*
X168121631Y-47686085D01*
X168121628Y-47686079D01*
X168012140Y-47522219D01*
X168012137Y-47522215D01*
X166821819Y-46331897D01*
X166788334Y-46270574D01*
X166785500Y-46244216D01*
X166785500Y-37068602D01*
X166794942Y-37021143D01*
X166797050Y-37016053D01*
X166797052Y-37016049D01*
X166835500Y-36822754D01*
X166835500Y-36625673D01*
X166835500Y-35797245D01*
X166828521Y-35762162D01*
X166797052Y-35603951D01*
X166790699Y-35588614D01*
X166788341Y-35577787D01*
X166788976Y-35568872D01*
X166785500Y-35551397D01*
X166785500Y-30811456D01*
X166747052Y-30618170D01*
X166747051Y-30618169D01*
X166747051Y-30618165D01*
X166747049Y-30618160D01*
X166671635Y-30436092D01*
X166671628Y-30436079D01*
X166562139Y-30272218D01*
X166562136Y-30272214D01*
X166419686Y-30129764D01*
X166419655Y-30129735D01*
X162471818Y-26181898D01*
X162438333Y-26120575D01*
X162435499Y-26094217D01*
X162435499Y-25659998D01*
X162435498Y-25659981D01*
X162424999Y-25557203D01*
X162424998Y-25557200D01*
X162369814Y-25390666D01*
X162277712Y-25241344D01*
X162208488Y-25172120D01*
X162175003Y-25110797D01*
X162179987Y-25041105D01*
X162195852Y-25011552D01*
X162246858Y-24941349D01*
X162246863Y-24941341D01*
X162339755Y-24759031D01*
X162402990Y-24564417D01*
X162435000Y-24362317D01*
X162435000Y-24157682D01*
X162402990Y-23955582D01*
X162339755Y-23760968D01*
X162246859Y-23578650D01*
X162214474Y-23534077D01*
X162214474Y-23534076D01*
X161535000Y-24213551D01*
X161535000Y-24207339D01*
X161507741Y-24105606D01*
X161455080Y-24014394D01*
X161380606Y-23939920D01*
X161289394Y-23887259D01*
X161187661Y-23860000D01*
X161181446Y-23860000D01*
X161860922Y-23180524D01*
X161860921Y-23180523D01*
X161816359Y-23148147D01*
X161816350Y-23148141D01*
X161634031Y-23055244D01*
X161439417Y-22992009D01*
X161237317Y-22960000D01*
X161032683Y-22960000D01*
X160830582Y-22992009D01*
X160635968Y-23055244D01*
X160453644Y-23148143D01*
X160409077Y-23180523D01*
X160409077Y-23180524D01*
X161088554Y-23860000D01*
X161082339Y-23860000D01*
X160980606Y-23887259D01*
X160889394Y-23939920D01*
X160814920Y-24014394D01*
X160762259Y-24105606D01*
X160735000Y-24207339D01*
X160735000Y-24213553D01*
X160055524Y-23534077D01*
X160055523Y-23534077D01*
X160023143Y-23578644D01*
X159930244Y-23760968D01*
X159867009Y-23955582D01*
X159835000Y-24157682D01*
X159835000Y-24362317D01*
X159867009Y-24564417D01*
X159930244Y-24759031D01*
X160023142Y-24941352D01*
X160074147Y-25011555D01*
X160097627Y-25077361D01*
X160081802Y-25145415D01*
X160061511Y-25172121D01*
X159992287Y-25241345D01*
X159900187Y-25390663D01*
X159900186Y-25390666D01*
X159845001Y-25557203D01*
X159845001Y-25557204D01*
X159845000Y-25557204D01*
X159834500Y-25659983D01*
X159834500Y-26860001D01*
X159834501Y-26860018D01*
X159845000Y-26962796D01*
X159845001Y-26962799D01*
X159900185Y-27129331D01*
X159900186Y-27129334D01*
X159992288Y-27278656D01*
X160116344Y-27402712D01*
X160265666Y-27494814D01*
X160432203Y-27549999D01*
X160534991Y-27560500D01*
X160969217Y-27560499D01*
X161036256Y-27580183D01*
X161056898Y-27596818D01*
X164748181Y-31288101D01*
X164781666Y-31349424D01*
X164784500Y-31375782D01*
X164784500Y-35944327D01*
X164794446Y-35994327D01*
X164822712Y-36136433D01*
X164822949Y-36137621D01*
X164829264Y-36152867D01*
X164831618Y-36163592D01*
X164830994Y-36172545D01*
X164834500Y-36190172D01*
X164834500Y-36429825D01*
X164825062Y-36477276D01*
X164822948Y-36482378D01*
X164822706Y-36483596D01*
X164822705Y-36483595D01*
X164784500Y-36675668D01*
X164784500Y-36675673D01*
X164784500Y-46808541D01*
X164784500Y-46808543D01*
X164784499Y-46808543D01*
X164822947Y-47001829D01*
X164822950Y-47001839D01*
X164898364Y-47183907D01*
X164898371Y-47183920D01*
X165007859Y-47347780D01*
X165007860Y-47347781D01*
X165007861Y-47347782D01*
X165147218Y-47487139D01*
X165147219Y-47487139D01*
X165154286Y-47494206D01*
X165154285Y-47494206D01*
X165154289Y-47494209D01*
X166198181Y-48538101D01*
X166231666Y-48599424D01*
X166234500Y-48625782D01*
X166234500Y-54764727D01*
X166214815Y-54831766D01*
X166162011Y-54877521D01*
X166092853Y-54887465D01*
X166063048Y-54879288D01*
X165874996Y-54801395D01*
X165874994Y-54801394D01*
X165874993Y-54801394D01*
X165647014Y-54740307D01*
X165647013Y-54740306D01*
X165647010Y-54740306D01*
X165413020Y-54709501D01*
X165413017Y-54709500D01*
X165413011Y-54709500D01*
X165176989Y-54709500D01*
X165176983Y-54709500D01*
X165176979Y-54709501D01*
X164942989Y-54740306D01*
X164715006Y-54801394D01*
X164496954Y-54891714D01*
X164496943Y-54891719D01*
X164292545Y-55009730D01*
X164105302Y-55153406D01*
X164105295Y-55153412D01*
X163938412Y-55320295D01*
X163938406Y-55320302D01*
X163794730Y-55507545D01*
X163794727Y-55507549D01*
X163794727Y-55507550D01*
X163787014Y-55520909D01*
X163676719Y-55711943D01*
X163676714Y-55711954D01*
X163586394Y-55930006D01*
X163525306Y-56157989D01*
X163494501Y-56391979D01*
X163494500Y-56391995D01*
X163494500Y-56628004D01*
X163494501Y-56628020D01*
X163525306Y-56862010D01*
X163586394Y-57089993D01*
X163676714Y-57308045D01*
X163676719Y-57308056D01*
X163747677Y-57430957D01*
X163794727Y-57512450D01*
X163794729Y-57512453D01*
X163794730Y-57512454D01*
X163938406Y-57699697D01*
X163938412Y-57699704D01*
X164105295Y-57866587D01*
X164105302Y-57866593D01*
X164215306Y-57951001D01*
X164292550Y-58010273D01*
X164423918Y-58086118D01*
X164496943Y-58128280D01*
X164496948Y-58128282D01*
X164496951Y-58128284D01*
X164715007Y-58218606D01*
X164942986Y-58279693D01*
X165176989Y-58310500D01*
X165176996Y-58310500D01*
X165413004Y-58310500D01*
X165413011Y-58310500D01*
X165647014Y-58279693D01*
X165874993Y-58218606D01*
X166063047Y-58140710D01*
X166132516Y-58133242D01*
X166194996Y-58164517D01*
X166230648Y-58224606D01*
X166234500Y-58255272D01*
X166234500Y-58535500D01*
X166214815Y-58602539D01*
X166162011Y-58648294D01*
X166110500Y-58659500D01*
X158750783Y-58659500D01*
X158683744Y-58639815D01*
X158663102Y-58623181D01*
X158026926Y-57987005D01*
X156974797Y-56934877D01*
X156941312Y-56873554D01*
X156946008Y-56807877D01*
X156945284Y-56807658D01*
X156946252Y-56804464D01*
X156946296Y-56803862D01*
X156946906Y-56802312D01*
X156947048Y-56801841D01*
X156947051Y-56801835D01*
X156985500Y-56608541D01*
X156985500Y-56411459D01*
X156981632Y-56392014D01*
X158415000Y-56392014D01*
X158415000Y-56627985D01*
X158445799Y-56861914D01*
X158506870Y-57089837D01*
X158597160Y-57307819D01*
X158597165Y-57307828D01*
X158715144Y-57512171D01*
X158715145Y-57512172D01*
X158777721Y-57593723D01*
X159613958Y-56757487D01*
X159638978Y-56817890D01*
X159710112Y-56924351D01*
X159800649Y-57014888D01*
X159907110Y-57086022D01*
X159967511Y-57111041D01*
X159131275Y-57947277D01*
X159212827Y-58009854D01*
X159212828Y-58009855D01*
X159417171Y-58127834D01*
X159417180Y-58127839D01*
X159635163Y-58218129D01*
X159635161Y-58218129D01*
X159863085Y-58279200D01*
X160097014Y-58309999D01*
X160097029Y-58310000D01*
X160332971Y-58310000D01*
X160332985Y-58309999D01*
X160566914Y-58279200D01*
X160794837Y-58218129D01*
X161012819Y-58127839D01*
X161012828Y-58127834D01*
X161217181Y-58009850D01*
X161298723Y-57947279D01*
X161298723Y-57947276D01*
X160462487Y-57111041D01*
X160522890Y-57086022D01*
X160629351Y-57014888D01*
X160719888Y-56924351D01*
X160791022Y-56817890D01*
X160816041Y-56757488D01*
X161652276Y-57593723D01*
X161652279Y-57593723D01*
X161714850Y-57512181D01*
X161832834Y-57307828D01*
X161832839Y-57307819D01*
X161923129Y-57089837D01*
X161984200Y-56861914D01*
X162014999Y-56627985D01*
X162015000Y-56627971D01*
X162015000Y-56392028D01*
X162014999Y-56392014D01*
X161984200Y-56158085D01*
X161923129Y-55930162D01*
X161832839Y-55712180D01*
X161832834Y-55712171D01*
X161714855Y-55507828D01*
X161714854Y-55507827D01*
X161652277Y-55426275D01*
X160816041Y-56262511D01*
X160791022Y-56202110D01*
X160719888Y-56095649D01*
X160629351Y-56005112D01*
X160522890Y-55933978D01*
X160462488Y-55908958D01*
X161298723Y-55072721D01*
X161217172Y-55010145D01*
X161217171Y-55010144D01*
X161012828Y-54892165D01*
X161012819Y-54892160D01*
X160794836Y-54801870D01*
X160794838Y-54801870D01*
X160566914Y-54740799D01*
X160332985Y-54710000D01*
X160097014Y-54710000D01*
X159863085Y-54740799D01*
X159635162Y-54801870D01*
X159417180Y-54892160D01*
X159417171Y-54892165D01*
X159212828Y-55010144D01*
X159212818Y-55010150D01*
X159131275Y-55072720D01*
X159131275Y-55072721D01*
X159967512Y-55908958D01*
X159907110Y-55933978D01*
X159800649Y-56005112D01*
X159710112Y-56095649D01*
X159638978Y-56202110D01*
X159613958Y-56262511D01*
X158777721Y-55426275D01*
X158777720Y-55426275D01*
X158715150Y-55507818D01*
X158715144Y-55507828D01*
X158597165Y-55712171D01*
X158597160Y-55712180D01*
X158506870Y-55930162D01*
X158445799Y-56158085D01*
X158415000Y-56392014D01*
X156981632Y-56392014D01*
X156947051Y-56218165D01*
X156940628Y-56202660D01*
X156938264Y-56191650D01*
X156938919Y-56182808D01*
X156935499Y-56165611D01*
X156935499Y-55409998D01*
X156935498Y-55409981D01*
X156924999Y-55307203D01*
X156924998Y-55307200D01*
X156876114Y-55159678D01*
X156876113Y-55159676D01*
X156874037Y-55153412D01*
X156869814Y-55140666D01*
X156777712Y-54991344D01*
X156653656Y-54867288D01*
X156548924Y-54802689D01*
X156504336Y-54775187D01*
X156504331Y-54775185D01*
X156472771Y-54764727D01*
X156337797Y-54720001D01*
X156337795Y-54720000D01*
X156235010Y-54709500D01*
X154034998Y-54709500D01*
X154034981Y-54709501D01*
X153932203Y-54720000D01*
X153932200Y-54720001D01*
X153765668Y-54775185D01*
X153765663Y-54775187D01*
X153616342Y-54867289D01*
X153492289Y-54991342D01*
X153400187Y-55140663D01*
X153400185Y-55140668D01*
X153393886Y-55159678D01*
X153345001Y-55307203D01*
X153345001Y-55307204D01*
X153345000Y-55307204D01*
X153334500Y-55409983D01*
X150187892Y-55409983D01*
X150166063Y-55342798D01*
X150166061Y-55342795D01*
X150166061Y-55342793D01*
X150115000Y-55242581D01*
X150064197Y-55142875D01*
X149967767Y-55010150D01*
X149932316Y-54961355D01*
X149932312Y-54961350D01*
X149773649Y-54802687D01*
X149773644Y-54802683D01*
X149592128Y-54670805D01*
X149592127Y-54670804D01*
X149592125Y-54670803D01*
X149529692Y-54638992D01*
X149392206Y-54568938D01*
X149178805Y-54499599D01*
X148957194Y-54464500D01*
X148957189Y-54464500D01*
X148732811Y-54464500D01*
X148732806Y-54464500D01*
X148511194Y-54499599D01*
X148297793Y-54568938D01*
X148097871Y-54670805D01*
X147916355Y-54802683D01*
X147916350Y-54802687D01*
X147757687Y-54961350D01*
X147757683Y-54961355D01*
X147675008Y-55075148D01*
X147619678Y-55117814D01*
X147550065Y-55123793D01*
X147488270Y-55091187D01*
X147474372Y-55075148D01*
X147473965Y-55074588D01*
X147473964Y-55074587D01*
X146726725Y-55821827D01*
X146701037Y-55725956D01*
X146645084Y-55629044D01*
X146565956Y-55549916D01*
X146469044Y-55493963D01*
X146373172Y-55468274D01*
X147120411Y-54721034D01*
X147120410Y-54721032D01*
X147051866Y-54671233D01*
X146852010Y-54569400D01*
X146852007Y-54569399D01*
X146638689Y-54500089D01*
X146417149Y-54465000D01*
X146192851Y-54465000D01*
X145971310Y-54500089D01*
X145757992Y-54569399D01*
X145757989Y-54569400D01*
X145558140Y-54671229D01*
X145489588Y-54721034D01*
X146236828Y-55468274D01*
X146140956Y-55493963D01*
X146044044Y-55549916D01*
X145964916Y-55629044D01*
X145908963Y-55725956D01*
X145883274Y-55821827D01*
X145136034Y-55074588D01*
X145136033Y-55074588D01*
X145135627Y-55075148D01*
X145080296Y-55117813D01*
X145010683Y-55123792D01*
X144948888Y-55091186D01*
X144934991Y-55075147D01*
X144852316Y-54961355D01*
X144852312Y-54961350D01*
X144693649Y-54802687D01*
X144693644Y-54802683D01*
X144512128Y-54670805D01*
X144512127Y-54670804D01*
X144512125Y-54670803D01*
X144449692Y-54638992D01*
X144312206Y-54568938D01*
X144098805Y-54499599D01*
X143877194Y-54464500D01*
X143877189Y-54464500D01*
X143652811Y-54464500D01*
X143652806Y-54464500D01*
X143431194Y-54499599D01*
X143217793Y-54568938D01*
X143017871Y-54670805D01*
X142836355Y-54802683D01*
X142836350Y-54802687D01*
X142677687Y-54961350D01*
X142677683Y-54961355D01*
X142595318Y-55074722D01*
X142539988Y-55117388D01*
X142470375Y-55123367D01*
X142408580Y-55090762D01*
X142394682Y-55074722D01*
X142312316Y-54961355D01*
X142312312Y-54961350D01*
X142153649Y-54802687D01*
X142153644Y-54802683D01*
X141972128Y-54670805D01*
X141972127Y-54670804D01*
X141972125Y-54670803D01*
X141909692Y-54638992D01*
X141772206Y-54568938D01*
X141558805Y-54499599D01*
X141337194Y-54464500D01*
X141337189Y-54464500D01*
X141112811Y-54464500D01*
X141112806Y-54464500D01*
X140891194Y-54499599D01*
X140677793Y-54568938D01*
X140477871Y-54670805D01*
X140296355Y-54802683D01*
X140296350Y-54802687D01*
X140137687Y-54961350D01*
X140137683Y-54961355D01*
X140005805Y-55142871D01*
X139903938Y-55342793D01*
X139834599Y-55556194D01*
X139799500Y-55777805D01*
X138885000Y-55777805D01*
X138885000Y-54539272D01*
X138898090Y-54483818D01*
X139385000Y-53510000D01*
X139385000Y-44612760D01*
X160084500Y-44612760D01*
X160084500Y-44817463D01*
X160116522Y-45019646D01*
X160179781Y-45214335D01*
X160272713Y-45396722D01*
X160324087Y-45467433D01*
X160347567Y-45533239D01*
X160331742Y-45601293D01*
X160311451Y-45627998D01*
X160242684Y-45696766D01*
X160150643Y-45845987D01*
X160150641Y-45845992D01*
X160095494Y-46012414D01*
X160095493Y-46012421D01*
X160085000Y-46115125D01*
X160085000Y-46465112D01*
X161069314Y-46465112D01*
X161064920Y-46469506D01*
X161012259Y-46560718D01*
X160985000Y-46662451D01*
X160985000Y-46767773D01*
X161012259Y-46869506D01*
X161064920Y-46960718D01*
X161069314Y-46965112D01*
X160085001Y-46965112D01*
X160085001Y-47315098D01*
X160095494Y-47417809D01*
X160150641Y-47584231D01*
X160150643Y-47584236D01*
X160242684Y-47733457D01*
X160366654Y-47857427D01*
X160515875Y-47949468D01*
X160515880Y-47949470D01*
X160682302Y-48004617D01*
X160682309Y-48004618D01*
X160785019Y-48015111D01*
X161134999Y-48015111D01*
X161135000Y-48015110D01*
X161135000Y-47030798D01*
X161139394Y-47035192D01*
X161230606Y-47087853D01*
X161332339Y-47115112D01*
X161437661Y-47115112D01*
X161539394Y-47087853D01*
X161630606Y-47035192D01*
X161635000Y-47030798D01*
X161635000Y-48015111D01*
X161984972Y-48015111D01*
X161984986Y-48015110D01*
X162087697Y-48004617D01*
X162254119Y-47949470D01*
X162254124Y-47949468D01*
X162403345Y-47857427D01*
X162527315Y-47733457D01*
X162619356Y-47584236D01*
X162619358Y-47584231D01*
X162674505Y-47417809D01*
X162674506Y-47417802D01*
X162684999Y-47315098D01*
X162685000Y-47315085D01*
X162685000Y-46965112D01*
X161700686Y-46965112D01*
X161705080Y-46960718D01*
X161757741Y-46869506D01*
X161785000Y-46767773D01*
X161785000Y-46662451D01*
X161757741Y-46560718D01*
X161705080Y-46469506D01*
X161700686Y-46465112D01*
X162684999Y-46465112D01*
X162684999Y-46115140D01*
X162684998Y-46115125D01*
X162674505Y-46012414D01*
X162619358Y-45845992D01*
X162619356Y-45845987D01*
X162527315Y-45696766D01*
X162458549Y-45628000D01*
X162425064Y-45566677D01*
X162430048Y-45496985D01*
X162445909Y-45467437D01*
X162497287Y-45396722D01*
X162590220Y-45214331D01*
X162653477Y-45019646D01*
X162685500Y-44817464D01*
X162685500Y-44612760D01*
X162653477Y-44410578D01*
X162590220Y-44215893D01*
X162590218Y-44215890D01*
X162590218Y-44215888D01*
X162556503Y-44149719D01*
X162497287Y-44033502D01*
X162489556Y-44022861D01*
X162376971Y-43867898D01*
X162232213Y-43723140D01*
X162066613Y-43602827D01*
X162066612Y-43602826D01*
X162066610Y-43602825D01*
X162009653Y-43573803D01*
X161884223Y-43509893D01*
X161689534Y-43446634D01*
X161514995Y-43418990D01*
X161487352Y-43414612D01*
X161282648Y-43414612D01*
X161258329Y-43418463D01*
X161080465Y-43446634D01*
X160885776Y-43509893D01*
X160703386Y-43602827D01*
X160537786Y-43723140D01*
X160393028Y-43867898D01*
X160272715Y-44033498D01*
X160179781Y-44215888D01*
X160116522Y-44410577D01*
X160084500Y-44612760D01*
X139385000Y-44612760D01*
X139385000Y-20624500D01*
X139404685Y-20557461D01*
X139457489Y-20511706D01*
X139509000Y-20500500D01*
X168761000Y-20500500D01*
X168828039Y-20520185D01*
G37*
%TD.AperFunction*%
%TD*%
M02*
