%TF.GenerationSoftware,KiCad,Pcbnew,10.0.1*%
%TF.CreationDate,2026-07-31T14:22:44+09:00*%
%TF.ProjectId,AudioCase_4_amp,41756469-6f43-4617-9365-5f345f616d70,rev?*%
%TF.SameCoordinates,Original*%
%TF.FileFunction,Legend,Bot*%
%TF.FilePolarity,Positive*%
%FSLAX46Y46*%
G04 Gerber Fmt 4.6, Leading zero omitted, Abs format (unit mm)*
G04 Created by KiCad (PCBNEW 10.0.1) date 2026-07-31 14:22:44*
%MOMM*%
%LPD*%
G01*
G04 APERTURE LIST*
G04 Aperture macros list*
%AMRoundRect*
0 Rectangle with rounded corners*
0 $1 Rounding radius*
0 $2 $3 $4 $5 $6 $7 $8 $9 X,Y pos of 4 corners*
0 Add a 4 corners polygon primitive as box body*
4,1,4,$2,$3,$4,$5,$6,$7,$8,$9,$2,$3,0*
0 Add four circle primitives for the rounded corners*
1,1,$1+$1,$2,$3*
1,1,$1+$1,$4,$5*
1,1,$1+$1,$6,$7*
1,1,$1+$1,$8,$9*
0 Add four rect primitives between the rounded corners*
20,1,$1+$1,$2,$3,$4,$5,0*
20,1,$1+$1,$4,$5,$6,$7,0*
20,1,$1+$1,$6,$7,$8,$9,0*
20,1,$1+$1,$8,$9,$2,$3,0*%
G04 Aperture macros list end*
%ADD10C,0.150000*%
%ADD11C,0.120000*%
%ADD12RoundRect,0.250000X0.550000X-0.550000X0.550000X0.550000X-0.550000X0.550000X-0.550000X-0.550000X0*%
%ADD13C,1.600000*%
%ADD14C,3.200000*%
%ADD15RoundRect,0.250000X1.050000X-1.050000X1.050000X1.050000X-1.050000X1.050000X-1.050000X-1.050000X0*%
%ADD16C,2.600000*%
%ADD17RoundRect,0.250000X-0.550000X-0.550000X0.550000X-0.550000X0.550000X0.550000X-0.550000X0.550000X0*%
%ADD18RoundRect,0.250001X-0.949999X-0.949999X0.949999X-0.949999X0.949999X0.949999X-0.949999X0.949999X0*%
%ADD19C,2.400000*%
%ADD20RoundRect,0.250000X-0.550000X0.550000X-0.550000X-0.550000X0.550000X-0.550000X0.550000X0.550000X0*%
%ADD21RoundRect,0.250000X1.050000X1.050000X-1.050000X1.050000X-1.050000X-1.050000X1.050000X-1.050000X0*%
%ADD22RoundRect,0.250000X-1.050000X1.050000X-1.050000X-1.050000X1.050000X-1.050000X1.050000X1.050000X0*%
%ADD23RoundRect,0.250000X-0.400000X-0.625000X0.400000X-0.625000X0.400000X0.625000X-0.400000X0.625000X0*%
%ADD24RoundRect,0.250000X0.412500X0.650000X-0.412500X0.650000X-0.412500X-0.650000X0.412500X-0.650000X0*%
%ADD25RoundRect,0.250000X0.400000X0.625000X-0.400000X0.625000X-0.400000X-0.625000X0.400000X-0.625000X0*%
%ADD26RoundRect,0.250000X0.625000X-0.400000X0.625000X0.400000X-0.625000X0.400000X-0.625000X-0.400000X0*%
%ADD27RoundRect,0.250000X0.650000X-0.412500X0.650000X0.412500X-0.650000X0.412500X-0.650000X-0.412500X0*%
G04 APERTURE END LIST*
D10*
X135582857Y-38008076D02*
X135916190Y-37531885D01*
X136154285Y-38008076D02*
X136154285Y-37008076D01*
X136154285Y-37008076D02*
X135773333Y-37008076D01*
X135773333Y-37008076D02*
X135678095Y-37055695D01*
X135678095Y-37055695D02*
X135630476Y-37103314D01*
X135630476Y-37103314D02*
X135582857Y-37198552D01*
X135582857Y-37198552D02*
X135582857Y-37341409D01*
X135582857Y-37341409D02*
X135630476Y-37436647D01*
X135630476Y-37436647D02*
X135678095Y-37484266D01*
X135678095Y-37484266D02*
X135773333Y-37531885D01*
X135773333Y-37531885D02*
X136154285Y-37531885D01*
X135201904Y-37103314D02*
X135154285Y-37055695D01*
X135154285Y-37055695D02*
X135059047Y-37008076D01*
X135059047Y-37008076D02*
X134820952Y-37008076D01*
X134820952Y-37008076D02*
X134725714Y-37055695D01*
X134725714Y-37055695D02*
X134678095Y-37103314D01*
X134678095Y-37103314D02*
X134630476Y-37198552D01*
X134630476Y-37198552D02*
X134630476Y-37293790D01*
X134630476Y-37293790D02*
X134678095Y-37436647D01*
X134678095Y-37436647D02*
X135249523Y-38008076D01*
X135249523Y-38008076D02*
X134630476Y-38008076D01*
X134154285Y-38008076D02*
X133963809Y-38008076D01*
X133963809Y-38008076D02*
X133868571Y-37960457D01*
X133868571Y-37960457D02*
X133820952Y-37912837D01*
X133820952Y-37912837D02*
X133725714Y-37769980D01*
X133725714Y-37769980D02*
X133678095Y-37579504D01*
X133678095Y-37579504D02*
X133678095Y-37198552D01*
X133678095Y-37198552D02*
X133725714Y-37103314D01*
X133725714Y-37103314D02*
X133773333Y-37055695D01*
X133773333Y-37055695D02*
X133868571Y-37008076D01*
X133868571Y-37008076D02*
X134059047Y-37008076D01*
X134059047Y-37008076D02*
X134154285Y-37055695D01*
X134154285Y-37055695D02*
X134201904Y-37103314D01*
X134201904Y-37103314D02*
X134249523Y-37198552D01*
X134249523Y-37198552D02*
X134249523Y-37436647D01*
X134249523Y-37436647D02*
X134201904Y-37531885D01*
X134201904Y-37531885D02*
X134154285Y-37579504D01*
X134154285Y-37579504D02*
X134059047Y-37627123D01*
X134059047Y-37627123D02*
X133868571Y-37627123D01*
X133868571Y-37627123D02*
X133773333Y-37579504D01*
X133773333Y-37579504D02*
X133725714Y-37531885D01*
X133725714Y-37531885D02*
X133678095Y-37436647D01*
X135232857Y-44632837D02*
X135280476Y-44680457D01*
X135280476Y-44680457D02*
X135423333Y-44728076D01*
X135423333Y-44728076D02*
X135518571Y-44728076D01*
X135518571Y-44728076D02*
X135661428Y-44680457D01*
X135661428Y-44680457D02*
X135756666Y-44585218D01*
X135756666Y-44585218D02*
X135804285Y-44489980D01*
X135804285Y-44489980D02*
X135851904Y-44299504D01*
X135851904Y-44299504D02*
X135851904Y-44156647D01*
X135851904Y-44156647D02*
X135804285Y-43966171D01*
X135804285Y-43966171D02*
X135756666Y-43870933D01*
X135756666Y-43870933D02*
X135661428Y-43775695D01*
X135661428Y-43775695D02*
X135518571Y-43728076D01*
X135518571Y-43728076D02*
X135423333Y-43728076D01*
X135423333Y-43728076D02*
X135280476Y-43775695D01*
X135280476Y-43775695D02*
X135232857Y-43823314D01*
X134851904Y-43823314D02*
X134804285Y-43775695D01*
X134804285Y-43775695D02*
X134709047Y-43728076D01*
X134709047Y-43728076D02*
X134470952Y-43728076D01*
X134470952Y-43728076D02*
X134375714Y-43775695D01*
X134375714Y-43775695D02*
X134328095Y-43823314D01*
X134328095Y-43823314D02*
X134280476Y-43918552D01*
X134280476Y-43918552D02*
X134280476Y-44013790D01*
X134280476Y-44013790D02*
X134328095Y-44156647D01*
X134328095Y-44156647D02*
X134899523Y-44728076D01*
X134899523Y-44728076D02*
X134280476Y-44728076D01*
X133804285Y-44728076D02*
X133613809Y-44728076D01*
X133613809Y-44728076D02*
X133518571Y-44680457D01*
X133518571Y-44680457D02*
X133470952Y-44632837D01*
X133470952Y-44632837D02*
X133375714Y-44489980D01*
X133375714Y-44489980D02*
X133328095Y-44299504D01*
X133328095Y-44299504D02*
X133328095Y-43918552D01*
X133328095Y-43918552D02*
X133375714Y-43823314D01*
X133375714Y-43823314D02*
X133423333Y-43775695D01*
X133423333Y-43775695D02*
X133518571Y-43728076D01*
X133518571Y-43728076D02*
X133709047Y-43728076D01*
X133709047Y-43728076D02*
X133804285Y-43775695D01*
X133804285Y-43775695D02*
X133851904Y-43823314D01*
X133851904Y-43823314D02*
X133899523Y-43918552D01*
X133899523Y-43918552D02*
X133899523Y-44156647D01*
X133899523Y-44156647D02*
X133851904Y-44251885D01*
X133851904Y-44251885D02*
X133804285Y-44299504D01*
X133804285Y-44299504D02*
X133709047Y-44347123D01*
X133709047Y-44347123D02*
X133518571Y-44347123D01*
X133518571Y-44347123D02*
X133423333Y-44299504D01*
X133423333Y-44299504D02*
X133375714Y-44251885D01*
X133375714Y-44251885D02*
X133328095Y-44156647D01*
X140182857Y-53748076D02*
X140516190Y-53271885D01*
X140754285Y-53748076D02*
X140754285Y-52748076D01*
X140754285Y-52748076D02*
X140373333Y-52748076D01*
X140373333Y-52748076D02*
X140278095Y-52795695D01*
X140278095Y-52795695D02*
X140230476Y-52843314D01*
X140230476Y-52843314D02*
X140182857Y-52938552D01*
X140182857Y-52938552D02*
X140182857Y-53081409D01*
X140182857Y-53081409D02*
X140230476Y-53176647D01*
X140230476Y-53176647D02*
X140278095Y-53224266D01*
X140278095Y-53224266D02*
X140373333Y-53271885D01*
X140373333Y-53271885D02*
X140754285Y-53271885D01*
X139801904Y-52843314D02*
X139754285Y-52795695D01*
X139754285Y-52795695D02*
X139659047Y-52748076D01*
X139659047Y-52748076D02*
X139420952Y-52748076D01*
X139420952Y-52748076D02*
X139325714Y-52795695D01*
X139325714Y-52795695D02*
X139278095Y-52843314D01*
X139278095Y-52843314D02*
X139230476Y-52938552D01*
X139230476Y-52938552D02*
X139230476Y-53033790D01*
X139230476Y-53033790D02*
X139278095Y-53176647D01*
X139278095Y-53176647D02*
X139849523Y-53748076D01*
X139849523Y-53748076D02*
X139230476Y-53748076D01*
X138659047Y-53176647D02*
X138754285Y-53129028D01*
X138754285Y-53129028D02*
X138801904Y-53081409D01*
X138801904Y-53081409D02*
X138849523Y-52986171D01*
X138849523Y-52986171D02*
X138849523Y-52938552D01*
X138849523Y-52938552D02*
X138801904Y-52843314D01*
X138801904Y-52843314D02*
X138754285Y-52795695D01*
X138754285Y-52795695D02*
X138659047Y-52748076D01*
X138659047Y-52748076D02*
X138468571Y-52748076D01*
X138468571Y-52748076D02*
X138373333Y-52795695D01*
X138373333Y-52795695D02*
X138325714Y-52843314D01*
X138325714Y-52843314D02*
X138278095Y-52938552D01*
X138278095Y-52938552D02*
X138278095Y-52986171D01*
X138278095Y-52986171D02*
X138325714Y-53081409D01*
X138325714Y-53081409D02*
X138373333Y-53129028D01*
X138373333Y-53129028D02*
X138468571Y-53176647D01*
X138468571Y-53176647D02*
X138659047Y-53176647D01*
X138659047Y-53176647D02*
X138754285Y-53224266D01*
X138754285Y-53224266D02*
X138801904Y-53271885D01*
X138801904Y-53271885D02*
X138849523Y-53367123D01*
X138849523Y-53367123D02*
X138849523Y-53557599D01*
X138849523Y-53557599D02*
X138801904Y-53652837D01*
X138801904Y-53652837D02*
X138754285Y-53700457D01*
X138754285Y-53700457D02*
X138659047Y-53748076D01*
X138659047Y-53748076D02*
X138468571Y-53748076D01*
X138468571Y-53748076D02*
X138373333Y-53700457D01*
X138373333Y-53700457D02*
X138325714Y-53652837D01*
X138325714Y-53652837D02*
X138278095Y-53557599D01*
X138278095Y-53557599D02*
X138278095Y-53367123D01*
X138278095Y-53367123D02*
X138325714Y-53271885D01*
X138325714Y-53271885D02*
X138373333Y-53224266D01*
X138373333Y-53224266D02*
X138468571Y-53176647D01*
X124782857Y-46048076D02*
X125116190Y-45571885D01*
X125354285Y-46048076D02*
X125354285Y-45048076D01*
X125354285Y-45048076D02*
X124973333Y-45048076D01*
X124973333Y-45048076D02*
X124878095Y-45095695D01*
X124878095Y-45095695D02*
X124830476Y-45143314D01*
X124830476Y-45143314D02*
X124782857Y-45238552D01*
X124782857Y-45238552D02*
X124782857Y-45381409D01*
X124782857Y-45381409D02*
X124830476Y-45476647D01*
X124830476Y-45476647D02*
X124878095Y-45524266D01*
X124878095Y-45524266D02*
X124973333Y-45571885D01*
X124973333Y-45571885D02*
X125354285Y-45571885D01*
X124401904Y-45143314D02*
X124354285Y-45095695D01*
X124354285Y-45095695D02*
X124259047Y-45048076D01*
X124259047Y-45048076D02*
X124020952Y-45048076D01*
X124020952Y-45048076D02*
X123925714Y-45095695D01*
X123925714Y-45095695D02*
X123878095Y-45143314D01*
X123878095Y-45143314D02*
X123830476Y-45238552D01*
X123830476Y-45238552D02*
X123830476Y-45333790D01*
X123830476Y-45333790D02*
X123878095Y-45476647D01*
X123878095Y-45476647D02*
X124449523Y-46048076D01*
X124449523Y-46048076D02*
X123830476Y-46048076D01*
X122973333Y-45048076D02*
X123163809Y-45048076D01*
X123163809Y-45048076D02*
X123259047Y-45095695D01*
X123259047Y-45095695D02*
X123306666Y-45143314D01*
X123306666Y-45143314D02*
X123401904Y-45286171D01*
X123401904Y-45286171D02*
X123449523Y-45476647D01*
X123449523Y-45476647D02*
X123449523Y-45857599D01*
X123449523Y-45857599D02*
X123401904Y-45952837D01*
X123401904Y-45952837D02*
X123354285Y-46000457D01*
X123354285Y-46000457D02*
X123259047Y-46048076D01*
X123259047Y-46048076D02*
X123068571Y-46048076D01*
X123068571Y-46048076D02*
X122973333Y-46000457D01*
X122973333Y-46000457D02*
X122925714Y-45952837D01*
X122925714Y-45952837D02*
X122878095Y-45857599D01*
X122878095Y-45857599D02*
X122878095Y-45619504D01*
X122878095Y-45619504D02*
X122925714Y-45524266D01*
X122925714Y-45524266D02*
X122973333Y-45476647D01*
X122973333Y-45476647D02*
X123068571Y-45429028D01*
X123068571Y-45429028D02*
X123259047Y-45429028D01*
X123259047Y-45429028D02*
X123354285Y-45476647D01*
X123354285Y-45476647D02*
X123401904Y-45524266D01*
X123401904Y-45524266D02*
X123449523Y-45619504D01*
X152374819Y-47430399D02*
X151898628Y-47097066D01*
X152374819Y-46858971D02*
X151374819Y-46858971D01*
X151374819Y-46858971D02*
X151374819Y-47239923D01*
X151374819Y-47239923D02*
X151422438Y-47335161D01*
X151422438Y-47335161D02*
X151470057Y-47382780D01*
X151470057Y-47382780D02*
X151565295Y-47430399D01*
X151565295Y-47430399D02*
X151708152Y-47430399D01*
X151708152Y-47430399D02*
X151803390Y-47382780D01*
X151803390Y-47382780D02*
X151851009Y-47335161D01*
X151851009Y-47335161D02*
X151898628Y-47239923D01*
X151898628Y-47239923D02*
X151898628Y-46858971D01*
X151374819Y-47763733D02*
X151374819Y-48382780D01*
X151374819Y-48382780D02*
X151755771Y-48049447D01*
X151755771Y-48049447D02*
X151755771Y-48192304D01*
X151755771Y-48192304D02*
X151803390Y-48287542D01*
X151803390Y-48287542D02*
X151851009Y-48335161D01*
X151851009Y-48335161D02*
X151946247Y-48382780D01*
X151946247Y-48382780D02*
X152184342Y-48382780D01*
X152184342Y-48382780D02*
X152279580Y-48335161D01*
X152279580Y-48335161D02*
X152327200Y-48287542D01*
X152327200Y-48287542D02*
X152374819Y-48192304D01*
X152374819Y-48192304D02*
X152374819Y-47906590D01*
X152374819Y-47906590D02*
X152327200Y-47811352D01*
X152327200Y-47811352D02*
X152279580Y-47763733D01*
X151374819Y-49001828D02*
X151374819Y-49097066D01*
X151374819Y-49097066D02*
X151422438Y-49192304D01*
X151422438Y-49192304D02*
X151470057Y-49239923D01*
X151470057Y-49239923D02*
X151565295Y-49287542D01*
X151565295Y-49287542D02*
X151755771Y-49335161D01*
X151755771Y-49335161D02*
X151993866Y-49335161D01*
X151993866Y-49335161D02*
X152184342Y-49287542D01*
X152184342Y-49287542D02*
X152279580Y-49239923D01*
X152279580Y-49239923D02*
X152327200Y-49192304D01*
X152327200Y-49192304D02*
X152374819Y-49097066D01*
X152374819Y-49097066D02*
X152374819Y-49001828D01*
X152374819Y-49001828D02*
X152327200Y-48906590D01*
X152327200Y-48906590D02*
X152279580Y-48858971D01*
X152279580Y-48858971D02*
X152184342Y-48811352D01*
X152184342Y-48811352D02*
X151993866Y-48763733D01*
X151993866Y-48763733D02*
X151755771Y-48763733D01*
X151755771Y-48763733D02*
X151565295Y-48811352D01*
X151565295Y-48811352D02*
X151470057Y-48858971D01*
X151470057Y-48858971D02*
X151422438Y-48906590D01*
X151422438Y-48906590D02*
X151374819Y-49001828D01*
X146149580Y-39730399D02*
X146197200Y-39682780D01*
X146197200Y-39682780D02*
X146244819Y-39539923D01*
X146244819Y-39539923D02*
X146244819Y-39444685D01*
X146244819Y-39444685D02*
X146197200Y-39301828D01*
X146197200Y-39301828D02*
X146101961Y-39206590D01*
X146101961Y-39206590D02*
X146006723Y-39158971D01*
X146006723Y-39158971D02*
X145816247Y-39111352D01*
X145816247Y-39111352D02*
X145673390Y-39111352D01*
X145673390Y-39111352D02*
X145482914Y-39158971D01*
X145482914Y-39158971D02*
X145387676Y-39206590D01*
X145387676Y-39206590D02*
X145292438Y-39301828D01*
X145292438Y-39301828D02*
X145244819Y-39444685D01*
X145244819Y-39444685D02*
X145244819Y-39539923D01*
X145244819Y-39539923D02*
X145292438Y-39682780D01*
X145292438Y-39682780D02*
X145340057Y-39730399D01*
X145340057Y-40111352D02*
X145292438Y-40158971D01*
X145292438Y-40158971D02*
X145244819Y-40254209D01*
X145244819Y-40254209D02*
X145244819Y-40492304D01*
X145244819Y-40492304D02*
X145292438Y-40587542D01*
X145292438Y-40587542D02*
X145340057Y-40635161D01*
X145340057Y-40635161D02*
X145435295Y-40682780D01*
X145435295Y-40682780D02*
X145530533Y-40682780D01*
X145530533Y-40682780D02*
X145673390Y-40635161D01*
X145673390Y-40635161D02*
X146244819Y-40063733D01*
X146244819Y-40063733D02*
X146244819Y-40682780D01*
X145673390Y-41254209D02*
X145625771Y-41158971D01*
X145625771Y-41158971D02*
X145578152Y-41111352D01*
X145578152Y-41111352D02*
X145482914Y-41063733D01*
X145482914Y-41063733D02*
X145435295Y-41063733D01*
X145435295Y-41063733D02*
X145340057Y-41111352D01*
X145340057Y-41111352D02*
X145292438Y-41158971D01*
X145292438Y-41158971D02*
X145244819Y-41254209D01*
X145244819Y-41254209D02*
X145244819Y-41444685D01*
X145244819Y-41444685D02*
X145292438Y-41539923D01*
X145292438Y-41539923D02*
X145340057Y-41587542D01*
X145340057Y-41587542D02*
X145435295Y-41635161D01*
X145435295Y-41635161D02*
X145482914Y-41635161D01*
X145482914Y-41635161D02*
X145578152Y-41587542D01*
X145578152Y-41587542D02*
X145625771Y-41539923D01*
X145625771Y-41539923D02*
X145673390Y-41444685D01*
X145673390Y-41444685D02*
X145673390Y-41254209D01*
X145673390Y-41254209D02*
X145721009Y-41158971D01*
X145721009Y-41158971D02*
X145768628Y-41111352D01*
X145768628Y-41111352D02*
X145863866Y-41063733D01*
X145863866Y-41063733D02*
X146054342Y-41063733D01*
X146054342Y-41063733D02*
X146149580Y-41111352D01*
X146149580Y-41111352D02*
X146197200Y-41158971D01*
X146197200Y-41158971D02*
X146244819Y-41254209D01*
X146244819Y-41254209D02*
X146244819Y-41444685D01*
X146244819Y-41444685D02*
X146197200Y-41539923D01*
X146197200Y-41539923D02*
X146149580Y-41587542D01*
X146149580Y-41587542D02*
X146054342Y-41635161D01*
X146054342Y-41635161D02*
X145863866Y-41635161D01*
X145863866Y-41635161D02*
X145768628Y-41587542D01*
X145768628Y-41587542D02*
X145721009Y-41539923D01*
X145721009Y-41539923D02*
X145673390Y-41444685D01*
X152374819Y-41180399D02*
X151898628Y-40847066D01*
X152374819Y-40608971D02*
X151374819Y-40608971D01*
X151374819Y-40608971D02*
X151374819Y-40989923D01*
X151374819Y-40989923D02*
X151422438Y-41085161D01*
X151422438Y-41085161D02*
X151470057Y-41132780D01*
X151470057Y-41132780D02*
X151565295Y-41180399D01*
X151565295Y-41180399D02*
X151708152Y-41180399D01*
X151708152Y-41180399D02*
X151803390Y-41132780D01*
X151803390Y-41132780D02*
X151851009Y-41085161D01*
X151851009Y-41085161D02*
X151898628Y-40989923D01*
X151898628Y-40989923D02*
X151898628Y-40608971D01*
X151374819Y-41513733D02*
X151374819Y-42132780D01*
X151374819Y-42132780D02*
X151755771Y-41799447D01*
X151755771Y-41799447D02*
X151755771Y-41942304D01*
X151755771Y-41942304D02*
X151803390Y-42037542D01*
X151803390Y-42037542D02*
X151851009Y-42085161D01*
X151851009Y-42085161D02*
X151946247Y-42132780D01*
X151946247Y-42132780D02*
X152184342Y-42132780D01*
X152184342Y-42132780D02*
X152279580Y-42085161D01*
X152279580Y-42085161D02*
X152327200Y-42037542D01*
X152327200Y-42037542D02*
X152374819Y-41942304D01*
X152374819Y-41942304D02*
X152374819Y-41656590D01*
X152374819Y-41656590D02*
X152327200Y-41561352D01*
X152327200Y-41561352D02*
X152279580Y-41513733D01*
X151470057Y-42513733D02*
X151422438Y-42561352D01*
X151422438Y-42561352D02*
X151374819Y-42656590D01*
X151374819Y-42656590D02*
X151374819Y-42894685D01*
X151374819Y-42894685D02*
X151422438Y-42989923D01*
X151422438Y-42989923D02*
X151470057Y-43037542D01*
X151470057Y-43037542D02*
X151565295Y-43085161D01*
X151565295Y-43085161D02*
X151660533Y-43085161D01*
X151660533Y-43085161D02*
X151803390Y-43037542D01*
X151803390Y-43037542D02*
X152374819Y-42466114D01*
X152374819Y-42466114D02*
X152374819Y-43085161D01*
X127874819Y-30980399D02*
X127398628Y-30647066D01*
X127874819Y-30408971D02*
X126874819Y-30408971D01*
X126874819Y-30408971D02*
X126874819Y-30789923D01*
X126874819Y-30789923D02*
X126922438Y-30885161D01*
X126922438Y-30885161D02*
X126970057Y-30932780D01*
X126970057Y-30932780D02*
X127065295Y-30980399D01*
X127065295Y-30980399D02*
X127208152Y-30980399D01*
X127208152Y-30980399D02*
X127303390Y-30932780D01*
X127303390Y-30932780D02*
X127351009Y-30885161D01*
X127351009Y-30885161D02*
X127398628Y-30789923D01*
X127398628Y-30789923D02*
X127398628Y-30408971D01*
X126970057Y-31361352D02*
X126922438Y-31408971D01*
X126922438Y-31408971D02*
X126874819Y-31504209D01*
X126874819Y-31504209D02*
X126874819Y-31742304D01*
X126874819Y-31742304D02*
X126922438Y-31837542D01*
X126922438Y-31837542D02*
X126970057Y-31885161D01*
X126970057Y-31885161D02*
X127065295Y-31932780D01*
X127065295Y-31932780D02*
X127160533Y-31932780D01*
X127160533Y-31932780D02*
X127303390Y-31885161D01*
X127303390Y-31885161D02*
X127874819Y-31313733D01*
X127874819Y-31313733D02*
X127874819Y-31932780D01*
X126874819Y-32837542D02*
X126874819Y-32361352D01*
X126874819Y-32361352D02*
X127351009Y-32313733D01*
X127351009Y-32313733D02*
X127303390Y-32361352D01*
X127303390Y-32361352D02*
X127255771Y-32456590D01*
X127255771Y-32456590D02*
X127255771Y-32694685D01*
X127255771Y-32694685D02*
X127303390Y-32789923D01*
X127303390Y-32789923D02*
X127351009Y-32837542D01*
X127351009Y-32837542D02*
X127446247Y-32885161D01*
X127446247Y-32885161D02*
X127684342Y-32885161D01*
X127684342Y-32885161D02*
X127779580Y-32837542D01*
X127779580Y-32837542D02*
X127827200Y-32789923D01*
X127827200Y-32789923D02*
X127874819Y-32694685D01*
X127874819Y-32694685D02*
X127874819Y-32456590D01*
X127874819Y-32456590D02*
X127827200Y-32361352D01*
X127827200Y-32361352D02*
X127779580Y-32313733D01*
X135542857Y-43168076D02*
X135876190Y-42691885D01*
X136114285Y-43168076D02*
X136114285Y-42168076D01*
X136114285Y-42168076D02*
X135733333Y-42168076D01*
X135733333Y-42168076D02*
X135638095Y-42215695D01*
X135638095Y-42215695D02*
X135590476Y-42263314D01*
X135590476Y-42263314D02*
X135542857Y-42358552D01*
X135542857Y-42358552D02*
X135542857Y-42501409D01*
X135542857Y-42501409D02*
X135590476Y-42596647D01*
X135590476Y-42596647D02*
X135638095Y-42644266D01*
X135638095Y-42644266D02*
X135733333Y-42691885D01*
X135733333Y-42691885D02*
X136114285Y-42691885D01*
X135161904Y-42263314D02*
X135114285Y-42215695D01*
X135114285Y-42215695D02*
X135019047Y-42168076D01*
X135019047Y-42168076D02*
X134780952Y-42168076D01*
X134780952Y-42168076D02*
X134685714Y-42215695D01*
X134685714Y-42215695D02*
X134638095Y-42263314D01*
X134638095Y-42263314D02*
X134590476Y-42358552D01*
X134590476Y-42358552D02*
X134590476Y-42453790D01*
X134590476Y-42453790D02*
X134638095Y-42596647D01*
X134638095Y-42596647D02*
X135209523Y-43168076D01*
X135209523Y-43168076D02*
X134590476Y-43168076D01*
X134257142Y-42168076D02*
X133590476Y-42168076D01*
X133590476Y-42168076D02*
X134019047Y-43168076D01*
%TO.C,R29*%
D11*
X134212936Y-34813257D02*
X135667064Y-34813257D01*
X134212936Y-36633257D02*
X135667064Y-36633257D01*
%TO.C,C29*%
X135301252Y-45213257D02*
X133878748Y-45213257D01*
X135301252Y-47033257D02*
X133878748Y-47033257D01*
%TO.C,R28*%
X140267064Y-54213257D02*
X138812936Y-54213257D01*
X140267064Y-56033257D02*
X138812936Y-56033257D01*
%TO.C,R26*%
X124867064Y-46513257D02*
X123412936Y-46513257D01*
X124867064Y-48333257D02*
X123412936Y-48333257D01*
%TO.C,R30*%
X149180000Y-48800321D02*
X149180000Y-47346193D01*
X151000000Y-48800321D02*
X151000000Y-47346193D01*
%TO.C,C28*%
X143030000Y-41084509D02*
X143030000Y-39662005D01*
X144850000Y-41084509D02*
X144850000Y-39662005D01*
%TO.C,R32*%
X149180000Y-42550321D02*
X149180000Y-41096193D01*
X151000000Y-42550321D02*
X151000000Y-41096193D01*
%TO.C,R25*%
X124680000Y-32350321D02*
X124680000Y-30896193D01*
X126500000Y-32350321D02*
X126500000Y-30896193D01*
%TO.C,R27*%
X134172936Y-39973257D02*
X135627064Y-39973257D01*
X134172936Y-41793257D02*
X135627064Y-41793257D01*
%TD*%
%LPC*%
D12*
%TO.C,C33*%
X133940000Y-50823257D03*
D13*
X133940000Y-48823257D03*
%TD*%
D14*
%TO.C,H10*%
X174140000Y-23423257D03*
%TD*%
D15*
%TO.C,J11*%
X170440000Y-45903257D03*
D16*
X170440000Y-40823257D03*
%TD*%
D14*
%TO.C,H9*%
X122890000Y-23473257D03*
%TD*%
D17*
%TO.C,AMP1*%
X139030000Y-38513257D03*
D13*
X139030000Y-41053257D03*
X139030000Y-43593257D03*
X139030000Y-46133257D03*
X146650000Y-46133257D03*
X146650000Y-43593257D03*
X146650000Y-41053257D03*
X146650000Y-38513257D03*
%TD*%
%TO.C,C30*%
X133790000Y-26373257D03*
X128790000Y-26373257D03*
%TD*%
D14*
%TO.C,H11*%
X174040000Y-57973257D03*
%TD*%
D18*
%TO.C,C34*%
X158740000Y-29123257D03*
D19*
X166240000Y-29123257D03*
%TD*%
D20*
%TO.C,C31*%
X130440000Y-30473257D03*
D13*
X130440000Y-32473257D03*
%TD*%
D18*
%TO.C,C35*%
X152940000Y-52323257D03*
D19*
X160440000Y-52323257D03*
%TD*%
D21*
%TO.C,J9*%
X149240000Y-26723257D03*
D16*
X144160000Y-26723257D03*
X139080000Y-26723257D03*
%TD*%
D13*
%TO.C,C32*%
X134640000Y-55123257D03*
X129640000Y-55123257D03*
%TD*%
D22*
%TO.C,J10*%
X126340000Y-37673257D03*
D16*
X126340000Y-42753257D03*
%TD*%
D14*
%TO.C,H12*%
X122890000Y-58023257D03*
%TD*%
D23*
%TO.C,R29*%
X133390000Y-35723257D03*
X136490000Y-35723257D03*
%TD*%
D24*
%TO.C,C29*%
X136152500Y-46123257D03*
X133027500Y-46123257D03*
%TD*%
D25*
%TO.C,R28*%
X141090000Y-55123257D03*
X137990000Y-55123257D03*
%TD*%
%TO.C,R26*%
X125690000Y-47423257D03*
X122590000Y-47423257D03*
%TD*%
D26*
%TO.C,R30*%
X150090000Y-49623257D03*
X150090000Y-46523257D03*
%TD*%
D27*
%TO.C,C28*%
X143940000Y-41935757D03*
X143940000Y-38810757D03*
%TD*%
D26*
%TO.C,R32*%
X150090000Y-43373257D03*
X150090000Y-40273257D03*
%TD*%
%TO.C,R25*%
X125590000Y-33173257D03*
X125590000Y-30073257D03*
%TD*%
D23*
%TO.C,R27*%
X133350000Y-40883257D03*
X136450000Y-40883257D03*
%TD*%
%LPD*%
M02*
