%TF.GenerationSoftware,KiCad,Pcbnew,10.0.1*%
%TF.CreationDate,2026-06-05T16:19:39+09:00*%
%TF.ProjectId,AudioCase_4_amp,41756469-6f43-4617-9365-5f345f616d70,rev?*%
%TF.SameCoordinates,Original*%
%TF.FileFunction,Legend,Top*%
%TF.FilePolarity,Positive*%
%FSLAX46Y46*%
G04 Gerber Fmt 4.6, Leading zero omitted, Abs format (unit mm)*
G04 Created by KiCad (PCBNEW 10.0.1) date 2026-06-05 16:19:39*
%MOMM*%
%LPD*%
G01*
G04 APERTURE LIST*
G04 Aperture macros list*
%AMRoundRect*
0 Rectangle with rounded corners*
0 $1 Rounding radius*
0 $2 $3 $4 $5 $6 $7 $8 $9 X,Y pos of 4 corners*
0 Add a 4 corners polygon primitive as box body*
4,1,4,$2,$3,$4,$5,$6,$7,$8,$9,$2,$3,0*
0 Add four circle primitives for the rounded corners*
1,1,$1+$1,$2,$3*
1,1,$1+$1,$4,$5*
1,1,$1+$1,$6,$7*
1,1,$1+$1,$8,$9*
0 Add four rect primitives between the rounded corners*
20,1,$1+$1,$2,$3,$4,$5,0*
20,1,$1+$1,$4,$5,$6,$7,0*
20,1,$1+$1,$6,$7,$8,$9,0*
20,1,$1+$1,$8,$9,$2,$3,0*%
G04 Aperture macros list end*
%ADD10C,0.300000*%
%ADD11C,0.150000*%
%ADD12C,0.120000*%
%ADD13C,3.200000*%
%ADD14C,1.600000*%
%ADD15RoundRect,0.250000X-0.400000X-0.625000X0.400000X-0.625000X0.400000X0.625000X-0.400000X0.625000X0*%
%ADD16RoundRect,0.250000X-0.550000X0.550000X-0.550000X-0.550000X0.550000X-0.550000X0.550000X0.550000X0*%
%ADD17RoundRect,0.250000X0.550000X-0.550000X0.550000X0.550000X-0.550000X0.550000X-0.550000X-0.550000X0*%
%ADD18RoundRect,0.250000X-1.050000X1.050000X-1.050000X-1.050000X1.050000X-1.050000X1.050000X1.050000X0*%
%ADD19C,2.600000*%
%ADD20RoundRect,0.250000X-0.550000X-0.550000X0.550000X-0.550000X0.550000X0.550000X-0.550000X0.550000X0*%
%ADD21RoundRect,0.250001X-0.949999X0.949999X-0.949999X-0.949999X0.949999X-0.949999X0.949999X0.949999X0*%
%ADD22C,2.400000*%
%ADD23RoundRect,0.250000X0.625000X-0.400000X0.625000X0.400000X-0.625000X0.400000X-0.625000X-0.400000X0*%
%ADD24RoundRect,0.250000X1.050000X-1.050000X1.050000X1.050000X-1.050000X1.050000X-1.050000X-1.050000X0*%
%ADD25RoundRect,0.250000X1.050000X1.050000X-1.050000X1.050000X-1.050000X-1.050000X1.050000X-1.050000X0*%
G04 APERTURE END LIST*
D10*
X125673082Y-22095514D02*
X126387368Y-22095514D01*
X125530225Y-22524085D02*
X126030225Y-21024085D01*
X126030225Y-21024085D02*
X126530225Y-22524085D01*
X127030224Y-22524085D02*
X127030224Y-21024085D01*
X127030224Y-21024085D02*
X127530224Y-22095514D01*
X127530224Y-22095514D02*
X128030224Y-21024085D01*
X128030224Y-21024085D02*
X128030224Y-22524085D01*
X128744510Y-22524085D02*
X128744510Y-21024085D01*
X128744510Y-21024085D02*
X129315939Y-21024085D01*
X129315939Y-21024085D02*
X129458796Y-21095514D01*
X129458796Y-21095514D02*
X129530225Y-21166942D01*
X129530225Y-21166942D02*
X129601653Y-21309799D01*
X129601653Y-21309799D02*
X129601653Y-21524085D01*
X129601653Y-21524085D02*
X129530225Y-21666942D01*
X129530225Y-21666942D02*
X129458796Y-21738371D01*
X129458796Y-21738371D02*
X129315939Y-21809799D01*
X129315939Y-21809799D02*
X128744510Y-21809799D01*
X132330225Y-21424085D02*
X132830225Y-22924085D01*
X132830225Y-22924085D02*
X133330225Y-21424085D01*
X133830224Y-22352657D02*
X134973082Y-22352657D01*
X152880225Y-21174085D02*
X153380225Y-22674085D01*
X153380225Y-22674085D02*
X153880225Y-21174085D01*
X154380224Y-22102657D02*
X155523082Y-22102657D01*
X154951653Y-22674085D02*
X154951653Y-21531228D01*
X173090828Y-48004460D02*
X173090828Y-48718746D01*
X173090828Y-48718746D02*
X171590828Y-48718746D01*
X173190828Y-34111603D02*
X172476542Y-34611603D01*
X173190828Y-34968746D02*
X171690828Y-34968746D01*
X171690828Y-34968746D02*
X171690828Y-34397317D01*
X171690828Y-34397317D02*
X171762257Y-34254460D01*
X171762257Y-34254460D02*
X171833685Y-34183031D01*
X171833685Y-34183031D02*
X171976542Y-34111603D01*
X171976542Y-34111603D02*
X172190828Y-34111603D01*
X172190828Y-34111603D02*
X172333685Y-34183031D01*
X172333685Y-34183031D02*
X172405114Y-34254460D01*
X172405114Y-34254460D02*
X172476542Y-34397317D01*
X172476542Y-34397317D02*
X172476542Y-34968746D01*
X119939171Y-47004910D02*
X120653457Y-46504910D01*
X119939171Y-46147767D02*
X121439171Y-46147767D01*
X121439171Y-46147767D02*
X121439171Y-46719196D01*
X121439171Y-46719196D02*
X121367742Y-46862053D01*
X121367742Y-46862053D02*
X121296314Y-46933482D01*
X121296314Y-46933482D02*
X121153457Y-47004910D01*
X121153457Y-47004910D02*
X120939171Y-47004910D01*
X120939171Y-47004910D02*
X120796314Y-46933482D01*
X120796314Y-46933482D02*
X120724885Y-46862053D01*
X120724885Y-46862053D02*
X120653457Y-46719196D01*
X120653457Y-46719196D02*
X120653457Y-46147767D01*
X120139171Y-33912053D02*
X120139171Y-33197767D01*
X120139171Y-33197767D02*
X121639171Y-33197767D01*
D11*
X129997142Y-55182837D02*
X129949523Y-55230457D01*
X129949523Y-55230457D02*
X129806666Y-55278076D01*
X129806666Y-55278076D02*
X129711428Y-55278076D01*
X129711428Y-55278076D02*
X129568571Y-55230457D01*
X129568571Y-55230457D02*
X129473333Y-55135218D01*
X129473333Y-55135218D02*
X129425714Y-55039980D01*
X129425714Y-55039980D02*
X129378095Y-54849504D01*
X129378095Y-54849504D02*
X129378095Y-54706647D01*
X129378095Y-54706647D02*
X129425714Y-54516171D01*
X129425714Y-54516171D02*
X129473333Y-54420933D01*
X129473333Y-54420933D02*
X129568571Y-54325695D01*
X129568571Y-54325695D02*
X129711428Y-54278076D01*
X129711428Y-54278076D02*
X129806666Y-54278076D01*
X129806666Y-54278076D02*
X129949523Y-54325695D01*
X129949523Y-54325695D02*
X129997142Y-54373314D01*
X130378095Y-54373314D02*
X130425714Y-54325695D01*
X130425714Y-54325695D02*
X130520952Y-54278076D01*
X130520952Y-54278076D02*
X130759047Y-54278076D01*
X130759047Y-54278076D02*
X130854285Y-54325695D01*
X130854285Y-54325695D02*
X130901904Y-54373314D01*
X130901904Y-54373314D02*
X130949523Y-54468552D01*
X130949523Y-54468552D02*
X130949523Y-54563790D01*
X130949523Y-54563790D02*
X130901904Y-54706647D01*
X130901904Y-54706647D02*
X130330476Y-55278076D01*
X130330476Y-55278076D02*
X130949523Y-55278076D01*
X131806666Y-54278076D02*
X131616190Y-54278076D01*
X131616190Y-54278076D02*
X131520952Y-54325695D01*
X131520952Y-54325695D02*
X131473333Y-54373314D01*
X131473333Y-54373314D02*
X131378095Y-54516171D01*
X131378095Y-54516171D02*
X131330476Y-54706647D01*
X131330476Y-54706647D02*
X131330476Y-55087599D01*
X131330476Y-55087599D02*
X131378095Y-55182837D01*
X131378095Y-55182837D02*
X131425714Y-55230457D01*
X131425714Y-55230457D02*
X131520952Y-55278076D01*
X131520952Y-55278076D02*
X131711428Y-55278076D01*
X131711428Y-55278076D02*
X131806666Y-55230457D01*
X131806666Y-55230457D02*
X131854285Y-55182837D01*
X131854285Y-55182837D02*
X131901904Y-55087599D01*
X131901904Y-55087599D02*
X131901904Y-54849504D01*
X131901904Y-54849504D02*
X131854285Y-54754266D01*
X131854285Y-54754266D02*
X131806666Y-54706647D01*
X131806666Y-54706647D02*
X131711428Y-54659028D01*
X131711428Y-54659028D02*
X131520952Y-54659028D01*
X131520952Y-54659028D02*
X131425714Y-54706647D01*
X131425714Y-54706647D02*
X131378095Y-54754266D01*
X131378095Y-54754266D02*
X131330476Y-54849504D01*
X128847142Y-26782837D02*
X128799523Y-26830457D01*
X128799523Y-26830457D02*
X128656666Y-26878076D01*
X128656666Y-26878076D02*
X128561428Y-26878076D01*
X128561428Y-26878076D02*
X128418571Y-26830457D01*
X128418571Y-26830457D02*
X128323333Y-26735218D01*
X128323333Y-26735218D02*
X128275714Y-26639980D01*
X128275714Y-26639980D02*
X128228095Y-26449504D01*
X128228095Y-26449504D02*
X128228095Y-26306647D01*
X128228095Y-26306647D02*
X128275714Y-26116171D01*
X128275714Y-26116171D02*
X128323333Y-26020933D01*
X128323333Y-26020933D02*
X128418571Y-25925695D01*
X128418571Y-25925695D02*
X128561428Y-25878076D01*
X128561428Y-25878076D02*
X128656666Y-25878076D01*
X128656666Y-25878076D02*
X128799523Y-25925695D01*
X128799523Y-25925695D02*
X128847142Y-25973314D01*
X129228095Y-25973314D02*
X129275714Y-25925695D01*
X129275714Y-25925695D02*
X129370952Y-25878076D01*
X129370952Y-25878076D02*
X129609047Y-25878076D01*
X129609047Y-25878076D02*
X129704285Y-25925695D01*
X129704285Y-25925695D02*
X129751904Y-25973314D01*
X129751904Y-25973314D02*
X129799523Y-26068552D01*
X129799523Y-26068552D02*
X129799523Y-26163790D01*
X129799523Y-26163790D02*
X129751904Y-26306647D01*
X129751904Y-26306647D02*
X129180476Y-26878076D01*
X129180476Y-26878076D02*
X129799523Y-26878076D01*
X130656666Y-26211409D02*
X130656666Y-26878076D01*
X130418571Y-25830457D02*
X130180476Y-26544742D01*
X130180476Y-26544742D02*
X130799523Y-26544742D01*
X155497142Y-41198076D02*
X155163809Y-40721885D01*
X154925714Y-41198076D02*
X154925714Y-40198076D01*
X154925714Y-40198076D02*
X155306666Y-40198076D01*
X155306666Y-40198076D02*
X155401904Y-40245695D01*
X155401904Y-40245695D02*
X155449523Y-40293314D01*
X155449523Y-40293314D02*
X155497142Y-40388552D01*
X155497142Y-40388552D02*
X155497142Y-40531409D01*
X155497142Y-40531409D02*
X155449523Y-40626647D01*
X155449523Y-40626647D02*
X155401904Y-40674266D01*
X155401904Y-40674266D02*
X155306666Y-40721885D01*
X155306666Y-40721885D02*
X154925714Y-40721885D01*
X155878095Y-40293314D02*
X155925714Y-40245695D01*
X155925714Y-40245695D02*
X156020952Y-40198076D01*
X156020952Y-40198076D02*
X156259047Y-40198076D01*
X156259047Y-40198076D02*
X156354285Y-40245695D01*
X156354285Y-40245695D02*
X156401904Y-40293314D01*
X156401904Y-40293314D02*
X156449523Y-40388552D01*
X156449523Y-40388552D02*
X156449523Y-40483790D01*
X156449523Y-40483790D02*
X156401904Y-40626647D01*
X156401904Y-40626647D02*
X155830476Y-41198076D01*
X155830476Y-41198076D02*
X156449523Y-41198076D01*
X157020952Y-40626647D02*
X156925714Y-40579028D01*
X156925714Y-40579028D02*
X156878095Y-40531409D01*
X156878095Y-40531409D02*
X156830476Y-40436171D01*
X156830476Y-40436171D02*
X156830476Y-40388552D01*
X156830476Y-40388552D02*
X156878095Y-40293314D01*
X156878095Y-40293314D02*
X156925714Y-40245695D01*
X156925714Y-40245695D02*
X157020952Y-40198076D01*
X157020952Y-40198076D02*
X157211428Y-40198076D01*
X157211428Y-40198076D02*
X157306666Y-40245695D01*
X157306666Y-40245695D02*
X157354285Y-40293314D01*
X157354285Y-40293314D02*
X157401904Y-40388552D01*
X157401904Y-40388552D02*
X157401904Y-40436171D01*
X157401904Y-40436171D02*
X157354285Y-40531409D01*
X157354285Y-40531409D02*
X157306666Y-40579028D01*
X157306666Y-40579028D02*
X157211428Y-40626647D01*
X157211428Y-40626647D02*
X157020952Y-40626647D01*
X157020952Y-40626647D02*
X156925714Y-40674266D01*
X156925714Y-40674266D02*
X156878095Y-40721885D01*
X156878095Y-40721885D02*
X156830476Y-40817123D01*
X156830476Y-40817123D02*
X156830476Y-41007599D01*
X156830476Y-41007599D02*
X156878095Y-41102837D01*
X156878095Y-41102837D02*
X156925714Y-41150457D01*
X156925714Y-41150457D02*
X157020952Y-41198076D01*
X157020952Y-41198076D02*
X157211428Y-41198076D01*
X157211428Y-41198076D02*
X157306666Y-41150457D01*
X157306666Y-41150457D02*
X157354285Y-41102837D01*
X157354285Y-41102837D02*
X157401904Y-41007599D01*
X157401904Y-41007599D02*
X157401904Y-40817123D01*
X157401904Y-40817123D02*
X157354285Y-40721885D01*
X157354285Y-40721885D02*
X157306666Y-40674266D01*
X157306666Y-40674266D02*
X157211428Y-40626647D01*
X132949580Y-32616114D02*
X132997200Y-32663733D01*
X132997200Y-32663733D02*
X133044819Y-32806590D01*
X133044819Y-32806590D02*
X133044819Y-32901828D01*
X133044819Y-32901828D02*
X132997200Y-33044685D01*
X132997200Y-33044685D02*
X132901961Y-33139923D01*
X132901961Y-33139923D02*
X132806723Y-33187542D01*
X132806723Y-33187542D02*
X132616247Y-33235161D01*
X132616247Y-33235161D02*
X132473390Y-33235161D01*
X132473390Y-33235161D02*
X132282914Y-33187542D01*
X132282914Y-33187542D02*
X132187676Y-33139923D01*
X132187676Y-33139923D02*
X132092438Y-33044685D01*
X132092438Y-33044685D02*
X132044819Y-32901828D01*
X132044819Y-32901828D02*
X132044819Y-32806590D01*
X132044819Y-32806590D02*
X132092438Y-32663733D01*
X132092438Y-32663733D02*
X132140057Y-32616114D01*
X132140057Y-32235161D02*
X132092438Y-32187542D01*
X132092438Y-32187542D02*
X132044819Y-32092304D01*
X132044819Y-32092304D02*
X132044819Y-31854209D01*
X132044819Y-31854209D02*
X132092438Y-31758971D01*
X132092438Y-31758971D02*
X132140057Y-31711352D01*
X132140057Y-31711352D02*
X132235295Y-31663733D01*
X132235295Y-31663733D02*
X132330533Y-31663733D01*
X132330533Y-31663733D02*
X132473390Y-31711352D01*
X132473390Y-31711352D02*
X133044819Y-32282780D01*
X133044819Y-32282780D02*
X133044819Y-31663733D01*
X132044819Y-30758971D02*
X132044819Y-31235161D01*
X132044819Y-31235161D02*
X132521009Y-31282780D01*
X132521009Y-31282780D02*
X132473390Y-31235161D01*
X132473390Y-31235161D02*
X132425771Y-31139923D01*
X132425771Y-31139923D02*
X132425771Y-30901828D01*
X132425771Y-30901828D02*
X132473390Y-30806590D01*
X132473390Y-30806590D02*
X132521009Y-30758971D01*
X132521009Y-30758971D02*
X132616247Y-30711352D01*
X132616247Y-30711352D02*
X132854342Y-30711352D01*
X132854342Y-30711352D02*
X132949580Y-30758971D01*
X132949580Y-30758971D02*
X132997200Y-30806590D01*
X132997200Y-30806590D02*
X133044819Y-30901828D01*
X133044819Y-30901828D02*
X133044819Y-31139923D01*
X133044819Y-31139923D02*
X132997200Y-31235161D01*
X132997200Y-31235161D02*
X132949580Y-31282780D01*
X131749580Y-44966114D02*
X131797200Y-45013733D01*
X131797200Y-45013733D02*
X131844819Y-45156590D01*
X131844819Y-45156590D02*
X131844819Y-45251828D01*
X131844819Y-45251828D02*
X131797200Y-45394685D01*
X131797200Y-45394685D02*
X131701961Y-45489923D01*
X131701961Y-45489923D02*
X131606723Y-45537542D01*
X131606723Y-45537542D02*
X131416247Y-45585161D01*
X131416247Y-45585161D02*
X131273390Y-45585161D01*
X131273390Y-45585161D02*
X131082914Y-45537542D01*
X131082914Y-45537542D02*
X130987676Y-45489923D01*
X130987676Y-45489923D02*
X130892438Y-45394685D01*
X130892438Y-45394685D02*
X130844819Y-45251828D01*
X130844819Y-45251828D02*
X130844819Y-45156590D01*
X130844819Y-45156590D02*
X130892438Y-45013733D01*
X130892438Y-45013733D02*
X130940057Y-44966114D01*
X130940057Y-44585161D02*
X130892438Y-44537542D01*
X130892438Y-44537542D02*
X130844819Y-44442304D01*
X130844819Y-44442304D02*
X130844819Y-44204209D01*
X130844819Y-44204209D02*
X130892438Y-44108971D01*
X130892438Y-44108971D02*
X130940057Y-44061352D01*
X130940057Y-44061352D02*
X131035295Y-44013733D01*
X131035295Y-44013733D02*
X131130533Y-44013733D01*
X131130533Y-44013733D02*
X131273390Y-44061352D01*
X131273390Y-44061352D02*
X131844819Y-44632780D01*
X131844819Y-44632780D02*
X131844819Y-44013733D01*
X130844819Y-43680399D02*
X130844819Y-43013733D01*
X130844819Y-43013733D02*
X131844819Y-43442304D01*
X127644819Y-41022780D02*
X128359104Y-41022780D01*
X128359104Y-41022780D02*
X128501961Y-41070399D01*
X128501961Y-41070399D02*
X128597200Y-41165637D01*
X128597200Y-41165637D02*
X128644819Y-41308494D01*
X128644819Y-41308494D02*
X128644819Y-41403732D01*
X128644819Y-40022780D02*
X128644819Y-40594208D01*
X128644819Y-40308494D02*
X127644819Y-40308494D01*
X127644819Y-40308494D02*
X127787676Y-40403732D01*
X127787676Y-40403732D02*
X127882914Y-40498970D01*
X127882914Y-40498970D02*
X127930533Y-40594208D01*
X127644819Y-39403732D02*
X127644819Y-39308494D01*
X127644819Y-39308494D02*
X127692438Y-39213256D01*
X127692438Y-39213256D02*
X127740057Y-39165637D01*
X127740057Y-39165637D02*
X127835295Y-39118018D01*
X127835295Y-39118018D02*
X128025771Y-39070399D01*
X128025771Y-39070399D02*
X128263866Y-39070399D01*
X128263866Y-39070399D02*
X128454342Y-39118018D01*
X128454342Y-39118018D02*
X128549580Y-39165637D01*
X128549580Y-39165637D02*
X128597200Y-39213256D01*
X128597200Y-39213256D02*
X128644819Y-39308494D01*
X128644819Y-39308494D02*
X128644819Y-39403732D01*
X128644819Y-39403732D02*
X128597200Y-39498970D01*
X128597200Y-39498970D02*
X128549580Y-39546589D01*
X128549580Y-39546589D02*
X128454342Y-39594208D01*
X128454342Y-39594208D02*
X128263866Y-39641827D01*
X128263866Y-39641827D02*
X128025771Y-39641827D01*
X128025771Y-39641827D02*
X127835295Y-39594208D01*
X127835295Y-39594208D02*
X127740057Y-39546589D01*
X127740057Y-39546589D02*
X127692438Y-39498970D01*
X127692438Y-39498970D02*
X127644819Y-39403732D01*
X118659104Y-44485161D02*
X118659104Y-44008971D01*
X118944819Y-44580399D02*
X117944819Y-44247066D01*
X117944819Y-44247066D02*
X118944819Y-43913733D01*
X118944819Y-43580399D02*
X117944819Y-43580399D01*
X117944819Y-43580399D02*
X118659104Y-43247066D01*
X118659104Y-43247066D02*
X117944819Y-42913733D01*
X117944819Y-42913733D02*
X118944819Y-42913733D01*
X118944819Y-42437542D02*
X117944819Y-42437542D01*
X117944819Y-42437542D02*
X117944819Y-42056590D01*
X117944819Y-42056590D02*
X117992438Y-41961352D01*
X117992438Y-41961352D02*
X118040057Y-41913733D01*
X118040057Y-41913733D02*
X118135295Y-41866114D01*
X118135295Y-41866114D02*
X118278152Y-41866114D01*
X118278152Y-41866114D02*
X118373390Y-41913733D01*
X118373390Y-41913733D02*
X118421009Y-41961352D01*
X118421009Y-41961352D02*
X118468628Y-42056590D01*
X118468628Y-42056590D02*
X118468628Y-42437542D01*
X119040057Y-41675638D02*
X119040057Y-40913733D01*
X118659104Y-40723256D02*
X118659104Y-40247066D01*
X118944819Y-40818494D02*
X117944819Y-40485161D01*
X117944819Y-40485161D02*
X118944819Y-40151828D01*
X117944819Y-39818494D02*
X118754342Y-39818494D01*
X118754342Y-39818494D02*
X118849580Y-39770875D01*
X118849580Y-39770875D02*
X118897200Y-39723256D01*
X118897200Y-39723256D02*
X118944819Y-39628018D01*
X118944819Y-39628018D02*
X118944819Y-39437542D01*
X118944819Y-39437542D02*
X118897200Y-39342304D01*
X118897200Y-39342304D02*
X118849580Y-39294685D01*
X118849580Y-39294685D02*
X118754342Y-39247066D01*
X118754342Y-39247066D02*
X117944819Y-39247066D01*
X117944819Y-38866113D02*
X118944819Y-38199447D01*
X117944819Y-38199447D02*
X118944819Y-38866113D01*
X119040057Y-38056590D02*
X119040057Y-37294685D01*
X118944819Y-37056589D02*
X117944819Y-37056589D01*
X118944819Y-36580399D02*
X117944819Y-36580399D01*
X117944819Y-36580399D02*
X118944819Y-36008971D01*
X118944819Y-36008971D02*
X117944819Y-36008971D01*
X141294286Y-43932361D02*
X141770476Y-43932361D01*
X141199048Y-44218076D02*
X141532381Y-43218076D01*
X141532381Y-43218076D02*
X141865714Y-44218076D01*
X142199048Y-44218076D02*
X142199048Y-43218076D01*
X142199048Y-43218076D02*
X142532381Y-43932361D01*
X142532381Y-43932361D02*
X142865714Y-43218076D01*
X142865714Y-43218076D02*
X142865714Y-44218076D01*
X143341905Y-44218076D02*
X143341905Y-43218076D01*
X143341905Y-43218076D02*
X143722857Y-43218076D01*
X143722857Y-43218076D02*
X143818095Y-43265695D01*
X143818095Y-43265695D02*
X143865714Y-43313314D01*
X143865714Y-43313314D02*
X143913333Y-43408552D01*
X143913333Y-43408552D02*
X143913333Y-43551409D01*
X143913333Y-43551409D02*
X143865714Y-43646647D01*
X143865714Y-43646647D02*
X143818095Y-43694266D01*
X143818095Y-43694266D02*
X143722857Y-43741885D01*
X143722857Y-43741885D02*
X143341905Y-43741885D01*
X144865714Y-44218076D02*
X144294286Y-44218076D01*
X144580000Y-44218076D02*
X144580000Y-43218076D01*
X144580000Y-43218076D02*
X144484762Y-43360933D01*
X144484762Y-43360933D02*
X144389524Y-43456171D01*
X144389524Y-43456171D02*
X144294286Y-43503790D01*
X142447142Y-34148076D02*
X142113809Y-33671885D01*
X141875714Y-34148076D02*
X141875714Y-33148076D01*
X141875714Y-33148076D02*
X142256666Y-33148076D01*
X142256666Y-33148076D02*
X142351904Y-33195695D01*
X142351904Y-33195695D02*
X142399523Y-33243314D01*
X142399523Y-33243314D02*
X142447142Y-33338552D01*
X142447142Y-33338552D02*
X142447142Y-33481409D01*
X142447142Y-33481409D02*
X142399523Y-33576647D01*
X142399523Y-33576647D02*
X142351904Y-33624266D01*
X142351904Y-33624266D02*
X142256666Y-33671885D01*
X142256666Y-33671885D02*
X141875714Y-33671885D01*
X142828095Y-33243314D02*
X142875714Y-33195695D01*
X142875714Y-33195695D02*
X142970952Y-33148076D01*
X142970952Y-33148076D02*
X143209047Y-33148076D01*
X143209047Y-33148076D02*
X143304285Y-33195695D01*
X143304285Y-33195695D02*
X143351904Y-33243314D01*
X143351904Y-33243314D02*
X143399523Y-33338552D01*
X143399523Y-33338552D02*
X143399523Y-33433790D01*
X143399523Y-33433790D02*
X143351904Y-33576647D01*
X143351904Y-33576647D02*
X142780476Y-34148076D01*
X142780476Y-34148076D02*
X143399523Y-34148076D01*
X143732857Y-33148076D02*
X144399523Y-33148076D01*
X144399523Y-33148076D02*
X143970952Y-34148076D01*
X168749580Y-53266114D02*
X168797200Y-53313733D01*
X168797200Y-53313733D02*
X168844819Y-53456590D01*
X168844819Y-53456590D02*
X168844819Y-53551828D01*
X168844819Y-53551828D02*
X168797200Y-53694685D01*
X168797200Y-53694685D02*
X168701961Y-53789923D01*
X168701961Y-53789923D02*
X168606723Y-53837542D01*
X168606723Y-53837542D02*
X168416247Y-53885161D01*
X168416247Y-53885161D02*
X168273390Y-53885161D01*
X168273390Y-53885161D02*
X168082914Y-53837542D01*
X168082914Y-53837542D02*
X167987676Y-53789923D01*
X167987676Y-53789923D02*
X167892438Y-53694685D01*
X167892438Y-53694685D02*
X167844819Y-53551828D01*
X167844819Y-53551828D02*
X167844819Y-53456590D01*
X167844819Y-53456590D02*
X167892438Y-53313733D01*
X167892438Y-53313733D02*
X167940057Y-53266114D01*
X167940057Y-52885161D02*
X167892438Y-52837542D01*
X167892438Y-52837542D02*
X167844819Y-52742304D01*
X167844819Y-52742304D02*
X167844819Y-52504209D01*
X167844819Y-52504209D02*
X167892438Y-52408971D01*
X167892438Y-52408971D02*
X167940057Y-52361352D01*
X167940057Y-52361352D02*
X168035295Y-52313733D01*
X168035295Y-52313733D02*
X168130533Y-52313733D01*
X168130533Y-52313733D02*
X168273390Y-52361352D01*
X168273390Y-52361352D02*
X168844819Y-52932780D01*
X168844819Y-52932780D02*
X168844819Y-52313733D01*
X168844819Y-51837542D02*
X168844819Y-51647066D01*
X168844819Y-51647066D02*
X168797200Y-51551828D01*
X168797200Y-51551828D02*
X168749580Y-51504209D01*
X168749580Y-51504209D02*
X168606723Y-51408971D01*
X168606723Y-51408971D02*
X168416247Y-51361352D01*
X168416247Y-51361352D02*
X168035295Y-51361352D01*
X168035295Y-51361352D02*
X167940057Y-51408971D01*
X167940057Y-51408971D02*
X167892438Y-51456590D01*
X167892438Y-51456590D02*
X167844819Y-51551828D01*
X167844819Y-51551828D02*
X167844819Y-51742304D01*
X167844819Y-51742304D02*
X167892438Y-51837542D01*
X167892438Y-51837542D02*
X167940057Y-51885161D01*
X167940057Y-51885161D02*
X168035295Y-51932780D01*
X168035295Y-51932780D02*
X168273390Y-51932780D01*
X168273390Y-51932780D02*
X168368628Y-51885161D01*
X168368628Y-51885161D02*
X168416247Y-51837542D01*
X168416247Y-51837542D02*
X168463866Y-51742304D01*
X168463866Y-51742304D02*
X168463866Y-51551828D01*
X168463866Y-51551828D02*
X168416247Y-51456590D01*
X168416247Y-51456590D02*
X168368628Y-51408971D01*
X168368628Y-51408971D02*
X168273390Y-51361352D01*
X150597142Y-41028076D02*
X150263809Y-40551885D01*
X150025714Y-41028076D02*
X150025714Y-40028076D01*
X150025714Y-40028076D02*
X150406666Y-40028076D01*
X150406666Y-40028076D02*
X150501904Y-40075695D01*
X150501904Y-40075695D02*
X150549523Y-40123314D01*
X150549523Y-40123314D02*
X150597142Y-40218552D01*
X150597142Y-40218552D02*
X150597142Y-40361409D01*
X150597142Y-40361409D02*
X150549523Y-40456647D01*
X150549523Y-40456647D02*
X150501904Y-40504266D01*
X150501904Y-40504266D02*
X150406666Y-40551885D01*
X150406666Y-40551885D02*
X150025714Y-40551885D01*
X150978095Y-40123314D02*
X151025714Y-40075695D01*
X151025714Y-40075695D02*
X151120952Y-40028076D01*
X151120952Y-40028076D02*
X151359047Y-40028076D01*
X151359047Y-40028076D02*
X151454285Y-40075695D01*
X151454285Y-40075695D02*
X151501904Y-40123314D01*
X151501904Y-40123314D02*
X151549523Y-40218552D01*
X151549523Y-40218552D02*
X151549523Y-40313790D01*
X151549523Y-40313790D02*
X151501904Y-40456647D01*
X151501904Y-40456647D02*
X150930476Y-41028076D01*
X150930476Y-41028076D02*
X151549523Y-41028076D01*
X152406666Y-40028076D02*
X152216190Y-40028076D01*
X152216190Y-40028076D02*
X152120952Y-40075695D01*
X152120952Y-40075695D02*
X152073333Y-40123314D01*
X152073333Y-40123314D02*
X151978095Y-40266171D01*
X151978095Y-40266171D02*
X151930476Y-40456647D01*
X151930476Y-40456647D02*
X151930476Y-40837599D01*
X151930476Y-40837599D02*
X151978095Y-40932837D01*
X151978095Y-40932837D02*
X152025714Y-40980457D01*
X152025714Y-40980457D02*
X152120952Y-41028076D01*
X152120952Y-41028076D02*
X152311428Y-41028076D01*
X152311428Y-41028076D02*
X152406666Y-40980457D01*
X152406666Y-40980457D02*
X152454285Y-40932837D01*
X152454285Y-40932837D02*
X152501904Y-40837599D01*
X152501904Y-40837599D02*
X152501904Y-40599504D01*
X152501904Y-40599504D02*
X152454285Y-40504266D01*
X152454285Y-40504266D02*
X152406666Y-40456647D01*
X152406666Y-40456647D02*
X152311428Y-40409028D01*
X152311428Y-40409028D02*
X152120952Y-40409028D01*
X152120952Y-40409028D02*
X152025714Y-40456647D01*
X152025714Y-40456647D02*
X151978095Y-40504266D01*
X151978095Y-40504266D02*
X151930476Y-40599504D01*
X170599580Y-30866114D02*
X170647200Y-30913733D01*
X170647200Y-30913733D02*
X170694819Y-31056590D01*
X170694819Y-31056590D02*
X170694819Y-31151828D01*
X170694819Y-31151828D02*
X170647200Y-31294685D01*
X170647200Y-31294685D02*
X170551961Y-31389923D01*
X170551961Y-31389923D02*
X170456723Y-31437542D01*
X170456723Y-31437542D02*
X170266247Y-31485161D01*
X170266247Y-31485161D02*
X170123390Y-31485161D01*
X170123390Y-31485161D02*
X169932914Y-31437542D01*
X169932914Y-31437542D02*
X169837676Y-31389923D01*
X169837676Y-31389923D02*
X169742438Y-31294685D01*
X169742438Y-31294685D02*
X169694819Y-31151828D01*
X169694819Y-31151828D02*
X169694819Y-31056590D01*
X169694819Y-31056590D02*
X169742438Y-30913733D01*
X169742438Y-30913733D02*
X169790057Y-30866114D01*
X169790057Y-30485161D02*
X169742438Y-30437542D01*
X169742438Y-30437542D02*
X169694819Y-30342304D01*
X169694819Y-30342304D02*
X169694819Y-30104209D01*
X169694819Y-30104209D02*
X169742438Y-30008971D01*
X169742438Y-30008971D02*
X169790057Y-29961352D01*
X169790057Y-29961352D02*
X169885295Y-29913733D01*
X169885295Y-29913733D02*
X169980533Y-29913733D01*
X169980533Y-29913733D02*
X170123390Y-29961352D01*
X170123390Y-29961352D02*
X170694819Y-30532780D01*
X170694819Y-30532780D02*
X170694819Y-29913733D01*
X170123390Y-29342304D02*
X170075771Y-29437542D01*
X170075771Y-29437542D02*
X170028152Y-29485161D01*
X170028152Y-29485161D02*
X169932914Y-29532780D01*
X169932914Y-29532780D02*
X169885295Y-29532780D01*
X169885295Y-29532780D02*
X169790057Y-29485161D01*
X169790057Y-29485161D02*
X169742438Y-29437542D01*
X169742438Y-29437542D02*
X169694819Y-29342304D01*
X169694819Y-29342304D02*
X169694819Y-29151828D01*
X169694819Y-29151828D02*
X169742438Y-29056590D01*
X169742438Y-29056590D02*
X169790057Y-29008971D01*
X169790057Y-29008971D02*
X169885295Y-28961352D01*
X169885295Y-28961352D02*
X169932914Y-28961352D01*
X169932914Y-28961352D02*
X170028152Y-29008971D01*
X170028152Y-29008971D02*
X170075771Y-29056590D01*
X170075771Y-29056590D02*
X170123390Y-29151828D01*
X170123390Y-29151828D02*
X170123390Y-29342304D01*
X170123390Y-29342304D02*
X170171009Y-29437542D01*
X170171009Y-29437542D02*
X170218628Y-29485161D01*
X170218628Y-29485161D02*
X170313866Y-29532780D01*
X170313866Y-29532780D02*
X170504342Y-29532780D01*
X170504342Y-29532780D02*
X170599580Y-29485161D01*
X170599580Y-29485161D02*
X170647200Y-29437542D01*
X170647200Y-29437542D02*
X170694819Y-29342304D01*
X170694819Y-29342304D02*
X170694819Y-29151828D01*
X170694819Y-29151828D02*
X170647200Y-29056590D01*
X170647200Y-29056590D02*
X170599580Y-29008971D01*
X170599580Y-29008971D02*
X170504342Y-28961352D01*
X170504342Y-28961352D02*
X170313866Y-28961352D01*
X170313866Y-28961352D02*
X170218628Y-29008971D01*
X170218628Y-29008971D02*
X170171009Y-29056590D01*
X170171009Y-29056590D02*
X170123390Y-29151828D01*
X165424819Y-42842780D02*
X166139104Y-42842780D01*
X166139104Y-42842780D02*
X166281961Y-42890399D01*
X166281961Y-42890399D02*
X166377200Y-42985637D01*
X166377200Y-42985637D02*
X166424819Y-43128494D01*
X166424819Y-43128494D02*
X166424819Y-43223732D01*
X166424819Y-41842780D02*
X166424819Y-42414208D01*
X166424819Y-42128494D02*
X165424819Y-42128494D01*
X165424819Y-42128494D02*
X165567676Y-42223732D01*
X165567676Y-42223732D02*
X165662914Y-42318970D01*
X165662914Y-42318970D02*
X165710533Y-42414208D01*
X166424819Y-40890399D02*
X166424819Y-41461827D01*
X166424819Y-41176113D02*
X165424819Y-41176113D01*
X165424819Y-41176113D02*
X165567676Y-41271351D01*
X165567676Y-41271351D02*
X165662914Y-41366589D01*
X165662914Y-41366589D02*
X165710533Y-41461827D01*
X178709104Y-46901828D02*
X178709104Y-46425638D01*
X178994819Y-46997066D02*
X177994819Y-46663733D01*
X177994819Y-46663733D02*
X178994819Y-46330400D01*
X178994819Y-45997066D02*
X177994819Y-45997066D01*
X177994819Y-45997066D02*
X178709104Y-45663733D01*
X178709104Y-45663733D02*
X177994819Y-45330400D01*
X177994819Y-45330400D02*
X178994819Y-45330400D01*
X178994819Y-44854209D02*
X177994819Y-44854209D01*
X177994819Y-44854209D02*
X177994819Y-44473257D01*
X177994819Y-44473257D02*
X178042438Y-44378019D01*
X178042438Y-44378019D02*
X178090057Y-44330400D01*
X178090057Y-44330400D02*
X178185295Y-44282781D01*
X178185295Y-44282781D02*
X178328152Y-44282781D01*
X178328152Y-44282781D02*
X178423390Y-44330400D01*
X178423390Y-44330400D02*
X178471009Y-44378019D01*
X178471009Y-44378019D02*
X178518628Y-44473257D01*
X178518628Y-44473257D02*
X178518628Y-44854209D01*
X179090057Y-44092305D02*
X179090057Y-43330400D01*
X178709104Y-43139923D02*
X178709104Y-42663733D01*
X178994819Y-43235161D02*
X177994819Y-42901828D01*
X177994819Y-42901828D02*
X178994819Y-42568495D01*
X177994819Y-42235161D02*
X178804342Y-42235161D01*
X178804342Y-42235161D02*
X178899580Y-42187542D01*
X178899580Y-42187542D02*
X178947200Y-42139923D01*
X178947200Y-42139923D02*
X178994819Y-42044685D01*
X178994819Y-42044685D02*
X178994819Y-41854209D01*
X178994819Y-41854209D02*
X178947200Y-41758971D01*
X178947200Y-41758971D02*
X178899580Y-41711352D01*
X178899580Y-41711352D02*
X178804342Y-41663733D01*
X178804342Y-41663733D02*
X177994819Y-41663733D01*
X177994819Y-41282780D02*
X178994819Y-40616114D01*
X177994819Y-40616114D02*
X178994819Y-41282780D01*
X179090057Y-40473257D02*
X179090057Y-39711352D01*
X177994819Y-39282780D02*
X177994819Y-39092304D01*
X177994819Y-39092304D02*
X178042438Y-38997066D01*
X178042438Y-38997066D02*
X178137676Y-38901828D01*
X178137676Y-38901828D02*
X178328152Y-38854209D01*
X178328152Y-38854209D02*
X178661485Y-38854209D01*
X178661485Y-38854209D02*
X178851961Y-38901828D01*
X178851961Y-38901828D02*
X178947200Y-38997066D01*
X178947200Y-38997066D02*
X178994819Y-39092304D01*
X178994819Y-39092304D02*
X178994819Y-39282780D01*
X178994819Y-39282780D02*
X178947200Y-39378018D01*
X178947200Y-39378018D02*
X178851961Y-39473256D01*
X178851961Y-39473256D02*
X178661485Y-39520875D01*
X178661485Y-39520875D02*
X178328152Y-39520875D01*
X178328152Y-39520875D02*
X178137676Y-39473256D01*
X178137676Y-39473256D02*
X178042438Y-39378018D01*
X178042438Y-39378018D02*
X177994819Y-39282780D01*
X177994819Y-38425637D02*
X178804342Y-38425637D01*
X178804342Y-38425637D02*
X178899580Y-38378018D01*
X178899580Y-38378018D02*
X178947200Y-38330399D01*
X178947200Y-38330399D02*
X178994819Y-38235161D01*
X178994819Y-38235161D02*
X178994819Y-38044685D01*
X178994819Y-38044685D02*
X178947200Y-37949447D01*
X178947200Y-37949447D02*
X178899580Y-37901828D01*
X178899580Y-37901828D02*
X178804342Y-37854209D01*
X178804342Y-37854209D02*
X177994819Y-37854209D01*
X177994819Y-37520875D02*
X177994819Y-36949447D01*
X178994819Y-37235161D02*
X177994819Y-37235161D01*
X143416666Y-29928076D02*
X143416666Y-30642361D01*
X143416666Y-30642361D02*
X143369047Y-30785218D01*
X143369047Y-30785218D02*
X143273809Y-30880457D01*
X143273809Y-30880457D02*
X143130952Y-30928076D01*
X143130952Y-30928076D02*
X143035714Y-30928076D01*
X143940476Y-30928076D02*
X144130952Y-30928076D01*
X144130952Y-30928076D02*
X144226190Y-30880457D01*
X144226190Y-30880457D02*
X144273809Y-30832837D01*
X144273809Y-30832837D02*
X144369047Y-30689980D01*
X144369047Y-30689980D02*
X144416666Y-30499504D01*
X144416666Y-30499504D02*
X144416666Y-30118552D01*
X144416666Y-30118552D02*
X144369047Y-30023314D01*
X144369047Y-30023314D02*
X144321428Y-29975695D01*
X144321428Y-29975695D02*
X144226190Y-29928076D01*
X144226190Y-29928076D02*
X144035714Y-29928076D01*
X144035714Y-29928076D02*
X143940476Y-29975695D01*
X143940476Y-29975695D02*
X143892857Y-30023314D01*
X143892857Y-30023314D02*
X143845238Y-30118552D01*
X143845238Y-30118552D02*
X143845238Y-30356647D01*
X143845238Y-30356647D02*
X143892857Y-30451885D01*
X143892857Y-30451885D02*
X143940476Y-30499504D01*
X143940476Y-30499504D02*
X144035714Y-30547123D01*
X144035714Y-30547123D02*
X144226190Y-30547123D01*
X144226190Y-30547123D02*
X144321428Y-30499504D01*
X144321428Y-30499504D02*
X144369047Y-30451885D01*
X144369047Y-30451885D02*
X144416666Y-30356647D01*
X140458095Y-21322361D02*
X140934285Y-21322361D01*
X140362857Y-21608076D02*
X140696190Y-20608076D01*
X140696190Y-20608076D02*
X141029523Y-21608076D01*
X141362857Y-21608076D02*
X141362857Y-20608076D01*
X141362857Y-20608076D02*
X141696190Y-21322361D01*
X141696190Y-21322361D02*
X142029523Y-20608076D01*
X142029523Y-20608076D02*
X142029523Y-21608076D01*
X142505714Y-21608076D02*
X142505714Y-20608076D01*
X142505714Y-20608076D02*
X142886666Y-20608076D01*
X142886666Y-20608076D02*
X142981904Y-20655695D01*
X142981904Y-20655695D02*
X143029523Y-20703314D01*
X143029523Y-20703314D02*
X143077142Y-20798552D01*
X143077142Y-20798552D02*
X143077142Y-20941409D01*
X143077142Y-20941409D02*
X143029523Y-21036647D01*
X143029523Y-21036647D02*
X142981904Y-21084266D01*
X142981904Y-21084266D02*
X142886666Y-21131885D01*
X142886666Y-21131885D02*
X142505714Y-21131885D01*
X143267619Y-21703314D02*
X144029523Y-21703314D01*
X144267619Y-21608076D02*
X144267619Y-20608076D01*
X144267619Y-20608076D02*
X144648571Y-20608076D01*
X144648571Y-20608076D02*
X144743809Y-20655695D01*
X144743809Y-20655695D02*
X144791428Y-20703314D01*
X144791428Y-20703314D02*
X144839047Y-20798552D01*
X144839047Y-20798552D02*
X144839047Y-20941409D01*
X144839047Y-20941409D02*
X144791428Y-21036647D01*
X144791428Y-21036647D02*
X144743809Y-21084266D01*
X144743809Y-21084266D02*
X144648571Y-21131885D01*
X144648571Y-21131885D02*
X144267619Y-21131885D01*
X145172381Y-20608076D02*
X145410476Y-21608076D01*
X145410476Y-21608076D02*
X145600952Y-20893790D01*
X145600952Y-20893790D02*
X145791428Y-21608076D01*
X145791428Y-21608076D02*
X146029524Y-20608076D01*
X146981904Y-21608076D02*
X146648571Y-21131885D01*
X146410476Y-21608076D02*
X146410476Y-20608076D01*
X146410476Y-20608076D02*
X146791428Y-20608076D01*
X146791428Y-20608076D02*
X146886666Y-20655695D01*
X146886666Y-20655695D02*
X146934285Y-20703314D01*
X146934285Y-20703314D02*
X146981904Y-20798552D01*
X146981904Y-20798552D02*
X146981904Y-20941409D01*
X146981904Y-20941409D02*
X146934285Y-21036647D01*
X146934285Y-21036647D02*
X146886666Y-21084266D01*
X146886666Y-21084266D02*
X146791428Y-21131885D01*
X146791428Y-21131885D02*
X146410476Y-21131885D01*
X133614819Y-41166114D02*
X133138628Y-41499447D01*
X133614819Y-41737542D02*
X132614819Y-41737542D01*
X132614819Y-41737542D02*
X132614819Y-41356590D01*
X132614819Y-41356590D02*
X132662438Y-41261352D01*
X132662438Y-41261352D02*
X132710057Y-41213733D01*
X132710057Y-41213733D02*
X132805295Y-41166114D01*
X132805295Y-41166114D02*
X132948152Y-41166114D01*
X132948152Y-41166114D02*
X133043390Y-41213733D01*
X133043390Y-41213733D02*
X133091009Y-41261352D01*
X133091009Y-41261352D02*
X133138628Y-41356590D01*
X133138628Y-41356590D02*
X133138628Y-41737542D01*
X132710057Y-40785161D02*
X132662438Y-40737542D01*
X132662438Y-40737542D02*
X132614819Y-40642304D01*
X132614819Y-40642304D02*
X132614819Y-40404209D01*
X132614819Y-40404209D02*
X132662438Y-40308971D01*
X132662438Y-40308971D02*
X132710057Y-40261352D01*
X132710057Y-40261352D02*
X132805295Y-40213733D01*
X132805295Y-40213733D02*
X132900533Y-40213733D01*
X132900533Y-40213733D02*
X133043390Y-40261352D01*
X133043390Y-40261352D02*
X133614819Y-40832780D01*
X133614819Y-40832780D02*
X133614819Y-40213733D01*
X132614819Y-39308971D02*
X132614819Y-39785161D01*
X132614819Y-39785161D02*
X133091009Y-39832780D01*
X133091009Y-39832780D02*
X133043390Y-39785161D01*
X133043390Y-39785161D02*
X132995771Y-39689923D01*
X132995771Y-39689923D02*
X132995771Y-39451828D01*
X132995771Y-39451828D02*
X133043390Y-39356590D01*
X133043390Y-39356590D02*
X133091009Y-39308971D01*
X133091009Y-39308971D02*
X133186247Y-39261352D01*
X133186247Y-39261352D02*
X133424342Y-39261352D01*
X133424342Y-39261352D02*
X133519580Y-39308971D01*
X133519580Y-39308971D02*
X133567200Y-39356590D01*
X133567200Y-39356590D02*
X133614819Y-39451828D01*
X133614819Y-39451828D02*
X133614819Y-39689923D01*
X133614819Y-39689923D02*
X133567200Y-39785161D01*
X133567200Y-39785161D02*
X133519580Y-39832780D01*
%TO.C,C26*%
D12*
X126920000Y-53453257D02*
X134360000Y-53453257D01*
X126920000Y-56193257D02*
X126920000Y-53453257D01*
X134360000Y-53453257D02*
X134360000Y-56193257D01*
X134360000Y-56193257D02*
X126920000Y-56193257D01*
%TO.C,C24*%
X125770000Y-25053257D02*
X133210000Y-25053257D01*
X125770000Y-27793257D02*
X125770000Y-25053257D01*
X133210000Y-25053257D02*
X133210000Y-27793257D01*
X133210000Y-27793257D02*
X125770000Y-27793257D01*
%TO.C,R28*%
X155412936Y-41663257D02*
X156867064Y-41663257D01*
X155412936Y-43483257D02*
X156867064Y-43483257D01*
%TO.C,C25*%
X127850000Y-31423257D02*
X126310000Y-31423257D01*
X127850000Y-31463257D02*
X126310000Y-31463257D01*
X127850000Y-31503257D02*
X126311000Y-31503257D01*
X127850000Y-31543257D02*
X126313000Y-31543257D01*
X127850000Y-31583257D02*
X126315000Y-31583257D01*
X127850000Y-31623257D02*
X126318000Y-31623257D01*
X127850000Y-31663257D02*
X126321000Y-31663257D01*
X127850000Y-31703257D02*
X126325000Y-31703257D01*
X127850000Y-31743257D02*
X126330000Y-31743257D01*
X127850000Y-31783257D02*
X126335000Y-31783257D01*
X127850000Y-31823257D02*
X126341000Y-31823257D01*
X127850000Y-31863257D02*
X126347000Y-31863257D01*
X127850000Y-31903257D02*
X126354000Y-31903257D01*
X127850000Y-31943257D02*
X126362000Y-31943257D01*
X127850000Y-31983257D02*
X126371000Y-31983257D01*
X127850000Y-32023257D02*
X126380000Y-32023257D01*
X127850000Y-32063257D02*
X126389000Y-32063257D01*
X127850000Y-32103257D02*
X126400000Y-32103257D01*
X127850000Y-32143257D02*
X126411000Y-32143257D01*
X127850000Y-32183257D02*
X126423000Y-32183257D01*
X127850000Y-32223257D02*
X126435000Y-32223257D01*
X127850000Y-32263257D02*
X126448000Y-32263257D01*
X127850000Y-32303257D02*
X126462000Y-32303257D01*
X127850000Y-32343257D02*
X126477000Y-32343257D01*
X127850000Y-32383257D02*
X126492000Y-32383257D01*
X127850000Y-32423257D02*
X126508000Y-32423257D01*
X127850000Y-32463257D02*
X126525000Y-32463257D01*
X127850000Y-32503257D02*
X126543000Y-32503257D01*
X127850000Y-32543257D02*
X126561000Y-32543257D01*
X127850000Y-32583257D02*
X126581000Y-32583257D01*
X127850000Y-32623257D02*
X126601000Y-32623257D01*
X127850000Y-32663257D02*
X126622000Y-32663257D01*
X127850000Y-32703257D02*
X126644000Y-32703257D01*
X127850000Y-32743257D02*
X126667000Y-32743257D01*
X127850000Y-32783257D02*
X126691000Y-32783257D01*
X127850000Y-32823257D02*
X126715000Y-32823257D01*
X127850000Y-32863257D02*
X126741000Y-32863257D01*
X127850000Y-32903257D02*
X126768000Y-32903257D01*
X127850000Y-32943257D02*
X126796000Y-32943257D01*
X127850000Y-32983257D02*
X126825000Y-32983257D01*
X127850000Y-33023257D02*
X126855000Y-33023257D01*
X127850000Y-33063257D02*
X126887000Y-33063257D01*
X127850000Y-33103257D02*
X126920000Y-33103257D01*
X127850000Y-33143257D02*
X126954000Y-33143257D01*
X127850000Y-33183257D02*
X126989000Y-33183257D01*
X127850000Y-33223257D02*
X127026000Y-33223257D01*
X127850000Y-33263257D02*
X127065000Y-33263257D01*
X127850000Y-33303257D02*
X127105000Y-33303257D01*
X127850000Y-33343257D02*
X127147000Y-33343257D01*
X127850000Y-33383257D02*
X127191000Y-33383257D01*
X127850000Y-33423257D02*
X127238000Y-33423257D01*
X129173000Y-34023257D02*
X128607000Y-34023257D01*
X129407000Y-33983257D02*
X128373000Y-33983257D01*
X129567000Y-33943257D02*
X128213000Y-33943257D01*
X129695000Y-33903257D02*
X128085000Y-33903257D01*
X129804000Y-33863257D02*
X127976000Y-33863257D01*
X129901000Y-33823257D02*
X127879000Y-33823257D01*
X129988000Y-33783257D02*
X127792000Y-33783257D01*
X130067000Y-33743257D02*
X127713000Y-33743257D01*
X130141000Y-33703257D02*
X127639000Y-33703257D01*
X130209000Y-33663257D02*
X127571000Y-33663257D01*
X130273000Y-33623257D02*
X127507000Y-33623257D01*
X130333000Y-33583257D02*
X127447000Y-33583257D01*
X130365000Y-28618482D02*
X130365000Y-29118482D01*
X130389000Y-33543257D02*
X127391000Y-33543257D01*
X130443000Y-33503257D02*
X127337000Y-33503257D01*
X130494000Y-33463257D02*
X127286000Y-33463257D01*
X130542000Y-33423257D02*
X129930000Y-33423257D01*
X130589000Y-33383257D02*
X129930000Y-33383257D01*
X130615000Y-28868482D02*
X130115000Y-28868482D01*
X130633000Y-33343257D02*
X129930000Y-33343257D01*
X130675000Y-33303257D02*
X129930000Y-33303257D01*
X130715000Y-33263257D02*
X129930000Y-33263257D01*
X130754000Y-33223257D02*
X129930000Y-33223257D01*
X130791000Y-33183257D02*
X129930000Y-33183257D01*
X130826000Y-33143257D02*
X129930000Y-33143257D01*
X130860000Y-33103257D02*
X129930000Y-33103257D01*
X130893000Y-33063257D02*
X129930000Y-33063257D01*
X130925000Y-33023257D02*
X129930000Y-33023257D01*
X130955000Y-32983257D02*
X129930000Y-32983257D01*
X130984000Y-32943257D02*
X129930000Y-32943257D01*
X131012000Y-32903257D02*
X129930000Y-32903257D01*
X131039000Y-32863257D02*
X129930000Y-32863257D01*
X131065000Y-32823257D02*
X129930000Y-32823257D01*
X131089000Y-32783257D02*
X129930000Y-32783257D01*
X131113000Y-32743257D02*
X129930000Y-32743257D01*
X131136000Y-32703257D02*
X129930000Y-32703257D01*
X131158000Y-32663257D02*
X129930000Y-32663257D01*
X131179000Y-32623257D02*
X129930000Y-32623257D01*
X131199000Y-32583257D02*
X129930000Y-32583257D01*
X131219000Y-32543257D02*
X129930000Y-32543257D01*
X131237000Y-32503257D02*
X129930000Y-32503257D01*
X131255000Y-32463257D02*
X129930000Y-32463257D01*
X131272000Y-32423257D02*
X129930000Y-32423257D01*
X131288000Y-32383257D02*
X129930000Y-32383257D01*
X131303000Y-32343257D02*
X129930000Y-32343257D01*
X131318000Y-32303257D02*
X129930000Y-32303257D01*
X131332000Y-32263257D02*
X129930000Y-32263257D01*
X131345000Y-32223257D02*
X129930000Y-32223257D01*
X131357000Y-32183257D02*
X129930000Y-32183257D01*
X131369000Y-32143257D02*
X129930000Y-32143257D01*
X131380000Y-32103257D02*
X129930000Y-32103257D01*
X131391000Y-32063257D02*
X129930000Y-32063257D01*
X131400000Y-32023257D02*
X129930000Y-32023257D01*
X131409000Y-31983257D02*
X129930000Y-31983257D01*
X131418000Y-31943257D02*
X129930000Y-31943257D01*
X131426000Y-31903257D02*
X129930000Y-31903257D01*
X131433000Y-31863257D02*
X129930000Y-31863257D01*
X131439000Y-31823257D02*
X129930000Y-31823257D01*
X131445000Y-31783257D02*
X129930000Y-31783257D01*
X131450000Y-31743257D02*
X129930000Y-31743257D01*
X131455000Y-31703257D02*
X129930000Y-31703257D01*
X131459000Y-31663257D02*
X129930000Y-31663257D01*
X131462000Y-31623257D02*
X129930000Y-31623257D01*
X131465000Y-31583257D02*
X129930000Y-31583257D01*
X131467000Y-31543257D02*
X129930000Y-31543257D01*
X131469000Y-31503257D02*
X129930000Y-31503257D01*
X131470000Y-31423257D02*
X129930000Y-31423257D01*
X131470000Y-31463257D02*
X129930000Y-31463257D01*
X131510000Y-31423257D02*
G75*
G02*
X126270000Y-31423257I-2620000J0D01*
G01*
X126270000Y-31423257D02*
G75*
G02*
X131510000Y-31423257I2620000J0D01*
G01*
%TO.C,C27*%
X128010000Y-48883257D02*
X129550000Y-48883257D01*
X128010000Y-48923257D02*
X129550000Y-48923257D01*
X128011000Y-48843257D02*
X129550000Y-48843257D01*
X128013000Y-48803257D02*
X129550000Y-48803257D01*
X128015000Y-48763257D02*
X129550000Y-48763257D01*
X128018000Y-48723257D02*
X129550000Y-48723257D01*
X128021000Y-48683257D02*
X129550000Y-48683257D01*
X128025000Y-48643257D02*
X129550000Y-48643257D01*
X128030000Y-48603257D02*
X129550000Y-48603257D01*
X128035000Y-48563257D02*
X129550000Y-48563257D01*
X128041000Y-48523257D02*
X129550000Y-48523257D01*
X128047000Y-48483257D02*
X129550000Y-48483257D01*
X128054000Y-48443257D02*
X129550000Y-48443257D01*
X128062000Y-48403257D02*
X129550000Y-48403257D01*
X128071000Y-48363257D02*
X129550000Y-48363257D01*
X128080000Y-48323257D02*
X129550000Y-48323257D01*
X128089000Y-48283257D02*
X129550000Y-48283257D01*
X128100000Y-48243257D02*
X129550000Y-48243257D01*
X128111000Y-48203257D02*
X129550000Y-48203257D01*
X128123000Y-48163257D02*
X129550000Y-48163257D01*
X128135000Y-48123257D02*
X129550000Y-48123257D01*
X128148000Y-48083257D02*
X129550000Y-48083257D01*
X128162000Y-48043257D02*
X129550000Y-48043257D01*
X128177000Y-48003257D02*
X129550000Y-48003257D01*
X128192000Y-47963257D02*
X129550000Y-47963257D01*
X128208000Y-47923257D02*
X129550000Y-47923257D01*
X128225000Y-47883257D02*
X129550000Y-47883257D01*
X128243000Y-47843257D02*
X129550000Y-47843257D01*
X128261000Y-47803257D02*
X129550000Y-47803257D01*
X128281000Y-47763257D02*
X129550000Y-47763257D01*
X128301000Y-47723257D02*
X129550000Y-47723257D01*
X128322000Y-47683257D02*
X129550000Y-47683257D01*
X128344000Y-47643257D02*
X129550000Y-47643257D01*
X128367000Y-47603257D02*
X129550000Y-47603257D01*
X128391000Y-47563257D02*
X129550000Y-47563257D01*
X128415000Y-47523257D02*
X129550000Y-47523257D01*
X128441000Y-47483257D02*
X129550000Y-47483257D01*
X128468000Y-47443257D02*
X129550000Y-47443257D01*
X128496000Y-47403257D02*
X129550000Y-47403257D01*
X128525000Y-47363257D02*
X129550000Y-47363257D01*
X128555000Y-47323257D02*
X129550000Y-47323257D01*
X128587000Y-47283257D02*
X129550000Y-47283257D01*
X128620000Y-47243257D02*
X129550000Y-47243257D01*
X128654000Y-47203257D02*
X129550000Y-47203257D01*
X128689000Y-47163257D02*
X129550000Y-47163257D01*
X128726000Y-47123257D02*
X129550000Y-47123257D01*
X128765000Y-47083257D02*
X129550000Y-47083257D01*
X128805000Y-47043257D02*
X129550000Y-47043257D01*
X128847000Y-47003257D02*
X129550000Y-47003257D01*
X128865000Y-51478032D02*
X129365000Y-51478032D01*
X128891000Y-46963257D02*
X129550000Y-46963257D01*
X128938000Y-46923257D02*
X129550000Y-46923257D01*
X128986000Y-46883257D02*
X132194000Y-46883257D01*
X129037000Y-46843257D02*
X132143000Y-46843257D01*
X129091000Y-46803257D02*
X132089000Y-46803257D01*
X129115000Y-51728032D02*
X129115000Y-51228032D01*
X129147000Y-46763257D02*
X132033000Y-46763257D01*
X129207000Y-46723257D02*
X131973000Y-46723257D01*
X129271000Y-46683257D02*
X131909000Y-46683257D01*
X129339000Y-46643257D02*
X131841000Y-46643257D01*
X129413000Y-46603257D02*
X131767000Y-46603257D01*
X129492000Y-46563257D02*
X131688000Y-46563257D01*
X129579000Y-46523257D02*
X131601000Y-46523257D01*
X129676000Y-46483257D02*
X131504000Y-46483257D01*
X129785000Y-46443257D02*
X131395000Y-46443257D01*
X129913000Y-46403257D02*
X131267000Y-46403257D01*
X130073000Y-46363257D02*
X131107000Y-46363257D01*
X130307000Y-46323257D02*
X130873000Y-46323257D01*
X131630000Y-46923257D02*
X132242000Y-46923257D01*
X131630000Y-46963257D02*
X132289000Y-46963257D01*
X131630000Y-47003257D02*
X132333000Y-47003257D01*
X131630000Y-47043257D02*
X132375000Y-47043257D01*
X131630000Y-47083257D02*
X132415000Y-47083257D01*
X131630000Y-47123257D02*
X132454000Y-47123257D01*
X131630000Y-47163257D02*
X132491000Y-47163257D01*
X131630000Y-47203257D02*
X132526000Y-47203257D01*
X131630000Y-47243257D02*
X132560000Y-47243257D01*
X131630000Y-47283257D02*
X132593000Y-47283257D01*
X131630000Y-47323257D02*
X132625000Y-47323257D01*
X131630000Y-47363257D02*
X132655000Y-47363257D01*
X131630000Y-47403257D02*
X132684000Y-47403257D01*
X131630000Y-47443257D02*
X132712000Y-47443257D01*
X131630000Y-47483257D02*
X132739000Y-47483257D01*
X131630000Y-47523257D02*
X132765000Y-47523257D01*
X131630000Y-47563257D02*
X132789000Y-47563257D01*
X131630000Y-47603257D02*
X132813000Y-47603257D01*
X131630000Y-47643257D02*
X132836000Y-47643257D01*
X131630000Y-47683257D02*
X132858000Y-47683257D01*
X131630000Y-47723257D02*
X132879000Y-47723257D01*
X131630000Y-47763257D02*
X132899000Y-47763257D01*
X131630000Y-47803257D02*
X132919000Y-47803257D01*
X131630000Y-47843257D02*
X132937000Y-47843257D01*
X131630000Y-47883257D02*
X132955000Y-47883257D01*
X131630000Y-47923257D02*
X132972000Y-47923257D01*
X131630000Y-47963257D02*
X132988000Y-47963257D01*
X131630000Y-48003257D02*
X133003000Y-48003257D01*
X131630000Y-48043257D02*
X133018000Y-48043257D01*
X131630000Y-48083257D02*
X133032000Y-48083257D01*
X131630000Y-48123257D02*
X133045000Y-48123257D01*
X131630000Y-48163257D02*
X133057000Y-48163257D01*
X131630000Y-48203257D02*
X133069000Y-48203257D01*
X131630000Y-48243257D02*
X133080000Y-48243257D01*
X131630000Y-48283257D02*
X133091000Y-48283257D01*
X131630000Y-48323257D02*
X133100000Y-48323257D01*
X131630000Y-48363257D02*
X133109000Y-48363257D01*
X131630000Y-48403257D02*
X133118000Y-48403257D01*
X131630000Y-48443257D02*
X133126000Y-48443257D01*
X131630000Y-48483257D02*
X133133000Y-48483257D01*
X131630000Y-48523257D02*
X133139000Y-48523257D01*
X131630000Y-48563257D02*
X133145000Y-48563257D01*
X131630000Y-48603257D02*
X133150000Y-48603257D01*
X131630000Y-48643257D02*
X133155000Y-48643257D01*
X131630000Y-48683257D02*
X133159000Y-48683257D01*
X131630000Y-48723257D02*
X133162000Y-48723257D01*
X131630000Y-48763257D02*
X133165000Y-48763257D01*
X131630000Y-48803257D02*
X133167000Y-48803257D01*
X131630000Y-48843257D02*
X133169000Y-48843257D01*
X131630000Y-48883257D02*
X133170000Y-48883257D01*
X131630000Y-48923257D02*
X133170000Y-48923257D01*
X133210000Y-48923257D02*
G75*
G02*
X127970000Y-48923257I-2620000J0D01*
G01*
X127970000Y-48923257D02*
G75*
G02*
X133210000Y-48923257I2620000J0D01*
G01*
%TO.C,J10*%
X119920000Y-35013257D02*
X129960000Y-35013257D01*
X119920000Y-37373257D02*
X119920000Y-35013257D01*
X119920000Y-45413257D02*
X119920000Y-37973257D01*
X120540000Y-35013257D02*
X120540000Y-45413257D01*
X122040000Y-35013257D02*
X122040000Y-45413257D01*
X126940000Y-35013257D02*
X126940000Y-45413257D01*
X129960000Y-35013257D02*
X129960000Y-45413257D01*
X129960000Y-45413257D02*
X119920000Y-45413257D01*
X119920000Y-37673257D02*
X119310000Y-38113257D01*
X119310000Y-37233257D01*
X119920000Y-37673257D01*
G36*
X119920000Y-37673257D02*
G01*
X119310000Y-38113257D01*
X119310000Y-37233257D01*
X119920000Y-37673257D01*
G37*
%TO.C,AMP1*%
X140430000Y-38623257D02*
X140430000Y-48903257D01*
X140430000Y-48903257D02*
X145730000Y-48903257D01*
X142080000Y-38623257D02*
X140430000Y-38623257D01*
X145730000Y-38623257D02*
X144080000Y-38623257D01*
X145730000Y-48903257D02*
X145730000Y-38623257D01*
X137940000Y-38563257D02*
X148220000Y-38563257D01*
X148220000Y-48963257D01*
X137940000Y-48963257D01*
X137940000Y-38563257D01*
X144080000Y-38623257D02*
G75*
G02*
X142080000Y-38623257I-1000000J0D01*
G01*
%TO.C,R27*%
X142362936Y-34613257D02*
X143817064Y-34613257D01*
X142362936Y-36433257D02*
X143817064Y-36433257D01*
%TO.C,C29*%
X157700000Y-54943257D02*
X151398000Y-54943257D01*
X157700000Y-54983257D02*
X151411000Y-54983257D01*
X157700000Y-55023257D02*
X151423000Y-55023257D01*
X157700000Y-55063257D02*
X151435000Y-55063257D01*
X157700000Y-55103257D02*
X151448000Y-55103257D01*
X157700000Y-55143257D02*
X151461000Y-55143257D01*
X157700000Y-55183257D02*
X151474000Y-55183257D01*
X157700000Y-55223257D02*
X151488000Y-55223257D01*
X157700000Y-55263257D02*
X151501000Y-55263257D01*
X157700000Y-55303257D02*
X151515000Y-55303257D01*
X157700000Y-55343257D02*
X151529000Y-55343257D01*
X157700000Y-55383257D02*
X151543000Y-55383257D01*
X157700000Y-55423257D02*
X151558000Y-55423257D01*
X157700000Y-55463257D02*
X151573000Y-55463257D01*
X157700000Y-55503257D02*
X151588000Y-55503257D01*
X157700000Y-55543257D02*
X151603000Y-55543257D01*
X157700000Y-55583257D02*
X151619000Y-55583257D01*
X157700000Y-55623257D02*
X151635000Y-55623257D01*
X157700000Y-55663257D02*
X151651000Y-55663257D01*
X157700000Y-55703257D02*
X151667000Y-55703257D01*
X157700000Y-55743257D02*
X151683000Y-55743257D01*
X157700000Y-55783257D02*
X151700000Y-55783257D01*
X157700000Y-55823257D02*
X151717000Y-55823257D01*
X157700000Y-55863257D02*
X151734000Y-55863257D01*
X157700000Y-55903257D02*
X151752000Y-55903257D01*
X157700000Y-55943257D02*
X151770000Y-55943257D01*
X157700000Y-55983257D02*
X151788000Y-55983257D01*
X157700000Y-56023257D02*
X151806000Y-56023257D01*
X157700000Y-56063257D02*
X151825000Y-56063257D01*
X157700000Y-56103257D02*
X151844000Y-56103257D01*
X157700000Y-56143257D02*
X151863000Y-56143257D01*
X157700000Y-56183257D02*
X151882000Y-56183257D01*
X157700000Y-56223257D02*
X151902000Y-56223257D01*
X157700000Y-56263257D02*
X151922000Y-56263257D01*
X157700000Y-56303257D02*
X151942000Y-56303257D01*
X157700000Y-56343257D02*
X151962000Y-56343257D01*
X157700000Y-56383257D02*
X151983000Y-56383257D01*
X157700000Y-56423257D02*
X152004000Y-56423257D01*
X157700000Y-56463257D02*
X152025000Y-56463257D01*
X157700000Y-56503257D02*
X152047000Y-56503257D01*
X157700000Y-56543257D02*
X152069000Y-56543257D01*
X157700000Y-56583257D02*
X152091000Y-56583257D01*
X157700000Y-56623257D02*
X152114000Y-56623257D01*
X157700000Y-56663257D02*
X152136000Y-56663257D01*
X157700000Y-56703257D02*
X152159000Y-56703257D01*
X157700000Y-56743257D02*
X152183000Y-56743257D01*
X157700000Y-56783257D02*
X152207000Y-56783257D01*
X157700000Y-56823257D02*
X152231000Y-56823257D01*
X157700000Y-56863257D02*
X152255000Y-56863257D01*
X157700000Y-56903257D02*
X152280000Y-56903257D01*
X157700000Y-56943257D02*
X152305000Y-56943257D01*
X157700000Y-56983257D02*
X152330000Y-56983257D01*
X157700000Y-57023257D02*
X152355000Y-57023257D01*
X157700000Y-57063257D02*
X152381000Y-57063257D01*
X157700000Y-57103257D02*
X152408000Y-57103257D01*
X157700000Y-57143257D02*
X152434000Y-57143257D01*
X157700000Y-57183257D02*
X152461000Y-57183257D01*
X157700000Y-57223257D02*
X152489000Y-57223257D01*
X157700000Y-57263257D02*
X152516000Y-57263257D01*
X157700000Y-57303257D02*
X152544000Y-57303257D01*
X157700000Y-57343257D02*
X152573000Y-57343257D01*
X157700000Y-57383257D02*
X152601000Y-57383257D01*
X157700000Y-57423257D02*
X152631000Y-57423257D01*
X157700000Y-57463257D02*
X152660000Y-57463257D01*
X157700000Y-57503257D02*
X152690000Y-57503257D01*
X157700000Y-57543257D02*
X152720000Y-57543257D01*
X157700000Y-57583257D02*
X152751000Y-57583257D01*
X157700000Y-57623257D02*
X152782000Y-57623257D01*
X157700000Y-57663257D02*
X152813000Y-57663257D01*
X157700000Y-57703257D02*
X152845000Y-57703257D01*
X157700000Y-57743257D02*
X152878000Y-57743257D01*
X157700000Y-57783257D02*
X152910000Y-57783257D01*
X159905000Y-60703257D02*
X158375000Y-60703257D01*
X160237000Y-60663257D02*
X158043000Y-60663257D01*
X160491000Y-60623257D02*
X157789000Y-60623257D01*
X160704000Y-60583257D02*
X157576000Y-60583257D01*
X160891000Y-60543257D02*
X157389000Y-60543257D01*
X161060000Y-60503257D02*
X157220000Y-60503257D01*
X161214000Y-60463257D02*
X157066000Y-60463257D01*
X161357000Y-60423257D02*
X156923000Y-60423257D01*
X161491000Y-60383257D02*
X156789000Y-60383257D01*
X161617000Y-60343257D02*
X156663000Y-60343257D01*
X161737000Y-60303257D02*
X156543000Y-60303257D01*
X161850000Y-60263257D02*
X156430000Y-60263257D01*
X161959000Y-60223257D02*
X156321000Y-60223257D01*
X162063000Y-60183257D02*
X156217000Y-60183257D01*
X162163000Y-60143257D02*
X156117000Y-60143257D01*
X162260000Y-60103257D02*
X156020000Y-60103257D01*
X162353000Y-60063257D02*
X155927000Y-60063257D01*
X162443000Y-60023257D02*
X155837000Y-60023257D01*
X162530000Y-59983257D02*
X155750000Y-59983257D01*
X162615000Y-59943257D02*
X155665000Y-59943257D01*
X162697000Y-59903257D02*
X155583000Y-59903257D01*
X162777000Y-59863257D02*
X155503000Y-59863257D01*
X162854000Y-59823257D02*
X155426000Y-59823257D01*
X162930000Y-59783257D02*
X155350000Y-59783257D01*
X163004000Y-59743257D02*
X155276000Y-59743257D01*
X163076000Y-59703257D02*
X155204000Y-59703257D01*
X163146000Y-59663257D02*
X155134000Y-59663257D01*
X163215000Y-59623257D02*
X155065000Y-59623257D01*
X163282000Y-59583257D02*
X154998000Y-59583257D01*
X163348000Y-59543257D02*
X154932000Y-59543257D01*
X163413000Y-59503257D02*
X154867000Y-59503257D01*
X163476000Y-59463257D02*
X154804000Y-59463257D01*
X163538000Y-59423257D02*
X154742000Y-59423257D01*
X163599000Y-59383257D02*
X154681000Y-59383257D01*
X163658000Y-59343257D02*
X154622000Y-59343257D01*
X163695000Y-43933766D02*
X163695000Y-45533766D01*
X163716000Y-59303257D02*
X154564000Y-59303257D01*
X163774000Y-59263257D02*
X154506000Y-59263257D01*
X163830000Y-59223257D02*
X154450000Y-59223257D01*
X163885000Y-59183257D02*
X154395000Y-59183257D01*
X163940000Y-59143257D02*
X154340000Y-59143257D01*
X163993000Y-59103257D02*
X154287000Y-59103257D01*
X164046000Y-59063257D02*
X154234000Y-59063257D01*
X164097000Y-59023257D02*
X154183000Y-59023257D01*
X164148000Y-58983257D02*
X154132000Y-58983257D01*
X164198000Y-58943257D02*
X154082000Y-58943257D01*
X164247000Y-58903257D02*
X154033000Y-58903257D01*
X164296000Y-58863257D02*
X153984000Y-58863257D01*
X164344000Y-58823257D02*
X153936000Y-58823257D01*
X164390000Y-58783257D02*
X153890000Y-58783257D01*
X164437000Y-58743257D02*
X153843000Y-58743257D01*
X164482000Y-58703257D02*
X153798000Y-58703257D01*
X164495000Y-44733766D02*
X162895000Y-44733766D01*
X164527000Y-58663257D02*
X153753000Y-58663257D01*
X164571000Y-58623257D02*
X153709000Y-58623257D01*
X164615000Y-58583257D02*
X153665000Y-58583257D01*
X164658000Y-58543257D02*
X153622000Y-58543257D01*
X164700000Y-58503257D02*
X153580000Y-58503257D01*
X164742000Y-58463257D02*
X153538000Y-58463257D01*
X164783000Y-58423257D02*
X153497000Y-58423257D01*
X164823000Y-58383257D02*
X153457000Y-58383257D01*
X164863000Y-58343257D02*
X153417000Y-58343257D01*
X164903000Y-58303257D02*
X153377000Y-58303257D01*
X164942000Y-58263257D02*
X153338000Y-58263257D01*
X164980000Y-58223257D02*
X153300000Y-58223257D01*
X165018000Y-58183257D02*
X153262000Y-58183257D01*
X165055000Y-58143257D02*
X153225000Y-58143257D01*
X165092000Y-58103257D02*
X153188000Y-58103257D01*
X165128000Y-58063257D02*
X153152000Y-58063257D01*
X165164000Y-58023257D02*
X153116000Y-58023257D01*
X165200000Y-57983257D02*
X153080000Y-57983257D01*
X165234000Y-57943257D02*
X153046000Y-57943257D01*
X165269000Y-57903257D02*
X153011000Y-57903257D01*
X165303000Y-57863257D02*
X152977000Y-57863257D01*
X165337000Y-57823257D02*
X152943000Y-57823257D01*
X165370000Y-57783257D02*
X160580000Y-57783257D01*
X165402000Y-57743257D02*
X160580000Y-57743257D01*
X165435000Y-57703257D02*
X160580000Y-57703257D01*
X165467000Y-57663257D02*
X160580000Y-57663257D01*
X165498000Y-57623257D02*
X160580000Y-57623257D01*
X165529000Y-57583257D02*
X160580000Y-57583257D01*
X165560000Y-57543257D02*
X160580000Y-57543257D01*
X165590000Y-57503257D02*
X160580000Y-57503257D01*
X165620000Y-57463257D02*
X160580000Y-57463257D01*
X165649000Y-57423257D02*
X160580000Y-57423257D01*
X165679000Y-57383257D02*
X160580000Y-57383257D01*
X165707000Y-57343257D02*
X160580000Y-57343257D01*
X165736000Y-57303257D02*
X160580000Y-57303257D01*
X165764000Y-57263257D02*
X160580000Y-57263257D01*
X165791000Y-57223257D02*
X160580000Y-57223257D01*
X165819000Y-57183257D02*
X160580000Y-57183257D01*
X165846000Y-57143257D02*
X160580000Y-57143257D01*
X165872000Y-57103257D02*
X160580000Y-57103257D01*
X165899000Y-57063257D02*
X160580000Y-57063257D01*
X165925000Y-57023257D02*
X160580000Y-57023257D01*
X165950000Y-56983257D02*
X160580000Y-56983257D01*
X165975000Y-56943257D02*
X160580000Y-56943257D01*
X166000000Y-56903257D02*
X160580000Y-56903257D01*
X166025000Y-56863257D02*
X160580000Y-56863257D01*
X166049000Y-56823257D02*
X160580000Y-56823257D01*
X166073000Y-56783257D02*
X160580000Y-56783257D01*
X166097000Y-56743257D02*
X160580000Y-56743257D01*
X166121000Y-56703257D02*
X160580000Y-56703257D01*
X166144000Y-56663257D02*
X160580000Y-56663257D01*
X166166000Y-56623257D02*
X160580000Y-56623257D01*
X166189000Y-56583257D02*
X160580000Y-56583257D01*
X166211000Y-56543257D02*
X160580000Y-56543257D01*
X166233000Y-56503257D02*
X160580000Y-56503257D01*
X166255000Y-56463257D02*
X160580000Y-56463257D01*
X166276000Y-56423257D02*
X160580000Y-56423257D01*
X166297000Y-56383257D02*
X160580000Y-56383257D01*
X166318000Y-56343257D02*
X160580000Y-56343257D01*
X166338000Y-56303257D02*
X160580000Y-56303257D01*
X166358000Y-56263257D02*
X160580000Y-56263257D01*
X166378000Y-56223257D02*
X160580000Y-56223257D01*
X166398000Y-56183257D02*
X160580000Y-56183257D01*
X166417000Y-56143257D02*
X160580000Y-56143257D01*
X166436000Y-56103257D02*
X160580000Y-56103257D01*
X166455000Y-56063257D02*
X160580000Y-56063257D01*
X166474000Y-56023257D02*
X160580000Y-56023257D01*
X166492000Y-55983257D02*
X160580000Y-55983257D01*
X166510000Y-55943257D02*
X160580000Y-55943257D01*
X166528000Y-55903257D02*
X160580000Y-55903257D01*
X166546000Y-55863257D02*
X160580000Y-55863257D01*
X166563000Y-55823257D02*
X160580000Y-55823257D01*
X166580000Y-55783257D02*
X160580000Y-55783257D01*
X166597000Y-55743257D02*
X160580000Y-55743257D01*
X166613000Y-55703257D02*
X160580000Y-55703257D01*
X166629000Y-55663257D02*
X160580000Y-55663257D01*
X166645000Y-55623257D02*
X160580000Y-55623257D01*
X166661000Y-55583257D02*
X160580000Y-55583257D01*
X166677000Y-55543257D02*
X160580000Y-55543257D01*
X166692000Y-55503257D02*
X160580000Y-55503257D01*
X166707000Y-55463257D02*
X160580000Y-55463257D01*
X166722000Y-55423257D02*
X160580000Y-55423257D01*
X166737000Y-55383257D02*
X160580000Y-55383257D01*
X166751000Y-55343257D02*
X160580000Y-55343257D01*
X166765000Y-55303257D02*
X160580000Y-55303257D01*
X166779000Y-55263257D02*
X160580000Y-55263257D01*
X166792000Y-55223257D02*
X160580000Y-55223257D01*
X166806000Y-55183257D02*
X160580000Y-55183257D01*
X166819000Y-55143257D02*
X160580000Y-55143257D01*
X166832000Y-55103257D02*
X160580000Y-55103257D01*
X166845000Y-55063257D02*
X160580000Y-55063257D01*
X166857000Y-55023257D02*
X160580000Y-55023257D01*
X166869000Y-54983257D02*
X160580000Y-54983257D01*
X166882000Y-54943257D02*
X160580000Y-54943257D01*
X166893000Y-54903257D02*
X151387000Y-54903257D01*
X166905000Y-54863257D02*
X151375000Y-54863257D01*
X166916000Y-54823257D02*
X151364000Y-54823257D01*
X166927000Y-54783257D02*
X151353000Y-54783257D01*
X166938000Y-54743257D02*
X151342000Y-54743257D01*
X166949000Y-54703257D02*
X151331000Y-54703257D01*
X166960000Y-54663257D02*
X151320000Y-54663257D01*
X166970000Y-54623257D02*
X151310000Y-54623257D01*
X166980000Y-54583257D02*
X151300000Y-54583257D01*
X166990000Y-54543257D02*
X151290000Y-54543257D01*
X166999000Y-54503257D02*
X151281000Y-54503257D01*
X167009000Y-54463257D02*
X151271000Y-54463257D01*
X167018000Y-54423257D02*
X151262000Y-54423257D01*
X167027000Y-54383257D02*
X151253000Y-54383257D01*
X167036000Y-54343257D02*
X151244000Y-54343257D01*
X167044000Y-54303257D02*
X151236000Y-54303257D01*
X167053000Y-54263257D02*
X151227000Y-54263257D01*
X167061000Y-54223257D02*
X151219000Y-54223257D01*
X167069000Y-54183257D02*
X151211000Y-54183257D01*
X167076000Y-54143257D02*
X151204000Y-54143257D01*
X167084000Y-54103257D02*
X151196000Y-54103257D01*
X167091000Y-54063257D02*
X151189000Y-54063257D01*
X167098000Y-54023257D02*
X151182000Y-54023257D01*
X167105000Y-53983257D02*
X151175000Y-53983257D01*
X167112000Y-53943257D02*
X151168000Y-53943257D01*
X167118000Y-53903257D02*
X151162000Y-53903257D01*
X167125000Y-53863257D02*
X151155000Y-53863257D01*
X167131000Y-53823257D02*
X151149000Y-53823257D01*
X167137000Y-53783257D02*
X151143000Y-53783257D01*
X167142000Y-53743257D02*
X151138000Y-53743257D01*
X167148000Y-53703257D02*
X151132000Y-53703257D01*
X167153000Y-53663257D02*
X151127000Y-53663257D01*
X167158000Y-53623257D02*
X151122000Y-53623257D01*
X167163000Y-53583257D02*
X151117000Y-53583257D01*
X167168000Y-53543257D02*
X151112000Y-53543257D01*
X167172000Y-53503257D02*
X151108000Y-53503257D01*
X167176000Y-53463257D02*
X151104000Y-53463257D01*
X167180000Y-53423257D02*
X151100000Y-53423257D01*
X167184000Y-53383257D02*
X151096000Y-53383257D01*
X167188000Y-53343257D02*
X151092000Y-53343257D01*
X167191000Y-53303257D02*
X151089000Y-53303257D01*
X167195000Y-53263257D02*
X151085000Y-53263257D01*
X167198000Y-53223257D02*
X151082000Y-53223257D01*
X167201000Y-53183257D02*
X151079000Y-53183257D01*
X167203000Y-53143257D02*
X151077000Y-53143257D01*
X167206000Y-53103257D02*
X151074000Y-53103257D01*
X167208000Y-53063257D02*
X151072000Y-53063257D01*
X167210000Y-53023257D02*
X151070000Y-53023257D01*
X167212000Y-52983257D02*
X151068000Y-52983257D01*
X167214000Y-52943257D02*
X151066000Y-52943257D01*
X167215000Y-52903257D02*
X151065000Y-52903257D01*
X167216000Y-52863257D02*
X151064000Y-52863257D01*
X167218000Y-52783257D02*
X151062000Y-52783257D01*
X167218000Y-52823257D02*
X151062000Y-52823257D01*
X167219000Y-52743257D02*
X151061000Y-52743257D01*
X167220000Y-52623257D02*
X151060000Y-52623257D01*
X167220000Y-52663257D02*
X151060000Y-52663257D01*
X167220000Y-52703257D02*
X151060000Y-52703257D01*
X167260000Y-52623257D02*
G75*
G02*
X151020000Y-52623257I-8120000J0D01*
G01*
X151020000Y-52623257D02*
G75*
G02*
X167260000Y-52623257I8120000J0D01*
G01*
%TO.C,R26*%
X150430000Y-44750321D02*
X150430000Y-43296193D01*
X152250000Y-44750321D02*
X152250000Y-43296193D01*
%TO.C,C28*%
X159550000Y-32543257D02*
X153248000Y-32543257D01*
X159550000Y-32583257D02*
X153261000Y-32583257D01*
X159550000Y-32623257D02*
X153273000Y-32623257D01*
X159550000Y-32663257D02*
X153285000Y-32663257D01*
X159550000Y-32703257D02*
X153298000Y-32703257D01*
X159550000Y-32743257D02*
X153311000Y-32743257D01*
X159550000Y-32783257D02*
X153324000Y-32783257D01*
X159550000Y-32823257D02*
X153338000Y-32823257D01*
X159550000Y-32863257D02*
X153351000Y-32863257D01*
X159550000Y-32903257D02*
X153365000Y-32903257D01*
X159550000Y-32943257D02*
X153379000Y-32943257D01*
X159550000Y-32983257D02*
X153393000Y-32983257D01*
X159550000Y-33023257D02*
X153408000Y-33023257D01*
X159550000Y-33063257D02*
X153423000Y-33063257D01*
X159550000Y-33103257D02*
X153438000Y-33103257D01*
X159550000Y-33143257D02*
X153453000Y-33143257D01*
X159550000Y-33183257D02*
X153469000Y-33183257D01*
X159550000Y-33223257D02*
X153485000Y-33223257D01*
X159550000Y-33263257D02*
X153501000Y-33263257D01*
X159550000Y-33303257D02*
X153517000Y-33303257D01*
X159550000Y-33343257D02*
X153533000Y-33343257D01*
X159550000Y-33383257D02*
X153550000Y-33383257D01*
X159550000Y-33423257D02*
X153567000Y-33423257D01*
X159550000Y-33463257D02*
X153584000Y-33463257D01*
X159550000Y-33503257D02*
X153602000Y-33503257D01*
X159550000Y-33543257D02*
X153620000Y-33543257D01*
X159550000Y-33583257D02*
X153638000Y-33583257D01*
X159550000Y-33623257D02*
X153656000Y-33623257D01*
X159550000Y-33663257D02*
X153675000Y-33663257D01*
X159550000Y-33703257D02*
X153694000Y-33703257D01*
X159550000Y-33743257D02*
X153713000Y-33743257D01*
X159550000Y-33783257D02*
X153732000Y-33783257D01*
X159550000Y-33823257D02*
X153752000Y-33823257D01*
X159550000Y-33863257D02*
X153772000Y-33863257D01*
X159550000Y-33903257D02*
X153792000Y-33903257D01*
X159550000Y-33943257D02*
X153812000Y-33943257D01*
X159550000Y-33983257D02*
X153833000Y-33983257D01*
X159550000Y-34023257D02*
X153854000Y-34023257D01*
X159550000Y-34063257D02*
X153875000Y-34063257D01*
X159550000Y-34103257D02*
X153897000Y-34103257D01*
X159550000Y-34143257D02*
X153919000Y-34143257D01*
X159550000Y-34183257D02*
X153941000Y-34183257D01*
X159550000Y-34223257D02*
X153964000Y-34223257D01*
X159550000Y-34263257D02*
X153986000Y-34263257D01*
X159550000Y-34303257D02*
X154009000Y-34303257D01*
X159550000Y-34343257D02*
X154033000Y-34343257D01*
X159550000Y-34383257D02*
X154057000Y-34383257D01*
X159550000Y-34423257D02*
X154081000Y-34423257D01*
X159550000Y-34463257D02*
X154105000Y-34463257D01*
X159550000Y-34503257D02*
X154130000Y-34503257D01*
X159550000Y-34543257D02*
X154155000Y-34543257D01*
X159550000Y-34583257D02*
X154180000Y-34583257D01*
X159550000Y-34623257D02*
X154205000Y-34623257D01*
X159550000Y-34663257D02*
X154231000Y-34663257D01*
X159550000Y-34703257D02*
X154258000Y-34703257D01*
X159550000Y-34743257D02*
X154284000Y-34743257D01*
X159550000Y-34783257D02*
X154311000Y-34783257D01*
X159550000Y-34823257D02*
X154339000Y-34823257D01*
X159550000Y-34863257D02*
X154366000Y-34863257D01*
X159550000Y-34903257D02*
X154394000Y-34903257D01*
X159550000Y-34943257D02*
X154423000Y-34943257D01*
X159550000Y-34983257D02*
X154451000Y-34983257D01*
X159550000Y-35023257D02*
X154481000Y-35023257D01*
X159550000Y-35063257D02*
X154510000Y-35063257D01*
X159550000Y-35103257D02*
X154540000Y-35103257D01*
X159550000Y-35143257D02*
X154570000Y-35143257D01*
X159550000Y-35183257D02*
X154601000Y-35183257D01*
X159550000Y-35223257D02*
X154632000Y-35223257D01*
X159550000Y-35263257D02*
X154663000Y-35263257D01*
X159550000Y-35303257D02*
X154695000Y-35303257D01*
X159550000Y-35343257D02*
X154728000Y-35343257D01*
X159550000Y-35383257D02*
X154760000Y-35383257D01*
X161755000Y-38303257D02*
X160225000Y-38303257D01*
X162087000Y-38263257D02*
X159893000Y-38263257D01*
X162341000Y-38223257D02*
X159639000Y-38223257D01*
X162554000Y-38183257D02*
X159426000Y-38183257D01*
X162741000Y-38143257D02*
X159239000Y-38143257D01*
X162910000Y-38103257D02*
X159070000Y-38103257D01*
X163064000Y-38063257D02*
X158916000Y-38063257D01*
X163207000Y-38023257D02*
X158773000Y-38023257D01*
X163341000Y-37983257D02*
X158639000Y-37983257D01*
X163467000Y-37943257D02*
X158513000Y-37943257D01*
X163587000Y-37903257D02*
X158393000Y-37903257D01*
X163700000Y-37863257D02*
X158280000Y-37863257D01*
X163809000Y-37823257D02*
X158171000Y-37823257D01*
X163913000Y-37783257D02*
X158067000Y-37783257D01*
X164013000Y-37743257D02*
X157967000Y-37743257D01*
X164110000Y-37703257D02*
X157870000Y-37703257D01*
X164203000Y-37663257D02*
X157777000Y-37663257D01*
X164293000Y-37623257D02*
X157687000Y-37623257D01*
X164380000Y-37583257D02*
X157600000Y-37583257D01*
X164465000Y-37543257D02*
X157515000Y-37543257D01*
X164547000Y-37503257D02*
X157433000Y-37503257D01*
X164627000Y-37463257D02*
X157353000Y-37463257D01*
X164704000Y-37423257D02*
X157276000Y-37423257D01*
X164780000Y-37383257D02*
X157200000Y-37383257D01*
X164854000Y-37343257D02*
X157126000Y-37343257D01*
X164926000Y-37303257D02*
X157054000Y-37303257D01*
X164996000Y-37263257D02*
X156984000Y-37263257D01*
X165065000Y-37223257D02*
X156915000Y-37223257D01*
X165132000Y-37183257D02*
X156848000Y-37183257D01*
X165198000Y-37143257D02*
X156782000Y-37143257D01*
X165263000Y-37103257D02*
X156717000Y-37103257D01*
X165326000Y-37063257D02*
X156654000Y-37063257D01*
X165388000Y-37023257D02*
X156592000Y-37023257D01*
X165449000Y-36983257D02*
X156531000Y-36983257D01*
X165508000Y-36943257D02*
X156472000Y-36943257D01*
X165545000Y-21533766D02*
X165545000Y-23133766D01*
X165566000Y-36903257D02*
X156414000Y-36903257D01*
X165624000Y-36863257D02*
X156356000Y-36863257D01*
X165680000Y-36823257D02*
X156300000Y-36823257D01*
X165735000Y-36783257D02*
X156245000Y-36783257D01*
X165790000Y-36743257D02*
X156190000Y-36743257D01*
X165843000Y-36703257D02*
X156137000Y-36703257D01*
X165896000Y-36663257D02*
X156084000Y-36663257D01*
X165947000Y-36623257D02*
X156033000Y-36623257D01*
X165998000Y-36583257D02*
X155982000Y-36583257D01*
X166048000Y-36543257D02*
X155932000Y-36543257D01*
X166097000Y-36503257D02*
X155883000Y-36503257D01*
X166146000Y-36463257D02*
X155834000Y-36463257D01*
X166194000Y-36423257D02*
X155786000Y-36423257D01*
X166240000Y-36383257D02*
X155740000Y-36383257D01*
X166287000Y-36343257D02*
X155693000Y-36343257D01*
X166332000Y-36303257D02*
X155648000Y-36303257D01*
X166345000Y-22333766D02*
X164745000Y-22333766D01*
X166377000Y-36263257D02*
X155603000Y-36263257D01*
X166421000Y-36223257D02*
X155559000Y-36223257D01*
X166465000Y-36183257D02*
X155515000Y-36183257D01*
X166508000Y-36143257D02*
X155472000Y-36143257D01*
X166550000Y-36103257D02*
X155430000Y-36103257D01*
X166592000Y-36063257D02*
X155388000Y-36063257D01*
X166633000Y-36023257D02*
X155347000Y-36023257D01*
X166673000Y-35983257D02*
X155307000Y-35983257D01*
X166713000Y-35943257D02*
X155267000Y-35943257D01*
X166753000Y-35903257D02*
X155227000Y-35903257D01*
X166792000Y-35863257D02*
X155188000Y-35863257D01*
X166830000Y-35823257D02*
X155150000Y-35823257D01*
X166868000Y-35783257D02*
X155112000Y-35783257D01*
X166905000Y-35743257D02*
X155075000Y-35743257D01*
X166942000Y-35703257D02*
X155038000Y-35703257D01*
X166978000Y-35663257D02*
X155002000Y-35663257D01*
X167014000Y-35623257D02*
X154966000Y-35623257D01*
X167050000Y-35583257D02*
X154930000Y-35583257D01*
X167084000Y-35543257D02*
X154896000Y-35543257D01*
X167119000Y-35503257D02*
X154861000Y-35503257D01*
X167153000Y-35463257D02*
X154827000Y-35463257D01*
X167187000Y-35423257D02*
X154793000Y-35423257D01*
X167220000Y-35383257D02*
X162430000Y-35383257D01*
X167252000Y-35343257D02*
X162430000Y-35343257D01*
X167285000Y-35303257D02*
X162430000Y-35303257D01*
X167317000Y-35263257D02*
X162430000Y-35263257D01*
X167348000Y-35223257D02*
X162430000Y-35223257D01*
X167379000Y-35183257D02*
X162430000Y-35183257D01*
X167410000Y-35143257D02*
X162430000Y-35143257D01*
X167440000Y-35103257D02*
X162430000Y-35103257D01*
X167470000Y-35063257D02*
X162430000Y-35063257D01*
X167499000Y-35023257D02*
X162430000Y-35023257D01*
X167529000Y-34983257D02*
X162430000Y-34983257D01*
X167557000Y-34943257D02*
X162430000Y-34943257D01*
X167586000Y-34903257D02*
X162430000Y-34903257D01*
X167614000Y-34863257D02*
X162430000Y-34863257D01*
X167641000Y-34823257D02*
X162430000Y-34823257D01*
X167669000Y-34783257D02*
X162430000Y-34783257D01*
X167696000Y-34743257D02*
X162430000Y-34743257D01*
X167722000Y-34703257D02*
X162430000Y-34703257D01*
X167749000Y-34663257D02*
X162430000Y-34663257D01*
X167775000Y-34623257D02*
X162430000Y-34623257D01*
X167800000Y-34583257D02*
X162430000Y-34583257D01*
X167825000Y-34543257D02*
X162430000Y-34543257D01*
X167850000Y-34503257D02*
X162430000Y-34503257D01*
X167875000Y-34463257D02*
X162430000Y-34463257D01*
X167899000Y-34423257D02*
X162430000Y-34423257D01*
X167923000Y-34383257D02*
X162430000Y-34383257D01*
X167947000Y-34343257D02*
X162430000Y-34343257D01*
X167971000Y-34303257D02*
X162430000Y-34303257D01*
X167994000Y-34263257D02*
X162430000Y-34263257D01*
X168016000Y-34223257D02*
X162430000Y-34223257D01*
X168039000Y-34183257D02*
X162430000Y-34183257D01*
X168061000Y-34143257D02*
X162430000Y-34143257D01*
X168083000Y-34103257D02*
X162430000Y-34103257D01*
X168105000Y-34063257D02*
X162430000Y-34063257D01*
X168126000Y-34023257D02*
X162430000Y-34023257D01*
X168147000Y-33983257D02*
X162430000Y-33983257D01*
X168168000Y-33943257D02*
X162430000Y-33943257D01*
X168188000Y-33903257D02*
X162430000Y-33903257D01*
X168208000Y-33863257D02*
X162430000Y-33863257D01*
X168228000Y-33823257D02*
X162430000Y-33823257D01*
X168248000Y-33783257D02*
X162430000Y-33783257D01*
X168267000Y-33743257D02*
X162430000Y-33743257D01*
X168286000Y-33703257D02*
X162430000Y-33703257D01*
X168305000Y-33663257D02*
X162430000Y-33663257D01*
X168324000Y-33623257D02*
X162430000Y-33623257D01*
X168342000Y-33583257D02*
X162430000Y-33583257D01*
X168360000Y-33543257D02*
X162430000Y-33543257D01*
X168378000Y-33503257D02*
X162430000Y-33503257D01*
X168396000Y-33463257D02*
X162430000Y-33463257D01*
X168413000Y-33423257D02*
X162430000Y-33423257D01*
X168430000Y-33383257D02*
X162430000Y-33383257D01*
X168447000Y-33343257D02*
X162430000Y-33343257D01*
X168463000Y-33303257D02*
X162430000Y-33303257D01*
X168479000Y-33263257D02*
X162430000Y-33263257D01*
X168495000Y-33223257D02*
X162430000Y-33223257D01*
X168511000Y-33183257D02*
X162430000Y-33183257D01*
X168527000Y-33143257D02*
X162430000Y-33143257D01*
X168542000Y-33103257D02*
X162430000Y-33103257D01*
X168557000Y-33063257D02*
X162430000Y-33063257D01*
X168572000Y-33023257D02*
X162430000Y-33023257D01*
X168587000Y-32983257D02*
X162430000Y-32983257D01*
X168601000Y-32943257D02*
X162430000Y-32943257D01*
X168615000Y-32903257D02*
X162430000Y-32903257D01*
X168629000Y-32863257D02*
X162430000Y-32863257D01*
X168642000Y-32823257D02*
X162430000Y-32823257D01*
X168656000Y-32783257D02*
X162430000Y-32783257D01*
X168669000Y-32743257D02*
X162430000Y-32743257D01*
X168682000Y-32703257D02*
X162430000Y-32703257D01*
X168695000Y-32663257D02*
X162430000Y-32663257D01*
X168707000Y-32623257D02*
X162430000Y-32623257D01*
X168719000Y-32583257D02*
X162430000Y-32583257D01*
X168732000Y-32543257D02*
X162430000Y-32543257D01*
X168743000Y-32503257D02*
X153237000Y-32503257D01*
X168755000Y-32463257D02*
X153225000Y-32463257D01*
X168766000Y-32423257D02*
X153214000Y-32423257D01*
X168777000Y-32383257D02*
X153203000Y-32383257D01*
X168788000Y-32343257D02*
X153192000Y-32343257D01*
X168799000Y-32303257D02*
X153181000Y-32303257D01*
X168810000Y-32263257D02*
X153170000Y-32263257D01*
X168820000Y-32223257D02*
X153160000Y-32223257D01*
X168830000Y-32183257D02*
X153150000Y-32183257D01*
X168840000Y-32143257D02*
X153140000Y-32143257D01*
X168849000Y-32103257D02*
X153131000Y-32103257D01*
X168859000Y-32063257D02*
X153121000Y-32063257D01*
X168868000Y-32023257D02*
X153112000Y-32023257D01*
X168877000Y-31983257D02*
X153103000Y-31983257D01*
X168886000Y-31943257D02*
X153094000Y-31943257D01*
X168894000Y-31903257D02*
X153086000Y-31903257D01*
X168903000Y-31863257D02*
X153077000Y-31863257D01*
X168911000Y-31823257D02*
X153069000Y-31823257D01*
X168919000Y-31783257D02*
X153061000Y-31783257D01*
X168926000Y-31743257D02*
X153054000Y-31743257D01*
X168934000Y-31703257D02*
X153046000Y-31703257D01*
X168941000Y-31663257D02*
X153039000Y-31663257D01*
X168948000Y-31623257D02*
X153032000Y-31623257D01*
X168955000Y-31583257D02*
X153025000Y-31583257D01*
X168962000Y-31543257D02*
X153018000Y-31543257D01*
X168968000Y-31503257D02*
X153012000Y-31503257D01*
X168975000Y-31463257D02*
X153005000Y-31463257D01*
X168981000Y-31423257D02*
X152999000Y-31423257D01*
X168987000Y-31383257D02*
X152993000Y-31383257D01*
X168992000Y-31343257D02*
X152988000Y-31343257D01*
X168998000Y-31303257D02*
X152982000Y-31303257D01*
X169003000Y-31263257D02*
X152977000Y-31263257D01*
X169008000Y-31223257D02*
X152972000Y-31223257D01*
X169013000Y-31183257D02*
X152967000Y-31183257D01*
X169018000Y-31143257D02*
X152962000Y-31143257D01*
X169022000Y-31103257D02*
X152958000Y-31103257D01*
X169026000Y-31063257D02*
X152954000Y-31063257D01*
X169030000Y-31023257D02*
X152950000Y-31023257D01*
X169034000Y-30983257D02*
X152946000Y-30983257D01*
X169038000Y-30943257D02*
X152942000Y-30943257D01*
X169041000Y-30903257D02*
X152939000Y-30903257D01*
X169045000Y-30863257D02*
X152935000Y-30863257D01*
X169048000Y-30823257D02*
X152932000Y-30823257D01*
X169051000Y-30783257D02*
X152929000Y-30783257D01*
X169053000Y-30743257D02*
X152927000Y-30743257D01*
X169056000Y-30703257D02*
X152924000Y-30703257D01*
X169058000Y-30663257D02*
X152922000Y-30663257D01*
X169060000Y-30623257D02*
X152920000Y-30623257D01*
X169062000Y-30583257D02*
X152918000Y-30583257D01*
X169064000Y-30543257D02*
X152916000Y-30543257D01*
X169065000Y-30503257D02*
X152915000Y-30503257D01*
X169066000Y-30463257D02*
X152914000Y-30463257D01*
X169068000Y-30383257D02*
X152912000Y-30383257D01*
X169068000Y-30423257D02*
X152912000Y-30423257D01*
X169069000Y-30343257D02*
X152911000Y-30343257D01*
X169070000Y-30223257D02*
X152910000Y-30223257D01*
X169070000Y-30263257D02*
X152910000Y-30263257D01*
X169070000Y-30303257D02*
X152910000Y-30303257D01*
X169110000Y-30223257D02*
G75*
G02*
X152870000Y-30223257I-8120000J0D01*
G01*
X152870000Y-30223257D02*
G75*
G02*
X169110000Y-30223257I8120000J0D01*
G01*
%TO.C,J11*%
X166970000Y-36833257D02*
X177010000Y-36833257D01*
X166970000Y-47233257D02*
X166970000Y-36833257D01*
X169990000Y-47233257D02*
X169990000Y-36833257D01*
X174890000Y-47233257D02*
X174890000Y-36833257D01*
X176390000Y-47233257D02*
X176390000Y-36833257D01*
X177010000Y-36833257D02*
X177010000Y-44273257D01*
X177010000Y-44873257D02*
X177010000Y-47233257D01*
X177010000Y-47233257D02*
X166970000Y-47233257D01*
X177620000Y-45013257D02*
X177010000Y-44573257D01*
X177620000Y-44133257D01*
X177620000Y-45013257D01*
G36*
X177620000Y-45013257D02*
G01*
X177010000Y-44573257D01*
X177620000Y-44133257D01*
X177620000Y-45013257D01*
G37*
%TO.C,J9*%
X135980000Y-22153257D02*
X148500000Y-22153257D01*
X135980000Y-32193257D02*
X135980000Y-22153257D01*
X149100000Y-22153257D02*
X151460000Y-22153257D01*
X151460000Y-22153257D02*
X151460000Y-32193257D01*
X151460000Y-22773257D02*
X135980000Y-22773257D01*
X151460000Y-24273257D02*
X135980000Y-24273257D01*
X151460000Y-29173257D02*
X135980000Y-29173257D01*
X151460000Y-32193257D02*
X135980000Y-32193257D01*
X148800000Y-22153257D02*
X148360000Y-21543257D01*
X149240000Y-21543257D01*
X148800000Y-22153257D01*
G36*
X148800000Y-22153257D02*
G01*
X148360000Y-21543257D01*
X149240000Y-21543257D01*
X148800000Y-22153257D01*
G37*
%TO.C,R25*%
X134080000Y-41250321D02*
X134080000Y-39796193D01*
X135900000Y-41250321D02*
X135900000Y-39796193D01*
%TD*%
%LPC*%
D13*
%TO.C,H10*%
X175840000Y-23473257D03*
%TD*%
D14*
%TO.C,C26*%
X133140000Y-54823257D03*
X128140000Y-54823257D03*
%TD*%
%TO.C,C24*%
X131990000Y-26423257D03*
X126990000Y-26423257D03*
%TD*%
D15*
%TO.C,R28*%
X154590000Y-42573257D03*
X157690000Y-42573257D03*
%TD*%
D16*
%TO.C,C25*%
X128890000Y-30423257D03*
D14*
X128890000Y-32423257D03*
%TD*%
D17*
%TO.C,C27*%
X130590000Y-49923257D03*
D14*
X130590000Y-47923257D03*
%TD*%
D18*
%TO.C,J10*%
X124640000Y-37673257D03*
D19*
X124640000Y-42753257D03*
%TD*%
D20*
%TO.C,AMP1*%
X139270000Y-39953257D03*
D14*
X139270000Y-42493257D03*
X139270000Y-45033257D03*
X139270000Y-47573257D03*
X146890000Y-47573257D03*
X146890000Y-45033257D03*
X146890000Y-42493257D03*
X146890000Y-39953257D03*
%TD*%
D15*
%TO.C,R27*%
X141540000Y-35523257D03*
X144640000Y-35523257D03*
%TD*%
D13*
%TO.C,H9*%
X121190000Y-23473257D03*
%TD*%
D21*
%TO.C,C29*%
X159140000Y-48873257D03*
D22*
X159140000Y-56373257D03*
%TD*%
D23*
%TO.C,R26*%
X151340000Y-45573257D03*
X151340000Y-42473257D03*
%TD*%
D21*
%TO.C,C28*%
X160990000Y-26473257D03*
D22*
X160990000Y-33973257D03*
%TD*%
D13*
%TO.C,H12*%
X121190000Y-58023257D03*
%TD*%
%TO.C,H11*%
X175790000Y-58023257D03*
%TD*%
D24*
%TO.C,J11*%
X172290000Y-44573257D03*
D19*
X172290000Y-39493257D03*
%TD*%
D25*
%TO.C,J9*%
X148800000Y-26873257D03*
D19*
X143720000Y-26873257D03*
X138640000Y-26873257D03*
%TD*%
D23*
%TO.C,R25*%
X134990000Y-42073257D03*
X134990000Y-38973257D03*
%TD*%
%LPD*%
M02*
