%TF.GenerationSoftware,KiCad,Pcbnew,10.0.1*%
%TF.CreationDate,2026-07-08T01:24:17+09:00*%
%TF.ProjectId,AudioCase_4_amp,41756469-6f43-4617-9365-5f345f616d70,rev?*%
%TF.SameCoordinates,Original*%
%TF.FileFunction,Drillmap*%
%TF.FilePolarity,Positive*%
%FSLAX45Y45*%
G04 Gerber Fmt 4.5, Leading zero omitted, Abs format (unit mm)*
G04 Created by KiCad (PCBNEW 10.0.1) date 2026-07-08 01:24:17*
%MOMM*%
%LPD*%
G01*
G04 APERTURE LIST*
%ADD10C,0.100000*%
%ADD11C,0.200000*%
%ADD12C,0.120000*%
%ADD13C,0.130000*%
%ADD14C,0.320000*%
G04 APERTURE END LIST*
D10*
X11941000Y-2000000D02*
X17759000Y-2000000D01*
X11941000Y-6150000D02*
X11941000Y-2000000D01*
X17759000Y-2000000D02*
X17759000Y-6150000D01*
X17759000Y-6150000D02*
X11941000Y-6150000D01*
D11*
D10*
X13314000Y-3552326D02*
X13344000Y-3582326D01*
X13344000Y-3552326D02*
X13314000Y-3582326D01*
X12919000Y-2637326D02*
G75*
G02*
X12839000Y-2637326I-40000J0D01*
G01*
X12839000Y-2637326D02*
G75*
G02*
X12919000Y-2637326I40000J0D01*
G01*
X13004000Y-5512326D02*
G75*
G02*
X12924000Y-5512326I-40000J0D01*
G01*
X12924000Y-5512326D02*
G75*
G02*
X13004000Y-5512326I40000J0D01*
G01*
X13084000Y-3047326D02*
G75*
G02*
X13004000Y-3047326I-40000J0D01*
G01*
X13004000Y-3047326D02*
G75*
G02*
X13084000Y-3047326I40000J0D01*
G01*
X13084000Y-3247326D02*
G75*
G02*
X13004000Y-3247326I-40000J0D01*
G01*
X13004000Y-3247326D02*
G75*
G02*
X13084000Y-3247326I40000J0D01*
G01*
X13419000Y-2637326D02*
G75*
G02*
X13339000Y-2637326I-40000J0D01*
G01*
X13339000Y-2637326D02*
G75*
G02*
X13419000Y-2637326I40000J0D01*
G01*
X13434000Y-4882326D02*
G75*
G02*
X13354000Y-4882326I-40000J0D01*
G01*
X13354000Y-4882326D02*
G75*
G02*
X13434000Y-4882326I40000J0D01*
G01*
X13434000Y-5082326D02*
G75*
G02*
X13354000Y-5082326I-40000J0D01*
G01*
X13354000Y-5082326D02*
G75*
G02*
X13434000Y-5082326I40000J0D01*
G01*
X13504000Y-5512326D02*
G75*
G02*
X13424000Y-5512326I-40000J0D01*
G01*
X13424000Y-5512326D02*
G75*
G02*
X13504000Y-5512326I40000J0D01*
G01*
X13943000Y-3851326D02*
G75*
G02*
X13863000Y-3851326I-40000J0D01*
G01*
X13863000Y-3851326D02*
G75*
G02*
X13943000Y-3851326I40000J0D01*
G01*
X13943000Y-4105326D02*
G75*
G02*
X13863000Y-4105326I-40000J0D01*
G01*
X13863000Y-4105326D02*
G75*
G02*
X13943000Y-4105326I40000J0D01*
G01*
X13943000Y-4359326D02*
G75*
G02*
X13863000Y-4359326I-40000J0D01*
G01*
X13863000Y-4359326D02*
G75*
G02*
X13943000Y-4359326I40000J0D01*
G01*
X13943000Y-4613326D02*
G75*
G02*
X13863000Y-4613326I-40000J0D01*
G01*
X13863000Y-4613326D02*
G75*
G02*
X13943000Y-4613326I40000J0D01*
G01*
X14705000Y-3851326D02*
G75*
G02*
X14625000Y-3851326I-40000J0D01*
G01*
X14625000Y-3851326D02*
G75*
G02*
X14705000Y-3851326I40000J0D01*
G01*
X14705000Y-4105326D02*
G75*
G02*
X14625000Y-4105326I-40000J0D01*
G01*
X14625000Y-4105326D02*
G75*
G02*
X14705000Y-4105326I40000J0D01*
G01*
X14705000Y-4359326D02*
G75*
G02*
X14625000Y-4359326I-40000J0D01*
G01*
X14625000Y-4359326D02*
G75*
G02*
X14705000Y-4359326I40000J0D01*
G01*
X14705000Y-4613326D02*
G75*
G02*
X14625000Y-4613326I-40000J0D01*
G01*
X14625000Y-4613326D02*
G75*
G02*
X14705000Y-4613326I40000J0D01*
G01*
D12*
X15294000Y-5172326D02*
X15294000Y-5292326D01*
X15234000Y-5232326D02*
X15354000Y-5232326D01*
X15874000Y-2852326D02*
X15874000Y-2972326D01*
X15814000Y-2912326D02*
X15934000Y-2912326D01*
X16044000Y-5172326D02*
X16044000Y-5292326D01*
X15984000Y-5232326D02*
X16104000Y-5232326D01*
X16624000Y-2852326D02*
X16624000Y-2972326D01*
X16564000Y-2912326D02*
X16684000Y-2912326D01*
D13*
X12679962Y-3813288D02*
X12679962Y-3721363D01*
X12588038Y-3721363D01*
X12588038Y-3813288D01*
X12679962Y-3813288D01*
X12679962Y-4321288D02*
X12679962Y-4229363D01*
X12588038Y-4229363D01*
X12588038Y-4321288D01*
X12679962Y-4321288D01*
X13953962Y-2718288D02*
X13953962Y-2626363D01*
X13862038Y-2626363D01*
X13862038Y-2718288D01*
X13953962Y-2718288D01*
X14461962Y-2718288D02*
X14461962Y-2626363D01*
X14370038Y-2626363D01*
X14370038Y-2718288D01*
X14461962Y-2718288D01*
X14969962Y-2718288D02*
X14969962Y-2626363D01*
X14878038Y-2626363D01*
X14878038Y-2718288D01*
X14969962Y-2718288D01*
X17089962Y-4128288D02*
X17089962Y-4036363D01*
X16998038Y-4036363D01*
X16998038Y-4128288D01*
X17089962Y-4128288D01*
X17089962Y-4636288D02*
X17089962Y-4544363D01*
X16998038Y-4544363D01*
X16998038Y-4636288D01*
X17089962Y-4636288D01*
D14*
X12289000Y-2507326D02*
X12449000Y-2347326D01*
X12289000Y-2187326D01*
X12129000Y-2347326D01*
X12289000Y-2507326D01*
X12289000Y-5962326D02*
X12449000Y-5802326D01*
X12289000Y-5642326D01*
X12129000Y-5802326D01*
X12289000Y-5962326D01*
X17404000Y-5957326D02*
X17564000Y-5797326D01*
X17404000Y-5637326D01*
X17244000Y-5797326D01*
X17404000Y-5957326D01*
X17414000Y-2502326D02*
X17574000Y-2342326D01*
X17414000Y-2182326D01*
X17254000Y-2342326D01*
X17414000Y-2502326D01*
D11*
X12196777Y-6466484D02*
X12196777Y-6266484D01*
X12196777Y-6266484D02*
X12244396Y-6266484D01*
X12244396Y-6266484D02*
X12272967Y-6276008D01*
X12272967Y-6276008D02*
X12292015Y-6295055D01*
X12292015Y-6295055D02*
X12301539Y-6314103D01*
X12301539Y-6314103D02*
X12311062Y-6352198D01*
X12311062Y-6352198D02*
X12311062Y-6380769D01*
X12311062Y-6380769D02*
X12301539Y-6418865D01*
X12301539Y-6418865D02*
X12292015Y-6437912D01*
X12292015Y-6437912D02*
X12272967Y-6456960D01*
X12272967Y-6456960D02*
X12244396Y-6466484D01*
X12244396Y-6466484D02*
X12196777Y-6466484D01*
X12396777Y-6466484D02*
X12396777Y-6333150D01*
X12396777Y-6371246D02*
X12406301Y-6352198D01*
X12406301Y-6352198D02*
X12415824Y-6342674D01*
X12415824Y-6342674D02*
X12434872Y-6333150D01*
X12434872Y-6333150D02*
X12453920Y-6333150D01*
X12520586Y-6466484D02*
X12520586Y-6333150D01*
X12520586Y-6266484D02*
X12511062Y-6276008D01*
X12511062Y-6276008D02*
X12520586Y-6285531D01*
X12520586Y-6285531D02*
X12530110Y-6276008D01*
X12530110Y-6276008D02*
X12520586Y-6266484D01*
X12520586Y-6266484D02*
X12520586Y-6285531D01*
X12644396Y-6466484D02*
X12625348Y-6456960D01*
X12625348Y-6456960D02*
X12615824Y-6437912D01*
X12615824Y-6437912D02*
X12615824Y-6266484D01*
X12749158Y-6466484D02*
X12730110Y-6456960D01*
X12730110Y-6456960D02*
X12720586Y-6437912D01*
X12720586Y-6437912D02*
X12720586Y-6266484D01*
X12977729Y-6466484D02*
X12977729Y-6266484D01*
X12977729Y-6266484D02*
X13044396Y-6409341D01*
X13044396Y-6409341D02*
X13111062Y-6266484D01*
X13111062Y-6266484D02*
X13111062Y-6466484D01*
X13292015Y-6466484D02*
X13292015Y-6361722D01*
X13292015Y-6361722D02*
X13282491Y-6342674D01*
X13282491Y-6342674D02*
X13263443Y-6333150D01*
X13263443Y-6333150D02*
X13225348Y-6333150D01*
X13225348Y-6333150D02*
X13206301Y-6342674D01*
X13292015Y-6456960D02*
X13272967Y-6466484D01*
X13272967Y-6466484D02*
X13225348Y-6466484D01*
X13225348Y-6466484D02*
X13206301Y-6456960D01*
X13206301Y-6456960D02*
X13196777Y-6437912D01*
X13196777Y-6437912D02*
X13196777Y-6418865D01*
X13196777Y-6418865D02*
X13206301Y-6399817D01*
X13206301Y-6399817D02*
X13225348Y-6390293D01*
X13225348Y-6390293D02*
X13272967Y-6390293D01*
X13272967Y-6390293D02*
X13292015Y-6380769D01*
X13387253Y-6333150D02*
X13387253Y-6533150D01*
X13387253Y-6342674D02*
X13406301Y-6333150D01*
X13406301Y-6333150D02*
X13444396Y-6333150D01*
X13444396Y-6333150D02*
X13463443Y-6342674D01*
X13463443Y-6342674D02*
X13472967Y-6352198D01*
X13472967Y-6352198D02*
X13482491Y-6371246D01*
X13482491Y-6371246D02*
X13482491Y-6428388D01*
X13482491Y-6428388D02*
X13472967Y-6447436D01*
X13472967Y-6447436D02*
X13463443Y-6456960D01*
X13463443Y-6456960D02*
X13444396Y-6466484D01*
X13444396Y-6466484D02*
X13406301Y-6466484D01*
X13406301Y-6466484D02*
X13387253Y-6456960D01*
X13568205Y-6447436D02*
X13577729Y-6456960D01*
X13577729Y-6456960D02*
X13568205Y-6466484D01*
X13568205Y-6466484D02*
X13558682Y-6456960D01*
X13558682Y-6456960D02*
X13568205Y-6447436D01*
X13568205Y-6447436D02*
X13568205Y-6466484D01*
X13568205Y-6342674D02*
X13577729Y-6352198D01*
X13577729Y-6352198D02*
X13568205Y-6361722D01*
X13568205Y-6361722D02*
X13558682Y-6352198D01*
X13558682Y-6352198D02*
X13568205Y-6342674D01*
X13568205Y-6342674D02*
X13568205Y-6361722D01*
D10*
X11906000Y-6780000D02*
X11936000Y-6810000D01*
X11936000Y-6780000D02*
X11906000Y-6810000D01*
D11*
X12234872Y-6686484D02*
X12253920Y-6686484D01*
X12253920Y-6686484D02*
X12272967Y-6696008D01*
X12272967Y-6696008D02*
X12282491Y-6705531D01*
X12282491Y-6705531D02*
X12292015Y-6724579D01*
X12292015Y-6724579D02*
X12301539Y-6762674D01*
X12301539Y-6762674D02*
X12301539Y-6810293D01*
X12301539Y-6810293D02*
X12292015Y-6848388D01*
X12292015Y-6848388D02*
X12282491Y-6867436D01*
X12282491Y-6867436D02*
X12272967Y-6876960D01*
X12272967Y-6876960D02*
X12253920Y-6886484D01*
X12253920Y-6886484D02*
X12234872Y-6886484D01*
X12234872Y-6886484D02*
X12215824Y-6876960D01*
X12215824Y-6876960D02*
X12206301Y-6867436D01*
X12206301Y-6867436D02*
X12196777Y-6848388D01*
X12196777Y-6848388D02*
X12187253Y-6810293D01*
X12187253Y-6810293D02*
X12187253Y-6762674D01*
X12187253Y-6762674D02*
X12196777Y-6724579D01*
X12196777Y-6724579D02*
X12206301Y-6705531D01*
X12206301Y-6705531D02*
X12215824Y-6696008D01*
X12215824Y-6696008D02*
X12234872Y-6686484D01*
X12387253Y-6867436D02*
X12396777Y-6876960D01*
X12396777Y-6876960D02*
X12387253Y-6886484D01*
X12387253Y-6886484D02*
X12377729Y-6876960D01*
X12377729Y-6876960D02*
X12387253Y-6867436D01*
X12387253Y-6867436D02*
X12387253Y-6886484D01*
X12463443Y-6686484D02*
X12587253Y-6686484D01*
X12587253Y-6686484D02*
X12520586Y-6762674D01*
X12520586Y-6762674D02*
X12549158Y-6762674D01*
X12549158Y-6762674D02*
X12568205Y-6772198D01*
X12568205Y-6772198D02*
X12577729Y-6781722D01*
X12577729Y-6781722D02*
X12587253Y-6800769D01*
X12587253Y-6800769D02*
X12587253Y-6848388D01*
X12587253Y-6848388D02*
X12577729Y-6867436D01*
X12577729Y-6867436D02*
X12568205Y-6876960D01*
X12568205Y-6876960D02*
X12549158Y-6886484D01*
X12549158Y-6886484D02*
X12492015Y-6886484D01*
X12492015Y-6886484D02*
X12472967Y-6876960D01*
X12472967Y-6876960D02*
X12463443Y-6867436D01*
X12711062Y-6686484D02*
X12730110Y-6686484D01*
X12730110Y-6686484D02*
X12749158Y-6696008D01*
X12749158Y-6696008D02*
X12758682Y-6705531D01*
X12758682Y-6705531D02*
X12768205Y-6724579D01*
X12768205Y-6724579D02*
X12777729Y-6762674D01*
X12777729Y-6762674D02*
X12777729Y-6810293D01*
X12777729Y-6810293D02*
X12768205Y-6848388D01*
X12768205Y-6848388D02*
X12758682Y-6867436D01*
X12758682Y-6867436D02*
X12749158Y-6876960D01*
X12749158Y-6876960D02*
X12730110Y-6886484D01*
X12730110Y-6886484D02*
X12711062Y-6886484D01*
X12711062Y-6886484D02*
X12692015Y-6876960D01*
X12692015Y-6876960D02*
X12682491Y-6867436D01*
X12682491Y-6867436D02*
X12672967Y-6848388D01*
X12672967Y-6848388D02*
X12663443Y-6810293D01*
X12663443Y-6810293D02*
X12663443Y-6762674D01*
X12663443Y-6762674D02*
X12672967Y-6724579D01*
X12672967Y-6724579D02*
X12682491Y-6705531D01*
X12682491Y-6705531D02*
X12692015Y-6696008D01*
X12692015Y-6696008D02*
X12711062Y-6686484D01*
X12901539Y-6686484D02*
X12920586Y-6686484D01*
X12920586Y-6686484D02*
X12939634Y-6696008D01*
X12939634Y-6696008D02*
X12949158Y-6705531D01*
X12949158Y-6705531D02*
X12958682Y-6724579D01*
X12958682Y-6724579D02*
X12968205Y-6762674D01*
X12968205Y-6762674D02*
X12968205Y-6810293D01*
X12968205Y-6810293D02*
X12958682Y-6848388D01*
X12958682Y-6848388D02*
X12949158Y-6867436D01*
X12949158Y-6867436D02*
X12939634Y-6876960D01*
X12939634Y-6876960D02*
X12920586Y-6886484D01*
X12920586Y-6886484D02*
X12901539Y-6886484D01*
X12901539Y-6886484D02*
X12882491Y-6876960D01*
X12882491Y-6876960D02*
X12872967Y-6867436D01*
X12872967Y-6867436D02*
X12863443Y-6848388D01*
X12863443Y-6848388D02*
X12853920Y-6810293D01*
X12853920Y-6810293D02*
X12853920Y-6762674D01*
X12853920Y-6762674D02*
X12863443Y-6724579D01*
X12863443Y-6724579D02*
X12872967Y-6705531D01*
X12872967Y-6705531D02*
X12882491Y-6696008D01*
X12882491Y-6696008D02*
X12901539Y-6686484D01*
X13053920Y-6886484D02*
X13053920Y-6753150D01*
X13053920Y-6772198D02*
X13063443Y-6762674D01*
X13063443Y-6762674D02*
X13082491Y-6753150D01*
X13082491Y-6753150D02*
X13111063Y-6753150D01*
X13111063Y-6753150D02*
X13130110Y-6762674D01*
X13130110Y-6762674D02*
X13139634Y-6781722D01*
X13139634Y-6781722D02*
X13139634Y-6886484D01*
X13139634Y-6781722D02*
X13149158Y-6762674D01*
X13149158Y-6762674D02*
X13168205Y-6753150D01*
X13168205Y-6753150D02*
X13196777Y-6753150D01*
X13196777Y-6753150D02*
X13215824Y-6762674D01*
X13215824Y-6762674D02*
X13225348Y-6781722D01*
X13225348Y-6781722D02*
X13225348Y-6886484D01*
X13320586Y-6886484D02*
X13320586Y-6753150D01*
X13320586Y-6772198D02*
X13330110Y-6762674D01*
X13330110Y-6762674D02*
X13349158Y-6753150D01*
X13349158Y-6753150D02*
X13377729Y-6753150D01*
X13377729Y-6753150D02*
X13396777Y-6762674D01*
X13396777Y-6762674D02*
X13406301Y-6781722D01*
X13406301Y-6781722D02*
X13406301Y-6886484D01*
X13406301Y-6781722D02*
X13415824Y-6762674D01*
X13415824Y-6762674D02*
X13434872Y-6753150D01*
X13434872Y-6753150D02*
X13463443Y-6753150D01*
X13463443Y-6753150D02*
X13482491Y-6762674D01*
X13482491Y-6762674D02*
X13492015Y-6781722D01*
X13492015Y-6781722D02*
X13492015Y-6886484D01*
X13882491Y-6676960D02*
X13711063Y-6934103D01*
X14139634Y-6686484D02*
X14158682Y-6686484D01*
X14158682Y-6686484D02*
X14177729Y-6696008D01*
X14177729Y-6696008D02*
X14187253Y-6705531D01*
X14187253Y-6705531D02*
X14196777Y-6724579D01*
X14196777Y-6724579D02*
X14206301Y-6762674D01*
X14206301Y-6762674D02*
X14206301Y-6810293D01*
X14206301Y-6810293D02*
X14196777Y-6848388D01*
X14196777Y-6848388D02*
X14187253Y-6867436D01*
X14187253Y-6867436D02*
X14177729Y-6876960D01*
X14177729Y-6876960D02*
X14158682Y-6886484D01*
X14158682Y-6886484D02*
X14139634Y-6886484D01*
X14139634Y-6886484D02*
X14120586Y-6876960D01*
X14120586Y-6876960D02*
X14111063Y-6867436D01*
X14111063Y-6867436D02*
X14101539Y-6848388D01*
X14101539Y-6848388D02*
X14092015Y-6810293D01*
X14092015Y-6810293D02*
X14092015Y-6762674D01*
X14092015Y-6762674D02*
X14101539Y-6724579D01*
X14101539Y-6724579D02*
X14111063Y-6705531D01*
X14111063Y-6705531D02*
X14120586Y-6696008D01*
X14120586Y-6696008D02*
X14139634Y-6686484D01*
X14292015Y-6867436D02*
X14301539Y-6876960D01*
X14301539Y-6876960D02*
X14292015Y-6886484D01*
X14292015Y-6886484D02*
X14282491Y-6876960D01*
X14282491Y-6876960D02*
X14292015Y-6867436D01*
X14292015Y-6867436D02*
X14292015Y-6886484D01*
X14425348Y-6686484D02*
X14444396Y-6686484D01*
X14444396Y-6686484D02*
X14463444Y-6696008D01*
X14463444Y-6696008D02*
X14472967Y-6705531D01*
X14472967Y-6705531D02*
X14482491Y-6724579D01*
X14482491Y-6724579D02*
X14492015Y-6762674D01*
X14492015Y-6762674D02*
X14492015Y-6810293D01*
X14492015Y-6810293D02*
X14482491Y-6848388D01*
X14482491Y-6848388D02*
X14472967Y-6867436D01*
X14472967Y-6867436D02*
X14463444Y-6876960D01*
X14463444Y-6876960D02*
X14444396Y-6886484D01*
X14444396Y-6886484D02*
X14425348Y-6886484D01*
X14425348Y-6886484D02*
X14406301Y-6876960D01*
X14406301Y-6876960D02*
X14396777Y-6867436D01*
X14396777Y-6867436D02*
X14387253Y-6848388D01*
X14387253Y-6848388D02*
X14377729Y-6810293D01*
X14377729Y-6810293D02*
X14377729Y-6762674D01*
X14377729Y-6762674D02*
X14387253Y-6724579D01*
X14387253Y-6724579D02*
X14396777Y-6705531D01*
X14396777Y-6705531D02*
X14406301Y-6696008D01*
X14406301Y-6696008D02*
X14425348Y-6686484D01*
X14682491Y-6886484D02*
X14568206Y-6886484D01*
X14625348Y-6886484D02*
X14625348Y-6686484D01*
X14625348Y-6686484D02*
X14606301Y-6715055D01*
X14606301Y-6715055D02*
X14587253Y-6734103D01*
X14587253Y-6734103D02*
X14568206Y-6743627D01*
X14872967Y-6886484D02*
X14758682Y-6886484D01*
X14815825Y-6886484D02*
X14815825Y-6686484D01*
X14815825Y-6686484D02*
X14796777Y-6715055D01*
X14796777Y-6715055D02*
X14777729Y-6734103D01*
X14777729Y-6734103D02*
X14758682Y-6743627D01*
X14987253Y-6772198D02*
X14968206Y-6762674D01*
X14968206Y-6762674D02*
X14958682Y-6753150D01*
X14958682Y-6753150D02*
X14949158Y-6734103D01*
X14949158Y-6734103D02*
X14949158Y-6724579D01*
X14949158Y-6724579D02*
X14958682Y-6705531D01*
X14958682Y-6705531D02*
X14968206Y-6696008D01*
X14968206Y-6696008D02*
X14987253Y-6686484D01*
X14987253Y-6686484D02*
X15025348Y-6686484D01*
X15025348Y-6686484D02*
X15044396Y-6696008D01*
X15044396Y-6696008D02*
X15053920Y-6705531D01*
X15053920Y-6705531D02*
X15063444Y-6724579D01*
X15063444Y-6724579D02*
X15063444Y-6734103D01*
X15063444Y-6734103D02*
X15053920Y-6753150D01*
X15053920Y-6753150D02*
X15044396Y-6762674D01*
X15044396Y-6762674D02*
X15025348Y-6772198D01*
X15025348Y-6772198D02*
X14987253Y-6772198D01*
X14987253Y-6772198D02*
X14968206Y-6781722D01*
X14968206Y-6781722D02*
X14958682Y-6791246D01*
X14958682Y-6791246D02*
X14949158Y-6810293D01*
X14949158Y-6810293D02*
X14949158Y-6848388D01*
X14949158Y-6848388D02*
X14958682Y-6867436D01*
X14958682Y-6867436D02*
X14968206Y-6876960D01*
X14968206Y-6876960D02*
X14987253Y-6886484D01*
X14987253Y-6886484D02*
X15025348Y-6886484D01*
X15025348Y-6886484D02*
X15044396Y-6876960D01*
X15044396Y-6876960D02*
X15053920Y-6867436D01*
X15053920Y-6867436D02*
X15063444Y-6848388D01*
X15063444Y-6848388D02*
X15063444Y-6810293D01*
X15063444Y-6810293D02*
X15053920Y-6791246D01*
X15053920Y-6791246D02*
X15044396Y-6781722D01*
X15044396Y-6781722D02*
X15025348Y-6772198D01*
X15139634Y-6686484D02*
X15139634Y-6724579D01*
X15215825Y-6686484D02*
X15215825Y-6724579D01*
X15511063Y-6962674D02*
X15501539Y-6953150D01*
X15501539Y-6953150D02*
X15482491Y-6924579D01*
X15482491Y-6924579D02*
X15472968Y-6905531D01*
X15472968Y-6905531D02*
X15463444Y-6876960D01*
X15463444Y-6876960D02*
X15453920Y-6829341D01*
X15453920Y-6829341D02*
X15453920Y-6791246D01*
X15453920Y-6791246D02*
X15463444Y-6743627D01*
X15463444Y-6743627D02*
X15472968Y-6715055D01*
X15472968Y-6715055D02*
X15482491Y-6696008D01*
X15482491Y-6696008D02*
X15501539Y-6667436D01*
X15501539Y-6667436D02*
X15511063Y-6657912D01*
X15692015Y-6886484D02*
X15577729Y-6886484D01*
X15634872Y-6886484D02*
X15634872Y-6686484D01*
X15634872Y-6686484D02*
X15615825Y-6715055D01*
X15615825Y-6715055D02*
X15596777Y-6734103D01*
X15596777Y-6734103D02*
X15577729Y-6743627D01*
X15930110Y-6886484D02*
X15930110Y-6686484D01*
X16015825Y-6886484D02*
X16015825Y-6781722D01*
X16015825Y-6781722D02*
X16006301Y-6762674D01*
X16006301Y-6762674D02*
X15987253Y-6753150D01*
X15987253Y-6753150D02*
X15958682Y-6753150D01*
X15958682Y-6753150D02*
X15939634Y-6762674D01*
X15939634Y-6762674D02*
X15930110Y-6772198D01*
X16139634Y-6886484D02*
X16120587Y-6876960D01*
X16120587Y-6876960D02*
X16111063Y-6867436D01*
X16111063Y-6867436D02*
X16101539Y-6848388D01*
X16101539Y-6848388D02*
X16101539Y-6791246D01*
X16101539Y-6791246D02*
X16111063Y-6772198D01*
X16111063Y-6772198D02*
X16120587Y-6762674D01*
X16120587Y-6762674D02*
X16139634Y-6753150D01*
X16139634Y-6753150D02*
X16168206Y-6753150D01*
X16168206Y-6753150D02*
X16187253Y-6762674D01*
X16187253Y-6762674D02*
X16196777Y-6772198D01*
X16196777Y-6772198D02*
X16206301Y-6791246D01*
X16206301Y-6791246D02*
X16206301Y-6848388D01*
X16206301Y-6848388D02*
X16196777Y-6867436D01*
X16196777Y-6867436D02*
X16187253Y-6876960D01*
X16187253Y-6876960D02*
X16168206Y-6886484D01*
X16168206Y-6886484D02*
X16139634Y-6886484D01*
X16320587Y-6886484D02*
X16301539Y-6876960D01*
X16301539Y-6876960D02*
X16292015Y-6857912D01*
X16292015Y-6857912D02*
X16292015Y-6686484D01*
X16472968Y-6876960D02*
X16453920Y-6886484D01*
X16453920Y-6886484D02*
X16415825Y-6886484D01*
X16415825Y-6886484D02*
X16396777Y-6876960D01*
X16396777Y-6876960D02*
X16387253Y-6857912D01*
X16387253Y-6857912D02*
X16387253Y-6781722D01*
X16387253Y-6781722D02*
X16396777Y-6762674D01*
X16396777Y-6762674D02*
X16415825Y-6753150D01*
X16415825Y-6753150D02*
X16453920Y-6753150D01*
X16453920Y-6753150D02*
X16472968Y-6762674D01*
X16472968Y-6762674D02*
X16482491Y-6781722D01*
X16482491Y-6781722D02*
X16482491Y-6800769D01*
X16482491Y-6800769D02*
X16387253Y-6819817D01*
X16549158Y-6962674D02*
X16558682Y-6953150D01*
X16558682Y-6953150D02*
X16577730Y-6924579D01*
X16577730Y-6924579D02*
X16587253Y-6905531D01*
X16587253Y-6905531D02*
X16596777Y-6876960D01*
X16596777Y-6876960D02*
X16606301Y-6829341D01*
X16606301Y-6829341D02*
X16606301Y-6791246D01*
X16606301Y-6791246D02*
X16596777Y-6743627D01*
X16596777Y-6743627D02*
X16587253Y-6715055D01*
X16587253Y-6715055D02*
X16577730Y-6696008D01*
X16577730Y-6696008D02*
X16558682Y-6667436D01*
X16558682Y-6667436D02*
X16549158Y-6657912D01*
D10*
X11936000Y-7059000D02*
G75*
G02*
X11856000Y-7059000I-40000J0D01*
G01*
X11856000Y-7059000D02*
G75*
G02*
X11936000Y-7059000I40000J0D01*
G01*
D11*
X12234872Y-6950484D02*
X12253920Y-6950484D01*
X12253920Y-6950484D02*
X12272967Y-6960008D01*
X12272967Y-6960008D02*
X12282491Y-6969531D01*
X12282491Y-6969531D02*
X12292015Y-6988579D01*
X12292015Y-6988579D02*
X12301539Y-7026674D01*
X12301539Y-7026674D02*
X12301539Y-7074293D01*
X12301539Y-7074293D02*
X12292015Y-7112388D01*
X12292015Y-7112388D02*
X12282491Y-7131436D01*
X12282491Y-7131436D02*
X12272967Y-7140960D01*
X12272967Y-7140960D02*
X12253920Y-7150484D01*
X12253920Y-7150484D02*
X12234872Y-7150484D01*
X12234872Y-7150484D02*
X12215824Y-7140960D01*
X12215824Y-7140960D02*
X12206301Y-7131436D01*
X12206301Y-7131436D02*
X12196777Y-7112388D01*
X12196777Y-7112388D02*
X12187253Y-7074293D01*
X12187253Y-7074293D02*
X12187253Y-7026674D01*
X12187253Y-7026674D02*
X12196777Y-6988579D01*
X12196777Y-6988579D02*
X12206301Y-6969531D01*
X12206301Y-6969531D02*
X12215824Y-6960008D01*
X12215824Y-6960008D02*
X12234872Y-6950484D01*
X12387253Y-7131436D02*
X12396777Y-7140960D01*
X12396777Y-7140960D02*
X12387253Y-7150484D01*
X12387253Y-7150484D02*
X12377729Y-7140960D01*
X12377729Y-7140960D02*
X12387253Y-7131436D01*
X12387253Y-7131436D02*
X12387253Y-7150484D01*
X12511062Y-7036198D02*
X12492015Y-7026674D01*
X12492015Y-7026674D02*
X12482491Y-7017150D01*
X12482491Y-7017150D02*
X12472967Y-6998103D01*
X12472967Y-6998103D02*
X12472967Y-6988579D01*
X12472967Y-6988579D02*
X12482491Y-6969531D01*
X12482491Y-6969531D02*
X12492015Y-6960008D01*
X12492015Y-6960008D02*
X12511062Y-6950484D01*
X12511062Y-6950484D02*
X12549158Y-6950484D01*
X12549158Y-6950484D02*
X12568205Y-6960008D01*
X12568205Y-6960008D02*
X12577729Y-6969531D01*
X12577729Y-6969531D02*
X12587253Y-6988579D01*
X12587253Y-6988579D02*
X12587253Y-6998103D01*
X12587253Y-6998103D02*
X12577729Y-7017150D01*
X12577729Y-7017150D02*
X12568205Y-7026674D01*
X12568205Y-7026674D02*
X12549158Y-7036198D01*
X12549158Y-7036198D02*
X12511062Y-7036198D01*
X12511062Y-7036198D02*
X12492015Y-7045722D01*
X12492015Y-7045722D02*
X12482491Y-7055246D01*
X12482491Y-7055246D02*
X12472967Y-7074293D01*
X12472967Y-7074293D02*
X12472967Y-7112388D01*
X12472967Y-7112388D02*
X12482491Y-7131436D01*
X12482491Y-7131436D02*
X12492015Y-7140960D01*
X12492015Y-7140960D02*
X12511062Y-7150484D01*
X12511062Y-7150484D02*
X12549158Y-7150484D01*
X12549158Y-7150484D02*
X12568205Y-7140960D01*
X12568205Y-7140960D02*
X12577729Y-7131436D01*
X12577729Y-7131436D02*
X12587253Y-7112388D01*
X12587253Y-7112388D02*
X12587253Y-7074293D01*
X12587253Y-7074293D02*
X12577729Y-7055246D01*
X12577729Y-7055246D02*
X12568205Y-7045722D01*
X12568205Y-7045722D02*
X12549158Y-7036198D01*
X12711062Y-6950484D02*
X12730110Y-6950484D01*
X12730110Y-6950484D02*
X12749158Y-6960008D01*
X12749158Y-6960008D02*
X12758682Y-6969531D01*
X12758682Y-6969531D02*
X12768205Y-6988579D01*
X12768205Y-6988579D02*
X12777729Y-7026674D01*
X12777729Y-7026674D02*
X12777729Y-7074293D01*
X12777729Y-7074293D02*
X12768205Y-7112388D01*
X12768205Y-7112388D02*
X12758682Y-7131436D01*
X12758682Y-7131436D02*
X12749158Y-7140960D01*
X12749158Y-7140960D02*
X12730110Y-7150484D01*
X12730110Y-7150484D02*
X12711062Y-7150484D01*
X12711062Y-7150484D02*
X12692015Y-7140960D01*
X12692015Y-7140960D02*
X12682491Y-7131436D01*
X12682491Y-7131436D02*
X12672967Y-7112388D01*
X12672967Y-7112388D02*
X12663443Y-7074293D01*
X12663443Y-7074293D02*
X12663443Y-7026674D01*
X12663443Y-7026674D02*
X12672967Y-6988579D01*
X12672967Y-6988579D02*
X12682491Y-6969531D01*
X12682491Y-6969531D02*
X12692015Y-6960008D01*
X12692015Y-6960008D02*
X12711062Y-6950484D01*
X12901539Y-6950484D02*
X12920586Y-6950484D01*
X12920586Y-6950484D02*
X12939634Y-6960008D01*
X12939634Y-6960008D02*
X12949158Y-6969531D01*
X12949158Y-6969531D02*
X12958682Y-6988579D01*
X12958682Y-6988579D02*
X12968205Y-7026674D01*
X12968205Y-7026674D02*
X12968205Y-7074293D01*
X12968205Y-7074293D02*
X12958682Y-7112388D01*
X12958682Y-7112388D02*
X12949158Y-7131436D01*
X12949158Y-7131436D02*
X12939634Y-7140960D01*
X12939634Y-7140960D02*
X12920586Y-7150484D01*
X12920586Y-7150484D02*
X12901539Y-7150484D01*
X12901539Y-7150484D02*
X12882491Y-7140960D01*
X12882491Y-7140960D02*
X12872967Y-7131436D01*
X12872967Y-7131436D02*
X12863443Y-7112388D01*
X12863443Y-7112388D02*
X12853920Y-7074293D01*
X12853920Y-7074293D02*
X12853920Y-7026674D01*
X12853920Y-7026674D02*
X12863443Y-6988579D01*
X12863443Y-6988579D02*
X12872967Y-6969531D01*
X12872967Y-6969531D02*
X12882491Y-6960008D01*
X12882491Y-6960008D02*
X12901539Y-6950484D01*
X13053920Y-7150484D02*
X13053920Y-7017150D01*
X13053920Y-7036198D02*
X13063443Y-7026674D01*
X13063443Y-7026674D02*
X13082491Y-7017150D01*
X13082491Y-7017150D02*
X13111063Y-7017150D01*
X13111063Y-7017150D02*
X13130110Y-7026674D01*
X13130110Y-7026674D02*
X13139634Y-7045722D01*
X13139634Y-7045722D02*
X13139634Y-7150484D01*
X13139634Y-7045722D02*
X13149158Y-7026674D01*
X13149158Y-7026674D02*
X13168205Y-7017150D01*
X13168205Y-7017150D02*
X13196777Y-7017150D01*
X13196777Y-7017150D02*
X13215824Y-7026674D01*
X13215824Y-7026674D02*
X13225348Y-7045722D01*
X13225348Y-7045722D02*
X13225348Y-7150484D01*
X13320586Y-7150484D02*
X13320586Y-7017150D01*
X13320586Y-7036198D02*
X13330110Y-7026674D01*
X13330110Y-7026674D02*
X13349158Y-7017150D01*
X13349158Y-7017150D02*
X13377729Y-7017150D01*
X13377729Y-7017150D02*
X13396777Y-7026674D01*
X13396777Y-7026674D02*
X13406301Y-7045722D01*
X13406301Y-7045722D02*
X13406301Y-7150484D01*
X13406301Y-7045722D02*
X13415824Y-7026674D01*
X13415824Y-7026674D02*
X13434872Y-7017150D01*
X13434872Y-7017150D02*
X13463443Y-7017150D01*
X13463443Y-7017150D02*
X13482491Y-7026674D01*
X13482491Y-7026674D02*
X13492015Y-7045722D01*
X13492015Y-7045722D02*
X13492015Y-7150484D01*
X13882491Y-6940960D02*
X13711063Y-7198103D01*
X14139634Y-6950484D02*
X14158682Y-6950484D01*
X14158682Y-6950484D02*
X14177729Y-6960008D01*
X14177729Y-6960008D02*
X14187253Y-6969531D01*
X14187253Y-6969531D02*
X14196777Y-6988579D01*
X14196777Y-6988579D02*
X14206301Y-7026674D01*
X14206301Y-7026674D02*
X14206301Y-7074293D01*
X14206301Y-7074293D02*
X14196777Y-7112388D01*
X14196777Y-7112388D02*
X14187253Y-7131436D01*
X14187253Y-7131436D02*
X14177729Y-7140960D01*
X14177729Y-7140960D02*
X14158682Y-7150484D01*
X14158682Y-7150484D02*
X14139634Y-7150484D01*
X14139634Y-7150484D02*
X14120586Y-7140960D01*
X14120586Y-7140960D02*
X14111063Y-7131436D01*
X14111063Y-7131436D02*
X14101539Y-7112388D01*
X14101539Y-7112388D02*
X14092015Y-7074293D01*
X14092015Y-7074293D02*
X14092015Y-7026674D01*
X14092015Y-7026674D02*
X14101539Y-6988579D01*
X14101539Y-6988579D02*
X14111063Y-6969531D01*
X14111063Y-6969531D02*
X14120586Y-6960008D01*
X14120586Y-6960008D02*
X14139634Y-6950484D01*
X14292015Y-7131436D02*
X14301539Y-7140960D01*
X14301539Y-7140960D02*
X14292015Y-7150484D01*
X14292015Y-7150484D02*
X14282491Y-7140960D01*
X14282491Y-7140960D02*
X14292015Y-7131436D01*
X14292015Y-7131436D02*
X14292015Y-7150484D01*
X14425348Y-6950484D02*
X14444396Y-6950484D01*
X14444396Y-6950484D02*
X14463444Y-6960008D01*
X14463444Y-6960008D02*
X14472967Y-6969531D01*
X14472967Y-6969531D02*
X14482491Y-6988579D01*
X14482491Y-6988579D02*
X14492015Y-7026674D01*
X14492015Y-7026674D02*
X14492015Y-7074293D01*
X14492015Y-7074293D02*
X14482491Y-7112388D01*
X14482491Y-7112388D02*
X14472967Y-7131436D01*
X14472967Y-7131436D02*
X14463444Y-7140960D01*
X14463444Y-7140960D02*
X14444396Y-7150484D01*
X14444396Y-7150484D02*
X14425348Y-7150484D01*
X14425348Y-7150484D02*
X14406301Y-7140960D01*
X14406301Y-7140960D02*
X14396777Y-7131436D01*
X14396777Y-7131436D02*
X14387253Y-7112388D01*
X14387253Y-7112388D02*
X14377729Y-7074293D01*
X14377729Y-7074293D02*
X14377729Y-7026674D01*
X14377729Y-7026674D02*
X14387253Y-6988579D01*
X14387253Y-6988579D02*
X14396777Y-6969531D01*
X14396777Y-6969531D02*
X14406301Y-6960008D01*
X14406301Y-6960008D02*
X14425348Y-6950484D01*
X14558682Y-6950484D02*
X14682491Y-6950484D01*
X14682491Y-6950484D02*
X14615825Y-7026674D01*
X14615825Y-7026674D02*
X14644396Y-7026674D01*
X14644396Y-7026674D02*
X14663444Y-7036198D01*
X14663444Y-7036198D02*
X14672967Y-7045722D01*
X14672967Y-7045722D02*
X14682491Y-7064769D01*
X14682491Y-7064769D02*
X14682491Y-7112388D01*
X14682491Y-7112388D02*
X14672967Y-7131436D01*
X14672967Y-7131436D02*
X14663444Y-7140960D01*
X14663444Y-7140960D02*
X14644396Y-7150484D01*
X14644396Y-7150484D02*
X14587253Y-7150484D01*
X14587253Y-7150484D02*
X14568206Y-7140960D01*
X14568206Y-7140960D02*
X14558682Y-7131436D01*
X14872967Y-7150484D02*
X14758682Y-7150484D01*
X14815825Y-7150484D02*
X14815825Y-6950484D01*
X14815825Y-6950484D02*
X14796777Y-6979055D01*
X14796777Y-6979055D02*
X14777729Y-6998103D01*
X14777729Y-6998103D02*
X14758682Y-7007627D01*
X15053920Y-6950484D02*
X14958682Y-6950484D01*
X14958682Y-6950484D02*
X14949158Y-7045722D01*
X14949158Y-7045722D02*
X14958682Y-7036198D01*
X14958682Y-7036198D02*
X14977729Y-7026674D01*
X14977729Y-7026674D02*
X15025348Y-7026674D01*
X15025348Y-7026674D02*
X15044396Y-7036198D01*
X15044396Y-7036198D02*
X15053920Y-7045722D01*
X15053920Y-7045722D02*
X15063444Y-7064769D01*
X15063444Y-7064769D02*
X15063444Y-7112388D01*
X15063444Y-7112388D02*
X15053920Y-7131436D01*
X15053920Y-7131436D02*
X15044396Y-7140960D01*
X15044396Y-7140960D02*
X15025348Y-7150484D01*
X15025348Y-7150484D02*
X14977729Y-7150484D01*
X14977729Y-7150484D02*
X14958682Y-7140960D01*
X14958682Y-7140960D02*
X14949158Y-7131436D01*
X15139634Y-6950484D02*
X15139634Y-6988579D01*
X15215825Y-6950484D02*
X15215825Y-6988579D01*
X15511063Y-7226674D02*
X15501539Y-7217150D01*
X15501539Y-7217150D02*
X15482491Y-7188579D01*
X15482491Y-7188579D02*
X15472968Y-7169531D01*
X15472968Y-7169531D02*
X15463444Y-7140960D01*
X15463444Y-7140960D02*
X15453920Y-7093341D01*
X15453920Y-7093341D02*
X15453920Y-7055246D01*
X15453920Y-7055246D02*
X15463444Y-7007627D01*
X15463444Y-7007627D02*
X15472968Y-6979055D01*
X15472968Y-6979055D02*
X15482491Y-6960008D01*
X15482491Y-6960008D02*
X15501539Y-6931436D01*
X15501539Y-6931436D02*
X15511063Y-6921912D01*
X15692015Y-7150484D02*
X15577729Y-7150484D01*
X15634872Y-7150484D02*
X15634872Y-6950484D01*
X15634872Y-6950484D02*
X15615825Y-6979055D01*
X15615825Y-6979055D02*
X15596777Y-6998103D01*
X15596777Y-6998103D02*
X15577729Y-7007627D01*
X15863444Y-6950484D02*
X15825348Y-6950484D01*
X15825348Y-6950484D02*
X15806301Y-6960008D01*
X15806301Y-6960008D02*
X15796777Y-6969531D01*
X15796777Y-6969531D02*
X15777729Y-6998103D01*
X15777729Y-6998103D02*
X15768206Y-7036198D01*
X15768206Y-7036198D02*
X15768206Y-7112388D01*
X15768206Y-7112388D02*
X15777729Y-7131436D01*
X15777729Y-7131436D02*
X15787253Y-7140960D01*
X15787253Y-7140960D02*
X15806301Y-7150484D01*
X15806301Y-7150484D02*
X15844396Y-7150484D01*
X15844396Y-7150484D02*
X15863444Y-7140960D01*
X15863444Y-7140960D02*
X15872968Y-7131436D01*
X15872968Y-7131436D02*
X15882491Y-7112388D01*
X15882491Y-7112388D02*
X15882491Y-7064769D01*
X15882491Y-7064769D02*
X15872968Y-7045722D01*
X15872968Y-7045722D02*
X15863444Y-7036198D01*
X15863444Y-7036198D02*
X15844396Y-7026674D01*
X15844396Y-7026674D02*
X15806301Y-7026674D01*
X15806301Y-7026674D02*
X15787253Y-7036198D01*
X15787253Y-7036198D02*
X15777729Y-7045722D01*
X15777729Y-7045722D02*
X15768206Y-7064769D01*
X16120587Y-7150484D02*
X16120587Y-6950484D01*
X16206301Y-7150484D02*
X16206301Y-7045722D01*
X16206301Y-7045722D02*
X16196777Y-7026674D01*
X16196777Y-7026674D02*
X16177730Y-7017150D01*
X16177730Y-7017150D02*
X16149158Y-7017150D01*
X16149158Y-7017150D02*
X16130110Y-7026674D01*
X16130110Y-7026674D02*
X16120587Y-7036198D01*
X16330110Y-7150484D02*
X16311063Y-7140960D01*
X16311063Y-7140960D02*
X16301539Y-7131436D01*
X16301539Y-7131436D02*
X16292015Y-7112388D01*
X16292015Y-7112388D02*
X16292015Y-7055246D01*
X16292015Y-7055246D02*
X16301539Y-7036198D01*
X16301539Y-7036198D02*
X16311063Y-7026674D01*
X16311063Y-7026674D02*
X16330110Y-7017150D01*
X16330110Y-7017150D02*
X16358682Y-7017150D01*
X16358682Y-7017150D02*
X16377730Y-7026674D01*
X16377730Y-7026674D02*
X16387253Y-7036198D01*
X16387253Y-7036198D02*
X16396777Y-7055246D01*
X16396777Y-7055246D02*
X16396777Y-7112388D01*
X16396777Y-7112388D02*
X16387253Y-7131436D01*
X16387253Y-7131436D02*
X16377730Y-7140960D01*
X16377730Y-7140960D02*
X16358682Y-7150484D01*
X16358682Y-7150484D02*
X16330110Y-7150484D01*
X16511063Y-7150484D02*
X16492015Y-7140960D01*
X16492015Y-7140960D02*
X16482491Y-7121912D01*
X16482491Y-7121912D02*
X16482491Y-6950484D01*
X16663444Y-7140960D02*
X16644396Y-7150484D01*
X16644396Y-7150484D02*
X16606301Y-7150484D01*
X16606301Y-7150484D02*
X16587253Y-7140960D01*
X16587253Y-7140960D02*
X16577730Y-7121912D01*
X16577730Y-7121912D02*
X16577730Y-7045722D01*
X16577730Y-7045722D02*
X16587253Y-7026674D01*
X16587253Y-7026674D02*
X16606301Y-7017150D01*
X16606301Y-7017150D02*
X16644396Y-7017150D01*
X16644396Y-7017150D02*
X16663444Y-7026674D01*
X16663444Y-7026674D02*
X16672968Y-7045722D01*
X16672968Y-7045722D02*
X16672968Y-7064769D01*
X16672968Y-7064769D02*
X16577730Y-7083817D01*
X16749158Y-7140960D02*
X16768206Y-7150484D01*
X16768206Y-7150484D02*
X16806301Y-7150484D01*
X16806301Y-7150484D02*
X16825349Y-7140960D01*
X16825349Y-7140960D02*
X16834873Y-7121912D01*
X16834873Y-7121912D02*
X16834873Y-7112388D01*
X16834873Y-7112388D02*
X16825349Y-7093341D01*
X16825349Y-7093341D02*
X16806301Y-7083817D01*
X16806301Y-7083817D02*
X16777730Y-7083817D01*
X16777730Y-7083817D02*
X16758682Y-7074293D01*
X16758682Y-7074293D02*
X16749158Y-7055246D01*
X16749158Y-7055246D02*
X16749158Y-7045722D01*
X16749158Y-7045722D02*
X16758682Y-7026674D01*
X16758682Y-7026674D02*
X16777730Y-7017150D01*
X16777730Y-7017150D02*
X16806301Y-7017150D01*
X16806301Y-7017150D02*
X16825349Y-7026674D01*
X16901539Y-7226674D02*
X16911063Y-7217150D01*
X16911063Y-7217150D02*
X16930111Y-7188579D01*
X16930111Y-7188579D02*
X16939634Y-7169531D01*
X16939634Y-7169531D02*
X16949158Y-7140960D01*
X16949158Y-7140960D02*
X16958682Y-7093341D01*
X16958682Y-7093341D02*
X16958682Y-7055246D01*
X16958682Y-7055246D02*
X16949158Y-7007627D01*
X16949158Y-7007627D02*
X16939634Y-6979055D01*
X16939634Y-6979055D02*
X16930111Y-6960008D01*
X16930111Y-6960008D02*
X16911063Y-6931436D01*
X16911063Y-6931436D02*
X16901539Y-6921912D01*
D12*
X11876000Y-7263000D02*
X11876000Y-7383000D01*
X11816000Y-7323000D02*
X11936000Y-7323000D01*
D11*
X12301539Y-7414484D02*
X12187253Y-7414484D01*
X12244396Y-7414484D02*
X12244396Y-7214484D01*
X12244396Y-7214484D02*
X12225348Y-7243055D01*
X12225348Y-7243055D02*
X12206301Y-7262103D01*
X12206301Y-7262103D02*
X12187253Y-7271627D01*
X12387253Y-7395436D02*
X12396777Y-7404960D01*
X12396777Y-7404960D02*
X12387253Y-7414484D01*
X12387253Y-7414484D02*
X12377729Y-7404960D01*
X12377729Y-7404960D02*
X12387253Y-7395436D01*
X12387253Y-7395436D02*
X12387253Y-7414484D01*
X12472967Y-7233531D02*
X12482491Y-7224008D01*
X12482491Y-7224008D02*
X12501539Y-7214484D01*
X12501539Y-7214484D02*
X12549158Y-7214484D01*
X12549158Y-7214484D02*
X12568205Y-7224008D01*
X12568205Y-7224008D02*
X12577729Y-7233531D01*
X12577729Y-7233531D02*
X12587253Y-7252579D01*
X12587253Y-7252579D02*
X12587253Y-7271627D01*
X12587253Y-7271627D02*
X12577729Y-7300198D01*
X12577729Y-7300198D02*
X12463443Y-7414484D01*
X12463443Y-7414484D02*
X12587253Y-7414484D01*
X12711062Y-7214484D02*
X12730110Y-7214484D01*
X12730110Y-7214484D02*
X12749158Y-7224008D01*
X12749158Y-7224008D02*
X12758682Y-7233531D01*
X12758682Y-7233531D02*
X12768205Y-7252579D01*
X12768205Y-7252579D02*
X12777729Y-7290674D01*
X12777729Y-7290674D02*
X12777729Y-7338293D01*
X12777729Y-7338293D02*
X12768205Y-7376388D01*
X12768205Y-7376388D02*
X12758682Y-7395436D01*
X12758682Y-7395436D02*
X12749158Y-7404960D01*
X12749158Y-7404960D02*
X12730110Y-7414484D01*
X12730110Y-7414484D02*
X12711062Y-7414484D01*
X12711062Y-7414484D02*
X12692015Y-7404960D01*
X12692015Y-7404960D02*
X12682491Y-7395436D01*
X12682491Y-7395436D02*
X12672967Y-7376388D01*
X12672967Y-7376388D02*
X12663443Y-7338293D01*
X12663443Y-7338293D02*
X12663443Y-7290674D01*
X12663443Y-7290674D02*
X12672967Y-7252579D01*
X12672967Y-7252579D02*
X12682491Y-7233531D01*
X12682491Y-7233531D02*
X12692015Y-7224008D01*
X12692015Y-7224008D02*
X12711062Y-7214484D01*
X12901539Y-7214484D02*
X12920586Y-7214484D01*
X12920586Y-7214484D02*
X12939634Y-7224008D01*
X12939634Y-7224008D02*
X12949158Y-7233531D01*
X12949158Y-7233531D02*
X12958682Y-7252579D01*
X12958682Y-7252579D02*
X12968205Y-7290674D01*
X12968205Y-7290674D02*
X12968205Y-7338293D01*
X12968205Y-7338293D02*
X12958682Y-7376388D01*
X12958682Y-7376388D02*
X12949158Y-7395436D01*
X12949158Y-7395436D02*
X12939634Y-7404960D01*
X12939634Y-7404960D02*
X12920586Y-7414484D01*
X12920586Y-7414484D02*
X12901539Y-7414484D01*
X12901539Y-7414484D02*
X12882491Y-7404960D01*
X12882491Y-7404960D02*
X12872967Y-7395436D01*
X12872967Y-7395436D02*
X12863443Y-7376388D01*
X12863443Y-7376388D02*
X12853920Y-7338293D01*
X12853920Y-7338293D02*
X12853920Y-7290674D01*
X12853920Y-7290674D02*
X12863443Y-7252579D01*
X12863443Y-7252579D02*
X12872967Y-7233531D01*
X12872967Y-7233531D02*
X12882491Y-7224008D01*
X12882491Y-7224008D02*
X12901539Y-7214484D01*
X13053920Y-7414484D02*
X13053920Y-7281150D01*
X13053920Y-7300198D02*
X13063443Y-7290674D01*
X13063443Y-7290674D02*
X13082491Y-7281150D01*
X13082491Y-7281150D02*
X13111063Y-7281150D01*
X13111063Y-7281150D02*
X13130110Y-7290674D01*
X13130110Y-7290674D02*
X13139634Y-7309722D01*
X13139634Y-7309722D02*
X13139634Y-7414484D01*
X13139634Y-7309722D02*
X13149158Y-7290674D01*
X13149158Y-7290674D02*
X13168205Y-7281150D01*
X13168205Y-7281150D02*
X13196777Y-7281150D01*
X13196777Y-7281150D02*
X13215824Y-7290674D01*
X13215824Y-7290674D02*
X13225348Y-7309722D01*
X13225348Y-7309722D02*
X13225348Y-7414484D01*
X13320586Y-7414484D02*
X13320586Y-7281150D01*
X13320586Y-7300198D02*
X13330110Y-7290674D01*
X13330110Y-7290674D02*
X13349158Y-7281150D01*
X13349158Y-7281150D02*
X13377729Y-7281150D01*
X13377729Y-7281150D02*
X13396777Y-7290674D01*
X13396777Y-7290674D02*
X13406301Y-7309722D01*
X13406301Y-7309722D02*
X13406301Y-7414484D01*
X13406301Y-7309722D02*
X13415824Y-7290674D01*
X13415824Y-7290674D02*
X13434872Y-7281150D01*
X13434872Y-7281150D02*
X13463443Y-7281150D01*
X13463443Y-7281150D02*
X13482491Y-7290674D01*
X13482491Y-7290674D02*
X13492015Y-7309722D01*
X13492015Y-7309722D02*
X13492015Y-7414484D01*
X13882491Y-7204960D02*
X13711063Y-7462103D01*
X14139634Y-7214484D02*
X14158682Y-7214484D01*
X14158682Y-7214484D02*
X14177729Y-7224008D01*
X14177729Y-7224008D02*
X14187253Y-7233531D01*
X14187253Y-7233531D02*
X14196777Y-7252579D01*
X14196777Y-7252579D02*
X14206301Y-7290674D01*
X14206301Y-7290674D02*
X14206301Y-7338293D01*
X14206301Y-7338293D02*
X14196777Y-7376388D01*
X14196777Y-7376388D02*
X14187253Y-7395436D01*
X14187253Y-7395436D02*
X14177729Y-7404960D01*
X14177729Y-7404960D02*
X14158682Y-7414484D01*
X14158682Y-7414484D02*
X14139634Y-7414484D01*
X14139634Y-7414484D02*
X14120586Y-7404960D01*
X14120586Y-7404960D02*
X14111063Y-7395436D01*
X14111063Y-7395436D02*
X14101539Y-7376388D01*
X14101539Y-7376388D02*
X14092015Y-7338293D01*
X14092015Y-7338293D02*
X14092015Y-7290674D01*
X14092015Y-7290674D02*
X14101539Y-7252579D01*
X14101539Y-7252579D02*
X14111063Y-7233531D01*
X14111063Y-7233531D02*
X14120586Y-7224008D01*
X14120586Y-7224008D02*
X14139634Y-7214484D01*
X14292015Y-7395436D02*
X14301539Y-7404960D01*
X14301539Y-7404960D02*
X14292015Y-7414484D01*
X14292015Y-7414484D02*
X14282491Y-7404960D01*
X14282491Y-7404960D02*
X14292015Y-7395436D01*
X14292015Y-7395436D02*
X14292015Y-7414484D01*
X14425348Y-7214484D02*
X14444396Y-7214484D01*
X14444396Y-7214484D02*
X14463444Y-7224008D01*
X14463444Y-7224008D02*
X14472967Y-7233531D01*
X14472967Y-7233531D02*
X14482491Y-7252579D01*
X14482491Y-7252579D02*
X14492015Y-7290674D01*
X14492015Y-7290674D02*
X14492015Y-7338293D01*
X14492015Y-7338293D02*
X14482491Y-7376388D01*
X14482491Y-7376388D02*
X14472967Y-7395436D01*
X14472967Y-7395436D02*
X14463444Y-7404960D01*
X14463444Y-7404960D02*
X14444396Y-7414484D01*
X14444396Y-7414484D02*
X14425348Y-7414484D01*
X14425348Y-7414484D02*
X14406301Y-7404960D01*
X14406301Y-7404960D02*
X14396777Y-7395436D01*
X14396777Y-7395436D02*
X14387253Y-7376388D01*
X14387253Y-7376388D02*
X14377729Y-7338293D01*
X14377729Y-7338293D02*
X14377729Y-7290674D01*
X14377729Y-7290674D02*
X14387253Y-7252579D01*
X14387253Y-7252579D02*
X14396777Y-7233531D01*
X14396777Y-7233531D02*
X14406301Y-7224008D01*
X14406301Y-7224008D02*
X14425348Y-7214484D01*
X14663444Y-7281150D02*
X14663444Y-7414484D01*
X14615825Y-7204960D02*
X14568206Y-7347817D01*
X14568206Y-7347817D02*
X14692015Y-7347817D01*
X14749158Y-7214484D02*
X14882491Y-7214484D01*
X14882491Y-7214484D02*
X14796777Y-7414484D01*
X14949158Y-7233531D02*
X14958682Y-7224008D01*
X14958682Y-7224008D02*
X14977729Y-7214484D01*
X14977729Y-7214484D02*
X15025348Y-7214484D01*
X15025348Y-7214484D02*
X15044396Y-7224008D01*
X15044396Y-7224008D02*
X15053920Y-7233531D01*
X15053920Y-7233531D02*
X15063444Y-7252579D01*
X15063444Y-7252579D02*
X15063444Y-7271627D01*
X15063444Y-7271627D02*
X15053920Y-7300198D01*
X15053920Y-7300198D02*
X14939634Y-7414484D01*
X14939634Y-7414484D02*
X15063444Y-7414484D01*
X15139634Y-7214484D02*
X15139634Y-7252579D01*
X15215825Y-7214484D02*
X15215825Y-7252579D01*
X15511063Y-7490674D02*
X15501539Y-7481150D01*
X15501539Y-7481150D02*
X15482491Y-7452579D01*
X15482491Y-7452579D02*
X15472968Y-7433531D01*
X15472968Y-7433531D02*
X15463444Y-7404960D01*
X15463444Y-7404960D02*
X15453920Y-7357341D01*
X15453920Y-7357341D02*
X15453920Y-7319246D01*
X15453920Y-7319246D02*
X15463444Y-7271627D01*
X15463444Y-7271627D02*
X15472968Y-7243055D01*
X15472968Y-7243055D02*
X15482491Y-7224008D01*
X15482491Y-7224008D02*
X15501539Y-7195436D01*
X15501539Y-7195436D02*
X15511063Y-7185912D01*
X15672968Y-7281150D02*
X15672968Y-7414484D01*
X15625348Y-7204960D02*
X15577729Y-7347817D01*
X15577729Y-7347817D02*
X15701539Y-7347817D01*
X15930110Y-7414484D02*
X15930110Y-7214484D01*
X16015825Y-7414484D02*
X16015825Y-7309722D01*
X16015825Y-7309722D02*
X16006301Y-7290674D01*
X16006301Y-7290674D02*
X15987253Y-7281150D01*
X15987253Y-7281150D02*
X15958682Y-7281150D01*
X15958682Y-7281150D02*
X15939634Y-7290674D01*
X15939634Y-7290674D02*
X15930110Y-7300198D01*
X16139634Y-7414484D02*
X16120587Y-7404960D01*
X16120587Y-7404960D02*
X16111063Y-7395436D01*
X16111063Y-7395436D02*
X16101539Y-7376388D01*
X16101539Y-7376388D02*
X16101539Y-7319246D01*
X16101539Y-7319246D02*
X16111063Y-7300198D01*
X16111063Y-7300198D02*
X16120587Y-7290674D01*
X16120587Y-7290674D02*
X16139634Y-7281150D01*
X16139634Y-7281150D02*
X16168206Y-7281150D01*
X16168206Y-7281150D02*
X16187253Y-7290674D01*
X16187253Y-7290674D02*
X16196777Y-7300198D01*
X16196777Y-7300198D02*
X16206301Y-7319246D01*
X16206301Y-7319246D02*
X16206301Y-7376388D01*
X16206301Y-7376388D02*
X16196777Y-7395436D01*
X16196777Y-7395436D02*
X16187253Y-7404960D01*
X16187253Y-7404960D02*
X16168206Y-7414484D01*
X16168206Y-7414484D02*
X16139634Y-7414484D01*
X16320587Y-7414484D02*
X16301539Y-7404960D01*
X16301539Y-7404960D02*
X16292015Y-7385912D01*
X16292015Y-7385912D02*
X16292015Y-7214484D01*
X16472968Y-7404960D02*
X16453920Y-7414484D01*
X16453920Y-7414484D02*
X16415825Y-7414484D01*
X16415825Y-7414484D02*
X16396777Y-7404960D01*
X16396777Y-7404960D02*
X16387253Y-7385912D01*
X16387253Y-7385912D02*
X16387253Y-7309722D01*
X16387253Y-7309722D02*
X16396777Y-7290674D01*
X16396777Y-7290674D02*
X16415825Y-7281150D01*
X16415825Y-7281150D02*
X16453920Y-7281150D01*
X16453920Y-7281150D02*
X16472968Y-7290674D01*
X16472968Y-7290674D02*
X16482491Y-7309722D01*
X16482491Y-7309722D02*
X16482491Y-7328769D01*
X16482491Y-7328769D02*
X16387253Y-7347817D01*
X16558682Y-7404960D02*
X16577730Y-7414484D01*
X16577730Y-7414484D02*
X16615825Y-7414484D01*
X16615825Y-7414484D02*
X16634872Y-7404960D01*
X16634872Y-7404960D02*
X16644396Y-7385912D01*
X16644396Y-7385912D02*
X16644396Y-7376388D01*
X16644396Y-7376388D02*
X16634872Y-7357341D01*
X16634872Y-7357341D02*
X16615825Y-7347817D01*
X16615825Y-7347817D02*
X16587253Y-7347817D01*
X16587253Y-7347817D02*
X16568206Y-7338293D01*
X16568206Y-7338293D02*
X16558682Y-7319246D01*
X16558682Y-7319246D02*
X16558682Y-7309722D01*
X16558682Y-7309722D02*
X16568206Y-7290674D01*
X16568206Y-7290674D02*
X16587253Y-7281150D01*
X16587253Y-7281150D02*
X16615825Y-7281150D01*
X16615825Y-7281150D02*
X16634872Y-7290674D01*
X16711063Y-7490674D02*
X16720587Y-7481150D01*
X16720587Y-7481150D02*
X16739634Y-7452579D01*
X16739634Y-7452579D02*
X16749158Y-7433531D01*
X16749158Y-7433531D02*
X16758682Y-7404960D01*
X16758682Y-7404960D02*
X16768206Y-7357341D01*
X16768206Y-7357341D02*
X16768206Y-7319246D01*
X16768206Y-7319246D02*
X16758682Y-7271627D01*
X16758682Y-7271627D02*
X16749158Y-7243055D01*
X16749158Y-7243055D02*
X16739634Y-7224008D01*
X16739634Y-7224008D02*
X16720587Y-7195436D01*
X16720587Y-7195436D02*
X16711063Y-7185912D01*
D13*
X11916962Y-7632962D02*
X11916962Y-7541038D01*
X11825038Y-7541038D01*
X11825038Y-7632962D01*
X11916962Y-7632962D01*
D11*
X12301539Y-7678484D02*
X12187253Y-7678484D01*
X12244396Y-7678484D02*
X12244396Y-7478484D01*
X12244396Y-7478484D02*
X12225348Y-7507055D01*
X12225348Y-7507055D02*
X12206301Y-7526103D01*
X12206301Y-7526103D02*
X12187253Y-7535627D01*
X12387253Y-7659436D02*
X12396777Y-7668960D01*
X12396777Y-7668960D02*
X12387253Y-7678484D01*
X12387253Y-7678484D02*
X12377729Y-7668960D01*
X12377729Y-7668960D02*
X12387253Y-7659436D01*
X12387253Y-7659436D02*
X12387253Y-7678484D01*
X12463443Y-7478484D02*
X12587253Y-7478484D01*
X12587253Y-7478484D02*
X12520586Y-7554674D01*
X12520586Y-7554674D02*
X12549158Y-7554674D01*
X12549158Y-7554674D02*
X12568205Y-7564198D01*
X12568205Y-7564198D02*
X12577729Y-7573722D01*
X12577729Y-7573722D02*
X12587253Y-7592769D01*
X12587253Y-7592769D02*
X12587253Y-7640388D01*
X12587253Y-7640388D02*
X12577729Y-7659436D01*
X12577729Y-7659436D02*
X12568205Y-7668960D01*
X12568205Y-7668960D02*
X12549158Y-7678484D01*
X12549158Y-7678484D02*
X12492015Y-7678484D01*
X12492015Y-7678484D02*
X12472967Y-7668960D01*
X12472967Y-7668960D02*
X12463443Y-7659436D01*
X12711062Y-7478484D02*
X12730110Y-7478484D01*
X12730110Y-7478484D02*
X12749158Y-7488008D01*
X12749158Y-7488008D02*
X12758682Y-7497531D01*
X12758682Y-7497531D02*
X12768205Y-7516579D01*
X12768205Y-7516579D02*
X12777729Y-7554674D01*
X12777729Y-7554674D02*
X12777729Y-7602293D01*
X12777729Y-7602293D02*
X12768205Y-7640388D01*
X12768205Y-7640388D02*
X12758682Y-7659436D01*
X12758682Y-7659436D02*
X12749158Y-7668960D01*
X12749158Y-7668960D02*
X12730110Y-7678484D01*
X12730110Y-7678484D02*
X12711062Y-7678484D01*
X12711062Y-7678484D02*
X12692015Y-7668960D01*
X12692015Y-7668960D02*
X12682491Y-7659436D01*
X12682491Y-7659436D02*
X12672967Y-7640388D01*
X12672967Y-7640388D02*
X12663443Y-7602293D01*
X12663443Y-7602293D02*
X12663443Y-7554674D01*
X12663443Y-7554674D02*
X12672967Y-7516579D01*
X12672967Y-7516579D02*
X12682491Y-7497531D01*
X12682491Y-7497531D02*
X12692015Y-7488008D01*
X12692015Y-7488008D02*
X12711062Y-7478484D01*
X12901539Y-7478484D02*
X12920586Y-7478484D01*
X12920586Y-7478484D02*
X12939634Y-7488008D01*
X12939634Y-7488008D02*
X12949158Y-7497531D01*
X12949158Y-7497531D02*
X12958682Y-7516579D01*
X12958682Y-7516579D02*
X12968205Y-7554674D01*
X12968205Y-7554674D02*
X12968205Y-7602293D01*
X12968205Y-7602293D02*
X12958682Y-7640388D01*
X12958682Y-7640388D02*
X12949158Y-7659436D01*
X12949158Y-7659436D02*
X12939634Y-7668960D01*
X12939634Y-7668960D02*
X12920586Y-7678484D01*
X12920586Y-7678484D02*
X12901539Y-7678484D01*
X12901539Y-7678484D02*
X12882491Y-7668960D01*
X12882491Y-7668960D02*
X12872967Y-7659436D01*
X12872967Y-7659436D02*
X12863443Y-7640388D01*
X12863443Y-7640388D02*
X12853920Y-7602293D01*
X12853920Y-7602293D02*
X12853920Y-7554674D01*
X12853920Y-7554674D02*
X12863443Y-7516579D01*
X12863443Y-7516579D02*
X12872967Y-7497531D01*
X12872967Y-7497531D02*
X12882491Y-7488008D01*
X12882491Y-7488008D02*
X12901539Y-7478484D01*
X13053920Y-7678484D02*
X13053920Y-7545150D01*
X13053920Y-7564198D02*
X13063443Y-7554674D01*
X13063443Y-7554674D02*
X13082491Y-7545150D01*
X13082491Y-7545150D02*
X13111063Y-7545150D01*
X13111063Y-7545150D02*
X13130110Y-7554674D01*
X13130110Y-7554674D02*
X13139634Y-7573722D01*
X13139634Y-7573722D02*
X13139634Y-7678484D01*
X13139634Y-7573722D02*
X13149158Y-7554674D01*
X13149158Y-7554674D02*
X13168205Y-7545150D01*
X13168205Y-7545150D02*
X13196777Y-7545150D01*
X13196777Y-7545150D02*
X13215824Y-7554674D01*
X13215824Y-7554674D02*
X13225348Y-7573722D01*
X13225348Y-7573722D02*
X13225348Y-7678484D01*
X13320586Y-7678484D02*
X13320586Y-7545150D01*
X13320586Y-7564198D02*
X13330110Y-7554674D01*
X13330110Y-7554674D02*
X13349158Y-7545150D01*
X13349158Y-7545150D02*
X13377729Y-7545150D01*
X13377729Y-7545150D02*
X13396777Y-7554674D01*
X13396777Y-7554674D02*
X13406301Y-7573722D01*
X13406301Y-7573722D02*
X13406301Y-7678484D01*
X13406301Y-7573722D02*
X13415824Y-7554674D01*
X13415824Y-7554674D02*
X13434872Y-7545150D01*
X13434872Y-7545150D02*
X13463443Y-7545150D01*
X13463443Y-7545150D02*
X13482491Y-7554674D01*
X13482491Y-7554674D02*
X13492015Y-7573722D01*
X13492015Y-7573722D02*
X13492015Y-7678484D01*
X13882491Y-7468960D02*
X13711063Y-7726103D01*
X14139634Y-7478484D02*
X14158682Y-7478484D01*
X14158682Y-7478484D02*
X14177729Y-7488008D01*
X14177729Y-7488008D02*
X14187253Y-7497531D01*
X14187253Y-7497531D02*
X14196777Y-7516579D01*
X14196777Y-7516579D02*
X14206301Y-7554674D01*
X14206301Y-7554674D02*
X14206301Y-7602293D01*
X14206301Y-7602293D02*
X14196777Y-7640388D01*
X14196777Y-7640388D02*
X14187253Y-7659436D01*
X14187253Y-7659436D02*
X14177729Y-7668960D01*
X14177729Y-7668960D02*
X14158682Y-7678484D01*
X14158682Y-7678484D02*
X14139634Y-7678484D01*
X14139634Y-7678484D02*
X14120586Y-7668960D01*
X14120586Y-7668960D02*
X14111063Y-7659436D01*
X14111063Y-7659436D02*
X14101539Y-7640388D01*
X14101539Y-7640388D02*
X14092015Y-7602293D01*
X14092015Y-7602293D02*
X14092015Y-7554674D01*
X14092015Y-7554674D02*
X14101539Y-7516579D01*
X14101539Y-7516579D02*
X14111063Y-7497531D01*
X14111063Y-7497531D02*
X14120586Y-7488008D01*
X14120586Y-7488008D02*
X14139634Y-7478484D01*
X14292015Y-7659436D02*
X14301539Y-7668960D01*
X14301539Y-7668960D02*
X14292015Y-7678484D01*
X14292015Y-7678484D02*
X14282491Y-7668960D01*
X14282491Y-7668960D02*
X14292015Y-7659436D01*
X14292015Y-7659436D02*
X14292015Y-7678484D01*
X14425348Y-7478484D02*
X14444396Y-7478484D01*
X14444396Y-7478484D02*
X14463444Y-7488008D01*
X14463444Y-7488008D02*
X14472967Y-7497531D01*
X14472967Y-7497531D02*
X14482491Y-7516579D01*
X14482491Y-7516579D02*
X14492015Y-7554674D01*
X14492015Y-7554674D02*
X14492015Y-7602293D01*
X14492015Y-7602293D02*
X14482491Y-7640388D01*
X14482491Y-7640388D02*
X14472967Y-7659436D01*
X14472967Y-7659436D02*
X14463444Y-7668960D01*
X14463444Y-7668960D02*
X14444396Y-7678484D01*
X14444396Y-7678484D02*
X14425348Y-7678484D01*
X14425348Y-7678484D02*
X14406301Y-7668960D01*
X14406301Y-7668960D02*
X14396777Y-7659436D01*
X14396777Y-7659436D02*
X14387253Y-7640388D01*
X14387253Y-7640388D02*
X14377729Y-7602293D01*
X14377729Y-7602293D02*
X14377729Y-7554674D01*
X14377729Y-7554674D02*
X14387253Y-7516579D01*
X14387253Y-7516579D02*
X14396777Y-7497531D01*
X14396777Y-7497531D02*
X14406301Y-7488008D01*
X14406301Y-7488008D02*
X14425348Y-7478484D01*
X14672967Y-7478484D02*
X14577729Y-7478484D01*
X14577729Y-7478484D02*
X14568206Y-7573722D01*
X14568206Y-7573722D02*
X14577729Y-7564198D01*
X14577729Y-7564198D02*
X14596777Y-7554674D01*
X14596777Y-7554674D02*
X14644396Y-7554674D01*
X14644396Y-7554674D02*
X14663444Y-7564198D01*
X14663444Y-7564198D02*
X14672967Y-7573722D01*
X14672967Y-7573722D02*
X14682491Y-7592769D01*
X14682491Y-7592769D02*
X14682491Y-7640388D01*
X14682491Y-7640388D02*
X14672967Y-7659436D01*
X14672967Y-7659436D02*
X14663444Y-7668960D01*
X14663444Y-7668960D02*
X14644396Y-7678484D01*
X14644396Y-7678484D02*
X14596777Y-7678484D01*
X14596777Y-7678484D02*
X14577729Y-7668960D01*
X14577729Y-7668960D02*
X14568206Y-7659436D01*
X14872967Y-7678484D02*
X14758682Y-7678484D01*
X14815825Y-7678484D02*
X14815825Y-7478484D01*
X14815825Y-7478484D02*
X14796777Y-7507055D01*
X14796777Y-7507055D02*
X14777729Y-7526103D01*
X14777729Y-7526103D02*
X14758682Y-7535627D01*
X14949158Y-7497531D02*
X14958682Y-7488008D01*
X14958682Y-7488008D02*
X14977729Y-7478484D01*
X14977729Y-7478484D02*
X15025348Y-7478484D01*
X15025348Y-7478484D02*
X15044396Y-7488008D01*
X15044396Y-7488008D02*
X15053920Y-7497531D01*
X15053920Y-7497531D02*
X15063444Y-7516579D01*
X15063444Y-7516579D02*
X15063444Y-7535627D01*
X15063444Y-7535627D02*
X15053920Y-7564198D01*
X15053920Y-7564198D02*
X14939634Y-7678484D01*
X14939634Y-7678484D02*
X15063444Y-7678484D01*
X15139634Y-7478484D02*
X15139634Y-7516579D01*
X15215825Y-7478484D02*
X15215825Y-7516579D01*
X15511063Y-7754674D02*
X15501539Y-7745150D01*
X15501539Y-7745150D02*
X15482491Y-7716579D01*
X15482491Y-7716579D02*
X15472968Y-7697531D01*
X15472968Y-7697531D02*
X15463444Y-7668960D01*
X15463444Y-7668960D02*
X15453920Y-7621341D01*
X15453920Y-7621341D02*
X15453920Y-7583246D01*
X15453920Y-7583246D02*
X15463444Y-7535627D01*
X15463444Y-7535627D02*
X15472968Y-7507055D01*
X15472968Y-7507055D02*
X15482491Y-7488008D01*
X15482491Y-7488008D02*
X15501539Y-7459436D01*
X15501539Y-7459436D02*
X15511063Y-7449912D01*
X15568206Y-7478484D02*
X15701539Y-7478484D01*
X15701539Y-7478484D02*
X15615825Y-7678484D01*
X15930110Y-7678484D02*
X15930110Y-7478484D01*
X16015825Y-7678484D02*
X16015825Y-7573722D01*
X16015825Y-7573722D02*
X16006301Y-7554674D01*
X16006301Y-7554674D02*
X15987253Y-7545150D01*
X15987253Y-7545150D02*
X15958682Y-7545150D01*
X15958682Y-7545150D02*
X15939634Y-7554674D01*
X15939634Y-7554674D02*
X15930110Y-7564198D01*
X16139634Y-7678484D02*
X16120587Y-7668960D01*
X16120587Y-7668960D02*
X16111063Y-7659436D01*
X16111063Y-7659436D02*
X16101539Y-7640388D01*
X16101539Y-7640388D02*
X16101539Y-7583246D01*
X16101539Y-7583246D02*
X16111063Y-7564198D01*
X16111063Y-7564198D02*
X16120587Y-7554674D01*
X16120587Y-7554674D02*
X16139634Y-7545150D01*
X16139634Y-7545150D02*
X16168206Y-7545150D01*
X16168206Y-7545150D02*
X16187253Y-7554674D01*
X16187253Y-7554674D02*
X16196777Y-7564198D01*
X16196777Y-7564198D02*
X16206301Y-7583246D01*
X16206301Y-7583246D02*
X16206301Y-7640388D01*
X16206301Y-7640388D02*
X16196777Y-7659436D01*
X16196777Y-7659436D02*
X16187253Y-7668960D01*
X16187253Y-7668960D02*
X16168206Y-7678484D01*
X16168206Y-7678484D02*
X16139634Y-7678484D01*
X16320587Y-7678484D02*
X16301539Y-7668960D01*
X16301539Y-7668960D02*
X16292015Y-7649912D01*
X16292015Y-7649912D02*
X16292015Y-7478484D01*
X16472968Y-7668960D02*
X16453920Y-7678484D01*
X16453920Y-7678484D02*
X16415825Y-7678484D01*
X16415825Y-7678484D02*
X16396777Y-7668960D01*
X16396777Y-7668960D02*
X16387253Y-7649912D01*
X16387253Y-7649912D02*
X16387253Y-7573722D01*
X16387253Y-7573722D02*
X16396777Y-7554674D01*
X16396777Y-7554674D02*
X16415825Y-7545150D01*
X16415825Y-7545150D02*
X16453920Y-7545150D01*
X16453920Y-7545150D02*
X16472968Y-7554674D01*
X16472968Y-7554674D02*
X16482491Y-7573722D01*
X16482491Y-7573722D02*
X16482491Y-7592769D01*
X16482491Y-7592769D02*
X16387253Y-7611817D01*
X16558682Y-7668960D02*
X16577730Y-7678484D01*
X16577730Y-7678484D02*
X16615825Y-7678484D01*
X16615825Y-7678484D02*
X16634872Y-7668960D01*
X16634872Y-7668960D02*
X16644396Y-7649912D01*
X16644396Y-7649912D02*
X16644396Y-7640388D01*
X16644396Y-7640388D02*
X16634872Y-7621341D01*
X16634872Y-7621341D02*
X16615825Y-7611817D01*
X16615825Y-7611817D02*
X16587253Y-7611817D01*
X16587253Y-7611817D02*
X16568206Y-7602293D01*
X16568206Y-7602293D02*
X16558682Y-7583246D01*
X16558682Y-7583246D02*
X16558682Y-7573722D01*
X16558682Y-7573722D02*
X16568206Y-7554674D01*
X16568206Y-7554674D02*
X16587253Y-7545150D01*
X16587253Y-7545150D02*
X16615825Y-7545150D01*
X16615825Y-7545150D02*
X16634872Y-7554674D01*
X16711063Y-7754674D02*
X16720587Y-7745150D01*
X16720587Y-7745150D02*
X16739634Y-7716579D01*
X16739634Y-7716579D02*
X16749158Y-7697531D01*
X16749158Y-7697531D02*
X16758682Y-7668960D01*
X16758682Y-7668960D02*
X16768206Y-7621341D01*
X16768206Y-7621341D02*
X16768206Y-7583246D01*
X16768206Y-7583246D02*
X16758682Y-7535627D01*
X16758682Y-7535627D02*
X16749158Y-7507055D01*
X16749158Y-7507055D02*
X16739634Y-7488008D01*
X16739634Y-7488008D02*
X16720587Y-7459436D01*
X16720587Y-7459436D02*
X16711063Y-7449912D01*
X11836000Y-7951000D02*
X11936000Y-7851000D01*
X11836000Y-7751000D01*
X11736000Y-7851000D01*
X11836000Y-7951000D01*
X12177729Y-7742484D02*
X12301539Y-7742484D01*
X12301539Y-7742484D02*
X12234872Y-7818674D01*
X12234872Y-7818674D02*
X12263443Y-7818674D01*
X12263443Y-7818674D02*
X12282491Y-7828198D01*
X12282491Y-7828198D02*
X12292015Y-7837722D01*
X12292015Y-7837722D02*
X12301539Y-7856769D01*
X12301539Y-7856769D02*
X12301539Y-7904388D01*
X12301539Y-7904388D02*
X12292015Y-7923436D01*
X12292015Y-7923436D02*
X12282491Y-7932960D01*
X12282491Y-7932960D02*
X12263443Y-7942484D01*
X12263443Y-7942484D02*
X12206301Y-7942484D01*
X12206301Y-7942484D02*
X12187253Y-7932960D01*
X12187253Y-7932960D02*
X12177729Y-7923436D01*
X12387253Y-7923436D02*
X12396777Y-7932960D01*
X12396777Y-7932960D02*
X12387253Y-7942484D01*
X12387253Y-7942484D02*
X12377729Y-7932960D01*
X12377729Y-7932960D02*
X12387253Y-7923436D01*
X12387253Y-7923436D02*
X12387253Y-7942484D01*
X12472967Y-7761531D02*
X12482491Y-7752008D01*
X12482491Y-7752008D02*
X12501539Y-7742484D01*
X12501539Y-7742484D02*
X12549158Y-7742484D01*
X12549158Y-7742484D02*
X12568205Y-7752008D01*
X12568205Y-7752008D02*
X12577729Y-7761531D01*
X12577729Y-7761531D02*
X12587253Y-7780579D01*
X12587253Y-7780579D02*
X12587253Y-7799627D01*
X12587253Y-7799627D02*
X12577729Y-7828198D01*
X12577729Y-7828198D02*
X12463443Y-7942484D01*
X12463443Y-7942484D02*
X12587253Y-7942484D01*
X12711062Y-7742484D02*
X12730110Y-7742484D01*
X12730110Y-7742484D02*
X12749158Y-7752008D01*
X12749158Y-7752008D02*
X12758682Y-7761531D01*
X12758682Y-7761531D02*
X12768205Y-7780579D01*
X12768205Y-7780579D02*
X12777729Y-7818674D01*
X12777729Y-7818674D02*
X12777729Y-7866293D01*
X12777729Y-7866293D02*
X12768205Y-7904388D01*
X12768205Y-7904388D02*
X12758682Y-7923436D01*
X12758682Y-7923436D02*
X12749158Y-7932960D01*
X12749158Y-7932960D02*
X12730110Y-7942484D01*
X12730110Y-7942484D02*
X12711062Y-7942484D01*
X12711062Y-7942484D02*
X12692015Y-7932960D01*
X12692015Y-7932960D02*
X12682491Y-7923436D01*
X12682491Y-7923436D02*
X12672967Y-7904388D01*
X12672967Y-7904388D02*
X12663443Y-7866293D01*
X12663443Y-7866293D02*
X12663443Y-7818674D01*
X12663443Y-7818674D02*
X12672967Y-7780579D01*
X12672967Y-7780579D02*
X12682491Y-7761531D01*
X12682491Y-7761531D02*
X12692015Y-7752008D01*
X12692015Y-7752008D02*
X12711062Y-7742484D01*
X12901539Y-7742484D02*
X12920586Y-7742484D01*
X12920586Y-7742484D02*
X12939634Y-7752008D01*
X12939634Y-7752008D02*
X12949158Y-7761531D01*
X12949158Y-7761531D02*
X12958682Y-7780579D01*
X12958682Y-7780579D02*
X12968205Y-7818674D01*
X12968205Y-7818674D02*
X12968205Y-7866293D01*
X12968205Y-7866293D02*
X12958682Y-7904388D01*
X12958682Y-7904388D02*
X12949158Y-7923436D01*
X12949158Y-7923436D02*
X12939634Y-7932960D01*
X12939634Y-7932960D02*
X12920586Y-7942484D01*
X12920586Y-7942484D02*
X12901539Y-7942484D01*
X12901539Y-7942484D02*
X12882491Y-7932960D01*
X12882491Y-7932960D02*
X12872967Y-7923436D01*
X12872967Y-7923436D02*
X12863443Y-7904388D01*
X12863443Y-7904388D02*
X12853920Y-7866293D01*
X12853920Y-7866293D02*
X12853920Y-7818674D01*
X12853920Y-7818674D02*
X12863443Y-7780579D01*
X12863443Y-7780579D02*
X12872967Y-7761531D01*
X12872967Y-7761531D02*
X12882491Y-7752008D01*
X12882491Y-7752008D02*
X12901539Y-7742484D01*
X13053920Y-7942484D02*
X13053920Y-7809150D01*
X13053920Y-7828198D02*
X13063443Y-7818674D01*
X13063443Y-7818674D02*
X13082491Y-7809150D01*
X13082491Y-7809150D02*
X13111063Y-7809150D01*
X13111063Y-7809150D02*
X13130110Y-7818674D01*
X13130110Y-7818674D02*
X13139634Y-7837722D01*
X13139634Y-7837722D02*
X13139634Y-7942484D01*
X13139634Y-7837722D02*
X13149158Y-7818674D01*
X13149158Y-7818674D02*
X13168205Y-7809150D01*
X13168205Y-7809150D02*
X13196777Y-7809150D01*
X13196777Y-7809150D02*
X13215824Y-7818674D01*
X13215824Y-7818674D02*
X13225348Y-7837722D01*
X13225348Y-7837722D02*
X13225348Y-7942484D01*
X13320586Y-7942484D02*
X13320586Y-7809150D01*
X13320586Y-7828198D02*
X13330110Y-7818674D01*
X13330110Y-7818674D02*
X13349158Y-7809150D01*
X13349158Y-7809150D02*
X13377729Y-7809150D01*
X13377729Y-7809150D02*
X13396777Y-7818674D01*
X13396777Y-7818674D02*
X13406301Y-7837722D01*
X13406301Y-7837722D02*
X13406301Y-7942484D01*
X13406301Y-7837722D02*
X13415824Y-7818674D01*
X13415824Y-7818674D02*
X13434872Y-7809150D01*
X13434872Y-7809150D02*
X13463443Y-7809150D01*
X13463443Y-7809150D02*
X13482491Y-7818674D01*
X13482491Y-7818674D02*
X13492015Y-7837722D01*
X13492015Y-7837722D02*
X13492015Y-7942484D01*
X13882491Y-7732960D02*
X13711063Y-7990103D01*
X14139634Y-7742484D02*
X14158682Y-7742484D01*
X14158682Y-7742484D02*
X14177729Y-7752008D01*
X14177729Y-7752008D02*
X14187253Y-7761531D01*
X14187253Y-7761531D02*
X14196777Y-7780579D01*
X14196777Y-7780579D02*
X14206301Y-7818674D01*
X14206301Y-7818674D02*
X14206301Y-7866293D01*
X14206301Y-7866293D02*
X14196777Y-7904388D01*
X14196777Y-7904388D02*
X14187253Y-7923436D01*
X14187253Y-7923436D02*
X14177729Y-7932960D01*
X14177729Y-7932960D02*
X14158682Y-7942484D01*
X14158682Y-7942484D02*
X14139634Y-7942484D01*
X14139634Y-7942484D02*
X14120586Y-7932960D01*
X14120586Y-7932960D02*
X14111063Y-7923436D01*
X14111063Y-7923436D02*
X14101539Y-7904388D01*
X14101539Y-7904388D02*
X14092015Y-7866293D01*
X14092015Y-7866293D02*
X14092015Y-7818674D01*
X14092015Y-7818674D02*
X14101539Y-7780579D01*
X14101539Y-7780579D02*
X14111063Y-7761531D01*
X14111063Y-7761531D02*
X14120586Y-7752008D01*
X14120586Y-7752008D02*
X14139634Y-7742484D01*
X14292015Y-7923436D02*
X14301539Y-7932960D01*
X14301539Y-7932960D02*
X14292015Y-7942484D01*
X14292015Y-7942484D02*
X14282491Y-7932960D01*
X14282491Y-7932960D02*
X14292015Y-7923436D01*
X14292015Y-7923436D02*
X14292015Y-7942484D01*
X14492015Y-7942484D02*
X14377729Y-7942484D01*
X14434872Y-7942484D02*
X14434872Y-7742484D01*
X14434872Y-7742484D02*
X14415825Y-7771055D01*
X14415825Y-7771055D02*
X14396777Y-7790103D01*
X14396777Y-7790103D02*
X14377729Y-7799627D01*
X14568206Y-7761531D02*
X14577729Y-7752008D01*
X14577729Y-7752008D02*
X14596777Y-7742484D01*
X14596777Y-7742484D02*
X14644396Y-7742484D01*
X14644396Y-7742484D02*
X14663444Y-7752008D01*
X14663444Y-7752008D02*
X14672967Y-7761531D01*
X14672967Y-7761531D02*
X14682491Y-7780579D01*
X14682491Y-7780579D02*
X14682491Y-7799627D01*
X14682491Y-7799627D02*
X14672967Y-7828198D01*
X14672967Y-7828198D02*
X14558682Y-7942484D01*
X14558682Y-7942484D02*
X14682491Y-7942484D01*
X14853920Y-7742484D02*
X14815825Y-7742484D01*
X14815825Y-7742484D02*
X14796777Y-7752008D01*
X14796777Y-7752008D02*
X14787253Y-7761531D01*
X14787253Y-7761531D02*
X14768206Y-7790103D01*
X14768206Y-7790103D02*
X14758682Y-7828198D01*
X14758682Y-7828198D02*
X14758682Y-7904388D01*
X14758682Y-7904388D02*
X14768206Y-7923436D01*
X14768206Y-7923436D02*
X14777729Y-7932960D01*
X14777729Y-7932960D02*
X14796777Y-7942484D01*
X14796777Y-7942484D02*
X14834872Y-7942484D01*
X14834872Y-7942484D02*
X14853920Y-7932960D01*
X14853920Y-7932960D02*
X14863444Y-7923436D01*
X14863444Y-7923436D02*
X14872967Y-7904388D01*
X14872967Y-7904388D02*
X14872967Y-7856769D01*
X14872967Y-7856769D02*
X14863444Y-7837722D01*
X14863444Y-7837722D02*
X14853920Y-7828198D01*
X14853920Y-7828198D02*
X14834872Y-7818674D01*
X14834872Y-7818674D02*
X14796777Y-7818674D01*
X14796777Y-7818674D02*
X14777729Y-7828198D01*
X14777729Y-7828198D02*
X14768206Y-7837722D01*
X14768206Y-7837722D02*
X14758682Y-7856769D01*
X14996777Y-7742484D02*
X15015825Y-7742484D01*
X15015825Y-7742484D02*
X15034872Y-7752008D01*
X15034872Y-7752008D02*
X15044396Y-7761531D01*
X15044396Y-7761531D02*
X15053920Y-7780579D01*
X15053920Y-7780579D02*
X15063444Y-7818674D01*
X15063444Y-7818674D02*
X15063444Y-7866293D01*
X15063444Y-7866293D02*
X15053920Y-7904388D01*
X15053920Y-7904388D02*
X15044396Y-7923436D01*
X15044396Y-7923436D02*
X15034872Y-7932960D01*
X15034872Y-7932960D02*
X15015825Y-7942484D01*
X15015825Y-7942484D02*
X14996777Y-7942484D01*
X14996777Y-7942484D02*
X14977729Y-7932960D01*
X14977729Y-7932960D02*
X14968206Y-7923436D01*
X14968206Y-7923436D02*
X14958682Y-7904388D01*
X14958682Y-7904388D02*
X14949158Y-7866293D01*
X14949158Y-7866293D02*
X14949158Y-7818674D01*
X14949158Y-7818674D02*
X14958682Y-7780579D01*
X14958682Y-7780579D02*
X14968206Y-7761531D01*
X14968206Y-7761531D02*
X14977729Y-7752008D01*
X14977729Y-7752008D02*
X14996777Y-7742484D01*
X15139634Y-7742484D02*
X15139634Y-7780579D01*
X15215825Y-7742484D02*
X15215825Y-7780579D01*
X15511063Y-8018674D02*
X15501539Y-8009150D01*
X15501539Y-8009150D02*
X15482491Y-7980579D01*
X15482491Y-7980579D02*
X15472968Y-7961531D01*
X15472968Y-7961531D02*
X15463444Y-7932960D01*
X15463444Y-7932960D02*
X15453920Y-7885341D01*
X15453920Y-7885341D02*
X15453920Y-7847246D01*
X15453920Y-7847246D02*
X15463444Y-7799627D01*
X15463444Y-7799627D02*
X15472968Y-7771055D01*
X15472968Y-7771055D02*
X15482491Y-7752008D01*
X15482491Y-7752008D02*
X15501539Y-7723436D01*
X15501539Y-7723436D02*
X15511063Y-7713912D01*
X15672968Y-7809150D02*
X15672968Y-7942484D01*
X15625348Y-7732960D02*
X15577729Y-7875817D01*
X15577729Y-7875817D02*
X15701539Y-7875817D01*
X15930110Y-7942484D02*
X15930110Y-7742484D01*
X16015825Y-7942484D02*
X16015825Y-7837722D01*
X16015825Y-7837722D02*
X16006301Y-7818674D01*
X16006301Y-7818674D02*
X15987253Y-7809150D01*
X15987253Y-7809150D02*
X15958682Y-7809150D01*
X15958682Y-7809150D02*
X15939634Y-7818674D01*
X15939634Y-7818674D02*
X15930110Y-7828198D01*
X16139634Y-7942484D02*
X16120587Y-7932960D01*
X16120587Y-7932960D02*
X16111063Y-7923436D01*
X16111063Y-7923436D02*
X16101539Y-7904388D01*
X16101539Y-7904388D02*
X16101539Y-7847246D01*
X16101539Y-7847246D02*
X16111063Y-7828198D01*
X16111063Y-7828198D02*
X16120587Y-7818674D01*
X16120587Y-7818674D02*
X16139634Y-7809150D01*
X16139634Y-7809150D02*
X16168206Y-7809150D01*
X16168206Y-7809150D02*
X16187253Y-7818674D01*
X16187253Y-7818674D02*
X16196777Y-7828198D01*
X16196777Y-7828198D02*
X16206301Y-7847246D01*
X16206301Y-7847246D02*
X16206301Y-7904388D01*
X16206301Y-7904388D02*
X16196777Y-7923436D01*
X16196777Y-7923436D02*
X16187253Y-7932960D01*
X16187253Y-7932960D02*
X16168206Y-7942484D01*
X16168206Y-7942484D02*
X16139634Y-7942484D01*
X16320587Y-7942484D02*
X16301539Y-7932960D01*
X16301539Y-7932960D02*
X16292015Y-7913912D01*
X16292015Y-7913912D02*
X16292015Y-7742484D01*
X16472968Y-7932960D02*
X16453920Y-7942484D01*
X16453920Y-7942484D02*
X16415825Y-7942484D01*
X16415825Y-7942484D02*
X16396777Y-7932960D01*
X16396777Y-7932960D02*
X16387253Y-7913912D01*
X16387253Y-7913912D02*
X16387253Y-7837722D01*
X16387253Y-7837722D02*
X16396777Y-7818674D01*
X16396777Y-7818674D02*
X16415825Y-7809150D01*
X16415825Y-7809150D02*
X16453920Y-7809150D01*
X16453920Y-7809150D02*
X16472968Y-7818674D01*
X16472968Y-7818674D02*
X16482491Y-7837722D01*
X16482491Y-7837722D02*
X16482491Y-7856769D01*
X16482491Y-7856769D02*
X16387253Y-7875817D01*
X16558682Y-7932960D02*
X16577730Y-7942484D01*
X16577730Y-7942484D02*
X16615825Y-7942484D01*
X16615825Y-7942484D02*
X16634872Y-7932960D01*
X16634872Y-7932960D02*
X16644396Y-7913912D01*
X16644396Y-7913912D02*
X16644396Y-7904388D01*
X16644396Y-7904388D02*
X16634872Y-7885341D01*
X16634872Y-7885341D02*
X16615825Y-7875817D01*
X16615825Y-7875817D02*
X16587253Y-7875817D01*
X16587253Y-7875817D02*
X16568206Y-7866293D01*
X16568206Y-7866293D02*
X16558682Y-7847246D01*
X16558682Y-7847246D02*
X16558682Y-7837722D01*
X16558682Y-7837722D02*
X16568206Y-7818674D01*
X16568206Y-7818674D02*
X16587253Y-7809150D01*
X16587253Y-7809150D02*
X16615825Y-7809150D01*
X16615825Y-7809150D02*
X16634872Y-7818674D01*
X16711063Y-8018674D02*
X16720587Y-8009150D01*
X16720587Y-8009150D02*
X16739634Y-7980579D01*
X16739634Y-7980579D02*
X16749158Y-7961531D01*
X16749158Y-7961531D02*
X16758682Y-7932960D01*
X16758682Y-7932960D02*
X16768206Y-7885341D01*
X16768206Y-7885341D02*
X16768206Y-7847246D01*
X16768206Y-7847246D02*
X16758682Y-7799627D01*
X16758682Y-7799627D02*
X16749158Y-7771055D01*
X16749158Y-7771055D02*
X16739634Y-7752008D01*
X16739634Y-7752008D02*
X16720587Y-7723436D01*
X16720587Y-7723436D02*
X16711063Y-7713912D01*
X17072968Y-8018674D02*
X17063444Y-8009150D01*
X17063444Y-8009150D02*
X17044396Y-7980579D01*
X17044396Y-7980579D02*
X17034873Y-7961531D01*
X17034873Y-7961531D02*
X17025349Y-7932960D01*
X17025349Y-7932960D02*
X17015825Y-7885341D01*
X17015825Y-7885341D02*
X17015825Y-7847246D01*
X17015825Y-7847246D02*
X17025349Y-7799627D01*
X17025349Y-7799627D02*
X17034873Y-7771055D01*
X17034873Y-7771055D02*
X17044396Y-7752008D01*
X17044396Y-7752008D02*
X17063444Y-7723436D01*
X17063444Y-7723436D02*
X17072968Y-7713912D01*
X17149158Y-7809150D02*
X17149158Y-7942484D01*
X17149158Y-7828198D02*
X17158682Y-7818674D01*
X17158682Y-7818674D02*
X17177730Y-7809150D01*
X17177730Y-7809150D02*
X17206301Y-7809150D01*
X17206301Y-7809150D02*
X17225349Y-7818674D01*
X17225349Y-7818674D02*
X17234873Y-7837722D01*
X17234873Y-7837722D02*
X17234873Y-7942484D01*
X17358682Y-7942484D02*
X17339634Y-7932960D01*
X17339634Y-7932960D02*
X17330111Y-7923436D01*
X17330111Y-7923436D02*
X17320587Y-7904388D01*
X17320587Y-7904388D02*
X17320587Y-7847246D01*
X17320587Y-7847246D02*
X17330111Y-7828198D01*
X17330111Y-7828198D02*
X17339634Y-7818674D01*
X17339634Y-7818674D02*
X17358682Y-7809150D01*
X17358682Y-7809150D02*
X17387254Y-7809150D01*
X17387254Y-7809150D02*
X17406301Y-7818674D01*
X17406301Y-7818674D02*
X17415825Y-7828198D01*
X17415825Y-7828198D02*
X17425349Y-7847246D01*
X17425349Y-7847246D02*
X17425349Y-7904388D01*
X17425349Y-7904388D02*
X17415825Y-7923436D01*
X17415825Y-7923436D02*
X17406301Y-7932960D01*
X17406301Y-7932960D02*
X17387254Y-7942484D01*
X17387254Y-7942484D02*
X17358682Y-7942484D01*
X17482492Y-7809150D02*
X17558682Y-7809150D01*
X17511063Y-7742484D02*
X17511063Y-7913912D01*
X17511063Y-7913912D02*
X17520587Y-7932960D01*
X17520587Y-7932960D02*
X17539634Y-7942484D01*
X17539634Y-7942484D02*
X17558682Y-7942484D01*
X17777730Y-7809150D02*
X17777730Y-8009150D01*
X17777730Y-7818674D02*
X17796777Y-7809150D01*
X17796777Y-7809150D02*
X17834873Y-7809150D01*
X17834873Y-7809150D02*
X17853920Y-7818674D01*
X17853920Y-7818674D02*
X17863444Y-7828198D01*
X17863444Y-7828198D02*
X17872968Y-7847246D01*
X17872968Y-7847246D02*
X17872968Y-7904388D01*
X17872968Y-7904388D02*
X17863444Y-7923436D01*
X17863444Y-7923436D02*
X17853920Y-7932960D01*
X17853920Y-7932960D02*
X17834873Y-7942484D01*
X17834873Y-7942484D02*
X17796777Y-7942484D01*
X17796777Y-7942484D02*
X17777730Y-7932960D01*
X17987254Y-7942484D02*
X17968206Y-7932960D01*
X17968206Y-7932960D02*
X17958682Y-7913912D01*
X17958682Y-7913912D02*
X17958682Y-7742484D01*
X18149158Y-7942484D02*
X18149158Y-7837722D01*
X18149158Y-7837722D02*
X18139635Y-7818674D01*
X18139635Y-7818674D02*
X18120587Y-7809150D01*
X18120587Y-7809150D02*
X18082492Y-7809150D01*
X18082492Y-7809150D02*
X18063444Y-7818674D01*
X18149158Y-7932960D02*
X18130111Y-7942484D01*
X18130111Y-7942484D02*
X18082492Y-7942484D01*
X18082492Y-7942484D02*
X18063444Y-7932960D01*
X18063444Y-7932960D02*
X18053920Y-7913912D01*
X18053920Y-7913912D02*
X18053920Y-7894865D01*
X18053920Y-7894865D02*
X18063444Y-7875817D01*
X18063444Y-7875817D02*
X18082492Y-7866293D01*
X18082492Y-7866293D02*
X18130111Y-7866293D01*
X18130111Y-7866293D02*
X18149158Y-7856769D01*
X18215825Y-7809150D02*
X18292015Y-7809150D01*
X18244396Y-7742484D02*
X18244396Y-7913912D01*
X18244396Y-7913912D02*
X18253920Y-7932960D01*
X18253920Y-7932960D02*
X18272968Y-7942484D01*
X18272968Y-7942484D02*
X18292015Y-7942484D01*
X18434873Y-7932960D02*
X18415825Y-7942484D01*
X18415825Y-7942484D02*
X18377730Y-7942484D01*
X18377730Y-7942484D02*
X18358682Y-7932960D01*
X18358682Y-7932960D02*
X18349158Y-7913912D01*
X18349158Y-7913912D02*
X18349158Y-7837722D01*
X18349158Y-7837722D02*
X18358682Y-7818674D01*
X18358682Y-7818674D02*
X18377730Y-7809150D01*
X18377730Y-7809150D02*
X18415825Y-7809150D01*
X18415825Y-7809150D02*
X18434873Y-7818674D01*
X18434873Y-7818674D02*
X18444396Y-7837722D01*
X18444396Y-7837722D02*
X18444396Y-7856769D01*
X18444396Y-7856769D02*
X18349158Y-7875817D01*
X18615825Y-7942484D02*
X18615825Y-7742484D01*
X18615825Y-7932960D02*
X18596777Y-7942484D01*
X18596777Y-7942484D02*
X18558682Y-7942484D01*
X18558682Y-7942484D02*
X18539635Y-7932960D01*
X18539635Y-7932960D02*
X18530111Y-7923436D01*
X18530111Y-7923436D02*
X18520587Y-7904388D01*
X18520587Y-7904388D02*
X18520587Y-7847246D01*
X18520587Y-7847246D02*
X18530111Y-7828198D01*
X18530111Y-7828198D02*
X18539635Y-7818674D01*
X18539635Y-7818674D02*
X18558682Y-7809150D01*
X18558682Y-7809150D02*
X18596777Y-7809150D01*
X18596777Y-7809150D02*
X18615825Y-7818674D01*
X18692016Y-8018674D02*
X18701539Y-8009150D01*
X18701539Y-8009150D02*
X18720587Y-7980579D01*
X18720587Y-7980579D02*
X18730111Y-7961531D01*
X18730111Y-7961531D02*
X18739635Y-7932960D01*
X18739635Y-7932960D02*
X18749158Y-7885341D01*
X18749158Y-7885341D02*
X18749158Y-7847246D01*
X18749158Y-7847246D02*
X18739635Y-7799627D01*
X18739635Y-7799627D02*
X18730111Y-7771055D01*
X18730111Y-7771055D02*
X18720587Y-7752008D01*
X18720587Y-7752008D02*
X18701539Y-7723436D01*
X18701539Y-7723436D02*
X18692016Y-7713912D01*
M02*
