%TF.GenerationSoftware,KiCad,Pcbnew,10.0.1*%
%TF.CreationDate,2026-06-05T02:22:03+09:00*%
%TF.ProjectId,AudioCase_4_amp,41756469-6f43-4617-9365-5f345f616d70,rev?*%
%TF.SameCoordinates,Original*%
%TF.FileFunction,Legend,Bot*%
%TF.FilePolarity,Positive*%
%FSLAX46Y46*%
G04 Gerber Fmt 4.6, Leading zero omitted, Abs format (unit mm)*
G04 Created by KiCad (PCBNEW 10.0.1) date 2026-06-05 02:22:03*
%MOMM*%
%LPD*%
G01*
G04 APERTURE LIST*
G04 Aperture macros list*
%AMRoundRect*
0 Rectangle with rounded corners*
0 $1 Rounding radius*
0 $2 $3 $4 $5 $6 $7 $8 $9 X,Y pos of 4 corners*
0 Add a 4 corners polygon primitive as box body*
4,1,4,$2,$3,$4,$5,$6,$7,$8,$9,$2,$3,0*
0 Add four circle primitives for the rounded corners*
1,1,$1+$1,$2,$3*
1,1,$1+$1,$4,$5*
1,1,$1+$1,$6,$7*
1,1,$1+$1,$8,$9*
0 Add four rect primitives between the rounded corners*
20,1,$1+$1,$2,$3,$4,$5,0*
20,1,$1+$1,$4,$5,$6,$7,0*
20,1,$1+$1,$6,$7,$8,$9,0*
20,1,$1+$1,$8,$9,$2,$3,0*%
G04 Aperture macros list end*
%ADD10C,0.150000*%
%ADD11C,0.120000*%
%ADD12C,3.200000*%
%ADD13C,1.600000*%
%ADD14RoundRect,0.250000X1.050000X-1.050000X1.050000X1.050000X-1.050000X1.050000X-1.050000X-1.050000X0*%
%ADD15C,2.600000*%
%ADD16RoundRect,0.250000X-0.550000X0.550000X-0.550000X-0.550000X0.550000X-0.550000X0.550000X0.550000X0*%
%ADD17RoundRect,0.250000X-0.550000X-0.550000X0.550000X-0.550000X0.550000X0.550000X-0.550000X0.550000X0*%
%ADD18RoundRect,0.250000X-1.050000X1.050000X-1.050000X-1.050000X1.050000X-1.050000X1.050000X1.050000X0*%
%ADD19RoundRect,0.250000X0.550000X-0.550000X0.550000X0.550000X-0.550000X0.550000X-0.550000X-0.550000X0*%
%ADD20RoundRect,0.250000X1.050000X1.050000X-1.050000X1.050000X-1.050000X-1.050000X1.050000X-1.050000X0*%
%ADD21RoundRect,0.250001X-0.949999X0.949999X-0.949999X-0.949999X0.949999X-0.949999X0.949999X0.949999X0*%
%ADD22C,2.400000*%
%ADD23RoundRect,0.250000X-0.400000X-0.625000X0.400000X-0.625000X0.400000X0.625000X-0.400000X0.625000X0*%
%ADD24RoundRect,0.250000X-0.625000X0.400000X-0.625000X-0.400000X0.625000X-0.400000X0.625000X0.400000X0*%
%ADD25RoundRect,0.250000X0.625000X-0.400000X0.625000X0.400000X-0.625000X0.400000X-0.625000X-0.400000X0*%
%ADD26RoundRect,0.250000X0.412500X0.650000X-0.412500X0.650000X-0.412500X-0.650000X0.412500X-0.650000X0*%
G04 APERTURE END LIST*
D10*
X134157857Y-32658076D02*
X134491190Y-32181885D01*
X134729285Y-32658076D02*
X134729285Y-31658076D01*
X134729285Y-31658076D02*
X134348333Y-31658076D01*
X134348333Y-31658076D02*
X134253095Y-31705695D01*
X134253095Y-31705695D02*
X134205476Y-31753314D01*
X134205476Y-31753314D02*
X134157857Y-31848552D01*
X134157857Y-31848552D02*
X134157857Y-31991409D01*
X134157857Y-31991409D02*
X134205476Y-32086647D01*
X134205476Y-32086647D02*
X134253095Y-32134266D01*
X134253095Y-32134266D02*
X134348333Y-32181885D01*
X134348333Y-32181885D02*
X134729285Y-32181885D01*
X133776904Y-31753314D02*
X133729285Y-31705695D01*
X133729285Y-31705695D02*
X133634047Y-31658076D01*
X133634047Y-31658076D02*
X133395952Y-31658076D01*
X133395952Y-31658076D02*
X133300714Y-31705695D01*
X133300714Y-31705695D02*
X133253095Y-31753314D01*
X133253095Y-31753314D02*
X133205476Y-31848552D01*
X133205476Y-31848552D02*
X133205476Y-31943790D01*
X133205476Y-31943790D02*
X133253095Y-32086647D01*
X133253095Y-32086647D02*
X133824523Y-32658076D01*
X133824523Y-32658076D02*
X133205476Y-32658076D01*
X132872142Y-31658076D02*
X132253095Y-31658076D01*
X132253095Y-31658076D02*
X132586428Y-32039028D01*
X132586428Y-32039028D02*
X132443571Y-32039028D01*
X132443571Y-32039028D02*
X132348333Y-32086647D01*
X132348333Y-32086647D02*
X132300714Y-32134266D01*
X132300714Y-32134266D02*
X132253095Y-32229504D01*
X132253095Y-32229504D02*
X132253095Y-32467599D01*
X132253095Y-32467599D02*
X132300714Y-32562837D01*
X132300714Y-32562837D02*
X132348333Y-32610457D01*
X132348333Y-32610457D02*
X132443571Y-32658076D01*
X132443571Y-32658076D02*
X132729285Y-32658076D01*
X132729285Y-32658076D02*
X132824523Y-32610457D01*
X132824523Y-32610457D02*
X132872142Y-32562837D01*
X122714819Y-48780399D02*
X122238628Y-48447066D01*
X122714819Y-48208971D02*
X121714819Y-48208971D01*
X121714819Y-48208971D02*
X121714819Y-48589923D01*
X121714819Y-48589923D02*
X121762438Y-48685161D01*
X121762438Y-48685161D02*
X121810057Y-48732780D01*
X121810057Y-48732780D02*
X121905295Y-48780399D01*
X121905295Y-48780399D02*
X122048152Y-48780399D01*
X122048152Y-48780399D02*
X122143390Y-48732780D01*
X122143390Y-48732780D02*
X122191009Y-48685161D01*
X122191009Y-48685161D02*
X122238628Y-48589923D01*
X122238628Y-48589923D02*
X122238628Y-48208971D01*
X121810057Y-49161352D02*
X121762438Y-49208971D01*
X121762438Y-49208971D02*
X121714819Y-49304209D01*
X121714819Y-49304209D02*
X121714819Y-49542304D01*
X121714819Y-49542304D02*
X121762438Y-49637542D01*
X121762438Y-49637542D02*
X121810057Y-49685161D01*
X121810057Y-49685161D02*
X121905295Y-49732780D01*
X121905295Y-49732780D02*
X122000533Y-49732780D01*
X122000533Y-49732780D02*
X122143390Y-49685161D01*
X122143390Y-49685161D02*
X122714819Y-49113733D01*
X122714819Y-49113733D02*
X122714819Y-49732780D01*
X121714819Y-50351828D02*
X121714819Y-50447066D01*
X121714819Y-50447066D02*
X121762438Y-50542304D01*
X121762438Y-50542304D02*
X121810057Y-50589923D01*
X121810057Y-50589923D02*
X121905295Y-50637542D01*
X121905295Y-50637542D02*
X122095771Y-50685161D01*
X122095771Y-50685161D02*
X122333866Y-50685161D01*
X122333866Y-50685161D02*
X122524342Y-50637542D01*
X122524342Y-50637542D02*
X122619580Y-50589923D01*
X122619580Y-50589923D02*
X122667200Y-50542304D01*
X122667200Y-50542304D02*
X122714819Y-50447066D01*
X122714819Y-50447066D02*
X122714819Y-50351828D01*
X122714819Y-50351828D02*
X122667200Y-50256590D01*
X122667200Y-50256590D02*
X122619580Y-50208971D01*
X122619580Y-50208971D02*
X122524342Y-50161352D01*
X122524342Y-50161352D02*
X122333866Y-50113733D01*
X122333866Y-50113733D02*
X122095771Y-50113733D01*
X122095771Y-50113733D02*
X121905295Y-50161352D01*
X121905295Y-50161352D02*
X121810057Y-50208971D01*
X121810057Y-50208971D02*
X121762438Y-50256590D01*
X121762438Y-50256590D02*
X121714819Y-50351828D01*
X126324819Y-31080399D02*
X125848628Y-30747066D01*
X126324819Y-30508971D02*
X125324819Y-30508971D01*
X125324819Y-30508971D02*
X125324819Y-30889923D01*
X125324819Y-30889923D02*
X125372438Y-30985161D01*
X125372438Y-30985161D02*
X125420057Y-31032780D01*
X125420057Y-31032780D02*
X125515295Y-31080399D01*
X125515295Y-31080399D02*
X125658152Y-31080399D01*
X125658152Y-31080399D02*
X125753390Y-31032780D01*
X125753390Y-31032780D02*
X125801009Y-30985161D01*
X125801009Y-30985161D02*
X125848628Y-30889923D01*
X125848628Y-30889923D02*
X125848628Y-30508971D01*
X126324819Y-32032780D02*
X126324819Y-31461352D01*
X126324819Y-31747066D02*
X125324819Y-31747066D01*
X125324819Y-31747066D02*
X125467676Y-31651828D01*
X125467676Y-31651828D02*
X125562914Y-31556590D01*
X125562914Y-31556590D02*
X125610533Y-31461352D01*
X126324819Y-32508971D02*
X126324819Y-32699447D01*
X126324819Y-32699447D02*
X126277200Y-32794685D01*
X126277200Y-32794685D02*
X126229580Y-32842304D01*
X126229580Y-32842304D02*
X126086723Y-32937542D01*
X126086723Y-32937542D02*
X125896247Y-32985161D01*
X125896247Y-32985161D02*
X125515295Y-32985161D01*
X125515295Y-32985161D02*
X125420057Y-32937542D01*
X125420057Y-32937542D02*
X125372438Y-32889923D01*
X125372438Y-32889923D02*
X125324819Y-32794685D01*
X125324819Y-32794685D02*
X125324819Y-32604209D01*
X125324819Y-32604209D02*
X125372438Y-32508971D01*
X125372438Y-32508971D02*
X125420057Y-32461352D01*
X125420057Y-32461352D02*
X125515295Y-32413733D01*
X125515295Y-32413733D02*
X125753390Y-32413733D01*
X125753390Y-32413733D02*
X125848628Y-32461352D01*
X125848628Y-32461352D02*
X125896247Y-32508971D01*
X125896247Y-32508971D02*
X125943866Y-32604209D01*
X125943866Y-32604209D02*
X125943866Y-32794685D01*
X125943866Y-32794685D02*
X125896247Y-32889923D01*
X125896247Y-32889923D02*
X125848628Y-32937542D01*
X125848628Y-32937542D02*
X125753390Y-32985161D01*
X137782857Y-33832837D02*
X137830476Y-33880457D01*
X137830476Y-33880457D02*
X137973333Y-33928076D01*
X137973333Y-33928076D02*
X138068571Y-33928076D01*
X138068571Y-33928076D02*
X138211428Y-33880457D01*
X138211428Y-33880457D02*
X138306666Y-33785218D01*
X138306666Y-33785218D02*
X138354285Y-33689980D01*
X138354285Y-33689980D02*
X138401904Y-33499504D01*
X138401904Y-33499504D02*
X138401904Y-33356647D01*
X138401904Y-33356647D02*
X138354285Y-33166171D01*
X138354285Y-33166171D02*
X138306666Y-33070933D01*
X138306666Y-33070933D02*
X138211428Y-32975695D01*
X138211428Y-32975695D02*
X138068571Y-32928076D01*
X138068571Y-32928076D02*
X137973333Y-32928076D01*
X137973333Y-32928076D02*
X137830476Y-32975695D01*
X137830476Y-32975695D02*
X137782857Y-33023314D01*
X137401904Y-33023314D02*
X137354285Y-32975695D01*
X137354285Y-32975695D02*
X137259047Y-32928076D01*
X137259047Y-32928076D02*
X137020952Y-32928076D01*
X137020952Y-32928076D02*
X136925714Y-32975695D01*
X136925714Y-32975695D02*
X136878095Y-33023314D01*
X136878095Y-33023314D02*
X136830476Y-33118552D01*
X136830476Y-33118552D02*
X136830476Y-33213790D01*
X136830476Y-33213790D02*
X136878095Y-33356647D01*
X136878095Y-33356647D02*
X137449523Y-33928076D01*
X137449523Y-33928076D02*
X136830476Y-33928076D01*
X136497142Y-32928076D02*
X135878095Y-32928076D01*
X135878095Y-32928076D02*
X136211428Y-33309028D01*
X136211428Y-33309028D02*
X136068571Y-33309028D01*
X136068571Y-33309028D02*
X135973333Y-33356647D01*
X135973333Y-33356647D02*
X135925714Y-33404266D01*
X135925714Y-33404266D02*
X135878095Y-33499504D01*
X135878095Y-33499504D02*
X135878095Y-33737599D01*
X135878095Y-33737599D02*
X135925714Y-33832837D01*
X135925714Y-33832837D02*
X135973333Y-33880457D01*
X135973333Y-33880457D02*
X136068571Y-33928076D01*
X136068571Y-33928076D02*
X136354285Y-33928076D01*
X136354285Y-33928076D02*
X136449523Y-33880457D01*
X136449523Y-33880457D02*
X136497142Y-33832837D01*
X149182857Y-33882837D02*
X149230476Y-33930457D01*
X149230476Y-33930457D02*
X149373333Y-33978076D01*
X149373333Y-33978076D02*
X149468571Y-33978076D01*
X149468571Y-33978076D02*
X149611428Y-33930457D01*
X149611428Y-33930457D02*
X149706666Y-33835218D01*
X149706666Y-33835218D02*
X149754285Y-33739980D01*
X149754285Y-33739980D02*
X149801904Y-33549504D01*
X149801904Y-33549504D02*
X149801904Y-33406647D01*
X149801904Y-33406647D02*
X149754285Y-33216171D01*
X149754285Y-33216171D02*
X149706666Y-33120933D01*
X149706666Y-33120933D02*
X149611428Y-33025695D01*
X149611428Y-33025695D02*
X149468571Y-32978076D01*
X149468571Y-32978076D02*
X149373333Y-32978076D01*
X149373333Y-32978076D02*
X149230476Y-33025695D01*
X149230476Y-33025695D02*
X149182857Y-33073314D01*
X148801904Y-33073314D02*
X148754285Y-33025695D01*
X148754285Y-33025695D02*
X148659047Y-32978076D01*
X148659047Y-32978076D02*
X148420952Y-32978076D01*
X148420952Y-32978076D02*
X148325714Y-33025695D01*
X148325714Y-33025695D02*
X148278095Y-33073314D01*
X148278095Y-33073314D02*
X148230476Y-33168552D01*
X148230476Y-33168552D02*
X148230476Y-33263790D01*
X148230476Y-33263790D02*
X148278095Y-33406647D01*
X148278095Y-33406647D02*
X148849523Y-33978076D01*
X148849523Y-33978076D02*
X148230476Y-33978076D01*
X147849523Y-33073314D02*
X147801904Y-33025695D01*
X147801904Y-33025695D02*
X147706666Y-32978076D01*
X147706666Y-32978076D02*
X147468571Y-32978076D01*
X147468571Y-32978076D02*
X147373333Y-33025695D01*
X147373333Y-33025695D02*
X147325714Y-33073314D01*
X147325714Y-33073314D02*
X147278095Y-33168552D01*
X147278095Y-33168552D02*
X147278095Y-33263790D01*
X147278095Y-33263790D02*
X147325714Y-33406647D01*
X147325714Y-33406647D02*
X147897142Y-33978076D01*
X147897142Y-33978076D02*
X147278095Y-33978076D01*
X153774819Y-45880399D02*
X153298628Y-45547066D01*
X153774819Y-45308971D02*
X152774819Y-45308971D01*
X152774819Y-45308971D02*
X152774819Y-45689923D01*
X152774819Y-45689923D02*
X152822438Y-45785161D01*
X152822438Y-45785161D02*
X152870057Y-45832780D01*
X152870057Y-45832780D02*
X152965295Y-45880399D01*
X152965295Y-45880399D02*
X153108152Y-45880399D01*
X153108152Y-45880399D02*
X153203390Y-45832780D01*
X153203390Y-45832780D02*
X153251009Y-45785161D01*
X153251009Y-45785161D02*
X153298628Y-45689923D01*
X153298628Y-45689923D02*
X153298628Y-45308971D01*
X152870057Y-46261352D02*
X152822438Y-46308971D01*
X152822438Y-46308971D02*
X152774819Y-46404209D01*
X152774819Y-46404209D02*
X152774819Y-46642304D01*
X152774819Y-46642304D02*
X152822438Y-46737542D01*
X152822438Y-46737542D02*
X152870057Y-46785161D01*
X152870057Y-46785161D02*
X152965295Y-46832780D01*
X152965295Y-46832780D02*
X153060533Y-46832780D01*
X153060533Y-46832780D02*
X153203390Y-46785161D01*
X153203390Y-46785161D02*
X153774819Y-46213733D01*
X153774819Y-46213733D02*
X153774819Y-46832780D01*
X153108152Y-47689923D02*
X153774819Y-47689923D01*
X152727200Y-47451828D02*
X153441485Y-47213733D01*
X153441485Y-47213733D02*
X153441485Y-47832780D01*
X135432857Y-44508076D02*
X135766190Y-44031885D01*
X136004285Y-44508076D02*
X136004285Y-43508076D01*
X136004285Y-43508076D02*
X135623333Y-43508076D01*
X135623333Y-43508076D02*
X135528095Y-43555695D01*
X135528095Y-43555695D02*
X135480476Y-43603314D01*
X135480476Y-43603314D02*
X135432857Y-43698552D01*
X135432857Y-43698552D02*
X135432857Y-43841409D01*
X135432857Y-43841409D02*
X135480476Y-43936647D01*
X135480476Y-43936647D02*
X135528095Y-43984266D01*
X135528095Y-43984266D02*
X135623333Y-44031885D01*
X135623333Y-44031885D02*
X136004285Y-44031885D01*
X135051904Y-43603314D02*
X135004285Y-43555695D01*
X135004285Y-43555695D02*
X134909047Y-43508076D01*
X134909047Y-43508076D02*
X134670952Y-43508076D01*
X134670952Y-43508076D02*
X134575714Y-43555695D01*
X134575714Y-43555695D02*
X134528095Y-43603314D01*
X134528095Y-43603314D02*
X134480476Y-43698552D01*
X134480476Y-43698552D02*
X134480476Y-43793790D01*
X134480476Y-43793790D02*
X134528095Y-43936647D01*
X134528095Y-43936647D02*
X135099523Y-44508076D01*
X135099523Y-44508076D02*
X134480476Y-44508076D01*
X133528095Y-44508076D02*
X134099523Y-44508076D01*
X133813809Y-44508076D02*
X133813809Y-43508076D01*
X133813809Y-43508076D02*
X133909047Y-43650933D01*
X133909047Y-43650933D02*
X134004285Y-43746171D01*
X134004285Y-43746171D02*
X134099523Y-43793790D01*
X139124819Y-52380399D02*
X138648628Y-52047066D01*
X139124819Y-51808971D02*
X138124819Y-51808971D01*
X138124819Y-51808971D02*
X138124819Y-52189923D01*
X138124819Y-52189923D02*
X138172438Y-52285161D01*
X138172438Y-52285161D02*
X138220057Y-52332780D01*
X138220057Y-52332780D02*
X138315295Y-52380399D01*
X138315295Y-52380399D02*
X138458152Y-52380399D01*
X138458152Y-52380399D02*
X138553390Y-52332780D01*
X138553390Y-52332780D02*
X138601009Y-52285161D01*
X138601009Y-52285161D02*
X138648628Y-52189923D01*
X138648628Y-52189923D02*
X138648628Y-51808971D01*
X138220057Y-52761352D02*
X138172438Y-52808971D01*
X138172438Y-52808971D02*
X138124819Y-52904209D01*
X138124819Y-52904209D02*
X138124819Y-53142304D01*
X138124819Y-53142304D02*
X138172438Y-53237542D01*
X138172438Y-53237542D02*
X138220057Y-53285161D01*
X138220057Y-53285161D02*
X138315295Y-53332780D01*
X138315295Y-53332780D02*
X138410533Y-53332780D01*
X138410533Y-53332780D02*
X138553390Y-53285161D01*
X138553390Y-53285161D02*
X139124819Y-52713733D01*
X139124819Y-52713733D02*
X139124819Y-53332780D01*
X138220057Y-53713733D02*
X138172438Y-53761352D01*
X138172438Y-53761352D02*
X138124819Y-53856590D01*
X138124819Y-53856590D02*
X138124819Y-54094685D01*
X138124819Y-54094685D02*
X138172438Y-54189923D01*
X138172438Y-54189923D02*
X138220057Y-54237542D01*
X138220057Y-54237542D02*
X138315295Y-54285161D01*
X138315295Y-54285161D02*
X138410533Y-54285161D01*
X138410533Y-54285161D02*
X138553390Y-54237542D01*
X138553390Y-54237542D02*
X139124819Y-53666114D01*
X139124819Y-53666114D02*
X139124819Y-54285161D01*
%TO.C,R23*%
D11*
X132787936Y-29463257D02*
X134242064Y-29463257D01*
X132787936Y-31283257D02*
X134242064Y-31283257D01*
%TO.C,R20*%
X123180000Y-48696193D02*
X123180000Y-50150321D01*
X125000000Y-48696193D02*
X125000000Y-50150321D01*
%TO.C,R19*%
X123130000Y-32450321D02*
X123130000Y-30996193D01*
X124950000Y-32450321D02*
X124950000Y-30996193D01*
%TO.C,C23*%
X137851252Y-34413257D02*
X136428748Y-34413257D01*
X137851252Y-36233257D02*
X136428748Y-36233257D01*
%TO.C,C22*%
X149251252Y-34463257D02*
X147828748Y-34463257D01*
X149251252Y-36283257D02*
X147828748Y-36283257D01*
%TO.C,R24*%
X150580000Y-47250321D02*
X150580000Y-45796193D01*
X152400000Y-47250321D02*
X152400000Y-45796193D01*
%TO.C,R21*%
X134062936Y-41313257D02*
X135517064Y-41313257D01*
X134062936Y-43133257D02*
X135517064Y-43133257D01*
%TO.C,R22*%
X135930000Y-53750321D02*
X135930000Y-52296193D01*
X137750000Y-53750321D02*
X137750000Y-52296193D01*
%TD*%
%LPC*%
D12*
%TO.C,H11*%
X175790000Y-58023257D03*
%TD*%
D13*
%TO.C,C24*%
X131990000Y-26423257D03*
X126990000Y-26423257D03*
%TD*%
D14*
%TO.C,J11*%
X172990000Y-44503257D03*
D15*
X172990000Y-39423257D03*
%TD*%
D16*
%TO.C,C25*%
X128890000Y-30423257D03*
D13*
X128890000Y-32423257D03*
%TD*%
D17*
%TO.C,AMP1*%
X139270000Y-39953257D03*
D13*
X139270000Y-42493257D03*
X139270000Y-45033257D03*
X139270000Y-47573257D03*
X146890000Y-47573257D03*
X146890000Y-45033257D03*
X146890000Y-42493257D03*
X146890000Y-39953257D03*
%TD*%
D12*
%TO.C,H12*%
X121190000Y-58023257D03*
%TD*%
D18*
%TO.C,J10*%
X124090000Y-37693257D03*
D15*
X124090000Y-42773257D03*
%TD*%
D19*
%TO.C,C27*%
X130590000Y-49923257D03*
D13*
X130590000Y-47923257D03*
%TD*%
D12*
%TO.C,H10*%
X175840000Y-23473257D03*
%TD*%
D20*
%TO.C,J9*%
X148800000Y-26873257D03*
D15*
X143720000Y-26873257D03*
X138640000Y-26873257D03*
%TD*%
D13*
%TO.C,C26*%
X133140000Y-54823257D03*
X128140000Y-54823257D03*
%TD*%
D12*
%TO.C,H9*%
X121190000Y-23473257D03*
%TD*%
D21*
%TO.C,C28*%
X160990000Y-26473257D03*
D22*
X160990000Y-33973257D03*
%TD*%
D21*
%TO.C,C29*%
X159140000Y-48873257D03*
D22*
X159140000Y-56373257D03*
%TD*%
D23*
%TO.C,R23*%
X131965000Y-30373257D03*
X135065000Y-30373257D03*
%TD*%
D24*
%TO.C,R20*%
X124090000Y-47873257D03*
X124090000Y-50973257D03*
%TD*%
D25*
%TO.C,R19*%
X124040000Y-33273257D03*
X124040000Y-30173257D03*
%TD*%
D26*
%TO.C,C23*%
X138702500Y-35323257D03*
X135577500Y-35323257D03*
%TD*%
%TO.C,C22*%
X150102500Y-35373257D03*
X146977500Y-35373257D03*
%TD*%
D25*
%TO.C,R24*%
X151490000Y-48073257D03*
X151490000Y-44973257D03*
%TD*%
D23*
%TO.C,R21*%
X133240000Y-42223257D03*
X136340000Y-42223257D03*
%TD*%
D25*
%TO.C,R22*%
X136840000Y-54573257D03*
X136840000Y-51473257D03*
%TD*%
%LPD*%
M02*
