M48
; DRILL file KiCad 10.0.1 date 2026-06-05T02:22:03
; FORMAT={-:-/ absolute / metric / decimal}
; #@! TF.CreationDate,2026-06-05T02:22:03+09:00
; #@! TF.GenerationSoftware,Kicad,Pcbnew,10.0.1
; #@! TF.FileFunction,MixedPlating,1,2
FMAT,2
METRIC
; #@! TA.AperFunction,Plated,PTH,ComponentDrill
T1C0.800
; #@! TA.AperFunction,Plated,PTH,ComponentDrill
T2C1.200
; #@! TA.AperFunction,Plated,PTH,ComponentDrill
T3C1.300
; #@! TA.AperFunction,NonPlated,NPTH,ComponentDrill
T4C3.200
%
G90
G05
T1
X126.99Y-26.423
X128.14Y-54.823
X128.89Y-30.423
X128.89Y-32.423
X130.59Y-47.923
X130.59Y-49.923
X131.99Y-26.423
X133.14Y-54.823
X139.27Y-39.953
X139.27Y-42.493
X139.27Y-45.033
X139.27Y-47.573
X146.89Y-39.953
X146.89Y-42.493
X146.89Y-45.033
X146.89Y-47.573
T2
X159.14Y-48.873
X159.14Y-56.373
X160.99Y-26.473
X160.99Y-33.973
T3
X124.09Y-37.693
X124.09Y-42.773
X138.64Y-26.873
X143.72Y-26.873
X148.8Y-26.873
X172.99Y-39.423
X172.99Y-44.503
T4
X121.19Y-23.473
X121.19Y-58.023
X175.79Y-58.023
X175.84Y-23.473
M30
