%TF.GenerationSoftware,KiCad,Pcbnew,10.0.1*%
%TF.CreationDate,2026-06-17T20:16:32+09:00*%
%TF.ProjectId,AudioCase_4_amp,41756469-6f43-4617-9365-5f345f616d70,rev?*%
%TF.SameCoordinates,Original*%
%TF.FileFunction,Copper,L1,Top*%
%TF.FilePolarity,Positive*%
%FSLAX46Y46*%
G04 Gerber Fmt 4.6, Leading zero omitted, Abs format (unit mm)*
G04 Created by KiCad (PCBNEW 10.0.1) date 2026-06-17 20:16:32*
%MOMM*%
%LPD*%
G01*
G04 APERTURE LIST*
G04 Aperture macros list*
%AMRoundRect*
0 Rectangle with rounded corners*
0 $1 Rounding radius*
0 $2 $3 $4 $5 $6 $7 $8 $9 X,Y pos of 4 corners*
0 Add a 4 corners polygon primitive as box body*
4,1,4,$2,$3,$4,$5,$6,$7,$8,$9,$2,$3,0*
0 Add four circle primitives for the rounded corners*
1,1,$1+$1,$2,$3*
1,1,$1+$1,$4,$5*
1,1,$1+$1,$6,$7*
1,1,$1+$1,$8,$9*
0 Add four rect primitives between the rounded corners*
20,1,$1+$1,$2,$3,$4,$5,0*
20,1,$1+$1,$4,$5,$6,$7,0*
20,1,$1+$1,$6,$7,$8,$9,0*
20,1,$1+$1,$8,$9,$2,$3,0*%
G04 Aperture macros list end*
%TA.AperFunction,ComponentPad*%
%ADD10C,1.600000*%
%TD*%
%TA.AperFunction,ComponentPad*%
%ADD11RoundRect,0.250000X1.050000X-1.050000X1.050000X1.050000X-1.050000X1.050000X-1.050000X-1.050000X0*%
%TD*%
%TA.AperFunction,ComponentPad*%
%ADD12C,2.600000*%
%TD*%
%TA.AperFunction,ComponentPad*%
%ADD13RoundRect,0.250000X-0.550000X0.550000X-0.550000X-0.550000X0.550000X-0.550000X0.550000X0.550000X0*%
%TD*%
%TA.AperFunction,ComponentPad*%
%ADD14RoundRect,0.250001X-0.949999X-0.949999X0.949999X-0.949999X0.949999X0.949999X-0.949999X0.949999X0*%
%TD*%
%TA.AperFunction,ComponentPad*%
%ADD15C,2.400000*%
%TD*%
%TA.AperFunction,ComponentPad*%
%ADD16RoundRect,0.250000X0.550000X-0.550000X0.550000X0.550000X-0.550000X0.550000X-0.550000X-0.550000X0*%
%TD*%
%TA.AperFunction,SMDPad,CuDef*%
%ADD17RoundRect,0.250000X0.625000X-0.400000X0.625000X0.400000X-0.625000X0.400000X-0.625000X-0.400000X0*%
%TD*%
%TA.AperFunction,ComponentPad*%
%ADD18RoundRect,0.250000X1.050000X1.050000X-1.050000X1.050000X-1.050000X-1.050000X1.050000X-1.050000X0*%
%TD*%
%TA.AperFunction,ComponentPad*%
%ADD19RoundRect,0.250000X-1.050000X1.050000X-1.050000X-1.050000X1.050000X-1.050000X1.050000X1.050000X0*%
%TD*%
%TA.AperFunction,SMDPad,CuDef*%
%ADD20RoundRect,0.250000X-0.400000X-0.625000X0.400000X-0.625000X0.400000X0.625000X-0.400000X0.625000X0*%
%TD*%
%TA.AperFunction,ComponentPad*%
%ADD21RoundRect,0.250000X-0.550000X-0.550000X0.550000X-0.550000X0.550000X0.550000X-0.550000X0.550000X0*%
%TD*%
%TA.AperFunction,SMDPad,CuDef*%
%ADD22RoundRect,0.250000X-0.625000X0.400000X-0.625000X-0.400000X0.625000X-0.400000X0.625000X0.400000X0*%
%TD*%
%TA.AperFunction,ViaPad*%
%ADD23C,0.600000*%
%TD*%
%TA.AperFunction,Conductor*%
%ADD24C,0.500000*%
%TD*%
G04 APERTURE END LIST*
D10*
%TO.P,C32,1*%
%TO.N,Net-(AMP1B-+)*%
X134640000Y-55123257D03*
%TO.P,C32,2*%
%TO.N,/AmpModule/L_IN*%
X129640000Y-55123257D03*
%TD*%
D11*
%TO.P,J11,1,Pin_1_1*%
%TO.N,/AmpModule/L_OUT*%
X170440000Y-45903257D03*
D12*
%TO.P,J11,2,Pin_2_2*%
%TO.N,/AmpModule/R_OUT*%
X170440000Y-40823257D03*
%TD*%
D13*
%TO.P,C31,1*%
%TO.N,Net-(AMP1A-+)*%
X130440000Y-30473257D03*
D10*
%TO.P,C31,2*%
%TO.N,/AmpModule/R_IN*%
X130440000Y-32473257D03*
%TD*%
D14*
%TO.P,C35,1*%
%TO.N,Net-(C35-Pad1)*%
X152940000Y-52323257D03*
D15*
%TO.P,C35,2*%
%TO.N,/AmpModule/L_OUT*%
X160440000Y-52323257D03*
%TD*%
D16*
%TO.P,C33,1*%
%TO.N,Net-(AMP1B-+)*%
X133940000Y-50823257D03*
D10*
%TO.P,C33,2*%
%TO.N,/AmpModule/L_IN*%
X133940000Y-48823257D03*
%TD*%
D17*
%TO.P,R31,1*%
%TO.N,Net-(AMP1A--)*%
X135100000Y-40683257D03*
%TO.P,R31,2*%
%TO.N,Net-(AMP1-Pad1)*%
X135100000Y-37583257D03*
%TD*%
D18*
%TO.P,J9,1,Pin_1_1*%
%TO.N,/AmpModule/V+_IN*%
X149240000Y-26723257D03*
D12*
%TO.P,J9,2,Pin_2_2*%
%TO.N,GND*%
X144160000Y-26723257D03*
%TO.P,J9,3,Pin_3_3*%
%TO.N,/AmpModule/V-_IN*%
X139080000Y-26723257D03*
%TD*%
D19*
%TO.P,J10,1,Pin_1_1*%
%TO.N,/AmpModule/R_IN*%
X126340000Y-37673257D03*
D12*
%TO.P,J10,2,Pin_2_2*%
%TO.N,/AmpModule/L_IN*%
X126340000Y-42753257D03*
%TD*%
D14*
%TO.P,C34,1*%
%TO.N,Net-(C34-Pad1)*%
X158740000Y-29123257D03*
D15*
%TO.P,C34,2*%
%TO.N,/AmpModule/R_OUT*%
X166240000Y-29123257D03*
%TD*%
D20*
%TO.P,R33,1*%
%TO.N,Net-(AMP1-Pad1)*%
X142340000Y-35373257D03*
%TO.P,R33,2*%
%TO.N,Net-(C34-Pad1)*%
X145440000Y-35373257D03*
%TD*%
D21*
%TO.P,AMP1,1*%
%TO.N,Net-(AMP1-Pad1)*%
X139030000Y-38513257D03*
D10*
%TO.P,AMP1,2,-_2*%
%TO.N,Net-(AMP1A--)*%
X139030000Y-41053257D03*
%TO.P,AMP1,3,+_3*%
%TO.N,Net-(AMP1A-+)*%
X139030000Y-43593257D03*
%TO.P,AMP1,4,V-_4*%
%TO.N,/AmpModule/V-_IN*%
X139030000Y-46133257D03*
%TO.P,AMP1,5,+_5*%
%TO.N,Net-(AMP1B-+)*%
X146650000Y-46133257D03*
%TO.P,AMP1,6,-_6*%
%TO.N,Net-(AMP1B--)*%
X146650000Y-43593257D03*
%TO.P,AMP1,7*%
%TO.N,Net-(AMP1-Pad7)*%
X146650000Y-41053257D03*
%TO.P,AMP1,8,V+_8*%
%TO.N,/AmpModule/V+_IN*%
X146650000Y-38513257D03*
%TD*%
%TO.P,C30,1*%
%TO.N,Net-(AMP1A-+)*%
X133790000Y-26373257D03*
%TO.P,C30,2*%
%TO.N,/AmpModule/R_IN*%
X128790000Y-26373257D03*
%TD*%
D22*
%TO.P,R34,1*%
%TO.N,Net-(AMP1-Pad7)*%
X144540000Y-49623257D03*
%TO.P,R34,2*%
%TO.N,Net-(C35-Pad1)*%
X144540000Y-52723257D03*
%TD*%
D23*
%TO.N,Net-(AMP1A-+)*%
X133290000Y-35673257D03*
%TD*%
%TO.N,Net-(AMP1B-+)*%
D24*
X134840000Y-53523257D02*
X133940000Y-52623257D01*
X134840000Y-54923257D02*
X134840000Y-53523257D01*
X133940000Y-52623257D02*
X133940000Y-50823257D01*
X134640000Y-55123257D02*
X134840000Y-54923257D01*
%TO.N,/AmpModule/L_IN*%
X129840000Y-54823257D02*
X129840000Y-54923257D01*
X128940000Y-47948257D02*
X128940000Y-53923257D01*
X129840000Y-54923257D02*
X129640000Y-55123257D01*
X126340000Y-42753257D02*
X126340000Y-45348257D01*
X126340000Y-45348257D02*
X128940000Y-47948257D01*
X133740000Y-49023257D02*
X130015000Y-49023257D01*
X130015000Y-49023257D02*
X128940000Y-47948257D01*
X128940000Y-53923257D02*
X129840000Y-54823257D01*
X133940000Y-48823257D02*
X133740000Y-49023257D01*
%TO.N,/AmpModule/L_OUT*%
X160440000Y-52323257D02*
X164570000Y-52323257D01*
X164570000Y-52323257D02*
X171090000Y-45803257D01*
X171090000Y-45803257D02*
X171240000Y-45803257D01*
%TO.N,/AmpModule/R_OUT*%
X170890000Y-40723257D02*
X171090000Y-40723257D01*
X166240000Y-36073257D02*
X170890000Y-40723257D01*
X166240000Y-29123257D02*
X166240000Y-36073257D01*
%TO.N,Net-(AMP1A-+)*%
X132740000Y-27373257D02*
X132740000Y-32573257D01*
X132740000Y-32573257D02*
X132665000Y-32648257D01*
X130590000Y-30573257D02*
X132665000Y-32648257D01*
X133290000Y-41823257D02*
X135060000Y-43593257D01*
X132665000Y-32648257D02*
X133290000Y-33273257D01*
X130590000Y-30423257D02*
X130640000Y-30473257D01*
X133290000Y-35673257D02*
X133290000Y-41823257D01*
X133690000Y-26423257D02*
X132740000Y-27373257D01*
X130590000Y-30423257D02*
X130590000Y-30573257D01*
X135060000Y-43593257D02*
X139030000Y-43593257D01*
X133290000Y-33273257D02*
X133290000Y-35673257D01*
%TO.N,/AmpModule/R_IN*%
X127740000Y-27373257D02*
X127740000Y-28873257D01*
X127740000Y-28873257D02*
X125690000Y-30923257D01*
X125740000Y-33273257D02*
X129740000Y-33273257D01*
X129740000Y-33273257D02*
X130590000Y-32423257D01*
X125690000Y-33273257D02*
X125740000Y-33273257D01*
X126340000Y-37673257D02*
X126340000Y-33873257D01*
X128690000Y-26423257D02*
X127740000Y-27373257D01*
X126340000Y-33873257D02*
X125740000Y-33273257D01*
X125690000Y-30923257D02*
X125690000Y-33273257D01*
%TO.N,Net-(C35-Pad1)*%
X144540000Y-52723257D02*
X147690000Y-52723257D01*
X152340000Y-52323257D02*
X153490000Y-51173257D01*
X147690000Y-52723257D02*
X148090000Y-52323257D01*
X148090000Y-52323257D02*
X152340000Y-52323257D01*
%TO.N,Net-(AMP1A--)*%
X135100000Y-40683257D02*
X138660000Y-40683257D01*
X138660000Y-40683257D02*
X139030000Y-41053257D01*
%TO.N,Net-(AMP1-Pad1)*%
X139200000Y-38513257D02*
X142340000Y-35373257D01*
X136030000Y-38513257D02*
X135100000Y-37583257D01*
X139030000Y-38513257D02*
X139200000Y-38513257D01*
X139030000Y-38513257D02*
X136030000Y-38513257D01*
%TO.N,Net-(C34-Pad1)*%
X157790000Y-30323257D02*
X157790000Y-30073257D01*
X145440000Y-35373257D02*
X152740000Y-35373257D01*
X157790000Y-30073257D02*
X158740000Y-29123257D01*
X152740000Y-35373257D02*
X157790000Y-30323257D01*
%TO.N,Net-(AMP1-Pad7)*%
X144740000Y-49423257D02*
X144540000Y-49623257D01*
X144540000Y-49623257D02*
X144540000Y-43163257D01*
X144540000Y-43163257D02*
X146650000Y-41053257D01*
%TD*%
M02*
