%TF.GenerationSoftware,KiCad,Pcbnew,10.0.1*%
%TF.CreationDate,2026-06-05T16:19:39+09:00*%
%TF.ProjectId,AudioCase_4_amp,41756469-6f43-4617-9365-5f345f616d70,rev?*%
%TF.SameCoordinates,Original*%
%TF.FileFunction,Legend,Bot*%
%TF.FilePolarity,Positive*%
%FSLAX46Y46*%
G04 Gerber Fmt 4.6, Leading zero omitted, Abs format (unit mm)*
G04 Created by KiCad (PCBNEW 10.0.1) date 2026-06-05 16:19:39*
%MOMM*%
%LPD*%
G01*
G04 APERTURE LIST*
G04 Aperture macros list*
%AMRoundRect*
0 Rectangle with rounded corners*
0 $1 Rounding radius*
0 $2 $3 $4 $5 $6 $7 $8 $9 X,Y pos of 4 corners*
0 Add a 4 corners polygon primitive as box body*
4,1,4,$2,$3,$4,$5,$6,$7,$8,$9,$2,$3,0*
0 Add four circle primitives for the rounded corners*
1,1,$1+$1,$2,$3*
1,1,$1+$1,$4,$5*
1,1,$1+$1,$6,$7*
1,1,$1+$1,$8,$9*
0 Add four rect primitives between the rounded corners*
20,1,$1+$1,$2,$3,$4,$5,0*
20,1,$1+$1,$4,$5,$6,$7,0*
20,1,$1+$1,$6,$7,$8,$9,0*
20,1,$1+$1,$8,$9,$2,$3,0*%
G04 Aperture macros list end*
%ADD10C,0.150000*%
%ADD11C,0.120000*%
%ADD12C,3.200000*%
%ADD13C,1.600000*%
%ADD14RoundRect,0.250000X-0.550000X0.550000X-0.550000X-0.550000X0.550000X-0.550000X0.550000X0.550000X0*%
%ADD15RoundRect,0.250000X0.550000X-0.550000X0.550000X0.550000X-0.550000X0.550000X-0.550000X-0.550000X0*%
%ADD16RoundRect,0.250000X-1.050000X1.050000X-1.050000X-1.050000X1.050000X-1.050000X1.050000X1.050000X0*%
%ADD17C,2.600000*%
%ADD18RoundRect,0.250000X-0.550000X-0.550000X0.550000X-0.550000X0.550000X0.550000X-0.550000X0.550000X0*%
%ADD19RoundRect,0.250001X-0.949999X0.949999X-0.949999X-0.949999X0.949999X-0.949999X0.949999X0.949999X0*%
%ADD20C,2.400000*%
%ADD21RoundRect,0.250000X1.050000X-1.050000X1.050000X1.050000X-1.050000X1.050000X-1.050000X-1.050000X0*%
%ADD22RoundRect,0.250000X1.050000X1.050000X-1.050000X1.050000X-1.050000X-1.050000X1.050000X-1.050000X0*%
%ADD23RoundRect,0.250000X0.412500X0.650000X-0.412500X0.650000X-0.412500X-0.650000X0.412500X-0.650000X0*%
%ADD24RoundRect,0.250000X0.625000X-0.400000X0.625000X0.400000X-0.625000X0.400000X-0.625000X-0.400000X0*%
%ADD25RoundRect,0.250000X-0.400000X-0.625000X0.400000X-0.625000X0.400000X0.625000X-0.400000X0.625000X0*%
%ADD26RoundRect,0.250000X-0.625000X0.400000X-0.625000X-0.400000X0.625000X-0.400000X0.625000X0.400000X0*%
G04 APERTURE END LIST*
D10*
X150332857Y-33332837D02*
X150380476Y-33380457D01*
X150380476Y-33380457D02*
X150523333Y-33428076D01*
X150523333Y-33428076D02*
X150618571Y-33428076D01*
X150618571Y-33428076D02*
X150761428Y-33380457D01*
X150761428Y-33380457D02*
X150856666Y-33285218D01*
X150856666Y-33285218D02*
X150904285Y-33189980D01*
X150904285Y-33189980D02*
X150951904Y-32999504D01*
X150951904Y-32999504D02*
X150951904Y-32856647D01*
X150951904Y-32856647D02*
X150904285Y-32666171D01*
X150904285Y-32666171D02*
X150856666Y-32570933D01*
X150856666Y-32570933D02*
X150761428Y-32475695D01*
X150761428Y-32475695D02*
X150618571Y-32428076D01*
X150618571Y-32428076D02*
X150523333Y-32428076D01*
X150523333Y-32428076D02*
X150380476Y-32475695D01*
X150380476Y-32475695D02*
X150332857Y-32523314D01*
X149951904Y-32523314D02*
X149904285Y-32475695D01*
X149904285Y-32475695D02*
X149809047Y-32428076D01*
X149809047Y-32428076D02*
X149570952Y-32428076D01*
X149570952Y-32428076D02*
X149475714Y-32475695D01*
X149475714Y-32475695D02*
X149428095Y-32523314D01*
X149428095Y-32523314D02*
X149380476Y-32618552D01*
X149380476Y-32618552D02*
X149380476Y-32713790D01*
X149380476Y-32713790D02*
X149428095Y-32856647D01*
X149428095Y-32856647D02*
X149999523Y-33428076D01*
X149999523Y-33428076D02*
X149380476Y-33428076D01*
X148999523Y-32523314D02*
X148951904Y-32475695D01*
X148951904Y-32475695D02*
X148856666Y-32428076D01*
X148856666Y-32428076D02*
X148618571Y-32428076D01*
X148618571Y-32428076D02*
X148523333Y-32475695D01*
X148523333Y-32475695D02*
X148475714Y-32523314D01*
X148475714Y-32523314D02*
X148428095Y-32618552D01*
X148428095Y-32618552D02*
X148428095Y-32713790D01*
X148428095Y-32713790D02*
X148475714Y-32856647D01*
X148475714Y-32856647D02*
X149047142Y-33428076D01*
X149047142Y-33428076D02*
X148428095Y-33428076D01*
X154144819Y-45780399D02*
X153668628Y-45447066D01*
X154144819Y-45208971D02*
X153144819Y-45208971D01*
X153144819Y-45208971D02*
X153144819Y-45589923D01*
X153144819Y-45589923D02*
X153192438Y-45685161D01*
X153192438Y-45685161D02*
X153240057Y-45732780D01*
X153240057Y-45732780D02*
X153335295Y-45780399D01*
X153335295Y-45780399D02*
X153478152Y-45780399D01*
X153478152Y-45780399D02*
X153573390Y-45732780D01*
X153573390Y-45732780D02*
X153621009Y-45685161D01*
X153621009Y-45685161D02*
X153668628Y-45589923D01*
X153668628Y-45589923D02*
X153668628Y-45208971D01*
X153240057Y-46161352D02*
X153192438Y-46208971D01*
X153192438Y-46208971D02*
X153144819Y-46304209D01*
X153144819Y-46304209D02*
X153144819Y-46542304D01*
X153144819Y-46542304D02*
X153192438Y-46637542D01*
X153192438Y-46637542D02*
X153240057Y-46685161D01*
X153240057Y-46685161D02*
X153335295Y-46732780D01*
X153335295Y-46732780D02*
X153430533Y-46732780D01*
X153430533Y-46732780D02*
X153573390Y-46685161D01*
X153573390Y-46685161D02*
X154144819Y-46113733D01*
X154144819Y-46113733D02*
X154144819Y-46732780D01*
X153478152Y-47589923D02*
X154144819Y-47589923D01*
X153097200Y-47351828D02*
X153811485Y-47113733D01*
X153811485Y-47113733D02*
X153811485Y-47732780D01*
X137332857Y-33582837D02*
X137380476Y-33630457D01*
X137380476Y-33630457D02*
X137523333Y-33678076D01*
X137523333Y-33678076D02*
X137618571Y-33678076D01*
X137618571Y-33678076D02*
X137761428Y-33630457D01*
X137761428Y-33630457D02*
X137856666Y-33535218D01*
X137856666Y-33535218D02*
X137904285Y-33439980D01*
X137904285Y-33439980D02*
X137951904Y-33249504D01*
X137951904Y-33249504D02*
X137951904Y-33106647D01*
X137951904Y-33106647D02*
X137904285Y-32916171D01*
X137904285Y-32916171D02*
X137856666Y-32820933D01*
X137856666Y-32820933D02*
X137761428Y-32725695D01*
X137761428Y-32725695D02*
X137618571Y-32678076D01*
X137618571Y-32678076D02*
X137523333Y-32678076D01*
X137523333Y-32678076D02*
X137380476Y-32725695D01*
X137380476Y-32725695D02*
X137332857Y-32773314D01*
X136951904Y-32773314D02*
X136904285Y-32725695D01*
X136904285Y-32725695D02*
X136809047Y-32678076D01*
X136809047Y-32678076D02*
X136570952Y-32678076D01*
X136570952Y-32678076D02*
X136475714Y-32725695D01*
X136475714Y-32725695D02*
X136428095Y-32773314D01*
X136428095Y-32773314D02*
X136380476Y-32868552D01*
X136380476Y-32868552D02*
X136380476Y-32963790D01*
X136380476Y-32963790D02*
X136428095Y-33106647D01*
X136428095Y-33106647D02*
X136999523Y-33678076D01*
X136999523Y-33678076D02*
X136380476Y-33678076D01*
X136047142Y-32678076D02*
X135428095Y-32678076D01*
X135428095Y-32678076D02*
X135761428Y-33059028D01*
X135761428Y-33059028D02*
X135618571Y-33059028D01*
X135618571Y-33059028D02*
X135523333Y-33106647D01*
X135523333Y-33106647D02*
X135475714Y-33154266D01*
X135475714Y-33154266D02*
X135428095Y-33249504D01*
X135428095Y-33249504D02*
X135428095Y-33487599D01*
X135428095Y-33487599D02*
X135475714Y-33582837D01*
X135475714Y-33582837D02*
X135523333Y-33630457D01*
X135523333Y-33630457D02*
X135618571Y-33678076D01*
X135618571Y-33678076D02*
X135904285Y-33678076D01*
X135904285Y-33678076D02*
X135999523Y-33630457D01*
X135999523Y-33630457D02*
X136047142Y-33582837D01*
X139124819Y-52380399D02*
X138648628Y-52047066D01*
X139124819Y-51808971D02*
X138124819Y-51808971D01*
X138124819Y-51808971D02*
X138124819Y-52189923D01*
X138124819Y-52189923D02*
X138172438Y-52285161D01*
X138172438Y-52285161D02*
X138220057Y-52332780D01*
X138220057Y-52332780D02*
X138315295Y-52380399D01*
X138315295Y-52380399D02*
X138458152Y-52380399D01*
X138458152Y-52380399D02*
X138553390Y-52332780D01*
X138553390Y-52332780D02*
X138601009Y-52285161D01*
X138601009Y-52285161D02*
X138648628Y-52189923D01*
X138648628Y-52189923D02*
X138648628Y-51808971D01*
X138220057Y-52761352D02*
X138172438Y-52808971D01*
X138172438Y-52808971D02*
X138124819Y-52904209D01*
X138124819Y-52904209D02*
X138124819Y-53142304D01*
X138124819Y-53142304D02*
X138172438Y-53237542D01*
X138172438Y-53237542D02*
X138220057Y-53285161D01*
X138220057Y-53285161D02*
X138315295Y-53332780D01*
X138315295Y-53332780D02*
X138410533Y-53332780D01*
X138410533Y-53332780D02*
X138553390Y-53285161D01*
X138553390Y-53285161D02*
X139124819Y-52713733D01*
X139124819Y-52713733D02*
X139124819Y-53332780D01*
X138220057Y-53713733D02*
X138172438Y-53761352D01*
X138172438Y-53761352D02*
X138124819Y-53856590D01*
X138124819Y-53856590D02*
X138124819Y-54094685D01*
X138124819Y-54094685D02*
X138172438Y-54189923D01*
X138172438Y-54189923D02*
X138220057Y-54237542D01*
X138220057Y-54237542D02*
X138315295Y-54285161D01*
X138315295Y-54285161D02*
X138410533Y-54285161D01*
X138410533Y-54285161D02*
X138553390Y-54237542D01*
X138553390Y-54237542D02*
X139124819Y-53666114D01*
X139124819Y-53666114D02*
X139124819Y-54285161D01*
X135532857Y-44828076D02*
X135866190Y-44351885D01*
X136104285Y-44828076D02*
X136104285Y-43828076D01*
X136104285Y-43828076D02*
X135723333Y-43828076D01*
X135723333Y-43828076D02*
X135628095Y-43875695D01*
X135628095Y-43875695D02*
X135580476Y-43923314D01*
X135580476Y-43923314D02*
X135532857Y-44018552D01*
X135532857Y-44018552D02*
X135532857Y-44161409D01*
X135532857Y-44161409D02*
X135580476Y-44256647D01*
X135580476Y-44256647D02*
X135628095Y-44304266D01*
X135628095Y-44304266D02*
X135723333Y-44351885D01*
X135723333Y-44351885D02*
X136104285Y-44351885D01*
X135151904Y-43923314D02*
X135104285Y-43875695D01*
X135104285Y-43875695D02*
X135009047Y-43828076D01*
X135009047Y-43828076D02*
X134770952Y-43828076D01*
X134770952Y-43828076D02*
X134675714Y-43875695D01*
X134675714Y-43875695D02*
X134628095Y-43923314D01*
X134628095Y-43923314D02*
X134580476Y-44018552D01*
X134580476Y-44018552D02*
X134580476Y-44113790D01*
X134580476Y-44113790D02*
X134628095Y-44256647D01*
X134628095Y-44256647D02*
X135199523Y-44828076D01*
X135199523Y-44828076D02*
X134580476Y-44828076D01*
X133628095Y-44828076D02*
X134199523Y-44828076D01*
X133913809Y-44828076D02*
X133913809Y-43828076D01*
X133913809Y-43828076D02*
X134009047Y-43970933D01*
X134009047Y-43970933D02*
X134104285Y-44066171D01*
X134104285Y-44066171D02*
X134199523Y-44113790D01*
X122494819Y-48730399D02*
X122018628Y-48397066D01*
X122494819Y-48158971D02*
X121494819Y-48158971D01*
X121494819Y-48158971D02*
X121494819Y-48539923D01*
X121494819Y-48539923D02*
X121542438Y-48635161D01*
X121542438Y-48635161D02*
X121590057Y-48682780D01*
X121590057Y-48682780D02*
X121685295Y-48730399D01*
X121685295Y-48730399D02*
X121828152Y-48730399D01*
X121828152Y-48730399D02*
X121923390Y-48682780D01*
X121923390Y-48682780D02*
X121971009Y-48635161D01*
X121971009Y-48635161D02*
X122018628Y-48539923D01*
X122018628Y-48539923D02*
X122018628Y-48158971D01*
X121590057Y-49111352D02*
X121542438Y-49158971D01*
X121542438Y-49158971D02*
X121494819Y-49254209D01*
X121494819Y-49254209D02*
X121494819Y-49492304D01*
X121494819Y-49492304D02*
X121542438Y-49587542D01*
X121542438Y-49587542D02*
X121590057Y-49635161D01*
X121590057Y-49635161D02*
X121685295Y-49682780D01*
X121685295Y-49682780D02*
X121780533Y-49682780D01*
X121780533Y-49682780D02*
X121923390Y-49635161D01*
X121923390Y-49635161D02*
X122494819Y-49063733D01*
X122494819Y-49063733D02*
X122494819Y-49682780D01*
X121494819Y-50301828D02*
X121494819Y-50397066D01*
X121494819Y-50397066D02*
X121542438Y-50492304D01*
X121542438Y-50492304D02*
X121590057Y-50539923D01*
X121590057Y-50539923D02*
X121685295Y-50587542D01*
X121685295Y-50587542D02*
X121875771Y-50635161D01*
X121875771Y-50635161D02*
X122113866Y-50635161D01*
X122113866Y-50635161D02*
X122304342Y-50587542D01*
X122304342Y-50587542D02*
X122399580Y-50539923D01*
X122399580Y-50539923D02*
X122447200Y-50492304D01*
X122447200Y-50492304D02*
X122494819Y-50397066D01*
X122494819Y-50397066D02*
X122494819Y-50301828D01*
X122494819Y-50301828D02*
X122447200Y-50206590D01*
X122447200Y-50206590D02*
X122399580Y-50158971D01*
X122399580Y-50158971D02*
X122304342Y-50111352D01*
X122304342Y-50111352D02*
X122113866Y-50063733D01*
X122113866Y-50063733D02*
X121875771Y-50063733D01*
X121875771Y-50063733D02*
X121685295Y-50111352D01*
X121685295Y-50111352D02*
X121590057Y-50158971D01*
X121590057Y-50158971D02*
X121542438Y-50206590D01*
X121542438Y-50206590D02*
X121494819Y-50301828D01*
X126594819Y-31030399D02*
X126118628Y-30697066D01*
X126594819Y-30458971D02*
X125594819Y-30458971D01*
X125594819Y-30458971D02*
X125594819Y-30839923D01*
X125594819Y-30839923D02*
X125642438Y-30935161D01*
X125642438Y-30935161D02*
X125690057Y-30982780D01*
X125690057Y-30982780D02*
X125785295Y-31030399D01*
X125785295Y-31030399D02*
X125928152Y-31030399D01*
X125928152Y-31030399D02*
X126023390Y-30982780D01*
X126023390Y-30982780D02*
X126071009Y-30935161D01*
X126071009Y-30935161D02*
X126118628Y-30839923D01*
X126118628Y-30839923D02*
X126118628Y-30458971D01*
X126594819Y-31982780D02*
X126594819Y-31411352D01*
X126594819Y-31697066D02*
X125594819Y-31697066D01*
X125594819Y-31697066D02*
X125737676Y-31601828D01*
X125737676Y-31601828D02*
X125832914Y-31506590D01*
X125832914Y-31506590D02*
X125880533Y-31411352D01*
X126594819Y-32458971D02*
X126594819Y-32649447D01*
X126594819Y-32649447D02*
X126547200Y-32744685D01*
X126547200Y-32744685D02*
X126499580Y-32792304D01*
X126499580Y-32792304D02*
X126356723Y-32887542D01*
X126356723Y-32887542D02*
X126166247Y-32935161D01*
X126166247Y-32935161D02*
X125785295Y-32935161D01*
X125785295Y-32935161D02*
X125690057Y-32887542D01*
X125690057Y-32887542D02*
X125642438Y-32839923D01*
X125642438Y-32839923D02*
X125594819Y-32744685D01*
X125594819Y-32744685D02*
X125594819Y-32554209D01*
X125594819Y-32554209D02*
X125642438Y-32458971D01*
X125642438Y-32458971D02*
X125690057Y-32411352D01*
X125690057Y-32411352D02*
X125785295Y-32363733D01*
X125785295Y-32363733D02*
X126023390Y-32363733D01*
X126023390Y-32363733D02*
X126118628Y-32411352D01*
X126118628Y-32411352D02*
X126166247Y-32458971D01*
X126166247Y-32458971D02*
X126213866Y-32554209D01*
X126213866Y-32554209D02*
X126213866Y-32744685D01*
X126213866Y-32744685D02*
X126166247Y-32839923D01*
X126166247Y-32839923D02*
X126118628Y-32887542D01*
X126118628Y-32887542D02*
X126023390Y-32935161D01*
X134132857Y-32778076D02*
X134466190Y-32301885D01*
X134704285Y-32778076D02*
X134704285Y-31778076D01*
X134704285Y-31778076D02*
X134323333Y-31778076D01*
X134323333Y-31778076D02*
X134228095Y-31825695D01*
X134228095Y-31825695D02*
X134180476Y-31873314D01*
X134180476Y-31873314D02*
X134132857Y-31968552D01*
X134132857Y-31968552D02*
X134132857Y-32111409D01*
X134132857Y-32111409D02*
X134180476Y-32206647D01*
X134180476Y-32206647D02*
X134228095Y-32254266D01*
X134228095Y-32254266D02*
X134323333Y-32301885D01*
X134323333Y-32301885D02*
X134704285Y-32301885D01*
X133751904Y-31873314D02*
X133704285Y-31825695D01*
X133704285Y-31825695D02*
X133609047Y-31778076D01*
X133609047Y-31778076D02*
X133370952Y-31778076D01*
X133370952Y-31778076D02*
X133275714Y-31825695D01*
X133275714Y-31825695D02*
X133228095Y-31873314D01*
X133228095Y-31873314D02*
X133180476Y-31968552D01*
X133180476Y-31968552D02*
X133180476Y-32063790D01*
X133180476Y-32063790D02*
X133228095Y-32206647D01*
X133228095Y-32206647D02*
X133799523Y-32778076D01*
X133799523Y-32778076D02*
X133180476Y-32778076D01*
X132847142Y-31778076D02*
X132228095Y-31778076D01*
X132228095Y-31778076D02*
X132561428Y-32159028D01*
X132561428Y-32159028D02*
X132418571Y-32159028D01*
X132418571Y-32159028D02*
X132323333Y-32206647D01*
X132323333Y-32206647D02*
X132275714Y-32254266D01*
X132275714Y-32254266D02*
X132228095Y-32349504D01*
X132228095Y-32349504D02*
X132228095Y-32587599D01*
X132228095Y-32587599D02*
X132275714Y-32682837D01*
X132275714Y-32682837D02*
X132323333Y-32730457D01*
X132323333Y-32730457D02*
X132418571Y-32778076D01*
X132418571Y-32778076D02*
X132704285Y-32778076D01*
X132704285Y-32778076D02*
X132799523Y-32730457D01*
X132799523Y-32730457D02*
X132847142Y-32682837D01*
%TO.C,C22*%
D11*
X149251252Y-34463257D02*
X147828748Y-34463257D01*
X149251252Y-36283257D02*
X147828748Y-36283257D01*
%TO.C,R24*%
X150580000Y-47250321D02*
X150580000Y-45796193D01*
X152400000Y-47250321D02*
X152400000Y-45796193D01*
%TO.C,C23*%
X137851252Y-34413257D02*
X136428748Y-34413257D01*
X137851252Y-36233257D02*
X136428748Y-36233257D01*
%TO.C,R22*%
X135930000Y-53750321D02*
X135930000Y-52296193D01*
X137750000Y-53750321D02*
X137750000Y-52296193D01*
%TO.C,R21*%
X134062936Y-41313257D02*
X135517064Y-41313257D01*
X134062936Y-43133257D02*
X135517064Y-43133257D01*
%TO.C,R20*%
X123180000Y-48696193D02*
X123180000Y-50150321D01*
X125000000Y-48696193D02*
X125000000Y-50150321D01*
%TO.C,R19*%
X123130000Y-32450321D02*
X123130000Y-30996193D01*
X124950000Y-32450321D02*
X124950000Y-30996193D01*
%TO.C,R23*%
X132787936Y-29463257D02*
X134242064Y-29463257D01*
X132787936Y-31283257D02*
X134242064Y-31283257D01*
%TD*%
%LPC*%
D12*
%TO.C,H10*%
X175840000Y-23473257D03*
%TD*%
D13*
%TO.C,C26*%
X133140000Y-54823257D03*
X128140000Y-54823257D03*
%TD*%
%TO.C,C24*%
X131990000Y-26423257D03*
X126990000Y-26423257D03*
%TD*%
D14*
%TO.C,C25*%
X128890000Y-30423257D03*
D13*
X128890000Y-32423257D03*
%TD*%
D15*
%TO.C,C27*%
X130590000Y-49923257D03*
D13*
X130590000Y-47923257D03*
%TD*%
D16*
%TO.C,J10*%
X124640000Y-37673257D03*
D17*
X124640000Y-42753257D03*
%TD*%
D18*
%TO.C,AMP1*%
X139270000Y-39953257D03*
D13*
X139270000Y-42493257D03*
X139270000Y-45033257D03*
X139270000Y-47573257D03*
X146890000Y-47573257D03*
X146890000Y-45033257D03*
X146890000Y-42493257D03*
X146890000Y-39953257D03*
%TD*%
D12*
%TO.C,H9*%
X121190000Y-23473257D03*
%TD*%
D19*
%TO.C,C29*%
X159140000Y-48873257D03*
D20*
X159140000Y-56373257D03*
%TD*%
D19*
%TO.C,C28*%
X160990000Y-26473257D03*
D20*
X160990000Y-33973257D03*
%TD*%
D12*
%TO.C,H12*%
X121190000Y-58023257D03*
%TD*%
%TO.C,H11*%
X175790000Y-58023257D03*
%TD*%
D21*
%TO.C,J11*%
X172290000Y-44573257D03*
D17*
X172290000Y-39493257D03*
%TD*%
D22*
%TO.C,J9*%
X148800000Y-26873257D03*
D17*
X143720000Y-26873257D03*
X138640000Y-26873257D03*
%TD*%
D23*
%TO.C,C22*%
X150102500Y-35373257D03*
X146977500Y-35373257D03*
%TD*%
D24*
%TO.C,R24*%
X151490000Y-48073257D03*
X151490000Y-44973257D03*
%TD*%
D23*
%TO.C,C23*%
X138702500Y-35323257D03*
X135577500Y-35323257D03*
%TD*%
D24*
%TO.C,R22*%
X136840000Y-54573257D03*
X136840000Y-51473257D03*
%TD*%
D25*
%TO.C,R21*%
X133240000Y-42223257D03*
X136340000Y-42223257D03*
%TD*%
D26*
%TO.C,R20*%
X124090000Y-47873257D03*
X124090000Y-50973257D03*
%TD*%
D24*
%TO.C,R19*%
X124040000Y-33273257D03*
X124040000Y-30173257D03*
%TD*%
D25*
%TO.C,R23*%
X131965000Y-30373257D03*
X135065000Y-30373257D03*
%TD*%
%LPD*%
M02*
