M48
; DRILL file KiCad 10.0.1 date 2026-06-17T20:16:32
; FORMAT={-:-/ absolute / metric / decimal}
; #@! TF.CreationDate,2026-06-17T20:16:32+09:00
; #@! TF.GenerationSoftware,Kicad,Pcbnew,10.0.1
; #@! TF.FileFunction,MixedPlating,1,2
FMAT,2
METRIC
; #@! TA.AperFunction,Plated,PTH,ViaDrill
T1C0.300
; #@! TA.AperFunction,Plated,PTH,ComponentDrill
T2C0.800
; #@! TA.AperFunction,Plated,PTH,ComponentDrill
T3C1.200
; #@! TA.AperFunction,Plated,PTH,ComponentDrill
T4C1.300
; #@! TA.AperFunction,NonPlated,NPTH,ComponentDrill
T5C3.200
%
G90
G05
T1
X133.29Y-35.673
T2
X128.79Y-26.373
X129.64Y-55.123
X130.44Y-30.473
X130.44Y-32.473
X133.79Y-26.373
X133.94Y-48.823
X133.94Y-50.823
X134.64Y-55.123
X139.03Y-38.513
X139.03Y-41.053
X139.03Y-43.593
X139.03Y-46.133
X146.65Y-38.513
X146.65Y-41.053
X146.65Y-43.593
X146.65Y-46.133
T3
X152.94Y-52.323
X158.74Y-29.123
X160.44Y-52.323
X166.24Y-29.123
T4
X126.34Y-37.673
X126.34Y-42.753
X139.08Y-26.723
X144.16Y-26.723
X149.24Y-26.723
X170.44Y-40.823
X170.44Y-45.903
T5
X122.89Y-23.473
X122.89Y-58.023
X174.04Y-57.973
X174.14Y-23.423
M30
