%TF.GenerationSoftware,KiCad,Pcbnew,10.0.1*%
%TF.CreationDate,2026-06-05T02:22:03+09:00*%
%TF.ProjectId,AudioCase_4_amp,41756469-6f43-4617-9365-5f345f616d70,rev?*%
%TF.SameCoordinates,Original*%
%TF.FileFunction,Copper,L2,Bot*%
%TF.FilePolarity,Positive*%
%FSLAX46Y46*%
G04 Gerber Fmt 4.6, Leading zero omitted, Abs format (unit mm)*
G04 Created by KiCad (PCBNEW 10.0.1) date 2026-06-05 02:22:03*
%MOMM*%
%LPD*%
G01*
G04 APERTURE LIST*
G04 Aperture macros list*
%AMRoundRect*
0 Rectangle with rounded corners*
0 $1 Rounding radius*
0 $2 $3 $4 $5 $6 $7 $8 $9 X,Y pos of 4 corners*
0 Add a 4 corners polygon primitive as box body*
4,1,4,$2,$3,$4,$5,$6,$7,$8,$9,$2,$3,0*
0 Add four circle primitives for the rounded corners*
1,1,$1+$1,$2,$3*
1,1,$1+$1,$4,$5*
1,1,$1+$1,$6,$7*
1,1,$1+$1,$8,$9*
0 Add four rect primitives between the rounded corners*
20,1,$1+$1,$2,$3,$4,$5,0*
20,1,$1+$1,$4,$5,$6,$7,0*
20,1,$1+$1,$6,$7,$8,$9,0*
20,1,$1+$1,$8,$9,$2,$3,0*%
G04 Aperture macros list end*
%TA.AperFunction,ComponentPad*%
%ADD10C,1.600000*%
%TD*%
%TA.AperFunction,ComponentPad*%
%ADD11RoundRect,0.250000X1.050000X-1.050000X1.050000X1.050000X-1.050000X1.050000X-1.050000X-1.050000X0*%
%TD*%
%TA.AperFunction,ComponentPad*%
%ADD12C,2.600000*%
%TD*%
%TA.AperFunction,ComponentPad*%
%ADD13RoundRect,0.250000X-0.550000X0.550000X-0.550000X-0.550000X0.550000X-0.550000X0.550000X0.550000X0*%
%TD*%
%TA.AperFunction,ComponentPad*%
%ADD14RoundRect,0.250000X-0.550000X-0.550000X0.550000X-0.550000X0.550000X0.550000X-0.550000X0.550000X0*%
%TD*%
%TA.AperFunction,ComponentPad*%
%ADD15RoundRect,0.250000X-1.050000X1.050000X-1.050000X-1.050000X1.050000X-1.050000X1.050000X1.050000X0*%
%TD*%
%TA.AperFunction,ComponentPad*%
%ADD16RoundRect,0.250000X0.550000X-0.550000X0.550000X0.550000X-0.550000X0.550000X-0.550000X-0.550000X0*%
%TD*%
%TA.AperFunction,ComponentPad*%
%ADD17RoundRect,0.250000X1.050000X1.050000X-1.050000X1.050000X-1.050000X-1.050000X1.050000X-1.050000X0*%
%TD*%
%TA.AperFunction,ComponentPad*%
%ADD18RoundRect,0.250001X-0.949999X0.949999X-0.949999X-0.949999X0.949999X-0.949999X0.949999X0.949999X0*%
%TD*%
%TA.AperFunction,ComponentPad*%
%ADD19C,2.400000*%
%TD*%
%TA.AperFunction,SMDPad,CuDef*%
%ADD20RoundRect,0.250000X-0.400000X-0.625000X0.400000X-0.625000X0.400000X0.625000X-0.400000X0.625000X0*%
%TD*%
%TA.AperFunction,SMDPad,CuDef*%
%ADD21RoundRect,0.250000X-0.625000X0.400000X-0.625000X-0.400000X0.625000X-0.400000X0.625000X0.400000X0*%
%TD*%
%TA.AperFunction,SMDPad,CuDef*%
%ADD22RoundRect,0.250000X0.625000X-0.400000X0.625000X0.400000X-0.625000X0.400000X-0.625000X-0.400000X0*%
%TD*%
%TA.AperFunction,SMDPad,CuDef*%
%ADD23RoundRect,0.250000X0.412500X0.650000X-0.412500X0.650000X-0.412500X-0.650000X0.412500X-0.650000X0*%
%TD*%
%TA.AperFunction,Conductor*%
%ADD24C,1.000000*%
%TD*%
%TA.AperFunction,Conductor*%
%ADD25C,0.500000*%
%TD*%
G04 APERTURE END LIST*
D10*
%TO.P,C24,1*%
%TO.N,Net-(AMP1A-+)*%
X131990000Y-26423257D03*
%TO.P,C24,2*%
%TO.N,/Controll/R_OUT*%
X126990000Y-26423257D03*
%TD*%
D11*
%TO.P,J11,1,Pin_1_1*%
%TO.N,/AmpModule/L_OUT*%
X172990000Y-44503257D03*
D12*
%TO.P,J11,2,Pin_2_2*%
%TO.N,/AmpModule/R_OUT*%
X172990000Y-39423257D03*
%TD*%
D13*
%TO.P,C25,1*%
%TO.N,Net-(AMP1A-+)*%
X128890000Y-30423257D03*
D10*
%TO.P,C25,2*%
%TO.N,/Controll/R_OUT*%
X128890000Y-32423257D03*
%TD*%
D14*
%TO.P,AMP1,1*%
%TO.N,Net-(AMP1-Pad1)*%
X139270000Y-39953257D03*
D10*
%TO.P,AMP1,2,-_2*%
%TO.N,Net-(AMP1A--)*%
X139270000Y-42493257D03*
%TO.P,AMP1,3,+_3*%
%TO.N,Net-(AMP1A-+)*%
X139270000Y-45033257D03*
%TO.P,AMP1,4,V-_4*%
%TO.N,/Controll/AMP_V-_OUT*%
X139270000Y-47573257D03*
%TO.P,AMP1,5,+_5*%
%TO.N,Net-(AMP1B-+)*%
X146890000Y-47573257D03*
%TO.P,AMP1,6,-_6*%
%TO.N,Net-(AMP1B--)*%
X146890000Y-45033257D03*
%TO.P,AMP1,7*%
%TO.N,Net-(AMP1-Pad7)*%
X146890000Y-42493257D03*
%TO.P,AMP1,8,V+_8*%
%TO.N,/Controll/AMP_V+_OUT*%
X146890000Y-39953257D03*
%TD*%
D15*
%TO.P,J10,1,Pin_1_1*%
%TO.N,/Controll/R_OUT*%
X124090000Y-37693257D03*
D12*
%TO.P,J10,2,Pin_2_2*%
%TO.N,/Controll/L_OUT*%
X124090000Y-42773257D03*
%TD*%
D16*
%TO.P,C27,1*%
%TO.N,Net-(AMP1B-+)*%
X130590000Y-49923257D03*
D10*
%TO.P,C27,2*%
%TO.N,/Controll/L_OUT*%
X130590000Y-47923257D03*
%TD*%
D17*
%TO.P,J9,1,Pin_1_1*%
%TO.N,/Controll/AMP_V+_OUT*%
X148800000Y-26873257D03*
D12*
%TO.P,J9,2,Pin_2_2*%
%TO.N,GND*%
X143720000Y-26873257D03*
%TO.P,J9,3,Pin_3_3*%
%TO.N,/Controll/AMP_V-_OUT*%
X138640000Y-26873257D03*
%TD*%
D10*
%TO.P,C26,1*%
%TO.N,Net-(AMP1B-+)*%
X133140000Y-54823257D03*
%TO.P,C26,2*%
%TO.N,/Controll/L_OUT*%
X128140000Y-54823257D03*
%TD*%
D18*
%TO.P,C28,1*%
%TO.N,Net-(C28-Pad1)*%
X160990000Y-26473257D03*
D19*
%TO.P,C28,2*%
%TO.N,/AmpModule/R_OUT*%
X160990000Y-33973257D03*
%TD*%
D18*
%TO.P,C29,1*%
%TO.N,Net-(C29-Pad1)*%
X159140000Y-48873257D03*
D19*
%TO.P,C29,2*%
%TO.N,/AmpModule/L_OUT*%
X159140000Y-56373257D03*
%TD*%
D20*
%TO.P,R23,1*%
%TO.N,Net-(AMP1A-+)*%
X131965000Y-30373257D03*
%TO.P,R23,2*%
%TO.N,GND*%
X135065000Y-30373257D03*
%TD*%
D21*
%TO.P,R20,1*%
%TO.N,/Controll/L_OUT*%
X124090000Y-47873257D03*
%TO.P,R20,2*%
%TO.N,GND*%
X124090000Y-50973257D03*
%TD*%
D22*
%TO.P,R19,1*%
%TO.N,/Controll/R_OUT*%
X124040000Y-33273257D03*
%TO.P,R19,2*%
%TO.N,GND*%
X124040000Y-30173257D03*
%TD*%
D23*
%TO.P,C23,1*%
%TO.N,/Controll/AMP_V-_OUT*%
X138702500Y-35323257D03*
%TO.P,C23,2*%
%TO.N,GND*%
X135577500Y-35323257D03*
%TD*%
%TO.P,C22,1*%
%TO.N,GND*%
X150102500Y-35373257D03*
%TO.P,C22,2*%
%TO.N,/Controll/AMP_V+_OUT*%
X146977500Y-35373257D03*
%TD*%
D22*
%TO.P,R24,1*%
%TO.N,GND*%
X151490000Y-48073257D03*
%TO.P,R24,2*%
%TO.N,Net-(AMP1B--)*%
X151490000Y-44973257D03*
%TD*%
D20*
%TO.P,R21,1*%
%TO.N,GND*%
X133240000Y-42223257D03*
%TO.P,R21,2*%
%TO.N,Net-(AMP1A--)*%
X136340000Y-42223257D03*
%TD*%
D22*
%TO.P,R22,1*%
%TO.N,GND*%
X136840000Y-54573257D03*
%TO.P,R22,2*%
%TO.N,Net-(AMP1B-+)*%
X136840000Y-51473257D03*
%TD*%
%TO.N,Net-(AMP1A--)*%
D24*
X136340000Y-42223257D02*
X139000000Y-42223257D01*
X139000000Y-42223257D02*
X139270000Y-42493257D01*
%TO.N,Net-(AMP1B--)*%
D25*
X146890000Y-45033257D02*
X150912500Y-45033257D01*
X150972500Y-44973257D02*
X151490000Y-44973257D01*
X150912500Y-45033257D02*
X150972500Y-44973257D01*
%TO.N,Net-(AMP1A-+)*%
X131915000Y-30423257D02*
X131965000Y-30373257D01*
X131965000Y-30373257D02*
X131990000Y-30348257D01*
X128890000Y-30423257D02*
X131915000Y-30423257D01*
X131990000Y-30348257D02*
X131990000Y-26423257D01*
%TO.N,/Controll/R_OUT*%
X124040000Y-33273257D02*
X124040000Y-37643257D01*
X124040000Y-37643257D02*
X124090000Y-37693257D01*
%TO.N,/Controll/AMP_V-_OUT*%
D24*
X141940000Y-44903257D02*
X139270000Y-47573257D01*
X138702500Y-26935757D02*
X138702500Y-35323257D01*
X138640000Y-26873257D02*
X138702500Y-26935757D01*
X138702500Y-35985757D02*
X141940000Y-39223257D01*
X141940000Y-39223257D02*
X141940000Y-44903257D01*
X138702500Y-35323257D02*
X138702500Y-35985757D01*
%TO.N,Net-(AMP1B-+)*%
D25*
X136840000Y-51473257D02*
X132140000Y-51473257D01*
X132140000Y-51473257D02*
X130590000Y-49923257D01*
X133140000Y-54823257D02*
X136490000Y-51473257D01*
X136490000Y-51473257D02*
X136840000Y-51473257D01*
%TO.N,/Controll/AMP_V+_OUT*%
D24*
X146977500Y-31985757D02*
X146977500Y-39865757D01*
X146977500Y-39865757D02*
X146890000Y-39953257D01*
X148800000Y-30163257D02*
X146977500Y-31985757D01*
X148800000Y-26873257D02*
X148800000Y-30163257D01*
%TO.N,/Controll/L_OUT*%
D25*
X124090000Y-42773257D02*
X124090000Y-47873257D01*
%TD*%
%TA.AperFunction,Conductor*%
%TO.N,GND*%
G36*
X172233039Y-20520185D02*
G01*
X172278794Y-20572989D01*
X172290000Y-20624500D01*
X172290000Y-27023257D01*
X178665500Y-27023257D01*
X178732539Y-27042942D01*
X178778294Y-27095746D01*
X178789500Y-27147257D01*
X178789500Y-54399257D01*
X178769815Y-54466296D01*
X178717011Y-54512051D01*
X178665500Y-54523257D01*
X172290000Y-54523257D01*
X172290000Y-60875500D01*
X172270315Y-60942539D01*
X172217511Y-60988294D01*
X172166000Y-60999500D01*
X124814000Y-60999500D01*
X124746961Y-60979815D01*
X124701206Y-60927011D01*
X124690000Y-60875500D01*
X124690000Y-56261806D01*
X157439500Y-56261806D01*
X157439500Y-56484707D01*
X157439501Y-56484723D01*
X157468594Y-56705709D01*
X157468595Y-56705714D01*
X157468596Y-56705720D01*
X157468597Y-56705722D01*
X157526290Y-56921037D01*
X157526293Y-56921047D01*
X157611593Y-57126979D01*
X157611595Y-57126983D01*
X157723052Y-57320031D01*
X157723057Y-57320037D01*
X157723058Y-57320039D01*
X157858751Y-57496879D01*
X157858757Y-57496886D01*
X158016370Y-57654499D01*
X158016376Y-57654504D01*
X158193226Y-57790205D01*
X158386274Y-57901662D01*
X158592219Y-57986967D01*
X158807537Y-58044661D01*
X159028543Y-58073757D01*
X159028550Y-58073757D01*
X159251450Y-58073757D01*
X159251457Y-58073757D01*
X159472463Y-58044661D01*
X159687781Y-57986967D01*
X159893726Y-57901662D01*
X160086774Y-57790205D01*
X160263624Y-57654504D01*
X160421247Y-57496881D01*
X160556948Y-57320031D01*
X160668405Y-57126983D01*
X160753710Y-56921038D01*
X160811404Y-56705720D01*
X160840500Y-56484714D01*
X160840500Y-56261800D01*
X160811404Y-56040794D01*
X160753710Y-55825476D01*
X160668405Y-55619531D01*
X160556948Y-55426483D01*
X160421247Y-55249633D01*
X160421242Y-55249627D01*
X160263629Y-55092014D01*
X160263622Y-55092008D01*
X160086782Y-54956315D01*
X160086780Y-54956314D01*
X160086774Y-54956309D01*
X159893726Y-54844852D01*
X159893722Y-54844850D01*
X159687790Y-54759550D01*
X159687783Y-54759548D01*
X159687781Y-54759547D01*
X159472463Y-54701853D01*
X159472457Y-54701852D01*
X159472452Y-54701851D01*
X159251466Y-54672758D01*
X159251463Y-54672757D01*
X159251457Y-54672757D01*
X159028543Y-54672757D01*
X159028537Y-54672757D01*
X159028533Y-54672758D01*
X158807547Y-54701851D01*
X158807540Y-54701852D01*
X158807537Y-54701853D01*
X158736434Y-54720905D01*
X158592219Y-54759547D01*
X158592209Y-54759550D01*
X158386277Y-54844850D01*
X158386273Y-54844852D01*
X158193226Y-54956309D01*
X158193217Y-54956315D01*
X158016377Y-55092008D01*
X158016370Y-55092014D01*
X157858757Y-55249627D01*
X157858751Y-55249634D01*
X157723058Y-55426474D01*
X157723052Y-55426483D01*
X157611595Y-55619530D01*
X157611593Y-55619534D01*
X157526293Y-55825466D01*
X157526290Y-55825476D01*
X157468597Y-56040791D01*
X157468594Y-56040804D01*
X157439501Y-56261790D01*
X157439500Y-56261806D01*
X124690000Y-56261806D01*
X124690000Y-54720905D01*
X126839500Y-54720905D01*
X126839500Y-54925608D01*
X126871522Y-55127791D01*
X126934781Y-55322480D01*
X127027715Y-55504870D01*
X127148028Y-55670470D01*
X127292786Y-55815228D01*
X127447749Y-55927813D01*
X127458390Y-55935544D01*
X127574607Y-55994760D01*
X127640776Y-56028475D01*
X127640778Y-56028475D01*
X127640781Y-56028477D01*
X127678720Y-56040804D01*
X127835465Y-56091734D01*
X127936557Y-56107745D01*
X128037648Y-56123757D01*
X128037649Y-56123757D01*
X128242351Y-56123757D01*
X128242352Y-56123757D01*
X128444534Y-56091734D01*
X128639219Y-56028477D01*
X128821610Y-55935544D01*
X128914590Y-55867989D01*
X128987213Y-55815228D01*
X128987215Y-55815225D01*
X128987219Y-55815223D01*
X129131966Y-55670476D01*
X129131968Y-55670472D01*
X129131971Y-55670470D01*
X129184732Y-55597847D01*
X129252287Y-55504867D01*
X129345220Y-55322476D01*
X129408477Y-55127791D01*
X129440500Y-54925609D01*
X129440500Y-54720905D01*
X129432874Y-54672757D01*
X129408477Y-54518722D01*
X129345218Y-54324033D01*
X129311503Y-54257864D01*
X129252287Y-54141647D01*
X129238946Y-54123285D01*
X129131971Y-53976043D01*
X128987213Y-53831285D01*
X128821613Y-53710972D01*
X128821612Y-53710971D01*
X128821610Y-53710970D01*
X128730237Y-53664413D01*
X128639223Y-53618038D01*
X128444534Y-53554779D01*
X128269995Y-53527135D01*
X128242352Y-53522757D01*
X128037648Y-53522757D01*
X128013329Y-53526608D01*
X127835465Y-53554779D01*
X127640776Y-53618038D01*
X127458386Y-53710972D01*
X127292786Y-53831285D01*
X127148028Y-53976043D01*
X127027715Y-54141643D01*
X126934781Y-54324033D01*
X126871522Y-54518722D01*
X126839500Y-54720905D01*
X124690000Y-54720905D01*
X124690000Y-54523257D01*
X118334500Y-54523257D01*
X118267461Y-54503572D01*
X118221706Y-54450768D01*
X118210500Y-54399257D01*
X118210500Y-51423243D01*
X122715001Y-51423243D01*
X122725494Y-51525954D01*
X122780641Y-51692376D01*
X122780643Y-51692381D01*
X122872684Y-51841602D01*
X122996654Y-51965572D01*
X123145875Y-52057613D01*
X123145880Y-52057615D01*
X123312302Y-52112762D01*
X123312309Y-52112763D01*
X123415019Y-52123256D01*
X123839999Y-52123256D01*
X124340000Y-52123256D01*
X124764972Y-52123256D01*
X124764986Y-52123255D01*
X124867697Y-52112762D01*
X125034119Y-52057615D01*
X125034124Y-52057613D01*
X125183345Y-51965572D01*
X125307315Y-51841602D01*
X125399356Y-51692381D01*
X125399358Y-51692376D01*
X125454505Y-51525954D01*
X125454506Y-51525947D01*
X125464999Y-51423243D01*
X125465000Y-51423230D01*
X125465000Y-51223257D01*
X124340000Y-51223257D01*
X124340000Y-52123256D01*
X123839999Y-52123256D01*
X123840000Y-52123255D01*
X123840000Y-51223257D01*
X122715001Y-51223257D01*
X122715001Y-51423243D01*
X118210500Y-51423243D01*
X118210500Y-50523270D01*
X122715000Y-50523270D01*
X122715000Y-50723257D01*
X123840000Y-50723257D01*
X124340000Y-50723257D01*
X125464999Y-50723257D01*
X125464999Y-50523285D01*
X125464998Y-50523270D01*
X125454505Y-50420559D01*
X125399358Y-50254137D01*
X125399356Y-50254132D01*
X125307315Y-50104911D01*
X125183345Y-49980941D01*
X125034124Y-49888900D01*
X125034119Y-49888898D01*
X124867697Y-49833751D01*
X124867690Y-49833750D01*
X124764986Y-49823257D01*
X124340000Y-49823257D01*
X124340000Y-50723257D01*
X123840000Y-50723257D01*
X123840000Y-49823257D01*
X123415028Y-49823257D01*
X123415012Y-49823258D01*
X123312302Y-49833751D01*
X123145880Y-49888898D01*
X123145875Y-49888900D01*
X122996654Y-49980941D01*
X122872684Y-50104911D01*
X122780643Y-50254132D01*
X122780641Y-50254137D01*
X122725494Y-50420559D01*
X122725493Y-50420566D01*
X122715000Y-50523270D01*
X118210500Y-50523270D01*
X118210500Y-42655252D01*
X122289500Y-42655252D01*
X122289500Y-42891261D01*
X122289501Y-42891277D01*
X122303953Y-43001054D01*
X122320307Y-43125271D01*
X122371658Y-43316914D01*
X122381394Y-43353250D01*
X122471714Y-43571302D01*
X122471719Y-43571313D01*
X122491483Y-43605544D01*
X122589727Y-43775707D01*
X122589729Y-43775710D01*
X122589730Y-43775711D01*
X122733406Y-43962954D01*
X122733412Y-43962961D01*
X122900295Y-44129844D01*
X122900302Y-44129850D01*
X122973536Y-44186044D01*
X123087550Y-44273530D01*
X123277501Y-44383198D01*
X123325716Y-44433764D01*
X123339500Y-44490584D01*
X123339500Y-46634671D01*
X123319815Y-46701710D01*
X123267011Y-46747465D01*
X123254505Y-46752377D01*
X123145666Y-46788443D01*
X123145663Y-46788444D01*
X122996342Y-46880546D01*
X122872289Y-47004599D01*
X122780187Y-47153920D01*
X122780185Y-47153925D01*
X122770465Y-47183258D01*
X122725001Y-47320460D01*
X122725001Y-47320461D01*
X122725000Y-47320461D01*
X122714500Y-47423240D01*
X122714500Y-47423253D01*
X122714501Y-48323257D01*
X122714501Y-48323276D01*
X122725000Y-48426053D01*
X122725001Y-48426056D01*
X122780185Y-48592588D01*
X122780187Y-48592593D01*
X122787758Y-48604867D01*
X122872288Y-48741913D01*
X122996344Y-48865969D01*
X123145666Y-48958071D01*
X123312203Y-49013256D01*
X123414991Y-49023757D01*
X124765008Y-49023756D01*
X124867797Y-49013256D01*
X125034334Y-48958071D01*
X125183656Y-48865969D01*
X125307712Y-48741913D01*
X125399814Y-48592591D01*
X125454999Y-48426054D01*
X125465500Y-48323266D01*
X125465499Y-47820905D01*
X129289500Y-47820905D01*
X129289500Y-48025608D01*
X129321522Y-48227791D01*
X129384781Y-48422480D01*
X129471458Y-48592591D01*
X129477713Y-48604867D01*
X129528788Y-48675167D01*
X129528790Y-48675169D01*
X129552270Y-48740975D01*
X129536444Y-48809029D01*
X129516154Y-48835735D01*
X129447287Y-48904602D01*
X129355187Y-49053920D01*
X129355186Y-49053923D01*
X129300001Y-49220460D01*
X129300001Y-49220461D01*
X129300000Y-49220461D01*
X129289500Y-49323240D01*
X129289500Y-50523258D01*
X129289501Y-50523275D01*
X129300000Y-50626053D01*
X129300001Y-50626056D01*
X129332045Y-50722757D01*
X129355186Y-50792591D01*
X129447288Y-50941913D01*
X129571344Y-51065969D01*
X129720666Y-51158071D01*
X129887203Y-51213256D01*
X129989991Y-51223757D01*
X130777769Y-51223756D01*
X130844808Y-51243440D01*
X130865450Y-51260075D01*
X131661586Y-52056211D01*
X131691058Y-52075902D01*
X131735270Y-52105443D01*
X131784505Y-52138341D01*
X131784506Y-52138341D01*
X131784507Y-52138342D01*
X131784509Y-52138343D01*
X131915469Y-52192588D01*
X131921087Y-52194915D01*
X131921091Y-52194915D01*
X131921092Y-52194916D01*
X132066079Y-52223757D01*
X132066082Y-52223757D01*
X132066083Y-52223757D01*
X132213917Y-52223757D01*
X134378771Y-52223757D01*
X134445810Y-52243442D01*
X134491565Y-52296246D01*
X134501509Y-52365404D01*
X134472484Y-52428960D01*
X134466452Y-52435438D01*
X133405105Y-53496783D01*
X133343782Y-53530268D01*
X133298026Y-53531575D01*
X133242352Y-53522757D01*
X133037648Y-53522757D01*
X133013329Y-53526608D01*
X132835465Y-53554779D01*
X132640776Y-53618038D01*
X132458386Y-53710972D01*
X132292786Y-53831285D01*
X132148028Y-53976043D01*
X132027715Y-54141643D01*
X131934781Y-54324033D01*
X131871522Y-54518722D01*
X131839500Y-54720905D01*
X131839500Y-54925608D01*
X131871522Y-55127791D01*
X131934781Y-55322480D01*
X132027715Y-55504870D01*
X132148028Y-55670470D01*
X132292786Y-55815228D01*
X132447749Y-55927813D01*
X132458390Y-55935544D01*
X132574607Y-55994760D01*
X132640776Y-56028475D01*
X132640778Y-56028475D01*
X132640781Y-56028477D01*
X132678720Y-56040804D01*
X132835465Y-56091734D01*
X132936557Y-56107745D01*
X133037648Y-56123757D01*
X133037649Y-56123757D01*
X133242351Y-56123757D01*
X133242352Y-56123757D01*
X133444534Y-56091734D01*
X133639219Y-56028477D01*
X133821610Y-55935544D01*
X133914590Y-55867989D01*
X133987213Y-55815228D01*
X133987215Y-55815225D01*
X133987219Y-55815223D01*
X134131966Y-55670476D01*
X134131968Y-55670472D01*
X134131971Y-55670470D01*
X134184732Y-55597847D01*
X134252287Y-55504867D01*
X134345220Y-55322476D01*
X134408477Y-55127791D01*
X134425036Y-55023243D01*
X135465001Y-55023243D01*
X135475494Y-55125954D01*
X135530641Y-55292376D01*
X135530643Y-55292381D01*
X135622684Y-55441602D01*
X135746654Y-55565572D01*
X135895875Y-55657613D01*
X135895880Y-55657615D01*
X136062302Y-55712762D01*
X136062309Y-55712763D01*
X136165019Y-55723256D01*
X136589999Y-55723256D01*
X137090000Y-55723256D01*
X137514972Y-55723256D01*
X137514986Y-55723255D01*
X137617697Y-55712762D01*
X137784119Y-55657615D01*
X137784124Y-55657613D01*
X137933345Y-55565572D01*
X138057315Y-55441602D01*
X138149356Y-55292381D01*
X138149358Y-55292376D01*
X138204505Y-55125954D01*
X138204506Y-55125947D01*
X138214999Y-55023243D01*
X138215000Y-55023230D01*
X138215000Y-54823257D01*
X137090000Y-54823257D01*
X137090000Y-55723256D01*
X136589999Y-55723256D01*
X136590000Y-55723255D01*
X136590000Y-54823257D01*
X135465001Y-54823257D01*
X135465001Y-55023243D01*
X134425036Y-55023243D01*
X134440500Y-54925609D01*
X134440500Y-54720905D01*
X134430949Y-54660609D01*
X134430569Y-54655972D01*
X134436731Y-54626140D01*
X134440635Y-54595936D01*
X134443983Y-54591038D01*
X134444705Y-54587548D01*
X134450225Y-54581910D01*
X134466470Y-54558152D01*
X135360211Y-53664411D01*
X135421532Y-53630928D01*
X135491224Y-53635912D01*
X135547157Y-53677784D01*
X135571574Y-53743248D01*
X135556722Y-53811521D01*
X135553429Y-53817189D01*
X135530648Y-53854123D01*
X135530641Y-53854137D01*
X135475494Y-54020559D01*
X135475493Y-54020566D01*
X135465000Y-54123270D01*
X135465000Y-54323257D01*
X136590000Y-54323257D01*
X137090000Y-54323257D01*
X138214999Y-54323257D01*
X138214999Y-54123285D01*
X138214998Y-54123270D01*
X138204505Y-54020559D01*
X138149358Y-53854137D01*
X138149356Y-53854132D01*
X138057315Y-53704911D01*
X137933345Y-53580941D01*
X137784124Y-53488900D01*
X137784119Y-53488898D01*
X137617697Y-53433751D01*
X137617690Y-53433750D01*
X137514986Y-53423257D01*
X137090000Y-53423257D01*
X137090000Y-54323257D01*
X136590000Y-54323257D01*
X136590000Y-53423257D01*
X136165028Y-53423257D01*
X136165012Y-53423258D01*
X136062302Y-53433751D01*
X135895880Y-53488898D01*
X135895866Y-53488905D01*
X135858932Y-53511686D01*
X135791540Y-53530126D01*
X135724877Y-53509203D01*
X135680108Y-53455560D01*
X135671447Y-53386229D01*
X135701644Y-53323222D01*
X135706137Y-53318485D01*
X136364548Y-52660075D01*
X136425871Y-52626590D01*
X136452229Y-52623756D01*
X137515002Y-52623756D01*
X137515008Y-52623756D01*
X137617797Y-52613256D01*
X137784334Y-52558071D01*
X137933656Y-52465969D01*
X138057712Y-52341913D01*
X138149814Y-52192591D01*
X138204999Y-52026054D01*
X138215500Y-51923266D01*
X138215499Y-51023249D01*
X138204999Y-50920460D01*
X138149814Y-50753923D01*
X138057712Y-50604601D01*
X137933656Y-50480545D01*
X137784334Y-50388443D01*
X137617797Y-50333258D01*
X137617795Y-50333257D01*
X137515010Y-50322757D01*
X136164998Y-50322757D01*
X136164981Y-50322758D01*
X136062203Y-50333257D01*
X136062200Y-50333258D01*
X135895668Y-50388442D01*
X135895663Y-50388444D01*
X135746342Y-50480546D01*
X135622289Y-50604599D01*
X135585741Y-50663854D01*
X135533793Y-50710578D01*
X135480202Y-50722757D01*
X132502230Y-50722757D01*
X132435191Y-50703072D01*
X132414549Y-50686438D01*
X131926818Y-50198707D01*
X131893333Y-50137384D01*
X131890499Y-50111026D01*
X131890499Y-49323255D01*
X131890498Y-49323238D01*
X131879999Y-49220460D01*
X131879998Y-49220457D01*
X131859174Y-49157615D01*
X131824814Y-49053923D01*
X131732712Y-48904601D01*
X131663846Y-48835735D01*
X131630361Y-48774412D01*
X131635345Y-48704720D01*
X131651206Y-48675173D01*
X131702287Y-48604867D01*
X131795220Y-48422476D01*
X131858477Y-48227791D01*
X131890500Y-48025609D01*
X131890500Y-47820905D01*
X131858477Y-47618723D01*
X131795220Y-47424038D01*
X131795218Y-47424035D01*
X131795218Y-47424033D01*
X131747582Y-47330543D01*
X131702287Y-47241647D01*
X131675597Y-47204911D01*
X131581971Y-47076043D01*
X131437213Y-46931285D01*
X131271613Y-46810972D01*
X131271612Y-46810971D01*
X131271610Y-46810970D01*
X131214653Y-46781948D01*
X131089223Y-46718038D01*
X130894534Y-46654779D01*
X130719995Y-46627135D01*
X130692352Y-46622757D01*
X130487648Y-46622757D01*
X130463329Y-46626608D01*
X130285465Y-46654779D01*
X130090776Y-46718038D01*
X129908386Y-46810972D01*
X129742786Y-46931285D01*
X129598028Y-47076043D01*
X129477715Y-47241643D01*
X129384781Y-47424033D01*
X129321522Y-47618722D01*
X129289500Y-47820905D01*
X125465499Y-47820905D01*
X125465499Y-47423249D01*
X125454999Y-47320460D01*
X125399814Y-47153923D01*
X125307712Y-47004601D01*
X125183656Y-46880545D01*
X125034334Y-46788443D01*
X124973301Y-46768218D01*
X124925495Y-46752377D01*
X124868050Y-46712604D01*
X124841228Y-46648088D01*
X124840500Y-46634671D01*
X124840500Y-44490584D01*
X124860185Y-44423545D01*
X124902498Y-44383198D01*
X125092450Y-44273530D01*
X125279699Y-44129849D01*
X125446592Y-43962956D01*
X125590273Y-43775707D01*
X125708284Y-43571306D01*
X125798606Y-43353250D01*
X125859693Y-43125271D01*
X125889582Y-42898243D01*
X132090001Y-42898243D01*
X132100494Y-43000954D01*
X132155641Y-43167376D01*
X132155643Y-43167381D01*
X132247684Y-43316602D01*
X132371654Y-43440572D01*
X132520875Y-43532613D01*
X132520880Y-43532615D01*
X132687302Y-43587762D01*
X132687309Y-43587763D01*
X132790019Y-43598256D01*
X132989999Y-43598256D01*
X133490000Y-43598256D01*
X133689972Y-43598256D01*
X133689986Y-43598255D01*
X133792697Y-43587762D01*
X133959119Y-43532615D01*
X133959124Y-43532613D01*
X134108345Y-43440572D01*
X134232315Y-43316602D01*
X134324356Y-43167381D01*
X134324358Y-43167376D01*
X134379505Y-43000954D01*
X134379506Y-43000947D01*
X134389999Y-42898243D01*
X134390000Y-42898230D01*
X134390000Y-42473257D01*
X133490000Y-42473257D01*
X133490000Y-43598256D01*
X132989999Y-43598256D01*
X132990000Y-43598255D01*
X132990000Y-42473257D01*
X132090001Y-42473257D01*
X132090001Y-42898243D01*
X125889582Y-42898243D01*
X125890500Y-42891268D01*
X125890500Y-42655246D01*
X125859693Y-42421243D01*
X125798606Y-42193264D01*
X125708284Y-41975208D01*
X125708282Y-41975205D01*
X125708280Y-41975200D01*
X125666118Y-41902175D01*
X125590273Y-41770807D01*
X125553174Y-41722459D01*
X125475021Y-41620607D01*
X125446593Y-41583559D01*
X125446587Y-41583552D01*
X125411305Y-41548270D01*
X132090000Y-41548270D01*
X132090000Y-41973257D01*
X132990000Y-41973257D01*
X133490000Y-41973257D01*
X134389999Y-41973257D01*
X134389999Y-41548281D01*
X134389998Y-41548273D01*
X134389995Y-41548240D01*
X135189500Y-41548240D01*
X135189500Y-42898258D01*
X135189501Y-42898275D01*
X135200000Y-43001053D01*
X135200001Y-43001056D01*
X135255185Y-43167588D01*
X135255187Y-43167593D01*
X135289829Y-43223757D01*
X135347288Y-43316913D01*
X135471344Y-43440969D01*
X135620666Y-43533071D01*
X135787203Y-43588256D01*
X135889991Y-43598757D01*
X136790008Y-43598756D01*
X136790016Y-43598755D01*
X136790019Y-43598755D01*
X136846302Y-43593005D01*
X136892797Y-43588256D01*
X137059334Y-43533071D01*
X137208656Y-43440969D01*
X137332712Y-43316913D01*
X137353839Y-43282659D01*
X137405787Y-43235936D01*
X137459378Y-43223757D01*
X138130052Y-43223757D01*
X138197091Y-43243442D01*
X138230371Y-43274873D01*
X138278030Y-43340472D01*
X138422786Y-43485228D01*
X138564595Y-43588256D01*
X138588390Y-43605544D01*
X138679840Y-43652140D01*
X138681080Y-43652772D01*
X138731876Y-43700747D01*
X138748671Y-43768568D01*
X138726134Y-43834703D01*
X138681080Y-43873742D01*
X138588386Y-43920972D01*
X138422786Y-44041285D01*
X138278028Y-44186043D01*
X138157715Y-44351643D01*
X138064781Y-44534033D01*
X138001522Y-44728722D01*
X137969500Y-44930905D01*
X137969500Y-45135608D01*
X138001522Y-45337791D01*
X138064781Y-45532480D01*
X138128691Y-45657910D01*
X138146361Y-45692588D01*
X138157715Y-45714870D01*
X138278028Y-45880470D01*
X138422786Y-46025228D01*
X138577749Y-46137813D01*
X138588390Y-46145544D01*
X138679840Y-46192140D01*
X138681080Y-46192772D01*
X138731876Y-46240747D01*
X138748671Y-46308568D01*
X138726134Y-46374703D01*
X138681080Y-46413742D01*
X138588386Y-46460972D01*
X138422786Y-46581285D01*
X138278028Y-46726043D01*
X138157715Y-46891643D01*
X138064781Y-47074033D01*
X138001522Y-47268722D01*
X137969500Y-47470905D01*
X137969500Y-47675608D01*
X138001522Y-47877791D01*
X138064781Y-48072480D01*
X138128691Y-48197910D01*
X138137705Y-48215600D01*
X138157715Y-48254870D01*
X138278028Y-48420470D01*
X138422786Y-48565228D01*
X138574107Y-48675167D01*
X138588390Y-48685544D01*
X138697179Y-48740975D01*
X138770776Y-48778475D01*
X138770778Y-48778475D01*
X138770781Y-48778477D01*
X138864810Y-48809029D01*
X138965465Y-48841734D01*
X139066557Y-48857745D01*
X139167648Y-48873757D01*
X139167649Y-48873757D01*
X139372351Y-48873757D01*
X139372352Y-48873757D01*
X139574534Y-48841734D01*
X139769219Y-48778477D01*
X139951610Y-48685544D01*
X140062656Y-48604865D01*
X140117213Y-48565228D01*
X140117215Y-48565225D01*
X140117219Y-48565223D01*
X140261966Y-48420476D01*
X140261968Y-48420472D01*
X140261971Y-48420470D01*
X140332585Y-48323276D01*
X140382287Y-48254867D01*
X140475220Y-48072476D01*
X140538477Y-47877791D01*
X140561925Y-47729740D01*
X140591854Y-47666607D01*
X140596699Y-47661476D01*
X142577778Y-45680398D01*
X142577782Y-45680396D01*
X142717139Y-45541039D01*
X142826632Y-45377171D01*
X142902051Y-45195092D01*
X142902633Y-45192169D01*
X142940500Y-45001797D01*
X142940500Y-44804717D01*
X142940500Y-39850905D01*
X145589500Y-39850905D01*
X145589500Y-40055608D01*
X145621522Y-40257791D01*
X145684781Y-40452480D01*
X145736135Y-40553266D01*
X145766551Y-40612961D01*
X145777715Y-40634870D01*
X145898028Y-40800470D01*
X146042786Y-40945228D01*
X146175347Y-41041537D01*
X146208390Y-41065544D01*
X146299840Y-41112140D01*
X146301080Y-41112772D01*
X146351876Y-41160747D01*
X146368671Y-41228568D01*
X146346134Y-41294703D01*
X146301080Y-41333742D01*
X146208386Y-41380972D01*
X146042786Y-41501285D01*
X145898028Y-41646043D01*
X145777715Y-41811643D01*
X145684781Y-41994033D01*
X145621522Y-42188722D01*
X145589500Y-42390905D01*
X145589500Y-42595608D01*
X145621522Y-42797791D01*
X145684781Y-42992480D01*
X145748691Y-43117910D01*
X145774004Y-43167588D01*
X145777715Y-43174870D01*
X145898028Y-43340470D01*
X146042786Y-43485228D01*
X146184595Y-43588256D01*
X146208390Y-43605544D01*
X146299840Y-43652140D01*
X146301080Y-43652772D01*
X146351876Y-43700747D01*
X146368671Y-43768568D01*
X146346134Y-43834703D01*
X146301080Y-43873742D01*
X146208386Y-43920972D01*
X146042786Y-44041285D01*
X145898028Y-44186043D01*
X145777715Y-44351643D01*
X145684781Y-44534033D01*
X145621522Y-44728722D01*
X145589500Y-44930905D01*
X145589500Y-45135608D01*
X145621522Y-45337791D01*
X145684781Y-45532480D01*
X145748691Y-45657910D01*
X145766361Y-45692588D01*
X145777715Y-45714870D01*
X145898028Y-45880470D01*
X146042786Y-46025228D01*
X146197749Y-46137813D01*
X146208390Y-46145544D01*
X146299840Y-46192140D01*
X146301080Y-46192772D01*
X146351876Y-46240747D01*
X146368671Y-46308568D01*
X146346134Y-46374703D01*
X146301080Y-46413742D01*
X146208386Y-46460972D01*
X146042786Y-46581285D01*
X145898028Y-46726043D01*
X145777715Y-46891643D01*
X145684781Y-47074033D01*
X145621522Y-47268722D01*
X145589500Y-47470905D01*
X145589500Y-47675608D01*
X145621522Y-47877791D01*
X145684781Y-48072480D01*
X145748691Y-48197910D01*
X145757705Y-48215600D01*
X145777715Y-48254870D01*
X145898028Y-48420470D01*
X146042786Y-48565228D01*
X146194107Y-48675167D01*
X146208390Y-48685544D01*
X146317179Y-48740975D01*
X146390776Y-48778475D01*
X146390778Y-48778475D01*
X146390781Y-48778477D01*
X146484810Y-48809029D01*
X146585465Y-48841734D01*
X146686557Y-48857745D01*
X146787648Y-48873757D01*
X146787649Y-48873757D01*
X146992351Y-48873757D01*
X146992352Y-48873757D01*
X147194534Y-48841734D01*
X147389219Y-48778477D01*
X147571610Y-48685544D01*
X147682656Y-48604865D01*
X147737213Y-48565228D01*
X147737215Y-48565225D01*
X147737219Y-48565223D01*
X147779199Y-48523243D01*
X150115001Y-48523243D01*
X150125494Y-48625954D01*
X150180641Y-48792376D01*
X150180643Y-48792381D01*
X150272684Y-48941602D01*
X150396654Y-49065572D01*
X150545875Y-49157613D01*
X150545880Y-49157615D01*
X150712302Y-49212762D01*
X150712309Y-49212763D01*
X150815019Y-49223256D01*
X151239999Y-49223256D01*
X151740000Y-49223256D01*
X152164972Y-49223256D01*
X152164986Y-49223255D01*
X152267697Y-49212762D01*
X152434119Y-49157615D01*
X152434124Y-49157613D01*
X152583345Y-49065572D01*
X152707315Y-48941602D01*
X152799356Y-48792381D01*
X152799358Y-48792376D01*
X152854505Y-48625954D01*
X152854506Y-48625947D01*
X152864999Y-48523243D01*
X152865000Y-48523230D01*
X152865000Y-48323257D01*
X151740000Y-48323257D01*
X151740000Y-49223256D01*
X151239999Y-49223256D01*
X151240000Y-49223255D01*
X151240000Y-48323257D01*
X150115001Y-48323257D01*
X150115001Y-48523243D01*
X147779199Y-48523243D01*
X147881966Y-48420476D01*
X147881968Y-48420472D01*
X147881971Y-48420470D01*
X148002286Y-48254868D01*
X148022294Y-48215601D01*
X148095220Y-48072476D01*
X148158477Y-47877791D01*
X148159198Y-47873241D01*
X157439500Y-47873241D01*
X157439500Y-49873272D01*
X157450000Y-49976052D01*
X157450001Y-49976054D01*
X157477593Y-50059322D01*
X157505186Y-50142592D01*
X157505187Y-50142594D01*
X157597286Y-50291908D01*
X157597289Y-50291912D01*
X157721344Y-50415967D01*
X157721348Y-50415970D01*
X157870662Y-50508069D01*
X157870664Y-50508070D01*
X157870666Y-50508071D01*
X158037203Y-50563256D01*
X158139992Y-50573757D01*
X158139997Y-50573757D01*
X160140003Y-50573757D01*
X160140008Y-50573757D01*
X160242797Y-50563256D01*
X160409334Y-50508071D01*
X160558655Y-50415968D01*
X160682711Y-50291912D01*
X160774814Y-50142591D01*
X160829999Y-49976054D01*
X160840500Y-49873265D01*
X160840500Y-47873249D01*
X160829999Y-47770460D01*
X160774814Y-47603923D01*
X160723398Y-47520566D01*
X160682713Y-47454605D01*
X160682710Y-47454601D01*
X160558655Y-47330546D01*
X160558651Y-47330543D01*
X160409337Y-47238444D01*
X160409335Y-47238443D01*
X160308141Y-47204911D01*
X160242797Y-47183258D01*
X160242795Y-47183257D01*
X160140015Y-47172757D01*
X160140008Y-47172757D01*
X158139992Y-47172757D01*
X158139984Y-47172757D01*
X158037204Y-47183257D01*
X158037203Y-47183258D01*
X157870664Y-47238443D01*
X157870662Y-47238444D01*
X157721348Y-47330543D01*
X157721344Y-47330546D01*
X157597289Y-47454601D01*
X157597286Y-47454605D01*
X157505187Y-47603919D01*
X157505186Y-47603921D01*
X157450001Y-47770460D01*
X157450000Y-47770461D01*
X157439500Y-47873241D01*
X148159198Y-47873241D01*
X148190500Y-47675609D01*
X148190500Y-47623270D01*
X150115000Y-47623270D01*
X150115000Y-47823257D01*
X151240000Y-47823257D01*
X151740000Y-47823257D01*
X152864999Y-47823257D01*
X152864999Y-47623285D01*
X152864998Y-47623270D01*
X152854505Y-47520559D01*
X152799358Y-47354137D01*
X152799356Y-47354132D01*
X152707315Y-47204911D01*
X152583345Y-47080941D01*
X152434124Y-46988900D01*
X152434119Y-46988898D01*
X152267697Y-46933751D01*
X152267690Y-46933750D01*
X152164986Y-46923257D01*
X151740000Y-46923257D01*
X151740000Y-47823257D01*
X151240000Y-47823257D01*
X151240000Y-46923257D01*
X150815028Y-46923257D01*
X150815012Y-46923258D01*
X150712302Y-46933751D01*
X150545880Y-46988898D01*
X150545875Y-46988900D01*
X150396654Y-47080941D01*
X150272684Y-47204911D01*
X150180643Y-47354132D01*
X150180641Y-47354137D01*
X150125494Y-47520559D01*
X150125493Y-47520566D01*
X150115000Y-47623270D01*
X148190500Y-47623270D01*
X148190500Y-47470905D01*
X148182952Y-47423248D01*
X148158477Y-47268722D01*
X148095871Y-47076043D01*
X148095220Y-47074038D01*
X148095218Y-47074035D01*
X148095218Y-47074033D01*
X148051839Y-46988898D01*
X148002287Y-46891647D01*
X147943674Y-46810972D01*
X147881971Y-46726043D01*
X147737213Y-46581285D01*
X147571614Y-46460972D01*
X147565006Y-46457605D01*
X147478917Y-46413740D01*
X147428123Y-46365768D01*
X147411328Y-46297947D01*
X147433865Y-46231812D01*
X147478917Y-46192773D01*
X147571610Y-46145544D01*
X147592770Y-46130170D01*
X147737213Y-46025228D01*
X147737215Y-46025225D01*
X147737219Y-46025223D01*
X147881966Y-45880476D01*
X147887697Y-45872588D01*
X147915100Y-45834872D01*
X147970429Y-45792206D01*
X148015418Y-45783757D01*
X150167210Y-45783757D01*
X150234249Y-45803442D01*
X150267044Y-45836849D01*
X150267807Y-45836246D01*
X150272288Y-45841913D01*
X150396344Y-45965969D01*
X150545666Y-46058071D01*
X150712203Y-46113256D01*
X150814991Y-46123757D01*
X152165008Y-46123756D01*
X152267797Y-46113256D01*
X152434334Y-46058071D01*
X152583656Y-45965969D01*
X152707712Y-45841913D01*
X152799814Y-45692591D01*
X152854999Y-45526054D01*
X152865500Y-45423266D01*
X152865499Y-44523249D01*
X152854999Y-44420460D01*
X152799814Y-44253923D01*
X152707712Y-44104601D01*
X152583656Y-43980545D01*
X152434334Y-43888443D01*
X152267797Y-43833258D01*
X152267795Y-43833257D01*
X152165010Y-43822757D01*
X150814998Y-43822757D01*
X150814981Y-43822758D01*
X150712203Y-43833257D01*
X150712200Y-43833258D01*
X150545668Y-43888442D01*
X150545663Y-43888444D01*
X150396342Y-43980546D01*
X150272289Y-44104599D01*
X150272288Y-44104601D01*
X150222055Y-44186043D01*
X150198733Y-44223854D01*
X150146785Y-44270578D01*
X150093194Y-44282757D01*
X148015418Y-44282757D01*
X147948379Y-44263072D01*
X147915100Y-44231642D01*
X147881971Y-44186044D01*
X147881967Y-44186039D01*
X147737213Y-44041285D01*
X147571614Y-43920972D01*
X147507770Y-43888442D01*
X147478917Y-43873740D01*
X147428123Y-43825768D01*
X147411328Y-43757947D01*
X147433865Y-43691812D01*
X147478917Y-43652773D01*
X147571610Y-43605544D01*
X147618735Y-43571306D01*
X147737213Y-43485228D01*
X147737215Y-43485225D01*
X147737219Y-43485223D01*
X147819202Y-43403240D01*
X171189500Y-43403240D01*
X171189500Y-45603258D01*
X171189501Y-45603275D01*
X171200000Y-45706053D01*
X171200001Y-45706056D01*
X171202921Y-45714867D01*
X171255186Y-45872591D01*
X171347288Y-46021913D01*
X171471344Y-46145969D01*
X171620666Y-46238071D01*
X171787203Y-46293256D01*
X171889991Y-46303757D01*
X174090008Y-46303756D01*
X174192797Y-46293256D01*
X174359334Y-46238071D01*
X174508656Y-46145969D01*
X174632712Y-46021913D01*
X174724814Y-45872591D01*
X174779999Y-45706054D01*
X174790500Y-45603266D01*
X174790499Y-43403249D01*
X174779999Y-43300460D01*
X174724814Y-43133923D01*
X174632712Y-42984601D01*
X174508656Y-42860545D01*
X174359334Y-42768443D01*
X174192797Y-42713258D01*
X174192795Y-42713257D01*
X174090010Y-42702757D01*
X171889998Y-42702757D01*
X171889981Y-42702758D01*
X171787203Y-42713257D01*
X171787200Y-42713258D01*
X171620668Y-42768442D01*
X171620663Y-42768444D01*
X171471342Y-42860546D01*
X171347289Y-42984599D01*
X171255187Y-43133920D01*
X171255185Y-43133925D01*
X171244029Y-43167593D01*
X171200001Y-43300460D01*
X171200001Y-43300461D01*
X171200000Y-43300461D01*
X171189500Y-43403240D01*
X147819202Y-43403240D01*
X147881966Y-43340476D01*
X147881970Y-43340470D01*
X147891607Y-43327207D01*
X147891607Y-43327206D01*
X148002287Y-43174867D01*
X148095220Y-42992476D01*
X148158477Y-42797791D01*
X148190500Y-42595609D01*
X148190500Y-42390905D01*
X148158477Y-42188723D01*
X148095220Y-41994038D01*
X148095218Y-41994035D01*
X148095218Y-41994033D01*
X148061503Y-41927864D01*
X148002287Y-41811647D01*
X147994556Y-41801006D01*
X147881971Y-41646043D01*
X147737213Y-41501285D01*
X147571614Y-41380972D01*
X147565006Y-41377605D01*
X147478917Y-41333740D01*
X147428123Y-41285768D01*
X147411328Y-41217947D01*
X147433865Y-41151812D01*
X147478917Y-41112773D01*
X147571610Y-41065544D01*
X147604653Y-41041537D01*
X147737213Y-40945228D01*
X147737215Y-40945225D01*
X147737219Y-40945223D01*
X147881966Y-40800476D01*
X147881968Y-40800472D01*
X147881971Y-40800470D01*
X147986892Y-40656056D01*
X148002287Y-40634867D01*
X148095220Y-40452476D01*
X148158477Y-40257791D01*
X148190500Y-40055609D01*
X148190500Y-39850905D01*
X148158477Y-39648723D01*
X148095220Y-39454038D01*
X148095218Y-39454035D01*
X148095218Y-39454033D01*
X148046406Y-39358236D01*
X148019409Y-39305252D01*
X171189500Y-39305252D01*
X171189500Y-39541261D01*
X171189501Y-39541277D01*
X171220306Y-39775267D01*
X171281394Y-40003250D01*
X171371714Y-40221302D01*
X171371719Y-40221313D01*
X171442677Y-40344214D01*
X171489727Y-40425707D01*
X171489729Y-40425710D01*
X171489730Y-40425711D01*
X171633406Y-40612954D01*
X171633412Y-40612961D01*
X171800295Y-40779844D01*
X171800302Y-40779850D01*
X171888802Y-40847758D01*
X171987550Y-40923530D01*
X172118918Y-40999375D01*
X172191943Y-41041537D01*
X172191948Y-41041539D01*
X172191951Y-41041541D01*
X172410007Y-41131863D01*
X172637986Y-41192950D01*
X172871989Y-41223757D01*
X172871996Y-41223757D01*
X173108004Y-41223757D01*
X173108011Y-41223757D01*
X173342014Y-41192950D01*
X173569993Y-41131863D01*
X173788049Y-41041541D01*
X173992450Y-40923530D01*
X174179699Y-40779849D01*
X174346592Y-40612956D01*
X174490273Y-40425707D01*
X174608284Y-40221306D01*
X174698606Y-40003250D01*
X174759693Y-39775271D01*
X174790500Y-39541268D01*
X174790500Y-39305246D01*
X174759693Y-39071243D01*
X174698606Y-38843264D01*
X174608284Y-38625208D01*
X174608282Y-38625205D01*
X174608280Y-38625200D01*
X174537380Y-38502399D01*
X174490273Y-38420807D01*
X174346592Y-38233558D01*
X174346587Y-38233552D01*
X174179704Y-38066669D01*
X174179697Y-38066663D01*
X173992454Y-37922987D01*
X173992453Y-37922986D01*
X173992450Y-37922984D01*
X173910957Y-37875934D01*
X173788056Y-37804976D01*
X173788045Y-37804971D01*
X173569993Y-37714651D01*
X173342010Y-37653563D01*
X173108020Y-37622758D01*
X173108017Y-37622757D01*
X173108011Y-37622757D01*
X172871989Y-37622757D01*
X172871983Y-37622757D01*
X172871979Y-37622758D01*
X172637989Y-37653563D01*
X172410006Y-37714651D01*
X172191954Y-37804971D01*
X172191943Y-37804976D01*
X171987545Y-37922987D01*
X171800302Y-38066663D01*
X171800295Y-38066669D01*
X171633412Y-38233552D01*
X171633406Y-38233559D01*
X171489730Y-38420802D01*
X171371719Y-38625200D01*
X171371714Y-38625211D01*
X171281394Y-38843263D01*
X171220306Y-39071246D01*
X171189501Y-39305236D01*
X171189500Y-39305252D01*
X148019409Y-39305252D01*
X148002287Y-39271647D01*
X147996476Y-39263649D01*
X147992341Y-39255815D01*
X147987086Y-39229907D01*
X147978202Y-39205004D01*
X147978000Y-39197929D01*
X147978000Y-36534718D01*
X147996460Y-36469623D01*
X148074814Y-36342591D01*
X148129999Y-36176054D01*
X148140500Y-36073266D01*
X148140500Y-36073243D01*
X148940001Y-36073243D01*
X148950494Y-36175954D01*
X149005641Y-36342376D01*
X149005643Y-36342381D01*
X149097684Y-36491602D01*
X149221654Y-36615572D01*
X149370875Y-36707613D01*
X149370880Y-36707615D01*
X149537302Y-36762762D01*
X149537309Y-36762763D01*
X149640019Y-36773256D01*
X149852499Y-36773256D01*
X150352500Y-36773256D01*
X150564972Y-36773256D01*
X150564986Y-36773255D01*
X150667697Y-36762762D01*
X150834119Y-36707615D01*
X150834124Y-36707613D01*
X150983345Y-36615572D01*
X151107315Y-36491602D01*
X151199356Y-36342381D01*
X151199358Y-36342376D01*
X151254505Y-36175954D01*
X151254506Y-36175947D01*
X151264999Y-36073243D01*
X151265000Y-36073230D01*
X151265000Y-35623257D01*
X150352500Y-35623257D01*
X150352500Y-36773256D01*
X149852499Y-36773256D01*
X149852500Y-36773255D01*
X149852500Y-35623257D01*
X148940001Y-35623257D01*
X148940001Y-36073243D01*
X148140500Y-36073243D01*
X148140499Y-35254505D01*
X148140499Y-34673270D01*
X148940000Y-34673270D01*
X148940000Y-35123257D01*
X149852500Y-35123257D01*
X150352500Y-35123257D01*
X151264999Y-35123257D01*
X151264999Y-34673285D01*
X151264998Y-34673270D01*
X151254505Y-34570559D01*
X151199358Y-34404137D01*
X151199356Y-34404132D01*
X151107315Y-34254911D01*
X150983345Y-34130941D01*
X150834124Y-34038900D01*
X150834119Y-34038898D01*
X150667697Y-33983751D01*
X150667690Y-33983750D01*
X150641739Y-33981099D01*
X150564986Y-33973257D01*
X150352500Y-33973257D01*
X150352500Y-35123257D01*
X149852500Y-35123257D01*
X149852500Y-33973257D01*
X149640029Y-33973257D01*
X149640012Y-33973258D01*
X149537302Y-33983751D01*
X149370880Y-34038898D01*
X149370875Y-34038900D01*
X149221654Y-34130941D01*
X149097684Y-34254911D01*
X149005643Y-34404132D01*
X149005641Y-34404137D01*
X148950494Y-34570559D01*
X148950493Y-34570566D01*
X148940000Y-34673270D01*
X148140499Y-34673270D01*
X148140499Y-34673255D01*
X148140498Y-34673238D01*
X148129999Y-34570460D01*
X148129998Y-34570457D01*
X148113431Y-34520461D01*
X148074814Y-34403923D01*
X148071807Y-34399048D01*
X147996461Y-34276891D01*
X147978000Y-34211795D01*
X147978000Y-33861806D01*
X159289500Y-33861806D01*
X159289500Y-34084707D01*
X159289501Y-34084723D01*
X159318594Y-34305709D01*
X159318595Y-34305714D01*
X159318596Y-34305720D01*
X159376162Y-34520559D01*
X159376290Y-34521037D01*
X159376293Y-34521047D01*
X159461593Y-34726979D01*
X159461595Y-34726983D01*
X159573052Y-34920031D01*
X159573057Y-34920037D01*
X159573058Y-34920039D01*
X159708751Y-35096879D01*
X159708757Y-35096886D01*
X159866370Y-35254499D01*
X159866376Y-35254504D01*
X160043226Y-35390205D01*
X160236274Y-35501662D01*
X160442219Y-35586967D01*
X160657537Y-35644661D01*
X160878543Y-35673757D01*
X160878550Y-35673757D01*
X161101450Y-35673757D01*
X161101457Y-35673757D01*
X161322463Y-35644661D01*
X161537781Y-35586967D01*
X161743726Y-35501662D01*
X161936774Y-35390205D01*
X162113624Y-35254504D01*
X162271247Y-35096881D01*
X162406948Y-34920031D01*
X162518405Y-34726983D01*
X162603710Y-34521038D01*
X162661404Y-34305720D01*
X162690500Y-34084714D01*
X162690500Y-33861800D01*
X162661404Y-33640794D01*
X162603710Y-33425476D01*
X162518405Y-33219531D01*
X162406948Y-33026483D01*
X162271247Y-32849633D01*
X162271242Y-32849627D01*
X162113629Y-32692014D01*
X162113622Y-32692008D01*
X161936782Y-32556315D01*
X161936780Y-32556314D01*
X161936774Y-32556309D01*
X161743726Y-32444852D01*
X161743722Y-32444850D01*
X161537790Y-32359550D01*
X161537783Y-32359548D01*
X161537781Y-32359547D01*
X161322463Y-32301853D01*
X161322457Y-32301852D01*
X161322452Y-32301851D01*
X161101466Y-32272758D01*
X161101463Y-32272757D01*
X161101457Y-32272757D01*
X160878543Y-32272757D01*
X160878537Y-32272757D01*
X160878533Y-32272758D01*
X160657547Y-32301851D01*
X160657540Y-32301852D01*
X160657537Y-32301853D01*
X160586434Y-32320905D01*
X160442219Y-32359547D01*
X160442209Y-32359550D01*
X160236277Y-32444850D01*
X160236273Y-32444852D01*
X160043226Y-32556309D01*
X160043217Y-32556315D01*
X159866377Y-32692008D01*
X159866370Y-32692014D01*
X159708757Y-32849627D01*
X159708751Y-32849634D01*
X159573058Y-33026474D01*
X159573052Y-33026483D01*
X159461595Y-33219530D01*
X159461593Y-33219534D01*
X159376293Y-33425466D01*
X159376290Y-33425476D01*
X159318597Y-33640791D01*
X159318594Y-33640804D01*
X159289501Y-33861790D01*
X159289500Y-33861806D01*
X147978000Y-33861806D01*
X147978000Y-32451538D01*
X147997685Y-32384499D01*
X148014314Y-32363862D01*
X149437778Y-30940398D01*
X149437782Y-30940396D01*
X149577139Y-30801039D01*
X149686632Y-30637171D01*
X149762051Y-30455092D01*
X149800500Y-30261798D01*
X149800500Y-28795899D01*
X149820185Y-28728860D01*
X149872989Y-28683105D01*
X149911897Y-28672541D01*
X150002797Y-28663256D01*
X150169334Y-28608071D01*
X150318656Y-28515969D01*
X150442712Y-28391913D01*
X150534814Y-28242591D01*
X150589999Y-28076054D01*
X150600500Y-27973266D01*
X150600499Y-25773249D01*
X150597270Y-25741643D01*
X150589999Y-25670460D01*
X150589998Y-25670457D01*
X150558712Y-25576043D01*
X150534814Y-25503923D01*
X150515889Y-25473241D01*
X159289500Y-25473241D01*
X159289500Y-27473272D01*
X159300000Y-27576052D01*
X159300001Y-27576053D01*
X159355186Y-27742592D01*
X159355187Y-27742594D01*
X159447286Y-27891908D01*
X159447289Y-27891912D01*
X159571344Y-28015967D01*
X159571348Y-28015970D01*
X159720662Y-28108069D01*
X159720664Y-28108070D01*
X159720666Y-28108071D01*
X159887203Y-28163256D01*
X159989992Y-28173757D01*
X159989997Y-28173757D01*
X161990003Y-28173757D01*
X161990008Y-28173757D01*
X162092797Y-28163256D01*
X162259334Y-28108071D01*
X162408655Y-28015968D01*
X162532711Y-27891912D01*
X162624814Y-27742591D01*
X162679999Y-27576054D01*
X162690500Y-27473265D01*
X162690500Y-25473249D01*
X162679999Y-25370460D01*
X162624814Y-25203923D01*
X162600884Y-25165127D01*
X162532713Y-25054605D01*
X162532710Y-25054601D01*
X162408655Y-24930546D01*
X162408651Y-24930543D01*
X162259337Y-24838444D01*
X162259335Y-24838443D01*
X162176065Y-24810850D01*
X162092797Y-24783258D01*
X162092795Y-24783257D01*
X161990015Y-24772757D01*
X161990008Y-24772757D01*
X159989992Y-24772757D01*
X159989984Y-24772757D01*
X159887204Y-24783257D01*
X159887203Y-24783258D01*
X159720664Y-24838443D01*
X159720662Y-24838444D01*
X159571348Y-24930543D01*
X159571344Y-24930546D01*
X159447289Y-25054601D01*
X159447286Y-25054605D01*
X159355187Y-25203919D01*
X159355186Y-25203921D01*
X159300001Y-25370460D01*
X159300000Y-25370461D01*
X159289500Y-25473241D01*
X150515889Y-25473241D01*
X150442712Y-25354601D01*
X150318656Y-25230545D01*
X150169334Y-25138443D01*
X150002797Y-25083258D01*
X150002795Y-25083257D01*
X149900010Y-25072757D01*
X147699998Y-25072757D01*
X147699981Y-25072758D01*
X147597203Y-25083257D01*
X147597200Y-25083258D01*
X147430668Y-25138442D01*
X147430663Y-25138444D01*
X147281342Y-25230546D01*
X147157289Y-25354599D01*
X147065187Y-25503920D01*
X147065185Y-25503925D01*
X147060962Y-25516669D01*
X147010001Y-25670460D01*
X147010001Y-25670461D01*
X147010000Y-25670461D01*
X146999500Y-25773240D01*
X146999500Y-27973258D01*
X146999501Y-27973275D01*
X147010000Y-28076053D01*
X147010001Y-28076056D01*
X147060962Y-28229844D01*
X147065186Y-28242591D01*
X147157288Y-28391913D01*
X147281344Y-28515969D01*
X147430666Y-28608071D01*
X147597203Y-28663256D01*
X147688103Y-28672542D01*
X147752794Y-28698938D01*
X147792945Y-28756118D01*
X147799500Y-28795900D01*
X147799500Y-29697474D01*
X147779815Y-29764513D01*
X147763181Y-29785155D01*
X146976441Y-30571895D01*
X146339721Y-31208615D01*
X146339718Y-31208618D01*
X146302090Y-31246246D01*
X146200359Y-31347976D01*
X146090871Y-31511836D01*
X146090864Y-31511849D01*
X146046516Y-31618917D01*
X146046514Y-31618922D01*
X146043896Y-31625244D01*
X146015449Y-31693921D01*
X145996224Y-31790569D01*
X145995182Y-31795806D01*
X145995180Y-31795814D01*
X145977000Y-31887212D01*
X145977000Y-34211795D01*
X145958539Y-34276891D01*
X145880189Y-34403916D01*
X145880185Y-34403925D01*
X145866640Y-34444803D01*
X145825001Y-34570460D01*
X145825001Y-34570461D01*
X145825000Y-34570461D01*
X145814500Y-34673240D01*
X145814500Y-36073258D01*
X145814501Y-36073275D01*
X145825000Y-36176053D01*
X145825001Y-36176056D01*
X145863618Y-36292593D01*
X145880186Y-36342591D01*
X145958539Y-36469623D01*
X145977000Y-36534718D01*
X145977000Y-38975710D01*
X145957315Y-39042749D01*
X145940681Y-39063391D01*
X145898032Y-39106039D01*
X145898028Y-39106043D01*
X145777715Y-39271643D01*
X145684781Y-39454033D01*
X145621522Y-39648722D01*
X145589500Y-39850905D01*
X142940500Y-39850905D01*
X142940500Y-39124716D01*
X142940500Y-39124713D01*
X142928143Y-39062593D01*
X142911540Y-38979125D01*
X142902051Y-38931421D01*
X142844825Y-38793265D01*
X142843554Y-38790196D01*
X142826635Y-38749349D01*
X142826628Y-38749336D01*
X142717140Y-38585476D01*
X142703755Y-38572091D01*
X142577782Y-38446118D01*
X142577781Y-38446117D01*
X141754421Y-37622757D01*
X139901818Y-35770154D01*
X139868333Y-35708831D01*
X139865499Y-35682473D01*
X139865499Y-34623255D01*
X139865498Y-34623238D01*
X139854999Y-34520460D01*
X139854998Y-34520457D01*
X139847697Y-34498424D01*
X139799814Y-34353923D01*
X139770084Y-34305722D01*
X139721461Y-34226891D01*
X139703000Y-34161795D01*
X139703000Y-28388218D01*
X139703020Y-28388146D01*
X139703000Y-28388075D01*
X139712907Y-28354476D01*
X139722685Y-28321179D01*
X139722748Y-28321106D01*
X139722762Y-28321059D01*
X139723228Y-28320552D01*
X139745905Y-28294412D01*
X139748641Y-28292045D01*
X139829699Y-28229849D01*
X139996592Y-28062956D01*
X140140273Y-27875707D01*
X140258284Y-27671306D01*
X140348606Y-27453250D01*
X140409693Y-27225271D01*
X140440500Y-26991268D01*
X140440500Y-26755271D01*
X141920000Y-26755271D01*
X141920000Y-26991242D01*
X141950799Y-27225171D01*
X142011870Y-27453094D01*
X142102160Y-27671076D01*
X142102165Y-27671085D01*
X142220144Y-27875428D01*
X142220145Y-27875429D01*
X142282721Y-27956980D01*
X143118958Y-27120744D01*
X143143978Y-27181147D01*
X143215112Y-27287608D01*
X143305649Y-27378145D01*
X143412110Y-27449279D01*
X143472511Y-27474298D01*
X142636275Y-28310534D01*
X142717827Y-28373111D01*
X142717828Y-28373112D01*
X142922171Y-28491091D01*
X142922180Y-28491096D01*
X143140163Y-28581386D01*
X143140161Y-28581386D01*
X143368085Y-28642457D01*
X143602014Y-28673256D01*
X143602029Y-28673257D01*
X143837971Y-28673257D01*
X143837985Y-28673256D01*
X144071914Y-28642457D01*
X144299837Y-28581386D01*
X144517819Y-28491096D01*
X144517828Y-28491091D01*
X144722181Y-28373107D01*
X144803723Y-28310536D01*
X144803723Y-28310533D01*
X143967487Y-27474298D01*
X144027890Y-27449279D01*
X144134351Y-27378145D01*
X144224888Y-27287608D01*
X144296022Y-27181147D01*
X144321041Y-27120744D01*
X145157276Y-27956980D01*
X145157279Y-27956980D01*
X145219850Y-27875438D01*
X145337834Y-27671085D01*
X145337839Y-27671076D01*
X145428129Y-27453094D01*
X145489200Y-27225171D01*
X145519999Y-26991242D01*
X145520000Y-26991228D01*
X145520000Y-26755285D01*
X145519999Y-26755271D01*
X145489200Y-26521342D01*
X145428129Y-26293419D01*
X145337839Y-26075437D01*
X145337834Y-26075428D01*
X145219855Y-25871085D01*
X145219854Y-25871084D01*
X145157277Y-25789532D01*
X144321041Y-26625768D01*
X144296022Y-26565367D01*
X144224888Y-26458906D01*
X144134351Y-26368369D01*
X144027890Y-26297235D01*
X143967488Y-26272215D01*
X144803723Y-25435978D01*
X144722172Y-25373402D01*
X144722171Y-25373401D01*
X144517828Y-25255422D01*
X144517819Y-25255417D01*
X144299836Y-25165127D01*
X144299838Y-25165127D01*
X144071914Y-25104056D01*
X143837985Y-25073257D01*
X143602014Y-25073257D01*
X143368085Y-25104056D01*
X143140162Y-25165127D01*
X142922180Y-25255417D01*
X142922171Y-25255422D01*
X142717828Y-25373401D01*
X142717818Y-25373407D01*
X142636275Y-25435977D01*
X142636275Y-25435978D01*
X143472512Y-26272215D01*
X143412110Y-26297235D01*
X143305649Y-26368369D01*
X143215112Y-26458906D01*
X143143978Y-26565367D01*
X143118958Y-26625768D01*
X142282721Y-25789532D01*
X142282720Y-25789532D01*
X142220150Y-25871075D01*
X142220144Y-25871085D01*
X142102165Y-26075428D01*
X142102160Y-26075437D01*
X142011870Y-26293419D01*
X141950799Y-26521342D01*
X141920000Y-26755271D01*
X140440500Y-26755271D01*
X140440500Y-26755246D01*
X140409693Y-26521243D01*
X140348606Y-26293264D01*
X140258284Y-26075208D01*
X140258282Y-26075205D01*
X140258280Y-26075200D01*
X140216118Y-26002175D01*
X140140273Y-25870807D01*
X139996592Y-25683558D01*
X139996587Y-25683552D01*
X139829704Y-25516669D01*
X139829697Y-25516663D01*
X139642454Y-25372987D01*
X139642453Y-25372986D01*
X139642450Y-25372984D01*
X139535039Y-25310970D01*
X139438056Y-25254976D01*
X139438045Y-25254971D01*
X139219993Y-25164651D01*
X138992010Y-25103563D01*
X138758020Y-25072758D01*
X138758017Y-25072757D01*
X138758011Y-25072757D01*
X138521989Y-25072757D01*
X138521983Y-25072757D01*
X138521979Y-25072758D01*
X138287989Y-25103563D01*
X138060006Y-25164651D01*
X137841954Y-25254971D01*
X137841943Y-25254976D01*
X137637545Y-25372987D01*
X137450302Y-25516663D01*
X137450295Y-25516669D01*
X137283412Y-25683552D01*
X137283406Y-25683559D01*
X137139730Y-25870802D01*
X137139727Y-25870806D01*
X137139727Y-25870807D01*
X137132014Y-25884166D01*
X137021719Y-26075200D01*
X137021714Y-26075211D01*
X136931394Y-26293263D01*
X136870306Y-26521246D01*
X136839501Y-26755236D01*
X136839500Y-26755252D01*
X136839500Y-26991261D01*
X136839501Y-26991277D01*
X136870306Y-27225267D01*
X136931394Y-27453250D01*
X137021714Y-27671302D01*
X137021719Y-27671313D01*
X137062872Y-27742591D01*
X137139727Y-27875707D01*
X137139729Y-27875710D01*
X137139730Y-27875711D01*
X137283406Y-28062954D01*
X137283412Y-28062961D01*
X137450295Y-28229844D01*
X137450302Y-28229850D01*
X137636998Y-28373107D01*
X137637550Y-28373530D01*
X137639989Y-28374938D01*
X137640573Y-28375550D01*
X137640927Y-28375787D01*
X137640874Y-28375866D01*
X137688209Y-28425499D01*
X137702000Y-28482331D01*
X137702000Y-34161795D01*
X137683539Y-34226891D01*
X137605189Y-34353916D01*
X137605185Y-34353925D01*
X137588617Y-34403925D01*
X137550001Y-34520460D01*
X137550001Y-34520461D01*
X137550000Y-34520461D01*
X137539500Y-34623240D01*
X137539500Y-36023258D01*
X137539501Y-36023275D01*
X137550000Y-36126053D01*
X137550001Y-36126056D01*
X137566569Y-36176053D01*
X137605186Y-36292591D01*
X137697288Y-36441913D01*
X137821344Y-36565969D01*
X137930221Y-36633124D01*
X137952796Y-36650974D01*
X138064718Y-36762896D01*
X138064720Y-36762897D01*
X138071790Y-36769967D01*
X139742899Y-38441076D01*
X139776384Y-38502399D01*
X139771400Y-38572091D01*
X139729528Y-38628024D01*
X139664064Y-38652441D01*
X139655218Y-38652757D01*
X138669998Y-38652757D01*
X138669981Y-38652758D01*
X138567203Y-38663257D01*
X138567200Y-38663258D01*
X138400668Y-38718442D01*
X138400663Y-38718444D01*
X138251342Y-38810546D01*
X138127289Y-38934599D01*
X138035187Y-39083920D01*
X138035185Y-39083925D01*
X138007349Y-39167927D01*
X137980001Y-39250460D01*
X137980001Y-39250461D01*
X137980000Y-39250461D01*
X137969500Y-39353240D01*
X137969500Y-40553258D01*
X137969501Y-40553275D01*
X137980000Y-40656053D01*
X137980001Y-40656056D01*
X138035185Y-40822588D01*
X138035187Y-40822593D01*
X138127289Y-40971914D01*
X138166451Y-41011076D01*
X138199936Y-41072399D01*
X138194952Y-41142091D01*
X138153080Y-41198024D01*
X138087616Y-41222441D01*
X138078770Y-41222757D01*
X137459378Y-41222757D01*
X137392339Y-41203072D01*
X137353839Y-41163854D01*
X137351923Y-41160747D01*
X137332712Y-41129601D01*
X137208656Y-41005545D01*
X137075688Y-40923530D01*
X137059336Y-40913444D01*
X137059331Y-40913442D01*
X137057862Y-40912955D01*
X136892797Y-40858258D01*
X136892795Y-40858257D01*
X136790010Y-40847757D01*
X135889998Y-40847757D01*
X135889980Y-40847758D01*
X135787203Y-40858257D01*
X135787200Y-40858258D01*
X135620668Y-40913442D01*
X135620663Y-40913444D01*
X135471342Y-41005546D01*
X135347289Y-41129599D01*
X135255187Y-41278920D01*
X135255185Y-41278925D01*
X135252166Y-41288037D01*
X135200001Y-41445460D01*
X135200001Y-41445461D01*
X135200000Y-41445461D01*
X135189500Y-41548240D01*
X134389995Y-41548240D01*
X134379505Y-41445559D01*
X134324358Y-41279137D01*
X134324356Y-41279132D01*
X134232315Y-41129911D01*
X134108345Y-41005941D01*
X133959124Y-40913900D01*
X133959119Y-40913898D01*
X133792697Y-40858751D01*
X133792690Y-40858750D01*
X133689986Y-40848257D01*
X133490000Y-40848257D01*
X133490000Y-41973257D01*
X132990000Y-41973257D01*
X132990000Y-40848257D01*
X132790029Y-40848257D01*
X132790012Y-40848258D01*
X132687302Y-40858751D01*
X132520880Y-40913898D01*
X132520875Y-40913900D01*
X132371654Y-41005941D01*
X132247684Y-41129911D01*
X132155643Y-41279132D01*
X132155641Y-41279137D01*
X132100494Y-41445559D01*
X132100493Y-41445566D01*
X132090000Y-41548270D01*
X125411305Y-41548270D01*
X125279704Y-41416669D01*
X125279697Y-41416663D01*
X125092454Y-41272987D01*
X125092453Y-41272986D01*
X125092450Y-41272984D01*
X125004907Y-41222441D01*
X124888056Y-41154976D01*
X124888045Y-41154971D01*
X124669993Y-41064651D01*
X124442010Y-41003563D01*
X124208020Y-40972758D01*
X124208017Y-40972757D01*
X124208011Y-40972757D01*
X123971989Y-40972757D01*
X123971983Y-40972757D01*
X123971979Y-40972758D01*
X123737989Y-41003563D01*
X123510006Y-41064651D01*
X123291954Y-41154971D01*
X123291943Y-41154976D01*
X123087545Y-41272987D01*
X122900302Y-41416663D01*
X122900295Y-41416669D01*
X122733412Y-41583552D01*
X122733406Y-41583559D01*
X122589730Y-41770802D01*
X122471719Y-41975200D01*
X122471714Y-41975211D01*
X122381394Y-42193263D01*
X122320306Y-42421246D01*
X122289501Y-42655236D01*
X122289500Y-42655252D01*
X118210500Y-42655252D01*
X118210500Y-36593240D01*
X122289500Y-36593240D01*
X122289500Y-38793258D01*
X122289501Y-38793264D01*
X122300000Y-38896053D01*
X122300001Y-38896056D01*
X122355185Y-39062588D01*
X122355187Y-39062593D01*
X122368345Y-39083925D01*
X122447288Y-39211913D01*
X122571344Y-39335969D01*
X122720666Y-39428071D01*
X122887203Y-39483256D01*
X122989991Y-39493757D01*
X125190008Y-39493756D01*
X125292797Y-39483256D01*
X125459334Y-39428071D01*
X125608656Y-39335969D01*
X125732712Y-39211913D01*
X125824814Y-39062591D01*
X125879999Y-38896054D01*
X125890500Y-38793266D01*
X125890499Y-36593249D01*
X125879999Y-36490460D01*
X125824814Y-36323923D01*
X125732712Y-36174601D01*
X125608656Y-36050545D01*
X125564392Y-36023243D01*
X134415001Y-36023243D01*
X134425494Y-36125954D01*
X134480641Y-36292376D01*
X134480643Y-36292381D01*
X134572684Y-36441602D01*
X134696654Y-36565572D01*
X134845875Y-36657613D01*
X134845880Y-36657615D01*
X135012302Y-36712762D01*
X135012309Y-36712763D01*
X135115019Y-36723256D01*
X135327499Y-36723256D01*
X135827500Y-36723256D01*
X136039972Y-36723256D01*
X136039986Y-36723255D01*
X136142697Y-36712762D01*
X136309119Y-36657615D01*
X136309124Y-36657613D01*
X136458345Y-36565572D01*
X136582315Y-36441602D01*
X136674356Y-36292381D01*
X136674358Y-36292376D01*
X136729505Y-36125954D01*
X136729506Y-36125947D01*
X136739999Y-36023243D01*
X136740000Y-36023230D01*
X136740000Y-35573257D01*
X135827500Y-35573257D01*
X135827500Y-36723256D01*
X135327499Y-36723256D01*
X135327500Y-36723255D01*
X135327500Y-35573257D01*
X134415001Y-35573257D01*
X134415001Y-36023243D01*
X125564392Y-36023243D01*
X125459334Y-35958443D01*
X125292797Y-35903258D01*
X125292795Y-35903257D01*
X125190016Y-35892757D01*
X125190009Y-35892757D01*
X124914500Y-35892757D01*
X124905814Y-35890206D01*
X124896853Y-35891495D01*
X124872812Y-35880516D01*
X124847461Y-35873072D01*
X124841533Y-35866231D01*
X124833297Y-35862470D01*
X124819007Y-35840235D01*
X124801706Y-35820268D01*
X124799418Y-35809753D01*
X124795523Y-35803692D01*
X124790500Y-35768757D01*
X124790500Y-34623270D01*
X134415000Y-34623270D01*
X134415000Y-35073257D01*
X135327500Y-35073257D01*
X135827500Y-35073257D01*
X136739999Y-35073257D01*
X136739999Y-34623285D01*
X136739998Y-34623270D01*
X136729505Y-34520559D01*
X136674358Y-34354137D01*
X136674356Y-34354132D01*
X136582315Y-34204911D01*
X136458345Y-34080941D01*
X136309124Y-33988900D01*
X136309119Y-33988898D01*
X136142697Y-33933751D01*
X136142690Y-33933750D01*
X136039986Y-33923257D01*
X135827500Y-33923257D01*
X135827500Y-35073257D01*
X135327500Y-35073257D01*
X135327500Y-33923257D01*
X135115029Y-33923257D01*
X135115012Y-33923258D01*
X135012302Y-33933751D01*
X134845880Y-33988898D01*
X134845875Y-33988900D01*
X134696654Y-34080941D01*
X134572684Y-34204911D01*
X134480643Y-34354132D01*
X134480641Y-34354137D01*
X134425494Y-34520559D01*
X134425493Y-34520566D01*
X134415000Y-34623270D01*
X124790500Y-34623270D01*
X124790500Y-34511842D01*
X124810185Y-34444803D01*
X124862989Y-34399048D01*
X124875489Y-34394138D01*
X124984334Y-34358071D01*
X125133656Y-34265969D01*
X125257712Y-34141913D01*
X125349814Y-33992591D01*
X125404999Y-33826054D01*
X125415500Y-33723266D01*
X125415499Y-32823249D01*
X125404999Y-32720460D01*
X125349814Y-32553923D01*
X125257712Y-32404601D01*
X125133656Y-32280545D01*
X124984334Y-32188443D01*
X124817797Y-32133258D01*
X124817795Y-32133257D01*
X124715010Y-32122757D01*
X123364998Y-32122757D01*
X123364981Y-32122758D01*
X123262203Y-32133257D01*
X123262200Y-32133258D01*
X123095668Y-32188442D01*
X123095663Y-32188444D01*
X122946342Y-32280546D01*
X122822289Y-32404599D01*
X122730187Y-32553920D01*
X122730186Y-32553923D01*
X122675001Y-32720460D01*
X122675001Y-32720461D01*
X122675000Y-32720461D01*
X122664500Y-32823240D01*
X122664500Y-33723258D01*
X122664501Y-33723276D01*
X122675000Y-33826053D01*
X122675001Y-33826056D01*
X122686846Y-33861800D01*
X122730186Y-33992591D01*
X122822288Y-34141913D01*
X122946344Y-34265969D01*
X123095666Y-34358071D01*
X123204505Y-34394136D01*
X123261949Y-34433909D01*
X123288772Y-34498424D01*
X123289500Y-34511842D01*
X123289500Y-35768757D01*
X123269815Y-35835796D01*
X123217011Y-35881551D01*
X123165501Y-35892757D01*
X122989999Y-35892757D01*
X122989980Y-35892758D01*
X122887203Y-35903257D01*
X122887200Y-35903258D01*
X122720668Y-35958442D01*
X122720663Y-35958444D01*
X122571342Y-36050546D01*
X122447289Y-36174599D01*
X122355187Y-36323920D01*
X122355185Y-36323925D01*
X122349001Y-36342588D01*
X122300001Y-36490460D01*
X122300001Y-36490461D01*
X122300000Y-36490461D01*
X122289500Y-36593240D01*
X118210500Y-36593240D01*
X118210500Y-30623243D01*
X122665001Y-30623243D01*
X122675494Y-30725954D01*
X122730641Y-30892376D01*
X122730643Y-30892381D01*
X122822684Y-31041602D01*
X122946654Y-31165572D01*
X123095875Y-31257613D01*
X123095880Y-31257615D01*
X123262302Y-31312762D01*
X123262309Y-31312763D01*
X123365019Y-31323256D01*
X123789999Y-31323256D01*
X124290000Y-31323256D01*
X124714972Y-31323256D01*
X124714986Y-31323255D01*
X124817697Y-31312762D01*
X124984119Y-31257615D01*
X124984124Y-31257613D01*
X125133345Y-31165572D01*
X125257315Y-31041602D01*
X125349356Y-30892381D01*
X125349358Y-30892376D01*
X125404505Y-30725954D01*
X125404506Y-30725947D01*
X125414999Y-30623243D01*
X125415000Y-30623230D01*
X125415000Y-30423257D01*
X124290000Y-30423257D01*
X124290000Y-31323256D01*
X123789999Y-31323256D01*
X123790000Y-31323255D01*
X123790000Y-30423257D01*
X122665001Y-30423257D01*
X122665001Y-30623243D01*
X118210500Y-30623243D01*
X118210500Y-29723270D01*
X122665000Y-29723270D01*
X122665000Y-29923257D01*
X123790000Y-29923257D01*
X124290000Y-29923257D01*
X125414999Y-29923257D01*
X125414999Y-29823240D01*
X127589500Y-29823240D01*
X127589500Y-31023258D01*
X127589501Y-31023275D01*
X127600000Y-31126053D01*
X127600001Y-31126056D01*
X127655185Y-31292588D01*
X127655187Y-31292593D01*
X127701237Y-31367252D01*
X127747288Y-31441913D01*
X127816152Y-31510777D01*
X127816153Y-31510778D01*
X127849637Y-31572102D01*
X127844652Y-31641793D01*
X127828790Y-31671342D01*
X127777717Y-31741640D01*
X127777712Y-31741648D01*
X127684781Y-31924033D01*
X127621522Y-32118722D01*
X127589500Y-32320905D01*
X127589500Y-32525608D01*
X127621522Y-32727791D01*
X127684781Y-32922480D01*
X127777715Y-33104870D01*
X127898028Y-33270470D01*
X128042786Y-33415228D01*
X128197749Y-33527813D01*
X128208390Y-33535544D01*
X128324607Y-33594760D01*
X128390776Y-33628475D01*
X128390778Y-33628475D01*
X128390781Y-33628477D01*
X128428720Y-33640804D01*
X128585465Y-33691734D01*
X128686557Y-33707745D01*
X128787648Y-33723757D01*
X128787649Y-33723757D01*
X128992351Y-33723757D01*
X128992352Y-33723757D01*
X129194534Y-33691734D01*
X129389219Y-33628477D01*
X129571610Y-33535544D01*
X129664590Y-33467989D01*
X129737213Y-33415228D01*
X129737215Y-33415225D01*
X129737219Y-33415223D01*
X129881966Y-33270476D01*
X129881968Y-33270472D01*
X129881971Y-33270470D01*
X129934732Y-33197847D01*
X130002287Y-33104867D01*
X130095220Y-32922476D01*
X130158477Y-32727791D01*
X130190500Y-32525609D01*
X130190500Y-32320905D01*
X130158477Y-32118723D01*
X130095220Y-31924038D01*
X130095218Y-31924035D01*
X130095218Y-31924033D01*
X130046193Y-31827818D01*
X130002287Y-31741647D01*
X129951207Y-31671342D01*
X129927729Y-31605539D01*
X129943554Y-31537485D01*
X129963839Y-31510785D01*
X130032712Y-31441913D01*
X130124814Y-31292591D01*
X130132543Y-31269266D01*
X130136028Y-31258751D01*
X130175801Y-31201307D01*
X130240317Y-31174485D01*
X130253733Y-31173757D01*
X130742983Y-31173757D01*
X130810022Y-31193442D01*
X130855777Y-31246246D01*
X130860686Y-31258746D01*
X130880185Y-31317588D01*
X130880186Y-31317590D01*
X130880187Y-31317593D01*
X130915069Y-31374145D01*
X130972288Y-31466913D01*
X131096344Y-31590969D01*
X131245666Y-31683071D01*
X131412203Y-31738256D01*
X131514991Y-31748757D01*
X132415008Y-31748756D01*
X132415016Y-31748755D01*
X132415019Y-31748755D01*
X132484611Y-31741646D01*
X132517797Y-31738256D01*
X132684334Y-31683071D01*
X132833656Y-31590969D01*
X132957712Y-31466913D01*
X133049814Y-31317591D01*
X133104999Y-31151054D01*
X133115500Y-31048266D01*
X133115500Y-31048243D01*
X133915001Y-31048243D01*
X133925494Y-31150954D01*
X133980641Y-31317376D01*
X133980643Y-31317381D01*
X134072684Y-31466602D01*
X134196654Y-31590572D01*
X134345875Y-31682613D01*
X134345880Y-31682615D01*
X134512302Y-31737762D01*
X134512309Y-31737763D01*
X134615019Y-31748256D01*
X134814999Y-31748256D01*
X135315000Y-31748256D01*
X135514972Y-31748256D01*
X135514986Y-31748255D01*
X135617697Y-31737762D01*
X135784119Y-31682615D01*
X135784124Y-31682613D01*
X135933345Y-31590572D01*
X136057315Y-31466602D01*
X136149356Y-31317381D01*
X136149358Y-31317376D01*
X136204505Y-31150954D01*
X136204506Y-31150947D01*
X136214999Y-31048243D01*
X136215000Y-31048230D01*
X136215000Y-30623257D01*
X135315000Y-30623257D01*
X135315000Y-31748256D01*
X134814999Y-31748256D01*
X134815000Y-31748255D01*
X134815000Y-30623257D01*
X133915001Y-30623257D01*
X133915001Y-31048243D01*
X133115500Y-31048243D01*
X133115499Y-30261800D01*
X133115499Y-29698270D01*
X133915000Y-29698270D01*
X133915000Y-30123257D01*
X134815000Y-30123257D01*
X135315000Y-30123257D01*
X136214999Y-30123257D01*
X136214999Y-29698285D01*
X136214998Y-29698270D01*
X136204505Y-29595559D01*
X136149358Y-29429137D01*
X136149356Y-29429132D01*
X136057315Y-29279911D01*
X135933345Y-29155941D01*
X135784124Y-29063900D01*
X135784119Y-29063898D01*
X135617697Y-29008751D01*
X135617690Y-29008750D01*
X135514986Y-28998257D01*
X135315000Y-28998257D01*
X135315000Y-30123257D01*
X134815000Y-30123257D01*
X134815000Y-28998257D01*
X134615029Y-28998257D01*
X134615012Y-28998258D01*
X134512302Y-29008751D01*
X134345880Y-29063898D01*
X134345875Y-29063900D01*
X134196654Y-29155941D01*
X134072684Y-29279911D01*
X133980643Y-29429132D01*
X133980641Y-29429137D01*
X133925494Y-29595559D01*
X133925493Y-29595566D01*
X133915000Y-29698270D01*
X133115499Y-29698270D01*
X133115499Y-29698255D01*
X133115498Y-29698238D01*
X133104999Y-29595460D01*
X133104998Y-29595457D01*
X133102448Y-29587761D01*
X133049814Y-29428923D01*
X132957712Y-29279601D01*
X132833656Y-29155545D01*
X132833653Y-29155542D01*
X132799401Y-29134415D01*
X132752678Y-29082467D01*
X132740500Y-29028878D01*
X132740500Y-27548673D01*
X132760185Y-27481634D01*
X132791613Y-27448356D01*
X132837219Y-27415223D01*
X132981966Y-27270476D01*
X132981968Y-27270472D01*
X132981971Y-27270470D01*
X133071489Y-27147257D01*
X133102287Y-27104867D01*
X133195220Y-26922476D01*
X133258477Y-26727791D01*
X133290500Y-26525609D01*
X133290500Y-26320905D01*
X133258477Y-26118723D01*
X133195220Y-25924038D01*
X133195218Y-25924035D01*
X133195218Y-25924033D01*
X133161503Y-25857864D01*
X133102287Y-25741647D01*
X133060084Y-25683559D01*
X132981971Y-25576043D01*
X132837213Y-25431285D01*
X132671613Y-25310972D01*
X132671612Y-25310971D01*
X132671610Y-25310970D01*
X132614653Y-25281948D01*
X132489223Y-25218038D01*
X132294534Y-25154779D01*
X132119995Y-25127135D01*
X132092352Y-25122757D01*
X131887648Y-25122757D01*
X131863329Y-25126608D01*
X131685465Y-25154779D01*
X131490776Y-25218038D01*
X131308386Y-25310972D01*
X131142786Y-25431285D01*
X130998028Y-25576043D01*
X130877715Y-25741643D01*
X130784781Y-25924033D01*
X130721522Y-26118722D01*
X130689500Y-26320905D01*
X130689500Y-26525608D01*
X130721522Y-26727791D01*
X130784781Y-26922480D01*
X130877715Y-27104870D01*
X130998028Y-27270470D01*
X130998034Y-27270476D01*
X131142781Y-27415223D01*
X131188384Y-27448355D01*
X131231050Y-27503682D01*
X131239500Y-27548673D01*
X131239500Y-28998038D01*
X131219815Y-29065077D01*
X131180597Y-29103576D01*
X131096347Y-29155542D01*
X131096343Y-29155545D01*
X130972289Y-29279599D01*
X130880187Y-29428920D01*
X130880185Y-29428925D01*
X130871831Y-29454137D01*
X130827551Y-29587763D01*
X130787781Y-29645206D01*
X130723265Y-29672029D01*
X130709847Y-29672757D01*
X130253733Y-29672757D01*
X130186694Y-29653072D01*
X130140939Y-29600268D01*
X130136028Y-29587763D01*
X130131495Y-29574086D01*
X130124814Y-29553923D01*
X130032712Y-29404601D01*
X129908656Y-29280545D01*
X129759334Y-29188443D01*
X129592797Y-29133258D01*
X129592795Y-29133257D01*
X129490010Y-29122757D01*
X128289998Y-29122757D01*
X128289981Y-29122758D01*
X128187203Y-29133257D01*
X128187200Y-29133258D01*
X128020668Y-29188442D01*
X128020663Y-29188444D01*
X127871342Y-29280546D01*
X127747289Y-29404599D01*
X127655187Y-29553920D01*
X127655185Y-29553925D01*
X127641423Y-29595457D01*
X127600001Y-29720460D01*
X127600001Y-29720461D01*
X127600000Y-29720461D01*
X127589500Y-29823240D01*
X125414999Y-29823240D01*
X125414999Y-29723285D01*
X125414998Y-29723270D01*
X125404505Y-29620559D01*
X125349358Y-29454137D01*
X125349356Y-29454132D01*
X125257315Y-29304911D01*
X125133345Y-29180941D01*
X124984124Y-29088900D01*
X124984119Y-29088898D01*
X124817697Y-29033751D01*
X124817690Y-29033750D01*
X124714986Y-29023257D01*
X124290000Y-29023257D01*
X124290000Y-29923257D01*
X123790000Y-29923257D01*
X123790000Y-29023257D01*
X123365028Y-29023257D01*
X123365012Y-29023258D01*
X123262302Y-29033751D01*
X123095880Y-29088898D01*
X123095875Y-29088900D01*
X122946654Y-29180941D01*
X122822684Y-29304911D01*
X122730643Y-29454132D01*
X122730641Y-29454137D01*
X122675494Y-29620559D01*
X122675493Y-29620566D01*
X122665000Y-29723270D01*
X118210500Y-29723270D01*
X118210500Y-27147257D01*
X118230185Y-27080218D01*
X118282989Y-27034463D01*
X118334500Y-27023257D01*
X124690000Y-27023257D01*
X124690000Y-26320905D01*
X125689500Y-26320905D01*
X125689500Y-26525608D01*
X125721522Y-26727791D01*
X125784781Y-26922480D01*
X125877715Y-27104870D01*
X125998028Y-27270470D01*
X126142786Y-27415228D01*
X126257097Y-27498278D01*
X126308390Y-27535544D01*
X126424607Y-27594760D01*
X126490776Y-27628475D01*
X126490778Y-27628475D01*
X126490781Y-27628477D01*
X126595137Y-27662384D01*
X126685465Y-27691734D01*
X126786557Y-27707745D01*
X126887648Y-27723757D01*
X126887649Y-27723757D01*
X127092351Y-27723757D01*
X127092352Y-27723757D01*
X127294534Y-27691734D01*
X127489219Y-27628477D01*
X127671610Y-27535544D01*
X127791619Y-27448353D01*
X127837213Y-27415228D01*
X127837215Y-27415225D01*
X127837219Y-27415223D01*
X127981966Y-27270476D01*
X127981968Y-27270472D01*
X127981971Y-27270470D01*
X128071489Y-27147257D01*
X128102287Y-27104867D01*
X128195220Y-26922476D01*
X128258477Y-26727791D01*
X128290500Y-26525609D01*
X128290500Y-26320905D01*
X128258477Y-26118723D01*
X128195220Y-25924038D01*
X128195218Y-25924035D01*
X128195218Y-25924033D01*
X128161503Y-25857864D01*
X128102287Y-25741647D01*
X128060084Y-25683559D01*
X127981971Y-25576043D01*
X127837213Y-25431285D01*
X127671613Y-25310972D01*
X127671612Y-25310971D01*
X127671610Y-25310970D01*
X127614653Y-25281948D01*
X127489223Y-25218038D01*
X127294534Y-25154779D01*
X127119995Y-25127135D01*
X127092352Y-25122757D01*
X126887648Y-25122757D01*
X126863329Y-25126608D01*
X126685465Y-25154779D01*
X126490776Y-25218038D01*
X126308386Y-25310972D01*
X126142786Y-25431285D01*
X125998028Y-25576043D01*
X125877715Y-25741643D01*
X125784781Y-25924033D01*
X125721522Y-26118722D01*
X125689500Y-26320905D01*
X124690000Y-26320905D01*
X124690000Y-20624500D01*
X124709685Y-20557461D01*
X124762489Y-20511706D01*
X124814000Y-20500500D01*
X172166000Y-20500500D01*
X172233039Y-20520185D01*
G37*
%TD.AperFunction*%
%TD*%
M02*
