%TF.GenerationSoftware,KiCad,Pcbnew,10.0.1*%
%TF.CreationDate,2026-06-05T02:16:14+09:00*%
%TF.ProjectId,AudioCase_4_amp,41756469-6f43-4617-9365-5f345f616d70,rev?*%
%TF.SameCoordinates,Original*%
%TF.FileFunction,Drillmap*%
%TF.FilePolarity,Positive*%
%FSLAX45Y45*%
G04 Gerber Fmt 4.5, Leading zero omitted, Abs format (unit mm)*
G04 Created by KiCad (PCBNEW 10.0.1) date 2026-06-05 02:16:14*
%MOMM*%
%LPD*%
G01*
G04 APERTURE LIST*
%ADD10C,0.100000*%
%ADD11C,0.200000*%
%ADD12C,0.120000*%
%ADD13C,0.130000*%
%ADD14C,0.320000*%
G04 APERTURE END LIST*
D10*
X11771000Y-2000000D02*
X17929000Y-2000000D01*
X11771000Y-6150000D02*
X11771000Y-2000000D01*
X17929000Y-2000000D02*
X17929000Y-6150000D01*
X17929000Y-6150000D02*
X11771000Y-6150000D01*
D11*
D10*
X12659000Y-2602326D02*
X12739000Y-2682326D01*
X12739000Y-2602326D02*
X12659000Y-2682326D01*
X12774000Y-5442326D02*
X12854000Y-5522326D01*
X12854000Y-5442326D02*
X12774000Y-5522326D01*
X12849000Y-3002326D02*
X12929000Y-3082326D01*
X12929000Y-3002326D02*
X12849000Y-3082326D01*
X12849000Y-3202326D02*
X12929000Y-3282326D01*
X12929000Y-3202326D02*
X12849000Y-3282326D01*
X13019000Y-4752326D02*
X13099000Y-4832326D01*
X13099000Y-4752326D02*
X13019000Y-4832326D01*
X13019000Y-4952326D02*
X13099000Y-5032326D01*
X13099000Y-4952326D02*
X13019000Y-5032326D01*
X13159000Y-2602326D02*
X13239000Y-2682326D01*
X13239000Y-2602326D02*
X13159000Y-2682326D01*
X13274000Y-5442326D02*
X13354000Y-5522326D01*
X13354000Y-5442326D02*
X13274000Y-5522326D01*
X13887000Y-3955326D02*
X13967000Y-4035326D01*
X13967000Y-3955326D02*
X13887000Y-4035326D01*
X13887000Y-4209326D02*
X13967000Y-4289326D01*
X13967000Y-4209326D02*
X13887000Y-4289326D01*
X13887000Y-4463326D02*
X13967000Y-4543326D01*
X13967000Y-4463326D02*
X13887000Y-4543326D01*
X13887000Y-4717326D02*
X13967000Y-4797326D01*
X13967000Y-4717326D02*
X13887000Y-4797326D01*
X14649000Y-3955326D02*
X14729000Y-4035326D01*
X14729000Y-3955326D02*
X14649000Y-4035326D01*
X14649000Y-4209326D02*
X14729000Y-4289326D01*
X14729000Y-4209326D02*
X14649000Y-4289326D01*
X14649000Y-4463326D02*
X14729000Y-4543326D01*
X14729000Y-4463326D02*
X14649000Y-4543326D01*
X14649000Y-4717326D02*
X14729000Y-4797326D01*
X14729000Y-4717326D02*
X14649000Y-4797326D01*
D12*
X15974000Y-4887326D02*
G75*
G02*
X15854000Y-4887326I-60000J0D01*
G01*
X15854000Y-4887326D02*
G75*
G02*
X15974000Y-4887326I60000J0D01*
G01*
X15974000Y-5637326D02*
G75*
G02*
X15854000Y-5637326I-60000J0D01*
G01*
X15854000Y-5637326D02*
G75*
G02*
X15974000Y-5637326I60000J0D01*
G01*
X16159000Y-2647326D02*
G75*
G02*
X16039000Y-2647326I-60000J0D01*
G01*
X16039000Y-2647326D02*
G75*
G02*
X16159000Y-2647326I60000J0D01*
G01*
X16159000Y-3397326D02*
G75*
G02*
X16039000Y-3397326I-60000J0D01*
G01*
X16039000Y-3397326D02*
G75*
G02*
X16159000Y-3397326I60000J0D01*
G01*
D13*
X12409000Y-3704326D02*
X12409000Y-3834326D01*
X12344000Y-3769326D02*
X12474000Y-3769326D01*
X12409000Y-4212326D02*
X12409000Y-4342326D01*
X12344000Y-4277326D02*
X12474000Y-4277326D01*
X13864000Y-2622326D02*
X13864000Y-2752326D01*
X13799000Y-2687326D02*
X13929000Y-2687326D01*
X14372000Y-2622326D02*
X14372000Y-2752326D01*
X14307000Y-2687326D02*
X14437000Y-2687326D01*
X14880000Y-2622326D02*
X14880000Y-2752326D01*
X14815000Y-2687326D02*
X14945000Y-2687326D01*
X17299000Y-3877326D02*
X17299000Y-4007326D01*
X17234000Y-3942326D02*
X17364000Y-3942326D01*
X17299000Y-4385326D02*
X17299000Y-4515326D01*
X17234000Y-4450326D02*
X17364000Y-4450326D01*
D14*
X12232138Y-2460464D02*
X12232138Y-2234188D01*
X12005862Y-2234188D01*
X12005862Y-2460464D01*
X12232138Y-2460464D01*
X12232138Y-5915464D02*
X12232138Y-5689187D01*
X12005862Y-5689187D01*
X12005862Y-5915464D01*
X12232138Y-5915464D01*
X17692138Y-5915464D02*
X17692138Y-5689187D01*
X17465862Y-5689187D01*
X17465862Y-5915464D01*
X17692138Y-5915464D01*
X17697138Y-2460464D02*
X17697138Y-2234188D01*
X17470862Y-2234188D01*
X17470862Y-2460464D01*
X17697138Y-2460464D01*
D11*
X12026777Y-6466484D02*
X12026777Y-6266484D01*
X12026777Y-6266484D02*
X12074396Y-6266484D01*
X12074396Y-6266484D02*
X12102967Y-6276008D01*
X12102967Y-6276008D02*
X12122015Y-6295055D01*
X12122015Y-6295055D02*
X12131539Y-6314103D01*
X12131539Y-6314103D02*
X12141062Y-6352198D01*
X12141062Y-6352198D02*
X12141062Y-6380769D01*
X12141062Y-6380769D02*
X12131539Y-6418865D01*
X12131539Y-6418865D02*
X12122015Y-6437912D01*
X12122015Y-6437912D02*
X12102967Y-6456960D01*
X12102967Y-6456960D02*
X12074396Y-6466484D01*
X12074396Y-6466484D02*
X12026777Y-6466484D01*
X12226777Y-6466484D02*
X12226777Y-6333150D01*
X12226777Y-6371246D02*
X12236301Y-6352198D01*
X12236301Y-6352198D02*
X12245824Y-6342674D01*
X12245824Y-6342674D02*
X12264872Y-6333150D01*
X12264872Y-6333150D02*
X12283920Y-6333150D01*
X12350586Y-6466484D02*
X12350586Y-6333150D01*
X12350586Y-6266484D02*
X12341062Y-6276008D01*
X12341062Y-6276008D02*
X12350586Y-6285531D01*
X12350586Y-6285531D02*
X12360110Y-6276008D01*
X12360110Y-6276008D02*
X12350586Y-6266484D01*
X12350586Y-6266484D02*
X12350586Y-6285531D01*
X12474396Y-6466484D02*
X12455348Y-6456960D01*
X12455348Y-6456960D02*
X12445824Y-6437912D01*
X12445824Y-6437912D02*
X12445824Y-6266484D01*
X12579158Y-6466484D02*
X12560110Y-6456960D01*
X12560110Y-6456960D02*
X12550586Y-6437912D01*
X12550586Y-6437912D02*
X12550586Y-6266484D01*
X12807729Y-6466484D02*
X12807729Y-6266484D01*
X12807729Y-6266484D02*
X12874396Y-6409341D01*
X12874396Y-6409341D02*
X12941062Y-6266484D01*
X12941062Y-6266484D02*
X12941062Y-6466484D01*
X13122015Y-6466484D02*
X13122015Y-6361722D01*
X13122015Y-6361722D02*
X13112491Y-6342674D01*
X13112491Y-6342674D02*
X13093443Y-6333150D01*
X13093443Y-6333150D02*
X13055348Y-6333150D01*
X13055348Y-6333150D02*
X13036301Y-6342674D01*
X13122015Y-6456960D02*
X13102967Y-6466484D01*
X13102967Y-6466484D02*
X13055348Y-6466484D01*
X13055348Y-6466484D02*
X13036301Y-6456960D01*
X13036301Y-6456960D02*
X13026777Y-6437912D01*
X13026777Y-6437912D02*
X13026777Y-6418865D01*
X13026777Y-6418865D02*
X13036301Y-6399817D01*
X13036301Y-6399817D02*
X13055348Y-6390293D01*
X13055348Y-6390293D02*
X13102967Y-6390293D01*
X13102967Y-6390293D02*
X13122015Y-6380769D01*
X13217253Y-6333150D02*
X13217253Y-6533150D01*
X13217253Y-6342674D02*
X13236301Y-6333150D01*
X13236301Y-6333150D02*
X13274396Y-6333150D01*
X13274396Y-6333150D02*
X13293443Y-6342674D01*
X13293443Y-6342674D02*
X13302967Y-6352198D01*
X13302967Y-6352198D02*
X13312491Y-6371246D01*
X13312491Y-6371246D02*
X13312491Y-6428388D01*
X13312491Y-6428388D02*
X13302967Y-6447436D01*
X13302967Y-6447436D02*
X13293443Y-6456960D01*
X13293443Y-6456960D02*
X13274396Y-6466484D01*
X13274396Y-6466484D02*
X13236301Y-6466484D01*
X13236301Y-6466484D02*
X13217253Y-6456960D01*
X13398205Y-6447436D02*
X13407729Y-6456960D01*
X13407729Y-6456960D02*
X13398205Y-6466484D01*
X13398205Y-6466484D02*
X13388682Y-6456960D01*
X13388682Y-6456960D02*
X13398205Y-6447436D01*
X13398205Y-6447436D02*
X13398205Y-6466484D01*
X13398205Y-6342674D02*
X13407729Y-6352198D01*
X13407729Y-6352198D02*
X13398205Y-6361722D01*
X13398205Y-6361722D02*
X13388682Y-6352198D01*
X13388682Y-6352198D02*
X13398205Y-6342674D01*
X13398205Y-6342674D02*
X13398205Y-6361722D01*
D10*
X11686000Y-6755000D02*
X11766000Y-6835000D01*
X11766000Y-6755000D02*
X11686000Y-6835000D01*
D11*
X12064872Y-6686484D02*
X12083920Y-6686484D01*
X12083920Y-6686484D02*
X12102967Y-6696008D01*
X12102967Y-6696008D02*
X12112491Y-6705531D01*
X12112491Y-6705531D02*
X12122015Y-6724579D01*
X12122015Y-6724579D02*
X12131539Y-6762674D01*
X12131539Y-6762674D02*
X12131539Y-6810293D01*
X12131539Y-6810293D02*
X12122015Y-6848388D01*
X12122015Y-6848388D02*
X12112491Y-6867436D01*
X12112491Y-6867436D02*
X12102967Y-6876960D01*
X12102967Y-6876960D02*
X12083920Y-6886484D01*
X12083920Y-6886484D02*
X12064872Y-6886484D01*
X12064872Y-6886484D02*
X12045824Y-6876960D01*
X12045824Y-6876960D02*
X12036301Y-6867436D01*
X12036301Y-6867436D02*
X12026777Y-6848388D01*
X12026777Y-6848388D02*
X12017253Y-6810293D01*
X12017253Y-6810293D02*
X12017253Y-6762674D01*
X12017253Y-6762674D02*
X12026777Y-6724579D01*
X12026777Y-6724579D02*
X12036301Y-6705531D01*
X12036301Y-6705531D02*
X12045824Y-6696008D01*
X12045824Y-6696008D02*
X12064872Y-6686484D01*
X12217253Y-6867436D02*
X12226777Y-6876960D01*
X12226777Y-6876960D02*
X12217253Y-6886484D01*
X12217253Y-6886484D02*
X12207729Y-6876960D01*
X12207729Y-6876960D02*
X12217253Y-6867436D01*
X12217253Y-6867436D02*
X12217253Y-6886484D01*
X12341062Y-6772198D02*
X12322015Y-6762674D01*
X12322015Y-6762674D02*
X12312491Y-6753150D01*
X12312491Y-6753150D02*
X12302967Y-6734103D01*
X12302967Y-6734103D02*
X12302967Y-6724579D01*
X12302967Y-6724579D02*
X12312491Y-6705531D01*
X12312491Y-6705531D02*
X12322015Y-6696008D01*
X12322015Y-6696008D02*
X12341062Y-6686484D01*
X12341062Y-6686484D02*
X12379158Y-6686484D01*
X12379158Y-6686484D02*
X12398205Y-6696008D01*
X12398205Y-6696008D02*
X12407729Y-6705531D01*
X12407729Y-6705531D02*
X12417253Y-6724579D01*
X12417253Y-6724579D02*
X12417253Y-6734103D01*
X12417253Y-6734103D02*
X12407729Y-6753150D01*
X12407729Y-6753150D02*
X12398205Y-6762674D01*
X12398205Y-6762674D02*
X12379158Y-6772198D01*
X12379158Y-6772198D02*
X12341062Y-6772198D01*
X12341062Y-6772198D02*
X12322015Y-6781722D01*
X12322015Y-6781722D02*
X12312491Y-6791246D01*
X12312491Y-6791246D02*
X12302967Y-6810293D01*
X12302967Y-6810293D02*
X12302967Y-6848388D01*
X12302967Y-6848388D02*
X12312491Y-6867436D01*
X12312491Y-6867436D02*
X12322015Y-6876960D01*
X12322015Y-6876960D02*
X12341062Y-6886484D01*
X12341062Y-6886484D02*
X12379158Y-6886484D01*
X12379158Y-6886484D02*
X12398205Y-6876960D01*
X12398205Y-6876960D02*
X12407729Y-6867436D01*
X12407729Y-6867436D02*
X12417253Y-6848388D01*
X12417253Y-6848388D02*
X12417253Y-6810293D01*
X12417253Y-6810293D02*
X12407729Y-6791246D01*
X12407729Y-6791246D02*
X12398205Y-6781722D01*
X12398205Y-6781722D02*
X12379158Y-6772198D01*
X12541062Y-6686484D02*
X12560110Y-6686484D01*
X12560110Y-6686484D02*
X12579158Y-6696008D01*
X12579158Y-6696008D02*
X12588682Y-6705531D01*
X12588682Y-6705531D02*
X12598205Y-6724579D01*
X12598205Y-6724579D02*
X12607729Y-6762674D01*
X12607729Y-6762674D02*
X12607729Y-6810293D01*
X12607729Y-6810293D02*
X12598205Y-6848388D01*
X12598205Y-6848388D02*
X12588682Y-6867436D01*
X12588682Y-6867436D02*
X12579158Y-6876960D01*
X12579158Y-6876960D02*
X12560110Y-6886484D01*
X12560110Y-6886484D02*
X12541062Y-6886484D01*
X12541062Y-6886484D02*
X12522015Y-6876960D01*
X12522015Y-6876960D02*
X12512491Y-6867436D01*
X12512491Y-6867436D02*
X12502967Y-6848388D01*
X12502967Y-6848388D02*
X12493443Y-6810293D01*
X12493443Y-6810293D02*
X12493443Y-6762674D01*
X12493443Y-6762674D02*
X12502967Y-6724579D01*
X12502967Y-6724579D02*
X12512491Y-6705531D01*
X12512491Y-6705531D02*
X12522015Y-6696008D01*
X12522015Y-6696008D02*
X12541062Y-6686484D01*
X12731539Y-6686484D02*
X12750586Y-6686484D01*
X12750586Y-6686484D02*
X12769634Y-6696008D01*
X12769634Y-6696008D02*
X12779158Y-6705531D01*
X12779158Y-6705531D02*
X12788682Y-6724579D01*
X12788682Y-6724579D02*
X12798205Y-6762674D01*
X12798205Y-6762674D02*
X12798205Y-6810293D01*
X12798205Y-6810293D02*
X12788682Y-6848388D01*
X12788682Y-6848388D02*
X12779158Y-6867436D01*
X12779158Y-6867436D02*
X12769634Y-6876960D01*
X12769634Y-6876960D02*
X12750586Y-6886484D01*
X12750586Y-6886484D02*
X12731539Y-6886484D01*
X12731539Y-6886484D02*
X12712491Y-6876960D01*
X12712491Y-6876960D02*
X12702967Y-6867436D01*
X12702967Y-6867436D02*
X12693443Y-6848388D01*
X12693443Y-6848388D02*
X12683920Y-6810293D01*
X12683920Y-6810293D02*
X12683920Y-6762674D01*
X12683920Y-6762674D02*
X12693443Y-6724579D01*
X12693443Y-6724579D02*
X12702967Y-6705531D01*
X12702967Y-6705531D02*
X12712491Y-6696008D01*
X12712491Y-6696008D02*
X12731539Y-6686484D01*
X12883920Y-6886484D02*
X12883920Y-6753150D01*
X12883920Y-6772198D02*
X12893443Y-6762674D01*
X12893443Y-6762674D02*
X12912491Y-6753150D01*
X12912491Y-6753150D02*
X12941063Y-6753150D01*
X12941063Y-6753150D02*
X12960110Y-6762674D01*
X12960110Y-6762674D02*
X12969634Y-6781722D01*
X12969634Y-6781722D02*
X12969634Y-6886484D01*
X12969634Y-6781722D02*
X12979158Y-6762674D01*
X12979158Y-6762674D02*
X12998205Y-6753150D01*
X12998205Y-6753150D02*
X13026777Y-6753150D01*
X13026777Y-6753150D02*
X13045824Y-6762674D01*
X13045824Y-6762674D02*
X13055348Y-6781722D01*
X13055348Y-6781722D02*
X13055348Y-6886484D01*
X13150586Y-6886484D02*
X13150586Y-6753150D01*
X13150586Y-6772198D02*
X13160110Y-6762674D01*
X13160110Y-6762674D02*
X13179158Y-6753150D01*
X13179158Y-6753150D02*
X13207729Y-6753150D01*
X13207729Y-6753150D02*
X13226777Y-6762674D01*
X13226777Y-6762674D02*
X13236301Y-6781722D01*
X13236301Y-6781722D02*
X13236301Y-6886484D01*
X13236301Y-6781722D02*
X13245824Y-6762674D01*
X13245824Y-6762674D02*
X13264872Y-6753150D01*
X13264872Y-6753150D02*
X13293443Y-6753150D01*
X13293443Y-6753150D02*
X13312491Y-6762674D01*
X13312491Y-6762674D02*
X13322015Y-6781722D01*
X13322015Y-6781722D02*
X13322015Y-6886484D01*
X13712491Y-6676960D02*
X13541063Y-6934103D01*
X13969634Y-6686484D02*
X13988682Y-6686484D01*
X13988682Y-6686484D02*
X14007729Y-6696008D01*
X14007729Y-6696008D02*
X14017253Y-6705531D01*
X14017253Y-6705531D02*
X14026777Y-6724579D01*
X14026777Y-6724579D02*
X14036301Y-6762674D01*
X14036301Y-6762674D02*
X14036301Y-6810293D01*
X14036301Y-6810293D02*
X14026777Y-6848388D01*
X14026777Y-6848388D02*
X14017253Y-6867436D01*
X14017253Y-6867436D02*
X14007729Y-6876960D01*
X14007729Y-6876960D02*
X13988682Y-6886484D01*
X13988682Y-6886484D02*
X13969634Y-6886484D01*
X13969634Y-6886484D02*
X13950586Y-6876960D01*
X13950586Y-6876960D02*
X13941063Y-6867436D01*
X13941063Y-6867436D02*
X13931539Y-6848388D01*
X13931539Y-6848388D02*
X13922015Y-6810293D01*
X13922015Y-6810293D02*
X13922015Y-6762674D01*
X13922015Y-6762674D02*
X13931539Y-6724579D01*
X13931539Y-6724579D02*
X13941063Y-6705531D01*
X13941063Y-6705531D02*
X13950586Y-6696008D01*
X13950586Y-6696008D02*
X13969634Y-6686484D01*
X14122015Y-6867436D02*
X14131539Y-6876960D01*
X14131539Y-6876960D02*
X14122015Y-6886484D01*
X14122015Y-6886484D02*
X14112491Y-6876960D01*
X14112491Y-6876960D02*
X14122015Y-6867436D01*
X14122015Y-6867436D02*
X14122015Y-6886484D01*
X14255348Y-6686484D02*
X14274396Y-6686484D01*
X14274396Y-6686484D02*
X14293444Y-6696008D01*
X14293444Y-6696008D02*
X14302967Y-6705531D01*
X14302967Y-6705531D02*
X14312491Y-6724579D01*
X14312491Y-6724579D02*
X14322015Y-6762674D01*
X14322015Y-6762674D02*
X14322015Y-6810293D01*
X14322015Y-6810293D02*
X14312491Y-6848388D01*
X14312491Y-6848388D02*
X14302967Y-6867436D01*
X14302967Y-6867436D02*
X14293444Y-6876960D01*
X14293444Y-6876960D02*
X14274396Y-6886484D01*
X14274396Y-6886484D02*
X14255348Y-6886484D01*
X14255348Y-6886484D02*
X14236301Y-6876960D01*
X14236301Y-6876960D02*
X14226777Y-6867436D01*
X14226777Y-6867436D02*
X14217253Y-6848388D01*
X14217253Y-6848388D02*
X14207729Y-6810293D01*
X14207729Y-6810293D02*
X14207729Y-6762674D01*
X14207729Y-6762674D02*
X14217253Y-6724579D01*
X14217253Y-6724579D02*
X14226777Y-6705531D01*
X14226777Y-6705531D02*
X14236301Y-6696008D01*
X14236301Y-6696008D02*
X14255348Y-6686484D01*
X14388682Y-6686484D02*
X14512491Y-6686484D01*
X14512491Y-6686484D02*
X14445825Y-6762674D01*
X14445825Y-6762674D02*
X14474396Y-6762674D01*
X14474396Y-6762674D02*
X14493444Y-6772198D01*
X14493444Y-6772198D02*
X14502967Y-6781722D01*
X14502967Y-6781722D02*
X14512491Y-6800769D01*
X14512491Y-6800769D02*
X14512491Y-6848388D01*
X14512491Y-6848388D02*
X14502967Y-6867436D01*
X14502967Y-6867436D02*
X14493444Y-6876960D01*
X14493444Y-6876960D02*
X14474396Y-6886484D01*
X14474396Y-6886484D02*
X14417253Y-6886484D01*
X14417253Y-6886484D02*
X14398206Y-6876960D01*
X14398206Y-6876960D02*
X14388682Y-6867436D01*
X14702967Y-6886484D02*
X14588682Y-6886484D01*
X14645825Y-6886484D02*
X14645825Y-6686484D01*
X14645825Y-6686484D02*
X14626777Y-6715055D01*
X14626777Y-6715055D02*
X14607729Y-6734103D01*
X14607729Y-6734103D02*
X14588682Y-6743627D01*
X14883920Y-6686484D02*
X14788682Y-6686484D01*
X14788682Y-6686484D02*
X14779158Y-6781722D01*
X14779158Y-6781722D02*
X14788682Y-6772198D01*
X14788682Y-6772198D02*
X14807729Y-6762674D01*
X14807729Y-6762674D02*
X14855348Y-6762674D01*
X14855348Y-6762674D02*
X14874396Y-6772198D01*
X14874396Y-6772198D02*
X14883920Y-6781722D01*
X14883920Y-6781722D02*
X14893444Y-6800769D01*
X14893444Y-6800769D02*
X14893444Y-6848388D01*
X14893444Y-6848388D02*
X14883920Y-6867436D01*
X14883920Y-6867436D02*
X14874396Y-6876960D01*
X14874396Y-6876960D02*
X14855348Y-6886484D01*
X14855348Y-6886484D02*
X14807729Y-6886484D01*
X14807729Y-6886484D02*
X14788682Y-6876960D01*
X14788682Y-6876960D02*
X14779158Y-6867436D01*
X14969634Y-6686484D02*
X14969634Y-6724579D01*
X15045825Y-6686484D02*
X15045825Y-6724579D01*
X15341063Y-6962674D02*
X15331539Y-6953150D01*
X15331539Y-6953150D02*
X15312491Y-6924579D01*
X15312491Y-6924579D02*
X15302968Y-6905531D01*
X15302968Y-6905531D02*
X15293444Y-6876960D01*
X15293444Y-6876960D02*
X15283920Y-6829341D01*
X15283920Y-6829341D02*
X15283920Y-6791246D01*
X15283920Y-6791246D02*
X15293444Y-6743627D01*
X15293444Y-6743627D02*
X15302968Y-6715055D01*
X15302968Y-6715055D02*
X15312491Y-6696008D01*
X15312491Y-6696008D02*
X15331539Y-6667436D01*
X15331539Y-6667436D02*
X15341063Y-6657912D01*
X15522015Y-6886484D02*
X15407729Y-6886484D01*
X15464872Y-6886484D02*
X15464872Y-6686484D01*
X15464872Y-6686484D02*
X15445825Y-6715055D01*
X15445825Y-6715055D02*
X15426777Y-6734103D01*
X15426777Y-6734103D02*
X15407729Y-6743627D01*
X15693444Y-6686484D02*
X15655348Y-6686484D01*
X15655348Y-6686484D02*
X15636301Y-6696008D01*
X15636301Y-6696008D02*
X15626777Y-6705531D01*
X15626777Y-6705531D02*
X15607729Y-6734103D01*
X15607729Y-6734103D02*
X15598206Y-6772198D01*
X15598206Y-6772198D02*
X15598206Y-6848388D01*
X15598206Y-6848388D02*
X15607729Y-6867436D01*
X15607729Y-6867436D02*
X15617253Y-6876960D01*
X15617253Y-6876960D02*
X15636301Y-6886484D01*
X15636301Y-6886484D02*
X15674396Y-6886484D01*
X15674396Y-6886484D02*
X15693444Y-6876960D01*
X15693444Y-6876960D02*
X15702968Y-6867436D01*
X15702968Y-6867436D02*
X15712491Y-6848388D01*
X15712491Y-6848388D02*
X15712491Y-6800769D01*
X15712491Y-6800769D02*
X15702968Y-6781722D01*
X15702968Y-6781722D02*
X15693444Y-6772198D01*
X15693444Y-6772198D02*
X15674396Y-6762674D01*
X15674396Y-6762674D02*
X15636301Y-6762674D01*
X15636301Y-6762674D02*
X15617253Y-6772198D01*
X15617253Y-6772198D02*
X15607729Y-6781722D01*
X15607729Y-6781722D02*
X15598206Y-6800769D01*
X15950587Y-6886484D02*
X15950587Y-6686484D01*
X16036301Y-6886484D02*
X16036301Y-6781722D01*
X16036301Y-6781722D02*
X16026777Y-6762674D01*
X16026777Y-6762674D02*
X16007730Y-6753150D01*
X16007730Y-6753150D02*
X15979158Y-6753150D01*
X15979158Y-6753150D02*
X15960110Y-6762674D01*
X15960110Y-6762674D02*
X15950587Y-6772198D01*
X16160110Y-6886484D02*
X16141063Y-6876960D01*
X16141063Y-6876960D02*
X16131539Y-6867436D01*
X16131539Y-6867436D02*
X16122015Y-6848388D01*
X16122015Y-6848388D02*
X16122015Y-6791246D01*
X16122015Y-6791246D02*
X16131539Y-6772198D01*
X16131539Y-6772198D02*
X16141063Y-6762674D01*
X16141063Y-6762674D02*
X16160110Y-6753150D01*
X16160110Y-6753150D02*
X16188682Y-6753150D01*
X16188682Y-6753150D02*
X16207730Y-6762674D01*
X16207730Y-6762674D02*
X16217253Y-6772198D01*
X16217253Y-6772198D02*
X16226777Y-6791246D01*
X16226777Y-6791246D02*
X16226777Y-6848388D01*
X16226777Y-6848388D02*
X16217253Y-6867436D01*
X16217253Y-6867436D02*
X16207730Y-6876960D01*
X16207730Y-6876960D02*
X16188682Y-6886484D01*
X16188682Y-6886484D02*
X16160110Y-6886484D01*
X16341063Y-6886484D02*
X16322015Y-6876960D01*
X16322015Y-6876960D02*
X16312491Y-6857912D01*
X16312491Y-6857912D02*
X16312491Y-6686484D01*
X16493444Y-6876960D02*
X16474396Y-6886484D01*
X16474396Y-6886484D02*
X16436301Y-6886484D01*
X16436301Y-6886484D02*
X16417253Y-6876960D01*
X16417253Y-6876960D02*
X16407730Y-6857912D01*
X16407730Y-6857912D02*
X16407730Y-6781722D01*
X16407730Y-6781722D02*
X16417253Y-6762674D01*
X16417253Y-6762674D02*
X16436301Y-6753150D01*
X16436301Y-6753150D02*
X16474396Y-6753150D01*
X16474396Y-6753150D02*
X16493444Y-6762674D01*
X16493444Y-6762674D02*
X16502968Y-6781722D01*
X16502968Y-6781722D02*
X16502968Y-6800769D01*
X16502968Y-6800769D02*
X16407730Y-6819817D01*
X16579158Y-6876960D02*
X16598206Y-6886484D01*
X16598206Y-6886484D02*
X16636301Y-6886484D01*
X16636301Y-6886484D02*
X16655349Y-6876960D01*
X16655349Y-6876960D02*
X16664872Y-6857912D01*
X16664872Y-6857912D02*
X16664872Y-6848388D01*
X16664872Y-6848388D02*
X16655349Y-6829341D01*
X16655349Y-6829341D02*
X16636301Y-6819817D01*
X16636301Y-6819817D02*
X16607730Y-6819817D01*
X16607730Y-6819817D02*
X16588682Y-6810293D01*
X16588682Y-6810293D02*
X16579158Y-6791246D01*
X16579158Y-6791246D02*
X16579158Y-6781722D01*
X16579158Y-6781722D02*
X16588682Y-6762674D01*
X16588682Y-6762674D02*
X16607730Y-6753150D01*
X16607730Y-6753150D02*
X16636301Y-6753150D01*
X16636301Y-6753150D02*
X16655349Y-6762674D01*
X16731539Y-6962674D02*
X16741063Y-6953150D01*
X16741063Y-6953150D02*
X16760111Y-6924579D01*
X16760111Y-6924579D02*
X16769634Y-6905531D01*
X16769634Y-6905531D02*
X16779158Y-6876960D01*
X16779158Y-6876960D02*
X16788682Y-6829341D01*
X16788682Y-6829341D02*
X16788682Y-6791246D01*
X16788682Y-6791246D02*
X16779158Y-6743627D01*
X16779158Y-6743627D02*
X16769634Y-6715055D01*
X16769634Y-6715055D02*
X16760111Y-6696008D01*
X16760111Y-6696008D02*
X16741063Y-6667436D01*
X16741063Y-6667436D02*
X16731539Y-6657912D01*
D12*
X11766000Y-7059000D02*
G75*
G02*
X11646000Y-7059000I-60000J0D01*
G01*
X11646000Y-7059000D02*
G75*
G02*
X11766000Y-7059000I60000J0D01*
G01*
D11*
X12131539Y-7150484D02*
X12017253Y-7150484D01*
X12074396Y-7150484D02*
X12074396Y-6950484D01*
X12074396Y-6950484D02*
X12055348Y-6979055D01*
X12055348Y-6979055D02*
X12036301Y-6998103D01*
X12036301Y-6998103D02*
X12017253Y-7007627D01*
X12217253Y-7131436D02*
X12226777Y-7140960D01*
X12226777Y-7140960D02*
X12217253Y-7150484D01*
X12217253Y-7150484D02*
X12207729Y-7140960D01*
X12207729Y-7140960D02*
X12217253Y-7131436D01*
X12217253Y-7131436D02*
X12217253Y-7150484D01*
X12302967Y-6969531D02*
X12312491Y-6960008D01*
X12312491Y-6960008D02*
X12331539Y-6950484D01*
X12331539Y-6950484D02*
X12379158Y-6950484D01*
X12379158Y-6950484D02*
X12398205Y-6960008D01*
X12398205Y-6960008D02*
X12407729Y-6969531D01*
X12407729Y-6969531D02*
X12417253Y-6988579D01*
X12417253Y-6988579D02*
X12417253Y-7007627D01*
X12417253Y-7007627D02*
X12407729Y-7036198D01*
X12407729Y-7036198D02*
X12293443Y-7150484D01*
X12293443Y-7150484D02*
X12417253Y-7150484D01*
X12541062Y-6950484D02*
X12560110Y-6950484D01*
X12560110Y-6950484D02*
X12579158Y-6960008D01*
X12579158Y-6960008D02*
X12588682Y-6969531D01*
X12588682Y-6969531D02*
X12598205Y-6988579D01*
X12598205Y-6988579D02*
X12607729Y-7026674D01*
X12607729Y-7026674D02*
X12607729Y-7074293D01*
X12607729Y-7074293D02*
X12598205Y-7112388D01*
X12598205Y-7112388D02*
X12588682Y-7131436D01*
X12588682Y-7131436D02*
X12579158Y-7140960D01*
X12579158Y-7140960D02*
X12560110Y-7150484D01*
X12560110Y-7150484D02*
X12541062Y-7150484D01*
X12541062Y-7150484D02*
X12522015Y-7140960D01*
X12522015Y-7140960D02*
X12512491Y-7131436D01*
X12512491Y-7131436D02*
X12502967Y-7112388D01*
X12502967Y-7112388D02*
X12493443Y-7074293D01*
X12493443Y-7074293D02*
X12493443Y-7026674D01*
X12493443Y-7026674D02*
X12502967Y-6988579D01*
X12502967Y-6988579D02*
X12512491Y-6969531D01*
X12512491Y-6969531D02*
X12522015Y-6960008D01*
X12522015Y-6960008D02*
X12541062Y-6950484D01*
X12731539Y-6950484D02*
X12750586Y-6950484D01*
X12750586Y-6950484D02*
X12769634Y-6960008D01*
X12769634Y-6960008D02*
X12779158Y-6969531D01*
X12779158Y-6969531D02*
X12788682Y-6988579D01*
X12788682Y-6988579D02*
X12798205Y-7026674D01*
X12798205Y-7026674D02*
X12798205Y-7074293D01*
X12798205Y-7074293D02*
X12788682Y-7112388D01*
X12788682Y-7112388D02*
X12779158Y-7131436D01*
X12779158Y-7131436D02*
X12769634Y-7140960D01*
X12769634Y-7140960D02*
X12750586Y-7150484D01*
X12750586Y-7150484D02*
X12731539Y-7150484D01*
X12731539Y-7150484D02*
X12712491Y-7140960D01*
X12712491Y-7140960D02*
X12702967Y-7131436D01*
X12702967Y-7131436D02*
X12693443Y-7112388D01*
X12693443Y-7112388D02*
X12683920Y-7074293D01*
X12683920Y-7074293D02*
X12683920Y-7026674D01*
X12683920Y-7026674D02*
X12693443Y-6988579D01*
X12693443Y-6988579D02*
X12702967Y-6969531D01*
X12702967Y-6969531D02*
X12712491Y-6960008D01*
X12712491Y-6960008D02*
X12731539Y-6950484D01*
X12883920Y-7150484D02*
X12883920Y-7017150D01*
X12883920Y-7036198D02*
X12893443Y-7026674D01*
X12893443Y-7026674D02*
X12912491Y-7017150D01*
X12912491Y-7017150D02*
X12941063Y-7017150D01*
X12941063Y-7017150D02*
X12960110Y-7026674D01*
X12960110Y-7026674D02*
X12969634Y-7045722D01*
X12969634Y-7045722D02*
X12969634Y-7150484D01*
X12969634Y-7045722D02*
X12979158Y-7026674D01*
X12979158Y-7026674D02*
X12998205Y-7017150D01*
X12998205Y-7017150D02*
X13026777Y-7017150D01*
X13026777Y-7017150D02*
X13045824Y-7026674D01*
X13045824Y-7026674D02*
X13055348Y-7045722D01*
X13055348Y-7045722D02*
X13055348Y-7150484D01*
X13150586Y-7150484D02*
X13150586Y-7017150D01*
X13150586Y-7036198D02*
X13160110Y-7026674D01*
X13160110Y-7026674D02*
X13179158Y-7017150D01*
X13179158Y-7017150D02*
X13207729Y-7017150D01*
X13207729Y-7017150D02*
X13226777Y-7026674D01*
X13226777Y-7026674D02*
X13236301Y-7045722D01*
X13236301Y-7045722D02*
X13236301Y-7150484D01*
X13236301Y-7045722D02*
X13245824Y-7026674D01*
X13245824Y-7026674D02*
X13264872Y-7017150D01*
X13264872Y-7017150D02*
X13293443Y-7017150D01*
X13293443Y-7017150D02*
X13312491Y-7026674D01*
X13312491Y-7026674D02*
X13322015Y-7045722D01*
X13322015Y-7045722D02*
X13322015Y-7150484D01*
X13712491Y-6940960D02*
X13541063Y-7198103D01*
X13969634Y-6950484D02*
X13988682Y-6950484D01*
X13988682Y-6950484D02*
X14007729Y-6960008D01*
X14007729Y-6960008D02*
X14017253Y-6969531D01*
X14017253Y-6969531D02*
X14026777Y-6988579D01*
X14026777Y-6988579D02*
X14036301Y-7026674D01*
X14036301Y-7026674D02*
X14036301Y-7074293D01*
X14036301Y-7074293D02*
X14026777Y-7112388D01*
X14026777Y-7112388D02*
X14017253Y-7131436D01*
X14017253Y-7131436D02*
X14007729Y-7140960D01*
X14007729Y-7140960D02*
X13988682Y-7150484D01*
X13988682Y-7150484D02*
X13969634Y-7150484D01*
X13969634Y-7150484D02*
X13950586Y-7140960D01*
X13950586Y-7140960D02*
X13941063Y-7131436D01*
X13941063Y-7131436D02*
X13931539Y-7112388D01*
X13931539Y-7112388D02*
X13922015Y-7074293D01*
X13922015Y-7074293D02*
X13922015Y-7026674D01*
X13922015Y-7026674D02*
X13931539Y-6988579D01*
X13931539Y-6988579D02*
X13941063Y-6969531D01*
X13941063Y-6969531D02*
X13950586Y-6960008D01*
X13950586Y-6960008D02*
X13969634Y-6950484D01*
X14122015Y-7131436D02*
X14131539Y-7140960D01*
X14131539Y-7140960D02*
X14122015Y-7150484D01*
X14122015Y-7150484D02*
X14112491Y-7140960D01*
X14112491Y-7140960D02*
X14122015Y-7131436D01*
X14122015Y-7131436D02*
X14122015Y-7150484D01*
X14255348Y-6950484D02*
X14274396Y-6950484D01*
X14274396Y-6950484D02*
X14293444Y-6960008D01*
X14293444Y-6960008D02*
X14302967Y-6969531D01*
X14302967Y-6969531D02*
X14312491Y-6988579D01*
X14312491Y-6988579D02*
X14322015Y-7026674D01*
X14322015Y-7026674D02*
X14322015Y-7074293D01*
X14322015Y-7074293D02*
X14312491Y-7112388D01*
X14312491Y-7112388D02*
X14302967Y-7131436D01*
X14302967Y-7131436D02*
X14293444Y-7140960D01*
X14293444Y-7140960D02*
X14274396Y-7150484D01*
X14274396Y-7150484D02*
X14255348Y-7150484D01*
X14255348Y-7150484D02*
X14236301Y-7140960D01*
X14236301Y-7140960D02*
X14226777Y-7131436D01*
X14226777Y-7131436D02*
X14217253Y-7112388D01*
X14217253Y-7112388D02*
X14207729Y-7074293D01*
X14207729Y-7074293D02*
X14207729Y-7026674D01*
X14207729Y-7026674D02*
X14217253Y-6988579D01*
X14217253Y-6988579D02*
X14226777Y-6969531D01*
X14226777Y-6969531D02*
X14236301Y-6960008D01*
X14236301Y-6960008D02*
X14255348Y-6950484D01*
X14493444Y-7017150D02*
X14493444Y-7150484D01*
X14445825Y-6940960D02*
X14398206Y-7083817D01*
X14398206Y-7083817D02*
X14522015Y-7083817D01*
X14579158Y-6950484D02*
X14712491Y-6950484D01*
X14712491Y-6950484D02*
X14626777Y-7150484D01*
X14779158Y-6969531D02*
X14788682Y-6960008D01*
X14788682Y-6960008D02*
X14807729Y-6950484D01*
X14807729Y-6950484D02*
X14855348Y-6950484D01*
X14855348Y-6950484D02*
X14874396Y-6960008D01*
X14874396Y-6960008D02*
X14883920Y-6969531D01*
X14883920Y-6969531D02*
X14893444Y-6988579D01*
X14893444Y-6988579D02*
X14893444Y-7007627D01*
X14893444Y-7007627D02*
X14883920Y-7036198D01*
X14883920Y-7036198D02*
X14769634Y-7150484D01*
X14769634Y-7150484D02*
X14893444Y-7150484D01*
X14969634Y-6950484D02*
X14969634Y-6988579D01*
X15045825Y-6950484D02*
X15045825Y-6988579D01*
X15341063Y-7226674D02*
X15331539Y-7217150D01*
X15331539Y-7217150D02*
X15312491Y-7188579D01*
X15312491Y-7188579D02*
X15302968Y-7169531D01*
X15302968Y-7169531D02*
X15293444Y-7140960D01*
X15293444Y-7140960D02*
X15283920Y-7093341D01*
X15283920Y-7093341D02*
X15283920Y-7055246D01*
X15283920Y-7055246D02*
X15293444Y-7007627D01*
X15293444Y-7007627D02*
X15302968Y-6979055D01*
X15302968Y-6979055D02*
X15312491Y-6960008D01*
X15312491Y-6960008D02*
X15331539Y-6931436D01*
X15331539Y-6931436D02*
X15341063Y-6921912D01*
X15502968Y-7017150D02*
X15502968Y-7150484D01*
X15455348Y-6940960D02*
X15407729Y-7083817D01*
X15407729Y-7083817D02*
X15531539Y-7083817D01*
X15760110Y-7150484D02*
X15760110Y-6950484D01*
X15845825Y-7150484D02*
X15845825Y-7045722D01*
X15845825Y-7045722D02*
X15836301Y-7026674D01*
X15836301Y-7026674D02*
X15817253Y-7017150D01*
X15817253Y-7017150D02*
X15788682Y-7017150D01*
X15788682Y-7017150D02*
X15769634Y-7026674D01*
X15769634Y-7026674D02*
X15760110Y-7036198D01*
X15969634Y-7150484D02*
X15950587Y-7140960D01*
X15950587Y-7140960D02*
X15941063Y-7131436D01*
X15941063Y-7131436D02*
X15931539Y-7112388D01*
X15931539Y-7112388D02*
X15931539Y-7055246D01*
X15931539Y-7055246D02*
X15941063Y-7036198D01*
X15941063Y-7036198D02*
X15950587Y-7026674D01*
X15950587Y-7026674D02*
X15969634Y-7017150D01*
X15969634Y-7017150D02*
X15998206Y-7017150D01*
X15998206Y-7017150D02*
X16017253Y-7026674D01*
X16017253Y-7026674D02*
X16026777Y-7036198D01*
X16026777Y-7036198D02*
X16036301Y-7055246D01*
X16036301Y-7055246D02*
X16036301Y-7112388D01*
X16036301Y-7112388D02*
X16026777Y-7131436D01*
X16026777Y-7131436D02*
X16017253Y-7140960D01*
X16017253Y-7140960D02*
X15998206Y-7150484D01*
X15998206Y-7150484D02*
X15969634Y-7150484D01*
X16150587Y-7150484D02*
X16131539Y-7140960D01*
X16131539Y-7140960D02*
X16122015Y-7121912D01*
X16122015Y-7121912D02*
X16122015Y-6950484D01*
X16302968Y-7140960D02*
X16283920Y-7150484D01*
X16283920Y-7150484D02*
X16245825Y-7150484D01*
X16245825Y-7150484D02*
X16226777Y-7140960D01*
X16226777Y-7140960D02*
X16217253Y-7121912D01*
X16217253Y-7121912D02*
X16217253Y-7045722D01*
X16217253Y-7045722D02*
X16226777Y-7026674D01*
X16226777Y-7026674D02*
X16245825Y-7017150D01*
X16245825Y-7017150D02*
X16283920Y-7017150D01*
X16283920Y-7017150D02*
X16302968Y-7026674D01*
X16302968Y-7026674D02*
X16312491Y-7045722D01*
X16312491Y-7045722D02*
X16312491Y-7064769D01*
X16312491Y-7064769D02*
X16217253Y-7083817D01*
X16388682Y-7140960D02*
X16407730Y-7150484D01*
X16407730Y-7150484D02*
X16445825Y-7150484D01*
X16445825Y-7150484D02*
X16464872Y-7140960D01*
X16464872Y-7140960D02*
X16474396Y-7121912D01*
X16474396Y-7121912D02*
X16474396Y-7112388D01*
X16474396Y-7112388D02*
X16464872Y-7093341D01*
X16464872Y-7093341D02*
X16445825Y-7083817D01*
X16445825Y-7083817D02*
X16417253Y-7083817D01*
X16417253Y-7083817D02*
X16398206Y-7074293D01*
X16398206Y-7074293D02*
X16388682Y-7055246D01*
X16388682Y-7055246D02*
X16388682Y-7045722D01*
X16388682Y-7045722D02*
X16398206Y-7026674D01*
X16398206Y-7026674D02*
X16417253Y-7017150D01*
X16417253Y-7017150D02*
X16445825Y-7017150D01*
X16445825Y-7017150D02*
X16464872Y-7026674D01*
X16541063Y-7226674D02*
X16550587Y-7217150D01*
X16550587Y-7217150D02*
X16569634Y-7188579D01*
X16569634Y-7188579D02*
X16579158Y-7169531D01*
X16579158Y-7169531D02*
X16588682Y-7140960D01*
X16588682Y-7140960D02*
X16598206Y-7093341D01*
X16598206Y-7093341D02*
X16598206Y-7055246D01*
X16598206Y-7055246D02*
X16588682Y-7007627D01*
X16588682Y-7007627D02*
X16579158Y-6979055D01*
X16579158Y-6979055D02*
X16569634Y-6960008D01*
X16569634Y-6960008D02*
X16550587Y-6931436D01*
X16550587Y-6931436D02*
X16541063Y-6921912D01*
D13*
X11701000Y-7258000D02*
X11701000Y-7388000D01*
X11636000Y-7323000D02*
X11766000Y-7323000D01*
D11*
X12131539Y-7414484D02*
X12017253Y-7414484D01*
X12074396Y-7414484D02*
X12074396Y-7214484D01*
X12074396Y-7214484D02*
X12055348Y-7243055D01*
X12055348Y-7243055D02*
X12036301Y-7262103D01*
X12036301Y-7262103D02*
X12017253Y-7271627D01*
X12217253Y-7395436D02*
X12226777Y-7404960D01*
X12226777Y-7404960D02*
X12217253Y-7414484D01*
X12217253Y-7414484D02*
X12207729Y-7404960D01*
X12207729Y-7404960D02*
X12217253Y-7395436D01*
X12217253Y-7395436D02*
X12217253Y-7414484D01*
X12293443Y-7214484D02*
X12417253Y-7214484D01*
X12417253Y-7214484D02*
X12350586Y-7290674D01*
X12350586Y-7290674D02*
X12379158Y-7290674D01*
X12379158Y-7290674D02*
X12398205Y-7300198D01*
X12398205Y-7300198D02*
X12407729Y-7309722D01*
X12407729Y-7309722D02*
X12417253Y-7328769D01*
X12417253Y-7328769D02*
X12417253Y-7376388D01*
X12417253Y-7376388D02*
X12407729Y-7395436D01*
X12407729Y-7395436D02*
X12398205Y-7404960D01*
X12398205Y-7404960D02*
X12379158Y-7414484D01*
X12379158Y-7414484D02*
X12322015Y-7414484D01*
X12322015Y-7414484D02*
X12302967Y-7404960D01*
X12302967Y-7404960D02*
X12293443Y-7395436D01*
X12541062Y-7214484D02*
X12560110Y-7214484D01*
X12560110Y-7214484D02*
X12579158Y-7224008D01*
X12579158Y-7224008D02*
X12588682Y-7233531D01*
X12588682Y-7233531D02*
X12598205Y-7252579D01*
X12598205Y-7252579D02*
X12607729Y-7290674D01*
X12607729Y-7290674D02*
X12607729Y-7338293D01*
X12607729Y-7338293D02*
X12598205Y-7376388D01*
X12598205Y-7376388D02*
X12588682Y-7395436D01*
X12588682Y-7395436D02*
X12579158Y-7404960D01*
X12579158Y-7404960D02*
X12560110Y-7414484D01*
X12560110Y-7414484D02*
X12541062Y-7414484D01*
X12541062Y-7414484D02*
X12522015Y-7404960D01*
X12522015Y-7404960D02*
X12512491Y-7395436D01*
X12512491Y-7395436D02*
X12502967Y-7376388D01*
X12502967Y-7376388D02*
X12493443Y-7338293D01*
X12493443Y-7338293D02*
X12493443Y-7290674D01*
X12493443Y-7290674D02*
X12502967Y-7252579D01*
X12502967Y-7252579D02*
X12512491Y-7233531D01*
X12512491Y-7233531D02*
X12522015Y-7224008D01*
X12522015Y-7224008D02*
X12541062Y-7214484D01*
X12731539Y-7214484D02*
X12750586Y-7214484D01*
X12750586Y-7214484D02*
X12769634Y-7224008D01*
X12769634Y-7224008D02*
X12779158Y-7233531D01*
X12779158Y-7233531D02*
X12788682Y-7252579D01*
X12788682Y-7252579D02*
X12798205Y-7290674D01*
X12798205Y-7290674D02*
X12798205Y-7338293D01*
X12798205Y-7338293D02*
X12788682Y-7376388D01*
X12788682Y-7376388D02*
X12779158Y-7395436D01*
X12779158Y-7395436D02*
X12769634Y-7404960D01*
X12769634Y-7404960D02*
X12750586Y-7414484D01*
X12750586Y-7414484D02*
X12731539Y-7414484D01*
X12731539Y-7414484D02*
X12712491Y-7404960D01*
X12712491Y-7404960D02*
X12702967Y-7395436D01*
X12702967Y-7395436D02*
X12693443Y-7376388D01*
X12693443Y-7376388D02*
X12683920Y-7338293D01*
X12683920Y-7338293D02*
X12683920Y-7290674D01*
X12683920Y-7290674D02*
X12693443Y-7252579D01*
X12693443Y-7252579D02*
X12702967Y-7233531D01*
X12702967Y-7233531D02*
X12712491Y-7224008D01*
X12712491Y-7224008D02*
X12731539Y-7214484D01*
X12883920Y-7414484D02*
X12883920Y-7281150D01*
X12883920Y-7300198D02*
X12893443Y-7290674D01*
X12893443Y-7290674D02*
X12912491Y-7281150D01*
X12912491Y-7281150D02*
X12941063Y-7281150D01*
X12941063Y-7281150D02*
X12960110Y-7290674D01*
X12960110Y-7290674D02*
X12969634Y-7309722D01*
X12969634Y-7309722D02*
X12969634Y-7414484D01*
X12969634Y-7309722D02*
X12979158Y-7290674D01*
X12979158Y-7290674D02*
X12998205Y-7281150D01*
X12998205Y-7281150D02*
X13026777Y-7281150D01*
X13026777Y-7281150D02*
X13045824Y-7290674D01*
X13045824Y-7290674D02*
X13055348Y-7309722D01*
X13055348Y-7309722D02*
X13055348Y-7414484D01*
X13150586Y-7414484D02*
X13150586Y-7281150D01*
X13150586Y-7300198D02*
X13160110Y-7290674D01*
X13160110Y-7290674D02*
X13179158Y-7281150D01*
X13179158Y-7281150D02*
X13207729Y-7281150D01*
X13207729Y-7281150D02*
X13226777Y-7290674D01*
X13226777Y-7290674D02*
X13236301Y-7309722D01*
X13236301Y-7309722D02*
X13236301Y-7414484D01*
X13236301Y-7309722D02*
X13245824Y-7290674D01*
X13245824Y-7290674D02*
X13264872Y-7281150D01*
X13264872Y-7281150D02*
X13293443Y-7281150D01*
X13293443Y-7281150D02*
X13312491Y-7290674D01*
X13312491Y-7290674D02*
X13322015Y-7309722D01*
X13322015Y-7309722D02*
X13322015Y-7414484D01*
X13712491Y-7204960D02*
X13541063Y-7462103D01*
X13969634Y-7214484D02*
X13988682Y-7214484D01*
X13988682Y-7214484D02*
X14007729Y-7224008D01*
X14007729Y-7224008D02*
X14017253Y-7233531D01*
X14017253Y-7233531D02*
X14026777Y-7252579D01*
X14026777Y-7252579D02*
X14036301Y-7290674D01*
X14036301Y-7290674D02*
X14036301Y-7338293D01*
X14036301Y-7338293D02*
X14026777Y-7376388D01*
X14026777Y-7376388D02*
X14017253Y-7395436D01*
X14017253Y-7395436D02*
X14007729Y-7404960D01*
X14007729Y-7404960D02*
X13988682Y-7414484D01*
X13988682Y-7414484D02*
X13969634Y-7414484D01*
X13969634Y-7414484D02*
X13950586Y-7404960D01*
X13950586Y-7404960D02*
X13941063Y-7395436D01*
X13941063Y-7395436D02*
X13931539Y-7376388D01*
X13931539Y-7376388D02*
X13922015Y-7338293D01*
X13922015Y-7338293D02*
X13922015Y-7290674D01*
X13922015Y-7290674D02*
X13931539Y-7252579D01*
X13931539Y-7252579D02*
X13941063Y-7233531D01*
X13941063Y-7233531D02*
X13950586Y-7224008D01*
X13950586Y-7224008D02*
X13969634Y-7214484D01*
X14122015Y-7395436D02*
X14131539Y-7404960D01*
X14131539Y-7404960D02*
X14122015Y-7414484D01*
X14122015Y-7414484D02*
X14112491Y-7404960D01*
X14112491Y-7404960D02*
X14122015Y-7395436D01*
X14122015Y-7395436D02*
X14122015Y-7414484D01*
X14255348Y-7214484D02*
X14274396Y-7214484D01*
X14274396Y-7214484D02*
X14293444Y-7224008D01*
X14293444Y-7224008D02*
X14302967Y-7233531D01*
X14302967Y-7233531D02*
X14312491Y-7252579D01*
X14312491Y-7252579D02*
X14322015Y-7290674D01*
X14322015Y-7290674D02*
X14322015Y-7338293D01*
X14322015Y-7338293D02*
X14312491Y-7376388D01*
X14312491Y-7376388D02*
X14302967Y-7395436D01*
X14302967Y-7395436D02*
X14293444Y-7404960D01*
X14293444Y-7404960D02*
X14274396Y-7414484D01*
X14274396Y-7414484D02*
X14255348Y-7414484D01*
X14255348Y-7414484D02*
X14236301Y-7404960D01*
X14236301Y-7404960D02*
X14226777Y-7395436D01*
X14226777Y-7395436D02*
X14217253Y-7376388D01*
X14217253Y-7376388D02*
X14207729Y-7338293D01*
X14207729Y-7338293D02*
X14207729Y-7290674D01*
X14207729Y-7290674D02*
X14217253Y-7252579D01*
X14217253Y-7252579D02*
X14226777Y-7233531D01*
X14226777Y-7233531D02*
X14236301Y-7224008D01*
X14236301Y-7224008D02*
X14255348Y-7214484D01*
X14502967Y-7214484D02*
X14407729Y-7214484D01*
X14407729Y-7214484D02*
X14398206Y-7309722D01*
X14398206Y-7309722D02*
X14407729Y-7300198D01*
X14407729Y-7300198D02*
X14426777Y-7290674D01*
X14426777Y-7290674D02*
X14474396Y-7290674D01*
X14474396Y-7290674D02*
X14493444Y-7300198D01*
X14493444Y-7300198D02*
X14502967Y-7309722D01*
X14502967Y-7309722D02*
X14512491Y-7328769D01*
X14512491Y-7328769D02*
X14512491Y-7376388D01*
X14512491Y-7376388D02*
X14502967Y-7395436D01*
X14502967Y-7395436D02*
X14493444Y-7404960D01*
X14493444Y-7404960D02*
X14474396Y-7414484D01*
X14474396Y-7414484D02*
X14426777Y-7414484D01*
X14426777Y-7414484D02*
X14407729Y-7404960D01*
X14407729Y-7404960D02*
X14398206Y-7395436D01*
X14702967Y-7414484D02*
X14588682Y-7414484D01*
X14645825Y-7414484D02*
X14645825Y-7214484D01*
X14645825Y-7214484D02*
X14626777Y-7243055D01*
X14626777Y-7243055D02*
X14607729Y-7262103D01*
X14607729Y-7262103D02*
X14588682Y-7271627D01*
X14779158Y-7233531D02*
X14788682Y-7224008D01*
X14788682Y-7224008D02*
X14807729Y-7214484D01*
X14807729Y-7214484D02*
X14855348Y-7214484D01*
X14855348Y-7214484D02*
X14874396Y-7224008D01*
X14874396Y-7224008D02*
X14883920Y-7233531D01*
X14883920Y-7233531D02*
X14893444Y-7252579D01*
X14893444Y-7252579D02*
X14893444Y-7271627D01*
X14893444Y-7271627D02*
X14883920Y-7300198D01*
X14883920Y-7300198D02*
X14769634Y-7414484D01*
X14769634Y-7414484D02*
X14893444Y-7414484D01*
X14969634Y-7214484D02*
X14969634Y-7252579D01*
X15045825Y-7214484D02*
X15045825Y-7252579D01*
X15341063Y-7490674D02*
X15331539Y-7481150D01*
X15331539Y-7481150D02*
X15312491Y-7452579D01*
X15312491Y-7452579D02*
X15302968Y-7433531D01*
X15302968Y-7433531D02*
X15293444Y-7404960D01*
X15293444Y-7404960D02*
X15283920Y-7357341D01*
X15283920Y-7357341D02*
X15283920Y-7319246D01*
X15283920Y-7319246D02*
X15293444Y-7271627D01*
X15293444Y-7271627D02*
X15302968Y-7243055D01*
X15302968Y-7243055D02*
X15312491Y-7224008D01*
X15312491Y-7224008D02*
X15331539Y-7195436D01*
X15331539Y-7195436D02*
X15341063Y-7185912D01*
X15398206Y-7214484D02*
X15531539Y-7214484D01*
X15531539Y-7214484D02*
X15445825Y-7414484D01*
X15760110Y-7414484D02*
X15760110Y-7214484D01*
X15845825Y-7414484D02*
X15845825Y-7309722D01*
X15845825Y-7309722D02*
X15836301Y-7290674D01*
X15836301Y-7290674D02*
X15817253Y-7281150D01*
X15817253Y-7281150D02*
X15788682Y-7281150D01*
X15788682Y-7281150D02*
X15769634Y-7290674D01*
X15769634Y-7290674D02*
X15760110Y-7300198D01*
X15969634Y-7414484D02*
X15950587Y-7404960D01*
X15950587Y-7404960D02*
X15941063Y-7395436D01*
X15941063Y-7395436D02*
X15931539Y-7376388D01*
X15931539Y-7376388D02*
X15931539Y-7319246D01*
X15931539Y-7319246D02*
X15941063Y-7300198D01*
X15941063Y-7300198D02*
X15950587Y-7290674D01*
X15950587Y-7290674D02*
X15969634Y-7281150D01*
X15969634Y-7281150D02*
X15998206Y-7281150D01*
X15998206Y-7281150D02*
X16017253Y-7290674D01*
X16017253Y-7290674D02*
X16026777Y-7300198D01*
X16026777Y-7300198D02*
X16036301Y-7319246D01*
X16036301Y-7319246D02*
X16036301Y-7376388D01*
X16036301Y-7376388D02*
X16026777Y-7395436D01*
X16026777Y-7395436D02*
X16017253Y-7404960D01*
X16017253Y-7404960D02*
X15998206Y-7414484D01*
X15998206Y-7414484D02*
X15969634Y-7414484D01*
X16150587Y-7414484D02*
X16131539Y-7404960D01*
X16131539Y-7404960D02*
X16122015Y-7385912D01*
X16122015Y-7385912D02*
X16122015Y-7214484D01*
X16302968Y-7404960D02*
X16283920Y-7414484D01*
X16283920Y-7414484D02*
X16245825Y-7414484D01*
X16245825Y-7414484D02*
X16226777Y-7404960D01*
X16226777Y-7404960D02*
X16217253Y-7385912D01*
X16217253Y-7385912D02*
X16217253Y-7309722D01*
X16217253Y-7309722D02*
X16226777Y-7290674D01*
X16226777Y-7290674D02*
X16245825Y-7281150D01*
X16245825Y-7281150D02*
X16283920Y-7281150D01*
X16283920Y-7281150D02*
X16302968Y-7290674D01*
X16302968Y-7290674D02*
X16312491Y-7309722D01*
X16312491Y-7309722D02*
X16312491Y-7328769D01*
X16312491Y-7328769D02*
X16217253Y-7347817D01*
X16388682Y-7404960D02*
X16407730Y-7414484D01*
X16407730Y-7414484D02*
X16445825Y-7414484D01*
X16445825Y-7414484D02*
X16464872Y-7404960D01*
X16464872Y-7404960D02*
X16474396Y-7385912D01*
X16474396Y-7385912D02*
X16474396Y-7376388D01*
X16474396Y-7376388D02*
X16464872Y-7357341D01*
X16464872Y-7357341D02*
X16445825Y-7347817D01*
X16445825Y-7347817D02*
X16417253Y-7347817D01*
X16417253Y-7347817D02*
X16398206Y-7338293D01*
X16398206Y-7338293D02*
X16388682Y-7319246D01*
X16388682Y-7319246D02*
X16388682Y-7309722D01*
X16388682Y-7309722D02*
X16398206Y-7290674D01*
X16398206Y-7290674D02*
X16417253Y-7281150D01*
X16417253Y-7281150D02*
X16445825Y-7281150D01*
X16445825Y-7281150D02*
X16464872Y-7290674D01*
X16541063Y-7490674D02*
X16550587Y-7481150D01*
X16550587Y-7481150D02*
X16569634Y-7452579D01*
X16569634Y-7452579D02*
X16579158Y-7433531D01*
X16579158Y-7433531D02*
X16588682Y-7404960D01*
X16588682Y-7404960D02*
X16598206Y-7357341D01*
X16598206Y-7357341D02*
X16598206Y-7319246D01*
X16598206Y-7319246D02*
X16588682Y-7271627D01*
X16588682Y-7271627D02*
X16579158Y-7243055D01*
X16579158Y-7243055D02*
X16569634Y-7224008D01*
X16569634Y-7224008D02*
X16550587Y-7195436D01*
X16550587Y-7195436D02*
X16541063Y-7185912D01*
X11736711Y-7657711D02*
X11736711Y-7516289D01*
X11595289Y-7516289D01*
X11595289Y-7657711D01*
X11736711Y-7657711D01*
X12007729Y-7478484D02*
X12131539Y-7478484D01*
X12131539Y-7478484D02*
X12064872Y-7554674D01*
X12064872Y-7554674D02*
X12093443Y-7554674D01*
X12093443Y-7554674D02*
X12112491Y-7564198D01*
X12112491Y-7564198D02*
X12122015Y-7573722D01*
X12122015Y-7573722D02*
X12131539Y-7592769D01*
X12131539Y-7592769D02*
X12131539Y-7640388D01*
X12131539Y-7640388D02*
X12122015Y-7659436D01*
X12122015Y-7659436D02*
X12112491Y-7668960D01*
X12112491Y-7668960D02*
X12093443Y-7678484D01*
X12093443Y-7678484D02*
X12036301Y-7678484D01*
X12036301Y-7678484D02*
X12017253Y-7668960D01*
X12017253Y-7668960D02*
X12007729Y-7659436D01*
X12217253Y-7659436D02*
X12226777Y-7668960D01*
X12226777Y-7668960D02*
X12217253Y-7678484D01*
X12217253Y-7678484D02*
X12207729Y-7668960D01*
X12207729Y-7668960D02*
X12217253Y-7659436D01*
X12217253Y-7659436D02*
X12217253Y-7678484D01*
X12302967Y-7497531D02*
X12312491Y-7488008D01*
X12312491Y-7488008D02*
X12331539Y-7478484D01*
X12331539Y-7478484D02*
X12379158Y-7478484D01*
X12379158Y-7478484D02*
X12398205Y-7488008D01*
X12398205Y-7488008D02*
X12407729Y-7497531D01*
X12407729Y-7497531D02*
X12417253Y-7516579D01*
X12417253Y-7516579D02*
X12417253Y-7535627D01*
X12417253Y-7535627D02*
X12407729Y-7564198D01*
X12407729Y-7564198D02*
X12293443Y-7678484D01*
X12293443Y-7678484D02*
X12417253Y-7678484D01*
X12541062Y-7478484D02*
X12560110Y-7478484D01*
X12560110Y-7478484D02*
X12579158Y-7488008D01*
X12579158Y-7488008D02*
X12588682Y-7497531D01*
X12588682Y-7497531D02*
X12598205Y-7516579D01*
X12598205Y-7516579D02*
X12607729Y-7554674D01*
X12607729Y-7554674D02*
X12607729Y-7602293D01*
X12607729Y-7602293D02*
X12598205Y-7640388D01*
X12598205Y-7640388D02*
X12588682Y-7659436D01*
X12588682Y-7659436D02*
X12579158Y-7668960D01*
X12579158Y-7668960D02*
X12560110Y-7678484D01*
X12560110Y-7678484D02*
X12541062Y-7678484D01*
X12541062Y-7678484D02*
X12522015Y-7668960D01*
X12522015Y-7668960D02*
X12512491Y-7659436D01*
X12512491Y-7659436D02*
X12502967Y-7640388D01*
X12502967Y-7640388D02*
X12493443Y-7602293D01*
X12493443Y-7602293D02*
X12493443Y-7554674D01*
X12493443Y-7554674D02*
X12502967Y-7516579D01*
X12502967Y-7516579D02*
X12512491Y-7497531D01*
X12512491Y-7497531D02*
X12522015Y-7488008D01*
X12522015Y-7488008D02*
X12541062Y-7478484D01*
X12731539Y-7478484D02*
X12750586Y-7478484D01*
X12750586Y-7478484D02*
X12769634Y-7488008D01*
X12769634Y-7488008D02*
X12779158Y-7497531D01*
X12779158Y-7497531D02*
X12788682Y-7516579D01*
X12788682Y-7516579D02*
X12798205Y-7554674D01*
X12798205Y-7554674D02*
X12798205Y-7602293D01*
X12798205Y-7602293D02*
X12788682Y-7640388D01*
X12788682Y-7640388D02*
X12779158Y-7659436D01*
X12779158Y-7659436D02*
X12769634Y-7668960D01*
X12769634Y-7668960D02*
X12750586Y-7678484D01*
X12750586Y-7678484D02*
X12731539Y-7678484D01*
X12731539Y-7678484D02*
X12712491Y-7668960D01*
X12712491Y-7668960D02*
X12702967Y-7659436D01*
X12702967Y-7659436D02*
X12693443Y-7640388D01*
X12693443Y-7640388D02*
X12683920Y-7602293D01*
X12683920Y-7602293D02*
X12683920Y-7554674D01*
X12683920Y-7554674D02*
X12693443Y-7516579D01*
X12693443Y-7516579D02*
X12702967Y-7497531D01*
X12702967Y-7497531D02*
X12712491Y-7488008D01*
X12712491Y-7488008D02*
X12731539Y-7478484D01*
X12883920Y-7678484D02*
X12883920Y-7545150D01*
X12883920Y-7564198D02*
X12893443Y-7554674D01*
X12893443Y-7554674D02*
X12912491Y-7545150D01*
X12912491Y-7545150D02*
X12941063Y-7545150D01*
X12941063Y-7545150D02*
X12960110Y-7554674D01*
X12960110Y-7554674D02*
X12969634Y-7573722D01*
X12969634Y-7573722D02*
X12969634Y-7678484D01*
X12969634Y-7573722D02*
X12979158Y-7554674D01*
X12979158Y-7554674D02*
X12998205Y-7545150D01*
X12998205Y-7545150D02*
X13026777Y-7545150D01*
X13026777Y-7545150D02*
X13045824Y-7554674D01*
X13045824Y-7554674D02*
X13055348Y-7573722D01*
X13055348Y-7573722D02*
X13055348Y-7678484D01*
X13150586Y-7678484D02*
X13150586Y-7545150D01*
X13150586Y-7564198D02*
X13160110Y-7554674D01*
X13160110Y-7554674D02*
X13179158Y-7545150D01*
X13179158Y-7545150D02*
X13207729Y-7545150D01*
X13207729Y-7545150D02*
X13226777Y-7554674D01*
X13226777Y-7554674D02*
X13236301Y-7573722D01*
X13236301Y-7573722D02*
X13236301Y-7678484D01*
X13236301Y-7573722D02*
X13245824Y-7554674D01*
X13245824Y-7554674D02*
X13264872Y-7545150D01*
X13264872Y-7545150D02*
X13293443Y-7545150D01*
X13293443Y-7545150D02*
X13312491Y-7554674D01*
X13312491Y-7554674D02*
X13322015Y-7573722D01*
X13322015Y-7573722D02*
X13322015Y-7678484D01*
X13712491Y-7468960D02*
X13541063Y-7726103D01*
X13969634Y-7478484D02*
X13988682Y-7478484D01*
X13988682Y-7478484D02*
X14007729Y-7488008D01*
X14007729Y-7488008D02*
X14017253Y-7497531D01*
X14017253Y-7497531D02*
X14026777Y-7516579D01*
X14026777Y-7516579D02*
X14036301Y-7554674D01*
X14036301Y-7554674D02*
X14036301Y-7602293D01*
X14036301Y-7602293D02*
X14026777Y-7640388D01*
X14026777Y-7640388D02*
X14017253Y-7659436D01*
X14017253Y-7659436D02*
X14007729Y-7668960D01*
X14007729Y-7668960D02*
X13988682Y-7678484D01*
X13988682Y-7678484D02*
X13969634Y-7678484D01*
X13969634Y-7678484D02*
X13950586Y-7668960D01*
X13950586Y-7668960D02*
X13941063Y-7659436D01*
X13941063Y-7659436D02*
X13931539Y-7640388D01*
X13931539Y-7640388D02*
X13922015Y-7602293D01*
X13922015Y-7602293D02*
X13922015Y-7554674D01*
X13922015Y-7554674D02*
X13931539Y-7516579D01*
X13931539Y-7516579D02*
X13941063Y-7497531D01*
X13941063Y-7497531D02*
X13950586Y-7488008D01*
X13950586Y-7488008D02*
X13969634Y-7478484D01*
X14122015Y-7659436D02*
X14131539Y-7668960D01*
X14131539Y-7668960D02*
X14122015Y-7678484D01*
X14122015Y-7678484D02*
X14112491Y-7668960D01*
X14112491Y-7668960D02*
X14122015Y-7659436D01*
X14122015Y-7659436D02*
X14122015Y-7678484D01*
X14322015Y-7678484D02*
X14207729Y-7678484D01*
X14264872Y-7678484D02*
X14264872Y-7478484D01*
X14264872Y-7478484D02*
X14245825Y-7507055D01*
X14245825Y-7507055D02*
X14226777Y-7526103D01*
X14226777Y-7526103D02*
X14207729Y-7535627D01*
X14398206Y-7497531D02*
X14407729Y-7488008D01*
X14407729Y-7488008D02*
X14426777Y-7478484D01*
X14426777Y-7478484D02*
X14474396Y-7478484D01*
X14474396Y-7478484D02*
X14493444Y-7488008D01*
X14493444Y-7488008D02*
X14502967Y-7497531D01*
X14502967Y-7497531D02*
X14512491Y-7516579D01*
X14512491Y-7516579D02*
X14512491Y-7535627D01*
X14512491Y-7535627D02*
X14502967Y-7564198D01*
X14502967Y-7564198D02*
X14388682Y-7678484D01*
X14388682Y-7678484D02*
X14512491Y-7678484D01*
X14683920Y-7478484D02*
X14645825Y-7478484D01*
X14645825Y-7478484D02*
X14626777Y-7488008D01*
X14626777Y-7488008D02*
X14617253Y-7497531D01*
X14617253Y-7497531D02*
X14598206Y-7526103D01*
X14598206Y-7526103D02*
X14588682Y-7564198D01*
X14588682Y-7564198D02*
X14588682Y-7640388D01*
X14588682Y-7640388D02*
X14598206Y-7659436D01*
X14598206Y-7659436D02*
X14607729Y-7668960D01*
X14607729Y-7668960D02*
X14626777Y-7678484D01*
X14626777Y-7678484D02*
X14664872Y-7678484D01*
X14664872Y-7678484D02*
X14683920Y-7668960D01*
X14683920Y-7668960D02*
X14693444Y-7659436D01*
X14693444Y-7659436D02*
X14702967Y-7640388D01*
X14702967Y-7640388D02*
X14702967Y-7592769D01*
X14702967Y-7592769D02*
X14693444Y-7573722D01*
X14693444Y-7573722D02*
X14683920Y-7564198D01*
X14683920Y-7564198D02*
X14664872Y-7554674D01*
X14664872Y-7554674D02*
X14626777Y-7554674D01*
X14626777Y-7554674D02*
X14607729Y-7564198D01*
X14607729Y-7564198D02*
X14598206Y-7573722D01*
X14598206Y-7573722D02*
X14588682Y-7592769D01*
X14826777Y-7478484D02*
X14845825Y-7478484D01*
X14845825Y-7478484D02*
X14864872Y-7488008D01*
X14864872Y-7488008D02*
X14874396Y-7497531D01*
X14874396Y-7497531D02*
X14883920Y-7516579D01*
X14883920Y-7516579D02*
X14893444Y-7554674D01*
X14893444Y-7554674D02*
X14893444Y-7602293D01*
X14893444Y-7602293D02*
X14883920Y-7640388D01*
X14883920Y-7640388D02*
X14874396Y-7659436D01*
X14874396Y-7659436D02*
X14864872Y-7668960D01*
X14864872Y-7668960D02*
X14845825Y-7678484D01*
X14845825Y-7678484D02*
X14826777Y-7678484D01*
X14826777Y-7678484D02*
X14807729Y-7668960D01*
X14807729Y-7668960D02*
X14798206Y-7659436D01*
X14798206Y-7659436D02*
X14788682Y-7640388D01*
X14788682Y-7640388D02*
X14779158Y-7602293D01*
X14779158Y-7602293D02*
X14779158Y-7554674D01*
X14779158Y-7554674D02*
X14788682Y-7516579D01*
X14788682Y-7516579D02*
X14798206Y-7497531D01*
X14798206Y-7497531D02*
X14807729Y-7488008D01*
X14807729Y-7488008D02*
X14826777Y-7478484D01*
X14969634Y-7478484D02*
X14969634Y-7516579D01*
X15045825Y-7478484D02*
X15045825Y-7516579D01*
X15341063Y-7754674D02*
X15331539Y-7745150D01*
X15331539Y-7745150D02*
X15312491Y-7716579D01*
X15312491Y-7716579D02*
X15302968Y-7697531D01*
X15302968Y-7697531D02*
X15293444Y-7668960D01*
X15293444Y-7668960D02*
X15283920Y-7621341D01*
X15283920Y-7621341D02*
X15283920Y-7583246D01*
X15283920Y-7583246D02*
X15293444Y-7535627D01*
X15293444Y-7535627D02*
X15302968Y-7507055D01*
X15302968Y-7507055D02*
X15312491Y-7488008D01*
X15312491Y-7488008D02*
X15331539Y-7459436D01*
X15331539Y-7459436D02*
X15341063Y-7449912D01*
X15502968Y-7545150D02*
X15502968Y-7678484D01*
X15455348Y-7468960D02*
X15407729Y-7611817D01*
X15407729Y-7611817D02*
X15531539Y-7611817D01*
X15760110Y-7678484D02*
X15760110Y-7478484D01*
X15845825Y-7678484D02*
X15845825Y-7573722D01*
X15845825Y-7573722D02*
X15836301Y-7554674D01*
X15836301Y-7554674D02*
X15817253Y-7545150D01*
X15817253Y-7545150D02*
X15788682Y-7545150D01*
X15788682Y-7545150D02*
X15769634Y-7554674D01*
X15769634Y-7554674D02*
X15760110Y-7564198D01*
X15969634Y-7678484D02*
X15950587Y-7668960D01*
X15950587Y-7668960D02*
X15941063Y-7659436D01*
X15941063Y-7659436D02*
X15931539Y-7640388D01*
X15931539Y-7640388D02*
X15931539Y-7583246D01*
X15931539Y-7583246D02*
X15941063Y-7564198D01*
X15941063Y-7564198D02*
X15950587Y-7554674D01*
X15950587Y-7554674D02*
X15969634Y-7545150D01*
X15969634Y-7545150D02*
X15998206Y-7545150D01*
X15998206Y-7545150D02*
X16017253Y-7554674D01*
X16017253Y-7554674D02*
X16026777Y-7564198D01*
X16026777Y-7564198D02*
X16036301Y-7583246D01*
X16036301Y-7583246D02*
X16036301Y-7640388D01*
X16036301Y-7640388D02*
X16026777Y-7659436D01*
X16026777Y-7659436D02*
X16017253Y-7668960D01*
X16017253Y-7668960D02*
X15998206Y-7678484D01*
X15998206Y-7678484D02*
X15969634Y-7678484D01*
X16150587Y-7678484D02*
X16131539Y-7668960D01*
X16131539Y-7668960D02*
X16122015Y-7649912D01*
X16122015Y-7649912D02*
X16122015Y-7478484D01*
X16302968Y-7668960D02*
X16283920Y-7678484D01*
X16283920Y-7678484D02*
X16245825Y-7678484D01*
X16245825Y-7678484D02*
X16226777Y-7668960D01*
X16226777Y-7668960D02*
X16217253Y-7649912D01*
X16217253Y-7649912D02*
X16217253Y-7573722D01*
X16217253Y-7573722D02*
X16226777Y-7554674D01*
X16226777Y-7554674D02*
X16245825Y-7545150D01*
X16245825Y-7545150D02*
X16283920Y-7545150D01*
X16283920Y-7545150D02*
X16302968Y-7554674D01*
X16302968Y-7554674D02*
X16312491Y-7573722D01*
X16312491Y-7573722D02*
X16312491Y-7592769D01*
X16312491Y-7592769D02*
X16217253Y-7611817D01*
X16388682Y-7668960D02*
X16407730Y-7678484D01*
X16407730Y-7678484D02*
X16445825Y-7678484D01*
X16445825Y-7678484D02*
X16464872Y-7668960D01*
X16464872Y-7668960D02*
X16474396Y-7649912D01*
X16474396Y-7649912D02*
X16474396Y-7640388D01*
X16474396Y-7640388D02*
X16464872Y-7621341D01*
X16464872Y-7621341D02*
X16445825Y-7611817D01*
X16445825Y-7611817D02*
X16417253Y-7611817D01*
X16417253Y-7611817D02*
X16398206Y-7602293D01*
X16398206Y-7602293D02*
X16388682Y-7583246D01*
X16388682Y-7583246D02*
X16388682Y-7573722D01*
X16388682Y-7573722D02*
X16398206Y-7554674D01*
X16398206Y-7554674D02*
X16417253Y-7545150D01*
X16417253Y-7545150D02*
X16445825Y-7545150D01*
X16445825Y-7545150D02*
X16464872Y-7554674D01*
X16541063Y-7754674D02*
X16550587Y-7745150D01*
X16550587Y-7745150D02*
X16569634Y-7716579D01*
X16569634Y-7716579D02*
X16579158Y-7697531D01*
X16579158Y-7697531D02*
X16588682Y-7668960D01*
X16588682Y-7668960D02*
X16598206Y-7621341D01*
X16598206Y-7621341D02*
X16598206Y-7583246D01*
X16598206Y-7583246D02*
X16588682Y-7535627D01*
X16588682Y-7535627D02*
X16579158Y-7507055D01*
X16579158Y-7507055D02*
X16569634Y-7488008D01*
X16569634Y-7488008D02*
X16550587Y-7459436D01*
X16550587Y-7459436D02*
X16541063Y-7449912D01*
X16902968Y-7754674D02*
X16893444Y-7745150D01*
X16893444Y-7745150D02*
X16874396Y-7716579D01*
X16874396Y-7716579D02*
X16864873Y-7697531D01*
X16864873Y-7697531D02*
X16855349Y-7668960D01*
X16855349Y-7668960D02*
X16845825Y-7621341D01*
X16845825Y-7621341D02*
X16845825Y-7583246D01*
X16845825Y-7583246D02*
X16855349Y-7535627D01*
X16855349Y-7535627D02*
X16864873Y-7507055D01*
X16864873Y-7507055D02*
X16874396Y-7488008D01*
X16874396Y-7488008D02*
X16893444Y-7459436D01*
X16893444Y-7459436D02*
X16902968Y-7449912D01*
X16979158Y-7545150D02*
X16979158Y-7678484D01*
X16979158Y-7564198D02*
X16988682Y-7554674D01*
X16988682Y-7554674D02*
X17007730Y-7545150D01*
X17007730Y-7545150D02*
X17036301Y-7545150D01*
X17036301Y-7545150D02*
X17055349Y-7554674D01*
X17055349Y-7554674D02*
X17064873Y-7573722D01*
X17064873Y-7573722D02*
X17064873Y-7678484D01*
X17188682Y-7678484D02*
X17169634Y-7668960D01*
X17169634Y-7668960D02*
X17160111Y-7659436D01*
X17160111Y-7659436D02*
X17150587Y-7640388D01*
X17150587Y-7640388D02*
X17150587Y-7583246D01*
X17150587Y-7583246D02*
X17160111Y-7564198D01*
X17160111Y-7564198D02*
X17169634Y-7554674D01*
X17169634Y-7554674D02*
X17188682Y-7545150D01*
X17188682Y-7545150D02*
X17217254Y-7545150D01*
X17217254Y-7545150D02*
X17236301Y-7554674D01*
X17236301Y-7554674D02*
X17245825Y-7564198D01*
X17245825Y-7564198D02*
X17255349Y-7583246D01*
X17255349Y-7583246D02*
X17255349Y-7640388D01*
X17255349Y-7640388D02*
X17245825Y-7659436D01*
X17245825Y-7659436D02*
X17236301Y-7668960D01*
X17236301Y-7668960D02*
X17217254Y-7678484D01*
X17217254Y-7678484D02*
X17188682Y-7678484D01*
X17312492Y-7545150D02*
X17388682Y-7545150D01*
X17341063Y-7478484D02*
X17341063Y-7649912D01*
X17341063Y-7649912D02*
X17350587Y-7668960D01*
X17350587Y-7668960D02*
X17369634Y-7678484D01*
X17369634Y-7678484D02*
X17388682Y-7678484D01*
X17607730Y-7545150D02*
X17607730Y-7745150D01*
X17607730Y-7554674D02*
X17626777Y-7545150D01*
X17626777Y-7545150D02*
X17664873Y-7545150D01*
X17664873Y-7545150D02*
X17683920Y-7554674D01*
X17683920Y-7554674D02*
X17693444Y-7564198D01*
X17693444Y-7564198D02*
X17702968Y-7583246D01*
X17702968Y-7583246D02*
X17702968Y-7640388D01*
X17702968Y-7640388D02*
X17693444Y-7659436D01*
X17693444Y-7659436D02*
X17683920Y-7668960D01*
X17683920Y-7668960D02*
X17664873Y-7678484D01*
X17664873Y-7678484D02*
X17626777Y-7678484D01*
X17626777Y-7678484D02*
X17607730Y-7668960D01*
X17817254Y-7678484D02*
X17798206Y-7668960D01*
X17798206Y-7668960D02*
X17788682Y-7649912D01*
X17788682Y-7649912D02*
X17788682Y-7478484D01*
X17979158Y-7678484D02*
X17979158Y-7573722D01*
X17979158Y-7573722D02*
X17969635Y-7554674D01*
X17969635Y-7554674D02*
X17950587Y-7545150D01*
X17950587Y-7545150D02*
X17912492Y-7545150D01*
X17912492Y-7545150D02*
X17893444Y-7554674D01*
X17979158Y-7668960D02*
X17960111Y-7678484D01*
X17960111Y-7678484D02*
X17912492Y-7678484D01*
X17912492Y-7678484D02*
X17893444Y-7668960D01*
X17893444Y-7668960D02*
X17883920Y-7649912D01*
X17883920Y-7649912D02*
X17883920Y-7630865D01*
X17883920Y-7630865D02*
X17893444Y-7611817D01*
X17893444Y-7611817D02*
X17912492Y-7602293D01*
X17912492Y-7602293D02*
X17960111Y-7602293D01*
X17960111Y-7602293D02*
X17979158Y-7592769D01*
X18045825Y-7545150D02*
X18122015Y-7545150D01*
X18074396Y-7478484D02*
X18074396Y-7649912D01*
X18074396Y-7649912D02*
X18083920Y-7668960D01*
X18083920Y-7668960D02*
X18102968Y-7678484D01*
X18102968Y-7678484D02*
X18122015Y-7678484D01*
X18264873Y-7668960D02*
X18245825Y-7678484D01*
X18245825Y-7678484D02*
X18207730Y-7678484D01*
X18207730Y-7678484D02*
X18188682Y-7668960D01*
X18188682Y-7668960D02*
X18179158Y-7649912D01*
X18179158Y-7649912D02*
X18179158Y-7573722D01*
X18179158Y-7573722D02*
X18188682Y-7554674D01*
X18188682Y-7554674D02*
X18207730Y-7545150D01*
X18207730Y-7545150D02*
X18245825Y-7545150D01*
X18245825Y-7545150D02*
X18264873Y-7554674D01*
X18264873Y-7554674D02*
X18274396Y-7573722D01*
X18274396Y-7573722D02*
X18274396Y-7592769D01*
X18274396Y-7592769D02*
X18179158Y-7611817D01*
X18445825Y-7678484D02*
X18445825Y-7478484D01*
X18445825Y-7668960D02*
X18426777Y-7678484D01*
X18426777Y-7678484D02*
X18388682Y-7678484D01*
X18388682Y-7678484D02*
X18369635Y-7668960D01*
X18369635Y-7668960D02*
X18360111Y-7659436D01*
X18360111Y-7659436D02*
X18350587Y-7640388D01*
X18350587Y-7640388D02*
X18350587Y-7583246D01*
X18350587Y-7583246D02*
X18360111Y-7564198D01*
X18360111Y-7564198D02*
X18369635Y-7554674D01*
X18369635Y-7554674D02*
X18388682Y-7545150D01*
X18388682Y-7545150D02*
X18426777Y-7545150D01*
X18426777Y-7545150D02*
X18445825Y-7554674D01*
X18522016Y-7754674D02*
X18531539Y-7745150D01*
X18531539Y-7745150D02*
X18550587Y-7716579D01*
X18550587Y-7716579D02*
X18560111Y-7697531D01*
X18560111Y-7697531D02*
X18569635Y-7668960D01*
X18569635Y-7668960D02*
X18579158Y-7621341D01*
X18579158Y-7621341D02*
X18579158Y-7583246D01*
X18579158Y-7583246D02*
X18569635Y-7535627D01*
X18569635Y-7535627D02*
X18560111Y-7507055D01*
X18560111Y-7507055D02*
X18550587Y-7488008D01*
X18550587Y-7488008D02*
X18531539Y-7459436D01*
X18531539Y-7459436D02*
X18522016Y-7449912D01*
M02*
