%TF.GenerationSoftware,KiCad,Pcbnew,10.0.1*%
%TF.CreationDate,2026-07-08T01:24:16+09:00*%
%TF.ProjectId,AudioCase_4_amp,41756469-6f43-4617-9365-5f345f616d70,rev?*%
%TF.SameCoordinates,Original*%
%TF.FileFunction,Legend,Bot*%
%TF.FilePolarity,Positive*%
%FSLAX46Y46*%
G04 Gerber Fmt 4.6, Leading zero omitted, Abs format (unit mm)*
G04 Created by KiCad (PCBNEW 10.0.1) date 2026-07-08 01:24:16*
%MOMM*%
%LPD*%
G01*
G04 APERTURE LIST*
G04 Aperture macros list*
%AMRoundRect*
0 Rectangle with rounded corners*
0 $1 Rounding radius*
0 $2 $3 $4 $5 $6 $7 $8 $9 X,Y pos of 4 corners*
0 Add a 4 corners polygon primitive as box body*
4,1,4,$2,$3,$4,$5,$6,$7,$8,$9,$2,$3,0*
0 Add four circle primitives for the rounded corners*
1,1,$1+$1,$2,$3*
1,1,$1+$1,$4,$5*
1,1,$1+$1,$6,$7*
1,1,$1+$1,$8,$9*
0 Add four rect primitives between the rounded corners*
20,1,$1+$1,$2,$3,$4,$5,0*
20,1,$1+$1,$4,$5,$6,$7,0*
20,1,$1+$1,$6,$7,$8,$9,0*
20,1,$1+$1,$8,$9,$2,$3,0*%
G04 Aperture macros list end*
%ADD10C,0.150000*%
%ADD11C,0.120000*%
%ADD12RoundRect,0.250001X-0.949999X-0.949999X0.949999X-0.949999X0.949999X0.949999X-0.949999X0.949999X0*%
%ADD13C,2.400000*%
%ADD14C,1.600000*%
%ADD15C,3.200000*%
%ADD16RoundRect,0.250000X-1.050000X1.050000X-1.050000X-1.050000X1.050000X-1.050000X1.050000X1.050000X0*%
%ADD17C,2.600000*%
%ADD18RoundRect,0.250000X-0.550000X-0.550000X0.550000X-0.550000X0.550000X0.550000X-0.550000X0.550000X0*%
%ADD19RoundRect,0.250000X1.050000X1.050000X-1.050000X1.050000X-1.050000X-1.050000X1.050000X-1.050000X0*%
%ADD20RoundRect,0.250000X-0.550000X0.550000X-0.550000X-0.550000X0.550000X-0.550000X0.550000X0.550000X0*%
%ADD21RoundRect,0.250000X1.050000X-1.050000X1.050000X1.050000X-1.050000X1.050000X-1.050000X-1.050000X0*%
%ADD22RoundRect,0.250000X0.550000X-0.550000X0.550000X0.550000X-0.550000X0.550000X-0.550000X-0.550000X0*%
%ADD23RoundRect,0.250000X0.400000X0.625000X-0.400000X0.625000X-0.400000X-0.625000X0.400000X-0.625000X0*%
%ADD24RoundRect,0.250000X0.412500X0.650000X-0.412500X0.650000X-0.412500X-0.650000X0.412500X-0.650000X0*%
%ADD25RoundRect,0.250000X0.650000X-0.412500X0.650000X0.412500X-0.650000X0.412500X-0.650000X-0.412500X0*%
%ADD26RoundRect,0.250000X-0.400000X-0.625000X0.400000X-0.625000X0.400000X0.625000X-0.400000X0.625000X0*%
%ADD27RoundRect,0.250000X0.625000X-0.400000X0.625000X0.400000X-0.625000X0.400000X-0.625000X-0.400000X0*%
G04 APERTURE END LIST*
D10*
X140182857Y-53748076D02*
X140516190Y-53271885D01*
X140754285Y-53748076D02*
X140754285Y-52748076D01*
X140754285Y-52748076D02*
X140373333Y-52748076D01*
X140373333Y-52748076D02*
X140278095Y-52795695D01*
X140278095Y-52795695D02*
X140230476Y-52843314D01*
X140230476Y-52843314D02*
X140182857Y-52938552D01*
X140182857Y-52938552D02*
X140182857Y-53081409D01*
X140182857Y-53081409D02*
X140230476Y-53176647D01*
X140230476Y-53176647D02*
X140278095Y-53224266D01*
X140278095Y-53224266D02*
X140373333Y-53271885D01*
X140373333Y-53271885D02*
X140754285Y-53271885D01*
X139801904Y-52843314D02*
X139754285Y-52795695D01*
X139754285Y-52795695D02*
X139659047Y-52748076D01*
X139659047Y-52748076D02*
X139420952Y-52748076D01*
X139420952Y-52748076D02*
X139325714Y-52795695D01*
X139325714Y-52795695D02*
X139278095Y-52843314D01*
X139278095Y-52843314D02*
X139230476Y-52938552D01*
X139230476Y-52938552D02*
X139230476Y-53033790D01*
X139230476Y-53033790D02*
X139278095Y-53176647D01*
X139278095Y-53176647D02*
X139849523Y-53748076D01*
X139849523Y-53748076D02*
X139230476Y-53748076D01*
X138659047Y-53176647D02*
X138754285Y-53129028D01*
X138754285Y-53129028D02*
X138801904Y-53081409D01*
X138801904Y-53081409D02*
X138849523Y-52986171D01*
X138849523Y-52986171D02*
X138849523Y-52938552D01*
X138849523Y-52938552D02*
X138801904Y-52843314D01*
X138801904Y-52843314D02*
X138754285Y-52795695D01*
X138754285Y-52795695D02*
X138659047Y-52748076D01*
X138659047Y-52748076D02*
X138468571Y-52748076D01*
X138468571Y-52748076D02*
X138373333Y-52795695D01*
X138373333Y-52795695D02*
X138325714Y-52843314D01*
X138325714Y-52843314D02*
X138278095Y-52938552D01*
X138278095Y-52938552D02*
X138278095Y-52986171D01*
X138278095Y-52986171D02*
X138325714Y-53081409D01*
X138325714Y-53081409D02*
X138373333Y-53129028D01*
X138373333Y-53129028D02*
X138468571Y-53176647D01*
X138468571Y-53176647D02*
X138659047Y-53176647D01*
X138659047Y-53176647D02*
X138754285Y-53224266D01*
X138754285Y-53224266D02*
X138801904Y-53271885D01*
X138801904Y-53271885D02*
X138849523Y-53367123D01*
X138849523Y-53367123D02*
X138849523Y-53557599D01*
X138849523Y-53557599D02*
X138801904Y-53652837D01*
X138801904Y-53652837D02*
X138754285Y-53700457D01*
X138754285Y-53700457D02*
X138659047Y-53748076D01*
X138659047Y-53748076D02*
X138468571Y-53748076D01*
X138468571Y-53748076D02*
X138373333Y-53700457D01*
X138373333Y-53700457D02*
X138325714Y-53652837D01*
X138325714Y-53652837D02*
X138278095Y-53557599D01*
X138278095Y-53557599D02*
X138278095Y-53367123D01*
X138278095Y-53367123D02*
X138325714Y-53271885D01*
X138325714Y-53271885D02*
X138373333Y-53224266D01*
X138373333Y-53224266D02*
X138468571Y-53176647D01*
X135232857Y-44632837D02*
X135280476Y-44680457D01*
X135280476Y-44680457D02*
X135423333Y-44728076D01*
X135423333Y-44728076D02*
X135518571Y-44728076D01*
X135518571Y-44728076D02*
X135661428Y-44680457D01*
X135661428Y-44680457D02*
X135756666Y-44585218D01*
X135756666Y-44585218D02*
X135804285Y-44489980D01*
X135804285Y-44489980D02*
X135851904Y-44299504D01*
X135851904Y-44299504D02*
X135851904Y-44156647D01*
X135851904Y-44156647D02*
X135804285Y-43966171D01*
X135804285Y-43966171D02*
X135756666Y-43870933D01*
X135756666Y-43870933D02*
X135661428Y-43775695D01*
X135661428Y-43775695D02*
X135518571Y-43728076D01*
X135518571Y-43728076D02*
X135423333Y-43728076D01*
X135423333Y-43728076D02*
X135280476Y-43775695D01*
X135280476Y-43775695D02*
X135232857Y-43823314D01*
X134851904Y-43823314D02*
X134804285Y-43775695D01*
X134804285Y-43775695D02*
X134709047Y-43728076D01*
X134709047Y-43728076D02*
X134470952Y-43728076D01*
X134470952Y-43728076D02*
X134375714Y-43775695D01*
X134375714Y-43775695D02*
X134328095Y-43823314D01*
X134328095Y-43823314D02*
X134280476Y-43918552D01*
X134280476Y-43918552D02*
X134280476Y-44013790D01*
X134280476Y-44013790D02*
X134328095Y-44156647D01*
X134328095Y-44156647D02*
X134899523Y-44728076D01*
X134899523Y-44728076D02*
X134280476Y-44728076D01*
X133804285Y-44728076D02*
X133613809Y-44728076D01*
X133613809Y-44728076D02*
X133518571Y-44680457D01*
X133518571Y-44680457D02*
X133470952Y-44632837D01*
X133470952Y-44632837D02*
X133375714Y-44489980D01*
X133375714Y-44489980D02*
X133328095Y-44299504D01*
X133328095Y-44299504D02*
X133328095Y-43918552D01*
X133328095Y-43918552D02*
X133375714Y-43823314D01*
X133375714Y-43823314D02*
X133423333Y-43775695D01*
X133423333Y-43775695D02*
X133518571Y-43728076D01*
X133518571Y-43728076D02*
X133709047Y-43728076D01*
X133709047Y-43728076D02*
X133804285Y-43775695D01*
X133804285Y-43775695D02*
X133851904Y-43823314D01*
X133851904Y-43823314D02*
X133899523Y-43918552D01*
X133899523Y-43918552D02*
X133899523Y-44156647D01*
X133899523Y-44156647D02*
X133851904Y-44251885D01*
X133851904Y-44251885D02*
X133804285Y-44299504D01*
X133804285Y-44299504D02*
X133709047Y-44347123D01*
X133709047Y-44347123D02*
X133518571Y-44347123D01*
X133518571Y-44347123D02*
X133423333Y-44299504D01*
X133423333Y-44299504D02*
X133375714Y-44251885D01*
X133375714Y-44251885D02*
X133328095Y-44156647D01*
X144382857Y-44232837D02*
X144430476Y-44280457D01*
X144430476Y-44280457D02*
X144573333Y-44328076D01*
X144573333Y-44328076D02*
X144668571Y-44328076D01*
X144668571Y-44328076D02*
X144811428Y-44280457D01*
X144811428Y-44280457D02*
X144906666Y-44185218D01*
X144906666Y-44185218D02*
X144954285Y-44089980D01*
X144954285Y-44089980D02*
X145001904Y-43899504D01*
X145001904Y-43899504D02*
X145001904Y-43756647D01*
X145001904Y-43756647D02*
X144954285Y-43566171D01*
X144954285Y-43566171D02*
X144906666Y-43470933D01*
X144906666Y-43470933D02*
X144811428Y-43375695D01*
X144811428Y-43375695D02*
X144668571Y-43328076D01*
X144668571Y-43328076D02*
X144573333Y-43328076D01*
X144573333Y-43328076D02*
X144430476Y-43375695D01*
X144430476Y-43375695D02*
X144382857Y-43423314D01*
X144001904Y-43423314D02*
X143954285Y-43375695D01*
X143954285Y-43375695D02*
X143859047Y-43328076D01*
X143859047Y-43328076D02*
X143620952Y-43328076D01*
X143620952Y-43328076D02*
X143525714Y-43375695D01*
X143525714Y-43375695D02*
X143478095Y-43423314D01*
X143478095Y-43423314D02*
X143430476Y-43518552D01*
X143430476Y-43518552D02*
X143430476Y-43613790D01*
X143430476Y-43613790D02*
X143478095Y-43756647D01*
X143478095Y-43756647D02*
X144049523Y-44328076D01*
X144049523Y-44328076D02*
X143430476Y-44328076D01*
X142859047Y-43756647D02*
X142954285Y-43709028D01*
X142954285Y-43709028D02*
X143001904Y-43661409D01*
X143001904Y-43661409D02*
X143049523Y-43566171D01*
X143049523Y-43566171D02*
X143049523Y-43518552D01*
X143049523Y-43518552D02*
X143001904Y-43423314D01*
X143001904Y-43423314D02*
X142954285Y-43375695D01*
X142954285Y-43375695D02*
X142859047Y-43328076D01*
X142859047Y-43328076D02*
X142668571Y-43328076D01*
X142668571Y-43328076D02*
X142573333Y-43375695D01*
X142573333Y-43375695D02*
X142525714Y-43423314D01*
X142525714Y-43423314D02*
X142478095Y-43518552D01*
X142478095Y-43518552D02*
X142478095Y-43566171D01*
X142478095Y-43566171D02*
X142525714Y-43661409D01*
X142525714Y-43661409D02*
X142573333Y-43709028D01*
X142573333Y-43709028D02*
X142668571Y-43756647D01*
X142668571Y-43756647D02*
X142859047Y-43756647D01*
X142859047Y-43756647D02*
X142954285Y-43804266D01*
X142954285Y-43804266D02*
X143001904Y-43851885D01*
X143001904Y-43851885D02*
X143049523Y-43947123D01*
X143049523Y-43947123D02*
X143049523Y-44137599D01*
X143049523Y-44137599D02*
X143001904Y-44232837D01*
X143001904Y-44232837D02*
X142954285Y-44280457D01*
X142954285Y-44280457D02*
X142859047Y-44328076D01*
X142859047Y-44328076D02*
X142668571Y-44328076D01*
X142668571Y-44328076D02*
X142573333Y-44280457D01*
X142573333Y-44280457D02*
X142525714Y-44232837D01*
X142525714Y-44232837D02*
X142478095Y-44137599D01*
X142478095Y-44137599D02*
X142478095Y-43947123D01*
X142478095Y-43947123D02*
X142525714Y-43851885D01*
X142525714Y-43851885D02*
X142573333Y-43804266D01*
X142573333Y-43804266D02*
X142668571Y-43756647D01*
X135582857Y-38008076D02*
X135916190Y-37531885D01*
X136154285Y-38008076D02*
X136154285Y-37008076D01*
X136154285Y-37008076D02*
X135773333Y-37008076D01*
X135773333Y-37008076D02*
X135678095Y-37055695D01*
X135678095Y-37055695D02*
X135630476Y-37103314D01*
X135630476Y-37103314D02*
X135582857Y-37198552D01*
X135582857Y-37198552D02*
X135582857Y-37341409D01*
X135582857Y-37341409D02*
X135630476Y-37436647D01*
X135630476Y-37436647D02*
X135678095Y-37484266D01*
X135678095Y-37484266D02*
X135773333Y-37531885D01*
X135773333Y-37531885D02*
X136154285Y-37531885D01*
X135201904Y-37103314D02*
X135154285Y-37055695D01*
X135154285Y-37055695D02*
X135059047Y-37008076D01*
X135059047Y-37008076D02*
X134820952Y-37008076D01*
X134820952Y-37008076D02*
X134725714Y-37055695D01*
X134725714Y-37055695D02*
X134678095Y-37103314D01*
X134678095Y-37103314D02*
X134630476Y-37198552D01*
X134630476Y-37198552D02*
X134630476Y-37293790D01*
X134630476Y-37293790D02*
X134678095Y-37436647D01*
X134678095Y-37436647D02*
X135249523Y-38008076D01*
X135249523Y-38008076D02*
X134630476Y-38008076D01*
X134154285Y-38008076D02*
X133963809Y-38008076D01*
X133963809Y-38008076D02*
X133868571Y-37960457D01*
X133868571Y-37960457D02*
X133820952Y-37912837D01*
X133820952Y-37912837D02*
X133725714Y-37769980D01*
X133725714Y-37769980D02*
X133678095Y-37579504D01*
X133678095Y-37579504D02*
X133678095Y-37198552D01*
X133678095Y-37198552D02*
X133725714Y-37103314D01*
X133725714Y-37103314D02*
X133773333Y-37055695D01*
X133773333Y-37055695D02*
X133868571Y-37008076D01*
X133868571Y-37008076D02*
X134059047Y-37008076D01*
X134059047Y-37008076D02*
X134154285Y-37055695D01*
X134154285Y-37055695D02*
X134201904Y-37103314D01*
X134201904Y-37103314D02*
X134249523Y-37198552D01*
X134249523Y-37198552D02*
X134249523Y-37436647D01*
X134249523Y-37436647D02*
X134201904Y-37531885D01*
X134201904Y-37531885D02*
X134154285Y-37579504D01*
X134154285Y-37579504D02*
X134059047Y-37627123D01*
X134059047Y-37627123D02*
X133868571Y-37627123D01*
X133868571Y-37627123D02*
X133773333Y-37579504D01*
X133773333Y-37579504D02*
X133725714Y-37531885D01*
X133725714Y-37531885D02*
X133678095Y-37436647D01*
X135542857Y-43168076D02*
X135876190Y-42691885D01*
X136114285Y-43168076D02*
X136114285Y-42168076D01*
X136114285Y-42168076D02*
X135733333Y-42168076D01*
X135733333Y-42168076D02*
X135638095Y-42215695D01*
X135638095Y-42215695D02*
X135590476Y-42263314D01*
X135590476Y-42263314D02*
X135542857Y-42358552D01*
X135542857Y-42358552D02*
X135542857Y-42501409D01*
X135542857Y-42501409D02*
X135590476Y-42596647D01*
X135590476Y-42596647D02*
X135638095Y-42644266D01*
X135638095Y-42644266D02*
X135733333Y-42691885D01*
X135733333Y-42691885D02*
X136114285Y-42691885D01*
X135161904Y-42263314D02*
X135114285Y-42215695D01*
X135114285Y-42215695D02*
X135019047Y-42168076D01*
X135019047Y-42168076D02*
X134780952Y-42168076D01*
X134780952Y-42168076D02*
X134685714Y-42215695D01*
X134685714Y-42215695D02*
X134638095Y-42263314D01*
X134638095Y-42263314D02*
X134590476Y-42358552D01*
X134590476Y-42358552D02*
X134590476Y-42453790D01*
X134590476Y-42453790D02*
X134638095Y-42596647D01*
X134638095Y-42596647D02*
X135209523Y-43168076D01*
X135209523Y-43168076D02*
X134590476Y-43168076D01*
X134257142Y-42168076D02*
X133590476Y-42168076D01*
X133590476Y-42168076D02*
X134019047Y-43168076D01*
X152374819Y-47430399D02*
X151898628Y-47097066D01*
X152374819Y-46858971D02*
X151374819Y-46858971D01*
X151374819Y-46858971D02*
X151374819Y-47239923D01*
X151374819Y-47239923D02*
X151422438Y-47335161D01*
X151422438Y-47335161D02*
X151470057Y-47382780D01*
X151470057Y-47382780D02*
X151565295Y-47430399D01*
X151565295Y-47430399D02*
X151708152Y-47430399D01*
X151708152Y-47430399D02*
X151803390Y-47382780D01*
X151803390Y-47382780D02*
X151851009Y-47335161D01*
X151851009Y-47335161D02*
X151898628Y-47239923D01*
X151898628Y-47239923D02*
X151898628Y-46858971D01*
X151374819Y-47763733D02*
X151374819Y-48382780D01*
X151374819Y-48382780D02*
X151755771Y-48049447D01*
X151755771Y-48049447D02*
X151755771Y-48192304D01*
X151755771Y-48192304D02*
X151803390Y-48287542D01*
X151803390Y-48287542D02*
X151851009Y-48335161D01*
X151851009Y-48335161D02*
X151946247Y-48382780D01*
X151946247Y-48382780D02*
X152184342Y-48382780D01*
X152184342Y-48382780D02*
X152279580Y-48335161D01*
X152279580Y-48335161D02*
X152327200Y-48287542D01*
X152327200Y-48287542D02*
X152374819Y-48192304D01*
X152374819Y-48192304D02*
X152374819Y-47906590D01*
X152374819Y-47906590D02*
X152327200Y-47811352D01*
X152327200Y-47811352D02*
X152279580Y-47763733D01*
X151374819Y-49001828D02*
X151374819Y-49097066D01*
X151374819Y-49097066D02*
X151422438Y-49192304D01*
X151422438Y-49192304D02*
X151470057Y-49239923D01*
X151470057Y-49239923D02*
X151565295Y-49287542D01*
X151565295Y-49287542D02*
X151755771Y-49335161D01*
X151755771Y-49335161D02*
X151993866Y-49335161D01*
X151993866Y-49335161D02*
X152184342Y-49287542D01*
X152184342Y-49287542D02*
X152279580Y-49239923D01*
X152279580Y-49239923D02*
X152327200Y-49192304D01*
X152327200Y-49192304D02*
X152374819Y-49097066D01*
X152374819Y-49097066D02*
X152374819Y-49001828D01*
X152374819Y-49001828D02*
X152327200Y-48906590D01*
X152327200Y-48906590D02*
X152279580Y-48858971D01*
X152279580Y-48858971D02*
X152184342Y-48811352D01*
X152184342Y-48811352D02*
X151993866Y-48763733D01*
X151993866Y-48763733D02*
X151755771Y-48763733D01*
X151755771Y-48763733D02*
X151565295Y-48811352D01*
X151565295Y-48811352D02*
X151470057Y-48858971D01*
X151470057Y-48858971D02*
X151422438Y-48906590D01*
X151422438Y-48906590D02*
X151374819Y-49001828D01*
X152374819Y-41180399D02*
X151898628Y-40847066D01*
X152374819Y-40608971D02*
X151374819Y-40608971D01*
X151374819Y-40608971D02*
X151374819Y-40989923D01*
X151374819Y-40989923D02*
X151422438Y-41085161D01*
X151422438Y-41085161D02*
X151470057Y-41132780D01*
X151470057Y-41132780D02*
X151565295Y-41180399D01*
X151565295Y-41180399D02*
X151708152Y-41180399D01*
X151708152Y-41180399D02*
X151803390Y-41132780D01*
X151803390Y-41132780D02*
X151851009Y-41085161D01*
X151851009Y-41085161D02*
X151898628Y-40989923D01*
X151898628Y-40989923D02*
X151898628Y-40608971D01*
X151374819Y-41513733D02*
X151374819Y-42132780D01*
X151374819Y-42132780D02*
X151755771Y-41799447D01*
X151755771Y-41799447D02*
X151755771Y-41942304D01*
X151755771Y-41942304D02*
X151803390Y-42037542D01*
X151803390Y-42037542D02*
X151851009Y-42085161D01*
X151851009Y-42085161D02*
X151946247Y-42132780D01*
X151946247Y-42132780D02*
X152184342Y-42132780D01*
X152184342Y-42132780D02*
X152279580Y-42085161D01*
X152279580Y-42085161D02*
X152327200Y-42037542D01*
X152327200Y-42037542D02*
X152374819Y-41942304D01*
X152374819Y-41942304D02*
X152374819Y-41656590D01*
X152374819Y-41656590D02*
X152327200Y-41561352D01*
X152327200Y-41561352D02*
X152279580Y-41513733D01*
X151470057Y-42513733D02*
X151422438Y-42561352D01*
X151422438Y-42561352D02*
X151374819Y-42656590D01*
X151374819Y-42656590D02*
X151374819Y-42894685D01*
X151374819Y-42894685D02*
X151422438Y-42989923D01*
X151422438Y-42989923D02*
X151470057Y-43037542D01*
X151470057Y-43037542D02*
X151565295Y-43085161D01*
X151565295Y-43085161D02*
X151660533Y-43085161D01*
X151660533Y-43085161D02*
X151803390Y-43037542D01*
X151803390Y-43037542D02*
X152374819Y-42466114D01*
X152374819Y-42466114D02*
X152374819Y-43085161D01*
X124044819Y-31030399D02*
X123568628Y-30697066D01*
X124044819Y-30458971D02*
X123044819Y-30458971D01*
X123044819Y-30458971D02*
X123044819Y-30839923D01*
X123044819Y-30839923D02*
X123092438Y-30935161D01*
X123092438Y-30935161D02*
X123140057Y-30982780D01*
X123140057Y-30982780D02*
X123235295Y-31030399D01*
X123235295Y-31030399D02*
X123378152Y-31030399D01*
X123378152Y-31030399D02*
X123473390Y-30982780D01*
X123473390Y-30982780D02*
X123521009Y-30935161D01*
X123521009Y-30935161D02*
X123568628Y-30839923D01*
X123568628Y-30839923D02*
X123568628Y-30458971D01*
X123140057Y-31411352D02*
X123092438Y-31458971D01*
X123092438Y-31458971D02*
X123044819Y-31554209D01*
X123044819Y-31554209D02*
X123044819Y-31792304D01*
X123044819Y-31792304D02*
X123092438Y-31887542D01*
X123092438Y-31887542D02*
X123140057Y-31935161D01*
X123140057Y-31935161D02*
X123235295Y-31982780D01*
X123235295Y-31982780D02*
X123330533Y-31982780D01*
X123330533Y-31982780D02*
X123473390Y-31935161D01*
X123473390Y-31935161D02*
X124044819Y-31363733D01*
X124044819Y-31363733D02*
X124044819Y-31982780D01*
X123044819Y-32887542D02*
X123044819Y-32411352D01*
X123044819Y-32411352D02*
X123521009Y-32363733D01*
X123521009Y-32363733D02*
X123473390Y-32411352D01*
X123473390Y-32411352D02*
X123425771Y-32506590D01*
X123425771Y-32506590D02*
X123425771Y-32744685D01*
X123425771Y-32744685D02*
X123473390Y-32839923D01*
X123473390Y-32839923D02*
X123521009Y-32887542D01*
X123521009Y-32887542D02*
X123616247Y-32935161D01*
X123616247Y-32935161D02*
X123854342Y-32935161D01*
X123854342Y-32935161D02*
X123949580Y-32887542D01*
X123949580Y-32887542D02*
X123997200Y-32839923D01*
X123997200Y-32839923D02*
X124044819Y-32744685D01*
X124044819Y-32744685D02*
X124044819Y-32506590D01*
X124044819Y-32506590D02*
X123997200Y-32411352D01*
X123997200Y-32411352D02*
X123949580Y-32363733D01*
X124682857Y-45878076D02*
X125016190Y-45401885D01*
X125254285Y-45878076D02*
X125254285Y-44878076D01*
X125254285Y-44878076D02*
X124873333Y-44878076D01*
X124873333Y-44878076D02*
X124778095Y-44925695D01*
X124778095Y-44925695D02*
X124730476Y-44973314D01*
X124730476Y-44973314D02*
X124682857Y-45068552D01*
X124682857Y-45068552D02*
X124682857Y-45211409D01*
X124682857Y-45211409D02*
X124730476Y-45306647D01*
X124730476Y-45306647D02*
X124778095Y-45354266D01*
X124778095Y-45354266D02*
X124873333Y-45401885D01*
X124873333Y-45401885D02*
X125254285Y-45401885D01*
X124301904Y-44973314D02*
X124254285Y-44925695D01*
X124254285Y-44925695D02*
X124159047Y-44878076D01*
X124159047Y-44878076D02*
X123920952Y-44878076D01*
X123920952Y-44878076D02*
X123825714Y-44925695D01*
X123825714Y-44925695D02*
X123778095Y-44973314D01*
X123778095Y-44973314D02*
X123730476Y-45068552D01*
X123730476Y-45068552D02*
X123730476Y-45163790D01*
X123730476Y-45163790D02*
X123778095Y-45306647D01*
X123778095Y-45306647D02*
X124349523Y-45878076D01*
X124349523Y-45878076D02*
X123730476Y-45878076D01*
X122873333Y-44878076D02*
X123063809Y-44878076D01*
X123063809Y-44878076D02*
X123159047Y-44925695D01*
X123159047Y-44925695D02*
X123206666Y-44973314D01*
X123206666Y-44973314D02*
X123301904Y-45116171D01*
X123301904Y-45116171D02*
X123349523Y-45306647D01*
X123349523Y-45306647D02*
X123349523Y-45687599D01*
X123349523Y-45687599D02*
X123301904Y-45782837D01*
X123301904Y-45782837D02*
X123254285Y-45830457D01*
X123254285Y-45830457D02*
X123159047Y-45878076D01*
X123159047Y-45878076D02*
X122968571Y-45878076D01*
X122968571Y-45878076D02*
X122873333Y-45830457D01*
X122873333Y-45830457D02*
X122825714Y-45782837D01*
X122825714Y-45782837D02*
X122778095Y-45687599D01*
X122778095Y-45687599D02*
X122778095Y-45449504D01*
X122778095Y-45449504D02*
X122825714Y-45354266D01*
X122825714Y-45354266D02*
X122873333Y-45306647D01*
X122873333Y-45306647D02*
X122968571Y-45259028D01*
X122968571Y-45259028D02*
X123159047Y-45259028D01*
X123159047Y-45259028D02*
X123254285Y-45306647D01*
X123254285Y-45306647D02*
X123301904Y-45354266D01*
X123301904Y-45354266D02*
X123349523Y-45449504D01*
%TO.C,R28*%
D11*
X140267064Y-54213257D02*
X138812936Y-54213257D01*
X140267064Y-56033257D02*
X138812936Y-56033257D01*
%TO.C,C29*%
X135301252Y-45213257D02*
X133878748Y-45213257D01*
X135301252Y-47033257D02*
X133878748Y-47033257D01*
%TO.C,C28*%
X143030000Y-41084509D02*
X143030000Y-39662005D01*
X144850000Y-41084509D02*
X144850000Y-39662005D01*
%TO.C,R29*%
X134212936Y-34813257D02*
X135667064Y-34813257D01*
X134212936Y-36633257D02*
X135667064Y-36633257D01*
%TO.C,R27*%
X134172936Y-39973257D02*
X135627064Y-39973257D01*
X134172936Y-41793257D02*
X135627064Y-41793257D01*
%TO.C,R30*%
X149180000Y-48800321D02*
X149180000Y-47346193D01*
X151000000Y-48800321D02*
X151000000Y-47346193D01*
%TO.C,R32*%
X149180000Y-42550321D02*
X149180000Y-41096193D01*
X151000000Y-42550321D02*
X151000000Y-41096193D01*
%TO.C,R25*%
X124680000Y-32350321D02*
X124680000Y-30896193D01*
X126500000Y-32350321D02*
X126500000Y-30896193D01*
%TO.C,R26*%
X124867064Y-46513257D02*
X123412936Y-46513257D01*
X124867064Y-48333257D02*
X123412936Y-48333257D01*
%TD*%
%LPC*%
D12*
%TO.C,C35*%
X152940000Y-52323257D03*
D13*
X160440000Y-52323257D03*
%TD*%
D14*
%TO.C,C32*%
X134640000Y-55123257D03*
X129640000Y-55123257D03*
%TD*%
D15*
%TO.C,H11*%
X174040000Y-57973257D03*
%TD*%
D16*
%TO.C,J10*%
X126340000Y-37673257D03*
D17*
X126340000Y-42753257D03*
%TD*%
D14*
%TO.C,C30*%
X133790000Y-26373257D03*
X128790000Y-26373257D03*
%TD*%
D18*
%TO.C,AMP1*%
X139030000Y-38513257D03*
D14*
X139030000Y-41053257D03*
X139030000Y-43593257D03*
X139030000Y-46133257D03*
X146650000Y-46133257D03*
X146650000Y-43593257D03*
X146650000Y-41053257D03*
X146650000Y-38513257D03*
%TD*%
D19*
%TO.C,J9*%
X149240000Y-26723257D03*
D17*
X144160000Y-26723257D03*
X139080000Y-26723257D03*
%TD*%
D12*
%TO.C,C34*%
X158740000Y-29123257D03*
D13*
X166240000Y-29123257D03*
%TD*%
D15*
%TO.C,H12*%
X122890000Y-58023257D03*
%TD*%
%TO.C,H10*%
X174140000Y-23423257D03*
%TD*%
D20*
%TO.C,C31*%
X130440000Y-30473257D03*
D14*
X130440000Y-32473257D03*
%TD*%
D21*
%TO.C,J11*%
X170440000Y-45903257D03*
D17*
X170440000Y-40823257D03*
%TD*%
D15*
%TO.C,H9*%
X122890000Y-23473257D03*
%TD*%
D22*
%TO.C,C33*%
X133940000Y-50823257D03*
D14*
X133940000Y-48823257D03*
%TD*%
D23*
%TO.C,R28*%
X141090000Y-55123257D03*
X137990000Y-55123257D03*
%TD*%
D24*
%TO.C,C29*%
X136152500Y-46123257D03*
X133027500Y-46123257D03*
%TD*%
D25*
%TO.C,C28*%
X143940000Y-41935757D03*
X143940000Y-38810757D03*
%TD*%
D26*
%TO.C,R29*%
X133390000Y-35723257D03*
X136490000Y-35723257D03*
%TD*%
%TO.C,R27*%
X133350000Y-40883257D03*
X136450000Y-40883257D03*
%TD*%
D27*
%TO.C,R30*%
X150090000Y-49623257D03*
X150090000Y-46523257D03*
%TD*%
%TO.C,R32*%
X150090000Y-43373257D03*
X150090000Y-40273257D03*
%TD*%
%TO.C,R25*%
X125590000Y-33173257D03*
X125590000Y-30073257D03*
%TD*%
D23*
%TO.C,R26*%
X125690000Y-47423257D03*
X122590000Y-47423257D03*
%TD*%
%LPD*%
M02*
