%TF.GenerationSoftware,KiCad,Pcbnew,10.0.1*%
%TF.CreationDate,2026-07-08T01:24:16+09:00*%
%TF.ProjectId,AudioCase_4_amp,41756469-6f43-4617-9365-5f345f616d70,rev?*%
%TF.SameCoordinates,Original*%
%TF.FileFunction,Copper,L2,Bot*%
%TF.FilePolarity,Positive*%
%FSLAX46Y46*%
G04 Gerber Fmt 4.6, Leading zero omitted, Abs format (unit mm)*
G04 Created by KiCad (PCBNEW 10.0.1) date 2026-07-08 01:24:16*
%MOMM*%
%LPD*%
G01*
G04 APERTURE LIST*
G04 Aperture macros list*
%AMRoundRect*
0 Rectangle with rounded corners*
0 $1 Rounding radius*
0 $2 $3 $4 $5 $6 $7 $8 $9 X,Y pos of 4 corners*
0 Add a 4 corners polygon primitive as box body*
4,1,4,$2,$3,$4,$5,$6,$7,$8,$9,$2,$3,0*
0 Add four circle primitives for the rounded corners*
1,1,$1+$1,$2,$3*
1,1,$1+$1,$4,$5*
1,1,$1+$1,$6,$7*
1,1,$1+$1,$8,$9*
0 Add four rect primitives between the rounded corners*
20,1,$1+$1,$2,$3,$4,$5,0*
20,1,$1+$1,$4,$5,$6,$7,0*
20,1,$1+$1,$6,$7,$8,$9,0*
20,1,$1+$1,$8,$9,$2,$3,0*%
G04 Aperture macros list end*
%TA.AperFunction,ComponentPad*%
%ADD10RoundRect,0.250001X-0.949999X-0.949999X0.949999X-0.949999X0.949999X0.949999X-0.949999X0.949999X0*%
%TD*%
%TA.AperFunction,ComponentPad*%
%ADD11C,2.400000*%
%TD*%
%TA.AperFunction,ComponentPad*%
%ADD12C,1.600000*%
%TD*%
%TA.AperFunction,ComponentPad*%
%ADD13RoundRect,0.250000X-1.050000X1.050000X-1.050000X-1.050000X1.050000X-1.050000X1.050000X1.050000X0*%
%TD*%
%TA.AperFunction,ComponentPad*%
%ADD14C,2.600000*%
%TD*%
%TA.AperFunction,ComponentPad*%
%ADD15RoundRect,0.250000X-0.550000X-0.550000X0.550000X-0.550000X0.550000X0.550000X-0.550000X0.550000X0*%
%TD*%
%TA.AperFunction,ComponentPad*%
%ADD16RoundRect,0.250000X1.050000X1.050000X-1.050000X1.050000X-1.050000X-1.050000X1.050000X-1.050000X0*%
%TD*%
%TA.AperFunction,ComponentPad*%
%ADD17RoundRect,0.250000X-0.550000X0.550000X-0.550000X-0.550000X0.550000X-0.550000X0.550000X0.550000X0*%
%TD*%
%TA.AperFunction,ComponentPad*%
%ADD18RoundRect,0.250000X1.050000X-1.050000X1.050000X1.050000X-1.050000X1.050000X-1.050000X-1.050000X0*%
%TD*%
%TA.AperFunction,ComponentPad*%
%ADD19RoundRect,0.250000X0.550000X-0.550000X0.550000X0.550000X-0.550000X0.550000X-0.550000X-0.550000X0*%
%TD*%
%TA.AperFunction,SMDPad,CuDef*%
%ADD20RoundRect,0.250000X0.400000X0.625000X-0.400000X0.625000X-0.400000X-0.625000X0.400000X-0.625000X0*%
%TD*%
%TA.AperFunction,SMDPad,CuDef*%
%ADD21RoundRect,0.250000X0.412500X0.650000X-0.412500X0.650000X-0.412500X-0.650000X0.412500X-0.650000X0*%
%TD*%
%TA.AperFunction,SMDPad,CuDef*%
%ADD22RoundRect,0.250000X0.650000X-0.412500X0.650000X0.412500X-0.650000X0.412500X-0.650000X-0.412500X0*%
%TD*%
%TA.AperFunction,SMDPad,CuDef*%
%ADD23RoundRect,0.250000X-0.400000X-0.625000X0.400000X-0.625000X0.400000X0.625000X-0.400000X0.625000X0*%
%TD*%
%TA.AperFunction,SMDPad,CuDef*%
%ADD24RoundRect,0.250000X0.625000X-0.400000X0.625000X0.400000X-0.625000X0.400000X-0.625000X-0.400000X0*%
%TD*%
%TA.AperFunction,ViaPad*%
%ADD25C,0.600000*%
%TD*%
%TA.AperFunction,Conductor*%
%ADD26C,0.500000*%
%TD*%
%TA.AperFunction,Conductor*%
%ADD27C,1.000000*%
%TD*%
G04 APERTURE END LIST*
D10*
%TO.P,C35,1*%
%TO.N,Net-(C35-Pad1)*%
X152940000Y-52323257D03*
D11*
%TO.P,C35,2*%
%TO.N,/AmpModule/L_OUT*%
X160440000Y-52323257D03*
%TD*%
D12*
%TO.P,C32,1*%
%TO.N,Net-(AMP1B-+)*%
X134640000Y-55123257D03*
%TO.P,C32,2*%
%TO.N,/AmpModule/L_IN*%
X129640000Y-55123257D03*
%TD*%
D13*
%TO.P,J10,1,Pin_1_1*%
%TO.N,/AmpModule/R_IN*%
X126340000Y-37673257D03*
D14*
%TO.P,J10,2,Pin_2_2*%
%TO.N,/AmpModule/L_IN*%
X126340000Y-42753257D03*
%TD*%
D12*
%TO.P,C30,1*%
%TO.N,Net-(AMP1A-+)*%
X133790000Y-26373257D03*
%TO.P,C30,2*%
%TO.N,/AmpModule/R_IN*%
X128790000Y-26373257D03*
%TD*%
D15*
%TO.P,AMP1,1*%
%TO.N,Net-(AMP1-Pad1)*%
X139030000Y-38513257D03*
D12*
%TO.P,AMP1,2,-_2*%
%TO.N,Net-(AMP1A--)*%
X139030000Y-41053257D03*
%TO.P,AMP1,3,+_3*%
%TO.N,Net-(AMP1A-+)*%
X139030000Y-43593257D03*
%TO.P,AMP1,4,V-_4*%
%TO.N,/AmpModule/V-_IN*%
X139030000Y-46133257D03*
%TO.P,AMP1,5,+_5*%
%TO.N,Net-(AMP1B-+)*%
X146650000Y-46133257D03*
%TO.P,AMP1,6,-_6*%
%TO.N,Net-(AMP1B--)*%
X146650000Y-43593257D03*
%TO.P,AMP1,7*%
%TO.N,Net-(AMP1-Pad7)*%
X146650000Y-41053257D03*
%TO.P,AMP1,8,V+_8*%
%TO.N,/AmpModule/V+_IN*%
X146650000Y-38513257D03*
%TD*%
D16*
%TO.P,J9,1,Pin_1_1*%
%TO.N,/AmpModule/V+_IN*%
X149240000Y-26723257D03*
D14*
%TO.P,J9,2,Pin_2_2*%
%TO.N,GND*%
X144160000Y-26723257D03*
%TO.P,J9,3,Pin_3_3*%
%TO.N,/AmpModule/V-_IN*%
X139080000Y-26723257D03*
%TD*%
D10*
%TO.P,C34,1*%
%TO.N,Net-(C34-Pad1)*%
X158740000Y-29123257D03*
D11*
%TO.P,C34,2*%
%TO.N,/AmpModule/R_OUT*%
X166240000Y-29123257D03*
%TD*%
D17*
%TO.P,C31,1*%
%TO.N,Net-(AMP1A-+)*%
X130440000Y-30473257D03*
D12*
%TO.P,C31,2*%
%TO.N,/AmpModule/R_IN*%
X130440000Y-32473257D03*
%TD*%
D18*
%TO.P,J11,1,Pin_1_1*%
%TO.N,/AmpModule/L_OUT*%
X170440000Y-45903257D03*
D14*
%TO.P,J11,2,Pin_2_2*%
%TO.N,/AmpModule/R_OUT*%
X170440000Y-40823257D03*
%TD*%
D19*
%TO.P,C33,1*%
%TO.N,Net-(AMP1B-+)*%
X133940000Y-50823257D03*
D12*
%TO.P,C33,2*%
%TO.N,/AmpModule/L_IN*%
X133940000Y-48823257D03*
%TD*%
D20*
%TO.P,R28,1*%
%TO.N,GND*%
X141090000Y-55123257D03*
%TO.P,R28,2*%
%TO.N,Net-(AMP1B-+)*%
X137990000Y-55123257D03*
%TD*%
D21*
%TO.P,C29,1*%
%TO.N,/AmpModule/V-_IN*%
X136152500Y-46123257D03*
%TO.P,C29,2*%
%TO.N,GND*%
X133027500Y-46123257D03*
%TD*%
D22*
%TO.P,C28,1*%
%TO.N,GND*%
X143940000Y-41935757D03*
%TO.P,C28,2*%
%TO.N,/AmpModule/V+_IN*%
X143940000Y-38810757D03*
%TD*%
D23*
%TO.P,R29,1*%
%TO.N,Net-(AMP1A-+)*%
X133390000Y-35723257D03*
%TO.P,R29,2*%
%TO.N,GND*%
X136490000Y-35723257D03*
%TD*%
%TO.P,R27,1*%
%TO.N,GND*%
X133350000Y-40883257D03*
%TO.P,R27,2*%
%TO.N,Net-(AMP1A--)*%
X136450000Y-40883257D03*
%TD*%
D24*
%TO.P,R30,1*%
%TO.N,GND*%
X150090000Y-49623257D03*
%TO.P,R30,2*%
%TO.N,Net-(AMP1B--)*%
X150090000Y-46523257D03*
%TD*%
%TO.P,R32,1*%
%TO.N,Net-(AMP1B--)*%
X150090000Y-43373257D03*
%TO.P,R32,2*%
%TO.N,Net-(AMP1-Pad7)*%
X150090000Y-40273257D03*
%TD*%
%TO.P,R25,1*%
%TO.N,/AmpModule/R_IN*%
X125590000Y-33173257D03*
%TO.P,R25,2*%
%TO.N,GND*%
X125590000Y-30073257D03*
%TD*%
D20*
%TO.P,R26,1*%
%TO.N,/AmpModule/L_IN*%
X125690000Y-47423257D03*
%TO.P,R26,2*%
%TO.N,GND*%
X122590000Y-47423257D03*
%TD*%
D25*
%TO.N,Net-(AMP1A-+)*%
X133290000Y-35673257D03*
%TD*%
%TO.N,Net-(AMP1-Pad7)*%
D26*
X149310000Y-41053257D02*
X150090000Y-40273257D01*
X146650000Y-41053257D02*
X149310000Y-41053257D01*
%TO.N,Net-(AMP1B-+)*%
X137990000Y-55123257D02*
X137990000Y-54793257D01*
X137990000Y-54793257D02*
X146650000Y-46133257D01*
X134640000Y-55123257D02*
X137990000Y-55123257D01*
%TO.N,/AmpModule/L_IN*%
X125790000Y-43303257D02*
X125790000Y-47873257D01*
X126340000Y-42753257D02*
X125790000Y-43303257D01*
%TO.N,Net-(AMP1A--)*%
X136620000Y-41053257D02*
X136450000Y-40883257D01*
X139030000Y-41053257D02*
X136620000Y-41053257D01*
%TO.N,/AmpModule/R_IN*%
X125740000Y-37643257D02*
X125770000Y-37673257D01*
X125740000Y-33273257D02*
X125740000Y-37643257D01*
X125770000Y-37673257D02*
X126340000Y-37673257D01*
%TO.N,Net-(AMP1A-+)*%
X133665000Y-30373257D02*
X133690000Y-30348257D01*
X130590000Y-30423257D02*
X133615000Y-30423257D01*
X133690000Y-30348257D02*
X133690000Y-26423257D01*
X133615000Y-30423257D02*
X133665000Y-30373257D01*
%TO.N,/AmpModule/V-_IN*%
D27*
X139030000Y-46133257D02*
X136162500Y-46133257D01*
X140840000Y-27373257D02*
X140840000Y-44323257D01*
X139080000Y-26723257D02*
X140190000Y-26723257D01*
X136162500Y-46133257D02*
X136152500Y-46123257D01*
X140190000Y-26723257D02*
X140840000Y-27373257D01*
X140840000Y-44323257D02*
X139030000Y-46133257D01*
%TO.N,Net-(AMP1B--)*%
D26*
X146720000Y-43523257D02*
X146650000Y-43593257D01*
X150290000Y-43523257D02*
X146720000Y-43523257D01*
X150090000Y-46373257D02*
X150240000Y-46523257D01*
X150090000Y-43373257D02*
X150090000Y-46373257D01*
%TO.N,/AmpModule/V+_IN*%
D27*
X144237500Y-38513257D02*
X143940000Y-38810757D01*
X148677500Y-31985757D02*
X148677500Y-36485757D01*
X148677500Y-36485757D02*
X146650000Y-38513257D01*
X148790000Y-27173257D02*
X148790000Y-31873257D01*
X149240000Y-26723257D02*
X148790000Y-27173257D01*
X146650000Y-38513257D02*
X144237500Y-38513257D01*
X148790000Y-31873257D02*
X148677500Y-31985757D01*
%TD*%
%TA.AperFunction,Conductor*%
%TO.N,GND*%
G36*
X170533039Y-20520185D02*
G01*
X170578794Y-20572989D01*
X170590000Y-20624500D01*
X170590000Y-26973257D01*
X176965500Y-26973257D01*
X177032539Y-26992942D01*
X177078294Y-27045746D01*
X177089500Y-27097257D01*
X177089500Y-54349257D01*
X177069815Y-54416296D01*
X177017011Y-54462051D01*
X176965500Y-54473257D01*
X170540000Y-54473257D01*
X170540000Y-60875500D01*
X170520315Y-60942539D01*
X170467511Y-60988294D01*
X170416000Y-60999500D01*
X126514000Y-60999500D01*
X126446961Y-60979815D01*
X126401206Y-60927011D01*
X126390000Y-60875500D01*
X126390000Y-55020905D01*
X128339500Y-55020905D01*
X128339500Y-55225608D01*
X128371522Y-55427791D01*
X128434781Y-55622480D01*
X128498691Y-55747910D01*
X128524353Y-55798273D01*
X128527715Y-55804870D01*
X128648028Y-55970470D01*
X128792786Y-56115228D01*
X128932318Y-56216602D01*
X128958390Y-56235544D01*
X129074607Y-56294760D01*
X129140776Y-56328475D01*
X129140778Y-56328475D01*
X129140781Y-56328477D01*
X129245137Y-56362384D01*
X129335465Y-56391734D01*
X129436557Y-56407745D01*
X129537648Y-56423757D01*
X129537649Y-56423757D01*
X129742351Y-56423757D01*
X129742352Y-56423757D01*
X129944534Y-56391734D01*
X130139219Y-56328477D01*
X130321610Y-56235544D01*
X130414590Y-56167989D01*
X130487213Y-56115228D01*
X130487215Y-56115225D01*
X130487219Y-56115223D01*
X130631966Y-55970476D01*
X130631968Y-55970472D01*
X130631971Y-55970470D01*
X130702236Y-55873757D01*
X130752287Y-55804867D01*
X130845220Y-55622476D01*
X130908477Y-55427791D01*
X130940500Y-55225609D01*
X130940500Y-55020905D01*
X133339500Y-55020905D01*
X133339500Y-55225608D01*
X133371522Y-55427791D01*
X133434781Y-55622480D01*
X133498691Y-55747910D01*
X133524353Y-55798273D01*
X133527715Y-55804870D01*
X133648028Y-55970470D01*
X133792786Y-56115228D01*
X133932318Y-56216602D01*
X133958390Y-56235544D01*
X134074607Y-56294760D01*
X134140776Y-56328475D01*
X134140778Y-56328475D01*
X134140781Y-56328477D01*
X134245137Y-56362384D01*
X134335465Y-56391734D01*
X134436557Y-56407745D01*
X134537648Y-56423757D01*
X134537649Y-56423757D01*
X134742351Y-56423757D01*
X134742352Y-56423757D01*
X134944534Y-56391734D01*
X135139219Y-56328477D01*
X135321610Y-56235544D01*
X135414590Y-56167989D01*
X135487213Y-56115228D01*
X135487215Y-56115225D01*
X135487219Y-56115223D01*
X135631966Y-55970476D01*
X135649570Y-55946246D01*
X135665100Y-55924872D01*
X135720429Y-55882206D01*
X135765418Y-55873757D01*
X136751415Y-55873757D01*
X136818454Y-55893442D01*
X136864209Y-55946246D01*
X136869118Y-55958746D01*
X136905186Y-56067591D01*
X136997288Y-56216913D01*
X137121344Y-56340969D01*
X137270666Y-56433071D01*
X137437203Y-56488256D01*
X137539991Y-56498757D01*
X138440008Y-56498756D01*
X138440016Y-56498755D01*
X138440019Y-56498755D01*
X138496302Y-56493005D01*
X138542797Y-56488256D01*
X138709334Y-56433071D01*
X138858656Y-56340969D01*
X138982712Y-56216913D01*
X139074814Y-56067591D01*
X139129999Y-55901054D01*
X139140500Y-55798266D01*
X139140500Y-55798243D01*
X139940001Y-55798243D01*
X139950494Y-55900954D01*
X140005641Y-56067376D01*
X140005643Y-56067381D01*
X140097684Y-56216602D01*
X140221654Y-56340572D01*
X140370875Y-56432613D01*
X140370880Y-56432615D01*
X140537302Y-56487762D01*
X140537309Y-56487763D01*
X140640019Y-56498256D01*
X140839999Y-56498256D01*
X141340000Y-56498256D01*
X141539972Y-56498256D01*
X141539986Y-56498255D01*
X141642697Y-56487762D01*
X141809119Y-56432615D01*
X141809124Y-56432613D01*
X141958345Y-56340572D01*
X142082315Y-56216602D01*
X142174356Y-56067381D01*
X142174358Y-56067376D01*
X142229505Y-55900954D01*
X142229506Y-55900947D01*
X142239999Y-55798243D01*
X142240000Y-55798230D01*
X142240000Y-55373257D01*
X141340000Y-55373257D01*
X141340000Y-56498256D01*
X140839999Y-56498256D01*
X140840000Y-56498255D01*
X140840000Y-55373257D01*
X139940001Y-55373257D01*
X139940001Y-55798243D01*
X139140500Y-55798243D01*
X139140499Y-55225609D01*
X139140499Y-54755486D01*
X139160183Y-54688447D01*
X139176813Y-54667810D01*
X139805585Y-54039038D01*
X139866906Y-54005555D01*
X139936598Y-54010539D01*
X139992531Y-54052411D01*
X140016948Y-54117875D01*
X140006969Y-54171966D01*
X140007914Y-54172280D01*
X140005651Y-54179106D01*
X140005650Y-54179117D01*
X140005644Y-54179128D01*
X139950494Y-54345559D01*
X139950493Y-54345566D01*
X139940000Y-54448270D01*
X139940000Y-54873257D01*
X140840000Y-54873257D01*
X141340000Y-54873257D01*
X142239999Y-54873257D01*
X142239999Y-54448285D01*
X142239998Y-54448270D01*
X142229505Y-54345559D01*
X142174358Y-54179137D01*
X142174356Y-54179132D01*
X142082315Y-54029911D01*
X141958345Y-53905941D01*
X141809124Y-53813900D01*
X141809119Y-53813898D01*
X141642697Y-53758751D01*
X141642690Y-53758750D01*
X141539986Y-53748257D01*
X141340000Y-53748257D01*
X141340000Y-54873257D01*
X140840000Y-54873257D01*
X140840000Y-53748257D01*
X140640029Y-53748257D01*
X140640012Y-53748258D01*
X140537302Y-53758751D01*
X140370871Y-53813901D01*
X140370860Y-53813907D01*
X140370851Y-53813908D01*
X140364023Y-53816171D01*
X140363636Y-53815003D01*
X140301781Y-53824394D01*
X140238000Y-53795869D01*
X140199765Y-53737389D01*
X140199216Y-53667521D01*
X140230781Y-53613842D01*
X142521381Y-51323241D01*
X151239500Y-51323241D01*
X151239500Y-53323272D01*
X151250000Y-53426052D01*
X151250001Y-53426054D01*
X151256904Y-53446886D01*
X151305186Y-53592592D01*
X151305187Y-53592594D01*
X151397286Y-53741908D01*
X151397289Y-53741912D01*
X151521344Y-53865967D01*
X151521348Y-53865970D01*
X151670662Y-53958069D01*
X151670664Y-53958070D01*
X151670666Y-53958071D01*
X151837203Y-54013256D01*
X151939992Y-54023757D01*
X151939997Y-54023757D01*
X153940003Y-54023757D01*
X153940008Y-54023757D01*
X154042797Y-54013256D01*
X154209334Y-53958071D01*
X154358655Y-53865968D01*
X154482711Y-53741912D01*
X154574814Y-53592591D01*
X154629999Y-53426054D01*
X154640500Y-53323265D01*
X154640500Y-52211806D01*
X158739500Y-52211806D01*
X158739500Y-52434707D01*
X158739501Y-52434723D01*
X158768594Y-52655709D01*
X158768595Y-52655714D01*
X158768596Y-52655720D01*
X158768597Y-52655722D01*
X158826290Y-52871037D01*
X158826293Y-52871047D01*
X158911593Y-53076979D01*
X158911595Y-53076983D01*
X159023052Y-53270031D01*
X159023057Y-53270037D01*
X159023058Y-53270039D01*
X159158751Y-53446879D01*
X159158757Y-53446886D01*
X159316370Y-53604499D01*
X159316376Y-53604504D01*
X159493226Y-53740205D01*
X159686274Y-53851662D01*
X159892219Y-53936967D01*
X160107537Y-53994661D01*
X160328543Y-54023757D01*
X160328550Y-54023757D01*
X160551450Y-54023757D01*
X160551457Y-54023757D01*
X160772463Y-53994661D01*
X160987781Y-53936967D01*
X161193726Y-53851662D01*
X161386774Y-53740205D01*
X161563624Y-53604504D01*
X161721247Y-53446881D01*
X161856948Y-53270031D01*
X161968405Y-53076983D01*
X162053710Y-52871038D01*
X162111404Y-52655720D01*
X162140500Y-52434714D01*
X162140500Y-52211800D01*
X162111404Y-51990794D01*
X162053710Y-51775476D01*
X161968405Y-51569531D01*
X161856948Y-51376483D01*
X161721247Y-51199633D01*
X161721242Y-51199627D01*
X161563629Y-51042014D01*
X161563622Y-51042008D01*
X161386782Y-50906315D01*
X161386780Y-50906314D01*
X161386774Y-50906309D01*
X161193726Y-50794852D01*
X161193722Y-50794850D01*
X160987790Y-50709550D01*
X160987783Y-50709548D01*
X160987781Y-50709547D01*
X160772463Y-50651853D01*
X160772457Y-50651852D01*
X160772452Y-50651851D01*
X160551466Y-50622758D01*
X160551463Y-50622757D01*
X160551457Y-50622757D01*
X160328543Y-50622757D01*
X160328537Y-50622757D01*
X160328533Y-50622758D01*
X160107547Y-50651851D01*
X160107540Y-50651852D01*
X160107537Y-50651853D01*
X159970981Y-50688443D01*
X159892219Y-50709547D01*
X159892209Y-50709550D01*
X159686277Y-50794850D01*
X159686273Y-50794852D01*
X159493226Y-50906309D01*
X159493217Y-50906315D01*
X159316377Y-51042008D01*
X159316370Y-51042014D01*
X159158757Y-51199627D01*
X159158751Y-51199634D01*
X159023058Y-51376474D01*
X159023052Y-51376483D01*
X158911595Y-51569530D01*
X158911593Y-51569534D01*
X158826293Y-51775466D01*
X158826290Y-51775476D01*
X158775249Y-51965967D01*
X158768597Y-51990791D01*
X158768594Y-51990804D01*
X158739501Y-52211790D01*
X158739500Y-52211806D01*
X154640500Y-52211806D01*
X154640500Y-51323249D01*
X154629999Y-51220460D01*
X154574814Y-51053923D01*
X154567468Y-51042014D01*
X154482713Y-50904605D01*
X154482710Y-50904601D01*
X154358655Y-50780546D01*
X154358651Y-50780543D01*
X154209337Y-50688444D01*
X154209335Y-50688443D01*
X154098907Y-50651851D01*
X154042797Y-50633258D01*
X154042795Y-50633257D01*
X153940015Y-50622757D01*
X153940008Y-50622757D01*
X151939992Y-50622757D01*
X151939984Y-50622757D01*
X151837204Y-50633257D01*
X151837203Y-50633258D01*
X151670664Y-50688443D01*
X151670662Y-50688444D01*
X151521348Y-50780543D01*
X151521344Y-50780546D01*
X151397289Y-50904601D01*
X151397286Y-50904605D01*
X151305187Y-51053919D01*
X151305186Y-51053921D01*
X151250001Y-51220460D01*
X151250000Y-51220461D01*
X151239500Y-51323241D01*
X142521381Y-51323241D01*
X143771379Y-50073243D01*
X148715001Y-50073243D01*
X148725494Y-50175954D01*
X148780641Y-50342376D01*
X148780643Y-50342381D01*
X148872684Y-50491602D01*
X148996654Y-50615572D01*
X149145875Y-50707613D01*
X149145880Y-50707615D01*
X149312302Y-50762762D01*
X149312309Y-50762763D01*
X149415019Y-50773256D01*
X149839999Y-50773256D01*
X150340000Y-50773256D01*
X150764972Y-50773256D01*
X150764986Y-50773255D01*
X150867697Y-50762762D01*
X151034119Y-50707615D01*
X151034124Y-50707613D01*
X151183345Y-50615572D01*
X151307315Y-50491602D01*
X151399356Y-50342381D01*
X151399358Y-50342376D01*
X151454505Y-50175954D01*
X151454506Y-50175947D01*
X151464999Y-50073243D01*
X151465000Y-50073230D01*
X151465000Y-49873257D01*
X150340000Y-49873257D01*
X150340000Y-50773256D01*
X149839999Y-50773256D01*
X149840000Y-50773255D01*
X149840000Y-49873257D01*
X148715001Y-49873257D01*
X148715001Y-50073243D01*
X143771379Y-50073243D01*
X144671352Y-49173270D01*
X148715000Y-49173270D01*
X148715000Y-49373257D01*
X149840000Y-49373257D01*
X150340000Y-49373257D01*
X151464999Y-49373257D01*
X151464999Y-49173285D01*
X151464998Y-49173270D01*
X151454505Y-49070559D01*
X151399358Y-48904137D01*
X151399356Y-48904132D01*
X151307315Y-48754911D01*
X151183345Y-48630941D01*
X151034124Y-48538900D01*
X151034119Y-48538898D01*
X150867697Y-48483751D01*
X150867690Y-48483750D01*
X150764986Y-48473257D01*
X150340000Y-48473257D01*
X150340000Y-49373257D01*
X149840000Y-49373257D01*
X149840000Y-48473257D01*
X149415028Y-48473257D01*
X149415012Y-48473258D01*
X149312302Y-48483751D01*
X149145880Y-48538898D01*
X149145875Y-48538900D01*
X148996654Y-48630941D01*
X148872684Y-48754911D01*
X148780643Y-48904132D01*
X148780641Y-48904137D01*
X148725494Y-49070559D01*
X148725493Y-49070566D01*
X148715000Y-49173270D01*
X144671352Y-49173270D01*
X146384894Y-47459728D01*
X146446215Y-47426245D01*
X146491970Y-47424938D01*
X146547648Y-47433757D01*
X146547649Y-47433757D01*
X146752351Y-47433757D01*
X146752352Y-47433757D01*
X146954534Y-47401734D01*
X147149219Y-47338477D01*
X147331610Y-47245544D01*
X147468710Y-47145936D01*
X147497213Y-47125228D01*
X147497215Y-47125225D01*
X147497219Y-47125223D01*
X147641966Y-46980476D01*
X147641968Y-46980472D01*
X147641971Y-46980470D01*
X147756178Y-46823275D01*
X147762287Y-46814867D01*
X147855220Y-46632476D01*
X147918477Y-46437791D01*
X147950500Y-46235609D01*
X147950500Y-46030905D01*
X147945977Y-46002348D01*
X147918477Y-45828722D01*
X147861901Y-45654601D01*
X147855220Y-45634038D01*
X147855218Y-45634035D01*
X147855218Y-45634033D01*
X147802488Y-45530546D01*
X147762287Y-45451647D01*
X147710574Y-45380469D01*
X147641971Y-45286043D01*
X147497213Y-45141285D01*
X147331614Y-45020972D01*
X147299480Y-45004599D01*
X147238917Y-44973740D01*
X147188123Y-44925768D01*
X147171328Y-44857947D01*
X147193865Y-44791812D01*
X147238917Y-44752773D01*
X147331610Y-44705544D01*
X147460581Y-44611842D01*
X147497213Y-44585228D01*
X147497215Y-44585225D01*
X147497219Y-44585223D01*
X147641966Y-44440476D01*
X147725957Y-44324871D01*
X147781286Y-44282206D01*
X147826275Y-44273757D01*
X148852770Y-44273757D01*
X148919809Y-44293442D01*
X148940451Y-44310076D01*
X148996344Y-44365969D01*
X149145666Y-44458071D01*
X149254505Y-44494136D01*
X149311949Y-44533909D01*
X149338772Y-44598424D01*
X149339500Y-44611842D01*
X149339500Y-45284671D01*
X149319815Y-45351710D01*
X149267011Y-45397465D01*
X149254505Y-45402377D01*
X149145666Y-45438443D01*
X149145663Y-45438444D01*
X148996342Y-45530546D01*
X148872289Y-45654599D01*
X148780187Y-45803920D01*
X148780186Y-45803923D01*
X148725001Y-45970460D01*
X148725001Y-45970461D01*
X148725000Y-45970461D01*
X148714500Y-46073240D01*
X148714500Y-46973258D01*
X148714501Y-46973276D01*
X148725000Y-47076053D01*
X148725001Y-47076056D01*
X148780185Y-47242588D01*
X148780187Y-47242593D01*
X148782007Y-47245544D01*
X148872288Y-47391913D01*
X148996344Y-47515969D01*
X149145666Y-47608071D01*
X149312203Y-47663256D01*
X149414991Y-47673757D01*
X150765008Y-47673756D01*
X150867797Y-47663256D01*
X151034334Y-47608071D01*
X151183656Y-47515969D01*
X151307712Y-47391913D01*
X151399814Y-47242591D01*
X151454999Y-47076054D01*
X151465500Y-46973266D01*
X151465499Y-46073249D01*
X151465104Y-46069387D01*
X151454999Y-45970460D01*
X151454998Y-45970457D01*
X151422789Y-45873257D01*
X151399814Y-45803923D01*
X151307712Y-45654601D01*
X151183656Y-45530545D01*
X151034334Y-45438443D01*
X150973301Y-45418218D01*
X150925495Y-45402377D01*
X150868050Y-45362604D01*
X150841228Y-45298088D01*
X150840500Y-45284671D01*
X150840500Y-44803240D01*
X168639500Y-44803240D01*
X168639500Y-47003258D01*
X168639501Y-47003275D01*
X168650000Y-47106053D01*
X168650001Y-47106056D01*
X168696223Y-47245544D01*
X168705186Y-47272591D01*
X168797288Y-47421913D01*
X168921344Y-47545969D01*
X169070666Y-47638071D01*
X169237203Y-47693256D01*
X169339991Y-47703757D01*
X171540008Y-47703756D01*
X171642797Y-47693256D01*
X171809334Y-47638071D01*
X171958656Y-47545969D01*
X172082712Y-47421913D01*
X172174814Y-47272591D01*
X172229999Y-47106054D01*
X172240500Y-47003266D01*
X172240499Y-44803249D01*
X172240243Y-44800747D01*
X172229999Y-44700460D01*
X172229998Y-44700457D01*
X172213822Y-44651641D01*
X172174814Y-44533923D01*
X172082712Y-44384601D01*
X171958656Y-44260545D01*
X171809334Y-44168443D01*
X171642797Y-44113258D01*
X171642795Y-44113257D01*
X171540010Y-44102757D01*
X169339998Y-44102757D01*
X169339981Y-44102758D01*
X169237203Y-44113257D01*
X169237200Y-44113258D01*
X169070668Y-44168442D01*
X169070663Y-44168444D01*
X168921342Y-44260546D01*
X168797289Y-44384599D01*
X168705187Y-44533920D01*
X168705185Y-44533925D01*
X168688187Y-44585223D01*
X168650001Y-44700460D01*
X168650001Y-44700461D01*
X168650000Y-44700461D01*
X168639500Y-44803240D01*
X150840500Y-44803240D01*
X150840500Y-44611842D01*
X150860185Y-44544803D01*
X150912989Y-44499048D01*
X150925489Y-44494138D01*
X151034334Y-44458071D01*
X151183656Y-44365969D01*
X151307712Y-44241913D01*
X151399814Y-44092591D01*
X151454999Y-43926054D01*
X151465500Y-43823266D01*
X151465499Y-42923249D01*
X151464313Y-42911643D01*
X151454999Y-42820460D01*
X151454998Y-42820457D01*
X151439192Y-42772757D01*
X151399814Y-42653923D01*
X151307712Y-42504601D01*
X151183656Y-42380545D01*
X151034334Y-42288443D01*
X150867797Y-42233258D01*
X150867795Y-42233257D01*
X150765010Y-42222757D01*
X149414998Y-42222757D01*
X149414981Y-42222758D01*
X149312203Y-42233257D01*
X149312200Y-42233258D01*
X149145668Y-42288442D01*
X149145663Y-42288444D01*
X148996342Y-42380546D01*
X148872289Y-42504599D01*
X148780187Y-42653920D01*
X148780184Y-42653928D01*
X148768972Y-42687763D01*
X148729199Y-42745207D01*
X148664683Y-42772029D01*
X148651267Y-42772757D01*
X147720048Y-42772757D01*
X147653009Y-42753072D01*
X147632367Y-42736439D01*
X147583691Y-42687763D01*
X147497219Y-42601291D01*
X147497215Y-42601288D01*
X147497211Y-42601284D01*
X147331614Y-42480972D01*
X147254218Y-42441537D01*
X147238917Y-42433740D01*
X147188123Y-42385768D01*
X147171328Y-42317947D01*
X147193865Y-42251812D01*
X147238917Y-42212773D01*
X147331610Y-42165544D01*
X147420491Y-42100969D01*
X147497213Y-42045228D01*
X147497215Y-42045225D01*
X147497219Y-42045223D01*
X147641966Y-41900476D01*
X147644650Y-41896781D01*
X147675100Y-41854872D01*
X147730429Y-41812206D01*
X147775418Y-41803757D01*
X149383920Y-41803757D01*
X149481462Y-41784353D01*
X149528913Y-41774915D01*
X149665495Y-41718341D01*
X149714729Y-41685443D01*
X149788416Y-41636209D01*
X149964549Y-41460074D01*
X150025872Y-41426590D01*
X150052230Y-41423756D01*
X150765002Y-41423756D01*
X150765008Y-41423756D01*
X150867797Y-41413256D01*
X151034334Y-41358071D01*
X151183656Y-41265969D01*
X151307712Y-41141913D01*
X151399814Y-40992591D01*
X151454999Y-40826054D01*
X151465500Y-40723266D01*
X151465500Y-40705252D01*
X168639500Y-40705252D01*
X168639500Y-40941261D01*
X168639501Y-40941277D01*
X168670306Y-41175267D01*
X168731394Y-41403250D01*
X168821714Y-41621302D01*
X168821719Y-41621313D01*
X168877739Y-41718341D01*
X168939727Y-41825707D01*
X168939729Y-41825710D01*
X168939730Y-41825711D01*
X169083406Y-42012954D01*
X169083412Y-42012961D01*
X169250295Y-42179844D01*
X169250302Y-42179850D01*
X169267532Y-42193071D01*
X169437550Y-42323530D01*
X169560825Y-42394703D01*
X169641943Y-42441537D01*
X169641948Y-42441539D01*
X169641951Y-42441541D01*
X169860007Y-42531863D01*
X170087986Y-42592950D01*
X170321989Y-42623757D01*
X170321996Y-42623757D01*
X170558004Y-42623757D01*
X170558011Y-42623757D01*
X170792014Y-42592950D01*
X171019993Y-42531863D01*
X171238049Y-42441541D01*
X171442450Y-42323530D01*
X171629699Y-42179849D01*
X171796592Y-42012956D01*
X171940273Y-41825707D01*
X172058284Y-41621306D01*
X172148606Y-41403250D01*
X172209693Y-41175271D01*
X172240500Y-40941268D01*
X172240500Y-40705246D01*
X172209693Y-40471243D01*
X172148606Y-40243264D01*
X172058284Y-40025208D01*
X172058282Y-40025205D01*
X172058280Y-40025200D01*
X172008467Y-39938923D01*
X171940273Y-39820807D01*
X171821137Y-39665546D01*
X171796593Y-39633559D01*
X171796587Y-39633552D01*
X171629704Y-39466669D01*
X171629697Y-39466663D01*
X171442454Y-39322987D01*
X171442453Y-39322986D01*
X171442450Y-39322984D01*
X171356322Y-39273258D01*
X171238056Y-39204976D01*
X171238045Y-39204971D01*
X171019993Y-39114651D01*
X170792010Y-39053563D01*
X170558020Y-39022758D01*
X170558017Y-39022757D01*
X170558011Y-39022757D01*
X170321989Y-39022757D01*
X170321983Y-39022757D01*
X170321979Y-39022758D01*
X170087989Y-39053563D01*
X169860006Y-39114651D01*
X169641954Y-39204971D01*
X169641943Y-39204976D01*
X169437545Y-39322987D01*
X169250302Y-39466663D01*
X169250295Y-39466669D01*
X169083412Y-39633552D01*
X169083406Y-39633559D01*
X168939730Y-39820802D01*
X168821719Y-40025200D01*
X168821714Y-40025211D01*
X168731394Y-40243263D01*
X168670306Y-40471246D01*
X168639501Y-40705236D01*
X168639500Y-40705252D01*
X151465500Y-40705252D01*
X151465499Y-39823249D01*
X151464755Y-39815969D01*
X151454999Y-39720460D01*
X151454998Y-39720457D01*
X151436802Y-39665545D01*
X151399814Y-39553923D01*
X151307712Y-39404601D01*
X151183656Y-39280545D01*
X151079097Y-39216053D01*
X151034336Y-39188444D01*
X151034331Y-39188442D01*
X151032862Y-39187955D01*
X150867797Y-39133258D01*
X150867795Y-39133257D01*
X150765010Y-39122757D01*
X149414998Y-39122757D01*
X149414981Y-39122758D01*
X149312203Y-39133257D01*
X149312200Y-39133258D01*
X149145668Y-39188442D01*
X149145663Y-39188444D01*
X148996342Y-39280546D01*
X148872289Y-39404599D01*
X148780187Y-39553920D01*
X148780185Y-39553925D01*
X148753798Y-39633558D01*
X148725001Y-39720460D01*
X148725001Y-39720461D01*
X148725000Y-39720461D01*
X148714500Y-39823240D01*
X148714500Y-39823248D01*
X148714500Y-40061291D01*
X148714501Y-40178757D01*
X148694817Y-40245796D01*
X148642013Y-40291551D01*
X148590501Y-40302757D01*
X147775418Y-40302757D01*
X147708379Y-40283072D01*
X147675100Y-40251642D01*
X147641971Y-40206044D01*
X147641967Y-40206039D01*
X147497213Y-40061285D01*
X147331614Y-39940972D01*
X147267038Y-39908069D01*
X147238917Y-39893740D01*
X147188123Y-39845768D01*
X147171328Y-39777947D01*
X147193865Y-39711812D01*
X147238917Y-39672773D01*
X147331610Y-39625544D01*
X147352770Y-39610170D01*
X147497213Y-39505228D01*
X147497215Y-39505225D01*
X147497219Y-39505223D01*
X147641966Y-39360476D01*
X147641968Y-39360472D01*
X147641971Y-39360470D01*
X147746892Y-39216056D01*
X147762287Y-39194867D01*
X147855220Y-39012476D01*
X147918477Y-38817791D01*
X147941925Y-38669740D01*
X147971854Y-38606607D01*
X147976699Y-38601476D01*
X149315278Y-37262898D01*
X149315282Y-37262896D01*
X149454639Y-37123539D01*
X149564132Y-36959671D01*
X149639551Y-36777592D01*
X149652132Y-36714339D01*
X149678000Y-36584300D01*
X149678000Y-32368533D01*
X149687439Y-32321080D01*
X149733205Y-32210591D01*
X149752051Y-32165093D01*
X149773236Y-32058585D01*
X149780363Y-32022759D01*
X149780363Y-32022757D01*
X149790500Y-31971799D01*
X149790500Y-28647756D01*
X149810185Y-28580717D01*
X149862989Y-28534962D01*
X149914500Y-28523756D01*
X150340002Y-28523756D01*
X150340008Y-28523756D01*
X150442797Y-28513256D01*
X150609334Y-28458071D01*
X150758656Y-28365969D01*
X150882712Y-28241913D01*
X150955909Y-28123241D01*
X157039500Y-28123241D01*
X157039500Y-30123272D01*
X157050000Y-30226052D01*
X157050001Y-30226054D01*
X157077593Y-30309322D01*
X157105186Y-30392592D01*
X157105187Y-30392594D01*
X157197286Y-30541908D01*
X157197289Y-30541912D01*
X157321344Y-30665967D01*
X157321348Y-30665970D01*
X157470662Y-30758069D01*
X157470664Y-30758070D01*
X157470666Y-30758071D01*
X157637203Y-30813256D01*
X157739992Y-30823757D01*
X157739997Y-30823757D01*
X159740003Y-30823757D01*
X159740008Y-30823757D01*
X159842797Y-30813256D01*
X160009334Y-30758071D01*
X160158655Y-30665968D01*
X160282711Y-30541912D01*
X160374814Y-30392591D01*
X160429999Y-30226054D01*
X160440500Y-30123265D01*
X160440500Y-29011806D01*
X164539500Y-29011806D01*
X164539500Y-29234707D01*
X164539501Y-29234723D01*
X164568594Y-29455709D01*
X164568595Y-29455714D01*
X164568596Y-29455720D01*
X164609663Y-29608985D01*
X164626290Y-29671037D01*
X164626293Y-29671047D01*
X164710048Y-29873248D01*
X164711595Y-29876983D01*
X164823052Y-30070031D01*
X164823057Y-30070037D01*
X164823058Y-30070039D01*
X164958751Y-30246879D01*
X164958757Y-30246886D01*
X165116370Y-30404499D01*
X165116376Y-30404504D01*
X165293226Y-30540205D01*
X165486274Y-30651662D01*
X165692219Y-30736967D01*
X165907537Y-30794661D01*
X166128543Y-30823757D01*
X166128550Y-30823757D01*
X166351450Y-30823757D01*
X166351457Y-30823757D01*
X166572463Y-30794661D01*
X166787781Y-30736967D01*
X166993726Y-30651662D01*
X167186774Y-30540205D01*
X167363624Y-30404504D01*
X167521247Y-30246881D01*
X167656948Y-30070031D01*
X167768405Y-29876983D01*
X167853710Y-29671038D01*
X167911404Y-29455720D01*
X167940500Y-29234714D01*
X167940500Y-29011800D01*
X167911404Y-28790794D01*
X167853710Y-28575476D01*
X167768405Y-28369531D01*
X167656948Y-28176483D01*
X167592576Y-28092591D01*
X167521248Y-27999634D01*
X167521242Y-27999627D01*
X167363629Y-27842014D01*
X167363622Y-27842008D01*
X167186782Y-27706315D01*
X167186780Y-27706314D01*
X167186774Y-27706309D01*
X166993726Y-27594852D01*
X166993722Y-27594850D01*
X166787790Y-27509550D01*
X166787783Y-27509548D01*
X166787781Y-27509547D01*
X166572463Y-27451853D01*
X166572457Y-27451852D01*
X166572452Y-27451851D01*
X166351466Y-27422758D01*
X166351463Y-27422757D01*
X166351457Y-27422757D01*
X166128543Y-27422757D01*
X166128537Y-27422757D01*
X166128533Y-27422758D01*
X165907547Y-27451851D01*
X165907540Y-27451852D01*
X165907537Y-27451853D01*
X165781811Y-27485541D01*
X165692219Y-27509547D01*
X165692209Y-27509550D01*
X165486277Y-27594850D01*
X165486273Y-27594852D01*
X165293226Y-27706309D01*
X165293217Y-27706315D01*
X165116377Y-27842008D01*
X165116370Y-27842014D01*
X164958757Y-27999627D01*
X164958751Y-27999634D01*
X164823058Y-28176474D01*
X164823052Y-28176483D01*
X164711595Y-28369530D01*
X164711593Y-28369534D01*
X164626293Y-28575466D01*
X164626290Y-28575476D01*
X164568597Y-28790791D01*
X164568594Y-28790804D01*
X164539501Y-29011790D01*
X164539500Y-29011806D01*
X160440500Y-29011806D01*
X160440500Y-28123249D01*
X160429999Y-28020460D01*
X160374814Y-27853923D01*
X160367468Y-27842014D01*
X160282713Y-27704605D01*
X160282710Y-27704601D01*
X160158655Y-27580546D01*
X160158651Y-27580543D01*
X160009337Y-27488444D01*
X160009335Y-27488443D01*
X159898907Y-27451851D01*
X159842797Y-27433258D01*
X159842795Y-27433257D01*
X159740015Y-27422757D01*
X159740008Y-27422757D01*
X157739992Y-27422757D01*
X157739984Y-27422757D01*
X157637204Y-27433257D01*
X157637203Y-27433258D01*
X157470664Y-27488443D01*
X157470662Y-27488444D01*
X157321348Y-27580543D01*
X157321344Y-27580546D01*
X157197289Y-27704601D01*
X157197286Y-27704605D01*
X157105187Y-27853919D01*
X157105186Y-27853921D01*
X157050001Y-28020460D01*
X157050000Y-28020461D01*
X157039500Y-28123241D01*
X150955909Y-28123241D01*
X150974814Y-28092591D01*
X151029999Y-27926054D01*
X151040500Y-27823266D01*
X151040499Y-25623249D01*
X151029999Y-25520460D01*
X150974814Y-25353923D01*
X150882712Y-25204601D01*
X150758656Y-25080545D01*
X150609334Y-24988443D01*
X150442797Y-24933258D01*
X150442795Y-24933257D01*
X150340010Y-24922757D01*
X148139998Y-24922757D01*
X148139981Y-24922758D01*
X148037203Y-24933257D01*
X148037200Y-24933258D01*
X147870668Y-24988442D01*
X147870663Y-24988444D01*
X147721342Y-25080546D01*
X147597289Y-25204599D01*
X147505187Y-25353920D01*
X147505185Y-25353925D01*
X147500962Y-25366669D01*
X147450001Y-25520460D01*
X147450001Y-25520461D01*
X147450000Y-25520461D01*
X147439500Y-25623240D01*
X147439500Y-27823258D01*
X147439501Y-27823275D01*
X147450000Y-27926053D01*
X147450001Y-27926056D01*
X147474383Y-27999634D01*
X147505186Y-28092591D01*
X147597288Y-28241913D01*
X147721344Y-28365969D01*
X147730591Y-28371673D01*
X147777318Y-28423617D01*
X147789500Y-28477214D01*
X147789500Y-31490481D01*
X147787873Y-31498656D01*
X147788790Y-31503735D01*
X147780061Y-31537933D01*
X147751303Y-31607362D01*
X147751303Y-31607363D01*
X147715448Y-31693922D01*
X147715447Y-31693927D01*
X147701657Y-31763256D01*
X147677000Y-31887212D01*
X147677000Y-36019974D01*
X147657315Y-36087013D01*
X147640681Y-36107655D01*
X146561797Y-37186538D01*
X146500474Y-37220023D01*
X146493515Y-37221330D01*
X146345468Y-37244779D01*
X146150778Y-37308038D01*
X145968386Y-37400972D01*
X145847123Y-37489075D01*
X145781317Y-37512555D01*
X145774238Y-37512757D01*
X144342175Y-37512757D01*
X144342155Y-37512756D01*
X144336041Y-37512756D01*
X144138960Y-37512756D01*
X144138957Y-37512756D01*
X143945672Y-37551203D01*
X143945664Y-37551205D01*
X143763586Y-37626624D01*
X143763574Y-37626631D01*
X143763222Y-37626867D01*
X143763009Y-37626933D01*
X143758209Y-37629499D01*
X143757722Y-37628588D01*
X143696543Y-37647737D01*
X143694343Y-37647757D01*
X143239998Y-37647757D01*
X143239980Y-37647758D01*
X143137203Y-37658257D01*
X143137200Y-37658258D01*
X142970668Y-37713442D01*
X142970663Y-37713444D01*
X142821342Y-37805546D01*
X142697289Y-37929599D01*
X142605187Y-38078920D01*
X142605186Y-38078923D01*
X142550001Y-38245460D01*
X142550001Y-38245461D01*
X142550000Y-38245461D01*
X142539500Y-38348240D01*
X142539500Y-39273258D01*
X142539501Y-39273276D01*
X142550000Y-39376048D01*
X142550001Y-39376056D01*
X142605185Y-39542588D01*
X142605187Y-39542593D01*
X142624216Y-39573444D01*
X142697288Y-39691913D01*
X142821344Y-39815969D01*
X142970666Y-39908071D01*
X143137203Y-39963256D01*
X143239991Y-39973757D01*
X144640008Y-39973756D01*
X144742797Y-39963256D01*
X144909334Y-39908071D01*
X145058656Y-39815969D01*
X145182712Y-39691913D01*
X145256267Y-39572659D01*
X145308215Y-39525936D01*
X145361806Y-39513757D01*
X145774238Y-39513757D01*
X145841277Y-39533442D01*
X145847119Y-39537436D01*
X145968390Y-39625544D01*
X146059840Y-39672140D01*
X146061080Y-39672772D01*
X146111876Y-39720747D01*
X146128671Y-39788568D01*
X146106134Y-39854703D01*
X146061080Y-39893742D01*
X145968386Y-39940972D01*
X145802786Y-40061285D01*
X145658028Y-40206043D01*
X145537715Y-40371643D01*
X145444781Y-40554033D01*
X145381523Y-40748721D01*
X145350490Y-40944650D01*
X145320560Y-41007784D01*
X145261249Y-41044715D01*
X145191386Y-41043717D01*
X145140336Y-41012932D01*
X145058345Y-40930941D01*
X144909124Y-40838900D01*
X144909119Y-40838898D01*
X144742697Y-40783751D01*
X144742690Y-40783750D01*
X144639986Y-40773257D01*
X144190000Y-40773257D01*
X144190000Y-41685757D01*
X145345219Y-41685757D01*
X145395038Y-41658553D01*
X145464730Y-41663537D01*
X145520664Y-41705407D01*
X145531884Y-41723426D01*
X145537715Y-41734871D01*
X145658028Y-41900470D01*
X145802786Y-42045228D01*
X145957749Y-42157813D01*
X145968390Y-42165544D01*
X146022415Y-42193071D01*
X146061080Y-42212772D01*
X146111876Y-42260747D01*
X146128671Y-42328568D01*
X146106134Y-42394703D01*
X146061080Y-42433742D01*
X145968386Y-42480972D01*
X145802786Y-42601285D01*
X145658028Y-42746043D01*
X145537715Y-42911643D01*
X145444781Y-43094033D01*
X145381522Y-43288722D01*
X145349500Y-43490905D01*
X145349500Y-43695608D01*
X145381522Y-43897791D01*
X145444781Y-44092480D01*
X145508691Y-44217910D01*
X145537147Y-44273757D01*
X145537715Y-44274870D01*
X145658028Y-44440470D01*
X145802786Y-44585228D01*
X145894198Y-44651641D01*
X145968390Y-44705544D01*
X146059840Y-44752140D01*
X146061080Y-44752772D01*
X146111876Y-44800747D01*
X146128671Y-44868568D01*
X146106134Y-44934703D01*
X146061080Y-44973742D01*
X145968386Y-45020972D01*
X145802786Y-45141285D01*
X145658028Y-45286043D01*
X145537715Y-45451643D01*
X145444781Y-45634033D01*
X145381522Y-45828722D01*
X145349500Y-46030905D01*
X145349500Y-46235608D01*
X145358318Y-46291283D01*
X145349363Y-46360577D01*
X145323526Y-46398362D01*
X138010449Y-53711438D01*
X137949126Y-53744923D01*
X137922768Y-53747757D01*
X137539998Y-53747757D01*
X137539980Y-53747758D01*
X137437203Y-53758257D01*
X137437200Y-53758258D01*
X137270668Y-53813442D01*
X137270663Y-53813444D01*
X137121342Y-53905546D01*
X136997289Y-54029599D01*
X136905187Y-54178920D01*
X136905185Y-54178925D01*
X136905115Y-54179137D01*
X136873004Y-54276044D01*
X136869121Y-54287761D01*
X136829348Y-54345206D01*
X136764833Y-54372029D01*
X136751415Y-54372757D01*
X135765418Y-54372757D01*
X135698379Y-54353072D01*
X135665100Y-54321642D01*
X135631971Y-54276044D01*
X135631967Y-54276039D01*
X135487213Y-54131285D01*
X135321613Y-54010972D01*
X135321612Y-54010971D01*
X135321610Y-54010970D01*
X135264653Y-53981948D01*
X135139223Y-53918038D01*
X134944534Y-53854779D01*
X134752687Y-53824394D01*
X134742352Y-53822757D01*
X134537648Y-53822757D01*
X134527313Y-53824394D01*
X134335465Y-53854779D01*
X134140776Y-53918038D01*
X133958386Y-54010972D01*
X133792786Y-54131285D01*
X133648028Y-54276043D01*
X133527715Y-54441643D01*
X133434781Y-54624033D01*
X133371522Y-54818722D01*
X133339500Y-55020905D01*
X130940500Y-55020905D01*
X130908477Y-54818722D01*
X130845218Y-54624033D01*
X130783839Y-54503572D01*
X130752287Y-54441647D01*
X130701707Y-54372029D01*
X130631971Y-54276043D01*
X130487213Y-54131285D01*
X130321613Y-54010972D01*
X130321612Y-54010971D01*
X130321610Y-54010970D01*
X130264653Y-53981948D01*
X130139223Y-53918038D01*
X129944534Y-53854779D01*
X129752687Y-53824394D01*
X129742352Y-53822757D01*
X129537648Y-53822757D01*
X129527313Y-53824394D01*
X129335465Y-53854779D01*
X129140776Y-53918038D01*
X128958386Y-54010972D01*
X128792786Y-54131285D01*
X128648028Y-54276043D01*
X128527715Y-54441643D01*
X128434781Y-54624033D01*
X128371522Y-54818722D01*
X128339500Y-55020905D01*
X126390000Y-55020905D01*
X126390000Y-54523257D01*
X120034500Y-54523257D01*
X119967461Y-54503572D01*
X119921706Y-54450768D01*
X119910500Y-54399257D01*
X119910500Y-48098243D01*
X121440001Y-48098243D01*
X121450494Y-48200954D01*
X121505641Y-48367376D01*
X121505643Y-48367381D01*
X121597684Y-48516602D01*
X121721654Y-48640572D01*
X121870875Y-48732613D01*
X121870880Y-48732615D01*
X122037302Y-48787762D01*
X122037309Y-48787763D01*
X122140019Y-48798256D01*
X122339999Y-48798256D01*
X122840000Y-48798256D01*
X123039972Y-48798256D01*
X123039986Y-48798255D01*
X123142697Y-48787762D01*
X123309119Y-48732615D01*
X123309124Y-48732613D01*
X123458345Y-48640572D01*
X123582315Y-48516602D01*
X123674356Y-48367381D01*
X123674358Y-48367376D01*
X123729505Y-48200954D01*
X123729506Y-48200947D01*
X123739999Y-48098243D01*
X123740000Y-48098230D01*
X123740000Y-47673257D01*
X122840000Y-47673257D01*
X122840000Y-48798256D01*
X122339999Y-48798256D01*
X122340000Y-48798255D01*
X122340000Y-47673257D01*
X121440001Y-47673257D01*
X121440001Y-48098243D01*
X119910500Y-48098243D01*
X119910500Y-46748270D01*
X121440000Y-46748270D01*
X121440000Y-47173257D01*
X122340000Y-47173257D01*
X122840000Y-47173257D01*
X123739999Y-47173257D01*
X123739999Y-46748285D01*
X123739998Y-46748270D01*
X123729505Y-46645559D01*
X123674358Y-46479137D01*
X123674356Y-46479132D01*
X123582315Y-46329911D01*
X123458345Y-46205941D01*
X123309124Y-46113900D01*
X123309119Y-46113898D01*
X123142697Y-46058751D01*
X123142690Y-46058750D01*
X123039986Y-46048257D01*
X122840000Y-46048257D01*
X122840000Y-47173257D01*
X122340000Y-47173257D01*
X122340000Y-46048257D01*
X122140029Y-46048257D01*
X122140012Y-46048258D01*
X122037302Y-46058751D01*
X121870880Y-46113898D01*
X121870875Y-46113900D01*
X121721654Y-46205941D01*
X121597684Y-46329911D01*
X121505643Y-46479132D01*
X121505641Y-46479137D01*
X121450494Y-46645559D01*
X121450493Y-46645566D01*
X121440000Y-46748270D01*
X119910500Y-46748270D01*
X119910500Y-42635252D01*
X124539500Y-42635252D01*
X124539500Y-42871261D01*
X124539501Y-42871277D01*
X124570306Y-43105267D01*
X124631394Y-43333250D01*
X124721714Y-43551302D01*
X124721719Y-43551313D01*
X124792677Y-43674214D01*
X124839727Y-43755707D01*
X124839729Y-43755710D01*
X124839730Y-43755711D01*
X124983406Y-43942954D01*
X124983411Y-43942960D01*
X125003179Y-43962727D01*
X125036666Y-44024049D01*
X125039500Y-44050410D01*
X125039500Y-46002348D01*
X125019815Y-46069387D01*
X124975731Y-46107898D01*
X124976813Y-46109652D01*
X124970667Y-46113442D01*
X124970666Y-46113443D01*
X124934053Y-46136026D01*
X124821342Y-46205546D01*
X124697289Y-46329599D01*
X124605187Y-46478920D01*
X124605185Y-46478925D01*
X124605115Y-46479137D01*
X124550001Y-46645460D01*
X124550001Y-46645461D01*
X124550000Y-46645461D01*
X124539500Y-46748240D01*
X124539500Y-48098258D01*
X124539501Y-48098275D01*
X124550000Y-48201053D01*
X124550001Y-48201056D01*
X124590752Y-48324033D01*
X124605186Y-48367591D01*
X124697288Y-48516913D01*
X124821344Y-48640969D01*
X124970666Y-48733071D01*
X125137203Y-48788256D01*
X125239991Y-48798757D01*
X126140008Y-48798756D01*
X126140016Y-48798755D01*
X126140019Y-48798755D01*
X126196302Y-48793005D01*
X126242797Y-48788256D01*
X126409334Y-48733071D01*
X126429058Y-48720905D01*
X132639500Y-48720905D01*
X132639500Y-48925608D01*
X132671522Y-49127791D01*
X132734781Y-49322480D01*
X132760654Y-49373257D01*
X132827713Y-49504867D01*
X132878788Y-49575167D01*
X132878790Y-49575169D01*
X132902270Y-49640975D01*
X132886444Y-49709029D01*
X132866154Y-49735735D01*
X132797287Y-49804602D01*
X132705187Y-49953920D01*
X132705186Y-49953923D01*
X132650001Y-50120460D01*
X132650001Y-50120461D01*
X132650000Y-50120461D01*
X132639500Y-50223240D01*
X132639500Y-51423258D01*
X132639501Y-51423275D01*
X132650000Y-51526053D01*
X132650001Y-51526056D01*
X132705185Y-51692588D01*
X132705186Y-51692591D01*
X132797288Y-51841913D01*
X132921344Y-51965969D01*
X133070666Y-52058071D01*
X133237203Y-52113256D01*
X133339991Y-52123757D01*
X134540008Y-52123756D01*
X134642797Y-52113256D01*
X134809334Y-52058071D01*
X134958656Y-51965969D01*
X135082712Y-51841913D01*
X135174814Y-51692591D01*
X135229999Y-51526054D01*
X135240500Y-51423266D01*
X135240499Y-50223249D01*
X135229999Y-50120460D01*
X135174814Y-49953923D01*
X135082712Y-49804601D01*
X135013846Y-49735735D01*
X134980361Y-49674412D01*
X134985345Y-49604720D01*
X135001206Y-49575173D01*
X135052287Y-49504867D01*
X135145220Y-49322476D01*
X135208477Y-49127791D01*
X135240500Y-48925609D01*
X135240500Y-48720905D01*
X135211673Y-48538900D01*
X135208477Y-48518722D01*
X135145218Y-48324033D01*
X135082556Y-48201054D01*
X135052287Y-48141647D01*
X135020769Y-48098266D01*
X134931971Y-47976043D01*
X134787213Y-47831285D01*
X134621613Y-47710972D01*
X134621612Y-47710971D01*
X134621610Y-47710970D01*
X134564653Y-47681948D01*
X134439223Y-47618038D01*
X134244534Y-47554779D01*
X134042344Y-47522755D01*
X134040532Y-47522613D01*
X134039885Y-47522366D01*
X134037540Y-47521995D01*
X134037618Y-47521501D01*
X133975248Y-47497718D01*
X133933786Y-47441480D01*
X133929312Y-47371753D01*
X133962601Y-47311315D01*
X134032317Y-47241599D01*
X134124356Y-47092381D01*
X134124358Y-47092376D01*
X134179505Y-46925954D01*
X134179506Y-46925947D01*
X134189999Y-46823243D01*
X134190000Y-46823230D01*
X134190000Y-46373257D01*
X133277500Y-46373257D01*
X133277500Y-47524902D01*
X133309004Y-47582598D01*
X133304020Y-47652290D01*
X133262148Y-47708223D01*
X133260723Y-47709274D01*
X133092787Y-47831285D01*
X133092782Y-47831289D01*
X132948028Y-47976043D01*
X132827715Y-48141643D01*
X132734781Y-48324033D01*
X132671522Y-48518722D01*
X132639500Y-48720905D01*
X126429058Y-48720905D01*
X126558656Y-48640969D01*
X126682712Y-48516913D01*
X126774814Y-48367591D01*
X126829999Y-48201054D01*
X126840500Y-48098266D01*
X126840499Y-46823243D01*
X131865001Y-46823243D01*
X131875494Y-46925954D01*
X131930641Y-47092376D01*
X131930643Y-47092381D01*
X132022684Y-47241602D01*
X132146654Y-47365572D01*
X132295875Y-47457613D01*
X132295880Y-47457615D01*
X132462302Y-47512762D01*
X132462309Y-47512763D01*
X132565019Y-47523256D01*
X132777499Y-47523256D01*
X132777500Y-47523255D01*
X132777500Y-46373257D01*
X131865001Y-46373257D01*
X131865001Y-46823243D01*
X126840499Y-46823243D01*
X126840499Y-46748249D01*
X126829999Y-46645460D01*
X126774814Y-46478923D01*
X126682712Y-46329601D01*
X126573430Y-46220319D01*
X126570310Y-46216675D01*
X126557870Y-46189006D01*
X126543334Y-46162384D01*
X126542527Y-46154878D01*
X126541660Y-46152950D01*
X126542044Y-46150386D01*
X126540500Y-46136026D01*
X126540500Y-45423270D01*
X131865000Y-45423270D01*
X131865000Y-45873257D01*
X132777500Y-45873257D01*
X133277500Y-45873257D01*
X134189999Y-45873257D01*
X134189999Y-45423281D01*
X134189998Y-45423273D01*
X134189995Y-45423240D01*
X134989500Y-45423240D01*
X134989500Y-46823258D01*
X134989501Y-46823275D01*
X135000000Y-46926053D01*
X135000001Y-46926056D01*
X135055185Y-47092588D01*
X135055187Y-47092593D01*
X135080577Y-47133757D01*
X135147288Y-47241913D01*
X135271344Y-47365969D01*
X135420666Y-47458071D01*
X135587203Y-47513256D01*
X135689991Y-47523757D01*
X136615008Y-47523756D01*
X136615016Y-47523755D01*
X136615019Y-47523755D01*
X136691238Y-47515969D01*
X136717797Y-47513256D01*
X136884334Y-47458071D01*
X137033656Y-47365969D01*
X137157712Y-47241913D01*
X137188091Y-47192659D01*
X137240039Y-47145936D01*
X137293630Y-47133757D01*
X138154238Y-47133757D01*
X138221277Y-47153442D01*
X138227119Y-47157436D01*
X138348390Y-47245544D01*
X138464607Y-47304760D01*
X138530776Y-47338475D01*
X138530778Y-47338475D01*
X138530781Y-47338477D01*
X138614171Y-47365572D01*
X138725465Y-47401734D01*
X138809564Y-47415054D01*
X138927648Y-47433757D01*
X138927649Y-47433757D01*
X139132351Y-47433757D01*
X139132352Y-47433757D01*
X139334534Y-47401734D01*
X139529219Y-47338477D01*
X139711610Y-47245544D01*
X139848710Y-47145936D01*
X139877213Y-47125228D01*
X139877215Y-47125225D01*
X139877219Y-47125223D01*
X140021966Y-46980476D01*
X140021968Y-46980472D01*
X140021971Y-46980470D01*
X140136178Y-46823275D01*
X140142287Y-46814867D01*
X140235220Y-46632476D01*
X140298477Y-46437791D01*
X140321925Y-46289740D01*
X140351854Y-46226607D01*
X140356699Y-46221476D01*
X141617140Y-44961038D01*
X141726632Y-44797171D01*
X141802052Y-44615092D01*
X141840501Y-44421797D01*
X141840501Y-44224716D01*
X141840501Y-44219606D01*
X141840500Y-44219580D01*
X141840500Y-42398243D01*
X142540001Y-42398243D01*
X142550494Y-42500954D01*
X142605641Y-42667376D01*
X142605643Y-42667381D01*
X142697684Y-42816602D01*
X142821654Y-42940572D01*
X142970875Y-43032613D01*
X142970880Y-43032615D01*
X143137302Y-43087762D01*
X143137309Y-43087763D01*
X143240019Y-43098256D01*
X143689999Y-43098256D01*
X144190000Y-43098256D01*
X144639972Y-43098256D01*
X144639986Y-43098255D01*
X144742697Y-43087762D01*
X144909119Y-43032615D01*
X144909124Y-43032613D01*
X145058345Y-42940572D01*
X145182315Y-42816602D01*
X145274356Y-42667381D01*
X145274358Y-42667376D01*
X145329505Y-42500954D01*
X145329506Y-42500947D01*
X145339999Y-42398243D01*
X145340000Y-42398230D01*
X145340000Y-42185757D01*
X144190000Y-42185757D01*
X144190000Y-43098256D01*
X143689999Y-43098256D01*
X143690000Y-43098255D01*
X143690000Y-42185757D01*
X142540001Y-42185757D01*
X142540001Y-42398243D01*
X141840500Y-42398243D01*
X141840500Y-41473270D01*
X142540000Y-41473270D01*
X142540000Y-41685757D01*
X143690000Y-41685757D01*
X143690000Y-40773257D01*
X143240028Y-40773257D01*
X143240012Y-40773258D01*
X143137302Y-40783751D01*
X142970880Y-40838898D01*
X142970875Y-40838900D01*
X142821654Y-40930941D01*
X142697684Y-41054911D01*
X142605643Y-41204132D01*
X142605641Y-41204137D01*
X142550494Y-41370559D01*
X142550493Y-41370566D01*
X142540000Y-41473270D01*
X141840500Y-41473270D01*
X141840500Y-27274713D01*
X141840499Y-27274711D01*
X141802052Y-27081427D01*
X141802051Y-27081424D01*
X141802051Y-27081422D01*
X141799503Y-27075271D01*
X141799502Y-27075268D01*
X141765287Y-26992665D01*
X141726635Y-26899350D01*
X141726634Y-26899349D01*
X141726632Y-26899343D01*
X141687801Y-26841228D01*
X141617139Y-26735474D01*
X141570567Y-26688902D01*
X141522611Y-26640947D01*
X141486935Y-26605271D01*
X142360000Y-26605271D01*
X142360000Y-26841242D01*
X142390799Y-27075171D01*
X142451870Y-27303094D01*
X142542160Y-27521076D01*
X142542165Y-27521085D01*
X142660144Y-27725428D01*
X142660145Y-27725429D01*
X142722721Y-27806980D01*
X143558958Y-26970744D01*
X143583978Y-27031147D01*
X143655112Y-27137608D01*
X143745649Y-27228145D01*
X143852110Y-27299279D01*
X143912511Y-27324298D01*
X143076275Y-28160534D01*
X143157827Y-28223111D01*
X143157828Y-28223112D01*
X143362171Y-28341091D01*
X143362180Y-28341096D01*
X143580163Y-28431386D01*
X143580161Y-28431386D01*
X143808085Y-28492457D01*
X144042014Y-28523256D01*
X144042029Y-28523257D01*
X144277971Y-28523257D01*
X144277985Y-28523256D01*
X144511914Y-28492457D01*
X144739837Y-28431386D01*
X144957819Y-28341096D01*
X144957828Y-28341091D01*
X145162181Y-28223107D01*
X145243723Y-28160536D01*
X145243723Y-28160533D01*
X144407487Y-27324298D01*
X144467890Y-27299279D01*
X144574351Y-27228145D01*
X144664888Y-27137608D01*
X144736022Y-27031147D01*
X144761041Y-26970745D01*
X145597276Y-27806980D01*
X145597279Y-27806980D01*
X145659850Y-27725438D01*
X145777834Y-27521085D01*
X145777839Y-27521076D01*
X145868129Y-27303094D01*
X145929200Y-27075171D01*
X145959999Y-26841242D01*
X145960000Y-26841228D01*
X145960000Y-26605285D01*
X145959999Y-26605271D01*
X145929200Y-26371342D01*
X145868129Y-26143419D01*
X145777839Y-25925437D01*
X145777834Y-25925428D01*
X145659855Y-25721085D01*
X145659854Y-25721084D01*
X145597277Y-25639532D01*
X144761041Y-26475768D01*
X144736022Y-26415367D01*
X144664888Y-26308906D01*
X144574351Y-26218369D01*
X144467890Y-26147235D01*
X144407488Y-26122215D01*
X145243723Y-25285978D01*
X145162172Y-25223402D01*
X145162171Y-25223401D01*
X144957828Y-25105422D01*
X144957819Y-25105417D01*
X144739836Y-25015127D01*
X144739838Y-25015127D01*
X144511914Y-24954056D01*
X144277985Y-24923257D01*
X144042014Y-24923257D01*
X143808085Y-24954056D01*
X143580162Y-25015127D01*
X143362180Y-25105417D01*
X143362171Y-25105422D01*
X143157828Y-25223401D01*
X143157818Y-25223407D01*
X143076275Y-25285977D01*
X143076275Y-25285978D01*
X143912512Y-26122215D01*
X143852110Y-26147235D01*
X143745649Y-26218369D01*
X143655112Y-26308906D01*
X143583978Y-26415367D01*
X143558958Y-26475768D01*
X142722721Y-25639532D01*
X142722720Y-25639532D01*
X142660150Y-25721075D01*
X142660144Y-25721085D01*
X142542165Y-25925428D01*
X142542160Y-25925437D01*
X142451870Y-26143419D01*
X142390799Y-26371342D01*
X142360000Y-26605271D01*
X141486935Y-26605271D01*
X141477782Y-26596118D01*
X141477778Y-26596115D01*
X140971479Y-26089816D01*
X140971459Y-26089794D01*
X140827785Y-25946120D01*
X140827777Y-25946114D01*
X140660646Y-25834441D01*
X140622149Y-25793339D01*
X140580273Y-25720807D01*
X140580272Y-25720805D01*
X140436593Y-25533559D01*
X140436587Y-25533552D01*
X140269704Y-25366669D01*
X140269697Y-25366663D01*
X140082454Y-25222987D01*
X140082453Y-25222986D01*
X140082450Y-25222984D01*
X139987279Y-25168037D01*
X139878056Y-25104976D01*
X139878045Y-25104971D01*
X139659993Y-25014651D01*
X139432010Y-24953563D01*
X139198020Y-24922758D01*
X139198017Y-24922757D01*
X139198011Y-24922757D01*
X138961989Y-24922757D01*
X138961983Y-24922757D01*
X138961979Y-24922758D01*
X138727989Y-24953563D01*
X138500006Y-25014651D01*
X138281954Y-25104971D01*
X138281943Y-25104976D01*
X138077545Y-25222987D01*
X137890302Y-25366663D01*
X137890295Y-25366669D01*
X137723412Y-25533552D01*
X137723406Y-25533559D01*
X137579730Y-25720802D01*
X137579727Y-25720806D01*
X137579727Y-25720807D01*
X137572014Y-25734166D01*
X137461719Y-25925200D01*
X137461714Y-25925211D01*
X137371394Y-26143263D01*
X137310306Y-26371246D01*
X137279501Y-26605236D01*
X137279500Y-26605252D01*
X137279500Y-26841261D01*
X137279501Y-26841277D01*
X137310306Y-27075267D01*
X137371394Y-27303250D01*
X137461714Y-27521302D01*
X137461719Y-27521313D01*
X137531245Y-27641734D01*
X137579727Y-27725707D01*
X137579729Y-27725710D01*
X137579730Y-27725711D01*
X137723406Y-27912954D01*
X137723412Y-27912961D01*
X137890295Y-28079844D01*
X137890302Y-28079850D01*
X138000306Y-28164258D01*
X138077550Y-28223530D01*
X138208918Y-28299375D01*
X138281943Y-28341537D01*
X138281948Y-28341539D01*
X138281951Y-28341541D01*
X138500007Y-28431863D01*
X138727986Y-28492950D01*
X138961989Y-28523757D01*
X138961996Y-28523757D01*
X139198004Y-28523757D01*
X139198011Y-28523757D01*
X139432014Y-28492950D01*
X139659993Y-28431863D01*
X139668045Y-28428527D01*
X139737511Y-28421056D01*
X139799992Y-28452328D01*
X139835647Y-28512416D01*
X139839500Y-28543087D01*
X139839500Y-37096845D01*
X139819815Y-37163884D01*
X139767011Y-37209639D01*
X139702898Y-37220203D01*
X139630011Y-37212757D01*
X138429998Y-37212757D01*
X138429981Y-37212758D01*
X138327203Y-37223257D01*
X138327200Y-37223258D01*
X138160668Y-37278442D01*
X138160663Y-37278444D01*
X138011342Y-37370546D01*
X137887289Y-37494599D01*
X137795187Y-37643920D01*
X137795185Y-37643925D01*
X137793915Y-37647758D01*
X137740001Y-37810460D01*
X137740001Y-37810461D01*
X137740000Y-37810461D01*
X137729500Y-37913240D01*
X137729500Y-39113258D01*
X137729501Y-39113275D01*
X137740000Y-39216053D01*
X137740001Y-39216056D01*
X137795185Y-39382588D01*
X137795187Y-39382593D01*
X137808762Y-39404601D01*
X137887288Y-39531913D01*
X138011344Y-39655969D01*
X138160666Y-39748071D01*
X138242570Y-39775211D01*
X138300015Y-39814984D01*
X138326838Y-39879500D01*
X138314523Y-39948275D01*
X138276451Y-39993235D01*
X138182787Y-40061285D01*
X138182782Y-40061289D01*
X138038032Y-40206039D01*
X138038028Y-40206044D01*
X138004900Y-40251642D01*
X138000568Y-40254982D01*
X137998295Y-40259960D01*
X137973195Y-40276090D01*
X137949571Y-40294308D01*
X137942897Y-40295561D01*
X137939517Y-40297734D01*
X137904582Y-40302757D01*
X137722132Y-40302757D01*
X137655093Y-40283072D01*
X137609338Y-40230268D01*
X137598774Y-40191359D01*
X137596412Y-40168245D01*
X137589999Y-40105460D01*
X137534814Y-39938923D01*
X137442712Y-39789601D01*
X137318656Y-39665545D01*
X137169334Y-39573443D01*
X137002797Y-39518258D01*
X137002795Y-39518257D01*
X136900010Y-39507757D01*
X135999998Y-39507757D01*
X135999980Y-39507758D01*
X135897203Y-39518257D01*
X135897200Y-39518258D01*
X135730668Y-39573442D01*
X135730663Y-39573444D01*
X135581342Y-39665546D01*
X135457289Y-39789599D01*
X135365187Y-39938920D01*
X135365185Y-39938925D01*
X135364507Y-39940972D01*
X135310001Y-40105460D01*
X135310001Y-40105461D01*
X135310000Y-40105461D01*
X135299500Y-40208240D01*
X135299500Y-41558258D01*
X135299501Y-41558275D01*
X135310000Y-41661053D01*
X135310001Y-41661056D01*
X135339742Y-41750807D01*
X135365186Y-41827591D01*
X135457288Y-41976913D01*
X135581344Y-42100969D01*
X135730666Y-42193071D01*
X135897203Y-42248256D01*
X135999991Y-42258757D01*
X136900008Y-42258756D01*
X136900016Y-42258755D01*
X136900019Y-42258755D01*
X136967986Y-42251812D01*
X137002797Y-42248256D01*
X137169334Y-42193071D01*
X137318656Y-42100969D01*
X137442712Y-41976913D01*
X137513183Y-41862659D01*
X137565131Y-41815936D01*
X137618722Y-41803757D01*
X137904582Y-41803757D01*
X137971621Y-41823442D01*
X138004900Y-41854872D01*
X138038028Y-41900469D01*
X138038032Y-41900474D01*
X138182786Y-42045228D01*
X138337749Y-42157813D01*
X138348390Y-42165544D01*
X138402415Y-42193071D01*
X138441080Y-42212772D01*
X138491876Y-42260747D01*
X138508671Y-42328568D01*
X138486134Y-42394703D01*
X138441080Y-42433742D01*
X138348386Y-42480972D01*
X138182786Y-42601285D01*
X138038028Y-42746043D01*
X137917715Y-42911643D01*
X137824781Y-43094033D01*
X137761522Y-43288722D01*
X137729500Y-43490905D01*
X137729500Y-43695608D01*
X137761522Y-43897791D01*
X137824781Y-44092480D01*
X137888691Y-44217910D01*
X137917147Y-44273757D01*
X137917715Y-44274870D01*
X138038028Y-44440470D01*
X138182786Y-44585228D01*
X138274198Y-44651641D01*
X138348390Y-44705544D01*
X138439840Y-44752140D01*
X138441080Y-44752772D01*
X138491876Y-44800747D01*
X138508671Y-44868568D01*
X138486134Y-44934703D01*
X138441080Y-44973742D01*
X138348386Y-45020972D01*
X138227123Y-45109075D01*
X138161317Y-45132555D01*
X138154238Y-45132757D01*
X137305966Y-45132757D01*
X137238927Y-45113072D01*
X137200427Y-45073854D01*
X137157712Y-45004601D01*
X137033656Y-44880545D01*
X136908348Y-44803255D01*
X136884336Y-44788444D01*
X136884331Y-44788442D01*
X136882862Y-44787955D01*
X136717797Y-44733258D01*
X136717795Y-44733257D01*
X136615010Y-44722757D01*
X135689998Y-44722757D01*
X135689980Y-44722758D01*
X135587203Y-44733257D01*
X135587200Y-44733258D01*
X135420668Y-44788442D01*
X135420663Y-44788444D01*
X135271342Y-44880546D01*
X135147289Y-45004599D01*
X135055187Y-45153920D01*
X135055185Y-45153925D01*
X135055115Y-45154137D01*
X135000001Y-45320460D01*
X135000001Y-45320461D01*
X135000000Y-45320461D01*
X134989500Y-45423240D01*
X134189995Y-45423240D01*
X134179505Y-45320559D01*
X134124358Y-45154137D01*
X134124356Y-45154132D01*
X134032315Y-45004911D01*
X133908345Y-44880941D01*
X133759124Y-44788900D01*
X133759119Y-44788898D01*
X133592697Y-44733751D01*
X133592690Y-44733750D01*
X133489986Y-44723257D01*
X133277500Y-44723257D01*
X133277500Y-45873257D01*
X132777500Y-45873257D01*
X132777500Y-44723257D01*
X132565029Y-44723257D01*
X132565012Y-44723258D01*
X132462302Y-44733751D01*
X132295880Y-44788898D01*
X132295875Y-44788900D01*
X132146654Y-44880941D01*
X132022684Y-45004911D01*
X131930643Y-45154132D01*
X131930641Y-45154137D01*
X131875494Y-45320559D01*
X131875493Y-45320566D01*
X131865000Y-45423270D01*
X126540500Y-45423270D01*
X126540500Y-44651641D01*
X126560185Y-44584602D01*
X126612989Y-44538847D01*
X126648312Y-44528703D01*
X126692014Y-44522950D01*
X126919993Y-44461863D01*
X127138049Y-44371541D01*
X127342450Y-44253530D01*
X127529699Y-44109849D01*
X127696592Y-43942956D01*
X127840273Y-43755707D01*
X127958284Y-43551306D01*
X128048606Y-43333250D01*
X128109693Y-43105271D01*
X128140500Y-42871268D01*
X128140500Y-42635246D01*
X128109693Y-42401243D01*
X128048606Y-42173264D01*
X127958284Y-41955208D01*
X127958282Y-41955205D01*
X127958280Y-41955200D01*
X127884604Y-41827591D01*
X127840273Y-41750807D01*
X127752339Y-41636209D01*
X127696593Y-41563559D01*
X127696587Y-41563552D01*
X127691278Y-41558243D01*
X132200001Y-41558243D01*
X132210494Y-41660954D01*
X132265641Y-41827376D01*
X132265643Y-41827381D01*
X132357684Y-41976602D01*
X132481654Y-42100572D01*
X132630875Y-42192613D01*
X132630880Y-42192615D01*
X132797302Y-42247762D01*
X132797309Y-42247763D01*
X132900019Y-42258256D01*
X133099999Y-42258256D01*
X133600000Y-42258256D01*
X133799972Y-42258256D01*
X133799986Y-42258255D01*
X133902697Y-42247762D01*
X134069119Y-42192615D01*
X134069124Y-42192613D01*
X134218345Y-42100572D01*
X134342315Y-41976602D01*
X134434356Y-41827381D01*
X134434358Y-41827376D01*
X134489505Y-41660954D01*
X134489506Y-41660947D01*
X134499999Y-41558243D01*
X134500000Y-41558230D01*
X134500000Y-41133257D01*
X133600000Y-41133257D01*
X133600000Y-42258256D01*
X133099999Y-42258256D01*
X133100000Y-42258255D01*
X133100000Y-41133257D01*
X132200001Y-41133257D01*
X132200001Y-41558243D01*
X127691278Y-41558243D01*
X127529704Y-41396669D01*
X127529697Y-41396663D01*
X127342454Y-41252987D01*
X127342453Y-41252986D01*
X127342450Y-41252984D01*
X127232115Y-41189282D01*
X127138056Y-41134976D01*
X127138045Y-41134971D01*
X126919993Y-41044651D01*
X126782404Y-41007784D01*
X126692014Y-40983564D01*
X126692013Y-40983563D01*
X126692010Y-40983563D01*
X126458020Y-40952758D01*
X126458017Y-40952757D01*
X126458011Y-40952757D01*
X126221989Y-40952757D01*
X126221983Y-40952757D01*
X126221979Y-40952758D01*
X125987989Y-40983563D01*
X125760006Y-41044651D01*
X125541954Y-41134971D01*
X125541943Y-41134976D01*
X125337545Y-41252987D01*
X125150302Y-41396663D01*
X125150295Y-41396669D01*
X124983412Y-41563552D01*
X124983406Y-41563559D01*
X124839730Y-41750802D01*
X124721719Y-41955200D01*
X124721714Y-41955211D01*
X124631394Y-42173263D01*
X124570306Y-42401246D01*
X124539501Y-42635236D01*
X124539500Y-42635252D01*
X119910500Y-42635252D01*
X119910500Y-40208270D01*
X132200000Y-40208270D01*
X132200000Y-40633257D01*
X133100000Y-40633257D01*
X133600000Y-40633257D01*
X134499999Y-40633257D01*
X134499999Y-40208285D01*
X134499998Y-40208270D01*
X134489505Y-40105559D01*
X134434358Y-39939137D01*
X134434356Y-39939132D01*
X134342315Y-39789911D01*
X134218345Y-39665941D01*
X134069124Y-39573900D01*
X134069119Y-39573898D01*
X133902697Y-39518751D01*
X133902690Y-39518750D01*
X133799986Y-39508257D01*
X133600000Y-39508257D01*
X133600000Y-40633257D01*
X133100000Y-40633257D01*
X133100000Y-39508257D01*
X132900029Y-39508257D01*
X132900012Y-39508258D01*
X132797302Y-39518751D01*
X132630880Y-39573898D01*
X132630875Y-39573900D01*
X132481654Y-39665941D01*
X132357684Y-39789911D01*
X132265643Y-39939132D01*
X132265641Y-39939137D01*
X132210494Y-40105559D01*
X132210493Y-40105566D01*
X132200000Y-40208270D01*
X119910500Y-40208270D01*
X119910500Y-32723240D01*
X124214500Y-32723240D01*
X124214500Y-33623258D01*
X124214501Y-33623276D01*
X124225000Y-33726053D01*
X124225001Y-33726056D01*
X124240808Y-33773757D01*
X124280186Y-33892591D01*
X124372288Y-34041913D01*
X124496344Y-34165969D01*
X124645666Y-34258071D01*
X124812203Y-34313256D01*
X124878103Y-34319988D01*
X124942794Y-34346384D01*
X124982945Y-34403564D01*
X124989500Y-34443346D01*
X124989500Y-35857619D01*
X124969815Y-35924658D01*
X124930598Y-35963156D01*
X124862288Y-36005290D01*
X124821342Y-36030546D01*
X124697289Y-36154599D01*
X124605187Y-36303920D01*
X124605186Y-36303923D01*
X124550001Y-36470460D01*
X124550001Y-36470461D01*
X124550000Y-36470461D01*
X124539500Y-36573240D01*
X124539500Y-38773258D01*
X124539501Y-38773275D01*
X124550000Y-38876053D01*
X124550001Y-38876056D01*
X124605185Y-39042588D01*
X124605187Y-39042593D01*
X124611954Y-39053564D01*
X124697288Y-39191913D01*
X124821344Y-39315969D01*
X124970666Y-39408071D01*
X125137203Y-39463256D01*
X125239991Y-39473757D01*
X127440008Y-39473756D01*
X127542797Y-39463256D01*
X127709334Y-39408071D01*
X127858656Y-39315969D01*
X127982712Y-39191913D01*
X128074814Y-39042591D01*
X128129999Y-38876054D01*
X128140500Y-38773266D01*
X128140499Y-36573249D01*
X128129999Y-36470460D01*
X128074814Y-36303923D01*
X127982712Y-36154601D01*
X127858656Y-36030545D01*
X127709334Y-35938443D01*
X127542797Y-35883258D01*
X127542795Y-35883257D01*
X127440016Y-35872757D01*
X127440009Y-35872757D01*
X126614500Y-35872757D01*
X126547461Y-35853072D01*
X126501706Y-35800268D01*
X126490500Y-35748757D01*
X126490500Y-35048240D01*
X132239500Y-35048240D01*
X132239500Y-36398258D01*
X132239501Y-36398275D01*
X132250000Y-36501053D01*
X132250001Y-36501056D01*
X132273924Y-36573249D01*
X132305186Y-36667591D01*
X132397288Y-36816913D01*
X132521344Y-36940969D01*
X132670666Y-37033071D01*
X132837203Y-37088256D01*
X132939991Y-37098757D01*
X133840008Y-37098756D01*
X133840016Y-37098755D01*
X133840019Y-37098755D01*
X133896302Y-37093005D01*
X133942797Y-37088256D01*
X134109334Y-37033071D01*
X134258656Y-36940969D01*
X134382712Y-36816913D01*
X134474814Y-36667591D01*
X134529999Y-36501054D01*
X134540500Y-36398266D01*
X134540500Y-36398243D01*
X135340001Y-36398243D01*
X135350494Y-36500954D01*
X135405641Y-36667376D01*
X135405643Y-36667381D01*
X135497684Y-36816602D01*
X135621654Y-36940572D01*
X135770875Y-37032613D01*
X135770880Y-37032615D01*
X135937302Y-37087762D01*
X135937309Y-37087763D01*
X136040019Y-37098256D01*
X136239999Y-37098256D01*
X136740000Y-37098256D01*
X136939972Y-37098256D01*
X136939986Y-37098255D01*
X137042697Y-37087762D01*
X137209119Y-37032615D01*
X137209124Y-37032613D01*
X137358345Y-36940572D01*
X137482315Y-36816602D01*
X137574356Y-36667381D01*
X137574358Y-36667376D01*
X137629505Y-36500954D01*
X137629506Y-36500947D01*
X137639999Y-36398243D01*
X137640000Y-36398230D01*
X137640000Y-35973257D01*
X136740000Y-35973257D01*
X136740000Y-37098256D01*
X136239999Y-37098256D01*
X136240000Y-37098255D01*
X136240000Y-35973257D01*
X135340001Y-35973257D01*
X135340001Y-36398243D01*
X134540500Y-36398243D01*
X134540499Y-35048270D01*
X135340000Y-35048270D01*
X135340000Y-35473257D01*
X136240000Y-35473257D01*
X136740000Y-35473257D01*
X137639999Y-35473257D01*
X137639999Y-35048285D01*
X137639998Y-35048270D01*
X137629505Y-34945559D01*
X137574358Y-34779137D01*
X137574356Y-34779132D01*
X137482315Y-34629911D01*
X137358345Y-34505941D01*
X137209124Y-34413900D01*
X137209119Y-34413898D01*
X137042697Y-34358751D01*
X137042690Y-34358750D01*
X136939986Y-34348257D01*
X136740000Y-34348257D01*
X136740000Y-35473257D01*
X136240000Y-35473257D01*
X136240000Y-34348257D01*
X136040029Y-34348257D01*
X136040012Y-34348258D01*
X135937302Y-34358751D01*
X135770880Y-34413898D01*
X135770875Y-34413900D01*
X135621654Y-34505941D01*
X135497684Y-34629911D01*
X135405643Y-34779132D01*
X135405641Y-34779137D01*
X135350494Y-34945559D01*
X135350493Y-34945566D01*
X135340000Y-35048270D01*
X134540499Y-35048270D01*
X134540499Y-35048249D01*
X134529999Y-34945460D01*
X134474814Y-34778923D01*
X134382712Y-34629601D01*
X134258656Y-34505545D01*
X134109334Y-34413443D01*
X133942797Y-34358258D01*
X133942795Y-34358257D01*
X133840010Y-34347757D01*
X132939998Y-34347757D01*
X132939980Y-34347758D01*
X132837203Y-34358257D01*
X132837200Y-34358258D01*
X132670668Y-34413442D01*
X132670663Y-34413444D01*
X132521342Y-34505546D01*
X132397289Y-34629599D01*
X132305187Y-34778920D01*
X132305185Y-34778925D01*
X132305115Y-34779137D01*
X132250001Y-34945460D01*
X132250001Y-34945461D01*
X132250000Y-34945461D01*
X132239500Y-35048240D01*
X126490500Y-35048240D01*
X126490500Y-34354314D01*
X126510185Y-34287275D01*
X126549401Y-34248777D01*
X126683656Y-34165969D01*
X126807712Y-34041913D01*
X126899814Y-33892591D01*
X126954999Y-33726054D01*
X126965500Y-33623266D01*
X126965499Y-32723249D01*
X126954999Y-32620460D01*
X126899814Y-32453923D01*
X126807712Y-32304601D01*
X126683656Y-32180545D01*
X126534334Y-32088443D01*
X126367797Y-32033258D01*
X126367795Y-32033257D01*
X126265010Y-32022757D01*
X124914998Y-32022757D01*
X124914981Y-32022758D01*
X124812203Y-32033257D01*
X124812200Y-32033258D01*
X124645668Y-32088442D01*
X124645663Y-32088444D01*
X124496342Y-32180546D01*
X124372289Y-32304599D01*
X124280187Y-32453920D01*
X124280186Y-32453923D01*
X124225001Y-32620460D01*
X124225001Y-32620461D01*
X124225000Y-32620461D01*
X124214500Y-32723240D01*
X119910500Y-32723240D01*
X119910500Y-30523243D01*
X124215001Y-30523243D01*
X124225494Y-30625954D01*
X124280641Y-30792376D01*
X124280643Y-30792381D01*
X124372684Y-30941602D01*
X124496654Y-31065572D01*
X124645875Y-31157613D01*
X124645880Y-31157615D01*
X124812302Y-31212762D01*
X124812309Y-31212763D01*
X124915019Y-31223256D01*
X125339999Y-31223256D01*
X125840000Y-31223256D01*
X126264972Y-31223256D01*
X126264986Y-31223255D01*
X126367697Y-31212762D01*
X126534119Y-31157615D01*
X126534124Y-31157613D01*
X126683345Y-31065572D01*
X126807315Y-30941602D01*
X126899356Y-30792381D01*
X126899358Y-30792376D01*
X126954505Y-30625954D01*
X126954506Y-30625947D01*
X126964999Y-30523243D01*
X126965000Y-30523230D01*
X126965000Y-30323257D01*
X125840000Y-30323257D01*
X125840000Y-31223256D01*
X125339999Y-31223256D01*
X125340000Y-31223255D01*
X125340000Y-30323257D01*
X124215001Y-30323257D01*
X124215001Y-30523243D01*
X119910500Y-30523243D01*
X119910500Y-29873240D01*
X129139500Y-29873240D01*
X129139500Y-31073258D01*
X129139501Y-31073275D01*
X129150000Y-31176053D01*
X129150001Y-31176056D01*
X129205185Y-31342588D01*
X129205186Y-31342591D01*
X129297288Y-31491913D01*
X129343308Y-31537933D01*
X129366153Y-31560778D01*
X129399637Y-31622102D01*
X129394652Y-31691793D01*
X129378790Y-31721342D01*
X129327717Y-31791640D01*
X129327712Y-31791648D01*
X129234781Y-31974033D01*
X129171522Y-32168722D01*
X129139500Y-32370905D01*
X129139500Y-32575608D01*
X129171522Y-32777791D01*
X129234781Y-32972480D01*
X129327715Y-33154870D01*
X129448028Y-33320470D01*
X129592786Y-33465228D01*
X129747749Y-33577813D01*
X129758390Y-33585544D01*
X129874607Y-33644760D01*
X129940776Y-33678475D01*
X129940778Y-33678475D01*
X129940781Y-33678477D01*
X130045137Y-33712384D01*
X130135465Y-33741734D01*
X130236557Y-33757745D01*
X130337648Y-33773757D01*
X130337649Y-33773757D01*
X130542351Y-33773757D01*
X130542352Y-33773757D01*
X130744534Y-33741734D01*
X130939219Y-33678477D01*
X131121610Y-33585544D01*
X131214590Y-33517989D01*
X131287213Y-33465228D01*
X131287215Y-33465225D01*
X131287219Y-33465223D01*
X131431966Y-33320476D01*
X131431968Y-33320472D01*
X131431971Y-33320470D01*
X131484732Y-33247847D01*
X131552287Y-33154867D01*
X131645220Y-32972476D01*
X131708477Y-32777791D01*
X131740500Y-32575609D01*
X131740500Y-32370905D01*
X131710350Y-32180546D01*
X131708477Y-32168722D01*
X131645218Y-31974033D01*
X131596193Y-31877818D01*
X131552287Y-31791647D01*
X131501207Y-31721342D01*
X131477729Y-31655539D01*
X131493554Y-31587485D01*
X131513839Y-31560785D01*
X131582712Y-31491913D01*
X131674814Y-31342591D01*
X131702595Y-31258752D01*
X131742368Y-31201308D01*
X131806884Y-31174485D01*
X131820301Y-31173757D01*
X133688920Y-31173757D01*
X133786462Y-31154353D01*
X133833913Y-31144915D01*
X133970495Y-31088341D01*
X134019729Y-31055443D01*
X134093416Y-31006209D01*
X134188419Y-30911206D01*
X134272951Y-30826673D01*
X134355084Y-30703752D01*
X134411658Y-30567170D01*
X134440500Y-30422175D01*
X134440500Y-30274340D01*
X134440500Y-27571327D01*
X134460185Y-27504288D01*
X134491613Y-27471010D01*
X134637219Y-27365223D01*
X134781966Y-27220476D01*
X134781968Y-27220472D01*
X134781971Y-27220470D01*
X134882992Y-27081424D01*
X134902287Y-27054867D01*
X134995220Y-26872476D01*
X135058477Y-26677791D01*
X135090500Y-26475609D01*
X135090500Y-26270905D01*
X135070283Y-26143263D01*
X135058477Y-26068722D01*
X135018639Y-25946114D01*
X134995220Y-25874038D01*
X134995218Y-25874035D01*
X134995218Y-25874033D01*
X134917286Y-25721085D01*
X134902287Y-25691647D01*
X134852598Y-25623255D01*
X134781971Y-25526043D01*
X134637213Y-25381285D01*
X134471613Y-25260972D01*
X134471612Y-25260971D01*
X134471610Y-25260970D01*
X134397877Y-25223401D01*
X134289223Y-25168038D01*
X134094534Y-25104779D01*
X133919995Y-25077135D01*
X133892352Y-25072757D01*
X133687648Y-25072757D01*
X133663329Y-25076608D01*
X133485465Y-25104779D01*
X133290776Y-25168038D01*
X133108386Y-25260972D01*
X132942786Y-25381285D01*
X132798028Y-25526043D01*
X132677715Y-25691643D01*
X132584781Y-25874033D01*
X132521522Y-26068722D01*
X132489500Y-26270905D01*
X132489500Y-26475608D01*
X132521522Y-26677791D01*
X132584781Y-26872480D01*
X132677715Y-27054870D01*
X132798028Y-27220470D01*
X132903181Y-27325623D01*
X132936666Y-27386946D01*
X132939500Y-27413304D01*
X132939500Y-29548757D01*
X132919815Y-29615796D01*
X132867011Y-29661551D01*
X132815500Y-29672757D01*
X131785908Y-29672757D01*
X131718869Y-29653072D01*
X131680363Y-29608985D01*
X131678605Y-29610070D01*
X131674812Y-29603920D01*
X131582712Y-29454601D01*
X131458656Y-29330545D01*
X131309334Y-29238443D01*
X131142797Y-29183258D01*
X131142795Y-29183257D01*
X131040010Y-29172757D01*
X129839998Y-29172757D01*
X129839981Y-29172758D01*
X129737203Y-29183257D01*
X129737200Y-29183258D01*
X129570668Y-29238442D01*
X129570663Y-29238444D01*
X129421342Y-29330546D01*
X129297289Y-29454599D01*
X129205187Y-29603920D01*
X129205185Y-29603925D01*
X129186090Y-29661551D01*
X129150001Y-29770460D01*
X129150001Y-29770461D01*
X129150000Y-29770461D01*
X129139500Y-29873240D01*
X119910500Y-29873240D01*
X119910500Y-29623270D01*
X124215000Y-29623270D01*
X124215000Y-29823257D01*
X125340000Y-29823257D01*
X125840000Y-29823257D01*
X126964999Y-29823257D01*
X126964999Y-29623285D01*
X126964998Y-29623270D01*
X126954505Y-29520559D01*
X126899358Y-29354137D01*
X126899356Y-29354132D01*
X126807315Y-29204911D01*
X126683345Y-29080941D01*
X126534124Y-28988900D01*
X126534119Y-28988898D01*
X126367697Y-28933751D01*
X126367690Y-28933750D01*
X126264986Y-28923257D01*
X125840000Y-28923257D01*
X125840000Y-29823257D01*
X125340000Y-29823257D01*
X125340000Y-28923257D01*
X124915028Y-28923257D01*
X124915012Y-28923258D01*
X124812302Y-28933751D01*
X124645880Y-28988898D01*
X124645875Y-28988900D01*
X124496654Y-29080941D01*
X124372684Y-29204911D01*
X124280643Y-29354132D01*
X124280641Y-29354137D01*
X124225494Y-29520559D01*
X124225493Y-29520566D01*
X124215000Y-29623270D01*
X119910500Y-29623270D01*
X119910500Y-27147257D01*
X119930185Y-27080218D01*
X119982989Y-27034463D01*
X120034500Y-27023257D01*
X126390000Y-27023257D01*
X126390000Y-26270905D01*
X127489500Y-26270905D01*
X127489500Y-26475608D01*
X127521522Y-26677791D01*
X127584781Y-26872480D01*
X127677715Y-27054870D01*
X127798028Y-27220470D01*
X127942786Y-27365228D01*
X128062015Y-27451851D01*
X128108390Y-27485544D01*
X128178591Y-27521313D01*
X128290776Y-27578475D01*
X128290778Y-27578475D01*
X128290781Y-27578477D01*
X128395137Y-27612384D01*
X128485465Y-27641734D01*
X128586557Y-27657745D01*
X128687648Y-27673757D01*
X128687649Y-27673757D01*
X128892351Y-27673757D01*
X128892352Y-27673757D01*
X129094534Y-27641734D01*
X129289219Y-27578477D01*
X129471610Y-27485544D01*
X129607320Y-27386946D01*
X129637213Y-27365228D01*
X129637215Y-27365225D01*
X129637219Y-27365223D01*
X129781966Y-27220476D01*
X129781968Y-27220472D01*
X129781971Y-27220470D01*
X129882992Y-27081424D01*
X129902287Y-27054867D01*
X129995220Y-26872476D01*
X130058477Y-26677791D01*
X130090500Y-26475609D01*
X130090500Y-26270905D01*
X130070283Y-26143263D01*
X130058477Y-26068722D01*
X130018639Y-25946114D01*
X129995220Y-25874038D01*
X129995218Y-25874035D01*
X129995218Y-25874033D01*
X129917286Y-25721085D01*
X129902287Y-25691647D01*
X129852598Y-25623255D01*
X129781971Y-25526043D01*
X129637213Y-25381285D01*
X129471613Y-25260972D01*
X129471612Y-25260971D01*
X129471610Y-25260970D01*
X129397877Y-25223401D01*
X129289223Y-25168038D01*
X129094534Y-25104779D01*
X128919995Y-25077135D01*
X128892352Y-25072757D01*
X128687648Y-25072757D01*
X128663329Y-25076608D01*
X128485465Y-25104779D01*
X128290776Y-25168038D01*
X128108386Y-25260972D01*
X127942786Y-25381285D01*
X127798028Y-25526043D01*
X127677715Y-25691643D01*
X127584781Y-25874033D01*
X127521522Y-26068722D01*
X127489500Y-26270905D01*
X126390000Y-26270905D01*
X126390000Y-20624500D01*
X126409685Y-20557461D01*
X126462489Y-20511706D01*
X126514000Y-20500500D01*
X170466000Y-20500500D01*
X170533039Y-20520185D01*
G37*
%TD.AperFunction*%
%TD*%
M02*
