%TF.GenerationSoftware,KiCad,Pcbnew,10.0.1*%
%TF.CreationDate,2026-07-31T14:22:47+09:00*%
%TF.ProjectId,AudioCase_6_measurement_adc,41756469-6f43-4617-9365-5f365f6d6561,rev?*%
%TF.SameCoordinates,Original*%
%TF.FileFunction,Drillmap*%
%TF.FilePolarity,Positive*%
%FSLAX45Y45*%
G04 Gerber Fmt 4.5, Leading zero omitted, Abs format (unit mm)*
G04 Created by KiCad (PCBNEW 10.0.1) date 2026-07-31 14:22:47*
%MOMM*%
%LPD*%
G01*
G04 APERTURE LIST*
%ADD10C,0.100000*%
%ADD11C,0.200000*%
%ADD12C,0.120000*%
%ADD13C,0.130000*%
%ADD14C,0.320000*%
G04 APERTURE END LIST*
D10*
X5720000Y-2000000D02*
X23980000Y-2000000D01*
X5720000Y-10370000D02*
X5720000Y-2000000D01*
X23980000Y-2000000D02*
X23980000Y-10370000D01*
X23980000Y-10370000D02*
X5720000Y-10370000D01*
D11*
D10*
X5853000Y-7418000D02*
X5883000Y-7448000D01*
X5883000Y-7418000D02*
X5853000Y-7448000D01*
X6123000Y-9533000D02*
X6153000Y-9563000D01*
X6153000Y-9533000D02*
X6123000Y-9563000D01*
X6148000Y-4973000D02*
X6178000Y-5003000D01*
X6178000Y-4973000D02*
X6148000Y-5003000D01*
X6158000Y-5438000D02*
X6188000Y-5468000D01*
X6188000Y-5438000D02*
X6158000Y-5468000D01*
X6368000Y-7998000D02*
X6398000Y-8028000D01*
X6398000Y-7998000D02*
X6368000Y-8028000D01*
X6563000Y-6188000D02*
X6593000Y-6218000D01*
X6593000Y-6188000D02*
X6563000Y-6218000D01*
X6703000Y-9087000D02*
X6733000Y-9117000D01*
X6733000Y-9087000D02*
X6703000Y-9117000D01*
X6808000Y-5663000D02*
X6838000Y-5693000D01*
X6838000Y-5663000D02*
X6808000Y-5693000D01*
X6873000Y-8648000D02*
X6903000Y-8678000D01*
X6903000Y-8648000D02*
X6873000Y-8678000D01*
X6908000Y-8133000D02*
X6938000Y-8163000D01*
X6938000Y-8133000D02*
X6908000Y-8163000D01*
X6911750Y-9358000D02*
X6941750Y-9388000D01*
X6941750Y-9358000D02*
X6911750Y-9388000D01*
X6998000Y-6823000D02*
X7028000Y-6853000D01*
X7028000Y-6823000D02*
X6998000Y-6853000D01*
X7003000Y-7463000D02*
X7033000Y-7493000D01*
X7033000Y-7463000D02*
X7003000Y-7493000D01*
X7108000Y-4668000D02*
X7138000Y-4698000D01*
X7138000Y-4668000D02*
X7108000Y-4698000D01*
X7138000Y-6193000D02*
X7168000Y-6223000D01*
X7168000Y-6193000D02*
X7138000Y-6223000D01*
X7228000Y-5003000D02*
X7258000Y-5033000D01*
X7258000Y-5003000D02*
X7228000Y-5033000D01*
X7238000Y-5160000D02*
X7268000Y-5190000D01*
X7268000Y-5160000D02*
X7238000Y-5190000D01*
X7240500Y-5485500D02*
X7270500Y-5515500D01*
X7270500Y-5485500D02*
X7240500Y-5515500D01*
X7278000Y-8143000D02*
X7308000Y-8173000D01*
X7308000Y-8143000D02*
X7278000Y-8173000D01*
X7379250Y-8673000D02*
X7409250Y-8703000D01*
X7409250Y-8673000D02*
X7379250Y-8703000D01*
X7413000Y-6688000D02*
X7443000Y-6718000D01*
X7443000Y-6688000D02*
X7413000Y-6718000D01*
X7423000Y-4843000D02*
X7453000Y-4873000D01*
X7453000Y-4843000D02*
X7423000Y-4873000D01*
X7463000Y-6198000D02*
X7493000Y-6228000D01*
X7493000Y-6198000D02*
X7463000Y-6228000D01*
X7503000Y-5933000D02*
X7533000Y-5963000D01*
X7533000Y-5933000D02*
X7503000Y-5963000D01*
X7513000Y-9708000D02*
X7543000Y-9738000D01*
X7543000Y-9708000D02*
X7513000Y-9738000D01*
X7603000Y-7473000D02*
X7633000Y-7503000D01*
X7633000Y-7473000D02*
X7603000Y-7503000D01*
X7648000Y-6870500D02*
X7678000Y-6900500D01*
X7678000Y-6870500D02*
X7648000Y-6900500D01*
X7818000Y-5963000D02*
X7848000Y-5993000D01*
X7848000Y-5963000D02*
X7818000Y-5993000D01*
X7833000Y-7753000D02*
X7863000Y-7783000D01*
X7863000Y-7753000D02*
X7833000Y-7783000D01*
X7848000Y-9368000D02*
X7878000Y-9398000D01*
X7878000Y-9368000D02*
X7848000Y-9398000D01*
X7853000Y-8158000D02*
X7883000Y-8188000D01*
X7883000Y-8158000D02*
X7853000Y-8188000D01*
X7908000Y-7108000D02*
X7938000Y-7138000D01*
X7938000Y-7108000D02*
X7908000Y-7138000D01*
X7968000Y-4868000D02*
X7998000Y-4898000D01*
X7998000Y-4868000D02*
X7968000Y-4898000D01*
X7993000Y-5928000D02*
X8023000Y-5958000D01*
X8023000Y-5928000D02*
X7993000Y-5958000D01*
X8178000Y-5048000D02*
X8208000Y-5078000D01*
X8208000Y-5048000D02*
X8178000Y-5078000D01*
X8179000Y-5287000D02*
X8209000Y-5317000D01*
X8209000Y-5287000D02*
X8179000Y-5317000D01*
X8179000Y-5512000D02*
X8209000Y-5542000D01*
X8209000Y-5512000D02*
X8179000Y-5542000D01*
X8203000Y-4668000D02*
X8233000Y-4698000D01*
X8233000Y-4668000D02*
X8203000Y-4698000D01*
X8253000Y-8413000D02*
X8283000Y-8443000D01*
X8283000Y-8413000D02*
X8253000Y-8443000D01*
X8363000Y-9153000D02*
X8393000Y-9183000D01*
X8393000Y-9153000D02*
X8363000Y-9183000D01*
X8428000Y-7628000D02*
X8458000Y-7658000D01*
X8458000Y-7628000D02*
X8428000Y-7658000D01*
X8458000Y-5718000D02*
X8488000Y-5748000D01*
X8488000Y-5718000D02*
X8458000Y-5748000D01*
X8603000Y-6633000D02*
X8633000Y-6663000D01*
X8633000Y-6633000D02*
X8603000Y-6663000D01*
X8703000Y-7018000D02*
X8733000Y-7048000D01*
X8733000Y-7018000D02*
X8703000Y-7048000D01*
X8723000Y-7363000D02*
X8753000Y-7393000D01*
X8753000Y-7363000D02*
X8723000Y-7393000D01*
X8958000Y-9608000D02*
X8988000Y-9638000D01*
X8988000Y-9608000D02*
X8958000Y-9638000D01*
X9118000Y-5388000D02*
X9148000Y-5418000D01*
X9148000Y-5388000D02*
X9118000Y-5418000D01*
X9218000Y-4678000D02*
X9248000Y-4708000D01*
X9248000Y-4678000D02*
X9218000Y-4708000D01*
X9303000Y-6658000D02*
X9333000Y-6688000D01*
X9333000Y-6658000D02*
X9303000Y-6688000D01*
X9338000Y-8653000D02*
X9368000Y-8683000D01*
X9368000Y-8653000D02*
X9338000Y-8683000D01*
X9393000Y-6863000D02*
X9423000Y-6893000D01*
X9423000Y-6863000D02*
X9393000Y-6893000D01*
X9433000Y-7673000D02*
X9463000Y-7703000D01*
X9463000Y-7673000D02*
X9433000Y-7703000D01*
X9858000Y-7133000D02*
X9888000Y-7163000D01*
X9888000Y-7133000D02*
X9858000Y-7163000D01*
X9873000Y-6863000D02*
X9903000Y-6893000D01*
X9903000Y-6863000D02*
X9873000Y-6893000D01*
X9998000Y-6613000D02*
X10028000Y-6643000D01*
X10028000Y-6613000D02*
X9998000Y-6643000D01*
X10073000Y-6253000D02*
X10103000Y-6283000D01*
X10103000Y-6253000D02*
X10073000Y-6283000D01*
X10158000Y-7943000D02*
X10188000Y-7973000D01*
X10188000Y-7943000D02*
X10158000Y-7973000D01*
X10163000Y-5603000D02*
X10193000Y-5633000D01*
X10193000Y-5603000D02*
X10163000Y-5633000D01*
X10483000Y-5273000D02*
X10513000Y-5303000D01*
X10513000Y-5273000D02*
X10483000Y-5303000D01*
X10508000Y-7403000D02*
X10538000Y-7433000D01*
X10538000Y-7403000D02*
X10508000Y-7433000D01*
X10528000Y-7948000D02*
X10558000Y-7978000D01*
X10558000Y-7948000D02*
X10528000Y-7978000D01*
X10533000Y-4608000D02*
X10563000Y-4638000D01*
X10563000Y-4608000D02*
X10533000Y-4638000D01*
X10533000Y-8443000D02*
X10563000Y-8473000D01*
X10563000Y-8443000D02*
X10533000Y-8473000D01*
X10843000Y-6238000D02*
X10873000Y-6268000D01*
X10873000Y-6238000D02*
X10843000Y-6268000D01*
X11318000Y-7043000D02*
X11348000Y-7073000D01*
X11348000Y-7043000D02*
X11318000Y-7073000D01*
X11323000Y-9818000D02*
X11353000Y-9848000D01*
X11353000Y-9818000D02*
X11323000Y-9848000D01*
X11538000Y-9638000D02*
X11568000Y-9668000D01*
X11568000Y-9638000D02*
X11538000Y-9668000D01*
X11538000Y-9983000D02*
X11568000Y-10013000D01*
X11568000Y-9983000D02*
X11538000Y-10013000D01*
X11558000Y-6888000D02*
X11588000Y-6918000D01*
X11588000Y-6888000D02*
X11558000Y-6918000D01*
X11558000Y-8433000D02*
X11588000Y-8463000D01*
X11588000Y-8433000D02*
X11558000Y-8463000D01*
X11568000Y-7223000D02*
X11598000Y-7253000D01*
X11598000Y-7223000D02*
X11568000Y-7253000D01*
X12253000Y-8443000D02*
X12283000Y-8473000D01*
X12283000Y-8443000D02*
X12253000Y-8473000D01*
X12633000Y-5779000D02*
X12663000Y-5809000D01*
X12663000Y-5779000D02*
X12633000Y-5809000D01*
X12967000Y-5493000D02*
X12997000Y-5523000D01*
X12997000Y-5493000D02*
X12967000Y-5523000D01*
X13780000Y-3306000D02*
X13810000Y-3336000D01*
X13810000Y-3306000D02*
X13780000Y-3336000D01*
X14101000Y-5760000D02*
X14131000Y-5790000D01*
X14131000Y-5760000D02*
X14101000Y-5790000D01*
X14178000Y-6737000D02*
X14208000Y-6767000D01*
X14208000Y-6737000D02*
X14178000Y-6767000D01*
X14314000Y-5982000D02*
X14344000Y-6012000D01*
X14344000Y-5982000D02*
X14314000Y-6012000D01*
X14511000Y-7022000D02*
X14541000Y-7052000D01*
X14541000Y-7022000D02*
X14511000Y-7052000D01*
X14588000Y-4586000D02*
X14618000Y-4616000D01*
X14618000Y-4586000D02*
X14588000Y-4616000D01*
X14735000Y-5706000D02*
X14765000Y-5736000D01*
X14765000Y-5706000D02*
X14735000Y-5736000D01*
X14868000Y-5382000D02*
X14898000Y-5412000D01*
X14898000Y-5382000D02*
X14868000Y-5412000D01*
X14952000Y-4158000D02*
X14982000Y-4188000D01*
X14982000Y-4158000D02*
X14952000Y-4188000D01*
X14956000Y-3171000D02*
X14986000Y-3201000D01*
X14986000Y-3171000D02*
X14956000Y-3201000D01*
X15240000Y-2610000D02*
X15270000Y-2640000D01*
X15270000Y-2610000D02*
X15240000Y-2640000D01*
X15248000Y-5980000D02*
X15278000Y-6010000D01*
X15278000Y-5980000D02*
X15248000Y-6010000D01*
X15422000Y-2942000D02*
X15452000Y-2972000D01*
X15452000Y-2942000D02*
X15422000Y-2972000D01*
X15628000Y-5437000D02*
X15658000Y-5467000D01*
X15658000Y-5437000D02*
X15628000Y-5467000D01*
X15685500Y-8458000D02*
X15715500Y-8488000D01*
X15715500Y-8458000D02*
X15685500Y-8488000D01*
X15896000Y-3099000D02*
X15926000Y-3129000D01*
X15926000Y-3099000D02*
X15896000Y-3129000D01*
X15902000Y-4005000D02*
X15932000Y-4035000D01*
X15932000Y-4005000D02*
X15902000Y-4035000D01*
X15946000Y-4617000D02*
X15976000Y-4647000D01*
X15976000Y-4617000D02*
X15946000Y-4647000D01*
X16678000Y-4214000D02*
X16708000Y-4244000D01*
X16708000Y-4214000D02*
X16678000Y-4244000D01*
X16743000Y-2445000D02*
X16773000Y-2475000D01*
X16773000Y-2445000D02*
X16743000Y-2475000D01*
X16796000Y-2933000D02*
X16826000Y-2963000D01*
X16826000Y-2933000D02*
X16796000Y-2963000D01*
X16968000Y-7693000D02*
X16998000Y-7723000D01*
X16998000Y-7693000D02*
X16968000Y-7723000D01*
X17383000Y-8178000D02*
X17413000Y-8208000D01*
X17413000Y-8178000D02*
X17383000Y-8208000D01*
X18015500Y-9805000D02*
X18045500Y-9835000D01*
X18045500Y-9805000D02*
X18015500Y-9835000D01*
X18173000Y-10125500D02*
X18203000Y-10155500D01*
X18203000Y-10125500D02*
X18173000Y-10155500D01*
X18363000Y-7695500D02*
X18393000Y-7725500D01*
X18393000Y-7695500D02*
X18363000Y-7725500D01*
X19275500Y-10075500D02*
X19305500Y-10105500D01*
X19305500Y-10075500D02*
X19275500Y-10105500D01*
X19489500Y-8870000D02*
X19519500Y-8900000D01*
X19519500Y-8870000D02*
X19489500Y-8900000D01*
X19757000Y-6070000D02*
X19787000Y-6100000D01*
X19787000Y-6070000D02*
X19757000Y-6100000D01*
X19957000Y-8197500D02*
X19987000Y-8227500D01*
X19987000Y-8197500D02*
X19957000Y-8227500D01*
X20739500Y-5550000D02*
X20769500Y-5580000D01*
X20769500Y-5550000D02*
X20739500Y-5580000D01*
X21212000Y-5872500D02*
X21242000Y-5902500D01*
X21242000Y-5872500D02*
X21212000Y-5902500D01*
X21670500Y-8908000D02*
X21700500Y-8938000D01*
X21700500Y-8908000D02*
X21670500Y-8938000D01*
X21828000Y-7900500D02*
X21858000Y-7930500D01*
X21858000Y-7900500D02*
X21828000Y-7930500D01*
X21832000Y-5558000D02*
X21862000Y-5588000D01*
X21862000Y-5558000D02*
X21832000Y-5588000D01*
X23140500Y-9088000D02*
X23170500Y-9118000D01*
X23170500Y-9088000D02*
X23140500Y-9118000D01*
X6028000Y-8388000D02*
G75*
G02*
X5948000Y-8388000I-40000J0D01*
G01*
X5948000Y-8388000D02*
G75*
G02*
X6028000Y-8388000I40000J0D01*
G01*
X6228000Y-8388000D02*
G75*
G02*
X6148000Y-8388000I-40000J0D01*
G01*
X6148000Y-8388000D02*
G75*
G02*
X6228000Y-8388000I40000J0D01*
G01*
X6288000Y-5873000D02*
G75*
G02*
X6208000Y-5873000I-40000J0D01*
G01*
X6208000Y-5873000D02*
G75*
G02*
X6288000Y-5873000I40000J0D01*
G01*
X6488000Y-5873000D02*
G75*
G02*
X6408000Y-5873000I-40000J0D01*
G01*
X6408000Y-5873000D02*
G75*
G02*
X6488000Y-5873000I40000J0D01*
G01*
X8238000Y-8073000D02*
G75*
G02*
X8158000Y-8073000I-40000J0D01*
G01*
X8158000Y-8073000D02*
G75*
G02*
X8238000Y-8073000I40000J0D01*
G01*
X8438000Y-8073000D02*
G75*
G02*
X8358000Y-8073000I-40000J0D01*
G01*
X8358000Y-8073000D02*
G75*
G02*
X8438000Y-8073000I40000J0D01*
G01*
X8818000Y-8683000D02*
G75*
G02*
X8738000Y-8683000I-40000J0D01*
G01*
X8738000Y-8683000D02*
G75*
G02*
X8818000Y-8683000I40000J0D01*
G01*
X8818000Y-9233000D02*
G75*
G02*
X8738000Y-9233000I-40000J0D01*
G01*
X8738000Y-9233000D02*
G75*
G02*
X8818000Y-9233000I40000J0D01*
G01*
X8853000Y-5863000D02*
G75*
G02*
X8773000Y-5863000I-40000J0D01*
G01*
X8773000Y-5863000D02*
G75*
G02*
X8853000Y-5863000I40000J0D01*
G01*
X8853000Y-6063000D02*
G75*
G02*
X8773000Y-6063000I-40000J0D01*
G01*
X8773000Y-6063000D02*
G75*
G02*
X8853000Y-6063000I40000J0D01*
G01*
X8983000Y-8228000D02*
G75*
G02*
X8903000Y-8228000I-40000J0D01*
G01*
X8903000Y-8228000D02*
G75*
G02*
X8983000Y-8228000I40000J0D01*
G01*
X9068000Y-7713000D02*
G75*
G02*
X8988000Y-7713000I-40000J0D01*
G01*
X8988000Y-7713000D02*
G75*
G02*
X9068000Y-7713000I40000J0D01*
G01*
X9548000Y-5978000D02*
G75*
G02*
X9468000Y-5978000I-40000J0D01*
G01*
X9468000Y-5978000D02*
G75*
G02*
X9548000Y-5978000I40000J0D01*
G01*
X9748000Y-5978000D02*
G75*
G02*
X9668000Y-5978000I-40000J0D01*
G01*
X9668000Y-5978000D02*
G75*
G02*
X9748000Y-5978000I40000J0D01*
G01*
X9748000Y-6593000D02*
G75*
G02*
X9668000Y-6593000I-40000J0D01*
G01*
X9668000Y-6593000D02*
G75*
G02*
X9748000Y-6593000I40000J0D01*
G01*
X10088000Y-8683000D02*
G75*
G02*
X10008000Y-8683000I-40000J0D01*
G01*
X10008000Y-8683000D02*
G75*
G02*
X10088000Y-8683000I40000J0D01*
G01*
X10088000Y-9233000D02*
G75*
G02*
X10008000Y-9233000I-40000J0D01*
G01*
X10008000Y-9233000D02*
G75*
G02*
X10088000Y-9233000I40000J0D01*
G01*
X10228000Y-7123000D02*
G75*
G02*
X10148000Y-7123000I-40000J0D01*
G01*
X10148000Y-7123000D02*
G75*
G02*
X10228000Y-7123000I40000J0D01*
G01*
X10248000Y-6593000D02*
G75*
G02*
X10168000Y-6593000I-40000J0D01*
G01*
X10168000Y-6593000D02*
G75*
G02*
X10248000Y-6593000I40000J0D01*
G01*
X10253000Y-8228000D02*
G75*
G02*
X10173000Y-8228000I-40000J0D01*
G01*
X10173000Y-8228000D02*
G75*
G02*
X10253000Y-8228000I40000J0D01*
G01*
X10338000Y-7713000D02*
G75*
G02*
X10258000Y-7713000I-40000J0D01*
G01*
X10258000Y-7713000D02*
G75*
G02*
X10338000Y-7713000I40000J0D01*
G01*
X10578000Y-5923000D02*
G75*
G02*
X10498000Y-5923000I-40000J0D01*
G01*
X10498000Y-5923000D02*
G75*
G02*
X10578000Y-5923000I40000J0D01*
G01*
X10728000Y-7123000D02*
G75*
G02*
X10648000Y-7123000I-40000J0D01*
G01*
X10648000Y-7123000D02*
G75*
G02*
X10728000Y-7123000I40000J0D01*
G01*
X10778000Y-5923000D02*
G75*
G02*
X10698000Y-5923000I-40000J0D01*
G01*
X10698000Y-5923000D02*
G75*
G02*
X10778000Y-5923000I40000J0D01*
G01*
X11538000Y-7433000D02*
G75*
G02*
X11458000Y-7433000I-40000J0D01*
G01*
X11458000Y-7433000D02*
G75*
G02*
X11538000Y-7433000I40000J0D01*
G01*
X11538000Y-7933000D02*
G75*
G02*
X11458000Y-7933000I-40000J0D01*
G01*
X11458000Y-7933000D02*
G75*
G02*
X11538000Y-7933000I40000J0D01*
G01*
X11538000Y-8933000D02*
G75*
G02*
X11458000Y-8933000I-40000J0D01*
G01*
X11458000Y-8933000D02*
G75*
G02*
X11538000Y-8933000I40000J0D01*
G01*
X11538000Y-9433000D02*
G75*
G02*
X11458000Y-9433000I-40000J0D01*
G01*
X11458000Y-9433000D02*
G75*
G02*
X11538000Y-9433000I40000J0D01*
G01*
X13695500Y-6290500D02*
G75*
G02*
X13615500Y-6290500I-40000J0D01*
G01*
X13615500Y-6290500D02*
G75*
G02*
X13695500Y-6290500I40000J0D01*
G01*
X13937000Y-4722000D02*
G75*
G02*
X13857000Y-4722000I-40000J0D01*
G01*
X13857000Y-4722000D02*
G75*
G02*
X13937000Y-4722000I40000J0D01*
G01*
X13937000Y-5222000D02*
G75*
G02*
X13857000Y-5222000I-40000J0D01*
G01*
X13857000Y-5222000D02*
G75*
G02*
X13937000Y-5222000I40000J0D01*
G01*
X14204000Y-3326000D02*
G75*
G02*
X14124000Y-3326000I-40000J0D01*
G01*
X14124000Y-3326000D02*
G75*
G02*
X14204000Y-3326000I40000J0D01*
G01*
X14223000Y-3934000D02*
G75*
G02*
X14143000Y-3934000I-40000J0D01*
G01*
X14143000Y-3934000D02*
G75*
G02*
X14223000Y-3934000I40000J0D01*
G01*
X14223000Y-4434000D02*
G75*
G02*
X14143000Y-4434000I-40000J0D01*
G01*
X14143000Y-4434000D02*
G75*
G02*
X14223000Y-4434000I40000J0D01*
G01*
X14414000Y-2435000D02*
G75*
G02*
X14334000Y-2435000I-40000J0D01*
G01*
X14334000Y-2435000D02*
G75*
G02*
X14414000Y-2435000I40000J0D01*
G01*
X14414000Y-2935000D02*
G75*
G02*
X14334000Y-2935000I-40000J0D01*
G01*
X14334000Y-2935000D02*
G75*
G02*
X14414000Y-2935000I40000J0D01*
G01*
X14704000Y-3326000D02*
G75*
G02*
X14624000Y-3326000I-40000J0D01*
G01*
X14624000Y-3326000D02*
G75*
G02*
X14704000Y-3326000I40000J0D01*
G01*
X14965500Y-6290500D02*
G75*
G02*
X14885500Y-6290500I-40000J0D01*
G01*
X14885500Y-6290500D02*
G75*
G02*
X14965500Y-6290500I40000J0D01*
G01*
X15248000Y-4641000D02*
G75*
G02*
X15168000Y-4641000I-40000J0D01*
G01*
X15168000Y-4641000D02*
G75*
G02*
X15248000Y-4641000I40000J0D01*
G01*
X15748000Y-4641000D02*
G75*
G02*
X15668000Y-4641000I-40000J0D01*
G01*
X15668000Y-4641000D02*
G75*
G02*
X15748000Y-4641000I40000J0D01*
G01*
X16128000Y-5495000D02*
G75*
G02*
X16048000Y-5495000I-40000J0D01*
G01*
X16048000Y-5495000D02*
G75*
G02*
X16128000Y-5495000I40000J0D01*
G01*
X16128000Y-5995000D02*
G75*
G02*
X16048000Y-5995000I-40000J0D01*
G01*
X16048000Y-5995000D02*
G75*
G02*
X16128000Y-5995000I40000J0D01*
G01*
X16132000Y-2928000D02*
G75*
G02*
X16052000Y-2928000I-40000J0D01*
G01*
X16052000Y-2928000D02*
G75*
G02*
X16132000Y-2928000I40000J0D01*
G01*
X16133000Y-3798000D02*
G75*
G02*
X16053000Y-3798000I-40000J0D01*
G01*
X16053000Y-3798000D02*
G75*
G02*
X16133000Y-3798000I40000J0D01*
G01*
X16632000Y-2928000D02*
G75*
G02*
X16552000Y-2928000I-40000J0D01*
G01*
X16552000Y-2928000D02*
G75*
G02*
X16632000Y-2928000I40000J0D01*
G01*
X16633000Y-3798000D02*
G75*
G02*
X16553000Y-3798000I-40000J0D01*
G01*
X16553000Y-3798000D02*
G75*
G02*
X16633000Y-3798000I40000J0D01*
G01*
X17883000Y-8158000D02*
G75*
G02*
X17803000Y-8158000I-40000J0D01*
G01*
X17803000Y-8158000D02*
G75*
G02*
X17883000Y-8158000I40000J0D01*
G01*
X18082000Y-9427500D02*
G75*
G02*
X18002000Y-9427500I-40000J0D01*
G01*
X18002000Y-9427500D02*
G75*
G02*
X18082000Y-9427500I40000J0D01*
G01*
X18163000Y-5383000D02*
G75*
G02*
X18083000Y-5383000I-40000J0D01*
G01*
X18083000Y-5383000D02*
G75*
G02*
X18163000Y-5383000I40000J0D01*
G01*
X18163000Y-5733000D02*
G75*
G02*
X18083000Y-5733000I-40000J0D01*
G01*
X18083000Y-5733000D02*
G75*
G02*
X18163000Y-5733000I40000J0D01*
G01*
X18309500Y-6245000D02*
G75*
G02*
X18229500Y-6245000I-40000J0D01*
G01*
X18229500Y-6245000D02*
G75*
G02*
X18309500Y-6245000I40000J0D01*
G01*
X18332000Y-9427500D02*
G75*
G02*
X18252000Y-9427500I-40000J0D01*
G01*
X18252000Y-9427500D02*
G75*
G02*
X18332000Y-9427500I40000J0D01*
G01*
X18383000Y-8158000D02*
G75*
G02*
X18303000Y-8158000I-40000J0D01*
G01*
X18303000Y-8158000D02*
G75*
G02*
X18383000Y-8158000I40000J0D01*
G01*
X18809500Y-6245000D02*
G75*
G02*
X18729500Y-6245000I-40000J0D01*
G01*
X18729500Y-6245000D02*
G75*
G02*
X18809500Y-6245000I40000J0D01*
G01*
X20932000Y-6162500D02*
G75*
G02*
X20852000Y-6162500I-40000J0D01*
G01*
X20852000Y-6162500D02*
G75*
G02*
X20932000Y-6162500I40000J0D01*
G01*
X21209500Y-5227500D02*
G75*
G02*
X21129500Y-5227500I-40000J0D01*
G01*
X21129500Y-5227500D02*
G75*
G02*
X21209500Y-5227500I40000J0D01*
G01*
X21432000Y-6162500D02*
G75*
G02*
X21352000Y-6162500I-40000J0D01*
G01*
X21352000Y-6162500D02*
G75*
G02*
X21432000Y-6162500I40000J0D01*
G01*
X21559500Y-5227500D02*
G75*
G02*
X21479500Y-5227500I-40000J0D01*
G01*
X21479500Y-5227500D02*
G75*
G02*
X21559500Y-5227500I40000J0D01*
G01*
X20262000Y-5266000D02*
X20262000Y-5356000D01*
X20217000Y-5311000D02*
X20307000Y-5311000D01*
X20262000Y-5520000D02*
X20262000Y-5610000D01*
X20217000Y-5565000D02*
X20307000Y-5565000D01*
X20262000Y-5774000D02*
X20262000Y-5864000D01*
X20217000Y-5819000D02*
X20307000Y-5819000D01*
X12053356Y-7748356D02*
X12053356Y-7677644D01*
X11982644Y-7677644D01*
X11982644Y-7748356D01*
X12053356Y-7748356D01*
X12053356Y-8002356D02*
X12053356Y-7931644D01*
X11982644Y-7931644D01*
X11982644Y-8002356D01*
X12053356Y-8002356D01*
X12053356Y-8256356D02*
X12053356Y-8185644D01*
X11982644Y-8185644D01*
X11982644Y-8256356D01*
X12053356Y-8256356D01*
X12053356Y-8730356D02*
X12053356Y-8659644D01*
X11982644Y-8659644D01*
X11982644Y-8730356D01*
X12053356Y-8730356D01*
X12053356Y-8984356D02*
X12053356Y-8913644D01*
X11982644Y-8913644D01*
X11982644Y-8984356D01*
X12053356Y-8984356D01*
X12053356Y-9238356D02*
X12053356Y-9167644D01*
X11982644Y-9167644D01*
X11982644Y-9238356D01*
X12053356Y-9238356D01*
X13193356Y-7098356D02*
X13193356Y-7027644D01*
X13122644Y-7027644D01*
X13122644Y-7098356D01*
X13193356Y-7098356D01*
X13193356Y-7352356D02*
X13193356Y-7281644D01*
X13122644Y-7281644D01*
X13122644Y-7352356D01*
X13193356Y-7352356D01*
X13447356Y-7098356D02*
X13447356Y-7027644D01*
X13376644Y-7027644D01*
X13376644Y-7098356D01*
X13447356Y-7098356D01*
X13447356Y-7352356D02*
X13447356Y-7281644D01*
X13376644Y-7281644D01*
X13376644Y-7352356D01*
X13447356Y-7352356D01*
X13701356Y-7098356D02*
X13701356Y-7027644D01*
X13630644Y-7027644D01*
X13630644Y-7098356D01*
X13701356Y-7098356D01*
X13701356Y-7352356D02*
X13701356Y-7281644D01*
X13630644Y-7281644D01*
X13630644Y-7352356D01*
X13701356Y-7352356D01*
X13955356Y-7098356D02*
X13955356Y-7027644D01*
X13884644Y-7027644D01*
X13884644Y-7098356D01*
X13955356Y-7098356D01*
X13955356Y-7352356D02*
X13955356Y-7281644D01*
X13884644Y-7281644D01*
X13884644Y-7352356D01*
X13955356Y-7352356D01*
X14209356Y-7098356D02*
X14209356Y-7027644D01*
X14138644Y-7027644D01*
X14138644Y-7098356D01*
X14209356Y-7098356D01*
X14209356Y-7352356D02*
X14209356Y-7281644D01*
X14138644Y-7281644D01*
X14138644Y-7352356D01*
X14209356Y-7352356D01*
X15733356Y-9514356D02*
X15733356Y-9443644D01*
X15662644Y-9443644D01*
X15662644Y-9514356D01*
X15733356Y-9514356D01*
X15733356Y-9768356D02*
X15733356Y-9697644D01*
X15662644Y-9697644D01*
X15662644Y-9768356D01*
X15733356Y-9768356D01*
X16879356Y-8234356D02*
X16879356Y-8163644D01*
X16808644Y-8163644D01*
X16808644Y-8234356D01*
X16879356Y-8234356D01*
X16879356Y-8488356D02*
X16879356Y-8417644D01*
X16808644Y-8417644D01*
X16808644Y-8488356D01*
X16879356Y-8488356D01*
X16879356Y-8742356D02*
X16879356Y-8671644D01*
X16808644Y-8671644D01*
X16808644Y-8742356D01*
X16879356Y-8742356D01*
X17133356Y-8234356D02*
X17133356Y-8163644D01*
X17062644Y-8163644D01*
X17062644Y-8234356D01*
X17133356Y-8234356D01*
X17133356Y-8488356D02*
X17133356Y-8417644D01*
X17062644Y-8417644D01*
X17062644Y-8488356D01*
X17133356Y-8488356D01*
X17133356Y-8742356D02*
X17133356Y-8671644D01*
X17062644Y-8671644D01*
X17062644Y-8742356D01*
X17133356Y-8742356D01*
X17373356Y-2523356D02*
X17373356Y-2452644D01*
X17302644Y-2452644D01*
X17302644Y-2523356D01*
X17373356Y-2523356D01*
X17373356Y-3923356D02*
X17373356Y-3852644D01*
X17302644Y-3852644D01*
X17302644Y-3923356D01*
X17373356Y-3923356D01*
X18848356Y-9460856D02*
X18848356Y-9390144D01*
X18777644Y-9390144D01*
X18777644Y-9460856D01*
X18848356Y-9460856D01*
X18848856Y-6825356D02*
X18848856Y-6754644D01*
X18778144Y-6754644D01*
X18778144Y-6825356D01*
X18848856Y-6825356D01*
X18848856Y-8603356D02*
X18848856Y-8532644D01*
X18778144Y-8532644D01*
X18778144Y-8603356D01*
X18848856Y-8603356D01*
X19102356Y-9460856D02*
X19102356Y-9390144D01*
X19031644Y-9390144D01*
X19031644Y-9460856D01*
X19102356Y-9460856D01*
X19102856Y-6825356D02*
X19102856Y-6754644D01*
X19032144Y-6754644D01*
X19032144Y-6825356D01*
X19102856Y-6825356D01*
X19102856Y-8603356D02*
X19102856Y-8532644D01*
X19032144Y-8532644D01*
X19032144Y-8603356D01*
X19102856Y-8603356D01*
X19356356Y-9460856D02*
X19356356Y-9390144D01*
X19285644Y-9390144D01*
X19285644Y-9460856D01*
X19356356Y-9460856D01*
X19356856Y-6825356D02*
X19356856Y-6754644D01*
X19286144Y-6754644D01*
X19286144Y-6825356D01*
X19356856Y-6825356D01*
X19356856Y-8603356D02*
X19356856Y-8532644D01*
X19286144Y-8532644D01*
X19286144Y-8603356D01*
X19356856Y-8603356D01*
X19610356Y-9460856D02*
X19610356Y-9390144D01*
X19539644Y-9390144D01*
X19539644Y-9460856D01*
X19610356Y-9460856D01*
X19610856Y-6825356D02*
X19610856Y-6754644D01*
X19540144Y-6754644D01*
X19540144Y-6825356D01*
X19610856Y-6825356D01*
X19610856Y-8603356D02*
X19610856Y-8532644D01*
X19540144Y-8532644D01*
X19540144Y-8603356D01*
X19610856Y-8603356D01*
X19864356Y-9460856D02*
X19864356Y-9390144D01*
X19793644Y-9390144D01*
X19793644Y-9460856D01*
X19864356Y-9460856D01*
X19864856Y-6825356D02*
X19864856Y-6754644D01*
X19794144Y-6754644D01*
X19794144Y-6825356D01*
X19864856Y-6825356D01*
X19864856Y-8603356D02*
X19864856Y-8532644D01*
X19794144Y-8532644D01*
X19794144Y-8603356D01*
X19864856Y-8603356D01*
X20118356Y-9460856D02*
X20118356Y-9390144D01*
X20047644Y-9390144D01*
X20047644Y-9460856D01*
X20118356Y-9460856D01*
X20118856Y-6825356D02*
X20118856Y-6754644D01*
X20048144Y-6754644D01*
X20048144Y-6825356D01*
X20118856Y-6825356D01*
X20118856Y-8603356D02*
X20118856Y-8532644D01*
X20048144Y-8532644D01*
X20048144Y-8603356D01*
X20118856Y-8603356D01*
X20372356Y-9460856D02*
X20372356Y-9390144D01*
X20301644Y-9390144D01*
X20301644Y-9460856D01*
X20372356Y-9460856D01*
X20372856Y-6825356D02*
X20372856Y-6754644D01*
X20302144Y-6754644D01*
X20302144Y-6825356D01*
X20372856Y-6825356D01*
X20372856Y-8603356D02*
X20372856Y-8532644D01*
X20302144Y-8532644D01*
X20302144Y-8603356D01*
X20372856Y-8603356D01*
X20626356Y-9460856D02*
X20626356Y-9390144D01*
X20555644Y-9390144D01*
X20555644Y-9460856D01*
X20626356Y-9460856D01*
X20626856Y-6825356D02*
X20626856Y-6754644D01*
X20556144Y-6754644D01*
X20556144Y-6825356D01*
X20626856Y-6825356D01*
X20626856Y-8603356D02*
X20626856Y-8532644D01*
X20556144Y-8532644D01*
X20556144Y-8603356D01*
X20626856Y-8603356D01*
X20880356Y-9460856D02*
X20880356Y-9390144D01*
X20809644Y-9390144D01*
X20809644Y-9460856D01*
X20880356Y-9460856D01*
X20880856Y-6825356D02*
X20880856Y-6754644D01*
X20810144Y-6754644D01*
X20810144Y-6825356D01*
X20880856Y-6825356D01*
X20880856Y-8603356D02*
X20880856Y-8532644D01*
X20810144Y-8532644D01*
X20810144Y-8603356D01*
X20880856Y-8603356D01*
X20973356Y-2523356D02*
X20973356Y-2452644D01*
X20902644Y-2452644D01*
X20902644Y-2523356D01*
X20973356Y-2523356D01*
X20973356Y-3923356D02*
X20973356Y-3852644D01*
X20902644Y-3852644D01*
X20902644Y-3923356D01*
X20973356Y-3923356D01*
X21134356Y-9460856D02*
X21134356Y-9390144D01*
X21063644Y-9390144D01*
X21063644Y-9460856D01*
X21134356Y-9460856D01*
X21134856Y-6825356D02*
X21134856Y-6754644D01*
X21064144Y-6754644D01*
X21064144Y-6825356D01*
X21134856Y-6825356D01*
X21134856Y-8603356D02*
X21134856Y-8532644D01*
X21064144Y-8532644D01*
X21064144Y-8603356D01*
X21134856Y-8603356D01*
X21388356Y-9460856D02*
X21388356Y-9390144D01*
X21317644Y-9390144D01*
X21317644Y-9460856D01*
X21388356Y-9460856D01*
X21388856Y-6825356D02*
X21388856Y-6754644D01*
X21318144Y-6754644D01*
X21318144Y-6825356D01*
X21388856Y-6825356D01*
X21388856Y-8603356D02*
X21388856Y-8532644D01*
X21318144Y-8532644D01*
X21318144Y-8603356D01*
X21388856Y-8603356D01*
X21642356Y-9460856D02*
X21642356Y-9390144D01*
X21571644Y-9390144D01*
X21571644Y-9460856D01*
X21642356Y-9460856D01*
X21642856Y-6825356D02*
X21642856Y-6754644D01*
X21572144Y-6754644D01*
X21572144Y-6825356D01*
X21642856Y-6825356D01*
X21642856Y-8603356D02*
X21642856Y-8532644D01*
X21572144Y-8532644D01*
X21572144Y-8603356D01*
X21642856Y-8603356D01*
X21896356Y-9460856D02*
X21896356Y-9390144D01*
X21825644Y-9390144D01*
X21825644Y-9460856D01*
X21896356Y-9460856D01*
X21896856Y-6825356D02*
X21896856Y-6754644D01*
X21826144Y-6754644D01*
X21826144Y-6825356D01*
X21896856Y-6825356D01*
X21896856Y-8603356D02*
X21896856Y-8532644D01*
X21826144Y-8532644D01*
X21826144Y-8603356D01*
X21896856Y-8603356D01*
X22150356Y-9460856D02*
X22150356Y-9390144D01*
X22079644Y-9390144D01*
X22079644Y-9460856D01*
X22150356Y-9460856D01*
X22150856Y-6825356D02*
X22150856Y-6754644D01*
X22080144Y-6754644D01*
X22080144Y-6825356D01*
X22150856Y-6825356D01*
X22150856Y-8603356D02*
X22150856Y-8532644D01*
X22080144Y-8532644D01*
X22080144Y-8603356D01*
X22150856Y-8603356D01*
X22404356Y-9460856D02*
X22404356Y-9390144D01*
X22333644Y-9390144D01*
X22333644Y-9460856D01*
X22404356Y-9460856D01*
X22404856Y-6825356D02*
X22404856Y-6754644D01*
X22334144Y-6754644D01*
X22334144Y-6825356D01*
X22404856Y-6825356D01*
X22404856Y-8603356D02*
X22404856Y-8532644D01*
X22334144Y-8532644D01*
X22334144Y-8603356D01*
X22404856Y-8603356D01*
X22658856Y-6825356D02*
X22658856Y-6754644D01*
X22588144Y-6754644D01*
X22588144Y-6825356D01*
X22658856Y-6825356D01*
X22658856Y-8603356D02*
X22658856Y-8532644D01*
X22588144Y-8532644D01*
X22588144Y-8603356D01*
X22658856Y-8603356D01*
X22912856Y-6825356D02*
X22912856Y-6754644D01*
X22842144Y-6754644D01*
X22842144Y-6825356D01*
X22912856Y-6825356D01*
X22912856Y-8603356D02*
X22912856Y-8532644D01*
X22842144Y-8532644D01*
X22842144Y-8603356D01*
X22912856Y-8603356D01*
X23166856Y-6825356D02*
X23166856Y-6754644D01*
X23096144Y-6754644D01*
X23096144Y-6825356D01*
X23166856Y-6825356D01*
X23166856Y-8603356D02*
X23166856Y-8532644D01*
X23096144Y-8532644D01*
X23096144Y-8603356D01*
X23166856Y-8603356D01*
X23420856Y-6825356D02*
X23420856Y-6754644D01*
X23350144Y-6754644D01*
X23350144Y-6825356D01*
X23420856Y-6825356D01*
X23420856Y-8603356D02*
X23420856Y-8532644D01*
X23350144Y-8532644D01*
X23350144Y-8603356D01*
X23420856Y-8603356D01*
X23674856Y-6825356D02*
X23674856Y-6754644D01*
X23604144Y-6754644D01*
X23604144Y-6825356D01*
X23674856Y-6825356D01*
X23674856Y-8603356D02*
X23674856Y-8532644D01*
X23604144Y-8532644D01*
X23604144Y-8603356D01*
X23674856Y-8603356D01*
D12*
X11892000Y-6198000D02*
X11952000Y-6138000D01*
X11892000Y-6078000D01*
X11832000Y-6138000D01*
X11892000Y-6198000D01*
X13162000Y-6198000D02*
X13222000Y-6138000D01*
X13162000Y-6078000D01*
X13102000Y-6138000D01*
X13162000Y-6198000D01*
X19808000Y-7723000D02*
X19868000Y-7663000D01*
X19808000Y-7603000D01*
X19748000Y-7663000D01*
X19808000Y-7723000D01*
X21078000Y-7723000D02*
X21138000Y-7663000D01*
X21078000Y-7603000D01*
X21018000Y-7663000D01*
X21078000Y-7723000D01*
X22142000Y-4917500D02*
X22202000Y-4857500D01*
X22142000Y-4797500D01*
X22082000Y-4857500D01*
X22142000Y-4917500D01*
X22142000Y-6187500D02*
X22202000Y-6127500D01*
X22142000Y-6067500D01*
X22082000Y-6127500D01*
X22142000Y-6187500D01*
D13*
X6583000Y-6823000D02*
X6713000Y-6953000D01*
X6713000Y-6823000D02*
X6583000Y-6953000D01*
X6713000Y-6888000D02*
G75*
G02*
X6583000Y-6888000I-65000J0D01*
G01*
X6583000Y-6888000D02*
G75*
G02*
X6713000Y-6888000I65000J0D01*
G01*
X6583000Y-7331000D02*
X6713000Y-7461000D01*
X6713000Y-7331000D02*
X6583000Y-7461000D01*
X6713000Y-7396000D02*
G75*
G02*
X6583000Y-7396000I-65000J0D01*
G01*
X6583000Y-7396000D02*
G75*
G02*
X6713000Y-7396000I65000J0D01*
G01*
X9673000Y-4878000D02*
X9803000Y-5008000D01*
X9803000Y-4878000D02*
X9673000Y-5008000D01*
X9803000Y-4943000D02*
G75*
G02*
X9673000Y-4943000I-65000J0D01*
G01*
X9673000Y-4943000D02*
G75*
G02*
X9803000Y-4943000I65000J0D01*
G01*
X10181000Y-4878000D02*
X10311000Y-5008000D01*
X10311000Y-4878000D02*
X10181000Y-5008000D01*
X10311000Y-4943000D02*
G75*
G02*
X10181000Y-4943000I-65000J0D01*
G01*
X10181000Y-4943000D02*
G75*
G02*
X10311000Y-4943000I65000J0D01*
G01*
X10689000Y-4878000D02*
X10819000Y-5008000D01*
X10819000Y-4878000D02*
X10689000Y-5008000D01*
X10819000Y-4943000D02*
G75*
G02*
X10689000Y-4943000I-65000J0D01*
G01*
X10689000Y-4943000D02*
G75*
G02*
X10819000Y-4943000I65000J0D01*
G01*
X23237000Y-5245000D02*
X23367000Y-5375000D01*
X23367000Y-5245000D02*
X23237000Y-5375000D01*
X23367000Y-5310000D02*
G75*
G02*
X23237000Y-5310000I-65000J0D01*
G01*
X23237000Y-5310000D02*
G75*
G02*
X23367000Y-5310000I65000J0D01*
G01*
X23237000Y-5753000D02*
X23367000Y-5883000D01*
X23367000Y-5753000D02*
X23237000Y-5883000D01*
X23367000Y-5818000D02*
G75*
G02*
X23237000Y-5818000I-65000J0D01*
G01*
X23237000Y-5818000D02*
G75*
G02*
X23367000Y-5818000I65000J0D01*
G01*
D14*
X5907000Y-9860000D02*
X6227000Y-10180000D01*
X6227000Y-9860000D02*
X5907000Y-10180000D01*
X6067000Y-9860000D02*
X6067000Y-10180000D01*
X5907000Y-10020000D02*
X6227000Y-10020000D01*
X5910000Y-2190000D02*
X6230000Y-2510000D01*
X6230000Y-2190000D02*
X5910000Y-2510000D01*
X6070000Y-2190000D02*
X6070000Y-2510000D01*
X5910000Y-2350000D02*
X6230000Y-2350000D01*
X11968000Y-7013000D02*
X12288000Y-7333000D01*
X12288000Y-7013000D02*
X11968000Y-7333000D01*
X12128000Y-7013000D02*
X12128000Y-7333000D01*
X11968000Y-7173000D02*
X12288000Y-7173000D01*
X11968000Y-9573000D02*
X12288000Y-9893000D01*
X12288000Y-9573000D02*
X11968000Y-9893000D01*
X12128000Y-9573000D02*
X12128000Y-9893000D01*
X11968000Y-9733000D02*
X12288000Y-9733000D01*
X13324000Y-2191000D02*
X13644000Y-2511000D01*
X13644000Y-2191000D02*
X13324000Y-2511000D01*
X13484000Y-2191000D02*
X13484000Y-2511000D01*
X13324000Y-2351000D02*
X13644000Y-2351000D01*
X14499000Y-9862000D02*
X14819000Y-10182000D01*
X14819000Y-9862000D02*
X14499000Y-10182000D01*
X14659000Y-9862000D02*
X14659000Y-10182000D01*
X14499000Y-10022000D02*
X14819000Y-10022000D01*
X16828000Y-7013000D02*
X17148000Y-7333000D01*
X17148000Y-7013000D02*
X16828000Y-7333000D01*
X16988000Y-7013000D02*
X16988000Y-7333000D01*
X16828000Y-7173000D02*
X17148000Y-7173000D01*
X16828000Y-9573000D02*
X17148000Y-9893000D01*
X17148000Y-9573000D02*
X16828000Y-9893000D01*
X16988000Y-9573000D02*
X16988000Y-9893000D01*
X16828000Y-9733000D02*
X17148000Y-9733000D01*
X23468000Y-2191000D02*
X23788000Y-2511000D01*
X23788000Y-2191000D02*
X23468000Y-2511000D01*
X23628000Y-2191000D02*
X23628000Y-2511000D01*
X23468000Y-2351000D02*
X23788000Y-2351000D01*
X23469000Y-9858000D02*
X23789000Y-10178000D01*
X23789000Y-9858000D02*
X23469000Y-10178000D01*
X23629000Y-9858000D02*
X23629000Y-10178000D01*
X23469000Y-10018000D02*
X23789000Y-10018000D01*
D11*
X5975777Y-10686484D02*
X5975777Y-10486484D01*
X5975777Y-10486484D02*
X6023396Y-10486484D01*
X6023396Y-10486484D02*
X6051967Y-10496008D01*
X6051967Y-10496008D02*
X6071015Y-10515055D01*
X6071015Y-10515055D02*
X6080539Y-10534103D01*
X6080539Y-10534103D02*
X6090063Y-10572198D01*
X6090063Y-10572198D02*
X6090063Y-10600770D01*
X6090063Y-10600770D02*
X6080539Y-10638865D01*
X6080539Y-10638865D02*
X6071015Y-10657912D01*
X6071015Y-10657912D02*
X6051967Y-10676960D01*
X6051967Y-10676960D02*
X6023396Y-10686484D01*
X6023396Y-10686484D02*
X5975777Y-10686484D01*
X6175777Y-10686484D02*
X6175777Y-10553150D01*
X6175777Y-10591246D02*
X6185301Y-10572198D01*
X6185301Y-10572198D02*
X6194824Y-10562674D01*
X6194824Y-10562674D02*
X6213872Y-10553150D01*
X6213872Y-10553150D02*
X6232920Y-10553150D01*
X6299586Y-10686484D02*
X6299586Y-10553150D01*
X6299586Y-10486484D02*
X6290063Y-10496008D01*
X6290063Y-10496008D02*
X6299586Y-10505531D01*
X6299586Y-10505531D02*
X6309110Y-10496008D01*
X6309110Y-10496008D02*
X6299586Y-10486484D01*
X6299586Y-10486484D02*
X6299586Y-10505531D01*
X6423396Y-10686484D02*
X6404348Y-10676960D01*
X6404348Y-10676960D02*
X6394824Y-10657912D01*
X6394824Y-10657912D02*
X6394824Y-10486484D01*
X6528158Y-10686484D02*
X6509110Y-10676960D01*
X6509110Y-10676960D02*
X6499586Y-10657912D01*
X6499586Y-10657912D02*
X6499586Y-10486484D01*
X6756729Y-10686484D02*
X6756729Y-10486484D01*
X6756729Y-10486484D02*
X6823396Y-10629341D01*
X6823396Y-10629341D02*
X6890063Y-10486484D01*
X6890063Y-10486484D02*
X6890063Y-10686484D01*
X7071015Y-10686484D02*
X7071015Y-10581722D01*
X7071015Y-10581722D02*
X7061491Y-10562674D01*
X7061491Y-10562674D02*
X7042444Y-10553150D01*
X7042444Y-10553150D02*
X7004348Y-10553150D01*
X7004348Y-10553150D02*
X6985301Y-10562674D01*
X7071015Y-10676960D02*
X7051967Y-10686484D01*
X7051967Y-10686484D02*
X7004348Y-10686484D01*
X7004348Y-10686484D02*
X6985301Y-10676960D01*
X6985301Y-10676960D02*
X6975777Y-10657912D01*
X6975777Y-10657912D02*
X6975777Y-10638865D01*
X6975777Y-10638865D02*
X6985301Y-10619817D01*
X6985301Y-10619817D02*
X7004348Y-10610293D01*
X7004348Y-10610293D02*
X7051967Y-10610293D01*
X7051967Y-10610293D02*
X7071015Y-10600770D01*
X7166253Y-10553150D02*
X7166253Y-10753150D01*
X7166253Y-10562674D02*
X7185301Y-10553150D01*
X7185301Y-10553150D02*
X7223396Y-10553150D01*
X7223396Y-10553150D02*
X7242444Y-10562674D01*
X7242444Y-10562674D02*
X7251967Y-10572198D01*
X7251967Y-10572198D02*
X7261491Y-10591246D01*
X7261491Y-10591246D02*
X7261491Y-10648389D01*
X7261491Y-10648389D02*
X7251967Y-10667436D01*
X7251967Y-10667436D02*
X7242444Y-10676960D01*
X7242444Y-10676960D02*
X7223396Y-10686484D01*
X7223396Y-10686484D02*
X7185301Y-10686484D01*
X7185301Y-10686484D02*
X7166253Y-10676960D01*
X7347205Y-10667436D02*
X7356729Y-10676960D01*
X7356729Y-10676960D02*
X7347205Y-10686484D01*
X7347205Y-10686484D02*
X7337682Y-10676960D01*
X7337682Y-10676960D02*
X7347205Y-10667436D01*
X7347205Y-10667436D02*
X7347205Y-10686484D01*
X7347205Y-10562674D02*
X7356729Y-10572198D01*
X7356729Y-10572198D02*
X7347205Y-10581722D01*
X7347205Y-10581722D02*
X7337682Y-10572198D01*
X7337682Y-10572198D02*
X7347205Y-10562674D01*
X7347205Y-10562674D02*
X7347205Y-10581722D01*
D10*
X5685000Y-11000000D02*
X5715000Y-11030000D01*
X5715000Y-11000000D02*
X5685000Y-11030000D01*
D11*
X6013872Y-10906484D02*
X6032920Y-10906484D01*
X6032920Y-10906484D02*
X6051967Y-10916008D01*
X6051967Y-10916008D02*
X6061491Y-10925531D01*
X6061491Y-10925531D02*
X6071015Y-10944579D01*
X6071015Y-10944579D02*
X6080539Y-10982674D01*
X6080539Y-10982674D02*
X6080539Y-11030293D01*
X6080539Y-11030293D02*
X6071015Y-11068389D01*
X6071015Y-11068389D02*
X6061491Y-11087436D01*
X6061491Y-11087436D02*
X6051967Y-11096960D01*
X6051967Y-11096960D02*
X6032920Y-11106484D01*
X6032920Y-11106484D02*
X6013872Y-11106484D01*
X6013872Y-11106484D02*
X5994824Y-11096960D01*
X5994824Y-11096960D02*
X5985301Y-11087436D01*
X5985301Y-11087436D02*
X5975777Y-11068389D01*
X5975777Y-11068389D02*
X5966253Y-11030293D01*
X5966253Y-11030293D02*
X5966253Y-10982674D01*
X5966253Y-10982674D02*
X5975777Y-10944579D01*
X5975777Y-10944579D02*
X5985301Y-10925531D01*
X5985301Y-10925531D02*
X5994824Y-10916008D01*
X5994824Y-10916008D02*
X6013872Y-10906484D01*
X6166253Y-11087436D02*
X6175777Y-11096960D01*
X6175777Y-11096960D02*
X6166253Y-11106484D01*
X6166253Y-11106484D02*
X6156729Y-11096960D01*
X6156729Y-11096960D02*
X6166253Y-11087436D01*
X6166253Y-11087436D02*
X6166253Y-11106484D01*
X6242444Y-10906484D02*
X6366253Y-10906484D01*
X6366253Y-10906484D02*
X6299586Y-10982674D01*
X6299586Y-10982674D02*
X6328158Y-10982674D01*
X6328158Y-10982674D02*
X6347205Y-10992198D01*
X6347205Y-10992198D02*
X6356729Y-11001722D01*
X6356729Y-11001722D02*
X6366253Y-11020770D01*
X6366253Y-11020770D02*
X6366253Y-11068389D01*
X6366253Y-11068389D02*
X6356729Y-11087436D01*
X6356729Y-11087436D02*
X6347205Y-11096960D01*
X6347205Y-11096960D02*
X6328158Y-11106484D01*
X6328158Y-11106484D02*
X6271015Y-11106484D01*
X6271015Y-11106484D02*
X6251967Y-11096960D01*
X6251967Y-11096960D02*
X6242444Y-11087436D01*
X6490063Y-10906484D02*
X6509110Y-10906484D01*
X6509110Y-10906484D02*
X6528158Y-10916008D01*
X6528158Y-10916008D02*
X6537682Y-10925531D01*
X6537682Y-10925531D02*
X6547205Y-10944579D01*
X6547205Y-10944579D02*
X6556729Y-10982674D01*
X6556729Y-10982674D02*
X6556729Y-11030293D01*
X6556729Y-11030293D02*
X6547205Y-11068389D01*
X6547205Y-11068389D02*
X6537682Y-11087436D01*
X6537682Y-11087436D02*
X6528158Y-11096960D01*
X6528158Y-11096960D02*
X6509110Y-11106484D01*
X6509110Y-11106484D02*
X6490063Y-11106484D01*
X6490063Y-11106484D02*
X6471015Y-11096960D01*
X6471015Y-11096960D02*
X6461491Y-11087436D01*
X6461491Y-11087436D02*
X6451967Y-11068389D01*
X6451967Y-11068389D02*
X6442444Y-11030293D01*
X6442444Y-11030293D02*
X6442444Y-10982674D01*
X6442444Y-10982674D02*
X6451967Y-10944579D01*
X6451967Y-10944579D02*
X6461491Y-10925531D01*
X6461491Y-10925531D02*
X6471015Y-10916008D01*
X6471015Y-10916008D02*
X6490063Y-10906484D01*
X6680539Y-10906484D02*
X6699586Y-10906484D01*
X6699586Y-10906484D02*
X6718634Y-10916008D01*
X6718634Y-10916008D02*
X6728158Y-10925531D01*
X6728158Y-10925531D02*
X6737682Y-10944579D01*
X6737682Y-10944579D02*
X6747205Y-10982674D01*
X6747205Y-10982674D02*
X6747205Y-11030293D01*
X6747205Y-11030293D02*
X6737682Y-11068389D01*
X6737682Y-11068389D02*
X6728158Y-11087436D01*
X6728158Y-11087436D02*
X6718634Y-11096960D01*
X6718634Y-11096960D02*
X6699586Y-11106484D01*
X6699586Y-11106484D02*
X6680539Y-11106484D01*
X6680539Y-11106484D02*
X6661491Y-11096960D01*
X6661491Y-11096960D02*
X6651967Y-11087436D01*
X6651967Y-11087436D02*
X6642444Y-11068389D01*
X6642444Y-11068389D02*
X6632920Y-11030293D01*
X6632920Y-11030293D02*
X6632920Y-10982674D01*
X6632920Y-10982674D02*
X6642444Y-10944579D01*
X6642444Y-10944579D02*
X6651967Y-10925531D01*
X6651967Y-10925531D02*
X6661491Y-10916008D01*
X6661491Y-10916008D02*
X6680539Y-10906484D01*
X6832920Y-11106484D02*
X6832920Y-10973150D01*
X6832920Y-10992198D02*
X6842444Y-10982674D01*
X6842444Y-10982674D02*
X6861491Y-10973150D01*
X6861491Y-10973150D02*
X6890063Y-10973150D01*
X6890063Y-10973150D02*
X6909110Y-10982674D01*
X6909110Y-10982674D02*
X6918634Y-11001722D01*
X6918634Y-11001722D02*
X6918634Y-11106484D01*
X6918634Y-11001722D02*
X6928158Y-10982674D01*
X6928158Y-10982674D02*
X6947205Y-10973150D01*
X6947205Y-10973150D02*
X6975777Y-10973150D01*
X6975777Y-10973150D02*
X6994825Y-10982674D01*
X6994825Y-10982674D02*
X7004348Y-11001722D01*
X7004348Y-11001722D02*
X7004348Y-11106484D01*
X7099586Y-11106484D02*
X7099586Y-10973150D01*
X7099586Y-10992198D02*
X7109110Y-10982674D01*
X7109110Y-10982674D02*
X7128158Y-10973150D01*
X7128158Y-10973150D02*
X7156729Y-10973150D01*
X7156729Y-10973150D02*
X7175777Y-10982674D01*
X7175777Y-10982674D02*
X7185301Y-11001722D01*
X7185301Y-11001722D02*
X7185301Y-11106484D01*
X7185301Y-11001722D02*
X7194825Y-10982674D01*
X7194825Y-10982674D02*
X7213872Y-10973150D01*
X7213872Y-10973150D02*
X7242444Y-10973150D01*
X7242444Y-10973150D02*
X7261491Y-10982674D01*
X7261491Y-10982674D02*
X7271015Y-11001722D01*
X7271015Y-11001722D02*
X7271015Y-11106484D01*
X7661491Y-10896960D02*
X7490063Y-11154103D01*
X7918634Y-10906484D02*
X7937682Y-10906484D01*
X7937682Y-10906484D02*
X7956729Y-10916008D01*
X7956729Y-10916008D02*
X7966253Y-10925531D01*
X7966253Y-10925531D02*
X7975777Y-10944579D01*
X7975777Y-10944579D02*
X7985301Y-10982674D01*
X7985301Y-10982674D02*
X7985301Y-11030293D01*
X7985301Y-11030293D02*
X7975777Y-11068389D01*
X7975777Y-11068389D02*
X7966253Y-11087436D01*
X7966253Y-11087436D02*
X7956729Y-11096960D01*
X7956729Y-11096960D02*
X7937682Y-11106484D01*
X7937682Y-11106484D02*
X7918634Y-11106484D01*
X7918634Y-11106484D02*
X7899587Y-11096960D01*
X7899587Y-11096960D02*
X7890063Y-11087436D01*
X7890063Y-11087436D02*
X7880539Y-11068389D01*
X7880539Y-11068389D02*
X7871015Y-11030293D01*
X7871015Y-11030293D02*
X7871015Y-10982674D01*
X7871015Y-10982674D02*
X7880539Y-10944579D01*
X7880539Y-10944579D02*
X7890063Y-10925531D01*
X7890063Y-10925531D02*
X7899587Y-10916008D01*
X7899587Y-10916008D02*
X7918634Y-10906484D01*
X8071015Y-11087436D02*
X8080539Y-11096960D01*
X8080539Y-11096960D02*
X8071015Y-11106484D01*
X8071015Y-11106484D02*
X8061491Y-11096960D01*
X8061491Y-11096960D02*
X8071015Y-11087436D01*
X8071015Y-11087436D02*
X8071015Y-11106484D01*
X8204348Y-10906484D02*
X8223396Y-10906484D01*
X8223396Y-10906484D02*
X8242444Y-10916008D01*
X8242444Y-10916008D02*
X8251968Y-10925531D01*
X8251968Y-10925531D02*
X8261491Y-10944579D01*
X8261491Y-10944579D02*
X8271015Y-10982674D01*
X8271015Y-10982674D02*
X8271015Y-11030293D01*
X8271015Y-11030293D02*
X8261491Y-11068389D01*
X8261491Y-11068389D02*
X8251968Y-11087436D01*
X8251968Y-11087436D02*
X8242444Y-11096960D01*
X8242444Y-11096960D02*
X8223396Y-11106484D01*
X8223396Y-11106484D02*
X8204348Y-11106484D01*
X8204348Y-11106484D02*
X8185301Y-11096960D01*
X8185301Y-11096960D02*
X8175777Y-11087436D01*
X8175777Y-11087436D02*
X8166253Y-11068389D01*
X8166253Y-11068389D02*
X8156729Y-11030293D01*
X8156729Y-11030293D02*
X8156729Y-10982674D01*
X8156729Y-10982674D02*
X8166253Y-10944579D01*
X8166253Y-10944579D02*
X8175777Y-10925531D01*
X8175777Y-10925531D02*
X8185301Y-10916008D01*
X8185301Y-10916008D02*
X8204348Y-10906484D01*
X8461491Y-11106484D02*
X8347206Y-11106484D01*
X8404349Y-11106484D02*
X8404349Y-10906484D01*
X8404349Y-10906484D02*
X8385301Y-10935055D01*
X8385301Y-10935055D02*
X8366253Y-10954103D01*
X8366253Y-10954103D02*
X8347206Y-10963627D01*
X8651968Y-11106484D02*
X8537682Y-11106484D01*
X8594825Y-11106484D02*
X8594825Y-10906484D01*
X8594825Y-10906484D02*
X8575777Y-10935055D01*
X8575777Y-10935055D02*
X8556730Y-10954103D01*
X8556730Y-10954103D02*
X8537682Y-10963627D01*
X8766253Y-10992198D02*
X8747206Y-10982674D01*
X8747206Y-10982674D02*
X8737682Y-10973150D01*
X8737682Y-10973150D02*
X8728158Y-10954103D01*
X8728158Y-10954103D02*
X8728158Y-10944579D01*
X8728158Y-10944579D02*
X8737682Y-10925531D01*
X8737682Y-10925531D02*
X8747206Y-10916008D01*
X8747206Y-10916008D02*
X8766253Y-10906484D01*
X8766253Y-10906484D02*
X8804349Y-10906484D01*
X8804349Y-10906484D02*
X8823396Y-10916008D01*
X8823396Y-10916008D02*
X8832920Y-10925531D01*
X8832920Y-10925531D02*
X8842444Y-10944579D01*
X8842444Y-10944579D02*
X8842444Y-10954103D01*
X8842444Y-10954103D02*
X8832920Y-10973150D01*
X8832920Y-10973150D02*
X8823396Y-10982674D01*
X8823396Y-10982674D02*
X8804349Y-10992198D01*
X8804349Y-10992198D02*
X8766253Y-10992198D01*
X8766253Y-10992198D02*
X8747206Y-11001722D01*
X8747206Y-11001722D02*
X8737682Y-11011246D01*
X8737682Y-11011246D02*
X8728158Y-11030293D01*
X8728158Y-11030293D02*
X8728158Y-11068389D01*
X8728158Y-11068389D02*
X8737682Y-11087436D01*
X8737682Y-11087436D02*
X8747206Y-11096960D01*
X8747206Y-11096960D02*
X8766253Y-11106484D01*
X8766253Y-11106484D02*
X8804349Y-11106484D01*
X8804349Y-11106484D02*
X8823396Y-11096960D01*
X8823396Y-11096960D02*
X8832920Y-11087436D01*
X8832920Y-11087436D02*
X8842444Y-11068389D01*
X8842444Y-11068389D02*
X8842444Y-11030293D01*
X8842444Y-11030293D02*
X8832920Y-11011246D01*
X8832920Y-11011246D02*
X8823396Y-11001722D01*
X8823396Y-11001722D02*
X8804349Y-10992198D01*
X8918634Y-10906484D02*
X8918634Y-10944579D01*
X8994825Y-10906484D02*
X8994825Y-10944579D01*
X9290063Y-11182674D02*
X9280539Y-11173150D01*
X9280539Y-11173150D02*
X9261492Y-11144579D01*
X9261492Y-11144579D02*
X9251968Y-11125531D01*
X9251968Y-11125531D02*
X9242444Y-11096960D01*
X9242444Y-11096960D02*
X9232920Y-11049341D01*
X9232920Y-11049341D02*
X9232920Y-11011246D01*
X9232920Y-11011246D02*
X9242444Y-10963627D01*
X9242444Y-10963627D02*
X9251968Y-10935055D01*
X9251968Y-10935055D02*
X9261492Y-10916008D01*
X9261492Y-10916008D02*
X9280539Y-10887436D01*
X9280539Y-10887436D02*
X9290063Y-10877912D01*
X9471015Y-11106484D02*
X9356730Y-11106484D01*
X9413872Y-11106484D02*
X9413872Y-10906484D01*
X9413872Y-10906484D02*
X9394825Y-10935055D01*
X9394825Y-10935055D02*
X9375777Y-10954103D01*
X9375777Y-10954103D02*
X9356730Y-10963627D01*
X9661492Y-11106484D02*
X9547206Y-11106484D01*
X9604349Y-11106484D02*
X9604349Y-10906484D01*
X9604349Y-10906484D02*
X9585301Y-10935055D01*
X9585301Y-10935055D02*
X9566253Y-10954103D01*
X9566253Y-10954103D02*
X9547206Y-10963627D01*
X9785301Y-10906484D02*
X9804349Y-10906484D01*
X9804349Y-10906484D02*
X9823396Y-10916008D01*
X9823396Y-10916008D02*
X9832920Y-10925531D01*
X9832920Y-10925531D02*
X9842444Y-10944579D01*
X9842444Y-10944579D02*
X9851968Y-10982674D01*
X9851968Y-10982674D02*
X9851968Y-11030293D01*
X9851968Y-11030293D02*
X9842444Y-11068389D01*
X9842444Y-11068389D02*
X9832920Y-11087436D01*
X9832920Y-11087436D02*
X9823396Y-11096960D01*
X9823396Y-11096960D02*
X9804349Y-11106484D01*
X9804349Y-11106484D02*
X9785301Y-11106484D01*
X9785301Y-11106484D02*
X9766253Y-11096960D01*
X9766253Y-11096960D02*
X9756730Y-11087436D01*
X9756730Y-11087436D02*
X9747206Y-11068389D01*
X9747206Y-11068389D02*
X9737682Y-11030293D01*
X9737682Y-11030293D02*
X9737682Y-10982674D01*
X9737682Y-10982674D02*
X9747206Y-10944579D01*
X9747206Y-10944579D02*
X9756730Y-10925531D01*
X9756730Y-10925531D02*
X9766253Y-10916008D01*
X9766253Y-10916008D02*
X9785301Y-10906484D01*
X10090063Y-11106484D02*
X10090063Y-10906484D01*
X10175777Y-11106484D02*
X10175777Y-11001722D01*
X10175777Y-11001722D02*
X10166254Y-10982674D01*
X10166254Y-10982674D02*
X10147206Y-10973150D01*
X10147206Y-10973150D02*
X10118634Y-10973150D01*
X10118634Y-10973150D02*
X10099587Y-10982674D01*
X10099587Y-10982674D02*
X10090063Y-10992198D01*
X10299587Y-11106484D02*
X10280539Y-11096960D01*
X10280539Y-11096960D02*
X10271015Y-11087436D01*
X10271015Y-11087436D02*
X10261492Y-11068389D01*
X10261492Y-11068389D02*
X10261492Y-11011246D01*
X10261492Y-11011246D02*
X10271015Y-10992198D01*
X10271015Y-10992198D02*
X10280539Y-10982674D01*
X10280539Y-10982674D02*
X10299587Y-10973150D01*
X10299587Y-10973150D02*
X10328158Y-10973150D01*
X10328158Y-10973150D02*
X10347206Y-10982674D01*
X10347206Y-10982674D02*
X10356730Y-10992198D01*
X10356730Y-10992198D02*
X10366254Y-11011246D01*
X10366254Y-11011246D02*
X10366254Y-11068389D01*
X10366254Y-11068389D02*
X10356730Y-11087436D01*
X10356730Y-11087436D02*
X10347206Y-11096960D01*
X10347206Y-11096960D02*
X10328158Y-11106484D01*
X10328158Y-11106484D02*
X10299587Y-11106484D01*
X10480539Y-11106484D02*
X10461492Y-11096960D01*
X10461492Y-11096960D02*
X10451968Y-11077912D01*
X10451968Y-11077912D02*
X10451968Y-10906484D01*
X10632920Y-11096960D02*
X10613873Y-11106484D01*
X10613873Y-11106484D02*
X10575777Y-11106484D01*
X10575777Y-11106484D02*
X10556730Y-11096960D01*
X10556730Y-11096960D02*
X10547206Y-11077912D01*
X10547206Y-11077912D02*
X10547206Y-11001722D01*
X10547206Y-11001722D02*
X10556730Y-10982674D01*
X10556730Y-10982674D02*
X10575777Y-10973150D01*
X10575777Y-10973150D02*
X10613873Y-10973150D01*
X10613873Y-10973150D02*
X10632920Y-10982674D01*
X10632920Y-10982674D02*
X10642444Y-11001722D01*
X10642444Y-11001722D02*
X10642444Y-11020770D01*
X10642444Y-11020770D02*
X10547206Y-11039817D01*
X10718635Y-11096960D02*
X10737682Y-11106484D01*
X10737682Y-11106484D02*
X10775777Y-11106484D01*
X10775777Y-11106484D02*
X10794825Y-11096960D01*
X10794825Y-11096960D02*
X10804349Y-11077912D01*
X10804349Y-11077912D02*
X10804349Y-11068389D01*
X10804349Y-11068389D02*
X10794825Y-11049341D01*
X10794825Y-11049341D02*
X10775777Y-11039817D01*
X10775777Y-11039817D02*
X10747206Y-11039817D01*
X10747206Y-11039817D02*
X10728158Y-11030293D01*
X10728158Y-11030293D02*
X10718635Y-11011246D01*
X10718635Y-11011246D02*
X10718635Y-11001722D01*
X10718635Y-11001722D02*
X10728158Y-10982674D01*
X10728158Y-10982674D02*
X10747206Y-10973150D01*
X10747206Y-10973150D02*
X10775777Y-10973150D01*
X10775777Y-10973150D02*
X10794825Y-10982674D01*
X10871016Y-11182674D02*
X10880539Y-11173150D01*
X10880539Y-11173150D02*
X10899587Y-11144579D01*
X10899587Y-11144579D02*
X10909111Y-11125531D01*
X10909111Y-11125531D02*
X10918635Y-11096960D01*
X10918635Y-11096960D02*
X10928158Y-11049341D01*
X10928158Y-11049341D02*
X10928158Y-11011246D01*
X10928158Y-11011246D02*
X10918635Y-10963627D01*
X10918635Y-10963627D02*
X10909111Y-10935055D01*
X10909111Y-10935055D02*
X10899587Y-10916008D01*
X10899587Y-10916008D02*
X10880539Y-10887436D01*
X10880539Y-10887436D02*
X10871016Y-10877912D01*
D10*
X5715000Y-11279000D02*
G75*
G02*
X5635000Y-11279000I-40000J0D01*
G01*
X5635000Y-11279000D02*
G75*
G02*
X5715000Y-11279000I40000J0D01*
G01*
D11*
X6013872Y-11170484D02*
X6032920Y-11170484D01*
X6032920Y-11170484D02*
X6051967Y-11180008D01*
X6051967Y-11180008D02*
X6061491Y-11189531D01*
X6061491Y-11189531D02*
X6071015Y-11208579D01*
X6071015Y-11208579D02*
X6080539Y-11246674D01*
X6080539Y-11246674D02*
X6080539Y-11294293D01*
X6080539Y-11294293D02*
X6071015Y-11332388D01*
X6071015Y-11332388D02*
X6061491Y-11351436D01*
X6061491Y-11351436D02*
X6051967Y-11360960D01*
X6051967Y-11360960D02*
X6032920Y-11370484D01*
X6032920Y-11370484D02*
X6013872Y-11370484D01*
X6013872Y-11370484D02*
X5994824Y-11360960D01*
X5994824Y-11360960D02*
X5985301Y-11351436D01*
X5985301Y-11351436D02*
X5975777Y-11332388D01*
X5975777Y-11332388D02*
X5966253Y-11294293D01*
X5966253Y-11294293D02*
X5966253Y-11246674D01*
X5966253Y-11246674D02*
X5975777Y-11208579D01*
X5975777Y-11208579D02*
X5985301Y-11189531D01*
X5985301Y-11189531D02*
X5994824Y-11180008D01*
X5994824Y-11180008D02*
X6013872Y-11170484D01*
X6166253Y-11351436D02*
X6175777Y-11360960D01*
X6175777Y-11360960D02*
X6166253Y-11370484D01*
X6166253Y-11370484D02*
X6156729Y-11360960D01*
X6156729Y-11360960D02*
X6166253Y-11351436D01*
X6166253Y-11351436D02*
X6166253Y-11370484D01*
X6290063Y-11256198D02*
X6271015Y-11246674D01*
X6271015Y-11246674D02*
X6261491Y-11237150D01*
X6261491Y-11237150D02*
X6251967Y-11218103D01*
X6251967Y-11218103D02*
X6251967Y-11208579D01*
X6251967Y-11208579D02*
X6261491Y-11189531D01*
X6261491Y-11189531D02*
X6271015Y-11180008D01*
X6271015Y-11180008D02*
X6290063Y-11170484D01*
X6290063Y-11170484D02*
X6328158Y-11170484D01*
X6328158Y-11170484D02*
X6347205Y-11180008D01*
X6347205Y-11180008D02*
X6356729Y-11189531D01*
X6356729Y-11189531D02*
X6366253Y-11208579D01*
X6366253Y-11208579D02*
X6366253Y-11218103D01*
X6366253Y-11218103D02*
X6356729Y-11237150D01*
X6356729Y-11237150D02*
X6347205Y-11246674D01*
X6347205Y-11246674D02*
X6328158Y-11256198D01*
X6328158Y-11256198D02*
X6290063Y-11256198D01*
X6290063Y-11256198D02*
X6271015Y-11265722D01*
X6271015Y-11265722D02*
X6261491Y-11275246D01*
X6261491Y-11275246D02*
X6251967Y-11294293D01*
X6251967Y-11294293D02*
X6251967Y-11332388D01*
X6251967Y-11332388D02*
X6261491Y-11351436D01*
X6261491Y-11351436D02*
X6271015Y-11360960D01*
X6271015Y-11360960D02*
X6290063Y-11370484D01*
X6290063Y-11370484D02*
X6328158Y-11370484D01*
X6328158Y-11370484D02*
X6347205Y-11360960D01*
X6347205Y-11360960D02*
X6356729Y-11351436D01*
X6356729Y-11351436D02*
X6366253Y-11332388D01*
X6366253Y-11332388D02*
X6366253Y-11294293D01*
X6366253Y-11294293D02*
X6356729Y-11275246D01*
X6356729Y-11275246D02*
X6347205Y-11265722D01*
X6347205Y-11265722D02*
X6328158Y-11256198D01*
X6490063Y-11170484D02*
X6509110Y-11170484D01*
X6509110Y-11170484D02*
X6528158Y-11180008D01*
X6528158Y-11180008D02*
X6537682Y-11189531D01*
X6537682Y-11189531D02*
X6547205Y-11208579D01*
X6547205Y-11208579D02*
X6556729Y-11246674D01*
X6556729Y-11246674D02*
X6556729Y-11294293D01*
X6556729Y-11294293D02*
X6547205Y-11332388D01*
X6547205Y-11332388D02*
X6537682Y-11351436D01*
X6537682Y-11351436D02*
X6528158Y-11360960D01*
X6528158Y-11360960D02*
X6509110Y-11370484D01*
X6509110Y-11370484D02*
X6490063Y-11370484D01*
X6490063Y-11370484D02*
X6471015Y-11360960D01*
X6471015Y-11360960D02*
X6461491Y-11351436D01*
X6461491Y-11351436D02*
X6451967Y-11332388D01*
X6451967Y-11332388D02*
X6442444Y-11294293D01*
X6442444Y-11294293D02*
X6442444Y-11246674D01*
X6442444Y-11246674D02*
X6451967Y-11208579D01*
X6451967Y-11208579D02*
X6461491Y-11189531D01*
X6461491Y-11189531D02*
X6471015Y-11180008D01*
X6471015Y-11180008D02*
X6490063Y-11170484D01*
X6680539Y-11170484D02*
X6699586Y-11170484D01*
X6699586Y-11170484D02*
X6718634Y-11180008D01*
X6718634Y-11180008D02*
X6728158Y-11189531D01*
X6728158Y-11189531D02*
X6737682Y-11208579D01*
X6737682Y-11208579D02*
X6747205Y-11246674D01*
X6747205Y-11246674D02*
X6747205Y-11294293D01*
X6747205Y-11294293D02*
X6737682Y-11332388D01*
X6737682Y-11332388D02*
X6728158Y-11351436D01*
X6728158Y-11351436D02*
X6718634Y-11360960D01*
X6718634Y-11360960D02*
X6699586Y-11370484D01*
X6699586Y-11370484D02*
X6680539Y-11370484D01*
X6680539Y-11370484D02*
X6661491Y-11360960D01*
X6661491Y-11360960D02*
X6651967Y-11351436D01*
X6651967Y-11351436D02*
X6642444Y-11332388D01*
X6642444Y-11332388D02*
X6632920Y-11294293D01*
X6632920Y-11294293D02*
X6632920Y-11246674D01*
X6632920Y-11246674D02*
X6642444Y-11208579D01*
X6642444Y-11208579D02*
X6651967Y-11189531D01*
X6651967Y-11189531D02*
X6661491Y-11180008D01*
X6661491Y-11180008D02*
X6680539Y-11170484D01*
X6832920Y-11370484D02*
X6832920Y-11237150D01*
X6832920Y-11256198D02*
X6842444Y-11246674D01*
X6842444Y-11246674D02*
X6861491Y-11237150D01*
X6861491Y-11237150D02*
X6890063Y-11237150D01*
X6890063Y-11237150D02*
X6909110Y-11246674D01*
X6909110Y-11246674D02*
X6918634Y-11265722D01*
X6918634Y-11265722D02*
X6918634Y-11370484D01*
X6918634Y-11265722D02*
X6928158Y-11246674D01*
X6928158Y-11246674D02*
X6947205Y-11237150D01*
X6947205Y-11237150D02*
X6975777Y-11237150D01*
X6975777Y-11237150D02*
X6994825Y-11246674D01*
X6994825Y-11246674D02*
X7004348Y-11265722D01*
X7004348Y-11265722D02*
X7004348Y-11370484D01*
X7099586Y-11370484D02*
X7099586Y-11237150D01*
X7099586Y-11256198D02*
X7109110Y-11246674D01*
X7109110Y-11246674D02*
X7128158Y-11237150D01*
X7128158Y-11237150D02*
X7156729Y-11237150D01*
X7156729Y-11237150D02*
X7175777Y-11246674D01*
X7175777Y-11246674D02*
X7185301Y-11265722D01*
X7185301Y-11265722D02*
X7185301Y-11370484D01*
X7185301Y-11265722D02*
X7194825Y-11246674D01*
X7194825Y-11246674D02*
X7213872Y-11237150D01*
X7213872Y-11237150D02*
X7242444Y-11237150D01*
X7242444Y-11237150D02*
X7261491Y-11246674D01*
X7261491Y-11246674D02*
X7271015Y-11265722D01*
X7271015Y-11265722D02*
X7271015Y-11370484D01*
X7661491Y-11160960D02*
X7490063Y-11418103D01*
X7918634Y-11170484D02*
X7937682Y-11170484D01*
X7937682Y-11170484D02*
X7956729Y-11180008D01*
X7956729Y-11180008D02*
X7966253Y-11189531D01*
X7966253Y-11189531D02*
X7975777Y-11208579D01*
X7975777Y-11208579D02*
X7985301Y-11246674D01*
X7985301Y-11246674D02*
X7985301Y-11294293D01*
X7985301Y-11294293D02*
X7975777Y-11332388D01*
X7975777Y-11332388D02*
X7966253Y-11351436D01*
X7966253Y-11351436D02*
X7956729Y-11360960D01*
X7956729Y-11360960D02*
X7937682Y-11370484D01*
X7937682Y-11370484D02*
X7918634Y-11370484D01*
X7918634Y-11370484D02*
X7899587Y-11360960D01*
X7899587Y-11360960D02*
X7890063Y-11351436D01*
X7890063Y-11351436D02*
X7880539Y-11332388D01*
X7880539Y-11332388D02*
X7871015Y-11294293D01*
X7871015Y-11294293D02*
X7871015Y-11246674D01*
X7871015Y-11246674D02*
X7880539Y-11208579D01*
X7880539Y-11208579D02*
X7890063Y-11189531D01*
X7890063Y-11189531D02*
X7899587Y-11180008D01*
X7899587Y-11180008D02*
X7918634Y-11170484D01*
X8071015Y-11351436D02*
X8080539Y-11360960D01*
X8080539Y-11360960D02*
X8071015Y-11370484D01*
X8071015Y-11370484D02*
X8061491Y-11360960D01*
X8061491Y-11360960D02*
X8071015Y-11351436D01*
X8071015Y-11351436D02*
X8071015Y-11370484D01*
X8204348Y-11170484D02*
X8223396Y-11170484D01*
X8223396Y-11170484D02*
X8242444Y-11180008D01*
X8242444Y-11180008D02*
X8251968Y-11189531D01*
X8251968Y-11189531D02*
X8261491Y-11208579D01*
X8261491Y-11208579D02*
X8271015Y-11246674D01*
X8271015Y-11246674D02*
X8271015Y-11294293D01*
X8271015Y-11294293D02*
X8261491Y-11332388D01*
X8261491Y-11332388D02*
X8251968Y-11351436D01*
X8251968Y-11351436D02*
X8242444Y-11360960D01*
X8242444Y-11360960D02*
X8223396Y-11370484D01*
X8223396Y-11370484D02*
X8204348Y-11370484D01*
X8204348Y-11370484D02*
X8185301Y-11360960D01*
X8185301Y-11360960D02*
X8175777Y-11351436D01*
X8175777Y-11351436D02*
X8166253Y-11332388D01*
X8166253Y-11332388D02*
X8156729Y-11294293D01*
X8156729Y-11294293D02*
X8156729Y-11246674D01*
X8156729Y-11246674D02*
X8166253Y-11208579D01*
X8166253Y-11208579D02*
X8175777Y-11189531D01*
X8175777Y-11189531D02*
X8185301Y-11180008D01*
X8185301Y-11180008D02*
X8204348Y-11170484D01*
X8337682Y-11170484D02*
X8461491Y-11170484D01*
X8461491Y-11170484D02*
X8394825Y-11246674D01*
X8394825Y-11246674D02*
X8423396Y-11246674D01*
X8423396Y-11246674D02*
X8442444Y-11256198D01*
X8442444Y-11256198D02*
X8451968Y-11265722D01*
X8451968Y-11265722D02*
X8461491Y-11284769D01*
X8461491Y-11284769D02*
X8461491Y-11332388D01*
X8461491Y-11332388D02*
X8451968Y-11351436D01*
X8451968Y-11351436D02*
X8442444Y-11360960D01*
X8442444Y-11360960D02*
X8423396Y-11370484D01*
X8423396Y-11370484D02*
X8366253Y-11370484D01*
X8366253Y-11370484D02*
X8347206Y-11360960D01*
X8347206Y-11360960D02*
X8337682Y-11351436D01*
X8651968Y-11370484D02*
X8537682Y-11370484D01*
X8594825Y-11370484D02*
X8594825Y-11170484D01*
X8594825Y-11170484D02*
X8575777Y-11199055D01*
X8575777Y-11199055D02*
X8556730Y-11218103D01*
X8556730Y-11218103D02*
X8537682Y-11227627D01*
X8832920Y-11170484D02*
X8737682Y-11170484D01*
X8737682Y-11170484D02*
X8728158Y-11265722D01*
X8728158Y-11265722D02*
X8737682Y-11256198D01*
X8737682Y-11256198D02*
X8756730Y-11246674D01*
X8756730Y-11246674D02*
X8804349Y-11246674D01*
X8804349Y-11246674D02*
X8823396Y-11256198D01*
X8823396Y-11256198D02*
X8832920Y-11265722D01*
X8832920Y-11265722D02*
X8842444Y-11284769D01*
X8842444Y-11284769D02*
X8842444Y-11332388D01*
X8842444Y-11332388D02*
X8832920Y-11351436D01*
X8832920Y-11351436D02*
X8823396Y-11360960D01*
X8823396Y-11360960D02*
X8804349Y-11370484D01*
X8804349Y-11370484D02*
X8756730Y-11370484D01*
X8756730Y-11370484D02*
X8737682Y-11360960D01*
X8737682Y-11360960D02*
X8728158Y-11351436D01*
X8918634Y-11170484D02*
X8918634Y-11208579D01*
X8994825Y-11170484D02*
X8994825Y-11208579D01*
X9290063Y-11446674D02*
X9280539Y-11437150D01*
X9280539Y-11437150D02*
X9261492Y-11408579D01*
X9261492Y-11408579D02*
X9251968Y-11389531D01*
X9251968Y-11389531D02*
X9242444Y-11360960D01*
X9242444Y-11360960D02*
X9232920Y-11313341D01*
X9232920Y-11313341D02*
X9232920Y-11275246D01*
X9232920Y-11275246D02*
X9242444Y-11227627D01*
X9242444Y-11227627D02*
X9251968Y-11199055D01*
X9251968Y-11199055D02*
X9261492Y-11180008D01*
X9261492Y-11180008D02*
X9280539Y-11151436D01*
X9280539Y-11151436D02*
X9290063Y-11141912D01*
X9461492Y-11170484D02*
X9366253Y-11170484D01*
X9366253Y-11170484D02*
X9356730Y-11265722D01*
X9356730Y-11265722D02*
X9366253Y-11256198D01*
X9366253Y-11256198D02*
X9385301Y-11246674D01*
X9385301Y-11246674D02*
X9432920Y-11246674D01*
X9432920Y-11246674D02*
X9451968Y-11256198D01*
X9451968Y-11256198D02*
X9461492Y-11265722D01*
X9461492Y-11265722D02*
X9471015Y-11284769D01*
X9471015Y-11284769D02*
X9471015Y-11332388D01*
X9471015Y-11332388D02*
X9461492Y-11351436D01*
X9461492Y-11351436D02*
X9451968Y-11360960D01*
X9451968Y-11360960D02*
X9432920Y-11370484D01*
X9432920Y-11370484D02*
X9385301Y-11370484D01*
X9385301Y-11370484D02*
X9366253Y-11360960D01*
X9366253Y-11360960D02*
X9356730Y-11351436D01*
X9585301Y-11256198D02*
X9566253Y-11246674D01*
X9566253Y-11246674D02*
X9556730Y-11237150D01*
X9556730Y-11237150D02*
X9547206Y-11218103D01*
X9547206Y-11218103D02*
X9547206Y-11208579D01*
X9547206Y-11208579D02*
X9556730Y-11189531D01*
X9556730Y-11189531D02*
X9566253Y-11180008D01*
X9566253Y-11180008D02*
X9585301Y-11170484D01*
X9585301Y-11170484D02*
X9623396Y-11170484D01*
X9623396Y-11170484D02*
X9642444Y-11180008D01*
X9642444Y-11180008D02*
X9651968Y-11189531D01*
X9651968Y-11189531D02*
X9661492Y-11208579D01*
X9661492Y-11208579D02*
X9661492Y-11218103D01*
X9661492Y-11218103D02*
X9651968Y-11237150D01*
X9651968Y-11237150D02*
X9642444Y-11246674D01*
X9642444Y-11246674D02*
X9623396Y-11256198D01*
X9623396Y-11256198D02*
X9585301Y-11256198D01*
X9585301Y-11256198D02*
X9566253Y-11265722D01*
X9566253Y-11265722D02*
X9556730Y-11275246D01*
X9556730Y-11275246D02*
X9547206Y-11294293D01*
X9547206Y-11294293D02*
X9547206Y-11332388D01*
X9547206Y-11332388D02*
X9556730Y-11351436D01*
X9556730Y-11351436D02*
X9566253Y-11360960D01*
X9566253Y-11360960D02*
X9585301Y-11370484D01*
X9585301Y-11370484D02*
X9623396Y-11370484D01*
X9623396Y-11370484D02*
X9642444Y-11360960D01*
X9642444Y-11360960D02*
X9651968Y-11351436D01*
X9651968Y-11351436D02*
X9661492Y-11332388D01*
X9661492Y-11332388D02*
X9661492Y-11294293D01*
X9661492Y-11294293D02*
X9651968Y-11275246D01*
X9651968Y-11275246D02*
X9642444Y-11265722D01*
X9642444Y-11265722D02*
X9623396Y-11256198D01*
X9899587Y-11370484D02*
X9899587Y-11170484D01*
X9985301Y-11370484D02*
X9985301Y-11265722D01*
X9985301Y-11265722D02*
X9975777Y-11246674D01*
X9975777Y-11246674D02*
X9956730Y-11237150D01*
X9956730Y-11237150D02*
X9928158Y-11237150D01*
X9928158Y-11237150D02*
X9909111Y-11246674D01*
X9909111Y-11246674D02*
X9899587Y-11256198D01*
X10109111Y-11370484D02*
X10090063Y-11360960D01*
X10090063Y-11360960D02*
X10080539Y-11351436D01*
X10080539Y-11351436D02*
X10071015Y-11332388D01*
X10071015Y-11332388D02*
X10071015Y-11275246D01*
X10071015Y-11275246D02*
X10080539Y-11256198D01*
X10080539Y-11256198D02*
X10090063Y-11246674D01*
X10090063Y-11246674D02*
X10109111Y-11237150D01*
X10109111Y-11237150D02*
X10137682Y-11237150D01*
X10137682Y-11237150D02*
X10156730Y-11246674D01*
X10156730Y-11246674D02*
X10166254Y-11256198D01*
X10166254Y-11256198D02*
X10175777Y-11275246D01*
X10175777Y-11275246D02*
X10175777Y-11332388D01*
X10175777Y-11332388D02*
X10166254Y-11351436D01*
X10166254Y-11351436D02*
X10156730Y-11360960D01*
X10156730Y-11360960D02*
X10137682Y-11370484D01*
X10137682Y-11370484D02*
X10109111Y-11370484D01*
X10290063Y-11370484D02*
X10271015Y-11360960D01*
X10271015Y-11360960D02*
X10261492Y-11341912D01*
X10261492Y-11341912D02*
X10261492Y-11170484D01*
X10442444Y-11360960D02*
X10423396Y-11370484D01*
X10423396Y-11370484D02*
X10385301Y-11370484D01*
X10385301Y-11370484D02*
X10366254Y-11360960D01*
X10366254Y-11360960D02*
X10356730Y-11341912D01*
X10356730Y-11341912D02*
X10356730Y-11265722D01*
X10356730Y-11265722D02*
X10366254Y-11246674D01*
X10366254Y-11246674D02*
X10385301Y-11237150D01*
X10385301Y-11237150D02*
X10423396Y-11237150D01*
X10423396Y-11237150D02*
X10442444Y-11246674D01*
X10442444Y-11246674D02*
X10451968Y-11265722D01*
X10451968Y-11265722D02*
X10451968Y-11284769D01*
X10451968Y-11284769D02*
X10356730Y-11303817D01*
X10528158Y-11360960D02*
X10547206Y-11370484D01*
X10547206Y-11370484D02*
X10585301Y-11370484D01*
X10585301Y-11370484D02*
X10604349Y-11360960D01*
X10604349Y-11360960D02*
X10613873Y-11341912D01*
X10613873Y-11341912D02*
X10613873Y-11332388D01*
X10613873Y-11332388D02*
X10604349Y-11313341D01*
X10604349Y-11313341D02*
X10585301Y-11303817D01*
X10585301Y-11303817D02*
X10556730Y-11303817D01*
X10556730Y-11303817D02*
X10537682Y-11294293D01*
X10537682Y-11294293D02*
X10528158Y-11275246D01*
X10528158Y-11275246D02*
X10528158Y-11265722D01*
X10528158Y-11265722D02*
X10537682Y-11246674D01*
X10537682Y-11246674D02*
X10556730Y-11237150D01*
X10556730Y-11237150D02*
X10585301Y-11237150D01*
X10585301Y-11237150D02*
X10604349Y-11246674D01*
X10680539Y-11446674D02*
X10690063Y-11437150D01*
X10690063Y-11437150D02*
X10709111Y-11408579D01*
X10709111Y-11408579D02*
X10718635Y-11389531D01*
X10718635Y-11389531D02*
X10728158Y-11360960D01*
X10728158Y-11360960D02*
X10737682Y-11313341D01*
X10737682Y-11313341D02*
X10737682Y-11275246D01*
X10737682Y-11275246D02*
X10728158Y-11227627D01*
X10728158Y-11227627D02*
X10718635Y-11199055D01*
X10718635Y-11199055D02*
X10709111Y-11180008D01*
X10709111Y-11180008D02*
X10690063Y-11151436D01*
X10690063Y-11151436D02*
X10680539Y-11141912D01*
D10*
X5670000Y-11498000D02*
X5670000Y-11588000D01*
X5625000Y-11543000D02*
X5715000Y-11543000D01*
D11*
X6013872Y-11434484D02*
X6032920Y-11434484D01*
X6032920Y-11434484D02*
X6051967Y-11444008D01*
X6051967Y-11444008D02*
X6061491Y-11453531D01*
X6061491Y-11453531D02*
X6071015Y-11472579D01*
X6071015Y-11472579D02*
X6080539Y-11510674D01*
X6080539Y-11510674D02*
X6080539Y-11558293D01*
X6080539Y-11558293D02*
X6071015Y-11596388D01*
X6071015Y-11596388D02*
X6061491Y-11615436D01*
X6061491Y-11615436D02*
X6051967Y-11624960D01*
X6051967Y-11624960D02*
X6032920Y-11634484D01*
X6032920Y-11634484D02*
X6013872Y-11634484D01*
X6013872Y-11634484D02*
X5994824Y-11624960D01*
X5994824Y-11624960D02*
X5985301Y-11615436D01*
X5985301Y-11615436D02*
X5975777Y-11596388D01*
X5975777Y-11596388D02*
X5966253Y-11558293D01*
X5966253Y-11558293D02*
X5966253Y-11510674D01*
X5966253Y-11510674D02*
X5975777Y-11472579D01*
X5975777Y-11472579D02*
X5985301Y-11453531D01*
X5985301Y-11453531D02*
X5994824Y-11444008D01*
X5994824Y-11444008D02*
X6013872Y-11434484D01*
X6166253Y-11615436D02*
X6175777Y-11624960D01*
X6175777Y-11624960D02*
X6166253Y-11634484D01*
X6166253Y-11634484D02*
X6156729Y-11624960D01*
X6156729Y-11624960D02*
X6166253Y-11615436D01*
X6166253Y-11615436D02*
X6166253Y-11634484D01*
X6271015Y-11634484D02*
X6309110Y-11634484D01*
X6309110Y-11634484D02*
X6328158Y-11624960D01*
X6328158Y-11624960D02*
X6337682Y-11615436D01*
X6337682Y-11615436D02*
X6356729Y-11586865D01*
X6356729Y-11586865D02*
X6366253Y-11548769D01*
X6366253Y-11548769D02*
X6366253Y-11472579D01*
X6366253Y-11472579D02*
X6356729Y-11453531D01*
X6356729Y-11453531D02*
X6347205Y-11444008D01*
X6347205Y-11444008D02*
X6328158Y-11434484D01*
X6328158Y-11434484D02*
X6290063Y-11434484D01*
X6290063Y-11434484D02*
X6271015Y-11444008D01*
X6271015Y-11444008D02*
X6261491Y-11453531D01*
X6261491Y-11453531D02*
X6251967Y-11472579D01*
X6251967Y-11472579D02*
X6251967Y-11520198D01*
X6251967Y-11520198D02*
X6261491Y-11539246D01*
X6261491Y-11539246D02*
X6271015Y-11548769D01*
X6271015Y-11548769D02*
X6290063Y-11558293D01*
X6290063Y-11558293D02*
X6328158Y-11558293D01*
X6328158Y-11558293D02*
X6347205Y-11548769D01*
X6347205Y-11548769D02*
X6356729Y-11539246D01*
X6356729Y-11539246D02*
X6366253Y-11520198D01*
X6490063Y-11434484D02*
X6509110Y-11434484D01*
X6509110Y-11434484D02*
X6528158Y-11444008D01*
X6528158Y-11444008D02*
X6537682Y-11453531D01*
X6537682Y-11453531D02*
X6547205Y-11472579D01*
X6547205Y-11472579D02*
X6556729Y-11510674D01*
X6556729Y-11510674D02*
X6556729Y-11558293D01*
X6556729Y-11558293D02*
X6547205Y-11596388D01*
X6547205Y-11596388D02*
X6537682Y-11615436D01*
X6537682Y-11615436D02*
X6528158Y-11624960D01*
X6528158Y-11624960D02*
X6509110Y-11634484D01*
X6509110Y-11634484D02*
X6490063Y-11634484D01*
X6490063Y-11634484D02*
X6471015Y-11624960D01*
X6471015Y-11624960D02*
X6461491Y-11615436D01*
X6461491Y-11615436D02*
X6451967Y-11596388D01*
X6451967Y-11596388D02*
X6442444Y-11558293D01*
X6442444Y-11558293D02*
X6442444Y-11510674D01*
X6442444Y-11510674D02*
X6451967Y-11472579D01*
X6451967Y-11472579D02*
X6461491Y-11453531D01*
X6461491Y-11453531D02*
X6471015Y-11444008D01*
X6471015Y-11444008D02*
X6490063Y-11434484D01*
X6680539Y-11434484D02*
X6699586Y-11434484D01*
X6699586Y-11434484D02*
X6718634Y-11444008D01*
X6718634Y-11444008D02*
X6728158Y-11453531D01*
X6728158Y-11453531D02*
X6737682Y-11472579D01*
X6737682Y-11472579D02*
X6747205Y-11510674D01*
X6747205Y-11510674D02*
X6747205Y-11558293D01*
X6747205Y-11558293D02*
X6737682Y-11596388D01*
X6737682Y-11596388D02*
X6728158Y-11615436D01*
X6728158Y-11615436D02*
X6718634Y-11624960D01*
X6718634Y-11624960D02*
X6699586Y-11634484D01*
X6699586Y-11634484D02*
X6680539Y-11634484D01*
X6680539Y-11634484D02*
X6661491Y-11624960D01*
X6661491Y-11624960D02*
X6651967Y-11615436D01*
X6651967Y-11615436D02*
X6642444Y-11596388D01*
X6642444Y-11596388D02*
X6632920Y-11558293D01*
X6632920Y-11558293D02*
X6632920Y-11510674D01*
X6632920Y-11510674D02*
X6642444Y-11472579D01*
X6642444Y-11472579D02*
X6651967Y-11453531D01*
X6651967Y-11453531D02*
X6661491Y-11444008D01*
X6661491Y-11444008D02*
X6680539Y-11434484D01*
X6832920Y-11634484D02*
X6832920Y-11501150D01*
X6832920Y-11520198D02*
X6842444Y-11510674D01*
X6842444Y-11510674D02*
X6861491Y-11501150D01*
X6861491Y-11501150D02*
X6890063Y-11501150D01*
X6890063Y-11501150D02*
X6909110Y-11510674D01*
X6909110Y-11510674D02*
X6918634Y-11529722D01*
X6918634Y-11529722D02*
X6918634Y-11634484D01*
X6918634Y-11529722D02*
X6928158Y-11510674D01*
X6928158Y-11510674D02*
X6947205Y-11501150D01*
X6947205Y-11501150D02*
X6975777Y-11501150D01*
X6975777Y-11501150D02*
X6994825Y-11510674D01*
X6994825Y-11510674D02*
X7004348Y-11529722D01*
X7004348Y-11529722D02*
X7004348Y-11634484D01*
X7099586Y-11634484D02*
X7099586Y-11501150D01*
X7099586Y-11520198D02*
X7109110Y-11510674D01*
X7109110Y-11510674D02*
X7128158Y-11501150D01*
X7128158Y-11501150D02*
X7156729Y-11501150D01*
X7156729Y-11501150D02*
X7175777Y-11510674D01*
X7175777Y-11510674D02*
X7185301Y-11529722D01*
X7185301Y-11529722D02*
X7185301Y-11634484D01*
X7185301Y-11529722D02*
X7194825Y-11510674D01*
X7194825Y-11510674D02*
X7213872Y-11501150D01*
X7213872Y-11501150D02*
X7242444Y-11501150D01*
X7242444Y-11501150D02*
X7261491Y-11510674D01*
X7261491Y-11510674D02*
X7271015Y-11529722D01*
X7271015Y-11529722D02*
X7271015Y-11634484D01*
X7661491Y-11424960D02*
X7490063Y-11682103D01*
X7918634Y-11434484D02*
X7937682Y-11434484D01*
X7937682Y-11434484D02*
X7956729Y-11444008D01*
X7956729Y-11444008D02*
X7966253Y-11453531D01*
X7966253Y-11453531D02*
X7975777Y-11472579D01*
X7975777Y-11472579D02*
X7985301Y-11510674D01*
X7985301Y-11510674D02*
X7985301Y-11558293D01*
X7985301Y-11558293D02*
X7975777Y-11596388D01*
X7975777Y-11596388D02*
X7966253Y-11615436D01*
X7966253Y-11615436D02*
X7956729Y-11624960D01*
X7956729Y-11624960D02*
X7937682Y-11634484D01*
X7937682Y-11634484D02*
X7918634Y-11634484D01*
X7918634Y-11634484D02*
X7899587Y-11624960D01*
X7899587Y-11624960D02*
X7890063Y-11615436D01*
X7890063Y-11615436D02*
X7880539Y-11596388D01*
X7880539Y-11596388D02*
X7871015Y-11558293D01*
X7871015Y-11558293D02*
X7871015Y-11510674D01*
X7871015Y-11510674D02*
X7880539Y-11472579D01*
X7880539Y-11472579D02*
X7890063Y-11453531D01*
X7890063Y-11453531D02*
X7899587Y-11444008D01*
X7899587Y-11444008D02*
X7918634Y-11434484D01*
X8071015Y-11615436D02*
X8080539Y-11624960D01*
X8080539Y-11624960D02*
X8071015Y-11634484D01*
X8071015Y-11634484D02*
X8061491Y-11624960D01*
X8061491Y-11624960D02*
X8071015Y-11615436D01*
X8071015Y-11615436D02*
X8071015Y-11634484D01*
X8204348Y-11434484D02*
X8223396Y-11434484D01*
X8223396Y-11434484D02*
X8242444Y-11444008D01*
X8242444Y-11444008D02*
X8251968Y-11453531D01*
X8251968Y-11453531D02*
X8261491Y-11472579D01*
X8261491Y-11472579D02*
X8271015Y-11510674D01*
X8271015Y-11510674D02*
X8271015Y-11558293D01*
X8271015Y-11558293D02*
X8261491Y-11596388D01*
X8261491Y-11596388D02*
X8251968Y-11615436D01*
X8251968Y-11615436D02*
X8242444Y-11624960D01*
X8242444Y-11624960D02*
X8223396Y-11634484D01*
X8223396Y-11634484D02*
X8204348Y-11634484D01*
X8204348Y-11634484D02*
X8185301Y-11624960D01*
X8185301Y-11624960D02*
X8175777Y-11615436D01*
X8175777Y-11615436D02*
X8166253Y-11596388D01*
X8166253Y-11596388D02*
X8156729Y-11558293D01*
X8156729Y-11558293D02*
X8156729Y-11510674D01*
X8156729Y-11510674D02*
X8166253Y-11472579D01*
X8166253Y-11472579D02*
X8175777Y-11453531D01*
X8175777Y-11453531D02*
X8185301Y-11444008D01*
X8185301Y-11444008D02*
X8204348Y-11434484D01*
X8337682Y-11434484D02*
X8461491Y-11434484D01*
X8461491Y-11434484D02*
X8394825Y-11510674D01*
X8394825Y-11510674D02*
X8423396Y-11510674D01*
X8423396Y-11510674D02*
X8442444Y-11520198D01*
X8442444Y-11520198D02*
X8451968Y-11529722D01*
X8451968Y-11529722D02*
X8461491Y-11548769D01*
X8461491Y-11548769D02*
X8461491Y-11596388D01*
X8461491Y-11596388D02*
X8451968Y-11615436D01*
X8451968Y-11615436D02*
X8442444Y-11624960D01*
X8442444Y-11624960D02*
X8423396Y-11634484D01*
X8423396Y-11634484D02*
X8366253Y-11634484D01*
X8366253Y-11634484D02*
X8347206Y-11624960D01*
X8347206Y-11624960D02*
X8337682Y-11615436D01*
X8642444Y-11434484D02*
X8547206Y-11434484D01*
X8547206Y-11434484D02*
X8537682Y-11529722D01*
X8537682Y-11529722D02*
X8547206Y-11520198D01*
X8547206Y-11520198D02*
X8566253Y-11510674D01*
X8566253Y-11510674D02*
X8613872Y-11510674D01*
X8613872Y-11510674D02*
X8632920Y-11520198D01*
X8632920Y-11520198D02*
X8642444Y-11529722D01*
X8642444Y-11529722D02*
X8651968Y-11548769D01*
X8651968Y-11548769D02*
X8651968Y-11596388D01*
X8651968Y-11596388D02*
X8642444Y-11615436D01*
X8642444Y-11615436D02*
X8632920Y-11624960D01*
X8632920Y-11624960D02*
X8613872Y-11634484D01*
X8613872Y-11634484D02*
X8566253Y-11634484D01*
X8566253Y-11634484D02*
X8547206Y-11624960D01*
X8547206Y-11624960D02*
X8537682Y-11615436D01*
X8823396Y-11501150D02*
X8823396Y-11634484D01*
X8775777Y-11424960D02*
X8728158Y-11567817D01*
X8728158Y-11567817D02*
X8851968Y-11567817D01*
X8918634Y-11434484D02*
X8918634Y-11472579D01*
X8994825Y-11434484D02*
X8994825Y-11472579D01*
X9290063Y-11710674D02*
X9280539Y-11701150D01*
X9280539Y-11701150D02*
X9261492Y-11672579D01*
X9261492Y-11672579D02*
X9251968Y-11653531D01*
X9251968Y-11653531D02*
X9242444Y-11624960D01*
X9242444Y-11624960D02*
X9232920Y-11577341D01*
X9232920Y-11577341D02*
X9232920Y-11539246D01*
X9232920Y-11539246D02*
X9242444Y-11491627D01*
X9242444Y-11491627D02*
X9251968Y-11463055D01*
X9251968Y-11463055D02*
X9261492Y-11444008D01*
X9261492Y-11444008D02*
X9280539Y-11415436D01*
X9280539Y-11415436D02*
X9290063Y-11405912D01*
X9347206Y-11434484D02*
X9471015Y-11434484D01*
X9471015Y-11434484D02*
X9404349Y-11510674D01*
X9404349Y-11510674D02*
X9432920Y-11510674D01*
X9432920Y-11510674D02*
X9451968Y-11520198D01*
X9451968Y-11520198D02*
X9461492Y-11529722D01*
X9461492Y-11529722D02*
X9471015Y-11548769D01*
X9471015Y-11548769D02*
X9471015Y-11596388D01*
X9471015Y-11596388D02*
X9461492Y-11615436D01*
X9461492Y-11615436D02*
X9451968Y-11624960D01*
X9451968Y-11624960D02*
X9432920Y-11634484D01*
X9432920Y-11634484D02*
X9375777Y-11634484D01*
X9375777Y-11634484D02*
X9356730Y-11624960D01*
X9356730Y-11624960D02*
X9347206Y-11615436D01*
X9709111Y-11634484D02*
X9709111Y-11434484D01*
X9794825Y-11634484D02*
X9794825Y-11529722D01*
X9794825Y-11529722D02*
X9785301Y-11510674D01*
X9785301Y-11510674D02*
X9766254Y-11501150D01*
X9766254Y-11501150D02*
X9737682Y-11501150D01*
X9737682Y-11501150D02*
X9718634Y-11510674D01*
X9718634Y-11510674D02*
X9709111Y-11520198D01*
X9918634Y-11634484D02*
X9899587Y-11624960D01*
X9899587Y-11624960D02*
X9890063Y-11615436D01*
X9890063Y-11615436D02*
X9880539Y-11596388D01*
X9880539Y-11596388D02*
X9880539Y-11539246D01*
X9880539Y-11539246D02*
X9890063Y-11520198D01*
X9890063Y-11520198D02*
X9899587Y-11510674D01*
X9899587Y-11510674D02*
X9918634Y-11501150D01*
X9918634Y-11501150D02*
X9947206Y-11501150D01*
X9947206Y-11501150D02*
X9966254Y-11510674D01*
X9966254Y-11510674D02*
X9975777Y-11520198D01*
X9975777Y-11520198D02*
X9985301Y-11539246D01*
X9985301Y-11539246D02*
X9985301Y-11596388D01*
X9985301Y-11596388D02*
X9975777Y-11615436D01*
X9975777Y-11615436D02*
X9966254Y-11624960D01*
X9966254Y-11624960D02*
X9947206Y-11634484D01*
X9947206Y-11634484D02*
X9918634Y-11634484D01*
X10099587Y-11634484D02*
X10080539Y-11624960D01*
X10080539Y-11624960D02*
X10071015Y-11605912D01*
X10071015Y-11605912D02*
X10071015Y-11434484D01*
X10251968Y-11624960D02*
X10232920Y-11634484D01*
X10232920Y-11634484D02*
X10194825Y-11634484D01*
X10194825Y-11634484D02*
X10175777Y-11624960D01*
X10175777Y-11624960D02*
X10166254Y-11605912D01*
X10166254Y-11605912D02*
X10166254Y-11529722D01*
X10166254Y-11529722D02*
X10175777Y-11510674D01*
X10175777Y-11510674D02*
X10194825Y-11501150D01*
X10194825Y-11501150D02*
X10232920Y-11501150D01*
X10232920Y-11501150D02*
X10251968Y-11510674D01*
X10251968Y-11510674D02*
X10261492Y-11529722D01*
X10261492Y-11529722D02*
X10261492Y-11548769D01*
X10261492Y-11548769D02*
X10166254Y-11567817D01*
X10337682Y-11624960D02*
X10356730Y-11634484D01*
X10356730Y-11634484D02*
X10394825Y-11634484D01*
X10394825Y-11634484D02*
X10413873Y-11624960D01*
X10413873Y-11624960D02*
X10423396Y-11605912D01*
X10423396Y-11605912D02*
X10423396Y-11596388D01*
X10423396Y-11596388D02*
X10413873Y-11577341D01*
X10413873Y-11577341D02*
X10394825Y-11567817D01*
X10394825Y-11567817D02*
X10366254Y-11567817D01*
X10366254Y-11567817D02*
X10347206Y-11558293D01*
X10347206Y-11558293D02*
X10337682Y-11539246D01*
X10337682Y-11539246D02*
X10337682Y-11529722D01*
X10337682Y-11529722D02*
X10347206Y-11510674D01*
X10347206Y-11510674D02*
X10366254Y-11501150D01*
X10366254Y-11501150D02*
X10394825Y-11501150D01*
X10394825Y-11501150D02*
X10413873Y-11510674D01*
X10490063Y-11710674D02*
X10499587Y-11701150D01*
X10499587Y-11701150D02*
X10518635Y-11672579D01*
X10518635Y-11672579D02*
X10528158Y-11653531D01*
X10528158Y-11653531D02*
X10537682Y-11624960D01*
X10537682Y-11624960D02*
X10547206Y-11577341D01*
X10547206Y-11577341D02*
X10547206Y-11539246D01*
X10547206Y-11539246D02*
X10537682Y-11491627D01*
X10537682Y-11491627D02*
X10528158Y-11463055D01*
X10528158Y-11463055D02*
X10518635Y-11444008D01*
X10518635Y-11444008D02*
X10499587Y-11415436D01*
X10499587Y-11415436D02*
X10490063Y-11405912D01*
D10*
X5700356Y-11842356D02*
X5700356Y-11771644D01*
X5629644Y-11771644D01*
X5629644Y-11842356D01*
X5700356Y-11842356D01*
D11*
X6080539Y-11898484D02*
X5966253Y-11898484D01*
X6023396Y-11898484D02*
X6023396Y-11698484D01*
X6023396Y-11698484D02*
X6004348Y-11727055D01*
X6004348Y-11727055D02*
X5985301Y-11746103D01*
X5985301Y-11746103D02*
X5966253Y-11755627D01*
X6166253Y-11879436D02*
X6175777Y-11888960D01*
X6175777Y-11888960D02*
X6166253Y-11898484D01*
X6166253Y-11898484D02*
X6156729Y-11888960D01*
X6156729Y-11888960D02*
X6166253Y-11879436D01*
X6166253Y-11879436D02*
X6166253Y-11898484D01*
X6299586Y-11698484D02*
X6318634Y-11698484D01*
X6318634Y-11698484D02*
X6337682Y-11708008D01*
X6337682Y-11708008D02*
X6347205Y-11717531D01*
X6347205Y-11717531D02*
X6356729Y-11736579D01*
X6356729Y-11736579D02*
X6366253Y-11774674D01*
X6366253Y-11774674D02*
X6366253Y-11822293D01*
X6366253Y-11822293D02*
X6356729Y-11860388D01*
X6356729Y-11860388D02*
X6347205Y-11879436D01*
X6347205Y-11879436D02*
X6337682Y-11888960D01*
X6337682Y-11888960D02*
X6318634Y-11898484D01*
X6318634Y-11898484D02*
X6299586Y-11898484D01*
X6299586Y-11898484D02*
X6280539Y-11888960D01*
X6280539Y-11888960D02*
X6271015Y-11879436D01*
X6271015Y-11879436D02*
X6261491Y-11860388D01*
X6261491Y-11860388D02*
X6251967Y-11822293D01*
X6251967Y-11822293D02*
X6251967Y-11774674D01*
X6251967Y-11774674D02*
X6261491Y-11736579D01*
X6261491Y-11736579D02*
X6271015Y-11717531D01*
X6271015Y-11717531D02*
X6280539Y-11708008D01*
X6280539Y-11708008D02*
X6299586Y-11698484D01*
X6490063Y-11698484D02*
X6509110Y-11698484D01*
X6509110Y-11698484D02*
X6528158Y-11708008D01*
X6528158Y-11708008D02*
X6537682Y-11717531D01*
X6537682Y-11717531D02*
X6547205Y-11736579D01*
X6547205Y-11736579D02*
X6556729Y-11774674D01*
X6556729Y-11774674D02*
X6556729Y-11822293D01*
X6556729Y-11822293D02*
X6547205Y-11860388D01*
X6547205Y-11860388D02*
X6537682Y-11879436D01*
X6537682Y-11879436D02*
X6528158Y-11888960D01*
X6528158Y-11888960D02*
X6509110Y-11898484D01*
X6509110Y-11898484D02*
X6490063Y-11898484D01*
X6490063Y-11898484D02*
X6471015Y-11888960D01*
X6471015Y-11888960D02*
X6461491Y-11879436D01*
X6461491Y-11879436D02*
X6451967Y-11860388D01*
X6451967Y-11860388D02*
X6442444Y-11822293D01*
X6442444Y-11822293D02*
X6442444Y-11774674D01*
X6442444Y-11774674D02*
X6451967Y-11736579D01*
X6451967Y-11736579D02*
X6461491Y-11717531D01*
X6461491Y-11717531D02*
X6471015Y-11708008D01*
X6471015Y-11708008D02*
X6490063Y-11698484D01*
X6680539Y-11698484D02*
X6699586Y-11698484D01*
X6699586Y-11698484D02*
X6718634Y-11708008D01*
X6718634Y-11708008D02*
X6728158Y-11717531D01*
X6728158Y-11717531D02*
X6737682Y-11736579D01*
X6737682Y-11736579D02*
X6747205Y-11774674D01*
X6747205Y-11774674D02*
X6747205Y-11822293D01*
X6747205Y-11822293D02*
X6737682Y-11860388D01*
X6737682Y-11860388D02*
X6728158Y-11879436D01*
X6728158Y-11879436D02*
X6718634Y-11888960D01*
X6718634Y-11888960D02*
X6699586Y-11898484D01*
X6699586Y-11898484D02*
X6680539Y-11898484D01*
X6680539Y-11898484D02*
X6661491Y-11888960D01*
X6661491Y-11888960D02*
X6651967Y-11879436D01*
X6651967Y-11879436D02*
X6642444Y-11860388D01*
X6642444Y-11860388D02*
X6632920Y-11822293D01*
X6632920Y-11822293D02*
X6632920Y-11774674D01*
X6632920Y-11774674D02*
X6642444Y-11736579D01*
X6642444Y-11736579D02*
X6651967Y-11717531D01*
X6651967Y-11717531D02*
X6661491Y-11708008D01*
X6661491Y-11708008D02*
X6680539Y-11698484D01*
X6832920Y-11898484D02*
X6832920Y-11765150D01*
X6832920Y-11784198D02*
X6842444Y-11774674D01*
X6842444Y-11774674D02*
X6861491Y-11765150D01*
X6861491Y-11765150D02*
X6890063Y-11765150D01*
X6890063Y-11765150D02*
X6909110Y-11774674D01*
X6909110Y-11774674D02*
X6918634Y-11793722D01*
X6918634Y-11793722D02*
X6918634Y-11898484D01*
X6918634Y-11793722D02*
X6928158Y-11774674D01*
X6928158Y-11774674D02*
X6947205Y-11765150D01*
X6947205Y-11765150D02*
X6975777Y-11765150D01*
X6975777Y-11765150D02*
X6994825Y-11774674D01*
X6994825Y-11774674D02*
X7004348Y-11793722D01*
X7004348Y-11793722D02*
X7004348Y-11898484D01*
X7099586Y-11898484D02*
X7099586Y-11765150D01*
X7099586Y-11784198D02*
X7109110Y-11774674D01*
X7109110Y-11774674D02*
X7128158Y-11765150D01*
X7128158Y-11765150D02*
X7156729Y-11765150D01*
X7156729Y-11765150D02*
X7175777Y-11774674D01*
X7175777Y-11774674D02*
X7185301Y-11793722D01*
X7185301Y-11793722D02*
X7185301Y-11898484D01*
X7185301Y-11793722D02*
X7194825Y-11774674D01*
X7194825Y-11774674D02*
X7213872Y-11765150D01*
X7213872Y-11765150D02*
X7242444Y-11765150D01*
X7242444Y-11765150D02*
X7261491Y-11774674D01*
X7261491Y-11774674D02*
X7271015Y-11793722D01*
X7271015Y-11793722D02*
X7271015Y-11898484D01*
X7661491Y-11688960D02*
X7490063Y-11946103D01*
X7918634Y-11698484D02*
X7937682Y-11698484D01*
X7937682Y-11698484D02*
X7956729Y-11708008D01*
X7956729Y-11708008D02*
X7966253Y-11717531D01*
X7966253Y-11717531D02*
X7975777Y-11736579D01*
X7975777Y-11736579D02*
X7985301Y-11774674D01*
X7985301Y-11774674D02*
X7985301Y-11822293D01*
X7985301Y-11822293D02*
X7975777Y-11860388D01*
X7975777Y-11860388D02*
X7966253Y-11879436D01*
X7966253Y-11879436D02*
X7956729Y-11888960D01*
X7956729Y-11888960D02*
X7937682Y-11898484D01*
X7937682Y-11898484D02*
X7918634Y-11898484D01*
X7918634Y-11898484D02*
X7899587Y-11888960D01*
X7899587Y-11888960D02*
X7890063Y-11879436D01*
X7890063Y-11879436D02*
X7880539Y-11860388D01*
X7880539Y-11860388D02*
X7871015Y-11822293D01*
X7871015Y-11822293D02*
X7871015Y-11774674D01*
X7871015Y-11774674D02*
X7880539Y-11736579D01*
X7880539Y-11736579D02*
X7890063Y-11717531D01*
X7890063Y-11717531D02*
X7899587Y-11708008D01*
X7899587Y-11708008D02*
X7918634Y-11698484D01*
X8071015Y-11879436D02*
X8080539Y-11888960D01*
X8080539Y-11888960D02*
X8071015Y-11898484D01*
X8071015Y-11898484D02*
X8061491Y-11888960D01*
X8061491Y-11888960D02*
X8071015Y-11879436D01*
X8071015Y-11879436D02*
X8071015Y-11898484D01*
X8204348Y-11698484D02*
X8223396Y-11698484D01*
X8223396Y-11698484D02*
X8242444Y-11708008D01*
X8242444Y-11708008D02*
X8251968Y-11717531D01*
X8251968Y-11717531D02*
X8261491Y-11736579D01*
X8261491Y-11736579D02*
X8271015Y-11774674D01*
X8271015Y-11774674D02*
X8271015Y-11822293D01*
X8271015Y-11822293D02*
X8261491Y-11860388D01*
X8261491Y-11860388D02*
X8251968Y-11879436D01*
X8251968Y-11879436D02*
X8242444Y-11888960D01*
X8242444Y-11888960D02*
X8223396Y-11898484D01*
X8223396Y-11898484D02*
X8204348Y-11898484D01*
X8204348Y-11898484D02*
X8185301Y-11888960D01*
X8185301Y-11888960D02*
X8175777Y-11879436D01*
X8175777Y-11879436D02*
X8166253Y-11860388D01*
X8166253Y-11860388D02*
X8156729Y-11822293D01*
X8156729Y-11822293D02*
X8156729Y-11774674D01*
X8156729Y-11774674D02*
X8166253Y-11736579D01*
X8166253Y-11736579D02*
X8175777Y-11717531D01*
X8175777Y-11717531D02*
X8185301Y-11708008D01*
X8185301Y-11708008D02*
X8204348Y-11698484D01*
X8337682Y-11698484D02*
X8461491Y-11698484D01*
X8461491Y-11698484D02*
X8394825Y-11774674D01*
X8394825Y-11774674D02*
X8423396Y-11774674D01*
X8423396Y-11774674D02*
X8442444Y-11784198D01*
X8442444Y-11784198D02*
X8451968Y-11793722D01*
X8451968Y-11793722D02*
X8461491Y-11812769D01*
X8461491Y-11812769D02*
X8461491Y-11860388D01*
X8461491Y-11860388D02*
X8451968Y-11879436D01*
X8451968Y-11879436D02*
X8442444Y-11888960D01*
X8442444Y-11888960D02*
X8423396Y-11898484D01*
X8423396Y-11898484D02*
X8366253Y-11898484D01*
X8366253Y-11898484D02*
X8347206Y-11888960D01*
X8347206Y-11888960D02*
X8337682Y-11879436D01*
X8556730Y-11898484D02*
X8594825Y-11898484D01*
X8594825Y-11898484D02*
X8613872Y-11888960D01*
X8613872Y-11888960D02*
X8623396Y-11879436D01*
X8623396Y-11879436D02*
X8642444Y-11850865D01*
X8642444Y-11850865D02*
X8651968Y-11812769D01*
X8651968Y-11812769D02*
X8651968Y-11736579D01*
X8651968Y-11736579D02*
X8642444Y-11717531D01*
X8642444Y-11717531D02*
X8632920Y-11708008D01*
X8632920Y-11708008D02*
X8613872Y-11698484D01*
X8613872Y-11698484D02*
X8575777Y-11698484D01*
X8575777Y-11698484D02*
X8556730Y-11708008D01*
X8556730Y-11708008D02*
X8547206Y-11717531D01*
X8547206Y-11717531D02*
X8537682Y-11736579D01*
X8537682Y-11736579D02*
X8537682Y-11784198D01*
X8537682Y-11784198D02*
X8547206Y-11803246D01*
X8547206Y-11803246D02*
X8556730Y-11812769D01*
X8556730Y-11812769D02*
X8575777Y-11822293D01*
X8575777Y-11822293D02*
X8613872Y-11822293D01*
X8613872Y-11822293D02*
X8632920Y-11812769D01*
X8632920Y-11812769D02*
X8642444Y-11803246D01*
X8642444Y-11803246D02*
X8651968Y-11784198D01*
X8823396Y-11765150D02*
X8823396Y-11898484D01*
X8775777Y-11688960D02*
X8728158Y-11831817D01*
X8728158Y-11831817D02*
X8851968Y-11831817D01*
X8918634Y-11698484D02*
X8918634Y-11736579D01*
X8994825Y-11698484D02*
X8994825Y-11736579D01*
X9290063Y-11974674D02*
X9280539Y-11965150D01*
X9280539Y-11965150D02*
X9261492Y-11936579D01*
X9261492Y-11936579D02*
X9251968Y-11917531D01*
X9251968Y-11917531D02*
X9242444Y-11888960D01*
X9242444Y-11888960D02*
X9232920Y-11841341D01*
X9232920Y-11841341D02*
X9232920Y-11803246D01*
X9232920Y-11803246D02*
X9242444Y-11755627D01*
X9242444Y-11755627D02*
X9251968Y-11727055D01*
X9251968Y-11727055D02*
X9261492Y-11708008D01*
X9261492Y-11708008D02*
X9280539Y-11679436D01*
X9280539Y-11679436D02*
X9290063Y-11669912D01*
X9394825Y-11784198D02*
X9375777Y-11774674D01*
X9375777Y-11774674D02*
X9366253Y-11765150D01*
X9366253Y-11765150D02*
X9356730Y-11746103D01*
X9356730Y-11746103D02*
X9356730Y-11736579D01*
X9356730Y-11736579D02*
X9366253Y-11717531D01*
X9366253Y-11717531D02*
X9375777Y-11708008D01*
X9375777Y-11708008D02*
X9394825Y-11698484D01*
X9394825Y-11698484D02*
X9432920Y-11698484D01*
X9432920Y-11698484D02*
X9451968Y-11708008D01*
X9451968Y-11708008D02*
X9461492Y-11717531D01*
X9461492Y-11717531D02*
X9471015Y-11736579D01*
X9471015Y-11736579D02*
X9471015Y-11746103D01*
X9471015Y-11746103D02*
X9461492Y-11765150D01*
X9461492Y-11765150D02*
X9451968Y-11774674D01*
X9451968Y-11774674D02*
X9432920Y-11784198D01*
X9432920Y-11784198D02*
X9394825Y-11784198D01*
X9394825Y-11784198D02*
X9375777Y-11793722D01*
X9375777Y-11793722D02*
X9366253Y-11803246D01*
X9366253Y-11803246D02*
X9356730Y-11822293D01*
X9356730Y-11822293D02*
X9356730Y-11860388D01*
X9356730Y-11860388D02*
X9366253Y-11879436D01*
X9366253Y-11879436D02*
X9375777Y-11888960D01*
X9375777Y-11888960D02*
X9394825Y-11898484D01*
X9394825Y-11898484D02*
X9432920Y-11898484D01*
X9432920Y-11898484D02*
X9451968Y-11888960D01*
X9451968Y-11888960D02*
X9461492Y-11879436D01*
X9461492Y-11879436D02*
X9471015Y-11860388D01*
X9471015Y-11860388D02*
X9471015Y-11822293D01*
X9471015Y-11822293D02*
X9461492Y-11803246D01*
X9461492Y-11803246D02*
X9451968Y-11793722D01*
X9451968Y-11793722D02*
X9432920Y-11784198D01*
X9537682Y-11698484D02*
X9661492Y-11698484D01*
X9661492Y-11698484D02*
X9594825Y-11774674D01*
X9594825Y-11774674D02*
X9623396Y-11774674D01*
X9623396Y-11774674D02*
X9642444Y-11784198D01*
X9642444Y-11784198D02*
X9651968Y-11793722D01*
X9651968Y-11793722D02*
X9661492Y-11812769D01*
X9661492Y-11812769D02*
X9661492Y-11860388D01*
X9661492Y-11860388D02*
X9651968Y-11879436D01*
X9651968Y-11879436D02*
X9642444Y-11888960D01*
X9642444Y-11888960D02*
X9623396Y-11898484D01*
X9623396Y-11898484D02*
X9566253Y-11898484D01*
X9566253Y-11898484D02*
X9547206Y-11888960D01*
X9547206Y-11888960D02*
X9537682Y-11879436D01*
X9899587Y-11898484D02*
X9899587Y-11698484D01*
X9985301Y-11898484D02*
X9985301Y-11793722D01*
X9985301Y-11793722D02*
X9975777Y-11774674D01*
X9975777Y-11774674D02*
X9956730Y-11765150D01*
X9956730Y-11765150D02*
X9928158Y-11765150D01*
X9928158Y-11765150D02*
X9909111Y-11774674D01*
X9909111Y-11774674D02*
X9899587Y-11784198D01*
X10109111Y-11898484D02*
X10090063Y-11888960D01*
X10090063Y-11888960D02*
X10080539Y-11879436D01*
X10080539Y-11879436D02*
X10071015Y-11860388D01*
X10071015Y-11860388D02*
X10071015Y-11803246D01*
X10071015Y-11803246D02*
X10080539Y-11784198D01*
X10080539Y-11784198D02*
X10090063Y-11774674D01*
X10090063Y-11774674D02*
X10109111Y-11765150D01*
X10109111Y-11765150D02*
X10137682Y-11765150D01*
X10137682Y-11765150D02*
X10156730Y-11774674D01*
X10156730Y-11774674D02*
X10166254Y-11784198D01*
X10166254Y-11784198D02*
X10175777Y-11803246D01*
X10175777Y-11803246D02*
X10175777Y-11860388D01*
X10175777Y-11860388D02*
X10166254Y-11879436D01*
X10166254Y-11879436D02*
X10156730Y-11888960D01*
X10156730Y-11888960D02*
X10137682Y-11898484D01*
X10137682Y-11898484D02*
X10109111Y-11898484D01*
X10290063Y-11898484D02*
X10271015Y-11888960D01*
X10271015Y-11888960D02*
X10261492Y-11869912D01*
X10261492Y-11869912D02*
X10261492Y-11698484D01*
X10442444Y-11888960D02*
X10423396Y-11898484D01*
X10423396Y-11898484D02*
X10385301Y-11898484D01*
X10385301Y-11898484D02*
X10366254Y-11888960D01*
X10366254Y-11888960D02*
X10356730Y-11869912D01*
X10356730Y-11869912D02*
X10356730Y-11793722D01*
X10356730Y-11793722D02*
X10366254Y-11774674D01*
X10366254Y-11774674D02*
X10385301Y-11765150D01*
X10385301Y-11765150D02*
X10423396Y-11765150D01*
X10423396Y-11765150D02*
X10442444Y-11774674D01*
X10442444Y-11774674D02*
X10451968Y-11793722D01*
X10451968Y-11793722D02*
X10451968Y-11812769D01*
X10451968Y-11812769D02*
X10356730Y-11831817D01*
X10528158Y-11888960D02*
X10547206Y-11898484D01*
X10547206Y-11898484D02*
X10585301Y-11898484D01*
X10585301Y-11898484D02*
X10604349Y-11888960D01*
X10604349Y-11888960D02*
X10613873Y-11869912D01*
X10613873Y-11869912D02*
X10613873Y-11860388D01*
X10613873Y-11860388D02*
X10604349Y-11841341D01*
X10604349Y-11841341D02*
X10585301Y-11831817D01*
X10585301Y-11831817D02*
X10556730Y-11831817D01*
X10556730Y-11831817D02*
X10537682Y-11822293D01*
X10537682Y-11822293D02*
X10528158Y-11803246D01*
X10528158Y-11803246D02*
X10528158Y-11793722D01*
X10528158Y-11793722D02*
X10537682Y-11774674D01*
X10537682Y-11774674D02*
X10556730Y-11765150D01*
X10556730Y-11765150D02*
X10585301Y-11765150D01*
X10585301Y-11765150D02*
X10604349Y-11774674D01*
X10680539Y-11974674D02*
X10690063Y-11965150D01*
X10690063Y-11965150D02*
X10709111Y-11936579D01*
X10709111Y-11936579D02*
X10718635Y-11917531D01*
X10718635Y-11917531D02*
X10728158Y-11888960D01*
X10728158Y-11888960D02*
X10737682Y-11841341D01*
X10737682Y-11841341D02*
X10737682Y-11803246D01*
X10737682Y-11803246D02*
X10728158Y-11755627D01*
X10728158Y-11755627D02*
X10718635Y-11727055D01*
X10718635Y-11727055D02*
X10709111Y-11708008D01*
X10709111Y-11708008D02*
X10690063Y-11679436D01*
X10690063Y-11679436D02*
X10680539Y-11669912D01*
D12*
X5655000Y-12131000D02*
X5715000Y-12071000D01*
X5655000Y-12011000D01*
X5595000Y-12071000D01*
X5655000Y-12131000D01*
D11*
X6080539Y-12162484D02*
X5966253Y-12162484D01*
X6023396Y-12162484D02*
X6023396Y-11962484D01*
X6023396Y-11962484D02*
X6004348Y-11991055D01*
X6004348Y-11991055D02*
X5985301Y-12010103D01*
X5985301Y-12010103D02*
X5966253Y-12019627D01*
X6166253Y-12143436D02*
X6175777Y-12152960D01*
X6175777Y-12152960D02*
X6166253Y-12162484D01*
X6166253Y-12162484D02*
X6156729Y-12152960D01*
X6156729Y-12152960D02*
X6166253Y-12143436D01*
X6166253Y-12143436D02*
X6166253Y-12162484D01*
X6251967Y-11981531D02*
X6261491Y-11972008D01*
X6261491Y-11972008D02*
X6280539Y-11962484D01*
X6280539Y-11962484D02*
X6328158Y-11962484D01*
X6328158Y-11962484D02*
X6347205Y-11972008D01*
X6347205Y-11972008D02*
X6356729Y-11981531D01*
X6356729Y-11981531D02*
X6366253Y-12000579D01*
X6366253Y-12000579D02*
X6366253Y-12019627D01*
X6366253Y-12019627D02*
X6356729Y-12048198D01*
X6356729Y-12048198D02*
X6242444Y-12162484D01*
X6242444Y-12162484D02*
X6366253Y-12162484D01*
X6490063Y-11962484D02*
X6509110Y-11962484D01*
X6509110Y-11962484D02*
X6528158Y-11972008D01*
X6528158Y-11972008D02*
X6537682Y-11981531D01*
X6537682Y-11981531D02*
X6547205Y-12000579D01*
X6547205Y-12000579D02*
X6556729Y-12038674D01*
X6556729Y-12038674D02*
X6556729Y-12086293D01*
X6556729Y-12086293D02*
X6547205Y-12124388D01*
X6547205Y-12124388D02*
X6537682Y-12143436D01*
X6537682Y-12143436D02*
X6528158Y-12152960D01*
X6528158Y-12152960D02*
X6509110Y-12162484D01*
X6509110Y-12162484D02*
X6490063Y-12162484D01*
X6490063Y-12162484D02*
X6471015Y-12152960D01*
X6471015Y-12152960D02*
X6461491Y-12143436D01*
X6461491Y-12143436D02*
X6451967Y-12124388D01*
X6451967Y-12124388D02*
X6442444Y-12086293D01*
X6442444Y-12086293D02*
X6442444Y-12038674D01*
X6442444Y-12038674D02*
X6451967Y-12000579D01*
X6451967Y-12000579D02*
X6461491Y-11981531D01*
X6461491Y-11981531D02*
X6471015Y-11972008D01*
X6471015Y-11972008D02*
X6490063Y-11962484D01*
X6680539Y-11962484D02*
X6699586Y-11962484D01*
X6699586Y-11962484D02*
X6718634Y-11972008D01*
X6718634Y-11972008D02*
X6728158Y-11981531D01*
X6728158Y-11981531D02*
X6737682Y-12000579D01*
X6737682Y-12000579D02*
X6747205Y-12038674D01*
X6747205Y-12038674D02*
X6747205Y-12086293D01*
X6747205Y-12086293D02*
X6737682Y-12124388D01*
X6737682Y-12124388D02*
X6728158Y-12143436D01*
X6728158Y-12143436D02*
X6718634Y-12152960D01*
X6718634Y-12152960D02*
X6699586Y-12162484D01*
X6699586Y-12162484D02*
X6680539Y-12162484D01*
X6680539Y-12162484D02*
X6661491Y-12152960D01*
X6661491Y-12152960D02*
X6651967Y-12143436D01*
X6651967Y-12143436D02*
X6642444Y-12124388D01*
X6642444Y-12124388D02*
X6632920Y-12086293D01*
X6632920Y-12086293D02*
X6632920Y-12038674D01*
X6632920Y-12038674D02*
X6642444Y-12000579D01*
X6642444Y-12000579D02*
X6651967Y-11981531D01*
X6651967Y-11981531D02*
X6661491Y-11972008D01*
X6661491Y-11972008D02*
X6680539Y-11962484D01*
X6832920Y-12162484D02*
X6832920Y-12029150D01*
X6832920Y-12048198D02*
X6842444Y-12038674D01*
X6842444Y-12038674D02*
X6861491Y-12029150D01*
X6861491Y-12029150D02*
X6890063Y-12029150D01*
X6890063Y-12029150D02*
X6909110Y-12038674D01*
X6909110Y-12038674D02*
X6918634Y-12057722D01*
X6918634Y-12057722D02*
X6918634Y-12162484D01*
X6918634Y-12057722D02*
X6928158Y-12038674D01*
X6928158Y-12038674D02*
X6947205Y-12029150D01*
X6947205Y-12029150D02*
X6975777Y-12029150D01*
X6975777Y-12029150D02*
X6994825Y-12038674D01*
X6994825Y-12038674D02*
X7004348Y-12057722D01*
X7004348Y-12057722D02*
X7004348Y-12162484D01*
X7099586Y-12162484D02*
X7099586Y-12029150D01*
X7099586Y-12048198D02*
X7109110Y-12038674D01*
X7109110Y-12038674D02*
X7128158Y-12029150D01*
X7128158Y-12029150D02*
X7156729Y-12029150D01*
X7156729Y-12029150D02*
X7175777Y-12038674D01*
X7175777Y-12038674D02*
X7185301Y-12057722D01*
X7185301Y-12057722D02*
X7185301Y-12162484D01*
X7185301Y-12057722D02*
X7194825Y-12038674D01*
X7194825Y-12038674D02*
X7213872Y-12029150D01*
X7213872Y-12029150D02*
X7242444Y-12029150D01*
X7242444Y-12029150D02*
X7261491Y-12038674D01*
X7261491Y-12038674D02*
X7271015Y-12057722D01*
X7271015Y-12057722D02*
X7271015Y-12162484D01*
X7661491Y-11952960D02*
X7490063Y-12210103D01*
X7918634Y-11962484D02*
X7937682Y-11962484D01*
X7937682Y-11962484D02*
X7956729Y-11972008D01*
X7956729Y-11972008D02*
X7966253Y-11981531D01*
X7966253Y-11981531D02*
X7975777Y-12000579D01*
X7975777Y-12000579D02*
X7985301Y-12038674D01*
X7985301Y-12038674D02*
X7985301Y-12086293D01*
X7985301Y-12086293D02*
X7975777Y-12124388D01*
X7975777Y-12124388D02*
X7966253Y-12143436D01*
X7966253Y-12143436D02*
X7956729Y-12152960D01*
X7956729Y-12152960D02*
X7937682Y-12162484D01*
X7937682Y-12162484D02*
X7918634Y-12162484D01*
X7918634Y-12162484D02*
X7899587Y-12152960D01*
X7899587Y-12152960D02*
X7890063Y-12143436D01*
X7890063Y-12143436D02*
X7880539Y-12124388D01*
X7880539Y-12124388D02*
X7871015Y-12086293D01*
X7871015Y-12086293D02*
X7871015Y-12038674D01*
X7871015Y-12038674D02*
X7880539Y-12000579D01*
X7880539Y-12000579D02*
X7890063Y-11981531D01*
X7890063Y-11981531D02*
X7899587Y-11972008D01*
X7899587Y-11972008D02*
X7918634Y-11962484D01*
X8071015Y-12143436D02*
X8080539Y-12152960D01*
X8080539Y-12152960D02*
X8071015Y-12162484D01*
X8071015Y-12162484D02*
X8061491Y-12152960D01*
X8061491Y-12152960D02*
X8071015Y-12143436D01*
X8071015Y-12143436D02*
X8071015Y-12162484D01*
X8204348Y-11962484D02*
X8223396Y-11962484D01*
X8223396Y-11962484D02*
X8242444Y-11972008D01*
X8242444Y-11972008D02*
X8251968Y-11981531D01*
X8251968Y-11981531D02*
X8261491Y-12000579D01*
X8261491Y-12000579D02*
X8271015Y-12038674D01*
X8271015Y-12038674D02*
X8271015Y-12086293D01*
X8271015Y-12086293D02*
X8261491Y-12124388D01*
X8261491Y-12124388D02*
X8251968Y-12143436D01*
X8251968Y-12143436D02*
X8242444Y-12152960D01*
X8242444Y-12152960D02*
X8223396Y-12162484D01*
X8223396Y-12162484D02*
X8204348Y-12162484D01*
X8204348Y-12162484D02*
X8185301Y-12152960D01*
X8185301Y-12152960D02*
X8175777Y-12143436D01*
X8175777Y-12143436D02*
X8166253Y-12124388D01*
X8166253Y-12124388D02*
X8156729Y-12086293D01*
X8156729Y-12086293D02*
X8156729Y-12038674D01*
X8156729Y-12038674D02*
X8166253Y-12000579D01*
X8166253Y-12000579D02*
X8175777Y-11981531D01*
X8175777Y-11981531D02*
X8185301Y-11972008D01*
X8185301Y-11972008D02*
X8204348Y-11962484D01*
X8442444Y-12029150D02*
X8442444Y-12162484D01*
X8394825Y-11952960D02*
X8347206Y-12095817D01*
X8347206Y-12095817D02*
X8471015Y-12095817D01*
X8528158Y-11962484D02*
X8661491Y-11962484D01*
X8661491Y-11962484D02*
X8575777Y-12162484D01*
X8728158Y-11981531D02*
X8737682Y-11972008D01*
X8737682Y-11972008D02*
X8756730Y-11962484D01*
X8756730Y-11962484D02*
X8804349Y-11962484D01*
X8804349Y-11962484D02*
X8823396Y-11972008D01*
X8823396Y-11972008D02*
X8832920Y-11981531D01*
X8832920Y-11981531D02*
X8842444Y-12000579D01*
X8842444Y-12000579D02*
X8842444Y-12019627D01*
X8842444Y-12019627D02*
X8832920Y-12048198D01*
X8832920Y-12048198D02*
X8718634Y-12162484D01*
X8718634Y-12162484D02*
X8842444Y-12162484D01*
X8918634Y-11962484D02*
X8918634Y-12000579D01*
X8994825Y-11962484D02*
X8994825Y-12000579D01*
X9290063Y-12238674D02*
X9280539Y-12229150D01*
X9280539Y-12229150D02*
X9261492Y-12200579D01*
X9261492Y-12200579D02*
X9251968Y-12181531D01*
X9251968Y-12181531D02*
X9242444Y-12152960D01*
X9242444Y-12152960D02*
X9232920Y-12105341D01*
X9232920Y-12105341D02*
X9232920Y-12067246D01*
X9232920Y-12067246D02*
X9242444Y-12019627D01*
X9242444Y-12019627D02*
X9251968Y-11991055D01*
X9251968Y-11991055D02*
X9261492Y-11972008D01*
X9261492Y-11972008D02*
X9280539Y-11943436D01*
X9280539Y-11943436D02*
X9290063Y-11933912D01*
X9451968Y-11962484D02*
X9413872Y-11962484D01*
X9413872Y-11962484D02*
X9394825Y-11972008D01*
X9394825Y-11972008D02*
X9385301Y-11981531D01*
X9385301Y-11981531D02*
X9366253Y-12010103D01*
X9366253Y-12010103D02*
X9356730Y-12048198D01*
X9356730Y-12048198D02*
X9356730Y-12124388D01*
X9356730Y-12124388D02*
X9366253Y-12143436D01*
X9366253Y-12143436D02*
X9375777Y-12152960D01*
X9375777Y-12152960D02*
X9394825Y-12162484D01*
X9394825Y-12162484D02*
X9432920Y-12162484D01*
X9432920Y-12162484D02*
X9451968Y-12152960D01*
X9451968Y-12152960D02*
X9461492Y-12143436D01*
X9461492Y-12143436D02*
X9471015Y-12124388D01*
X9471015Y-12124388D02*
X9471015Y-12076769D01*
X9471015Y-12076769D02*
X9461492Y-12057722D01*
X9461492Y-12057722D02*
X9451968Y-12048198D01*
X9451968Y-12048198D02*
X9432920Y-12038674D01*
X9432920Y-12038674D02*
X9394825Y-12038674D01*
X9394825Y-12038674D02*
X9375777Y-12048198D01*
X9375777Y-12048198D02*
X9366253Y-12057722D01*
X9366253Y-12057722D02*
X9356730Y-12076769D01*
X9709111Y-12162484D02*
X9709111Y-11962484D01*
X9794825Y-12162484D02*
X9794825Y-12057722D01*
X9794825Y-12057722D02*
X9785301Y-12038674D01*
X9785301Y-12038674D02*
X9766254Y-12029150D01*
X9766254Y-12029150D02*
X9737682Y-12029150D01*
X9737682Y-12029150D02*
X9718634Y-12038674D01*
X9718634Y-12038674D02*
X9709111Y-12048198D01*
X9918634Y-12162484D02*
X9899587Y-12152960D01*
X9899587Y-12152960D02*
X9890063Y-12143436D01*
X9890063Y-12143436D02*
X9880539Y-12124388D01*
X9880539Y-12124388D02*
X9880539Y-12067246D01*
X9880539Y-12067246D02*
X9890063Y-12048198D01*
X9890063Y-12048198D02*
X9899587Y-12038674D01*
X9899587Y-12038674D02*
X9918634Y-12029150D01*
X9918634Y-12029150D02*
X9947206Y-12029150D01*
X9947206Y-12029150D02*
X9966254Y-12038674D01*
X9966254Y-12038674D02*
X9975777Y-12048198D01*
X9975777Y-12048198D02*
X9985301Y-12067246D01*
X9985301Y-12067246D02*
X9985301Y-12124388D01*
X9985301Y-12124388D02*
X9975777Y-12143436D01*
X9975777Y-12143436D02*
X9966254Y-12152960D01*
X9966254Y-12152960D02*
X9947206Y-12162484D01*
X9947206Y-12162484D02*
X9918634Y-12162484D01*
X10099587Y-12162484D02*
X10080539Y-12152960D01*
X10080539Y-12152960D02*
X10071015Y-12133912D01*
X10071015Y-12133912D02*
X10071015Y-11962484D01*
X10251968Y-12152960D02*
X10232920Y-12162484D01*
X10232920Y-12162484D02*
X10194825Y-12162484D01*
X10194825Y-12162484D02*
X10175777Y-12152960D01*
X10175777Y-12152960D02*
X10166254Y-12133912D01*
X10166254Y-12133912D02*
X10166254Y-12057722D01*
X10166254Y-12057722D02*
X10175777Y-12038674D01*
X10175777Y-12038674D02*
X10194825Y-12029150D01*
X10194825Y-12029150D02*
X10232920Y-12029150D01*
X10232920Y-12029150D02*
X10251968Y-12038674D01*
X10251968Y-12038674D02*
X10261492Y-12057722D01*
X10261492Y-12057722D02*
X10261492Y-12076769D01*
X10261492Y-12076769D02*
X10166254Y-12095817D01*
X10337682Y-12152960D02*
X10356730Y-12162484D01*
X10356730Y-12162484D02*
X10394825Y-12162484D01*
X10394825Y-12162484D02*
X10413873Y-12152960D01*
X10413873Y-12152960D02*
X10423396Y-12133912D01*
X10423396Y-12133912D02*
X10423396Y-12124388D01*
X10423396Y-12124388D02*
X10413873Y-12105341D01*
X10413873Y-12105341D02*
X10394825Y-12095817D01*
X10394825Y-12095817D02*
X10366254Y-12095817D01*
X10366254Y-12095817D02*
X10347206Y-12086293D01*
X10347206Y-12086293D02*
X10337682Y-12067246D01*
X10337682Y-12067246D02*
X10337682Y-12057722D01*
X10337682Y-12057722D02*
X10347206Y-12038674D01*
X10347206Y-12038674D02*
X10366254Y-12029150D01*
X10366254Y-12029150D02*
X10394825Y-12029150D01*
X10394825Y-12029150D02*
X10413873Y-12038674D01*
X10490063Y-12238674D02*
X10499587Y-12229150D01*
X10499587Y-12229150D02*
X10518635Y-12200579D01*
X10518635Y-12200579D02*
X10528158Y-12181531D01*
X10528158Y-12181531D02*
X10537682Y-12152960D01*
X10537682Y-12152960D02*
X10547206Y-12105341D01*
X10547206Y-12105341D02*
X10547206Y-12067246D01*
X10547206Y-12067246D02*
X10537682Y-12019627D01*
X10537682Y-12019627D02*
X10528158Y-11991055D01*
X10528158Y-11991055D02*
X10518635Y-11972008D01*
X10518635Y-11972008D02*
X10499587Y-11943436D01*
X10499587Y-11943436D02*
X10490063Y-11933912D01*
D13*
X5585000Y-12270000D02*
X5715000Y-12400000D01*
X5715000Y-12270000D02*
X5585000Y-12400000D01*
X5715000Y-12335000D02*
G75*
G02*
X5585000Y-12335000I-65000J0D01*
G01*
X5585000Y-12335000D02*
G75*
G02*
X5715000Y-12335000I65000J0D01*
G01*
D11*
X6080539Y-12426484D02*
X5966253Y-12426484D01*
X6023396Y-12426484D02*
X6023396Y-12226484D01*
X6023396Y-12226484D02*
X6004348Y-12255055D01*
X6004348Y-12255055D02*
X5985301Y-12274103D01*
X5985301Y-12274103D02*
X5966253Y-12283627D01*
X6166253Y-12407436D02*
X6175777Y-12416960D01*
X6175777Y-12416960D02*
X6166253Y-12426484D01*
X6166253Y-12426484D02*
X6156729Y-12416960D01*
X6156729Y-12416960D02*
X6166253Y-12407436D01*
X6166253Y-12407436D02*
X6166253Y-12426484D01*
X6242444Y-12226484D02*
X6366253Y-12226484D01*
X6366253Y-12226484D02*
X6299586Y-12302674D01*
X6299586Y-12302674D02*
X6328158Y-12302674D01*
X6328158Y-12302674D02*
X6347205Y-12312198D01*
X6347205Y-12312198D02*
X6356729Y-12321722D01*
X6356729Y-12321722D02*
X6366253Y-12340769D01*
X6366253Y-12340769D02*
X6366253Y-12388388D01*
X6366253Y-12388388D02*
X6356729Y-12407436D01*
X6356729Y-12407436D02*
X6347205Y-12416960D01*
X6347205Y-12416960D02*
X6328158Y-12426484D01*
X6328158Y-12426484D02*
X6271015Y-12426484D01*
X6271015Y-12426484D02*
X6251967Y-12416960D01*
X6251967Y-12416960D02*
X6242444Y-12407436D01*
X6490063Y-12226484D02*
X6509110Y-12226484D01*
X6509110Y-12226484D02*
X6528158Y-12236008D01*
X6528158Y-12236008D02*
X6537682Y-12245531D01*
X6537682Y-12245531D02*
X6547205Y-12264579D01*
X6547205Y-12264579D02*
X6556729Y-12302674D01*
X6556729Y-12302674D02*
X6556729Y-12350293D01*
X6556729Y-12350293D02*
X6547205Y-12388388D01*
X6547205Y-12388388D02*
X6537682Y-12407436D01*
X6537682Y-12407436D02*
X6528158Y-12416960D01*
X6528158Y-12416960D02*
X6509110Y-12426484D01*
X6509110Y-12426484D02*
X6490063Y-12426484D01*
X6490063Y-12426484D02*
X6471015Y-12416960D01*
X6471015Y-12416960D02*
X6461491Y-12407436D01*
X6461491Y-12407436D02*
X6451967Y-12388388D01*
X6451967Y-12388388D02*
X6442444Y-12350293D01*
X6442444Y-12350293D02*
X6442444Y-12302674D01*
X6442444Y-12302674D02*
X6451967Y-12264579D01*
X6451967Y-12264579D02*
X6461491Y-12245531D01*
X6461491Y-12245531D02*
X6471015Y-12236008D01*
X6471015Y-12236008D02*
X6490063Y-12226484D01*
X6680539Y-12226484D02*
X6699586Y-12226484D01*
X6699586Y-12226484D02*
X6718634Y-12236008D01*
X6718634Y-12236008D02*
X6728158Y-12245531D01*
X6728158Y-12245531D02*
X6737682Y-12264579D01*
X6737682Y-12264579D02*
X6747205Y-12302674D01*
X6747205Y-12302674D02*
X6747205Y-12350293D01*
X6747205Y-12350293D02*
X6737682Y-12388388D01*
X6737682Y-12388388D02*
X6728158Y-12407436D01*
X6728158Y-12407436D02*
X6718634Y-12416960D01*
X6718634Y-12416960D02*
X6699586Y-12426484D01*
X6699586Y-12426484D02*
X6680539Y-12426484D01*
X6680539Y-12426484D02*
X6661491Y-12416960D01*
X6661491Y-12416960D02*
X6651967Y-12407436D01*
X6651967Y-12407436D02*
X6642444Y-12388388D01*
X6642444Y-12388388D02*
X6632920Y-12350293D01*
X6632920Y-12350293D02*
X6632920Y-12302674D01*
X6632920Y-12302674D02*
X6642444Y-12264579D01*
X6642444Y-12264579D02*
X6651967Y-12245531D01*
X6651967Y-12245531D02*
X6661491Y-12236008D01*
X6661491Y-12236008D02*
X6680539Y-12226484D01*
X6832920Y-12426484D02*
X6832920Y-12293150D01*
X6832920Y-12312198D02*
X6842444Y-12302674D01*
X6842444Y-12302674D02*
X6861491Y-12293150D01*
X6861491Y-12293150D02*
X6890063Y-12293150D01*
X6890063Y-12293150D02*
X6909110Y-12302674D01*
X6909110Y-12302674D02*
X6918634Y-12321722D01*
X6918634Y-12321722D02*
X6918634Y-12426484D01*
X6918634Y-12321722D02*
X6928158Y-12302674D01*
X6928158Y-12302674D02*
X6947205Y-12293150D01*
X6947205Y-12293150D02*
X6975777Y-12293150D01*
X6975777Y-12293150D02*
X6994825Y-12302674D01*
X6994825Y-12302674D02*
X7004348Y-12321722D01*
X7004348Y-12321722D02*
X7004348Y-12426484D01*
X7099586Y-12426484D02*
X7099586Y-12293150D01*
X7099586Y-12312198D02*
X7109110Y-12302674D01*
X7109110Y-12302674D02*
X7128158Y-12293150D01*
X7128158Y-12293150D02*
X7156729Y-12293150D01*
X7156729Y-12293150D02*
X7175777Y-12302674D01*
X7175777Y-12302674D02*
X7185301Y-12321722D01*
X7185301Y-12321722D02*
X7185301Y-12426484D01*
X7185301Y-12321722D02*
X7194825Y-12302674D01*
X7194825Y-12302674D02*
X7213872Y-12293150D01*
X7213872Y-12293150D02*
X7242444Y-12293150D01*
X7242444Y-12293150D02*
X7261491Y-12302674D01*
X7261491Y-12302674D02*
X7271015Y-12321722D01*
X7271015Y-12321722D02*
X7271015Y-12426484D01*
X7661491Y-12216960D02*
X7490063Y-12474103D01*
X7918634Y-12226484D02*
X7937682Y-12226484D01*
X7937682Y-12226484D02*
X7956729Y-12236008D01*
X7956729Y-12236008D02*
X7966253Y-12245531D01*
X7966253Y-12245531D02*
X7975777Y-12264579D01*
X7975777Y-12264579D02*
X7985301Y-12302674D01*
X7985301Y-12302674D02*
X7985301Y-12350293D01*
X7985301Y-12350293D02*
X7975777Y-12388388D01*
X7975777Y-12388388D02*
X7966253Y-12407436D01*
X7966253Y-12407436D02*
X7956729Y-12416960D01*
X7956729Y-12416960D02*
X7937682Y-12426484D01*
X7937682Y-12426484D02*
X7918634Y-12426484D01*
X7918634Y-12426484D02*
X7899587Y-12416960D01*
X7899587Y-12416960D02*
X7890063Y-12407436D01*
X7890063Y-12407436D02*
X7880539Y-12388388D01*
X7880539Y-12388388D02*
X7871015Y-12350293D01*
X7871015Y-12350293D02*
X7871015Y-12302674D01*
X7871015Y-12302674D02*
X7880539Y-12264579D01*
X7880539Y-12264579D02*
X7890063Y-12245531D01*
X7890063Y-12245531D02*
X7899587Y-12236008D01*
X7899587Y-12236008D02*
X7918634Y-12226484D01*
X8071015Y-12407436D02*
X8080539Y-12416960D01*
X8080539Y-12416960D02*
X8071015Y-12426484D01*
X8071015Y-12426484D02*
X8061491Y-12416960D01*
X8061491Y-12416960D02*
X8071015Y-12407436D01*
X8071015Y-12407436D02*
X8071015Y-12426484D01*
X8204348Y-12226484D02*
X8223396Y-12226484D01*
X8223396Y-12226484D02*
X8242444Y-12236008D01*
X8242444Y-12236008D02*
X8251968Y-12245531D01*
X8251968Y-12245531D02*
X8261491Y-12264579D01*
X8261491Y-12264579D02*
X8271015Y-12302674D01*
X8271015Y-12302674D02*
X8271015Y-12350293D01*
X8271015Y-12350293D02*
X8261491Y-12388388D01*
X8261491Y-12388388D02*
X8251968Y-12407436D01*
X8251968Y-12407436D02*
X8242444Y-12416960D01*
X8242444Y-12416960D02*
X8223396Y-12426484D01*
X8223396Y-12426484D02*
X8204348Y-12426484D01*
X8204348Y-12426484D02*
X8185301Y-12416960D01*
X8185301Y-12416960D02*
X8175777Y-12407436D01*
X8175777Y-12407436D02*
X8166253Y-12388388D01*
X8166253Y-12388388D02*
X8156729Y-12350293D01*
X8156729Y-12350293D02*
X8156729Y-12302674D01*
X8156729Y-12302674D02*
X8166253Y-12264579D01*
X8166253Y-12264579D02*
X8175777Y-12245531D01*
X8175777Y-12245531D02*
X8185301Y-12236008D01*
X8185301Y-12236008D02*
X8204348Y-12226484D01*
X8451968Y-12226484D02*
X8356729Y-12226484D01*
X8356729Y-12226484D02*
X8347206Y-12321722D01*
X8347206Y-12321722D02*
X8356729Y-12312198D01*
X8356729Y-12312198D02*
X8375777Y-12302674D01*
X8375777Y-12302674D02*
X8423396Y-12302674D01*
X8423396Y-12302674D02*
X8442444Y-12312198D01*
X8442444Y-12312198D02*
X8451968Y-12321722D01*
X8451968Y-12321722D02*
X8461491Y-12340769D01*
X8461491Y-12340769D02*
X8461491Y-12388388D01*
X8461491Y-12388388D02*
X8451968Y-12407436D01*
X8451968Y-12407436D02*
X8442444Y-12416960D01*
X8442444Y-12416960D02*
X8423396Y-12426484D01*
X8423396Y-12426484D02*
X8375777Y-12426484D01*
X8375777Y-12426484D02*
X8356729Y-12416960D01*
X8356729Y-12416960D02*
X8347206Y-12407436D01*
X8651968Y-12426484D02*
X8537682Y-12426484D01*
X8594825Y-12426484D02*
X8594825Y-12226484D01*
X8594825Y-12226484D02*
X8575777Y-12255055D01*
X8575777Y-12255055D02*
X8556730Y-12274103D01*
X8556730Y-12274103D02*
X8537682Y-12283627D01*
X8728158Y-12245531D02*
X8737682Y-12236008D01*
X8737682Y-12236008D02*
X8756730Y-12226484D01*
X8756730Y-12226484D02*
X8804349Y-12226484D01*
X8804349Y-12226484D02*
X8823396Y-12236008D01*
X8823396Y-12236008D02*
X8832920Y-12245531D01*
X8832920Y-12245531D02*
X8842444Y-12264579D01*
X8842444Y-12264579D02*
X8842444Y-12283627D01*
X8842444Y-12283627D02*
X8832920Y-12312198D01*
X8832920Y-12312198D02*
X8718634Y-12426484D01*
X8718634Y-12426484D02*
X8842444Y-12426484D01*
X8918634Y-12226484D02*
X8918634Y-12264579D01*
X8994825Y-12226484D02*
X8994825Y-12264579D01*
X9290063Y-12502674D02*
X9280539Y-12493150D01*
X9280539Y-12493150D02*
X9261492Y-12464579D01*
X9261492Y-12464579D02*
X9251968Y-12445531D01*
X9251968Y-12445531D02*
X9242444Y-12416960D01*
X9242444Y-12416960D02*
X9232920Y-12369341D01*
X9232920Y-12369341D02*
X9232920Y-12331246D01*
X9232920Y-12331246D02*
X9242444Y-12283627D01*
X9242444Y-12283627D02*
X9251968Y-12255055D01*
X9251968Y-12255055D02*
X9261492Y-12236008D01*
X9261492Y-12236008D02*
X9280539Y-12207436D01*
X9280539Y-12207436D02*
X9290063Y-12197912D01*
X9347206Y-12226484D02*
X9480539Y-12226484D01*
X9480539Y-12226484D02*
X9394825Y-12426484D01*
X9709111Y-12426484D02*
X9709111Y-12226484D01*
X9794825Y-12426484D02*
X9794825Y-12321722D01*
X9794825Y-12321722D02*
X9785301Y-12302674D01*
X9785301Y-12302674D02*
X9766254Y-12293150D01*
X9766254Y-12293150D02*
X9737682Y-12293150D01*
X9737682Y-12293150D02*
X9718634Y-12302674D01*
X9718634Y-12302674D02*
X9709111Y-12312198D01*
X9918634Y-12426484D02*
X9899587Y-12416960D01*
X9899587Y-12416960D02*
X9890063Y-12407436D01*
X9890063Y-12407436D02*
X9880539Y-12388388D01*
X9880539Y-12388388D02*
X9880539Y-12331246D01*
X9880539Y-12331246D02*
X9890063Y-12312198D01*
X9890063Y-12312198D02*
X9899587Y-12302674D01*
X9899587Y-12302674D02*
X9918634Y-12293150D01*
X9918634Y-12293150D02*
X9947206Y-12293150D01*
X9947206Y-12293150D02*
X9966254Y-12302674D01*
X9966254Y-12302674D02*
X9975777Y-12312198D01*
X9975777Y-12312198D02*
X9985301Y-12331246D01*
X9985301Y-12331246D02*
X9985301Y-12388388D01*
X9985301Y-12388388D02*
X9975777Y-12407436D01*
X9975777Y-12407436D02*
X9966254Y-12416960D01*
X9966254Y-12416960D02*
X9947206Y-12426484D01*
X9947206Y-12426484D02*
X9918634Y-12426484D01*
X10099587Y-12426484D02*
X10080539Y-12416960D01*
X10080539Y-12416960D02*
X10071015Y-12397912D01*
X10071015Y-12397912D02*
X10071015Y-12226484D01*
X10251968Y-12416960D02*
X10232920Y-12426484D01*
X10232920Y-12426484D02*
X10194825Y-12426484D01*
X10194825Y-12426484D02*
X10175777Y-12416960D01*
X10175777Y-12416960D02*
X10166254Y-12397912D01*
X10166254Y-12397912D02*
X10166254Y-12321722D01*
X10166254Y-12321722D02*
X10175777Y-12302674D01*
X10175777Y-12302674D02*
X10194825Y-12293150D01*
X10194825Y-12293150D02*
X10232920Y-12293150D01*
X10232920Y-12293150D02*
X10251968Y-12302674D01*
X10251968Y-12302674D02*
X10261492Y-12321722D01*
X10261492Y-12321722D02*
X10261492Y-12340769D01*
X10261492Y-12340769D02*
X10166254Y-12359817D01*
X10337682Y-12416960D02*
X10356730Y-12426484D01*
X10356730Y-12426484D02*
X10394825Y-12426484D01*
X10394825Y-12426484D02*
X10413873Y-12416960D01*
X10413873Y-12416960D02*
X10423396Y-12397912D01*
X10423396Y-12397912D02*
X10423396Y-12388388D01*
X10423396Y-12388388D02*
X10413873Y-12369341D01*
X10413873Y-12369341D02*
X10394825Y-12359817D01*
X10394825Y-12359817D02*
X10366254Y-12359817D01*
X10366254Y-12359817D02*
X10347206Y-12350293D01*
X10347206Y-12350293D02*
X10337682Y-12331246D01*
X10337682Y-12331246D02*
X10337682Y-12321722D01*
X10337682Y-12321722D02*
X10347206Y-12302674D01*
X10347206Y-12302674D02*
X10366254Y-12293150D01*
X10366254Y-12293150D02*
X10394825Y-12293150D01*
X10394825Y-12293150D02*
X10413873Y-12302674D01*
X10490063Y-12502674D02*
X10499587Y-12493150D01*
X10499587Y-12493150D02*
X10518635Y-12464579D01*
X10518635Y-12464579D02*
X10528158Y-12445531D01*
X10528158Y-12445531D02*
X10537682Y-12416960D01*
X10537682Y-12416960D02*
X10547206Y-12369341D01*
X10547206Y-12369341D02*
X10547206Y-12331246D01*
X10547206Y-12331246D02*
X10537682Y-12283627D01*
X10537682Y-12283627D02*
X10528158Y-12255055D01*
X10528158Y-12255055D02*
X10518635Y-12236008D01*
X10518635Y-12236008D02*
X10499587Y-12207436D01*
X10499587Y-12207436D02*
X10490063Y-12197912D01*
X5515000Y-12499000D02*
X5715000Y-12699000D01*
X5715000Y-12499000D02*
X5515000Y-12699000D01*
X5615000Y-12499000D02*
X5615000Y-12699000D01*
X5515000Y-12599000D02*
X5715000Y-12599000D01*
X5956729Y-12490484D02*
X6080539Y-12490484D01*
X6080539Y-12490484D02*
X6013872Y-12566674D01*
X6013872Y-12566674D02*
X6042444Y-12566674D01*
X6042444Y-12566674D02*
X6061491Y-12576198D01*
X6061491Y-12576198D02*
X6071015Y-12585722D01*
X6071015Y-12585722D02*
X6080539Y-12604769D01*
X6080539Y-12604769D02*
X6080539Y-12652388D01*
X6080539Y-12652388D02*
X6071015Y-12671436D01*
X6071015Y-12671436D02*
X6061491Y-12680960D01*
X6061491Y-12680960D02*
X6042444Y-12690484D01*
X6042444Y-12690484D02*
X5985301Y-12690484D01*
X5985301Y-12690484D02*
X5966253Y-12680960D01*
X5966253Y-12680960D02*
X5956729Y-12671436D01*
X6166253Y-12671436D02*
X6175777Y-12680960D01*
X6175777Y-12680960D02*
X6166253Y-12690484D01*
X6166253Y-12690484D02*
X6156729Y-12680960D01*
X6156729Y-12680960D02*
X6166253Y-12671436D01*
X6166253Y-12671436D02*
X6166253Y-12690484D01*
X6251967Y-12509531D02*
X6261491Y-12500008D01*
X6261491Y-12500008D02*
X6280539Y-12490484D01*
X6280539Y-12490484D02*
X6328158Y-12490484D01*
X6328158Y-12490484D02*
X6347205Y-12500008D01*
X6347205Y-12500008D02*
X6356729Y-12509531D01*
X6356729Y-12509531D02*
X6366253Y-12528579D01*
X6366253Y-12528579D02*
X6366253Y-12547627D01*
X6366253Y-12547627D02*
X6356729Y-12576198D01*
X6356729Y-12576198D02*
X6242444Y-12690484D01*
X6242444Y-12690484D02*
X6366253Y-12690484D01*
X6490063Y-12490484D02*
X6509110Y-12490484D01*
X6509110Y-12490484D02*
X6528158Y-12500008D01*
X6528158Y-12500008D02*
X6537682Y-12509531D01*
X6537682Y-12509531D02*
X6547205Y-12528579D01*
X6547205Y-12528579D02*
X6556729Y-12566674D01*
X6556729Y-12566674D02*
X6556729Y-12614293D01*
X6556729Y-12614293D02*
X6547205Y-12652388D01*
X6547205Y-12652388D02*
X6537682Y-12671436D01*
X6537682Y-12671436D02*
X6528158Y-12680960D01*
X6528158Y-12680960D02*
X6509110Y-12690484D01*
X6509110Y-12690484D02*
X6490063Y-12690484D01*
X6490063Y-12690484D02*
X6471015Y-12680960D01*
X6471015Y-12680960D02*
X6461491Y-12671436D01*
X6461491Y-12671436D02*
X6451967Y-12652388D01*
X6451967Y-12652388D02*
X6442444Y-12614293D01*
X6442444Y-12614293D02*
X6442444Y-12566674D01*
X6442444Y-12566674D02*
X6451967Y-12528579D01*
X6451967Y-12528579D02*
X6461491Y-12509531D01*
X6461491Y-12509531D02*
X6471015Y-12500008D01*
X6471015Y-12500008D02*
X6490063Y-12490484D01*
X6680539Y-12490484D02*
X6699586Y-12490484D01*
X6699586Y-12490484D02*
X6718634Y-12500008D01*
X6718634Y-12500008D02*
X6728158Y-12509531D01*
X6728158Y-12509531D02*
X6737682Y-12528579D01*
X6737682Y-12528579D02*
X6747205Y-12566674D01*
X6747205Y-12566674D02*
X6747205Y-12614293D01*
X6747205Y-12614293D02*
X6737682Y-12652388D01*
X6737682Y-12652388D02*
X6728158Y-12671436D01*
X6728158Y-12671436D02*
X6718634Y-12680960D01*
X6718634Y-12680960D02*
X6699586Y-12690484D01*
X6699586Y-12690484D02*
X6680539Y-12690484D01*
X6680539Y-12690484D02*
X6661491Y-12680960D01*
X6661491Y-12680960D02*
X6651967Y-12671436D01*
X6651967Y-12671436D02*
X6642444Y-12652388D01*
X6642444Y-12652388D02*
X6632920Y-12614293D01*
X6632920Y-12614293D02*
X6632920Y-12566674D01*
X6632920Y-12566674D02*
X6642444Y-12528579D01*
X6642444Y-12528579D02*
X6651967Y-12509531D01*
X6651967Y-12509531D02*
X6661491Y-12500008D01*
X6661491Y-12500008D02*
X6680539Y-12490484D01*
X6832920Y-12690484D02*
X6832920Y-12557150D01*
X6832920Y-12576198D02*
X6842444Y-12566674D01*
X6842444Y-12566674D02*
X6861491Y-12557150D01*
X6861491Y-12557150D02*
X6890063Y-12557150D01*
X6890063Y-12557150D02*
X6909110Y-12566674D01*
X6909110Y-12566674D02*
X6918634Y-12585722D01*
X6918634Y-12585722D02*
X6918634Y-12690484D01*
X6918634Y-12585722D02*
X6928158Y-12566674D01*
X6928158Y-12566674D02*
X6947205Y-12557150D01*
X6947205Y-12557150D02*
X6975777Y-12557150D01*
X6975777Y-12557150D02*
X6994825Y-12566674D01*
X6994825Y-12566674D02*
X7004348Y-12585722D01*
X7004348Y-12585722D02*
X7004348Y-12690484D01*
X7099586Y-12690484D02*
X7099586Y-12557150D01*
X7099586Y-12576198D02*
X7109110Y-12566674D01*
X7109110Y-12566674D02*
X7128158Y-12557150D01*
X7128158Y-12557150D02*
X7156729Y-12557150D01*
X7156729Y-12557150D02*
X7175777Y-12566674D01*
X7175777Y-12566674D02*
X7185301Y-12585722D01*
X7185301Y-12585722D02*
X7185301Y-12690484D01*
X7185301Y-12585722D02*
X7194825Y-12566674D01*
X7194825Y-12566674D02*
X7213872Y-12557150D01*
X7213872Y-12557150D02*
X7242444Y-12557150D01*
X7242444Y-12557150D02*
X7261491Y-12566674D01*
X7261491Y-12566674D02*
X7271015Y-12585722D01*
X7271015Y-12585722D02*
X7271015Y-12690484D01*
X7661491Y-12480960D02*
X7490063Y-12738103D01*
X7918634Y-12490484D02*
X7937682Y-12490484D01*
X7937682Y-12490484D02*
X7956729Y-12500008D01*
X7956729Y-12500008D02*
X7966253Y-12509531D01*
X7966253Y-12509531D02*
X7975777Y-12528579D01*
X7975777Y-12528579D02*
X7985301Y-12566674D01*
X7985301Y-12566674D02*
X7985301Y-12614293D01*
X7985301Y-12614293D02*
X7975777Y-12652388D01*
X7975777Y-12652388D02*
X7966253Y-12671436D01*
X7966253Y-12671436D02*
X7956729Y-12680960D01*
X7956729Y-12680960D02*
X7937682Y-12690484D01*
X7937682Y-12690484D02*
X7918634Y-12690484D01*
X7918634Y-12690484D02*
X7899587Y-12680960D01*
X7899587Y-12680960D02*
X7890063Y-12671436D01*
X7890063Y-12671436D02*
X7880539Y-12652388D01*
X7880539Y-12652388D02*
X7871015Y-12614293D01*
X7871015Y-12614293D02*
X7871015Y-12566674D01*
X7871015Y-12566674D02*
X7880539Y-12528579D01*
X7880539Y-12528579D02*
X7890063Y-12509531D01*
X7890063Y-12509531D02*
X7899587Y-12500008D01*
X7899587Y-12500008D02*
X7918634Y-12490484D01*
X8071015Y-12671436D02*
X8080539Y-12680960D01*
X8080539Y-12680960D02*
X8071015Y-12690484D01*
X8071015Y-12690484D02*
X8061491Y-12680960D01*
X8061491Y-12680960D02*
X8071015Y-12671436D01*
X8071015Y-12671436D02*
X8071015Y-12690484D01*
X8271015Y-12690484D02*
X8156729Y-12690484D01*
X8213872Y-12690484D02*
X8213872Y-12490484D01*
X8213872Y-12490484D02*
X8194825Y-12519055D01*
X8194825Y-12519055D02*
X8175777Y-12538103D01*
X8175777Y-12538103D02*
X8156729Y-12547627D01*
X8347206Y-12509531D02*
X8356729Y-12500008D01*
X8356729Y-12500008D02*
X8375777Y-12490484D01*
X8375777Y-12490484D02*
X8423396Y-12490484D01*
X8423396Y-12490484D02*
X8442444Y-12500008D01*
X8442444Y-12500008D02*
X8451968Y-12509531D01*
X8451968Y-12509531D02*
X8461491Y-12528579D01*
X8461491Y-12528579D02*
X8461491Y-12547627D01*
X8461491Y-12547627D02*
X8451968Y-12576198D01*
X8451968Y-12576198D02*
X8337682Y-12690484D01*
X8337682Y-12690484D02*
X8461491Y-12690484D01*
X8632920Y-12490484D02*
X8594825Y-12490484D01*
X8594825Y-12490484D02*
X8575777Y-12500008D01*
X8575777Y-12500008D02*
X8566253Y-12509531D01*
X8566253Y-12509531D02*
X8547206Y-12538103D01*
X8547206Y-12538103D02*
X8537682Y-12576198D01*
X8537682Y-12576198D02*
X8537682Y-12652388D01*
X8537682Y-12652388D02*
X8547206Y-12671436D01*
X8547206Y-12671436D02*
X8556730Y-12680960D01*
X8556730Y-12680960D02*
X8575777Y-12690484D01*
X8575777Y-12690484D02*
X8613872Y-12690484D01*
X8613872Y-12690484D02*
X8632920Y-12680960D01*
X8632920Y-12680960D02*
X8642444Y-12671436D01*
X8642444Y-12671436D02*
X8651968Y-12652388D01*
X8651968Y-12652388D02*
X8651968Y-12604769D01*
X8651968Y-12604769D02*
X8642444Y-12585722D01*
X8642444Y-12585722D02*
X8632920Y-12576198D01*
X8632920Y-12576198D02*
X8613872Y-12566674D01*
X8613872Y-12566674D02*
X8575777Y-12566674D01*
X8575777Y-12566674D02*
X8556730Y-12576198D01*
X8556730Y-12576198D02*
X8547206Y-12585722D01*
X8547206Y-12585722D02*
X8537682Y-12604769D01*
X8775777Y-12490484D02*
X8794825Y-12490484D01*
X8794825Y-12490484D02*
X8813872Y-12500008D01*
X8813872Y-12500008D02*
X8823396Y-12509531D01*
X8823396Y-12509531D02*
X8832920Y-12528579D01*
X8832920Y-12528579D02*
X8842444Y-12566674D01*
X8842444Y-12566674D02*
X8842444Y-12614293D01*
X8842444Y-12614293D02*
X8832920Y-12652388D01*
X8832920Y-12652388D02*
X8823396Y-12671436D01*
X8823396Y-12671436D02*
X8813872Y-12680960D01*
X8813872Y-12680960D02*
X8794825Y-12690484D01*
X8794825Y-12690484D02*
X8775777Y-12690484D01*
X8775777Y-12690484D02*
X8756730Y-12680960D01*
X8756730Y-12680960D02*
X8747206Y-12671436D01*
X8747206Y-12671436D02*
X8737682Y-12652388D01*
X8737682Y-12652388D02*
X8728158Y-12614293D01*
X8728158Y-12614293D02*
X8728158Y-12566674D01*
X8728158Y-12566674D02*
X8737682Y-12528579D01*
X8737682Y-12528579D02*
X8747206Y-12509531D01*
X8747206Y-12509531D02*
X8756730Y-12500008D01*
X8756730Y-12500008D02*
X8775777Y-12490484D01*
X8918634Y-12490484D02*
X8918634Y-12528579D01*
X8994825Y-12490484D02*
X8994825Y-12528579D01*
X9290063Y-12766674D02*
X9280539Y-12757150D01*
X9280539Y-12757150D02*
X9261492Y-12728579D01*
X9261492Y-12728579D02*
X9251968Y-12709531D01*
X9251968Y-12709531D02*
X9242444Y-12680960D01*
X9242444Y-12680960D02*
X9232920Y-12633341D01*
X9232920Y-12633341D02*
X9232920Y-12595246D01*
X9232920Y-12595246D02*
X9242444Y-12547627D01*
X9242444Y-12547627D02*
X9251968Y-12519055D01*
X9251968Y-12519055D02*
X9261492Y-12500008D01*
X9261492Y-12500008D02*
X9280539Y-12471436D01*
X9280539Y-12471436D02*
X9290063Y-12461912D01*
X9471015Y-12690484D02*
X9356730Y-12690484D01*
X9413872Y-12690484D02*
X9413872Y-12490484D01*
X9413872Y-12490484D02*
X9394825Y-12519055D01*
X9394825Y-12519055D02*
X9375777Y-12538103D01*
X9375777Y-12538103D02*
X9356730Y-12547627D01*
X9594825Y-12490484D02*
X9613873Y-12490484D01*
X9613873Y-12490484D02*
X9632920Y-12500008D01*
X9632920Y-12500008D02*
X9642444Y-12509531D01*
X9642444Y-12509531D02*
X9651968Y-12528579D01*
X9651968Y-12528579D02*
X9661492Y-12566674D01*
X9661492Y-12566674D02*
X9661492Y-12614293D01*
X9661492Y-12614293D02*
X9651968Y-12652388D01*
X9651968Y-12652388D02*
X9642444Y-12671436D01*
X9642444Y-12671436D02*
X9632920Y-12680960D01*
X9632920Y-12680960D02*
X9613873Y-12690484D01*
X9613873Y-12690484D02*
X9594825Y-12690484D01*
X9594825Y-12690484D02*
X9575777Y-12680960D01*
X9575777Y-12680960D02*
X9566253Y-12671436D01*
X9566253Y-12671436D02*
X9556730Y-12652388D01*
X9556730Y-12652388D02*
X9547206Y-12614293D01*
X9547206Y-12614293D02*
X9547206Y-12566674D01*
X9547206Y-12566674D02*
X9556730Y-12528579D01*
X9556730Y-12528579D02*
X9566253Y-12509531D01*
X9566253Y-12509531D02*
X9575777Y-12500008D01*
X9575777Y-12500008D02*
X9594825Y-12490484D01*
X9899587Y-12690484D02*
X9899587Y-12490484D01*
X9985301Y-12690484D02*
X9985301Y-12585722D01*
X9985301Y-12585722D02*
X9975777Y-12566674D01*
X9975777Y-12566674D02*
X9956730Y-12557150D01*
X9956730Y-12557150D02*
X9928158Y-12557150D01*
X9928158Y-12557150D02*
X9909111Y-12566674D01*
X9909111Y-12566674D02*
X9899587Y-12576198D01*
X10109111Y-12690484D02*
X10090063Y-12680960D01*
X10090063Y-12680960D02*
X10080539Y-12671436D01*
X10080539Y-12671436D02*
X10071015Y-12652388D01*
X10071015Y-12652388D02*
X10071015Y-12595246D01*
X10071015Y-12595246D02*
X10080539Y-12576198D01*
X10080539Y-12576198D02*
X10090063Y-12566674D01*
X10090063Y-12566674D02*
X10109111Y-12557150D01*
X10109111Y-12557150D02*
X10137682Y-12557150D01*
X10137682Y-12557150D02*
X10156730Y-12566674D01*
X10156730Y-12566674D02*
X10166254Y-12576198D01*
X10166254Y-12576198D02*
X10175777Y-12595246D01*
X10175777Y-12595246D02*
X10175777Y-12652388D01*
X10175777Y-12652388D02*
X10166254Y-12671436D01*
X10166254Y-12671436D02*
X10156730Y-12680960D01*
X10156730Y-12680960D02*
X10137682Y-12690484D01*
X10137682Y-12690484D02*
X10109111Y-12690484D01*
X10290063Y-12690484D02*
X10271015Y-12680960D01*
X10271015Y-12680960D02*
X10261492Y-12661912D01*
X10261492Y-12661912D02*
X10261492Y-12490484D01*
X10442444Y-12680960D02*
X10423396Y-12690484D01*
X10423396Y-12690484D02*
X10385301Y-12690484D01*
X10385301Y-12690484D02*
X10366254Y-12680960D01*
X10366254Y-12680960D02*
X10356730Y-12661912D01*
X10356730Y-12661912D02*
X10356730Y-12585722D01*
X10356730Y-12585722D02*
X10366254Y-12566674D01*
X10366254Y-12566674D02*
X10385301Y-12557150D01*
X10385301Y-12557150D02*
X10423396Y-12557150D01*
X10423396Y-12557150D02*
X10442444Y-12566674D01*
X10442444Y-12566674D02*
X10451968Y-12585722D01*
X10451968Y-12585722D02*
X10451968Y-12604769D01*
X10451968Y-12604769D02*
X10356730Y-12623817D01*
X10528158Y-12680960D02*
X10547206Y-12690484D01*
X10547206Y-12690484D02*
X10585301Y-12690484D01*
X10585301Y-12690484D02*
X10604349Y-12680960D01*
X10604349Y-12680960D02*
X10613873Y-12661912D01*
X10613873Y-12661912D02*
X10613873Y-12652388D01*
X10613873Y-12652388D02*
X10604349Y-12633341D01*
X10604349Y-12633341D02*
X10585301Y-12623817D01*
X10585301Y-12623817D02*
X10556730Y-12623817D01*
X10556730Y-12623817D02*
X10537682Y-12614293D01*
X10537682Y-12614293D02*
X10528158Y-12595246D01*
X10528158Y-12595246D02*
X10528158Y-12585722D01*
X10528158Y-12585722D02*
X10537682Y-12566674D01*
X10537682Y-12566674D02*
X10556730Y-12557150D01*
X10556730Y-12557150D02*
X10585301Y-12557150D01*
X10585301Y-12557150D02*
X10604349Y-12566674D01*
X10680539Y-12766674D02*
X10690063Y-12757150D01*
X10690063Y-12757150D02*
X10709111Y-12728579D01*
X10709111Y-12728579D02*
X10718635Y-12709531D01*
X10718635Y-12709531D02*
X10728158Y-12680960D01*
X10728158Y-12680960D02*
X10737682Y-12633341D01*
X10737682Y-12633341D02*
X10737682Y-12595246D01*
X10737682Y-12595246D02*
X10728158Y-12547627D01*
X10728158Y-12547627D02*
X10718635Y-12519055D01*
X10718635Y-12519055D02*
X10709111Y-12500008D01*
X10709111Y-12500008D02*
X10690063Y-12471436D01*
X10690063Y-12471436D02*
X10680539Y-12461912D01*
X11042444Y-12766674D02*
X11032920Y-12757150D01*
X11032920Y-12757150D02*
X11013873Y-12728579D01*
X11013873Y-12728579D02*
X11004349Y-12709531D01*
X11004349Y-12709531D02*
X10994825Y-12680960D01*
X10994825Y-12680960D02*
X10985301Y-12633341D01*
X10985301Y-12633341D02*
X10985301Y-12595246D01*
X10985301Y-12595246D02*
X10994825Y-12547627D01*
X10994825Y-12547627D02*
X11004349Y-12519055D01*
X11004349Y-12519055D02*
X11013873Y-12500008D01*
X11013873Y-12500008D02*
X11032920Y-12471436D01*
X11032920Y-12471436D02*
X11042444Y-12461912D01*
X11118635Y-12557150D02*
X11118635Y-12690484D01*
X11118635Y-12576198D02*
X11128158Y-12566674D01*
X11128158Y-12566674D02*
X11147206Y-12557150D01*
X11147206Y-12557150D02*
X11175777Y-12557150D01*
X11175777Y-12557150D02*
X11194825Y-12566674D01*
X11194825Y-12566674D02*
X11204349Y-12585722D01*
X11204349Y-12585722D02*
X11204349Y-12690484D01*
X11328158Y-12690484D02*
X11309111Y-12680960D01*
X11309111Y-12680960D02*
X11299587Y-12671436D01*
X11299587Y-12671436D02*
X11290063Y-12652388D01*
X11290063Y-12652388D02*
X11290063Y-12595246D01*
X11290063Y-12595246D02*
X11299587Y-12576198D01*
X11299587Y-12576198D02*
X11309111Y-12566674D01*
X11309111Y-12566674D02*
X11328158Y-12557150D01*
X11328158Y-12557150D02*
X11356730Y-12557150D01*
X11356730Y-12557150D02*
X11375777Y-12566674D01*
X11375777Y-12566674D02*
X11385301Y-12576198D01*
X11385301Y-12576198D02*
X11394825Y-12595246D01*
X11394825Y-12595246D02*
X11394825Y-12652388D01*
X11394825Y-12652388D02*
X11385301Y-12671436D01*
X11385301Y-12671436D02*
X11375777Y-12680960D01*
X11375777Y-12680960D02*
X11356730Y-12690484D01*
X11356730Y-12690484D02*
X11328158Y-12690484D01*
X11451968Y-12557150D02*
X11528158Y-12557150D01*
X11480539Y-12490484D02*
X11480539Y-12661912D01*
X11480539Y-12661912D02*
X11490063Y-12680960D01*
X11490063Y-12680960D02*
X11509111Y-12690484D01*
X11509111Y-12690484D02*
X11528158Y-12690484D01*
X11747206Y-12557150D02*
X11747206Y-12757150D01*
X11747206Y-12566674D02*
X11766254Y-12557150D01*
X11766254Y-12557150D02*
X11804349Y-12557150D01*
X11804349Y-12557150D02*
X11823396Y-12566674D01*
X11823396Y-12566674D02*
X11832920Y-12576198D01*
X11832920Y-12576198D02*
X11842444Y-12595246D01*
X11842444Y-12595246D02*
X11842444Y-12652388D01*
X11842444Y-12652388D02*
X11832920Y-12671436D01*
X11832920Y-12671436D02*
X11823396Y-12680960D01*
X11823396Y-12680960D02*
X11804349Y-12690484D01*
X11804349Y-12690484D02*
X11766254Y-12690484D01*
X11766254Y-12690484D02*
X11747206Y-12680960D01*
X11956730Y-12690484D02*
X11937682Y-12680960D01*
X11937682Y-12680960D02*
X11928158Y-12661912D01*
X11928158Y-12661912D02*
X11928158Y-12490484D01*
X12118635Y-12690484D02*
X12118635Y-12585722D01*
X12118635Y-12585722D02*
X12109111Y-12566674D01*
X12109111Y-12566674D02*
X12090063Y-12557150D01*
X12090063Y-12557150D02*
X12051968Y-12557150D01*
X12051968Y-12557150D02*
X12032920Y-12566674D01*
X12118635Y-12680960D02*
X12099587Y-12690484D01*
X12099587Y-12690484D02*
X12051968Y-12690484D01*
X12051968Y-12690484D02*
X12032920Y-12680960D01*
X12032920Y-12680960D02*
X12023396Y-12661912D01*
X12023396Y-12661912D02*
X12023396Y-12642865D01*
X12023396Y-12642865D02*
X12032920Y-12623817D01*
X12032920Y-12623817D02*
X12051968Y-12614293D01*
X12051968Y-12614293D02*
X12099587Y-12614293D01*
X12099587Y-12614293D02*
X12118635Y-12604769D01*
X12185301Y-12557150D02*
X12261492Y-12557150D01*
X12213873Y-12490484D02*
X12213873Y-12661912D01*
X12213873Y-12661912D02*
X12223396Y-12680960D01*
X12223396Y-12680960D02*
X12242444Y-12690484D01*
X12242444Y-12690484D02*
X12261492Y-12690484D01*
X12404349Y-12680960D02*
X12385301Y-12690484D01*
X12385301Y-12690484D02*
X12347206Y-12690484D01*
X12347206Y-12690484D02*
X12328158Y-12680960D01*
X12328158Y-12680960D02*
X12318635Y-12661912D01*
X12318635Y-12661912D02*
X12318635Y-12585722D01*
X12318635Y-12585722D02*
X12328158Y-12566674D01*
X12328158Y-12566674D02*
X12347206Y-12557150D01*
X12347206Y-12557150D02*
X12385301Y-12557150D01*
X12385301Y-12557150D02*
X12404349Y-12566674D01*
X12404349Y-12566674D02*
X12413873Y-12585722D01*
X12413873Y-12585722D02*
X12413873Y-12604769D01*
X12413873Y-12604769D02*
X12318635Y-12623817D01*
X12585301Y-12690484D02*
X12585301Y-12490484D01*
X12585301Y-12680960D02*
X12566254Y-12690484D01*
X12566254Y-12690484D02*
X12528158Y-12690484D01*
X12528158Y-12690484D02*
X12509111Y-12680960D01*
X12509111Y-12680960D02*
X12499587Y-12671436D01*
X12499587Y-12671436D02*
X12490063Y-12652388D01*
X12490063Y-12652388D02*
X12490063Y-12595246D01*
X12490063Y-12595246D02*
X12499587Y-12576198D01*
X12499587Y-12576198D02*
X12509111Y-12566674D01*
X12509111Y-12566674D02*
X12528158Y-12557150D01*
X12528158Y-12557150D02*
X12566254Y-12557150D01*
X12566254Y-12557150D02*
X12585301Y-12566674D01*
X12661492Y-12766674D02*
X12671016Y-12757150D01*
X12671016Y-12757150D02*
X12690063Y-12728579D01*
X12690063Y-12728579D02*
X12699587Y-12709531D01*
X12699587Y-12709531D02*
X12709111Y-12680960D01*
X12709111Y-12680960D02*
X12718635Y-12633341D01*
X12718635Y-12633341D02*
X12718635Y-12595246D01*
X12718635Y-12595246D02*
X12709111Y-12547627D01*
X12709111Y-12547627D02*
X12699587Y-12519055D01*
X12699587Y-12519055D02*
X12690063Y-12500008D01*
X12690063Y-12500008D02*
X12671016Y-12471436D01*
X12671016Y-12471436D02*
X12661492Y-12461912D01*
M02*
