M48
; DRILL file KiCad 10.0.1 date 2026-07-31T14:19:40
; FORMAT={-:-/ absolute / metric / decimal}
; #@! TF.CreationDate,2026-07-31T14:19:40+09:00
; #@! TF.GenerationSoftware,Kicad,Pcbnew,10.0.1
; #@! TF.FileFunction,MixedPlating,1,2
FMAT,2
METRIC
; #@! TA.AperFunction,Plated,PTH,ViaDrill
T1C0.300
; #@! TA.AperFunction,Plated,PTH,ComponentDrill
T2C0.800
; #@! TA.AperFunction,Plated,PTH,ComponentDrill
T3C0.900
; #@! TA.AperFunction,Plated,PTH,ComponentDrill
T4C1.000
; #@! TA.AperFunction,Plated,PTH,ComponentDrill
T5C1.200
; #@! TA.AperFunction,Plated,PTH,ComponentDrill
T6C1.300
; #@! TA.AperFunction,NonPlated,NPTH,ComponentDrill
T7C3.200
%
G90
G05
T1
X58.68Y-74.33
X61.38Y-95.48
X61.63Y-49.88
X61.73Y-54.53
X63.83Y-80.13
X65.78Y-62.03
X67.18Y-91.02
X68.23Y-56.78
X68.88Y-86.63
X69.23Y-81.48
X69.268Y-93.73
X70.13Y-68.38
X70.18Y-74.78
X71.23Y-46.83
X71.53Y-62.08
X72.43Y-50.18
X72.53Y-51.75
X72.555Y-55.005
X72.93Y-81.58
X73.943Y-86.88
X74.28Y-67.03
X74.38Y-48.58
X74.78Y-62.13
X75.18Y-59.48
X75.28Y-97.23
X76.18Y-74.88
X76.63Y-68.855
X78.33Y-59.78
X78.48Y-77.68
X78.63Y-93.83
X78.68Y-81.73
X79.23Y-71.23
X79.83Y-48.83
X80.08Y-59.43
X81.93Y-50.63
X81.94Y-53.02
X81.94Y-55.27
X82.18Y-46.83
X82.68Y-84.28
X83.78Y-91.68
X84.43Y-76.43
X84.73Y-57.33
X86.18Y-66.48
X87.18Y-70.33
X87.38Y-73.78
X89.73Y-96.23
X91.33Y-54.03
X92.33Y-46.93
X93.18Y-66.73
X93.53Y-86.68
X94.08Y-68.78
X94.48Y-76.88
X98.73Y-71.48
X98.88Y-68.78
X100.13Y-66.28
X100.88Y-62.68
X101.73Y-79.58
X101.78Y-56.18
X104.98Y-52.88
X105.23Y-74.18
X105.43Y-79.63
X105.48Y-46.23
X105.48Y-84.58
X108.58Y-62.53
X113.33Y-70.58
X113.38Y-98.33
X115.53Y-96.53
X115.53Y-99.98
X115.73Y-69.03
X115.73Y-84.48
X115.83Y-72.38
X122.68Y-84.58
X126.48Y-57.94
X129.82Y-55.08
X137.95Y-33.21
X141.16Y-57.75
X141.93Y-67.52
X143.29Y-59.97
X145.26Y-70.37
X146.03Y-46.01
X147.5Y-57.21
X148.83Y-53.97
X149.67Y-41.73
X149.71Y-31.86
X152.55Y-26.25
X152.63Y-59.95
X154.37Y-29.57
X156.43Y-54.52
X157.005Y-84.73
X159.11Y-31.14
X159.17Y-40.2
X159.61Y-46.32
X166.93Y-42.29
X167.58Y-24.6
X168.11Y-29.48
X169.83Y-77.08
X173.98Y-81.93
X180.305Y-98.2
X181.88Y-101.405
X183.78Y-77.105
X192.905Y-100.905
X195.045Y-88.85
X197.72Y-60.85
X199.72Y-82.125
X207.545Y-55.65
X212.27Y-58.875
X216.855Y-89.23
X218.43Y-79.155
X218.47Y-55.73
X231.555Y-91.03
T2
X59.88Y-83.88
X61.88Y-83.88
X62.48Y-58.73
X64.48Y-58.73
X81.98Y-80.73
X83.98Y-80.73
X87.78Y-86.83
X87.78Y-92.33
X88.13Y-58.63
X88.13Y-60.63
X89.43Y-82.28
X90.28Y-77.13
X95.08Y-59.78
X97.08Y-59.78
X97.08Y-65.93
X100.48Y-86.83
X100.48Y-92.33
X101.88Y-71.23
X102.08Y-65.93
X102.13Y-82.28
X102.98Y-77.13
X105.38Y-59.23
X106.88Y-71.23
X107.38Y-59.23
X114.98Y-74.33
X114.98Y-79.33
X114.98Y-89.33
X114.98Y-94.33
X136.555Y-62.905
X138.97Y-47.22
X138.97Y-52.22
X141.64Y-33.26
X141.83Y-39.34
X141.83Y-44.34
X143.74Y-24.35
X143.74Y-29.35
X146.64Y-33.26
X149.255Y-62.905
X152.08Y-46.41
X157.08Y-46.41
X160.88Y-54.95
X160.88Y-59.95
X160.92Y-29.28
X160.93Y-37.98
X165.92Y-29.28
X165.93Y-37.98
X178.43Y-81.58
X180.42Y-94.275
X181.23Y-53.83
X181.23Y-57.33
X182.695Y-62.45
X182.92Y-94.275
X183.43Y-81.58
X187.695Y-62.45
X208.92Y-61.625
X211.695Y-52.275
X213.92Y-61.625
X215.195Y-52.275
T3
X202.62Y-53.11
X202.62Y-55.65
X202.62Y-58.19
T4
X120.18Y-77.13
X120.18Y-79.67
X120.18Y-82.21
X120.18Y-86.95
X120.18Y-89.49
X120.18Y-92.03
X131.58Y-70.63
X131.58Y-73.17
X134.12Y-70.63
X134.12Y-73.17
X136.66Y-70.63
X136.66Y-73.17
X139.2Y-70.63
X139.2Y-73.17
X141.74Y-70.63
X141.74Y-73.17
X156.98Y-94.79
X156.98Y-97.33
X168.44Y-81.99
X168.44Y-84.53
X168.44Y-87.07
X170.98Y-81.99
X170.98Y-84.53
X170.98Y-87.07
X173.38Y-24.88
X173.38Y-38.88
X188.13Y-94.255
X188.135Y-67.9
X188.135Y-85.68
X190.67Y-94.255
X190.675Y-67.9
X190.675Y-85.68
X193.21Y-94.255
X193.215Y-67.9
X193.215Y-85.68
X195.75Y-94.255
X195.755Y-67.9
X195.755Y-85.68
X198.29Y-94.255
X198.295Y-67.9
X198.295Y-85.68
X200.83Y-94.255
X200.835Y-67.9
X200.835Y-85.68
X203.37Y-94.255
X203.375Y-67.9
X203.375Y-85.68
X205.91Y-94.255
X205.915Y-67.9
X205.915Y-85.68
X208.45Y-94.255
X208.455Y-67.9
X208.455Y-85.68
X209.38Y-24.88
X209.38Y-38.88
X210.99Y-94.255
X210.995Y-67.9
X210.995Y-85.68
X213.53Y-94.255
X213.535Y-67.9
X213.535Y-85.68
X216.07Y-94.255
X216.075Y-67.9
X216.075Y-85.68
X218.61Y-94.255
X218.615Y-67.9
X218.615Y-85.68
X221.15Y-94.255
X221.155Y-67.9
X221.155Y-85.68
X223.69Y-94.255
X223.695Y-67.9
X223.695Y-85.68
X226.235Y-67.9
X226.235Y-85.68
X228.775Y-67.9
X228.775Y-85.68
X231.315Y-67.9
X231.315Y-85.68
X233.855Y-67.9
X233.855Y-85.68
X236.395Y-67.9
X236.395Y-85.68
T5
X118.92Y-61.38
X131.62Y-61.38
X198.08Y-76.63
X210.78Y-76.63
X221.42Y-48.575
X221.42Y-61.275
T6
X66.48Y-68.88
X66.48Y-73.96
X97.38Y-49.43
X102.46Y-49.43
X107.54Y-49.43
X233.02Y-53.1
X233.02Y-58.18
T7
X60.67Y-100.2
X60.7Y-23.5
X121.28Y-71.73
X121.28Y-97.33
X134.84Y-23.51
X146.59Y-100.22
X169.88Y-71.73
X169.88Y-97.33
X236.28Y-23.51
X236.29Y-100.18
M30
