%TF.GenerationSoftware,KiCad,Pcbnew,10.0.1*%
%TF.CreationDate,2026-07-31T14:22:46+09:00*%
%TF.ProjectId,AudioCase_6_measurement_adc,41756469-6f43-4617-9365-5f365f6d6561,rev?*%
%TF.SameCoordinates,Original*%
%TF.FileFunction,Legend,Bot*%
%TF.FilePolarity,Positive*%
%FSLAX46Y46*%
G04 Gerber Fmt 4.6, Leading zero omitted, Abs format (unit mm)*
G04 Created by KiCad (PCBNEW 10.0.1) date 2026-07-31 14:22:47*
%MOMM*%
%LPD*%
G01*
G04 APERTURE LIST*
G04 Aperture macros list*
%AMRoundRect*
0 Rectangle with rounded corners*
0 $1 Rounding radius*
0 $2 $3 $4 $5 $6 $7 $8 $9 X,Y pos of 4 corners*
0 Add a 4 corners polygon primitive as box body*
4,1,4,$2,$3,$4,$5,$6,$7,$8,$9,$2,$3,0*
0 Add four circle primitives for the rounded corners*
1,1,$1+$1,$2,$3*
1,1,$1+$1,$4,$5*
1,1,$1+$1,$6,$7*
1,1,$1+$1,$8,$9*
0 Add four rect primitives between the rounded corners*
20,1,$1+$1,$2,$3,$4,$5,0*
20,1,$1+$1,$4,$5,$6,$7,0*
20,1,$1+$1,$6,$7,$8,$9,0*
20,1,$1+$1,$8,$9,$2,$3,0*%
%AMFreePoly0*
4,1,37,0.603843,0.796157,0.639018,0.796157,0.711114,0.766294,0.766294,0.711114,0.796157,0.639018,0.796157,0.603843,0.800000,0.600000,0.800000,-0.600000,0.796157,-0.603843,0.796157,-0.639018,0.766294,-0.711114,0.711114,-0.766294,0.639018,-0.796157,0.603843,-0.796157,0.600000,-0.800000,0.000000,-0.800000,0.000000,-0.796148,-0.078414,-0.796148,-0.232228,-0.765552,-0.377117,-0.705537,
-0.507515,-0.618408,-0.618408,-0.507515,-0.705537,-0.377117,-0.765552,-0.232228,-0.796148,-0.078414,-0.796148,0.078414,-0.765552,0.232228,-0.705537,0.377117,-0.618408,0.507515,-0.507515,0.618408,-0.377117,0.705537,-0.232228,0.765552,-0.078414,0.796148,0.000000,0.796148,0.000000,0.800000,0.600000,0.800000,0.603843,0.796157,0.603843,0.796157,$1*%
%AMFreePoly1*
4,1,37,0.000000,0.796148,0.078414,0.796148,0.232228,0.765552,0.377117,0.705537,0.507515,0.618408,0.618408,0.507515,0.705537,0.377117,0.765552,0.232228,0.796148,0.078414,0.796148,-0.078414,0.765552,-0.232228,0.705537,-0.377117,0.618408,-0.507515,0.507515,-0.618408,0.377117,-0.705537,0.232228,-0.765552,0.078414,-0.796148,0.000000,-0.796148,0.000000,-0.800000,-0.600000,-0.800000,
-0.603843,-0.796157,-0.639018,-0.796157,-0.711114,-0.766294,-0.766294,-0.711114,-0.796157,-0.639018,-0.796157,-0.603843,-0.800000,-0.600000,-0.800000,0.600000,-0.796157,0.603843,-0.796157,0.639018,-0.766294,0.711114,-0.711114,0.766294,-0.639018,0.796157,-0.603843,0.796157,-0.600000,0.800000,0.000000,0.800000,0.000000,0.796148,0.000000,0.796148,$1*%
G04 Aperture macros list end*
%ADD10C,0.150000*%
%ADD11C,0.120000*%
%ADD12C,1.600000*%
%ADD13C,2.400000*%
%ADD14R,1.700000X1.700000*%
%ADD15C,1.700000*%
%ADD16C,3.200000*%
%ADD17RoundRect,0.250000X-0.550000X-0.550000X0.550000X-0.550000X0.550000X0.550000X-0.550000X0.550000X0*%
%ADD18RoundRect,0.250000X0.550000X-0.550000X0.550000X0.550000X-0.550000X0.550000X-0.550000X-0.550000X0*%
%ADD19RoundRect,0.250000X0.550000X0.550000X-0.550000X0.550000X-0.550000X-0.550000X0.550000X-0.550000X0*%
%ADD20RoundRect,0.250000X-1.050000X1.050000X-1.050000X-1.050000X1.050000X-1.050000X1.050000X1.050000X0*%
%ADD21C,2.600000*%
%ADD22RoundRect,0.250000X1.050000X1.050000X-1.050000X1.050000X-1.050000X-1.050000X1.050000X-1.050000X0*%
%ADD23R,1.800000X1.800000*%
%ADD24C,1.800000*%
%ADD25RoundRect,0.250000X1.050000X-1.050000X1.050000X1.050000X-1.050000X1.050000X-1.050000X-1.050000X0*%
%ADD26R,2.200000X2.200000*%
%ADD27C,2.200000*%
%ADD28R,2.000000X2.000000*%
%ADD29C,2.000000*%
%ADD30RoundRect,0.200000X0.600000X-0.600000X0.600000X0.600000X-0.600000X0.600000X-0.600000X-0.600000X0*%
%ADD31FreePoly0,90.000000*%
%ADD32FreePoly1,90.000000*%
%ADD33RoundRect,0.250000X-0.550000X0.550000X-0.550000X-0.550000X0.550000X-0.550000X0.550000X0.550000X0*%
G04 APERTURE END LIST*
D10*
X205549048Y-80004820D02*
X205882381Y-79528629D01*
X206120476Y-80004820D02*
X206120476Y-79004820D01*
X206120476Y-79004820D02*
X205739524Y-79004820D01*
X205739524Y-79004820D02*
X205644286Y-79052439D01*
X205644286Y-79052439D02*
X205596667Y-79100058D01*
X205596667Y-79100058D02*
X205549048Y-79195296D01*
X205549048Y-79195296D02*
X205549048Y-79338153D01*
X205549048Y-79338153D02*
X205596667Y-79433391D01*
X205596667Y-79433391D02*
X205644286Y-79481010D01*
X205644286Y-79481010D02*
X205739524Y-79528629D01*
X205739524Y-79528629D02*
X206120476Y-79528629D01*
X205215714Y-79004820D02*
X204549048Y-79004820D01*
X204549048Y-79004820D02*
X204977619Y-80004820D01*
X203644286Y-80004820D02*
X204215714Y-80004820D01*
X203930000Y-80004820D02*
X203930000Y-79004820D01*
X203930000Y-79004820D02*
X204025238Y-79147677D01*
X204025238Y-79147677D02*
X204120476Y-79242915D01*
X204120476Y-79242915D02*
X204215714Y-79290534D01*
X203310952Y-79004820D02*
X202644286Y-79004820D01*
X202644286Y-79004820D02*
X203072857Y-80004820D01*
%TO.C,R717*%
D11*
X199360001Y-74710001D02*
X209500001Y-74710001D01*
X199360001Y-75190001D02*
X199360001Y-74710001D01*
X199360001Y-78070001D02*
X199360001Y-78550001D01*
X199360001Y-78550001D02*
X209500001Y-78550001D01*
X209500001Y-74710001D02*
X209500001Y-75190001D01*
X209500001Y-78550001D02*
X209500001Y-78070001D01*
%TD*%
%LPC*%
D12*
%TO.C,C731*%
X152080001Y-46410001D03*
X157080001Y-46410001D03*
%TD*%
D13*
%TO.C,R718*%
X118920001Y-61380001D03*
X131620001Y-61380001D03*
%TD*%
D14*
%TO.C,LCDDisplay701*%
X188130001Y-94255001D03*
D15*
X190670001Y-94255001D03*
X193210001Y-94255001D03*
X195750001Y-94255001D03*
X198290001Y-94255001D03*
X200830001Y-94255001D03*
X203370001Y-94255001D03*
X205910001Y-94255001D03*
X208450001Y-94255001D03*
X210990001Y-94255001D03*
X213530001Y-94255001D03*
X216070001Y-94255001D03*
X218610001Y-94255001D03*
X221150001Y-94255001D03*
X223690001Y-94255001D03*
%TD*%
D12*
%TO.C,R713*%
X102980001Y-77130001D03*
X90280001Y-77130001D03*
%TD*%
D16*
%TO.C,H11*%
X236290001Y-100180001D03*
%TD*%
D13*
%TO.C,F701*%
X221420001Y-61275001D03*
X221420001Y-48575001D03*
%TD*%
D12*
%TO.C,R714*%
X102130001Y-82280001D03*
X89430001Y-82280001D03*
%TD*%
D17*
%TO.C,C704*%
X105380001Y-59230001D03*
D12*
X107380001Y-59230001D03*
%TD*%
%TO.C,C728*%
X178430001Y-81580001D03*
X183430001Y-81580001D03*
%TD*%
%TO.C,C724*%
X160930001Y-37980001D03*
X165930001Y-37980001D03*
%TD*%
%TO.C,C702*%
X101880001Y-71230001D03*
X106880001Y-71230001D03*
%TD*%
D16*
%TO.C,H11*%
X146590001Y-100220001D03*
%TD*%
%TO.C,H11*%
X60670001Y-100200001D03*
%TD*%
D12*
%TO.C,C736*%
X141830001Y-39340001D03*
X141830001Y-44340001D03*
%TD*%
D18*
%TO.C,C721*%
X181230001Y-57330001D03*
D12*
X181230001Y-53830001D03*
%TD*%
%TO.C,R715*%
X100480001Y-86830001D03*
X87780001Y-86830001D03*
%TD*%
%TO.C,C701*%
X97080001Y-65930001D03*
X102080001Y-65930001D03*
%TD*%
%TO.C,C730*%
X146640001Y-33260001D03*
X141640001Y-33260001D03*
%TD*%
%TO.C,C737*%
X138970001Y-47220001D03*
X138970001Y-52220001D03*
%TD*%
D19*
%TO.C,C710*%
X64480001Y-58730001D03*
D12*
X62480001Y-58730001D03*
%TD*%
D20*
%TO.C,J701*%
X66480001Y-68880001D03*
D21*
X66480001Y-73960001D03*
%TD*%
D12*
%TO.C,C719*%
X114980001Y-74330001D03*
X114980001Y-79330001D03*
%TD*%
D19*
%TO.C,C741*%
X215195001Y-52275001D03*
D12*
X211695001Y-52275001D03*
%TD*%
D22*
%TO.C,J703*%
X107540001Y-49430001D03*
D21*
X102460001Y-49430001D03*
X97380001Y-49430001D03*
%TD*%
D12*
%TO.C,C722*%
X187695001Y-62450001D03*
X182695001Y-62450001D03*
%TD*%
D16*
%TO.C,A701*%
X121280001Y-71730001D03*
X121280001Y-97330001D03*
X169880001Y-71730001D03*
X169880001Y-97330001D03*
D23*
X120180001Y-92030001D03*
D24*
X120180001Y-89490001D03*
X120180001Y-86950001D03*
X120180001Y-77130001D03*
X120180001Y-79670001D03*
X120180001Y-82210001D03*
X131580001Y-70630001D03*
X131580001Y-73170001D03*
X134120001Y-70630001D03*
X134120001Y-73170001D03*
X136660001Y-70630001D03*
X136660001Y-73170001D03*
X139200001Y-70630001D03*
X139200001Y-73170001D03*
X156980001Y-94790001D03*
X168440001Y-87070001D03*
X170980001Y-87070001D03*
X168440001Y-84530001D03*
X170980001Y-84530001D03*
X141740001Y-70630001D03*
X141740001Y-73170001D03*
X156980001Y-97330001D03*
X168440001Y-81990001D03*
X170980001Y-81990001D03*
%TD*%
D25*
%TO.C,J702*%
X233020001Y-58180001D03*
D21*
X233020001Y-53100001D03*
%TD*%
D12*
%TO.C,C742*%
X213920001Y-61625001D03*
X208920001Y-61625001D03*
%TD*%
D26*
%TO.C,U705*%
X209380001Y-38880001D03*
D27*
X209380001Y-24880001D03*
X173380001Y-38880001D03*
X173380001Y-24880001D03*
%TD*%
D28*
%TO.C,U704*%
X202620001Y-53110001D03*
D29*
X202620001Y-55650001D03*
X202620001Y-58190001D03*
%TD*%
D16*
%TO.C,H11*%
X134840001Y-23510001D03*
%TD*%
D12*
%TO.C,C720*%
X114980001Y-94330001D03*
X114980001Y-89330001D03*
%TD*%
D30*
%TO.C,A702*%
X188135001Y-85680001D03*
D12*
X190675001Y-85680001D03*
D31*
X193215001Y-85680001D03*
D12*
X195755001Y-85680001D03*
X198295001Y-85680001D03*
X200835001Y-85680001D03*
X203375001Y-85680001D03*
D31*
X205915001Y-85680001D03*
D12*
X208455001Y-85680001D03*
X210995001Y-85680001D03*
X213535001Y-85680001D03*
X216075001Y-85680001D03*
D31*
X218615001Y-85680001D03*
D12*
X221155001Y-85680001D03*
X223695001Y-85680001D03*
X226235001Y-85680001D03*
X228775001Y-85680001D03*
D31*
X231315001Y-85680001D03*
D12*
X233855001Y-85680001D03*
X236395001Y-85680001D03*
X236395001Y-67900001D03*
X233855001Y-67900001D03*
D32*
X231315001Y-67900001D03*
D12*
X228775001Y-67900001D03*
X226235001Y-67900001D03*
X223695001Y-67900001D03*
X221155001Y-67900001D03*
D32*
X218615001Y-67900001D03*
D12*
X216075001Y-67900001D03*
X213535001Y-67900001D03*
X210995001Y-67900001D03*
X208455001Y-67900001D03*
D32*
X205915001Y-67900001D03*
D12*
X203375001Y-67900001D03*
X200835001Y-67900001D03*
X198295001Y-67900001D03*
X195755001Y-67900001D03*
D32*
X193215001Y-67900001D03*
D12*
X190675001Y-67900001D03*
X188135001Y-67900001D03*
%TD*%
%TO.C,R716*%
X100480001Y-92330001D03*
X87780001Y-92330001D03*
%TD*%
D33*
%TO.C,C709*%
X88130001Y-58630001D03*
D12*
X88130001Y-60630001D03*
%TD*%
D17*
%TO.C,C707*%
X81980001Y-80730001D03*
D12*
X83980001Y-80730001D03*
%TD*%
D19*
%TO.C,C708*%
X61880001Y-83880001D03*
D12*
X59880001Y-83880001D03*
%TD*%
D19*
%TO.C,C729*%
X182920001Y-94275001D03*
D12*
X180420001Y-94275001D03*
%TD*%
%TO.C,C738*%
X160880001Y-54950001D03*
X160880001Y-59950001D03*
%TD*%
%TO.C,C735*%
X143740001Y-29350001D03*
X143740001Y-24350001D03*
%TD*%
%TO.C,C725*%
X160920001Y-29280001D03*
X165920001Y-29280001D03*
%TD*%
D19*
%TO.C,C703*%
X97080001Y-59780001D03*
D12*
X95080001Y-59780001D03*
%TD*%
D16*
%TO.C,H11*%
X236280001Y-23510001D03*
%TD*%
D12*
%TO.C,R719*%
X136555001Y-62905001D03*
X149255001Y-62905001D03*
%TD*%
D16*
%TO.C,H11*%
X60700001Y-23500001D03*
%TD*%
D13*
%TO.C,R717*%
X198080001Y-76630001D03*
X210780001Y-76630001D03*
%TD*%
%LPD*%
M02*
