%TF.GenerationSoftware,KiCad,Pcbnew,10.0.1*%
%TF.CreationDate,2026-07-31T14:22:47+09:00*%
%TF.ProjectId,AudioCase_6_measurement_adc,41756469-6f43-4617-9365-5f365f6d6561,rev?*%
%TF.SameCoordinates,Original*%
%TF.FileFunction,Soldermask,Top*%
%TF.FilePolarity,Negative*%
%FSLAX46Y46*%
G04 Gerber Fmt 4.6, Leading zero omitted, Abs format (unit mm)*
G04 Created by KiCad (PCBNEW 10.0.1) date 2026-07-31 14:22:47*
%MOMM*%
%LPD*%
G01*
G04 APERTURE LIST*
G04 Aperture macros list*
%AMRoundRect*
0 Rectangle with rounded corners*
0 $1 Rounding radius*
0 $2 $3 $4 $5 $6 $7 $8 $9 X,Y pos of 4 corners*
0 Add a 4 corners polygon primitive as box body*
4,1,4,$2,$3,$4,$5,$6,$7,$8,$9,$2,$3,0*
0 Add four circle primitives for the rounded corners*
1,1,$1+$1,$2,$3*
1,1,$1+$1,$4,$5*
1,1,$1+$1,$6,$7*
1,1,$1+$1,$8,$9*
0 Add four rect primitives between the rounded corners*
20,1,$1+$1,$2,$3,$4,$5,0*
20,1,$1+$1,$4,$5,$6,$7,0*
20,1,$1+$1,$6,$7,$8,$9,0*
20,1,$1+$1,$8,$9,$2,$3,0*%
%AMFreePoly0*
4,1,37,0.603843,0.796157,0.639018,0.796157,0.711114,0.766294,0.766294,0.711114,0.796157,0.639018,0.796157,0.603843,0.800000,0.600000,0.800000,-0.600000,0.796157,-0.603843,0.796157,-0.639018,0.766294,-0.711114,0.711114,-0.766294,0.639018,-0.796157,0.603843,-0.796157,0.600000,-0.800000,0.000000,-0.800000,0.000000,-0.796148,-0.078414,-0.796148,-0.232228,-0.765552,-0.377117,-0.705537,
-0.507515,-0.618408,-0.618408,-0.507515,-0.705537,-0.377117,-0.765552,-0.232228,-0.796148,-0.078414,-0.796148,0.078414,-0.765552,0.232228,-0.705537,0.377117,-0.618408,0.507515,-0.507515,0.618408,-0.377117,0.705537,-0.232228,0.765552,-0.078414,0.796148,0.000000,0.796148,0.000000,0.800000,0.600000,0.800000,0.603843,0.796157,0.603843,0.796157,$1*%
%AMFreePoly1*
4,1,37,0.000000,0.796148,0.078414,0.796148,0.232228,0.765552,0.377117,0.705537,0.507515,0.618408,0.618408,0.507515,0.705537,0.377117,0.765552,0.232228,0.796148,0.078414,0.796148,-0.078414,0.765552,-0.232228,0.705537,-0.377117,0.618408,-0.507515,0.507515,-0.618408,0.377117,-0.705537,0.232228,-0.765552,0.078414,-0.796148,0.000000,-0.796148,0.000000,-0.800000,-0.600000,-0.800000,
-0.603843,-0.796157,-0.639018,-0.796157,-0.711114,-0.766294,-0.766294,-0.711114,-0.796157,-0.639018,-0.796157,-0.603843,-0.800000,-0.600000,-0.800000,0.600000,-0.796157,0.603843,-0.796157,0.639018,-0.766294,0.711114,-0.711114,0.766294,-0.639018,0.796157,-0.603843,0.796157,-0.600000,0.800000,0.000000,0.800000,0.000000,0.796148,0.000000,0.796148,$1*%
G04 Aperture macros list end*
%ADD10RoundRect,0.250000X0.650000X-0.412500X0.650000X0.412500X-0.650000X0.412500X-0.650000X-0.412500X0*%
%ADD11C,1.600000*%
%ADD12C,2.400000*%
%ADD13R,1.700000X1.700000*%
%ADD14C,1.700000*%
%ADD15C,3.200000*%
%ADD16RoundRect,0.250000X-0.625000X0.400000X-0.625000X-0.400000X0.625000X-0.400000X0.625000X0.400000X0*%
%ADD17RoundRect,0.250000X0.625000X-0.400000X0.625000X0.400000X-0.625000X0.400000X-0.625000X-0.400000X0*%
%ADD18RoundRect,0.250000X-0.550000X-0.550000X0.550000X-0.550000X0.550000X0.550000X-0.550000X0.550000X0*%
%ADD19RoundRect,0.252000X0.873000X0.648000X-0.873000X0.648000X-0.873000X-0.648000X0.873000X-0.648000X0*%
%ADD20RoundRect,0.250000X0.400000X0.625000X-0.400000X0.625000X-0.400000X-0.625000X0.400000X-0.625000X0*%
%ADD21RoundRect,0.250000X0.412500X0.650000X-0.412500X0.650000X-0.412500X-0.650000X0.412500X-0.650000X0*%
%ADD22RoundRect,0.150000X-0.825000X-0.150000X0.825000X-0.150000X0.825000X0.150000X-0.825000X0.150000X0*%
%ADD23RoundRect,0.250000X-0.650000X0.412500X-0.650000X-0.412500X0.650000X-0.412500X0.650000X0.412500X0*%
%ADD24RoundRect,0.150000X0.512500X0.150000X-0.512500X0.150000X-0.512500X-0.150000X0.512500X-0.150000X0*%
%ADD25RoundRect,0.250000X0.550000X-0.550000X0.550000X0.550000X-0.550000X0.550000X-0.550000X-0.550000X0*%
%ADD26RoundRect,0.150000X-0.150000X0.825000X-0.150000X-0.825000X0.150000X-0.825000X0.150000X0.825000X0*%
%ADD27RoundRect,0.250000X0.550000X0.550000X-0.550000X0.550000X-0.550000X-0.550000X0.550000X-0.550000X0*%
%ADD28RoundRect,0.162500X0.162500X-0.617500X0.162500X0.617500X-0.162500X0.617500X-0.162500X-0.617500X0*%
%ADD29RoundRect,0.250000X-0.412500X-0.650000X0.412500X-0.650000X0.412500X0.650000X-0.412500X0.650000X0*%
%ADD30RoundRect,0.250000X-1.050000X1.050000X-1.050000X-1.050000X1.050000X-1.050000X1.050000X1.050000X0*%
%ADD31C,2.600000*%
%ADD32RoundRect,0.250000X1.050000X1.050000X-1.050000X1.050000X-1.050000X-1.050000X1.050000X-1.050000X0*%
%ADD33R,1.800000X1.800000*%
%ADD34C,1.800000*%
%ADD35RoundRect,0.250000X1.050000X-1.050000X1.050000X1.050000X-1.050000X1.050000X-1.050000X-1.050000X0*%
%ADD36R,2.200000X2.200000*%
%ADD37C,2.200000*%
%ADD38R,2.000000X2.000000*%
%ADD39C,2.000000*%
%ADD40RoundRect,0.150000X0.825000X0.150000X-0.825000X0.150000X-0.825000X-0.150000X0.825000X-0.150000X0*%
%ADD41RoundRect,0.200000X0.600000X-0.600000X0.600000X0.600000X-0.600000X0.600000X-0.600000X-0.600000X0*%
%ADD42FreePoly0,90.000000*%
%ADD43FreePoly1,90.000000*%
%ADD44RoundRect,0.250000X-0.550000X0.550000X-0.550000X-0.550000X0.550000X-0.550000X0.550000X0.550000X0*%
G04 APERTURE END LIST*
D10*
%TO.C,C740*%
X156410001Y-59952501D03*
X156410001Y-56827501D03*
%TD*%
D11*
%TO.C,C731*%
X152080001Y-46410001D03*
X157080001Y-46410001D03*
%TD*%
D12*
%TO.C,R718*%
X118920001Y-61380001D03*
X131620001Y-61380001D03*
%TD*%
D13*
%TO.C,LCDDisplay701*%
X188130001Y-94255001D03*
D14*
X190670001Y-94255001D03*
X193210001Y-94255001D03*
X195750001Y-94255001D03*
X198290001Y-94255001D03*
X200830001Y-94255001D03*
X203370001Y-94255001D03*
X205910001Y-94255001D03*
X208450001Y-94255001D03*
X210990001Y-94255001D03*
X213530001Y-94255001D03*
X216070001Y-94255001D03*
X218610001Y-94255001D03*
X221150001Y-94255001D03*
X223690001Y-94255001D03*
%TD*%
D11*
%TO.C,R713*%
X102980001Y-77130001D03*
X90280001Y-77130001D03*
%TD*%
D15*
%TO.C,H11*%
X236290001Y-100180001D03*
%TD*%
D12*
%TO.C,F701*%
X221420001Y-61275001D03*
X221420001Y-48575001D03*
%TD*%
D11*
%TO.C,R714*%
X102130001Y-82280001D03*
X89430001Y-82280001D03*
%TD*%
D16*
%TO.C,R707*%
X81980001Y-57630001D03*
X81980001Y-60730001D03*
%TD*%
D17*
%TO.C,R706*%
X66080001Y-85130001D03*
X66080001Y-82030001D03*
%TD*%
D18*
%TO.C,C704*%
X105380001Y-59230001D03*
D11*
X107380001Y-59230001D03*
%TD*%
%TO.C,C728*%
X178430001Y-81580001D03*
X183430001Y-81580001D03*
%TD*%
%TO.C,C724*%
X160930001Y-37980001D03*
X165930001Y-37980001D03*
%TD*%
D10*
%TO.C,C706*%
X74880001Y-72892501D03*
X74880001Y-69767501D03*
%TD*%
D11*
%TO.C,C702*%
X101880001Y-71230001D03*
X106880001Y-71230001D03*
%TD*%
D19*
%TO.C,Y701*%
X126520001Y-51640001D03*
X126520001Y-55040001D03*
X121670001Y-55040001D03*
X121670001Y-51640001D03*
%TD*%
D20*
%TO.C,R702*%
X69580001Y-64130001D03*
X66480001Y-64130001D03*
%TD*%
D10*
%TO.C,C732*%
X148430001Y-29330001D03*
X148430001Y-26205001D03*
%TD*%
D21*
%TO.C,C717*%
X68930001Y-95780001D03*
X65805001Y-95780001D03*
%TD*%
D10*
%TO.C,C715*%
X80780001Y-91955001D03*
X80780001Y-88830001D03*
%TD*%
D22*
%TO.C,U707*%
X152075001Y-38095001D03*
X152075001Y-39365001D03*
X152075001Y-40635001D03*
X152075001Y-41905001D03*
X157025001Y-41905001D03*
X157025001Y-40635001D03*
X157025001Y-39365001D03*
X157025001Y-38095001D03*
%TD*%
D15*
%TO.C,H11*%
X146590001Y-100220001D03*
%TD*%
D10*
%TO.C,C716*%
X61567501Y-92242501D03*
X61567501Y-89117501D03*
%TD*%
D15*
%TO.C,H11*%
X60670001Y-100200001D03*
%TD*%
D21*
%TO.C,C734*%
X183080001Y-86855001D03*
X179955001Y-86855001D03*
%TD*%
D11*
%TO.C,C736*%
X141830001Y-39340001D03*
X141830001Y-44340001D03*
%TD*%
D10*
%TO.C,C714*%
X65180001Y-54180001D03*
X65180001Y-51055001D03*
%TD*%
D23*
%TO.C,C739*%
X138940001Y-54630001D03*
X138940001Y-57755001D03*
%TD*%
D24*
%TO.C,U710*%
X145567501Y-57612501D03*
X145567501Y-56662501D03*
X145567501Y-55712501D03*
X143292501Y-55712501D03*
X143292501Y-56662501D03*
X143292501Y-57612501D03*
%TD*%
%TO.C,U709*%
X145627501Y-53162501D03*
X145627501Y-52212501D03*
X145627501Y-51262501D03*
X143352501Y-51262501D03*
X143352501Y-52212501D03*
X143352501Y-53162501D03*
%TD*%
D17*
%TO.C,R712*%
X65267501Y-92180001D03*
X65267501Y-89080001D03*
%TD*%
D25*
%TO.C,C721*%
X181230001Y-57330001D03*
D11*
X181230001Y-53830001D03*
%TD*%
%TO.C,R715*%
X100480001Y-86830001D03*
X87780001Y-86830001D03*
%TD*%
D23*
%TO.C,C733*%
X146180001Y-39337501D03*
X146180001Y-42462501D03*
%TD*%
D11*
%TO.C,C701*%
X97080001Y-65930001D03*
X102080001Y-65930001D03*
%TD*%
D26*
%TO.C,U701*%
X81835001Y-68855001D03*
X80565001Y-68855001D03*
X79295001Y-68855001D03*
X78025001Y-68855001D03*
X78025001Y-73805001D03*
X79295001Y-73805001D03*
X80565001Y-73805001D03*
X81835001Y-73805001D03*
%TD*%
D11*
%TO.C,C730*%
X146640001Y-33260001D03*
X141640001Y-33260001D03*
%TD*%
%TO.C,C737*%
X138970001Y-47220001D03*
X138970001Y-52220001D03*
%TD*%
D27*
%TO.C,C710*%
X64480001Y-58730001D03*
D11*
X62480001Y-58730001D03*
%TD*%
D28*
%TO.C,U708*%
X181155001Y-73805001D03*
X182105001Y-73805001D03*
X183055001Y-73805001D03*
X183055001Y-71105001D03*
X181155001Y-71105001D03*
%TD*%
D29*
%TO.C,C718*%
X70505001Y-84930001D03*
X73630001Y-84930001D03*
%TD*%
D30*
%TO.C,J701*%
X66480001Y-68880001D03*
D31*
X66480001Y-73960001D03*
%TD*%
D20*
%TO.C,R708*%
X70980001Y-58780001D03*
X67880001Y-58780001D03*
%TD*%
D11*
%TO.C,C719*%
X114980001Y-74330001D03*
X114980001Y-79330001D03*
%TD*%
D27*
%TO.C,C741*%
X215195001Y-52275001D03*
D11*
X211695001Y-52275001D03*
%TD*%
D32*
%TO.C,J703*%
X107540001Y-49430001D03*
D31*
X102460001Y-49430001D03*
X97380001Y-49430001D03*
%TD*%
D11*
%TO.C,C722*%
X187695001Y-62450001D03*
X182695001Y-62450001D03*
%TD*%
D15*
%TO.C,A701*%
X121280001Y-71730001D03*
X121280001Y-97330001D03*
X169880001Y-71730001D03*
X169880001Y-97330001D03*
D33*
X120180001Y-92030001D03*
D34*
X120180001Y-89490001D03*
X120180001Y-86950001D03*
X120180001Y-77130001D03*
X120180001Y-79670001D03*
X120180001Y-82210001D03*
X131580001Y-70630001D03*
X131580001Y-73170001D03*
X134120001Y-70630001D03*
X134120001Y-73170001D03*
X136660001Y-70630001D03*
X136660001Y-73170001D03*
X139200001Y-70630001D03*
X139200001Y-73170001D03*
X156980001Y-94790001D03*
X168440001Y-87070001D03*
X170980001Y-87070001D03*
X168440001Y-84530001D03*
X170980001Y-84530001D03*
X141740001Y-70630001D03*
X141740001Y-73170001D03*
X156980001Y-97330001D03*
X168440001Y-81990001D03*
X170980001Y-81990001D03*
%TD*%
D17*
%TO.C,R710*%
X68880001Y-54192501D03*
X68880001Y-51092501D03*
%TD*%
D35*
%TO.C,J702*%
X233020001Y-58180001D03*
D31*
X233020001Y-53100001D03*
%TD*%
D17*
%TO.C,R711*%
X78180001Y-91880001D03*
X78180001Y-88780001D03*
%TD*%
D11*
%TO.C,C742*%
X213920001Y-61625001D03*
X208920001Y-61625001D03*
%TD*%
D36*
%TO.C,U705*%
X209380001Y-38880001D03*
D37*
X209380001Y-24880001D03*
X173380001Y-38880001D03*
X173380001Y-24880001D03*
%TD*%
D20*
%TO.C,R703*%
X76780001Y-79230001D03*
X73680001Y-79230001D03*
%TD*%
D10*
%TO.C,C705*%
X84680001Y-73792501D03*
X84680001Y-70667501D03*
%TD*%
D38*
%TO.C,U704*%
X202620001Y-53110001D03*
D39*
X202620001Y-55650001D03*
X202620001Y-58190001D03*
%TD*%
D15*
%TO.C,H11*%
X134840001Y-23510001D03*
%TD*%
D11*
%TO.C,C720*%
X114980001Y-94330001D03*
X114980001Y-89330001D03*
%TD*%
D21*
%TO.C,C723*%
X188942501Y-48905001D03*
X185817501Y-48905001D03*
%TD*%
D20*
%TO.C,R705*%
X80730001Y-84930001D03*
X77630001Y-84930001D03*
%TD*%
D29*
%TO.C,C726*%
X160950001Y-42140001D03*
X164075001Y-42140001D03*
%TD*%
D20*
%TO.C,R701*%
X69680001Y-79230001D03*
X66580001Y-79230001D03*
%TD*%
D29*
%TO.C,C712*%
X76317501Y-47100001D03*
X79442501Y-47100001D03*
%TD*%
D40*
%TO.C,U702*%
X79830001Y-54290001D03*
X79830001Y-53020001D03*
X79830001Y-51750001D03*
X79830001Y-50480001D03*
X74880001Y-50480001D03*
X74880001Y-51750001D03*
X74880001Y-53020001D03*
X74880001Y-54290001D03*
%TD*%
D41*
%TO.C,A702*%
X188135001Y-85680001D03*
D11*
X190675001Y-85680001D03*
D42*
X193215001Y-85680001D03*
D11*
X195755001Y-85680001D03*
X198295001Y-85680001D03*
X200835001Y-85680001D03*
X203375001Y-85680001D03*
D42*
X205915001Y-85680001D03*
D11*
X208455001Y-85680001D03*
X210995001Y-85680001D03*
X213535001Y-85680001D03*
X216075001Y-85680001D03*
D42*
X218615001Y-85680001D03*
D11*
X221155001Y-85680001D03*
X223695001Y-85680001D03*
X226235001Y-85680001D03*
X228775001Y-85680001D03*
D42*
X231315001Y-85680001D03*
D11*
X233855001Y-85680001D03*
X236395001Y-85680001D03*
X236395001Y-67900001D03*
X233855001Y-67900001D03*
D43*
X231315001Y-67900001D03*
D11*
X228775001Y-67900001D03*
X226235001Y-67900001D03*
X223695001Y-67900001D03*
X221155001Y-67900001D03*
D43*
X218615001Y-67900001D03*
D11*
X216075001Y-67900001D03*
X213535001Y-67900001D03*
X210995001Y-67900001D03*
X208455001Y-67900001D03*
D43*
X205915001Y-67900001D03*
D11*
X203375001Y-67900001D03*
X200835001Y-67900001D03*
X198295001Y-67900001D03*
X195755001Y-67900001D03*
D43*
X193215001Y-67900001D03*
D11*
X190675001Y-67900001D03*
X188135001Y-67900001D03*
%TD*%
%TO.C,R716*%
X100480001Y-92330001D03*
X87780001Y-92330001D03*
%TD*%
D44*
%TO.C,C709*%
X88130001Y-58630001D03*
D11*
X88130001Y-60630001D03*
%TD*%
D20*
%TO.C,R704*%
X76480001Y-63930001D03*
X73380001Y-63930001D03*
%TD*%
D29*
%TO.C,C727*%
X161897501Y-24700001D03*
X165022501Y-24700001D03*
%TD*%
D18*
%TO.C,C707*%
X81980001Y-80730001D03*
D11*
X83980001Y-80730001D03*
%TD*%
D27*
%TO.C,C708*%
X61880001Y-83880001D03*
D11*
X59880001Y-83880001D03*
%TD*%
D27*
%TO.C,C729*%
X182920001Y-94275001D03*
D11*
X180420001Y-94275001D03*
%TD*%
%TO.C,C738*%
X160880001Y-54950001D03*
X160880001Y-59950001D03*
%TD*%
D40*
%TO.C,U703*%
X74217501Y-92290001D03*
X74217501Y-91020001D03*
X74217501Y-89750001D03*
X74217501Y-88480001D03*
X69267501Y-88480001D03*
X69267501Y-89750001D03*
X69267501Y-91020001D03*
X69267501Y-92290001D03*
%TD*%
D10*
%TO.C,C713*%
X87730001Y-53942501D03*
X87730001Y-50817501D03*
%TD*%
D29*
%TO.C,C711*%
X75167501Y-57650001D03*
X78292501Y-57650001D03*
%TD*%
D22*
%TO.C,U706*%
X151900001Y-29320001D03*
X151900001Y-30590001D03*
X151900001Y-31860001D03*
X151900001Y-33130001D03*
X156850001Y-33130001D03*
X156850001Y-31860001D03*
X156850001Y-30590001D03*
X156850001Y-29320001D03*
%TD*%
D11*
%TO.C,C735*%
X143740001Y-29350001D03*
X143740001Y-24350001D03*
%TD*%
%TO.C,C725*%
X160920001Y-29280001D03*
X165920001Y-29280001D03*
%TD*%
D27*
%TO.C,C703*%
X97080001Y-59780001D03*
D11*
X95080001Y-59780001D03*
%TD*%
D15*
%TO.C,H11*%
X236280001Y-23510001D03*
%TD*%
D11*
%TO.C,R719*%
X136555001Y-62905001D03*
X149255001Y-62905001D03*
%TD*%
D15*
%TO.C,H11*%
X60700001Y-23500001D03*
%TD*%
D17*
%TO.C,R709*%
X84080001Y-53980001D03*
X84080001Y-50880001D03*
%TD*%
D12*
%TO.C,R717*%
X198080001Y-76630001D03*
X210780001Y-76630001D03*
%TD*%
M02*
