%TF.GenerationSoftware,KiCad,Pcbnew,10.0.1*%
%TF.CreationDate,2026-07-31T14:19:39+09:00*%
%TF.ProjectId,AudioCase_6_measurement_adc,41756469-6f43-4617-9365-5f365f6d6561,rev?*%
%TF.SameCoordinates,Original*%
%TF.FileFunction,Paste,Top*%
%TF.FilePolarity,Positive*%
%FSLAX46Y46*%
G04 Gerber Fmt 4.6, Leading zero omitted, Abs format (unit mm)*
G04 Created by KiCad (PCBNEW 10.0.1) date 2026-07-31 14:19:39*
%MOMM*%
%LPD*%
G01*
G04 APERTURE LIST*
G04 Aperture macros list*
%AMRoundRect*
0 Rectangle with rounded corners*
0 $1 Rounding radius*
0 $2 $3 $4 $5 $6 $7 $8 $9 X,Y pos of 4 corners*
0 Add a 4 corners polygon primitive as box body*
4,1,4,$2,$3,$4,$5,$6,$7,$8,$9,$2,$3,0*
0 Add four circle primitives for the rounded corners*
1,1,$1+$1,$2,$3*
1,1,$1+$1,$4,$5*
1,1,$1+$1,$6,$7*
1,1,$1+$1,$8,$9*
0 Add four rect primitives between the rounded corners*
20,1,$1+$1,$2,$3,$4,$5,0*
20,1,$1+$1,$4,$5,$6,$7,0*
20,1,$1+$1,$6,$7,$8,$9,0*
20,1,$1+$1,$8,$9,$2,$3,0*%
G04 Aperture macros list end*
%ADD10RoundRect,0.250000X0.650000X-0.412500X0.650000X0.412500X-0.650000X0.412500X-0.650000X-0.412500X0*%
%ADD11RoundRect,0.150000X-0.825000X-0.150000X0.825000X-0.150000X0.825000X0.150000X-0.825000X0.150000X0*%
%ADD12RoundRect,0.150000X0.512500X0.150000X-0.512500X0.150000X-0.512500X-0.150000X0.512500X-0.150000X0*%
%ADD13RoundRect,0.250000X0.400000X0.625000X-0.400000X0.625000X-0.400000X-0.625000X0.400000X-0.625000X0*%
%ADD14RoundRect,0.150000X0.825000X0.150000X-0.825000X0.150000X-0.825000X-0.150000X0.825000X-0.150000X0*%
%ADD15RoundRect,0.250000X0.625000X-0.400000X0.625000X0.400000X-0.625000X0.400000X-0.625000X-0.400000X0*%
%ADD16RoundRect,0.250000X-0.650000X0.412500X-0.650000X-0.412500X0.650000X-0.412500X0.650000X0.412500X0*%
%ADD17RoundRect,0.250000X-0.625000X0.400000X-0.625000X-0.400000X0.625000X-0.400000X0.625000X0.400000X0*%
%ADD18RoundRect,0.162500X0.162500X-0.617500X0.162500X0.617500X-0.162500X0.617500X-0.162500X-0.617500X0*%
%ADD19RoundRect,0.250000X0.412500X0.650000X-0.412500X0.650000X-0.412500X-0.650000X0.412500X-0.650000X0*%
%ADD20RoundRect,0.250000X-0.412500X-0.650000X0.412500X-0.650000X0.412500X0.650000X-0.412500X0.650000X0*%
%ADD21RoundRect,0.150000X-0.150000X0.825000X-0.150000X-0.825000X0.150000X-0.825000X0.150000X0.825000X0*%
%ADD22RoundRect,0.252000X0.873000X0.648000X-0.873000X0.648000X-0.873000X-0.648000X0.873000X-0.648000X0*%
G04 APERTURE END LIST*
D10*
%TO.C,C740*%
X156410001Y-59952501D03*
X156410001Y-56827501D03*
%TD*%
%TO.C,C705*%
X84680001Y-73792501D03*
X84680001Y-70667501D03*
%TD*%
D11*
%TO.C,U707*%
X152075001Y-38095001D03*
X152075001Y-39365001D03*
X152075001Y-40635001D03*
X152075001Y-41905001D03*
X157025001Y-41905001D03*
X157025001Y-40635001D03*
X157025001Y-39365001D03*
X157025001Y-38095001D03*
%TD*%
D12*
%TO.C,U710*%
X145567501Y-57612501D03*
X145567501Y-56662501D03*
X145567501Y-55712501D03*
X143292501Y-55712501D03*
X143292501Y-56662501D03*
X143292501Y-57612501D03*
%TD*%
D13*
%TO.C,R708*%
X70980001Y-58780001D03*
X67880001Y-58780001D03*
%TD*%
D12*
%TO.C,U709*%
X145627501Y-53162501D03*
X145627501Y-52212501D03*
X145627501Y-51262501D03*
X143352501Y-51262501D03*
X143352501Y-52212501D03*
X143352501Y-53162501D03*
%TD*%
D14*
%TO.C,U702*%
X79830001Y-54290001D03*
X79830001Y-53020001D03*
X79830001Y-51750001D03*
X79830001Y-50480001D03*
X74880001Y-50480001D03*
X74880001Y-51750001D03*
X74880001Y-53020001D03*
X74880001Y-54290001D03*
%TD*%
D10*
%TO.C,C714*%
X65180001Y-54180001D03*
X65180001Y-51055001D03*
%TD*%
D14*
%TO.C,U703*%
X74217501Y-92290001D03*
X74217501Y-91020001D03*
X74217501Y-89750001D03*
X74217501Y-88480001D03*
X69267501Y-88480001D03*
X69267501Y-89750001D03*
X69267501Y-91020001D03*
X69267501Y-92290001D03*
%TD*%
D15*
%TO.C,R706*%
X66080001Y-85130001D03*
X66080001Y-82030001D03*
%TD*%
D13*
%TO.C,R704*%
X76480001Y-63930001D03*
X73380001Y-63930001D03*
%TD*%
%TO.C,R705*%
X80730001Y-84930001D03*
X77630001Y-84930001D03*
%TD*%
D16*
%TO.C,C733*%
X146180001Y-39337501D03*
X146180001Y-42462501D03*
%TD*%
D15*
%TO.C,R709*%
X84080001Y-53980001D03*
X84080001Y-50880001D03*
%TD*%
D17*
%TO.C,R707*%
X81980001Y-57630001D03*
X81980001Y-60730001D03*
%TD*%
D10*
%TO.C,C732*%
X148430001Y-29330001D03*
X148430001Y-26205001D03*
%TD*%
D18*
%TO.C,U708*%
X181155001Y-73805001D03*
X182105001Y-73805001D03*
X183055001Y-73805001D03*
X183055001Y-71105001D03*
X181155001Y-71105001D03*
%TD*%
D19*
%TO.C,C734*%
X183080001Y-86855001D03*
X179955001Y-86855001D03*
%TD*%
%TO.C,C717*%
X68930001Y-95780001D03*
X65805001Y-95780001D03*
%TD*%
D10*
%TO.C,C706*%
X74880001Y-72892501D03*
X74880001Y-69767501D03*
%TD*%
D20*
%TO.C,C711*%
X75167501Y-57650001D03*
X78292501Y-57650001D03*
%TD*%
D10*
%TO.C,C716*%
X61567501Y-92242501D03*
X61567501Y-89117501D03*
%TD*%
D19*
%TO.C,C723*%
X188942501Y-48905001D03*
X185817501Y-48905001D03*
%TD*%
D13*
%TO.C,R702*%
X69580001Y-64130001D03*
X66480001Y-64130001D03*
%TD*%
D20*
%TO.C,C718*%
X70505001Y-84930001D03*
X73630001Y-84930001D03*
%TD*%
D13*
%TO.C,R703*%
X76780001Y-79230001D03*
X73680001Y-79230001D03*
%TD*%
D15*
%TO.C,R710*%
X68880001Y-54192501D03*
X68880001Y-51092501D03*
%TD*%
D11*
%TO.C,U706*%
X151900001Y-29320001D03*
X151900001Y-30590001D03*
X151900001Y-31860001D03*
X151900001Y-33130001D03*
X156850001Y-33130001D03*
X156850001Y-31860001D03*
X156850001Y-30590001D03*
X156850001Y-29320001D03*
%TD*%
D15*
%TO.C,R712*%
X65267501Y-92180001D03*
X65267501Y-89080001D03*
%TD*%
D10*
%TO.C,C713*%
X87730001Y-53942501D03*
X87730001Y-50817501D03*
%TD*%
D21*
%TO.C,U701*%
X81835001Y-68855001D03*
X80565001Y-68855001D03*
X79295001Y-68855001D03*
X78025001Y-68855001D03*
X78025001Y-73805001D03*
X79295001Y-73805001D03*
X80565001Y-73805001D03*
X81835001Y-73805001D03*
%TD*%
D16*
%TO.C,C739*%
X138940001Y-54630001D03*
X138940001Y-57755001D03*
%TD*%
D22*
%TO.C,Y701*%
X126520001Y-51640001D03*
X126520001Y-55040001D03*
X121670001Y-55040001D03*
X121670001Y-51640001D03*
%TD*%
D10*
%TO.C,C715*%
X80780001Y-91955001D03*
X80780001Y-88830001D03*
%TD*%
D20*
%TO.C,C712*%
X76317501Y-47100001D03*
X79442501Y-47100001D03*
%TD*%
D13*
%TO.C,R701*%
X69680001Y-79230001D03*
X66580001Y-79230001D03*
%TD*%
D20*
%TO.C,C726*%
X160950001Y-42140001D03*
X164075001Y-42140001D03*
%TD*%
D15*
%TO.C,R711*%
X78180001Y-91880001D03*
X78180001Y-88780001D03*
%TD*%
D20*
%TO.C,C727*%
X161897501Y-24700001D03*
X165022501Y-24700001D03*
%TD*%
M02*
