%TF.GenerationSoftware,KiCad,Pcbnew,10.0.1*%
%TF.CreationDate,2026-04-29T21:41:15+09:00*%
%TF.ProjectId,equalizer,65717561-6c69-47a6-9572-2e6b69636164,rev?*%
%TF.SameCoordinates,Original*%
%TF.FileFunction,Soldermask,Top*%
%TF.FilePolarity,Negative*%
%FSLAX46Y46*%
G04 Gerber Fmt 4.6, Leading zero omitted, Abs format (unit mm)*
G04 Created by KiCad (PCBNEW 10.0.1) date 2026-04-29 21:41:15*
%MOMM*%
%LPD*%
G01*
G04 APERTURE LIST*
G04 Aperture macros list*
%AMRoundRect*
0 Rectangle with rounded corners*
0 $1 Rounding radius*
0 $2 $3 $4 $5 $6 $7 $8 $9 X,Y pos of 4 corners*
0 Add a 4 corners polygon primitive as box body*
4,1,4,$2,$3,$4,$5,$6,$7,$8,$9,$2,$3,0*
0 Add four circle primitives for the rounded corners*
1,1,$1+$1,$2,$3*
1,1,$1+$1,$4,$5*
1,1,$1+$1,$6,$7*
1,1,$1+$1,$8,$9*
0 Add four rect primitives between the rounded corners*
20,1,$1+$1,$2,$3,$4,$5,0*
20,1,$1+$1,$4,$5,$6,$7,0*
20,1,$1+$1,$6,$7,$8,$9,0*
20,1,$1+$1,$8,$9,$2,$3,0*%
G04 Aperture macros list end*
%ADD10C,1.600000*%
%ADD11RoundRect,0.250000X-0.550000X-0.550000X0.550000X-0.550000X0.550000X0.550000X-0.550000X0.550000X0*%
%ADD12C,2.000000*%
%ADD13C,3.200000*%
%ADD14C,2.400000*%
%ADD15RoundRect,0.250000X-1.050000X1.050000X-1.050000X-1.050000X1.050000X-1.050000X1.050000X1.050000X0*%
%ADD16C,2.600000*%
%ADD17RoundRect,0.250001X-0.499999X-0.499999X0.499999X-0.499999X0.499999X0.499999X-0.499999X0.499999X0*%
%ADD18C,1.500000*%
%ADD19RoundRect,0.250000X1.050000X-1.050000X1.050000X1.050000X-1.050000X1.050000X-1.050000X-1.050000X0*%
%ADD20R,1.800000X1.800000*%
%ADD21C,1.800000*%
%ADD22RoundRect,0.500000X-1.000000X0.500000X-1.000000X-0.500000X1.000000X-0.500000X1.000000X0.500000X0*%
%ADD23RoundRect,0.250000X-0.750000X-0.750000X0.750000X-0.750000X0.750000X0.750000X-0.750000X0.750000X0*%
%ADD24RoundRect,0.250000X1.050000X1.050000X-1.050000X1.050000X-1.050000X-1.050000X1.050000X-1.050000X0*%
G04 APERTURE END LIST*
D10*
%TO.C,R12*%
X130640000Y-154040000D03*
X130640000Y-143880000D03*
%TD*%
D11*
%TO.C,U3*%
X130450000Y-120230000D03*
D10*
X130450000Y-122770000D03*
X130450000Y-125310000D03*
X130450000Y-127850000D03*
X138070000Y-127850000D03*
X138070000Y-125310000D03*
X138070000Y-122770000D03*
X138070000Y-120230000D03*
%TD*%
D12*
%TO.C,C19*%
X109530000Y-149860000D03*
X109530000Y-159860000D03*
%TD*%
D10*
%TO.C,C2*%
X44670000Y-128340000D03*
X47170000Y-128340000D03*
%TD*%
%TO.C,R5*%
X58970000Y-155900000D03*
X58970000Y-145740000D03*
%TD*%
D13*
%TO.C,H3*%
X29687253Y-167802251D03*
%TD*%
D12*
%TO.C,C22*%
X152420000Y-145120000D03*
X152420000Y-155120000D03*
%TD*%
D10*
%TO.C,C5*%
X138070000Y-116970000D03*
X140570000Y-116970000D03*
%TD*%
D14*
%TO.C,F1*%
X55210000Y-80270000D03*
X67910000Y-80270000D03*
%TD*%
D10*
%TO.C,C14*%
X103252500Y-91215000D03*
X103252500Y-88715000D03*
%TD*%
D12*
%TO.C,C21*%
X156220000Y-169250000D03*
X156220000Y-159250000D03*
%TD*%
%TO.C,C11*%
X49250000Y-146810000D03*
X49250000Y-156810000D03*
%TD*%
D10*
%TO.C,R13*%
X147220000Y-155280000D03*
X147220000Y-145120000D03*
%TD*%
%TO.C,R14*%
X157700000Y-145100000D03*
X157700000Y-155260000D03*
%TD*%
D13*
%TO.C,H1*%
X164310000Y-73900000D03*
%TD*%
D10*
%TO.C,R10*%
X114740000Y-156580000D03*
X114740000Y-146420000D03*
%TD*%
%TO.C,C8*%
X72570000Y-81810000D03*
X72570000Y-84310000D03*
%TD*%
D15*
%TO.C,J1*%
X34047500Y-120270000D03*
D16*
X34047500Y-125270000D03*
X34047500Y-130270000D03*
%TD*%
D10*
%TO.C,C6*%
X124730000Y-127890000D03*
X127230000Y-127890000D03*
%TD*%
D12*
%TO.C,C17*%
X121220000Y-165130000D03*
X111220000Y-165130000D03*
%TD*%
D11*
%TO.C,U2*%
X95250000Y-125890000D03*
D10*
X95250000Y-128430000D03*
X95250000Y-130970000D03*
X95250000Y-133510000D03*
X102870000Y-133510000D03*
X102870000Y-130970000D03*
X102870000Y-128430000D03*
X102870000Y-125890000D03*
%TD*%
D17*
%TO.C,U4*%
X77890000Y-76890000D03*
D18*
X80430000Y-76890000D03*
X82970000Y-76890000D03*
X88050000Y-76890000D03*
X90590000Y-76890000D03*
X93130000Y-76890000D03*
X95670000Y-76890000D03*
%TD*%
D10*
%TO.C,R11*%
X135180000Y-156065000D03*
X135180000Y-166225000D03*
%TD*%
D19*
%TO.C,J3*%
X159290000Y-129680000D03*
D16*
X159290000Y-124680000D03*
X159290000Y-119680000D03*
%TD*%
D10*
%TO.C,C4*%
X89370000Y-133500000D03*
X91870000Y-133500000D03*
%TD*%
D12*
%TO.C,C16*%
X82880000Y-166330000D03*
X82880000Y-156330000D03*
%TD*%
D20*
%TO.C,RV3*%
X141780000Y-166170000D03*
D21*
X144280000Y-166170000D03*
X146780000Y-166170000D03*
X141780000Y-163670000D03*
X144280000Y-163670000D03*
X146780000Y-163670000D03*
D22*
X139530000Y-160370000D03*
X149030000Y-160370000D03*
%TD*%
D13*
%TO.C,H2*%
X164321522Y-167809387D03*
%TD*%
D10*
%TO.C,C13*%
X103150000Y-83200000D03*
X100650000Y-83200000D03*
%TD*%
D23*
%TO.C,L1*%
X121950000Y-79060000D03*
D12*
X126950000Y-79060000D03*
%TD*%
D10*
%TO.C,R1*%
X41590000Y-120280000D03*
X41590000Y-110120000D03*
%TD*%
D24*
%TO.C,J2*%
X49342500Y-80285000D03*
D16*
X44342500Y-80285000D03*
%TD*%
D12*
%TO.C,C18*%
X120040000Y-159850000D03*
X120040000Y-149850000D03*
%TD*%
D10*
%TO.C,R3*%
X43140000Y-156655000D03*
X43140000Y-166815000D03*
%TD*%
D13*
%TO.C,H4*%
X29810000Y-73960000D03*
%TD*%
D12*
%TO.C,C20*%
X128610000Y-157930000D03*
X128610000Y-167930000D03*
%TD*%
D10*
%TO.C,C3*%
X106170000Y-125890000D03*
X108670000Y-125890000D03*
%TD*%
D12*
%TO.C,C10*%
X64460000Y-147860000D03*
X64460000Y-157860000D03*
%TD*%
D10*
%TO.C,C15*%
X97722500Y-91255000D03*
X97722500Y-88755000D03*
%TD*%
%TO.C,R2*%
X41520000Y-140450000D03*
X41520000Y-130290000D03*
%TD*%
%TO.C,R7*%
X87850000Y-156640000D03*
X87850000Y-166800000D03*
%TD*%
D11*
%TO.C,U1*%
X50240000Y-121080000D03*
D10*
X50240000Y-123620000D03*
X50240000Y-126160000D03*
X50240000Y-128700000D03*
X57860000Y-128700000D03*
X57860000Y-126160000D03*
X57860000Y-123620000D03*
X57860000Y-121080000D03*
%TD*%
%TO.C,R9*%
X96250000Y-156220000D03*
X96250000Y-146060000D03*
%TD*%
D20*
%TO.C,RV2*%
X96350000Y-166725000D03*
D21*
X98850000Y-166725000D03*
X101350000Y-166725000D03*
X96350000Y-164225000D03*
X98850000Y-164225000D03*
X101350000Y-164225000D03*
D22*
X94100000Y-160925000D03*
X103600000Y-160925000D03*
%TD*%
D20*
%TO.C,RV1*%
X49860000Y-166850000D03*
D21*
X52360000Y-166850000D03*
X54860000Y-166850000D03*
X49860000Y-164350000D03*
X52360000Y-164350000D03*
X54860000Y-164350000D03*
D22*
X47610000Y-161050000D03*
X57110000Y-161050000D03*
%TD*%
D23*
%TO.C,L2*%
X109520000Y-79060000D03*
D12*
X114520000Y-79060000D03*
%TD*%
%TO.C,C7*%
X36930000Y-156820000D03*
X36930000Y-166820000D03*
%TD*%
D10*
%TO.C,C1*%
X61100000Y-121020000D03*
X63600000Y-121020000D03*
%TD*%
%TO.C,R4*%
X72230000Y-149590000D03*
X72230000Y-139430000D03*
%TD*%
D12*
%TO.C,C23*%
X141790000Y-144500000D03*
X141790000Y-154500000D03*
%TD*%
D10*
%TO.C,R6*%
X54860000Y-153620000D03*
X54860000Y-143460000D03*
%TD*%
D12*
%TO.C,C9*%
X72160000Y-165275000D03*
X62160000Y-165275000D03*
%TD*%
D10*
%TO.C,R8*%
X90970000Y-150850000D03*
X90970000Y-140690000D03*
%TD*%
%TO.C,C12*%
X103040000Y-76790000D03*
X100540000Y-76790000D03*
%TD*%
M02*
