%TF.GenerationSoftware,KiCad,Pcbnew,10.0.1*%
%TF.CreationDate,2026-04-29T21:41:35+09:00*%
%TF.ProjectId,equalizer,65717561-6c69-47a6-9572-2e6b69636164,rev?*%
%TF.SameCoordinates,Original*%
%TF.FileFunction,Legend,Top*%
%TF.FilePolarity,Positive*%
%FSLAX46Y46*%
G04 Gerber Fmt 4.6, Leading zero omitted, Abs format (unit mm)*
G04 Created by KiCad (PCBNEW 10.0.1) date 2026-04-29 21:41:35*
%MOMM*%
%LPD*%
G01*
G04 APERTURE LIST*
%ADD10C,0.150000*%
%ADD11C,0.120000*%
G04 APERTURE END LIST*
D10*
X131094819Y-149602857D02*
X130618628Y-149936190D01*
X131094819Y-150174285D02*
X130094819Y-150174285D01*
X130094819Y-150174285D02*
X130094819Y-149793333D01*
X130094819Y-149793333D02*
X130142438Y-149698095D01*
X130142438Y-149698095D02*
X130190057Y-149650476D01*
X130190057Y-149650476D02*
X130285295Y-149602857D01*
X130285295Y-149602857D02*
X130428152Y-149602857D01*
X130428152Y-149602857D02*
X130523390Y-149650476D01*
X130523390Y-149650476D02*
X130571009Y-149698095D01*
X130571009Y-149698095D02*
X130618628Y-149793333D01*
X130618628Y-149793333D02*
X130618628Y-150174285D01*
X131094819Y-148650476D02*
X131094819Y-149221904D01*
X131094819Y-148936190D02*
X130094819Y-148936190D01*
X130094819Y-148936190D02*
X130237676Y-149031428D01*
X130237676Y-149031428D02*
X130332914Y-149126666D01*
X130332914Y-149126666D02*
X130380533Y-149221904D01*
X130190057Y-148269523D02*
X130142438Y-148221904D01*
X130142438Y-148221904D02*
X130094819Y-148126666D01*
X130094819Y-148126666D02*
X130094819Y-147888571D01*
X130094819Y-147888571D02*
X130142438Y-147793333D01*
X130142438Y-147793333D02*
X130190057Y-147745714D01*
X130190057Y-147745714D02*
X130285295Y-147698095D01*
X130285295Y-147698095D02*
X130380533Y-147698095D01*
X130380533Y-147698095D02*
X130523390Y-147745714D01*
X130523390Y-147745714D02*
X131094819Y-148317142D01*
X131094819Y-148317142D02*
X131094819Y-147698095D01*
X133598095Y-129604819D02*
X133598095Y-130414342D01*
X133598095Y-130414342D02*
X133645714Y-130509580D01*
X133645714Y-130509580D02*
X133693333Y-130557200D01*
X133693333Y-130557200D02*
X133788571Y-130604819D01*
X133788571Y-130604819D02*
X133979047Y-130604819D01*
X133979047Y-130604819D02*
X134074285Y-130557200D01*
X134074285Y-130557200D02*
X134121904Y-130509580D01*
X134121904Y-130509580D02*
X134169523Y-130414342D01*
X134169523Y-130414342D02*
X134169523Y-129604819D01*
X134550476Y-129604819D02*
X135169523Y-129604819D01*
X135169523Y-129604819D02*
X134836190Y-129985771D01*
X134836190Y-129985771D02*
X134979047Y-129985771D01*
X134979047Y-129985771D02*
X135074285Y-130033390D01*
X135074285Y-130033390D02*
X135121904Y-130081009D01*
X135121904Y-130081009D02*
X135169523Y-130176247D01*
X135169523Y-130176247D02*
X135169523Y-130414342D01*
X135169523Y-130414342D02*
X135121904Y-130509580D01*
X135121904Y-130509580D02*
X135074285Y-130557200D01*
X135074285Y-130557200D02*
X134979047Y-130604819D01*
X134979047Y-130604819D02*
X134693333Y-130604819D01*
X134693333Y-130604819D02*
X134598095Y-130557200D01*
X134598095Y-130557200D02*
X134550476Y-130509580D01*
X109889580Y-155502857D02*
X109937200Y-155550476D01*
X109937200Y-155550476D02*
X109984819Y-155693333D01*
X109984819Y-155693333D02*
X109984819Y-155788571D01*
X109984819Y-155788571D02*
X109937200Y-155931428D01*
X109937200Y-155931428D02*
X109841961Y-156026666D01*
X109841961Y-156026666D02*
X109746723Y-156074285D01*
X109746723Y-156074285D02*
X109556247Y-156121904D01*
X109556247Y-156121904D02*
X109413390Y-156121904D01*
X109413390Y-156121904D02*
X109222914Y-156074285D01*
X109222914Y-156074285D02*
X109127676Y-156026666D01*
X109127676Y-156026666D02*
X109032438Y-155931428D01*
X109032438Y-155931428D02*
X108984819Y-155788571D01*
X108984819Y-155788571D02*
X108984819Y-155693333D01*
X108984819Y-155693333D02*
X109032438Y-155550476D01*
X109032438Y-155550476D02*
X109080057Y-155502857D01*
X109984819Y-154550476D02*
X109984819Y-155121904D01*
X109984819Y-154836190D02*
X108984819Y-154836190D01*
X108984819Y-154836190D02*
X109127676Y-154931428D01*
X109127676Y-154931428D02*
X109222914Y-155026666D01*
X109222914Y-155026666D02*
X109270533Y-155121904D01*
X109984819Y-154074285D02*
X109984819Y-153883809D01*
X109984819Y-153883809D02*
X109937200Y-153788571D01*
X109937200Y-153788571D02*
X109889580Y-153740952D01*
X109889580Y-153740952D02*
X109746723Y-153645714D01*
X109746723Y-153645714D02*
X109556247Y-153598095D01*
X109556247Y-153598095D02*
X109175295Y-153598095D01*
X109175295Y-153598095D02*
X109080057Y-153645714D01*
X109080057Y-153645714D02*
X109032438Y-153693333D01*
X109032438Y-153693333D02*
X108984819Y-153788571D01*
X108984819Y-153788571D02*
X108984819Y-153979047D01*
X108984819Y-153979047D02*
X109032438Y-154074285D01*
X109032438Y-154074285D02*
X109080057Y-154121904D01*
X109080057Y-154121904D02*
X109175295Y-154169523D01*
X109175295Y-154169523D02*
X109413390Y-154169523D01*
X109413390Y-154169523D02*
X109508628Y-154121904D01*
X109508628Y-154121904D02*
X109556247Y-154074285D01*
X109556247Y-154074285D02*
X109603866Y-153979047D01*
X109603866Y-153979047D02*
X109603866Y-153788571D01*
X109603866Y-153788571D02*
X109556247Y-153693333D01*
X109556247Y-153693333D02*
X109508628Y-153645714D01*
X109508628Y-153645714D02*
X109413390Y-153598095D01*
X45703333Y-130899580D02*
X45655714Y-130947200D01*
X45655714Y-130947200D02*
X45512857Y-130994819D01*
X45512857Y-130994819D02*
X45417619Y-130994819D01*
X45417619Y-130994819D02*
X45274762Y-130947200D01*
X45274762Y-130947200D02*
X45179524Y-130851961D01*
X45179524Y-130851961D02*
X45131905Y-130756723D01*
X45131905Y-130756723D02*
X45084286Y-130566247D01*
X45084286Y-130566247D02*
X45084286Y-130423390D01*
X45084286Y-130423390D02*
X45131905Y-130232914D01*
X45131905Y-130232914D02*
X45179524Y-130137676D01*
X45179524Y-130137676D02*
X45274762Y-130042438D01*
X45274762Y-130042438D02*
X45417619Y-129994819D01*
X45417619Y-129994819D02*
X45512857Y-129994819D01*
X45512857Y-129994819D02*
X45655714Y-130042438D01*
X45655714Y-130042438D02*
X45703333Y-130090057D01*
X46084286Y-130090057D02*
X46131905Y-130042438D01*
X46131905Y-130042438D02*
X46227143Y-129994819D01*
X46227143Y-129994819D02*
X46465238Y-129994819D01*
X46465238Y-129994819D02*
X46560476Y-130042438D01*
X46560476Y-130042438D02*
X46608095Y-130090057D01*
X46608095Y-130090057D02*
X46655714Y-130185295D01*
X46655714Y-130185295D02*
X46655714Y-130280533D01*
X46655714Y-130280533D02*
X46608095Y-130423390D01*
X46608095Y-130423390D02*
X46036667Y-130994819D01*
X46036667Y-130994819D02*
X46655714Y-130994819D01*
X59424819Y-150986666D02*
X58948628Y-151319999D01*
X59424819Y-151558094D02*
X58424819Y-151558094D01*
X58424819Y-151558094D02*
X58424819Y-151177142D01*
X58424819Y-151177142D02*
X58472438Y-151081904D01*
X58472438Y-151081904D02*
X58520057Y-151034285D01*
X58520057Y-151034285D02*
X58615295Y-150986666D01*
X58615295Y-150986666D02*
X58758152Y-150986666D01*
X58758152Y-150986666D02*
X58853390Y-151034285D01*
X58853390Y-151034285D02*
X58901009Y-151081904D01*
X58901009Y-151081904D02*
X58948628Y-151177142D01*
X58948628Y-151177142D02*
X58948628Y-151558094D01*
X58424819Y-150081904D02*
X58424819Y-150558094D01*
X58424819Y-150558094D02*
X58901009Y-150605713D01*
X58901009Y-150605713D02*
X58853390Y-150558094D01*
X58853390Y-150558094D02*
X58805771Y-150462856D01*
X58805771Y-150462856D02*
X58805771Y-150224761D01*
X58805771Y-150224761D02*
X58853390Y-150129523D01*
X58853390Y-150129523D02*
X58901009Y-150081904D01*
X58901009Y-150081904D02*
X58996247Y-150034285D01*
X58996247Y-150034285D02*
X59234342Y-150034285D01*
X59234342Y-150034285D02*
X59329580Y-150081904D01*
X59329580Y-150081904D02*
X59377200Y-150129523D01*
X59377200Y-150129523D02*
X59424819Y-150224761D01*
X59424819Y-150224761D02*
X59424819Y-150462856D01*
X59424819Y-150462856D02*
X59377200Y-150558094D01*
X59377200Y-150558094D02*
X59329580Y-150605713D01*
X28925348Y-163557070D02*
X28925348Y-162557070D01*
X28925348Y-163033260D02*
X29496776Y-163033260D01*
X29496776Y-163557070D02*
X29496776Y-162557070D01*
X29877729Y-162557070D02*
X30496776Y-162557070D01*
X30496776Y-162557070D02*
X30163443Y-162938022D01*
X30163443Y-162938022D02*
X30306300Y-162938022D01*
X30306300Y-162938022D02*
X30401538Y-162985641D01*
X30401538Y-162985641D02*
X30449157Y-163033260D01*
X30449157Y-163033260D02*
X30496776Y-163128498D01*
X30496776Y-163128498D02*
X30496776Y-163366593D01*
X30496776Y-163366593D02*
X30449157Y-163461831D01*
X30449157Y-163461831D02*
X30401538Y-163509451D01*
X30401538Y-163509451D02*
X30306300Y-163557070D01*
X30306300Y-163557070D02*
X30020586Y-163557070D01*
X30020586Y-163557070D02*
X29925348Y-163509451D01*
X29925348Y-163509451D02*
X29877729Y-163461831D01*
X152779580Y-150772857D02*
X152827200Y-150820476D01*
X152827200Y-150820476D02*
X152874819Y-150963333D01*
X152874819Y-150963333D02*
X152874819Y-151058571D01*
X152874819Y-151058571D02*
X152827200Y-151201428D01*
X152827200Y-151201428D02*
X152731961Y-151296666D01*
X152731961Y-151296666D02*
X152636723Y-151344285D01*
X152636723Y-151344285D02*
X152446247Y-151391904D01*
X152446247Y-151391904D02*
X152303390Y-151391904D01*
X152303390Y-151391904D02*
X152112914Y-151344285D01*
X152112914Y-151344285D02*
X152017676Y-151296666D01*
X152017676Y-151296666D02*
X151922438Y-151201428D01*
X151922438Y-151201428D02*
X151874819Y-151058571D01*
X151874819Y-151058571D02*
X151874819Y-150963333D01*
X151874819Y-150963333D02*
X151922438Y-150820476D01*
X151922438Y-150820476D02*
X151970057Y-150772857D01*
X151970057Y-150391904D02*
X151922438Y-150344285D01*
X151922438Y-150344285D02*
X151874819Y-150249047D01*
X151874819Y-150249047D02*
X151874819Y-150010952D01*
X151874819Y-150010952D02*
X151922438Y-149915714D01*
X151922438Y-149915714D02*
X151970057Y-149868095D01*
X151970057Y-149868095D02*
X152065295Y-149820476D01*
X152065295Y-149820476D02*
X152160533Y-149820476D01*
X152160533Y-149820476D02*
X152303390Y-149868095D01*
X152303390Y-149868095D02*
X152874819Y-150439523D01*
X152874819Y-150439523D02*
X152874819Y-149820476D01*
X151970057Y-149439523D02*
X151922438Y-149391904D01*
X151922438Y-149391904D02*
X151874819Y-149296666D01*
X151874819Y-149296666D02*
X151874819Y-149058571D01*
X151874819Y-149058571D02*
X151922438Y-148963333D01*
X151922438Y-148963333D02*
X151970057Y-148915714D01*
X151970057Y-148915714D02*
X152065295Y-148868095D01*
X152065295Y-148868095D02*
X152160533Y-148868095D01*
X152160533Y-148868095D02*
X152303390Y-148915714D01*
X152303390Y-148915714D02*
X152874819Y-149487142D01*
X152874819Y-149487142D02*
X152874819Y-148868095D01*
X142953333Y-117329580D02*
X142905714Y-117377200D01*
X142905714Y-117377200D02*
X142762857Y-117424819D01*
X142762857Y-117424819D02*
X142667619Y-117424819D01*
X142667619Y-117424819D02*
X142524762Y-117377200D01*
X142524762Y-117377200D02*
X142429524Y-117281961D01*
X142429524Y-117281961D02*
X142381905Y-117186723D01*
X142381905Y-117186723D02*
X142334286Y-116996247D01*
X142334286Y-116996247D02*
X142334286Y-116853390D01*
X142334286Y-116853390D02*
X142381905Y-116662914D01*
X142381905Y-116662914D02*
X142429524Y-116567676D01*
X142429524Y-116567676D02*
X142524762Y-116472438D01*
X142524762Y-116472438D02*
X142667619Y-116424819D01*
X142667619Y-116424819D02*
X142762857Y-116424819D01*
X142762857Y-116424819D02*
X142905714Y-116472438D01*
X142905714Y-116472438D02*
X142953333Y-116520057D01*
X143858095Y-116424819D02*
X143381905Y-116424819D01*
X143381905Y-116424819D02*
X143334286Y-116901009D01*
X143334286Y-116901009D02*
X143381905Y-116853390D01*
X143381905Y-116853390D02*
X143477143Y-116805771D01*
X143477143Y-116805771D02*
X143715238Y-116805771D01*
X143715238Y-116805771D02*
X143810476Y-116853390D01*
X143810476Y-116853390D02*
X143858095Y-116901009D01*
X143858095Y-116901009D02*
X143905714Y-116996247D01*
X143905714Y-116996247D02*
X143905714Y-117234342D01*
X143905714Y-117234342D02*
X143858095Y-117329580D01*
X143858095Y-117329580D02*
X143810476Y-117377200D01*
X143810476Y-117377200D02*
X143715238Y-117424819D01*
X143715238Y-117424819D02*
X143477143Y-117424819D01*
X143477143Y-117424819D02*
X143381905Y-117377200D01*
X143381905Y-117377200D02*
X143334286Y-117329580D01*
X61226666Y-77281009D02*
X60893333Y-77281009D01*
X60893333Y-77804819D02*
X60893333Y-76804819D01*
X60893333Y-76804819D02*
X61369523Y-76804819D01*
X62274285Y-77804819D02*
X61702857Y-77804819D01*
X61988571Y-77804819D02*
X61988571Y-76804819D01*
X61988571Y-76804819D02*
X61893333Y-76947676D01*
X61893333Y-76947676D02*
X61798095Y-77042914D01*
X61798095Y-77042914D02*
X61702857Y-77090533D01*
X102409642Y-94174580D02*
X102362023Y-94222200D01*
X102362023Y-94222200D02*
X102219166Y-94269819D01*
X102219166Y-94269819D02*
X102123928Y-94269819D01*
X102123928Y-94269819D02*
X101981071Y-94222200D01*
X101981071Y-94222200D02*
X101885833Y-94126961D01*
X101885833Y-94126961D02*
X101838214Y-94031723D01*
X101838214Y-94031723D02*
X101790595Y-93841247D01*
X101790595Y-93841247D02*
X101790595Y-93698390D01*
X101790595Y-93698390D02*
X101838214Y-93507914D01*
X101838214Y-93507914D02*
X101885833Y-93412676D01*
X101885833Y-93412676D02*
X101981071Y-93317438D01*
X101981071Y-93317438D02*
X102123928Y-93269819D01*
X102123928Y-93269819D02*
X102219166Y-93269819D01*
X102219166Y-93269819D02*
X102362023Y-93317438D01*
X102362023Y-93317438D02*
X102409642Y-93365057D01*
X103362023Y-94269819D02*
X102790595Y-94269819D01*
X103076309Y-94269819D02*
X103076309Y-93269819D01*
X103076309Y-93269819D02*
X102981071Y-93412676D01*
X102981071Y-93412676D02*
X102885833Y-93507914D01*
X102885833Y-93507914D02*
X102790595Y-93555533D01*
X104219166Y-93603152D02*
X104219166Y-94269819D01*
X103981071Y-93222200D02*
X103742976Y-93936485D01*
X103742976Y-93936485D02*
X104362023Y-93936485D01*
X156579580Y-164892857D02*
X156627200Y-164940476D01*
X156627200Y-164940476D02*
X156674819Y-165083333D01*
X156674819Y-165083333D02*
X156674819Y-165178571D01*
X156674819Y-165178571D02*
X156627200Y-165321428D01*
X156627200Y-165321428D02*
X156531961Y-165416666D01*
X156531961Y-165416666D02*
X156436723Y-165464285D01*
X156436723Y-165464285D02*
X156246247Y-165511904D01*
X156246247Y-165511904D02*
X156103390Y-165511904D01*
X156103390Y-165511904D02*
X155912914Y-165464285D01*
X155912914Y-165464285D02*
X155817676Y-165416666D01*
X155817676Y-165416666D02*
X155722438Y-165321428D01*
X155722438Y-165321428D02*
X155674819Y-165178571D01*
X155674819Y-165178571D02*
X155674819Y-165083333D01*
X155674819Y-165083333D02*
X155722438Y-164940476D01*
X155722438Y-164940476D02*
X155770057Y-164892857D01*
X155770057Y-164511904D02*
X155722438Y-164464285D01*
X155722438Y-164464285D02*
X155674819Y-164369047D01*
X155674819Y-164369047D02*
X155674819Y-164130952D01*
X155674819Y-164130952D02*
X155722438Y-164035714D01*
X155722438Y-164035714D02*
X155770057Y-163988095D01*
X155770057Y-163988095D02*
X155865295Y-163940476D01*
X155865295Y-163940476D02*
X155960533Y-163940476D01*
X155960533Y-163940476D02*
X156103390Y-163988095D01*
X156103390Y-163988095D02*
X156674819Y-164559523D01*
X156674819Y-164559523D02*
X156674819Y-163940476D01*
X156674819Y-162988095D02*
X156674819Y-163559523D01*
X156674819Y-163273809D02*
X155674819Y-163273809D01*
X155674819Y-163273809D02*
X155817676Y-163369047D01*
X155817676Y-163369047D02*
X155912914Y-163464285D01*
X155912914Y-163464285D02*
X155960533Y-163559523D01*
X49609580Y-152452857D02*
X49657200Y-152500476D01*
X49657200Y-152500476D02*
X49704819Y-152643333D01*
X49704819Y-152643333D02*
X49704819Y-152738571D01*
X49704819Y-152738571D02*
X49657200Y-152881428D01*
X49657200Y-152881428D02*
X49561961Y-152976666D01*
X49561961Y-152976666D02*
X49466723Y-153024285D01*
X49466723Y-153024285D02*
X49276247Y-153071904D01*
X49276247Y-153071904D02*
X49133390Y-153071904D01*
X49133390Y-153071904D02*
X48942914Y-153024285D01*
X48942914Y-153024285D02*
X48847676Y-152976666D01*
X48847676Y-152976666D02*
X48752438Y-152881428D01*
X48752438Y-152881428D02*
X48704819Y-152738571D01*
X48704819Y-152738571D02*
X48704819Y-152643333D01*
X48704819Y-152643333D02*
X48752438Y-152500476D01*
X48752438Y-152500476D02*
X48800057Y-152452857D01*
X49704819Y-151500476D02*
X49704819Y-152071904D01*
X49704819Y-151786190D02*
X48704819Y-151786190D01*
X48704819Y-151786190D02*
X48847676Y-151881428D01*
X48847676Y-151881428D02*
X48942914Y-151976666D01*
X48942914Y-151976666D02*
X48990533Y-152071904D01*
X49704819Y-150548095D02*
X49704819Y-151119523D01*
X49704819Y-150833809D02*
X48704819Y-150833809D01*
X48704819Y-150833809D02*
X48847676Y-150929047D01*
X48847676Y-150929047D02*
X48942914Y-151024285D01*
X48942914Y-151024285D02*
X48990533Y-151119523D01*
X147674819Y-150842857D02*
X147198628Y-151176190D01*
X147674819Y-151414285D02*
X146674819Y-151414285D01*
X146674819Y-151414285D02*
X146674819Y-151033333D01*
X146674819Y-151033333D02*
X146722438Y-150938095D01*
X146722438Y-150938095D02*
X146770057Y-150890476D01*
X146770057Y-150890476D02*
X146865295Y-150842857D01*
X146865295Y-150842857D02*
X147008152Y-150842857D01*
X147008152Y-150842857D02*
X147103390Y-150890476D01*
X147103390Y-150890476D02*
X147151009Y-150938095D01*
X147151009Y-150938095D02*
X147198628Y-151033333D01*
X147198628Y-151033333D02*
X147198628Y-151414285D01*
X147674819Y-149890476D02*
X147674819Y-150461904D01*
X147674819Y-150176190D02*
X146674819Y-150176190D01*
X146674819Y-150176190D02*
X146817676Y-150271428D01*
X146817676Y-150271428D02*
X146912914Y-150366666D01*
X146912914Y-150366666D02*
X146960533Y-150461904D01*
X146674819Y-149557142D02*
X146674819Y-148938095D01*
X146674819Y-148938095D02*
X147055771Y-149271428D01*
X147055771Y-149271428D02*
X147055771Y-149128571D01*
X147055771Y-149128571D02*
X147103390Y-149033333D01*
X147103390Y-149033333D02*
X147151009Y-148985714D01*
X147151009Y-148985714D02*
X147246247Y-148938095D01*
X147246247Y-148938095D02*
X147484342Y-148938095D01*
X147484342Y-148938095D02*
X147579580Y-148985714D01*
X147579580Y-148985714D02*
X147627200Y-149033333D01*
X147627200Y-149033333D02*
X147674819Y-149128571D01*
X147674819Y-149128571D02*
X147674819Y-149414285D01*
X147674819Y-149414285D02*
X147627200Y-149509523D01*
X147627200Y-149509523D02*
X147579580Y-149557142D01*
X158154819Y-150822857D02*
X157678628Y-151156190D01*
X158154819Y-151394285D02*
X157154819Y-151394285D01*
X157154819Y-151394285D02*
X157154819Y-151013333D01*
X157154819Y-151013333D02*
X157202438Y-150918095D01*
X157202438Y-150918095D02*
X157250057Y-150870476D01*
X157250057Y-150870476D02*
X157345295Y-150822857D01*
X157345295Y-150822857D02*
X157488152Y-150822857D01*
X157488152Y-150822857D02*
X157583390Y-150870476D01*
X157583390Y-150870476D02*
X157631009Y-150918095D01*
X157631009Y-150918095D02*
X157678628Y-151013333D01*
X157678628Y-151013333D02*
X157678628Y-151394285D01*
X158154819Y-149870476D02*
X158154819Y-150441904D01*
X158154819Y-150156190D02*
X157154819Y-150156190D01*
X157154819Y-150156190D02*
X157297676Y-150251428D01*
X157297676Y-150251428D02*
X157392914Y-150346666D01*
X157392914Y-150346666D02*
X157440533Y-150441904D01*
X157488152Y-149013333D02*
X158154819Y-149013333D01*
X157107200Y-149251428D02*
X157821485Y-149489523D01*
X157821485Y-149489523D02*
X157821485Y-148870476D01*
X163548095Y-78754819D02*
X163548095Y-77754819D01*
X163548095Y-78231009D02*
X164119523Y-78231009D01*
X164119523Y-78754819D02*
X164119523Y-77754819D01*
X165119523Y-78754819D02*
X164548095Y-78754819D01*
X164833809Y-78754819D02*
X164833809Y-77754819D01*
X164833809Y-77754819D02*
X164738571Y-77897676D01*
X164738571Y-77897676D02*
X164643333Y-77992914D01*
X164643333Y-77992914D02*
X164548095Y-78040533D01*
X115194819Y-152142857D02*
X114718628Y-152476190D01*
X115194819Y-152714285D02*
X114194819Y-152714285D01*
X114194819Y-152714285D02*
X114194819Y-152333333D01*
X114194819Y-152333333D02*
X114242438Y-152238095D01*
X114242438Y-152238095D02*
X114290057Y-152190476D01*
X114290057Y-152190476D02*
X114385295Y-152142857D01*
X114385295Y-152142857D02*
X114528152Y-152142857D01*
X114528152Y-152142857D02*
X114623390Y-152190476D01*
X114623390Y-152190476D02*
X114671009Y-152238095D01*
X114671009Y-152238095D02*
X114718628Y-152333333D01*
X114718628Y-152333333D02*
X114718628Y-152714285D01*
X115194819Y-151190476D02*
X115194819Y-151761904D01*
X115194819Y-151476190D02*
X114194819Y-151476190D01*
X114194819Y-151476190D02*
X114337676Y-151571428D01*
X114337676Y-151571428D02*
X114432914Y-151666666D01*
X114432914Y-151666666D02*
X114480533Y-151761904D01*
X114194819Y-150571428D02*
X114194819Y-150476190D01*
X114194819Y-150476190D02*
X114242438Y-150380952D01*
X114242438Y-150380952D02*
X114290057Y-150333333D01*
X114290057Y-150333333D02*
X114385295Y-150285714D01*
X114385295Y-150285714D02*
X114575771Y-150238095D01*
X114575771Y-150238095D02*
X114813866Y-150238095D01*
X114813866Y-150238095D02*
X115004342Y-150285714D01*
X115004342Y-150285714D02*
X115099580Y-150333333D01*
X115099580Y-150333333D02*
X115147200Y-150380952D01*
X115147200Y-150380952D02*
X115194819Y-150476190D01*
X115194819Y-150476190D02*
X115194819Y-150571428D01*
X115194819Y-150571428D02*
X115147200Y-150666666D01*
X115147200Y-150666666D02*
X115099580Y-150714285D01*
X115099580Y-150714285D02*
X115004342Y-150761904D01*
X115004342Y-150761904D02*
X114813866Y-150809523D01*
X114813866Y-150809523D02*
X114575771Y-150809523D01*
X114575771Y-150809523D02*
X114385295Y-150761904D01*
X114385295Y-150761904D02*
X114290057Y-150714285D01*
X114290057Y-150714285D02*
X114242438Y-150666666D01*
X114242438Y-150666666D02*
X114194819Y-150571428D01*
X75429580Y-83226666D02*
X75477200Y-83274285D01*
X75477200Y-83274285D02*
X75524819Y-83417142D01*
X75524819Y-83417142D02*
X75524819Y-83512380D01*
X75524819Y-83512380D02*
X75477200Y-83655237D01*
X75477200Y-83655237D02*
X75381961Y-83750475D01*
X75381961Y-83750475D02*
X75286723Y-83798094D01*
X75286723Y-83798094D02*
X75096247Y-83845713D01*
X75096247Y-83845713D02*
X74953390Y-83845713D01*
X74953390Y-83845713D02*
X74762914Y-83798094D01*
X74762914Y-83798094D02*
X74667676Y-83750475D01*
X74667676Y-83750475D02*
X74572438Y-83655237D01*
X74572438Y-83655237D02*
X74524819Y-83512380D01*
X74524819Y-83512380D02*
X74524819Y-83417142D01*
X74524819Y-83417142D02*
X74572438Y-83274285D01*
X74572438Y-83274285D02*
X74620057Y-83226666D01*
X74953390Y-82655237D02*
X74905771Y-82750475D01*
X74905771Y-82750475D02*
X74858152Y-82798094D01*
X74858152Y-82798094D02*
X74762914Y-82845713D01*
X74762914Y-82845713D02*
X74715295Y-82845713D01*
X74715295Y-82845713D02*
X74620057Y-82798094D01*
X74620057Y-82798094D02*
X74572438Y-82750475D01*
X74572438Y-82750475D02*
X74524819Y-82655237D01*
X74524819Y-82655237D02*
X74524819Y-82464761D01*
X74524819Y-82464761D02*
X74572438Y-82369523D01*
X74572438Y-82369523D02*
X74620057Y-82321904D01*
X74620057Y-82321904D02*
X74715295Y-82274285D01*
X74715295Y-82274285D02*
X74762914Y-82274285D01*
X74762914Y-82274285D02*
X74858152Y-82321904D01*
X74858152Y-82321904D02*
X74905771Y-82369523D01*
X74905771Y-82369523D02*
X74953390Y-82464761D01*
X74953390Y-82464761D02*
X74953390Y-82655237D01*
X74953390Y-82655237D02*
X75001009Y-82750475D01*
X75001009Y-82750475D02*
X75048628Y-82798094D01*
X75048628Y-82798094D02*
X75143866Y-82845713D01*
X75143866Y-82845713D02*
X75334342Y-82845713D01*
X75334342Y-82845713D02*
X75429580Y-82798094D01*
X75429580Y-82798094D02*
X75477200Y-82750475D01*
X75477200Y-82750475D02*
X75524819Y-82655237D01*
X75524819Y-82655237D02*
X75524819Y-82464761D01*
X75524819Y-82464761D02*
X75477200Y-82369523D01*
X75477200Y-82369523D02*
X75429580Y-82321904D01*
X75429580Y-82321904D02*
X75334342Y-82274285D01*
X75334342Y-82274285D02*
X75143866Y-82274285D01*
X75143866Y-82274285D02*
X75048628Y-82321904D01*
X75048628Y-82321904D02*
X75001009Y-82369523D01*
X75001009Y-82369523D02*
X74953390Y-82464761D01*
X39822319Y-125603333D02*
X40536604Y-125603333D01*
X40536604Y-125603333D02*
X40679461Y-125650952D01*
X40679461Y-125650952D02*
X40774700Y-125746190D01*
X40774700Y-125746190D02*
X40822319Y-125889047D01*
X40822319Y-125889047D02*
X40822319Y-125984285D01*
X40822319Y-124603333D02*
X40822319Y-125174761D01*
X40822319Y-124889047D02*
X39822319Y-124889047D01*
X39822319Y-124889047D02*
X39965176Y-124984285D01*
X39965176Y-124984285D02*
X40060414Y-125079523D01*
X40060414Y-125079523D02*
X40108033Y-125174761D01*
X28279580Y-130579524D02*
X28327200Y-130627143D01*
X28327200Y-130627143D02*
X28374819Y-130770000D01*
X28374819Y-130770000D02*
X28374819Y-130865238D01*
X28374819Y-130865238D02*
X28327200Y-131008095D01*
X28327200Y-131008095D02*
X28231961Y-131103333D01*
X28231961Y-131103333D02*
X28136723Y-131150952D01*
X28136723Y-131150952D02*
X27946247Y-131198571D01*
X27946247Y-131198571D02*
X27803390Y-131198571D01*
X27803390Y-131198571D02*
X27612914Y-131150952D01*
X27612914Y-131150952D02*
X27517676Y-131103333D01*
X27517676Y-131103333D02*
X27422438Y-131008095D01*
X27422438Y-131008095D02*
X27374819Y-130865238D01*
X27374819Y-130865238D02*
X27374819Y-130770000D01*
X27374819Y-130770000D02*
X27422438Y-130627143D01*
X27422438Y-130627143D02*
X27470057Y-130579524D01*
X28374819Y-130008095D02*
X28327200Y-130103333D01*
X28327200Y-130103333D02*
X28279580Y-130150952D01*
X28279580Y-130150952D02*
X28184342Y-130198571D01*
X28184342Y-130198571D02*
X27898628Y-130198571D01*
X27898628Y-130198571D02*
X27803390Y-130150952D01*
X27803390Y-130150952D02*
X27755771Y-130103333D01*
X27755771Y-130103333D02*
X27708152Y-130008095D01*
X27708152Y-130008095D02*
X27708152Y-129865238D01*
X27708152Y-129865238D02*
X27755771Y-129770000D01*
X27755771Y-129770000D02*
X27803390Y-129722381D01*
X27803390Y-129722381D02*
X27898628Y-129674762D01*
X27898628Y-129674762D02*
X28184342Y-129674762D01*
X28184342Y-129674762D02*
X28279580Y-129722381D01*
X28279580Y-129722381D02*
X28327200Y-129770000D01*
X28327200Y-129770000D02*
X28374819Y-129865238D01*
X28374819Y-129865238D02*
X28374819Y-130008095D01*
X27708152Y-129246190D02*
X28374819Y-129246190D01*
X27803390Y-129246190D02*
X27755771Y-129198571D01*
X27755771Y-129198571D02*
X27708152Y-129103333D01*
X27708152Y-129103333D02*
X27708152Y-128960476D01*
X27708152Y-128960476D02*
X27755771Y-128865238D01*
X27755771Y-128865238D02*
X27851009Y-128817619D01*
X27851009Y-128817619D02*
X28374819Y-128817619D01*
X27708152Y-128341428D02*
X28374819Y-128341428D01*
X27803390Y-128341428D02*
X27755771Y-128293809D01*
X27755771Y-128293809D02*
X27708152Y-128198571D01*
X27708152Y-128198571D02*
X27708152Y-128055714D01*
X27708152Y-128055714D02*
X27755771Y-127960476D01*
X27755771Y-127960476D02*
X27851009Y-127912857D01*
X27851009Y-127912857D02*
X28374819Y-127912857D01*
X28470057Y-127674762D02*
X28470057Y-126912857D01*
X27374819Y-126484285D02*
X27374819Y-126389047D01*
X27374819Y-126389047D02*
X27422438Y-126293809D01*
X27422438Y-126293809D02*
X27470057Y-126246190D01*
X27470057Y-126246190D02*
X27565295Y-126198571D01*
X27565295Y-126198571D02*
X27755771Y-126150952D01*
X27755771Y-126150952D02*
X27993866Y-126150952D01*
X27993866Y-126150952D02*
X28184342Y-126198571D01*
X28184342Y-126198571D02*
X28279580Y-126246190D01*
X28279580Y-126246190D02*
X28327200Y-126293809D01*
X28327200Y-126293809D02*
X28374819Y-126389047D01*
X28374819Y-126389047D02*
X28374819Y-126484285D01*
X28374819Y-126484285D02*
X28327200Y-126579523D01*
X28327200Y-126579523D02*
X28279580Y-126627142D01*
X28279580Y-126627142D02*
X28184342Y-126674761D01*
X28184342Y-126674761D02*
X27993866Y-126722380D01*
X27993866Y-126722380D02*
X27755771Y-126722380D01*
X27755771Y-126722380D02*
X27565295Y-126674761D01*
X27565295Y-126674761D02*
X27470057Y-126627142D01*
X27470057Y-126627142D02*
X27422438Y-126579523D01*
X27422438Y-126579523D02*
X27374819Y-126484285D01*
X28374819Y-125198571D02*
X28374819Y-125769999D01*
X28374819Y-125484285D02*
X27374819Y-125484285D01*
X27374819Y-125484285D02*
X27517676Y-125579523D01*
X27517676Y-125579523D02*
X27612914Y-125674761D01*
X27612914Y-125674761D02*
X27660533Y-125769999D01*
X28374819Y-124865237D02*
X27708152Y-124341428D01*
X27708152Y-124865237D02*
X28374819Y-124341428D01*
X27374819Y-123769999D02*
X27374819Y-123674761D01*
X27374819Y-123674761D02*
X27422438Y-123579523D01*
X27422438Y-123579523D02*
X27470057Y-123531904D01*
X27470057Y-123531904D02*
X27565295Y-123484285D01*
X27565295Y-123484285D02*
X27755771Y-123436666D01*
X27755771Y-123436666D02*
X27993866Y-123436666D01*
X27993866Y-123436666D02*
X28184342Y-123484285D01*
X28184342Y-123484285D02*
X28279580Y-123531904D01*
X28279580Y-123531904D02*
X28327200Y-123579523D01*
X28327200Y-123579523D02*
X28374819Y-123674761D01*
X28374819Y-123674761D02*
X28374819Y-123769999D01*
X28374819Y-123769999D02*
X28327200Y-123865237D01*
X28327200Y-123865237D02*
X28279580Y-123912856D01*
X28279580Y-123912856D02*
X28184342Y-123960475D01*
X28184342Y-123960475D02*
X27993866Y-124008094D01*
X27993866Y-124008094D02*
X27755771Y-124008094D01*
X27755771Y-124008094D02*
X27565295Y-123960475D01*
X27565295Y-123960475D02*
X27470057Y-123912856D01*
X27470057Y-123912856D02*
X27422438Y-123865237D01*
X27422438Y-123865237D02*
X27374819Y-123769999D01*
X27374819Y-123103332D02*
X27374819Y-122484285D01*
X27374819Y-122484285D02*
X27755771Y-122817618D01*
X27755771Y-122817618D02*
X27755771Y-122674761D01*
X27755771Y-122674761D02*
X27803390Y-122579523D01*
X27803390Y-122579523D02*
X27851009Y-122531904D01*
X27851009Y-122531904D02*
X27946247Y-122484285D01*
X27946247Y-122484285D02*
X28184342Y-122484285D01*
X28184342Y-122484285D02*
X28279580Y-122531904D01*
X28279580Y-122531904D02*
X28327200Y-122579523D01*
X28327200Y-122579523D02*
X28374819Y-122674761D01*
X28374819Y-122674761D02*
X28374819Y-122960475D01*
X28374819Y-122960475D02*
X28327200Y-123055713D01*
X28327200Y-123055713D02*
X28279580Y-123103332D01*
X28470057Y-122293809D02*
X28470057Y-121531904D01*
X28374819Y-121293808D02*
X27374819Y-121293808D01*
X27374819Y-121293808D02*
X27374819Y-120912856D01*
X27374819Y-120912856D02*
X27422438Y-120817618D01*
X27422438Y-120817618D02*
X27470057Y-120769999D01*
X27470057Y-120769999D02*
X27565295Y-120722380D01*
X27565295Y-120722380D02*
X27708152Y-120722380D01*
X27708152Y-120722380D02*
X27803390Y-120769999D01*
X27803390Y-120769999D02*
X27851009Y-120817618D01*
X27851009Y-120817618D02*
X27898628Y-120912856D01*
X27898628Y-120912856D02*
X27898628Y-121293808D01*
X28374819Y-120293808D02*
X27708152Y-120293808D01*
X27374819Y-120293808D02*
X27422438Y-120341427D01*
X27422438Y-120341427D02*
X27470057Y-120293808D01*
X27470057Y-120293808D02*
X27422438Y-120246189D01*
X27422438Y-120246189D02*
X27374819Y-120293808D01*
X27374819Y-120293808D02*
X27470057Y-120293808D01*
X27708152Y-119817618D02*
X28374819Y-119817618D01*
X27803390Y-119817618D02*
X27755771Y-119769999D01*
X27755771Y-119769999D02*
X27708152Y-119674761D01*
X27708152Y-119674761D02*
X27708152Y-119531904D01*
X27708152Y-119531904D02*
X27755771Y-119436666D01*
X27755771Y-119436666D02*
X27851009Y-119389047D01*
X27851009Y-119389047D02*
X28374819Y-119389047D01*
X121893333Y-128269580D02*
X121845714Y-128317200D01*
X121845714Y-128317200D02*
X121702857Y-128364819D01*
X121702857Y-128364819D02*
X121607619Y-128364819D01*
X121607619Y-128364819D02*
X121464762Y-128317200D01*
X121464762Y-128317200D02*
X121369524Y-128221961D01*
X121369524Y-128221961D02*
X121321905Y-128126723D01*
X121321905Y-128126723D02*
X121274286Y-127936247D01*
X121274286Y-127936247D02*
X121274286Y-127793390D01*
X121274286Y-127793390D02*
X121321905Y-127602914D01*
X121321905Y-127602914D02*
X121369524Y-127507676D01*
X121369524Y-127507676D02*
X121464762Y-127412438D01*
X121464762Y-127412438D02*
X121607619Y-127364819D01*
X121607619Y-127364819D02*
X121702857Y-127364819D01*
X121702857Y-127364819D02*
X121845714Y-127412438D01*
X121845714Y-127412438D02*
X121893333Y-127460057D01*
X122750476Y-127364819D02*
X122560000Y-127364819D01*
X122560000Y-127364819D02*
X122464762Y-127412438D01*
X122464762Y-127412438D02*
X122417143Y-127460057D01*
X122417143Y-127460057D02*
X122321905Y-127602914D01*
X122321905Y-127602914D02*
X122274286Y-127793390D01*
X122274286Y-127793390D02*
X122274286Y-128174342D01*
X122274286Y-128174342D02*
X122321905Y-128269580D01*
X122321905Y-128269580D02*
X122369524Y-128317200D01*
X122369524Y-128317200D02*
X122464762Y-128364819D01*
X122464762Y-128364819D02*
X122655238Y-128364819D01*
X122655238Y-128364819D02*
X122750476Y-128317200D01*
X122750476Y-128317200D02*
X122798095Y-128269580D01*
X122798095Y-128269580D02*
X122845714Y-128174342D01*
X122845714Y-128174342D02*
X122845714Y-127936247D01*
X122845714Y-127936247D02*
X122798095Y-127841009D01*
X122798095Y-127841009D02*
X122750476Y-127793390D01*
X122750476Y-127793390D02*
X122655238Y-127745771D01*
X122655238Y-127745771D02*
X122464762Y-127745771D01*
X122464762Y-127745771D02*
X122369524Y-127793390D01*
X122369524Y-127793390D02*
X122321905Y-127841009D01*
X122321905Y-127841009D02*
X122274286Y-127936247D01*
X115577142Y-169739580D02*
X115529523Y-169787200D01*
X115529523Y-169787200D02*
X115386666Y-169834819D01*
X115386666Y-169834819D02*
X115291428Y-169834819D01*
X115291428Y-169834819D02*
X115148571Y-169787200D01*
X115148571Y-169787200D02*
X115053333Y-169691961D01*
X115053333Y-169691961D02*
X115005714Y-169596723D01*
X115005714Y-169596723D02*
X114958095Y-169406247D01*
X114958095Y-169406247D02*
X114958095Y-169263390D01*
X114958095Y-169263390D02*
X115005714Y-169072914D01*
X115005714Y-169072914D02*
X115053333Y-168977676D01*
X115053333Y-168977676D02*
X115148571Y-168882438D01*
X115148571Y-168882438D02*
X115291428Y-168834819D01*
X115291428Y-168834819D02*
X115386666Y-168834819D01*
X115386666Y-168834819D02*
X115529523Y-168882438D01*
X115529523Y-168882438D02*
X115577142Y-168930057D01*
X116529523Y-169834819D02*
X115958095Y-169834819D01*
X116243809Y-169834819D02*
X116243809Y-168834819D01*
X116243809Y-168834819D02*
X116148571Y-168977676D01*
X116148571Y-168977676D02*
X116053333Y-169072914D01*
X116053333Y-169072914D02*
X115958095Y-169120533D01*
X116862857Y-168834819D02*
X117529523Y-168834819D01*
X117529523Y-168834819D02*
X117100952Y-169834819D01*
X98133095Y-135344819D02*
X98133095Y-136154342D01*
X98133095Y-136154342D02*
X98180714Y-136249580D01*
X98180714Y-136249580D02*
X98228333Y-136297200D01*
X98228333Y-136297200D02*
X98323571Y-136344819D01*
X98323571Y-136344819D02*
X98514047Y-136344819D01*
X98514047Y-136344819D02*
X98609285Y-136297200D01*
X98609285Y-136297200D02*
X98656904Y-136249580D01*
X98656904Y-136249580D02*
X98704523Y-136154342D01*
X98704523Y-136154342D02*
X98704523Y-135344819D01*
X99133095Y-135440057D02*
X99180714Y-135392438D01*
X99180714Y-135392438D02*
X99275952Y-135344819D01*
X99275952Y-135344819D02*
X99514047Y-135344819D01*
X99514047Y-135344819D02*
X99609285Y-135392438D01*
X99609285Y-135392438D02*
X99656904Y-135440057D01*
X99656904Y-135440057D02*
X99704523Y-135535295D01*
X99704523Y-135535295D02*
X99704523Y-135630533D01*
X99704523Y-135630533D02*
X99656904Y-135773390D01*
X99656904Y-135773390D02*
X99085476Y-136344819D01*
X99085476Y-136344819D02*
X99704523Y-136344819D01*
X86028095Y-72814819D02*
X86028095Y-73624342D01*
X86028095Y-73624342D02*
X86075714Y-73719580D01*
X86075714Y-73719580D02*
X86123333Y-73767200D01*
X86123333Y-73767200D02*
X86218571Y-73814819D01*
X86218571Y-73814819D02*
X86409047Y-73814819D01*
X86409047Y-73814819D02*
X86504285Y-73767200D01*
X86504285Y-73767200D02*
X86551904Y-73719580D01*
X86551904Y-73719580D02*
X86599523Y-73624342D01*
X86599523Y-73624342D02*
X86599523Y-72814819D01*
X87504285Y-73148152D02*
X87504285Y-73814819D01*
X87266190Y-72767200D02*
X87028095Y-73481485D01*
X87028095Y-73481485D02*
X87647142Y-73481485D01*
X135634819Y-161787857D02*
X135158628Y-162121190D01*
X135634819Y-162359285D02*
X134634819Y-162359285D01*
X134634819Y-162359285D02*
X134634819Y-161978333D01*
X134634819Y-161978333D02*
X134682438Y-161883095D01*
X134682438Y-161883095D02*
X134730057Y-161835476D01*
X134730057Y-161835476D02*
X134825295Y-161787857D01*
X134825295Y-161787857D02*
X134968152Y-161787857D01*
X134968152Y-161787857D02*
X135063390Y-161835476D01*
X135063390Y-161835476D02*
X135111009Y-161883095D01*
X135111009Y-161883095D02*
X135158628Y-161978333D01*
X135158628Y-161978333D02*
X135158628Y-162359285D01*
X135634819Y-160835476D02*
X135634819Y-161406904D01*
X135634819Y-161121190D02*
X134634819Y-161121190D01*
X134634819Y-161121190D02*
X134777676Y-161216428D01*
X134777676Y-161216428D02*
X134872914Y-161311666D01*
X134872914Y-161311666D02*
X134920533Y-161406904D01*
X135634819Y-159883095D02*
X135634819Y-160454523D01*
X135634819Y-160168809D02*
X134634819Y-160168809D01*
X134634819Y-160168809D02*
X134777676Y-160264047D01*
X134777676Y-160264047D02*
X134872914Y-160359285D01*
X134872914Y-160359285D02*
X134920533Y-160454523D01*
X152424819Y-125013333D02*
X153139104Y-125013333D01*
X153139104Y-125013333D02*
X153281961Y-125060952D01*
X153281961Y-125060952D02*
X153377200Y-125156190D01*
X153377200Y-125156190D02*
X153424819Y-125299047D01*
X153424819Y-125299047D02*
X153424819Y-125394285D01*
X152424819Y-124632380D02*
X152424819Y-124013333D01*
X152424819Y-124013333D02*
X152805771Y-124346666D01*
X152805771Y-124346666D02*
X152805771Y-124203809D01*
X152805771Y-124203809D02*
X152853390Y-124108571D01*
X152853390Y-124108571D02*
X152901009Y-124060952D01*
X152901009Y-124060952D02*
X152996247Y-124013333D01*
X152996247Y-124013333D02*
X153234342Y-124013333D01*
X153234342Y-124013333D02*
X153329580Y-124060952D01*
X153329580Y-124060952D02*
X153377200Y-124108571D01*
X153377200Y-124108571D02*
X153424819Y-124203809D01*
X153424819Y-124203809D02*
X153424819Y-124489523D01*
X153424819Y-124489523D02*
X153377200Y-124584761D01*
X153377200Y-124584761D02*
X153329580Y-124632380D01*
X166164580Y-129989524D02*
X166212200Y-130037143D01*
X166212200Y-130037143D02*
X166259819Y-130180000D01*
X166259819Y-130180000D02*
X166259819Y-130275238D01*
X166259819Y-130275238D02*
X166212200Y-130418095D01*
X166212200Y-130418095D02*
X166116961Y-130513333D01*
X166116961Y-130513333D02*
X166021723Y-130560952D01*
X166021723Y-130560952D02*
X165831247Y-130608571D01*
X165831247Y-130608571D02*
X165688390Y-130608571D01*
X165688390Y-130608571D02*
X165497914Y-130560952D01*
X165497914Y-130560952D02*
X165402676Y-130513333D01*
X165402676Y-130513333D02*
X165307438Y-130418095D01*
X165307438Y-130418095D02*
X165259819Y-130275238D01*
X165259819Y-130275238D02*
X165259819Y-130180000D01*
X165259819Y-130180000D02*
X165307438Y-130037143D01*
X165307438Y-130037143D02*
X165355057Y-129989524D01*
X166259819Y-129418095D02*
X166212200Y-129513333D01*
X166212200Y-129513333D02*
X166164580Y-129560952D01*
X166164580Y-129560952D02*
X166069342Y-129608571D01*
X166069342Y-129608571D02*
X165783628Y-129608571D01*
X165783628Y-129608571D02*
X165688390Y-129560952D01*
X165688390Y-129560952D02*
X165640771Y-129513333D01*
X165640771Y-129513333D02*
X165593152Y-129418095D01*
X165593152Y-129418095D02*
X165593152Y-129275238D01*
X165593152Y-129275238D02*
X165640771Y-129180000D01*
X165640771Y-129180000D02*
X165688390Y-129132381D01*
X165688390Y-129132381D02*
X165783628Y-129084762D01*
X165783628Y-129084762D02*
X166069342Y-129084762D01*
X166069342Y-129084762D02*
X166164580Y-129132381D01*
X166164580Y-129132381D02*
X166212200Y-129180000D01*
X166212200Y-129180000D02*
X166259819Y-129275238D01*
X166259819Y-129275238D02*
X166259819Y-129418095D01*
X165593152Y-128656190D02*
X166259819Y-128656190D01*
X165688390Y-128656190D02*
X165640771Y-128608571D01*
X165640771Y-128608571D02*
X165593152Y-128513333D01*
X165593152Y-128513333D02*
X165593152Y-128370476D01*
X165593152Y-128370476D02*
X165640771Y-128275238D01*
X165640771Y-128275238D02*
X165736009Y-128227619D01*
X165736009Y-128227619D02*
X166259819Y-128227619D01*
X165593152Y-127751428D02*
X166259819Y-127751428D01*
X165688390Y-127751428D02*
X165640771Y-127703809D01*
X165640771Y-127703809D02*
X165593152Y-127608571D01*
X165593152Y-127608571D02*
X165593152Y-127465714D01*
X165593152Y-127465714D02*
X165640771Y-127370476D01*
X165640771Y-127370476D02*
X165736009Y-127322857D01*
X165736009Y-127322857D02*
X166259819Y-127322857D01*
X166355057Y-127084762D02*
X166355057Y-126322857D01*
X165259819Y-125894285D02*
X165259819Y-125799047D01*
X165259819Y-125799047D02*
X165307438Y-125703809D01*
X165307438Y-125703809D02*
X165355057Y-125656190D01*
X165355057Y-125656190D02*
X165450295Y-125608571D01*
X165450295Y-125608571D02*
X165640771Y-125560952D01*
X165640771Y-125560952D02*
X165878866Y-125560952D01*
X165878866Y-125560952D02*
X166069342Y-125608571D01*
X166069342Y-125608571D02*
X166164580Y-125656190D01*
X166164580Y-125656190D02*
X166212200Y-125703809D01*
X166212200Y-125703809D02*
X166259819Y-125799047D01*
X166259819Y-125799047D02*
X166259819Y-125894285D01*
X166259819Y-125894285D02*
X166212200Y-125989523D01*
X166212200Y-125989523D02*
X166164580Y-126037142D01*
X166164580Y-126037142D02*
X166069342Y-126084761D01*
X166069342Y-126084761D02*
X165878866Y-126132380D01*
X165878866Y-126132380D02*
X165640771Y-126132380D01*
X165640771Y-126132380D02*
X165450295Y-126084761D01*
X165450295Y-126084761D02*
X165355057Y-126037142D01*
X165355057Y-126037142D02*
X165307438Y-125989523D01*
X165307438Y-125989523D02*
X165259819Y-125894285D01*
X166259819Y-124608571D02*
X166259819Y-125179999D01*
X166259819Y-124894285D02*
X165259819Y-124894285D01*
X165259819Y-124894285D02*
X165402676Y-124989523D01*
X165402676Y-124989523D02*
X165497914Y-125084761D01*
X165497914Y-125084761D02*
X165545533Y-125179999D01*
X166259819Y-124275237D02*
X165593152Y-123751428D01*
X165593152Y-124275237D02*
X166259819Y-123751428D01*
X165259819Y-123179999D02*
X165259819Y-123084761D01*
X165259819Y-123084761D02*
X165307438Y-122989523D01*
X165307438Y-122989523D02*
X165355057Y-122941904D01*
X165355057Y-122941904D02*
X165450295Y-122894285D01*
X165450295Y-122894285D02*
X165640771Y-122846666D01*
X165640771Y-122846666D02*
X165878866Y-122846666D01*
X165878866Y-122846666D02*
X166069342Y-122894285D01*
X166069342Y-122894285D02*
X166164580Y-122941904D01*
X166164580Y-122941904D02*
X166212200Y-122989523D01*
X166212200Y-122989523D02*
X166259819Y-123084761D01*
X166259819Y-123084761D02*
X166259819Y-123179999D01*
X166259819Y-123179999D02*
X166212200Y-123275237D01*
X166212200Y-123275237D02*
X166164580Y-123322856D01*
X166164580Y-123322856D02*
X166069342Y-123370475D01*
X166069342Y-123370475D02*
X165878866Y-123418094D01*
X165878866Y-123418094D02*
X165640771Y-123418094D01*
X165640771Y-123418094D02*
X165450295Y-123370475D01*
X165450295Y-123370475D02*
X165355057Y-123322856D01*
X165355057Y-123322856D02*
X165307438Y-123275237D01*
X165307438Y-123275237D02*
X165259819Y-123179999D01*
X165259819Y-122513332D02*
X165259819Y-121894285D01*
X165259819Y-121894285D02*
X165640771Y-122227618D01*
X165640771Y-122227618D02*
X165640771Y-122084761D01*
X165640771Y-122084761D02*
X165688390Y-121989523D01*
X165688390Y-121989523D02*
X165736009Y-121941904D01*
X165736009Y-121941904D02*
X165831247Y-121894285D01*
X165831247Y-121894285D02*
X166069342Y-121894285D01*
X166069342Y-121894285D02*
X166164580Y-121941904D01*
X166164580Y-121941904D02*
X166212200Y-121989523D01*
X166212200Y-121989523D02*
X166259819Y-122084761D01*
X166259819Y-122084761D02*
X166259819Y-122370475D01*
X166259819Y-122370475D02*
X166212200Y-122465713D01*
X166212200Y-122465713D02*
X166164580Y-122513332D01*
X166355057Y-121703809D02*
X166355057Y-120941904D01*
X166259819Y-120703808D02*
X165259819Y-120703808D01*
X165259819Y-120703808D02*
X165259819Y-120322856D01*
X165259819Y-120322856D02*
X165307438Y-120227618D01*
X165307438Y-120227618D02*
X165355057Y-120179999D01*
X165355057Y-120179999D02*
X165450295Y-120132380D01*
X165450295Y-120132380D02*
X165593152Y-120132380D01*
X165593152Y-120132380D02*
X165688390Y-120179999D01*
X165688390Y-120179999D02*
X165736009Y-120227618D01*
X165736009Y-120227618D02*
X165783628Y-120322856D01*
X165783628Y-120322856D02*
X165783628Y-120703808D01*
X166259819Y-119703808D02*
X165593152Y-119703808D01*
X165259819Y-119703808D02*
X165307438Y-119751427D01*
X165307438Y-119751427D02*
X165355057Y-119703808D01*
X165355057Y-119703808D02*
X165307438Y-119656189D01*
X165307438Y-119656189D02*
X165259819Y-119703808D01*
X165259819Y-119703808D02*
X165355057Y-119703808D01*
X165593152Y-119227618D02*
X166259819Y-119227618D01*
X165688390Y-119227618D02*
X165640771Y-119179999D01*
X165640771Y-119179999D02*
X165593152Y-119084761D01*
X165593152Y-119084761D02*
X165593152Y-118941904D01*
X165593152Y-118941904D02*
X165640771Y-118846666D01*
X165640771Y-118846666D02*
X165736009Y-118799047D01*
X165736009Y-118799047D02*
X166259819Y-118799047D01*
X90473333Y-131429580D02*
X90425714Y-131477200D01*
X90425714Y-131477200D02*
X90282857Y-131524819D01*
X90282857Y-131524819D02*
X90187619Y-131524819D01*
X90187619Y-131524819D02*
X90044762Y-131477200D01*
X90044762Y-131477200D02*
X89949524Y-131381961D01*
X89949524Y-131381961D02*
X89901905Y-131286723D01*
X89901905Y-131286723D02*
X89854286Y-131096247D01*
X89854286Y-131096247D02*
X89854286Y-130953390D01*
X89854286Y-130953390D02*
X89901905Y-130762914D01*
X89901905Y-130762914D02*
X89949524Y-130667676D01*
X89949524Y-130667676D02*
X90044762Y-130572438D01*
X90044762Y-130572438D02*
X90187619Y-130524819D01*
X90187619Y-130524819D02*
X90282857Y-130524819D01*
X90282857Y-130524819D02*
X90425714Y-130572438D01*
X90425714Y-130572438D02*
X90473333Y-130620057D01*
X91330476Y-130858152D02*
X91330476Y-131524819D01*
X91092381Y-130477200D02*
X90854286Y-131191485D01*
X90854286Y-131191485D02*
X91473333Y-131191485D01*
X78989580Y-161972857D02*
X79037200Y-162020476D01*
X79037200Y-162020476D02*
X79084819Y-162163333D01*
X79084819Y-162163333D02*
X79084819Y-162258571D01*
X79084819Y-162258571D02*
X79037200Y-162401428D01*
X79037200Y-162401428D02*
X78941961Y-162496666D01*
X78941961Y-162496666D02*
X78846723Y-162544285D01*
X78846723Y-162544285D02*
X78656247Y-162591904D01*
X78656247Y-162591904D02*
X78513390Y-162591904D01*
X78513390Y-162591904D02*
X78322914Y-162544285D01*
X78322914Y-162544285D02*
X78227676Y-162496666D01*
X78227676Y-162496666D02*
X78132438Y-162401428D01*
X78132438Y-162401428D02*
X78084819Y-162258571D01*
X78084819Y-162258571D02*
X78084819Y-162163333D01*
X78084819Y-162163333D02*
X78132438Y-162020476D01*
X78132438Y-162020476D02*
X78180057Y-161972857D01*
X79084819Y-161020476D02*
X79084819Y-161591904D01*
X79084819Y-161306190D02*
X78084819Y-161306190D01*
X78084819Y-161306190D02*
X78227676Y-161401428D01*
X78227676Y-161401428D02*
X78322914Y-161496666D01*
X78322914Y-161496666D02*
X78370533Y-161591904D01*
X78084819Y-160163333D02*
X78084819Y-160353809D01*
X78084819Y-160353809D02*
X78132438Y-160449047D01*
X78132438Y-160449047D02*
X78180057Y-160496666D01*
X78180057Y-160496666D02*
X78322914Y-160591904D01*
X78322914Y-160591904D02*
X78513390Y-160639523D01*
X78513390Y-160639523D02*
X78894342Y-160639523D01*
X78894342Y-160639523D02*
X78989580Y-160591904D01*
X78989580Y-160591904D02*
X79037200Y-160544285D01*
X79037200Y-160544285D02*
X79084819Y-160449047D01*
X79084819Y-160449047D02*
X79084819Y-160258571D01*
X79084819Y-160258571D02*
X79037200Y-160163333D01*
X79037200Y-160163333D02*
X78989580Y-160115714D01*
X78989580Y-160115714D02*
X78894342Y-160068095D01*
X78894342Y-160068095D02*
X78656247Y-160068095D01*
X78656247Y-160068095D02*
X78561009Y-160115714D01*
X78561009Y-160115714D02*
X78513390Y-160163333D01*
X78513390Y-160163333D02*
X78465771Y-160258571D01*
X78465771Y-160258571D02*
X78465771Y-160449047D01*
X78465771Y-160449047D02*
X78513390Y-160544285D01*
X78513390Y-160544285D02*
X78561009Y-160591904D01*
X78561009Y-160591904D02*
X78656247Y-160639523D01*
X152834819Y-166765238D02*
X152358628Y-167098571D01*
X152834819Y-167336666D02*
X151834819Y-167336666D01*
X151834819Y-167336666D02*
X151834819Y-166955714D01*
X151834819Y-166955714D02*
X151882438Y-166860476D01*
X151882438Y-166860476D02*
X151930057Y-166812857D01*
X151930057Y-166812857D02*
X152025295Y-166765238D01*
X152025295Y-166765238D02*
X152168152Y-166765238D01*
X152168152Y-166765238D02*
X152263390Y-166812857D01*
X152263390Y-166812857D02*
X152311009Y-166860476D01*
X152311009Y-166860476D02*
X152358628Y-166955714D01*
X152358628Y-166955714D02*
X152358628Y-167336666D01*
X151834819Y-166479523D02*
X152834819Y-166146190D01*
X152834819Y-166146190D02*
X151834819Y-165812857D01*
X151834819Y-165574761D02*
X151834819Y-164955714D01*
X151834819Y-164955714D02*
X152215771Y-165289047D01*
X152215771Y-165289047D02*
X152215771Y-165146190D01*
X152215771Y-165146190D02*
X152263390Y-165050952D01*
X152263390Y-165050952D02*
X152311009Y-165003333D01*
X152311009Y-165003333D02*
X152406247Y-164955714D01*
X152406247Y-164955714D02*
X152644342Y-164955714D01*
X152644342Y-164955714D02*
X152739580Y-165003333D01*
X152739580Y-165003333D02*
X152787200Y-165050952D01*
X152787200Y-165050952D02*
X152834819Y-165146190D01*
X152834819Y-165146190D02*
X152834819Y-165431904D01*
X152834819Y-165431904D02*
X152787200Y-165527142D01*
X152787200Y-165527142D02*
X152739580Y-165574761D01*
X163559617Y-163764206D02*
X163559617Y-162764206D01*
X163559617Y-163240396D02*
X164131045Y-163240396D01*
X164131045Y-163764206D02*
X164131045Y-162764206D01*
X164559617Y-162859444D02*
X164607236Y-162811825D01*
X164607236Y-162811825D02*
X164702474Y-162764206D01*
X164702474Y-162764206D02*
X164940569Y-162764206D01*
X164940569Y-162764206D02*
X165035807Y-162811825D01*
X165035807Y-162811825D02*
X165083426Y-162859444D01*
X165083426Y-162859444D02*
X165131045Y-162954682D01*
X165131045Y-162954682D02*
X165131045Y-163049920D01*
X165131045Y-163049920D02*
X165083426Y-163192777D01*
X165083426Y-163192777D02*
X164511998Y-163764206D01*
X164511998Y-163764206D02*
X165131045Y-163764206D01*
X101257142Y-86059580D02*
X101209523Y-86107200D01*
X101209523Y-86107200D02*
X101066666Y-86154819D01*
X101066666Y-86154819D02*
X100971428Y-86154819D01*
X100971428Y-86154819D02*
X100828571Y-86107200D01*
X100828571Y-86107200D02*
X100733333Y-86011961D01*
X100733333Y-86011961D02*
X100685714Y-85916723D01*
X100685714Y-85916723D02*
X100638095Y-85726247D01*
X100638095Y-85726247D02*
X100638095Y-85583390D01*
X100638095Y-85583390D02*
X100685714Y-85392914D01*
X100685714Y-85392914D02*
X100733333Y-85297676D01*
X100733333Y-85297676D02*
X100828571Y-85202438D01*
X100828571Y-85202438D02*
X100971428Y-85154819D01*
X100971428Y-85154819D02*
X101066666Y-85154819D01*
X101066666Y-85154819D02*
X101209523Y-85202438D01*
X101209523Y-85202438D02*
X101257142Y-85250057D01*
X102209523Y-86154819D02*
X101638095Y-86154819D01*
X101923809Y-86154819D02*
X101923809Y-85154819D01*
X101923809Y-85154819D02*
X101828571Y-85297676D01*
X101828571Y-85297676D02*
X101733333Y-85392914D01*
X101733333Y-85392914D02*
X101638095Y-85440533D01*
X102542857Y-85154819D02*
X103161904Y-85154819D01*
X103161904Y-85154819D02*
X102828571Y-85535771D01*
X102828571Y-85535771D02*
X102971428Y-85535771D01*
X102971428Y-85535771D02*
X103066666Y-85583390D01*
X103066666Y-85583390D02*
X103114285Y-85631009D01*
X103114285Y-85631009D02*
X103161904Y-85726247D01*
X103161904Y-85726247D02*
X103161904Y-85964342D01*
X103161904Y-85964342D02*
X103114285Y-86059580D01*
X103114285Y-86059580D02*
X103066666Y-86107200D01*
X103066666Y-86107200D02*
X102971428Y-86154819D01*
X102971428Y-86154819D02*
X102685714Y-86154819D01*
X102685714Y-86154819D02*
X102590476Y-86107200D01*
X102590476Y-86107200D02*
X102542857Y-86059580D01*
X124283333Y-73264819D02*
X123807143Y-73264819D01*
X123807143Y-73264819D02*
X123807143Y-72264819D01*
X125140476Y-73264819D02*
X124569048Y-73264819D01*
X124854762Y-73264819D02*
X124854762Y-72264819D01*
X124854762Y-72264819D02*
X124759524Y-72407676D01*
X124759524Y-72407676D02*
X124664286Y-72502914D01*
X124664286Y-72502914D02*
X124569048Y-72550533D01*
X39544819Y-115196666D02*
X39068628Y-115529999D01*
X39544819Y-115768094D02*
X38544819Y-115768094D01*
X38544819Y-115768094D02*
X38544819Y-115387142D01*
X38544819Y-115387142D02*
X38592438Y-115291904D01*
X38592438Y-115291904D02*
X38640057Y-115244285D01*
X38640057Y-115244285D02*
X38735295Y-115196666D01*
X38735295Y-115196666D02*
X38878152Y-115196666D01*
X38878152Y-115196666D02*
X38973390Y-115244285D01*
X38973390Y-115244285D02*
X39021009Y-115291904D01*
X39021009Y-115291904D02*
X39068628Y-115387142D01*
X39068628Y-115387142D02*
X39068628Y-115768094D01*
X39544819Y-114244285D02*
X39544819Y-114815713D01*
X39544819Y-114529999D02*
X38544819Y-114529999D01*
X38544819Y-114529999D02*
X38687676Y-114625237D01*
X38687676Y-114625237D02*
X38782914Y-114720475D01*
X38782914Y-114720475D02*
X38830533Y-114815713D01*
X46509166Y-86059819D02*
X46509166Y-86774104D01*
X46509166Y-86774104D02*
X46461547Y-86916961D01*
X46461547Y-86916961D02*
X46366309Y-87012200D01*
X46366309Y-87012200D02*
X46223452Y-87059819D01*
X46223452Y-87059819D02*
X46128214Y-87059819D01*
X46937738Y-86155057D02*
X46985357Y-86107438D01*
X46985357Y-86107438D02*
X47080595Y-86059819D01*
X47080595Y-86059819D02*
X47318690Y-86059819D01*
X47318690Y-86059819D02*
X47413928Y-86107438D01*
X47413928Y-86107438D02*
X47461547Y-86155057D01*
X47461547Y-86155057D02*
X47509166Y-86250295D01*
X47509166Y-86250295D02*
X47509166Y-86345533D01*
X47509166Y-86345533D02*
X47461547Y-86488390D01*
X47461547Y-86488390D02*
X46890119Y-87059819D01*
X46890119Y-87059819D02*
X47509166Y-87059819D01*
X41557975Y-73869580D02*
X41510356Y-73917200D01*
X41510356Y-73917200D02*
X41367499Y-73964819D01*
X41367499Y-73964819D02*
X41272261Y-73964819D01*
X41272261Y-73964819D02*
X41129404Y-73917200D01*
X41129404Y-73917200D02*
X41034166Y-73821961D01*
X41034166Y-73821961D02*
X40986547Y-73726723D01*
X40986547Y-73726723D02*
X40938928Y-73536247D01*
X40938928Y-73536247D02*
X40938928Y-73393390D01*
X40938928Y-73393390D02*
X40986547Y-73202914D01*
X40986547Y-73202914D02*
X41034166Y-73107676D01*
X41034166Y-73107676D02*
X41129404Y-73012438D01*
X41129404Y-73012438D02*
X41272261Y-72964819D01*
X41272261Y-72964819D02*
X41367499Y-72964819D01*
X41367499Y-72964819D02*
X41510356Y-73012438D01*
X41510356Y-73012438D02*
X41557975Y-73060057D01*
X42129404Y-73964819D02*
X42034166Y-73917200D01*
X42034166Y-73917200D02*
X41986547Y-73869580D01*
X41986547Y-73869580D02*
X41938928Y-73774342D01*
X41938928Y-73774342D02*
X41938928Y-73488628D01*
X41938928Y-73488628D02*
X41986547Y-73393390D01*
X41986547Y-73393390D02*
X42034166Y-73345771D01*
X42034166Y-73345771D02*
X42129404Y-73298152D01*
X42129404Y-73298152D02*
X42272261Y-73298152D01*
X42272261Y-73298152D02*
X42367499Y-73345771D01*
X42367499Y-73345771D02*
X42415118Y-73393390D01*
X42415118Y-73393390D02*
X42462737Y-73488628D01*
X42462737Y-73488628D02*
X42462737Y-73774342D01*
X42462737Y-73774342D02*
X42415118Y-73869580D01*
X42415118Y-73869580D02*
X42367499Y-73917200D01*
X42367499Y-73917200D02*
X42272261Y-73964819D01*
X42272261Y-73964819D02*
X42129404Y-73964819D01*
X42891309Y-73298152D02*
X42891309Y-73964819D01*
X42891309Y-73393390D02*
X42938928Y-73345771D01*
X42938928Y-73345771D02*
X43034166Y-73298152D01*
X43034166Y-73298152D02*
X43177023Y-73298152D01*
X43177023Y-73298152D02*
X43272261Y-73345771D01*
X43272261Y-73345771D02*
X43319880Y-73441009D01*
X43319880Y-73441009D02*
X43319880Y-73964819D01*
X43796071Y-73298152D02*
X43796071Y-73964819D01*
X43796071Y-73393390D02*
X43843690Y-73345771D01*
X43843690Y-73345771D02*
X43938928Y-73298152D01*
X43938928Y-73298152D02*
X44081785Y-73298152D01*
X44081785Y-73298152D02*
X44177023Y-73345771D01*
X44177023Y-73345771D02*
X44224642Y-73441009D01*
X44224642Y-73441009D02*
X44224642Y-73964819D01*
X44462738Y-74060057D02*
X45224642Y-74060057D01*
X45653214Y-72964819D02*
X45748452Y-72964819D01*
X45748452Y-72964819D02*
X45843690Y-73012438D01*
X45843690Y-73012438D02*
X45891309Y-73060057D01*
X45891309Y-73060057D02*
X45938928Y-73155295D01*
X45938928Y-73155295D02*
X45986547Y-73345771D01*
X45986547Y-73345771D02*
X45986547Y-73583866D01*
X45986547Y-73583866D02*
X45938928Y-73774342D01*
X45938928Y-73774342D02*
X45891309Y-73869580D01*
X45891309Y-73869580D02*
X45843690Y-73917200D01*
X45843690Y-73917200D02*
X45748452Y-73964819D01*
X45748452Y-73964819D02*
X45653214Y-73964819D01*
X45653214Y-73964819D02*
X45557976Y-73917200D01*
X45557976Y-73917200D02*
X45510357Y-73869580D01*
X45510357Y-73869580D02*
X45462738Y-73774342D01*
X45462738Y-73774342D02*
X45415119Y-73583866D01*
X45415119Y-73583866D02*
X45415119Y-73345771D01*
X45415119Y-73345771D02*
X45462738Y-73155295D01*
X45462738Y-73155295D02*
X45510357Y-73060057D01*
X45510357Y-73060057D02*
X45557976Y-73012438D01*
X45557976Y-73012438D02*
X45653214Y-72964819D01*
X46938928Y-73964819D02*
X46367500Y-73964819D01*
X46653214Y-73964819D02*
X46653214Y-72964819D01*
X46653214Y-72964819D02*
X46557976Y-73107676D01*
X46557976Y-73107676D02*
X46462738Y-73202914D01*
X46462738Y-73202914D02*
X46367500Y-73250533D01*
X47272262Y-73964819D02*
X47796071Y-73298152D01*
X47272262Y-73298152D02*
X47796071Y-73964819D01*
X48367500Y-72964819D02*
X48462738Y-72964819D01*
X48462738Y-72964819D02*
X48557976Y-73012438D01*
X48557976Y-73012438D02*
X48605595Y-73060057D01*
X48605595Y-73060057D02*
X48653214Y-73155295D01*
X48653214Y-73155295D02*
X48700833Y-73345771D01*
X48700833Y-73345771D02*
X48700833Y-73583866D01*
X48700833Y-73583866D02*
X48653214Y-73774342D01*
X48653214Y-73774342D02*
X48605595Y-73869580D01*
X48605595Y-73869580D02*
X48557976Y-73917200D01*
X48557976Y-73917200D02*
X48462738Y-73964819D01*
X48462738Y-73964819D02*
X48367500Y-73964819D01*
X48367500Y-73964819D02*
X48272262Y-73917200D01*
X48272262Y-73917200D02*
X48224643Y-73869580D01*
X48224643Y-73869580D02*
X48177024Y-73774342D01*
X48177024Y-73774342D02*
X48129405Y-73583866D01*
X48129405Y-73583866D02*
X48129405Y-73345771D01*
X48129405Y-73345771D02*
X48177024Y-73155295D01*
X48177024Y-73155295D02*
X48224643Y-73060057D01*
X48224643Y-73060057D02*
X48272262Y-73012438D01*
X48272262Y-73012438D02*
X48367500Y-72964819D01*
X49081786Y-73060057D02*
X49129405Y-73012438D01*
X49129405Y-73012438D02*
X49224643Y-72964819D01*
X49224643Y-72964819D02*
X49462738Y-72964819D01*
X49462738Y-72964819D02*
X49557976Y-73012438D01*
X49557976Y-73012438D02*
X49605595Y-73060057D01*
X49605595Y-73060057D02*
X49653214Y-73155295D01*
X49653214Y-73155295D02*
X49653214Y-73250533D01*
X49653214Y-73250533D02*
X49605595Y-73393390D01*
X49605595Y-73393390D02*
X49034167Y-73964819D01*
X49034167Y-73964819D02*
X49653214Y-73964819D01*
X49843691Y-74060057D02*
X50605595Y-74060057D01*
X50843691Y-73964819D02*
X50843691Y-72964819D01*
X50843691Y-72964819D02*
X51224643Y-72964819D01*
X51224643Y-72964819D02*
X51319881Y-73012438D01*
X51319881Y-73012438D02*
X51367500Y-73060057D01*
X51367500Y-73060057D02*
X51415119Y-73155295D01*
X51415119Y-73155295D02*
X51415119Y-73298152D01*
X51415119Y-73298152D02*
X51367500Y-73393390D01*
X51367500Y-73393390D02*
X51319881Y-73441009D01*
X51319881Y-73441009D02*
X51224643Y-73488628D01*
X51224643Y-73488628D02*
X50843691Y-73488628D01*
X51843691Y-73964819D02*
X51843691Y-73298152D01*
X51843691Y-72964819D02*
X51796072Y-73012438D01*
X51796072Y-73012438D02*
X51843691Y-73060057D01*
X51843691Y-73060057D02*
X51891310Y-73012438D01*
X51891310Y-73012438D02*
X51843691Y-72964819D01*
X51843691Y-72964819D02*
X51843691Y-73060057D01*
X52319881Y-73298152D02*
X52319881Y-73964819D01*
X52319881Y-73393390D02*
X52367500Y-73345771D01*
X52367500Y-73345771D02*
X52462738Y-73298152D01*
X52462738Y-73298152D02*
X52605595Y-73298152D01*
X52605595Y-73298152D02*
X52700833Y-73345771D01*
X52700833Y-73345771D02*
X52748452Y-73441009D01*
X52748452Y-73441009D02*
X52748452Y-73964819D01*
X120399580Y-155492857D02*
X120447200Y-155540476D01*
X120447200Y-155540476D02*
X120494819Y-155683333D01*
X120494819Y-155683333D02*
X120494819Y-155778571D01*
X120494819Y-155778571D02*
X120447200Y-155921428D01*
X120447200Y-155921428D02*
X120351961Y-156016666D01*
X120351961Y-156016666D02*
X120256723Y-156064285D01*
X120256723Y-156064285D02*
X120066247Y-156111904D01*
X120066247Y-156111904D02*
X119923390Y-156111904D01*
X119923390Y-156111904D02*
X119732914Y-156064285D01*
X119732914Y-156064285D02*
X119637676Y-156016666D01*
X119637676Y-156016666D02*
X119542438Y-155921428D01*
X119542438Y-155921428D02*
X119494819Y-155778571D01*
X119494819Y-155778571D02*
X119494819Y-155683333D01*
X119494819Y-155683333D02*
X119542438Y-155540476D01*
X119542438Y-155540476D02*
X119590057Y-155492857D01*
X120494819Y-154540476D02*
X120494819Y-155111904D01*
X120494819Y-154826190D02*
X119494819Y-154826190D01*
X119494819Y-154826190D02*
X119637676Y-154921428D01*
X119637676Y-154921428D02*
X119732914Y-155016666D01*
X119732914Y-155016666D02*
X119780533Y-155111904D01*
X119923390Y-153969047D02*
X119875771Y-154064285D01*
X119875771Y-154064285D02*
X119828152Y-154111904D01*
X119828152Y-154111904D02*
X119732914Y-154159523D01*
X119732914Y-154159523D02*
X119685295Y-154159523D01*
X119685295Y-154159523D02*
X119590057Y-154111904D01*
X119590057Y-154111904D02*
X119542438Y-154064285D01*
X119542438Y-154064285D02*
X119494819Y-153969047D01*
X119494819Y-153969047D02*
X119494819Y-153778571D01*
X119494819Y-153778571D02*
X119542438Y-153683333D01*
X119542438Y-153683333D02*
X119590057Y-153635714D01*
X119590057Y-153635714D02*
X119685295Y-153588095D01*
X119685295Y-153588095D02*
X119732914Y-153588095D01*
X119732914Y-153588095D02*
X119828152Y-153635714D01*
X119828152Y-153635714D02*
X119875771Y-153683333D01*
X119875771Y-153683333D02*
X119923390Y-153778571D01*
X119923390Y-153778571D02*
X119923390Y-153969047D01*
X119923390Y-153969047D02*
X119971009Y-154064285D01*
X119971009Y-154064285D02*
X120018628Y-154111904D01*
X120018628Y-154111904D02*
X120113866Y-154159523D01*
X120113866Y-154159523D02*
X120304342Y-154159523D01*
X120304342Y-154159523D02*
X120399580Y-154111904D01*
X120399580Y-154111904D02*
X120447200Y-154064285D01*
X120447200Y-154064285D02*
X120494819Y-153969047D01*
X120494819Y-153969047D02*
X120494819Y-153778571D01*
X120494819Y-153778571D02*
X120447200Y-153683333D01*
X120447200Y-153683333D02*
X120399580Y-153635714D01*
X120399580Y-153635714D02*
X120304342Y-153588095D01*
X120304342Y-153588095D02*
X120113866Y-153588095D01*
X120113866Y-153588095D02*
X120018628Y-153635714D01*
X120018628Y-153635714D02*
X119971009Y-153683333D01*
X119971009Y-153683333D02*
X119923390Y-153778571D01*
X43594819Y-161901666D02*
X43118628Y-162234999D01*
X43594819Y-162473094D02*
X42594819Y-162473094D01*
X42594819Y-162473094D02*
X42594819Y-162092142D01*
X42594819Y-162092142D02*
X42642438Y-161996904D01*
X42642438Y-161996904D02*
X42690057Y-161949285D01*
X42690057Y-161949285D02*
X42785295Y-161901666D01*
X42785295Y-161901666D02*
X42928152Y-161901666D01*
X42928152Y-161901666D02*
X43023390Y-161949285D01*
X43023390Y-161949285D02*
X43071009Y-161996904D01*
X43071009Y-161996904D02*
X43118628Y-162092142D01*
X43118628Y-162092142D02*
X43118628Y-162473094D01*
X42594819Y-161568332D02*
X42594819Y-160949285D01*
X42594819Y-160949285D02*
X42975771Y-161282618D01*
X42975771Y-161282618D02*
X42975771Y-161139761D01*
X42975771Y-161139761D02*
X43023390Y-161044523D01*
X43023390Y-161044523D02*
X43071009Y-160996904D01*
X43071009Y-160996904D02*
X43166247Y-160949285D01*
X43166247Y-160949285D02*
X43404342Y-160949285D01*
X43404342Y-160949285D02*
X43499580Y-160996904D01*
X43499580Y-160996904D02*
X43547200Y-161044523D01*
X43547200Y-161044523D02*
X43594819Y-161139761D01*
X43594819Y-161139761D02*
X43594819Y-161425475D01*
X43594819Y-161425475D02*
X43547200Y-161520713D01*
X43547200Y-161520713D02*
X43499580Y-161568332D01*
X33648095Y-74314819D02*
X33648095Y-73314819D01*
X33648095Y-73791009D02*
X34219523Y-73791009D01*
X34219523Y-74314819D02*
X34219523Y-73314819D01*
X35124285Y-73648152D02*
X35124285Y-74314819D01*
X34886190Y-73267200D02*
X34648095Y-73981485D01*
X34648095Y-73981485D02*
X35267142Y-73981485D01*
X128969580Y-163572857D02*
X129017200Y-163620476D01*
X129017200Y-163620476D02*
X129064819Y-163763333D01*
X129064819Y-163763333D02*
X129064819Y-163858571D01*
X129064819Y-163858571D02*
X129017200Y-164001428D01*
X129017200Y-164001428D02*
X128921961Y-164096666D01*
X128921961Y-164096666D02*
X128826723Y-164144285D01*
X128826723Y-164144285D02*
X128636247Y-164191904D01*
X128636247Y-164191904D02*
X128493390Y-164191904D01*
X128493390Y-164191904D02*
X128302914Y-164144285D01*
X128302914Y-164144285D02*
X128207676Y-164096666D01*
X128207676Y-164096666D02*
X128112438Y-164001428D01*
X128112438Y-164001428D02*
X128064819Y-163858571D01*
X128064819Y-163858571D02*
X128064819Y-163763333D01*
X128064819Y-163763333D02*
X128112438Y-163620476D01*
X128112438Y-163620476D02*
X128160057Y-163572857D01*
X128160057Y-163191904D02*
X128112438Y-163144285D01*
X128112438Y-163144285D02*
X128064819Y-163049047D01*
X128064819Y-163049047D02*
X128064819Y-162810952D01*
X128064819Y-162810952D02*
X128112438Y-162715714D01*
X128112438Y-162715714D02*
X128160057Y-162668095D01*
X128160057Y-162668095D02*
X128255295Y-162620476D01*
X128255295Y-162620476D02*
X128350533Y-162620476D01*
X128350533Y-162620476D02*
X128493390Y-162668095D01*
X128493390Y-162668095D02*
X129064819Y-163239523D01*
X129064819Y-163239523D02*
X129064819Y-162620476D01*
X128064819Y-162001428D02*
X128064819Y-161906190D01*
X128064819Y-161906190D02*
X128112438Y-161810952D01*
X128112438Y-161810952D02*
X128160057Y-161763333D01*
X128160057Y-161763333D02*
X128255295Y-161715714D01*
X128255295Y-161715714D02*
X128445771Y-161668095D01*
X128445771Y-161668095D02*
X128683866Y-161668095D01*
X128683866Y-161668095D02*
X128874342Y-161715714D01*
X128874342Y-161715714D02*
X128969580Y-161763333D01*
X128969580Y-161763333D02*
X129017200Y-161810952D01*
X129017200Y-161810952D02*
X129064819Y-161906190D01*
X129064819Y-161906190D02*
X129064819Y-162001428D01*
X129064819Y-162001428D02*
X129017200Y-162096666D01*
X129017200Y-162096666D02*
X128969580Y-162144285D01*
X128969580Y-162144285D02*
X128874342Y-162191904D01*
X128874342Y-162191904D02*
X128683866Y-162239523D01*
X128683866Y-162239523D02*
X128445771Y-162239523D01*
X128445771Y-162239523D02*
X128255295Y-162191904D01*
X128255295Y-162191904D02*
X128160057Y-162144285D01*
X128160057Y-162144285D02*
X128112438Y-162096666D01*
X128112438Y-162096666D02*
X128064819Y-162001428D01*
X107253333Y-123749580D02*
X107205714Y-123797200D01*
X107205714Y-123797200D02*
X107062857Y-123844819D01*
X107062857Y-123844819D02*
X106967619Y-123844819D01*
X106967619Y-123844819D02*
X106824762Y-123797200D01*
X106824762Y-123797200D02*
X106729524Y-123701961D01*
X106729524Y-123701961D02*
X106681905Y-123606723D01*
X106681905Y-123606723D02*
X106634286Y-123416247D01*
X106634286Y-123416247D02*
X106634286Y-123273390D01*
X106634286Y-123273390D02*
X106681905Y-123082914D01*
X106681905Y-123082914D02*
X106729524Y-122987676D01*
X106729524Y-122987676D02*
X106824762Y-122892438D01*
X106824762Y-122892438D02*
X106967619Y-122844819D01*
X106967619Y-122844819D02*
X107062857Y-122844819D01*
X107062857Y-122844819D02*
X107205714Y-122892438D01*
X107205714Y-122892438D02*
X107253333Y-122940057D01*
X107586667Y-122844819D02*
X108205714Y-122844819D01*
X108205714Y-122844819D02*
X107872381Y-123225771D01*
X107872381Y-123225771D02*
X108015238Y-123225771D01*
X108015238Y-123225771D02*
X108110476Y-123273390D01*
X108110476Y-123273390D02*
X108158095Y-123321009D01*
X108158095Y-123321009D02*
X108205714Y-123416247D01*
X108205714Y-123416247D02*
X108205714Y-123654342D01*
X108205714Y-123654342D02*
X108158095Y-123749580D01*
X108158095Y-123749580D02*
X108110476Y-123797200D01*
X108110476Y-123797200D02*
X108015238Y-123844819D01*
X108015238Y-123844819D02*
X107729524Y-123844819D01*
X107729524Y-123844819D02*
X107634286Y-123797200D01*
X107634286Y-123797200D02*
X107586667Y-123749580D01*
X64819580Y-153502857D02*
X64867200Y-153550476D01*
X64867200Y-153550476D02*
X64914819Y-153693333D01*
X64914819Y-153693333D02*
X64914819Y-153788571D01*
X64914819Y-153788571D02*
X64867200Y-153931428D01*
X64867200Y-153931428D02*
X64771961Y-154026666D01*
X64771961Y-154026666D02*
X64676723Y-154074285D01*
X64676723Y-154074285D02*
X64486247Y-154121904D01*
X64486247Y-154121904D02*
X64343390Y-154121904D01*
X64343390Y-154121904D02*
X64152914Y-154074285D01*
X64152914Y-154074285D02*
X64057676Y-154026666D01*
X64057676Y-154026666D02*
X63962438Y-153931428D01*
X63962438Y-153931428D02*
X63914819Y-153788571D01*
X63914819Y-153788571D02*
X63914819Y-153693333D01*
X63914819Y-153693333D02*
X63962438Y-153550476D01*
X63962438Y-153550476D02*
X64010057Y-153502857D01*
X64914819Y-152550476D02*
X64914819Y-153121904D01*
X64914819Y-152836190D02*
X63914819Y-152836190D01*
X63914819Y-152836190D02*
X64057676Y-152931428D01*
X64057676Y-152931428D02*
X64152914Y-153026666D01*
X64152914Y-153026666D02*
X64200533Y-153121904D01*
X63914819Y-151931428D02*
X63914819Y-151836190D01*
X63914819Y-151836190D02*
X63962438Y-151740952D01*
X63962438Y-151740952D02*
X64010057Y-151693333D01*
X64010057Y-151693333D02*
X64105295Y-151645714D01*
X64105295Y-151645714D02*
X64295771Y-151598095D01*
X64295771Y-151598095D02*
X64533866Y-151598095D01*
X64533866Y-151598095D02*
X64724342Y-151645714D01*
X64724342Y-151645714D02*
X64819580Y-151693333D01*
X64819580Y-151693333D02*
X64867200Y-151740952D01*
X64867200Y-151740952D02*
X64914819Y-151836190D01*
X64914819Y-151836190D02*
X64914819Y-151931428D01*
X64914819Y-151931428D02*
X64867200Y-152026666D01*
X64867200Y-152026666D02*
X64819580Y-152074285D01*
X64819580Y-152074285D02*
X64724342Y-152121904D01*
X64724342Y-152121904D02*
X64533866Y-152169523D01*
X64533866Y-152169523D02*
X64295771Y-152169523D01*
X64295771Y-152169523D02*
X64105295Y-152121904D01*
X64105295Y-152121904D02*
X64010057Y-152074285D01*
X64010057Y-152074285D02*
X63962438Y-152026666D01*
X63962438Y-152026666D02*
X63914819Y-151931428D01*
X100482080Y-90197857D02*
X100529700Y-90245476D01*
X100529700Y-90245476D02*
X100577319Y-90388333D01*
X100577319Y-90388333D02*
X100577319Y-90483571D01*
X100577319Y-90483571D02*
X100529700Y-90626428D01*
X100529700Y-90626428D02*
X100434461Y-90721666D01*
X100434461Y-90721666D02*
X100339223Y-90769285D01*
X100339223Y-90769285D02*
X100148747Y-90816904D01*
X100148747Y-90816904D02*
X100005890Y-90816904D01*
X100005890Y-90816904D02*
X99815414Y-90769285D01*
X99815414Y-90769285D02*
X99720176Y-90721666D01*
X99720176Y-90721666D02*
X99624938Y-90626428D01*
X99624938Y-90626428D02*
X99577319Y-90483571D01*
X99577319Y-90483571D02*
X99577319Y-90388333D01*
X99577319Y-90388333D02*
X99624938Y-90245476D01*
X99624938Y-90245476D02*
X99672557Y-90197857D01*
X100577319Y-89245476D02*
X100577319Y-89816904D01*
X100577319Y-89531190D02*
X99577319Y-89531190D01*
X99577319Y-89531190D02*
X99720176Y-89626428D01*
X99720176Y-89626428D02*
X99815414Y-89721666D01*
X99815414Y-89721666D02*
X99863033Y-89816904D01*
X99577319Y-88340714D02*
X99577319Y-88816904D01*
X99577319Y-88816904D02*
X100053509Y-88864523D01*
X100053509Y-88864523D02*
X100005890Y-88816904D01*
X100005890Y-88816904D02*
X99958271Y-88721666D01*
X99958271Y-88721666D02*
X99958271Y-88483571D01*
X99958271Y-88483571D02*
X100005890Y-88388333D01*
X100005890Y-88388333D02*
X100053509Y-88340714D01*
X100053509Y-88340714D02*
X100148747Y-88293095D01*
X100148747Y-88293095D02*
X100386842Y-88293095D01*
X100386842Y-88293095D02*
X100482080Y-88340714D01*
X100482080Y-88340714D02*
X100529700Y-88388333D01*
X100529700Y-88388333D02*
X100577319Y-88483571D01*
X100577319Y-88483571D02*
X100577319Y-88721666D01*
X100577319Y-88721666D02*
X100529700Y-88816904D01*
X100529700Y-88816904D02*
X100482080Y-88864523D01*
X41974819Y-135536666D02*
X41498628Y-135869999D01*
X41974819Y-136108094D02*
X40974819Y-136108094D01*
X40974819Y-136108094D02*
X40974819Y-135727142D01*
X40974819Y-135727142D02*
X41022438Y-135631904D01*
X41022438Y-135631904D02*
X41070057Y-135584285D01*
X41070057Y-135584285D02*
X41165295Y-135536666D01*
X41165295Y-135536666D02*
X41308152Y-135536666D01*
X41308152Y-135536666D02*
X41403390Y-135584285D01*
X41403390Y-135584285D02*
X41451009Y-135631904D01*
X41451009Y-135631904D02*
X41498628Y-135727142D01*
X41498628Y-135727142D02*
X41498628Y-136108094D01*
X41070057Y-135155713D02*
X41022438Y-135108094D01*
X41022438Y-135108094D02*
X40974819Y-135012856D01*
X40974819Y-135012856D02*
X40974819Y-134774761D01*
X40974819Y-134774761D02*
X41022438Y-134679523D01*
X41022438Y-134679523D02*
X41070057Y-134631904D01*
X41070057Y-134631904D02*
X41165295Y-134584285D01*
X41165295Y-134584285D02*
X41260533Y-134584285D01*
X41260533Y-134584285D02*
X41403390Y-134631904D01*
X41403390Y-134631904D02*
X41974819Y-135203332D01*
X41974819Y-135203332D02*
X41974819Y-134584285D01*
X88304819Y-161886666D02*
X87828628Y-162219999D01*
X88304819Y-162458094D02*
X87304819Y-162458094D01*
X87304819Y-162458094D02*
X87304819Y-162077142D01*
X87304819Y-162077142D02*
X87352438Y-161981904D01*
X87352438Y-161981904D02*
X87400057Y-161934285D01*
X87400057Y-161934285D02*
X87495295Y-161886666D01*
X87495295Y-161886666D02*
X87638152Y-161886666D01*
X87638152Y-161886666D02*
X87733390Y-161934285D01*
X87733390Y-161934285D02*
X87781009Y-161981904D01*
X87781009Y-161981904D02*
X87828628Y-162077142D01*
X87828628Y-162077142D02*
X87828628Y-162458094D01*
X87304819Y-161553332D02*
X87304819Y-160886666D01*
X87304819Y-160886666D02*
X88304819Y-161315237D01*
X53288095Y-118204819D02*
X53288095Y-119014342D01*
X53288095Y-119014342D02*
X53335714Y-119109580D01*
X53335714Y-119109580D02*
X53383333Y-119157200D01*
X53383333Y-119157200D02*
X53478571Y-119204819D01*
X53478571Y-119204819D02*
X53669047Y-119204819D01*
X53669047Y-119204819D02*
X53764285Y-119157200D01*
X53764285Y-119157200D02*
X53811904Y-119109580D01*
X53811904Y-119109580D02*
X53859523Y-119014342D01*
X53859523Y-119014342D02*
X53859523Y-118204819D01*
X54859523Y-119204819D02*
X54288095Y-119204819D01*
X54573809Y-119204819D02*
X54573809Y-118204819D01*
X54573809Y-118204819D02*
X54478571Y-118347676D01*
X54478571Y-118347676D02*
X54383333Y-118442914D01*
X54383333Y-118442914D02*
X54288095Y-118490533D01*
X96704819Y-151306666D02*
X96228628Y-151639999D01*
X96704819Y-151878094D02*
X95704819Y-151878094D01*
X95704819Y-151878094D02*
X95704819Y-151497142D01*
X95704819Y-151497142D02*
X95752438Y-151401904D01*
X95752438Y-151401904D02*
X95800057Y-151354285D01*
X95800057Y-151354285D02*
X95895295Y-151306666D01*
X95895295Y-151306666D02*
X96038152Y-151306666D01*
X96038152Y-151306666D02*
X96133390Y-151354285D01*
X96133390Y-151354285D02*
X96181009Y-151401904D01*
X96181009Y-151401904D02*
X96228628Y-151497142D01*
X96228628Y-151497142D02*
X96228628Y-151878094D01*
X96704819Y-150830475D02*
X96704819Y-150639999D01*
X96704819Y-150639999D02*
X96657200Y-150544761D01*
X96657200Y-150544761D02*
X96609580Y-150497142D01*
X96609580Y-150497142D02*
X96466723Y-150401904D01*
X96466723Y-150401904D02*
X96276247Y-150354285D01*
X96276247Y-150354285D02*
X95895295Y-150354285D01*
X95895295Y-150354285D02*
X95800057Y-150401904D01*
X95800057Y-150401904D02*
X95752438Y-150449523D01*
X95752438Y-150449523D02*
X95704819Y-150544761D01*
X95704819Y-150544761D02*
X95704819Y-150735237D01*
X95704819Y-150735237D02*
X95752438Y-150830475D01*
X95752438Y-150830475D02*
X95800057Y-150878094D01*
X95800057Y-150878094D02*
X95895295Y-150925713D01*
X95895295Y-150925713D02*
X96133390Y-150925713D01*
X96133390Y-150925713D02*
X96228628Y-150878094D01*
X96228628Y-150878094D02*
X96276247Y-150830475D01*
X96276247Y-150830475D02*
X96323866Y-150735237D01*
X96323866Y-150735237D02*
X96323866Y-150544761D01*
X96323866Y-150544761D02*
X96276247Y-150449523D01*
X96276247Y-150449523D02*
X96228628Y-150401904D01*
X96228628Y-150401904D02*
X96133390Y-150354285D01*
X107404819Y-167320238D02*
X106928628Y-167653571D01*
X107404819Y-167891666D02*
X106404819Y-167891666D01*
X106404819Y-167891666D02*
X106404819Y-167510714D01*
X106404819Y-167510714D02*
X106452438Y-167415476D01*
X106452438Y-167415476D02*
X106500057Y-167367857D01*
X106500057Y-167367857D02*
X106595295Y-167320238D01*
X106595295Y-167320238D02*
X106738152Y-167320238D01*
X106738152Y-167320238D02*
X106833390Y-167367857D01*
X106833390Y-167367857D02*
X106881009Y-167415476D01*
X106881009Y-167415476D02*
X106928628Y-167510714D01*
X106928628Y-167510714D02*
X106928628Y-167891666D01*
X106404819Y-167034523D02*
X107404819Y-166701190D01*
X107404819Y-166701190D02*
X106404819Y-166367857D01*
X106500057Y-166082142D02*
X106452438Y-166034523D01*
X106452438Y-166034523D02*
X106404819Y-165939285D01*
X106404819Y-165939285D02*
X106404819Y-165701190D01*
X106404819Y-165701190D02*
X106452438Y-165605952D01*
X106452438Y-165605952D02*
X106500057Y-165558333D01*
X106500057Y-165558333D02*
X106595295Y-165510714D01*
X106595295Y-165510714D02*
X106690533Y-165510714D01*
X106690533Y-165510714D02*
X106833390Y-165558333D01*
X106833390Y-165558333D02*
X107404819Y-166129761D01*
X107404819Y-166129761D02*
X107404819Y-165510714D01*
X51564761Y-171454819D02*
X51231428Y-170978628D01*
X50993333Y-171454819D02*
X50993333Y-170454819D01*
X50993333Y-170454819D02*
X51374285Y-170454819D01*
X51374285Y-170454819D02*
X51469523Y-170502438D01*
X51469523Y-170502438D02*
X51517142Y-170550057D01*
X51517142Y-170550057D02*
X51564761Y-170645295D01*
X51564761Y-170645295D02*
X51564761Y-170788152D01*
X51564761Y-170788152D02*
X51517142Y-170883390D01*
X51517142Y-170883390D02*
X51469523Y-170931009D01*
X51469523Y-170931009D02*
X51374285Y-170978628D01*
X51374285Y-170978628D02*
X50993333Y-170978628D01*
X51850476Y-170454819D02*
X52183809Y-171454819D01*
X52183809Y-171454819D02*
X52517142Y-170454819D01*
X53374285Y-171454819D02*
X52802857Y-171454819D01*
X53088571Y-171454819D02*
X53088571Y-170454819D01*
X53088571Y-170454819D02*
X52993333Y-170597676D01*
X52993333Y-170597676D02*
X52898095Y-170692914D01*
X52898095Y-170692914D02*
X52802857Y-170740533D01*
X111953333Y-73514819D02*
X111477143Y-73514819D01*
X111477143Y-73514819D02*
X111477143Y-72514819D01*
X112239048Y-72610057D02*
X112286667Y-72562438D01*
X112286667Y-72562438D02*
X112381905Y-72514819D01*
X112381905Y-72514819D02*
X112620000Y-72514819D01*
X112620000Y-72514819D02*
X112715238Y-72562438D01*
X112715238Y-72562438D02*
X112762857Y-72610057D01*
X112762857Y-72610057D02*
X112810476Y-72705295D01*
X112810476Y-72705295D02*
X112810476Y-72800533D01*
X112810476Y-72800533D02*
X112762857Y-72943390D01*
X112762857Y-72943390D02*
X112191429Y-73514819D01*
X112191429Y-73514819D02*
X112810476Y-73514819D01*
X35869580Y-161896666D02*
X35917200Y-161944285D01*
X35917200Y-161944285D02*
X35964819Y-162087142D01*
X35964819Y-162087142D02*
X35964819Y-162182380D01*
X35964819Y-162182380D02*
X35917200Y-162325237D01*
X35917200Y-162325237D02*
X35821961Y-162420475D01*
X35821961Y-162420475D02*
X35726723Y-162468094D01*
X35726723Y-162468094D02*
X35536247Y-162515713D01*
X35536247Y-162515713D02*
X35393390Y-162515713D01*
X35393390Y-162515713D02*
X35202914Y-162468094D01*
X35202914Y-162468094D02*
X35107676Y-162420475D01*
X35107676Y-162420475D02*
X35012438Y-162325237D01*
X35012438Y-162325237D02*
X34964819Y-162182380D01*
X34964819Y-162182380D02*
X34964819Y-162087142D01*
X34964819Y-162087142D02*
X35012438Y-161944285D01*
X35012438Y-161944285D02*
X35060057Y-161896666D01*
X34964819Y-161563332D02*
X34964819Y-160896666D01*
X34964819Y-160896666D02*
X35964819Y-161325237D01*
X66033333Y-121379580D02*
X65985714Y-121427200D01*
X65985714Y-121427200D02*
X65842857Y-121474819D01*
X65842857Y-121474819D02*
X65747619Y-121474819D01*
X65747619Y-121474819D02*
X65604762Y-121427200D01*
X65604762Y-121427200D02*
X65509524Y-121331961D01*
X65509524Y-121331961D02*
X65461905Y-121236723D01*
X65461905Y-121236723D02*
X65414286Y-121046247D01*
X65414286Y-121046247D02*
X65414286Y-120903390D01*
X65414286Y-120903390D02*
X65461905Y-120712914D01*
X65461905Y-120712914D02*
X65509524Y-120617676D01*
X65509524Y-120617676D02*
X65604762Y-120522438D01*
X65604762Y-120522438D02*
X65747619Y-120474819D01*
X65747619Y-120474819D02*
X65842857Y-120474819D01*
X65842857Y-120474819D02*
X65985714Y-120522438D01*
X65985714Y-120522438D02*
X66033333Y-120570057D01*
X66985714Y-121474819D02*
X66414286Y-121474819D01*
X66700000Y-121474819D02*
X66700000Y-120474819D01*
X66700000Y-120474819D02*
X66604762Y-120617676D01*
X66604762Y-120617676D02*
X66509524Y-120712914D01*
X66509524Y-120712914D02*
X66414286Y-120760533D01*
X75034819Y-146486666D02*
X74558628Y-146819999D01*
X75034819Y-147058094D02*
X74034819Y-147058094D01*
X74034819Y-147058094D02*
X74034819Y-146677142D01*
X74034819Y-146677142D02*
X74082438Y-146581904D01*
X74082438Y-146581904D02*
X74130057Y-146534285D01*
X74130057Y-146534285D02*
X74225295Y-146486666D01*
X74225295Y-146486666D02*
X74368152Y-146486666D01*
X74368152Y-146486666D02*
X74463390Y-146534285D01*
X74463390Y-146534285D02*
X74511009Y-146581904D01*
X74511009Y-146581904D02*
X74558628Y-146677142D01*
X74558628Y-146677142D02*
X74558628Y-147058094D01*
X74368152Y-145629523D02*
X75034819Y-145629523D01*
X73987200Y-145867618D02*
X74701485Y-146105713D01*
X74701485Y-146105713D02*
X74701485Y-145486666D01*
X142139580Y-150152857D02*
X142187200Y-150200476D01*
X142187200Y-150200476D02*
X142234819Y-150343333D01*
X142234819Y-150343333D02*
X142234819Y-150438571D01*
X142234819Y-150438571D02*
X142187200Y-150581428D01*
X142187200Y-150581428D02*
X142091961Y-150676666D01*
X142091961Y-150676666D02*
X141996723Y-150724285D01*
X141996723Y-150724285D02*
X141806247Y-150771904D01*
X141806247Y-150771904D02*
X141663390Y-150771904D01*
X141663390Y-150771904D02*
X141472914Y-150724285D01*
X141472914Y-150724285D02*
X141377676Y-150676666D01*
X141377676Y-150676666D02*
X141282438Y-150581428D01*
X141282438Y-150581428D02*
X141234819Y-150438571D01*
X141234819Y-150438571D02*
X141234819Y-150343333D01*
X141234819Y-150343333D02*
X141282438Y-150200476D01*
X141282438Y-150200476D02*
X141330057Y-150152857D01*
X141330057Y-149771904D02*
X141282438Y-149724285D01*
X141282438Y-149724285D02*
X141234819Y-149629047D01*
X141234819Y-149629047D02*
X141234819Y-149390952D01*
X141234819Y-149390952D02*
X141282438Y-149295714D01*
X141282438Y-149295714D02*
X141330057Y-149248095D01*
X141330057Y-149248095D02*
X141425295Y-149200476D01*
X141425295Y-149200476D02*
X141520533Y-149200476D01*
X141520533Y-149200476D02*
X141663390Y-149248095D01*
X141663390Y-149248095D02*
X142234819Y-149819523D01*
X142234819Y-149819523D02*
X142234819Y-149200476D01*
X141234819Y-148867142D02*
X141234819Y-148248095D01*
X141234819Y-148248095D02*
X141615771Y-148581428D01*
X141615771Y-148581428D02*
X141615771Y-148438571D01*
X141615771Y-148438571D02*
X141663390Y-148343333D01*
X141663390Y-148343333D02*
X141711009Y-148295714D01*
X141711009Y-148295714D02*
X141806247Y-148248095D01*
X141806247Y-148248095D02*
X142044342Y-148248095D01*
X142044342Y-148248095D02*
X142139580Y-148295714D01*
X142139580Y-148295714D02*
X142187200Y-148343333D01*
X142187200Y-148343333D02*
X142234819Y-148438571D01*
X142234819Y-148438571D02*
X142234819Y-148724285D01*
X142234819Y-148724285D02*
X142187200Y-148819523D01*
X142187200Y-148819523D02*
X142139580Y-148867142D01*
X54693333Y-148994819D02*
X54360000Y-148518628D01*
X54121905Y-148994819D02*
X54121905Y-147994819D01*
X54121905Y-147994819D02*
X54502857Y-147994819D01*
X54502857Y-147994819D02*
X54598095Y-148042438D01*
X54598095Y-148042438D02*
X54645714Y-148090057D01*
X54645714Y-148090057D02*
X54693333Y-148185295D01*
X54693333Y-148185295D02*
X54693333Y-148328152D01*
X54693333Y-148328152D02*
X54645714Y-148423390D01*
X54645714Y-148423390D02*
X54598095Y-148471009D01*
X54598095Y-148471009D02*
X54502857Y-148518628D01*
X54502857Y-148518628D02*
X54121905Y-148518628D01*
X55550476Y-147994819D02*
X55360000Y-147994819D01*
X55360000Y-147994819D02*
X55264762Y-148042438D01*
X55264762Y-148042438D02*
X55217143Y-148090057D01*
X55217143Y-148090057D02*
X55121905Y-148232914D01*
X55121905Y-148232914D02*
X55074286Y-148423390D01*
X55074286Y-148423390D02*
X55074286Y-148804342D01*
X55074286Y-148804342D02*
X55121905Y-148899580D01*
X55121905Y-148899580D02*
X55169524Y-148947200D01*
X55169524Y-148947200D02*
X55264762Y-148994819D01*
X55264762Y-148994819D02*
X55455238Y-148994819D01*
X55455238Y-148994819D02*
X55550476Y-148947200D01*
X55550476Y-148947200D02*
X55598095Y-148899580D01*
X55598095Y-148899580D02*
X55645714Y-148804342D01*
X55645714Y-148804342D02*
X55645714Y-148566247D01*
X55645714Y-148566247D02*
X55598095Y-148471009D01*
X55598095Y-148471009D02*
X55550476Y-148423390D01*
X55550476Y-148423390D02*
X55455238Y-148375771D01*
X55455238Y-148375771D02*
X55264762Y-148375771D01*
X55264762Y-148375771D02*
X55169524Y-148423390D01*
X55169524Y-148423390D02*
X55121905Y-148471009D01*
X55121905Y-148471009D02*
X55074286Y-148566247D01*
X66993333Y-165634580D02*
X66945714Y-165682200D01*
X66945714Y-165682200D02*
X66802857Y-165729819D01*
X66802857Y-165729819D02*
X66707619Y-165729819D01*
X66707619Y-165729819D02*
X66564762Y-165682200D01*
X66564762Y-165682200D02*
X66469524Y-165586961D01*
X66469524Y-165586961D02*
X66421905Y-165491723D01*
X66421905Y-165491723D02*
X66374286Y-165301247D01*
X66374286Y-165301247D02*
X66374286Y-165158390D01*
X66374286Y-165158390D02*
X66421905Y-164967914D01*
X66421905Y-164967914D02*
X66469524Y-164872676D01*
X66469524Y-164872676D02*
X66564762Y-164777438D01*
X66564762Y-164777438D02*
X66707619Y-164729819D01*
X66707619Y-164729819D02*
X66802857Y-164729819D01*
X66802857Y-164729819D02*
X66945714Y-164777438D01*
X66945714Y-164777438D02*
X66993333Y-164825057D01*
X67469524Y-165729819D02*
X67660000Y-165729819D01*
X67660000Y-165729819D02*
X67755238Y-165682200D01*
X67755238Y-165682200D02*
X67802857Y-165634580D01*
X67802857Y-165634580D02*
X67898095Y-165491723D01*
X67898095Y-165491723D02*
X67945714Y-165301247D01*
X67945714Y-165301247D02*
X67945714Y-164920295D01*
X67945714Y-164920295D02*
X67898095Y-164825057D01*
X67898095Y-164825057D02*
X67850476Y-164777438D01*
X67850476Y-164777438D02*
X67755238Y-164729819D01*
X67755238Y-164729819D02*
X67564762Y-164729819D01*
X67564762Y-164729819D02*
X67469524Y-164777438D01*
X67469524Y-164777438D02*
X67421905Y-164825057D01*
X67421905Y-164825057D02*
X67374286Y-164920295D01*
X67374286Y-164920295D02*
X67374286Y-165158390D01*
X67374286Y-165158390D02*
X67421905Y-165253628D01*
X67421905Y-165253628D02*
X67469524Y-165301247D01*
X67469524Y-165301247D02*
X67564762Y-165348866D01*
X67564762Y-165348866D02*
X67755238Y-165348866D01*
X67755238Y-165348866D02*
X67850476Y-165301247D01*
X67850476Y-165301247D02*
X67898095Y-165253628D01*
X67898095Y-165253628D02*
X67945714Y-165158390D01*
X93774819Y-147926666D02*
X93298628Y-148259999D01*
X93774819Y-148498094D02*
X92774819Y-148498094D01*
X92774819Y-148498094D02*
X92774819Y-148117142D01*
X92774819Y-148117142D02*
X92822438Y-148021904D01*
X92822438Y-148021904D02*
X92870057Y-147974285D01*
X92870057Y-147974285D02*
X92965295Y-147926666D01*
X92965295Y-147926666D02*
X93108152Y-147926666D01*
X93108152Y-147926666D02*
X93203390Y-147974285D01*
X93203390Y-147974285D02*
X93251009Y-148021904D01*
X93251009Y-148021904D02*
X93298628Y-148117142D01*
X93298628Y-148117142D02*
X93298628Y-148498094D01*
X93203390Y-147355237D02*
X93155771Y-147450475D01*
X93155771Y-147450475D02*
X93108152Y-147498094D01*
X93108152Y-147498094D02*
X93012914Y-147545713D01*
X93012914Y-147545713D02*
X92965295Y-147545713D01*
X92965295Y-147545713D02*
X92870057Y-147498094D01*
X92870057Y-147498094D02*
X92822438Y-147450475D01*
X92822438Y-147450475D02*
X92774819Y-147355237D01*
X92774819Y-147355237D02*
X92774819Y-147164761D01*
X92774819Y-147164761D02*
X92822438Y-147069523D01*
X92822438Y-147069523D02*
X92870057Y-147021904D01*
X92870057Y-147021904D02*
X92965295Y-146974285D01*
X92965295Y-146974285D02*
X93012914Y-146974285D01*
X93012914Y-146974285D02*
X93108152Y-147021904D01*
X93108152Y-147021904D02*
X93155771Y-147069523D01*
X93155771Y-147069523D02*
X93203390Y-147164761D01*
X93203390Y-147164761D02*
X93203390Y-147355237D01*
X93203390Y-147355237D02*
X93251009Y-147450475D01*
X93251009Y-147450475D02*
X93298628Y-147498094D01*
X93298628Y-147498094D02*
X93393866Y-147545713D01*
X93393866Y-147545713D02*
X93584342Y-147545713D01*
X93584342Y-147545713D02*
X93679580Y-147498094D01*
X93679580Y-147498094D02*
X93727200Y-147450475D01*
X93727200Y-147450475D02*
X93774819Y-147355237D01*
X93774819Y-147355237D02*
X93774819Y-147164761D01*
X93774819Y-147164761D02*
X93727200Y-147069523D01*
X93727200Y-147069523D02*
X93679580Y-147021904D01*
X93679580Y-147021904D02*
X93584342Y-146974285D01*
X93584342Y-146974285D02*
X93393866Y-146974285D01*
X93393866Y-146974285D02*
X93298628Y-147021904D01*
X93298628Y-147021904D02*
X93251009Y-147069523D01*
X93251009Y-147069523D02*
X93203390Y-147164761D01*
X101147142Y-79649580D02*
X101099523Y-79697200D01*
X101099523Y-79697200D02*
X100956666Y-79744819D01*
X100956666Y-79744819D02*
X100861428Y-79744819D01*
X100861428Y-79744819D02*
X100718571Y-79697200D01*
X100718571Y-79697200D02*
X100623333Y-79601961D01*
X100623333Y-79601961D02*
X100575714Y-79506723D01*
X100575714Y-79506723D02*
X100528095Y-79316247D01*
X100528095Y-79316247D02*
X100528095Y-79173390D01*
X100528095Y-79173390D02*
X100575714Y-78982914D01*
X100575714Y-78982914D02*
X100623333Y-78887676D01*
X100623333Y-78887676D02*
X100718571Y-78792438D01*
X100718571Y-78792438D02*
X100861428Y-78744819D01*
X100861428Y-78744819D02*
X100956666Y-78744819D01*
X100956666Y-78744819D02*
X101099523Y-78792438D01*
X101099523Y-78792438D02*
X101147142Y-78840057D01*
X102099523Y-79744819D02*
X101528095Y-79744819D01*
X101813809Y-79744819D02*
X101813809Y-78744819D01*
X101813809Y-78744819D02*
X101718571Y-78887676D01*
X101718571Y-78887676D02*
X101623333Y-78982914D01*
X101623333Y-78982914D02*
X101528095Y-79030533D01*
X102480476Y-78840057D02*
X102528095Y-78792438D01*
X102528095Y-78792438D02*
X102623333Y-78744819D01*
X102623333Y-78744819D02*
X102861428Y-78744819D01*
X102861428Y-78744819D02*
X102956666Y-78792438D01*
X102956666Y-78792438D02*
X103004285Y-78840057D01*
X103004285Y-78840057D02*
X103051904Y-78935295D01*
X103051904Y-78935295D02*
X103051904Y-79030533D01*
X103051904Y-79030533D02*
X103004285Y-79173390D01*
X103004285Y-79173390D02*
X102432857Y-79744819D01*
X102432857Y-79744819D02*
X103051904Y-79744819D01*
%TO.C,R12*%
D11*
X130640000Y-144920000D02*
X130640000Y-145690000D01*
X130640000Y-153000000D02*
X130640000Y-152230000D01*
X129270000Y-145690000D02*
X132010000Y-145690000D01*
X132010000Y-152230000D01*
X129270000Y-152230000D01*
X129270000Y-145690000D01*
%TO.C,U3*%
X131610000Y-118900000D02*
X131610000Y-129180000D01*
X131610000Y-129180000D02*
X136910000Y-129180000D01*
X133260000Y-118900000D02*
X131610000Y-118900000D01*
X136910000Y-118900000D02*
X135260000Y-118900000D01*
X136910000Y-129180000D02*
X136910000Y-118900000D01*
X129120000Y-118840000D02*
X139400000Y-118840000D01*
X139400000Y-129240000D01*
X129120000Y-129240000D01*
X129120000Y-118840000D01*
X135260000Y-118900000D02*
G75*
G02*
X133260000Y-118900000I-1000000J0D01*
G01*
%TO.C,C19*%
X106410000Y-148240000D02*
X112650000Y-148240000D01*
X106410000Y-161480000D02*
X106410000Y-148240000D01*
X112650000Y-148240000D02*
X112650000Y-161480000D01*
X112650000Y-161480000D02*
X106410000Y-161480000D01*
%TO.C,C2*%
X43300000Y-126970000D02*
X48540000Y-126970000D01*
X43300000Y-129710000D02*
X43300000Y-126970000D01*
X48540000Y-126970000D02*
X48540000Y-129710000D01*
X48540000Y-129710000D02*
X43300000Y-129710000D01*
%TO.C,R5*%
X58970000Y-146780000D02*
X58970000Y-147550000D01*
X58970000Y-154860000D02*
X58970000Y-154090000D01*
X57600000Y-147550000D02*
X60340000Y-147550000D01*
X60340000Y-154090000D01*
X57600000Y-154090000D01*
X57600000Y-147550000D01*
%TO.C,C22*%
X149300000Y-143500000D02*
X155540000Y-143500000D01*
X149300000Y-156740000D02*
X149300000Y-143500000D01*
X155540000Y-143500000D02*
X155540000Y-156740000D01*
X155540000Y-156740000D02*
X149300000Y-156740000D01*
%TO.C,C5*%
X136700000Y-115600000D02*
X141940000Y-115600000D01*
X136700000Y-118340000D02*
X136700000Y-115600000D01*
X141940000Y-115600000D02*
X141940000Y-118340000D01*
X141940000Y-118340000D02*
X136700000Y-118340000D01*
%TO.C,F1*%
X56490000Y-78350000D02*
X66630000Y-78350000D01*
X56490000Y-78830000D02*
X56490000Y-78350000D01*
X56490000Y-81710000D02*
X56490000Y-82190000D01*
X56490000Y-82190000D02*
X66630000Y-82190000D01*
X66630000Y-78350000D02*
X66630000Y-78830000D01*
X66630000Y-82190000D02*
X66630000Y-81710000D01*
%TO.C,C14*%
X101882500Y-87345000D02*
X104622500Y-87345000D01*
X101882500Y-92585000D02*
X101882500Y-87345000D01*
X104622500Y-87345000D02*
X104622500Y-92585000D01*
X104622500Y-92585000D02*
X101882500Y-92585000D01*
%TO.C,C21*%
X153100000Y-157630000D02*
X159340000Y-157630000D01*
X153100000Y-170870000D02*
X153100000Y-157630000D01*
X159340000Y-157630000D02*
X159340000Y-170870000D01*
X159340000Y-170870000D02*
X153100000Y-170870000D01*
%TO.C,C11*%
X46130000Y-145190000D02*
X52370000Y-145190000D01*
X46130000Y-158430000D02*
X46130000Y-145190000D01*
X52370000Y-145190000D02*
X52370000Y-158430000D01*
X52370000Y-158430000D02*
X46130000Y-158430000D01*
%TO.C,R13*%
X147220000Y-146160000D02*
X147220000Y-146930000D01*
X147220000Y-154240000D02*
X147220000Y-153470000D01*
X145850000Y-146930000D02*
X148590000Y-146930000D01*
X148590000Y-153470000D01*
X145850000Y-153470000D01*
X145850000Y-146930000D01*
%TO.C,R14*%
X157700000Y-146140000D02*
X157700000Y-146910000D01*
X157700000Y-154220000D02*
X157700000Y-153450000D01*
X156330000Y-146910000D02*
X159070000Y-146910000D01*
X159070000Y-153450000D01*
X156330000Y-153450000D01*
X156330000Y-146910000D01*
%TO.C,R10*%
X114740000Y-147460000D02*
X114740000Y-148230000D01*
X114740000Y-155540000D02*
X114740000Y-154770000D01*
X113370000Y-148230000D02*
X116110000Y-148230000D01*
X116110000Y-154770000D01*
X113370000Y-154770000D01*
X113370000Y-148230000D01*
%TO.C,C8*%
X71200000Y-80440000D02*
X73940000Y-80440000D01*
X71200000Y-85680000D02*
X71200000Y-80440000D01*
X73940000Y-80440000D02*
X73940000Y-85680000D01*
X73940000Y-85680000D02*
X71200000Y-85680000D01*
%TO.C,J1*%
X29327500Y-117650000D02*
X39367500Y-117650000D01*
X29327500Y-119970000D02*
X29327500Y-117650000D01*
X29327500Y-132890000D02*
X29327500Y-120570000D01*
X29947500Y-117650000D02*
X29947500Y-132890000D01*
X31447500Y-117650000D02*
X31447500Y-132890000D01*
X36347500Y-117650000D02*
X36347500Y-132890000D01*
X39367500Y-117650000D02*
X39367500Y-132890000D01*
X39367500Y-132890000D02*
X29327500Y-132890000D01*
X29327500Y-120270000D02*
X28717500Y-120710000D01*
X28717500Y-119830000D01*
X29327500Y-120270000D01*
G36*
X29327500Y-120270000D02*
G01*
X28717500Y-120710000D01*
X28717500Y-119830000D01*
X29327500Y-120270000D01*
G37*
%TO.C,C6*%
X123360000Y-126520000D02*
X128600000Y-126520000D01*
X123360000Y-129260000D02*
X123360000Y-126520000D01*
X128600000Y-126520000D02*
X128600000Y-129260000D01*
X128600000Y-129260000D02*
X123360000Y-129260000D01*
%TO.C,C17*%
X109600000Y-162010000D02*
X122840000Y-162010000D01*
X109600000Y-168250000D02*
X109600000Y-162010000D01*
X122840000Y-162010000D02*
X122840000Y-168250000D01*
X122840000Y-168250000D02*
X109600000Y-168250000D01*
%TO.C,U2*%
X96410000Y-124560000D02*
X96410000Y-134840000D01*
X96410000Y-134840000D02*
X101710000Y-134840000D01*
X98060000Y-124560000D02*
X96410000Y-124560000D01*
X101710000Y-124560000D02*
X100060000Y-124560000D01*
X101710000Y-134840000D02*
X101710000Y-124560000D01*
X93920000Y-124500000D02*
X104200000Y-124500000D01*
X104200000Y-134900000D01*
X93920000Y-134900000D01*
X93920000Y-124500000D01*
X100060000Y-124560000D02*
G75*
G02*
X98060000Y-124560000I-1000000J0D01*
G01*
%TO.C,U4*%
X75780000Y-74205000D02*
X97800000Y-74205000D01*
X75780000Y-76594000D02*
X75780000Y-74205000D01*
X75780000Y-83725000D02*
X75780000Y-77186000D01*
X97800000Y-74205000D02*
X97800000Y-83725000D01*
X97800000Y-83725000D02*
X75780000Y-83725000D01*
X75780000Y-76890000D02*
X75310000Y-77230000D01*
X75310000Y-76550000D01*
X75780000Y-76890000D01*
G36*
X75780000Y-76890000D02*
G01*
X75310000Y-77230000D01*
X75310000Y-76550000D01*
X75780000Y-76890000D01*
G37*
%TO.C,R11*%
X135180000Y-157105000D02*
X135180000Y-157875000D01*
X135180000Y-165185000D02*
X135180000Y-164415000D01*
X133810000Y-157875000D02*
X136550000Y-157875000D01*
X136550000Y-164415000D01*
X133810000Y-164415000D01*
X133810000Y-157875000D01*
%TO.C,J3*%
X153970000Y-117060000D02*
X164010000Y-117060000D01*
X153970000Y-132300000D02*
X153970000Y-117060000D01*
X156990000Y-132300000D02*
X156990000Y-117060000D01*
X161890000Y-132300000D02*
X161890000Y-117060000D01*
X163390000Y-132300000D02*
X163390000Y-117060000D01*
X164010000Y-117060000D02*
X164010000Y-129380000D01*
X164010000Y-129980000D02*
X164010000Y-132300000D01*
X164010000Y-132300000D02*
X153970000Y-132300000D01*
X164620000Y-130120000D02*
X164010000Y-129680000D01*
X164620000Y-129240000D01*
X164620000Y-130120000D01*
G36*
X164620000Y-130120000D02*
G01*
X164010000Y-129680000D01*
X164620000Y-129240000D01*
X164620000Y-130120000D01*
G37*
%TO.C,C4*%
X88000000Y-132130000D02*
X93240000Y-132130000D01*
X88000000Y-134870000D02*
X88000000Y-132130000D01*
X93240000Y-132130000D02*
X93240000Y-134870000D01*
X93240000Y-134870000D02*
X88000000Y-134870000D01*
%TO.C,C16*%
X79760000Y-154710000D02*
X86000000Y-154710000D01*
X79760000Y-167950000D02*
X79760000Y-154710000D01*
X86000000Y-154710000D02*
X86000000Y-167950000D01*
X86000000Y-167950000D02*
X79760000Y-167950000D01*
%TO.C,RV3*%
X138110000Y-162411000D02*
X138110000Y-171290000D01*
X139660000Y-171290000D02*
X139660000Y-176290000D01*
X141160000Y-176290000D02*
X141160000Y-186290000D01*
X146674000Y-161909000D02*
X141885000Y-161909000D01*
X147400000Y-176290000D02*
X147400000Y-186290000D01*
X147400000Y-186290000D02*
X141160000Y-186290000D01*
X148900000Y-171290000D02*
X148900000Y-176290000D01*
X148900000Y-176290000D02*
X139660000Y-176290000D01*
X150450000Y-162411000D02*
X150450000Y-171290000D01*
X150450000Y-171290000D02*
X138110000Y-171290000D01*
%TO.C,C13*%
X99280000Y-81830000D02*
X104520000Y-81830000D01*
X99280000Y-84570000D02*
X99280000Y-81830000D01*
X104520000Y-81830000D02*
X104520000Y-84570000D01*
X104520000Y-84570000D02*
X99280000Y-84570000D01*
%TO.C,L1*%
X118970354Y-76185000D02*
X119970354Y-76185000D01*
X119470354Y-75685000D02*
X119470354Y-76685000D01*
X124450000Y-73980000D02*
X124450000Y-84140000D01*
X124490000Y-73980000D02*
X124490000Y-84140000D01*
X124530000Y-73981000D02*
X124530000Y-84139000D01*
X124570000Y-73981000D02*
X124570000Y-84139000D01*
X124610000Y-73983000D02*
X124610000Y-84137000D01*
X124650000Y-73984000D02*
X124650000Y-84136000D01*
X124690000Y-73986000D02*
X124690000Y-84134000D01*
X124730000Y-73988000D02*
X124730000Y-84132000D01*
X124770000Y-73990000D02*
X124770000Y-84130000D01*
X124810000Y-73993000D02*
X124810000Y-84127000D01*
X124850000Y-73996000D02*
X124850000Y-84124000D01*
X124890000Y-73999000D02*
X124890000Y-84121000D01*
X124930000Y-74003000D02*
X124930000Y-84117000D01*
X124970000Y-74006000D02*
X124970000Y-84114000D01*
X125010000Y-74011000D02*
X125010000Y-84109000D01*
X125050000Y-74015000D02*
X125050000Y-84105000D01*
X125090000Y-74020000D02*
X125090000Y-84100000D01*
X125130000Y-74025000D02*
X125130000Y-84095000D01*
X125170000Y-74031000D02*
X125170000Y-84089000D01*
X125210000Y-74037000D02*
X125210000Y-84083000D01*
X125250000Y-74043000D02*
X125250000Y-84077000D01*
X125290000Y-74049000D02*
X125290000Y-84071000D01*
X125330000Y-74056000D02*
X125330000Y-84064000D01*
X125370000Y-74063000D02*
X125370000Y-84057000D01*
X125410000Y-74071000D02*
X125410000Y-84049000D01*
X125450000Y-74079000D02*
X125450000Y-84041000D01*
X125490000Y-74087000D02*
X125490000Y-84033000D01*
X125530000Y-74095000D02*
X125530000Y-84025000D01*
X125570000Y-74104000D02*
X125570000Y-84016000D01*
X125610000Y-74113000D02*
X125610000Y-84007000D01*
X125650000Y-74123000D02*
X125650000Y-83997000D01*
X125690000Y-74132000D02*
X125690000Y-83988000D01*
X125730000Y-74143000D02*
X125730000Y-77820000D01*
X125730000Y-80300000D02*
X125730000Y-83977000D01*
X125770000Y-74153000D02*
X125770000Y-77820000D01*
X125770000Y-80300000D02*
X125770000Y-83967000D01*
X125810000Y-74164000D02*
X125810000Y-77820000D01*
X125810000Y-80300000D02*
X125810000Y-83956000D01*
X125850000Y-74175000D02*
X125850000Y-77820000D01*
X125850000Y-80300000D02*
X125850000Y-83945000D01*
X125890000Y-74187000D02*
X125890000Y-77820000D01*
X125890000Y-80300000D02*
X125890000Y-83933000D01*
X125930000Y-74199000D02*
X125930000Y-77820000D01*
X125930000Y-80300000D02*
X125930000Y-83921000D01*
X125970000Y-74211000D02*
X125970000Y-77820000D01*
X125970000Y-80300000D02*
X125970000Y-83909000D01*
X126010000Y-74223000D02*
X126010000Y-77820000D01*
X126010000Y-80300000D02*
X126010000Y-83897000D01*
X126050000Y-74236000D02*
X126050000Y-77820000D01*
X126050000Y-80300000D02*
X126050000Y-83884000D01*
X126090000Y-74250000D02*
X126090000Y-77820000D01*
X126090000Y-80300000D02*
X126090000Y-83870000D01*
X126130000Y-74263000D02*
X126130000Y-77820000D01*
X126130000Y-80300000D02*
X126130000Y-83857000D01*
X126170000Y-74278000D02*
X126170000Y-77820000D01*
X126170000Y-80300000D02*
X126170000Y-83842000D01*
X126210000Y-74292000D02*
X126210000Y-77820000D01*
X126210000Y-80300000D02*
X126210000Y-83828000D01*
X126250000Y-74307000D02*
X126250000Y-77820000D01*
X126250000Y-80300000D02*
X126250000Y-83813000D01*
X126290000Y-74322000D02*
X126290000Y-77820000D01*
X126290000Y-80300000D02*
X126290000Y-83798000D01*
X126330000Y-74338000D02*
X126330000Y-77820000D01*
X126330000Y-80300000D02*
X126330000Y-83782000D01*
X126370000Y-74354000D02*
X126370000Y-77820000D01*
X126370000Y-80300000D02*
X126370000Y-83766000D01*
X126410000Y-74370000D02*
X126410000Y-77820000D01*
X126410000Y-80300000D02*
X126410000Y-83750000D01*
X126450000Y-74387000D02*
X126450000Y-77820000D01*
X126450000Y-80300000D02*
X126450000Y-83733000D01*
X126490000Y-74404000D02*
X126490000Y-77820000D01*
X126490000Y-80300000D02*
X126490000Y-83716000D01*
X126530000Y-74422000D02*
X126530000Y-77820000D01*
X126530000Y-80300000D02*
X126530000Y-83698000D01*
X126570000Y-74440000D02*
X126570000Y-77820000D01*
X126570000Y-80300000D02*
X126570000Y-83680000D01*
X126610000Y-74458000D02*
X126610000Y-77820000D01*
X126610000Y-80300000D02*
X126610000Y-83662000D01*
X126650000Y-74477000D02*
X126650000Y-77820000D01*
X126650000Y-80300000D02*
X126650000Y-83643000D01*
X126690000Y-74496000D02*
X126690000Y-77820000D01*
X126690000Y-80300000D02*
X126690000Y-83624000D01*
X126730000Y-74516000D02*
X126730000Y-77820000D01*
X126730000Y-80300000D02*
X126730000Y-83604000D01*
X126770000Y-74536000D02*
X126770000Y-77820000D01*
X126770000Y-80300000D02*
X126770000Y-83584000D01*
X126810000Y-74556000D02*
X126810000Y-77820000D01*
X126810000Y-80300000D02*
X126810000Y-83564000D01*
X126850000Y-74577000D02*
X126850000Y-77820000D01*
X126850000Y-80300000D02*
X126850000Y-83543000D01*
X126890000Y-74599000D02*
X126890000Y-77820000D01*
X126890000Y-80300000D02*
X126890000Y-83521000D01*
X126930000Y-74621000D02*
X126930000Y-77820000D01*
X126930000Y-80300000D02*
X126930000Y-83499000D01*
X126970000Y-74643000D02*
X126970000Y-77820000D01*
X126970000Y-80300000D02*
X126970000Y-83477000D01*
X127010000Y-74666000D02*
X127010000Y-77820000D01*
X127010000Y-80300000D02*
X127010000Y-83454000D01*
X127050000Y-74689000D02*
X127050000Y-77820000D01*
X127050000Y-80300000D02*
X127050000Y-83431000D01*
X127090000Y-74713000D02*
X127090000Y-77820000D01*
X127090000Y-80300000D02*
X127090000Y-83407000D01*
X127130000Y-74737000D02*
X127130000Y-77820000D01*
X127130000Y-80300000D02*
X127130000Y-83383000D01*
X127170000Y-74762000D02*
X127170000Y-77820000D01*
X127170000Y-80300000D02*
X127170000Y-83358000D01*
X127210000Y-74788000D02*
X127210000Y-77820000D01*
X127210000Y-80300000D02*
X127210000Y-83332000D01*
X127250000Y-74813000D02*
X127250000Y-77820000D01*
X127250000Y-80300000D02*
X127250000Y-83307000D01*
X127290000Y-74840000D02*
X127290000Y-77820000D01*
X127290000Y-80300000D02*
X127290000Y-83280000D01*
X127330000Y-74867000D02*
X127330000Y-77820000D01*
X127330000Y-80300000D02*
X127330000Y-83253000D01*
X127370000Y-74894000D02*
X127370000Y-77820000D01*
X127370000Y-80300000D02*
X127370000Y-83226000D01*
X127410000Y-74922000D02*
X127410000Y-77820000D01*
X127410000Y-80300000D02*
X127410000Y-83198000D01*
X127450000Y-74951000D02*
X127450000Y-77820000D01*
X127450000Y-80300000D02*
X127450000Y-83169000D01*
X127490000Y-74980000D02*
X127490000Y-77820000D01*
X127490000Y-80300000D02*
X127490000Y-83140000D01*
X127530000Y-75010000D02*
X127530000Y-77820000D01*
X127530000Y-80300000D02*
X127530000Y-83110000D01*
X127570000Y-75040000D02*
X127570000Y-77820000D01*
X127570000Y-80300000D02*
X127570000Y-83080000D01*
X127610000Y-75072000D02*
X127610000Y-77820000D01*
X127610000Y-80300000D02*
X127610000Y-83048000D01*
X127650000Y-75103000D02*
X127650000Y-77820000D01*
X127650000Y-80300000D02*
X127650000Y-83017000D01*
X127690000Y-75136000D02*
X127690000Y-77820000D01*
X127690000Y-80300000D02*
X127690000Y-82984000D01*
X127730000Y-75169000D02*
X127730000Y-77820000D01*
X127730000Y-80300000D02*
X127730000Y-82951000D01*
X127770000Y-75202000D02*
X127770000Y-77820000D01*
X127770000Y-80300000D02*
X127770000Y-82918000D01*
X127810000Y-75237000D02*
X127810000Y-77820000D01*
X127810000Y-80300000D02*
X127810000Y-82883000D01*
X127850000Y-75272000D02*
X127850000Y-77820000D01*
X127850000Y-80300000D02*
X127850000Y-82848000D01*
X127890000Y-75308000D02*
X127890000Y-77820000D01*
X127890000Y-80300000D02*
X127890000Y-82812000D01*
X127930000Y-75344000D02*
X127930000Y-77820000D01*
X127930000Y-80300000D02*
X127930000Y-82776000D01*
X127970000Y-75382000D02*
X127970000Y-77820000D01*
X127970000Y-80300000D02*
X127970000Y-82738000D01*
X128010000Y-75420000D02*
X128010000Y-77820000D01*
X128010000Y-80300000D02*
X128010000Y-82700000D01*
X128050000Y-75459000D02*
X128050000Y-77820000D01*
X128050000Y-80300000D02*
X128050000Y-82661000D01*
X128090000Y-75499000D02*
X128090000Y-77820000D01*
X128090000Y-80300000D02*
X128090000Y-82621000D01*
X128130000Y-75540000D02*
X128130000Y-77820000D01*
X128130000Y-80300000D02*
X128130000Y-82580000D01*
X128170000Y-75582000D02*
X128170000Y-77820000D01*
X128170000Y-80300000D02*
X128170000Y-82538000D01*
X128210000Y-75625000D02*
X128210000Y-82495000D01*
X128250000Y-75669000D02*
X128250000Y-82451000D01*
X128290000Y-75713000D02*
X128290000Y-82407000D01*
X128330000Y-75759000D02*
X128330000Y-82361000D01*
X128370000Y-75806000D02*
X128370000Y-82314000D01*
X128410000Y-75855000D02*
X128410000Y-82265000D01*
X128450000Y-75904000D02*
X128450000Y-82216000D01*
X128490000Y-75955000D02*
X128490000Y-82165000D01*
X128530000Y-76007000D02*
X128530000Y-82113000D01*
X128570000Y-76060000D02*
X128570000Y-82060000D01*
X128610000Y-76115000D02*
X128610000Y-82005000D01*
X128650000Y-76172000D02*
X128650000Y-81948000D01*
X128690000Y-76230000D02*
X128690000Y-81890000D01*
X128730000Y-76290000D02*
X128730000Y-81830000D01*
X128770000Y-76352000D02*
X128770000Y-81768000D01*
X128810000Y-76416000D02*
X128810000Y-81704000D01*
X128850000Y-76482000D02*
X128850000Y-81638000D01*
X128890000Y-76550000D02*
X128890000Y-81570000D01*
X128930000Y-76621000D02*
X128930000Y-81499000D01*
X128970000Y-76695000D02*
X128970000Y-81425000D01*
X129010000Y-76772000D02*
X129010000Y-81348000D01*
X129050000Y-76852000D02*
X129050000Y-81268000D01*
X129090000Y-76936000D02*
X129090000Y-81184000D01*
X129130000Y-77023000D02*
X129130000Y-81097000D01*
X129170000Y-77116000D02*
X129170000Y-81004000D01*
X129210000Y-77214000D02*
X129210000Y-80906000D01*
X129250000Y-77318000D02*
X129250000Y-80802000D01*
X129290000Y-77430000D02*
X129290000Y-80690000D01*
X129330000Y-77551000D02*
X129330000Y-80569000D01*
X129370000Y-77683000D02*
X129370000Y-80437000D01*
X129410000Y-77830000D02*
X129410000Y-80290000D01*
X129450000Y-77998000D02*
X129450000Y-80122000D01*
X129490000Y-78198000D02*
X129490000Y-79922000D01*
X129530000Y-78461000D02*
X129530000Y-79659000D01*
X129570000Y-79060000D02*
G75*
G02*
X119330000Y-79060000I-5120000J0D01*
G01*
X119330000Y-79060000D02*
G75*
G02*
X129570000Y-79060000I5120000J0D01*
G01*
%TO.C,R1*%
X41590000Y-111160000D02*
X41590000Y-111930000D01*
X41590000Y-119240000D02*
X41590000Y-118470000D01*
X40220000Y-111930000D02*
X42960000Y-111930000D01*
X42960000Y-118470000D01*
X40220000Y-118470000D01*
X40220000Y-111930000D01*
%TO.C,J2*%
X41722500Y-75565000D02*
X49042500Y-75565000D01*
X41722500Y-85605000D02*
X41722500Y-75565000D01*
X49642500Y-75565000D02*
X51962500Y-75565000D01*
X51962500Y-75565000D02*
X51962500Y-85605000D01*
X51962500Y-76185000D02*
X41722500Y-76185000D01*
X51962500Y-77685000D02*
X41722500Y-77685000D01*
X51962500Y-82585000D02*
X41722500Y-82585000D01*
X51962500Y-85605000D02*
X41722500Y-85605000D01*
X49342500Y-75565000D02*
X48902500Y-74955000D01*
X49782500Y-74955000D01*
X49342500Y-75565000D01*
G36*
X49342500Y-75565000D02*
G01*
X48902500Y-74955000D01*
X49782500Y-74955000D01*
X49342500Y-75565000D01*
G37*
%TO.C,C18*%
X116920000Y-148230000D02*
X123160000Y-148230000D01*
X116920000Y-161470000D02*
X116920000Y-148230000D01*
X123160000Y-148230000D02*
X123160000Y-161470000D01*
X123160000Y-161470000D02*
X116920000Y-161470000D01*
%TO.C,R3*%
X43140000Y-157695000D02*
X43140000Y-158465000D01*
X43140000Y-165775000D02*
X43140000Y-165005000D01*
X41770000Y-158465000D02*
X44510000Y-158465000D01*
X44510000Y-165005000D01*
X41770000Y-165005000D01*
X41770000Y-158465000D01*
%TO.C,C20*%
X125490000Y-156310000D02*
X131730000Y-156310000D01*
X125490000Y-169550000D02*
X125490000Y-156310000D01*
X131730000Y-156310000D02*
X131730000Y-169550000D01*
X131730000Y-169550000D02*
X125490000Y-169550000D01*
%TO.C,C3*%
X104800000Y-124520000D02*
X110040000Y-124520000D01*
X104800000Y-127260000D02*
X104800000Y-124520000D01*
X110040000Y-124520000D02*
X110040000Y-127260000D01*
X110040000Y-127260000D02*
X104800000Y-127260000D01*
%TO.C,C10*%
X61340000Y-146240000D02*
X67580000Y-146240000D01*
X61340000Y-159480000D02*
X61340000Y-146240000D01*
X67580000Y-146240000D02*
X67580000Y-159480000D01*
X67580000Y-159480000D02*
X61340000Y-159480000D01*
%TO.C,C15*%
X96352500Y-87385000D02*
X99092500Y-87385000D01*
X96352500Y-92625000D02*
X96352500Y-87385000D01*
X99092500Y-87385000D02*
X99092500Y-92625000D01*
X99092500Y-92625000D02*
X96352500Y-92625000D01*
%TO.C,R2*%
X41520000Y-131330000D02*
X41520000Y-132100000D01*
X41520000Y-139410000D02*
X41520000Y-138640000D01*
X40150000Y-132100000D02*
X42890000Y-132100000D01*
X42890000Y-138640000D01*
X40150000Y-138640000D01*
X40150000Y-132100000D01*
%TO.C,R7*%
X87850000Y-157680000D02*
X87850000Y-158450000D01*
X87850000Y-165760000D02*
X87850000Y-164990000D01*
X86480000Y-158450000D02*
X89220000Y-158450000D01*
X89220000Y-164990000D01*
X86480000Y-164990000D01*
X86480000Y-158450000D01*
%TO.C,U1*%
X51400000Y-119750000D02*
X51400000Y-130030000D01*
X51400000Y-130030000D02*
X56700000Y-130030000D01*
X53050000Y-119750000D02*
X51400000Y-119750000D01*
X56700000Y-119750000D02*
X55050000Y-119750000D01*
X56700000Y-130030000D02*
X56700000Y-119750000D01*
X48910000Y-119690000D02*
X59190000Y-119690000D01*
X59190000Y-130090000D01*
X48910000Y-130090000D01*
X48910000Y-119690000D01*
X55050000Y-119750000D02*
G75*
G02*
X53050000Y-119750000I-1000000J0D01*
G01*
%TO.C,R9*%
X96250000Y-147100000D02*
X96250000Y-147870000D01*
X96250000Y-155180000D02*
X96250000Y-154410000D01*
X94880000Y-147870000D02*
X97620000Y-147870000D01*
X97620000Y-154410000D01*
X94880000Y-154410000D01*
X94880000Y-147870000D01*
%TO.C,RV2*%
X92680000Y-162966000D02*
X92680000Y-171845000D01*
X94230000Y-171845000D02*
X94230000Y-176845000D01*
X95730000Y-176845000D02*
X95730000Y-186845000D01*
X101244000Y-162464000D02*
X96455000Y-162464000D01*
X101970000Y-176845000D02*
X101970000Y-186845000D01*
X101970000Y-186845000D02*
X95730000Y-186845000D01*
X103470000Y-171845000D02*
X103470000Y-176845000D01*
X103470000Y-176845000D02*
X94230000Y-176845000D01*
X105020000Y-162966000D02*
X105020000Y-171845000D01*
X105020000Y-171845000D02*
X92680000Y-171845000D01*
%TO.C,RV1*%
X46190000Y-163091000D02*
X46190000Y-171970000D01*
X47740000Y-171970000D02*
X47740000Y-176970000D01*
X49240000Y-176970000D02*
X49240000Y-186970000D01*
X54754000Y-162589000D02*
X49965000Y-162589000D01*
X55480000Y-176970000D02*
X55480000Y-186970000D01*
X55480000Y-186970000D02*
X49240000Y-186970000D01*
X56980000Y-171970000D02*
X56980000Y-176970000D01*
X56980000Y-176970000D02*
X47740000Y-176970000D01*
X58530000Y-163091000D02*
X58530000Y-171970000D01*
X58530000Y-171970000D02*
X46190000Y-171970000D01*
%TO.C,L2*%
X106540354Y-76185000D02*
X107540354Y-76185000D01*
X107040354Y-75685000D02*
X107040354Y-76685000D01*
X112020000Y-73980000D02*
X112020000Y-84140000D01*
X112060000Y-73980000D02*
X112060000Y-84140000D01*
X112100000Y-73981000D02*
X112100000Y-84139000D01*
X112140000Y-73981000D02*
X112140000Y-84139000D01*
X112180000Y-73983000D02*
X112180000Y-84137000D01*
X112220000Y-73984000D02*
X112220000Y-84136000D01*
X112260000Y-73986000D02*
X112260000Y-84134000D01*
X112300000Y-73988000D02*
X112300000Y-84132000D01*
X112340000Y-73990000D02*
X112340000Y-84130000D01*
X112380000Y-73993000D02*
X112380000Y-84127000D01*
X112420000Y-73996000D02*
X112420000Y-84124000D01*
X112460000Y-73999000D02*
X112460000Y-84121000D01*
X112500000Y-74003000D02*
X112500000Y-84117000D01*
X112540000Y-74006000D02*
X112540000Y-84114000D01*
X112580000Y-74011000D02*
X112580000Y-84109000D01*
X112620000Y-74015000D02*
X112620000Y-84105000D01*
X112660000Y-74020000D02*
X112660000Y-84100000D01*
X112700000Y-74025000D02*
X112700000Y-84095000D01*
X112740000Y-74031000D02*
X112740000Y-84089000D01*
X112780000Y-74037000D02*
X112780000Y-84083000D01*
X112820000Y-74043000D02*
X112820000Y-84077000D01*
X112860000Y-74049000D02*
X112860000Y-84071000D01*
X112900000Y-74056000D02*
X112900000Y-84064000D01*
X112940000Y-74063000D02*
X112940000Y-84057000D01*
X112980000Y-74071000D02*
X112980000Y-84049000D01*
X113020000Y-74079000D02*
X113020000Y-84041000D01*
X113060000Y-74087000D02*
X113060000Y-84033000D01*
X113100000Y-74095000D02*
X113100000Y-84025000D01*
X113140000Y-74104000D02*
X113140000Y-84016000D01*
X113180000Y-74113000D02*
X113180000Y-84007000D01*
X113220000Y-74123000D02*
X113220000Y-83997000D01*
X113260000Y-74132000D02*
X113260000Y-83988000D01*
X113300000Y-74143000D02*
X113300000Y-77820000D01*
X113300000Y-80300000D02*
X113300000Y-83977000D01*
X113340000Y-74153000D02*
X113340000Y-77820000D01*
X113340000Y-80300000D02*
X113340000Y-83967000D01*
X113380000Y-74164000D02*
X113380000Y-77820000D01*
X113380000Y-80300000D02*
X113380000Y-83956000D01*
X113420000Y-74175000D02*
X113420000Y-77820000D01*
X113420000Y-80300000D02*
X113420000Y-83945000D01*
X113460000Y-74187000D02*
X113460000Y-77820000D01*
X113460000Y-80300000D02*
X113460000Y-83933000D01*
X113500000Y-74199000D02*
X113500000Y-77820000D01*
X113500000Y-80300000D02*
X113500000Y-83921000D01*
X113540000Y-74211000D02*
X113540000Y-77820000D01*
X113540000Y-80300000D02*
X113540000Y-83909000D01*
X113580000Y-74223000D02*
X113580000Y-77820000D01*
X113580000Y-80300000D02*
X113580000Y-83897000D01*
X113620000Y-74236000D02*
X113620000Y-77820000D01*
X113620000Y-80300000D02*
X113620000Y-83884000D01*
X113660000Y-74250000D02*
X113660000Y-77820000D01*
X113660000Y-80300000D02*
X113660000Y-83870000D01*
X113700000Y-74263000D02*
X113700000Y-77820000D01*
X113700000Y-80300000D02*
X113700000Y-83857000D01*
X113740000Y-74278000D02*
X113740000Y-77820000D01*
X113740000Y-80300000D02*
X113740000Y-83842000D01*
X113780000Y-74292000D02*
X113780000Y-77820000D01*
X113780000Y-80300000D02*
X113780000Y-83828000D01*
X113820000Y-74307000D02*
X113820000Y-77820000D01*
X113820000Y-80300000D02*
X113820000Y-83813000D01*
X113860000Y-74322000D02*
X113860000Y-77820000D01*
X113860000Y-80300000D02*
X113860000Y-83798000D01*
X113900000Y-74338000D02*
X113900000Y-77820000D01*
X113900000Y-80300000D02*
X113900000Y-83782000D01*
X113940000Y-74354000D02*
X113940000Y-77820000D01*
X113940000Y-80300000D02*
X113940000Y-83766000D01*
X113980000Y-74370000D02*
X113980000Y-77820000D01*
X113980000Y-80300000D02*
X113980000Y-83750000D01*
X114020000Y-74387000D02*
X114020000Y-77820000D01*
X114020000Y-80300000D02*
X114020000Y-83733000D01*
X114060000Y-74404000D02*
X114060000Y-77820000D01*
X114060000Y-80300000D02*
X114060000Y-83716000D01*
X114100000Y-74422000D02*
X114100000Y-77820000D01*
X114100000Y-80300000D02*
X114100000Y-83698000D01*
X114140000Y-74440000D02*
X114140000Y-77820000D01*
X114140000Y-80300000D02*
X114140000Y-83680000D01*
X114180000Y-74458000D02*
X114180000Y-77820000D01*
X114180000Y-80300000D02*
X114180000Y-83662000D01*
X114220000Y-74477000D02*
X114220000Y-77820000D01*
X114220000Y-80300000D02*
X114220000Y-83643000D01*
X114260000Y-74496000D02*
X114260000Y-77820000D01*
X114260000Y-80300000D02*
X114260000Y-83624000D01*
X114300000Y-74516000D02*
X114300000Y-77820000D01*
X114300000Y-80300000D02*
X114300000Y-83604000D01*
X114340000Y-74536000D02*
X114340000Y-77820000D01*
X114340000Y-80300000D02*
X114340000Y-83584000D01*
X114380000Y-74556000D02*
X114380000Y-77820000D01*
X114380000Y-80300000D02*
X114380000Y-83564000D01*
X114420000Y-74577000D02*
X114420000Y-77820000D01*
X114420000Y-80300000D02*
X114420000Y-83543000D01*
X114460000Y-74599000D02*
X114460000Y-77820000D01*
X114460000Y-80300000D02*
X114460000Y-83521000D01*
X114500000Y-74621000D02*
X114500000Y-77820000D01*
X114500000Y-80300000D02*
X114500000Y-83499000D01*
X114540000Y-74643000D02*
X114540000Y-77820000D01*
X114540000Y-80300000D02*
X114540000Y-83477000D01*
X114580000Y-74666000D02*
X114580000Y-77820000D01*
X114580000Y-80300000D02*
X114580000Y-83454000D01*
X114620000Y-74689000D02*
X114620000Y-77820000D01*
X114620000Y-80300000D02*
X114620000Y-83431000D01*
X114660000Y-74713000D02*
X114660000Y-77820000D01*
X114660000Y-80300000D02*
X114660000Y-83407000D01*
X114700000Y-74737000D02*
X114700000Y-77820000D01*
X114700000Y-80300000D02*
X114700000Y-83383000D01*
X114740000Y-74762000D02*
X114740000Y-77820000D01*
X114740000Y-80300000D02*
X114740000Y-83358000D01*
X114780000Y-74788000D02*
X114780000Y-77820000D01*
X114780000Y-80300000D02*
X114780000Y-83332000D01*
X114820000Y-74813000D02*
X114820000Y-77820000D01*
X114820000Y-80300000D02*
X114820000Y-83307000D01*
X114860000Y-74840000D02*
X114860000Y-77820000D01*
X114860000Y-80300000D02*
X114860000Y-83280000D01*
X114900000Y-74867000D02*
X114900000Y-77820000D01*
X114900000Y-80300000D02*
X114900000Y-83253000D01*
X114940000Y-74894000D02*
X114940000Y-77820000D01*
X114940000Y-80300000D02*
X114940000Y-83226000D01*
X114980000Y-74922000D02*
X114980000Y-77820000D01*
X114980000Y-80300000D02*
X114980000Y-83198000D01*
X115020000Y-74951000D02*
X115020000Y-77820000D01*
X115020000Y-80300000D02*
X115020000Y-83169000D01*
X115060000Y-74980000D02*
X115060000Y-77820000D01*
X115060000Y-80300000D02*
X115060000Y-83140000D01*
X115100000Y-75010000D02*
X115100000Y-77820000D01*
X115100000Y-80300000D02*
X115100000Y-83110000D01*
X115140000Y-75040000D02*
X115140000Y-77820000D01*
X115140000Y-80300000D02*
X115140000Y-83080000D01*
X115180000Y-75072000D02*
X115180000Y-77820000D01*
X115180000Y-80300000D02*
X115180000Y-83048000D01*
X115220000Y-75103000D02*
X115220000Y-77820000D01*
X115220000Y-80300000D02*
X115220000Y-83017000D01*
X115260000Y-75136000D02*
X115260000Y-77820000D01*
X115260000Y-80300000D02*
X115260000Y-82984000D01*
X115300000Y-75169000D02*
X115300000Y-77820000D01*
X115300000Y-80300000D02*
X115300000Y-82951000D01*
X115340000Y-75202000D02*
X115340000Y-77820000D01*
X115340000Y-80300000D02*
X115340000Y-82918000D01*
X115380000Y-75237000D02*
X115380000Y-77820000D01*
X115380000Y-80300000D02*
X115380000Y-82883000D01*
X115420000Y-75272000D02*
X115420000Y-77820000D01*
X115420000Y-80300000D02*
X115420000Y-82848000D01*
X115460000Y-75308000D02*
X115460000Y-77820000D01*
X115460000Y-80300000D02*
X115460000Y-82812000D01*
X115500000Y-75344000D02*
X115500000Y-77820000D01*
X115500000Y-80300000D02*
X115500000Y-82776000D01*
X115540000Y-75382000D02*
X115540000Y-77820000D01*
X115540000Y-80300000D02*
X115540000Y-82738000D01*
X115580000Y-75420000D02*
X115580000Y-77820000D01*
X115580000Y-80300000D02*
X115580000Y-82700000D01*
X115620000Y-75459000D02*
X115620000Y-77820000D01*
X115620000Y-80300000D02*
X115620000Y-82661000D01*
X115660000Y-75499000D02*
X115660000Y-77820000D01*
X115660000Y-80300000D02*
X115660000Y-82621000D01*
X115700000Y-75540000D02*
X115700000Y-77820000D01*
X115700000Y-80300000D02*
X115700000Y-82580000D01*
X115740000Y-75582000D02*
X115740000Y-77820000D01*
X115740000Y-80300000D02*
X115740000Y-82538000D01*
X115780000Y-75625000D02*
X115780000Y-82495000D01*
X115820000Y-75669000D02*
X115820000Y-82451000D01*
X115860000Y-75713000D02*
X115860000Y-82407000D01*
X115900000Y-75759000D02*
X115900000Y-82361000D01*
X115940000Y-75806000D02*
X115940000Y-82314000D01*
X115980000Y-75855000D02*
X115980000Y-82265000D01*
X116020000Y-75904000D02*
X116020000Y-82216000D01*
X116060000Y-75955000D02*
X116060000Y-82165000D01*
X116100000Y-76007000D02*
X116100000Y-82113000D01*
X116140000Y-76060000D02*
X116140000Y-82060000D01*
X116180000Y-76115000D02*
X116180000Y-82005000D01*
X116220000Y-76172000D02*
X116220000Y-81948000D01*
X116260000Y-76230000D02*
X116260000Y-81890000D01*
X116300000Y-76290000D02*
X116300000Y-81830000D01*
X116340000Y-76352000D02*
X116340000Y-81768000D01*
X116380000Y-76416000D02*
X116380000Y-81704000D01*
X116420000Y-76482000D02*
X116420000Y-81638000D01*
X116460000Y-76550000D02*
X116460000Y-81570000D01*
X116500000Y-76621000D02*
X116500000Y-81499000D01*
X116540000Y-76695000D02*
X116540000Y-81425000D01*
X116580000Y-76772000D02*
X116580000Y-81348000D01*
X116620000Y-76852000D02*
X116620000Y-81268000D01*
X116660000Y-76936000D02*
X116660000Y-81184000D01*
X116700000Y-77023000D02*
X116700000Y-81097000D01*
X116740000Y-77116000D02*
X116740000Y-81004000D01*
X116780000Y-77214000D02*
X116780000Y-80906000D01*
X116820000Y-77318000D02*
X116820000Y-80802000D01*
X116860000Y-77430000D02*
X116860000Y-80690000D01*
X116900000Y-77551000D02*
X116900000Y-80569000D01*
X116940000Y-77683000D02*
X116940000Y-80437000D01*
X116980000Y-77830000D02*
X116980000Y-80290000D01*
X117020000Y-77998000D02*
X117020000Y-80122000D01*
X117060000Y-78198000D02*
X117060000Y-79922000D01*
X117100000Y-78461000D02*
X117100000Y-79659000D01*
X117140000Y-79060000D02*
G75*
G02*
X106900000Y-79060000I-5120000J0D01*
G01*
X106900000Y-79060000D02*
G75*
G02*
X117140000Y-79060000I5120000J0D01*
G01*
%TO.C,C7*%
X33810000Y-155200000D02*
X40050000Y-155200000D01*
X33810000Y-168440000D02*
X33810000Y-155200000D01*
X40050000Y-155200000D02*
X40050000Y-168440000D01*
X40050000Y-168440000D02*
X33810000Y-168440000D01*
%TO.C,C1*%
X59730000Y-119650000D02*
X64970000Y-119650000D01*
X59730000Y-122390000D02*
X59730000Y-119650000D01*
X64970000Y-119650000D02*
X64970000Y-122390000D01*
X64970000Y-122390000D02*
X59730000Y-122390000D01*
%TO.C,R4*%
X72230000Y-140470000D02*
X72230000Y-141240000D01*
X72230000Y-148550000D02*
X72230000Y-147780000D01*
X70860000Y-141240000D02*
X73600000Y-141240000D01*
X73600000Y-147780000D01*
X70860000Y-147780000D01*
X70860000Y-141240000D01*
%TO.C,C23*%
X138670000Y-142880000D02*
X144910000Y-142880000D01*
X138670000Y-156120000D02*
X138670000Y-142880000D01*
X144910000Y-142880000D02*
X144910000Y-156120000D01*
X144910000Y-156120000D02*
X138670000Y-156120000D01*
%TO.C,R6*%
X54860000Y-144500000D02*
X54860000Y-145270000D01*
X54860000Y-152580000D02*
X54860000Y-151810000D01*
X53490000Y-145270000D02*
X56230000Y-145270000D01*
X56230000Y-151810000D01*
X53490000Y-151810000D01*
X53490000Y-145270000D01*
%TO.C,C9*%
X60540000Y-162155000D02*
X73780000Y-162155000D01*
X60540000Y-168395000D02*
X60540000Y-162155000D01*
X73780000Y-162155000D02*
X73780000Y-168395000D01*
X73780000Y-168395000D02*
X60540000Y-168395000D01*
%TO.C,R8*%
X90970000Y-141730000D02*
X90970000Y-142500000D01*
X90970000Y-149810000D02*
X90970000Y-149040000D01*
X89600000Y-142500000D02*
X92340000Y-142500000D01*
X92340000Y-149040000D01*
X89600000Y-149040000D01*
X89600000Y-142500000D01*
%TO.C,C12*%
X99170000Y-75420000D02*
X104410000Y-75420000D01*
X99170000Y-78160000D02*
X99170000Y-75420000D01*
X104410000Y-75420000D02*
X104410000Y-78160000D01*
X104410000Y-78160000D02*
X99170000Y-78160000D01*
%TD*%
M02*
