M48
; DRILL file KiCad 10.0.1 date 2026-04-29T21:41:56
; FORMAT={-:-/ absolute / metric / decimal}
; #@! TF.CreationDate,2026-04-29T21:41:56+09:00
; #@! TF.GenerationSoftware,Kicad,Pcbnew,10.0.1
; #@! TF.FileFunction,Plated,1,2,PTH
FMAT,2
METRIC
; #@! TA.AperFunction,Plated,PTH,ViaDrill
T1C0.300
; #@! TA.AperFunction,Plated,PTH,ComponentDrill
T2C0.800
; #@! TA.AperFunction,Plated,PTH,ComponentDrill
T3C1.000
; #@! TA.AperFunction,Plated,PTH,ComponentDrill
T4C1.100
; #@! TA.AperFunction,Plated,PTH,ComponentDrill
T5C1.200
; #@! TA.AperFunction,Plated,PTH,ComponentDrill
T6C1.300
%
G90
G05
T1
X47.21Y-117.07
X51.81Y-160.94
X81.28Y-133.86
X83.32Y-124.775
X83.32Y-144.72
X85.3Y-114.44
X87.1Y-137.62
X91.89Y-122.58
X93.22Y-139.44
X95.95Y-143.5
X98.01Y-110.01
X99.68Y-140.77
X100.26Y-137.63
X100.28Y-143.49
X102.84Y-114.31
X102.85Y-118.69
X105.33Y-143.5
X131.62Y-134.66
X133.1Y-121.63
X145.58Y-122.4
T2
X41.52Y-130.29
X41.52Y-140.45
X41.59Y-110.12
X41.59Y-120.28
X43.14Y-156.655
X43.14Y-166.815
X44.67Y-128.34
X47.17Y-128.34
X50.24Y-121.08
X50.24Y-123.62
X50.24Y-126.16
X50.24Y-128.7
X54.86Y-143.46
X54.86Y-153.62
X57.86Y-121.08
X57.86Y-123.62
X57.86Y-126.16
X57.86Y-128.7
X58.97Y-145.74
X58.97Y-155.9
X61.1Y-121.02
X63.6Y-121.02
X72.23Y-139.43
X72.23Y-149.59
X72.57Y-81.81
X72.57Y-84.31
X87.85Y-156.64
X87.85Y-166.8
X89.37Y-133.5
X90.97Y-140.69
X90.97Y-150.85
X91.87Y-133.5
X95.25Y-125.89
X95.25Y-128.43
X95.25Y-130.97
X95.25Y-133.51
X96.25Y-146.06
X96.25Y-156.22
X97.722Y-88.755
X97.722Y-91.255
X100.54Y-76.79
X100.65Y-83.2
X102.87Y-125.89
X102.87Y-128.43
X102.87Y-130.97
X102.87Y-133.51
X103.04Y-76.79
X103.15Y-83.2
X103.252Y-88.715
X103.252Y-91.215
X106.17Y-125.89
X108.67Y-125.89
X114.74Y-146.42
X114.74Y-156.58
X124.73Y-127.89
X127.23Y-127.89
X130.45Y-120.23
X130.45Y-122.77
X130.45Y-125.31
X130.45Y-127.85
X130.64Y-143.88
X130.64Y-154.04
X135.18Y-156.065
X135.18Y-166.225
X138.07Y-116.97
X138.07Y-120.23
X138.07Y-122.77
X138.07Y-125.31
X138.07Y-127.85
X140.57Y-116.97
X147.22Y-145.12
X147.22Y-155.28
X157.7Y-145.1
X157.7Y-155.26
T3
X36.93Y-156.82
X36.93Y-166.82
X49.25Y-146.81
X49.25Y-156.81
X49.86Y-164.35
X49.86Y-166.85
X52.36Y-164.35
X52.36Y-166.85
X54.86Y-164.35
X54.86Y-166.85
X62.16Y-165.275
X64.46Y-147.86
X64.46Y-157.86
X72.16Y-165.275
X77.89Y-76.89
X80.43Y-76.89
X82.88Y-156.33
X82.88Y-166.33
X82.97Y-76.89
X88.05Y-76.89
X90.59Y-76.89
X93.13Y-76.89
X95.67Y-76.89
X96.35Y-164.225
X96.35Y-166.725
X98.85Y-164.225
X98.85Y-166.725
X101.35Y-164.225
X101.35Y-166.725
X109.52Y-79.06
X109.53Y-149.86
X109.53Y-159.86
X111.22Y-165.13
X114.52Y-79.06
X120.04Y-149.85
X120.04Y-159.85
X121.22Y-165.13
X121.95Y-79.06
X126.95Y-79.06
X128.61Y-157.93
X128.61Y-167.93
X141.78Y-163.67
X141.78Y-166.17
X141.79Y-144.5
X141.79Y-154.5
X144.28Y-163.67
X144.28Y-166.17
X146.78Y-163.67
X146.78Y-166.17
X152.42Y-145.12
X152.42Y-155.12
X156.22Y-159.25
X156.22Y-169.25
T5
X55.21Y-80.27
X67.91Y-80.27
T6
X34.047Y-120.27
X34.047Y-125.27
X34.047Y-130.27
X44.343Y-80.285
X49.343Y-80.285
X159.29Y-119.68
X159.29Y-124.68
X159.29Y-129.68
T4
G00X47.96Y-161.05
M15
G01X47.26Y-161.05
M16
G05
G00X57.46Y-161.05
M15
G01X56.76Y-161.05
M16
G05
G00X94.45Y-160.925
M15
G01X93.75Y-160.925
M16
G05
G00X103.95Y-160.925
M15
G01X103.25Y-160.925
M16
G05
G00X139.88Y-160.37
M15
G01X139.18Y-160.37
M16
G05
G00X149.38Y-160.37
M15
G01X148.68Y-160.37
M16
G05
M30
