%TF.GenerationSoftware,KiCad,Pcbnew,10.0.1*%
%TF.CreationDate,2026-04-29T21:41:35+09:00*%
%TF.ProjectId,equalizer,65717561-6c69-47a6-9572-2e6b69636164,rev?*%
%TF.SameCoordinates,Original*%
%TF.FileFunction,Copper,L1,Top*%
%TF.FilePolarity,Positive*%
%FSLAX46Y46*%
G04 Gerber Fmt 4.6, Leading zero omitted, Abs format (unit mm)*
G04 Created by KiCad (PCBNEW 10.0.1) date 2026-04-29 21:41:35*
%MOMM*%
%LPD*%
G01*
G04 APERTURE LIST*
G04 Aperture macros list*
%AMRoundRect*
0 Rectangle with rounded corners*
0 $1 Rounding radius*
0 $2 $3 $4 $5 $6 $7 $8 $9 X,Y pos of 4 corners*
0 Add a 4 corners polygon primitive as box body*
4,1,4,$2,$3,$4,$5,$6,$7,$8,$9,$2,$3,0*
0 Add four circle primitives for the rounded corners*
1,1,$1+$1,$2,$3*
1,1,$1+$1,$4,$5*
1,1,$1+$1,$6,$7*
1,1,$1+$1,$8,$9*
0 Add four rect primitives between the rounded corners*
20,1,$1+$1,$2,$3,$4,$5,0*
20,1,$1+$1,$4,$5,$6,$7,0*
20,1,$1+$1,$6,$7,$8,$9,0*
20,1,$1+$1,$8,$9,$2,$3,0*%
G04 Aperture macros list end*
%TA.AperFunction,ComponentPad*%
%ADD10C,1.600000*%
%TD*%
%TA.AperFunction,ComponentPad*%
%ADD11RoundRect,0.250000X-0.550000X-0.550000X0.550000X-0.550000X0.550000X0.550000X-0.550000X0.550000X0*%
%TD*%
%TA.AperFunction,ComponentPad*%
%ADD12C,2.000000*%
%TD*%
%TA.AperFunction,ComponentPad*%
%ADD13C,2.400000*%
%TD*%
%TA.AperFunction,ComponentPad*%
%ADD14RoundRect,0.250000X-1.050000X1.050000X-1.050000X-1.050000X1.050000X-1.050000X1.050000X1.050000X0*%
%TD*%
%TA.AperFunction,ComponentPad*%
%ADD15C,2.600000*%
%TD*%
%TA.AperFunction,ComponentPad*%
%ADD16RoundRect,0.250001X-0.499999X-0.499999X0.499999X-0.499999X0.499999X0.499999X-0.499999X0.499999X0*%
%TD*%
%TA.AperFunction,ComponentPad*%
%ADD17C,1.500000*%
%TD*%
%TA.AperFunction,ComponentPad*%
%ADD18RoundRect,0.250000X1.050000X-1.050000X1.050000X1.050000X-1.050000X1.050000X-1.050000X-1.050000X0*%
%TD*%
%TA.AperFunction,ComponentPad*%
%ADD19R,1.800000X1.800000*%
%TD*%
%TA.AperFunction,ComponentPad*%
%ADD20C,1.800000*%
%TD*%
%TA.AperFunction,ComponentPad*%
%ADD21RoundRect,0.500000X-1.000000X0.500000X-1.000000X-0.500000X1.000000X-0.500000X1.000000X0.500000X0*%
%TD*%
%TA.AperFunction,ComponentPad*%
%ADD22RoundRect,0.250000X-0.750000X-0.750000X0.750000X-0.750000X0.750000X0.750000X-0.750000X0.750000X0*%
%TD*%
%TA.AperFunction,ComponentPad*%
%ADD23RoundRect,0.250000X1.050000X1.050000X-1.050000X1.050000X-1.050000X-1.050000X1.050000X-1.050000X0*%
%TD*%
%TA.AperFunction,ViaPad*%
%ADD24C,0.600000*%
%TD*%
%TA.AperFunction,Conductor*%
%ADD25C,0.500000*%
%TD*%
%TA.AperFunction,Conductor*%
%ADD26C,0.200000*%
%TD*%
%TA.AperFunction,Conductor*%
%ADD27C,1.000000*%
%TD*%
G04 APERTURE END LIST*
D10*
%TO.P,R12,1*%
%TO.N,/R SUM IN*%
X130640000Y-154040000D03*
%TO.P,R12,2*%
%TO.N,/R EQ OUT*%
X130640000Y-143880000D03*
%TD*%
D11*
%TO.P,U3,1*%
%TO.N,Net-(J3-Pin_3)*%
X130450000Y-120230000D03*
D10*
%TO.P,U3,2,-_2*%
X130450000Y-122770000D03*
%TO.P,U3,3,+_3*%
%TO.N,/R EQ OUT*%
X130450000Y-125310000D03*
%TO.P,U3,4,V-_4*%
%TO.N,-15V*%
X130450000Y-127850000D03*
%TO.P,U3,5,+_5*%
%TO.N,/L EQ OUT*%
X138070000Y-127850000D03*
%TO.P,U3,6,-_6*%
%TO.N,Net-(J3-Pin_1)*%
X138070000Y-125310000D03*
%TO.P,U3,7*%
X138070000Y-122770000D03*
%TO.P,U3,8,V+_8*%
%TO.N,+15V*%
X138070000Y-120230000D03*
%TD*%
D12*
%TO.P,C19,1*%
%TO.N,/L SUM IN*%
X109530000Y-149860000D03*
%TO.P,C19,2*%
%TO.N,Net-(C19-Pad2)*%
X109530000Y-159860000D03*
%TD*%
D10*
%TO.P,C2,1*%
%TO.N,GNDPWR*%
X44670000Y-128340000D03*
%TO.P,C2,2*%
%TO.N,-15V*%
X47170000Y-128340000D03*
%TD*%
%TO.P,R5,1*%
%TO.N,Net-(C11-Pad2)*%
X58970000Y-155900000D03*
%TO.P,R5,2*%
%TO.N,/L EQ IN*%
X58970000Y-145740000D03*
%TD*%
D12*
%TO.P,C22,1*%
%TO.N,Net-(C22-Pad1)*%
X152420000Y-145120000D03*
%TO.P,C22,2*%
%TO.N,/L SUM IN*%
X152420000Y-155120000D03*
%TD*%
D10*
%TO.P,C5,1*%
%TO.N,+15V*%
X138070000Y-116970000D03*
%TO.P,C5,2*%
%TO.N,GNDPWR*%
X140570000Y-116970000D03*
%TD*%
D13*
%TO.P,F1,1*%
%TO.N,Net-(J2-Pin_1)*%
X55210000Y-80270000D03*
%TO.P,F1,2*%
%TO.N,Net-(U4--Vin)*%
X67910000Y-80270000D03*
%TD*%
D10*
%TO.P,C14,1*%
%TO.N,+15V*%
X103252500Y-91215000D03*
%TO.P,C14,2*%
%TO.N,Net-(C14-Pad2)*%
X103252500Y-88715000D03*
%TD*%
D12*
%TO.P,C21,1*%
%TO.N,/R SUM IN*%
X156220000Y-169250000D03*
%TO.P,C21,2*%
%TO.N,Net-(C21-Pad2)*%
X156220000Y-159250000D03*
%TD*%
%TO.P,C11,1*%
%TO.N,/L SUM IN*%
X49250000Y-146810000D03*
%TO.P,C11,2*%
%TO.N,Net-(C11-Pad2)*%
X49250000Y-156810000D03*
%TD*%
D10*
%TO.P,R13,1*%
%TO.N,Net-(C23-Pad2)*%
X147220000Y-155280000D03*
%TO.P,R13,2*%
%TO.N,/L EQ IN*%
X147220000Y-145120000D03*
%TD*%
%TO.P,R14,1*%
%TO.N,Net-(C22-Pad1)*%
X157700000Y-145100000D03*
%TO.P,R14,2*%
%TO.N,/L EQ OUT*%
X157700000Y-155260000D03*
%TD*%
%TO.P,R10,1*%
%TO.N,Net-(C18-Pad1)*%
X114740000Y-156580000D03*
%TO.P,R10,2*%
%TO.N,/L EQ OUT*%
X114740000Y-146420000D03*
%TD*%
%TO.P,C8,1*%
%TO.N,Net-(U4--Vin)*%
X72570000Y-81810000D03*
%TO.P,C8,2*%
%TO.N,Net-(J2-Pin_2)*%
X72570000Y-84310000D03*
%TD*%
D14*
%TO.P,J1,1,Pin_1_1*%
%TO.N,Net-(J1-Pin_1)*%
X34047500Y-120270000D03*
D15*
%TO.P,J1,2,Pin_2_2*%
%TO.N,GNDPWR*%
X34047500Y-125270000D03*
%TO.P,J1,3,Pin_3_3*%
%TO.N,Net-(J1-Pin_3)*%
X34047500Y-130270000D03*
%TD*%
D10*
%TO.P,C6,1*%
%TO.N,GNDPWR*%
X124730000Y-127890000D03*
%TO.P,C6,2*%
%TO.N,-15V*%
X127230000Y-127890000D03*
%TD*%
D12*
%TO.P,C17,1*%
%TO.N,/R SUM IN*%
X121220000Y-165130000D03*
%TO.P,C17,2*%
%TO.N,Net-(C17-Pad2)*%
X111220000Y-165130000D03*
%TD*%
D11*
%TO.P,U2,1*%
%TO.N,/R EQ OUT*%
X95250000Y-125890000D03*
D10*
%TO.P,U2,2,-_2*%
%TO.N,/R SUM IN*%
X95250000Y-128430000D03*
%TO.P,U2,3,+_3*%
%TO.N,GNDPWR*%
X95250000Y-130970000D03*
%TO.P,U2,4,V-_4*%
%TO.N,-15V*%
X95250000Y-133510000D03*
%TO.P,U2,5,+_5*%
%TO.N,GNDPWR*%
X102870000Y-133510000D03*
%TO.P,U2,6,-_6*%
%TO.N,/L SUM IN*%
X102870000Y-130970000D03*
%TO.P,U2,7*%
%TO.N,/L EQ OUT*%
X102870000Y-128430000D03*
%TO.P,U2,8,V+_8*%
%TO.N,+15V*%
X102870000Y-125890000D03*
%TD*%
D16*
%TO.P,U4,1,-Vin_1*%
%TO.N,Net-(U4--Vin)*%
X77890000Y-76890000D03*
D17*
%TO.P,U4,2,+Vin_2*%
%TO.N,Net-(J2-Pin_2)*%
X80430000Y-76890000D03*
%TO.P,U4,3,Remote_On/Off_3*%
%TO.N,unconnected-(U4-Remote_On{slash}Off-Pad3)*%
X82970000Y-76890000D03*
%TO.P,U4,5,NC_5*%
%TO.N,unconnected-(U4-NC-Pad5)*%
X88050000Y-76890000D03*
%TO.P,U4,6,+Vout_6*%
%TO.N,Net-(U4-+Vout)*%
X90590000Y-76890000D03*
%TO.P,U4,7,Common_7*%
%TO.N,GNDPWR*%
X93130000Y-76890000D03*
%TO.P,U4,8,-Vout_8*%
%TO.N,Net-(U4--Vout)*%
X95670000Y-76890000D03*
%TD*%
D10*
%TO.P,R11,1*%
%TO.N,/R EQ IN*%
X135180000Y-156065000D03*
%TO.P,R11,2*%
%TO.N,Net-(C20-Pad1)*%
X135180000Y-166225000D03*
%TD*%
D18*
%TO.P,J3,1,Pin_1_1*%
%TO.N,Net-(J3-Pin_1)*%
X159290000Y-129680000D03*
D15*
%TO.P,J3,2,Pin_2_2*%
%TO.N,GNDPWR*%
X159290000Y-124680000D03*
%TO.P,J3,3,Pin_3_3*%
%TO.N,Net-(J3-Pin_3)*%
X159290000Y-119680000D03*
%TD*%
D10*
%TO.P,C4,1*%
%TO.N,GNDPWR*%
X89370000Y-133500000D03*
%TO.P,C4,2*%
%TO.N,-15V*%
X91870000Y-133500000D03*
%TD*%
D12*
%TO.P,C16,1*%
%TO.N,Net-(C16-Pad1)*%
X82880000Y-166330000D03*
%TO.P,C16,2*%
%TO.N,/R SUM IN*%
X82880000Y-156330000D03*
%TD*%
D19*
%TO.P,RV3,1,1_1*%
%TO.N,Net-(C20-Pad1)*%
X141780000Y-166170000D03*
D20*
%TO.P,RV3,2,2_2*%
%TO.N,/R SUM IN*%
X144280000Y-166170000D03*
%TO.P,RV3,3,3_3*%
%TO.N,Net-(C21-Pad2)*%
X146780000Y-166170000D03*
%TO.P,RV3,4,4_4*%
%TO.N,Net-(C23-Pad2)*%
X141780000Y-163670000D03*
%TO.P,RV3,5,5_5*%
%TO.N,/L SUM IN*%
X144280000Y-163670000D03*
%TO.P,RV3,6,6_6*%
%TO.N,Net-(C22-Pad1)*%
X146780000Y-163670000D03*
D21*
%TO.P,RV3,MP*%
%TO.N,N/C*%
X139530000Y-160370000D03*
X149030000Y-160370000D03*
%TD*%
D10*
%TO.P,C13,1*%
%TO.N,Net-(C13-Pad1)*%
X103150000Y-83200000D03*
%TO.P,C13,2*%
%TO.N,Net-(U4--Vout)*%
X100650000Y-83200000D03*
%TD*%
D22*
%TO.P,L1,1,1_1*%
%TO.N,Net-(C12-Pad1)*%
X121950000Y-79060000D03*
D12*
%TO.P,L1,2,2_2*%
%TO.N,Net-(C14-Pad2)*%
X126950000Y-79060000D03*
%TD*%
D10*
%TO.P,R1,1*%
%TO.N,Net-(J1-Pin_1)*%
X41590000Y-120280000D03*
%TO.P,R1,2*%
%TO.N,GNDPWR*%
X41590000Y-110120000D03*
%TD*%
D23*
%TO.P,J2,1,Pin_1_1*%
%TO.N,Net-(J2-Pin_1)*%
X49342500Y-80285000D03*
D15*
%TO.P,J2,2,Pin_2_2*%
%TO.N,Net-(J2-Pin_2)*%
X44342500Y-80285000D03*
%TD*%
D12*
%TO.P,C18,1*%
%TO.N,Net-(C18-Pad1)*%
X120040000Y-159850000D03*
%TO.P,C18,2*%
%TO.N,/L SUM IN*%
X120040000Y-149850000D03*
%TD*%
D10*
%TO.P,R3,1*%
%TO.N,/R EQ IN*%
X43140000Y-156655000D03*
%TO.P,R3,2*%
%TO.N,Net-(C7-Pad1)*%
X43140000Y-166815000D03*
%TD*%
D12*
%TO.P,C20,1*%
%TO.N,Net-(C20-Pad1)*%
X128610000Y-157930000D03*
%TO.P,C20,2*%
%TO.N,/R SUM IN*%
X128610000Y-167930000D03*
%TD*%
D10*
%TO.P,C3,1*%
%TO.N,+15V*%
X106170000Y-125890000D03*
%TO.P,C3,2*%
%TO.N,GNDPWR*%
X108670000Y-125890000D03*
%TD*%
D12*
%TO.P,C10,1*%
%TO.N,Net-(C10-Pad1)*%
X64460000Y-147860000D03*
%TO.P,C10,2*%
%TO.N,/L SUM IN*%
X64460000Y-157860000D03*
%TD*%
D10*
%TO.P,C15,1*%
%TO.N,-15V*%
X97722500Y-91255000D03*
%TO.P,C15,2*%
%TO.N,Net-(C15-Pad2)*%
X97722500Y-88755000D03*
%TD*%
%TO.P,R2,1*%
%TO.N,GNDPWR*%
X41520000Y-140450000D03*
%TO.P,R2,2*%
%TO.N,Net-(J1-Pin_3)*%
X41520000Y-130290000D03*
%TD*%
%TO.P,R7,1*%
%TO.N,/R EQ IN*%
X87850000Y-156640000D03*
%TO.P,R7,2*%
%TO.N,Net-(C16-Pad1)*%
X87850000Y-166800000D03*
%TD*%
D11*
%TO.P,U1,1*%
%TO.N,/R EQ IN*%
X50240000Y-121080000D03*
D10*
%TO.P,U1,2,-_2*%
X50240000Y-123620000D03*
%TO.P,U1,3,+_3*%
%TO.N,Net-(J1-Pin_1)*%
X50240000Y-126160000D03*
%TO.P,U1,4,V-_4*%
%TO.N,-15V*%
X50240000Y-128700000D03*
%TO.P,U1,5,+_5*%
%TO.N,Net-(J1-Pin_3)*%
X57860000Y-128700000D03*
%TO.P,U1,6,-_6*%
%TO.N,/L EQ IN*%
X57860000Y-126160000D03*
%TO.P,U1,7*%
X57860000Y-123620000D03*
%TO.P,U1,8,V+_8*%
%TO.N,+15V*%
X57860000Y-121080000D03*
%TD*%
%TO.P,R9,1*%
%TO.N,Net-(C19-Pad2)*%
X96250000Y-156220000D03*
%TO.P,R9,2*%
%TO.N,/L EQ IN*%
X96250000Y-146060000D03*
%TD*%
D19*
%TO.P,RV2,1,1_1*%
%TO.N,Net-(C16-Pad1)*%
X96350000Y-166725000D03*
D20*
%TO.P,RV2,2,2_2*%
%TO.N,/R SUM IN*%
X98850000Y-166725000D03*
%TO.P,RV2,3,3_3*%
%TO.N,Net-(C17-Pad2)*%
X101350000Y-166725000D03*
%TO.P,RV2,4,4_4*%
%TO.N,Net-(C19-Pad2)*%
X96350000Y-164225000D03*
%TO.P,RV2,5,5_5*%
%TO.N,/L SUM IN*%
X98850000Y-164225000D03*
%TO.P,RV2,6,6_6*%
%TO.N,Net-(C18-Pad1)*%
X101350000Y-164225000D03*
D21*
%TO.P,RV2,MP*%
%TO.N,N/C*%
X94100000Y-160925000D03*
X103600000Y-160925000D03*
%TD*%
D19*
%TO.P,RV1,1,1_1*%
%TO.N,Net-(C7-Pad1)*%
X49860000Y-166850000D03*
D20*
%TO.P,RV1,2,2_2*%
%TO.N,/R SUM IN*%
X52360000Y-166850000D03*
%TO.P,RV1,3,3_3*%
%TO.N,Net-(C9-Pad2)*%
X54860000Y-166850000D03*
%TO.P,RV1,4,4_4*%
%TO.N,Net-(C11-Pad2)*%
X49860000Y-164350000D03*
%TO.P,RV1,5,5_5*%
%TO.N,/L SUM IN*%
X52360000Y-164350000D03*
%TO.P,RV1,6,6_6*%
%TO.N,Net-(C10-Pad1)*%
X54860000Y-164350000D03*
D21*
%TO.P,RV1,MP*%
%TO.N,N/C*%
X47610000Y-161050000D03*
X57110000Y-161050000D03*
%TD*%
D22*
%TO.P,L2,1,1_1*%
%TO.N,Net-(C13-Pad1)*%
X109520000Y-79060000D03*
D12*
%TO.P,L2,2,2_2*%
%TO.N,Net-(C15-Pad2)*%
X114520000Y-79060000D03*
%TD*%
%TO.P,C7,1*%
%TO.N,Net-(C7-Pad1)*%
X36930000Y-156820000D03*
%TO.P,C7,2*%
%TO.N,/R SUM IN*%
X36930000Y-166820000D03*
%TD*%
D10*
%TO.P,C1,1*%
%TO.N,+15V*%
X61100000Y-121020000D03*
%TO.P,C1,2*%
%TO.N,GNDPWR*%
X63600000Y-121020000D03*
%TD*%
%TO.P,R4,1*%
%TO.N,/R SUM IN*%
X72230000Y-149590000D03*
%TO.P,R4,2*%
%TO.N,/R EQ OUT*%
X72230000Y-139430000D03*
%TD*%
D12*
%TO.P,C23,1*%
%TO.N,/L SUM IN*%
X141790000Y-144500000D03*
%TO.P,C23,2*%
%TO.N,Net-(C23-Pad2)*%
X141790000Y-154500000D03*
%TD*%
D10*
%TO.P,R6,1*%
%TO.N,Net-(C10-Pad1)*%
X54860000Y-153620000D03*
%TO.P,R6,2*%
%TO.N,/L EQ OUT*%
X54860000Y-143460000D03*
%TD*%
D12*
%TO.P,C9,1*%
%TO.N,/R SUM IN*%
X72160000Y-165275000D03*
%TO.P,C9,2*%
%TO.N,Net-(C9-Pad2)*%
X62160000Y-165275000D03*
%TD*%
D10*
%TO.P,R8,1*%
%TO.N,/R SUM IN*%
X90970000Y-150850000D03*
%TO.P,R8,2*%
%TO.N,/R EQ OUT*%
X90970000Y-140690000D03*
%TD*%
%TO.P,C12,1*%
%TO.N,Net-(C12-Pad1)*%
X103040000Y-76790000D03*
%TO.P,C12,2*%
%TO.N,Net-(U4-+Vout)*%
X100540000Y-76790000D03*
%TD*%
D24*
%TO.N,/R EQ OUT*%
X93220000Y-139440000D03*
X99680000Y-140770000D03*
%TO.N,/L EQ OUT*%
X105330000Y-143500000D03*
X95950000Y-143500000D03*
X100280000Y-143490000D03*
%TO.N,/L SUM IN*%
X51810000Y-160940000D03*
%TO.N,-15V*%
X47210000Y-117070000D03*
X102840000Y-114310000D03*
%TO.N,+15V*%
X102850000Y-118690000D03*
X85300000Y-114440000D03*
X98010000Y-110010000D03*
%TO.N,/L EQ IN*%
X100260000Y-137630000D03*
X87100000Y-137620000D03*
X81280000Y-133860000D03*
%TO.N,Net-(J3-Pin_3)*%
X145580000Y-122400000D03*
X133100000Y-121630000D03*
%TO.N,/R EQ IN*%
X83320000Y-144720000D03*
X91890000Y-122580000D03*
X131620000Y-134660000D03*
X83320000Y-124775000D03*
%TD*%
%TO.N,/R SUM IN*%
D25*
X88320000Y-150890000D02*
X90990000Y-150890000D01*
X52360000Y-166860000D02*
X52360000Y-166850000D01*
X82880000Y-156330000D02*
X88320000Y-150890000D01*
X36930000Y-166820000D02*
X39270000Y-169160000D01*
X50060000Y-169160000D02*
X52360000Y-166860000D01*
X39270000Y-169160000D02*
X50060000Y-169160000D01*
%TO.N,/R EQ OUT*%
X95250000Y-113690000D02*
X97190000Y-111750000D01*
X95250000Y-125890000D02*
X95250000Y-113690000D01*
X98350000Y-139440000D02*
X93220000Y-139440000D01*
X119640000Y-125310000D02*
X106080000Y-111750000D01*
X99680000Y-140770000D02*
X98350000Y-139440000D01*
X97190000Y-111750000D02*
X106080000Y-111750000D01*
X130450000Y-125310000D02*
X119640000Y-125310000D01*
%TO.N,/L EQ OUT*%
X104860000Y-143030000D02*
X104860000Y-130420000D01*
X105330000Y-143500000D02*
X104860000Y-143030000D01*
X95950000Y-143500000D02*
X100270000Y-143500000D01*
X138070000Y-127850000D02*
X138070000Y-130340000D01*
X111820000Y-128430000D02*
X114900000Y-131510000D01*
X104860000Y-130420000D02*
X102870000Y-128430000D01*
X102870000Y-128430000D02*
X111820000Y-128430000D01*
X114900000Y-131510000D02*
X136900000Y-131510000D01*
X100270000Y-143500000D02*
X100280000Y-143490000D01*
X138070000Y-130340000D02*
X136900000Y-131510000D01*
%TO.N,/L SUM IN*%
X131070000Y-157390000D02*
X132090000Y-157390000D01*
X101480000Y-155300000D02*
X128980000Y-155300000D01*
X141790000Y-144500000D02*
X138370000Y-147920000D01*
X52370000Y-164340000D02*
X52360000Y-164350000D01*
X98860000Y-157920000D02*
X101480000Y-155300000D01*
X108750000Y-149080000D02*
X101240000Y-149080000D01*
X135470000Y-158880000D02*
X137125000Y-157225000D01*
X133580000Y-158880000D02*
X135470000Y-158880000D01*
X98850000Y-164225000D02*
X98850000Y-157930000D01*
X51810000Y-160940000D02*
X52370000Y-161500000D01*
X128980000Y-155300000D02*
X131070000Y-157390000D01*
D26*
X152420000Y-157130000D02*
X152330000Y-157220000D01*
D25*
X98860000Y-157920000D02*
X56090000Y-157920000D01*
X52370000Y-161500000D02*
X52370000Y-164340000D01*
X152325000Y-157225000D02*
X138370000Y-157225000D01*
D26*
X109540000Y-149850000D02*
X109530000Y-149860000D01*
D25*
X138370000Y-147920000D02*
X138370000Y-157225000D01*
X152420000Y-155120000D02*
X152420000Y-157130000D01*
X137125000Y-157225000D02*
X138370000Y-157225000D01*
X109530000Y-149860000D02*
X108750000Y-149080000D01*
X101230000Y-132610000D02*
X102870000Y-130970000D01*
X56090000Y-157920000D02*
X52510000Y-161500000D01*
X120040000Y-149850000D02*
X109540000Y-149850000D01*
X52510000Y-161500000D02*
X52370000Y-161500000D01*
D26*
X98850000Y-157930000D02*
X98860000Y-157920000D01*
D25*
X101230000Y-155550000D02*
X101230000Y-132610000D01*
X152420000Y-157130000D02*
X152325000Y-157225000D01*
X132090000Y-157390000D02*
X133580000Y-158880000D01*
X144280000Y-163670000D02*
X144280000Y-157240000D01*
%TO.N,-15V*%
D27*
X85870000Y-103107500D02*
X85870000Y-109965000D01*
X47210000Y-117070000D02*
X47840000Y-117070000D01*
X130450000Y-127850000D02*
X127270000Y-127850000D01*
X78765000Y-117070000D02*
X47210000Y-117070000D01*
X100180000Y-128580000D02*
X100180000Y-118510000D01*
D26*
X127270000Y-127850000D02*
X127230000Y-127890000D01*
X91870000Y-133500000D02*
X91940000Y-133500000D01*
X91940000Y-133500000D02*
X91960000Y-133520000D01*
D27*
X95250000Y-133510000D02*
X91860000Y-133510000D01*
X102840000Y-114310000D02*
X102840000Y-114270000D01*
X97722500Y-91255000D02*
X85870000Y-103107500D01*
X85870000Y-109965000D02*
X78765000Y-117070000D01*
X95250000Y-133510000D02*
X100180000Y-128580000D01*
X102840000Y-115850000D02*
X102840000Y-114310000D01*
X100180000Y-118510000D02*
X102840000Y-115850000D01*
%TO.N,+15V*%
X98010000Y-96240000D02*
X103035000Y-91215000D01*
D26*
X103245000Y-91215000D02*
X103160000Y-91130000D01*
X103252500Y-91215000D02*
X103245000Y-91215000D01*
D27*
X103035000Y-91215000D02*
X103252500Y-91215000D01*
X89200000Y-105050000D02*
X98010000Y-96240000D01*
X127770000Y-106670000D02*
X138070000Y-116970000D01*
X103252500Y-91215000D02*
X118707500Y-106670000D01*
X102870000Y-125890000D02*
X102870000Y-118710000D01*
X89200000Y-110540000D02*
X89200000Y-105050000D01*
X118707500Y-106670000D02*
X127770000Y-106670000D01*
X98010000Y-110010000D02*
X98010000Y-96240000D01*
X85300000Y-114440000D02*
X89200000Y-110540000D01*
%TO.N,Net-(C19-Pad2)*%
D25*
X96325000Y-164250000D02*
X96350000Y-164225000D01*
%TO.N,/L EQ IN*%
X69425000Y-145715000D02*
X58995000Y-145715000D01*
X87100000Y-137620000D02*
X87200000Y-137720000D01*
X57860000Y-125730000D02*
X65990000Y-133860000D01*
X81280000Y-133860000D02*
X81220000Y-133920000D01*
X58995000Y-145715000D02*
X58970000Y-145740000D01*
X87200000Y-137720000D02*
X87200000Y-146050000D01*
X87580000Y-146060000D02*
X96250000Y-146060000D01*
X100260000Y-137630000D02*
X99260000Y-137630000D01*
X57860000Y-123620000D02*
X57860000Y-125730000D01*
X87200000Y-146050000D02*
X87570000Y-146050000D01*
X99260000Y-137630000D02*
X99250000Y-137620000D01*
X57860000Y-126160000D02*
X57860000Y-123620000D01*
X81220000Y-133920000D02*
X69425000Y-145715000D01*
X65990000Y-133860000D02*
X81280000Y-133860000D01*
X87570000Y-146050000D02*
X87580000Y-146060000D01*
X99250000Y-137620000D02*
X87100000Y-137620000D01*
%TO.N,Net-(J2-Pin_2)*%
D27*
X65810000Y-84330000D02*
X65830000Y-84310000D01*
X77510000Y-79810000D02*
X80430000Y-76890000D01*
X48387500Y-84330000D02*
X65810000Y-84330000D01*
X65830000Y-84310000D02*
X72570000Y-84310000D01*
X44342500Y-80285000D02*
X48387500Y-84330000D01*
X72570000Y-84310000D02*
X77070000Y-79810000D01*
X77070000Y-79810000D02*
X77510000Y-79810000D01*
%TO.N,Net-(C22-Pad1)*%
D26*
X152420000Y-145120000D02*
X152440000Y-145100000D01*
D25*
X146780000Y-163670000D02*
X146780000Y-158320000D01*
X146780000Y-158320000D02*
X154370000Y-158320000D01*
X154370000Y-147070000D02*
X152420000Y-145120000D01*
X154370000Y-158320000D02*
X154370000Y-147070000D01*
X152440000Y-145100000D02*
X157700000Y-145100000D01*
%TO.N,Net-(J2-Pin_1)*%
D27*
X54870000Y-80270000D02*
X55210000Y-80270000D01*
X54855000Y-80285000D02*
X54870000Y-80270000D01*
X49342500Y-80285000D02*
X54855000Y-80285000D01*
%TO.N,Net-(C21-Pad2)*%
D25*
X149300000Y-166170000D02*
X156220000Y-159250000D01*
X146780000Y-166170000D02*
X149300000Y-166170000D01*
%TO.N,Net-(C11-Pad2)*%
X49250000Y-156810000D02*
X50330000Y-157890000D01*
X58060000Y-156810000D02*
X58970000Y-155900000D01*
X50330000Y-163880000D02*
X49860000Y-164350000D01*
X49250000Y-156810000D02*
X58060000Y-156810000D01*
X50330000Y-157890000D02*
X50330000Y-163880000D01*
%TO.N,Net-(C20-Pad1)*%
X135180000Y-166225000D02*
X135180000Y-164500000D01*
X141780000Y-166170000D02*
X135235000Y-166170000D01*
X135235000Y-166170000D02*
X135180000Y-166225000D01*
X135180000Y-164500000D02*
X128610000Y-157930000D01*
%TO.N,Net-(J1-Pin_1)*%
X34047500Y-120270000D02*
X41580000Y-120270000D01*
X41580000Y-120270000D02*
X42240000Y-120270000D01*
X42240000Y-120270000D02*
X48130000Y-126160000D01*
D26*
X41580000Y-120270000D02*
X41590000Y-120280000D01*
D25*
X48130000Y-126160000D02*
X50240000Y-126160000D01*
%TO.N,Net-(J1-Pin_3)*%
X41520000Y-130290000D02*
X48800000Y-130290000D01*
X54190000Y-128610000D02*
X57770000Y-128610000D01*
X48810000Y-130300000D02*
X52500000Y-130300000D01*
X48800000Y-130290000D02*
X48810000Y-130300000D01*
X57770000Y-128610000D02*
X57860000Y-128700000D01*
D26*
X41500000Y-130270000D02*
X41520000Y-130290000D01*
D25*
X34047500Y-130270000D02*
X41500000Y-130270000D01*
X52500000Y-130300000D02*
X54190000Y-128610000D01*
%TO.N,Net-(J3-Pin_3)*%
X145580000Y-122400000D02*
X156570000Y-122400000D01*
X130450000Y-122770000D02*
X130450000Y-120230000D01*
X131850000Y-121630000D02*
X130450000Y-120230000D01*
X156570000Y-122400000D02*
X159290000Y-119680000D01*
X133100000Y-121630000D02*
X131850000Y-121630000D01*
%TO.N,Net-(J3-Pin_1)*%
X144980000Y-129680000D02*
X159290000Y-129680000D01*
X138070000Y-125310000D02*
X138070000Y-122770000D01*
X144980000Y-129680000D02*
X138070000Y-122770000D01*
%TO.N,/R EQ IN*%
X83320000Y-124775000D02*
X89695000Y-124775000D01*
X131620000Y-134680000D02*
X135180000Y-138240000D01*
X83320000Y-124775000D02*
X83320000Y-144720000D01*
X135180000Y-138240000D02*
X135180000Y-156065000D01*
X89695000Y-124775000D02*
X91890000Y-122580000D01*
X131620000Y-134660000D02*
X131620000Y-134680000D01*
%TO.N,Net-(C7-Pad1)*%
X49845000Y-166835000D02*
X49860000Y-166850000D01*
X36990000Y-161630000D02*
X42195000Y-166835000D01*
X42195000Y-166835000D02*
X49845000Y-166835000D01*
X36990000Y-156880000D02*
X36990000Y-161630000D01*
X36930000Y-156820000D02*
X36990000Y-156880000D01*
%TO.N,Net-(U4--Vin)*%
D27*
X77470000Y-77310000D02*
X77890000Y-76890000D01*
X71030000Y-80270000D02*
X72570000Y-81810000D01*
X67910000Y-80270000D02*
X71030000Y-80270000D01*
X77070000Y-77310000D02*
X77470000Y-77310000D01*
X72570000Y-81810000D02*
X77070000Y-77310000D01*
%TO.N,Net-(C16-Pad1)*%
D25*
X96275000Y-166800000D02*
X87850000Y-166800000D01*
X83350000Y-166800000D02*
X82880000Y-166330000D01*
X96350000Y-166725000D02*
X96275000Y-166800000D01*
X87850000Y-166800000D02*
X83350000Y-166800000D01*
%TD*%
M02*
