M48
; DRILL file KiCad 10.0.1 date 2026-04-26T23:42:25
; FORMAT={-:-/ absolute / metric / decimal}
; #@! TF.CreationDate,2026-04-26T23:42:25+09:00
; #@! TF.GenerationSoftware,Kicad,Pcbnew,10.0.1
; #@! TF.FileFunction,Plated,1,2,PTH
FMAT,2
METRIC
; #@! TA.AperFunction,Plated,PTH,ComponentDrill
T1C0.800
; #@! TA.AperFunction,Plated,PTH,ComponentDrill
T2C1.000
; #@! TA.AperFunction,Plated,PTH,ComponentDrill
T3C1.200
%
G90
G05
T1
X77.17Y-79.75
X77.17Y-82.75
X77.17Y-86.0
X79.25Y-76.25
X81.205Y-71.75
X83.205Y-71.75
X84.25Y-76.25
X87.33Y-79.75
X87.33Y-82.75
X87.33Y-86.0
X88.92Y-70.25
X88.92Y-74.25
X90.13Y-77.63
X90.13Y-80.17
X90.13Y-82.71
X90.13Y-85.25
X90.5Y-92.42
X90.5Y-102.58
X96.25Y-92.42
X96.25Y-102.58
X97.75Y-77.63
X97.75Y-80.17
X97.75Y-82.71
X97.75Y-85.25
X99.08Y-70.25
X99.08Y-74.25
X100.92Y-82.75
X100.92Y-86.0
X101.0Y-89.25
X104.0Y-79.0
X105.5Y-74.25
X107.5Y-74.25
X109.0Y-79.0
X111.08Y-82.75
X111.08Y-86.0
X111.16Y-89.25
T2
X61.513Y-71.75
X74.25Y-72.75
X78.5Y-110.5
X93.25Y-110.0
X94.25Y-65.5
X110.0Y-110.5
X114.25Y-76.75
X126.25Y-75.5
T3
X61.263Y-82.25
X68.763Y-82.25
X78.5Y-96.5
X78.5Y-104.0
X110.0Y-96.5
X110.0Y-104.0
X119.0Y-87.0
X126.5Y-87.0
M30
