%TF.GenerationSoftware,KiCad,Pcbnew,10.0.1*%
%TF.CreationDate,2026-04-26T23:42:05+09:00*%
%TF.ProjectId,audio,61756469-6f2e-46b6-9963-61645f706362,rev?*%
%TF.SameCoordinates,Original*%
%TF.FileFunction,Legend,Top*%
%TF.FilePolarity,Positive*%
%FSLAX46Y46*%
G04 Gerber Fmt 4.6, Leading zero omitted, Abs format (unit mm)*
G04 Created by KiCad (PCBNEW 10.0.1) date 2026-04-26 23:42:05*
%MOMM*%
%LPD*%
G01*
G04 APERTURE LIST*
%ADD10C,0.150000*%
%ADD11C,0.120000*%
G04 APERTURE END LIST*
D10*
X93833333Y-70704819D02*
X93500000Y-70228628D01*
X93261905Y-70704819D02*
X93261905Y-69704819D01*
X93261905Y-69704819D02*
X93642857Y-69704819D01*
X93642857Y-69704819D02*
X93738095Y-69752438D01*
X93738095Y-69752438D02*
X93785714Y-69800057D01*
X93785714Y-69800057D02*
X93833333Y-69895295D01*
X93833333Y-69895295D02*
X93833333Y-70038152D01*
X93833333Y-70038152D02*
X93785714Y-70133390D01*
X93785714Y-70133390D02*
X93738095Y-70181009D01*
X93738095Y-70181009D02*
X93642857Y-70228628D01*
X93642857Y-70228628D02*
X93261905Y-70228628D01*
X94738095Y-69704819D02*
X94261905Y-69704819D01*
X94261905Y-69704819D02*
X94214286Y-70181009D01*
X94214286Y-70181009D02*
X94261905Y-70133390D01*
X94261905Y-70133390D02*
X94357143Y-70085771D01*
X94357143Y-70085771D02*
X94595238Y-70085771D01*
X94595238Y-70085771D02*
X94690476Y-70133390D01*
X94690476Y-70133390D02*
X94738095Y-70181009D01*
X94738095Y-70181009D02*
X94785714Y-70276247D01*
X94785714Y-70276247D02*
X94785714Y-70514342D01*
X94785714Y-70514342D02*
X94738095Y-70609580D01*
X94738095Y-70609580D02*
X94690476Y-70657200D01*
X94690476Y-70657200D02*
X94595238Y-70704819D01*
X94595238Y-70704819D02*
X94357143Y-70704819D01*
X94357143Y-70704819D02*
X94261905Y-70657200D01*
X94261905Y-70657200D02*
X94214286Y-70609580D01*
X76583333Y-77109580D02*
X76535714Y-77157200D01*
X76535714Y-77157200D02*
X76392857Y-77204819D01*
X76392857Y-77204819D02*
X76297619Y-77204819D01*
X76297619Y-77204819D02*
X76154762Y-77157200D01*
X76154762Y-77157200D02*
X76059524Y-77061961D01*
X76059524Y-77061961D02*
X76011905Y-76966723D01*
X76011905Y-76966723D02*
X75964286Y-76776247D01*
X75964286Y-76776247D02*
X75964286Y-76633390D01*
X75964286Y-76633390D02*
X76011905Y-76442914D01*
X76011905Y-76442914D02*
X76059524Y-76347676D01*
X76059524Y-76347676D02*
X76154762Y-76252438D01*
X76154762Y-76252438D02*
X76297619Y-76204819D01*
X76297619Y-76204819D02*
X76392857Y-76204819D01*
X76392857Y-76204819D02*
X76535714Y-76252438D01*
X76535714Y-76252438D02*
X76583333Y-76300057D01*
X77440476Y-76538152D02*
X77440476Y-77204819D01*
X77202381Y-76157200D02*
X76964286Y-76871485D01*
X76964286Y-76871485D02*
X77583333Y-76871485D01*
X80334819Y-109833333D02*
X81049104Y-109833333D01*
X81049104Y-109833333D02*
X81191961Y-109880952D01*
X81191961Y-109880952D02*
X81287200Y-109976190D01*
X81287200Y-109976190D02*
X81334819Y-110119047D01*
X81334819Y-110119047D02*
X81334819Y-110214285D01*
X80334819Y-108880952D02*
X80334819Y-109357142D01*
X80334819Y-109357142D02*
X80811009Y-109404761D01*
X80811009Y-109404761D02*
X80763390Y-109357142D01*
X80763390Y-109357142D02*
X80715771Y-109261904D01*
X80715771Y-109261904D02*
X80715771Y-109023809D01*
X80715771Y-109023809D02*
X80763390Y-108928571D01*
X80763390Y-108928571D02*
X80811009Y-108880952D01*
X80811009Y-108880952D02*
X80906247Y-108833333D01*
X80906247Y-108833333D02*
X81144342Y-108833333D01*
X81144342Y-108833333D02*
X81239580Y-108880952D01*
X81239580Y-108880952D02*
X81287200Y-108928571D01*
X81287200Y-108928571D02*
X81334819Y-109023809D01*
X81334819Y-109023809D02*
X81334819Y-109261904D01*
X81334819Y-109261904D02*
X81287200Y-109357142D01*
X81287200Y-109357142D02*
X81239580Y-109404761D01*
X98913333Y-89704819D02*
X98580000Y-89228628D01*
X98341905Y-89704819D02*
X98341905Y-88704819D01*
X98341905Y-88704819D02*
X98722857Y-88704819D01*
X98722857Y-88704819D02*
X98818095Y-88752438D01*
X98818095Y-88752438D02*
X98865714Y-88800057D01*
X98865714Y-88800057D02*
X98913333Y-88895295D01*
X98913333Y-88895295D02*
X98913333Y-89038152D01*
X98913333Y-89038152D02*
X98865714Y-89133390D01*
X98865714Y-89133390D02*
X98818095Y-89181009D01*
X98818095Y-89181009D02*
X98722857Y-89228628D01*
X98722857Y-89228628D02*
X98341905Y-89228628D01*
X99770476Y-89038152D02*
X99770476Y-89704819D01*
X99532381Y-88657200D02*
X99294286Y-89371485D01*
X99294286Y-89371485D02*
X99913333Y-89371485D01*
X71324819Y-73083333D02*
X72039104Y-73083333D01*
X72039104Y-73083333D02*
X72181961Y-73130952D01*
X72181961Y-73130952D02*
X72277200Y-73226190D01*
X72277200Y-73226190D02*
X72324819Y-73369047D01*
X72324819Y-73369047D02*
X72324819Y-73464285D01*
X71658152Y-72178571D02*
X72324819Y-72178571D01*
X71277200Y-72416666D02*
X71991485Y-72654761D01*
X71991485Y-72654761D02*
X71991485Y-72035714D01*
X110333333Y-76109580D02*
X110285714Y-76157200D01*
X110285714Y-76157200D02*
X110142857Y-76204819D01*
X110142857Y-76204819D02*
X110047619Y-76204819D01*
X110047619Y-76204819D02*
X109904762Y-76157200D01*
X109904762Y-76157200D02*
X109809524Y-76061961D01*
X109809524Y-76061961D02*
X109761905Y-75966723D01*
X109761905Y-75966723D02*
X109714286Y-75776247D01*
X109714286Y-75776247D02*
X109714286Y-75633390D01*
X109714286Y-75633390D02*
X109761905Y-75442914D01*
X109761905Y-75442914D02*
X109809524Y-75347676D01*
X109809524Y-75347676D02*
X109904762Y-75252438D01*
X109904762Y-75252438D02*
X110047619Y-75204819D01*
X110047619Y-75204819D02*
X110142857Y-75204819D01*
X110142857Y-75204819D02*
X110285714Y-75252438D01*
X110285714Y-75252438D02*
X110333333Y-75300057D01*
X110666667Y-75204819D02*
X111285714Y-75204819D01*
X111285714Y-75204819D02*
X110952381Y-75585771D01*
X110952381Y-75585771D02*
X111095238Y-75585771D01*
X111095238Y-75585771D02*
X111190476Y-75633390D01*
X111190476Y-75633390D02*
X111238095Y-75681009D01*
X111238095Y-75681009D02*
X111285714Y-75776247D01*
X111285714Y-75776247D02*
X111285714Y-76014342D01*
X111285714Y-76014342D02*
X111238095Y-76109580D01*
X111238095Y-76109580D02*
X111190476Y-76157200D01*
X111190476Y-76157200D02*
X111095238Y-76204819D01*
X111095238Y-76204819D02*
X110809524Y-76204819D01*
X110809524Y-76204819D02*
X110714286Y-76157200D01*
X110714286Y-76157200D02*
X110666667Y-76109580D01*
X111333333Y-80359580D02*
X111285714Y-80407200D01*
X111285714Y-80407200D02*
X111142857Y-80454819D01*
X111142857Y-80454819D02*
X111047619Y-80454819D01*
X111047619Y-80454819D02*
X110904762Y-80407200D01*
X110904762Y-80407200D02*
X110809524Y-80311961D01*
X110809524Y-80311961D02*
X110761905Y-80216723D01*
X110761905Y-80216723D02*
X110714286Y-80026247D01*
X110714286Y-80026247D02*
X110714286Y-79883390D01*
X110714286Y-79883390D02*
X110761905Y-79692914D01*
X110761905Y-79692914D02*
X110809524Y-79597676D01*
X110809524Y-79597676D02*
X110904762Y-79502438D01*
X110904762Y-79502438D02*
X111047619Y-79454819D01*
X111047619Y-79454819D02*
X111142857Y-79454819D01*
X111142857Y-79454819D02*
X111285714Y-79502438D01*
X111285714Y-79502438D02*
X111333333Y-79550057D01*
X112285714Y-80454819D02*
X111714286Y-80454819D01*
X112000000Y-80454819D02*
X112000000Y-79454819D01*
X112000000Y-79454819D02*
X111904762Y-79597676D01*
X111904762Y-79597676D02*
X111809524Y-79692914D01*
X111809524Y-79692914D02*
X111714286Y-79740533D01*
X113954819Y-79833333D02*
X114669104Y-79833333D01*
X114669104Y-79833333D02*
X114811961Y-79880952D01*
X114811961Y-79880952D02*
X114907200Y-79976190D01*
X114907200Y-79976190D02*
X114954819Y-80119047D01*
X114954819Y-80119047D02*
X114954819Y-80214285D01*
X113954819Y-79452380D02*
X113954819Y-78833333D01*
X113954819Y-78833333D02*
X114335771Y-79166666D01*
X114335771Y-79166666D02*
X114335771Y-79023809D01*
X114335771Y-79023809D02*
X114383390Y-78928571D01*
X114383390Y-78928571D02*
X114431009Y-78880952D01*
X114431009Y-78880952D02*
X114526247Y-78833333D01*
X114526247Y-78833333D02*
X114764342Y-78833333D01*
X114764342Y-78833333D02*
X114859580Y-78880952D01*
X114859580Y-78880952D02*
X114907200Y-78928571D01*
X114907200Y-78928571D02*
X114954819Y-79023809D01*
X114954819Y-79023809D02*
X114954819Y-79309523D01*
X114954819Y-79309523D02*
X114907200Y-79404761D01*
X114907200Y-79404761D02*
X114859580Y-79452380D01*
X96704819Y-105166666D02*
X96228628Y-105499999D01*
X96704819Y-105738094D02*
X95704819Y-105738094D01*
X95704819Y-105738094D02*
X95704819Y-105357142D01*
X95704819Y-105357142D02*
X95752438Y-105261904D01*
X95752438Y-105261904D02*
X95800057Y-105214285D01*
X95800057Y-105214285D02*
X95895295Y-105166666D01*
X95895295Y-105166666D02*
X96038152Y-105166666D01*
X96038152Y-105166666D02*
X96133390Y-105214285D01*
X96133390Y-105214285D02*
X96181009Y-105261904D01*
X96181009Y-105261904D02*
X96228628Y-105357142D01*
X96228628Y-105357142D02*
X96228628Y-105738094D01*
X96704819Y-104690475D02*
X96704819Y-104499999D01*
X96704819Y-104499999D02*
X96657200Y-104404761D01*
X96657200Y-104404761D02*
X96609580Y-104357142D01*
X96609580Y-104357142D02*
X96466723Y-104261904D01*
X96466723Y-104261904D02*
X96276247Y-104214285D01*
X96276247Y-104214285D02*
X95895295Y-104214285D01*
X95895295Y-104214285D02*
X95800057Y-104261904D01*
X95800057Y-104261904D02*
X95752438Y-104309523D01*
X95752438Y-104309523D02*
X95704819Y-104404761D01*
X95704819Y-104404761D02*
X95704819Y-104595237D01*
X95704819Y-104595237D02*
X95752438Y-104690475D01*
X95752438Y-104690475D02*
X95800057Y-104738094D01*
X95800057Y-104738094D02*
X95895295Y-104785713D01*
X95895295Y-104785713D02*
X96133390Y-104785713D01*
X96133390Y-104785713D02*
X96228628Y-104738094D01*
X96228628Y-104738094D02*
X96276247Y-104690475D01*
X96276247Y-104690475D02*
X96323866Y-104595237D01*
X96323866Y-104595237D02*
X96323866Y-104404761D01*
X96323866Y-104404761D02*
X96276247Y-104309523D01*
X96276247Y-104309523D02*
X96228628Y-104261904D01*
X96228628Y-104261904D02*
X96133390Y-104214285D01*
X103359580Y-107666666D02*
X103407200Y-107714285D01*
X103407200Y-107714285D02*
X103454819Y-107857142D01*
X103454819Y-107857142D02*
X103454819Y-107952380D01*
X103454819Y-107952380D02*
X103407200Y-108095237D01*
X103407200Y-108095237D02*
X103311961Y-108190475D01*
X103311961Y-108190475D02*
X103216723Y-108238094D01*
X103216723Y-108238094D02*
X103026247Y-108285713D01*
X103026247Y-108285713D02*
X102883390Y-108285713D01*
X102883390Y-108285713D02*
X102692914Y-108238094D01*
X102692914Y-108238094D02*
X102597676Y-108190475D01*
X102597676Y-108190475D02*
X102502438Y-108095237D01*
X102502438Y-108095237D02*
X102454819Y-107952380D01*
X102454819Y-107952380D02*
X102454819Y-107857142D01*
X102454819Y-107857142D02*
X102502438Y-107714285D01*
X102502438Y-107714285D02*
X102550057Y-107666666D01*
X102454819Y-107333332D02*
X102454819Y-106666666D01*
X102454819Y-106666666D02*
X103454819Y-107095237D01*
X69609580Y-100416666D02*
X69657200Y-100464285D01*
X69657200Y-100464285D02*
X69704819Y-100607142D01*
X69704819Y-100607142D02*
X69704819Y-100702380D01*
X69704819Y-100702380D02*
X69657200Y-100845237D01*
X69657200Y-100845237D02*
X69561961Y-100940475D01*
X69561961Y-100940475D02*
X69466723Y-100988094D01*
X69466723Y-100988094D02*
X69276247Y-101035713D01*
X69276247Y-101035713D02*
X69133390Y-101035713D01*
X69133390Y-101035713D02*
X68942914Y-100988094D01*
X68942914Y-100988094D02*
X68847676Y-100940475D01*
X68847676Y-100940475D02*
X68752438Y-100845237D01*
X68752438Y-100845237D02*
X68704819Y-100702380D01*
X68704819Y-100702380D02*
X68704819Y-100607142D01*
X68704819Y-100607142D02*
X68752438Y-100464285D01*
X68752438Y-100464285D02*
X68800057Y-100416666D01*
X69133390Y-99845237D02*
X69085771Y-99940475D01*
X69085771Y-99940475D02*
X69038152Y-99988094D01*
X69038152Y-99988094D02*
X68942914Y-100035713D01*
X68942914Y-100035713D02*
X68895295Y-100035713D01*
X68895295Y-100035713D02*
X68800057Y-99988094D01*
X68800057Y-99988094D02*
X68752438Y-99940475D01*
X68752438Y-99940475D02*
X68704819Y-99845237D01*
X68704819Y-99845237D02*
X68704819Y-99654761D01*
X68704819Y-99654761D02*
X68752438Y-99559523D01*
X68752438Y-99559523D02*
X68800057Y-99511904D01*
X68800057Y-99511904D02*
X68895295Y-99464285D01*
X68895295Y-99464285D02*
X68942914Y-99464285D01*
X68942914Y-99464285D02*
X69038152Y-99511904D01*
X69038152Y-99511904D02*
X69085771Y-99559523D01*
X69085771Y-99559523D02*
X69133390Y-99654761D01*
X69133390Y-99654761D02*
X69133390Y-99845237D01*
X69133390Y-99845237D02*
X69181009Y-99940475D01*
X69181009Y-99940475D02*
X69228628Y-99988094D01*
X69228628Y-99988094D02*
X69323866Y-100035713D01*
X69323866Y-100035713D02*
X69514342Y-100035713D01*
X69514342Y-100035713D02*
X69609580Y-99988094D01*
X69609580Y-99988094D02*
X69657200Y-99940475D01*
X69657200Y-99940475D02*
X69704819Y-99845237D01*
X69704819Y-99845237D02*
X69704819Y-99654761D01*
X69704819Y-99654761D02*
X69657200Y-99559523D01*
X69657200Y-99559523D02*
X69609580Y-99511904D01*
X69609580Y-99511904D02*
X69514342Y-99464285D01*
X69514342Y-99464285D02*
X69323866Y-99464285D01*
X69323866Y-99464285D02*
X69228628Y-99511904D01*
X69228628Y-99511904D02*
X69181009Y-99559523D01*
X69181009Y-99559523D02*
X69133390Y-99654761D01*
X90324819Y-110333333D02*
X91039104Y-110333333D01*
X91039104Y-110333333D02*
X91181961Y-110380952D01*
X91181961Y-110380952D02*
X91277200Y-110476190D01*
X91277200Y-110476190D02*
X91324819Y-110619047D01*
X91324819Y-110619047D02*
X91324819Y-110714285D01*
X90324819Y-109952380D02*
X90324819Y-109285714D01*
X90324819Y-109285714D02*
X91324819Y-109714285D01*
X96666666Y-64704819D02*
X96666666Y-65419104D01*
X96666666Y-65419104D02*
X96619047Y-65561961D01*
X96619047Y-65561961D02*
X96523809Y-65657200D01*
X96523809Y-65657200D02*
X96380952Y-65704819D01*
X96380952Y-65704819D02*
X96285714Y-65704819D01*
X97285714Y-65133390D02*
X97190476Y-65085771D01*
X97190476Y-65085771D02*
X97142857Y-65038152D01*
X97142857Y-65038152D02*
X97095238Y-64942914D01*
X97095238Y-64942914D02*
X97095238Y-64895295D01*
X97095238Y-64895295D02*
X97142857Y-64800057D01*
X97142857Y-64800057D02*
X97190476Y-64752438D01*
X97190476Y-64752438D02*
X97285714Y-64704819D01*
X97285714Y-64704819D02*
X97476190Y-64704819D01*
X97476190Y-64704819D02*
X97571428Y-64752438D01*
X97571428Y-64752438D02*
X97619047Y-64800057D01*
X97619047Y-64800057D02*
X97666666Y-64895295D01*
X97666666Y-64895295D02*
X97666666Y-64942914D01*
X97666666Y-64942914D02*
X97619047Y-65038152D01*
X97619047Y-65038152D02*
X97571428Y-65085771D01*
X97571428Y-65085771D02*
X97476190Y-65133390D01*
X97476190Y-65133390D02*
X97285714Y-65133390D01*
X97285714Y-65133390D02*
X97190476Y-65181009D01*
X97190476Y-65181009D02*
X97142857Y-65228628D01*
X97142857Y-65228628D02*
X97095238Y-65323866D01*
X97095238Y-65323866D02*
X97095238Y-65514342D01*
X97095238Y-65514342D02*
X97142857Y-65609580D01*
X97142857Y-65609580D02*
X97190476Y-65657200D01*
X97190476Y-65657200D02*
X97285714Y-65704819D01*
X97285714Y-65704819D02*
X97476190Y-65704819D01*
X97476190Y-65704819D02*
X97571428Y-65657200D01*
X97571428Y-65657200D02*
X97619047Y-65609580D01*
X97619047Y-65609580D02*
X97666666Y-65514342D01*
X97666666Y-65514342D02*
X97666666Y-65323866D01*
X97666666Y-65323866D02*
X97619047Y-65228628D01*
X97619047Y-65228628D02*
X97571428Y-65181009D01*
X97571428Y-65181009D02*
X97476190Y-65133390D01*
X111834819Y-110833333D02*
X112549104Y-110833333D01*
X112549104Y-110833333D02*
X112691961Y-110880952D01*
X112691961Y-110880952D02*
X112787200Y-110976190D01*
X112787200Y-110976190D02*
X112834819Y-111119047D01*
X112834819Y-111119047D02*
X112834819Y-111214285D01*
X111834819Y-109928571D02*
X111834819Y-110119047D01*
X111834819Y-110119047D02*
X111882438Y-110214285D01*
X111882438Y-110214285D02*
X111930057Y-110261904D01*
X111930057Y-110261904D02*
X112072914Y-110357142D01*
X112072914Y-110357142D02*
X112263390Y-110404761D01*
X112263390Y-110404761D02*
X112644342Y-110404761D01*
X112644342Y-110404761D02*
X112739580Y-110357142D01*
X112739580Y-110357142D02*
X112787200Y-110309523D01*
X112787200Y-110309523D02*
X112834819Y-110214285D01*
X112834819Y-110214285D02*
X112834819Y-110023809D01*
X112834819Y-110023809D02*
X112787200Y-109928571D01*
X112787200Y-109928571D02*
X112739580Y-109880952D01*
X112739580Y-109880952D02*
X112644342Y-109833333D01*
X112644342Y-109833333D02*
X112406247Y-109833333D01*
X112406247Y-109833333D02*
X112311009Y-109880952D01*
X112311009Y-109880952D02*
X112263390Y-109928571D01*
X112263390Y-109928571D02*
X112215771Y-110023809D01*
X112215771Y-110023809D02*
X112215771Y-110214285D01*
X112215771Y-110214285D02*
X112263390Y-110309523D01*
X112263390Y-110309523D02*
X112311009Y-110357142D01*
X112311009Y-110357142D02*
X112406247Y-110404761D01*
X58587574Y-72083333D02*
X59301859Y-72083333D01*
X59301859Y-72083333D02*
X59444716Y-72130952D01*
X59444716Y-72130952D02*
X59539955Y-72226190D01*
X59539955Y-72226190D02*
X59587574Y-72369047D01*
X59587574Y-72369047D02*
X59587574Y-72464285D01*
X58682812Y-71654761D02*
X58635193Y-71607142D01*
X58635193Y-71607142D02*
X58587574Y-71511904D01*
X58587574Y-71511904D02*
X58587574Y-71273809D01*
X58587574Y-71273809D02*
X58635193Y-71178571D01*
X58635193Y-71178571D02*
X58682812Y-71130952D01*
X58682812Y-71130952D02*
X58778050Y-71083333D01*
X58778050Y-71083333D02*
X58873288Y-71083333D01*
X58873288Y-71083333D02*
X59016145Y-71130952D01*
X59016145Y-71130952D02*
X59587574Y-71702380D01*
X59587574Y-71702380D02*
X59587574Y-71083333D01*
X123324819Y-75833333D02*
X124039104Y-75833333D01*
X124039104Y-75833333D02*
X124181961Y-75880952D01*
X124181961Y-75880952D02*
X124277200Y-75976190D01*
X124277200Y-75976190D02*
X124324819Y-76119047D01*
X124324819Y-76119047D02*
X124324819Y-76214285D01*
X124324819Y-74833333D02*
X124324819Y-75404761D01*
X124324819Y-75119047D02*
X123324819Y-75119047D01*
X123324819Y-75119047D02*
X123467676Y-75214285D01*
X123467676Y-75214285D02*
X123562914Y-75309523D01*
X123562914Y-75309523D02*
X123610533Y-75404761D01*
X93053095Y-87359819D02*
X93053095Y-88169342D01*
X93053095Y-88169342D02*
X93100714Y-88264580D01*
X93100714Y-88264580D02*
X93148333Y-88312200D01*
X93148333Y-88312200D02*
X93243571Y-88359819D01*
X93243571Y-88359819D02*
X93434047Y-88359819D01*
X93434047Y-88359819D02*
X93529285Y-88312200D01*
X93529285Y-88312200D02*
X93576904Y-88264580D01*
X93576904Y-88264580D02*
X93624523Y-88169342D01*
X93624523Y-88169342D02*
X93624523Y-87359819D01*
X94624523Y-88359819D02*
X94053095Y-88359819D01*
X94338809Y-88359819D02*
X94338809Y-87359819D01*
X94338809Y-87359819D02*
X94243571Y-87502676D01*
X94243571Y-87502676D02*
X94148333Y-87597914D01*
X94148333Y-87597914D02*
X94053095Y-87645533D01*
X93833333Y-74704819D02*
X93500000Y-74228628D01*
X93261905Y-74704819D02*
X93261905Y-73704819D01*
X93261905Y-73704819D02*
X93642857Y-73704819D01*
X93642857Y-73704819D02*
X93738095Y-73752438D01*
X93738095Y-73752438D02*
X93785714Y-73800057D01*
X93785714Y-73800057D02*
X93833333Y-73895295D01*
X93833333Y-73895295D02*
X93833333Y-74038152D01*
X93833333Y-74038152D02*
X93785714Y-74133390D01*
X93785714Y-74133390D02*
X93738095Y-74181009D01*
X93738095Y-74181009D02*
X93642857Y-74228628D01*
X93642857Y-74228628D02*
X93261905Y-74228628D01*
X94785714Y-74704819D02*
X94214286Y-74704819D01*
X94500000Y-74704819D02*
X94500000Y-73704819D01*
X94500000Y-73704819D02*
X94404762Y-73847676D01*
X94404762Y-73847676D02*
X94309524Y-73942914D01*
X94309524Y-73942914D02*
X94214286Y-73990533D01*
X113454819Y-85916666D02*
X112978628Y-86249999D01*
X113454819Y-86488094D02*
X112454819Y-86488094D01*
X112454819Y-86488094D02*
X112454819Y-86107142D01*
X112454819Y-86107142D02*
X112502438Y-86011904D01*
X112502438Y-86011904D02*
X112550057Y-85964285D01*
X112550057Y-85964285D02*
X112645295Y-85916666D01*
X112645295Y-85916666D02*
X112788152Y-85916666D01*
X112788152Y-85916666D02*
X112883390Y-85964285D01*
X112883390Y-85964285D02*
X112931009Y-86011904D01*
X112931009Y-86011904D02*
X112978628Y-86107142D01*
X112978628Y-86107142D02*
X112978628Y-86488094D01*
X112454819Y-85583332D02*
X112454819Y-84964285D01*
X112454819Y-84964285D02*
X112835771Y-85297618D01*
X112835771Y-85297618D02*
X112835771Y-85154761D01*
X112835771Y-85154761D02*
X112883390Y-85059523D01*
X112883390Y-85059523D02*
X112931009Y-85011904D01*
X112931009Y-85011904D02*
X113026247Y-84964285D01*
X113026247Y-84964285D02*
X113264342Y-84964285D01*
X113264342Y-84964285D02*
X113359580Y-85011904D01*
X113359580Y-85011904D02*
X113407200Y-85059523D01*
X113407200Y-85059523D02*
X113454819Y-85154761D01*
X113454819Y-85154761D02*
X113454819Y-85440475D01*
X113454819Y-85440475D02*
X113407200Y-85535713D01*
X113407200Y-85535713D02*
X113359580Y-85583332D01*
X64846088Y-91859580D02*
X64798469Y-91907200D01*
X64798469Y-91907200D02*
X64655612Y-91954819D01*
X64655612Y-91954819D02*
X64560374Y-91954819D01*
X64560374Y-91954819D02*
X64417517Y-91907200D01*
X64417517Y-91907200D02*
X64322279Y-91811961D01*
X64322279Y-91811961D02*
X64274660Y-91716723D01*
X64274660Y-91716723D02*
X64227041Y-91526247D01*
X64227041Y-91526247D02*
X64227041Y-91383390D01*
X64227041Y-91383390D02*
X64274660Y-91192914D01*
X64274660Y-91192914D02*
X64322279Y-91097676D01*
X64322279Y-91097676D02*
X64417517Y-91002438D01*
X64417517Y-91002438D02*
X64560374Y-90954819D01*
X64560374Y-90954819D02*
X64655612Y-90954819D01*
X64655612Y-90954819D02*
X64798469Y-91002438D01*
X64798469Y-91002438D02*
X64846088Y-91050057D01*
X65703231Y-90954819D02*
X65512755Y-90954819D01*
X65512755Y-90954819D02*
X65417517Y-91002438D01*
X65417517Y-91002438D02*
X65369898Y-91050057D01*
X65369898Y-91050057D02*
X65274660Y-91192914D01*
X65274660Y-91192914D02*
X65227041Y-91383390D01*
X65227041Y-91383390D02*
X65227041Y-91764342D01*
X65227041Y-91764342D02*
X65274660Y-91859580D01*
X65274660Y-91859580D02*
X65322279Y-91907200D01*
X65322279Y-91907200D02*
X65417517Y-91954819D01*
X65417517Y-91954819D02*
X65607993Y-91954819D01*
X65607993Y-91954819D02*
X65703231Y-91907200D01*
X65703231Y-91907200D02*
X65750850Y-91859580D01*
X65750850Y-91859580D02*
X65798469Y-91764342D01*
X65798469Y-91764342D02*
X65798469Y-91526247D01*
X65798469Y-91526247D02*
X65750850Y-91431009D01*
X65750850Y-91431009D02*
X65703231Y-91383390D01*
X65703231Y-91383390D02*
X65607993Y-91335771D01*
X65607993Y-91335771D02*
X65417517Y-91335771D01*
X65417517Y-91335771D02*
X65322279Y-91383390D01*
X65322279Y-91383390D02*
X65274660Y-91431009D01*
X65274660Y-91431009D02*
X65227041Y-91526247D01*
X113454819Y-82916666D02*
X112978628Y-83249999D01*
X113454819Y-83488094D02*
X112454819Y-83488094D01*
X112454819Y-83488094D02*
X112454819Y-83107142D01*
X112454819Y-83107142D02*
X112502438Y-83011904D01*
X112502438Y-83011904D02*
X112550057Y-82964285D01*
X112550057Y-82964285D02*
X112645295Y-82916666D01*
X112645295Y-82916666D02*
X112788152Y-82916666D01*
X112788152Y-82916666D02*
X112883390Y-82964285D01*
X112883390Y-82964285D02*
X112931009Y-83011904D01*
X112931009Y-83011904D02*
X112978628Y-83107142D01*
X112978628Y-83107142D02*
X112978628Y-83488094D01*
X112550057Y-82535713D02*
X112502438Y-82488094D01*
X112502438Y-82488094D02*
X112454819Y-82392856D01*
X112454819Y-82392856D02*
X112454819Y-82154761D01*
X112454819Y-82154761D02*
X112502438Y-82059523D01*
X112502438Y-82059523D02*
X112550057Y-82011904D01*
X112550057Y-82011904D02*
X112645295Y-81964285D01*
X112645295Y-81964285D02*
X112740533Y-81964285D01*
X112740533Y-81964285D02*
X112883390Y-82011904D01*
X112883390Y-82011904D02*
X113454819Y-82583332D01*
X113454819Y-82583332D02*
X113454819Y-81964285D01*
X90954819Y-106142857D02*
X90478628Y-106476190D01*
X90954819Y-106714285D02*
X89954819Y-106714285D01*
X89954819Y-106714285D02*
X89954819Y-106333333D01*
X89954819Y-106333333D02*
X90002438Y-106238095D01*
X90002438Y-106238095D02*
X90050057Y-106190476D01*
X90050057Y-106190476D02*
X90145295Y-106142857D01*
X90145295Y-106142857D02*
X90288152Y-106142857D01*
X90288152Y-106142857D02*
X90383390Y-106190476D01*
X90383390Y-106190476D02*
X90431009Y-106238095D01*
X90431009Y-106238095D02*
X90478628Y-106333333D01*
X90478628Y-106333333D02*
X90478628Y-106714285D01*
X90954819Y-105190476D02*
X90954819Y-105761904D01*
X90954819Y-105476190D02*
X89954819Y-105476190D01*
X89954819Y-105476190D02*
X90097676Y-105571428D01*
X90097676Y-105571428D02*
X90192914Y-105666666D01*
X90192914Y-105666666D02*
X90240533Y-105761904D01*
X89954819Y-104571428D02*
X89954819Y-104476190D01*
X89954819Y-104476190D02*
X90002438Y-104380952D01*
X90002438Y-104380952D02*
X90050057Y-104333333D01*
X90050057Y-104333333D02*
X90145295Y-104285714D01*
X90145295Y-104285714D02*
X90335771Y-104238095D01*
X90335771Y-104238095D02*
X90573866Y-104238095D01*
X90573866Y-104238095D02*
X90764342Y-104285714D01*
X90764342Y-104285714D02*
X90859580Y-104333333D01*
X90859580Y-104333333D02*
X90907200Y-104380952D01*
X90907200Y-104380952D02*
X90954819Y-104476190D01*
X90954819Y-104476190D02*
X90954819Y-104571428D01*
X90954819Y-104571428D02*
X90907200Y-104666666D01*
X90907200Y-104666666D02*
X90859580Y-104714285D01*
X90859580Y-104714285D02*
X90764342Y-104761904D01*
X90764342Y-104761904D02*
X90573866Y-104809523D01*
X90573866Y-104809523D02*
X90335771Y-104809523D01*
X90335771Y-104809523D02*
X90145295Y-104761904D01*
X90145295Y-104761904D02*
X90050057Y-104714285D01*
X90050057Y-104714285D02*
X90002438Y-104666666D01*
X90002438Y-104666666D02*
X89954819Y-104571428D01*
X74583333Y-83204819D02*
X74250000Y-82728628D01*
X74011905Y-83204819D02*
X74011905Y-82204819D01*
X74011905Y-82204819D02*
X74392857Y-82204819D01*
X74392857Y-82204819D02*
X74488095Y-82252438D01*
X74488095Y-82252438D02*
X74535714Y-82300057D01*
X74535714Y-82300057D02*
X74583333Y-82395295D01*
X74583333Y-82395295D02*
X74583333Y-82538152D01*
X74583333Y-82538152D02*
X74535714Y-82633390D01*
X74535714Y-82633390D02*
X74488095Y-82681009D01*
X74488095Y-82681009D02*
X74392857Y-82728628D01*
X74392857Y-82728628D02*
X74011905Y-82728628D01*
X75154762Y-82633390D02*
X75059524Y-82585771D01*
X75059524Y-82585771D02*
X75011905Y-82538152D01*
X75011905Y-82538152D02*
X74964286Y-82442914D01*
X74964286Y-82442914D02*
X74964286Y-82395295D01*
X74964286Y-82395295D02*
X75011905Y-82300057D01*
X75011905Y-82300057D02*
X75059524Y-82252438D01*
X75059524Y-82252438D02*
X75154762Y-82204819D01*
X75154762Y-82204819D02*
X75345238Y-82204819D01*
X75345238Y-82204819D02*
X75440476Y-82252438D01*
X75440476Y-82252438D02*
X75488095Y-82300057D01*
X75488095Y-82300057D02*
X75535714Y-82395295D01*
X75535714Y-82395295D02*
X75535714Y-82442914D01*
X75535714Y-82442914D02*
X75488095Y-82538152D01*
X75488095Y-82538152D02*
X75440476Y-82585771D01*
X75440476Y-82585771D02*
X75345238Y-82633390D01*
X75345238Y-82633390D02*
X75154762Y-82633390D01*
X75154762Y-82633390D02*
X75059524Y-82681009D01*
X75059524Y-82681009D02*
X75011905Y-82728628D01*
X75011905Y-82728628D02*
X74964286Y-82823866D01*
X74964286Y-82823866D02*
X74964286Y-83014342D01*
X74964286Y-83014342D02*
X75011905Y-83109580D01*
X75011905Y-83109580D02*
X75059524Y-83157200D01*
X75059524Y-83157200D02*
X75154762Y-83204819D01*
X75154762Y-83204819D02*
X75345238Y-83204819D01*
X75345238Y-83204819D02*
X75440476Y-83157200D01*
X75440476Y-83157200D02*
X75488095Y-83109580D01*
X75488095Y-83109580D02*
X75535714Y-83014342D01*
X75535714Y-83014342D02*
X75535714Y-82823866D01*
X75535714Y-82823866D02*
X75488095Y-82728628D01*
X75488095Y-82728628D02*
X75440476Y-82681009D01*
X75440476Y-82681009D02*
X75345238Y-82633390D01*
X74583333Y-86454819D02*
X74250000Y-85978628D01*
X74011905Y-86454819D02*
X74011905Y-85454819D01*
X74011905Y-85454819D02*
X74392857Y-85454819D01*
X74392857Y-85454819D02*
X74488095Y-85502438D01*
X74488095Y-85502438D02*
X74535714Y-85550057D01*
X74535714Y-85550057D02*
X74583333Y-85645295D01*
X74583333Y-85645295D02*
X74583333Y-85788152D01*
X74583333Y-85788152D02*
X74535714Y-85883390D01*
X74535714Y-85883390D02*
X74488095Y-85931009D01*
X74488095Y-85931009D02*
X74392857Y-85978628D01*
X74392857Y-85978628D02*
X74011905Y-85978628D01*
X75440476Y-85454819D02*
X75250000Y-85454819D01*
X75250000Y-85454819D02*
X75154762Y-85502438D01*
X75154762Y-85502438D02*
X75107143Y-85550057D01*
X75107143Y-85550057D02*
X75011905Y-85692914D01*
X75011905Y-85692914D02*
X74964286Y-85883390D01*
X74964286Y-85883390D02*
X74964286Y-86264342D01*
X74964286Y-86264342D02*
X75011905Y-86359580D01*
X75011905Y-86359580D02*
X75059524Y-86407200D01*
X75059524Y-86407200D02*
X75154762Y-86454819D01*
X75154762Y-86454819D02*
X75345238Y-86454819D01*
X75345238Y-86454819D02*
X75440476Y-86407200D01*
X75440476Y-86407200D02*
X75488095Y-86359580D01*
X75488095Y-86359580D02*
X75535714Y-86264342D01*
X75535714Y-86264342D02*
X75535714Y-86026247D01*
X75535714Y-86026247D02*
X75488095Y-85931009D01*
X75488095Y-85931009D02*
X75440476Y-85883390D01*
X75440476Y-85883390D02*
X75345238Y-85835771D01*
X75345238Y-85835771D02*
X75154762Y-85835771D01*
X75154762Y-85835771D02*
X75059524Y-85883390D01*
X75059524Y-85883390D02*
X75011905Y-85931009D01*
X75011905Y-85931009D02*
X74964286Y-86026247D01*
X74583333Y-80204819D02*
X74250000Y-79728628D01*
X74011905Y-80204819D02*
X74011905Y-79204819D01*
X74011905Y-79204819D02*
X74392857Y-79204819D01*
X74392857Y-79204819D02*
X74488095Y-79252438D01*
X74488095Y-79252438D02*
X74535714Y-79300057D01*
X74535714Y-79300057D02*
X74583333Y-79395295D01*
X74583333Y-79395295D02*
X74583333Y-79538152D01*
X74583333Y-79538152D02*
X74535714Y-79633390D01*
X74535714Y-79633390D02*
X74488095Y-79681009D01*
X74488095Y-79681009D02*
X74392857Y-79728628D01*
X74392857Y-79728628D02*
X74011905Y-79728628D01*
X74916667Y-79204819D02*
X75583333Y-79204819D01*
X75583333Y-79204819D02*
X75154762Y-80204819D01*
X78083333Y-73859580D02*
X78035714Y-73907200D01*
X78035714Y-73907200D02*
X77892857Y-73954819D01*
X77892857Y-73954819D02*
X77797619Y-73954819D01*
X77797619Y-73954819D02*
X77654762Y-73907200D01*
X77654762Y-73907200D02*
X77559524Y-73811961D01*
X77559524Y-73811961D02*
X77511905Y-73716723D01*
X77511905Y-73716723D02*
X77464286Y-73526247D01*
X77464286Y-73526247D02*
X77464286Y-73383390D01*
X77464286Y-73383390D02*
X77511905Y-73192914D01*
X77511905Y-73192914D02*
X77559524Y-73097676D01*
X77559524Y-73097676D02*
X77654762Y-73002438D01*
X77654762Y-73002438D02*
X77797619Y-72954819D01*
X77797619Y-72954819D02*
X77892857Y-72954819D01*
X77892857Y-72954819D02*
X78035714Y-73002438D01*
X78035714Y-73002438D02*
X78083333Y-73050057D01*
X78988095Y-72954819D02*
X78511905Y-72954819D01*
X78511905Y-72954819D02*
X78464286Y-73431009D01*
X78464286Y-73431009D02*
X78511905Y-73383390D01*
X78511905Y-73383390D02*
X78607143Y-73335771D01*
X78607143Y-73335771D02*
X78845238Y-73335771D01*
X78845238Y-73335771D02*
X78940476Y-73383390D01*
X78940476Y-73383390D02*
X78988095Y-73431009D01*
X78988095Y-73431009D02*
X79035714Y-73526247D01*
X79035714Y-73526247D02*
X79035714Y-73764342D01*
X79035714Y-73764342D02*
X78988095Y-73859580D01*
X78988095Y-73859580D02*
X78940476Y-73907200D01*
X78940476Y-73907200D02*
X78845238Y-73954819D01*
X78845238Y-73954819D02*
X78607143Y-73954819D01*
X78607143Y-73954819D02*
X78511905Y-73907200D01*
X78511905Y-73907200D02*
X78464286Y-73859580D01*
X122583333Y-78109580D02*
X122535714Y-78157200D01*
X122535714Y-78157200D02*
X122392857Y-78204819D01*
X122392857Y-78204819D02*
X122297619Y-78204819D01*
X122297619Y-78204819D02*
X122154762Y-78157200D01*
X122154762Y-78157200D02*
X122059524Y-78061961D01*
X122059524Y-78061961D02*
X122011905Y-77966723D01*
X122011905Y-77966723D02*
X121964286Y-77776247D01*
X121964286Y-77776247D02*
X121964286Y-77633390D01*
X121964286Y-77633390D02*
X122011905Y-77442914D01*
X122011905Y-77442914D02*
X122059524Y-77347676D01*
X122059524Y-77347676D02*
X122154762Y-77252438D01*
X122154762Y-77252438D02*
X122297619Y-77204819D01*
X122297619Y-77204819D02*
X122392857Y-77204819D01*
X122392857Y-77204819D02*
X122535714Y-77252438D01*
X122535714Y-77252438D02*
X122583333Y-77300057D01*
X122964286Y-77300057D02*
X123011905Y-77252438D01*
X123011905Y-77252438D02*
X123107143Y-77204819D01*
X123107143Y-77204819D02*
X123345238Y-77204819D01*
X123345238Y-77204819D02*
X123440476Y-77252438D01*
X123440476Y-77252438D02*
X123488095Y-77300057D01*
X123488095Y-77300057D02*
X123535714Y-77395295D01*
X123535714Y-77395295D02*
X123535714Y-77490533D01*
X123535714Y-77490533D02*
X123488095Y-77633390D01*
X123488095Y-77633390D02*
X122916667Y-78204819D01*
X122916667Y-78204819D02*
X123535714Y-78204819D01*
%TO.C,R5*%
D11*
X90730000Y-68880000D02*
X97270000Y-68880000D01*
X97270000Y-71620000D01*
X90730000Y-71620000D01*
X90730000Y-68880000D01*
X98040000Y-70250000D02*
X97270000Y-70250000D01*
X89960000Y-70250000D02*
X90730000Y-70250000D01*
%TO.C,C4*%
X78030000Y-74880000D02*
X85470000Y-74880000D01*
X78030000Y-77620000D02*
X78030000Y-74880000D01*
X85470000Y-74880000D02*
X85470000Y-77620000D01*
X85470000Y-77620000D02*
X78030000Y-77620000D01*
%TO.C,J5*%
X77230000Y-111880000D02*
X77120000Y-111880000D01*
X77120000Y-109120000D02*
X77120000Y-111880000D01*
X77230000Y-109120000D02*
X77230000Y-111880000D01*
X77230000Y-109120000D02*
X77120000Y-109120000D01*
X78500000Y-109120000D02*
X79880000Y-109120000D01*
X79880000Y-109120000D02*
X79880000Y-110500000D01*
%TO.C,R4*%
X102040000Y-89250000D02*
X102810000Y-89250000D01*
X110120000Y-89250000D02*
X109350000Y-89250000D01*
X102810000Y-87880000D02*
X109350000Y-87880000D01*
X109350000Y-90620000D01*
X102810000Y-90620000D01*
X102810000Y-87880000D01*
%TO.C,J4*%
X75520000Y-71370000D02*
X75630000Y-71370000D01*
X75630000Y-74130000D02*
X75630000Y-71370000D01*
X75520000Y-74130000D02*
X75520000Y-71370000D01*
X75520000Y-74130000D02*
X75630000Y-74130000D01*
X74250000Y-74130000D02*
X72870000Y-74130000D01*
X72870000Y-74130000D02*
X72870000Y-72750000D01*
%TO.C,C3*%
X109120000Y-74250000D02*
G75*
G02*
X103880000Y-74250000I-2620000J0D01*
G01*
X103880000Y-74250000D02*
G75*
G02*
X109120000Y-74250000I2620000J0D01*
G01*
X109100000Y-73967000D02*
X109100000Y-74533000D01*
X109060000Y-73733000D02*
X109060000Y-74767000D01*
X109020000Y-73573000D02*
X109020000Y-74927000D01*
X108980000Y-73445000D02*
X108980000Y-75055000D01*
X108940000Y-73336000D02*
X108940000Y-75164000D01*
X108900000Y-73239000D02*
X108900000Y-75261000D01*
X108860000Y-73152000D02*
X108860000Y-75348000D01*
X108820000Y-73073000D02*
X108820000Y-75427000D01*
X108780000Y-72999000D02*
X108780000Y-75501000D01*
X108740000Y-72931000D02*
X108740000Y-75569000D01*
X108700000Y-72867000D02*
X108700000Y-75633000D01*
X108660000Y-72807000D02*
X108660000Y-75693000D01*
X108620000Y-72751000D02*
X108620000Y-75749000D01*
X108580000Y-72697000D02*
X108580000Y-75803000D01*
X108540000Y-72646000D02*
X108540000Y-75854000D01*
X108500000Y-75290000D02*
X108500000Y-75902000D01*
X108500000Y-72598000D02*
X108500000Y-73210000D01*
X108460000Y-75290000D02*
X108460000Y-75949000D01*
X108460000Y-72551000D02*
X108460000Y-73210000D01*
X108420000Y-75290000D02*
X108420000Y-75993000D01*
X108420000Y-72507000D02*
X108420000Y-73210000D01*
X108380000Y-75290000D02*
X108380000Y-76035000D01*
X108380000Y-72465000D02*
X108380000Y-73210000D01*
X108340000Y-75290000D02*
X108340000Y-76075000D01*
X108340000Y-72425000D02*
X108340000Y-73210000D01*
X108300000Y-75290000D02*
X108300000Y-76114000D01*
X108300000Y-72386000D02*
X108300000Y-73210000D01*
X108260000Y-75290000D02*
X108260000Y-76151000D01*
X108260000Y-72349000D02*
X108260000Y-73210000D01*
X108220000Y-75290000D02*
X108220000Y-76186000D01*
X108220000Y-72314000D02*
X108220000Y-73210000D01*
X108180000Y-75290000D02*
X108180000Y-76220000D01*
X108180000Y-72280000D02*
X108180000Y-73210000D01*
X108140000Y-75290000D02*
X108140000Y-76253000D01*
X108140000Y-72247000D02*
X108140000Y-73210000D01*
X108100000Y-75290000D02*
X108100000Y-76285000D01*
X108100000Y-72215000D02*
X108100000Y-73210000D01*
X108060000Y-75290000D02*
X108060000Y-76315000D01*
X108060000Y-72185000D02*
X108060000Y-73210000D01*
X108020000Y-75290000D02*
X108020000Y-76344000D01*
X108020000Y-72156000D02*
X108020000Y-73210000D01*
X107980000Y-75290000D02*
X107980000Y-76372000D01*
X107980000Y-72128000D02*
X107980000Y-73210000D01*
X107940000Y-75290000D02*
X107940000Y-76399000D01*
X107940000Y-72101000D02*
X107940000Y-73210000D01*
X107900000Y-75290000D02*
X107900000Y-76425000D01*
X107900000Y-72075000D02*
X107900000Y-73210000D01*
X107860000Y-75290000D02*
X107860000Y-76449000D01*
X107860000Y-72051000D02*
X107860000Y-73210000D01*
X107820000Y-75290000D02*
X107820000Y-76473000D01*
X107820000Y-72027000D02*
X107820000Y-73210000D01*
X107780000Y-75290000D02*
X107780000Y-76496000D01*
X107780000Y-72004000D02*
X107780000Y-73210000D01*
X107740000Y-75290000D02*
X107740000Y-76518000D01*
X107740000Y-71982000D02*
X107740000Y-73210000D01*
X107700000Y-75290000D02*
X107700000Y-76539000D01*
X107700000Y-71961000D02*
X107700000Y-73210000D01*
X107660000Y-75290000D02*
X107660000Y-76559000D01*
X107660000Y-71941000D02*
X107660000Y-73210000D01*
X107620000Y-75290000D02*
X107620000Y-76579000D01*
X107620000Y-71921000D02*
X107620000Y-73210000D01*
X107580000Y-75290000D02*
X107580000Y-76597000D01*
X107580000Y-71903000D02*
X107580000Y-73210000D01*
X107540000Y-75290000D02*
X107540000Y-76615000D01*
X107540000Y-71885000D02*
X107540000Y-73210000D01*
X107500000Y-75290000D02*
X107500000Y-76632000D01*
X107500000Y-71868000D02*
X107500000Y-73210000D01*
X107460000Y-75290000D02*
X107460000Y-76648000D01*
X107460000Y-71852000D02*
X107460000Y-73210000D01*
X107420000Y-75290000D02*
X107420000Y-76663000D01*
X107420000Y-71837000D02*
X107420000Y-73210000D01*
X107380000Y-75290000D02*
X107380000Y-76678000D01*
X107380000Y-71822000D02*
X107380000Y-73210000D01*
X107340000Y-75290000D02*
X107340000Y-76692000D01*
X107340000Y-71808000D02*
X107340000Y-73210000D01*
X107300000Y-75290000D02*
X107300000Y-76705000D01*
X107300000Y-71795000D02*
X107300000Y-73210000D01*
X107260000Y-75290000D02*
X107260000Y-76717000D01*
X107260000Y-71783000D02*
X107260000Y-73210000D01*
X107220000Y-75290000D02*
X107220000Y-76729000D01*
X107220000Y-71771000D02*
X107220000Y-73210000D01*
X107180000Y-75290000D02*
X107180000Y-76740000D01*
X107180000Y-71760000D02*
X107180000Y-73210000D01*
X107140000Y-75290000D02*
X107140000Y-76751000D01*
X107140000Y-71749000D02*
X107140000Y-73210000D01*
X107100000Y-75290000D02*
X107100000Y-76760000D01*
X107100000Y-71740000D02*
X107100000Y-73210000D01*
X107060000Y-75290000D02*
X107060000Y-76769000D01*
X107060000Y-71731000D02*
X107060000Y-73210000D01*
X107020000Y-75290000D02*
X107020000Y-76778000D01*
X107020000Y-71722000D02*
X107020000Y-73210000D01*
X106980000Y-75290000D02*
X106980000Y-76786000D01*
X106980000Y-71714000D02*
X106980000Y-73210000D01*
X106940000Y-75290000D02*
X106940000Y-76793000D01*
X106940000Y-71707000D02*
X106940000Y-73210000D01*
X106900000Y-75290000D02*
X106900000Y-76799000D01*
X106900000Y-71701000D02*
X106900000Y-73210000D01*
X106860000Y-75290000D02*
X106860000Y-76805000D01*
X106860000Y-71695000D02*
X106860000Y-73210000D01*
X106820000Y-75290000D02*
X106820000Y-76810000D01*
X106820000Y-71690000D02*
X106820000Y-73210000D01*
X106780000Y-75290000D02*
X106780000Y-76815000D01*
X106780000Y-71685000D02*
X106780000Y-73210000D01*
X106740000Y-75290000D02*
X106740000Y-76819000D01*
X106740000Y-71681000D02*
X106740000Y-73210000D01*
X106700000Y-75290000D02*
X106700000Y-76822000D01*
X106700000Y-71678000D02*
X106700000Y-73210000D01*
X106660000Y-75290000D02*
X106660000Y-76825000D01*
X106660000Y-71675000D02*
X106660000Y-73210000D01*
X106620000Y-75290000D02*
X106620000Y-76827000D01*
X106620000Y-71673000D02*
X106620000Y-73210000D01*
X106580000Y-75290000D02*
X106580000Y-76829000D01*
X106580000Y-71671000D02*
X106580000Y-73210000D01*
X106540000Y-75290000D02*
X106540000Y-76830000D01*
X106540000Y-71670000D02*
X106540000Y-73210000D01*
X106500000Y-75290000D02*
X106500000Y-76830000D01*
X106500000Y-71670000D02*
X106500000Y-73210000D01*
X103945225Y-72525000D02*
X103945225Y-73025000D01*
X103695225Y-72775000D02*
X104195225Y-72775000D01*
%TO.C,C1*%
X110220000Y-80370000D02*
X102780000Y-80370000D01*
X110220000Y-77630000D02*
X110220000Y-80370000D01*
X102780000Y-80370000D02*
X102780000Y-77630000D01*
X102780000Y-77630000D02*
X110220000Y-77630000D01*
%TO.C,J3*%
X115520000Y-75370000D02*
X115630000Y-75370000D01*
X115630000Y-78130000D02*
X115630000Y-75370000D01*
X115520000Y-78130000D02*
X115520000Y-75370000D01*
X115520000Y-78130000D02*
X115630000Y-78130000D01*
X114250000Y-78130000D02*
X112870000Y-78130000D01*
X112870000Y-78130000D02*
X112870000Y-76750000D01*
%TO.C,R9*%
X96250000Y-101540000D02*
X96250000Y-100770000D01*
X96250000Y-93460000D02*
X96250000Y-94230000D01*
X94880000Y-94230000D02*
X97620000Y-94230000D01*
X97620000Y-100770000D01*
X94880000Y-100770000D01*
X94880000Y-94230000D01*
%TO.C,C7*%
X118120000Y-100250000D02*
G75*
G02*
X101880000Y-100250000I-8120000J0D01*
G01*
X101880000Y-100250000D02*
G75*
G02*
X118120000Y-100250000I8120000J0D01*
G01*
X110765000Y-108330000D02*
X109235000Y-108330000D01*
X111097000Y-108290000D02*
X108903000Y-108290000D01*
X111351000Y-108250000D02*
X108649000Y-108250000D01*
X111564000Y-108210000D02*
X108436000Y-108210000D01*
X111751000Y-108170000D02*
X108249000Y-108170000D01*
X111920000Y-108130000D02*
X108080000Y-108130000D01*
X112074000Y-108090000D02*
X107926000Y-108090000D01*
X112217000Y-108050000D02*
X107783000Y-108050000D01*
X112351000Y-108010000D02*
X107649000Y-108010000D01*
X112477000Y-107970000D02*
X107523000Y-107970000D01*
X112597000Y-107930000D02*
X107403000Y-107930000D01*
X112710000Y-107890000D02*
X107290000Y-107890000D01*
X112819000Y-107850000D02*
X107181000Y-107850000D01*
X112923000Y-107810000D02*
X107077000Y-107810000D01*
X113023000Y-107770000D02*
X106977000Y-107770000D01*
X113120000Y-107730000D02*
X106880000Y-107730000D01*
X113213000Y-107690000D02*
X106787000Y-107690000D01*
X113303000Y-107650000D02*
X106697000Y-107650000D01*
X113390000Y-107610000D02*
X106610000Y-107610000D01*
X113475000Y-107570000D02*
X106525000Y-107570000D01*
X113557000Y-107530000D02*
X106443000Y-107530000D01*
X113637000Y-107490000D02*
X106363000Y-107490000D01*
X113714000Y-107450000D02*
X106286000Y-107450000D01*
X113790000Y-107410000D02*
X106210000Y-107410000D01*
X113864000Y-107370000D02*
X106136000Y-107370000D01*
X113936000Y-107330000D02*
X106064000Y-107330000D01*
X114006000Y-107290000D02*
X105994000Y-107290000D01*
X114075000Y-107250000D02*
X105925000Y-107250000D01*
X114142000Y-107210000D02*
X105858000Y-107210000D01*
X114208000Y-107170000D02*
X105792000Y-107170000D01*
X114273000Y-107130000D02*
X105727000Y-107130000D01*
X114336000Y-107090000D02*
X105664000Y-107090000D01*
X114398000Y-107050000D02*
X105602000Y-107050000D01*
X114459000Y-107010000D02*
X105541000Y-107010000D01*
X114518000Y-106970000D02*
X105482000Y-106970000D01*
X114576000Y-106930000D02*
X105424000Y-106930000D01*
X114634000Y-106890000D02*
X105366000Y-106890000D01*
X114690000Y-106850000D02*
X105310000Y-106850000D01*
X114745000Y-106810000D02*
X105255000Y-106810000D01*
X114800000Y-106770000D02*
X105200000Y-106770000D01*
X114853000Y-106730000D02*
X105147000Y-106730000D01*
X114906000Y-106690000D02*
X105094000Y-106690000D01*
X114957000Y-106650000D02*
X105043000Y-106650000D01*
X115008000Y-106610000D02*
X104992000Y-106610000D01*
X115058000Y-106570000D02*
X104942000Y-106570000D01*
X115107000Y-106530000D02*
X104893000Y-106530000D01*
X115156000Y-106490000D02*
X104844000Y-106490000D01*
X115204000Y-106450000D02*
X104796000Y-106450000D01*
X115250000Y-106410000D02*
X104750000Y-106410000D01*
X115297000Y-106370000D02*
X104703000Y-106370000D01*
X115342000Y-106330000D02*
X104658000Y-106330000D01*
X115387000Y-106290000D02*
X104613000Y-106290000D01*
X115431000Y-106250000D02*
X104569000Y-106250000D01*
X115475000Y-106210000D02*
X104525000Y-106210000D01*
X115518000Y-106170000D02*
X104482000Y-106170000D01*
X115560000Y-106130000D02*
X104440000Y-106130000D01*
X115602000Y-106090000D02*
X104398000Y-106090000D01*
X115643000Y-106050000D02*
X104357000Y-106050000D01*
X115683000Y-106010000D02*
X104317000Y-106010000D01*
X115723000Y-105970000D02*
X104277000Y-105970000D01*
X115763000Y-105930000D02*
X104237000Y-105930000D01*
X115802000Y-105890000D02*
X104198000Y-105890000D01*
X115840000Y-105850000D02*
X104160000Y-105850000D01*
X115878000Y-105810000D02*
X104122000Y-105810000D01*
X115915000Y-105770000D02*
X104085000Y-105770000D01*
X115952000Y-105730000D02*
X104048000Y-105730000D01*
X115988000Y-105690000D02*
X104012000Y-105690000D01*
X116024000Y-105650000D02*
X103976000Y-105650000D01*
X116060000Y-105610000D02*
X103940000Y-105610000D01*
X116094000Y-105570000D02*
X103906000Y-105570000D01*
X116129000Y-105530000D02*
X103871000Y-105530000D01*
X116163000Y-105490000D02*
X103837000Y-105490000D01*
X116197000Y-105450000D02*
X103803000Y-105450000D01*
X108560000Y-105410000D02*
X103770000Y-105410000D01*
X116230000Y-105410000D02*
X111440000Y-105410000D01*
X108560000Y-105370000D02*
X103738000Y-105370000D01*
X116262000Y-105370000D02*
X111440000Y-105370000D01*
X108560000Y-105330000D02*
X103705000Y-105330000D01*
X116295000Y-105330000D02*
X111440000Y-105330000D01*
X108560000Y-105290000D02*
X103673000Y-105290000D01*
X116327000Y-105290000D02*
X111440000Y-105290000D01*
X108560000Y-105250000D02*
X103642000Y-105250000D01*
X116358000Y-105250000D02*
X111440000Y-105250000D01*
X108560000Y-105210000D02*
X103611000Y-105210000D01*
X116389000Y-105210000D02*
X111440000Y-105210000D01*
X108560000Y-105170000D02*
X103580000Y-105170000D01*
X116420000Y-105170000D02*
X111440000Y-105170000D01*
X108560000Y-105130000D02*
X103550000Y-105130000D01*
X116450000Y-105130000D02*
X111440000Y-105130000D01*
X108560000Y-105090000D02*
X103520000Y-105090000D01*
X116480000Y-105090000D02*
X111440000Y-105090000D01*
X108560000Y-105050000D02*
X103491000Y-105050000D01*
X116509000Y-105050000D02*
X111440000Y-105050000D01*
X108560000Y-105010000D02*
X103461000Y-105010000D01*
X116539000Y-105010000D02*
X111440000Y-105010000D01*
X108560000Y-104970000D02*
X103433000Y-104970000D01*
X116567000Y-104970000D02*
X111440000Y-104970000D01*
X108560000Y-104930000D02*
X103404000Y-104930000D01*
X116596000Y-104930000D02*
X111440000Y-104930000D01*
X108560000Y-104890000D02*
X103376000Y-104890000D01*
X116624000Y-104890000D02*
X111440000Y-104890000D01*
X108560000Y-104850000D02*
X103349000Y-104850000D01*
X116651000Y-104850000D02*
X111440000Y-104850000D01*
X108560000Y-104810000D02*
X103321000Y-104810000D01*
X116679000Y-104810000D02*
X111440000Y-104810000D01*
X108560000Y-104770000D02*
X103294000Y-104770000D01*
X116706000Y-104770000D02*
X111440000Y-104770000D01*
X108560000Y-104730000D02*
X103268000Y-104730000D01*
X116732000Y-104730000D02*
X111440000Y-104730000D01*
X108560000Y-104690000D02*
X103241000Y-104690000D01*
X116759000Y-104690000D02*
X111440000Y-104690000D01*
X108560000Y-104650000D02*
X103215000Y-104650000D01*
X116785000Y-104650000D02*
X111440000Y-104650000D01*
X108560000Y-104610000D02*
X103190000Y-104610000D01*
X116810000Y-104610000D02*
X111440000Y-104610000D01*
X108560000Y-104570000D02*
X103165000Y-104570000D01*
X116835000Y-104570000D02*
X111440000Y-104570000D01*
X108560000Y-104530000D02*
X103140000Y-104530000D01*
X116860000Y-104530000D02*
X111440000Y-104530000D01*
X108560000Y-104490000D02*
X103115000Y-104490000D01*
X116885000Y-104490000D02*
X111440000Y-104490000D01*
X108560000Y-104450000D02*
X103091000Y-104450000D01*
X116909000Y-104450000D02*
X111440000Y-104450000D01*
X108560000Y-104410000D02*
X103067000Y-104410000D01*
X116933000Y-104410000D02*
X111440000Y-104410000D01*
X108560000Y-104370000D02*
X103043000Y-104370000D01*
X116957000Y-104370000D02*
X111440000Y-104370000D01*
X108560000Y-104330000D02*
X103019000Y-104330000D01*
X116981000Y-104330000D02*
X111440000Y-104330000D01*
X108560000Y-104290000D02*
X102996000Y-104290000D01*
X117004000Y-104290000D02*
X111440000Y-104290000D01*
X108560000Y-104250000D02*
X102974000Y-104250000D01*
X117026000Y-104250000D02*
X111440000Y-104250000D01*
X108560000Y-104210000D02*
X102951000Y-104210000D01*
X117049000Y-104210000D02*
X111440000Y-104210000D01*
X108560000Y-104170000D02*
X102929000Y-104170000D01*
X117071000Y-104170000D02*
X111440000Y-104170000D01*
X108560000Y-104130000D02*
X102907000Y-104130000D01*
X117093000Y-104130000D02*
X111440000Y-104130000D01*
X108560000Y-104090000D02*
X102885000Y-104090000D01*
X117115000Y-104090000D02*
X111440000Y-104090000D01*
X108560000Y-104050000D02*
X102864000Y-104050000D01*
X117136000Y-104050000D02*
X111440000Y-104050000D01*
X108560000Y-104010000D02*
X102843000Y-104010000D01*
X117157000Y-104010000D02*
X111440000Y-104010000D01*
X108560000Y-103970000D02*
X102822000Y-103970000D01*
X117178000Y-103970000D02*
X111440000Y-103970000D01*
X108560000Y-103930000D02*
X102802000Y-103930000D01*
X117198000Y-103930000D02*
X111440000Y-103930000D01*
X108560000Y-103890000D02*
X102782000Y-103890000D01*
X117218000Y-103890000D02*
X111440000Y-103890000D01*
X108560000Y-103850000D02*
X102762000Y-103850000D01*
X117238000Y-103850000D02*
X111440000Y-103850000D01*
X108560000Y-103810000D02*
X102742000Y-103810000D01*
X117258000Y-103810000D02*
X111440000Y-103810000D01*
X108560000Y-103770000D02*
X102723000Y-103770000D01*
X117277000Y-103770000D02*
X111440000Y-103770000D01*
X108560000Y-103730000D02*
X102704000Y-103730000D01*
X117296000Y-103730000D02*
X111440000Y-103730000D01*
X108560000Y-103690000D02*
X102685000Y-103690000D01*
X117315000Y-103690000D02*
X111440000Y-103690000D01*
X108560000Y-103650000D02*
X102666000Y-103650000D01*
X117334000Y-103650000D02*
X111440000Y-103650000D01*
X108560000Y-103610000D02*
X102648000Y-103610000D01*
X117352000Y-103610000D02*
X111440000Y-103610000D01*
X108560000Y-103570000D02*
X102630000Y-103570000D01*
X117370000Y-103570000D02*
X111440000Y-103570000D01*
X108560000Y-103530000D02*
X102612000Y-103530000D01*
X117388000Y-103530000D02*
X111440000Y-103530000D01*
X108560000Y-103490000D02*
X102594000Y-103490000D01*
X117406000Y-103490000D02*
X111440000Y-103490000D01*
X108560000Y-103450000D02*
X102577000Y-103450000D01*
X117423000Y-103450000D02*
X111440000Y-103450000D01*
X108560000Y-103410000D02*
X102560000Y-103410000D01*
X117440000Y-103410000D02*
X111440000Y-103410000D01*
X108560000Y-103370000D02*
X102543000Y-103370000D01*
X117457000Y-103370000D02*
X111440000Y-103370000D01*
X108560000Y-103330000D02*
X102527000Y-103330000D01*
X117473000Y-103330000D02*
X111440000Y-103330000D01*
X108560000Y-103290000D02*
X102511000Y-103290000D01*
X117489000Y-103290000D02*
X111440000Y-103290000D01*
X108560000Y-103250000D02*
X102495000Y-103250000D01*
X117505000Y-103250000D02*
X111440000Y-103250000D01*
X108560000Y-103210000D02*
X102479000Y-103210000D01*
X117521000Y-103210000D02*
X111440000Y-103210000D01*
X108560000Y-103170000D02*
X102463000Y-103170000D01*
X117537000Y-103170000D02*
X111440000Y-103170000D01*
X108560000Y-103130000D02*
X102448000Y-103130000D01*
X117552000Y-103130000D02*
X111440000Y-103130000D01*
X108560000Y-103090000D02*
X102433000Y-103090000D01*
X117567000Y-103090000D02*
X111440000Y-103090000D01*
X108560000Y-103050000D02*
X102418000Y-103050000D01*
X117582000Y-103050000D02*
X111440000Y-103050000D01*
X108560000Y-103010000D02*
X102403000Y-103010000D01*
X117597000Y-103010000D02*
X111440000Y-103010000D01*
X108560000Y-102970000D02*
X102389000Y-102970000D01*
X117611000Y-102970000D02*
X111440000Y-102970000D01*
X108560000Y-102930000D02*
X102375000Y-102930000D01*
X117625000Y-102930000D02*
X111440000Y-102930000D01*
X108560000Y-102890000D02*
X102361000Y-102890000D01*
X117639000Y-102890000D02*
X111440000Y-102890000D01*
X108560000Y-102850000D02*
X102348000Y-102850000D01*
X117652000Y-102850000D02*
X111440000Y-102850000D01*
X108560000Y-102810000D02*
X102334000Y-102810000D01*
X117666000Y-102810000D02*
X111440000Y-102810000D01*
X108560000Y-102770000D02*
X102321000Y-102770000D01*
X117679000Y-102770000D02*
X111440000Y-102770000D01*
X108560000Y-102730000D02*
X102308000Y-102730000D01*
X117692000Y-102730000D02*
X111440000Y-102730000D01*
X108560000Y-102690000D02*
X102295000Y-102690000D01*
X117705000Y-102690000D02*
X111440000Y-102690000D01*
X108560000Y-102650000D02*
X102283000Y-102650000D01*
X117717000Y-102650000D02*
X111440000Y-102650000D01*
X108560000Y-102610000D02*
X102271000Y-102610000D01*
X117729000Y-102610000D02*
X111440000Y-102610000D01*
X108560000Y-102570000D02*
X102258000Y-102570000D01*
X117742000Y-102570000D02*
X111440000Y-102570000D01*
X117753000Y-102530000D02*
X102247000Y-102530000D01*
X117765000Y-102490000D02*
X102235000Y-102490000D01*
X117776000Y-102450000D02*
X102224000Y-102450000D01*
X117787000Y-102410000D02*
X102213000Y-102410000D01*
X117798000Y-102370000D02*
X102202000Y-102370000D01*
X117809000Y-102330000D02*
X102191000Y-102330000D01*
X117820000Y-102290000D02*
X102180000Y-102290000D01*
X117830000Y-102250000D02*
X102170000Y-102250000D01*
X117840000Y-102210000D02*
X102160000Y-102210000D01*
X117850000Y-102170000D02*
X102150000Y-102170000D01*
X117859000Y-102130000D02*
X102141000Y-102130000D01*
X117869000Y-102090000D02*
X102131000Y-102090000D01*
X117878000Y-102050000D02*
X102122000Y-102050000D01*
X117887000Y-102010000D02*
X102113000Y-102010000D01*
X117896000Y-101970000D02*
X102104000Y-101970000D01*
X117904000Y-101930000D02*
X102096000Y-101930000D01*
X117913000Y-101890000D02*
X102087000Y-101890000D01*
X117921000Y-101850000D02*
X102079000Y-101850000D01*
X117929000Y-101810000D02*
X102071000Y-101810000D01*
X117936000Y-101770000D02*
X102064000Y-101770000D01*
X117944000Y-101730000D02*
X102056000Y-101730000D01*
X117951000Y-101690000D02*
X102049000Y-101690000D01*
X117958000Y-101650000D02*
X102042000Y-101650000D01*
X117965000Y-101610000D02*
X102035000Y-101610000D01*
X117972000Y-101570000D02*
X102028000Y-101570000D01*
X117978000Y-101530000D02*
X102022000Y-101530000D01*
X117985000Y-101490000D02*
X102015000Y-101490000D01*
X117991000Y-101450000D02*
X102009000Y-101450000D01*
X117997000Y-101410000D02*
X102003000Y-101410000D01*
X118002000Y-101370000D02*
X101998000Y-101370000D01*
X118008000Y-101330000D02*
X101992000Y-101330000D01*
X118013000Y-101290000D02*
X101987000Y-101290000D01*
X118018000Y-101250000D02*
X101982000Y-101250000D01*
X118023000Y-101210000D02*
X101977000Y-101210000D01*
X118028000Y-101170000D02*
X101972000Y-101170000D01*
X118032000Y-101130000D02*
X101968000Y-101130000D01*
X118036000Y-101090000D02*
X101964000Y-101090000D01*
X118040000Y-101050000D02*
X101960000Y-101050000D01*
X118044000Y-101010000D02*
X101956000Y-101010000D01*
X118048000Y-100970000D02*
X101952000Y-100970000D01*
X118051000Y-100930000D02*
X101949000Y-100930000D01*
X118055000Y-100890000D02*
X101945000Y-100890000D01*
X118058000Y-100850000D02*
X101942000Y-100850000D01*
X118061000Y-100810000D02*
X101939000Y-100810000D01*
X118063000Y-100770000D02*
X101937000Y-100770000D01*
X118066000Y-100730000D02*
X101934000Y-100730000D01*
X118068000Y-100690000D02*
X101932000Y-100690000D01*
X118070000Y-100650000D02*
X101930000Y-100650000D01*
X118072000Y-100610000D02*
X101928000Y-100610000D01*
X118074000Y-100570000D02*
X101926000Y-100570000D01*
X118075000Y-100530000D02*
X101925000Y-100530000D01*
X118076000Y-100490000D02*
X101924000Y-100490000D01*
X118078000Y-100450000D02*
X101922000Y-100450000D01*
X118078000Y-100410000D02*
X101922000Y-100410000D01*
X118079000Y-100370000D02*
X101921000Y-100370000D01*
X118080000Y-100330000D02*
X101920000Y-100330000D01*
X118080000Y-100290000D02*
X101920000Y-100290000D01*
X118080000Y-100250000D02*
X101920000Y-100250000D01*
X115355000Y-92360509D02*
X113755000Y-92360509D01*
X114555000Y-91560509D02*
X114555000Y-93160509D01*
%TO.C,C8*%
X73945000Y-108939491D02*
X73945000Y-107339491D01*
X73145000Y-108139491D02*
X74745000Y-108139491D01*
X70420000Y-100250000D02*
X86580000Y-100250000D01*
X70420000Y-100210000D02*
X86580000Y-100210000D01*
X70420000Y-100170000D02*
X86580000Y-100170000D01*
X70421000Y-100130000D02*
X86579000Y-100130000D01*
X70422000Y-100090000D02*
X86578000Y-100090000D01*
X70422000Y-100050000D02*
X86578000Y-100050000D01*
X70424000Y-100010000D02*
X86576000Y-100010000D01*
X70425000Y-99970000D02*
X86575000Y-99970000D01*
X70426000Y-99930000D02*
X86574000Y-99930000D01*
X70428000Y-99890000D02*
X86572000Y-99890000D01*
X70430000Y-99850000D02*
X86570000Y-99850000D01*
X70432000Y-99810000D02*
X86568000Y-99810000D01*
X70434000Y-99770000D02*
X86566000Y-99770000D01*
X70437000Y-99730000D02*
X86563000Y-99730000D01*
X70439000Y-99690000D02*
X86561000Y-99690000D01*
X70442000Y-99650000D02*
X86558000Y-99650000D01*
X70445000Y-99610000D02*
X86555000Y-99610000D01*
X70449000Y-99570000D02*
X86551000Y-99570000D01*
X70452000Y-99530000D02*
X86548000Y-99530000D01*
X70456000Y-99490000D02*
X86544000Y-99490000D01*
X70460000Y-99450000D02*
X86540000Y-99450000D01*
X70464000Y-99410000D02*
X86536000Y-99410000D01*
X70468000Y-99370000D02*
X86532000Y-99370000D01*
X70472000Y-99330000D02*
X86528000Y-99330000D01*
X70477000Y-99290000D02*
X86523000Y-99290000D01*
X70482000Y-99250000D02*
X86518000Y-99250000D01*
X70487000Y-99210000D02*
X86513000Y-99210000D01*
X70492000Y-99170000D02*
X86508000Y-99170000D01*
X70498000Y-99130000D02*
X86502000Y-99130000D01*
X70503000Y-99090000D02*
X86497000Y-99090000D01*
X70509000Y-99050000D02*
X86491000Y-99050000D01*
X70515000Y-99010000D02*
X86485000Y-99010000D01*
X70522000Y-98970000D02*
X86478000Y-98970000D01*
X70528000Y-98930000D02*
X86472000Y-98930000D01*
X70535000Y-98890000D02*
X86465000Y-98890000D01*
X70542000Y-98850000D02*
X86458000Y-98850000D01*
X70549000Y-98810000D02*
X86451000Y-98810000D01*
X70556000Y-98770000D02*
X86444000Y-98770000D01*
X70564000Y-98730000D02*
X86436000Y-98730000D01*
X70571000Y-98690000D02*
X86429000Y-98690000D01*
X70579000Y-98650000D02*
X86421000Y-98650000D01*
X70587000Y-98610000D02*
X86413000Y-98610000D01*
X70596000Y-98570000D02*
X86404000Y-98570000D01*
X70604000Y-98530000D02*
X86396000Y-98530000D01*
X70613000Y-98490000D02*
X86387000Y-98490000D01*
X70622000Y-98450000D02*
X86378000Y-98450000D01*
X70631000Y-98410000D02*
X86369000Y-98410000D01*
X70641000Y-98370000D02*
X86359000Y-98370000D01*
X70650000Y-98330000D02*
X86350000Y-98330000D01*
X70660000Y-98290000D02*
X86340000Y-98290000D01*
X70670000Y-98250000D02*
X86330000Y-98250000D01*
X70680000Y-98210000D02*
X86320000Y-98210000D01*
X70691000Y-98170000D02*
X86309000Y-98170000D01*
X70702000Y-98130000D02*
X86298000Y-98130000D01*
X70713000Y-98090000D02*
X86287000Y-98090000D01*
X70724000Y-98050000D02*
X86276000Y-98050000D01*
X70735000Y-98010000D02*
X86265000Y-98010000D01*
X70747000Y-97970000D02*
X86253000Y-97970000D01*
X70758000Y-97930000D02*
X77060000Y-97930000D01*
X79940000Y-97930000D02*
X86242000Y-97930000D01*
X70771000Y-97890000D02*
X77060000Y-97890000D01*
X79940000Y-97890000D02*
X86229000Y-97890000D01*
X70783000Y-97850000D02*
X77060000Y-97850000D01*
X79940000Y-97850000D02*
X86217000Y-97850000D01*
X70795000Y-97810000D02*
X77060000Y-97810000D01*
X79940000Y-97810000D02*
X86205000Y-97810000D01*
X70808000Y-97770000D02*
X77060000Y-97770000D01*
X79940000Y-97770000D02*
X86192000Y-97770000D01*
X70821000Y-97730000D02*
X77060000Y-97730000D01*
X79940000Y-97730000D02*
X86179000Y-97730000D01*
X70834000Y-97690000D02*
X77060000Y-97690000D01*
X79940000Y-97690000D02*
X86166000Y-97690000D01*
X70848000Y-97650000D02*
X77060000Y-97650000D01*
X79940000Y-97650000D02*
X86152000Y-97650000D01*
X70861000Y-97610000D02*
X77060000Y-97610000D01*
X79940000Y-97610000D02*
X86139000Y-97610000D01*
X70875000Y-97570000D02*
X77060000Y-97570000D01*
X79940000Y-97570000D02*
X86125000Y-97570000D01*
X70889000Y-97530000D02*
X77060000Y-97530000D01*
X79940000Y-97530000D02*
X86111000Y-97530000D01*
X70903000Y-97490000D02*
X77060000Y-97490000D01*
X79940000Y-97490000D02*
X86097000Y-97490000D01*
X70918000Y-97450000D02*
X77060000Y-97450000D01*
X79940000Y-97450000D02*
X86082000Y-97450000D01*
X70933000Y-97410000D02*
X77060000Y-97410000D01*
X79940000Y-97410000D02*
X86067000Y-97410000D01*
X70948000Y-97370000D02*
X77060000Y-97370000D01*
X79940000Y-97370000D02*
X86052000Y-97370000D01*
X70963000Y-97330000D02*
X77060000Y-97330000D01*
X79940000Y-97330000D02*
X86037000Y-97330000D01*
X70979000Y-97290000D02*
X77060000Y-97290000D01*
X79940000Y-97290000D02*
X86021000Y-97290000D01*
X70995000Y-97250000D02*
X77060000Y-97250000D01*
X79940000Y-97250000D02*
X86005000Y-97250000D01*
X71011000Y-97210000D02*
X77060000Y-97210000D01*
X79940000Y-97210000D02*
X85989000Y-97210000D01*
X71027000Y-97170000D02*
X77060000Y-97170000D01*
X79940000Y-97170000D02*
X85973000Y-97170000D01*
X71043000Y-97130000D02*
X77060000Y-97130000D01*
X79940000Y-97130000D02*
X85957000Y-97130000D01*
X71060000Y-97090000D02*
X77060000Y-97090000D01*
X79940000Y-97090000D02*
X85940000Y-97090000D01*
X71077000Y-97050000D02*
X77060000Y-97050000D01*
X79940000Y-97050000D02*
X85923000Y-97050000D01*
X71094000Y-97010000D02*
X77060000Y-97010000D01*
X79940000Y-97010000D02*
X85906000Y-97010000D01*
X71112000Y-96970000D02*
X77060000Y-96970000D01*
X79940000Y-96970000D02*
X85888000Y-96970000D01*
X71130000Y-96930000D02*
X77060000Y-96930000D01*
X79940000Y-96930000D02*
X85870000Y-96930000D01*
X71148000Y-96890000D02*
X77060000Y-96890000D01*
X79940000Y-96890000D02*
X85852000Y-96890000D01*
X71166000Y-96850000D02*
X77060000Y-96850000D01*
X79940000Y-96850000D02*
X85834000Y-96850000D01*
X71185000Y-96810000D02*
X77060000Y-96810000D01*
X79940000Y-96810000D02*
X85815000Y-96810000D01*
X71204000Y-96770000D02*
X77060000Y-96770000D01*
X79940000Y-96770000D02*
X85796000Y-96770000D01*
X71223000Y-96730000D02*
X77060000Y-96730000D01*
X79940000Y-96730000D02*
X85777000Y-96730000D01*
X71242000Y-96690000D02*
X77060000Y-96690000D01*
X79940000Y-96690000D02*
X85758000Y-96690000D01*
X71262000Y-96650000D02*
X77060000Y-96650000D01*
X79940000Y-96650000D02*
X85738000Y-96650000D01*
X71282000Y-96610000D02*
X77060000Y-96610000D01*
X79940000Y-96610000D02*
X85718000Y-96610000D01*
X71302000Y-96570000D02*
X77060000Y-96570000D01*
X79940000Y-96570000D02*
X85698000Y-96570000D01*
X71322000Y-96530000D02*
X77060000Y-96530000D01*
X79940000Y-96530000D02*
X85678000Y-96530000D01*
X71343000Y-96490000D02*
X77060000Y-96490000D01*
X79940000Y-96490000D02*
X85657000Y-96490000D01*
X71364000Y-96450000D02*
X77060000Y-96450000D01*
X79940000Y-96450000D02*
X85636000Y-96450000D01*
X71385000Y-96410000D02*
X77060000Y-96410000D01*
X79940000Y-96410000D02*
X85615000Y-96410000D01*
X71407000Y-96370000D02*
X77060000Y-96370000D01*
X79940000Y-96370000D02*
X85593000Y-96370000D01*
X71429000Y-96330000D02*
X77060000Y-96330000D01*
X79940000Y-96330000D02*
X85571000Y-96330000D01*
X71451000Y-96290000D02*
X77060000Y-96290000D01*
X79940000Y-96290000D02*
X85549000Y-96290000D01*
X71474000Y-96250000D02*
X77060000Y-96250000D01*
X79940000Y-96250000D02*
X85526000Y-96250000D01*
X71496000Y-96210000D02*
X77060000Y-96210000D01*
X79940000Y-96210000D02*
X85504000Y-96210000D01*
X71519000Y-96170000D02*
X77060000Y-96170000D01*
X79940000Y-96170000D02*
X85481000Y-96170000D01*
X71543000Y-96130000D02*
X77060000Y-96130000D01*
X79940000Y-96130000D02*
X85457000Y-96130000D01*
X71567000Y-96090000D02*
X77060000Y-96090000D01*
X79940000Y-96090000D02*
X85433000Y-96090000D01*
X71591000Y-96050000D02*
X77060000Y-96050000D01*
X79940000Y-96050000D02*
X85409000Y-96050000D01*
X71615000Y-96010000D02*
X77060000Y-96010000D01*
X79940000Y-96010000D02*
X85385000Y-96010000D01*
X71640000Y-95970000D02*
X77060000Y-95970000D01*
X79940000Y-95970000D02*
X85360000Y-95970000D01*
X71665000Y-95930000D02*
X77060000Y-95930000D01*
X79940000Y-95930000D02*
X85335000Y-95930000D01*
X71690000Y-95890000D02*
X77060000Y-95890000D01*
X79940000Y-95890000D02*
X85310000Y-95890000D01*
X71715000Y-95850000D02*
X77060000Y-95850000D01*
X79940000Y-95850000D02*
X85285000Y-95850000D01*
X71741000Y-95810000D02*
X77060000Y-95810000D01*
X79940000Y-95810000D02*
X85259000Y-95810000D01*
X71768000Y-95770000D02*
X77060000Y-95770000D01*
X79940000Y-95770000D02*
X85232000Y-95770000D01*
X71794000Y-95730000D02*
X77060000Y-95730000D01*
X79940000Y-95730000D02*
X85206000Y-95730000D01*
X71821000Y-95690000D02*
X77060000Y-95690000D01*
X79940000Y-95690000D02*
X85179000Y-95690000D01*
X71849000Y-95650000D02*
X77060000Y-95650000D01*
X79940000Y-95650000D02*
X85151000Y-95650000D01*
X71876000Y-95610000D02*
X77060000Y-95610000D01*
X79940000Y-95610000D02*
X85124000Y-95610000D01*
X71904000Y-95570000D02*
X77060000Y-95570000D01*
X79940000Y-95570000D02*
X85096000Y-95570000D01*
X71933000Y-95530000D02*
X77060000Y-95530000D01*
X79940000Y-95530000D02*
X85067000Y-95530000D01*
X71961000Y-95490000D02*
X77060000Y-95490000D01*
X79940000Y-95490000D02*
X85039000Y-95490000D01*
X71991000Y-95450000D02*
X77060000Y-95450000D01*
X79940000Y-95450000D02*
X85009000Y-95450000D01*
X72020000Y-95410000D02*
X77060000Y-95410000D01*
X79940000Y-95410000D02*
X84980000Y-95410000D01*
X72050000Y-95370000D02*
X77060000Y-95370000D01*
X79940000Y-95370000D02*
X84950000Y-95370000D01*
X72080000Y-95330000D02*
X77060000Y-95330000D01*
X79940000Y-95330000D02*
X84920000Y-95330000D01*
X72111000Y-95290000D02*
X77060000Y-95290000D01*
X79940000Y-95290000D02*
X84889000Y-95290000D01*
X72142000Y-95250000D02*
X77060000Y-95250000D01*
X79940000Y-95250000D02*
X84858000Y-95250000D01*
X72173000Y-95210000D02*
X77060000Y-95210000D01*
X79940000Y-95210000D02*
X84827000Y-95210000D01*
X72205000Y-95170000D02*
X77060000Y-95170000D01*
X79940000Y-95170000D02*
X84795000Y-95170000D01*
X72238000Y-95130000D02*
X77060000Y-95130000D01*
X79940000Y-95130000D02*
X84762000Y-95130000D01*
X72270000Y-95090000D02*
X77060000Y-95090000D01*
X79940000Y-95090000D02*
X84730000Y-95090000D01*
X72303000Y-95050000D02*
X84697000Y-95050000D01*
X72337000Y-95010000D02*
X84663000Y-95010000D01*
X72371000Y-94970000D02*
X84629000Y-94970000D01*
X72406000Y-94930000D02*
X84594000Y-94930000D01*
X72440000Y-94890000D02*
X84560000Y-94890000D01*
X72476000Y-94850000D02*
X84524000Y-94850000D01*
X72512000Y-94810000D02*
X84488000Y-94810000D01*
X72548000Y-94770000D02*
X84452000Y-94770000D01*
X72585000Y-94730000D02*
X84415000Y-94730000D01*
X72622000Y-94690000D02*
X84378000Y-94690000D01*
X72660000Y-94650000D02*
X84340000Y-94650000D01*
X72698000Y-94610000D02*
X84302000Y-94610000D01*
X72737000Y-94570000D02*
X84263000Y-94570000D01*
X72777000Y-94530000D02*
X84223000Y-94530000D01*
X72817000Y-94490000D02*
X84183000Y-94490000D01*
X72857000Y-94450000D02*
X84143000Y-94450000D01*
X72898000Y-94410000D02*
X84102000Y-94410000D01*
X72940000Y-94370000D02*
X84060000Y-94370000D01*
X72982000Y-94330000D02*
X84018000Y-94330000D01*
X73025000Y-94290000D02*
X83975000Y-94290000D01*
X73069000Y-94250000D02*
X83931000Y-94250000D01*
X73113000Y-94210000D02*
X83887000Y-94210000D01*
X73158000Y-94170000D02*
X83842000Y-94170000D01*
X73203000Y-94130000D02*
X83797000Y-94130000D01*
X73250000Y-94090000D02*
X83750000Y-94090000D01*
X73296000Y-94050000D02*
X83704000Y-94050000D01*
X73344000Y-94010000D02*
X83656000Y-94010000D01*
X73393000Y-93970000D02*
X83607000Y-93970000D01*
X73442000Y-93930000D02*
X83558000Y-93930000D01*
X73492000Y-93890000D02*
X83508000Y-93890000D01*
X73543000Y-93850000D02*
X83457000Y-93850000D01*
X73594000Y-93810000D02*
X83406000Y-93810000D01*
X73647000Y-93770000D02*
X83353000Y-93770000D01*
X73700000Y-93730000D02*
X83300000Y-93730000D01*
X73755000Y-93690000D02*
X83245000Y-93690000D01*
X73810000Y-93650000D02*
X83190000Y-93650000D01*
X73866000Y-93610000D02*
X83134000Y-93610000D01*
X73924000Y-93570000D02*
X83076000Y-93570000D01*
X73982000Y-93530000D02*
X83018000Y-93530000D01*
X74041000Y-93490000D02*
X82959000Y-93490000D01*
X74102000Y-93450000D02*
X82898000Y-93450000D01*
X74164000Y-93410000D02*
X82836000Y-93410000D01*
X74227000Y-93370000D02*
X82773000Y-93370000D01*
X74292000Y-93330000D02*
X82708000Y-93330000D01*
X74358000Y-93290000D02*
X82642000Y-93290000D01*
X74425000Y-93250000D02*
X82575000Y-93250000D01*
X74494000Y-93210000D02*
X82506000Y-93210000D01*
X74564000Y-93170000D02*
X82436000Y-93170000D01*
X74636000Y-93130000D02*
X82364000Y-93130000D01*
X74710000Y-93090000D02*
X82290000Y-93090000D01*
X74786000Y-93050000D02*
X82214000Y-93050000D01*
X74863000Y-93010000D02*
X82137000Y-93010000D01*
X74943000Y-92970000D02*
X82057000Y-92970000D01*
X75025000Y-92930000D02*
X81975000Y-92930000D01*
X75110000Y-92890000D02*
X81890000Y-92890000D01*
X75197000Y-92850000D02*
X81803000Y-92850000D01*
X75287000Y-92810000D02*
X81713000Y-92810000D01*
X75380000Y-92770000D02*
X81620000Y-92770000D01*
X75477000Y-92730000D02*
X81523000Y-92730000D01*
X75577000Y-92690000D02*
X81423000Y-92690000D01*
X75681000Y-92650000D02*
X81319000Y-92650000D01*
X75790000Y-92610000D02*
X81210000Y-92610000D01*
X75903000Y-92570000D02*
X81097000Y-92570000D01*
X76023000Y-92530000D02*
X80977000Y-92530000D01*
X76149000Y-92490000D02*
X80851000Y-92490000D01*
X76283000Y-92450000D02*
X80717000Y-92450000D01*
X76426000Y-92410000D02*
X80574000Y-92410000D01*
X76580000Y-92370000D02*
X80420000Y-92370000D01*
X76749000Y-92330000D02*
X80251000Y-92330000D01*
X76936000Y-92290000D02*
X80064000Y-92290000D01*
X77149000Y-92250000D02*
X79851000Y-92250000D01*
X77403000Y-92210000D02*
X79597000Y-92210000D01*
X77735000Y-92170000D02*
X79265000Y-92170000D01*
X86620000Y-100250000D02*
G75*
G02*
X70380000Y-100250000I-8120000J0D01*
G01*
X70380000Y-100250000D02*
G75*
G02*
X86620000Y-100250000I8120000J0D01*
G01*
%TO.C,J7*%
X91870000Y-111380000D02*
X91870000Y-110000000D01*
X93250000Y-111380000D02*
X91870000Y-111380000D01*
X94520000Y-111380000D02*
X94630000Y-111380000D01*
X94520000Y-111380000D02*
X94520000Y-108620000D01*
X94630000Y-111380000D02*
X94630000Y-108620000D01*
X94520000Y-108620000D02*
X94630000Y-108620000D01*
%TO.C,J8*%
X95630000Y-66880000D02*
X94250000Y-66880000D01*
X95630000Y-65500000D02*
X95630000Y-66880000D01*
X95630000Y-64230000D02*
X95630000Y-64120000D01*
X95630000Y-64230000D02*
X92870000Y-64230000D01*
X95630000Y-64120000D02*
X92870000Y-64120000D01*
X92870000Y-64230000D02*
X92870000Y-64120000D01*
%TO.C,J6*%
X111380000Y-109120000D02*
X111380000Y-110500000D01*
X110000000Y-109120000D02*
X111380000Y-109120000D01*
X108730000Y-109120000D02*
X108620000Y-109120000D01*
X108730000Y-109120000D02*
X108730000Y-111880000D01*
X108620000Y-109120000D02*
X108620000Y-111880000D01*
X108730000Y-111880000D02*
X108620000Y-111880000D01*
%TO.C,J2*%
X60132755Y-73130000D02*
X60132755Y-71750000D01*
X61512755Y-73130000D02*
X60132755Y-73130000D01*
X62782755Y-73130000D02*
X62892755Y-73130000D01*
X62782755Y-73130000D02*
X62782755Y-70370000D01*
X62892755Y-73130000D02*
X62892755Y-70370000D01*
X62782755Y-70370000D02*
X62892755Y-70370000D01*
%TO.C,J1*%
X124870000Y-76880000D02*
X124870000Y-75500000D01*
X126250000Y-76880000D02*
X124870000Y-76880000D01*
X127520000Y-76880000D02*
X127630000Y-76880000D01*
X127520000Y-76880000D02*
X127520000Y-74120000D01*
X127630000Y-76880000D02*
X127630000Y-74120000D01*
X127520000Y-74120000D02*
X127630000Y-74120000D01*
%TO.C,U1*%
X96590000Y-86580000D02*
X96590000Y-76300000D01*
X96590000Y-76300000D02*
X91290000Y-76300000D01*
X94940000Y-86580000D02*
X96590000Y-86580000D01*
X91290000Y-86580000D02*
X92940000Y-86580000D01*
X91290000Y-76300000D02*
X91290000Y-86580000D01*
X88800000Y-76240000D02*
X99080000Y-76240000D01*
X99080000Y-86640000D01*
X88800000Y-86640000D01*
X88800000Y-76240000D01*
X92940000Y-86580000D02*
G75*
G02*
X94940000Y-86580000I1000000J0D01*
G01*
%TO.C,R1*%
X90730000Y-72880000D02*
X97270000Y-72880000D01*
X97270000Y-75620000D01*
X90730000Y-75620000D01*
X90730000Y-72880000D01*
X89960000Y-74250000D02*
X90730000Y-74250000D01*
X98040000Y-74250000D02*
X97270000Y-74250000D01*
%TO.C,R3*%
X102730000Y-84630000D02*
X109270000Y-84630000D01*
X109270000Y-87370000D01*
X102730000Y-87370000D01*
X102730000Y-84630000D01*
X101960000Y-86000000D02*
X102730000Y-86000000D01*
X110040000Y-86000000D02*
X109270000Y-86000000D01*
%TO.C,C6*%
X73132755Y-82250000D02*
G75*
G02*
X56892755Y-82250000I-8120000J0D01*
G01*
X56892755Y-82250000D02*
G75*
G02*
X73132755Y-82250000I8120000J0D01*
G01*
X56932755Y-83015000D02*
X56932755Y-81485000D01*
X56972755Y-83347000D02*
X56972755Y-81153000D01*
X57012755Y-83601000D02*
X57012755Y-80899000D01*
X57052755Y-83814000D02*
X57052755Y-80686000D01*
X57092755Y-84001000D02*
X57092755Y-80499000D01*
X57132755Y-84170000D02*
X57132755Y-80330000D01*
X57172755Y-84324000D02*
X57172755Y-80176000D01*
X57212755Y-84467000D02*
X57212755Y-80033000D01*
X57252755Y-84601000D02*
X57252755Y-79899000D01*
X57292755Y-84727000D02*
X57292755Y-79773000D01*
X57332755Y-84847000D02*
X57332755Y-79653000D01*
X57372755Y-84960000D02*
X57372755Y-79540000D01*
X57412755Y-85069000D02*
X57412755Y-79431000D01*
X57452755Y-85173000D02*
X57452755Y-79327000D01*
X57492755Y-85273000D02*
X57492755Y-79227000D01*
X57532755Y-85370000D02*
X57532755Y-79130000D01*
X57572755Y-85463000D02*
X57572755Y-79037000D01*
X57612755Y-85553000D02*
X57612755Y-78947000D01*
X57652755Y-85640000D02*
X57652755Y-78860000D01*
X57692755Y-85725000D02*
X57692755Y-78775000D01*
X57732755Y-85807000D02*
X57732755Y-78693000D01*
X57772755Y-85887000D02*
X57772755Y-78613000D01*
X57812755Y-85964000D02*
X57812755Y-78536000D01*
X57852755Y-86040000D02*
X57852755Y-78460000D01*
X57892755Y-86114000D02*
X57892755Y-78386000D01*
X57932755Y-86186000D02*
X57932755Y-78314000D01*
X57972755Y-86256000D02*
X57972755Y-78244000D01*
X58012755Y-86325000D02*
X58012755Y-78175000D01*
X58052755Y-86392000D02*
X58052755Y-78108000D01*
X58092755Y-86458000D02*
X58092755Y-78042000D01*
X58132755Y-86523000D02*
X58132755Y-77977000D01*
X58172755Y-86586000D02*
X58172755Y-77914000D01*
X58212755Y-86648000D02*
X58212755Y-77852000D01*
X58252755Y-86709000D02*
X58252755Y-77791000D01*
X58292755Y-86768000D02*
X58292755Y-77732000D01*
X58332755Y-86826000D02*
X58332755Y-77674000D01*
X58372755Y-86884000D02*
X58372755Y-77616000D01*
X58412755Y-86940000D02*
X58412755Y-77560000D01*
X58452755Y-86995000D02*
X58452755Y-77505000D01*
X58492755Y-87050000D02*
X58492755Y-77450000D01*
X58532755Y-87103000D02*
X58532755Y-77397000D01*
X58572755Y-87156000D02*
X58572755Y-77344000D01*
X58612755Y-87207000D02*
X58612755Y-77293000D01*
X58652755Y-87258000D02*
X58652755Y-77242000D01*
X58692755Y-87308000D02*
X58692755Y-77192000D01*
X58732755Y-87357000D02*
X58732755Y-77143000D01*
X58772755Y-87406000D02*
X58772755Y-77094000D01*
X58812755Y-87454000D02*
X58812755Y-77046000D01*
X58852755Y-87500000D02*
X58852755Y-77000000D01*
X58892755Y-87547000D02*
X58892755Y-76953000D01*
X58932755Y-87592000D02*
X58932755Y-76908000D01*
X58972755Y-87637000D02*
X58972755Y-76863000D01*
X59012755Y-87681000D02*
X59012755Y-76819000D01*
X59052755Y-87725000D02*
X59052755Y-76775000D01*
X59092755Y-87768000D02*
X59092755Y-76732000D01*
X59132755Y-87810000D02*
X59132755Y-76690000D01*
X59172755Y-87852000D02*
X59172755Y-76648000D01*
X59212755Y-87893000D02*
X59212755Y-76607000D01*
X59252755Y-87933000D02*
X59252755Y-76567000D01*
X59292755Y-87973000D02*
X59292755Y-76527000D01*
X59332755Y-88013000D02*
X59332755Y-76487000D01*
X59372755Y-88052000D02*
X59372755Y-76448000D01*
X59412755Y-88090000D02*
X59412755Y-76410000D01*
X59452755Y-88128000D02*
X59452755Y-76372000D01*
X59492755Y-88165000D02*
X59492755Y-76335000D01*
X59532755Y-88202000D02*
X59532755Y-76298000D01*
X59572755Y-88238000D02*
X59572755Y-76262000D01*
X59612755Y-88274000D02*
X59612755Y-76226000D01*
X59652755Y-88310000D02*
X59652755Y-76190000D01*
X59692755Y-88344000D02*
X59692755Y-76156000D01*
X59732755Y-88379000D02*
X59732755Y-76121000D01*
X59772755Y-88413000D02*
X59772755Y-76087000D01*
X59812755Y-88447000D02*
X59812755Y-76053000D01*
X59852755Y-80810000D02*
X59852755Y-76020000D01*
X59852755Y-88480000D02*
X59852755Y-83690000D01*
X59892755Y-80810000D02*
X59892755Y-75988000D01*
X59892755Y-88512000D02*
X59892755Y-83690000D01*
X59932755Y-80810000D02*
X59932755Y-75955000D01*
X59932755Y-88545000D02*
X59932755Y-83690000D01*
X59972755Y-80810000D02*
X59972755Y-75923000D01*
X59972755Y-88577000D02*
X59972755Y-83690000D01*
X60012755Y-80810000D02*
X60012755Y-75892000D01*
X60012755Y-88608000D02*
X60012755Y-83690000D01*
X60052755Y-80810000D02*
X60052755Y-75861000D01*
X60052755Y-88639000D02*
X60052755Y-83690000D01*
X60092755Y-80810000D02*
X60092755Y-75830000D01*
X60092755Y-88670000D02*
X60092755Y-83690000D01*
X60132755Y-80810000D02*
X60132755Y-75800000D01*
X60132755Y-88700000D02*
X60132755Y-83690000D01*
X60172755Y-80810000D02*
X60172755Y-75770000D01*
X60172755Y-88730000D02*
X60172755Y-83690000D01*
X60212755Y-80810000D02*
X60212755Y-75741000D01*
X60212755Y-88759000D02*
X60212755Y-83690000D01*
X60252755Y-80810000D02*
X60252755Y-75711000D01*
X60252755Y-88789000D02*
X60252755Y-83690000D01*
X60292755Y-80810000D02*
X60292755Y-75683000D01*
X60292755Y-88817000D02*
X60292755Y-83690000D01*
X60332755Y-80810000D02*
X60332755Y-75654000D01*
X60332755Y-88846000D02*
X60332755Y-83690000D01*
X60372755Y-80810000D02*
X60372755Y-75626000D01*
X60372755Y-88874000D02*
X60372755Y-83690000D01*
X60412755Y-80810000D02*
X60412755Y-75599000D01*
X60412755Y-88901000D02*
X60412755Y-83690000D01*
X60452755Y-80810000D02*
X60452755Y-75571000D01*
X60452755Y-88929000D02*
X60452755Y-83690000D01*
X60492755Y-80810000D02*
X60492755Y-75544000D01*
X60492755Y-88956000D02*
X60492755Y-83690000D01*
X60532755Y-80810000D02*
X60532755Y-75518000D01*
X60532755Y-88982000D02*
X60532755Y-83690000D01*
X60572755Y-80810000D02*
X60572755Y-75491000D01*
X60572755Y-89009000D02*
X60572755Y-83690000D01*
X60612755Y-80810000D02*
X60612755Y-75465000D01*
X60612755Y-89035000D02*
X60612755Y-83690000D01*
X60652755Y-80810000D02*
X60652755Y-75440000D01*
X60652755Y-89060000D02*
X60652755Y-83690000D01*
X60692755Y-80810000D02*
X60692755Y-75415000D01*
X60692755Y-89085000D02*
X60692755Y-83690000D01*
X60732755Y-80810000D02*
X60732755Y-75390000D01*
X60732755Y-89110000D02*
X60732755Y-83690000D01*
X60772755Y-80810000D02*
X60772755Y-75365000D01*
X60772755Y-89135000D02*
X60772755Y-83690000D01*
X60812755Y-80810000D02*
X60812755Y-75341000D01*
X60812755Y-89159000D02*
X60812755Y-83690000D01*
X60852755Y-80810000D02*
X60852755Y-75317000D01*
X60852755Y-89183000D02*
X60852755Y-83690000D01*
X60892755Y-80810000D02*
X60892755Y-75293000D01*
X60892755Y-89207000D02*
X60892755Y-83690000D01*
X60932755Y-80810000D02*
X60932755Y-75269000D01*
X60932755Y-89231000D02*
X60932755Y-83690000D01*
X60972755Y-80810000D02*
X60972755Y-75246000D01*
X60972755Y-89254000D02*
X60972755Y-83690000D01*
X61012755Y-80810000D02*
X61012755Y-75224000D01*
X61012755Y-89276000D02*
X61012755Y-83690000D01*
X61052755Y-80810000D02*
X61052755Y-75201000D01*
X61052755Y-89299000D02*
X61052755Y-83690000D01*
X61092755Y-80810000D02*
X61092755Y-75179000D01*
X61092755Y-89321000D02*
X61092755Y-83690000D01*
X61132755Y-80810000D02*
X61132755Y-75157000D01*
X61132755Y-89343000D02*
X61132755Y-83690000D01*
X61172755Y-80810000D02*
X61172755Y-75135000D01*
X61172755Y-89365000D02*
X61172755Y-83690000D01*
X61212755Y-80810000D02*
X61212755Y-75114000D01*
X61212755Y-89386000D02*
X61212755Y-83690000D01*
X61252755Y-80810000D02*
X61252755Y-75093000D01*
X61252755Y-89407000D02*
X61252755Y-83690000D01*
X61292755Y-80810000D02*
X61292755Y-75072000D01*
X61292755Y-89428000D02*
X61292755Y-83690000D01*
X61332755Y-80810000D02*
X61332755Y-75052000D01*
X61332755Y-89448000D02*
X61332755Y-83690000D01*
X61372755Y-80810000D02*
X61372755Y-75032000D01*
X61372755Y-89468000D02*
X61372755Y-83690000D01*
X61412755Y-80810000D02*
X61412755Y-75012000D01*
X61412755Y-89488000D02*
X61412755Y-83690000D01*
X61452755Y-80810000D02*
X61452755Y-74992000D01*
X61452755Y-89508000D02*
X61452755Y-83690000D01*
X61492755Y-80810000D02*
X61492755Y-74973000D01*
X61492755Y-89527000D02*
X61492755Y-83690000D01*
X61532755Y-80810000D02*
X61532755Y-74954000D01*
X61532755Y-89546000D02*
X61532755Y-83690000D01*
X61572755Y-80810000D02*
X61572755Y-74935000D01*
X61572755Y-89565000D02*
X61572755Y-83690000D01*
X61612755Y-80810000D02*
X61612755Y-74916000D01*
X61612755Y-89584000D02*
X61612755Y-83690000D01*
X61652755Y-80810000D02*
X61652755Y-74898000D01*
X61652755Y-89602000D02*
X61652755Y-83690000D01*
X61692755Y-80810000D02*
X61692755Y-74880000D01*
X61692755Y-89620000D02*
X61692755Y-83690000D01*
X61732755Y-80810000D02*
X61732755Y-74862000D01*
X61732755Y-89638000D02*
X61732755Y-83690000D01*
X61772755Y-80810000D02*
X61772755Y-74844000D01*
X61772755Y-89656000D02*
X61772755Y-83690000D01*
X61812755Y-80810000D02*
X61812755Y-74827000D01*
X61812755Y-89673000D02*
X61812755Y-83690000D01*
X61852755Y-80810000D02*
X61852755Y-74810000D01*
X61852755Y-89690000D02*
X61852755Y-83690000D01*
X61892755Y-80810000D02*
X61892755Y-74793000D01*
X61892755Y-89707000D02*
X61892755Y-83690000D01*
X61932755Y-80810000D02*
X61932755Y-74777000D01*
X61932755Y-89723000D02*
X61932755Y-83690000D01*
X61972755Y-80810000D02*
X61972755Y-74761000D01*
X61972755Y-89739000D02*
X61972755Y-83690000D01*
X62012755Y-80810000D02*
X62012755Y-74745000D01*
X62012755Y-89755000D02*
X62012755Y-83690000D01*
X62052755Y-80810000D02*
X62052755Y-74729000D01*
X62052755Y-89771000D02*
X62052755Y-83690000D01*
X62092755Y-80810000D02*
X62092755Y-74713000D01*
X62092755Y-89787000D02*
X62092755Y-83690000D01*
X62132755Y-80810000D02*
X62132755Y-74698000D01*
X62132755Y-89802000D02*
X62132755Y-83690000D01*
X62172755Y-80810000D02*
X62172755Y-74683000D01*
X62172755Y-89817000D02*
X62172755Y-83690000D01*
X62212755Y-80810000D02*
X62212755Y-74668000D01*
X62212755Y-89832000D02*
X62212755Y-83690000D01*
X62252755Y-80810000D02*
X62252755Y-74653000D01*
X62252755Y-89847000D02*
X62252755Y-83690000D01*
X62292755Y-80810000D02*
X62292755Y-74639000D01*
X62292755Y-89861000D02*
X62292755Y-83690000D01*
X62332755Y-80810000D02*
X62332755Y-74625000D01*
X62332755Y-89875000D02*
X62332755Y-83690000D01*
X62372755Y-80810000D02*
X62372755Y-74611000D01*
X62372755Y-89889000D02*
X62372755Y-83690000D01*
X62412755Y-80810000D02*
X62412755Y-74598000D01*
X62412755Y-89902000D02*
X62412755Y-83690000D01*
X62452755Y-80810000D02*
X62452755Y-74584000D01*
X62452755Y-89916000D02*
X62452755Y-83690000D01*
X62492755Y-80810000D02*
X62492755Y-74571000D01*
X62492755Y-89929000D02*
X62492755Y-83690000D01*
X62532755Y-80810000D02*
X62532755Y-74558000D01*
X62532755Y-89942000D02*
X62532755Y-83690000D01*
X62572755Y-80810000D02*
X62572755Y-74545000D01*
X62572755Y-89955000D02*
X62572755Y-83690000D01*
X62612755Y-80810000D02*
X62612755Y-74533000D01*
X62612755Y-89967000D02*
X62612755Y-83690000D01*
X62652755Y-80810000D02*
X62652755Y-74521000D01*
X62652755Y-89979000D02*
X62652755Y-83690000D01*
X62692755Y-80810000D02*
X62692755Y-74508000D01*
X62692755Y-89992000D02*
X62692755Y-83690000D01*
X62732755Y-90003000D02*
X62732755Y-74497000D01*
X62772755Y-90015000D02*
X62772755Y-74485000D01*
X62812755Y-90026000D02*
X62812755Y-74474000D01*
X62852755Y-90037000D02*
X62852755Y-74463000D01*
X62892755Y-90048000D02*
X62892755Y-74452000D01*
X62932755Y-90059000D02*
X62932755Y-74441000D01*
X62972755Y-90070000D02*
X62972755Y-74430000D01*
X63012755Y-90080000D02*
X63012755Y-74420000D01*
X63052755Y-90090000D02*
X63052755Y-74410000D01*
X63092755Y-90100000D02*
X63092755Y-74400000D01*
X63132755Y-90109000D02*
X63132755Y-74391000D01*
X63172755Y-90119000D02*
X63172755Y-74381000D01*
X63212755Y-90128000D02*
X63212755Y-74372000D01*
X63252755Y-90137000D02*
X63252755Y-74363000D01*
X63292755Y-90146000D02*
X63292755Y-74354000D01*
X63332755Y-90154000D02*
X63332755Y-74346000D01*
X63372755Y-90163000D02*
X63372755Y-74337000D01*
X63412755Y-90171000D02*
X63412755Y-74329000D01*
X63452755Y-90179000D02*
X63452755Y-74321000D01*
X63492755Y-90186000D02*
X63492755Y-74314000D01*
X63532755Y-90194000D02*
X63532755Y-74306000D01*
X63572755Y-90201000D02*
X63572755Y-74299000D01*
X63612755Y-90208000D02*
X63612755Y-74292000D01*
X63652755Y-90215000D02*
X63652755Y-74285000D01*
X63692755Y-90222000D02*
X63692755Y-74278000D01*
X63732755Y-90228000D02*
X63732755Y-74272000D01*
X63772755Y-90235000D02*
X63772755Y-74265000D01*
X63812755Y-90241000D02*
X63812755Y-74259000D01*
X63852755Y-90247000D02*
X63852755Y-74253000D01*
X63892755Y-90252000D02*
X63892755Y-74248000D01*
X63932755Y-90258000D02*
X63932755Y-74242000D01*
X63972755Y-90263000D02*
X63972755Y-74237000D01*
X64012755Y-90268000D02*
X64012755Y-74232000D01*
X64052755Y-90273000D02*
X64052755Y-74227000D01*
X64092755Y-90278000D02*
X64092755Y-74222000D01*
X64132755Y-90282000D02*
X64132755Y-74218000D01*
X64172755Y-90286000D02*
X64172755Y-74214000D01*
X64212755Y-90290000D02*
X64212755Y-74210000D01*
X64252755Y-90294000D02*
X64252755Y-74206000D01*
X64292755Y-90298000D02*
X64292755Y-74202000D01*
X64332755Y-90301000D02*
X64332755Y-74199000D01*
X64372755Y-90305000D02*
X64372755Y-74195000D01*
X64412755Y-90308000D02*
X64412755Y-74192000D01*
X64452755Y-90311000D02*
X64452755Y-74189000D01*
X64492755Y-90313000D02*
X64492755Y-74187000D01*
X64532755Y-90316000D02*
X64532755Y-74184000D01*
X64572755Y-90318000D02*
X64572755Y-74182000D01*
X64612755Y-90320000D02*
X64612755Y-74180000D01*
X64652755Y-90322000D02*
X64652755Y-74178000D01*
X64692755Y-90324000D02*
X64692755Y-74176000D01*
X64732755Y-90325000D02*
X64732755Y-74175000D01*
X64772755Y-90326000D02*
X64772755Y-74174000D01*
X64812755Y-90328000D02*
X64812755Y-74172000D01*
X64852755Y-90328000D02*
X64852755Y-74172000D01*
X64892755Y-90329000D02*
X64892755Y-74171000D01*
X64932755Y-90330000D02*
X64932755Y-74170000D01*
X64972755Y-90330000D02*
X64972755Y-74170000D01*
X65012755Y-90330000D02*
X65012755Y-74170000D01*
X72902246Y-87605000D02*
X72902246Y-86005000D01*
X73702246Y-86805000D02*
X72102246Y-86805000D01*
%TO.C,R2*%
X110040000Y-82750000D02*
X109270000Y-82750000D01*
X101960000Y-82750000D02*
X102730000Y-82750000D01*
X102730000Y-81380000D02*
X109270000Y-81380000D01*
X109270000Y-84120000D01*
X102730000Y-84120000D01*
X102730000Y-81380000D01*
%TO.C,R10*%
X90500000Y-93460000D02*
X90500000Y-94230000D01*
X90500000Y-101540000D02*
X90500000Y-100770000D01*
X89130000Y-94230000D02*
X91870000Y-94230000D01*
X91870000Y-100770000D01*
X89130000Y-100770000D01*
X89130000Y-94230000D01*
%TO.C,R8*%
X78980000Y-81380000D02*
X85520000Y-81380000D01*
X85520000Y-84120000D01*
X78980000Y-84120000D01*
X78980000Y-81380000D01*
X78210000Y-82750000D02*
X78980000Y-82750000D01*
X86290000Y-82750000D02*
X85520000Y-82750000D01*
%TO.C,R6*%
X78980000Y-84630000D02*
X85520000Y-84630000D01*
X85520000Y-87370000D01*
X78980000Y-87370000D01*
X78980000Y-84630000D01*
X86290000Y-86000000D02*
X85520000Y-86000000D01*
X78210000Y-86000000D02*
X78980000Y-86000000D01*
%TO.C,R7*%
X86290000Y-79750000D02*
X85520000Y-79750000D01*
X78210000Y-79750000D02*
X78980000Y-79750000D01*
X78980000Y-78380000D02*
X85520000Y-78380000D01*
X85520000Y-81120000D01*
X78980000Y-81120000D01*
X78980000Y-78380000D01*
%TO.C,C5*%
X85009888Y-73225000D02*
X84509888Y-73225000D01*
X84759888Y-73475000D02*
X84759888Y-72975000D01*
X82205113Y-74330000D02*
X82205113Y-72790000D01*
X82205113Y-70710000D02*
X82205113Y-69170000D01*
X82165113Y-74330000D02*
X82165113Y-72790000D01*
X82165113Y-70710000D02*
X82165113Y-69170000D01*
X82125113Y-74329000D02*
X82125113Y-72790000D01*
X82125113Y-70710000D02*
X82125113Y-69171000D01*
X82085113Y-74327000D02*
X82085113Y-72790000D01*
X82085113Y-70710000D02*
X82085113Y-69173000D01*
X82045113Y-74325000D02*
X82045113Y-72790000D01*
X82045113Y-70710000D02*
X82045113Y-69175000D01*
X82005113Y-74322000D02*
X82005113Y-72790000D01*
X82005113Y-70710000D02*
X82005113Y-69178000D01*
X81965113Y-74319000D02*
X81965113Y-72790000D01*
X81965113Y-70710000D02*
X81965113Y-69181000D01*
X81925113Y-74315000D02*
X81925113Y-72790000D01*
X81925113Y-70710000D02*
X81925113Y-69185000D01*
X81885113Y-74310000D02*
X81885113Y-72790000D01*
X81885113Y-70710000D02*
X81885113Y-69190000D01*
X81845113Y-74305000D02*
X81845113Y-72790000D01*
X81845113Y-70710000D02*
X81845113Y-69195000D01*
X81805113Y-74299000D02*
X81805113Y-72790000D01*
X81805113Y-70710000D02*
X81805113Y-69201000D01*
X81765113Y-74293000D02*
X81765113Y-72790000D01*
X81765113Y-70710000D02*
X81765113Y-69207000D01*
X81725113Y-74286000D02*
X81725113Y-72790000D01*
X81725113Y-70710000D02*
X81725113Y-69214000D01*
X81685113Y-74278000D02*
X81685113Y-72790000D01*
X81685113Y-70710000D02*
X81685113Y-69222000D01*
X81645113Y-74269000D02*
X81645113Y-72790000D01*
X81645113Y-70710000D02*
X81645113Y-69231000D01*
X81605113Y-74260000D02*
X81605113Y-72790000D01*
X81605113Y-70710000D02*
X81605113Y-69240000D01*
X81565113Y-74251000D02*
X81565113Y-72790000D01*
X81565113Y-70710000D02*
X81565113Y-69249000D01*
X81525113Y-74240000D02*
X81525113Y-72790000D01*
X81525113Y-70710000D02*
X81525113Y-69260000D01*
X81485113Y-74229000D02*
X81485113Y-72790000D01*
X81485113Y-70710000D02*
X81485113Y-69271000D01*
X81445113Y-74217000D02*
X81445113Y-72790000D01*
X81445113Y-70710000D02*
X81445113Y-69283000D01*
X81405113Y-74205000D02*
X81405113Y-72790000D01*
X81405113Y-70710000D02*
X81405113Y-69295000D01*
X81365113Y-74192000D02*
X81365113Y-72790000D01*
X81365113Y-70710000D02*
X81365113Y-69308000D01*
X81325113Y-74178000D02*
X81325113Y-72790000D01*
X81325113Y-70710000D02*
X81325113Y-69322000D01*
X81285113Y-74163000D02*
X81285113Y-72790000D01*
X81285113Y-70710000D02*
X81285113Y-69337000D01*
X81245113Y-74148000D02*
X81245113Y-72790000D01*
X81245113Y-70710000D02*
X81245113Y-69352000D01*
X81205113Y-74132000D02*
X81205113Y-72790000D01*
X81205113Y-70710000D02*
X81205113Y-69368000D01*
X81165113Y-74115000D02*
X81165113Y-72790000D01*
X81165113Y-70710000D02*
X81165113Y-69385000D01*
X81125113Y-74097000D02*
X81125113Y-72790000D01*
X81125113Y-70710000D02*
X81125113Y-69403000D01*
X81085113Y-74079000D02*
X81085113Y-72790000D01*
X81085113Y-70710000D02*
X81085113Y-69421000D01*
X81045113Y-74059000D02*
X81045113Y-72790000D01*
X81045113Y-70710000D02*
X81045113Y-69441000D01*
X81005113Y-74039000D02*
X81005113Y-72790000D01*
X81005113Y-70710000D02*
X81005113Y-69461000D01*
X80965113Y-74018000D02*
X80965113Y-72790000D01*
X80965113Y-70710000D02*
X80965113Y-69482000D01*
X80925113Y-73996000D02*
X80925113Y-72790000D01*
X80925113Y-70710000D02*
X80925113Y-69504000D01*
X80885113Y-73973000D02*
X80885113Y-72790000D01*
X80885113Y-70710000D02*
X80885113Y-69527000D01*
X80845113Y-73949000D02*
X80845113Y-72790000D01*
X80845113Y-70710000D02*
X80845113Y-69551000D01*
X80805113Y-73925000D02*
X80805113Y-72790000D01*
X80805113Y-70710000D02*
X80805113Y-69575000D01*
X80765113Y-73899000D02*
X80765113Y-72790000D01*
X80765113Y-70710000D02*
X80765113Y-69601000D01*
X80725113Y-73872000D02*
X80725113Y-72790000D01*
X80725113Y-70710000D02*
X80725113Y-69628000D01*
X80685113Y-73844000D02*
X80685113Y-72790000D01*
X80685113Y-70710000D02*
X80685113Y-69656000D01*
X80645113Y-73815000D02*
X80645113Y-72790000D01*
X80645113Y-70710000D02*
X80645113Y-69685000D01*
X80605113Y-73785000D02*
X80605113Y-72790000D01*
X80605113Y-70710000D02*
X80605113Y-69715000D01*
X80565113Y-73753000D02*
X80565113Y-72790000D01*
X80565113Y-70710000D02*
X80565113Y-69747000D01*
X80525113Y-73720000D02*
X80525113Y-72790000D01*
X80525113Y-70710000D02*
X80525113Y-69780000D01*
X80485113Y-73686000D02*
X80485113Y-72790000D01*
X80485113Y-70710000D02*
X80485113Y-69814000D01*
X80445113Y-73651000D02*
X80445113Y-72790000D01*
X80445113Y-70710000D02*
X80445113Y-69849000D01*
X80405113Y-73614000D02*
X80405113Y-72790000D01*
X80405113Y-70710000D02*
X80405113Y-69886000D01*
X80365113Y-73575000D02*
X80365113Y-72790000D01*
X80365113Y-70710000D02*
X80365113Y-69925000D01*
X80325113Y-73535000D02*
X80325113Y-72790000D01*
X80325113Y-70710000D02*
X80325113Y-69965000D01*
X80285113Y-73493000D02*
X80285113Y-72790000D01*
X80285113Y-70710000D02*
X80285113Y-70007000D01*
X80245113Y-73449000D02*
X80245113Y-72790000D01*
X80245113Y-70710000D02*
X80245113Y-70051000D01*
X80205113Y-73402000D02*
X80205113Y-72790000D01*
X80205113Y-70710000D02*
X80205113Y-70098000D01*
X80165113Y-73354000D02*
X80165113Y-70146000D01*
X80125113Y-73303000D02*
X80125113Y-70197000D01*
X80085113Y-73249000D02*
X80085113Y-70251000D01*
X80045113Y-73193000D02*
X80045113Y-70307000D01*
X80005113Y-73133000D02*
X80005113Y-70367000D01*
X79965113Y-73069000D02*
X79965113Y-70431000D01*
X79925113Y-73001000D02*
X79925113Y-70499000D01*
X79885113Y-72927000D02*
X79885113Y-70573000D01*
X79845113Y-72848000D02*
X79845113Y-70652000D01*
X79805113Y-72761000D02*
X79805113Y-70739000D01*
X79765113Y-72664000D02*
X79765113Y-70836000D01*
X79725113Y-72555000D02*
X79725113Y-70945000D01*
X79685113Y-72427000D02*
X79685113Y-71073000D01*
X79645113Y-72267000D02*
X79645113Y-71233000D01*
X79605113Y-72033000D02*
X79605113Y-71467000D01*
X84825113Y-71750000D02*
G75*
G02*
X79585113Y-71750000I-2620000J0D01*
G01*
X79585113Y-71750000D02*
G75*
G02*
X84825113Y-71750000I2620000J0D01*
G01*
%TO.C,C2*%
X130870000Y-87000000D02*
G75*
G02*
X114630000Y-87000000I-8120000J0D01*
G01*
X114630000Y-87000000D02*
G75*
G02*
X130870000Y-87000000I8120000J0D01*
G01*
X130830000Y-86235000D02*
X130830000Y-87765000D01*
X130790000Y-85903000D02*
X130790000Y-88097000D01*
X130750000Y-85649000D02*
X130750000Y-88351000D01*
X130710000Y-85436000D02*
X130710000Y-88564000D01*
X130670000Y-85249000D02*
X130670000Y-88751000D01*
X130630000Y-85080000D02*
X130630000Y-88920000D01*
X130590000Y-84926000D02*
X130590000Y-89074000D01*
X130550000Y-84783000D02*
X130550000Y-89217000D01*
X130510000Y-84649000D02*
X130510000Y-89351000D01*
X130470000Y-84523000D02*
X130470000Y-89477000D01*
X130430000Y-84403000D02*
X130430000Y-89597000D01*
X130390000Y-84290000D02*
X130390000Y-89710000D01*
X130350000Y-84181000D02*
X130350000Y-89819000D01*
X130310000Y-84077000D02*
X130310000Y-89923000D01*
X130270000Y-83977000D02*
X130270000Y-90023000D01*
X130230000Y-83880000D02*
X130230000Y-90120000D01*
X130190000Y-83787000D02*
X130190000Y-90213000D01*
X130150000Y-83697000D02*
X130150000Y-90303000D01*
X130110000Y-83610000D02*
X130110000Y-90390000D01*
X130070000Y-83525000D02*
X130070000Y-90475000D01*
X130030000Y-83443000D02*
X130030000Y-90557000D01*
X129990000Y-83363000D02*
X129990000Y-90637000D01*
X129950000Y-83286000D02*
X129950000Y-90714000D01*
X129910000Y-83210000D02*
X129910000Y-90790000D01*
X129870000Y-83136000D02*
X129870000Y-90864000D01*
X129830000Y-83064000D02*
X129830000Y-90936000D01*
X129790000Y-82994000D02*
X129790000Y-91006000D01*
X129750000Y-82925000D02*
X129750000Y-91075000D01*
X129710000Y-82858000D02*
X129710000Y-91142000D01*
X129670000Y-82792000D02*
X129670000Y-91208000D01*
X129630000Y-82727000D02*
X129630000Y-91273000D01*
X129590000Y-82664000D02*
X129590000Y-91336000D01*
X129550000Y-82602000D02*
X129550000Y-91398000D01*
X129510000Y-82541000D02*
X129510000Y-91459000D01*
X129470000Y-82482000D02*
X129470000Y-91518000D01*
X129430000Y-82424000D02*
X129430000Y-91576000D01*
X129390000Y-82366000D02*
X129390000Y-91634000D01*
X129350000Y-82310000D02*
X129350000Y-91690000D01*
X129310000Y-82255000D02*
X129310000Y-91745000D01*
X129270000Y-82200000D02*
X129270000Y-91800000D01*
X129230000Y-82147000D02*
X129230000Y-91853000D01*
X129190000Y-82094000D02*
X129190000Y-91906000D01*
X129150000Y-82043000D02*
X129150000Y-91957000D01*
X129110000Y-81992000D02*
X129110000Y-92008000D01*
X129070000Y-81942000D02*
X129070000Y-92058000D01*
X129030000Y-81893000D02*
X129030000Y-92107000D01*
X128990000Y-81844000D02*
X128990000Y-92156000D01*
X128950000Y-81796000D02*
X128950000Y-92204000D01*
X128910000Y-81750000D02*
X128910000Y-92250000D01*
X128870000Y-81703000D02*
X128870000Y-92297000D01*
X128830000Y-81658000D02*
X128830000Y-92342000D01*
X128790000Y-81613000D02*
X128790000Y-92387000D01*
X128750000Y-81569000D02*
X128750000Y-92431000D01*
X128710000Y-81525000D02*
X128710000Y-92475000D01*
X128670000Y-81482000D02*
X128670000Y-92518000D01*
X128630000Y-81440000D02*
X128630000Y-92560000D01*
X128590000Y-81398000D02*
X128590000Y-92602000D01*
X128550000Y-81357000D02*
X128550000Y-92643000D01*
X128510000Y-81317000D02*
X128510000Y-92683000D01*
X128470000Y-81277000D02*
X128470000Y-92723000D01*
X128430000Y-81237000D02*
X128430000Y-92763000D01*
X128390000Y-81198000D02*
X128390000Y-92802000D01*
X128350000Y-81160000D02*
X128350000Y-92840000D01*
X128310000Y-81122000D02*
X128310000Y-92878000D01*
X128270000Y-81085000D02*
X128270000Y-92915000D01*
X128230000Y-81048000D02*
X128230000Y-92952000D01*
X128190000Y-81012000D02*
X128190000Y-92988000D01*
X128150000Y-80976000D02*
X128150000Y-93024000D01*
X128110000Y-80940000D02*
X128110000Y-93060000D01*
X128070000Y-80906000D02*
X128070000Y-93094000D01*
X128030000Y-80871000D02*
X128030000Y-93129000D01*
X127990000Y-80837000D02*
X127990000Y-93163000D01*
X127950000Y-80803000D02*
X127950000Y-93197000D01*
X127910000Y-88440000D02*
X127910000Y-93230000D01*
X127910000Y-80770000D02*
X127910000Y-85560000D01*
X127870000Y-88440000D02*
X127870000Y-93262000D01*
X127870000Y-80738000D02*
X127870000Y-85560000D01*
X127830000Y-88440000D02*
X127830000Y-93295000D01*
X127830000Y-80705000D02*
X127830000Y-85560000D01*
X127790000Y-88440000D02*
X127790000Y-93327000D01*
X127790000Y-80673000D02*
X127790000Y-85560000D01*
X127750000Y-88440000D02*
X127750000Y-93358000D01*
X127750000Y-80642000D02*
X127750000Y-85560000D01*
X127710000Y-88440000D02*
X127710000Y-93389000D01*
X127710000Y-80611000D02*
X127710000Y-85560000D01*
X127670000Y-88440000D02*
X127670000Y-93420000D01*
X127670000Y-80580000D02*
X127670000Y-85560000D01*
X127630000Y-88440000D02*
X127630000Y-93450000D01*
X127630000Y-80550000D02*
X127630000Y-85560000D01*
X127590000Y-88440000D02*
X127590000Y-93480000D01*
X127590000Y-80520000D02*
X127590000Y-85560000D01*
X127550000Y-88440000D02*
X127550000Y-93509000D01*
X127550000Y-80491000D02*
X127550000Y-85560000D01*
X127510000Y-88440000D02*
X127510000Y-93539000D01*
X127510000Y-80461000D02*
X127510000Y-85560000D01*
X127470000Y-88440000D02*
X127470000Y-93567000D01*
X127470000Y-80433000D02*
X127470000Y-85560000D01*
X127430000Y-88440000D02*
X127430000Y-93596000D01*
X127430000Y-80404000D02*
X127430000Y-85560000D01*
X127390000Y-88440000D02*
X127390000Y-93624000D01*
X127390000Y-80376000D02*
X127390000Y-85560000D01*
X127350000Y-88440000D02*
X127350000Y-93651000D01*
X127350000Y-80349000D02*
X127350000Y-85560000D01*
X127310000Y-88440000D02*
X127310000Y-93679000D01*
X127310000Y-80321000D02*
X127310000Y-85560000D01*
X127270000Y-88440000D02*
X127270000Y-93706000D01*
X127270000Y-80294000D02*
X127270000Y-85560000D01*
X127230000Y-88440000D02*
X127230000Y-93732000D01*
X127230000Y-80268000D02*
X127230000Y-85560000D01*
X127190000Y-88440000D02*
X127190000Y-93759000D01*
X127190000Y-80241000D02*
X127190000Y-85560000D01*
X127150000Y-88440000D02*
X127150000Y-93785000D01*
X127150000Y-80215000D02*
X127150000Y-85560000D01*
X127110000Y-88440000D02*
X127110000Y-93810000D01*
X127110000Y-80190000D02*
X127110000Y-85560000D01*
X127070000Y-88440000D02*
X127070000Y-93835000D01*
X127070000Y-80165000D02*
X127070000Y-85560000D01*
X127030000Y-88440000D02*
X127030000Y-93860000D01*
X127030000Y-80140000D02*
X127030000Y-85560000D01*
X126990000Y-88440000D02*
X126990000Y-93885000D01*
X126990000Y-80115000D02*
X126990000Y-85560000D01*
X126950000Y-88440000D02*
X126950000Y-93909000D01*
X126950000Y-80091000D02*
X126950000Y-85560000D01*
X126910000Y-88440000D02*
X126910000Y-93933000D01*
X126910000Y-80067000D02*
X126910000Y-85560000D01*
X126870000Y-88440000D02*
X126870000Y-93957000D01*
X126870000Y-80043000D02*
X126870000Y-85560000D01*
X126830000Y-88440000D02*
X126830000Y-93981000D01*
X126830000Y-80019000D02*
X126830000Y-85560000D01*
X126790000Y-88440000D02*
X126790000Y-94004000D01*
X126790000Y-79996000D02*
X126790000Y-85560000D01*
X126750000Y-88440000D02*
X126750000Y-94026000D01*
X126750000Y-79974000D02*
X126750000Y-85560000D01*
X126710000Y-88440000D02*
X126710000Y-94049000D01*
X126710000Y-79951000D02*
X126710000Y-85560000D01*
X126670000Y-88440000D02*
X126670000Y-94071000D01*
X126670000Y-79929000D02*
X126670000Y-85560000D01*
X126630000Y-88440000D02*
X126630000Y-94093000D01*
X126630000Y-79907000D02*
X126630000Y-85560000D01*
X126590000Y-88440000D02*
X126590000Y-94115000D01*
X126590000Y-79885000D02*
X126590000Y-85560000D01*
X126550000Y-88440000D02*
X126550000Y-94136000D01*
X126550000Y-79864000D02*
X126550000Y-85560000D01*
X126510000Y-88440000D02*
X126510000Y-94157000D01*
X126510000Y-79843000D02*
X126510000Y-85560000D01*
X126470000Y-88440000D02*
X126470000Y-94178000D01*
X126470000Y-79822000D02*
X126470000Y-85560000D01*
X126430000Y-88440000D02*
X126430000Y-94198000D01*
X126430000Y-79802000D02*
X126430000Y-85560000D01*
X126390000Y-88440000D02*
X126390000Y-94218000D01*
X126390000Y-79782000D02*
X126390000Y-85560000D01*
X126350000Y-88440000D02*
X126350000Y-94238000D01*
X126350000Y-79762000D02*
X126350000Y-85560000D01*
X126310000Y-88440000D02*
X126310000Y-94258000D01*
X126310000Y-79742000D02*
X126310000Y-85560000D01*
X126270000Y-88440000D02*
X126270000Y-94277000D01*
X126270000Y-79723000D02*
X126270000Y-85560000D01*
X126230000Y-88440000D02*
X126230000Y-94296000D01*
X126230000Y-79704000D02*
X126230000Y-85560000D01*
X126190000Y-88440000D02*
X126190000Y-94315000D01*
X126190000Y-79685000D02*
X126190000Y-85560000D01*
X126150000Y-88440000D02*
X126150000Y-94334000D01*
X126150000Y-79666000D02*
X126150000Y-85560000D01*
X126110000Y-88440000D02*
X126110000Y-94352000D01*
X126110000Y-79648000D02*
X126110000Y-85560000D01*
X126070000Y-88440000D02*
X126070000Y-94370000D01*
X126070000Y-79630000D02*
X126070000Y-85560000D01*
X126030000Y-88440000D02*
X126030000Y-94388000D01*
X126030000Y-79612000D02*
X126030000Y-85560000D01*
X125990000Y-88440000D02*
X125990000Y-94406000D01*
X125990000Y-79594000D02*
X125990000Y-85560000D01*
X125950000Y-88440000D02*
X125950000Y-94423000D01*
X125950000Y-79577000D02*
X125950000Y-85560000D01*
X125910000Y-88440000D02*
X125910000Y-94440000D01*
X125910000Y-79560000D02*
X125910000Y-85560000D01*
X125870000Y-88440000D02*
X125870000Y-94457000D01*
X125870000Y-79543000D02*
X125870000Y-85560000D01*
X125830000Y-88440000D02*
X125830000Y-94473000D01*
X125830000Y-79527000D02*
X125830000Y-85560000D01*
X125790000Y-88440000D02*
X125790000Y-94489000D01*
X125790000Y-79511000D02*
X125790000Y-85560000D01*
X125750000Y-88440000D02*
X125750000Y-94505000D01*
X125750000Y-79495000D02*
X125750000Y-85560000D01*
X125710000Y-88440000D02*
X125710000Y-94521000D01*
X125710000Y-79479000D02*
X125710000Y-85560000D01*
X125670000Y-88440000D02*
X125670000Y-94537000D01*
X125670000Y-79463000D02*
X125670000Y-85560000D01*
X125630000Y-88440000D02*
X125630000Y-94552000D01*
X125630000Y-79448000D02*
X125630000Y-85560000D01*
X125590000Y-88440000D02*
X125590000Y-94567000D01*
X125590000Y-79433000D02*
X125590000Y-85560000D01*
X125550000Y-88440000D02*
X125550000Y-94582000D01*
X125550000Y-79418000D02*
X125550000Y-85560000D01*
X125510000Y-88440000D02*
X125510000Y-94597000D01*
X125510000Y-79403000D02*
X125510000Y-85560000D01*
X125470000Y-88440000D02*
X125470000Y-94611000D01*
X125470000Y-79389000D02*
X125470000Y-85560000D01*
X125430000Y-88440000D02*
X125430000Y-94625000D01*
X125430000Y-79375000D02*
X125430000Y-85560000D01*
X125390000Y-88440000D02*
X125390000Y-94639000D01*
X125390000Y-79361000D02*
X125390000Y-85560000D01*
X125350000Y-88440000D02*
X125350000Y-94652000D01*
X125350000Y-79348000D02*
X125350000Y-85560000D01*
X125310000Y-88440000D02*
X125310000Y-94666000D01*
X125310000Y-79334000D02*
X125310000Y-85560000D01*
X125270000Y-88440000D02*
X125270000Y-94679000D01*
X125270000Y-79321000D02*
X125270000Y-85560000D01*
X125230000Y-88440000D02*
X125230000Y-94692000D01*
X125230000Y-79308000D02*
X125230000Y-85560000D01*
X125190000Y-88440000D02*
X125190000Y-94705000D01*
X125190000Y-79295000D02*
X125190000Y-85560000D01*
X125150000Y-88440000D02*
X125150000Y-94717000D01*
X125150000Y-79283000D02*
X125150000Y-85560000D01*
X125110000Y-88440000D02*
X125110000Y-94729000D01*
X125110000Y-79271000D02*
X125110000Y-85560000D01*
X125070000Y-88440000D02*
X125070000Y-94742000D01*
X125070000Y-79258000D02*
X125070000Y-85560000D01*
X125030000Y-79247000D02*
X125030000Y-94753000D01*
X124990000Y-79235000D02*
X124990000Y-94765000D01*
X124950000Y-79224000D02*
X124950000Y-94776000D01*
X124910000Y-79213000D02*
X124910000Y-94787000D01*
X124870000Y-79202000D02*
X124870000Y-94798000D01*
X124830000Y-79191000D02*
X124830000Y-94809000D01*
X124790000Y-79180000D02*
X124790000Y-94820000D01*
X124750000Y-79170000D02*
X124750000Y-94830000D01*
X124710000Y-79160000D02*
X124710000Y-94840000D01*
X124670000Y-79150000D02*
X124670000Y-94850000D01*
X124630000Y-79141000D02*
X124630000Y-94859000D01*
X124590000Y-79131000D02*
X124590000Y-94869000D01*
X124550000Y-79122000D02*
X124550000Y-94878000D01*
X124510000Y-79113000D02*
X124510000Y-94887000D01*
X124470000Y-79104000D02*
X124470000Y-94896000D01*
X124430000Y-79096000D02*
X124430000Y-94904000D01*
X124390000Y-79087000D02*
X124390000Y-94913000D01*
X124350000Y-79079000D02*
X124350000Y-94921000D01*
X124310000Y-79071000D02*
X124310000Y-94929000D01*
X124270000Y-79064000D02*
X124270000Y-94936000D01*
X124230000Y-79056000D02*
X124230000Y-94944000D01*
X124190000Y-79049000D02*
X124190000Y-94951000D01*
X124150000Y-79042000D02*
X124150000Y-94958000D01*
X124110000Y-79035000D02*
X124110000Y-94965000D01*
X124070000Y-79028000D02*
X124070000Y-94972000D01*
X124030000Y-79022000D02*
X124030000Y-94978000D01*
X123990000Y-79015000D02*
X123990000Y-94985000D01*
X123950000Y-79009000D02*
X123950000Y-94991000D01*
X123910000Y-79003000D02*
X123910000Y-94997000D01*
X123870000Y-78998000D02*
X123870000Y-95002000D01*
X123830000Y-78992000D02*
X123830000Y-95008000D01*
X123790000Y-78987000D02*
X123790000Y-95013000D01*
X123750000Y-78982000D02*
X123750000Y-95018000D01*
X123710000Y-78977000D02*
X123710000Y-95023000D01*
X123670000Y-78972000D02*
X123670000Y-95028000D01*
X123630000Y-78968000D02*
X123630000Y-95032000D01*
X123590000Y-78964000D02*
X123590000Y-95036000D01*
X123550000Y-78960000D02*
X123550000Y-95040000D01*
X123510000Y-78956000D02*
X123510000Y-95044000D01*
X123470000Y-78952000D02*
X123470000Y-95048000D01*
X123430000Y-78949000D02*
X123430000Y-95051000D01*
X123390000Y-78945000D02*
X123390000Y-95055000D01*
X123350000Y-78942000D02*
X123350000Y-95058000D01*
X123310000Y-78939000D02*
X123310000Y-95061000D01*
X123270000Y-78937000D02*
X123270000Y-95063000D01*
X123230000Y-78934000D02*
X123230000Y-95066000D01*
X123190000Y-78932000D02*
X123190000Y-95068000D01*
X123150000Y-78930000D02*
X123150000Y-95070000D01*
X123110000Y-78928000D02*
X123110000Y-95072000D01*
X123070000Y-78926000D02*
X123070000Y-95074000D01*
X123030000Y-78925000D02*
X123030000Y-95075000D01*
X122990000Y-78924000D02*
X122990000Y-95076000D01*
X122950000Y-78922000D02*
X122950000Y-95078000D01*
X122910000Y-78922000D02*
X122910000Y-95078000D01*
X122870000Y-78921000D02*
X122870000Y-95079000D01*
X122830000Y-78920000D02*
X122830000Y-95080000D01*
X122790000Y-78920000D02*
X122790000Y-95080000D01*
X122750000Y-78920000D02*
X122750000Y-95080000D01*
X114860509Y-81645000D02*
X114860509Y-83245000D01*
X114060509Y-82445000D02*
X115660509Y-82445000D01*
%TD*%
M02*
