M48
; DRILL file KiCad 10.0.1 date 2026-05-12T01:25:30
; FORMAT={-:-/ absolute / metric / decimal}
; #@! TF.CreationDate,2026-05-12T01:25:30+09:00
; #@! TF.GenerationSoftware,Kicad,Pcbnew,10.0.1
; #@! TF.FileFunction,Plated,1,2,PTH
FMAT,2
METRIC
; #@! TA.AperFunction,Plated,PTH,ViaDrill
T1C0.300
; #@! TA.AperFunction,Plated,PTH,ComponentDrill
T2C0.800
; #@! TA.AperFunction,Plated,PTH,ComponentDrill
T3C1.200
; #@! TA.AperFunction,Plated,PTH,ComponentDrill
T4C1.300
%
G90
G05
T1
X134.93Y-93.523
T2
X127.13Y-90.473
X127.13Y-95.523
X128.53Y-100.073
X128.73Y-85.873
X130.53Y-100.073
X130.73Y-85.873
X132.13Y-90.473
X132.13Y-95.523
X138.07Y-80.413
X138.07Y-82.953
X138.07Y-85.493
X138.07Y-88.033
X145.69Y-80.413
X145.69Y-82.953
X145.69Y-85.493
X145.69Y-88.033
T3
X124.28Y-71.623
X124.28Y-79.123
X156.93Y-83.173
X156.93Y-90.673
T4
X119.207Y-87.978
X119.207Y-93.058
X137.035Y-70.873
X139.43Y-98.373
X142.115Y-70.873
X144.51Y-98.373
X147.195Y-70.873
M30
