%TF.GenerationSoftware,KiCad,Pcbnew,10.0.1*%
%TF.CreationDate,2026-05-12T01:25:28+09:00*%
%TF.ProjectId,AudioCase,41756469-6f43-4617-9365-2e6b69636164,rev?*%
%TF.SameCoordinates,Original*%
%TF.FileFunction,Legend,Top*%
%TF.FilePolarity,Positive*%
%FSLAX46Y46*%
G04 Gerber Fmt 4.6, Leading zero omitted, Abs format (unit mm)*
G04 Created by KiCad (PCBNEW 10.0.1) date 2026-05-12 01:25:28*
%MOMM*%
%LPD*%
G01*
G04 APERTURE LIST*
%ADD10C,0.300000*%
%ADD11C,0.150000*%
%ADD12C,0.120000*%
G04 APERTURE END LIST*
D10*
X124713082Y-64645514D02*
X125427368Y-64645514D01*
X124570225Y-65074085D02*
X125070225Y-63574085D01*
X125070225Y-63574085D02*
X125570225Y-65074085D01*
X126070224Y-65074085D02*
X126070224Y-63574085D01*
X126070224Y-63574085D02*
X126570224Y-64645514D01*
X126570224Y-64645514D02*
X127070224Y-63574085D01*
X127070224Y-63574085D02*
X127070224Y-65074085D01*
X127784510Y-65074085D02*
X127784510Y-63574085D01*
X127784510Y-63574085D02*
X128355939Y-63574085D01*
X128355939Y-63574085D02*
X128498796Y-63645514D01*
X128498796Y-63645514D02*
X128570225Y-63716942D01*
X128570225Y-63716942D02*
X128641653Y-63859799D01*
X128641653Y-63859799D02*
X128641653Y-64074085D01*
X128641653Y-64074085D02*
X128570225Y-64216942D01*
X128570225Y-64216942D02*
X128498796Y-64288371D01*
X128498796Y-64288371D02*
X128355939Y-64359799D01*
X128355939Y-64359799D02*
X127784510Y-64359799D01*
X130770225Y-66574085D02*
X131270225Y-68074085D01*
X131270225Y-68074085D02*
X131770225Y-66574085D01*
X132270224Y-67502657D02*
X133413082Y-67502657D01*
X135748796Y-100724085D02*
X135034510Y-100724085D01*
X135034510Y-100724085D02*
X135034510Y-99224085D01*
X149741653Y-100824085D02*
X149241653Y-100109799D01*
X148884510Y-100824085D02*
X148884510Y-99324085D01*
X148884510Y-99324085D02*
X149455939Y-99324085D01*
X149455939Y-99324085D02*
X149598796Y-99395514D01*
X149598796Y-99395514D02*
X149670225Y-99466942D01*
X149670225Y-99466942D02*
X149741653Y-99609799D01*
X149741653Y-99609799D02*
X149741653Y-99824085D01*
X149741653Y-99824085D02*
X149670225Y-99966942D01*
X149670225Y-99966942D02*
X149598796Y-100038371D01*
X149598796Y-100038371D02*
X149455939Y-100109799D01*
X149455939Y-100109799D02*
X148884510Y-100109799D01*
X150870225Y-66574085D02*
X151370225Y-68074085D01*
X151370225Y-68074085D02*
X151870225Y-66574085D01*
X152370224Y-67502657D02*
X153513082Y-67502657D01*
X152941653Y-68074085D02*
X152941653Y-66931228D01*
X121729171Y-84784910D02*
X122443457Y-84284910D01*
X121729171Y-83927767D02*
X123229171Y-83927767D01*
X123229171Y-83927767D02*
X123229171Y-84499196D01*
X123229171Y-84499196D02*
X123157742Y-84642053D01*
X123157742Y-84642053D02*
X123086314Y-84713482D01*
X123086314Y-84713482D02*
X122943457Y-84784910D01*
X122943457Y-84784910D02*
X122729171Y-84784910D01*
X122729171Y-84784910D02*
X122586314Y-84713482D01*
X122586314Y-84713482D02*
X122514885Y-84642053D01*
X122514885Y-84642053D02*
X122443457Y-84499196D01*
X122443457Y-84499196D02*
X122443457Y-83927767D01*
X123229171Y-97942053D02*
X123229171Y-97227767D01*
X123229171Y-97227767D02*
X124729171Y-97227767D01*
D11*
X152987142Y-83645591D02*
X152939523Y-83693211D01*
X152939523Y-83693211D02*
X152796666Y-83740830D01*
X152796666Y-83740830D02*
X152701428Y-83740830D01*
X152701428Y-83740830D02*
X152558571Y-83693211D01*
X152558571Y-83693211D02*
X152463333Y-83597972D01*
X152463333Y-83597972D02*
X152415714Y-83502734D01*
X152415714Y-83502734D02*
X152368095Y-83312258D01*
X152368095Y-83312258D02*
X152368095Y-83169401D01*
X152368095Y-83169401D02*
X152415714Y-82978925D01*
X152415714Y-82978925D02*
X152463333Y-82883687D01*
X152463333Y-82883687D02*
X152558571Y-82788449D01*
X152558571Y-82788449D02*
X152701428Y-82740830D01*
X152701428Y-82740830D02*
X152796666Y-82740830D01*
X152796666Y-82740830D02*
X152939523Y-82788449D01*
X152939523Y-82788449D02*
X152987142Y-82836068D01*
X153368095Y-82836068D02*
X153415714Y-82788449D01*
X153415714Y-82788449D02*
X153510952Y-82740830D01*
X153510952Y-82740830D02*
X153749047Y-82740830D01*
X153749047Y-82740830D02*
X153844285Y-82788449D01*
X153844285Y-82788449D02*
X153891904Y-82836068D01*
X153891904Y-82836068D02*
X153939523Y-82931306D01*
X153939523Y-82931306D02*
X153939523Y-83026544D01*
X153939523Y-83026544D02*
X153891904Y-83169401D01*
X153891904Y-83169401D02*
X153320476Y-83740830D01*
X153320476Y-83740830D02*
X153939523Y-83740830D01*
X154415714Y-83740830D02*
X154606190Y-83740830D01*
X154606190Y-83740830D02*
X154701428Y-83693211D01*
X154701428Y-83693211D02*
X154749047Y-83645591D01*
X154749047Y-83645591D02*
X154844285Y-83502734D01*
X154844285Y-83502734D02*
X154891904Y-83312258D01*
X154891904Y-83312258D02*
X154891904Y-82931306D01*
X154891904Y-82931306D02*
X154844285Y-82836068D01*
X154844285Y-82836068D02*
X154796666Y-82788449D01*
X154796666Y-82788449D02*
X154701428Y-82740830D01*
X154701428Y-82740830D02*
X154510952Y-82740830D01*
X154510952Y-82740830D02*
X154415714Y-82788449D01*
X154415714Y-82788449D02*
X154368095Y-82836068D01*
X154368095Y-82836068D02*
X154320476Y-82931306D01*
X154320476Y-82931306D02*
X154320476Y-83169401D01*
X154320476Y-83169401D02*
X154368095Y-83264639D01*
X154368095Y-83264639D02*
X154415714Y-83312258D01*
X154415714Y-83312258D02*
X154510952Y-83359877D01*
X154510952Y-83359877D02*
X154701428Y-83359877D01*
X154701428Y-83359877D02*
X154796666Y-83312258D01*
X154796666Y-83312258D02*
X154844285Y-83264639D01*
X154844285Y-83264639D02*
X154891904Y-83169401D01*
X128987142Y-90832837D02*
X128939523Y-90880457D01*
X128939523Y-90880457D02*
X128796666Y-90928076D01*
X128796666Y-90928076D02*
X128701428Y-90928076D01*
X128701428Y-90928076D02*
X128558571Y-90880457D01*
X128558571Y-90880457D02*
X128463333Y-90785218D01*
X128463333Y-90785218D02*
X128415714Y-90689980D01*
X128415714Y-90689980D02*
X128368095Y-90499504D01*
X128368095Y-90499504D02*
X128368095Y-90356647D01*
X128368095Y-90356647D02*
X128415714Y-90166171D01*
X128415714Y-90166171D02*
X128463333Y-90070933D01*
X128463333Y-90070933D02*
X128558571Y-89975695D01*
X128558571Y-89975695D02*
X128701428Y-89928076D01*
X128701428Y-89928076D02*
X128796666Y-89928076D01*
X128796666Y-89928076D02*
X128939523Y-89975695D01*
X128939523Y-89975695D02*
X128987142Y-90023314D01*
X129368095Y-90023314D02*
X129415714Y-89975695D01*
X129415714Y-89975695D02*
X129510952Y-89928076D01*
X129510952Y-89928076D02*
X129749047Y-89928076D01*
X129749047Y-89928076D02*
X129844285Y-89975695D01*
X129844285Y-89975695D02*
X129891904Y-90023314D01*
X129891904Y-90023314D02*
X129939523Y-90118552D01*
X129939523Y-90118552D02*
X129939523Y-90213790D01*
X129939523Y-90213790D02*
X129891904Y-90356647D01*
X129891904Y-90356647D02*
X129320476Y-90928076D01*
X129320476Y-90928076D02*
X129939523Y-90928076D01*
X130796666Y-90261409D02*
X130796666Y-90928076D01*
X130558571Y-89880457D02*
X130320476Y-90594742D01*
X130320476Y-90594742D02*
X130939523Y-90594742D01*
X124987142Y-84732837D02*
X124939523Y-84780457D01*
X124939523Y-84780457D02*
X124796666Y-84828076D01*
X124796666Y-84828076D02*
X124701428Y-84828076D01*
X124701428Y-84828076D02*
X124558571Y-84780457D01*
X124558571Y-84780457D02*
X124463333Y-84685218D01*
X124463333Y-84685218D02*
X124415714Y-84589980D01*
X124415714Y-84589980D02*
X124368095Y-84399504D01*
X124368095Y-84399504D02*
X124368095Y-84256647D01*
X124368095Y-84256647D02*
X124415714Y-84066171D01*
X124415714Y-84066171D02*
X124463333Y-83970933D01*
X124463333Y-83970933D02*
X124558571Y-83875695D01*
X124558571Y-83875695D02*
X124701428Y-83828076D01*
X124701428Y-83828076D02*
X124796666Y-83828076D01*
X124796666Y-83828076D02*
X124939523Y-83875695D01*
X124939523Y-83875695D02*
X124987142Y-83923314D01*
X125368095Y-83923314D02*
X125415714Y-83875695D01*
X125415714Y-83875695D02*
X125510952Y-83828076D01*
X125510952Y-83828076D02*
X125749047Y-83828076D01*
X125749047Y-83828076D02*
X125844285Y-83875695D01*
X125844285Y-83875695D02*
X125891904Y-83923314D01*
X125891904Y-83923314D02*
X125939523Y-84018552D01*
X125939523Y-84018552D02*
X125939523Y-84113790D01*
X125939523Y-84113790D02*
X125891904Y-84256647D01*
X125891904Y-84256647D02*
X125320476Y-84828076D01*
X125320476Y-84828076D02*
X125939523Y-84828076D01*
X126844285Y-83828076D02*
X126368095Y-83828076D01*
X126368095Y-83828076D02*
X126320476Y-84304266D01*
X126320476Y-84304266D02*
X126368095Y-84256647D01*
X126368095Y-84256647D02*
X126463333Y-84209028D01*
X126463333Y-84209028D02*
X126701428Y-84209028D01*
X126701428Y-84209028D02*
X126796666Y-84256647D01*
X126796666Y-84256647D02*
X126844285Y-84304266D01*
X126844285Y-84304266D02*
X126891904Y-84399504D01*
X126891904Y-84399504D02*
X126891904Y-84637599D01*
X126891904Y-84637599D02*
X126844285Y-84732837D01*
X126844285Y-84732837D02*
X126796666Y-84780457D01*
X126796666Y-84780457D02*
X126701428Y-84828076D01*
X126701428Y-84828076D02*
X126463333Y-84828076D01*
X126463333Y-84828076D02*
X126368095Y-84780457D01*
X126368095Y-84780457D02*
X126320476Y-84732837D01*
X142696666Y-74528076D02*
X142696666Y-75242361D01*
X142696666Y-75242361D02*
X142649047Y-75385218D01*
X142649047Y-75385218D02*
X142553809Y-75480457D01*
X142553809Y-75480457D02*
X142410952Y-75528076D01*
X142410952Y-75528076D02*
X142315714Y-75528076D01*
X143220476Y-75528076D02*
X143410952Y-75528076D01*
X143410952Y-75528076D02*
X143506190Y-75480457D01*
X143506190Y-75480457D02*
X143553809Y-75432837D01*
X143553809Y-75432837D02*
X143649047Y-75289980D01*
X143649047Y-75289980D02*
X143696666Y-75099504D01*
X143696666Y-75099504D02*
X143696666Y-74718552D01*
X143696666Y-74718552D02*
X143649047Y-74623314D01*
X143649047Y-74623314D02*
X143601428Y-74575695D01*
X143601428Y-74575695D02*
X143506190Y-74528076D01*
X143506190Y-74528076D02*
X143315714Y-74528076D01*
X143315714Y-74528076D02*
X143220476Y-74575695D01*
X143220476Y-74575695D02*
X143172857Y-74623314D01*
X143172857Y-74623314D02*
X143125238Y-74718552D01*
X143125238Y-74718552D02*
X143125238Y-74956647D01*
X143125238Y-74956647D02*
X143172857Y-75051885D01*
X143172857Y-75051885D02*
X143220476Y-75099504D01*
X143220476Y-75099504D02*
X143315714Y-75147123D01*
X143315714Y-75147123D02*
X143506190Y-75147123D01*
X143506190Y-75147123D02*
X143601428Y-75099504D01*
X143601428Y-75099504D02*
X143649047Y-75051885D01*
X143649047Y-75051885D02*
X143696666Y-74956647D01*
X124687142Y-100432837D02*
X124639523Y-100480457D01*
X124639523Y-100480457D02*
X124496666Y-100528076D01*
X124496666Y-100528076D02*
X124401428Y-100528076D01*
X124401428Y-100528076D02*
X124258571Y-100480457D01*
X124258571Y-100480457D02*
X124163333Y-100385218D01*
X124163333Y-100385218D02*
X124115714Y-100289980D01*
X124115714Y-100289980D02*
X124068095Y-100099504D01*
X124068095Y-100099504D02*
X124068095Y-99956647D01*
X124068095Y-99956647D02*
X124115714Y-99766171D01*
X124115714Y-99766171D02*
X124163333Y-99670933D01*
X124163333Y-99670933D02*
X124258571Y-99575695D01*
X124258571Y-99575695D02*
X124401428Y-99528076D01*
X124401428Y-99528076D02*
X124496666Y-99528076D01*
X124496666Y-99528076D02*
X124639523Y-99575695D01*
X124639523Y-99575695D02*
X124687142Y-99623314D01*
X125068095Y-99623314D02*
X125115714Y-99575695D01*
X125115714Y-99575695D02*
X125210952Y-99528076D01*
X125210952Y-99528076D02*
X125449047Y-99528076D01*
X125449047Y-99528076D02*
X125544285Y-99575695D01*
X125544285Y-99575695D02*
X125591904Y-99623314D01*
X125591904Y-99623314D02*
X125639523Y-99718552D01*
X125639523Y-99718552D02*
X125639523Y-99813790D01*
X125639523Y-99813790D02*
X125591904Y-99956647D01*
X125591904Y-99956647D02*
X125020476Y-100528076D01*
X125020476Y-100528076D02*
X125639523Y-100528076D01*
X125972857Y-99528076D02*
X126639523Y-99528076D01*
X126639523Y-99528076D02*
X126210952Y-100528076D01*
X126737142Y-72182837D02*
X126689523Y-72230457D01*
X126689523Y-72230457D02*
X126546666Y-72278076D01*
X126546666Y-72278076D02*
X126451428Y-72278076D01*
X126451428Y-72278076D02*
X126308571Y-72230457D01*
X126308571Y-72230457D02*
X126213333Y-72135218D01*
X126213333Y-72135218D02*
X126165714Y-72039980D01*
X126165714Y-72039980D02*
X126118095Y-71849504D01*
X126118095Y-71849504D02*
X126118095Y-71706647D01*
X126118095Y-71706647D02*
X126165714Y-71516171D01*
X126165714Y-71516171D02*
X126213333Y-71420933D01*
X126213333Y-71420933D02*
X126308571Y-71325695D01*
X126308571Y-71325695D02*
X126451428Y-71278076D01*
X126451428Y-71278076D02*
X126546666Y-71278076D01*
X126546666Y-71278076D02*
X126689523Y-71325695D01*
X126689523Y-71325695D02*
X126737142Y-71373314D01*
X127118095Y-71373314D02*
X127165714Y-71325695D01*
X127165714Y-71325695D02*
X127260952Y-71278076D01*
X127260952Y-71278076D02*
X127499047Y-71278076D01*
X127499047Y-71278076D02*
X127594285Y-71325695D01*
X127594285Y-71325695D02*
X127641904Y-71373314D01*
X127641904Y-71373314D02*
X127689523Y-71468552D01*
X127689523Y-71468552D02*
X127689523Y-71563790D01*
X127689523Y-71563790D02*
X127641904Y-71706647D01*
X127641904Y-71706647D02*
X127070476Y-72278076D01*
X127070476Y-72278076D02*
X127689523Y-72278076D01*
X128260952Y-71706647D02*
X128165714Y-71659028D01*
X128165714Y-71659028D02*
X128118095Y-71611409D01*
X128118095Y-71611409D02*
X128070476Y-71516171D01*
X128070476Y-71516171D02*
X128070476Y-71468552D01*
X128070476Y-71468552D02*
X128118095Y-71373314D01*
X128118095Y-71373314D02*
X128165714Y-71325695D01*
X128165714Y-71325695D02*
X128260952Y-71278076D01*
X128260952Y-71278076D02*
X128451428Y-71278076D01*
X128451428Y-71278076D02*
X128546666Y-71325695D01*
X128546666Y-71325695D02*
X128594285Y-71373314D01*
X128594285Y-71373314D02*
X128641904Y-71468552D01*
X128641904Y-71468552D02*
X128641904Y-71516171D01*
X128641904Y-71516171D02*
X128594285Y-71611409D01*
X128594285Y-71611409D02*
X128546666Y-71659028D01*
X128546666Y-71659028D02*
X128451428Y-71706647D01*
X128451428Y-71706647D02*
X128260952Y-71706647D01*
X128260952Y-71706647D02*
X128165714Y-71754266D01*
X128165714Y-71754266D02*
X128118095Y-71801885D01*
X128118095Y-71801885D02*
X128070476Y-71897123D01*
X128070476Y-71897123D02*
X128070476Y-72087599D01*
X128070476Y-72087599D02*
X128118095Y-72182837D01*
X128118095Y-72182837D02*
X128165714Y-72230457D01*
X128165714Y-72230457D02*
X128260952Y-72278076D01*
X128260952Y-72278076D02*
X128451428Y-72278076D01*
X128451428Y-72278076D02*
X128546666Y-72230457D01*
X128546666Y-72230457D02*
X128594285Y-72182837D01*
X128594285Y-72182837D02*
X128641904Y-72087599D01*
X128641904Y-72087599D02*
X128641904Y-71897123D01*
X128641904Y-71897123D02*
X128594285Y-71801885D01*
X128594285Y-71801885D02*
X128546666Y-71754266D01*
X128546666Y-71754266D02*
X128451428Y-71706647D01*
X122312319Y-91487780D02*
X123026604Y-91487780D01*
X123026604Y-91487780D02*
X123169461Y-91535399D01*
X123169461Y-91535399D02*
X123264700Y-91630637D01*
X123264700Y-91630637D02*
X123312319Y-91773494D01*
X123312319Y-91773494D02*
X123312319Y-91868732D01*
X123312319Y-90487780D02*
X123312319Y-91059208D01*
X123312319Y-90773494D02*
X122312319Y-90773494D01*
X122312319Y-90773494D02*
X122455176Y-90868732D01*
X122455176Y-90868732D02*
X122550414Y-90963970D01*
X122550414Y-90963970D02*
X122598033Y-91059208D01*
X122312319Y-89868732D02*
X122312319Y-89773494D01*
X122312319Y-89773494D02*
X122359938Y-89678256D01*
X122359938Y-89678256D02*
X122407557Y-89630637D01*
X122407557Y-89630637D02*
X122502795Y-89583018D01*
X122502795Y-89583018D02*
X122693271Y-89535399D01*
X122693271Y-89535399D02*
X122931366Y-89535399D01*
X122931366Y-89535399D02*
X123121842Y-89583018D01*
X123121842Y-89583018D02*
X123217080Y-89630637D01*
X123217080Y-89630637D02*
X123264700Y-89678256D01*
X123264700Y-89678256D02*
X123312319Y-89773494D01*
X123312319Y-89773494D02*
X123312319Y-89868732D01*
X123312319Y-89868732D02*
X123264700Y-89963970D01*
X123264700Y-89963970D02*
X123217080Y-90011589D01*
X123217080Y-90011589D02*
X123121842Y-90059208D01*
X123121842Y-90059208D02*
X122931366Y-90106827D01*
X122931366Y-90106827D02*
X122693271Y-90106827D01*
X122693271Y-90106827D02*
X122502795Y-90059208D01*
X122502795Y-90059208D02*
X122407557Y-90011589D01*
X122407557Y-90011589D02*
X122359938Y-89963970D01*
X122359938Y-89963970D02*
X122312319Y-89868732D01*
X137850476Y-94108076D02*
X137850476Y-94822361D01*
X137850476Y-94822361D02*
X137802857Y-94965218D01*
X137802857Y-94965218D02*
X137707619Y-95060457D01*
X137707619Y-95060457D02*
X137564762Y-95108076D01*
X137564762Y-95108076D02*
X137469524Y-95108076D01*
X138850476Y-95108076D02*
X138279048Y-95108076D01*
X138564762Y-95108076D02*
X138564762Y-94108076D01*
X138564762Y-94108076D02*
X138469524Y-94250933D01*
X138469524Y-94250933D02*
X138374286Y-94346171D01*
X138374286Y-94346171D02*
X138279048Y-94393790D01*
X139802857Y-95108076D02*
X139231429Y-95108076D01*
X139517143Y-95108076D02*
X139517143Y-94108076D01*
X139517143Y-94108076D02*
X139421905Y-94250933D01*
X139421905Y-94250933D02*
X139326667Y-94346171D01*
X139326667Y-94346171D02*
X139231429Y-94393790D01*
X140294286Y-87042361D02*
X140770476Y-87042361D01*
X140199048Y-87328076D02*
X140532381Y-86328076D01*
X140532381Y-86328076D02*
X140865714Y-87328076D01*
X141199048Y-87328076D02*
X141199048Y-86328076D01*
X141199048Y-86328076D02*
X141532381Y-87042361D01*
X141532381Y-87042361D02*
X141865714Y-86328076D01*
X141865714Y-86328076D02*
X141865714Y-87328076D01*
X142341905Y-87328076D02*
X142341905Y-86328076D01*
X142341905Y-86328076D02*
X142722857Y-86328076D01*
X142722857Y-86328076D02*
X142818095Y-86375695D01*
X142818095Y-86375695D02*
X142865714Y-86423314D01*
X142865714Y-86423314D02*
X142913333Y-86518552D01*
X142913333Y-86518552D02*
X142913333Y-86661409D01*
X142913333Y-86661409D02*
X142865714Y-86756647D01*
X142865714Y-86756647D02*
X142818095Y-86804266D01*
X142818095Y-86804266D02*
X142722857Y-86851885D01*
X142722857Y-86851885D02*
X142341905Y-86851885D01*
X143865714Y-87328076D02*
X143294286Y-87328076D01*
X143580000Y-87328076D02*
X143580000Y-86328076D01*
X143580000Y-86328076D02*
X143484762Y-86470933D01*
X143484762Y-86470933D02*
X143389524Y-86566171D01*
X143389524Y-86566171D02*
X143294286Y-86613790D01*
X128987142Y-95882837D02*
X128939523Y-95930457D01*
X128939523Y-95930457D02*
X128796666Y-95978076D01*
X128796666Y-95978076D02*
X128701428Y-95978076D01*
X128701428Y-95978076D02*
X128558571Y-95930457D01*
X128558571Y-95930457D02*
X128463333Y-95835218D01*
X128463333Y-95835218D02*
X128415714Y-95739980D01*
X128415714Y-95739980D02*
X128368095Y-95549504D01*
X128368095Y-95549504D02*
X128368095Y-95406647D01*
X128368095Y-95406647D02*
X128415714Y-95216171D01*
X128415714Y-95216171D02*
X128463333Y-95120933D01*
X128463333Y-95120933D02*
X128558571Y-95025695D01*
X128558571Y-95025695D02*
X128701428Y-94978076D01*
X128701428Y-94978076D02*
X128796666Y-94978076D01*
X128796666Y-94978076D02*
X128939523Y-95025695D01*
X128939523Y-95025695D02*
X128987142Y-95073314D01*
X129368095Y-95073314D02*
X129415714Y-95025695D01*
X129415714Y-95025695D02*
X129510952Y-94978076D01*
X129510952Y-94978076D02*
X129749047Y-94978076D01*
X129749047Y-94978076D02*
X129844285Y-95025695D01*
X129844285Y-95025695D02*
X129891904Y-95073314D01*
X129891904Y-95073314D02*
X129939523Y-95168552D01*
X129939523Y-95168552D02*
X129939523Y-95263790D01*
X129939523Y-95263790D02*
X129891904Y-95406647D01*
X129891904Y-95406647D02*
X129320476Y-95978076D01*
X129320476Y-95978076D02*
X129939523Y-95978076D01*
X130796666Y-94978076D02*
X130606190Y-94978076D01*
X130606190Y-94978076D02*
X130510952Y-95025695D01*
X130510952Y-95025695D02*
X130463333Y-95073314D01*
X130463333Y-95073314D02*
X130368095Y-95216171D01*
X130368095Y-95216171D02*
X130320476Y-95406647D01*
X130320476Y-95406647D02*
X130320476Y-95787599D01*
X130320476Y-95787599D02*
X130368095Y-95882837D01*
X130368095Y-95882837D02*
X130415714Y-95930457D01*
X130415714Y-95930457D02*
X130510952Y-95978076D01*
X130510952Y-95978076D02*
X130701428Y-95978076D01*
X130701428Y-95978076D02*
X130796666Y-95930457D01*
X130796666Y-95930457D02*
X130844285Y-95882837D01*
X130844285Y-95882837D02*
X130891904Y-95787599D01*
X130891904Y-95787599D02*
X130891904Y-95549504D01*
X130891904Y-95549504D02*
X130844285Y-95454266D01*
X130844285Y-95454266D02*
X130796666Y-95406647D01*
X130796666Y-95406647D02*
X130701428Y-95359028D01*
X130701428Y-95359028D02*
X130510952Y-95359028D01*
X130510952Y-95359028D02*
X130415714Y-95406647D01*
X130415714Y-95406647D02*
X130368095Y-95454266D01*
X130368095Y-95454266D02*
X130320476Y-95549504D01*
%TO.C,C29*%
D12*
X155490000Y-89243257D02*
X149188000Y-89243257D01*
X155490000Y-89283257D02*
X149201000Y-89283257D01*
X155490000Y-89323257D02*
X149213000Y-89323257D01*
X155490000Y-89363257D02*
X149225000Y-89363257D01*
X155490000Y-89403257D02*
X149238000Y-89403257D01*
X155490000Y-89443257D02*
X149251000Y-89443257D01*
X155490000Y-89483257D02*
X149264000Y-89483257D01*
X155490000Y-89523257D02*
X149278000Y-89523257D01*
X155490000Y-89563257D02*
X149291000Y-89563257D01*
X155490000Y-89603257D02*
X149305000Y-89603257D01*
X155490000Y-89643257D02*
X149319000Y-89643257D01*
X155490000Y-89683257D02*
X149333000Y-89683257D01*
X155490000Y-89723257D02*
X149348000Y-89723257D01*
X155490000Y-89763257D02*
X149363000Y-89763257D01*
X155490000Y-89803257D02*
X149378000Y-89803257D01*
X155490000Y-89843257D02*
X149393000Y-89843257D01*
X155490000Y-89883257D02*
X149409000Y-89883257D01*
X155490000Y-89923257D02*
X149425000Y-89923257D01*
X155490000Y-89963257D02*
X149441000Y-89963257D01*
X155490000Y-90003257D02*
X149457000Y-90003257D01*
X155490000Y-90043257D02*
X149473000Y-90043257D01*
X155490000Y-90083257D02*
X149490000Y-90083257D01*
X155490000Y-90123257D02*
X149507000Y-90123257D01*
X155490000Y-90163257D02*
X149524000Y-90163257D01*
X155490000Y-90203257D02*
X149542000Y-90203257D01*
X155490000Y-90243257D02*
X149560000Y-90243257D01*
X155490000Y-90283257D02*
X149578000Y-90283257D01*
X155490000Y-90323257D02*
X149596000Y-90323257D01*
X155490000Y-90363257D02*
X149615000Y-90363257D01*
X155490000Y-90403257D02*
X149634000Y-90403257D01*
X155490000Y-90443257D02*
X149653000Y-90443257D01*
X155490000Y-90483257D02*
X149672000Y-90483257D01*
X155490000Y-90523257D02*
X149692000Y-90523257D01*
X155490000Y-90563257D02*
X149712000Y-90563257D01*
X155490000Y-90603257D02*
X149732000Y-90603257D01*
X155490000Y-90643257D02*
X149752000Y-90643257D01*
X155490000Y-90683257D02*
X149773000Y-90683257D01*
X155490000Y-90723257D02*
X149794000Y-90723257D01*
X155490000Y-90763257D02*
X149815000Y-90763257D01*
X155490000Y-90803257D02*
X149837000Y-90803257D01*
X155490000Y-90843257D02*
X149859000Y-90843257D01*
X155490000Y-90883257D02*
X149881000Y-90883257D01*
X155490000Y-90923257D02*
X149904000Y-90923257D01*
X155490000Y-90963257D02*
X149926000Y-90963257D01*
X155490000Y-91003257D02*
X149949000Y-91003257D01*
X155490000Y-91043257D02*
X149973000Y-91043257D01*
X155490000Y-91083257D02*
X149997000Y-91083257D01*
X155490000Y-91123257D02*
X150021000Y-91123257D01*
X155490000Y-91163257D02*
X150045000Y-91163257D01*
X155490000Y-91203257D02*
X150070000Y-91203257D01*
X155490000Y-91243257D02*
X150095000Y-91243257D01*
X155490000Y-91283257D02*
X150120000Y-91283257D01*
X155490000Y-91323257D02*
X150145000Y-91323257D01*
X155490000Y-91363257D02*
X150171000Y-91363257D01*
X155490000Y-91403257D02*
X150198000Y-91403257D01*
X155490000Y-91443257D02*
X150224000Y-91443257D01*
X155490000Y-91483257D02*
X150251000Y-91483257D01*
X155490000Y-91523257D02*
X150279000Y-91523257D01*
X155490000Y-91563257D02*
X150306000Y-91563257D01*
X155490000Y-91603257D02*
X150334000Y-91603257D01*
X155490000Y-91643257D02*
X150363000Y-91643257D01*
X155490000Y-91683257D02*
X150391000Y-91683257D01*
X155490000Y-91723257D02*
X150421000Y-91723257D01*
X155490000Y-91763257D02*
X150450000Y-91763257D01*
X155490000Y-91803257D02*
X150480000Y-91803257D01*
X155490000Y-91843257D02*
X150510000Y-91843257D01*
X155490000Y-91883257D02*
X150541000Y-91883257D01*
X155490000Y-91923257D02*
X150572000Y-91923257D01*
X155490000Y-91963257D02*
X150603000Y-91963257D01*
X155490000Y-92003257D02*
X150635000Y-92003257D01*
X155490000Y-92043257D02*
X150668000Y-92043257D01*
X155490000Y-92083257D02*
X150700000Y-92083257D01*
X157695000Y-95003257D02*
X156165000Y-95003257D01*
X158027000Y-94963257D02*
X155833000Y-94963257D01*
X158281000Y-94923257D02*
X155579000Y-94923257D01*
X158494000Y-94883257D02*
X155366000Y-94883257D01*
X158681000Y-94843257D02*
X155179000Y-94843257D01*
X158850000Y-94803257D02*
X155010000Y-94803257D01*
X159004000Y-94763257D02*
X154856000Y-94763257D01*
X159147000Y-94723257D02*
X154713000Y-94723257D01*
X159281000Y-94683257D02*
X154579000Y-94683257D01*
X159407000Y-94643257D02*
X154453000Y-94643257D01*
X159527000Y-94603257D02*
X154333000Y-94603257D01*
X159640000Y-94563257D02*
X154220000Y-94563257D01*
X159749000Y-94523257D02*
X154111000Y-94523257D01*
X159853000Y-94483257D02*
X154007000Y-94483257D01*
X159953000Y-94443257D02*
X153907000Y-94443257D01*
X160050000Y-94403257D02*
X153810000Y-94403257D01*
X160143000Y-94363257D02*
X153717000Y-94363257D01*
X160233000Y-94323257D02*
X153627000Y-94323257D01*
X160320000Y-94283257D02*
X153540000Y-94283257D01*
X160405000Y-94243257D02*
X153455000Y-94243257D01*
X160487000Y-94203257D02*
X153373000Y-94203257D01*
X160567000Y-94163257D02*
X153293000Y-94163257D01*
X160644000Y-94123257D02*
X153216000Y-94123257D01*
X160720000Y-94083257D02*
X153140000Y-94083257D01*
X160794000Y-94043257D02*
X153066000Y-94043257D01*
X160866000Y-94003257D02*
X152994000Y-94003257D01*
X160936000Y-93963257D02*
X152924000Y-93963257D01*
X161005000Y-93923257D02*
X152855000Y-93923257D01*
X161072000Y-93883257D02*
X152788000Y-93883257D01*
X161138000Y-93843257D02*
X152722000Y-93843257D01*
X161203000Y-93803257D02*
X152657000Y-93803257D01*
X161266000Y-93763257D02*
X152594000Y-93763257D01*
X161328000Y-93723257D02*
X152532000Y-93723257D01*
X161389000Y-93683257D02*
X152471000Y-93683257D01*
X161448000Y-93643257D02*
X152412000Y-93643257D01*
X161485000Y-78233766D02*
X161485000Y-79833766D01*
X161506000Y-93603257D02*
X152354000Y-93603257D01*
X161564000Y-93563257D02*
X152296000Y-93563257D01*
X161620000Y-93523257D02*
X152240000Y-93523257D01*
X161675000Y-93483257D02*
X152185000Y-93483257D01*
X161730000Y-93443257D02*
X152130000Y-93443257D01*
X161783000Y-93403257D02*
X152077000Y-93403257D01*
X161836000Y-93363257D02*
X152024000Y-93363257D01*
X161887000Y-93323257D02*
X151973000Y-93323257D01*
X161938000Y-93283257D02*
X151922000Y-93283257D01*
X161988000Y-93243257D02*
X151872000Y-93243257D01*
X162037000Y-93203257D02*
X151823000Y-93203257D01*
X162086000Y-93163257D02*
X151774000Y-93163257D01*
X162134000Y-93123257D02*
X151726000Y-93123257D01*
X162180000Y-93083257D02*
X151680000Y-93083257D01*
X162227000Y-93043257D02*
X151633000Y-93043257D01*
X162272000Y-93003257D02*
X151588000Y-93003257D01*
X162285000Y-79033766D02*
X160685000Y-79033766D01*
X162317000Y-92963257D02*
X151543000Y-92963257D01*
X162361000Y-92923257D02*
X151499000Y-92923257D01*
X162405000Y-92883257D02*
X151455000Y-92883257D01*
X162448000Y-92843257D02*
X151412000Y-92843257D01*
X162490000Y-92803257D02*
X151370000Y-92803257D01*
X162532000Y-92763257D02*
X151328000Y-92763257D01*
X162573000Y-92723257D02*
X151287000Y-92723257D01*
X162613000Y-92683257D02*
X151247000Y-92683257D01*
X162653000Y-92643257D02*
X151207000Y-92643257D01*
X162693000Y-92603257D02*
X151167000Y-92603257D01*
X162732000Y-92563257D02*
X151128000Y-92563257D01*
X162770000Y-92523257D02*
X151090000Y-92523257D01*
X162808000Y-92483257D02*
X151052000Y-92483257D01*
X162845000Y-92443257D02*
X151015000Y-92443257D01*
X162882000Y-92403257D02*
X150978000Y-92403257D01*
X162918000Y-92363257D02*
X150942000Y-92363257D01*
X162954000Y-92323257D02*
X150906000Y-92323257D01*
X162990000Y-92283257D02*
X150870000Y-92283257D01*
X163024000Y-92243257D02*
X150836000Y-92243257D01*
X163059000Y-92203257D02*
X150801000Y-92203257D01*
X163093000Y-92163257D02*
X150767000Y-92163257D01*
X163127000Y-92123257D02*
X150733000Y-92123257D01*
X163160000Y-92083257D02*
X158370000Y-92083257D01*
X163192000Y-92043257D02*
X158370000Y-92043257D01*
X163225000Y-92003257D02*
X158370000Y-92003257D01*
X163257000Y-91963257D02*
X158370000Y-91963257D01*
X163288000Y-91923257D02*
X158370000Y-91923257D01*
X163319000Y-91883257D02*
X158370000Y-91883257D01*
X163350000Y-91843257D02*
X158370000Y-91843257D01*
X163380000Y-91803257D02*
X158370000Y-91803257D01*
X163410000Y-91763257D02*
X158370000Y-91763257D01*
X163439000Y-91723257D02*
X158370000Y-91723257D01*
X163469000Y-91683257D02*
X158370000Y-91683257D01*
X163497000Y-91643257D02*
X158370000Y-91643257D01*
X163526000Y-91603257D02*
X158370000Y-91603257D01*
X163554000Y-91563257D02*
X158370000Y-91563257D01*
X163581000Y-91523257D02*
X158370000Y-91523257D01*
X163609000Y-91483257D02*
X158370000Y-91483257D01*
X163636000Y-91443257D02*
X158370000Y-91443257D01*
X163662000Y-91403257D02*
X158370000Y-91403257D01*
X163689000Y-91363257D02*
X158370000Y-91363257D01*
X163715000Y-91323257D02*
X158370000Y-91323257D01*
X163740000Y-91283257D02*
X158370000Y-91283257D01*
X163765000Y-91243257D02*
X158370000Y-91243257D01*
X163790000Y-91203257D02*
X158370000Y-91203257D01*
X163815000Y-91163257D02*
X158370000Y-91163257D01*
X163839000Y-91123257D02*
X158370000Y-91123257D01*
X163863000Y-91083257D02*
X158370000Y-91083257D01*
X163887000Y-91043257D02*
X158370000Y-91043257D01*
X163911000Y-91003257D02*
X158370000Y-91003257D01*
X163934000Y-90963257D02*
X158370000Y-90963257D01*
X163956000Y-90923257D02*
X158370000Y-90923257D01*
X163979000Y-90883257D02*
X158370000Y-90883257D01*
X164001000Y-90843257D02*
X158370000Y-90843257D01*
X164023000Y-90803257D02*
X158370000Y-90803257D01*
X164045000Y-90763257D02*
X158370000Y-90763257D01*
X164066000Y-90723257D02*
X158370000Y-90723257D01*
X164087000Y-90683257D02*
X158370000Y-90683257D01*
X164108000Y-90643257D02*
X158370000Y-90643257D01*
X164128000Y-90603257D02*
X158370000Y-90603257D01*
X164148000Y-90563257D02*
X158370000Y-90563257D01*
X164168000Y-90523257D02*
X158370000Y-90523257D01*
X164188000Y-90483257D02*
X158370000Y-90483257D01*
X164207000Y-90443257D02*
X158370000Y-90443257D01*
X164226000Y-90403257D02*
X158370000Y-90403257D01*
X164245000Y-90363257D02*
X158370000Y-90363257D01*
X164264000Y-90323257D02*
X158370000Y-90323257D01*
X164282000Y-90283257D02*
X158370000Y-90283257D01*
X164300000Y-90243257D02*
X158370000Y-90243257D01*
X164318000Y-90203257D02*
X158370000Y-90203257D01*
X164336000Y-90163257D02*
X158370000Y-90163257D01*
X164353000Y-90123257D02*
X158370000Y-90123257D01*
X164370000Y-90083257D02*
X158370000Y-90083257D01*
X164387000Y-90043257D02*
X158370000Y-90043257D01*
X164403000Y-90003257D02*
X158370000Y-90003257D01*
X164419000Y-89963257D02*
X158370000Y-89963257D01*
X164435000Y-89923257D02*
X158370000Y-89923257D01*
X164451000Y-89883257D02*
X158370000Y-89883257D01*
X164467000Y-89843257D02*
X158370000Y-89843257D01*
X164482000Y-89803257D02*
X158370000Y-89803257D01*
X164497000Y-89763257D02*
X158370000Y-89763257D01*
X164512000Y-89723257D02*
X158370000Y-89723257D01*
X164527000Y-89683257D02*
X158370000Y-89683257D01*
X164541000Y-89643257D02*
X158370000Y-89643257D01*
X164555000Y-89603257D02*
X158370000Y-89603257D01*
X164569000Y-89563257D02*
X158370000Y-89563257D01*
X164582000Y-89523257D02*
X158370000Y-89523257D01*
X164596000Y-89483257D02*
X158370000Y-89483257D01*
X164609000Y-89443257D02*
X158370000Y-89443257D01*
X164622000Y-89403257D02*
X158370000Y-89403257D01*
X164635000Y-89363257D02*
X158370000Y-89363257D01*
X164647000Y-89323257D02*
X158370000Y-89323257D01*
X164659000Y-89283257D02*
X158370000Y-89283257D01*
X164672000Y-89243257D02*
X158370000Y-89243257D01*
X164683000Y-89203257D02*
X149177000Y-89203257D01*
X164695000Y-89163257D02*
X149165000Y-89163257D01*
X164706000Y-89123257D02*
X149154000Y-89123257D01*
X164717000Y-89083257D02*
X149143000Y-89083257D01*
X164728000Y-89043257D02*
X149132000Y-89043257D01*
X164739000Y-89003257D02*
X149121000Y-89003257D01*
X164750000Y-88963257D02*
X149110000Y-88963257D01*
X164760000Y-88923257D02*
X149100000Y-88923257D01*
X164770000Y-88883257D02*
X149090000Y-88883257D01*
X164780000Y-88843257D02*
X149080000Y-88843257D01*
X164789000Y-88803257D02*
X149071000Y-88803257D01*
X164799000Y-88763257D02*
X149061000Y-88763257D01*
X164808000Y-88723257D02*
X149052000Y-88723257D01*
X164817000Y-88683257D02*
X149043000Y-88683257D01*
X164826000Y-88643257D02*
X149034000Y-88643257D01*
X164834000Y-88603257D02*
X149026000Y-88603257D01*
X164843000Y-88563257D02*
X149017000Y-88563257D01*
X164851000Y-88523257D02*
X149009000Y-88523257D01*
X164859000Y-88483257D02*
X149001000Y-88483257D01*
X164866000Y-88443257D02*
X148994000Y-88443257D01*
X164874000Y-88403257D02*
X148986000Y-88403257D01*
X164881000Y-88363257D02*
X148979000Y-88363257D01*
X164888000Y-88323257D02*
X148972000Y-88323257D01*
X164895000Y-88283257D02*
X148965000Y-88283257D01*
X164902000Y-88243257D02*
X148958000Y-88243257D01*
X164908000Y-88203257D02*
X148952000Y-88203257D01*
X164915000Y-88163257D02*
X148945000Y-88163257D01*
X164921000Y-88123257D02*
X148939000Y-88123257D01*
X164927000Y-88083257D02*
X148933000Y-88083257D01*
X164932000Y-88043257D02*
X148928000Y-88043257D01*
X164938000Y-88003257D02*
X148922000Y-88003257D01*
X164943000Y-87963257D02*
X148917000Y-87963257D01*
X164948000Y-87923257D02*
X148912000Y-87923257D01*
X164953000Y-87883257D02*
X148907000Y-87883257D01*
X164958000Y-87843257D02*
X148902000Y-87843257D01*
X164962000Y-87803257D02*
X148898000Y-87803257D01*
X164966000Y-87763257D02*
X148894000Y-87763257D01*
X164970000Y-87723257D02*
X148890000Y-87723257D01*
X164974000Y-87683257D02*
X148886000Y-87683257D01*
X164978000Y-87643257D02*
X148882000Y-87643257D01*
X164981000Y-87603257D02*
X148879000Y-87603257D01*
X164985000Y-87563257D02*
X148875000Y-87563257D01*
X164988000Y-87523257D02*
X148872000Y-87523257D01*
X164991000Y-87483257D02*
X148869000Y-87483257D01*
X164993000Y-87443257D02*
X148867000Y-87443257D01*
X164996000Y-87403257D02*
X148864000Y-87403257D01*
X164998000Y-87363257D02*
X148862000Y-87363257D01*
X165000000Y-87323257D02*
X148860000Y-87323257D01*
X165002000Y-87283257D02*
X148858000Y-87283257D01*
X165004000Y-87243257D02*
X148856000Y-87243257D01*
X165005000Y-87203257D02*
X148855000Y-87203257D01*
X165006000Y-87163257D02*
X148854000Y-87163257D01*
X165008000Y-87083257D02*
X148852000Y-87083257D01*
X165008000Y-87123257D02*
X148852000Y-87123257D01*
X165009000Y-87043257D02*
X148851000Y-87043257D01*
X165010000Y-86923257D02*
X148850000Y-86923257D01*
X165010000Y-86963257D02*
X148850000Y-86963257D01*
X165010000Y-87003257D02*
X148850000Y-87003257D01*
X165050000Y-86923257D02*
G75*
G02*
X148810000Y-86923257I-8120000J0D01*
G01*
X148810000Y-86923257D02*
G75*
G02*
X165050000Y-86923257I8120000J0D01*
G01*
%TO.C,C24*%
X125910000Y-89103257D02*
X133350000Y-89103257D01*
X125910000Y-91843257D02*
X125910000Y-89103257D01*
X133350000Y-89103257D02*
X133350000Y-91843257D01*
X133350000Y-91843257D02*
X125910000Y-91843257D01*
%TO.C,C25*%
X127130000Y-86156257D02*
X127130000Y-85590257D01*
X127170000Y-86390257D02*
X127170000Y-85356257D01*
X127210000Y-86550257D02*
X127210000Y-85196257D01*
X127250000Y-86678257D02*
X127250000Y-85068257D01*
X127290000Y-86787257D02*
X127290000Y-84959257D01*
X127330000Y-86884257D02*
X127330000Y-84862257D01*
X127370000Y-86971257D02*
X127370000Y-84775257D01*
X127410000Y-87050257D02*
X127410000Y-84696257D01*
X127450000Y-87124257D02*
X127450000Y-84622257D01*
X127490000Y-87192257D02*
X127490000Y-84554257D01*
X127530000Y-87256257D02*
X127530000Y-84490257D01*
X127570000Y-87316257D02*
X127570000Y-84430257D01*
X127610000Y-87372257D02*
X127610000Y-84374257D01*
X127650000Y-87426257D02*
X127650000Y-84320257D01*
X127690000Y-87477257D02*
X127690000Y-84269257D01*
X127730000Y-84833257D02*
X127730000Y-84221257D01*
X127730000Y-87525257D02*
X127730000Y-86913257D01*
X127770000Y-84833257D02*
X127770000Y-84174257D01*
X127770000Y-87572257D02*
X127770000Y-86913257D01*
X127810000Y-84833257D02*
X127810000Y-84130257D01*
X127810000Y-87616257D02*
X127810000Y-86913257D01*
X127850000Y-84833257D02*
X127850000Y-84088257D01*
X127850000Y-87658257D02*
X127850000Y-86913257D01*
X127890000Y-84833257D02*
X127890000Y-84048257D01*
X127890000Y-87698257D02*
X127890000Y-86913257D01*
X127930000Y-84833257D02*
X127930000Y-84009257D01*
X127930000Y-87737257D02*
X127930000Y-86913257D01*
X127970000Y-84833257D02*
X127970000Y-83972257D01*
X127970000Y-87774257D02*
X127970000Y-86913257D01*
X128010000Y-84833257D02*
X128010000Y-83937257D01*
X128010000Y-87809257D02*
X128010000Y-86913257D01*
X128050000Y-84833257D02*
X128050000Y-83903257D01*
X128050000Y-87843257D02*
X128050000Y-86913257D01*
X128090000Y-84833257D02*
X128090000Y-83870257D01*
X128090000Y-87876257D02*
X128090000Y-86913257D01*
X128130000Y-84833257D02*
X128130000Y-83838257D01*
X128130000Y-87908257D02*
X128130000Y-86913257D01*
X128170000Y-84833257D02*
X128170000Y-83808257D01*
X128170000Y-87938257D02*
X128170000Y-86913257D01*
X128210000Y-84833257D02*
X128210000Y-83779257D01*
X128210000Y-87967257D02*
X128210000Y-86913257D01*
X128250000Y-84833257D02*
X128250000Y-83751257D01*
X128250000Y-87995257D02*
X128250000Y-86913257D01*
X128290000Y-84833257D02*
X128290000Y-83724257D01*
X128290000Y-88022257D02*
X128290000Y-86913257D01*
X128330000Y-84833257D02*
X128330000Y-83698257D01*
X128330000Y-88048257D02*
X128330000Y-86913257D01*
X128370000Y-84833257D02*
X128370000Y-83674257D01*
X128370000Y-88072257D02*
X128370000Y-86913257D01*
X128410000Y-84833257D02*
X128410000Y-83650257D01*
X128410000Y-88096257D02*
X128410000Y-86913257D01*
X128450000Y-84833257D02*
X128450000Y-83627257D01*
X128450000Y-88119257D02*
X128450000Y-86913257D01*
X128490000Y-84833257D02*
X128490000Y-83605257D01*
X128490000Y-88141257D02*
X128490000Y-86913257D01*
X128530000Y-84833257D02*
X128530000Y-83584257D01*
X128530000Y-88162257D02*
X128530000Y-86913257D01*
X128570000Y-84833257D02*
X128570000Y-83564257D01*
X128570000Y-88182257D02*
X128570000Y-86913257D01*
X128610000Y-84833257D02*
X128610000Y-83544257D01*
X128610000Y-88202257D02*
X128610000Y-86913257D01*
X128650000Y-84833257D02*
X128650000Y-83526257D01*
X128650000Y-88220257D02*
X128650000Y-86913257D01*
X128690000Y-84833257D02*
X128690000Y-83508257D01*
X128690000Y-88238257D02*
X128690000Y-86913257D01*
X128730000Y-84833257D02*
X128730000Y-83491257D01*
X128730000Y-88255257D02*
X128730000Y-86913257D01*
X128770000Y-84833257D02*
X128770000Y-83475257D01*
X128770000Y-88271257D02*
X128770000Y-86913257D01*
X128810000Y-84833257D02*
X128810000Y-83460257D01*
X128810000Y-88286257D02*
X128810000Y-86913257D01*
X128850000Y-84833257D02*
X128850000Y-83445257D01*
X128850000Y-88301257D02*
X128850000Y-86913257D01*
X128890000Y-84833257D02*
X128890000Y-83431257D01*
X128890000Y-88315257D02*
X128890000Y-86913257D01*
X128930000Y-84833257D02*
X128930000Y-83418257D01*
X128930000Y-88328257D02*
X128930000Y-86913257D01*
X128970000Y-84833257D02*
X128970000Y-83406257D01*
X128970000Y-88340257D02*
X128970000Y-86913257D01*
X129010000Y-84833257D02*
X129010000Y-83394257D01*
X129010000Y-88352257D02*
X129010000Y-86913257D01*
X129050000Y-84833257D02*
X129050000Y-83383257D01*
X129050000Y-88363257D02*
X129050000Y-86913257D01*
X129090000Y-84833257D02*
X129090000Y-83372257D01*
X129090000Y-88374257D02*
X129090000Y-86913257D01*
X129130000Y-84833257D02*
X129130000Y-83363257D01*
X129130000Y-88383257D02*
X129130000Y-86913257D01*
X129170000Y-84833257D02*
X129170000Y-83354257D01*
X129170000Y-88392257D02*
X129170000Y-86913257D01*
X129210000Y-84833257D02*
X129210000Y-83345257D01*
X129210000Y-88401257D02*
X129210000Y-86913257D01*
X129250000Y-84833257D02*
X129250000Y-83337257D01*
X129250000Y-88409257D02*
X129250000Y-86913257D01*
X129290000Y-84833257D02*
X129290000Y-83330257D01*
X129290000Y-88416257D02*
X129290000Y-86913257D01*
X129330000Y-84833257D02*
X129330000Y-83324257D01*
X129330000Y-88422257D02*
X129330000Y-86913257D01*
X129370000Y-84833257D02*
X129370000Y-83318257D01*
X129370000Y-88428257D02*
X129370000Y-86913257D01*
X129410000Y-84833257D02*
X129410000Y-83313257D01*
X129410000Y-88433257D02*
X129410000Y-86913257D01*
X129450000Y-84833257D02*
X129450000Y-83308257D01*
X129450000Y-88438257D02*
X129450000Y-86913257D01*
X129490000Y-84833257D02*
X129490000Y-83304257D01*
X129490000Y-88442257D02*
X129490000Y-86913257D01*
X129530000Y-84833257D02*
X129530000Y-83301257D01*
X129530000Y-88445257D02*
X129530000Y-86913257D01*
X129570000Y-84833257D02*
X129570000Y-83298257D01*
X129570000Y-88448257D02*
X129570000Y-86913257D01*
X129610000Y-84833257D02*
X129610000Y-83296257D01*
X129610000Y-88450257D02*
X129610000Y-86913257D01*
X129650000Y-84833257D02*
X129650000Y-83294257D01*
X129650000Y-88452257D02*
X129650000Y-86913257D01*
X129690000Y-84833257D02*
X129690000Y-83293257D01*
X129690000Y-88453257D02*
X129690000Y-86913257D01*
X129730000Y-84833257D02*
X129730000Y-83293257D01*
X129730000Y-88453257D02*
X129730000Y-86913257D01*
X132284775Y-87598257D02*
X132284775Y-87098257D01*
X132534775Y-87348257D02*
X132034775Y-87348257D01*
X132350000Y-85873257D02*
G75*
G02*
X127110000Y-85873257I-2620000J0D01*
G01*
X127110000Y-85873257D02*
G75*
G02*
X132350000Y-85873257I2620000J0D01*
G01*
%TO.C,J9*%
X134375103Y-66153257D02*
X146895103Y-66153257D01*
X134375103Y-76193257D02*
X134375103Y-66153257D01*
X147495103Y-66153257D02*
X149855103Y-66153257D01*
X149855103Y-66153257D02*
X149855103Y-76193257D01*
X149855103Y-66773257D02*
X134375103Y-66773257D01*
X149855103Y-68273257D02*
X134375103Y-68273257D01*
X149855103Y-73173257D02*
X134375103Y-73173257D01*
X149855103Y-76193257D02*
X134375103Y-76193257D01*
X147195103Y-66153257D02*
X146755103Y-65543257D01*
X147635103Y-65543257D01*
X147195103Y-66153257D01*
G36*
X147195103Y-66153257D02*
G01*
X146755103Y-65543257D01*
X147635103Y-65543257D01*
X147195103Y-66153257D01*
G37*
%TO.C,C27*%
X126930000Y-100356257D02*
X126930000Y-99790257D01*
X126970000Y-100590257D02*
X126970000Y-99556257D01*
X127010000Y-100750257D02*
X127010000Y-99396257D01*
X127050000Y-100878257D02*
X127050000Y-99268257D01*
X127090000Y-100987257D02*
X127090000Y-99159257D01*
X127130000Y-101084257D02*
X127130000Y-99062257D01*
X127170000Y-101171257D02*
X127170000Y-98975257D01*
X127210000Y-101250257D02*
X127210000Y-98896257D01*
X127250000Y-101324257D02*
X127250000Y-98822257D01*
X127290000Y-101392257D02*
X127290000Y-98754257D01*
X127330000Y-101456257D02*
X127330000Y-98690257D01*
X127370000Y-101516257D02*
X127370000Y-98630257D01*
X127410000Y-101572257D02*
X127410000Y-98574257D01*
X127450000Y-101626257D02*
X127450000Y-98520257D01*
X127490000Y-101677257D02*
X127490000Y-98469257D01*
X127530000Y-99033257D02*
X127530000Y-98421257D01*
X127530000Y-101725257D02*
X127530000Y-101113257D01*
X127570000Y-99033257D02*
X127570000Y-98374257D01*
X127570000Y-101772257D02*
X127570000Y-101113257D01*
X127610000Y-99033257D02*
X127610000Y-98330257D01*
X127610000Y-101816257D02*
X127610000Y-101113257D01*
X127650000Y-99033257D02*
X127650000Y-98288257D01*
X127650000Y-101858257D02*
X127650000Y-101113257D01*
X127690000Y-99033257D02*
X127690000Y-98248257D01*
X127690000Y-101898257D02*
X127690000Y-101113257D01*
X127730000Y-99033257D02*
X127730000Y-98209257D01*
X127730000Y-101937257D02*
X127730000Y-101113257D01*
X127770000Y-99033257D02*
X127770000Y-98172257D01*
X127770000Y-101974257D02*
X127770000Y-101113257D01*
X127810000Y-99033257D02*
X127810000Y-98137257D01*
X127810000Y-102009257D02*
X127810000Y-101113257D01*
X127850000Y-99033257D02*
X127850000Y-98103257D01*
X127850000Y-102043257D02*
X127850000Y-101113257D01*
X127890000Y-99033257D02*
X127890000Y-98070257D01*
X127890000Y-102076257D02*
X127890000Y-101113257D01*
X127930000Y-99033257D02*
X127930000Y-98038257D01*
X127930000Y-102108257D02*
X127930000Y-101113257D01*
X127970000Y-99033257D02*
X127970000Y-98008257D01*
X127970000Y-102138257D02*
X127970000Y-101113257D01*
X128010000Y-99033257D02*
X128010000Y-97979257D01*
X128010000Y-102167257D02*
X128010000Y-101113257D01*
X128050000Y-99033257D02*
X128050000Y-97951257D01*
X128050000Y-102195257D02*
X128050000Y-101113257D01*
X128090000Y-99033257D02*
X128090000Y-97924257D01*
X128090000Y-102222257D02*
X128090000Y-101113257D01*
X128130000Y-99033257D02*
X128130000Y-97898257D01*
X128130000Y-102248257D02*
X128130000Y-101113257D01*
X128170000Y-99033257D02*
X128170000Y-97874257D01*
X128170000Y-102272257D02*
X128170000Y-101113257D01*
X128210000Y-99033257D02*
X128210000Y-97850257D01*
X128210000Y-102296257D02*
X128210000Y-101113257D01*
X128250000Y-99033257D02*
X128250000Y-97827257D01*
X128250000Y-102319257D02*
X128250000Y-101113257D01*
X128290000Y-99033257D02*
X128290000Y-97805257D01*
X128290000Y-102341257D02*
X128290000Y-101113257D01*
X128330000Y-99033257D02*
X128330000Y-97784257D01*
X128330000Y-102362257D02*
X128330000Y-101113257D01*
X128370000Y-99033257D02*
X128370000Y-97764257D01*
X128370000Y-102382257D02*
X128370000Y-101113257D01*
X128410000Y-99033257D02*
X128410000Y-97744257D01*
X128410000Y-102402257D02*
X128410000Y-101113257D01*
X128450000Y-99033257D02*
X128450000Y-97726257D01*
X128450000Y-102420257D02*
X128450000Y-101113257D01*
X128490000Y-99033257D02*
X128490000Y-97708257D01*
X128490000Y-102438257D02*
X128490000Y-101113257D01*
X128530000Y-99033257D02*
X128530000Y-97691257D01*
X128530000Y-102455257D02*
X128530000Y-101113257D01*
X128570000Y-99033257D02*
X128570000Y-97675257D01*
X128570000Y-102471257D02*
X128570000Y-101113257D01*
X128610000Y-99033257D02*
X128610000Y-97660257D01*
X128610000Y-102486257D02*
X128610000Y-101113257D01*
X128650000Y-99033257D02*
X128650000Y-97645257D01*
X128650000Y-102501257D02*
X128650000Y-101113257D01*
X128690000Y-99033257D02*
X128690000Y-97631257D01*
X128690000Y-102515257D02*
X128690000Y-101113257D01*
X128730000Y-99033257D02*
X128730000Y-97618257D01*
X128730000Y-102528257D02*
X128730000Y-101113257D01*
X128770000Y-99033257D02*
X128770000Y-97606257D01*
X128770000Y-102540257D02*
X128770000Y-101113257D01*
X128810000Y-99033257D02*
X128810000Y-97594257D01*
X128810000Y-102552257D02*
X128810000Y-101113257D01*
X128850000Y-99033257D02*
X128850000Y-97583257D01*
X128850000Y-102563257D02*
X128850000Y-101113257D01*
X128890000Y-99033257D02*
X128890000Y-97572257D01*
X128890000Y-102574257D02*
X128890000Y-101113257D01*
X128930000Y-99033257D02*
X128930000Y-97563257D01*
X128930000Y-102583257D02*
X128930000Y-101113257D01*
X128970000Y-99033257D02*
X128970000Y-97554257D01*
X128970000Y-102592257D02*
X128970000Y-101113257D01*
X129010000Y-99033257D02*
X129010000Y-97545257D01*
X129010000Y-102601257D02*
X129010000Y-101113257D01*
X129050000Y-99033257D02*
X129050000Y-97537257D01*
X129050000Y-102609257D02*
X129050000Y-101113257D01*
X129090000Y-99033257D02*
X129090000Y-97530257D01*
X129090000Y-102616257D02*
X129090000Y-101113257D01*
X129130000Y-99033257D02*
X129130000Y-97524257D01*
X129130000Y-102622257D02*
X129130000Y-101113257D01*
X129170000Y-99033257D02*
X129170000Y-97518257D01*
X129170000Y-102628257D02*
X129170000Y-101113257D01*
X129210000Y-99033257D02*
X129210000Y-97513257D01*
X129210000Y-102633257D02*
X129210000Y-101113257D01*
X129250000Y-99033257D02*
X129250000Y-97508257D01*
X129250000Y-102638257D02*
X129250000Y-101113257D01*
X129290000Y-99033257D02*
X129290000Y-97504257D01*
X129290000Y-102642257D02*
X129290000Y-101113257D01*
X129330000Y-99033257D02*
X129330000Y-97501257D01*
X129330000Y-102645257D02*
X129330000Y-101113257D01*
X129370000Y-99033257D02*
X129370000Y-97498257D01*
X129370000Y-102648257D02*
X129370000Y-101113257D01*
X129410000Y-99033257D02*
X129410000Y-97496257D01*
X129410000Y-102650257D02*
X129410000Y-101113257D01*
X129450000Y-99033257D02*
X129450000Y-97494257D01*
X129450000Y-102652257D02*
X129450000Y-101113257D01*
X129490000Y-99033257D02*
X129490000Y-97493257D01*
X129490000Y-102653257D02*
X129490000Y-101113257D01*
X129530000Y-99033257D02*
X129530000Y-97493257D01*
X129530000Y-102653257D02*
X129530000Y-101113257D01*
X132084775Y-101798257D02*
X132084775Y-101298257D01*
X132334775Y-101548257D02*
X131834775Y-101548257D01*
X132150000Y-100073257D02*
G75*
G02*
X126910000Y-100073257I-2620000J0D01*
G01*
X126910000Y-100073257D02*
G75*
G02*
X132150000Y-100073257I2620000J0D01*
G01*
%TO.C,C28*%
X122840000Y-77693257D02*
X116538000Y-77693257D01*
X122840000Y-77733257D02*
X116551000Y-77733257D01*
X122840000Y-77773257D02*
X116563000Y-77773257D01*
X122840000Y-77813257D02*
X116575000Y-77813257D01*
X122840000Y-77853257D02*
X116588000Y-77853257D01*
X122840000Y-77893257D02*
X116601000Y-77893257D01*
X122840000Y-77933257D02*
X116614000Y-77933257D01*
X122840000Y-77973257D02*
X116628000Y-77973257D01*
X122840000Y-78013257D02*
X116641000Y-78013257D01*
X122840000Y-78053257D02*
X116655000Y-78053257D01*
X122840000Y-78093257D02*
X116669000Y-78093257D01*
X122840000Y-78133257D02*
X116683000Y-78133257D01*
X122840000Y-78173257D02*
X116698000Y-78173257D01*
X122840000Y-78213257D02*
X116713000Y-78213257D01*
X122840000Y-78253257D02*
X116728000Y-78253257D01*
X122840000Y-78293257D02*
X116743000Y-78293257D01*
X122840000Y-78333257D02*
X116759000Y-78333257D01*
X122840000Y-78373257D02*
X116775000Y-78373257D01*
X122840000Y-78413257D02*
X116791000Y-78413257D01*
X122840000Y-78453257D02*
X116807000Y-78453257D01*
X122840000Y-78493257D02*
X116823000Y-78493257D01*
X122840000Y-78533257D02*
X116840000Y-78533257D01*
X122840000Y-78573257D02*
X116857000Y-78573257D01*
X122840000Y-78613257D02*
X116874000Y-78613257D01*
X122840000Y-78653257D02*
X116892000Y-78653257D01*
X122840000Y-78693257D02*
X116910000Y-78693257D01*
X122840000Y-78733257D02*
X116928000Y-78733257D01*
X122840000Y-78773257D02*
X116946000Y-78773257D01*
X122840000Y-78813257D02*
X116965000Y-78813257D01*
X122840000Y-78853257D02*
X116984000Y-78853257D01*
X122840000Y-78893257D02*
X117003000Y-78893257D01*
X122840000Y-78933257D02*
X117022000Y-78933257D01*
X122840000Y-78973257D02*
X117042000Y-78973257D01*
X122840000Y-79013257D02*
X117062000Y-79013257D01*
X122840000Y-79053257D02*
X117082000Y-79053257D01*
X122840000Y-79093257D02*
X117102000Y-79093257D01*
X122840000Y-79133257D02*
X117123000Y-79133257D01*
X122840000Y-79173257D02*
X117144000Y-79173257D01*
X122840000Y-79213257D02*
X117165000Y-79213257D01*
X122840000Y-79253257D02*
X117187000Y-79253257D01*
X122840000Y-79293257D02*
X117209000Y-79293257D01*
X122840000Y-79333257D02*
X117231000Y-79333257D01*
X122840000Y-79373257D02*
X117254000Y-79373257D01*
X122840000Y-79413257D02*
X117276000Y-79413257D01*
X122840000Y-79453257D02*
X117299000Y-79453257D01*
X122840000Y-79493257D02*
X117323000Y-79493257D01*
X122840000Y-79533257D02*
X117347000Y-79533257D01*
X122840000Y-79573257D02*
X117371000Y-79573257D01*
X122840000Y-79613257D02*
X117395000Y-79613257D01*
X122840000Y-79653257D02*
X117420000Y-79653257D01*
X122840000Y-79693257D02*
X117445000Y-79693257D01*
X122840000Y-79733257D02*
X117470000Y-79733257D01*
X122840000Y-79773257D02*
X117495000Y-79773257D01*
X122840000Y-79813257D02*
X117521000Y-79813257D01*
X122840000Y-79853257D02*
X117548000Y-79853257D01*
X122840000Y-79893257D02*
X117574000Y-79893257D01*
X122840000Y-79933257D02*
X117601000Y-79933257D01*
X122840000Y-79973257D02*
X117629000Y-79973257D01*
X122840000Y-80013257D02*
X117656000Y-80013257D01*
X122840000Y-80053257D02*
X117684000Y-80053257D01*
X122840000Y-80093257D02*
X117713000Y-80093257D01*
X122840000Y-80133257D02*
X117741000Y-80133257D01*
X122840000Y-80173257D02*
X117771000Y-80173257D01*
X122840000Y-80213257D02*
X117800000Y-80213257D01*
X122840000Y-80253257D02*
X117830000Y-80253257D01*
X122840000Y-80293257D02*
X117860000Y-80293257D01*
X122840000Y-80333257D02*
X117891000Y-80333257D01*
X122840000Y-80373257D02*
X117922000Y-80373257D01*
X122840000Y-80413257D02*
X117953000Y-80413257D01*
X122840000Y-80453257D02*
X117985000Y-80453257D01*
X122840000Y-80493257D02*
X118018000Y-80493257D01*
X122840000Y-80533257D02*
X118050000Y-80533257D01*
X125045000Y-83453257D02*
X123515000Y-83453257D01*
X125377000Y-83413257D02*
X123183000Y-83413257D01*
X125631000Y-83373257D02*
X122929000Y-83373257D01*
X125844000Y-83333257D02*
X122716000Y-83333257D01*
X126031000Y-83293257D02*
X122529000Y-83293257D01*
X126200000Y-83253257D02*
X122360000Y-83253257D01*
X126354000Y-83213257D02*
X122206000Y-83213257D01*
X126497000Y-83173257D02*
X122063000Y-83173257D01*
X126631000Y-83133257D02*
X121929000Y-83133257D01*
X126757000Y-83093257D02*
X121803000Y-83093257D01*
X126877000Y-83053257D02*
X121683000Y-83053257D01*
X126990000Y-83013257D02*
X121570000Y-83013257D01*
X127099000Y-82973257D02*
X121461000Y-82973257D01*
X127203000Y-82933257D02*
X121357000Y-82933257D01*
X127303000Y-82893257D02*
X121257000Y-82893257D01*
X127400000Y-82853257D02*
X121160000Y-82853257D01*
X127493000Y-82813257D02*
X121067000Y-82813257D01*
X127583000Y-82773257D02*
X120977000Y-82773257D01*
X127670000Y-82733257D02*
X120890000Y-82733257D01*
X127755000Y-82693257D02*
X120805000Y-82693257D01*
X127837000Y-82653257D02*
X120723000Y-82653257D01*
X127917000Y-82613257D02*
X120643000Y-82613257D01*
X127994000Y-82573257D02*
X120566000Y-82573257D01*
X128070000Y-82533257D02*
X120490000Y-82533257D01*
X128144000Y-82493257D02*
X120416000Y-82493257D01*
X128216000Y-82453257D02*
X120344000Y-82453257D01*
X128286000Y-82413257D02*
X120274000Y-82413257D01*
X128355000Y-82373257D02*
X120205000Y-82373257D01*
X128422000Y-82333257D02*
X120138000Y-82333257D01*
X128488000Y-82293257D02*
X120072000Y-82293257D01*
X128553000Y-82253257D02*
X120007000Y-82253257D01*
X128616000Y-82213257D02*
X119944000Y-82213257D01*
X128678000Y-82173257D02*
X119882000Y-82173257D01*
X128739000Y-82133257D02*
X119821000Y-82133257D01*
X128798000Y-82093257D02*
X119762000Y-82093257D01*
X128835000Y-66683766D02*
X128835000Y-68283766D01*
X128856000Y-82053257D02*
X119704000Y-82053257D01*
X128914000Y-82013257D02*
X119646000Y-82013257D01*
X128970000Y-81973257D02*
X119590000Y-81973257D01*
X129025000Y-81933257D02*
X119535000Y-81933257D01*
X129080000Y-81893257D02*
X119480000Y-81893257D01*
X129133000Y-81853257D02*
X119427000Y-81853257D01*
X129186000Y-81813257D02*
X119374000Y-81813257D01*
X129237000Y-81773257D02*
X119323000Y-81773257D01*
X129288000Y-81733257D02*
X119272000Y-81733257D01*
X129338000Y-81693257D02*
X119222000Y-81693257D01*
X129387000Y-81653257D02*
X119173000Y-81653257D01*
X129436000Y-81613257D02*
X119124000Y-81613257D01*
X129484000Y-81573257D02*
X119076000Y-81573257D01*
X129530000Y-81533257D02*
X119030000Y-81533257D01*
X129577000Y-81493257D02*
X118983000Y-81493257D01*
X129622000Y-81453257D02*
X118938000Y-81453257D01*
X129635000Y-67483766D02*
X128035000Y-67483766D01*
X129667000Y-81413257D02*
X118893000Y-81413257D01*
X129711000Y-81373257D02*
X118849000Y-81373257D01*
X129755000Y-81333257D02*
X118805000Y-81333257D01*
X129798000Y-81293257D02*
X118762000Y-81293257D01*
X129840000Y-81253257D02*
X118720000Y-81253257D01*
X129882000Y-81213257D02*
X118678000Y-81213257D01*
X129923000Y-81173257D02*
X118637000Y-81173257D01*
X129963000Y-81133257D02*
X118597000Y-81133257D01*
X130003000Y-81093257D02*
X118557000Y-81093257D01*
X130043000Y-81053257D02*
X118517000Y-81053257D01*
X130082000Y-81013257D02*
X118478000Y-81013257D01*
X130120000Y-80973257D02*
X118440000Y-80973257D01*
X130158000Y-80933257D02*
X118402000Y-80933257D01*
X130195000Y-80893257D02*
X118365000Y-80893257D01*
X130232000Y-80853257D02*
X118328000Y-80853257D01*
X130268000Y-80813257D02*
X118292000Y-80813257D01*
X130304000Y-80773257D02*
X118256000Y-80773257D01*
X130340000Y-80733257D02*
X118220000Y-80733257D01*
X130374000Y-80693257D02*
X118186000Y-80693257D01*
X130409000Y-80653257D02*
X118151000Y-80653257D01*
X130443000Y-80613257D02*
X118117000Y-80613257D01*
X130477000Y-80573257D02*
X118083000Y-80573257D01*
X130510000Y-80533257D02*
X125720000Y-80533257D01*
X130542000Y-80493257D02*
X125720000Y-80493257D01*
X130575000Y-80453257D02*
X125720000Y-80453257D01*
X130607000Y-80413257D02*
X125720000Y-80413257D01*
X130638000Y-80373257D02*
X125720000Y-80373257D01*
X130669000Y-80333257D02*
X125720000Y-80333257D01*
X130700000Y-80293257D02*
X125720000Y-80293257D01*
X130730000Y-80253257D02*
X125720000Y-80253257D01*
X130760000Y-80213257D02*
X125720000Y-80213257D01*
X130789000Y-80173257D02*
X125720000Y-80173257D01*
X130819000Y-80133257D02*
X125720000Y-80133257D01*
X130847000Y-80093257D02*
X125720000Y-80093257D01*
X130876000Y-80053257D02*
X125720000Y-80053257D01*
X130904000Y-80013257D02*
X125720000Y-80013257D01*
X130931000Y-79973257D02*
X125720000Y-79973257D01*
X130959000Y-79933257D02*
X125720000Y-79933257D01*
X130986000Y-79893257D02*
X125720000Y-79893257D01*
X131012000Y-79853257D02*
X125720000Y-79853257D01*
X131039000Y-79813257D02*
X125720000Y-79813257D01*
X131065000Y-79773257D02*
X125720000Y-79773257D01*
X131090000Y-79733257D02*
X125720000Y-79733257D01*
X131115000Y-79693257D02*
X125720000Y-79693257D01*
X131140000Y-79653257D02*
X125720000Y-79653257D01*
X131165000Y-79613257D02*
X125720000Y-79613257D01*
X131189000Y-79573257D02*
X125720000Y-79573257D01*
X131213000Y-79533257D02*
X125720000Y-79533257D01*
X131237000Y-79493257D02*
X125720000Y-79493257D01*
X131261000Y-79453257D02*
X125720000Y-79453257D01*
X131284000Y-79413257D02*
X125720000Y-79413257D01*
X131306000Y-79373257D02*
X125720000Y-79373257D01*
X131329000Y-79333257D02*
X125720000Y-79333257D01*
X131351000Y-79293257D02*
X125720000Y-79293257D01*
X131373000Y-79253257D02*
X125720000Y-79253257D01*
X131395000Y-79213257D02*
X125720000Y-79213257D01*
X131416000Y-79173257D02*
X125720000Y-79173257D01*
X131437000Y-79133257D02*
X125720000Y-79133257D01*
X131458000Y-79093257D02*
X125720000Y-79093257D01*
X131478000Y-79053257D02*
X125720000Y-79053257D01*
X131498000Y-79013257D02*
X125720000Y-79013257D01*
X131518000Y-78973257D02*
X125720000Y-78973257D01*
X131538000Y-78933257D02*
X125720000Y-78933257D01*
X131557000Y-78893257D02*
X125720000Y-78893257D01*
X131576000Y-78853257D02*
X125720000Y-78853257D01*
X131595000Y-78813257D02*
X125720000Y-78813257D01*
X131614000Y-78773257D02*
X125720000Y-78773257D01*
X131632000Y-78733257D02*
X125720000Y-78733257D01*
X131650000Y-78693257D02*
X125720000Y-78693257D01*
X131668000Y-78653257D02*
X125720000Y-78653257D01*
X131686000Y-78613257D02*
X125720000Y-78613257D01*
X131703000Y-78573257D02*
X125720000Y-78573257D01*
X131720000Y-78533257D02*
X125720000Y-78533257D01*
X131737000Y-78493257D02*
X125720000Y-78493257D01*
X131753000Y-78453257D02*
X125720000Y-78453257D01*
X131769000Y-78413257D02*
X125720000Y-78413257D01*
X131785000Y-78373257D02*
X125720000Y-78373257D01*
X131801000Y-78333257D02*
X125720000Y-78333257D01*
X131817000Y-78293257D02*
X125720000Y-78293257D01*
X131832000Y-78253257D02*
X125720000Y-78253257D01*
X131847000Y-78213257D02*
X125720000Y-78213257D01*
X131862000Y-78173257D02*
X125720000Y-78173257D01*
X131877000Y-78133257D02*
X125720000Y-78133257D01*
X131891000Y-78093257D02*
X125720000Y-78093257D01*
X131905000Y-78053257D02*
X125720000Y-78053257D01*
X131919000Y-78013257D02*
X125720000Y-78013257D01*
X131932000Y-77973257D02*
X125720000Y-77973257D01*
X131946000Y-77933257D02*
X125720000Y-77933257D01*
X131959000Y-77893257D02*
X125720000Y-77893257D01*
X131972000Y-77853257D02*
X125720000Y-77853257D01*
X131985000Y-77813257D02*
X125720000Y-77813257D01*
X131997000Y-77773257D02*
X125720000Y-77773257D01*
X132009000Y-77733257D02*
X125720000Y-77733257D01*
X132022000Y-77693257D02*
X125720000Y-77693257D01*
X132033000Y-77653257D02*
X116527000Y-77653257D01*
X132045000Y-77613257D02*
X116515000Y-77613257D01*
X132056000Y-77573257D02*
X116504000Y-77573257D01*
X132067000Y-77533257D02*
X116493000Y-77533257D01*
X132078000Y-77493257D02*
X116482000Y-77493257D01*
X132089000Y-77453257D02*
X116471000Y-77453257D01*
X132100000Y-77413257D02*
X116460000Y-77413257D01*
X132110000Y-77373257D02*
X116450000Y-77373257D01*
X132120000Y-77333257D02*
X116440000Y-77333257D01*
X132130000Y-77293257D02*
X116430000Y-77293257D01*
X132139000Y-77253257D02*
X116421000Y-77253257D01*
X132149000Y-77213257D02*
X116411000Y-77213257D01*
X132158000Y-77173257D02*
X116402000Y-77173257D01*
X132167000Y-77133257D02*
X116393000Y-77133257D01*
X132176000Y-77093257D02*
X116384000Y-77093257D01*
X132184000Y-77053257D02*
X116376000Y-77053257D01*
X132193000Y-77013257D02*
X116367000Y-77013257D01*
X132201000Y-76973257D02*
X116359000Y-76973257D01*
X132209000Y-76933257D02*
X116351000Y-76933257D01*
X132216000Y-76893257D02*
X116344000Y-76893257D01*
X132224000Y-76853257D02*
X116336000Y-76853257D01*
X132231000Y-76813257D02*
X116329000Y-76813257D01*
X132238000Y-76773257D02*
X116322000Y-76773257D01*
X132245000Y-76733257D02*
X116315000Y-76733257D01*
X132252000Y-76693257D02*
X116308000Y-76693257D01*
X132258000Y-76653257D02*
X116302000Y-76653257D01*
X132265000Y-76613257D02*
X116295000Y-76613257D01*
X132271000Y-76573257D02*
X116289000Y-76573257D01*
X132277000Y-76533257D02*
X116283000Y-76533257D01*
X132282000Y-76493257D02*
X116278000Y-76493257D01*
X132288000Y-76453257D02*
X116272000Y-76453257D01*
X132293000Y-76413257D02*
X116267000Y-76413257D01*
X132298000Y-76373257D02*
X116262000Y-76373257D01*
X132303000Y-76333257D02*
X116257000Y-76333257D01*
X132308000Y-76293257D02*
X116252000Y-76293257D01*
X132312000Y-76253257D02*
X116248000Y-76253257D01*
X132316000Y-76213257D02*
X116244000Y-76213257D01*
X132320000Y-76173257D02*
X116240000Y-76173257D01*
X132324000Y-76133257D02*
X116236000Y-76133257D01*
X132328000Y-76093257D02*
X116232000Y-76093257D01*
X132331000Y-76053257D02*
X116229000Y-76053257D01*
X132335000Y-76013257D02*
X116225000Y-76013257D01*
X132338000Y-75973257D02*
X116222000Y-75973257D01*
X132341000Y-75933257D02*
X116219000Y-75933257D01*
X132343000Y-75893257D02*
X116217000Y-75893257D01*
X132346000Y-75853257D02*
X116214000Y-75853257D01*
X132348000Y-75813257D02*
X116212000Y-75813257D01*
X132350000Y-75773257D02*
X116210000Y-75773257D01*
X132352000Y-75733257D02*
X116208000Y-75733257D01*
X132354000Y-75693257D02*
X116206000Y-75693257D01*
X132355000Y-75653257D02*
X116205000Y-75653257D01*
X132356000Y-75613257D02*
X116204000Y-75613257D01*
X132358000Y-75533257D02*
X116202000Y-75533257D01*
X132358000Y-75573257D02*
X116202000Y-75573257D01*
X132359000Y-75493257D02*
X116201000Y-75493257D01*
X132360000Y-75373257D02*
X116200000Y-75373257D01*
X132360000Y-75413257D02*
X116200000Y-75413257D01*
X132360000Y-75453257D02*
X116200000Y-75453257D01*
X132400000Y-75373257D02*
G75*
G02*
X116160000Y-75373257I-8120000J0D01*
G01*
X116160000Y-75373257D02*
G75*
G02*
X132400000Y-75373257I8120000J0D01*
G01*
%TO.C,J10*%
X114487500Y-85318257D02*
X124527500Y-85318257D01*
X114487500Y-87678257D02*
X114487500Y-85318257D01*
X114487500Y-95718257D02*
X114487500Y-88278257D01*
X115107500Y-85318257D02*
X115107500Y-95718257D01*
X116607500Y-85318257D02*
X116607500Y-95718257D01*
X121507500Y-85318257D02*
X121507500Y-95718257D01*
X124527500Y-85318257D02*
X124527500Y-95718257D01*
X124527500Y-95718257D02*
X114487500Y-95718257D01*
X114487500Y-87978257D02*
X113877500Y-88418257D01*
X113877500Y-87538257D01*
X114487500Y-87978257D01*
G36*
X114487500Y-87978257D02*
G01*
X113877500Y-88418257D01*
X113877500Y-87538257D01*
X114487500Y-87978257D01*
G37*
%TO.C,J11*%
X136770000Y-93053257D02*
X147170000Y-93053257D01*
X136770000Y-96073257D02*
X147170000Y-96073257D01*
X136770000Y-100973257D02*
X147170000Y-100973257D01*
X136770000Y-102473257D02*
X147170000Y-102473257D01*
X136770000Y-103093257D02*
X136770000Y-93053257D01*
X139130000Y-103093257D02*
X136770000Y-103093257D01*
X147170000Y-93053257D02*
X147170000Y-103093257D01*
X147170000Y-103093257D02*
X139730000Y-103093257D01*
X139870000Y-103703257D02*
X138990000Y-103703257D01*
X139430000Y-103093257D01*
X139870000Y-103703257D01*
G36*
X139870000Y-103703257D02*
G01*
X138990000Y-103703257D01*
X139430000Y-103093257D01*
X139870000Y-103703257D01*
G37*
%TO.C,AMP1*%
X139230000Y-79083257D02*
X139230000Y-89363257D01*
X139230000Y-89363257D02*
X144530000Y-89363257D01*
X140880000Y-79083257D02*
X139230000Y-79083257D01*
X144530000Y-79083257D02*
X142880000Y-79083257D01*
X144530000Y-89363257D02*
X144530000Y-79083257D01*
X136740000Y-79023257D02*
X147020000Y-79023257D01*
X147020000Y-89423257D01*
X136740000Y-89423257D01*
X136740000Y-79023257D01*
X142880000Y-79083257D02*
G75*
G02*
X140880000Y-79083257I-1000000J0D01*
G01*
%TO.C,C26*%
X125910000Y-94153257D02*
X133350000Y-94153257D01*
X125910000Y-96893257D02*
X125910000Y-94153257D01*
X133350000Y-94153257D02*
X133350000Y-96893257D01*
X133350000Y-96893257D02*
X125910000Y-96893257D01*
%TD*%
M02*
