%TF.GenerationSoftware,KiCad,Pcbnew,10.0.1*%
%TF.CreationDate,2026-04-26T23:42:05+09:00*%
%TF.ProjectId,audio,61756469-6f2e-46b6-9963-61645f706362,rev?*%
%TF.SameCoordinates,Original*%
%TF.FileFunction,Copper,L2,Bot*%
%TF.FilePolarity,Positive*%
%FSLAX46Y46*%
G04 Gerber Fmt 4.6, Leading zero omitted, Abs format (unit mm)*
G04 Created by KiCad (PCBNEW 10.0.1) date 2026-04-26 23:42:05*
%MOMM*%
%LPD*%
G01*
G04 APERTURE LIST*
G04 Aperture macros list*
%AMRoundRect*
0 Rectangle with rounded corners*
0 $1 Rounding radius*
0 $2 $3 $4 $5 $6 $7 $8 $9 X,Y pos of 4 corners*
0 Add a 4 corners polygon primitive as box body*
4,1,4,$2,$3,$4,$5,$6,$7,$8,$9,$2,$3,0*
0 Add four circle primitives for the rounded corners*
1,1,$1+$1,$2,$3*
1,1,$1+$1,$4,$5*
1,1,$1+$1,$6,$7*
1,1,$1+$1,$8,$9*
0 Add four rect primitives between the rounded corners*
20,1,$1+$1,$2,$3,$4,$5,0*
20,1,$1+$1,$4,$5,$6,$7,0*
20,1,$1+$1,$6,$7,$8,$9,0*
20,1,$1+$1,$8,$9,$2,$3,0*%
G04 Aperture macros list end*
%TA.AperFunction,ComponentPad*%
%ADD10C,1.600000*%
%TD*%
%TA.AperFunction,ComponentPad*%
%ADD11R,1.700000X1.700000*%
%TD*%
%TA.AperFunction,ComponentPad*%
%ADD12RoundRect,0.250000X-0.550000X-0.550000X0.550000X-0.550000X0.550000X0.550000X-0.550000X0.550000X0*%
%TD*%
%TA.AperFunction,ComponentPad*%
%ADD13C,2.400000*%
%TD*%
%TA.AperFunction,ComponentPad*%
%ADD14RoundRect,0.250001X-0.949999X0.949999X-0.949999X-0.949999X0.949999X-0.949999X0.949999X0.949999X0*%
%TD*%
%TA.AperFunction,ComponentPad*%
%ADD15RoundRect,0.250001X0.949999X-0.949999X0.949999X0.949999X-0.949999X0.949999X-0.949999X-0.949999X0*%
%TD*%
%TA.AperFunction,ComponentPad*%
%ADD16RoundRect,0.250000X0.550000X0.550000X-0.550000X0.550000X-0.550000X-0.550000X0.550000X-0.550000X0*%
%TD*%
%TA.AperFunction,ComponentPad*%
%ADD17RoundRect,0.250001X0.949999X0.949999X-0.949999X0.949999X-0.949999X-0.949999X0.949999X-0.949999X0*%
%TD*%
%TA.AperFunction,ComponentPad*%
%ADD18RoundRect,0.250001X-0.949999X-0.949999X0.949999X-0.949999X0.949999X0.949999X-0.949999X0.949999X0*%
%TD*%
%TA.AperFunction,Conductor*%
%ADD19C,0.200000*%
%TD*%
%TA.AperFunction,Conductor*%
%ADD20C,0.800000*%
%TD*%
G04 APERTURE END LIST*
D10*
%TO.P,R5,2*%
%TO.N,Vref*%
X99080000Y-70250000D03*
%TO.P,R5,1*%
%TO.N,Net-(U1B-+)*%
X88920000Y-70250000D03*
%TD*%
%TO.P,C4,2*%
%TO.N,Net-(J4-Pin_1)*%
X79250000Y-76250000D03*
%TO.P,C4,1*%
%TO.N,Net-(U1B-+)*%
X84250000Y-76250000D03*
%TD*%
D11*
%TO.P,J5,1,Pin_1_1*%
%TO.N,+BATT*%
X78500000Y-110500000D03*
%TD*%
D10*
%TO.P,R4,1*%
%TO.N,Net-(R3-Pad2)*%
X101000000Y-89250000D03*
%TO.P,R4,2*%
%TO.N,Net-(C2-Pad1)*%
X111160000Y-89250000D03*
%TD*%
D11*
%TO.P,J4,1,Pin_1_1*%
%TO.N,Net-(J4-Pin_1)*%
X74250000Y-72750000D03*
%TD*%
D10*
%TO.P,C3,2*%
%TO.N,Net-(J3-Pin_1)*%
X107500000Y-74250000D03*
D12*
%TO.P,C3,1*%
%TO.N,Net-(U1A-+)*%
X105500000Y-74250000D03*
%TD*%
D10*
%TO.P,C1,2*%
%TO.N,Net-(J3-Pin_1)*%
X109000000Y-79000000D03*
%TO.P,C1,1*%
%TO.N,Net-(U1A-+)*%
X104000000Y-79000000D03*
%TD*%
D11*
%TO.P,J3,1,Pin_1_1*%
%TO.N,Net-(J3-Pin_1)*%
X114250000Y-76750000D03*
%TD*%
D10*
%TO.P,R9,1*%
%TO.N,Vref*%
X96250000Y-102580000D03*
%TO.P,R9,2*%
%TO.N,-BATT*%
X96250000Y-92420000D03*
%TD*%
D13*
%TO.P,C7,2*%
%TO.N,-BATT*%
X110000000Y-104000000D03*
D14*
%TO.P,C7,1*%
%TO.N,Vref*%
X110000000Y-96500000D03*
%TD*%
D15*
%TO.P,C8,1*%
%TO.N,+BATT*%
X78500000Y-104000000D03*
D13*
%TO.P,C8,2*%
%TO.N,Vref*%
X78500000Y-96500000D03*
%TD*%
D11*
%TO.P,J7,1,Pin_1_1*%
%TO.N,Vref*%
X93250000Y-110000000D03*
%TD*%
%TO.P,J8,1,Pin_1_1*%
%TO.N,Vref*%
X94250000Y-65500000D03*
%TD*%
%TO.P,J6,1,Pin_1_1*%
%TO.N,-BATT*%
X110000000Y-110500000D03*
%TD*%
%TO.P,J2,1,Pin_1_1*%
%TO.N,Net-(J2-Pin_1)*%
X61512755Y-71750000D03*
%TD*%
%TO.P,J1,1,Pin_1_1*%
%TO.N,Net-(J1-Pin_1)*%
X126250000Y-75500000D03*
%TD*%
D16*
%TO.P,U1,1*%
%TO.N,Net-(R3-Pad2)*%
X97750000Y-85250000D03*
D10*
%TO.P,U1,2,-_2*%
%TO.N,Net-(U1A--)*%
X97750000Y-82710000D03*
%TO.P,U1,3,+_3*%
%TO.N,Net-(U1A-+)*%
X97750000Y-80170000D03*
%TO.P,U1,4,V-_4*%
%TO.N,-BATT*%
X97750000Y-77630000D03*
%TO.P,U1,5,+_5*%
%TO.N,Net-(U1B-+)*%
X90130000Y-77630000D03*
%TO.P,U1,6,-_6*%
%TO.N,Net-(U1B--)*%
X90130000Y-80170000D03*
%TO.P,U1,7*%
%TO.N,Net-(R7-Pad2)*%
X90130000Y-82710000D03*
%TO.P,U1,8,V+_8*%
%TO.N,+BATT*%
X90130000Y-85250000D03*
%TD*%
%TO.P,R1,2*%
%TO.N,Vref*%
X88920000Y-74250000D03*
%TO.P,R1,1*%
%TO.N,Net-(U1A-+)*%
X99080000Y-74250000D03*
%TD*%
%TO.P,R3,2*%
%TO.N,Net-(R3-Pad2)*%
X100920000Y-86000000D03*
%TO.P,R3,1*%
%TO.N,Net-(U1A--)*%
X111080000Y-86000000D03*
%TD*%
D13*
%TO.P,C6,2*%
%TO.N,Net-(J2-Pin_1)*%
X61262755Y-82250000D03*
D17*
%TO.P,C6,1*%
%TO.N,Net-(C6-Pad1)*%
X68762755Y-82250000D03*
%TD*%
D10*
%TO.P,R2,1*%
%TO.N,Vref*%
X111080000Y-82750000D03*
%TO.P,R2,2*%
%TO.N,Net-(U1A--)*%
X100920000Y-82750000D03*
%TD*%
%TO.P,R10,1*%
%TO.N,+BATT*%
X90500000Y-92420000D03*
%TO.P,R10,2*%
%TO.N,Vref*%
X90500000Y-102580000D03*
%TD*%
%TO.P,R8,2*%
%TO.N,Net-(C6-Pad1)*%
X77170000Y-82750000D03*
%TO.P,R8,1*%
%TO.N,Net-(R7-Pad2)*%
X87330000Y-82750000D03*
%TD*%
%TO.P,R6,2*%
%TO.N,Net-(U1B--)*%
X87330000Y-86000000D03*
%TO.P,R6,1*%
%TO.N,Vref*%
X77170000Y-86000000D03*
%TD*%
%TO.P,R7,1*%
%TO.N,Net-(U1B--)*%
X87330000Y-79750000D03*
%TO.P,R7,2*%
%TO.N,Net-(R7-Pad2)*%
X77170000Y-79750000D03*
%TD*%
D16*
%TO.P,C5,1*%
%TO.N,Net-(U1B-+)*%
X83205113Y-71750000D03*
D10*
%TO.P,C5,2*%
%TO.N,Net-(J4-Pin_1)*%
X81205113Y-71750000D03*
%TD*%
D13*
%TO.P,C2,2*%
%TO.N,Net-(J1-Pin_1)*%
X126500000Y-87000000D03*
D18*
%TO.P,C2,1*%
%TO.N,Net-(C2-Pad1)*%
X119000000Y-87000000D03*
%TD*%
%TO.N,-BATT*%
D19*
X109762755Y-103762755D02*
X109762755Y-100487245D01*
X110000000Y-104000000D02*
X109762755Y-103762755D01*
D20*
X96250000Y-92420000D02*
X101932755Y-92420000D01*
X110000000Y-104000000D02*
X110000000Y-110500000D01*
X101932755Y-92420000D02*
X110000000Y-100487245D01*
X110000000Y-100487245D02*
X110000000Y-104000000D01*
X95000000Y-91170000D02*
X96250000Y-92420000D01*
X95000000Y-80380000D02*
X95000000Y-91170000D01*
X97750000Y-77630000D02*
X95000000Y-80380000D01*
%TO.N,Net-(U1B--)*%
D19*
X83750000Y-80750000D02*
X84750000Y-79750000D01*
X84750000Y-79750000D02*
X87330000Y-79750000D01*
X83750000Y-84250000D02*
X83750000Y-80750000D01*
X85500000Y-86000000D02*
X83750000Y-84250000D01*
X87330000Y-86000000D02*
X85500000Y-86000000D01*
%TD*%
%TA.AperFunction,Conductor*%
%TO.N,Vref*%
G36*
X125693016Y-61512543D02*
G01*
X125738783Y-61565337D01*
X125750000Y-61616874D01*
X125750000Y-68500000D01*
X132626000Y-68500000D01*
X132693039Y-68519685D01*
X132738794Y-68572489D01*
X132750000Y-68624000D01*
X132750000Y-107126000D01*
X132730315Y-107193039D01*
X132677511Y-107238794D01*
X132626000Y-107250000D01*
X125750000Y-107250000D01*
X125750000Y-114126000D01*
X125730315Y-114193039D01*
X125677511Y-114238794D01*
X125626000Y-114250000D01*
X63124000Y-114250000D01*
X63056961Y-114230315D01*
X63011206Y-114177511D01*
X63000000Y-114126000D01*
X63000000Y-109602135D01*
X77149500Y-109602135D01*
X77149500Y-111397870D01*
X77149501Y-111397876D01*
X77155908Y-111457483D01*
X77206202Y-111592328D01*
X77206206Y-111592335D01*
X77292452Y-111707544D01*
X77292455Y-111707547D01*
X77407664Y-111793793D01*
X77407671Y-111793797D01*
X77542517Y-111844091D01*
X77542516Y-111844091D01*
X77549444Y-111844835D01*
X77602127Y-111850500D01*
X79397872Y-111850499D01*
X79457483Y-111844091D01*
X79592331Y-111793796D01*
X79707546Y-111707546D01*
X79793796Y-111592331D01*
X79844091Y-111457483D01*
X79850500Y-111397873D01*
X79850499Y-109602128D01*
X79844091Y-109542517D01*
X79840942Y-109534075D01*
X79793797Y-109407671D01*
X79793793Y-109407664D01*
X79707547Y-109292455D01*
X79707544Y-109292452D01*
X79592332Y-109206204D01*
X79457482Y-109155908D01*
X79457483Y-109155908D01*
X79397883Y-109149501D01*
X79397881Y-109149500D01*
X79397873Y-109149500D01*
X79397864Y-109149500D01*
X77602129Y-109149500D01*
X77602123Y-109149501D01*
X77542516Y-109155908D01*
X77407671Y-109206202D01*
X77407664Y-109206206D01*
X77292455Y-109292452D01*
X77292452Y-109292455D01*
X77206206Y-109407664D01*
X77206202Y-109407671D01*
X77155908Y-109542517D01*
X77149739Y-109599901D01*
X77149501Y-109602123D01*
X77149500Y-109602135D01*
X63000000Y-109602135D01*
X63000000Y-109102155D01*
X91900000Y-109102155D01*
X91900000Y-109750000D01*
X92816988Y-109750000D01*
X92784075Y-109807007D01*
X92750000Y-109934174D01*
X92750000Y-110065826D01*
X92784075Y-110192993D01*
X92816988Y-110250000D01*
X91900000Y-110250000D01*
X91900000Y-110897844D01*
X91906401Y-110957372D01*
X91906403Y-110957379D01*
X91956645Y-111092086D01*
X91956649Y-111092093D01*
X92042809Y-111207187D01*
X92042812Y-111207190D01*
X92157906Y-111293350D01*
X92157913Y-111293354D01*
X92292620Y-111343596D01*
X92292627Y-111343598D01*
X92352155Y-111349999D01*
X92352172Y-111350000D01*
X93000000Y-111350000D01*
X93000000Y-110433012D01*
X93057007Y-110465925D01*
X93184174Y-110500000D01*
X93315826Y-110500000D01*
X93442993Y-110465925D01*
X93500000Y-110433012D01*
X93500000Y-111350000D01*
X94147828Y-111350000D01*
X94147844Y-111349999D01*
X94207372Y-111343598D01*
X94207379Y-111343596D01*
X94342086Y-111293354D01*
X94342093Y-111293350D01*
X94457187Y-111207190D01*
X94457190Y-111207187D01*
X94543350Y-111092093D01*
X94543354Y-111092086D01*
X94593596Y-110957379D01*
X94593598Y-110957372D01*
X94599999Y-110897844D01*
X94600000Y-110897827D01*
X94600000Y-110250000D01*
X93683012Y-110250000D01*
X93715925Y-110192993D01*
X93750000Y-110065826D01*
X93750000Y-109934174D01*
X93715925Y-109807007D01*
X93683012Y-109750000D01*
X94600000Y-109750000D01*
X94600000Y-109102172D01*
X94599999Y-109102155D01*
X94593598Y-109042627D01*
X94593596Y-109042620D01*
X94543354Y-108907913D01*
X94543350Y-108907906D01*
X94457190Y-108792812D01*
X94457187Y-108792809D01*
X94342093Y-108706649D01*
X94342086Y-108706645D01*
X94207379Y-108656403D01*
X94207372Y-108656401D01*
X94147844Y-108650000D01*
X93500000Y-108650000D01*
X93500000Y-109566988D01*
X93442993Y-109534075D01*
X93315826Y-109500000D01*
X93184174Y-109500000D01*
X93057007Y-109534075D01*
X93000000Y-109566988D01*
X93000000Y-108650000D01*
X92352155Y-108650000D01*
X92292627Y-108656401D01*
X92292620Y-108656403D01*
X92157913Y-108706645D01*
X92157906Y-108706649D01*
X92042812Y-108792809D01*
X92042809Y-108792812D01*
X91956649Y-108907906D01*
X91956645Y-108907913D01*
X91906403Y-109042620D01*
X91906401Y-109042627D01*
X91900000Y-109102155D01*
X63000000Y-109102155D01*
X63000000Y-107250000D01*
X56122382Y-107250000D01*
X56055343Y-107230315D01*
X56009588Y-107177511D01*
X55998382Y-107126028D01*
X55997445Y-102999984D01*
X76799500Y-102999984D01*
X76799500Y-105000015D01*
X76810000Y-105102795D01*
X76810001Y-105102797D01*
X76816904Y-105123629D01*
X76865186Y-105269335D01*
X76865187Y-105269337D01*
X76957286Y-105418651D01*
X76957289Y-105418655D01*
X77081344Y-105542710D01*
X77081348Y-105542713D01*
X77230662Y-105634812D01*
X77230664Y-105634813D01*
X77230666Y-105634814D01*
X77397203Y-105689999D01*
X77499992Y-105700500D01*
X77499997Y-105700500D01*
X79500003Y-105700500D01*
X79500008Y-105700500D01*
X79602797Y-105689999D01*
X79769334Y-105634814D01*
X79918655Y-105542711D01*
X80042711Y-105418655D01*
X80134814Y-105269334D01*
X80189999Y-105102797D01*
X80200500Y-105000008D01*
X80200500Y-102999992D01*
X80189999Y-102897203D01*
X80134814Y-102730666D01*
X80127468Y-102718757D01*
X80042713Y-102581348D01*
X80042710Y-102581344D01*
X79939048Y-102477682D01*
X89200000Y-102477682D01*
X89200000Y-102682317D01*
X89232009Y-102884417D01*
X89295244Y-103079031D01*
X89388141Y-103261350D01*
X89388147Y-103261359D01*
X89420523Y-103305921D01*
X89420524Y-103305922D01*
X90100000Y-102626446D01*
X90100000Y-102632661D01*
X90127259Y-102734394D01*
X90179920Y-102825606D01*
X90254394Y-102900080D01*
X90345606Y-102952741D01*
X90447339Y-102980000D01*
X90453553Y-102980000D01*
X89774076Y-103659474D01*
X89818650Y-103691859D01*
X90000968Y-103784755D01*
X90195582Y-103847990D01*
X90397683Y-103880000D01*
X90602317Y-103880000D01*
X90804417Y-103847990D01*
X90999031Y-103784755D01*
X91181349Y-103691859D01*
X91225921Y-103659474D01*
X90546447Y-102980000D01*
X90552661Y-102980000D01*
X90654394Y-102952741D01*
X90745606Y-102900080D01*
X90820080Y-102825606D01*
X90872741Y-102734394D01*
X90900000Y-102632661D01*
X90900000Y-102626447D01*
X91579474Y-103305921D01*
X91611859Y-103261349D01*
X91704755Y-103079031D01*
X91767990Y-102884417D01*
X91800000Y-102682317D01*
X91800000Y-102477682D01*
X94950000Y-102477682D01*
X94950000Y-102682317D01*
X94982009Y-102884417D01*
X95045244Y-103079031D01*
X95138141Y-103261350D01*
X95138147Y-103261359D01*
X95170523Y-103305921D01*
X95170524Y-103305922D01*
X95850000Y-102626446D01*
X95850000Y-102632661D01*
X95877259Y-102734394D01*
X95929920Y-102825606D01*
X96004394Y-102900080D01*
X96095606Y-102952741D01*
X96197339Y-102980000D01*
X96203553Y-102980000D01*
X95524076Y-103659474D01*
X95568650Y-103691859D01*
X95750968Y-103784755D01*
X95945582Y-103847990D01*
X96147683Y-103880000D01*
X96352317Y-103880000D01*
X96554417Y-103847990D01*
X96749031Y-103784755D01*
X96931349Y-103691859D01*
X96975921Y-103659474D01*
X96296447Y-102980000D01*
X96302661Y-102980000D01*
X96404394Y-102952741D01*
X96495606Y-102900080D01*
X96570080Y-102825606D01*
X96622741Y-102734394D01*
X96650000Y-102632661D01*
X96650000Y-102626447D01*
X97329474Y-103305921D01*
X97361859Y-103261349D01*
X97454755Y-103079031D01*
X97517990Y-102884417D01*
X97550000Y-102682317D01*
X97550000Y-102477682D01*
X97517990Y-102275582D01*
X97454755Y-102080968D01*
X97361859Y-101898650D01*
X97329474Y-101854077D01*
X97329474Y-101854076D01*
X96650000Y-102533551D01*
X96650000Y-102527339D01*
X96622741Y-102425606D01*
X96570080Y-102334394D01*
X96495606Y-102259920D01*
X96404394Y-102207259D01*
X96302661Y-102180000D01*
X96296446Y-102180000D01*
X96975922Y-101500524D01*
X96975921Y-101500523D01*
X96931359Y-101468147D01*
X96931350Y-101468141D01*
X96749031Y-101375244D01*
X96554417Y-101312009D01*
X96352317Y-101280000D01*
X96147683Y-101280000D01*
X95945582Y-101312009D01*
X95750968Y-101375244D01*
X95568644Y-101468143D01*
X95524077Y-101500523D01*
X95524077Y-101500524D01*
X96203554Y-102180000D01*
X96197339Y-102180000D01*
X96095606Y-102207259D01*
X96004394Y-102259920D01*
X95929920Y-102334394D01*
X95877259Y-102425606D01*
X95850000Y-102527339D01*
X95850000Y-102533553D01*
X95170524Y-101854077D01*
X95170523Y-101854077D01*
X95138143Y-101898644D01*
X95045244Y-102080968D01*
X94982009Y-102275582D01*
X94950000Y-102477682D01*
X91800000Y-102477682D01*
X91767990Y-102275582D01*
X91704755Y-102080968D01*
X91611859Y-101898650D01*
X91579474Y-101854077D01*
X91579474Y-101854076D01*
X90900000Y-102533551D01*
X90900000Y-102527339D01*
X90872741Y-102425606D01*
X90820080Y-102334394D01*
X90745606Y-102259920D01*
X90654394Y-102207259D01*
X90552661Y-102180000D01*
X90546446Y-102180000D01*
X91225922Y-101500524D01*
X91225921Y-101500523D01*
X91181359Y-101468147D01*
X91181350Y-101468141D01*
X90999031Y-101375244D01*
X90804417Y-101312009D01*
X90602317Y-101280000D01*
X90397683Y-101280000D01*
X90195582Y-101312009D01*
X90000968Y-101375244D01*
X89818644Y-101468143D01*
X89774077Y-101500523D01*
X89774077Y-101500524D01*
X90453554Y-102180000D01*
X90447339Y-102180000D01*
X90345606Y-102207259D01*
X90254394Y-102259920D01*
X90179920Y-102334394D01*
X90127259Y-102425606D01*
X90100000Y-102527339D01*
X90100000Y-102533553D01*
X89420524Y-101854077D01*
X89420523Y-101854077D01*
X89388143Y-101898644D01*
X89295244Y-102080968D01*
X89232009Y-102275582D01*
X89200000Y-102477682D01*
X79939048Y-102477682D01*
X79918655Y-102457289D01*
X79918651Y-102457286D01*
X79769337Y-102365187D01*
X79769335Y-102365186D01*
X79676410Y-102334394D01*
X79602797Y-102310001D01*
X79602795Y-102310000D01*
X79500015Y-102299500D01*
X79500008Y-102299500D01*
X77499992Y-102299500D01*
X77499984Y-102299500D01*
X77397204Y-102310000D01*
X77397203Y-102310001D01*
X77230664Y-102365186D01*
X77230662Y-102365187D01*
X77081348Y-102457286D01*
X77081344Y-102457289D01*
X76957289Y-102581344D01*
X76957286Y-102581348D01*
X76865187Y-102730662D01*
X76865186Y-102730664D01*
X76810001Y-102897203D01*
X76810000Y-102897204D01*
X76799500Y-102999984D01*
X55997445Y-102999984D01*
X55997444Y-102996863D01*
X55997115Y-101547811D01*
X55996268Y-97818031D01*
X55995944Y-96388575D01*
X76800000Y-96388575D01*
X76800000Y-96611424D01*
X76829085Y-96832354D01*
X76829088Y-96832367D01*
X76886763Y-97047618D01*
X76972045Y-97253502D01*
X76972054Y-97253520D01*
X77083464Y-97446491D01*
X77083473Y-97446504D01*
X77134040Y-97512403D01*
X77134043Y-97512403D01*
X77935387Y-96711059D01*
X77940889Y-96731591D01*
X78019881Y-96868408D01*
X78131592Y-96980119D01*
X78268409Y-97059111D01*
X78288940Y-97064612D01*
X77487595Y-97865955D01*
X77487595Y-97865956D01*
X77553507Y-97916533D01*
X77746485Y-98027949D01*
X77746497Y-98027954D01*
X77952381Y-98113236D01*
X78167632Y-98170911D01*
X78167645Y-98170914D01*
X78388575Y-98200000D01*
X78611425Y-98200000D01*
X78832354Y-98170914D01*
X78832367Y-98170911D01*
X79047618Y-98113236D01*
X79253502Y-98027954D01*
X79253514Y-98027949D01*
X79446498Y-97916530D01*
X79512403Y-97865957D01*
X79512404Y-97865956D01*
X78711059Y-97064612D01*
X78731591Y-97059111D01*
X78868408Y-96980119D01*
X78980119Y-96868408D01*
X79059111Y-96731591D01*
X79064612Y-96711059D01*
X79865956Y-97512404D01*
X79865957Y-97512403D01*
X79916530Y-97446498D01*
X80027949Y-97253514D01*
X80027954Y-97253502D01*
X80113236Y-97047618D01*
X80170911Y-96832367D01*
X80170914Y-96832354D01*
X80200000Y-96611424D01*
X80200000Y-96388575D01*
X80170914Y-96167645D01*
X80170911Y-96167632D01*
X80113236Y-95952381D01*
X80027954Y-95746497D01*
X80027949Y-95746485D01*
X79916533Y-95553507D01*
X79865956Y-95487595D01*
X79865955Y-95487595D01*
X79064612Y-96288939D01*
X79059111Y-96268409D01*
X78980119Y-96131592D01*
X78868408Y-96019881D01*
X78731591Y-95940889D01*
X78711058Y-95935387D01*
X79512403Y-95134043D01*
X79512403Y-95134040D01*
X79446504Y-95083473D01*
X79446491Y-95083464D01*
X79253520Y-94972054D01*
X79253502Y-94972045D01*
X79047618Y-94886763D01*
X78832367Y-94829088D01*
X78832354Y-94829085D01*
X78611425Y-94800000D01*
X78388575Y-94800000D01*
X78167645Y-94829085D01*
X78167632Y-94829088D01*
X77952381Y-94886763D01*
X77746497Y-94972045D01*
X77746479Y-94972054D01*
X77553511Y-95083462D01*
X77487595Y-95134042D01*
X78288941Y-95935387D01*
X78268409Y-95940889D01*
X78131592Y-96019881D01*
X78019881Y-96131592D01*
X77940889Y-96268409D01*
X77935387Y-96288940D01*
X77134042Y-95487595D01*
X77083462Y-95553511D01*
X76972054Y-95746479D01*
X76972045Y-95746497D01*
X76886763Y-95952381D01*
X76829088Y-96167632D01*
X76829085Y-96167645D01*
X76800000Y-96388575D01*
X55995944Y-96388575D01*
X55995943Y-96384545D01*
X55995670Y-95182023D01*
X55995019Y-92317648D01*
X89199500Y-92317648D01*
X89199500Y-92522351D01*
X89231522Y-92724534D01*
X89294781Y-92919223D01*
X89387715Y-93101613D01*
X89508028Y-93267213D01*
X89652786Y-93411971D01*
X89807749Y-93524556D01*
X89818390Y-93532287D01*
X89934607Y-93591503D01*
X90000776Y-93625218D01*
X90000778Y-93625218D01*
X90000781Y-93625220D01*
X90105137Y-93659127D01*
X90195465Y-93688477D01*
X90296557Y-93704488D01*
X90397648Y-93720500D01*
X90397649Y-93720500D01*
X90602351Y-93720500D01*
X90602352Y-93720500D01*
X90804534Y-93688477D01*
X90999219Y-93625220D01*
X91181610Y-93532287D01*
X91274590Y-93464732D01*
X91347213Y-93411971D01*
X91347215Y-93411968D01*
X91347219Y-93411966D01*
X91491966Y-93267219D01*
X91491968Y-93267215D01*
X91491971Y-93267213D01*
X91544732Y-93194590D01*
X91612287Y-93101610D01*
X91705220Y-92919219D01*
X91768477Y-92724534D01*
X91800500Y-92522352D01*
X91800500Y-92317648D01*
X91768477Y-92115466D01*
X91705220Y-91920781D01*
X91705218Y-91920778D01*
X91705218Y-91920776D01*
X91671503Y-91854607D01*
X91612287Y-91738390D01*
X91576849Y-91689613D01*
X91491971Y-91572786D01*
X91347213Y-91428028D01*
X91181613Y-91307715D01*
X91181612Y-91307714D01*
X91181610Y-91307713D01*
X91124653Y-91278691D01*
X90999223Y-91214781D01*
X90804534Y-91151522D01*
X90629995Y-91123878D01*
X90602352Y-91119500D01*
X90397648Y-91119500D01*
X90373329Y-91123351D01*
X90195465Y-91151522D01*
X90000776Y-91214781D01*
X89818386Y-91307715D01*
X89652786Y-91428028D01*
X89508028Y-91572786D01*
X89387715Y-91738386D01*
X89294781Y-91920776D01*
X89231522Y-92115465D01*
X89199500Y-92317648D01*
X55995019Y-92317648D01*
X55995018Y-92312804D01*
X55993819Y-87032243D01*
X55993561Y-85897682D01*
X75870000Y-85897682D01*
X75870000Y-86102317D01*
X75902009Y-86304417D01*
X75965244Y-86499031D01*
X76058141Y-86681350D01*
X76058147Y-86681359D01*
X76090523Y-86725921D01*
X76090524Y-86725922D01*
X76770000Y-86046446D01*
X76770000Y-86052661D01*
X76797259Y-86154394D01*
X76849920Y-86245606D01*
X76924394Y-86320080D01*
X77015606Y-86372741D01*
X77117339Y-86400000D01*
X77123553Y-86400000D01*
X76444076Y-87079474D01*
X76488650Y-87111859D01*
X76670968Y-87204755D01*
X76865582Y-87267990D01*
X77067683Y-87300000D01*
X77272317Y-87300000D01*
X77474417Y-87267990D01*
X77669031Y-87204755D01*
X77851349Y-87111859D01*
X77895921Y-87079474D01*
X77216447Y-86400000D01*
X77222661Y-86400000D01*
X77324394Y-86372741D01*
X77415606Y-86320080D01*
X77490080Y-86245606D01*
X77542741Y-86154394D01*
X77570000Y-86052661D01*
X77570000Y-86046447D01*
X78249474Y-86725921D01*
X78281859Y-86681349D01*
X78374755Y-86499031D01*
X78437990Y-86304417D01*
X78470000Y-86102317D01*
X78470000Y-85897682D01*
X78437990Y-85695582D01*
X78374755Y-85500968D01*
X78281859Y-85318650D01*
X78249474Y-85274077D01*
X78249474Y-85274076D01*
X77570000Y-85953551D01*
X77570000Y-85947339D01*
X77542741Y-85845606D01*
X77490080Y-85754394D01*
X77415606Y-85679920D01*
X77324394Y-85627259D01*
X77222661Y-85600000D01*
X77216446Y-85600000D01*
X77895922Y-84920524D01*
X77895921Y-84920523D01*
X77851359Y-84888147D01*
X77851350Y-84888141D01*
X77669031Y-84795244D01*
X77474417Y-84732009D01*
X77272317Y-84700000D01*
X77067683Y-84700000D01*
X76865582Y-84732009D01*
X76670968Y-84795244D01*
X76488644Y-84888143D01*
X76444077Y-84920523D01*
X76444077Y-84920524D01*
X77123554Y-85600000D01*
X77117339Y-85600000D01*
X77015606Y-85627259D01*
X76924394Y-85679920D01*
X76849920Y-85754394D01*
X76797259Y-85845606D01*
X76770000Y-85947339D01*
X76770000Y-85953553D01*
X76090524Y-85274077D01*
X76090523Y-85274077D01*
X76058143Y-85318644D01*
X75965244Y-85500968D01*
X75902009Y-85695582D01*
X75870000Y-85897682D01*
X55993561Y-85897682D01*
X55993560Y-85892844D01*
X55993350Y-84967811D01*
X55993205Y-84329054D01*
X83149498Y-84329054D01*
X83190423Y-84481785D01*
X83219358Y-84531900D01*
X83219359Y-84531904D01*
X83219360Y-84531904D01*
X83269479Y-84618714D01*
X83269481Y-84618717D01*
X83388349Y-84737585D01*
X83388354Y-84737589D01*
X85131284Y-86480520D01*
X85131286Y-86480521D01*
X85131290Y-86480524D01*
X85252492Y-86550499D01*
X85268216Y-86559577D01*
X85420943Y-86600501D01*
X85420945Y-86600501D01*
X85586654Y-86600501D01*
X85586670Y-86600500D01*
X86100398Y-86600500D01*
X86167437Y-86620185D01*
X86210883Y-86668205D01*
X86217715Y-86681614D01*
X86338028Y-86847213D01*
X86482786Y-86991971D01*
X86603226Y-87079474D01*
X86648390Y-87112287D01*
X86764607Y-87171503D01*
X86830776Y-87205218D01*
X86830778Y-87205218D01*
X86830781Y-87205220D01*
X86935137Y-87239127D01*
X87025465Y-87268477D01*
X87126557Y-87284488D01*
X87227648Y-87300500D01*
X87227649Y-87300500D01*
X87432351Y-87300500D01*
X87432352Y-87300500D01*
X87634534Y-87268477D01*
X87829219Y-87205220D01*
X88011610Y-87112287D01*
X88121782Y-87032243D01*
X88177213Y-86991971D01*
X88177215Y-86991968D01*
X88177219Y-86991966D01*
X88321966Y-86847219D01*
X88321968Y-86847215D01*
X88321971Y-86847213D01*
X88374732Y-86774590D01*
X88442287Y-86681610D01*
X88535220Y-86499219D01*
X88598477Y-86304534D01*
X88630500Y-86102352D01*
X88630500Y-85897648D01*
X88622257Y-85845606D01*
X88598477Y-85695465D01*
X88561397Y-85581345D01*
X88535220Y-85500781D01*
X88535218Y-85500778D01*
X88535218Y-85500776D01*
X88501503Y-85434607D01*
X88442287Y-85318390D01*
X88434556Y-85307749D01*
X88321971Y-85152786D01*
X88177213Y-85008028D01*
X88011613Y-84887715D01*
X88011612Y-84887714D01*
X88011610Y-84887713D01*
X87954653Y-84858691D01*
X87829223Y-84794781D01*
X87634534Y-84731522D01*
X87459995Y-84703878D01*
X87432352Y-84699500D01*
X87227648Y-84699500D01*
X87203329Y-84703351D01*
X87025465Y-84731522D01*
X86830776Y-84794781D01*
X86648386Y-84887715D01*
X86482786Y-85008028D01*
X86338028Y-85152786D01*
X86217715Y-85318385D01*
X86210883Y-85331795D01*
X86162909Y-85382591D01*
X86100398Y-85399500D01*
X85800098Y-85399500D01*
X85733059Y-85379815D01*
X85712417Y-85363181D01*
X84386819Y-84037583D01*
X84353334Y-83976260D01*
X84350500Y-83949902D01*
X84350500Y-81050097D01*
X84370185Y-80983058D01*
X84386819Y-80962416D01*
X84962417Y-80386819D01*
X85023740Y-80353334D01*
X85050098Y-80350500D01*
X86100398Y-80350500D01*
X86167437Y-80370185D01*
X86210883Y-80418205D01*
X86217715Y-80431614D01*
X86338028Y-80597213D01*
X86482786Y-80741971D01*
X86608151Y-80833052D01*
X86648390Y-80862287D01*
X86764607Y-80921503D01*
X86830776Y-80955218D01*
X86830778Y-80955218D01*
X86830781Y-80955220D01*
X86909090Y-80980664D01*
X87025465Y-81018477D01*
X87126557Y-81034488D01*
X87227648Y-81050500D01*
X87227649Y-81050500D01*
X87432351Y-81050500D01*
X87432352Y-81050500D01*
X87634534Y-81018477D01*
X87829219Y-80955220D01*
X88011610Y-80862287D01*
X88104590Y-80794732D01*
X88177213Y-80741971D01*
X88177215Y-80741968D01*
X88177219Y-80741966D01*
X88321966Y-80597219D01*
X88321968Y-80597215D01*
X88321971Y-80597213D01*
X88411101Y-80474534D01*
X88442287Y-80431610D01*
X88535220Y-80249219D01*
X88587569Y-80088106D01*
X88627007Y-80030430D01*
X88691365Y-80003232D01*
X88760212Y-80015147D01*
X88811687Y-80062391D01*
X88829500Y-80126424D01*
X88829500Y-80272351D01*
X88861522Y-80474534D01*
X88924781Y-80669223D01*
X88961849Y-80741971D01*
X89008260Y-80833058D01*
X89017715Y-80851613D01*
X89138028Y-81017213D01*
X89282786Y-81161971D01*
X89403928Y-81249984D01*
X89448390Y-81282287D01*
X89539840Y-81328883D01*
X89541080Y-81329515D01*
X89591876Y-81377490D01*
X89608671Y-81445311D01*
X89586134Y-81511446D01*
X89541080Y-81550485D01*
X89448386Y-81597715D01*
X89282786Y-81718028D01*
X89138028Y-81862786D01*
X89017715Y-82028386D01*
X88924781Y-82210776D01*
X88861522Y-82405465D01*
X88849305Y-82482604D01*
X88819375Y-82545739D01*
X88760064Y-82582670D01*
X88690201Y-82581672D01*
X88631969Y-82543062D01*
X88604359Y-82482603D01*
X88598477Y-82445465D01*
X88567458Y-82350000D01*
X88535220Y-82250781D01*
X88535218Y-82250778D01*
X88535218Y-82250776D01*
X88501503Y-82184607D01*
X88442287Y-82068390D01*
X88410092Y-82024077D01*
X88321971Y-81902786D01*
X88177213Y-81758028D01*
X88011613Y-81637715D01*
X88011612Y-81637714D01*
X88011610Y-81637713D01*
X87933106Y-81597713D01*
X87829223Y-81544781D01*
X87634534Y-81481522D01*
X87459995Y-81453878D01*
X87432352Y-81449500D01*
X87227648Y-81449500D01*
X87203329Y-81453351D01*
X87025465Y-81481522D01*
X86830776Y-81544781D01*
X86648386Y-81637715D01*
X86482786Y-81758028D01*
X86338028Y-81902786D01*
X86217715Y-82068386D01*
X86124781Y-82250776D01*
X86061522Y-82445465D01*
X86029500Y-82647648D01*
X86029500Y-82852351D01*
X86061522Y-83054534D01*
X86124781Y-83249223D01*
X86177555Y-83352795D01*
X86217585Y-83431359D01*
X86217715Y-83431613D01*
X86338028Y-83597213D01*
X86482786Y-83741971D01*
X86593330Y-83822284D01*
X86648390Y-83862287D01*
X86739196Y-83908555D01*
X86830776Y-83955218D01*
X86830778Y-83955218D01*
X86830781Y-83955220D01*
X86923392Y-83985311D01*
X87025465Y-84018477D01*
X87126557Y-84034488D01*
X87227648Y-84050500D01*
X87227649Y-84050500D01*
X87432351Y-84050500D01*
X87432352Y-84050500D01*
X87634534Y-84018477D01*
X87829219Y-83955220D01*
X88011610Y-83862287D01*
X88107375Y-83792710D01*
X88177213Y-83741971D01*
X88177215Y-83741968D01*
X88177219Y-83741966D01*
X88321966Y-83597219D01*
X88321968Y-83597215D01*
X88321971Y-83597213D01*
X88378552Y-83519334D01*
X88442287Y-83431610D01*
X88535220Y-83249219D01*
X88598477Y-83054534D01*
X88610695Y-82977390D01*
X88640622Y-82914261D01*
X88699934Y-82877329D01*
X88769796Y-82878327D01*
X88828029Y-82916936D01*
X88855640Y-82977393D01*
X88861523Y-83014536D01*
X88924781Y-83209223D01*
X88988691Y-83334653D01*
X89008551Y-83373629D01*
X89017715Y-83391613D01*
X89138028Y-83557213D01*
X89282786Y-83701971D01*
X89437749Y-83814556D01*
X89448390Y-83822287D01*
X89529679Y-83863706D01*
X89541080Y-83869515D01*
X89591876Y-83917490D01*
X89608671Y-83985311D01*
X89586134Y-84051446D01*
X89541080Y-84090485D01*
X89448386Y-84137715D01*
X89282786Y-84258028D01*
X89138028Y-84402786D01*
X89017715Y-84568386D01*
X88924781Y-84750776D01*
X88861522Y-84945465D01*
X88829500Y-85147648D01*
X88829500Y-85352351D01*
X88861522Y-85554534D01*
X88924781Y-85749223D01*
X88976135Y-85850009D01*
X89000408Y-85897648D01*
X89017715Y-85931613D01*
X89138028Y-86097213D01*
X89282786Y-86241971D01*
X89436369Y-86353553D01*
X89448390Y-86362287D01*
X89564607Y-86421503D01*
X89630776Y-86455218D01*
X89630778Y-86455218D01*
X89630781Y-86455220D01*
X89708659Y-86480524D01*
X89825465Y-86518477D01*
X89926557Y-86534488D01*
X90027648Y-86550500D01*
X90027649Y-86550500D01*
X90232351Y-86550500D01*
X90232352Y-86550500D01*
X90434534Y-86518477D01*
X90629219Y-86455220D01*
X90811610Y-86362287D01*
X90940482Y-86268657D01*
X90977213Y-86241971D01*
X90977215Y-86241968D01*
X90977219Y-86241966D01*
X91121966Y-86097219D01*
X91121968Y-86097215D01*
X91121971Y-86097213D01*
X91226892Y-85952799D01*
X91242287Y-85931610D01*
X91335220Y-85749219D01*
X91398477Y-85554534D01*
X91430500Y-85352352D01*
X91430500Y-85147648D01*
X91398477Y-84945466D01*
X91335220Y-84750781D01*
X91335218Y-84750778D01*
X91335218Y-84750776D01*
X91283865Y-84649991D01*
X91242287Y-84568390D01*
X91215776Y-84531900D01*
X91121971Y-84402786D01*
X90977213Y-84258028D01*
X90811614Y-84137715D01*
X90805006Y-84134348D01*
X90718917Y-84090483D01*
X90668123Y-84042511D01*
X90651328Y-83974690D01*
X90673865Y-83908555D01*
X90718917Y-83869516D01*
X90811610Y-83822287D01*
X90832770Y-83806913D01*
X90977213Y-83701971D01*
X90977215Y-83701968D01*
X90977219Y-83701966D01*
X91121966Y-83557219D01*
X91121968Y-83557215D01*
X91121971Y-83557213D01*
X91213223Y-83431613D01*
X91242287Y-83391610D01*
X91335220Y-83209219D01*
X91398477Y-83014534D01*
X91430500Y-82812352D01*
X91430500Y-82607648D01*
X91410695Y-82482604D01*
X91398477Y-82405465D01*
X91369127Y-82315137D01*
X91335220Y-82210781D01*
X91335218Y-82210778D01*
X91335218Y-82210776D01*
X91296359Y-82134512D01*
X91242287Y-82028390D01*
X91161756Y-81917547D01*
X91121971Y-81862786D01*
X90977213Y-81718028D01*
X90811614Y-81597715D01*
X90805006Y-81594348D01*
X90718917Y-81550483D01*
X90668123Y-81502511D01*
X90651328Y-81434690D01*
X90673865Y-81368555D01*
X90718917Y-81329516D01*
X90811610Y-81282287D01*
X90856072Y-81249984D01*
X90977213Y-81161971D01*
X90977215Y-81161968D01*
X90977219Y-81161966D01*
X91121966Y-81017219D01*
X91121968Y-81017215D01*
X91121971Y-81017213D01*
X91174732Y-80944590D01*
X91242287Y-80851610D01*
X91335220Y-80669219D01*
X91398477Y-80474534D01*
X91427497Y-80291309D01*
X94099500Y-80291309D01*
X94099500Y-80295588D01*
X94099500Y-91258696D01*
X94134103Y-91432658D01*
X94134105Y-91432666D01*
X94165526Y-91508524D01*
X94165529Y-91508529D01*
X94168046Y-91514606D01*
X94201987Y-91596547D01*
X94261063Y-91684959D01*
X94264169Y-91689607D01*
X94264172Y-91689613D01*
X94300534Y-91744034D01*
X94913181Y-92356681D01*
X94946666Y-92418004D01*
X94949500Y-92444362D01*
X94949500Y-92522351D01*
X94981522Y-92724534D01*
X95044781Y-92919223D01*
X95137715Y-93101613D01*
X95258028Y-93267213D01*
X95402786Y-93411971D01*
X95557749Y-93524556D01*
X95568390Y-93532287D01*
X95684607Y-93591503D01*
X95750776Y-93625218D01*
X95750778Y-93625218D01*
X95750781Y-93625220D01*
X95855137Y-93659127D01*
X95945465Y-93688477D01*
X96046557Y-93704488D01*
X96147648Y-93720500D01*
X96147649Y-93720500D01*
X96352351Y-93720500D01*
X96352352Y-93720500D01*
X96554534Y-93688477D01*
X96749219Y-93625220D01*
X96931610Y-93532287D01*
X97024590Y-93464732D01*
X97097213Y-93411971D01*
X97097215Y-93411968D01*
X97097219Y-93411966D01*
X97152366Y-93356819D01*
X97213689Y-93323334D01*
X97240047Y-93320500D01*
X101508393Y-93320500D01*
X101575432Y-93340185D01*
X101596074Y-93356819D01*
X109063181Y-100823925D01*
X109096666Y-100885248D01*
X109099500Y-100911606D01*
X109099500Y-102486394D01*
X109079815Y-102553433D01*
X109050986Y-102584770D01*
X108876377Y-102718751D01*
X108876370Y-102718757D01*
X108718757Y-102876370D01*
X108718751Y-102876377D01*
X108583058Y-103053217D01*
X108583052Y-103053226D01*
X108471595Y-103246273D01*
X108471593Y-103246277D01*
X108386293Y-103452209D01*
X108386290Y-103452219D01*
X108330757Y-103659474D01*
X108328597Y-103667534D01*
X108328594Y-103667547D01*
X108299501Y-103888533D01*
X108299500Y-103888549D01*
X108299500Y-104111450D01*
X108299501Y-104111466D01*
X108328594Y-104332452D01*
X108328595Y-104332457D01*
X108328596Y-104332463D01*
X108328597Y-104332465D01*
X108386290Y-104547780D01*
X108386293Y-104547790D01*
X108471593Y-104753722D01*
X108471595Y-104753726D01*
X108583052Y-104946774D01*
X108583057Y-104946780D01*
X108583058Y-104946782D01*
X108718751Y-105123622D01*
X108718757Y-105123629D01*
X108876370Y-105281242D01*
X108876377Y-105281248D01*
X109050986Y-105415229D01*
X109092189Y-105471656D01*
X109099500Y-105513605D01*
X109099500Y-109048560D01*
X109079815Y-109115599D01*
X109027011Y-109161354D01*
X109018833Y-109164742D01*
X108907671Y-109206202D01*
X108907664Y-109206206D01*
X108792455Y-109292452D01*
X108792452Y-109292455D01*
X108706206Y-109407664D01*
X108706202Y-109407671D01*
X108655908Y-109542517D01*
X108649739Y-109599901D01*
X108649501Y-109602123D01*
X108649500Y-109602135D01*
X108649500Y-111397870D01*
X108649501Y-111397876D01*
X108655908Y-111457483D01*
X108706202Y-111592328D01*
X108706206Y-111592335D01*
X108792452Y-111707544D01*
X108792455Y-111707547D01*
X108907664Y-111793793D01*
X108907671Y-111793797D01*
X109042517Y-111844091D01*
X109042516Y-111844091D01*
X109049444Y-111844835D01*
X109102127Y-111850500D01*
X110897872Y-111850499D01*
X110957483Y-111844091D01*
X111092331Y-111793796D01*
X111207546Y-111707546D01*
X111293796Y-111592331D01*
X111344091Y-111457483D01*
X111350500Y-111397873D01*
X111350499Y-109602128D01*
X111344091Y-109542517D01*
X111340942Y-109534075D01*
X111293797Y-109407671D01*
X111293793Y-109407664D01*
X111207547Y-109292455D01*
X111207544Y-109292452D01*
X111092335Y-109206206D01*
X111092329Y-109206203D01*
X110981166Y-109164741D01*
X110925233Y-109122869D01*
X110900816Y-109057405D01*
X110900500Y-109048559D01*
X110900500Y-105513605D01*
X110920185Y-105446566D01*
X110949014Y-105415229D01*
X111123624Y-105281247D01*
X111281247Y-105123624D01*
X111416948Y-104946774D01*
X111528405Y-104753726D01*
X111613710Y-104547781D01*
X111671404Y-104332463D01*
X111700500Y-104111457D01*
X111700500Y-103888543D01*
X111671404Y-103667537D01*
X111613710Y-103452219D01*
X111528405Y-103246274D01*
X111416948Y-103053226D01*
X111281247Y-102876376D01*
X111281242Y-102876370D01*
X111123629Y-102718757D01*
X111123622Y-102718751D01*
X110949014Y-102584770D01*
X110907811Y-102528342D01*
X110900500Y-102486394D01*
X110900500Y-100398551D01*
X110900499Y-100398549D01*
X110865896Y-100224586D01*
X110865893Y-100224577D01*
X110798016Y-100060704D01*
X110798009Y-100060691D01*
X110699465Y-99913211D01*
X110699464Y-99913210D01*
X110574035Y-99787781D01*
X109197934Y-98411680D01*
X109164450Y-98350358D01*
X109169434Y-98280666D01*
X109211306Y-98224733D01*
X109276770Y-98200316D01*
X109285616Y-98200000D01*
X109750000Y-98200000D01*
X109750000Y-97048482D01*
X109768409Y-97059111D01*
X109921009Y-97100000D01*
X110078991Y-97100000D01*
X110231591Y-97059111D01*
X110250000Y-97048482D01*
X110250000Y-98200000D01*
X110999973Y-98200000D01*
X110999985Y-98199999D01*
X111102689Y-98189506D01*
X111102696Y-98189505D01*
X111269118Y-98134358D01*
X111269123Y-98134356D01*
X111418344Y-98042315D01*
X111542315Y-97918344D01*
X111634356Y-97769123D01*
X111634358Y-97769118D01*
X111689505Y-97602696D01*
X111689506Y-97602689D01*
X111699999Y-97499985D01*
X111700000Y-97499972D01*
X111700000Y-96750000D01*
X110548482Y-96750000D01*
X110559111Y-96731591D01*
X110600000Y-96578991D01*
X110600000Y-96421009D01*
X110559111Y-96268409D01*
X110548482Y-96250000D01*
X111700000Y-96250000D01*
X111700000Y-95500027D01*
X111699999Y-95500014D01*
X111689506Y-95397310D01*
X111689505Y-95397303D01*
X111634358Y-95230881D01*
X111634356Y-95230876D01*
X111542315Y-95081655D01*
X111418344Y-94957684D01*
X111269123Y-94865643D01*
X111269118Y-94865641D01*
X111102696Y-94810494D01*
X111102689Y-94810493D01*
X110999985Y-94800000D01*
X110250000Y-94800000D01*
X110250000Y-95951517D01*
X110231591Y-95940889D01*
X110078991Y-95900000D01*
X109921009Y-95900000D01*
X109768409Y-95940889D01*
X109750000Y-95951517D01*
X109750000Y-94800000D01*
X109000014Y-94800000D01*
X108897310Y-94810493D01*
X108897303Y-94810494D01*
X108730881Y-94865641D01*
X108730876Y-94865643D01*
X108581655Y-94957684D01*
X108457684Y-95081655D01*
X108365643Y-95230876D01*
X108365641Y-95230881D01*
X108310494Y-95397303D01*
X108310493Y-95397310D01*
X108300000Y-95500014D01*
X108300000Y-96250000D01*
X109451518Y-96250000D01*
X109440889Y-96268409D01*
X109400000Y-96421009D01*
X109400000Y-96578991D01*
X109440889Y-96731591D01*
X109451518Y-96750000D01*
X108300000Y-96750000D01*
X108300000Y-97214383D01*
X108280315Y-97281422D01*
X108227511Y-97327177D01*
X108158353Y-97337121D01*
X108094797Y-97308096D01*
X108088319Y-97302064D01*
X102506790Y-91720535D01*
X102506785Y-91720531D01*
X102452377Y-91684178D01*
X102452371Y-91684175D01*
X102447714Y-91681063D01*
X102359302Y-91621987D01*
X102277361Y-91588046D01*
X102240520Y-91572786D01*
X102195421Y-91554105D01*
X102195413Y-91554103D01*
X102021451Y-91519500D01*
X102021447Y-91519500D01*
X102021446Y-91519500D01*
X97240047Y-91519500D01*
X97173008Y-91499815D01*
X97152366Y-91483181D01*
X97097213Y-91428028D01*
X96931613Y-91307715D01*
X96931612Y-91307714D01*
X96931610Y-91307713D01*
X96874653Y-91278691D01*
X96749223Y-91214781D01*
X96554534Y-91151522D01*
X96379995Y-91123878D01*
X96352352Y-91119500D01*
X96352351Y-91119500D01*
X96274362Y-91119500D01*
X96207323Y-91099815D01*
X96186681Y-91083181D01*
X95936819Y-90833319D01*
X95903334Y-90771996D01*
X95900500Y-90745638D01*
X95900500Y-89147648D01*
X99699500Y-89147648D01*
X99699500Y-89352351D01*
X99731522Y-89554534D01*
X99794781Y-89749223D01*
X99887715Y-89931613D01*
X100008028Y-90097213D01*
X100152786Y-90241971D01*
X100307749Y-90354556D01*
X100318390Y-90362287D01*
X100434607Y-90421503D01*
X100500776Y-90455218D01*
X100500778Y-90455218D01*
X100500781Y-90455220D01*
X100605137Y-90489127D01*
X100695465Y-90518477D01*
X100796557Y-90534488D01*
X100897648Y-90550500D01*
X100897649Y-90550500D01*
X101102351Y-90550500D01*
X101102352Y-90550500D01*
X101304534Y-90518477D01*
X101499219Y-90455220D01*
X101681610Y-90362287D01*
X101774590Y-90294732D01*
X101847213Y-90241971D01*
X101847215Y-90241968D01*
X101847219Y-90241966D01*
X101991966Y-90097219D01*
X101991968Y-90097215D01*
X101991971Y-90097213D01*
X102044732Y-90024590D01*
X102112287Y-89931610D01*
X102205220Y-89749219D01*
X102268477Y-89554534D01*
X102300500Y-89352352D01*
X102300500Y-89147648D01*
X109859500Y-89147648D01*
X109859500Y-89352351D01*
X109891522Y-89554534D01*
X109954781Y-89749223D01*
X110047715Y-89931613D01*
X110168028Y-90097213D01*
X110312786Y-90241971D01*
X110467749Y-90354556D01*
X110478390Y-90362287D01*
X110594607Y-90421503D01*
X110660776Y-90455218D01*
X110660778Y-90455218D01*
X110660781Y-90455220D01*
X110765137Y-90489127D01*
X110855465Y-90518477D01*
X110956557Y-90534488D01*
X111057648Y-90550500D01*
X111057649Y-90550500D01*
X111262351Y-90550500D01*
X111262352Y-90550500D01*
X111464534Y-90518477D01*
X111659219Y-90455220D01*
X111841610Y-90362287D01*
X111934590Y-90294732D01*
X112007213Y-90241971D01*
X112007215Y-90241968D01*
X112007219Y-90241966D01*
X112151966Y-90097219D01*
X112151968Y-90097215D01*
X112151971Y-90097213D01*
X112204732Y-90024590D01*
X112272287Y-89931610D01*
X112365220Y-89749219D01*
X112428477Y-89554534D01*
X112460500Y-89352352D01*
X112460500Y-89147648D01*
X112428477Y-88945466D01*
X112365220Y-88750781D01*
X112365218Y-88750778D01*
X112365218Y-88750776D01*
X112324774Y-88671402D01*
X112272287Y-88568390D01*
X112243237Y-88528406D01*
X112151971Y-88402786D01*
X112007213Y-88258028D01*
X111841613Y-88137715D01*
X111841612Y-88137714D01*
X111841610Y-88137713D01*
X111773080Y-88102795D01*
X111659223Y-88044781D01*
X111464534Y-87981522D01*
X111289995Y-87953878D01*
X111262352Y-87949500D01*
X111057648Y-87949500D01*
X111033329Y-87953351D01*
X110855465Y-87981522D01*
X110660776Y-88044781D01*
X110478386Y-88137715D01*
X110312786Y-88258028D01*
X110168028Y-88402786D01*
X110047715Y-88568386D01*
X109954781Y-88750776D01*
X109891522Y-88945465D01*
X109859500Y-89147648D01*
X102300500Y-89147648D01*
X102268477Y-88945466D01*
X102205220Y-88750781D01*
X102205218Y-88750778D01*
X102205218Y-88750776D01*
X102164774Y-88671402D01*
X102112287Y-88568390D01*
X102083237Y-88528406D01*
X101991971Y-88402786D01*
X101847213Y-88258028D01*
X101681613Y-88137715D01*
X101681612Y-88137714D01*
X101681610Y-88137713D01*
X101613080Y-88102795D01*
X101499223Y-88044781D01*
X101304534Y-87981522D01*
X101129995Y-87953878D01*
X101102352Y-87949500D01*
X100897648Y-87949500D01*
X100873329Y-87953351D01*
X100695465Y-87981522D01*
X100500776Y-88044781D01*
X100318386Y-88137715D01*
X100152786Y-88258028D01*
X100008028Y-88402786D01*
X99887715Y-88568386D01*
X99794781Y-88750776D01*
X99731522Y-88945465D01*
X99699500Y-89147648D01*
X95900500Y-89147648D01*
X95900500Y-80804361D01*
X95920185Y-80737322D01*
X95936819Y-80716680D01*
X96093499Y-80560000D01*
X96268072Y-80385426D01*
X96329393Y-80351943D01*
X96399084Y-80356927D01*
X96455018Y-80398798D01*
X96478224Y-80453707D01*
X96481523Y-80474537D01*
X96544781Y-80669223D01*
X96581849Y-80741971D01*
X96628260Y-80833058D01*
X96637715Y-80851613D01*
X96758028Y-81017213D01*
X96902786Y-81161971D01*
X97023928Y-81249984D01*
X97068390Y-81282287D01*
X97159840Y-81328883D01*
X97161080Y-81329515D01*
X97211876Y-81377490D01*
X97228671Y-81445311D01*
X97206134Y-81511446D01*
X97161080Y-81550485D01*
X97068386Y-81597715D01*
X96902786Y-81718028D01*
X96758028Y-81862786D01*
X96637715Y-82028386D01*
X96544781Y-82210776D01*
X96481522Y-82405465D01*
X96449500Y-82607648D01*
X96449500Y-82812351D01*
X96481522Y-83014534D01*
X96544781Y-83209223D01*
X96608691Y-83334653D01*
X96628551Y-83373629D01*
X96637715Y-83391613D01*
X96758028Y-83557213D01*
X96758034Y-83557219D01*
X96902781Y-83701966D01*
X96996452Y-83770021D01*
X97039117Y-83825350D01*
X97045096Y-83894963D01*
X97012491Y-83956759D01*
X96962571Y-83988045D01*
X96880666Y-84015186D01*
X96880663Y-84015187D01*
X96731342Y-84107289D01*
X96607289Y-84231342D01*
X96515187Y-84380663D01*
X96515186Y-84380666D01*
X96460001Y-84547203D01*
X96460001Y-84547204D01*
X96460000Y-84547204D01*
X96449500Y-84649983D01*
X96449500Y-85850001D01*
X96449501Y-85850018D01*
X96460000Y-85952796D01*
X96460001Y-85952799D01*
X96493277Y-86053217D01*
X96515186Y-86119334D01*
X96607288Y-86268656D01*
X96731344Y-86392712D01*
X96880666Y-86484814D01*
X97047203Y-86539999D01*
X97149991Y-86550500D01*
X98350008Y-86550499D01*
X98452797Y-86539999D01*
X98619334Y-86484814D01*
X98768656Y-86392712D01*
X98892712Y-86268656D01*
X98984814Y-86119334D01*
X99039999Y-85952797D01*
X99045633Y-85897648D01*
X99619500Y-85897648D01*
X99619500Y-86102351D01*
X99651522Y-86304534D01*
X99714781Y-86499223D01*
X99766385Y-86600500D01*
X99807585Y-86681359D01*
X99807715Y-86681613D01*
X99928028Y-86847213D01*
X100072786Y-86991971D01*
X100193226Y-87079474D01*
X100238390Y-87112287D01*
X100354607Y-87171503D01*
X100420776Y-87205218D01*
X100420778Y-87205218D01*
X100420781Y-87205220D01*
X100525137Y-87239127D01*
X100615465Y-87268477D01*
X100716557Y-87284488D01*
X100817648Y-87300500D01*
X100817649Y-87300500D01*
X101022351Y-87300500D01*
X101022352Y-87300500D01*
X101224534Y-87268477D01*
X101419219Y-87205220D01*
X101601610Y-87112287D01*
X101711782Y-87032243D01*
X101767213Y-86991971D01*
X101767215Y-86991968D01*
X101767219Y-86991966D01*
X101911966Y-86847219D01*
X101911968Y-86847215D01*
X101911971Y-86847213D01*
X101964732Y-86774590D01*
X102032287Y-86681610D01*
X102125220Y-86499219D01*
X102188477Y-86304534D01*
X102220500Y-86102352D01*
X102220500Y-85897648D01*
X109779500Y-85897648D01*
X109779500Y-86102351D01*
X109811522Y-86304534D01*
X109874781Y-86499223D01*
X109926385Y-86600500D01*
X109967585Y-86681359D01*
X109967715Y-86681613D01*
X110088028Y-86847213D01*
X110232786Y-86991971D01*
X110353226Y-87079474D01*
X110398390Y-87112287D01*
X110514607Y-87171503D01*
X110580776Y-87205218D01*
X110580778Y-87205218D01*
X110580781Y-87205220D01*
X110685137Y-87239127D01*
X110775465Y-87268477D01*
X110876557Y-87284488D01*
X110977648Y-87300500D01*
X110977649Y-87300500D01*
X111182351Y-87300500D01*
X111182352Y-87300500D01*
X111384534Y-87268477D01*
X111579219Y-87205220D01*
X111761610Y-87112287D01*
X111871782Y-87032243D01*
X111927213Y-86991971D01*
X111927215Y-86991968D01*
X111927219Y-86991966D01*
X112071966Y-86847219D01*
X112071968Y-86847215D01*
X112071971Y-86847213D01*
X112124732Y-86774590D01*
X112192287Y-86681610D01*
X112285220Y-86499219D01*
X112348477Y-86304534D01*
X112380500Y-86102352D01*
X112380500Y-85999984D01*
X117299500Y-85999984D01*
X117299500Y-88000015D01*
X117310000Y-88102795D01*
X117310001Y-88102797D01*
X117316904Y-88123629D01*
X117365186Y-88269335D01*
X117365187Y-88269337D01*
X117457286Y-88418651D01*
X117457289Y-88418655D01*
X117581344Y-88542710D01*
X117581348Y-88542713D01*
X117730662Y-88634812D01*
X117730664Y-88634813D01*
X117730666Y-88634814D01*
X117897203Y-88689999D01*
X117999992Y-88700500D01*
X117999997Y-88700500D01*
X120000003Y-88700500D01*
X120000008Y-88700500D01*
X120102797Y-88689999D01*
X120269334Y-88634814D01*
X120418655Y-88542711D01*
X120542711Y-88418655D01*
X120634814Y-88269334D01*
X120689999Y-88102797D01*
X120700500Y-88000008D01*
X120700500Y-86888549D01*
X124799500Y-86888549D01*
X124799500Y-87111450D01*
X124799501Y-87111466D01*
X124828594Y-87332452D01*
X124828595Y-87332457D01*
X124828596Y-87332463D01*
X124828597Y-87332465D01*
X124886290Y-87547780D01*
X124886293Y-87547790D01*
X124971593Y-87753722D01*
X124971595Y-87753726D01*
X125083052Y-87946774D01*
X125083057Y-87946780D01*
X125083058Y-87946782D01*
X125218751Y-88123622D01*
X125218757Y-88123629D01*
X125376370Y-88281242D01*
X125376376Y-88281247D01*
X125553226Y-88416948D01*
X125746274Y-88528405D01*
X125952219Y-88613710D01*
X126167537Y-88671404D01*
X126388543Y-88700500D01*
X126388550Y-88700500D01*
X126611450Y-88700500D01*
X126611457Y-88700500D01*
X126832463Y-88671404D01*
X127047781Y-88613710D01*
X127253726Y-88528405D01*
X127446774Y-88416948D01*
X127623624Y-88281247D01*
X127781247Y-88123624D01*
X127916948Y-87946774D01*
X128028405Y-87753726D01*
X128113710Y-87547781D01*
X128171404Y-87332463D01*
X128200500Y-87111457D01*
X128200500Y-86888543D01*
X128171404Y-86667537D01*
X128113710Y-86452219D01*
X128028405Y-86246274D01*
X127916948Y-86053226D01*
X127797596Y-85897682D01*
X127781248Y-85876377D01*
X127781242Y-85876370D01*
X127623629Y-85718757D01*
X127623622Y-85718751D01*
X127446782Y-85583058D01*
X127446780Y-85583057D01*
X127446774Y-85583052D01*
X127253726Y-85471595D01*
X127253722Y-85471593D01*
X127047790Y-85386293D01*
X127047783Y-85386291D01*
X127047781Y-85386290D01*
X126832463Y-85328596D01*
X126832457Y-85328595D01*
X126832452Y-85328594D01*
X126611466Y-85299501D01*
X126611463Y-85299500D01*
X126611457Y-85299500D01*
X126388543Y-85299500D01*
X126388537Y-85299500D01*
X126388533Y-85299501D01*
X126167547Y-85328594D01*
X126167540Y-85328595D01*
X126167537Y-85328596D01*
X126030981Y-85365186D01*
X125952219Y-85386290D01*
X125952209Y-85386293D01*
X125746277Y-85471593D01*
X125746273Y-85471595D01*
X125553226Y-85583052D01*
X125553217Y-85583058D01*
X125376377Y-85718751D01*
X125376370Y-85718757D01*
X125218757Y-85876370D01*
X125218751Y-85876377D01*
X125083058Y-86053217D01*
X125083052Y-86053226D01*
X124971595Y-86246273D01*
X124971593Y-86246277D01*
X124886293Y-86452209D01*
X124886290Y-86452219D01*
X124846559Y-86600500D01*
X124828597Y-86667534D01*
X124828594Y-86667547D01*
X124799501Y-86888533D01*
X124799500Y-86888549D01*
X120700500Y-86888549D01*
X120700500Y-85999992D01*
X120689999Y-85897203D01*
X120634814Y-85730666D01*
X120627468Y-85718757D01*
X120542713Y-85581348D01*
X120542710Y-85581344D01*
X120418655Y-85457289D01*
X120418651Y-85457286D01*
X120269337Y-85365187D01*
X120269335Y-85365186D01*
X120158907Y-85328594D01*
X120102797Y-85310001D01*
X120102795Y-85310000D01*
X120000015Y-85299500D01*
X120000008Y-85299500D01*
X117999992Y-85299500D01*
X117999984Y-85299500D01*
X117897204Y-85310000D01*
X117897203Y-85310001D01*
X117730664Y-85365186D01*
X117730662Y-85365187D01*
X117581348Y-85457286D01*
X117581344Y-85457289D01*
X117457289Y-85581344D01*
X117457286Y-85581348D01*
X117365187Y-85730662D01*
X117365186Y-85730664D01*
X117310001Y-85897203D01*
X117310000Y-85897204D01*
X117299500Y-85999984D01*
X112380500Y-85999984D01*
X112380500Y-85897648D01*
X112372257Y-85845606D01*
X112348477Y-85695465D01*
X112311397Y-85581345D01*
X112285220Y-85500781D01*
X112285218Y-85500778D01*
X112285218Y-85500776D01*
X112251503Y-85434607D01*
X112192287Y-85318390D01*
X112184556Y-85307749D01*
X112071971Y-85152786D01*
X111927213Y-85008028D01*
X111761613Y-84887715D01*
X111761612Y-84887714D01*
X111761610Y-84887713D01*
X111704653Y-84858691D01*
X111579223Y-84794781D01*
X111384534Y-84731522D01*
X111209995Y-84703878D01*
X111182352Y-84699500D01*
X110977648Y-84699500D01*
X110953329Y-84703351D01*
X110775465Y-84731522D01*
X110580776Y-84794781D01*
X110398386Y-84887715D01*
X110232786Y-85008028D01*
X110088028Y-85152786D01*
X109967715Y-85318386D01*
X109874781Y-85500776D01*
X109811522Y-85695465D01*
X109779500Y-85897648D01*
X102220500Y-85897648D01*
X102212257Y-85845606D01*
X102188477Y-85695465D01*
X102151397Y-85581345D01*
X102125220Y-85500781D01*
X102125218Y-85500778D01*
X102125218Y-85500776D01*
X102091503Y-85434607D01*
X102032287Y-85318390D01*
X102024556Y-85307749D01*
X101911971Y-85152786D01*
X101767213Y-85008028D01*
X101601613Y-84887715D01*
X101601612Y-84887714D01*
X101601610Y-84887713D01*
X101544653Y-84858691D01*
X101419223Y-84794781D01*
X101224534Y-84731522D01*
X101049995Y-84703878D01*
X101022352Y-84699500D01*
X100817648Y-84699500D01*
X100793329Y-84703351D01*
X100615465Y-84731522D01*
X100420776Y-84794781D01*
X100238386Y-84887715D01*
X100072786Y-85008028D01*
X99928028Y-85152786D01*
X99807715Y-85318386D01*
X99714781Y-85500776D01*
X99651522Y-85695465D01*
X99619500Y-85897648D01*
X99045633Y-85897648D01*
X99050500Y-85850009D01*
X99050499Y-84649992D01*
X99039999Y-84547203D01*
X98984814Y-84380666D01*
X98892712Y-84231344D01*
X98768656Y-84107288D01*
X98619334Y-84015186D01*
X98537427Y-83988044D01*
X98479984Y-83948272D01*
X98453161Y-83883756D01*
X98465476Y-83814980D01*
X98503547Y-83770021D01*
X98597219Y-83701966D01*
X98741966Y-83557219D01*
X98741968Y-83557215D01*
X98741971Y-83557213D01*
X98833223Y-83431613D01*
X98862287Y-83391610D01*
X98955220Y-83209219D01*
X99018477Y-83014534D01*
X99050500Y-82812352D01*
X99050500Y-82647648D01*
X99619500Y-82647648D01*
X99619500Y-82852351D01*
X99651522Y-83054534D01*
X99714781Y-83249223D01*
X99767555Y-83352795D01*
X99807585Y-83431359D01*
X99807715Y-83431613D01*
X99928028Y-83597213D01*
X100072786Y-83741971D01*
X100183330Y-83822284D01*
X100238390Y-83862287D01*
X100329196Y-83908555D01*
X100420776Y-83955218D01*
X100420778Y-83955218D01*
X100420781Y-83955220D01*
X100513392Y-83985311D01*
X100615465Y-84018477D01*
X100716557Y-84034488D01*
X100817648Y-84050500D01*
X100817649Y-84050500D01*
X101022351Y-84050500D01*
X101022352Y-84050500D01*
X101224534Y-84018477D01*
X101419219Y-83955220D01*
X101601610Y-83862287D01*
X101697375Y-83792710D01*
X101767213Y-83741971D01*
X101767215Y-83741968D01*
X101767219Y-83741966D01*
X101911966Y-83597219D01*
X101911968Y-83597215D01*
X101911971Y-83597213D01*
X101968552Y-83519334D01*
X102032287Y-83431610D01*
X102125220Y-83249219D01*
X102188477Y-83054534D01*
X102220500Y-82852352D01*
X102220500Y-82647682D01*
X109780000Y-82647682D01*
X109780000Y-82852317D01*
X109812009Y-83054417D01*
X109875244Y-83249031D01*
X109968141Y-83431350D01*
X109968147Y-83431359D01*
X110000523Y-83475921D01*
X110000524Y-83475922D01*
X110680000Y-82796446D01*
X110680000Y-82802661D01*
X110707259Y-82904394D01*
X110759920Y-82995606D01*
X110834394Y-83070080D01*
X110925606Y-83122741D01*
X111027339Y-83150000D01*
X111033553Y-83150000D01*
X110354076Y-83829474D01*
X110398650Y-83861859D01*
X110580968Y-83954755D01*
X110775582Y-84017990D01*
X110977683Y-84050000D01*
X111182317Y-84050000D01*
X111384417Y-84017990D01*
X111579031Y-83954755D01*
X111761349Y-83861859D01*
X111805921Y-83829474D01*
X111126447Y-83150000D01*
X111132661Y-83150000D01*
X111234394Y-83122741D01*
X111325606Y-83070080D01*
X111400080Y-82995606D01*
X111452741Y-82904394D01*
X111480000Y-82802661D01*
X111480000Y-82796448D01*
X112159474Y-83475922D01*
X112159474Y-83475921D01*
X112191859Y-83431349D01*
X112284755Y-83249031D01*
X112347990Y-83054417D01*
X112380000Y-82852317D01*
X112380000Y-82647682D01*
X112347990Y-82445582D01*
X112284755Y-82250968D01*
X112191859Y-82068650D01*
X112159474Y-82024077D01*
X112159474Y-82024076D01*
X111480000Y-82703551D01*
X111480000Y-82697339D01*
X111452741Y-82595606D01*
X111400080Y-82504394D01*
X111325606Y-82429920D01*
X111234394Y-82377259D01*
X111132661Y-82350000D01*
X111126446Y-82350000D01*
X111805922Y-81670524D01*
X111805921Y-81670523D01*
X111761359Y-81638147D01*
X111761350Y-81638141D01*
X111579031Y-81545244D01*
X111384417Y-81482009D01*
X111182317Y-81450000D01*
X110977683Y-81450000D01*
X110775582Y-81482009D01*
X110580968Y-81545244D01*
X110398644Y-81638143D01*
X110354077Y-81670523D01*
X110354077Y-81670524D01*
X111033554Y-82350000D01*
X111027339Y-82350000D01*
X110925606Y-82377259D01*
X110834394Y-82429920D01*
X110759920Y-82504394D01*
X110707259Y-82595606D01*
X110680000Y-82697339D01*
X110680000Y-82703553D01*
X110000524Y-82024077D01*
X110000523Y-82024077D01*
X109968143Y-82068644D01*
X109875244Y-82250968D01*
X109812009Y-82445582D01*
X109780000Y-82647682D01*
X102220500Y-82647682D01*
X102220500Y-82647648D01*
X102203935Y-82543062D01*
X102188477Y-82445465D01*
X102157458Y-82350000D01*
X102125220Y-82250781D01*
X102125218Y-82250778D01*
X102125218Y-82250776D01*
X102091503Y-82184607D01*
X102032287Y-82068390D01*
X102000092Y-82024077D01*
X101911971Y-81902786D01*
X101767213Y-81758028D01*
X101601613Y-81637715D01*
X101601612Y-81637714D01*
X101601610Y-81637713D01*
X101523106Y-81597713D01*
X101419223Y-81544781D01*
X101224534Y-81481522D01*
X101049995Y-81453878D01*
X101022352Y-81449500D01*
X100817648Y-81449500D01*
X100793329Y-81453351D01*
X100615465Y-81481522D01*
X100420776Y-81544781D01*
X100238386Y-81637715D01*
X100072786Y-81758028D01*
X99928028Y-81902786D01*
X99807715Y-82068386D01*
X99714781Y-82250776D01*
X99651522Y-82445465D01*
X99619500Y-82647648D01*
X99050500Y-82647648D01*
X99050500Y-82607648D01*
X99030695Y-82482604D01*
X99018477Y-82405465D01*
X98989127Y-82315137D01*
X98955220Y-82210781D01*
X98955218Y-82210778D01*
X98955218Y-82210776D01*
X98916359Y-82134512D01*
X98862287Y-82028390D01*
X98781756Y-81917547D01*
X98741971Y-81862786D01*
X98597213Y-81718028D01*
X98431614Y-81597715D01*
X98425006Y-81594348D01*
X98338917Y-81550483D01*
X98288123Y-81502511D01*
X98271328Y-81434690D01*
X98293865Y-81368555D01*
X98338917Y-81329516D01*
X98431610Y-81282287D01*
X98476072Y-81249984D01*
X98597213Y-81161971D01*
X98597215Y-81161968D01*
X98597219Y-81161966D01*
X98741966Y-81017219D01*
X98741968Y-81017215D01*
X98741971Y-81017213D01*
X98794732Y-80944590D01*
X98862287Y-80851610D01*
X98955220Y-80669219D01*
X99018477Y-80474534D01*
X99050500Y-80272352D01*
X99050500Y-80067648D01*
X99032413Y-79953453D01*
X99018477Y-79865465D01*
X98989127Y-79775137D01*
X98955220Y-79670781D01*
X98955218Y-79670778D01*
X98955218Y-79670776D01*
X98921503Y-79604607D01*
X98862287Y-79488390D01*
X98831101Y-79445466D01*
X98741971Y-79322786D01*
X98597213Y-79178028D01*
X98431614Y-79057715D01*
X98425006Y-79054348D01*
X98338917Y-79010483D01*
X98329764Y-79001838D01*
X98318099Y-78997104D01*
X98304847Y-78978306D01*
X98288123Y-78962511D01*
X98285096Y-78950288D01*
X98277842Y-78939998D01*
X98276856Y-78917017D01*
X98272060Y-78897648D01*
X102699500Y-78897648D01*
X102699500Y-79102351D01*
X102731522Y-79304534D01*
X102794781Y-79499223D01*
X102858691Y-79624653D01*
X102882195Y-79670781D01*
X102887715Y-79681613D01*
X103008028Y-79847213D01*
X103152786Y-79991971D01*
X103249713Y-80062391D01*
X103318390Y-80112287D01*
X103434607Y-80171503D01*
X103500776Y-80205218D01*
X103500778Y-80205218D01*
X103500781Y-80205220D01*
X103605137Y-80239127D01*
X103695465Y-80268477D01*
X103719931Y-80272352D01*
X103897648Y-80300500D01*
X103897649Y-80300500D01*
X104102351Y-80300500D01*
X104102352Y-80300500D01*
X104304534Y-80268477D01*
X104499219Y-80205220D01*
X104681610Y-80112287D01*
X104774590Y-80044732D01*
X104847213Y-79991971D01*
X104847215Y-79991968D01*
X104847219Y-79991966D01*
X104991966Y-79847219D01*
X104991968Y-79847215D01*
X104991971Y-79847213D01*
X105044732Y-79774590D01*
X105112287Y-79681610D01*
X105205220Y-79499219D01*
X105268477Y-79304534D01*
X105300500Y-79102352D01*
X105300500Y-78897648D01*
X107699500Y-78897648D01*
X107699500Y-79102351D01*
X107731522Y-79304534D01*
X107794781Y-79499223D01*
X107858691Y-79624653D01*
X107882195Y-79670781D01*
X107887715Y-79681613D01*
X108008028Y-79847213D01*
X108152786Y-79991971D01*
X108249713Y-80062391D01*
X108318390Y-80112287D01*
X108434607Y-80171503D01*
X108500776Y-80205218D01*
X108500778Y-80205218D01*
X108500781Y-80205220D01*
X108605137Y-80239127D01*
X108695465Y-80268477D01*
X108719931Y-80272352D01*
X108897648Y-80300500D01*
X108897649Y-80300500D01*
X109102351Y-80300500D01*
X109102352Y-80300500D01*
X109304534Y-80268477D01*
X109499219Y-80205220D01*
X109681610Y-80112287D01*
X109774590Y-80044732D01*
X109847213Y-79991971D01*
X109847215Y-79991968D01*
X109847219Y-79991966D01*
X109991966Y-79847219D01*
X109991968Y-79847215D01*
X109991971Y-79847213D01*
X110044732Y-79774590D01*
X110112287Y-79681610D01*
X110205220Y-79499219D01*
X110268477Y-79304534D01*
X110300500Y-79102352D01*
X110300500Y-78897648D01*
X110268477Y-78695466D01*
X110205220Y-78500781D01*
X110205218Y-78500778D01*
X110205218Y-78500776D01*
X110171503Y-78434607D01*
X110112287Y-78318390D01*
X110104556Y-78307749D01*
X109991971Y-78152786D01*
X109847213Y-78008028D01*
X109681613Y-77887715D01*
X109681612Y-77887714D01*
X109681610Y-77887713D01*
X109592543Y-77842331D01*
X109499223Y-77794781D01*
X109304534Y-77731522D01*
X109129995Y-77703878D01*
X109102352Y-77699500D01*
X108897648Y-77699500D01*
X108873329Y-77703351D01*
X108695465Y-77731522D01*
X108500776Y-77794781D01*
X108318386Y-77887715D01*
X108152786Y-78008028D01*
X108008028Y-78152786D01*
X107887715Y-78318386D01*
X107794781Y-78500776D01*
X107731522Y-78695465D01*
X107699500Y-78897648D01*
X105300500Y-78897648D01*
X105268477Y-78695466D01*
X105205220Y-78500781D01*
X105205218Y-78500778D01*
X105205218Y-78500776D01*
X105171503Y-78434607D01*
X105112287Y-78318390D01*
X105104556Y-78307749D01*
X104991971Y-78152786D01*
X104847213Y-78008028D01*
X104681613Y-77887715D01*
X104681612Y-77887714D01*
X104681610Y-77887713D01*
X104592543Y-77842331D01*
X104499223Y-77794781D01*
X104304534Y-77731522D01*
X104129995Y-77703878D01*
X104102352Y-77699500D01*
X103897648Y-77699500D01*
X103873329Y-77703351D01*
X103695465Y-77731522D01*
X103500776Y-77794781D01*
X103318386Y-77887715D01*
X103152786Y-78008028D01*
X103008028Y-78152786D01*
X102887715Y-78318386D01*
X102794781Y-78500776D01*
X102731522Y-78695465D01*
X102699500Y-78897648D01*
X98272060Y-78897648D01*
X98271328Y-78894690D01*
X98275389Y-78882772D01*
X98274850Y-78870192D01*
X98286445Y-78850326D01*
X98293865Y-78828555D01*
X98304568Y-78819280D01*
X98310073Y-78809850D01*
X98338916Y-78789516D01*
X98431610Y-78742287D01*
X98496054Y-78695466D01*
X98597213Y-78621971D01*
X98597215Y-78621968D01*
X98597219Y-78621966D01*
X98741966Y-78477219D01*
X98741968Y-78477215D01*
X98741971Y-78477213D01*
X98794732Y-78404590D01*
X98862287Y-78311610D01*
X98955220Y-78129219D01*
X99018477Y-77934534D01*
X99050500Y-77732352D01*
X99050500Y-77527648D01*
X99024309Y-77362287D01*
X99018477Y-77325465D01*
X98955218Y-77130776D01*
X98921503Y-77064607D01*
X98862287Y-76948390D01*
X98850096Y-76931610D01*
X98741971Y-76782786D01*
X98597213Y-76638028D01*
X98431613Y-76517715D01*
X98431612Y-76517714D01*
X98431610Y-76517713D01*
X98374653Y-76488691D01*
X98249223Y-76424781D01*
X98054534Y-76361522D01*
X97879995Y-76333878D01*
X97852352Y-76329500D01*
X97647648Y-76329500D01*
X97623329Y-76333351D01*
X97445465Y-76361522D01*
X97250776Y-76424781D01*
X97068386Y-76517715D01*
X96902786Y-76638028D01*
X96758028Y-76782786D01*
X96637715Y-76948386D01*
X96544781Y-77130776D01*
X96481522Y-77325465D01*
X96449500Y-77527648D01*
X96449500Y-77605637D01*
X96429815Y-77672676D01*
X96413181Y-77693318D01*
X94300540Y-79805958D01*
X94300537Y-79805961D01*
X94285106Y-79829057D01*
X94201985Y-79953455D01*
X94168046Y-80035393D01*
X94134107Y-80117327D01*
X94134105Y-80117333D01*
X94134105Y-80117334D01*
X94103842Y-80269480D01*
X94099500Y-80291309D01*
X91427497Y-80291309D01*
X91430500Y-80272352D01*
X91430500Y-80067648D01*
X91412413Y-79953453D01*
X91398477Y-79865465D01*
X91369127Y-79775137D01*
X91335220Y-79670781D01*
X91335218Y-79670778D01*
X91335218Y-79670776D01*
X91301503Y-79604607D01*
X91242287Y-79488390D01*
X91211101Y-79445466D01*
X91121971Y-79322786D01*
X90977213Y-79178028D01*
X90811614Y-79057715D01*
X90805006Y-79054348D01*
X90718917Y-79010483D01*
X90668123Y-78962511D01*
X90651328Y-78894690D01*
X90673865Y-78828555D01*
X90718917Y-78789516D01*
X90811610Y-78742287D01*
X90876054Y-78695466D01*
X90977213Y-78621971D01*
X90977215Y-78621968D01*
X90977219Y-78621966D01*
X91121966Y-78477219D01*
X91121968Y-78477215D01*
X91121971Y-78477213D01*
X91174732Y-78404590D01*
X91242287Y-78311610D01*
X91335220Y-78129219D01*
X91398477Y-77934534D01*
X91430500Y-77732352D01*
X91430500Y-77527648D01*
X91404309Y-77362287D01*
X91398477Y-77325465D01*
X91335218Y-77130776D01*
X91301503Y-77064607D01*
X91242287Y-76948390D01*
X91230096Y-76931610D01*
X91121971Y-76782786D01*
X90977213Y-76638028D01*
X90811613Y-76517715D01*
X90811612Y-76517714D01*
X90811610Y-76517713D01*
X90754653Y-76488691D01*
X90629223Y-76424781D01*
X90434534Y-76361522D01*
X90259995Y-76333878D01*
X90232352Y-76329500D01*
X90027648Y-76329500D01*
X90003329Y-76333351D01*
X89825465Y-76361522D01*
X89630776Y-76424781D01*
X89448386Y-76517715D01*
X89282786Y-76638028D01*
X89138028Y-76782786D01*
X89017715Y-76948386D01*
X88924781Y-77130776D01*
X88861522Y-77325465D01*
X88829500Y-77527648D01*
X88829500Y-77732351D01*
X88861522Y-77934534D01*
X88924781Y-78129223D01*
X89017715Y-78311613D01*
X89138028Y-78477213D01*
X89282786Y-78621971D01*
X89437749Y-78734556D01*
X89448390Y-78742287D01*
X89526902Y-78782291D01*
X89541080Y-78789515D01*
X89591876Y-78837490D01*
X89608671Y-78905311D01*
X89586134Y-78971446D01*
X89541080Y-79010485D01*
X89448386Y-79057715D01*
X89282786Y-79178028D01*
X89138028Y-79322786D01*
X89017715Y-79488386D01*
X88924781Y-79670776D01*
X88872431Y-79831894D01*
X88832993Y-79889569D01*
X88768634Y-79916767D01*
X88699788Y-79904852D01*
X88648312Y-79857608D01*
X88630500Y-79793575D01*
X88630500Y-79647648D01*
X88598477Y-79445465D01*
X88541296Y-79269481D01*
X88535220Y-79250781D01*
X88535218Y-79250778D01*
X88535218Y-79250776D01*
X88498150Y-79178028D01*
X88442287Y-79068390D01*
X88393935Y-79001838D01*
X88321971Y-78902786D01*
X88177213Y-78758028D01*
X88011613Y-78637715D01*
X88011612Y-78637714D01*
X88011610Y-78637713D01*
X87954653Y-78608691D01*
X87829223Y-78544781D01*
X87634534Y-78481522D01*
X87459995Y-78453878D01*
X87432352Y-78449500D01*
X87227648Y-78449500D01*
X87203329Y-78453351D01*
X87025465Y-78481522D01*
X86830776Y-78544781D01*
X86648386Y-78637715D01*
X86482786Y-78758028D01*
X86338028Y-78902786D01*
X86217715Y-79068385D01*
X86210883Y-79081795D01*
X86162909Y-79132591D01*
X86100398Y-79149500D01*
X84836670Y-79149500D01*
X84836654Y-79149499D01*
X84829058Y-79149499D01*
X84670943Y-79149499D01*
X84594579Y-79169961D01*
X84518214Y-79190423D01*
X84518209Y-79190426D01*
X84381290Y-79269475D01*
X84381282Y-79269481D01*
X83269481Y-80381282D01*
X83269479Y-80381285D01*
X83240426Y-80431608D01*
X83240425Y-80431610D01*
X83190423Y-80518214D01*
X83190423Y-80518215D01*
X83149499Y-80670943D01*
X83149499Y-80829057D01*
X83149499Y-80829059D01*
X83149500Y-80839053D01*
X83149500Y-84163330D01*
X83149499Y-84163348D01*
X83149499Y-84329054D01*
X83149498Y-84329054D01*
X55993205Y-84329054D01*
X55992707Y-82138549D01*
X59562255Y-82138549D01*
X59562255Y-82361450D01*
X59562256Y-82361466D01*
X59591349Y-82582452D01*
X59591350Y-82582457D01*
X59591351Y-82582463D01*
X59649045Y-82797780D01*
X59649048Y-82797790D01*
X59734348Y-83003722D01*
X59734350Y-83003726D01*
X59845807Y-83196774D01*
X59845812Y-83196780D01*
X59845813Y-83196782D01*
X59981506Y-83373622D01*
X59981512Y-83373629D01*
X60139125Y-83531242D01*
X60139132Y-83531248D01*
X60225100Y-83597213D01*
X60315981Y-83666948D01*
X60509029Y-83778405D01*
X60543567Y-83792711D01*
X60711538Y-83862287D01*
X60714974Y-83863710D01*
X60930292Y-83921404D01*
X61151298Y-83950500D01*
X61151305Y-83950500D01*
X61374205Y-83950500D01*
X61374212Y-83950500D01*
X61595218Y-83921404D01*
X61810536Y-83863710D01*
X62016481Y-83778405D01*
X62209529Y-83666948D01*
X62386379Y-83531247D01*
X62544002Y-83373624D01*
X62679703Y-83196774D01*
X62791160Y-83003726D01*
X62876465Y-82797781D01*
X62934159Y-82582463D01*
X62963255Y-82361457D01*
X62963255Y-82138543D01*
X62934159Y-81917537D01*
X62876465Y-81702219D01*
X62791160Y-81496274D01*
X62679703Y-81303226D01*
X62638849Y-81249984D01*
X67062255Y-81249984D01*
X67062255Y-83250015D01*
X67072755Y-83352795D01*
X67072756Y-83352797D01*
X67098786Y-83431349D01*
X67127941Y-83519335D01*
X67127942Y-83519337D01*
X67220041Y-83668651D01*
X67220044Y-83668655D01*
X67344099Y-83792710D01*
X67344103Y-83792713D01*
X67493417Y-83884812D01*
X67493419Y-83884813D01*
X67493421Y-83884814D01*
X67659958Y-83939999D01*
X67762747Y-83950500D01*
X67762752Y-83950500D01*
X69762758Y-83950500D01*
X69762763Y-83950500D01*
X69865552Y-83939999D01*
X70032089Y-83884814D01*
X70181410Y-83792711D01*
X70305466Y-83668655D01*
X70397569Y-83519334D01*
X70452754Y-83352797D01*
X70463255Y-83250008D01*
X70463255Y-82647648D01*
X75869500Y-82647648D01*
X75869500Y-82852351D01*
X75901522Y-83054534D01*
X75964781Y-83249223D01*
X76017555Y-83352795D01*
X76057585Y-83431359D01*
X76057715Y-83431613D01*
X76178028Y-83597213D01*
X76322786Y-83741971D01*
X76433330Y-83822284D01*
X76488390Y-83862287D01*
X76579196Y-83908555D01*
X76670776Y-83955218D01*
X76670778Y-83955218D01*
X76670781Y-83955220D01*
X76763392Y-83985311D01*
X76865465Y-84018477D01*
X76966557Y-84034488D01*
X77067648Y-84050500D01*
X77067649Y-84050500D01*
X77272351Y-84050500D01*
X77272352Y-84050500D01*
X77474534Y-84018477D01*
X77669219Y-83955220D01*
X77851610Y-83862287D01*
X77947375Y-83792710D01*
X78017213Y-83741971D01*
X78017215Y-83741968D01*
X78017219Y-83741966D01*
X78161966Y-83597219D01*
X78161968Y-83597215D01*
X78161971Y-83597213D01*
X78218552Y-83519334D01*
X78282287Y-83431610D01*
X78375220Y-83249219D01*
X78438477Y-83054534D01*
X78470500Y-82852352D01*
X78470500Y-82647648D01*
X78453935Y-82543062D01*
X78438477Y-82445465D01*
X78407458Y-82350000D01*
X78375220Y-82250781D01*
X78375218Y-82250778D01*
X78375218Y-82250776D01*
X78341503Y-82184607D01*
X78282287Y-82068390D01*
X78250092Y-82024077D01*
X78161971Y-81902786D01*
X78017213Y-81758028D01*
X77851613Y-81637715D01*
X77851612Y-81637714D01*
X77851610Y-81637713D01*
X77773106Y-81597713D01*
X77669223Y-81544781D01*
X77474534Y-81481522D01*
X77299995Y-81453878D01*
X77272352Y-81449500D01*
X77067648Y-81449500D01*
X77043329Y-81453351D01*
X76865465Y-81481522D01*
X76670776Y-81544781D01*
X76488386Y-81637715D01*
X76322786Y-81758028D01*
X76178028Y-81902786D01*
X76057715Y-82068386D01*
X75964781Y-82250776D01*
X75901522Y-82445465D01*
X75869500Y-82647648D01*
X70463255Y-82647648D01*
X70463255Y-81249992D01*
X70452754Y-81147203D01*
X70397569Y-80980666D01*
X70390223Y-80968757D01*
X70305468Y-80831348D01*
X70305465Y-80831344D01*
X70181410Y-80707289D01*
X70181406Y-80707286D01*
X70032092Y-80615187D01*
X70032090Y-80615186D01*
X69921662Y-80578594D01*
X69865552Y-80560001D01*
X69865550Y-80560000D01*
X69762770Y-80549500D01*
X69762763Y-80549500D01*
X67762747Y-80549500D01*
X67762739Y-80549500D01*
X67659959Y-80560000D01*
X67659958Y-80560001D01*
X67493419Y-80615186D01*
X67493417Y-80615187D01*
X67344103Y-80707286D01*
X67344099Y-80707289D01*
X67220044Y-80831344D01*
X67220041Y-80831348D01*
X67127942Y-80980662D01*
X67127941Y-80980664D01*
X67072756Y-81147203D01*
X67072755Y-81147204D01*
X67062255Y-81249984D01*
X62638849Y-81249984D01*
X62544002Y-81126376D01*
X62543997Y-81126370D01*
X62386384Y-80968757D01*
X62386377Y-80968751D01*
X62209537Y-80833058D01*
X62209535Y-80833057D01*
X62209529Y-80833052D01*
X62016481Y-80721595D01*
X62016477Y-80721593D01*
X61810545Y-80636293D01*
X61810538Y-80636291D01*
X61810536Y-80636290D01*
X61595218Y-80578596D01*
X61595212Y-80578595D01*
X61595207Y-80578594D01*
X61374221Y-80549501D01*
X61374218Y-80549500D01*
X61374212Y-80549500D01*
X61151298Y-80549500D01*
X61151292Y-80549500D01*
X61151288Y-80549501D01*
X60930302Y-80578594D01*
X60930295Y-80578595D01*
X60930292Y-80578596D01*
X60860790Y-80597219D01*
X60714974Y-80636290D01*
X60714964Y-80636293D01*
X60509032Y-80721593D01*
X60509028Y-80721595D01*
X60315981Y-80833052D01*
X60315972Y-80833058D01*
X60139132Y-80968751D01*
X60139125Y-80968757D01*
X59981512Y-81126370D01*
X59981506Y-81126377D01*
X59845813Y-81303217D01*
X59845807Y-81303226D01*
X59734350Y-81496273D01*
X59734348Y-81496277D01*
X59649048Y-81702209D01*
X59649045Y-81702219D01*
X59595304Y-81902786D01*
X59591352Y-81917534D01*
X59591349Y-81917547D01*
X59562256Y-82138533D01*
X59562255Y-82138549D01*
X55992707Y-82138549D01*
X55992706Y-82134512D01*
X55992141Y-79647648D01*
X75869500Y-79647648D01*
X75869500Y-79852352D01*
X75871577Y-79865465D01*
X75901522Y-80054534D01*
X75964781Y-80249223D01*
X76017829Y-80353334D01*
X76040994Y-80398798D01*
X76057715Y-80431613D01*
X76178028Y-80597213D01*
X76322786Y-80741971D01*
X76448151Y-80833052D01*
X76488390Y-80862287D01*
X76604607Y-80921503D01*
X76670776Y-80955218D01*
X76670778Y-80955218D01*
X76670781Y-80955220D01*
X76749090Y-80980664D01*
X76865465Y-81018477D01*
X76966557Y-81034488D01*
X77067648Y-81050500D01*
X77067649Y-81050500D01*
X77272351Y-81050500D01*
X77272352Y-81050500D01*
X77474534Y-81018477D01*
X77669219Y-80955220D01*
X77851610Y-80862287D01*
X77944590Y-80794732D01*
X78017213Y-80741971D01*
X78017215Y-80741968D01*
X78017219Y-80741966D01*
X78161966Y-80597219D01*
X78175497Y-80578596D01*
X78251101Y-80474534D01*
X78282287Y-80431610D01*
X78363434Y-80272350D01*
X78375218Y-80249223D01*
X78375219Y-80249221D01*
X78375220Y-80249219D01*
X78438477Y-80054534D01*
X78470500Y-79852352D01*
X78470500Y-79647648D01*
X78469733Y-79642804D01*
X78438477Y-79445465D01*
X78381296Y-79269481D01*
X78375220Y-79250781D01*
X78375218Y-79250778D01*
X78375218Y-79250776D01*
X78338150Y-79178028D01*
X78282287Y-79068390D01*
X78233935Y-79001838D01*
X78161971Y-78902786D01*
X78017213Y-78758028D01*
X77851613Y-78637715D01*
X77851612Y-78637714D01*
X77851610Y-78637713D01*
X77794653Y-78608691D01*
X77669223Y-78544781D01*
X77474534Y-78481522D01*
X77299995Y-78453878D01*
X77272352Y-78449500D01*
X77067648Y-78449500D01*
X77043329Y-78453351D01*
X76865465Y-78481522D01*
X76670776Y-78544781D01*
X76488386Y-78637715D01*
X76322786Y-78758028D01*
X76178028Y-78902786D01*
X76057715Y-79068386D01*
X75964781Y-79250776D01*
X75901522Y-79445465D01*
X75870267Y-79642804D01*
X75869500Y-79647648D01*
X55992141Y-79647648D01*
X55992140Y-79642804D01*
X55991346Y-76147648D01*
X77949500Y-76147648D01*
X77949500Y-76352352D01*
X77950953Y-76361523D01*
X77981522Y-76554534D01*
X78044781Y-76749223D01*
X78137715Y-76931613D01*
X78258028Y-77097213D01*
X78402786Y-77241971D01*
X78557749Y-77354556D01*
X78568390Y-77362287D01*
X78684607Y-77421503D01*
X78750776Y-77455218D01*
X78750778Y-77455218D01*
X78750781Y-77455220D01*
X78855137Y-77489127D01*
X78945465Y-77518477D01*
X79003368Y-77527648D01*
X79147648Y-77550500D01*
X79147649Y-77550500D01*
X79352351Y-77550500D01*
X79352352Y-77550500D01*
X79554534Y-77518477D01*
X79749219Y-77455220D01*
X79931610Y-77362287D01*
X80024590Y-77294732D01*
X80097213Y-77241971D01*
X80097215Y-77241968D01*
X80097219Y-77241966D01*
X80241966Y-77097219D01*
X80241968Y-77097215D01*
X80241971Y-77097213D01*
X80294732Y-77024590D01*
X80362287Y-76931610D01*
X80455220Y-76749219D01*
X80518477Y-76554534D01*
X80550500Y-76352352D01*
X80550500Y-76147648D01*
X82949500Y-76147648D01*
X82949500Y-76352352D01*
X82950953Y-76361523D01*
X82981522Y-76554534D01*
X83044781Y-76749223D01*
X83137715Y-76931613D01*
X83258028Y-77097213D01*
X83402786Y-77241971D01*
X83557749Y-77354556D01*
X83568390Y-77362287D01*
X83684607Y-77421503D01*
X83750776Y-77455218D01*
X83750778Y-77455218D01*
X83750781Y-77455220D01*
X83855137Y-77489127D01*
X83945465Y-77518477D01*
X84003368Y-77527648D01*
X84147648Y-77550500D01*
X84147649Y-77550500D01*
X84352351Y-77550500D01*
X84352352Y-77550500D01*
X84554534Y-77518477D01*
X84749219Y-77455220D01*
X84931610Y-77362287D01*
X85024590Y-77294732D01*
X85097213Y-77241971D01*
X85097215Y-77241968D01*
X85097219Y-77241966D01*
X85241966Y-77097219D01*
X85241968Y-77097215D01*
X85241971Y-77097213D01*
X85294732Y-77024590D01*
X85362287Y-76931610D01*
X85455220Y-76749219D01*
X85518477Y-76554534D01*
X85550500Y-76352352D01*
X85550500Y-76147648D01*
X85518477Y-75945466D01*
X85518476Y-75945462D01*
X85518476Y-75945461D01*
X85499521Y-75887124D01*
X85488152Y-75852135D01*
X112899500Y-75852135D01*
X112899500Y-77647870D01*
X112899501Y-77647876D01*
X112905908Y-77707483D01*
X112956202Y-77842328D01*
X112956206Y-77842335D01*
X113042452Y-77957544D01*
X113042455Y-77957547D01*
X113157664Y-78043793D01*
X113157671Y-78043797D01*
X113292517Y-78094091D01*
X113292516Y-78094091D01*
X113299444Y-78094835D01*
X113352127Y-78100500D01*
X115147872Y-78100499D01*
X115207483Y-78094091D01*
X115342331Y-78043796D01*
X115457546Y-77957546D01*
X115543796Y-77842331D01*
X115594091Y-77707483D01*
X115600500Y-77647873D01*
X115600499Y-75852128D01*
X115594091Y-75792517D01*
X115578524Y-75750781D01*
X115543797Y-75657671D01*
X115543793Y-75657664D01*
X115457547Y-75542455D01*
X115457544Y-75542452D01*
X115342335Y-75456206D01*
X115342328Y-75456202D01*
X115207482Y-75405908D01*
X115207483Y-75405908D01*
X115147883Y-75399501D01*
X115147881Y-75399500D01*
X115147873Y-75399500D01*
X115147864Y-75399500D01*
X113352129Y-75399500D01*
X113352123Y-75399501D01*
X113292516Y-75405908D01*
X113157671Y-75456202D01*
X113157664Y-75456206D01*
X113042455Y-75542452D01*
X113042452Y-75542455D01*
X112956206Y-75657664D01*
X112956202Y-75657671D01*
X112905908Y-75792517D01*
X112899501Y-75852116D01*
X112899501Y-75852123D01*
X112899500Y-75852135D01*
X85488152Y-75852135D01*
X85468781Y-75792517D01*
X85455220Y-75750781D01*
X85455218Y-75750778D01*
X85455218Y-75750776D01*
X85407774Y-75657664D01*
X85362287Y-75568390D01*
X85341659Y-75539998D01*
X85241971Y-75402786D01*
X85097213Y-75258028D01*
X84931613Y-75137715D01*
X84931612Y-75137714D01*
X84931610Y-75137713D01*
X84874653Y-75108691D01*
X84749223Y-75044781D01*
X84554534Y-74981522D01*
X84379995Y-74953878D01*
X84352352Y-74949500D01*
X84147648Y-74949500D01*
X84126838Y-74952796D01*
X83945465Y-74981522D01*
X83750776Y-75044781D01*
X83568386Y-75137715D01*
X83402786Y-75258028D01*
X83258028Y-75402786D01*
X83137715Y-75568386D01*
X83044781Y-75750776D01*
X82981522Y-75945465D01*
X82950267Y-76142804D01*
X82949500Y-76147648D01*
X80550500Y-76147648D01*
X80518477Y-75945466D01*
X80518476Y-75945464D01*
X80468781Y-75792517D01*
X80455220Y-75750781D01*
X80455218Y-75750778D01*
X80455218Y-75750776D01*
X80407774Y-75657664D01*
X80362287Y-75568390D01*
X80341659Y-75539998D01*
X80241971Y-75402786D01*
X80097213Y-75258028D01*
X79931613Y-75137715D01*
X79931612Y-75137714D01*
X79931610Y-75137713D01*
X79874653Y-75108691D01*
X79749223Y-75044781D01*
X79554534Y-74981522D01*
X79379995Y-74953878D01*
X79352352Y-74949500D01*
X79147648Y-74949500D01*
X79126838Y-74952796D01*
X78945465Y-74981522D01*
X78750776Y-75044781D01*
X78568386Y-75137715D01*
X78402786Y-75258028D01*
X78258028Y-75402786D01*
X78137715Y-75568386D01*
X78044781Y-75750776D01*
X77981522Y-75945465D01*
X77950267Y-76142804D01*
X77949500Y-76147648D01*
X55991346Y-76147648D01*
X55991345Y-76142804D01*
X55991203Y-75517990D01*
X55990892Y-74147682D01*
X87620000Y-74147682D01*
X87620000Y-74352317D01*
X87652009Y-74554417D01*
X87715244Y-74749031D01*
X87808141Y-74931350D01*
X87808147Y-74931359D01*
X87840523Y-74975921D01*
X87840524Y-74975922D01*
X88520000Y-74296446D01*
X88520000Y-74302661D01*
X88547259Y-74404394D01*
X88599920Y-74495606D01*
X88674394Y-74570080D01*
X88765606Y-74622741D01*
X88867339Y-74650000D01*
X88873553Y-74650000D01*
X88194076Y-75329474D01*
X88238650Y-75361859D01*
X88420968Y-75454755D01*
X88615582Y-75517990D01*
X88817683Y-75550000D01*
X89022317Y-75550000D01*
X89224417Y-75517990D01*
X89419031Y-75454755D01*
X89601349Y-75361859D01*
X89645921Y-75329474D01*
X88966447Y-74650000D01*
X88972661Y-74650000D01*
X89074394Y-74622741D01*
X89165606Y-74570080D01*
X89240080Y-74495606D01*
X89292741Y-74404394D01*
X89320000Y-74302661D01*
X89320000Y-74296447D01*
X89999474Y-74975921D01*
X90031859Y-74931349D01*
X90124755Y-74749031D01*
X90187990Y-74554417D01*
X90220000Y-74352317D01*
X90220000Y-74147682D01*
X90219995Y-74147648D01*
X97779500Y-74147648D01*
X97779500Y-74352351D01*
X97811522Y-74554534D01*
X97874781Y-74749223D01*
X97926140Y-74850018D01*
X97967585Y-74931359D01*
X97967715Y-74931613D01*
X98088028Y-75097213D01*
X98232786Y-75241971D01*
X98345480Y-75323846D01*
X98398390Y-75362287D01*
X98477864Y-75402781D01*
X98580776Y-75455218D01*
X98580778Y-75455218D01*
X98580781Y-75455220D01*
X98671856Y-75484812D01*
X98775465Y-75518477D01*
X98876557Y-75534488D01*
X98977648Y-75550500D01*
X98977649Y-75550500D01*
X99182351Y-75550500D01*
X99182352Y-75550500D01*
X99384534Y-75518477D01*
X99579219Y-75455220D01*
X99761610Y-75362287D01*
X99854590Y-75294732D01*
X99927213Y-75241971D01*
X99927215Y-75241968D01*
X99927219Y-75241966D01*
X100071966Y-75097219D01*
X100071968Y-75097215D01*
X100071971Y-75097213D01*
X100156024Y-74981522D01*
X100192287Y-74931610D01*
X100285220Y-74749219D01*
X100348477Y-74554534D01*
X100380500Y-74352352D01*
X100380500Y-74147648D01*
X100364012Y-74043548D01*
X100348477Y-73945465D01*
X100314965Y-73842328D01*
X100285220Y-73750781D01*
X100285218Y-73750778D01*
X100285218Y-73750776D01*
X100260940Y-73703129D01*
X100233861Y-73649983D01*
X104199500Y-73649983D01*
X104199500Y-74850001D01*
X104199501Y-74850018D01*
X104210000Y-74952796D01*
X104210001Y-74952799D01*
X104257856Y-75097213D01*
X104265186Y-75119334D01*
X104357288Y-75268656D01*
X104481344Y-75392712D01*
X104630666Y-75484814D01*
X104797203Y-75539999D01*
X104899991Y-75550500D01*
X106100008Y-75550499D01*
X106202797Y-75539999D01*
X106369334Y-75484814D01*
X106518656Y-75392712D01*
X106587524Y-75323843D01*
X106648843Y-75290361D01*
X106718535Y-75295345D01*
X106748082Y-75311206D01*
X106818390Y-75362287D01*
X106897864Y-75402781D01*
X107000776Y-75455218D01*
X107000778Y-75455218D01*
X107000781Y-75455220D01*
X107091856Y-75484812D01*
X107195465Y-75518477D01*
X107296557Y-75534488D01*
X107397648Y-75550500D01*
X107397649Y-75550500D01*
X107602351Y-75550500D01*
X107602352Y-75550500D01*
X107804534Y-75518477D01*
X107999219Y-75455220D01*
X108181610Y-75362287D01*
X108274590Y-75294732D01*
X108347213Y-75241971D01*
X108347215Y-75241968D01*
X108347219Y-75241966D01*
X108491966Y-75097219D01*
X108491968Y-75097215D01*
X108491971Y-75097213D01*
X108576024Y-74981522D01*
X108612287Y-74931610D01*
X108705220Y-74749219D01*
X108752550Y-74603553D01*
X108753011Y-74602135D01*
X124899500Y-74602135D01*
X124899500Y-76397870D01*
X124899501Y-76397876D01*
X124905908Y-76457483D01*
X124956202Y-76592328D01*
X124956206Y-76592335D01*
X125042452Y-76707544D01*
X125042455Y-76707547D01*
X125157664Y-76793793D01*
X125157671Y-76793797D01*
X125292517Y-76844091D01*
X125292516Y-76844091D01*
X125299444Y-76844835D01*
X125352127Y-76850500D01*
X127147872Y-76850499D01*
X127207483Y-76844091D01*
X127342331Y-76793796D01*
X127457546Y-76707546D01*
X127543796Y-76592331D01*
X127594091Y-76457483D01*
X127600500Y-76397873D01*
X127600499Y-74602128D01*
X127594091Y-74542517D01*
X127576594Y-74495606D01*
X127543797Y-74407671D01*
X127543793Y-74407664D01*
X127457547Y-74292455D01*
X127457544Y-74292452D01*
X127342335Y-74206206D01*
X127342328Y-74206202D01*
X127207482Y-74155908D01*
X127207483Y-74155908D01*
X127147883Y-74149501D01*
X127147881Y-74149500D01*
X127147873Y-74149500D01*
X127147864Y-74149500D01*
X125352129Y-74149500D01*
X125352123Y-74149501D01*
X125292516Y-74155908D01*
X125157671Y-74206202D01*
X125157664Y-74206206D01*
X125042455Y-74292452D01*
X125042452Y-74292455D01*
X124956206Y-74407664D01*
X124956202Y-74407671D01*
X124905908Y-74542517D01*
X124899501Y-74602116D01*
X124899501Y-74602123D01*
X124899500Y-74602135D01*
X108753011Y-74602135D01*
X108766543Y-74560487D01*
X108768477Y-74554534D01*
X108791738Y-74407671D01*
X108800500Y-74352352D01*
X108800500Y-74147648D01*
X108784012Y-74043548D01*
X108768477Y-73945465D01*
X108734965Y-73842328D01*
X108705220Y-73750781D01*
X108705218Y-73750778D01*
X108705218Y-73750776D01*
X108653865Y-73649991D01*
X108612287Y-73568390D01*
X108580092Y-73524077D01*
X108491971Y-73402786D01*
X108347213Y-73258028D01*
X108181613Y-73137715D01*
X108181612Y-73137714D01*
X108181610Y-73137713D01*
X108121896Y-73107287D01*
X107999223Y-73044781D01*
X107804534Y-72981522D01*
X107629995Y-72953878D01*
X107602352Y-72949500D01*
X107397648Y-72949500D01*
X107373329Y-72953351D01*
X107195465Y-72981522D01*
X107000776Y-73044781D01*
X106818391Y-73137712D01*
X106818383Y-73137717D01*
X106748085Y-73188790D01*
X106682279Y-73212269D01*
X106614225Y-73196442D01*
X106587521Y-73176153D01*
X106581891Y-73170523D01*
X106518656Y-73107288D01*
X106443995Y-73061237D01*
X106369336Y-73015187D01*
X106369331Y-73015185D01*
X106367862Y-73014698D01*
X106202797Y-72960001D01*
X106202795Y-72960000D01*
X106100010Y-72949500D01*
X104899998Y-72949500D01*
X104899981Y-72949501D01*
X104797203Y-72960000D01*
X104797200Y-72960001D01*
X104630668Y-73015185D01*
X104630663Y-73015187D01*
X104481342Y-73107289D01*
X104357289Y-73231342D01*
X104265187Y-73380663D01*
X104265186Y-73380666D01*
X104210001Y-73547203D01*
X104210001Y-73547204D01*
X104210000Y-73547204D01*
X104199500Y-73649983D01*
X100233861Y-73649983D01*
X100232787Y-73647876D01*
X100192287Y-73568390D01*
X100192285Y-73568387D01*
X100192284Y-73568385D01*
X100071971Y-73402786D01*
X99927213Y-73258028D01*
X99761613Y-73137715D01*
X99761612Y-73137714D01*
X99761610Y-73137713D01*
X99701896Y-73107287D01*
X99579223Y-73044781D01*
X99384534Y-72981522D01*
X99209995Y-72953878D01*
X99182352Y-72949500D01*
X98977648Y-72949500D01*
X98953329Y-72953351D01*
X98775465Y-72981522D01*
X98580776Y-73044781D01*
X98398386Y-73137715D01*
X98232786Y-73258028D01*
X98088028Y-73402786D01*
X97967715Y-73568386D01*
X97874781Y-73750776D01*
X97811522Y-73945465D01*
X97779500Y-74147648D01*
X90219995Y-74147648D01*
X90187990Y-73945582D01*
X90124755Y-73750968D01*
X90031859Y-73568650D01*
X89999474Y-73524077D01*
X89999474Y-73524076D01*
X89320000Y-74203551D01*
X89320000Y-74197339D01*
X89292741Y-74095606D01*
X89240080Y-74004394D01*
X89165606Y-73929920D01*
X89074394Y-73877259D01*
X88972661Y-73850000D01*
X88966446Y-73850000D01*
X89645922Y-73170524D01*
X89645921Y-73170523D01*
X89601359Y-73138147D01*
X89601350Y-73138141D01*
X89419031Y-73045244D01*
X89224417Y-72982009D01*
X89022317Y-72950000D01*
X88817683Y-72950000D01*
X88615582Y-72982009D01*
X88420968Y-73045244D01*
X88238644Y-73138143D01*
X88194077Y-73170523D01*
X88194077Y-73170524D01*
X88873554Y-73850000D01*
X88867339Y-73850000D01*
X88765606Y-73877259D01*
X88674394Y-73929920D01*
X88599920Y-74004394D01*
X88547259Y-74095606D01*
X88520000Y-74197339D01*
X88520000Y-74203553D01*
X87840524Y-73524077D01*
X87840523Y-73524077D01*
X87808143Y-73568644D01*
X87715244Y-73750968D01*
X87652009Y-73945582D01*
X87620000Y-74147682D01*
X55990892Y-74147682D01*
X55990143Y-70852135D01*
X60162255Y-70852135D01*
X60162255Y-72647870D01*
X60162256Y-72647876D01*
X60168663Y-72707483D01*
X60218957Y-72842328D01*
X60218961Y-72842335D01*
X60305207Y-72957544D01*
X60305210Y-72957547D01*
X60420419Y-73043793D01*
X60420426Y-73043797D01*
X60555272Y-73094091D01*
X60555271Y-73094091D01*
X60562199Y-73094835D01*
X60614882Y-73100500D01*
X62410627Y-73100499D01*
X62470238Y-73094091D01*
X62605086Y-73043796D01*
X62720301Y-72957546D01*
X62806551Y-72842331D01*
X62856846Y-72707483D01*
X62863255Y-72647873D01*
X62863254Y-71852135D01*
X72899500Y-71852135D01*
X72899500Y-73647870D01*
X72899501Y-73647876D01*
X72905908Y-73707483D01*
X72956202Y-73842328D01*
X72956206Y-73842335D01*
X73042452Y-73957544D01*
X73042455Y-73957547D01*
X73157664Y-74043793D01*
X73157671Y-74043797D01*
X73292517Y-74094091D01*
X73292516Y-74094091D01*
X73299444Y-74094835D01*
X73352127Y-74100500D01*
X75147872Y-74100499D01*
X75207483Y-74094091D01*
X75342331Y-74043796D01*
X75342337Y-74043791D01*
X75342662Y-74043549D01*
X75342662Y-74043548D01*
X75394965Y-74004394D01*
X75457546Y-73957546D01*
X75543796Y-73842331D01*
X75594091Y-73707483D01*
X75600500Y-73647873D01*
X75600499Y-72745173D01*
X75600499Y-71852129D01*
X75600498Y-71852123D01*
X75600497Y-71852116D01*
X75594091Y-71792517D01*
X75594091Y-71792516D01*
X75554404Y-71686109D01*
X75543797Y-71657671D01*
X75543793Y-71657664D01*
X75536295Y-71647648D01*
X79904613Y-71647648D01*
X79904613Y-71852351D01*
X79936635Y-72054534D01*
X79999894Y-72249223D01*
X80092828Y-72431613D01*
X80213141Y-72597213D01*
X80357899Y-72741971D01*
X80496041Y-72842335D01*
X80523503Y-72862287D01*
X80639720Y-72921503D01*
X80705889Y-72955218D01*
X80705891Y-72955218D01*
X80705894Y-72955220D01*
X80788342Y-72982009D01*
X80900578Y-73018477D01*
X81001670Y-73034488D01*
X81102761Y-73050500D01*
X81102762Y-73050500D01*
X81307464Y-73050500D01*
X81307465Y-73050500D01*
X81509647Y-73018477D01*
X81704332Y-72955220D01*
X81886723Y-72862287D01*
X81957026Y-72811208D01*
X82022830Y-72787729D01*
X82090884Y-72803554D01*
X82117591Y-72823846D01*
X82186457Y-72892712D01*
X82335779Y-72984814D01*
X82502316Y-73039999D01*
X82605104Y-73050500D01*
X83805121Y-73050499D01*
X83907910Y-73039999D01*
X84074447Y-72984814D01*
X84223769Y-72892712D01*
X84347825Y-72768656D01*
X84439927Y-72619334D01*
X84495112Y-72452797D01*
X84505613Y-72350009D01*
X84505612Y-71149992D01*
X84495112Y-71047203D01*
X84439927Y-70880666D01*
X84347825Y-70731344D01*
X84223769Y-70607288D01*
X84118656Y-70542454D01*
X84074449Y-70515187D01*
X84074444Y-70515185D01*
X84072975Y-70514698D01*
X83907910Y-70460001D01*
X83907908Y-70460000D01*
X83805123Y-70449500D01*
X82605111Y-70449500D01*
X82605094Y-70449501D01*
X82502316Y-70460000D01*
X82502313Y-70460001D01*
X82335781Y-70515185D01*
X82335776Y-70515187D01*
X82186458Y-70607287D01*
X82117591Y-70676154D01*
X82056267Y-70709638D01*
X81986576Y-70704653D01*
X81957025Y-70688790D01*
X81886725Y-70637714D01*
X81886721Y-70637712D01*
X81704336Y-70544781D01*
X81509647Y-70481522D01*
X81335108Y-70453878D01*
X81307465Y-70449500D01*
X81102761Y-70449500D01*
X81078442Y-70453351D01*
X80900578Y-70481522D01*
X80705889Y-70544781D01*
X80523499Y-70637715D01*
X80357899Y-70758028D01*
X80213141Y-70902786D01*
X80092828Y-71068386D01*
X79999894Y-71250776D01*
X79936635Y-71445465D01*
X79904613Y-71647648D01*
X75536295Y-71647648D01*
X75457547Y-71542455D01*
X75457544Y-71542452D01*
X75342335Y-71456206D01*
X75342328Y-71456202D01*
X75207482Y-71405908D01*
X75207483Y-71405908D01*
X75147883Y-71399501D01*
X75147881Y-71399500D01*
X75147873Y-71399500D01*
X75147864Y-71399500D01*
X73352129Y-71399500D01*
X73352123Y-71399501D01*
X73292516Y-71405908D01*
X73157671Y-71456202D01*
X73157664Y-71456206D01*
X73042455Y-71542452D01*
X73042452Y-71542455D01*
X72956206Y-71657664D01*
X72956202Y-71657671D01*
X72905908Y-71792517D01*
X72899857Y-71848805D01*
X72899501Y-71852123D01*
X72899500Y-71852135D01*
X62863254Y-71852135D01*
X62863254Y-71686109D01*
X62863254Y-70852129D01*
X62863253Y-70852123D01*
X62863252Y-70852116D01*
X62856846Y-70792517D01*
X62843982Y-70758028D01*
X62806552Y-70657671D01*
X62806548Y-70657664D01*
X62720302Y-70542455D01*
X62720299Y-70542452D01*
X62605090Y-70456206D01*
X62605083Y-70456202D01*
X62470237Y-70405908D01*
X62470238Y-70405908D01*
X62410638Y-70399501D01*
X62410636Y-70399500D01*
X62410628Y-70399500D01*
X62410619Y-70399500D01*
X60614884Y-70399500D01*
X60614878Y-70399501D01*
X60555271Y-70405908D01*
X60420426Y-70456202D01*
X60420419Y-70456206D01*
X60305210Y-70542452D01*
X60305207Y-70542455D01*
X60218961Y-70657664D01*
X60218957Y-70657671D01*
X60168663Y-70792517D01*
X60162256Y-70852116D01*
X60162256Y-70852123D01*
X60162255Y-70852135D01*
X55990143Y-70852135D01*
X55989983Y-70147648D01*
X87619500Y-70147648D01*
X87619500Y-70352351D01*
X87651522Y-70554534D01*
X87714781Y-70749223D01*
X87736841Y-70792517D01*
X87807585Y-70931359D01*
X87807715Y-70931613D01*
X87928028Y-71097213D01*
X88072786Y-71241971D01*
X88193226Y-71329474D01*
X88238390Y-71362287D01*
X88324001Y-71405908D01*
X88420776Y-71455218D01*
X88420778Y-71455218D01*
X88420781Y-71455220D01*
X88525137Y-71489127D01*
X88615465Y-71518477D01*
X88716557Y-71534488D01*
X88817648Y-71550500D01*
X88817649Y-71550500D01*
X89022351Y-71550500D01*
X89022352Y-71550500D01*
X89224534Y-71518477D01*
X89419219Y-71455220D01*
X89601610Y-71362287D01*
X89694590Y-71294732D01*
X89767213Y-71241971D01*
X89767215Y-71241968D01*
X89767219Y-71241966D01*
X89911966Y-71097219D01*
X89911968Y-71097215D01*
X89911971Y-71097213D01*
X89964732Y-71024590D01*
X90032287Y-70931610D01*
X90125220Y-70749219D01*
X90188477Y-70554534D01*
X90220500Y-70352352D01*
X90220500Y-70147682D01*
X97780000Y-70147682D01*
X97780000Y-70352317D01*
X97812009Y-70554417D01*
X97875244Y-70749031D01*
X97968141Y-70931350D01*
X97968147Y-70931359D01*
X98000523Y-70975921D01*
X98000524Y-70975922D01*
X98680000Y-70296446D01*
X98680000Y-70302661D01*
X98707259Y-70404394D01*
X98759920Y-70495606D01*
X98834394Y-70570080D01*
X98925606Y-70622741D01*
X99027339Y-70650000D01*
X99033553Y-70650000D01*
X98354076Y-71329474D01*
X98398650Y-71361859D01*
X98580968Y-71454755D01*
X98775582Y-71517990D01*
X98977683Y-71550000D01*
X99182317Y-71550000D01*
X99384417Y-71517990D01*
X99579031Y-71454755D01*
X99761349Y-71361859D01*
X99805921Y-71329474D01*
X99126447Y-70650000D01*
X99132661Y-70650000D01*
X99234394Y-70622741D01*
X99325606Y-70570080D01*
X99400080Y-70495606D01*
X99452741Y-70404394D01*
X99480000Y-70302661D01*
X99480000Y-70296447D01*
X100159474Y-70975921D01*
X100191859Y-70931349D01*
X100284755Y-70749031D01*
X100347990Y-70554417D01*
X100380000Y-70352317D01*
X100380000Y-70147682D01*
X100347990Y-69945582D01*
X100284755Y-69750968D01*
X100191859Y-69568650D01*
X100159474Y-69524077D01*
X100159474Y-69524076D01*
X99480000Y-70203551D01*
X99480000Y-70197339D01*
X99452741Y-70095606D01*
X99400080Y-70004394D01*
X99325606Y-69929920D01*
X99234394Y-69877259D01*
X99132661Y-69850000D01*
X99126446Y-69850000D01*
X99805922Y-69170524D01*
X99805921Y-69170523D01*
X99761359Y-69138147D01*
X99761350Y-69138141D01*
X99579031Y-69045244D01*
X99384417Y-68982009D01*
X99182317Y-68950000D01*
X98977683Y-68950000D01*
X98775582Y-68982009D01*
X98580968Y-69045244D01*
X98398644Y-69138143D01*
X98354077Y-69170523D01*
X98354077Y-69170524D01*
X99033554Y-69850000D01*
X99027339Y-69850000D01*
X98925606Y-69877259D01*
X98834394Y-69929920D01*
X98759920Y-70004394D01*
X98707259Y-70095606D01*
X98680000Y-70197339D01*
X98680000Y-70203553D01*
X98000524Y-69524077D01*
X98000523Y-69524077D01*
X97968143Y-69568644D01*
X97875244Y-69750968D01*
X97812009Y-69945582D01*
X97780000Y-70147682D01*
X90220500Y-70147682D01*
X90220500Y-70147648D01*
X90212257Y-70095606D01*
X90188477Y-69945465D01*
X90157458Y-69850000D01*
X90125220Y-69750781D01*
X90125218Y-69750778D01*
X90125218Y-69750776D01*
X90032419Y-69568650D01*
X90032287Y-69568390D01*
X90000092Y-69524077D01*
X89911971Y-69402786D01*
X89767213Y-69258028D01*
X89601613Y-69137715D01*
X89601612Y-69137714D01*
X89601610Y-69137713D01*
X89544653Y-69108691D01*
X89419223Y-69044781D01*
X89224534Y-68981522D01*
X89049995Y-68953878D01*
X89022352Y-68949500D01*
X88817648Y-68949500D01*
X88793329Y-68953351D01*
X88615465Y-68981522D01*
X88420776Y-69044781D01*
X88238386Y-69137715D01*
X88072786Y-69258028D01*
X87928028Y-69402786D01*
X87807715Y-69568386D01*
X87714781Y-69750776D01*
X87651522Y-69945465D01*
X87619500Y-70147648D01*
X55989983Y-70147648D01*
X55989637Y-68624026D01*
X56009306Y-68556984D01*
X56062100Y-68511217D01*
X56113637Y-68500000D01*
X63000000Y-68500000D01*
X63000000Y-64602155D01*
X92900000Y-64602155D01*
X92900000Y-65250000D01*
X93816988Y-65250000D01*
X93784075Y-65307007D01*
X93750000Y-65434174D01*
X93750000Y-65565826D01*
X93784075Y-65692993D01*
X93816988Y-65750000D01*
X92900000Y-65750000D01*
X92900000Y-66397844D01*
X92906401Y-66457372D01*
X92906403Y-66457379D01*
X92956645Y-66592086D01*
X92956649Y-66592093D01*
X93042809Y-66707187D01*
X93042812Y-66707190D01*
X93157906Y-66793350D01*
X93157913Y-66793354D01*
X93292620Y-66843596D01*
X93292627Y-66843598D01*
X93352155Y-66849999D01*
X93352172Y-66850000D01*
X94000000Y-66850000D01*
X94000000Y-65933012D01*
X94057007Y-65965925D01*
X94184174Y-66000000D01*
X94315826Y-66000000D01*
X94442993Y-65965925D01*
X94500000Y-65933012D01*
X94500000Y-66850000D01*
X95147828Y-66850000D01*
X95147844Y-66849999D01*
X95207372Y-66843598D01*
X95207379Y-66843596D01*
X95342086Y-66793354D01*
X95342093Y-66793350D01*
X95457187Y-66707190D01*
X95457190Y-66707187D01*
X95543350Y-66592093D01*
X95543354Y-66592086D01*
X95593596Y-66457379D01*
X95593598Y-66457372D01*
X95599999Y-66397844D01*
X95600000Y-66397827D01*
X95600000Y-65750000D01*
X94683012Y-65750000D01*
X94715925Y-65692993D01*
X94750000Y-65565826D01*
X94750000Y-65434174D01*
X94715925Y-65307007D01*
X94683012Y-65250000D01*
X95600000Y-65250000D01*
X95600000Y-64602172D01*
X95599999Y-64602155D01*
X95593598Y-64542627D01*
X95593596Y-64542620D01*
X95543354Y-64407913D01*
X95543350Y-64407906D01*
X95457190Y-64292812D01*
X95457187Y-64292809D01*
X95342093Y-64206649D01*
X95342086Y-64206645D01*
X95207379Y-64156403D01*
X95207372Y-64156401D01*
X95147844Y-64150000D01*
X94500000Y-64150000D01*
X94500000Y-65066988D01*
X94442993Y-65034075D01*
X94315826Y-65000000D01*
X94184174Y-65000000D01*
X94057007Y-65034075D01*
X94000000Y-65066988D01*
X94000000Y-64150000D01*
X93352155Y-64150000D01*
X93292627Y-64156401D01*
X93292620Y-64156403D01*
X93157913Y-64206645D01*
X93157906Y-64206649D01*
X93042812Y-64292809D01*
X93042809Y-64292812D01*
X92956649Y-64407906D01*
X92956645Y-64407913D01*
X92906403Y-64542620D01*
X92906401Y-64542627D01*
X92900000Y-64602155D01*
X63000000Y-64602155D01*
X63000000Y-61631070D01*
X63019685Y-61564031D01*
X63072489Y-61518276D01*
X63123968Y-61507070D01*
X94369010Y-61499974D01*
X125625973Y-61492874D01*
X125693016Y-61512543D01*
G37*
%TD.AperFunction*%
%TD*%
M02*
